<svg width="400" height="400" viewBox="0 0 400 400" fill="none" xmlns="http://www.w3.org/2000/svg">
<g clip-path="url(#clip0_74_100)">
<path d="M330.91 47.99H69.09C53.024 47.99 40 61.014 40 77.08V329.2C40 345.266 53.024 358.29 69.09 358.29H330.91C346.976 358.29 360 345.266 360 329.2V77.08C360 61.014 346.976 47.99 330.91 47.99Z" fill="#E5E9EE"/>
<path d="M69.09 47.99H330.91C346.97 47.99 360 61.03 360 77.08V123.94H40V77.08C40 61.02 53.04 47.99 69.09 47.99Z" fill="#FDAEB3"/>
<path d="M103.03 72.23C96.3402 72.23 90.9102 66.81 90.9102 60.11V35.87C90.9102 29.17 96.3302 23.75 103.03 23.75C109.73 23.75 115.15 29.17 115.15 35.87V60.11C115.15 66.81 109.73 72.23 103.03 72.23Z" fill="#4B596A"/>
<path d="M296.97 72.23C290.28 72.23 284.85 66.81 284.85 60.11V35.87C284.85 29.17 290.27 23.75 296.97 23.75C303.67 23.75 309.09 29.17 309.09 35.87V60.11C309.09 66.81 303.67 72.23 296.97 72.23Z" fill="#4B596A"/>
<path d="M110 194.53C110 190 112.33 185.78 116.18 183.38L146.27 164.56C149.34 162.64 152.89 161.62 156.51 161.62C167.17 161.62 175.82 170.26 175.82 180.93V292.47C175.82 301.26 168.69 308.39 159.9 308.39C151.11 308.39 143.98 301.26 143.98 292.47V197.15L130.08 205.73C121.32 211.14 110.02 204.84 110.02 194.54L110 194.53Z" fill="#EF4452"/>
<path d="M192.35 176.47C192.35 169.34 198.13 163.56 205.26 163.56H278.39C284.8 163.56 290 168.76 290 175.17C290 182.63 288.47 190 285.49 196.84L241.25 298.62C238.67 304.55 232.82 308.39 226.35 308.39C214.57 308.39 206.71 296.26 211.51 285.51L254.48 189.39H205.27C198.14 189.39 192.36 183.61 192.36 176.48L192.35 176.47Z" fill="#EF4452"/>
</g>
<defs>
<clipPath id="clip0_74_100">
<rect width="400" height="400" fill="white"/>
</clipPath>
</defs>
</svg>
