<svg width="19" height="19" viewBox="0 0 19 19" fill="none" xmlns="http://www.w3.org/2000/svg">
<g clip-path="url(#clip0_63_134)">
<path d="M2.37566 17.575C2.13246 17.575 1.88974 17.4824 1.70401 17.2967C1.33304 16.9257 1.33304 16.3244 1.70401 15.9534L5.96999 11.6874C6.34096 11.3164 6.94231 11.3164 7.31329 11.6874C7.68426 12.0584 7.68426 12.6597 7.31329 13.0307L3.04731 17.2967C2.86159 17.4824 2.61886 17.575 2.37566 17.575Z" fill="#4E5968"/>
<path d="M4.92578 8.22463C4.92578 4.99938 7.54968 2.375 10.7754 2.375C12.388 2.375 13.8506 3.03098 14.9098 4.09023L6.64101 12.359C5.58176 11.2998 4.92578 9.83725 4.92578 8.22463Z" fill="#E5E9EE"/>
<path d="M6.64062 12.3591L14.9094 4.09033C15.9687 5.14958 16.6247 6.61211 16.6247 8.22473C16.6247 11.45 14.0003 14.0744 10.775 14.0744C9.1624 14.0744 7.69988 13.4184 6.64062 12.3591Z" fill="#F0F3F6"/>
<path d="M10.777 14.7864C7.15842 14.7864 4.21484 11.8428 4.21484 8.22472C4.21484 4.60665 7.15794 1.6626 10.777 1.6626C14.396 1.6626 17.3386 4.60617 17.3386 8.22472C17.3386 11.8433 14.395 14.7864 10.777 14.7864ZM10.777 3.0876C7.94407 3.0876 5.63984 5.3923 5.63984 8.22472C5.63984 11.0571 7.94454 13.3614 10.777 13.3614C13.6094 13.3614 15.9136 11.0567 15.9136 8.22472C15.9136 5.39277 13.6089 3.0876 10.777 3.0876Z" fill="#A3ADB7"/>
</g>
<defs>
<clipPath id="clip0_63_134">
<rect width="19" height="19" fill="white"/>
</clipPath>
</defs>
</svg>
