<svg width="40" height="40" viewBox="0 0 40 40" fill="none" xmlns="http://www.w3.org/2000/svg">
<g clip-path="url(#clip0_74_117)">
<path d="M35.6721 35.0411L28.8971 33.9621L19.9991 35.3791L11.1011 33.9621L4.32613 35.0411C3.21213 35.2181 2.20312 34.3581 2.20312 33.2301V7.60309C2.20312 6.70109 2.85813 5.93309 3.74913 5.79209L11.1011 4.62109L19.9991 6.03809L28.8971 4.62109L36.2491 5.79209C37.1391 5.93409 37.7951 6.70209 37.7951 7.60309V33.2301C37.7951 34.3581 36.7861 35.2191 35.6721 35.0411Z" fill="#E2E5E8"/>
<path d="M11.1016 4.62109V33.9621L19.9996 35.3791V6.03809L11.1016 4.62109Z" fill="#D0D6DE"/>
<path d="M28.8984 4.62109V33.9631L35.6734 35.0421C36.7874 35.2191 37.7964 34.3591 37.7964 33.2311V7.60309C37.7964 6.70109 37.1414 5.93309 36.2504 5.79209L28.8984 4.62109Z" fill="#D0D6DE"/>
<path d="M3.64778 16.1891L3.78878 15.6441C3.98578 14.8831 4.71078 14.3821 5.49278 14.4671L7.53678 14.6891L9.09678 13.5361C9.54878 13.2021 10.1828 13.2701 10.5528 13.6931L11.3778 14.6361L11.9558 14.5611C12.3168 14.5141 12.6538 14.7511 12.7318 15.1071L13.1238 16.9101L14.3398 17.4921C14.3398 17.4921 11.7658 18.8051 11.0818 20.4801C11.0818 20.4801 9.80278 19.6721 9.29778 20.6611C9.29778 20.6611 9.02978 21.3231 9.89278 21.6201C10.7558 21.9171 11.2908 22.8501 11.2908 22.8501L11.7518 22.6931C12.5718 22.4151 13.4778 22.5911 14.1338 23.1561L15.8708 24.6521L15.1098 25.2881L15.4068 26.0301C15.4068 26.0301 13.0308 27.2431 12.5858 29.3461C12.5858 29.3461 11.8928 30.4601 11.9918 28.6041C12.0908 26.7481 12.3878 25.8821 11.7198 25.1151C11.2648 24.5921 11.1768 23.9321 11.1678 23.5641C11.1628 23.3781 11.0618 23.2111 10.9048 23.1121L9.37678 22.1411C8.99578 21.8991 8.66178 21.5891 8.39178 21.2271L7.34078 19.8181C6.97478 19.3271 6.81178 18.7141 6.88678 18.1061L6.99278 17.2411C7.06278 16.6731 6.52478 16.2221 5.97778 16.3881L4.36878 16.8781C3.94178 17.0081 3.53778 16.6201 3.64978 16.1881L3.64778 16.1891Z" fill="#039C6A"/>
<path d="M10.8574 12.5451L11.1994 13.3251L12.5714 13.5491L14.2364 11.7371L10.8574 12.5451Z" fill="#039C6A"/>
<path d="M13.0752 14.2461C13.0752 14.2461 13.0752 13.3061 13.9912 13.2121C14.9072 13.1181 15.7292 12.7891 15.7292 12.7891C15.7292 12.7891 16.9982 12.8261 17.1862 13.3241C17.3742 13.8221 16.7402 15.5611 16.1522 15.8191C15.5642 16.0771 14.7422 16.7821 14.7422 16.7821L14.1312 14.6681L13.0742 14.2451L13.0752 14.2461Z" fill="#039C6A"/>
<path d="M19.8736 23.204C17.8176 23.887 16.3456 20.668 19.2156 19.709C20.6906 19.278 20.7586 20.3 20.7586 20.3C22.1096 21.025 23.2586 19.174 21.4846 18.937C20.6286 19.652 20.4876 18.905 20.0306 18.506C19.3616 18.938 16.8516 19.881 19.1696 18.347C17.9356 16.781 21.8376 18.3 21.2806 15.602C18.2226 19.125 20.7316 11.935 22.9146 15.376C27.3636 14.082 27.4806 13.234 32.4616 14.333C34.6646 14.42 37.8736 13.976 34.5556 17.371C31.4036 14.804 32.7016 17.809 32.1056 19.482C31.5486 20.055 31.5506 19.55 31.3346 19.073C30.1676 18.948 32.0216 21.248 30.6086 21.388C28.4506 20.442 31.7676 23.325 29.4746 22.59C27.5856 19.74 28.2396 22.986 26.5636 22.254C26.0896 21.748 24.7626 19.469 24.0046 20.094C24.0046 20.094 23.4376 20.48 25.1616 21.274C23.9216 22.735 23.4566 21.993 22.6876 20.638C22.5636 21.116 23.3476 23.284 24.0486 23.217C22.2426 27.853 20.8086 29.732 19.8736 23.202V23.204Z" fill="#039C6A"/>
<path d="M30.1419 24.4221C29.9939 24.3241 29.8439 24.2241 29.7239 24.0941C29.6039 23.9641 29.5129 23.7971 29.5079 23.6191C29.5059 23.5501 29.5369 23.4631 29.6049 23.4631C29.6389 23.4631 29.6689 23.4861 29.6949 23.5091C29.7639 23.5671 29.8329 23.6261 29.8929 23.6931C29.9819 23.7921 30.0499 23.9071 30.1339 24.0101C30.2099 24.1031 30.2979 24.1861 30.3929 24.2591C30.4909 24.3341 30.5989 24.3921 30.7029 24.4591C30.7709 24.5031 30.8249 24.5621 30.7439 24.6241C30.6829 24.6711 30.5899 24.6871 30.5189 24.6541C30.3869 24.5941 30.2639 24.5031 30.1429 24.4231L30.1419 24.4221Z" fill="#039C6A"/>
<path d="M30.7226 26.7261C30.7186 26.5371 30.7156 26.3211 30.8546 26.1931C30.9326 26.1211 31.0406 26.0941 31.1436 26.0641C31.2886 26.0221 31.4376 25.9671 31.5396 25.8561C31.6046 25.7861 31.6476 25.6971 31.7176 25.6331C31.8006 25.5571 31.9116 25.5211 32.0196 25.4881C32.1486 25.4481 32.2776 25.4081 32.4076 25.3691C32.5016 25.3401 32.5986 25.3111 32.6956 25.3231C32.9416 25.3531 33.0786 25.6141 33.2756 25.7641C33.3596 25.8281 33.4756 25.8731 33.5716 25.8261C33.6076 25.8081 33.6376 25.7781 33.6766 25.7681C33.7456 25.7501 33.8136 25.8001 33.8666 25.8481C34.1346 26.0931 34.3556 26.3851 34.5736 26.6751C34.6146 26.7301 34.6566 26.7861 34.6796 26.8511C34.7036 26.9221 34.7026 27.0001 34.6976 27.0751C34.6726 27.4361 34.5556 27.7901 34.3616 28.0951C34.3136 28.1701 34.2586 28.2451 34.1806 28.2891C34.0836 28.3431 33.9646 28.3411 33.8566 28.3191C33.5466 28.2561 33.2896 28.0491 33.0086 27.9051C32.5876 27.6901 32.0956 27.6171 31.6306 27.6991C31.4996 27.7221 31.3696 27.7571 31.2376 27.7731C31.0976 27.7901 30.9546 27.7851 30.8156 27.7661C30.7456 27.7561 30.6756 27.7431 30.6066 27.7281C30.5646 27.7181 30.4826 27.7141 30.4536 27.6761C30.4086 27.6181 30.5246 27.5111 30.5546 27.4701C30.6256 27.3741 30.6686 27.2631 30.6926 27.1461C30.7216 27.0081 30.7276 26.8661 30.7246 26.7261H30.7226Z" fill="#039C6A"/>
<path d="M33.1607 19.013C33.1347 19.041 33.1177 19.077 33.1027 19.112C33.0207 19.296 32.9387 19.479 32.8567 19.663C32.8137 19.759 32.7697 19.857 32.6977 19.935C32.6427 19.995 32.5687 20.048 32.5547 20.129C32.5377 20.234 32.6317 20.322 32.7217 20.378C32.7597 20.402 32.8017 20.426 32.8467 20.428C32.9097 20.431 32.9667 20.392 33.0167 20.353C33.3697 20.077 33.6417 19.7 33.7917 19.278C33.8217 19.194 33.8467 19.106 33.8457 19.017C33.8457 18.95 33.8317 18.854 33.7717 18.813C33.7297 18.784 33.6787 18.802 33.6357 18.818C33.5687 18.843 33.5037 18.863 33.4347 18.882C33.3457 18.906 33.2247 18.946 33.1597 19.015L33.1607 19.013Z" fill="#039C6A"/>
</g>
<defs>
<clipPath id="clip0_74_117">
<rect width="40" height="40" fill="white"/>
</clipPath>
</defs>
</svg>
