<svg width="41" height="41" viewBox="0 0 41 41" fill="none" xmlns="http://www.w3.org/2000/svg">
<path d="M4.736 8.81855C4.654 8.85255 4.58 8.89955 4.5 8.93955C4.608 8.88555 4.716 8.83355 4.83 8.78955C4.798 8.79855 4.766 8.80655 4.736 8.81855Z" fill="#2E2C7B"/>
<path d="M3.3583 9.77759C3.2853 9.85559 3.2213 9.94059 3.1543 10.0246C3.3633 9.76459 3.5993 9.53059 3.8663 9.32959C3.6853 9.46659 3.5133 9.61259 3.3583 9.77759Z" fill="#2E2C7B"/>
<path d="M3.15242 10.0269C2.97142 10.2529 2.81542 10.4989 2.68442 10.7599C2.67542 10.7779 2.66542 10.7939 2.65642 10.8119C2.52542 11.0809 2.42242 11.3659 2.35742 11.6669H6.41942L3.15342 10.0279L3.15242 10.0269Z" fill="#2E2C7B"/>
<path d="M13.2344 8.51367V11.3967L18.9784 8.51367H13.2344Z" fill="#2E2C7B"/>
<path d="M6.41772 14.8198H2.26172V16.9058L6.41872 14.8198H6.41772Z" fill="#2E2C7B"/>
<path d="M30.3874 19.3196C30.3874 19.3196 30.3644 19.3276 30.3314 19.3386C30.3474 19.4086 30.3714 19.4776 30.3864 19.5476C30.3944 19.5396 30.3994 19.5206 30.4094 19.5166C30.4324 19.5076 30.4644 19.5236 30.4954 19.5406C30.4864 19.5096 30.4724 19.4816 30.4644 19.4506C30.0364 18.0556 30.3874 19.3196 30.3874 19.3196Z" fill="#2E2C7B"/>
<path d="M37.5787 10.2777C37.2907 9.85167 36.9237 9.48467 36.4987 9.19667C35.8607 8.76567 35.0907 8.51367 34.2627 8.51367H21.0847V9.57167L16.9107 11.6657H21.0847V14.8187H16.9107L21.0847 16.9127V18.2067H19.4487L13.2347 15.0867V18.2067H10.0947V15.0867L3.87972 18.2067H2.26172V28.5127C2.26172 29.8937 2.96172 31.1107 4.02572 31.8297C4.66372 32.2607 5.43372 32.5127 6.26172 32.5127H34.2617C35.0897 32.5127 35.8597 32.2607 36.4977 31.8297C37.5617 31.1107 38.2617 29.8937 38.2617 28.5127V12.5137C38.2617 11.6857 38.0097 10.9157 37.5787 10.2777ZM26.9497 27.5117C26.8547 27.5557 26.7107 27.4397 26.5667 27.2477L26.1477 27.4567L26.2667 26.6937C26.1507 26.3867 26.1307 26.1267 26.2467 26.0727C26.3767 26.0127 26.5977 26.2257 26.7857 26.5807L27.2457 26.9077L26.9787 27.0417C27.0457 27.2787 27.0457 27.4677 26.9497 27.5117ZM33.9877 23.2407C33.7237 23.4197 33.4697 23.5277 33.2457 23.5897C33.2477 23.7337 33.2387 23.9057 33.2147 24.1007C33.7637 24.2157 34.1827 24.4157 34.1517 24.5807C34.1517 24.7507 33.6377 24.8037 33.1077 24.7187C32.9867 25.2777 32.8127 25.7357 32.6597 25.9297C32.6627 25.9307 32.6667 25.9297 32.6687 25.9317C32.8667 26.0637 32.7347 26.5137 32.4927 26.9307C32.3887 27.0787 32.2707 27.1917 32.1527 27.2847L32.1737 27.6007L31.8977 27.4327C31.7907 27.4707 31.6917 27.4837 31.6247 27.4367C31.5637 27.3937 31.5407 27.3097 31.5337 27.2107L31.0757 26.9307L31.6867 26.6487C31.7217 26.5817 31.7537 26.5147 31.8007 26.4477C31.9917 26.1757 32.2247 25.9897 32.4187 25.9277C32.3347 25.7117 32.3557 25.1697 32.4987 24.5587C32.1907 24.4467 31.9547 24.3097 31.9547 24.1967C31.9547 24.0687 32.2507 24.0067 32.6437 24.0247C32.6527 23.9967 32.6607 23.9707 32.6697 23.9437C32.6507 23.9027 32.6337 23.8727 32.6127 23.8127C32.3537 23.0547 32.2517 22.6157 31.6357 22.3767V24.6357C31.6357 26.2497 29.1537 27.9297 29.1537 27.9297C29.1537 27.9297 28.8727 27.7397 28.5007 27.4277C28.4807 27.4097 28.4597 27.3937 28.4397 27.3757C27.7027 26.7457 26.6607 25.6607 26.6607 24.5587V22.7287C26.3607 23.0957 26.1117 23.5027 25.9287 23.9437C25.9437 23.9927 25.9587 24.0447 25.9727 24.0967C26.3287 24.1517 26.6057 24.2727 26.6057 24.3947C26.6057 24.4887 26.4227 24.5697 26.1587 24.6227C26.2947 25.3857 26.2697 26.0207 26.0897 26.0527C25.9037 26.0857 25.6407 25.4737 25.4867 24.6757C24.9587 24.6627 24.5407 24.5407 24.5407 24.3947C24.5407 24.2587 24.9427 24.1117 25.4007 24.0787C25.3507 23.5547 25.3877 23.1677 25.4857 23.1427C25.5157 23.1347 25.5557 23.1657 25.6007 23.2217C25.6117 23.1737 25.6187 23.1247 25.6317 23.0767C25.4597 23.0667 25.2717 23.0397 25.0687 22.9777C24.4977 22.8017 24.0917 22.4617 24.1577 22.2307C24.1827 22.1437 24.2877 22.0947 24.4217 22.0647C24.3487 22.0337 24.3057 21.9887 24.3337 21.9227C24.7357 21.2767 25.3957 20.8327 26.1457 20.7037C26.2277 20.6817 26.2997 20.6347 26.3787 20.6057C26.3667 20.6057 26.3557 20.6057 26.3437 20.6057C25.7517 20.6327 25.2287 20.2697 25.0127 19.7297C24.9397 19.7777 24.8587 19.8147 24.7657 19.8237C24.4577 19.8537 24.1837 19.6287 24.1537 19.3217C24.1237 19.0137 24.3487 18.7397 24.6557 18.7097C24.6727 18.7087 24.6907 18.7077 24.7077 18.7077V17.5807L24.4217 17.6977C24.1397 17.7697 23.8527 17.5997 23.7807 17.3167C23.7227 17.0887 23.8227 16.8497 24.0267 16.7307L25.0477 16.3797C25.2877 16.2997 25.5497 16.4007 25.6737 16.6207C25.6857 16.6497 25.6837 16.6797 25.6897 16.7097C25.7257 16.7627 25.7507 16.8207 25.7507 16.8847V18.0077L25.8717 17.9167C26.1087 17.8077 26.3887 17.9107 26.4977 18.1477C26.6747 18.3277 26.6747 18.6157 26.4977 18.7957L25.7157 19.3547C25.6797 19.4287 25.6157 19.4887 25.5337 19.5347C25.7877 19.9067 26.8877 20.1587 27.8057 19.0907C27.7697 19.0487 27.7447 18.9997 27.7057 18.9597L27.2557 18.8937C27.6137 18.5807 27.9967 18.2987 28.3827 18.0197C28.1817 17.9437 28.0577 17.8467 28.0577 17.7407C28.0577 17.5657 28.3867 17.4207 28.8587 17.3537L28.6287 17.3347L28.1787 17.0157L27.9587 16.4887L28.3977 16.1597C28.6767 16.3347 29.0187 16.3747 29.3307 16.2697C29.7037 16.1157 30.4287 15.3807 30.6047 15.4897C30.7807 15.5997 29.7047 16.2257 30.1547 16.3237C30.6047 16.4217 30.7477 16.0497 31.0217 15.9067C31.2957 15.7637 31.7357 15.7527 31.3177 16.0387C30.9267 16.4417 30.6067 16.9047 30.3587 17.4077C30.6597 17.4817 30.8567 17.5957 30.8567 17.7407C30.8567 17.8367 30.7547 17.9247 30.5867 17.9977C30.9047 18.7677 31.6717 20.0797 32.4047 20.0797C33.1737 20.0797 33.2717 19.7607 33.2717 19.7607C33.2667 20.1317 32.9727 20.4357 32.6017 20.4527C32.2707 20.4867 31.9367 20.4457 31.6247 20.3317C31.9337 20.6127 32.3137 20.8067 32.7227 20.8917C33.3817 21.0677 34.4907 21.2647 34.4577 21.8907C34.4547 21.9537 34.4327 21.9947 34.4227 22.0507C34.6367 22.0177 34.8037 22.0427 34.8647 22.1437C34.9967 22.3527 34.6017 22.8247 33.9867 23.2417L33.9877 23.2407ZM34.9317 17.5307C34.8137 17.7987 34.2647 17.8107 33.6867 17.5457L34.0717 18.9407C34.3517 18.9567 34.5747 19.1817 34.5807 19.4637C34.5747 19.7507 34.3407 19.9797 34.0537 19.9797C33.9397 19.9797 33.8397 19.9357 33.7537 19.8727C33.5687 19.9107 33.3877 19.8477 33.2657 19.7167L31.9777 18.8827C31.7717 18.6677 31.7797 18.3277 31.9937 18.1217C32.1417 17.9807 32.3567 17.9347 32.5487 18.0037L32.7747 18.1517L32.5927 17.4767C32.5257 17.2407 32.6397 17.0037 32.8467 16.8907C32.7867 16.7827 32.7537 16.6787 32.7897 16.5877C32.8997 16.3137 33.4707 16.3137 34.0637 16.5877C34.6567 16.8627 35.0737 17.2687 34.9307 17.5317L34.9317 17.5307Z" fill="#2E2C7B"/>
<path d="M32.7257 21.5047C32.3297 21.4387 31.9617 21.2887 31.6387 21.0757V21.4167C32.0007 21.8077 32.5337 21.7707 32.7697 22.6357C32.8037 22.7597 32.8307 22.8837 32.8517 23.0067C33.0117 22.8257 33.2367 22.6287 33.5167 22.4387C33.6607 22.3407 33.8037 22.2637 33.9407 22.2007C33.7687 21.9437 33.3507 21.6477 32.7257 21.5047Z" fill="#2E2C7B"/>
<path d="M25.0502 22.0317C25.0402 22.0467 25.0202 22.0607 24.9922 22.0717C25.1032 22.0917 25.2162 22.1147 25.3352 22.1527C25.5612 22.2257 25.7442 22.3197 25.8962 22.4197C26.0082 22.1957 26.1352 21.9787 26.2902 21.7797C26.4182 21.6717 26.5382 21.5537 26.6632 21.4427V21.2827C26.6552 21.2867 26.6492 21.2927 26.6412 21.2967C26.0872 21.4877 25.5532 21.7347 25.0492 22.0327L25.0502 22.0317Z" fill="#2E2C7B"/>
<path d="M10.094 8.51367H6.26105C6.01305 8.51367 5.77105 8.54067 5.53705 8.58667C5.30905 8.63167 5.08805 8.69567 4.87405 8.77567L10.094 11.3967V8.51367Z" fill="#2E2C7B"/>
<path d="M6.41872 14.8198L2.26172 16.9058V17.0178L6.64072 14.8198H6.41872Z" fill="#E3E7EA"/>
<path d="M21.084 17.2668V16.9138L16.91 14.8198H16.209L21.084 17.2668Z" fill="#E3E7EA"/>
<path d="M6.41739 11.6659H7.11939L3.35639 9.77686C3.28339 9.85486 3.21939 9.93986 3.15239 10.0239L3.15039 10.0259L6.41639 11.6649L6.41739 11.6659Z" fill="#E3E7EA"/>
<path d="M9.92969 14.8198L3.17969 18.2078H3.88069L10.0957 15.0888V14.8198H9.92969Z" fill="#E3E7EA"/>
<path d="M10.0943 11.5089V11.3969L4.87333 8.77588C4.85933 8.78088 4.84533 8.78488 4.83033 8.78888C4.79833 8.79788 4.76633 8.80588 4.73633 8.81788L10.0953 11.5079L10.0943 11.5089Z" fill="#E3E7EA"/>
<path d="M16.9095 11.6655L21.0835 9.57147V9.45947L16.6875 11.6655H16.9095Z" fill="#E3E7EA"/>
<path d="M13.2344 15.0886L19.4484 18.2076H19.6714L13.2344 14.9766V15.0886Z" fill="#E3E7EA"/>
<path d="M13.2344 11.6657H13.4004L19.6804 8.51367H18.9784L13.2344 11.3967V11.6657Z" fill="#E3E7EA"/>
<path d="M13.2344 14.8198V14.9768L19.6714 18.2078H20.1514L13.4004 14.8198H13.2344Z" fill="#E3E7EA"/>
<path d="M9.92809 11.6658H10.0931V11.5088L4.73409 8.81885C4.65209 8.85285 4.57809 8.89985 4.49809 8.93985C4.49809 8.93985 4.49709 8.93985 4.49609 8.93985L9.92809 11.6658Z" fill="#E3E7EA"/>
<path d="M16.688 11.6658L21.084 9.45975V9.21875L16.209 11.6658H16.688Z" fill="#E3E7EA"/>
<path d="M6.64072 14.8198L2.26172 17.0178V17.2578L7.12072 14.8198H6.64072Z" fill="#E3E7EA"/>
<path d="M8.52514 11.6655H9.93014L4.49914 8.93945C4.27614 9.04945 4.06614 9.17845 3.86914 9.32645L8.52714 11.6645L8.52514 11.6655Z" fill="#E3E7EA"/>
<path d="M16.2087 11.6657L21.0837 9.21867V8.51367L14.8047 11.6657H16.2087Z" fill="#E3E7EA"/>
<path d="M7.12072 14.8198L2.26172 17.2578V17.9638L8.52472 14.8198H7.12072Z" fill="#E3E7EA"/>
<path d="M13.4004 14.8198L20.1514 18.2078H21.0844V17.9718L14.8054 14.8198H13.4004Z" fill="#E3E7EA"/>
<path d="M21.0833 12.2965V11.6655H16.9093L15.6543 12.2965H21.0833Z" fill="#E3E7EA"/>
<path d="M10.7218 11.7127V8.51367H10.0938V11.3967L10.7218 11.7127Z" fill="#E3E7EA"/>
<path d="M10.0938 15.0884V18.2074H10.7218V14.7734L10.0938 15.0884Z" fill="#E3E7EA"/>
<path d="M12.6055 18.2074H13.2335V15.0884L12.6055 14.7734V18.2074Z" fill="#E3E7EA"/>
<path d="M7.6732 12.2965L6.4172 11.6655H2.3552C2.3112 11.8685 2.2952 12.0815 2.2832 12.2945L7.6742 12.2955L7.6732 12.2965Z" fill="#E3E7EA"/>
<path d="M7.67372 14.1885H2.26172V14.8195H6.41772L7.67372 14.1885Z" fill="#E3E7EA"/>
<path d="M13.2335 11.3967V8.51367H12.6055V11.7127L13.2335 11.3967Z" fill="#E3E7EA"/>
<path d="M16.9093 14.8195H21.0833V14.1885H15.6543L16.9093 14.8195Z" fill="#E3E7EA"/>
<path d="M10.7218 11.7125L10.0938 11.3965V11.5085L10.7218 11.8245V11.7125Z" fill="#E3E7EA"/>
<path d="M13.3995 11.6655H13.2335V11.3965L12.6055 11.7125V12.0645L13.3995 11.6655Z" fill="#E3E7EA"/>
<path d="M14.9512 14.1885L16.2082 14.8195H16.9092L15.6542 14.1885H14.9512Z" fill="#E3E7EA"/>
<path d="M15.4316 12.2965H15.6546L16.9096 11.6655H16.6876L15.4316 12.2965Z" fill="#E3E7EA"/>
<path d="M7.12097 11.6655H6.41797L7.67397 12.2965H8.37697L7.12097 11.6655Z" fill="#E3E7EA"/>
<path d="M7.67297 14.1885L6.41797 14.8195H6.63997L7.89497 14.1885H7.67297Z" fill="#E3E7EA"/>
<path d="M6.41797 14.8195H6.41897L7.67397 14.1885L6.41797 14.8195Z" fill="#E3E7EA"/>
<path d="M10.7237 14.4209L9.92969 14.8199H10.0957V15.0889L10.7237 14.7739V14.4209Z" fill="#E3E7EA"/>
<path d="M12.6055 14.6606V14.7736L13.2335 15.0886V14.9766L12.6055 14.6606Z" fill="#E3E7EA"/>
<path d="M14.8039 14.8195H16.2079L14.9509 14.1885H13.5469L14.8039 14.8195Z" fill="#E3E7EA"/>
<path d="M9.78109 12.2965L8.52509 11.6655H7.12109L8.37709 12.2965H9.78109Z" fill="#E3E7EA"/>
<path d="M10.7234 14.1885H9.78139L8.52539 14.8195H9.92939L10.7234 14.4205V14.1885Z" fill="#E3E7EA"/>
<path d="M12.6055 12.2965H13.5475L14.8045 11.6655H13.3995L12.6055 12.0645V12.2965Z" fill="#E3E7EA"/>
<path d="M10.7237 11.8248L10.0957 11.5088V11.6658H9.92969L10.7237 12.0648V11.8248Z" fill="#E3E7EA"/>
<path d="M7.89663 14.1885H7.89562L6.64062 14.8195H7.12063L8.37662 14.1885H7.89663Z" fill="#E3E7EA"/>
<path d="M12.6055 14.6609L13.2335 14.9769V14.8199H13.3995L12.6055 14.4209V14.6609Z" fill="#E3E7EA"/>
<path d="M15.4312 12.2965L16.6872 11.6655H16.2082L14.9512 12.2965H15.4312Z" fill="#E3E7EA"/>
<path d="M12.6055 14.1885V14.4205L13.3995 14.8195H14.8045L13.5475 14.1885H12.6055Z" fill="#E3E7EA"/>
<path d="M10.7234 12.2965V12.0645L9.92939 11.6655H8.52539L9.78139 12.2965H10.7234Z" fill="#E3E7EA"/>
<path d="M8.37709 14.1885L7.12109 14.8195H8.52509L9.78109 14.1885H8.37709Z" fill="#E3E7EA"/>
<path d="M14.9509 12.2965L16.2079 11.6655H14.8039L13.5469 12.2965H14.9509Z" fill="#E3E7EA"/>
<path d="M9.92872 14.8198H8.52472L2.26172 17.9638V18.2078H3.17872L9.92872 14.8198Z" fill="#D00032"/>
<path d="M14.8047 14.8198L21.0837 17.9718V17.2668L16.2087 14.8198H14.8047Z" fill="#D00032"/>
<path d="M7.12042 11.6656H8.52442L3.86642 9.32764L3.86542 9.32864C3.68442 9.46564 3.51242 9.61164 3.35742 9.77664L7.12042 11.6656Z" fill="#D00032"/>
<path d="M14.8054 11.6657L21.0844 8.51367H19.6804L13.4004 11.6657H14.8054Z" fill="#D00032"/>
<path d="M21.0817 12.2937V14.1937H12.6017V18.2037H10.7217V14.1937H2.26172V12.5137C2.26172 12.4437 2.28172 12.3737 2.28172 12.2937H10.7217V8.51367H12.6017V12.2937H21.0817Z" fill="#D00032"/>
<path d="M30.3654 20.1996C30.1374 20.0816 29.8654 20.5126 29.4744 20.8136C29.4504 20.8296 29.4244 20.8416 29.4004 20.8576H30.6294C30.5464 20.7326 30.4654 20.5746 30.4084 20.3856C30.3894 20.3206 30.3784 20.2616 30.3654 20.1996Z" fill="#DC2E44"/>
<path d="M30.9629 20.4478C30.9939 20.6048 31.0049 20.7448 30.9979 20.8578H31.3519C31.2089 20.7348 31.0789 20.5978 30.9629 20.4478Z" fill="#DC2E44"/>
<path d="M30.3609 17.4057C30.6089 16.9027 30.9289 16.4387 31.3199 16.0367C31.7369 15.7517 31.2979 15.7627 31.0239 15.9047C30.7489 16.0477 30.6069 16.4207 30.1569 16.3217C29.7069 16.2227 30.7829 15.5967 30.6069 15.4877C30.4309 15.3777 29.7069 16.1137 29.3329 16.2677C29.0209 16.3727 28.6789 16.3327 28.3999 16.1577L27.9609 16.4867L28.1809 17.0137L28.6309 17.3327L28.8609 17.3517C29.0419 17.3257 29.2409 17.3107 29.4539 17.3107C29.7999 17.3107 30.1149 17.3457 30.3609 17.4057Z" fill="#D2D3D4"/>
<path d="M28.2718 19.8666C28.2948 19.8406 28.3208 19.8176 28.3438 19.7916C28.4668 20.0816 28.4748 20.4076 28.3658 20.7026C28.3338 20.7556 28.2938 20.8036 28.2608 20.8566H29.4008C29.4248 20.8406 29.4518 20.8286 29.4748 20.8126C29.8658 20.5116 30.1368 20.0806 30.3658 20.1986C30.2958 19.8776 30.3068 19.6226 30.3858 19.5476C30.3708 19.4766 30.3468 19.4086 30.3308 19.3386C30.1328 19.4036 29.4428 19.6016 29.4428 19.1876C29.4428 18.7046 30.0908 18.9896 29.9588 18.4516C29.9328 18.3446 29.8988 18.2466 29.8638 18.1556C29.7338 18.1676 29.5978 18.1766 29.4538 18.1766C29.0178 18.1766 28.6388 18.1136 28.3848 18.0166C27.9988 18.2946 27.6168 18.5776 27.2578 18.8906L27.7078 18.9566C27.7458 18.9966 27.7718 19.0456 27.8078 19.0876C27.9678 19.2736 28.0958 19.4796 28.1998 19.7006C28.2468 19.7476 28.2758 19.8006 28.2728 19.8656L28.2718 19.8666Z" fill="#D2D3D4"/>
<path d="M31.5171 21.2529V21.2639C31.5541 21.3239 31.5951 21.3719 31.6381 21.4179V20.8579H26.6641V24.5579C26.6641 25.6599 27.7061 26.7439 28.4431 27.3749C27.8091 26.8209 27.2761 26.1589 26.8731 25.4149L26.9281 25.3199L26.8621 25.1619L29.2891 20.8689L31.4851 25.0959L31.3091 25.5239L30.3551 23.7559L31.3201 25.6659C30.7551 26.5559 30.0151 27.3219 29.1461 27.9169C28.9221 27.7659 28.7091 27.5999 28.5041 27.4259C28.8751 27.7379 29.1571 27.9279 29.1571 27.9279C29.1571 27.9279 31.6391 26.2479 31.6391 24.6339V22.3749C31.5771 22.3509 31.5151 22.3259 31.4411 22.3059C30.6391 22.0859 31.5181 21.2519 31.5181 21.2519L31.5171 21.2529Z" fill="#4E8ECB"/>
<path d="M25.8072 20.2209C25.8072 20.0889 26.1362 19.9799 26.5322 19.9799C26.8252 19.9799 27.0742 20.0409 27.1842 20.1249C27.2432 20.0739 27.3122 20.0369 27.3662 19.9799C27.8492 19.6069 27.7392 19.3429 27.9702 19.5189C28.0612 19.5879 28.1402 19.6439 28.1982 19.7029C28.0942 19.4819 27.9652 19.2759 27.8062 19.0899C26.8882 20.1579 25.7882 19.9059 25.5342 19.5339C25.6162 19.4879 25.6812 19.4279 25.7162 19.3539L26.4982 18.7949C26.6752 18.6159 26.6752 18.3269 26.4982 18.1469C26.3892 17.9109 26.1092 17.8079 25.8722 17.9159L25.7512 18.0069V16.8839C25.7512 16.8199 25.7262 16.7619 25.6902 16.7089C25.6022 16.5789 25.4262 16.4879 25.2232 16.4879C24.9732 16.4619 24.7462 16.6349 24.7072 16.8839V18.7069C24.6902 18.7069 24.6722 18.7069 24.6552 18.7089C24.3472 18.7399 24.1222 19.0139 24.1532 19.3209C24.1832 19.6289 24.4572 19.8539 24.7652 19.8229C24.8582 19.8139 24.9392 19.7769 25.0122 19.7289C25.2282 20.2699 25.7512 20.6319 26.3432 20.6049C26.3562 20.6059 26.3662 20.6049 26.3782 20.6049C26.5062 20.5569 26.6352 20.5129 26.7542 20.4459C26.6832 20.4539 26.6092 20.4619 26.5302 20.4619C26.1352 20.4619 25.8052 20.3519 25.8052 20.2199L25.8072 20.2209Z" fill="#039A67"/>
<path d="M34.0645 16.5859C33.4715 16.3119 32.9005 16.3119 32.7905 16.5859C32.7545 16.6769 32.7865 16.7819 32.8475 16.8889C32.9685 17.1059 33.2515 17.3389 33.6475 17.5299C33.6615 17.5369 33.6735 17.5389 33.6875 17.5449C34.2655 17.8109 34.8145 17.7989 34.9325 17.5299C35.0755 17.2669 34.6565 16.8599 34.0645 16.5859Z" fill="#039A67"/>
<path d="M33.215 24.0999C33.239 23.9049 33.248 23.7339 33.246 23.5889C33.118 23.6249 33.007 23.6399 32.911 23.6369C32.914 24.0609 32.819 24.2639 32.672 23.9409C32.663 23.9679 32.655 23.9939 32.646 24.0219C32.253 24.0039 31.957 24.0659 31.957 24.1939C31.957 24.3069 32.193 24.4439 32.501 24.5559C32.357 25.1669 32.337 25.7089 32.421 25.9249C32.513 25.8959 32.597 25.8879 32.662 25.9269C32.815 25.7329 32.989 25.2749 33.11 24.7159C33.64 24.8009 34.154 24.7479 34.154 24.5779C34.185 24.4129 33.766 24.2129 33.217 24.0979L33.215 24.0999Z" fill="#039A67"/>
<path d="M25.8954 22.4199C25.7434 22.3199 25.5604 22.2249 25.3344 22.1529C25.2154 22.1149 25.1024 22.0919 24.9914 22.0719C24.8624 22.1239 24.5744 22.1279 24.4234 22.0639C24.2894 22.0939 24.1844 22.1429 24.1594 22.2299C24.0934 22.4599 24.4994 22.8009 25.0704 22.9769C25.2744 23.0399 25.4614 23.0659 25.6334 23.0759C25.6204 23.1229 25.6134 23.1729 25.6024 23.2209C25.7004 23.3439 25.8234 23.6039 25.9304 23.9429C26.1124 23.5019 26.3624 23.0949 26.6624 22.7279V21.4429C26.5364 21.5539 26.4174 21.6719 26.2894 21.7799C26.1344 21.9789 26.0074 22.1959 25.8954 22.4199Z" fill="#039A67"/>
<path d="M27.3447 20.858H28.2607C28.2937 20.805 28.3347 20.758 28.3657 20.704C28.4747 20.408 28.4668 20.083 28.3438 19.793C28.3207 19.819 28.2947 19.842 28.2717 19.868C28.2687 19.928 28.2457 19.997 28.1787 20.089C27.9357 20.383 27.6507 20.633 27.3447 20.858Z" fill="#039A67"/>
<path d="M32.7255 20.89C32.3165 20.805 31.9365 20.611 31.6275 20.33C31.9395 20.444 32.2745 20.485 32.6045 20.451C32.9755 20.434 33.2685 20.13 33.2745 19.759C33.2745 19.759 33.1755 20.078 32.4075 20.078C31.6745 20.078 30.9065 18.766 30.5895 17.996C30.7575 17.923 30.8595 17.835 30.8595 17.739C30.8595 17.594 30.6625 17.48 30.3615 17.406C30.1155 17.345 29.7995 17.311 29.4545 17.311C29.2415 17.311 29.0415 17.326 28.8615 17.352C28.3895 17.419 28.0605 17.564 28.0605 17.739C28.0605 17.845 28.1855 17.942 28.3855 18.018C28.6395 18.115 29.0195 18.178 29.4545 18.178C29.5985 18.178 29.7345 18.169 29.8645 18.157C29.8995 18.248 29.9335 18.345 29.9595 18.453C30.0915 18.991 29.4435 18.706 29.4435 19.189C29.4435 19.603 30.1335 19.405 30.3315 19.34C30.3645 19.329 30.3875 19.321 30.3875 19.321C30.3875 19.321 30.0365 18.058 30.4645 19.453C30.4725 19.484 30.4865 19.513 30.4955 19.543C30.6265 19.613 30.8085 19.878 30.9145 20.232C30.9375 20.307 30.9505 20.377 30.9645 20.448C31.0805 20.598 31.2095 20.735 31.3525 20.858H31.6395V21.077C31.9625 21.29 32.3305 21.44 32.7265 21.506C33.3525 21.649 33.7685 21.944 33.9405 22.202C34.1205 22.12 34.2815 22.072 34.4255 22.05C34.4365 21.995 34.4575 21.954 34.4605 21.89C34.4935 21.264 33.3845 21.067 32.7255 20.891V20.89Z" fill="#039A67"/>
<path d="M29.223 21.6587L27.027 25.5567L26.928 25.3197L26.873 25.4147C27.276 26.1587 27.81 26.8207 28.443 27.3747C28.463 27.3927 28.484 27.4087 28.504 27.4267C28.708 27.6017 28.921 27.7667 29.146 27.9177C30.016 27.3227 30.755 26.5567 31.32 25.6667L30.355 23.7567L29.223 21.6587ZM30.387 26.6767L30.145 26.6107L29.157 27.4337L28.125 26.5557H27.927L27.883 25.6887L28.487 26.3147L28.388 26.4467L29.069 26.9077C29.069 26.9077 28.981 26.7757 28.981 26.6337V24.8217H28.465C28.356 24.8217 28.267 24.7327 28.267 24.6237C28.267 24.5207 28.35 24.4367 28.453 24.4367C28.457 24.4367 28.461 24.4367 28.464 24.4367H28.98V24.0637C28.98 23.9097 28.98 23.7887 29.068 23.7887H29.233C29.233 23.7887 29.321 23.9097 29.321 24.0637V24.4367H29.98C30.085 24.4367 30.172 24.5187 30.178 24.6237C30.178 24.7327 30.089 24.8217 29.98 24.8217H29.321V26.6337C29.321 26.6917 29.318 26.7427 29.312 26.7897L30.013 26.4477L29.804 26.3267L30.485 25.8107L30.386 26.6777L30.387 26.6767Z" fill="#039A67"/>
<path d="M33.2661 19.7147C33.3881 19.8457 33.5691 19.9087 33.7541 19.8707C33.8391 19.9337 33.9391 19.9777 34.0541 19.9777C34.3411 19.9777 34.5751 19.7487 34.5811 19.4617C34.5751 19.1797 34.3521 18.9537 34.0721 18.9387L33.6871 17.5437C33.6731 17.5377 33.6611 17.5357 33.6471 17.5287C33.2511 17.3377 32.9691 17.1047 32.8471 16.8877C32.6401 17.0007 32.5251 17.2377 32.5931 17.4737L32.7751 18.1487L32.5491 18.0007C32.3571 17.9317 32.1421 17.9767 31.9941 18.1187C31.7791 18.3247 31.7721 18.6647 31.9781 18.8797L33.2661 19.7147Z" fill="#F9E923"/>
<path d="M24.7099 17.5778V16.8818C24.7489 16.6338 24.9759 16.4598 25.2259 16.4858C25.4289 16.4858 25.6049 16.5768 25.6929 16.7068C25.6869 16.6768 25.6879 16.6468 25.6769 16.6178C25.5529 16.3978 25.2909 16.2968 25.0509 16.3768L24.0299 16.7278C23.8259 16.8458 23.7259 17.0848 23.7839 17.3138C23.8559 17.5958 24.1429 17.7658 24.4249 17.6948L24.7099 17.5778Z" fill="#F9E923"/>
<path d="M26.1629 24.6209C26.4269 24.5689 26.6099 24.4869 26.6099 24.3929C26.6099 24.2709 26.3329 24.1509 25.9769 24.0949C25.9619 24.0429 25.9479 23.9909 25.9329 23.9419C25.8259 23.6029 25.7029 23.3429 25.6049 23.2199C25.5599 23.1639 25.5199 23.1329 25.4899 23.1409C25.3919 23.1649 25.3549 23.5519 25.4049 24.0769C24.9469 24.1099 24.5449 24.2569 24.5449 24.3929C24.5449 24.5379 24.9619 24.6599 25.4909 24.6739C25.6449 25.4729 25.9069 26.0839 26.0939 26.0509C26.2739 26.0189 26.2989 25.3839 26.1629 24.6209Z" fill="#F9E923"/>
<path d="M30.4084 20.3847C30.4654 20.5737 30.5464 20.7317 30.6294 20.8567H30.9974C31.0054 20.7437 30.9934 20.6047 30.9624 20.4467C30.9484 20.3757 30.9354 20.3047 30.9124 20.2307C30.8064 19.8767 30.6244 19.6117 30.4934 19.5417C30.4624 19.5247 30.4304 19.5087 30.4074 19.5177C30.3974 19.5217 30.3934 19.5397 30.3844 19.5487C30.3054 19.6237 30.2954 19.8787 30.3644 20.1997C30.3774 20.2617 30.3874 20.3207 30.4074 20.3857L30.4084 20.3847Z" fill="#F9E923"/>
<path d="M34.8676 22.142C34.8076 22.041 34.6406 22.016 34.4256 22.049C34.2816 22.071 34.1196 22.119 33.9406 22.201C33.8036 22.264 33.6606 22.341 33.5166 22.439C33.2366 22.629 33.0116 22.826 32.8516 23.007C32.8306 22.885 32.8036 22.76 32.7696 22.636C32.5336 21.771 32.0006 21.809 31.6386 21.417C31.5966 21.371 31.5546 21.323 31.5176 21.263V21.252C31.5176 21.252 30.6396 22.086 31.4406 22.306C31.5146 22.326 31.5756 22.35 31.6386 22.375C32.2546 22.614 32.3566 23.053 32.6156 23.811C32.6356 23.871 32.6536 23.9 32.6726 23.942C32.8196 24.265 32.9146 24.062 32.9116 23.638C33.0076 23.641 33.1186 23.626 33.2466 23.59C33.4696 23.528 33.7246 23.42 33.9886 23.241C34.6036 22.824 34.9986 22.352 34.8666 22.143L34.8676 22.142Z" fill="#F9E923"/>
<path d="M24.9937 22.0717C25.0217 22.0607 25.0417 22.0477 25.0517 22.0317C25.5567 21.7337 26.0897 21.4867 26.6437 21.2957C26.6517 21.2917 26.6577 21.2857 26.6657 21.2817V20.8557H27.3467C27.6527 20.6317 27.9387 20.3807 28.1817 20.0867C28.2487 19.9947 28.2707 19.9257 28.2747 19.8657C28.2777 19.8007 28.2487 19.7477 28.2017 19.7007C28.1427 19.6417 28.0637 19.5857 27.9737 19.5167C27.7427 19.3407 27.8527 19.6047 27.3697 19.9777C27.3157 20.0347 27.2457 20.0717 27.1877 20.1227C27.0777 20.0377 26.8287 19.9777 26.5357 19.9777C26.1407 19.9777 25.8107 20.0877 25.8107 20.2187C25.8107 20.3497 26.1397 20.4607 26.5357 20.4607C26.6157 20.4607 26.6887 20.4537 26.7597 20.4447C26.6417 20.5117 26.5117 20.5557 26.3837 20.6037C26.3047 20.6337 26.2327 20.6797 26.1507 20.7017C25.4007 20.8307 24.7417 21.2747 24.3387 21.9207C24.3107 21.9867 24.3537 22.0317 24.4267 22.0627C24.5777 22.1257 24.8657 22.1227 24.9947 22.0707L24.9937 22.0717Z" fill="#F9E923"/>
<path d="M32.6621 25.9289C32.5981 25.8899 32.5131 25.8979 32.4211 25.9269C32.2271 25.9889 31.9951 26.1749 31.8031 26.4469C31.7561 26.5129 31.7251 26.5809 31.6891 26.6479L31.0781 26.9299L31.5361 27.2099C31.5431 27.3079 31.5661 27.3929 31.6271 27.4359C31.6941 27.4839 31.7931 27.4699 31.9001 27.4319L32.1761 27.5999L32.1551 27.2839C32.2731 27.1919 32.3911 27.0779 32.4951 26.9299C32.7371 26.5129 32.8681 26.0629 32.6711 25.9309C32.6681 25.9289 32.6651 25.9309 32.6621 25.9289Z" fill="#F9E923"/>
<path d="M26.7864 26.581C26.5984 26.227 26.3774 26.013 26.2474 26.073C26.1314 26.127 26.1514 26.386 26.2674 26.694L26.1484 27.457L26.5674 27.248C26.7114 27.441 26.8554 27.556 26.9504 27.512C27.0464 27.468 27.0464 27.278 26.9794 27.042L27.2464 26.908L26.7864 26.581Z" fill="#F9E923"/>
<path d="M26.9273 25.3197L27.0263 25.5567L29.2223 21.6587L30.3543 23.7557L31.3083 25.5237L31.4843 25.0957L29.2883 20.8677L26.8613 25.1617L26.9273 25.3197Z" fill="#F9E923"/>
<path d="M30.0148 26.4456L29.3138 26.7876C29.3198 26.7416 29.3228 26.6906 29.3228 26.6316V24.8196H29.9818C30.0908 24.8196 30.1798 24.7306 30.1798 24.6216C30.1738 24.5166 30.0868 24.4346 29.9818 24.4346H29.3228V24.0616C29.3228 23.9076 29.2348 23.7866 29.2348 23.7866H29.0698C28.9818 23.7866 28.9818 23.9076 28.9818 24.0616V24.4346H28.4658C28.4658 24.4346 28.4578 24.4346 28.4548 24.4346C28.3518 24.4346 28.2678 24.5186 28.2688 24.6216C28.2688 24.7306 28.3578 24.8196 28.4668 24.8196H28.9828V26.6316C28.9828 26.7746 29.0708 26.9056 29.0708 26.9056L28.3898 26.4446L28.4888 26.3126L27.8848 25.6866L27.9288 26.5536H28.1268L29.1588 27.4316L30.1468 26.6086L30.3888 26.6746L30.4878 25.8076L29.8068 26.3236L30.0158 26.4446L30.0148 26.4456Z" fill="#F9E923"/>
</svg>
