<svg width="41" height="41" viewBox="0 0 41 41" fill="none" xmlns="http://www.w3.org/2000/svg">
<path d="M34.5044 8.5H27.4434V32.5H34.5044C36.7114 32.5 38.4994 30.711 38.4994 28.504V12.496C38.4994 10.289 36.7104 8.5 34.5044 8.5Z" fill="#EE0033"/>
<path d="M13.5586 8.5V32.5H27.4416V8.5H13.5586ZM25.0436 20.5C24.8036 20.854 24.8656 21.33 25.1876 21.611C25.1876 21.444 25.6096 21.355 25.7766 21.855C25.7876 21.877 25.7976 21.9 25.8046 21.923C25.8916 22.185 25.7496 22.468 25.4876 22.555C25.5426 22.622 25.5916 22.693 25.6336 22.769C26.0126 23.45 25.7676 24.309 25.0876 24.688C24.3106 25.037 23.4596 25.189 22.6106 25.132C21.9886 25.188 21.8776 25.487 21.8776 25.487C22.3446 25.943 21.6336 26.298 21.6336 26.298C21.4896 26.809 20.9226 26.298 20.9226 26.298L20.5226 26.653L20.1226 26.298C20.1226 26.298 19.5556 26.765 19.4116 26.298C19.4116 26.298 18.7006 25.943 19.1676 25.487C19.1676 25.487 19.0566 25.187 18.4346 25.132C17.5846 25.189 16.7346 25.037 15.9576 24.688C15.8886 24.649 15.8226 24.605 15.7606 24.555C15.1496 24.062 15.0536 23.167 15.5466 22.555C15.5306 22.551 15.5156 22.545 15.5006 22.539C15.2446 22.436 15.1206 22.144 15.2246 21.888C15.3916 21.399 15.8136 21.488 15.8136 21.655C16.1636 21.366 16.2266 20.854 15.9576 20.489C15.9576 20.489 15.1246 20.589 15.6026 19.956C15.1736 19.687 14.9006 19.228 14.8696 18.723C14.8476 17.89 15.7916 17.368 16.1916 17.701C16.1916 17.701 16.2136 17.368 16.3806 17.368C16.5476 17.368 16.6476 17.59 16.6476 17.59C16.6226 17.268 16.4846 16.965 16.2586 16.735C15.9146 16.424 15.1806 15.602 16.7136 15.124C18.2466 14.646 18.3246 15.624 18.0796 15.835C18.3306 15.963 18.6086 16.028 18.8906 16.024C19.2906 16.002 18.9796 15.502 18.8906 15.291C18.8016 15.08 18.8686 14.324 19.3906 14.347C19.9126 14.37 19.9346 14.58 20.1236 14.658C20.2476 14.69 20.3776 14.69 20.5016 14.658C20.6256 14.69 20.7556 14.69 20.8796 14.658C21.0686 14.58 21.1126 14.369 21.6126 14.347C22.1126 14.325 22.2346 15.08 22.1126 15.291C21.9906 15.502 21.6906 16.024 22.1126 16.024C22.3906 16.029 22.6656 15.964 22.9126 15.835C22.6796 15.624 22.7346 14.624 24.2896 15.124C25.8446 15.624 25.0896 16.424 24.7336 16.735C24.5146 16.969 24.3806 17.271 24.3556 17.59C24.3556 17.59 24.4336 17.379 24.6226 17.379C24.8116 17.379 24.8116 17.701 24.8116 17.701C25.2116 17.379 26.1336 17.89 26.1336 18.723C26.1066 19.23 25.8326 19.69 25.4006 19.956C25.8786 20.589 25.0456 20.5 25.0456 20.5H25.0436Z" fill="#EEE400"/>
<path d="M6.5 8.5H6.495C4.288 8.5 2.5 10.289 2.5 12.496V28.505C2.5 30.712 4.289 32.501 6.495 32.501H13.556V8.5H6.5Z" fill="#302A84"/>
<path d="M26.1316 18.7232C26.1316 17.8902 25.2096 17.3792 24.8096 17.7012C24.8096 17.7012 24.8096 17.3792 24.6206 17.3792C24.4316 17.3792 24.3536 17.5902 24.3536 17.5902C24.3786 17.2702 24.5116 16.9682 24.7316 16.7352C25.0866 16.4242 25.8426 15.6242 24.2876 15.1242C22.7326 14.6242 22.6766 15.6242 22.9106 15.8352C22.6636 15.9642 22.3886 16.0292 22.1106 16.0242C21.6886 16.0242 21.9886 15.5022 22.1106 15.2912C22.2326 15.0802 22.1106 14.3242 21.6106 14.3472C21.1106 14.3702 21.0666 14.5802 20.8776 14.6582C20.7536 14.6902 20.6236 14.6902 20.4996 14.6582C20.3756 14.6902 20.2456 14.6902 20.1216 14.6582C19.9326 14.5802 19.9106 14.3692 19.3886 14.3472C18.8666 14.3252 18.7996 15.0802 18.8886 15.2912C18.9776 15.5022 19.2886 16.0022 18.8886 16.0242C18.6066 16.0282 18.3286 15.9632 18.0776 15.8352C18.3216 15.6242 18.2446 14.6462 16.7116 15.1242C15.1786 15.6022 15.9116 16.4242 16.2566 16.7352C16.4826 16.9662 16.6196 17.2692 16.6456 17.5902C16.6456 17.5902 16.5456 17.3682 16.3786 17.3682C16.2116 17.3682 16.1896 17.7012 16.1896 17.7012C15.7896 17.3682 14.8456 17.8902 14.8676 18.7232C14.8986 19.2282 15.1716 19.6882 15.6006 19.9562C15.1226 20.5892 15.9556 20.4892 15.9556 20.4892C16.2246 20.8542 16.1616 21.3662 15.8116 21.6552C15.8116 21.4882 15.3896 21.3992 15.2226 21.8882C15.1196 22.1442 15.2426 22.4352 15.4986 22.5392C15.5136 22.5452 15.5286 22.5502 15.5446 22.5552C15.0516 23.1662 15.1476 24.0612 15.7586 24.5552C15.8206 24.6052 15.8866 24.6492 15.9556 24.6882C16.7326 25.0372 17.5836 25.1892 18.4326 25.1322C19.0546 25.1882 19.1656 25.4872 19.1656 25.4872C18.6986 25.9432 19.4096 26.2982 19.4096 26.2982C19.5536 26.7652 20.1206 26.2982 20.1206 26.2982L20.5206 26.6532L20.9206 26.2982C20.9206 26.2982 21.4876 26.8092 21.6316 26.2982C21.6316 26.2982 22.3426 25.9432 21.8756 25.4872C21.8756 25.4872 21.9866 25.1872 22.6086 25.1322C23.4586 25.1892 24.3086 25.0372 25.0856 24.6882C25.7666 24.3092 26.0106 23.4502 25.6316 22.7692C25.5896 22.6932 25.5406 22.6222 25.4856 22.5552C25.7476 22.4682 25.8896 22.1852 25.8026 21.9232C25.7946 21.9002 25.7856 21.8772 25.7746 21.8552C25.6076 21.3552 25.1856 21.4442 25.1856 21.6112C24.8636 21.3302 24.8016 20.8542 25.0416 20.5002C25.0416 20.5002 25.8746 20.5892 25.3966 19.9562C25.8286 19.6902 26.1026 19.2292 26.1296 18.7232H26.1316ZM20.6666 16.6242H23.8106V19.7452H20.6666V16.6242ZM17.1456 16.6242H20.2896V19.7452H17.1456V16.6242ZM18.7226 24.4112C18.1446 24.3172 17.5736 24.1882 17.0116 24.0222C16.8446 23.9672 16.9226 23.4562 16.9226 23.4562C16.9226 23.4562 18.6666 23.9562 18.8666 24.0002C19.0666 24.0442 18.9886 24.4332 18.7226 24.4112ZM18.9666 23.2372V23.2452H18.8996C18.8516 23.2572 18.8026 23.2562 18.7536 23.2652C18.6806 23.2782 18.6086 23.2892 18.5346 23.2952C18.5186 23.2952 18.5036 23.3012 18.4886 23.3012V23.2962C18.3246 23.3052 18.1626 23.2962 18.0106 23.2612C17.5266 23.1492 17.1446 22.7842 17.1446 21.9682V20.0242H20.2656V23.2452C20.1476 23.2242 20.0286 23.2242 19.9106 23.2142C19.8456 23.2082 19.7796 23.1992 19.7146 23.1972C19.6396 23.1942 19.5636 23.1892 19.4886 23.1922C19.3136 23.1962 19.1396 23.2122 18.9666 23.2382V23.2372ZM20.4326 24.5672H19.4326L19.3216 24.0342C19.6416 24.0802 19.9646 24.1102 20.2876 24.1232C20.5386 24.1452 20.7916 24.1452 21.0426 24.1232L21.3646 24.5672H20.4316H20.4326ZM20.6876 23.2452V20.0242H23.8086V21.9682C23.8086 23.2452 22.8756 23.4232 22.0756 23.2452C21.6166 23.1632 21.1476 23.1632 20.6876 23.2452ZM23.1316 24.2232C22.7536 24.3342 21.5426 24.4902 21.5426 24.4902C21.5426 24.4902 21.4206 24.1012 21.5866 24.0682L21.5426 24.0352C21.5426 24.0352 22.2866 23.9022 22.7426 23.7912C23.1986 23.6802 23.7866 23.4802 23.9316 23.4582C24.0766 23.4362 24.1986 23.7022 24.2426 23.7472C23.8806 23.9252 23.5096 24.0842 23.1316 24.2252V24.2232Z" fill="#C6B27F"/>
<path d="M19.9704 18.79C19.6104 18.79 19.5404 19.49 19.3304 19.47C19.1704 19.45 19.1004 19.2 19.0704 19.08C19.1304 19.1 19.1904 19.12 19.2404 19.15L19.7004 17.9L19.4104 17.55L19.2904 17.4L18.7904 16.79L17.8104 17.9L18.1204 18.69L18.2004 18.88L18.3004 19.15C18.3404 19.13 18.3804 19.12 18.4104 19.11C18.4004 19.23 18.3404 19.45 18.1604 19.47C18.0404 19.48 17.9704 19.35 17.9004 19.2C17.8704 19.14 17.8404 19.07 17.8104 19.01C17.7404 18.89 17.6504 18.79 17.5204 18.79C17.2204 18.79 17.1504 19.26 17.4004 19.43C17.4304 19.46 17.4704 19.48 17.5204 19.49L17.5804 19.31C17.5804 19.31 17.5604 19.3 17.5504 19.28C17.4904 19.21 17.3604 19.06 17.5004 19.03C17.5904 19.02 17.6504 19.06 17.7004 19.12C17.7504 19.19 17.7804 19.27 17.7904 19.31V19.32C17.8204 19.42 17.9604 19.66 18.1704 19.66C18.3804 19.66 18.5704 19.33 18.6204 19.08C18.6304 19.06 18.6204 19.06 18.6204 19.05C18.6804 19.04 18.7304 19.03 18.7904 19.03C18.8204 19.03 18.8404 19.04 18.8704 19.04C18.8704 19.06 18.8604 19.06 18.8704 19.08C18.9104 19.33 19.1104 19.66 19.3204 19.66C19.5304 19.66 19.6804 19.4 19.7004 19.31C19.7204 19.22 19.8004 19 19.9804 19.03C20.1604 19.07 19.9104 19.31 19.9104 19.31L19.9704 19.49C20.3404 19.4 20.3204 18.79 19.9704 18.79ZM18.6504 18.8L18.3304 18.89L18.0104 17.91L18.6604 17.16L18.6504 18.8ZM18.8704 17.16L19.5004 17.91L19.1804 18.89L18.8704 18.8V17.16Z" fill="white"/>
<path d="M17.6983 19.123L17.5473 19.28C17.5633 19.297 17.5783 19.312 17.5783 19.312L17.5223 19.49C17.4743 19.479 17.4323 19.46 17.3973 19.435L17.3223 19.513L17.4783 19.668L17.7933 19.322C17.7933 19.322 17.7903 19.315 17.7893 19.313C17.7783 19.267 17.7483 19.188 17.6983 19.124V19.123Z" fill="#FDDD01"/>
<path d="M19.6341 17.3012C19.7121 17.1902 19.6341 16.9122 19.7231 16.8902C19.8121 16.8682 20.0341 16.9452 20.0231 17.0342C20.0121 17.1232 19.8671 17.2012 19.8671 17.2012L19.7781 17.3342C19.7781 17.3342 20.1891 17.4342 20.1891 17.0672C20.1891 16.7002 19.9451 16.7002 19.8671 16.7002C19.7891 16.7002 19.4001 16.7672 19.3891 16.9112C19.3781 17.0562 19.5451 17.1672 19.4561 17.2442L19.2871 17.3952L19.4121 17.5482C19.4881 17.4672 19.5681 17.3892 19.6331 17.2992L19.6341 17.3012Z" fill="#FDDD01"/>
<path d="M18.1957 18.878L18.1197 18.686L17.8047 19.012C17.8387 19.073 17.8697 19.139 17.8997 19.203L18.1957 18.878Z" fill="#FDDD01"/>
<path d="M17.5445 23.022V20.022H17.1445V21.966C17.1445 22.783 17.5265 23.147 18.0105 23.259V23.254C17.8365 23.22 17.6755 23.139 17.5435 23.021L17.5445 23.022Z" fill="#FDDD01"/>
<path d="M18.0117 20.022V23.259C18.1637 23.294 18.3257 23.303 18.4897 23.294V20.022H18.0117Z" fill="#FDDD01"/>
<path d="M19.7148 23.1948C19.7808 23.1968 19.8458 23.2068 19.9108 23.2118V23.1988C19.8458 23.1928 19.7798 23.1978 19.7148 23.1948Z" fill="#FDDD01"/>
<path d="M18.7542 23.2642C18.6812 23.2762 18.6092 23.2902 18.5352 23.2942C18.6082 23.2882 18.6812 23.2772 18.7542 23.2642Z" fill="#FDDD01"/>
<path d="M19.4338 23.188V20.022H18.9668V23.236C19.1398 23.209 19.3138 23.193 19.4888 23.19C19.4708 23.19 19.4518 23.187 19.4338 23.188Z" fill="#FDDD01"/>
<path d="M19.9102 23.212C20.0292 23.222 20.1482 23.222 20.2652 23.243V20.022H19.9102V23.212Z" fill="#FDDD01"/>
<path d="M19.5002 17.9122L18.8672 17.1572V18.8012L19.1782 18.8902L19.5002 17.9122Z" fill="#FDDD01"/>
<path d="M18.3337 18.8902L18.6447 18.8012L18.6557 17.1572L18.0117 17.9122L18.3337 18.8902Z" fill="#FDDD01"/>
<path d="M22.9428 16.624H22.4648V19.745H22.9428V16.624Z" fill="#FDDD01"/>
<path d="M23.8102 16.624H23.4102V19.745H23.8102V16.624Z" fill="#FDDD01"/>
<path d="M21.9885 16.624H21.5215V19.745H21.9885V16.624Z" fill="#FDDD01"/>
<path d="M21.044 16.624H20.666V19.745H21.044V16.624Z" fill="#FDDD01"/>
<path d="M23.8105 21.9669V20.0229H20.6895V23.2439C21.1485 23.1619 21.6185 23.1619 22.0785 23.2439C22.8785 23.4219 23.8115 23.2439 23.8115 21.9669H23.8105ZM21.1445 20.5449L21.4335 20.3119H21.8005V20.5009C21.8005 20.5009 22.3225 20.5009 22.7555 20.4459C23.1885 20.3899 23.3105 20.7239 23.1775 20.8119C23.0445 20.8999 23.1775 21.2119 23.1775 21.3669C23.1775 21.5219 22.8665 21.7449 22.9445 21.6109C22.9805 21.4499 22.9805 21.2829 22.9445 21.1219C22.9075 21.2459 22.8545 21.3659 22.7885 21.4769C22.7105 21.5659 22.4665 21.5769 22.5555 21.4769C22.6445 21.3769 22.7555 21.2439 22.6665 21.1659C22.5165 21.1089 22.3505 21.1089 22.1995 21.1659C22.1665 21.3249 22.1225 21.4809 22.0665 21.6329C22.0105 21.6329 21.9555 21.6329 21.9885 21.4659C22.0125 21.3489 22.0125 21.2279 21.9885 21.1109C21.9885 21.1109 21.7445 21.1109 21.7555 21.2109C21.7665 21.3109 21.8775 21.3669 21.8555 21.4439C21.8335 21.5219 21.6775 21.6329 21.6665 21.4439C21.6555 21.2549 21.4115 21.2109 21.5225 21.1439C21.5965 21.0849 21.6665 21.0219 21.7335 20.9549C21.6395 20.9329 21.5565 20.8779 21.5005 20.7999C21.4115 20.6669 21.3335 20.6779 21.1455 20.6779C20.9575 20.6779 21.1455 20.5449 21.1455 20.5449H21.1445ZM21.9885 22.8449C22.0125 22.7279 22.0125 22.6069 21.9885 22.4899C21.9885 22.4899 21.7445 22.4899 21.7555 22.5899C21.7665 22.6899 21.8775 22.7339 21.8555 22.8229C21.8335 22.9119 21.6775 23.0119 21.6665 22.8229C21.6555 22.6339 21.4115 22.5899 21.5225 22.5119C21.5975 22.4589 21.6685 22.3989 21.7335 22.3339C21.6425 22.3059 21.5615 22.2519 21.5005 22.1789C21.4115 22.0459 21.3335 22.0569 21.1455 22.0569C20.9575 22.0569 21.1455 21.9679 21.1455 21.9679L21.4345 21.7349H21.8015V21.9239C21.8015 21.9239 22.3235 21.9239 22.7565 21.8689C23.1895 21.8129 23.3115 22.1469 23.1785 22.2349C23.0455 22.3229 23.1785 22.6349 23.1785 22.7899C23.1785 22.9449 22.8675 23.1679 22.9455 23.0339C22.9815 22.8729 22.9815 22.7059 22.9455 22.5449C22.9085 22.6689 22.8555 22.7889 22.7895 22.8999C22.7115 22.9889 22.4675 22.9999 22.5565 22.8999C22.6455 22.7999 22.7565 22.6779 22.6675 22.5999C22.5245 22.5229 22.3595 22.4989 22.2005 22.5339C22.1695 22.6969 22.1245 22.8559 22.0675 23.0119C22.0115 23.0119 21.9555 23.0119 21.9885 22.8449Z" fill="#FDDD01"/>
<path d="M20.2885 16.624H17.1445V19.745H20.2885V16.624ZM19.9665 19.49L19.9105 19.312C19.9105 19.312 20.1545 19.068 19.9775 19.034C19.8005 19 19.7225 19.223 19.6995 19.312C19.6765 19.401 19.5325 19.656 19.3215 19.656C19.1105 19.656 18.9105 19.334 18.8665 19.078C18.8635 19.059 18.8705 19.057 18.8695 19.043C18.8425 19.041 18.8155 19.033 18.7885 19.033C18.7315 19.033 18.6765 19.043 18.6205 19.052C18.6195 19.063 18.6255 19.064 18.6225 19.078C18.5665 19.334 18.3785 19.656 18.1675 19.656C17.9615 19.656 17.8215 19.415 17.7935 19.321L17.4785 19.667L17.3225 19.512L17.3975 19.434C17.1495 19.258 17.2215 18.789 17.5225 18.789C17.6525 18.789 17.7365 18.889 17.8045 19.011L18.1195 18.685L17.8115 17.9L18.7895 16.789L19.2875 17.396L19.4565 17.245C19.5455 17.167 19.3785 17.056 19.3895 16.912C19.4005 16.768 19.7895 16.701 19.8675 16.701C19.9455 16.701 20.1895 16.701 20.1895 17.068C20.1895 17.435 19.7785 17.335 19.7785 17.335L19.8675 17.202C19.8675 17.202 20.0115 17.124 20.0235 17.035C20.0355 16.946 19.8125 16.868 19.7235 16.891C19.6345 16.913 19.7125 17.191 19.6345 17.302C19.5695 17.392 19.4895 17.47 19.4135 17.551L19.7015 17.902L19.2465 19.146C19.1905 19.117 19.1315 19.098 19.0715 19.08C19.0995 19.202 19.1765 19.451 19.3355 19.468C19.5465 19.49 19.6135 18.79 19.9685 18.79C20.3235 18.79 20.3465 19.401 19.9685 19.49H19.9665Z" fill="#CF1D3A"/>
<path d="M17.4996 19.034C17.3586 19.06 17.4856 19.214 17.5466 19.279L17.6976 19.122C17.6506 19.062 17.5856 19.018 17.4996 19.034Z" fill="#CF1D3A"/>
<path d="M18.1554 19.4669C18.3444 19.4509 18.3964 19.2329 18.4134 19.1049C18.3754 19.1179 18.3364 19.1269 18.3004 19.1449L18.1954 18.8779L17.9004 19.2029C17.9704 19.3489 18.0404 19.4769 18.1554 19.4669Z" fill="#CF1D3A"/>
<path d="M18.0119 23.255V20.022H17.5449V23.022C17.6769 23.14 17.8379 23.221 18.0119 23.255Z" fill="#CF1D3A"/>
<path d="M18.4902 20.022V23.299C18.5062 23.299 18.5212 23.293 18.5362 23.293C18.6102 23.29 18.6822 23.276 18.7552 23.263C18.8032 23.255 18.8532 23.256 18.9012 23.243H18.9682V20.022H18.4902Z" fill="#CF1D3A"/>
<path d="M19.4876 23.1899C19.5626 23.1879 19.6386 23.1929 19.7136 23.1949C19.7786 23.1969 19.8446 23.1929 19.9096 23.1999V20.0229H19.4316V23.1889C19.4496 23.1889 19.4696 23.1909 19.4876 23.1899Z" fill="#CF1D3A"/>
<path d="M21.521 16.624H21.043V19.745H21.521V16.624Z" fill="#CF1D3A"/>
<path d="M22.4663 16.624H21.9883V19.745H22.4663V16.624Z" fill="#CF1D3A"/>
<path d="M23.4104 16.624H22.9434V19.745H23.4104V16.624Z" fill="#CF1D3A"/>
<path d="M22.6646 22.5999C22.7536 22.6779 22.6426 22.7999 22.5536 22.8999C22.4646 22.9999 22.7096 22.9889 22.7866 22.8999C22.8526 22.7879 22.9046 22.6689 22.9426 22.5449C22.9786 22.7059 22.9786 22.8729 22.9426 23.0339C22.8646 23.1669 23.1756 22.9449 23.1756 22.7899C23.1756 22.6349 23.0426 22.3229 23.1756 22.2349C23.3086 22.1469 23.1866 21.8129 22.7536 21.8689C22.3206 21.9239 21.7986 21.9239 21.7986 21.9239V21.7349H21.4316L21.1426 21.9679C21.1426 21.9679 20.9536 22.0569 21.1426 22.0569C21.3316 22.0569 21.4096 22.0459 21.4976 22.1789C21.5586 22.2519 21.6396 22.3059 21.7306 22.3339C21.6656 22.3989 21.5946 22.4589 21.5196 22.5119C21.4086 22.5899 21.6526 22.6339 21.6636 22.8229C21.6746 23.0119 21.8306 22.9119 21.8526 22.8229C21.8746 22.7339 21.7636 22.6899 21.7526 22.5899C21.7416 22.4899 21.9856 22.4899 21.9856 22.4899C22.0096 22.6069 22.0096 22.7279 21.9856 22.8449C21.9526 23.0119 22.0076 23.0119 22.0636 23.0119C22.1216 22.8569 22.1656 22.6969 22.1966 22.5339C22.3556 22.4999 22.5216 22.5229 22.6646 22.5999Z" fill="#CF1D3A"/>
<path d="M21.4986 20.8C21.5546 20.878 21.6376 20.933 21.7316 20.955C21.6646 21.022 21.5946 21.085 21.5206 21.144C21.4096 21.211 21.6536 21.255 21.6646 21.444C21.6756 21.633 21.8316 21.522 21.8536 21.444C21.8756 21.366 21.7646 21.311 21.7536 21.211C21.7426 21.111 21.9866 21.111 21.9866 21.111C22.0106 21.228 22.0106 21.349 21.9866 21.466C21.9536 21.633 22.0086 21.633 22.0646 21.633C22.1206 21.481 22.1656 21.325 22.1976 21.166C22.3476 21.109 22.5136 21.109 22.6646 21.166C22.7536 21.244 22.6426 21.377 22.5536 21.477C22.4646 21.577 22.7096 21.566 22.7866 21.477C22.8526 21.365 22.9046 21.246 22.9426 21.122C22.9786 21.283 22.9786 21.45 22.9426 21.611C22.8646 21.744 23.1756 21.522 23.1756 21.367C23.1756 21.212 23.0426 20.9 23.1756 20.812C23.3086 20.724 23.1866 20.39 22.7536 20.446C22.3206 20.501 21.7986 20.501 21.7986 20.501V20.312H21.4316L21.1426 20.545C21.1426 20.545 20.9536 20.678 21.1426 20.678C21.3316 20.678 21.4106 20.667 21.4986 20.8Z" fill="#CF1D3A"/>
<path d="M23.9326 23.4549C23.7886 23.4769 23.1996 23.6769 22.7436 23.7879C22.2876 23.8989 21.5436 24.0319 21.5436 24.0319L21.5876 24.0649C21.4206 24.0979 21.5436 24.4869 21.5436 24.4869C21.5436 24.4869 22.7546 24.3309 23.1326 24.2199C23.5106 24.0799 23.8816 23.9199 24.2436 23.7419C24.1996 23.6979 24.0766 23.4309 23.9326 23.4529V23.4549Z" fill="#AE9066"/>
<path d="M18.8665 23.9991C18.6665 23.9551 16.9225 23.4551 16.9225 23.4551C16.9225 23.4551 16.8445 23.9661 17.0115 24.0211C17.5725 24.1871 18.1445 24.3161 18.7225 24.4101C18.9895 24.4321 19.0665 24.0431 18.8665 23.9991Z" fill="#AE9066"/>
<path d="M20.2883 24.1217C19.9653 24.1087 19.6423 24.0797 19.3223 24.0327L19.4333 24.5657H21.3663L21.0443 24.1217C20.7933 24.1437 20.5403 24.1437 20.2893 24.1217H20.2883Z" fill="#AE9066"/>
</svg>
