<svg width="41" height="41" viewBox="0 0 41 41" fill="none" xmlns="http://www.w3.org/2000/svg">
<path d="M34.5 8.5H6.5C4.29086 8.5 2.5 10.2909 2.5 12.5V28.5C2.5 30.7091 4.29086 32.5 6.5 32.5H34.5C36.7091 32.5 38.5 30.7091 38.5 28.5V12.5C38.5 10.2909 36.7091 8.5 34.5 8.5Z" fill="#CF002E"/>
<path d="M38.5003 16.5V12.496C38.5003 10.289 36.7113 8.5 34.5053 8.5H12.7773V16.5H38.5003Z" fill="#009D39"/>
<path d="M38.5003 16.5H12.7773V24.501H38.5003V16.5Z" fill="#E3E7EA"/>
<path d="M38.5003 28.504V24.5H12.7773V32.5H34.5043C36.7113 32.5 38.5003 30.711 38.5003 28.504Z" fill="black"/>
</svg>
