<svg width="41" height="41" viewBox="0 0 41 41" fill="none" xmlns="http://www.w3.org/2000/svg">
<path d="M6.5 8.5C4.291 8.5 2.5 10.291 2.5 12.5V28.5C2.5 30.709 4.291 32.5 6.5 32.5H14.313V8.5H6.5Z" fill="black"/>
<path d="M14.3125 8.5V32.5H26.6695V8.5H14.3125ZM25.6325 22.129C25.5625 22.184 25.4725 22.216 25.3875 22.245C25.2985 22.276 25.1985 22.28 25.1125 22.317C25.0675 22.337 25.0255 22.396 25.0095 22.446C24.9705 22.568 24.9465 22.695 24.9135 22.835C24.9455 22.843 24.9825 22.857 25.0205 22.86C25.1335 22.869 25.2465 22.872 25.3595 22.879C25.4705 22.886 25.4985 22.924 25.4495 23.024C25.2715 23.382 25.0395 23.553 24.6025 23.514C24.4815 23.503 24.4305 23.544 24.3865 23.644C24.3385 23.752 24.2745 23.853 24.2135 23.966C24.3585 24.014 24.4935 24.06 24.6285 24.102C24.7185 24.131 24.7365 24.189 24.6745 24.262C24.5445 24.415 24.3825 24.539 24.1865 24.561C24.0365 24.578 23.8745 24.538 23.7255 24.495C23.5635 24.447 23.5695 24.435 23.4615 24.566C23.3985 24.643 23.3305 24.715 23.2575 24.783C23.2075 24.83 23.2115 24.856 23.2675 24.892C23.3715 24.958 23.4735 25.027 23.5725 25.1C23.6855 25.183 23.6815 25.229 23.5565 25.298C23.3435 25.416 23.3195 25.441 22.9755 25.474C23.0285 25.536 23.0745 25.586 23.1175 25.64C23.1355 25.662 23.1445 25.691 23.1575 25.717C23.1275 25.729 23.0985 25.746 23.0675 25.753C23.0375 25.759 23.0065 25.755 22.9755 25.755H18.0055C17.9915 25.755 17.9775 25.758 17.9645 25.755C17.9175 25.743 17.8705 25.73 17.8235 25.717C17.8435 25.676 17.8595 25.631 17.8855 25.594C17.9465 25.505 18.0125 25.419 18.0875 25.318C18.0425 25.314 18.0155 25.307 17.9905 25.31C17.7665 25.344 17.5825 25.248 17.4075 25.129C17.3435 25.086 17.3635 25.034 17.4165 24.995C17.5275 24.915 17.6405 24.838 17.7525 24.76C17.7745 24.745 17.7965 24.729 17.8295 24.706C17.8065 24.679 17.7895 24.656 17.7685 24.636C17.7125 24.581 17.6385 24.536 17.6015 24.47C17.5035 24.293 17.3715 24.329 17.2255 24.384C16.8985 24.506 16.5705 24.414 16.3495 24.144C16.2875 24.068 16.2965 24.016 16.3895 23.981C16.5005 23.939 16.6145 23.907 16.7275 23.874C16.7885 23.856 16.8165 23.837 16.7725 23.767C16.7045 23.657 16.6515 23.538 16.5855 23.426C16.5685 23.398 16.5275 23.37 16.4945 23.367C16.4025 23.358 16.3095 23.361 16.2165 23.362C15.9285 23.365 15.7325 23.22 15.6005 22.975C15.5845 22.945 15.5715 22.913 15.5555 22.883C15.5225 22.821 15.5315 22.776 15.6065 22.762C15.7235 22.741 15.8415 22.722 15.9585 22.706C15.9975 22.7 16.0385 22.706 16.1045 22.706C16.0555 22.532 16.0135 22.376 15.9635 22.223C15.9585 22.207 15.9105 22.199 15.8825 22.196C15.7155 22.183 15.5545 22.133 15.4285 22.029C15.3355 21.952 15.2685 21.838 15.2065 21.73C15.1685 21.665 15.1515 21.583 15.1435 21.506C15.1315 21.394 15.1765 21.367 15.2875 21.395C15.4095 21.426 15.5325 21.454 15.6555 21.482C15.6745 21.486 15.6945 21.48 15.7055 21.479C15.7055 21.365 15.6975 21.256 15.7075 21.149C15.7265 20.956 15.7295 20.959 15.5575 20.854C15.4155 20.767 15.2615 20.691 15.1825 20.53C15.1075 20.376 15.0735 20.213 15.1085 20.044C15.1305 19.935 15.1815 19.915 15.2795 19.963C15.3915 20.018 15.5035 20.075 15.6205 20.134C15.6655 19.997 15.7155 19.867 15.7485 19.734C15.7585 19.694 15.7335 19.636 15.7075 19.599C15.6705 19.547 15.6185 19.505 15.5705 19.461C15.3635 19.268 15.3315 19.024 15.3695 18.761C15.3775 18.705 15.3985 18.645 15.4315 18.6C15.4475 18.578 15.5155 18.567 15.5395 18.583C15.6435 18.649 15.7395 18.726 15.8375 18.801C15.8695 18.825 15.8975 18.855 15.9325 18.887C16.0225 18.746 16.1115 18.614 16.1905 18.477C16.2055 18.45 16.1905 18.397 16.1745 18.363C16.1155 18.236 16.0405 18.117 15.9905 17.987C15.9265 17.819 15.9765 17.656 16.0485 17.501C16.0745 17.446 16.1085 17.394 16.1435 17.343C16.2025 17.259 16.2495 17.255 16.3095 17.337C16.4025 17.463 16.4895 17.595 16.5885 17.737C16.6195 17.7 16.6465 17.66 16.6815 17.627C16.7825 17.529 16.8835 17.431 16.9895 17.34C17.0445 17.293 17.0695 17.26 17.0425 17.179C16.8935 16.741 17.0425 16.372 17.3395 16.054C17.6395 15.732 18.0175 15.527 18.4275 15.381C18.6445 15.304 18.8645 15.231 19.0865 15.174C19.2435 15.133 19.4075 15.112 19.5695 15.1C19.9165 15.074 20.2645 15.044 20.6125 15.044C20.9055 15.044 21.2015 15.064 21.4895 15.111C21.7625 15.156 22.0285 15.245 22.2965 15.319C22.6315 15.412 22.9375 15.569 23.2215 15.767C23.5295 15.981 23.7775 16.253 23.8695 16.624C23.9155 16.809 23.9195 17.01 23.8515 17.202C23.8395 17.236 23.8455 17.297 23.8685 17.32C24.0045 17.459 24.1485 17.592 24.2975 17.734C24.3125 17.715 24.3305 17.693 24.3465 17.669C24.4255 17.553 24.5015 17.435 24.5855 17.323C24.6205 17.276 24.6705 17.246 24.7185 17.315C24.8645 17.523 24.9685 17.747 24.8875 18.005C24.8505 18.123 24.7775 18.231 24.7095 18.337C24.6635 18.41 24.6665 18.462 24.7165 18.531C24.7985 18.644 24.8705 18.765 24.9535 18.895C25.0155 18.841 25.0745 18.787 25.1365 18.737C25.1975 18.688 25.2605 18.64 25.3265 18.597C25.4005 18.549 25.4565 18.566 25.4815 18.648C25.5095 18.739 25.5395 18.833 25.5455 18.927C25.5575 19.115 25.4755 19.272 25.3525 19.408C25.3115 19.454 25.2675 19.498 25.2205 19.538C25.1425 19.604 25.0885 19.663 25.1545 19.778C25.2075 19.87 25.2275 19.982 25.2585 20.086C25.2765 20.145 25.3025 20.151 25.3565 20.124C25.4745 20.064 25.5965 20.011 25.7175 19.955C25.7795 19.926 25.8385 19.937 25.8355 20.012C25.8275 20.178 25.8175 20.346 25.7845 20.508C25.7535 20.658 25.6015 20.712 25.4955 20.8C25.4645 20.826 25.4285 20.851 25.3905 20.863C25.2335 20.911 25.2025 21.021 25.2255 21.166C25.2485 21.311 25.2655 21.456 25.2875 21.619C25.3575 21.608 25.4295 21.596 25.5015 21.586C25.5985 21.572 25.6965 21.557 25.7935 21.546C25.8615 21.538 25.8935 21.58 25.8765 21.641C25.8275 21.823 25.7845 22.013 25.6275 22.136L25.6325 22.129Z" fill="#BD001A"/>
<path d="M24.0098 20.152C24.0168 20.057 24.0448 20.044 24.1328 20.075C24.2918 20.13 24.4538 20.179 24.6228 20.233V19.868C24.4958 19.845 24.3738 19.83 24.2558 19.798C24.1658 19.773 24.0688 19.742 23.9968 19.685C23.8538 19.572 23.7788 19.41 23.7318 19.234C23.6958 19.097 23.7038 19.084 23.8468 19.086C23.9928 19.088 24.1388 19.086 24.2998 19.086C24.2908 19.017 24.2788 18.933 24.2688 18.85C24.2588 18.765 24.2278 18.743 24.1388 18.775C23.7738 18.908 23.3708 18.74 23.2018 18.39C23.1728 18.33 23.1718 18.275 23.2598 18.263C23.4038 18.244 23.5478 18.219 23.6928 18.203C23.7638 18.195 23.7858 18.184 23.7588 18.102C23.6738 17.848 23.5938 17.591 23.5298 17.331C23.5048 17.228 23.5108 17.124 23.4068 17.058C23.2798 16.977 23.1648 16.878 23.0348 16.803C22.7178 16.62 22.3818 16.486 22.0238 16.401C21.7188 16.328 21.4148 16.254 21.0988 16.245C21.0138 16.243 20.9288 16.225 20.8438 16.219C20.7138 16.209 20.5828 16.189 20.4548 16.199C20.1518 16.223 19.8488 16.252 19.5488 16.3C19.3018 16.34 19.0578 16.403 18.8158 16.468C18.4338 16.571 18.0838 16.746 17.7608 16.974C17.6208 17.073 17.5408 17.197 17.5068 17.372C17.4608 17.611 17.3868 17.846 17.3138 18.079C17.2808 18.182 17.2798 18.193 17.3888 18.205C17.5338 18.221 17.6778 18.246 17.8218 18.267C17.8938 18.277 17.9068 18.319 17.8748 18.377C17.8438 18.434 17.8098 18.491 17.7718 18.543C17.6698 18.68 17.5318 18.783 17.3658 18.798C17.2058 18.812 17.0418 18.775 16.8788 18.762C16.8518 18.76 16.8018 18.764 16.7988 18.775C16.7678 18.891 16.7438 19.009 16.7198 19.12C16.9188 19.105 17.0908 19.089 17.2638 19.083C17.2908 19.083 17.3458 19.135 17.3428 19.158C17.3328 19.244 17.3138 19.333 17.2808 19.413C17.2188 19.561 17.1298 19.697 16.9668 19.746C16.8048 19.795 16.6348 19.819 16.4698 19.859C16.4448 19.865 16.4058 19.9 16.4078 19.916C16.4208 20.019 16.4448 20.121 16.4648 20.225C16.6298 20.172 16.7848 20.123 16.9398 20.072C17.0118 20.048 17.0578 20.068 17.0608 20.146C17.0708 20.408 17.0108 20.646 16.7828 20.803C16.6598 20.888 16.5208 20.948 16.3918 21.024C16.3708 21.036 16.3498 21.08 16.3568 21.099C16.3878 21.188 16.4288 21.274 16.4668 21.363C16.6028 21.268 16.7288 21.175 16.8598 21.089C16.9658 21.019 16.9928 21.03 17.0398 21.148C17.0508 21.176 17.0568 21.207 17.0628 21.237C17.1328 21.599 16.9968 21.872 16.7048 22.081C16.6588 22.114 16.6138 22.147 16.5638 22.184C16.6438 22.289 16.7148 22.383 16.7948 22.487C16.8268 22.446 16.8498 22.413 16.8758 22.383C16.9608 22.28 17.0458 22.177 17.1308 22.074C17.1728 22.023 17.2218 22.024 17.2648 22.064C17.4168 22.203 17.4808 22.606 17.3758 22.793C17.3048 22.92 17.2178 23.039 17.1448 23.165C17.1298 23.19 17.1308 23.25 17.1488 23.265C17.2308 23.335 17.3208 23.394 17.4058 23.456C17.4798 23.295 17.5508 23.141 17.6228 22.987C17.6578 22.913 17.7158 22.9 17.7708 22.957C17.8898 23.081 17.9948 23.217 18.0168 23.397C18.0248 23.459 18.0308 23.522 18.0378 23.596C18.0438 23.652 18.0048 23.713 17.9628 23.809C17.9298 23.882 17.8398 23.926 17.8128 24.003C17.8058 24.024 17.8208 24.071 17.8388 24.079C17.9488 24.13 18.0628 24.173 18.1728 24.217C18.1968 24.131 18.2218 24.05 18.2418 23.968C18.2708 23.799 18.4108 23.589 18.5518 23.76C18.6258 23.857 18.7228 23.948 18.7718 24.059C18.8218 24.172 18.8248 24.306 18.8498 24.441C18.8718 24.423 18.8878 24.415 18.8958 24.401C18.9628 24.287 19.0618 24.261 19.1898 24.262C20.0228 24.267 20.8558 24.268 21.6878 24.262C21.8428 24.261 21.9708 24.282 22.0578 24.423C22.0648 24.435 22.0828 24.441 22.1118 24.46C22.0848 24.169 22.1848 23.944 22.4118 23.76C22.6728 23.512 22.7278 23.865 22.7278 23.865C22.7448 23.986 22.7708 24.106 22.7928 24.23C22.8608 24.203 22.9298 24.176 22.9998 24.15C23.1318 24.1007 23.1665 24.0113 23.1038 23.882C23.0998 23.873 23.0908 23.864 23.0898 23.855C23.0028 23.775 22.9628 23.547 22.9638 23.541C22.9688 23.521 22.9718 23.501 22.9758 23.481C23.0158 23.282 23.0958 23.104 23.2468 22.963C23.3098 22.903 23.3618 22.913 23.3968 22.992C23.4548 23.123 23.5108 23.254 23.5658 23.387C23.5898 23.445 23.6168 23.464 23.6718 23.421C23.7308 23.375 23.7908 23.33 23.8528 23.289C23.9178 23.245 23.9238 23.2 23.8778 23.135C23.8008 23.027 23.7198 22.919 23.6618 22.801C23.6228 22.722 23.5918 22.619 23.6068 22.536C23.6348 22.384 23.6938 22.237 23.7498 22.091C23.7768 22.021 23.8368 22.018 23.8888 22.072C23.9478 22.134 24.0028 22.199 24.0558 22.266C24.1108 22.335 24.1608 22.407 24.2228 22.491C24.3068 22.38 24.3808 22.28 24.4578 22.178C24.2588 22.012 24.0298 21.882 23.9628 21.627L23.9398 21.475C23.9438 21.456 23.9498 21.438 23.9508 21.42C23.9568 21.341 23.9598 21.262 23.9678 21.184C23.9818 21.052 24.0438 21.023 24.1488 21.1C24.2458 21.171 24.3398 21.244 24.4368 21.315C24.4708 21.34 24.5078 21.36 24.5438 21.383C24.6078 21.263 24.6658 21.156 24.7298 21.036C24.6368 20.992 24.5518 20.951 24.4668 20.912C24.1348 20.762 23.9838 20.529 24.0108 20.155L24.0098 20.152ZM21.8148 17.629L22.0038 17.357L22.1938 17.629C22.2558 17.658 22.2978 17.699 22.2978 17.745C22.2978 17.831 22.1668 17.901 22.0048 17.901C21.8428 17.901 21.7118 17.831 21.7108 17.745C21.7108 17.698 21.7518 17.657 21.8148 17.629ZM20.3328 17.22L20.5358 16.928L20.7388 17.22C20.7998 17.254 20.8408 17.302 20.8408 17.357C20.8408 17.46 20.7048 17.544 20.5368 17.544C20.3688 17.544 20.2328 17.46 20.2328 17.357C20.2328 17.302 20.2718 17.254 20.3328 17.22ZM18.9438 17.629L19.1328 17.357L19.3218 17.629C19.3838 17.658 19.4258 17.699 19.4258 17.745C19.4258 17.831 19.2948 17.901 19.1328 17.901C18.9708 17.901 18.8398 17.831 18.8398 17.745C18.8398 17.698 18.8808 17.657 18.9438 17.629ZM18.9278 19.014V18.213C18.9278 18.195 18.9338 18.179 18.9378 18.162H18.9218C18.8688 18.162 18.8268 18.119 18.8268 18.067C18.8268 18.014 18.8698 17.972 18.9218 17.972H19.3458C19.3988 17.972 19.4408 18.015 19.4408 18.067C19.4408 18.12 19.3978 18.162 19.3458 18.162H19.3298C19.3338 18.179 19.3398 18.195 19.3398 18.213V18.963L19.4968 18.944L19.8098 18.607C19.7488 18.515 19.7108 18.411 19.7108 18.3C19.7108 17.928 20.0958 17.627 20.5708 17.627C21.0458 17.627 21.4308 17.928 21.4308 18.3C21.4308 18.412 21.3928 18.516 21.3308 18.609L21.6418 18.943L21.7988 18.962V18.212C21.7988 18.194 21.8048 18.178 21.8088 18.161H21.7928C21.7398 18.161 21.6978 18.118 21.6978 18.066C21.6978 18.013 21.7408 17.971 21.7928 17.971H22.2168C22.2698 17.971 22.3118 18.014 22.3118 18.066C22.3118 18.119 22.2688 18.161 22.2168 18.161H22.2008C22.2048 18.178 22.2108 18.194 22.2108 18.212V19.014L22.5528 19.056L22.2698 19.481H22.2238V20.068H21.7848V19.481H19.3518V20.068H18.9128V19.481H18.8688L18.5858 19.056L18.9278 19.014ZM22.5138 22.247H21.2388V21.913L20.7058 21.647L19.5718 21.636L19.6158 20.3L20.4788 20.346L21.6098 21.913H21.7868V21.388H22.2258V21.935L22.5148 22.247H22.5138ZM19.9238 21.913V22.247H18.6488L18.9138 21.961V21.388H19.3518V21.913H19.9238ZM18.1358 20.902C18.2448 21.283 18.0838 21.622 17.7308 21.806C17.8488 21.519 17.6698 21.246 17.4808 20.94C17.2928 20.634 17.5378 20.333 17.6458 20.182C17.4528 19.773 18.0338 19.349 18.0338 19.349L18.1678 19.231L18.9708 20.405H19.3508V21.052H18.9118V20.675L18.6408 20.265C18.4928 20.337 18.0438 20.581 18.1338 20.901L18.1358 20.902ZM18.4668 22.81L18.4618 22.431H22.5378L22.5538 22.819L18.4668 22.811V22.81ZM23.6568 20.94C23.4688 21.246 23.2898 21.519 23.4068 21.806C23.0538 21.622 22.8938 21.283 23.0018 20.902C23.0928 20.581 22.6428 20.336 22.4948 20.266L22.2238 20.675V21.052H21.7848V20.405H22.1648L22.9678 19.231L23.1028 19.349C23.1028 19.349 23.6848 19.773 23.4908 20.182C23.5988 20.333 23.8438 20.634 23.6558 20.94H23.6568Z" fill="#BD001A"/>
<path d="M36.7429 9.189C36.7429 9.189 36.7399 9.186 36.7379 9.185C36.6529 9.127 36.5549 9.088 36.4649 9.036C35.8839 8.704 35.2209 8.5 34.5039 8.5H26.6699V32.5H35.3239C37.1369 32.12 38.4989 30.509 38.4989 28.576V12.51C38.4989 11.128 37.8029 9.91 36.7429 9.189Z" fill="#009D39"/>
<path d="M18.4629 22.4312L18.4679 22.8102L22.5549 22.8182L22.5379 22.4312H18.4629Z" fill="white"/>
<path d="M18.9149 19.481V20.068H19.3539V19.481H21.7869V20.068H22.2259V19.481H22.2719L22.5549 19.056L22.2129 19.014V18.212C22.2129 18.194 22.2069 18.178 22.2029 18.161H22.2189C22.2709 18.161 22.3139 18.119 22.3139 18.066C22.3139 18.014 22.2709 17.971 22.2189 17.971H21.7949C21.7429 17.971 21.6999 18.014 21.6999 18.066C21.6999 18.118 21.7429 18.161 21.7949 18.161H21.8109C21.8069 18.178 21.8009 18.194 21.8009 18.212V18.962L21.6439 18.943L21.3329 18.609C21.3949 18.516 21.4329 18.412 21.4329 18.3C21.4329 17.928 21.0479 17.627 20.5729 17.627C20.0979 17.627 19.7129 17.928 19.7129 18.3C19.7129 18.411 19.7509 18.515 19.8119 18.607L19.4989 18.944L19.3419 18.963V18.213C19.3419 18.195 19.3359 18.179 19.3319 18.162H19.3479C19.3999 18.162 19.4429 18.119 19.4429 18.067C19.4429 18.015 19.3999 17.972 19.3479 17.972H18.9239C18.8719 17.972 18.8289 18.015 18.8289 18.067C18.8289 18.119 18.8719 18.162 18.9239 18.162H18.9399C18.9359 18.179 18.9299 18.195 18.9299 18.213V19.014L18.5879 19.056L18.8709 19.481H18.9149Z" fill="white"/>
<path d="M19.1328 17.9009C19.2948 17.9009 19.4258 17.8309 19.4258 17.7449C19.4258 17.6979 19.3848 17.6569 19.3218 17.6289L19.1328 17.3569L18.9438 17.6289C18.8818 17.6569 18.8398 17.6979 18.8398 17.7449C18.8398 17.8309 18.9708 17.9009 19.1328 17.9009Z" fill="white"/>
<path d="M20.5355 17.5452C20.7035 17.5452 20.8395 17.4612 20.8395 17.3582C20.8395 17.3032 20.7995 17.2552 20.7375 17.2212L20.5345 16.9292L20.3315 17.2212C20.2705 17.2552 20.2305 17.3042 20.2305 17.3582C20.2305 17.4612 20.3665 17.5452 20.5345 17.5452H20.5355Z" fill="white"/>
<path d="M22.0049 17.9009C22.1669 17.9009 22.2979 17.8309 22.2979 17.7449C22.2979 17.6979 22.2569 17.6569 22.1939 17.6289L22.0039 17.3569L21.8149 17.6289C21.7529 17.6569 21.7109 17.6979 21.7109 17.7449C21.7109 17.8309 21.8429 17.9009 22.0049 17.9009Z" fill="white"/>
<path d="M21.7873 21.3883V21.9133H21.6103L20.4793 20.3463L19.6163 20.3003L19.5723 21.6363L20.7063 21.6473L21.2393 21.9133V22.2483H22.5143L22.2263 21.9353V21.3883H21.7873Z" fill="white"/>
<path d="M23.1051 19.349L22.9701 19.231L22.1671 20.405H21.7871V21.052H22.2261V20.675L22.4971 20.266C22.6451 20.337 23.0941 20.582 23.0041 20.902C22.8961 21.283 23.0561 21.622 23.4091 21.806C23.2911 21.519 23.4701 21.246 23.6591 20.94C23.8471 20.634 23.6021 20.333 23.4941 20.182C23.6871 19.773 23.1061 19.349 23.1061 19.349H23.1051Z" fill="white"/>
<path d="M18.9139 20.675V21.052H19.3529V20.405H18.9729L18.1699 19.231L18.0359 19.349C18.0359 19.349 17.4539 19.773 17.6479 20.182C17.5399 20.333 17.2949 20.634 17.4829 20.94C17.6709 21.246 17.8499 21.519 17.7329 21.806C18.0859 21.622 18.2459 21.283 18.1379 20.902C18.0469 20.582 18.4959 20.337 18.6449 20.266L18.9159 20.676L18.9139 20.675Z" fill="white"/>
<path d="M18.9144 21.3882V21.9612L18.6484 22.2482H19.9234V21.9132H19.3524V21.3882H18.9144Z" fill="white"/>
<path d="M25.1124 22.3181C25.1984 22.2811 25.2974 22.2771 25.3874 22.2461C25.4724 22.2161 25.5634 22.1841 25.6324 22.1301C25.7894 22.0071 25.8324 21.8171 25.8814 21.6351C25.8984 21.5741 25.8664 21.5331 25.7984 21.5401C25.7004 21.5511 25.6034 21.5661 25.5064 21.5801C25.4334 21.5901 25.3614 21.6021 25.2924 21.6131C25.2704 21.4511 25.2524 21.3051 25.2304 21.1601C25.2074 21.0151 25.2384 20.9041 25.3954 20.8571C25.4334 20.8461 25.4684 20.8201 25.5004 20.7941C25.6064 20.7061 25.7584 20.6531 25.7894 20.5021C25.8224 20.3401 25.8324 20.1721 25.8404 20.0061C25.8434 19.9311 25.7854 19.9211 25.7224 19.9491C25.6014 20.0041 25.4804 20.0581 25.3614 20.1181C25.3074 20.1451 25.2814 20.1391 25.2634 20.0801C25.2324 19.9761 25.2124 19.8641 25.1594 19.7721C25.0924 19.6561 25.1474 19.5981 25.2254 19.5321C25.2724 19.4921 25.3154 19.4481 25.3574 19.4021C25.4804 19.2661 25.5624 19.1081 25.5504 18.9211C25.5444 18.8271 25.5144 18.7331 25.4864 18.6421C25.4614 18.5601 25.4054 18.5431 25.3314 18.5911C25.2654 18.6341 25.2024 18.6821 25.1414 18.7311C25.0784 18.7811 25.0194 18.8361 24.9584 18.8891C24.8744 18.7591 24.8034 18.6381 24.7214 18.5251C24.6714 18.4561 24.6684 18.4031 24.7144 18.3311C24.7814 18.2251 24.8554 18.1171 24.8924 17.9991C24.9734 17.7411 24.8694 17.5171 24.7234 17.3091C24.6754 17.2401 24.6244 17.2691 24.5904 17.3171C24.5074 17.4301 24.4314 17.5481 24.3514 17.6631C24.3354 17.6861 24.3164 17.7091 24.3024 17.7281C24.1534 17.5861 24.0094 17.4531 23.8734 17.3141C23.8504 17.2901 23.8444 17.2301 23.8564 17.1961C23.9244 17.0041 23.9204 16.8021 23.8744 16.6181C23.7824 16.2471 23.5344 15.9761 23.2264 15.7611C22.9424 15.5631 22.6364 15.4051 22.3014 15.3131C22.0334 15.2391 21.7674 15.1501 21.4944 15.1051C21.2054 15.0581 20.9094 15.0381 20.6174 15.0381C20.2694 15.0381 19.9214 15.0671 19.5744 15.0941C19.4124 15.1061 19.2484 15.1271 19.0914 15.1681C18.8684 15.2251 18.6484 15.2981 18.4324 15.3751C18.0224 15.5211 17.6444 15.7271 17.3444 16.0481C17.0474 16.3661 16.8984 16.7361 17.0474 17.1731C17.0754 17.2541 17.0494 17.2881 16.9944 17.3341C16.8874 17.4251 16.7874 17.5231 16.6864 17.6211C16.6524 17.6541 16.6244 17.6951 16.5934 17.7311C16.4944 17.5881 16.4074 17.4571 16.3144 17.3311C16.2544 17.2491 16.2074 17.2521 16.1484 17.3371C16.1134 17.3871 16.0794 17.4391 16.0534 17.4951C15.9814 17.6501 15.9314 17.8141 15.9954 17.9811C16.0454 18.1111 16.1204 18.2301 16.1794 18.3571C16.1954 18.3911 16.2114 18.4451 16.1954 18.4711C16.1164 18.6091 16.0274 18.7411 15.9374 18.8811C15.9024 18.8491 15.8744 18.8201 15.8424 18.7951C15.7444 18.7211 15.6474 18.6431 15.5444 18.5771C15.5194 18.5621 15.4514 18.5721 15.4364 18.5941C15.4034 18.6391 15.3824 18.6991 15.3744 18.7551C15.3364 19.0171 15.3674 19.2621 15.5754 19.4551C15.6234 19.4991 15.6754 19.5411 15.7124 19.5931C15.7384 19.6301 15.7634 19.6881 15.7534 19.7281C15.7194 19.8621 15.6704 19.9911 15.6254 20.1281C15.5084 20.0691 15.3974 20.0131 15.2844 19.9571C15.1864 19.9091 15.1354 19.9281 15.1134 20.0381C15.0784 20.2071 15.1124 20.3701 15.1874 20.5241C15.2664 20.6851 15.4194 20.7621 15.5624 20.8481C15.7334 20.9531 15.7304 20.9501 15.7124 21.1431C15.7024 21.2501 15.7104 21.3591 15.7104 21.4731C15.6994 21.4731 15.6784 21.4801 15.6604 21.4761C15.5374 21.4481 15.4144 21.4211 15.2924 21.3891C15.1814 21.3611 15.1374 21.3891 15.1484 21.5001C15.1564 21.5761 15.1734 21.6591 15.2114 21.7241C15.2734 21.8311 15.3404 21.9461 15.4334 22.0231C15.5594 22.1271 15.7204 22.1771 15.8874 22.1901C15.9164 22.1921 15.9634 22.2001 15.9684 22.2171C16.0174 22.3701 16.0594 22.5261 16.1094 22.7001C16.0434 22.7001 16.0024 22.6951 15.9634 22.7001C15.8454 22.7161 15.7284 22.7351 15.6114 22.7561C15.5364 22.7691 15.5264 22.8151 15.5604 22.8771C15.5764 22.9071 15.5894 22.9391 15.6054 22.9691C15.7374 23.2151 15.9324 23.3591 16.2214 23.3561C16.3144 23.3561 16.4074 23.3521 16.4994 23.3611C16.5314 23.3641 16.5734 23.3911 16.5904 23.4201C16.6564 23.5311 16.7094 23.6511 16.7774 23.7611C16.8204 23.8311 16.7934 23.8501 16.7324 23.8681C16.6194 23.9011 16.5054 23.9341 16.3944 23.9751C16.3014 24.0101 16.2924 24.0611 16.3544 24.1381C16.5754 24.4091 16.9034 24.5011 17.2304 24.3781C17.3764 24.3231 17.5084 24.2881 17.6064 24.4641C17.6434 24.5301 17.7174 24.5751 17.7734 24.6301C17.7934 24.6501 17.8114 24.6741 17.8344 24.7001C17.8014 24.7231 17.7794 24.7391 17.7574 24.7541C17.6454 24.8321 17.5324 24.9091 17.4214 24.9891C17.3684 25.0271 17.3494 25.0791 17.4124 25.1231C17.5874 25.2421 17.7714 25.3381 17.9954 25.3041C18.0204 25.3001 18.0464 25.3081 18.0924 25.3121C18.0174 25.4131 17.9514 25.4991 17.8904 25.5881C17.8644 25.6261 17.8484 25.6701 17.8284 25.7111C17.8754 25.7241 17.9224 25.7381 17.9694 25.7491C17.9824 25.7521 17.9964 25.7491 18.0104 25.7491H22.9804C23.0114 25.7491 23.0434 25.7531 23.0724 25.7471C23.1034 25.7401 23.1324 25.7241 23.1624 25.7111C23.1494 25.6851 23.1404 25.6571 23.1224 25.6341C23.0804 25.5811 23.0344 25.5301 22.9804 25.4681C23.3244 25.4341 23.3484 25.4091 23.5614 25.2921C23.6864 25.2231 23.6914 25.1771 23.5774 25.0941C23.4784 25.0211 23.3754 24.9531 23.2724 24.8861C23.2164 24.8501 23.2124 24.8241 23.2624 24.7771C23.3344 24.7101 23.4034 24.6371 23.4664 24.5601C23.5744 24.4291 23.5684 24.4411 23.7304 24.4891C23.8784 24.5321 24.0414 24.5721 24.1914 24.5551C24.3874 24.5331 24.5484 24.4091 24.6794 24.2561C24.7414 24.1831 24.7234 24.1251 24.6334 24.0961C24.4984 24.0531 24.3634 24.0071 24.2184 23.9601C24.2804 23.8471 24.3434 23.7461 24.3914 23.6381C24.4354 23.5381 24.4864 23.4971 24.6074 23.5081C25.0444 23.5471 25.2764 23.3771 25.4544 23.0181C25.5034 22.9181 25.4754 22.8801 25.3644 22.8731C25.2514 22.8661 25.1384 22.8631 25.0254 22.8541C24.9874 22.8511 24.9504 22.8371 24.9184 22.8291C24.9514 22.6891 24.9754 22.5621 25.0144 22.4401C25.0304 22.3901 25.0724 22.3311 25.1174 22.3111L25.1124 22.3181ZM24.5434 21.3801C24.5074 21.3571 24.4704 21.3371 24.4364 21.3121C24.3394 21.2411 24.2444 21.1681 24.1484 21.0971C24.0434 21.0211 23.9814 21.0491 23.9674 21.1811C23.9594 21.2591 23.9564 21.3381 23.9504 21.4171C23.9494 21.4361 23.9434 21.4541 23.9394 21.4721L23.9624 21.6241C24.0294 21.8791 24.2584 22.0091 24.4574 22.1751C24.3804 22.2771 24.3064 22.3761 24.2224 22.4881C24.1604 22.4041 24.1104 22.3321 24.0554 22.2631C24.0024 22.1961 23.9464 22.1311 23.8884 22.0691C23.8374 22.0151 23.7764 22.0181 23.7494 22.0881C23.6934 22.2341 23.6344 22.3811 23.6064 22.5331C23.5914 22.6161 23.6214 22.7181 23.6614 22.7981C23.7194 22.9161 23.8004 23.0241 23.8774 23.1321C23.9234 23.1971 23.9184 23.2421 23.8524 23.2861C23.7904 23.3281 23.7304 23.3721 23.6714 23.4181C23.6164 23.4611 23.5884 23.4421 23.5654 23.3841C23.5114 23.2511 23.4544 23.1201 23.3964 22.9891C23.3614 22.9101 23.3104 22.9011 23.2464 22.9601C23.0964 23.1011 23.0154 23.2791 22.9754 23.4781C22.9714 23.4981 22.9684 23.5191 22.9634 23.5381C22.9624 23.5441 23.0024 23.7721 23.0894 23.8521C23.0914 23.8621 23.0994 23.8701 23.1034 23.8791C23.1661 24.0084 23.1314 24.0978 22.9994 24.1471C22.9294 24.1731 22.8604 24.2011 22.7924 24.2271C22.7704 24.1031 22.7444 23.9831 22.7274 23.8621C22.7274 23.8621 22.6734 23.5091 22.4114 23.7571C22.1844 23.9411 22.0844 24.1651 22.1114 24.4571C22.0824 24.4381 22.0644 24.4321 22.0574 24.4201C21.9714 24.2791 21.8434 24.2581 21.6874 24.2591C20.8544 24.2651 20.0214 24.2641 19.1894 24.2591C19.0614 24.2591 18.9624 24.2841 18.8954 24.3981C18.8874 24.4111 18.8704 24.4191 18.8494 24.4381C18.8244 24.3031 18.8214 24.1691 18.7714 24.0561C18.7224 23.9451 18.6254 23.8541 18.5514 23.7571C18.4104 23.5861 18.2704 23.7951 18.2414 23.9651C18.2214 24.0471 18.1964 24.1281 18.1724 24.2141C18.0624 24.1701 17.9494 24.1271 17.8384 24.0761C17.8214 24.0681 17.8054 24.0211 17.8124 24.0001C17.8394 23.9231 17.9304 23.8791 17.9624 23.8061C18.0044 23.7111 18.0434 23.6491 18.0374 23.5931C18.0294 23.5191 18.0234 23.4561 18.0164 23.3941C17.9934 23.2141 17.8894 23.0791 17.7704 22.9541C17.7164 22.8971 17.6574 22.9101 17.6224 22.9841C17.5504 23.1381 17.4794 23.2931 17.4054 23.4531C17.3204 23.3911 17.2294 23.3321 17.1484 23.2621C17.1304 23.2471 17.1294 23.1871 17.1444 23.1621C17.2174 23.0361 17.3044 22.9171 17.3754 22.7901C17.4804 22.6031 17.4164 22.2001 17.2644 22.0611C17.2204 22.0211 17.1714 22.0201 17.1304 22.0711C17.0454 22.1741 16.9604 22.2761 16.8754 22.3801C16.8504 22.4111 16.8264 22.4431 16.7944 22.4841C16.7154 22.3801 16.6434 22.2851 16.5634 22.1811C16.6134 22.1451 16.6584 22.1111 16.7044 22.0781C16.9954 21.8701 17.1324 21.5961 17.0624 21.2341C17.0564 21.2041 17.0514 21.1731 17.0394 21.1451C16.9924 21.0271 16.9654 21.0161 16.8594 21.0861C16.7294 21.1721 16.6024 21.2651 16.4664 21.3601C16.4284 21.2711 16.3874 21.1851 16.3564 21.0961C16.3494 21.0761 16.3714 21.0331 16.3914 21.0211C16.5204 20.9451 16.6594 20.8851 16.7824 20.8001C17.0104 20.6431 17.0694 20.4041 17.0604 20.1431C17.0574 20.0651 17.0114 20.0451 16.9394 20.0691C16.7844 20.1201 16.6294 20.1691 16.4644 20.2221C16.4444 20.1181 16.4204 20.0161 16.4074 19.9131C16.4054 19.8961 16.4444 19.8621 16.4694 19.8561C16.6344 19.8161 16.8044 19.7921 16.9664 19.7431C17.1284 19.6951 17.2184 19.5581 17.2804 19.4101C17.3134 19.3301 17.3324 19.2421 17.3424 19.1551C17.3454 19.1321 17.2904 19.0791 17.2634 19.0801C17.0904 19.0851 16.9184 19.1021 16.7194 19.1171C16.7434 19.0061 16.7674 18.8881 16.7984 18.7721C16.8014 18.7611 16.8514 18.7571 16.8784 18.7591C17.0414 18.7711 17.2054 18.8091 17.3654 18.7951C17.5314 18.7801 17.6694 18.6781 17.7714 18.5401C17.8104 18.4881 17.8434 18.4311 17.8744 18.3741C17.9054 18.3161 17.8934 18.2741 17.8214 18.2641C17.6774 18.2431 17.5334 18.2181 17.3884 18.2021C17.2794 18.1901 17.2804 18.1791 17.3134 18.0761C17.3874 17.8431 17.4614 17.6091 17.5064 17.3691C17.5394 17.1941 17.6194 17.0701 17.7604 16.9711C18.0844 16.7431 18.4334 16.5681 18.8154 16.4651C19.0574 16.4001 19.3014 16.3371 19.5484 16.2971C19.8484 16.2491 20.1514 16.2201 20.4544 16.1961C20.5824 16.1861 20.7144 16.2061 20.8434 16.2161C20.9284 16.2221 21.0134 16.2401 21.0984 16.2421C21.4144 16.2511 21.7174 16.3251 22.0234 16.3981C22.3804 16.4831 22.7174 16.6171 23.0344 16.8001C23.1644 16.8751 23.2804 16.9741 23.4064 17.0551C23.5104 17.1221 23.5044 17.2261 23.5294 17.3281C23.5934 17.5881 23.6734 17.8451 23.7584 18.0991C23.7854 18.1811 23.7634 18.1921 23.6924 18.2001C23.5474 18.2161 23.4034 18.2411 23.2594 18.2601C23.1714 18.2721 23.1724 18.3271 23.2014 18.3871C23.3704 18.7371 23.7734 18.9051 24.1384 18.7721C24.2264 18.7401 24.2584 18.7621 24.2684 18.8471C24.2784 18.9311 24.2904 19.0141 24.2994 19.0831C24.1384 19.0831 23.9924 19.0841 23.8464 19.0831C23.7034 19.0811 23.6964 19.0941 23.7314 19.2311C23.7774 19.4071 23.8534 19.5691 23.9964 19.6821C24.0684 19.7391 24.1654 19.7701 24.2554 19.7951C24.3734 19.8271 24.4954 19.8421 24.6224 19.8651V20.2301C24.4524 20.1761 24.2914 20.1281 24.1324 20.0721C24.0434 20.0411 24.0154 20.0531 24.0094 20.1491C23.9824 20.5231 24.1334 20.7561 24.4654 20.9061C24.5514 20.9451 24.6354 20.9861 24.7284 21.0301C24.6644 21.1501 24.6064 21.2571 24.5424 21.3771L24.5434 21.3801Z" fill="white"/>
</svg>
