<svg width="41" height="41" viewBox="0 0 41 41" fill="none" xmlns="http://www.w3.org/2000/svg">
<path d="M34.5 8.5H6.5C4.29086 8.5 2.5 10.2909 2.5 12.5V28.5C2.5 30.7091 4.29086 32.5 6.5 32.5H34.5C36.7091 32.5 38.5 30.7091 38.5 28.5V12.5C38.5 10.2909 36.7091 8.5 34.5 8.5Z" fill="#CF002E"/>
<path d="M12.9609 23.0889L20.4329 32.4139H20.5699L28.0419 23.0889H12.9609Z" fill="#E3E7EA"/>
<path d="M35.3255 8.586C35.0605 8.531 34.7865 8.5 34.5055 8.5H6.49547C6.21447 8.5 5.94047 8.531 5.67547 8.586C4.49947 8.832 3.52847 9.603 2.98047 10.634L8.80947 17.909H32.1915L38.0195 10.634C37.4715 9.603 36.5015 8.832 35.3255 8.586Z" fill="black"/>
<path d="M24.1333 17.197L27.2113 15.169L23.5803 15.881L25.6373 12.845L22.5583 14.874L23.2813 11.293L21.2233 14.329L20.5003 10.749L19.7793 14.329L17.7213 11.293L18.4443 14.874L15.3653 12.845L17.4213 15.881L13.7913 15.169L16.8693 17.197L13.2383 17.909H27.7643L24.1333 17.197Z" fill="#F9CF00"/>
<path d="M8.87891 17.9941L12.9609 23.0891H28.0419L32.1229 17.9941H8.87891Z" fill="#2C6FB9"/>
<path d="M32.1216 17.9942L32.1906 17.9082H8.80859L8.87759 17.9942H32.1216Z" fill="#2C6FB9"/>
</svg>
