<svg width="41" height="41" viewBox="0 0 41 41" fill="none" xmlns="http://www.w3.org/2000/svg">
<path d="M34.499 8.5H21.816V9.541L17.418 11.72H21.816V14.999H17.418L21.816 17.178V18.278H19.597L13.544 15.279V18.278H10.236V15.279L4.18305 18.278H2.49805V28.5C2.49805 30.709 4.28905 32.5 6.49805 32.5H34.498C36.707 32.5 38.498 30.709 38.498 28.5V12.5C38.498 10.291 36.708 8.5 34.499 8.5ZM35.077 21.23C35.077 21.824 34.946 22.438 34.692 23.038H34.709C34.676 23.116 34.633 23.193 34.595 23.271C34.568 23.326 34.544 23.38 34.515 23.435C34.406 23.638 34.283 23.839 34.139 24.035C34.109 24.077 34.072 24.116 34.04 24.157C33.915 24.318 33.776 24.474 33.625 24.628C33.573 24.681 33.521 24.734 33.466 24.786C33.272 24.968 33.063 25.145 32.829 25.312C32.795 25.336 32.756 25.358 32.721 25.382C32.51 25.527 32.28 25.664 32.036 25.795C31.958 25.837 31.879 25.878 31.797 25.919C31.503 26.065 31.194 26.204 30.853 26.326C30.511 26.203 30.201 26.063 29.905 25.917C29.827 25.878 29.751 25.839 29.675 25.798C29.423 25.663 29.186 25.522 28.969 25.372C28.941 25.352 28.908 25.335 28.88 25.315C28.642 25.146 28.43 24.966 28.234 24.781C28.183 24.733 28.136 24.684 28.087 24.635C27.93 24.477 27.787 24.315 27.657 24.148C27.628 24.111 27.596 24.075 27.568 24.038C27.423 23.841 27.298 23.639 27.189 23.435C27.16 23.38 27.135 23.326 27.109 23.271C27.072 23.194 27.029 23.117 26.996 23.04H27.012C26.758 22.44 26.627 21.825 26.627 21.232V15.797C27.662 16.499 29.317 16.528 30.852 15.654C32.386 16.528 34.04 16.499 35.076 15.797V21.232L35.077 21.23Z" fill="#272C6C"/>
<path d="M10.2375 8.50002H6.4955C5.9425 8.50002 5.4165 8.61202 4.9375 8.81502L10.2375 11.44V8.50002Z" fill="#272C6C"/>
<path d="M3.25012 10.1782C3.25012 10.1782 3.24713 10.1842 3.24513 10.1872C2.92413 10.6382 2.68913 11.1542 2.57812 11.7182V11.7202H6.36312L3.25113 10.1782H3.25012Z" fill="#272C6C"/>
<path d="M13.5449 8.5V11.441L19.4809 8.5H13.5449Z" fill="#272C6C"/>
<path d="M2.5 14.999V16.913L6.363 14.999H2.5Z" fill="#272C6C"/>
<path d="M21.7007 8.5H20.2217L13.7207 11.72H15.2007L21.7007 8.5Z" fill="#D00032"/>
<path d="M8.5838 11.7202L3.9618 9.43115C3.9568 9.43515 3.9528 9.44115 3.9468 9.44515C3.7778 9.58615 3.6228 9.73915 3.4798 9.90515C3.4758 9.90915 3.4708 9.91315 3.4668 9.91715L7.1038 11.7192H8.5838V11.7202Z" fill="#D00032"/>
<path d="M2.5 18.013V18.278H3.445L10.062 14.999H8.583L2.5 18.013Z" fill="#D00032"/>
<path d="M15.1992 14.999L21.8162 18.278V17.544L16.6782 14.999H15.1992Z" fill="#D00032"/>
<path d="M12.884 12.376V8.5H10.899V12.376H2.512C2.511 12.417 2.5 12.455 2.5 12.496V14.344H10.899V18.278H12.884V14.344H21.817V12.376H12.884Z" fill="#D00032"/>
<path d="M26.998 23.0381C27.031 23.1161 27.074 23.1921 27.111 23.2691C27.138 23.3241 27.162 23.3791 27.191 23.4331C27.3 23.6381 27.425 23.8391 27.57 24.0361C27.597 24.0731 27.63 24.1091 27.659 24.1461C27.788 24.3131 27.932 24.4751 28.089 24.6331C28.137 24.6821 28.185 24.7311 28.236 24.7791C28.433 24.9641 28.644 25.1441 28.882 25.3131C28.91 25.3331 28.942 25.3511 28.971 25.3701C29.188 25.5201 29.425 25.6611 29.677 25.7961C29.752 25.8361 29.828 25.8761 29.907 25.9151C30.203 26.0611 30.513 26.2011 30.855 26.3241C31.196 26.2011 31.504 26.0631 31.799 25.9171C31.881 25.8771 31.96 25.8351 32.038 25.7931C32.282 25.6621 32.512 25.5251 32.723 25.3801C32.758 25.3561 32.797 25.3341 32.831 25.3101C33.065 25.1431 33.274 24.9661 33.468 24.7841C33.523 24.7321 33.575 24.6791 33.627 24.6261C33.778 24.4731 33.917 24.3161 34.042 24.1551C34.074 24.1141 34.11 24.0741 34.141 24.0331C34.285 23.8371 34.408 23.6371 34.517 23.4331C34.546 23.3791 34.571 23.3241 34.597 23.2691C34.635 23.1911 34.678 23.1151 34.711 23.0361H26.999L26.998 23.0381Z" fill="#2071BB"/>
<path d="M30.6757 17.077C30.7047 17.021 30.7427 16.954 30.7717 16.897C28.6817 17.391 28.4517 20.129 30.3587 20.442C30.3827 20.152 30.1487 19.976 30.1377 19.692C30.2297 19.711 30.3357 19.747 30.4077 19.796C30.3787 19.473 30.0907 19.407 30.0997 19.007C30.1197 18.198 30.5337 17.698 31.2797 17.638C31.6337 17.609 32.1167 17.749 32.2677 18.047C32.3257 18.16 32.4397 18.318 32.5267 18.403C32.6087 18.484 32.6107 18.456 32.6227 18.34C32.6477 18.1 33.0817 17.992 33.5907 18.227C33.7247 18.289 33.7287 18.248 33.6287 18.156C33.1357 17.704 32.5557 17.909 32.0957 17.514C31.6977 17.174 31.1167 17.038 30.6747 17.076L30.6757 17.077ZM29.6597 19.74C29.6057 19.74 29.5607 19.697 29.5607 19.643C29.5607 19.589 29.6047 19.546 29.6597 19.546C29.7137 19.546 29.7577 19.589 29.7577 19.643C29.7577 19.697 29.7137 19.74 29.6597 19.74Z" fill="#E86A1E"/>
<path d="M31.7987 19.6719C31.6457 19.7619 31.4487 20.1039 31.1377 20.1379C31.1427 20.0239 31.1377 19.8379 31.1177 19.7669C30.9407 20.0379 30.8967 20.3849 30.4457 20.6899C29.9397 21.0309 29.0427 21.1399 28.5857 20.6509C28.3467 20.3949 28.1927 20.0529 28.3267 19.5679C28.4167 19.2449 28.6947 19.2279 28.8487 19.0929C28.8927 19.0549 28.8537 19.0489 28.7867 19.0409C28.5037 19.0079 28.4217 18.6189 28.6617 18.0339C28.7157 17.9049 28.6437 17.9109 28.4897 18.1809C28.2717 18.5659 28.2727 18.9299 28.1547 19.2549C27.8667 20.0339 28.0177 21.1239 28.7467 21.5149C28.7107 21.5669 28.6677 21.6349 28.6217 21.6889C30.2727 22.0779 31.9217 21.3939 31.7977 19.6739L31.7987 19.6719ZM31.4927 20.2499C31.5457 20.2499 31.5897 20.2929 31.5897 20.3469C31.5897 20.4009 31.5457 20.4449 31.4927 20.4449C31.4377 20.4449 31.3927 20.4009 31.3927 20.3469C31.3927 20.2929 31.4367 20.2499 31.4927 20.2499Z" fill="#E86A1E"/>
<path d="M31.3378 18.4358C31.4338 18.6248 31.7118 18.7588 31.7978 19.0158C31.7218 19.0158 31.5768 19.0538 31.5008 19.1008C31.7068 19.1958 31.8178 19.2098 32.0098 19.3628L32.0578 19.3858C32.6708 20.0318 32.9388 20.6718 32.7108 21.2488C32.5948 21.5378 32.3558 21.8628 31.9658 21.9848C31.4388 22.1508 31.2958 21.7238 30.8208 21.7998C30.7868 21.8048 30.8128 21.8328 30.8588 21.8518C31.1558 21.9798 31.0518 22.3068 30.4908 22.5538C30.4468 22.5738 30.4428 22.5768 30.5388 22.5878C30.8778 22.6258 31.3058 22.5158 31.5298 22.3988C31.8078 22.2508 32.1488 22.1518 32.4458 22.0128C33.0258 21.7418 33.3408 21.2628 33.4318 20.5978C33.5428 20.6778 33.5768 20.7488 33.6288 20.8398C33.8698 19.7658 33.1108 18.3878 31.3378 18.4348V18.4358ZM32.2578 18.8518C32.2038 18.8518 32.1588 18.8088 32.1588 18.7548C32.1588 18.7008 32.2028 18.6578 32.2578 18.6578C32.3118 18.6578 32.3558 18.7008 32.3558 18.7548C32.3558 18.8088 32.3118 18.8518 32.2578 18.8518Z" fill="#E86A1E"/>
<path d="M10.2387 11.441L4.93872 8.81598C4.74472 8.89798 4.56372 9.00198 4.38972 9.11598C4.25072 9.20798 4.11672 9.30698 3.98772 9.41198C3.97972 9.41898 3.96972 9.42398 3.96072 9.43198L8.58272 11.721H7.10272L3.46572 9.91898C3.39272 10.004 3.31672 10.087 3.25072 10.179L6.36272 11.721H2.57772C2.53572 11.933 2.51872 12.154 2.51172 12.377H10.8987V8.50098H10.2367V11.442L10.2387 11.441Z" fill="#E3E7EA"/>
<path d="M12.8848 18.2782H13.5458V15.2792L19.5988 18.2782H21.8178L15.2008 14.9992H16.6798L21.8178 17.5442V17.1782L17.4198 14.9992H21.8178V14.3442H12.8848V18.2782Z" fill="#E3E7EA"/>
<path d="M15.2008 11.72H13.7208L20.2218 8.5H19.4818L13.5458 11.441V8.5H12.8848V12.376H21.8178V11.72H17.4198L21.8178 9.541V8.5H21.7008L15.2008 11.72Z" fill="#E3E7EA"/>
<path d="M2.5 14.9992H6.363L2.5 16.9132V18.0132L8.583 14.9992H10.062L3.445 18.2782H4.185L10.238 15.2792V18.2782H10.899V14.3442H2.5V14.9992Z" fill="#E3E7EA"/>
<path d="M30.8539 15.6519C29.3199 16.5259 27.6639 16.4969 26.6289 15.7949V21.2299C26.6289 21.8239 26.7599 22.4379 27.0139 23.0379H34.6929C34.9469 22.4379 35.0779 21.8229 35.0779 21.2299V15.7949C34.0419 16.4969 32.3879 16.5259 30.8539 15.6519ZM28.6219 21.6869C28.6669 21.6339 28.7099 21.5659 28.7469 21.5129C28.0179 21.1229 27.8669 20.0319 28.1549 19.2529C28.2729 18.9279 28.2719 18.5639 28.4899 18.1789C28.6429 17.9079 28.7149 17.9029 28.6619 18.0319C28.4219 18.6169 28.5039 19.0059 28.7869 19.0389C28.8539 19.0469 28.8939 19.0529 28.8489 19.0909C28.6949 19.2259 28.4169 19.2419 28.3269 19.5659C28.1929 20.0509 28.3469 20.3929 28.5859 20.6489C29.0429 21.1389 29.9399 21.0289 30.4459 20.6879C30.8959 20.3829 30.9409 20.0359 31.1179 19.7649C31.1379 19.8359 31.1419 20.0219 31.1379 20.1359C31.4489 20.1029 31.6469 19.7599 31.7989 19.6699C31.9239 21.3899 30.2749 22.0749 28.6229 21.6849L28.6219 21.6869ZM33.6289 20.8409C33.5769 20.7499 33.5439 20.6789 33.4319 20.5989C33.3409 21.2639 33.0259 21.7429 32.4459 22.0139C32.1489 22.1529 31.8079 22.2519 31.5299 22.3999C31.3059 22.5169 30.8779 22.6279 30.5389 22.5889C30.4429 22.5779 30.4459 22.5749 30.4909 22.5549C31.0529 22.3079 31.1559 21.9809 30.8589 21.8529C30.8129 21.8329 30.7869 21.8059 30.8209 21.8009C31.2959 21.7249 31.4389 22.1519 31.9659 21.9859C32.3559 21.8629 32.5949 21.5389 32.7109 21.2499C32.9389 20.6729 32.6709 20.0329 32.0579 19.3869L32.0099 19.3639C31.8179 19.2109 31.7069 19.1969 31.5009 19.1019C31.5769 19.0549 31.7219 19.0169 31.7979 19.0169C31.7129 18.7599 31.4339 18.6269 31.3379 18.4369C33.1109 18.3899 33.8689 19.7669 33.6289 20.8409ZM33.5909 18.2269C33.0819 17.9919 32.6479 18.0999 32.6229 18.3399C32.6099 18.4559 32.6089 18.4839 32.5269 18.4029C32.4399 18.3179 32.3259 18.1599 32.2679 18.0469C32.1179 17.7499 31.6349 17.6089 31.2799 17.6379C30.5339 17.6979 30.1199 18.1979 30.0999 19.0069C30.0909 19.4059 30.3789 19.4719 30.4079 19.7959C30.3359 19.7469 30.2299 19.7109 30.1379 19.6919C30.1489 19.9759 30.3829 20.1519 30.3589 20.4419C28.4509 20.1289 28.6809 17.3909 30.7719 16.8969C30.7429 16.9549 30.7049 17.0209 30.6759 17.0769C31.1179 17.0389 31.6989 17.1749 32.0969 17.5149C32.5569 17.9099 33.1369 17.7049 33.6299 18.1569C33.7299 18.2489 33.7259 18.2899 33.5919 18.2279L33.5909 18.2269Z" fill="#E3E7EA"/>
<path d="M29.6595 19.5459C29.6055 19.5459 29.5605 19.5889 29.5605 19.6429C29.5605 19.6969 29.6045 19.7399 29.6595 19.7399C29.7135 19.7399 29.7575 19.6969 29.7575 19.6429C29.7575 19.5889 29.7135 19.5459 29.6595 19.5459Z" fill="#E3E7EA"/>
<path d="M31.4926 20.444C31.5456 20.444 31.5896 20.4 31.5896 20.346C31.5896 20.292 31.5456 20.249 31.4926 20.249C31.4376 20.249 31.3926 20.292 31.3926 20.346C31.3926 20.4 31.4366 20.444 31.4926 20.444Z" fill="#E3E7EA"/>
<path d="M32.2572 18.6592C32.2032 18.6592 32.1582 18.7022 32.1582 18.7562C32.1582 18.8102 32.2022 18.8532 32.2572 18.8532C32.3112 18.8532 32.3552 18.8102 32.3552 18.7562C32.3552 18.7022 32.3112 18.6592 32.2572 18.6592Z" fill="#E3E7EA"/>
</svg>
