<svg width="41" height="41" viewBox="0 0 41 41" fill="none" xmlns="http://www.w3.org/2000/svg">
<path d="M22.7777 14.3368C22.8327 14.2808 22.7877 14.1818 22.6997 14.1658C22.6427 14.1488 22.6017 14.1428 22.5747 14.1408C22.4537 14.1358 22.5627 14.2488 22.5037 14.2868C22.4327 14.3348 22.2567 14.0898 22.3597 14.3698C22.4177 14.4178 22.7227 14.3958 22.7777 14.3368Z" fill="#CF002E"/>
<path d="M34.5 8.5H6.5C4.291 8.5 2.5 10.291 2.5 12.5V28.5C2.5 30.709 4.291 32.5 6.5 32.5H34.5C36.709 32.5 38.5 30.709 38.5 28.5V12.5C38.5 10.291 36.709 8.5 34.5 8.5ZM26.436 23.67C26.251 23.642 26.232 23.644 26.173 23.698C26.137 23.728 26.082 23.771 26.049 23.788C25.967 23.83 25.776 23.826 25.685 23.776C25.627 23.748 25.497 23.738 25.197 23.736C24.97 23.733 24.773 23.733 24.76 23.736C24.743 23.736 24.833 23.797 24.957 23.872C25.169 24.004 25.19 24.008 25.372 24.005C25.614 24.002 25.751 24.075 25.791 24.231C25.804 24.287 25.829 24.389 25.846 24.45C25.884 24.598 25.899 24.621 25.792 24.877C25.674 24.596 25.714 24.682 25.679 24.629C25.621 24.542 25.599 24.528 25.461 24.517C25.27 24.5 25.182 24.442 25.11 24.288C25.062 24.182 25.011 24.137 24.758 23.978C24.41 23.76 24.431 23.76 24.04 23.944C23.847 24.037 23.776 24.083 23.743 24.148C23.685 24.265 23.561 24.311 23.423 24.268C23.293 24.23 23.235 24.25 23.147 24.377C23.109 24.431 23.108 24.421 23.053 24.471C23.038 24.393 23.036 24.382 23.036 24.303C23.036 24.189 23.05 24.166 23.196 24.015C23.368 23.842 23.472 23.794 23.596 23.842C23.653 23.865 23.701 23.857 23.85 23.787C24.016 23.712 24.08 23.65 23.993 23.65C23.976 23.65 23.71 23.549 23.403 23.429L22.846 23.211L22.764 23.278C22.612 23.398 22.371 23.51 22.267 23.51C22.17 23.51 22.159 23.502 22.128 23.402C22.082 23.242 21.759 22.612 21.586 22.345C21.296 21.891 21.137 21.774 21.007 21.919C20.965 21.967 20.955 22.021 20.958 22.194C20.962 22.705 21.251 23.373 21.629 23.75C21.827 23.951 22.045 24.061 22.309 24.1C22.514 24.128 22.651 24.181 22.651 24.233C22.651 24.289 22.515 24.452 22.43 24.496C22.355 24.535 22.284 24.543 22.125 24.538C21.935 24.53 21.9 24.519 21.717 24.407C21.538 24.298 21.511 24.289 21.475 24.325C21.439 24.361 21.436 24.387 21.465 24.488C21.523 24.707 21.677 24.806 22.035 24.851C22.401 24.898 22.526 25.011 22.404 25.184C22.325 25.296 22.188 25.354 21.997 25.354C21.782 25.354 21.597 25.258 21.352 25.023C21.246 24.926 21.151 24.853 21.134 24.863C21.095 24.886 21.097 25.11 21.138 25.246C21.177 25.377 21.351 25.585 21.455 25.626C21.497 25.642 21.603 25.677 21.688 25.698C21.989 25.782 22.033 25.901 21.819 26.043C21.682 26.136 21.454 26.143 21.285 26.062C21.174 26.012 20.871 25.724 20.813 25.62C20.764 25.527 20.711 25.596 20.728 25.733C20.74 25.847 20.805 25.976 20.955 26.189C21.076 26.357 21.034 26.583 20.828 26.891C20.691 27.096 20.561 27.243 20.501 27.268C20.441 27.242 20.311 27.096 20.174 26.891C19.968 26.583 19.926 26.357 20.047 26.189C20.196 25.976 20.262 25.848 20.274 25.733C20.29 25.596 20.238 25.528 20.187 25.62C20.13 25.723 19.827 26.012 19.716 26.062C19.548 26.143 19.319 26.136 19.18 26.043C18.968 25.9 19.011 25.782 19.311 25.698C19.397 25.677 19.503 25.642 19.544 25.626C19.65 25.585 19.823 25.377 19.862 25.246C19.902 25.11 19.905 24.886 19.866 24.863C19.85 24.853 19.754 24.925 19.648 25.023C19.403 25.258 19.218 25.354 19.003 25.354C18.812 25.354 18.674 25.296 18.595 25.184C18.473 25.011 18.598 24.898 18.964 24.851C19.323 24.806 19.476 24.707 19.534 24.488C19.562 24.387 19.559 24.362 19.523 24.325C19.487 24.288 19.46 24.298 19.28 24.407C19.099 24.519 19.063 24.53 18.872 24.538C18.715 24.544 18.643 24.536 18.569 24.496C18.484 24.452 18.348 24.288 18.348 24.233C18.348 24.181 18.485 24.128 18.69 24.1C18.954 24.061 19.172 23.951 19.371 23.75C19.749 23.373 20.037 22.705 20.041 22.194C20.044 22.021 20.032 21.967 19.991 21.919C19.861 21.774 19.701 21.892 19.412 22.345C19.238 22.612 18.916 23.242 18.87 23.402C18.839 23.503 18.829 23.51 18.732 23.51C18.627 23.51 18.387 23.398 18.234 23.278L18.152 23.211L17.595 23.429C17.289 23.55 17.022 23.65 17.005 23.65C16.918 23.65 16.982 23.712 17.148 23.787C17.296 23.857 17.345 23.865 17.402 23.842C17.526 23.794 17.63 23.842 17.802 24.015C17.948 24.166 17.962 24.189 17.962 24.303C17.962 24.382 17.961 24.392 17.946 24.471C17.89 24.42 17.887 24.431 17.852 24.377C17.762 24.25 17.705 24.23 17.575 24.268C17.438 24.31 17.314 24.265 17.256 24.148C17.223 24.084 17.151 24.037 16.959 23.944C16.566 23.76 16.589 23.76 16.241 23.978C15.987 24.137 15.936 24.182 15.888 24.288C15.816 24.442 15.728 24.501 15.537 24.517C15.4 24.527 15.377 24.541 15.319 24.629C15.283 24.682 15.323 24.596 15.206 24.877C15.098 24.621 15.113 24.598 15.152 24.45C15.168 24.388 15.193 24.287 15.207 24.231C15.246 24.075 15.383 24.002 15.625 24.005C15.807 24.008 15.828 24.005 16.04 23.872C16.163 23.797 16.253 23.736 16.237 23.736C16.223 23.733 16.026 23.733 15.8 23.736C15.5 23.738 15.368 23.748 15.312 23.776C15.22 23.827 15.029 23.831 14.947 23.788C14.914 23.771 14.859 23.728 14.823 23.698C14.765 23.644 14.745 23.642 14.56 23.67C14.453 23.684 14.502 23.684 14.353 23.686C14.388 23.563 14.442 23.532 14.523 23.47C14.569 23.437 14.647 23.413 14.721 23.41C14.79 23.407 14.888 23.385 14.944 23.357C15.068 23.298 15.198 23.318 15.312 23.416C15.386 23.478 15.434 23.488 15.721 23.511C16.123 23.544 16.253 23.544 16.253 23.516C16.253 23.505 16.151 23.43 16.024 23.349C15.852 23.235 15.781 23.203 15.725 23.215C15.604 23.238 15.453 23.178 15.34 23.061C15.232 22.95 15.207 22.942 14.959 22.953C14.899 22.955 14.94 22.958 14.856 22.945C14.893 22.844 15.041 22.648 15.285 22.712C15.389 22.74 15.455 22.743 15.51 22.723C15.667 22.667 15.881 22.781 15.946 22.954C15.979 23.044 16.136 23.175 16.42 23.351L16.625 23.483L17.027 23.327C17.474 23.153 17.851 22.98 17.851 22.952C17.851 22.937 17.796 22.868 17.727 22.789C17.658 22.714 17.603 22.641 17.603 22.633C17.603 22.625 17.679 22.576 17.776 22.529C18.395 22.21 18.837 21.763 19.022 21.26C19.155 20.908 19.088 20.826 18.925 21.142C18.795 21.397 18.7 21.512 18.522 21.627C18.332 21.749 18.225 21.775 18.153 21.708C18.066 21.629 18.087 21.535 18.208 21.395C18.481 21.079 18.559 20.602 18.335 20.602C18.25 20.602 18.238 20.618 18.065 21.023C17.821 21.59 17.574 21.97 17.378 22.07C17.213 22.156 16.942 22.088 16.899 21.945C16.863 21.83 16.908 21.757 17.097 21.635C17.393 21.439 17.587 21.124 17.664 20.709C17.69 20.575 17.687 20.542 17.645 20.48C17.579 20.376 17.53 20.414 17.337 20.706C16.976 21.257 16.325 21.981 16.056 22.131C15.583 22.397 15.118 22.386 14.835 22.102C14.759 22.024 14.734 21.975 14.734 21.905C14.734 21.768 14.834 21.71 15.051 21.721C15.545 21.744 15.594 21.738 15.784 21.648C16.152 21.472 16.508 21.05 16.789 20.458C17.055 19.905 16.99 19.876 16.54 20.34C15.933 20.965 15.444 21.197 14.993 21.063C14.777 20.999 14.57 20.8 14.57 20.653C14.57 20.494 14.647 20.446 14.884 20.461C14.992 20.469 15.191 20.474 15.328 20.474C15.557 20.476 15.592 20.469 15.761 20.385C15.863 20.334 16.029 20.214 16.139 20.11C16.429 19.839 16.914 19.163 16.914 19.033C16.914 18.902 16.8 18.954 16.501 19.219C16.259 19.434 15.827 19.731 15.632 19.824C15.519 19.874 15.444 19.885 15.232 19.888C15.007 19.888 14.952 19.879 14.835 19.818C14.656 19.725 14.593 19.634 14.576 19.442C14.554 19.168 14.688 19.1 15.081 19.2C15.635 19.34 15.925 19.237 16.436 18.714C16.684 18.457 16.772 18.319 16.739 18.239C16.711 18.161 16.6 18.198 16.13 18.438C15.613 18.704 15.464 18.757 15.222 18.757C15.007 18.757 14.87 18.713 14.737 18.595C14.535 18.422 14.486 18.225 14.613 18.099C14.712 17.995 14.909 18.004 15.128 18.116C15.236 18.169 15.357 18.21 15.457 18.218C15.805 18.251 16.315 18.055 16.57 17.795C16.742 17.622 16.824 17.46 16.777 17.399C16.727 17.343 16.65 17.352 16.46 17.433C16.085 17.596 15.906 17.64 15.622 17.64C15.304 17.64 15.111 17.59 14.838 17.433C14.626 17.316 14.487 17.164 14.487 17.058C14.487 17.016 14.513 16.941 14.544 16.891C14.623 16.759 14.768 16.765 15.039 16.915C15.575 17.211 15.943 17.254 16.319 17.061C16.476 16.98 16.746 16.719 16.818 16.581C16.86 16.494 16.86 16.482 16.821 16.443C16.772 16.393 16.736 16.398 16.321 16.552C16.115 16.627 16.024 16.647 15.782 16.656C15.457 16.669 15.261 16.635 15.049 16.535C14.765 16.403 14.487 16.062 14.487 15.85C14.487 15.746 14.552 15.612 14.613 15.588C14.734 15.54 14.8 15.57 14.988 15.769C15.281 16.071 15.57 16.186 16.03 16.186C16.521 16.183 16.723 16.107 16.723 15.919C16.723 15.791 16.626 15.713 16.424 15.681C15.815 15.581 15.11 15.257 14.732 14.902C14.508 14.692 14.423 14.544 14.426 14.366C14.428 14.161 14.516 14.024 14.674 13.98C14.811 13.941 14.913 14.005 15.053 14.228C15.29 14.606 15.531 14.813 15.991 15.048C16.258 15.182 16.685 15.329 16.766 15.313C16.791 15.308 16.829 15.258 16.851 15.193C16.918 15.004 16.929 15.001 17.205 15.119C17.342 15.18 17.623 15.289 17.833 15.364C18.253 15.515 18.393 15.608 18.493 15.807C18.542 15.905 18.552 15.972 18.552 16.271C18.555 16.59 18.563 16.627 18.618 16.712C18.703 16.832 18.773 16.865 18.949 16.865C19.206 16.865 19.347 16.712 19.363 16.412C19.376 16.168 19.335 15.962 19.217 15.716C19.1 15.467 18.966 15.317 18.711 15.146C18.467 14.984 18.233 14.909 17.891 14.876C17.585 14.848 17.273 14.729 17.198 14.575C17.512 14.669 17.826 14.534 17.799 14.518C17.772 14.502 17.213 14.504 17.14 14.496C16.906 14.471 16.814 14.405 16.686 14.309C16.536 14.201 16.437 14.1 16.475 14.029C16.514 13.955 16.625 13.967 16.7 14.054C16.739 14.099 16.81 14.179 16.86 14.238C16.949 14.339 16.969 14.347 17.233 14.389C17.435 14.417 17.472 14.417 17.587 14.389C17.625 14.361 17.659 14.327 17.659 14.314C17.659 14.274 17.548 14.21 17.445 14.189C17.371 14.175 17.208 14.231 17.07 14.271C17.1 14.193 17.1 14.186 17.148 14.094C17.214 13.963 17.332 13.915 17.628 13.906C17.834 13.898 17.901 13.883 17.946 13.844C17.979 13.813 18.028 13.777 18.058 13.76C18.094 13.74 18.144 13.73 18.207 13.729C18.394 13.723 18.685 13.794 18.966 13.919C19.12 13.989 19.19 14.005 19.35 14.005C19.46 14.005 19.598 13.992 19.659 13.974C19.879 13.916 19.921 13.914 19.921 13.959C19.921 14.011 19.733 14.185 19.592 14.257C19.514 14.296 19.484 14.327 19.5 14.355C19.518 14.414 19.732 14.559 19.862 14.603C19.993 14.65 19.99 14.703 19.847 14.773C19.783 14.804 19.732 14.842 19.729 14.86C19.726 14.941 20.001 15.123 20.126 15.123C20.28 15.123 20.222 15.246 20.054 15.282C19.96 15.302 19.96 15.312 20.043 15.404C20.134 15.511 20.216 15.548 20.307 15.528C20.409 15.506 20.429 15.545 20.371 15.654C20.323 15.737 20.323 15.743 20.374 15.779C20.397 15.797 20.427 15.808 20.456 15.815C20.462 15.815 20.47 15.817 20.476 15.818C20.483 15.818 20.492 15.819 20.5 15.82C20.507 15.82 20.516 15.819 20.524 15.818C20.53 15.817 20.537 15.816 20.543 15.814C20.573 15.808 20.603 15.797 20.625 15.779C20.676 15.743 20.676 15.737 20.628 15.654C20.57 15.545 20.589 15.506 20.692 15.528C20.784 15.548 20.866 15.511 20.957 15.404C21.039 15.312 21.039 15.302 20.945 15.282C20.778 15.246 20.719 15.123 20.873 15.123C20.997 15.123 21.273 14.94 21.27 14.86C21.267 14.843 21.216 14.804 21.152 14.773C21.009 14.703 21.006 14.65 21.136 14.603C21.266 14.559 21.478 14.414 21.498 14.355C21.513 14.327 21.483 14.296 21.406 14.257C21.265 14.185 21.077 14.011 21.077 13.959C21.077 13.914 21.119 13.917 21.338 13.974C21.399 13.991 21.537 14.005 21.647 14.005C21.807 14.005 21.876 13.988 22.031 13.919C22.312 13.794 22.604 13.723 22.79 13.729C22.853 13.73 22.903 13.741 22.94 13.76C22.97 13.777 23.019 13.813 23.052 13.844C23.095 13.883 23.164 13.898 23.37 13.906C23.666 13.914 23.784 13.963 23.849 14.094C23.897 14.186 23.896 14.194 23.927 14.271C23.79 14.231 23.625 14.175 23.552 14.189C23.449 14.211 23.339 14.274 23.339 14.314C23.339 14.327 23.371 14.362 23.411 14.389C23.526 14.417 23.563 14.417 23.765 14.389C24.029 14.347 24.049 14.338 24.137 14.238C24.188 14.178 24.26 14.099 24.299 14.054C24.375 13.967 24.485 13.954 24.524 14.029C24.563 14.1 24.463 14.2 24.314 14.309C24.185 14.405 24.094 14.471 23.86 14.496C23.787 14.505 23.228 14.502 23.201 14.518C23.173 14.534 23.488 14.67 23.802 14.575C23.727 14.729 23.415 14.848 23.109 14.876C22.767 14.909 22.532 14.984 22.289 15.146C22.033 15.316 21.9 15.467 21.783 15.716C21.665 15.962 21.624 16.168 21.637 16.412C21.653 16.711 21.794 16.865 22.051 16.865C22.227 16.865 22.297 16.832 22.382 16.712C22.437 16.628 22.445 16.59 22.448 16.271C22.448 15.972 22.459 15.905 22.508 15.807C22.608 15.609 22.748 15.516 23.168 15.364C23.377 15.289 23.66 15.18 23.796 15.119C24.072 15.001 24.083 15.004 24.15 15.193C24.171 15.257 24.21 15.308 24.235 15.313C24.314 15.329 24.743 15.182 25.01 15.048C25.47 14.813 25.71 14.606 25.946 14.228C26.088 14.005 26.19 13.941 26.327 13.98C26.486 14.024 26.572 14.162 26.575 14.366C26.578 14.544 26.493 14.692 26.269 14.902C25.891 15.257 25.187 15.581 24.576 15.681C24.376 15.712 24.279 15.791 24.279 15.919C24.279 16.107 24.48 16.182 24.97 16.186C25.432 16.186 25.721 16.071 26.014 15.769C26.2 15.57 26.267 15.54 26.388 15.588C26.45 15.613 26.514 15.746 26.514 15.85C26.514 16.062 26.236 16.403 25.952 16.535C25.74 16.635 25.544 16.669 25.219 16.656C24.977 16.647 24.886 16.627 24.678 16.552C24.264 16.398 24.228 16.393 24.179 16.443C24.14 16.482 24.14 16.494 24.182 16.581C24.254 16.72 24.524 16.98 24.681 17.061C25.056 17.254 25.425 17.211 25.961 16.915C26.233 16.765 26.378 16.759 26.456 16.891C26.488 16.941 26.513 17.016 26.513 17.058C26.513 17.164 26.374 17.315 26.162 17.433C25.889 17.59 25.696 17.64 25.378 17.64C25.094 17.64 24.915 17.596 24.54 17.433C24.349 17.352 24.273 17.343 24.223 17.399C24.175 17.461 24.257 17.622 24.429 17.795C24.685 18.055 25.195 18.252 25.542 18.218C25.643 18.21 25.762 18.17 25.871 18.116C26.09 18.004 26.288 17.995 26.386 18.099C26.513 18.224 26.464 18.421 26.262 18.595C26.13 18.712 25.992 18.757 25.777 18.757C25.534 18.757 25.386 18.705 24.869 18.438C24.397 18.198 24.288 18.161 24.26 18.239C24.227 18.319 24.315 18.457 24.563 18.714C25.074 19.237 25.364 19.34 25.917 19.2C26.31 19.1 26.443 19.168 26.422 19.442C26.406 19.635 26.343 19.726 26.162 19.818C26.047 19.88 25.992 19.888 25.767 19.888C25.553 19.885 25.48 19.873 25.367 19.824C25.171 19.731 24.74 19.433 24.498 19.219C24.199 18.954 24.085 18.902 24.085 19.033C24.085 19.162 24.57 19.838 24.86 20.11C24.971 20.213 25.136 20.334 25.238 20.385C25.407 20.469 25.443 20.476 25.671 20.474C25.807 20.474 26.007 20.469 26.114 20.461C26.352 20.446 26.428 20.493 26.428 20.653C26.428 20.801 26.222 20.999 26.004 21.063C25.554 21.197 25.065 20.965 24.458 20.34C24.009 19.876 23.943 19.905 24.209 20.458C24.49 21.051 24.847 21.472 25.214 21.648C25.404 21.738 25.453 21.744 25.945 21.721C26.163 21.71 26.263 21.768 26.263 21.905C26.263 21.975 26.238 22.023 26.162 22.102C25.879 22.386 25.414 22.397 24.939 22.131C24.672 21.981 24.021 21.257 23.659 20.706C23.466 20.414 23.417 20.376 23.35 20.48C23.31 20.542 23.307 20.575 23.332 20.709C23.408 21.124 23.604 21.438 23.9 21.635C24.089 21.758 24.134 21.83 24.098 21.945C24.055 22.088 23.785 22.156 23.619 22.07C23.423 21.97 23.175 21.59 22.932 21.023C22.758 20.617 22.747 20.602 22.662 20.602C22.438 20.602 22.516 21.079 22.789 21.395C22.91 21.535 22.929 21.629 22.844 21.708C22.773 21.776 22.665 21.75 22.476 21.627C22.298 21.512 22.202 21.397 22.073 21.142C21.91 20.827 21.843 20.908 21.976 21.26C22.161 21.763 22.604 22.21 23.223 22.529C23.32 22.577 23.396 22.625 23.396 22.633C23.396 22.641 23.341 22.714 23.272 22.789C23.203 22.867 23.148 22.937 23.148 22.952C23.148 22.979 23.526 23.153 23.972 23.327L24.372 23.483L24.578 23.351C24.861 23.175 25.02 23.044 25.052 22.954C25.118 22.781 25.331 22.666 25.488 22.723C25.543 22.742 25.609 22.74 25.713 22.712C25.956 22.648 26.104 22.844 26.141 22.945C26.058 22.958 26.098 22.955 26.038 22.953C25.791 22.942 25.765 22.95 25.657 23.061C25.544 23.178 25.393 23.238 25.272 23.215C25.217 23.204 25.145 23.235 24.973 23.349C24.846 23.43 24.745 23.505 24.745 23.516C24.745 23.544 24.875 23.544 25.277 23.511C25.563 23.488 25.611 23.478 25.686 23.416C25.799 23.318 25.929 23.298 26.053 23.357C26.109 23.385 26.207 23.408 26.276 23.41C26.351 23.413 26.428 23.437 26.474 23.47C26.555 23.532 26.608 23.563 26.644 23.686C26.494 23.684 26.544 23.684 26.436 23.67Z" fill="#CF002E"/>
<path d="M18.4959 14.2878C18.4379 14.2498 18.5479 14.1358 18.4269 14.1418C18.3999 14.1428 18.3579 14.1498 18.3009 14.1668C18.2129 14.1828 18.1679 14.2818 18.2239 14.3378C18.2789 14.3968 18.5839 14.4188 18.6419 14.3708C18.7449 14.0908 18.5669 14.3358 18.4959 14.2878Z" fill="#CF002E"/>
<path d="M26.4745 23.4699C26.4285 23.4369 26.3505 23.4129 26.2765 23.4099C26.2075 23.4069 26.1095 23.3849 26.0535 23.3569C25.9295 23.2979 25.7995 23.3179 25.6865 23.4159C25.6115 23.4779 25.5635 23.4879 25.2775 23.5109C24.8755 23.5439 24.7455 23.5439 24.7455 23.5159C24.7455 23.5049 24.8465 23.4299 24.9735 23.3489C25.1455 23.2349 25.2175 23.2029 25.2725 23.2149C25.3935 23.2379 25.5445 23.1779 25.6575 23.0609C25.7655 22.9499 25.7905 22.9419 26.0385 22.9529C26.0985 22.9549 26.0585 22.9579 26.1415 22.9449C26.1045 22.8439 25.9565 22.6479 25.7135 22.7119C25.6085 22.7399 25.5435 22.7429 25.4885 22.7229C25.3315 22.6669 25.1185 22.7809 25.0525 22.9539C25.0195 23.0439 24.8615 23.1749 24.5785 23.3509L24.3725 23.4829L23.9725 23.3269C23.5265 23.1529 23.1485 22.9799 23.1485 22.9519C23.1485 22.9369 23.2035 22.8679 23.2725 22.7889C23.3415 22.7139 23.3965 22.6409 23.3965 22.6329C23.3965 22.6249 23.3205 22.5759 23.2235 22.5289C22.6035 22.2099 22.1615 21.7629 21.9765 21.2599C21.8435 20.9079 21.9105 20.8259 22.0735 21.1419C22.2035 21.3969 22.2985 21.5119 22.4765 21.6269C22.6655 21.7489 22.7735 21.7749 22.8445 21.7079C22.9295 21.6289 22.9105 21.5349 22.7895 21.3949C22.5165 21.0789 22.4385 20.6019 22.6625 20.6019C22.7475 20.6019 22.7595 20.6179 22.9325 21.0229C23.1755 21.5899 23.4235 21.9699 23.6195 22.0699C23.7855 22.1559 24.0555 22.0879 24.0985 21.9449C24.1345 21.8299 24.0895 21.7569 23.9005 21.6349C23.6045 21.4389 23.4085 21.1239 23.3325 20.7089C23.3075 20.5749 23.3105 20.5419 23.3505 20.4799C23.4175 20.3759 23.4675 20.4139 23.6595 20.7059C24.0215 21.2569 24.6715 21.9809 24.9395 22.1309C25.4135 22.3969 25.8795 22.3859 26.1625 22.1019C26.2385 22.0239 26.2635 21.9749 26.2635 21.9049C26.2635 21.7679 26.1635 21.7099 25.9455 21.7209C25.4525 21.7439 25.4035 21.7379 25.2145 21.6479C24.8475 21.4719 24.4905 21.0499 24.2095 20.4579C23.9435 19.9049 24.0095 19.8759 24.4585 20.3399C25.0655 20.9649 25.5545 21.1969 26.0045 21.0629C26.2225 20.9989 26.4285 20.7999 26.4285 20.6529C26.4285 20.4939 26.3525 20.4459 26.1145 20.4609C26.0065 20.4689 25.8075 20.4739 25.6715 20.4739C25.4435 20.4759 25.4075 20.4689 25.2385 20.3849C25.1365 20.3339 24.9715 20.2139 24.8605 20.1099C24.5705 19.8389 24.0855 19.1629 24.0855 19.0329C24.0855 18.9019 24.2005 18.9539 24.4985 19.2189C24.7405 19.4339 25.1715 19.7309 25.3675 19.8239C25.4805 19.8739 25.5545 19.8849 25.7675 19.8879C25.9925 19.8879 26.0475 19.8789 26.1625 19.8179C26.3435 19.7249 26.4065 19.6339 26.4225 19.4419C26.4435 19.1679 26.3105 19.0999 25.9175 19.1999C25.3635 19.3399 25.0735 19.2369 24.5635 18.7139C24.3155 18.4569 24.2275 18.3189 24.2605 18.2389C24.2885 18.1609 24.3975 18.1979 24.8695 18.4379C25.3865 18.7039 25.5345 18.7569 25.7775 18.7569C25.9925 18.7569 26.1305 18.7129 26.2625 18.5949C26.4645 18.4219 26.5135 18.2249 26.3865 18.0989C26.2885 17.9949 26.0915 18.0039 25.8715 18.1159C25.7625 18.1689 25.6435 18.2099 25.5425 18.2179C25.1945 18.2509 24.6845 18.0549 24.4295 17.7949C24.2575 17.6219 24.1755 17.4599 24.2235 17.3989C24.2725 17.3429 24.3485 17.3519 24.5405 17.4329C24.9155 17.5959 25.0945 17.6399 25.3785 17.6399C25.6965 17.6399 25.8895 17.5899 26.1625 17.4329C26.3745 17.3159 26.5135 17.1639 26.5135 17.0579C26.5135 17.0159 26.4885 16.9409 26.4565 16.8909C26.3775 16.7589 26.2325 16.7649 25.9615 16.9149C25.4255 17.2109 25.0565 17.2539 24.6815 17.0609C24.5245 16.9799 24.2545 16.7189 24.1825 16.5809C24.1405 16.4939 24.1405 16.4819 24.1795 16.4429C24.2285 16.3929 24.2645 16.3979 24.6785 16.5519C24.8865 16.6269 24.9775 16.6469 25.2195 16.6559C25.5445 16.6689 25.7405 16.6349 25.9525 16.5349C26.2365 16.4029 26.5145 16.0619 26.5145 15.8499C26.5145 15.7459 26.4505 15.6119 26.3885 15.5879C26.2675 15.5399 26.2005 15.5699 26.0145 15.7689C25.7215 16.0709 25.4325 16.1859 24.9705 16.1859C24.4805 16.1829 24.2795 16.1069 24.2795 15.9189C24.2795 15.7909 24.3765 15.7129 24.5765 15.6809C25.1875 15.5809 25.8915 15.2569 26.2695 14.9019C26.4935 14.6919 26.5785 14.5439 26.5755 14.3659C26.5725 14.1609 26.4865 14.0239 26.3275 13.9799C26.1905 13.9409 26.0885 14.0049 25.9465 14.2279C25.7105 14.6059 25.4705 14.8129 25.0105 15.0479C24.7435 15.1819 24.3145 15.3289 24.2355 15.3129C24.2105 15.3079 24.1715 15.2579 24.1505 15.1929C24.0835 15.0039 24.0725 15.0009 23.7965 15.1189C23.6595 15.1799 23.3765 15.2889 23.1685 15.3639C22.7485 15.5149 22.6085 15.6079 22.5085 15.8069C22.4595 15.9049 22.4485 15.9719 22.4485 16.2709C22.4455 16.5899 22.4385 16.6269 22.3825 16.7119C22.2975 16.8319 22.2275 16.8649 22.0515 16.8649C21.7945 16.8649 21.6535 16.7119 21.6375 16.4119C21.6245 16.1679 21.6655 15.9619 21.7835 15.7159C21.9005 15.4669 22.0345 15.3169 22.2895 15.1459C22.5325 14.9839 22.7675 14.9089 23.1095 14.8759C23.4155 14.8479 23.7275 14.7289 23.8025 14.5749C23.4885 14.6689 23.1745 14.5339 23.2015 14.5179C23.2285 14.5019 23.7875 14.5039 23.8605 14.4959C24.0955 14.4709 24.1865 14.4049 24.3145 14.3089C24.4635 14.2009 24.5635 14.0999 24.5245 14.0289C24.4855 13.9549 24.3755 13.9669 24.2995 14.0539C24.2605 14.0989 24.1885 14.1789 24.1375 14.2379C24.0495 14.3389 24.0305 14.3469 23.7655 14.3889C23.5635 14.4169 23.5265 14.4169 23.4115 14.3889C23.3725 14.3609 23.3395 14.3269 23.3395 14.3139C23.3395 14.2739 23.4495 14.2099 23.5525 14.1889C23.6255 14.1749 23.7905 14.2309 23.9275 14.2709C23.8965 14.1929 23.8975 14.1859 23.8495 14.0939C23.7845 13.9629 23.6665 13.9149 23.3705 13.9059C23.1645 13.8979 23.0955 13.8829 23.0525 13.8439C23.0195 13.8129 22.9705 13.7769 22.9405 13.7599C22.9045 13.7399 22.8535 13.7299 22.7905 13.7289C22.6045 13.7229 22.3125 13.7939 22.0315 13.9189C21.8765 13.9889 21.8075 14.0049 21.6475 14.0049C21.5375 14.0049 21.3995 13.9919 21.3385 13.9739C21.1195 13.9159 21.0775 13.9139 21.0775 13.9589C21.0775 14.0109 21.2655 14.1849 21.4065 14.2569C21.4835 14.2959 21.5135 14.3269 21.4985 14.3549C21.4785 14.4139 21.2665 14.5589 21.1365 14.6029C21.0055 14.6499 21.0085 14.7029 21.1525 14.7729C21.2165 14.8039 21.2665 14.8419 21.2705 14.8599C21.2735 14.9409 20.9975 15.1229 20.8735 15.1229C20.7195 15.1229 20.7775 15.2459 20.9455 15.2819C21.0395 15.3019 21.0395 15.3119 20.9575 15.4039C20.8665 15.5109 20.7845 15.5479 20.6925 15.5279C20.5895 15.5059 20.5705 15.5449 20.6285 15.6539C20.6755 15.7369 20.6755 15.7429 20.6255 15.7789C20.6035 15.7969 20.5735 15.8079 20.5435 15.8149C20.5375 15.8149 20.5305 15.8169 20.5245 15.8179C20.5175 15.8179 20.5075 15.8189 20.5005 15.8199C20.4925 15.8199 20.4835 15.8189 20.4765 15.8179C20.4705 15.8169 20.4625 15.8159 20.4565 15.8139C20.4265 15.8079 20.3965 15.7969 20.3745 15.7789C20.3235 15.7429 20.3235 15.7369 20.3715 15.6539C20.4295 15.5449 20.4095 15.5059 20.3075 15.5279C20.2165 15.5479 20.1345 15.5109 20.0435 15.4039C19.9615 15.3119 19.9615 15.3019 20.0545 15.2819C20.2225 15.2459 20.2805 15.1229 20.1265 15.1229C20.0015 15.1229 19.7265 14.9399 19.7295 14.8599C19.7325 14.8429 19.7835 14.8039 19.8475 14.7729C19.9905 14.7029 19.9935 14.6499 19.8625 14.6029C19.7325 14.5589 19.5185 14.4139 19.5005 14.3549C19.4855 14.3269 19.5155 14.2959 19.5925 14.2569C19.7325 14.1849 19.9215 14.0109 19.9215 13.9589C19.9215 13.9139 19.8795 13.9169 19.6595 13.9739C19.5985 13.9909 19.4605 14.0049 19.3505 14.0049C19.1905 14.0049 19.1205 13.9879 18.9665 13.9189C18.6855 13.7939 18.3945 13.7229 18.2075 13.7289C18.1445 13.7299 18.0945 13.7409 18.0585 13.7599C18.0285 13.7769 17.9795 13.8129 17.9465 13.8439C17.9015 13.8829 17.8345 13.8979 17.6285 13.9059C17.3325 13.9139 17.2145 13.9629 17.1485 14.0939C17.1005 14.1859 17.1005 14.1939 17.0705 14.2709C17.2075 14.2309 17.3705 14.1749 17.4455 14.1889C17.5485 14.2109 17.6595 14.2739 17.6595 14.3139C17.6595 14.3269 17.6255 14.3619 17.5875 14.3889C17.4725 14.4169 17.4355 14.4169 17.2335 14.3889C16.9695 14.3469 16.9495 14.3379 16.8605 14.2379C16.8105 14.1779 16.7395 14.0989 16.7005 14.0539C16.6245 13.9669 16.5135 13.9539 16.4755 14.0289C16.4375 14.0999 16.5365 14.1999 16.6865 14.3089C16.8145 14.4049 16.9065 14.4709 17.1405 14.4959C17.2135 14.5049 17.7715 14.5019 17.7995 14.5179C17.8275 14.5339 17.5125 14.6699 17.1985 14.5749C17.2735 14.7289 17.5855 14.8479 17.8915 14.8759C18.2335 14.9089 18.4685 14.9839 18.7115 15.1459C18.9665 15.3159 19.1005 15.4669 19.2175 15.7159C19.3355 15.9619 19.3775 16.1679 19.3635 16.4119C19.3475 16.7109 19.2065 16.8649 18.9495 16.8649C18.7735 16.8649 18.7035 16.8319 18.6185 16.7119C18.5635 16.6279 18.5555 16.5899 18.5525 16.2709C18.5525 15.9719 18.5425 15.9049 18.4935 15.8069C18.3935 15.6089 18.2525 15.5159 17.8335 15.3639C17.6235 15.2889 17.3425 15.1799 17.2055 15.1189C16.9295 15.0009 16.9185 15.0039 16.8515 15.1929C16.8295 15.2569 16.7915 15.3079 16.7665 15.3129C16.6855 15.3289 16.2585 15.1819 15.9915 15.0479C15.5315 14.8129 15.2915 14.6059 15.0535 14.2279C14.9125 14.0049 14.8115 13.9409 14.6745 13.9799C14.5165 14.0239 14.4285 14.1619 14.4265 14.3659C14.4235 14.5439 14.5085 14.6919 14.7325 14.9019C15.1105 15.2569 15.8155 15.5809 16.4245 15.6809C16.6265 15.7119 16.7235 15.7909 16.7235 15.9189C16.7235 16.1069 16.5225 16.1819 16.0305 16.1859C15.5695 16.1859 15.2805 16.0709 14.9885 15.7689C14.8005 15.5699 14.7345 15.5399 14.6135 15.5879C14.5515 15.6129 14.4875 15.7459 14.4875 15.8499C14.4875 16.0619 14.7655 16.4029 15.0495 16.5349C15.2615 16.6349 15.4575 16.6689 15.7825 16.6559C16.0245 16.6469 16.1155 16.6269 16.3215 16.5519C16.7365 16.3979 16.7725 16.3929 16.8215 16.4429C16.8605 16.4819 16.8605 16.4939 16.8185 16.5809C16.7465 16.7199 16.4765 16.9799 16.3195 17.0609C15.9435 17.2539 15.5755 17.2109 15.0395 16.9149C14.7675 16.7649 14.6225 16.7589 14.5445 16.8909C14.5135 16.9409 14.4875 17.0159 14.4875 17.0579C14.4875 17.1639 14.6265 17.3149 14.8385 17.4329C15.1115 17.5899 15.3045 17.6399 15.6225 17.6399C15.9065 17.6399 16.0855 17.5959 16.4605 17.4329C16.6505 17.3519 16.7275 17.3429 16.7775 17.3989C16.8245 17.4609 16.7425 17.6219 16.5705 17.7949C16.3155 18.0549 15.8045 18.2519 15.4575 18.2179C15.3575 18.2099 15.2365 18.1699 15.1285 18.1159C14.9095 18.0039 14.7125 17.9949 14.6135 18.0989C14.4865 18.2239 14.5355 18.4209 14.7375 18.5949C14.8705 18.7119 15.0075 18.7569 15.2225 18.7569C15.4645 18.7569 15.6135 18.7049 16.1305 18.4379C16.6005 18.1979 16.7115 18.1609 16.7395 18.2389C16.7725 18.3189 16.6845 18.4569 16.4365 18.7139C15.9255 19.2369 15.6355 19.3399 15.0815 19.1999C14.6895 19.0999 14.5545 19.1679 14.5765 19.4419C14.5925 19.6349 14.6555 19.7259 14.8355 19.8179C14.9525 19.8799 15.0065 19.8879 15.2325 19.8879C15.4445 19.8849 15.5195 19.8729 15.6325 19.8239C15.8275 19.7309 16.2595 19.4329 16.5015 19.2189C16.8005 18.9539 16.9145 18.9019 16.9145 19.0329C16.9145 19.1619 16.4295 19.8379 16.1395 20.1099C16.0295 20.2129 15.8635 20.3339 15.7615 20.3849C15.5925 20.4689 15.5575 20.4759 15.3285 20.4739C15.1925 20.4739 14.9925 20.4689 14.8845 20.4609C14.6475 20.4459 14.5705 20.4929 14.5705 20.6529C14.5705 20.8009 14.7775 20.9989 14.9935 21.0629C15.4445 21.1969 15.9335 20.9649 16.5405 20.3399C16.9905 19.8759 17.0555 19.9049 16.7895 20.4579C16.5095 21.0509 16.1525 21.4719 15.7845 21.6479C15.5945 21.7379 15.5455 21.7439 15.0515 21.7209C14.8345 21.7099 14.7345 21.7679 14.7345 21.9049C14.7345 21.9749 14.7595 22.0229 14.8355 22.1019C15.1185 22.3859 15.5835 22.3969 16.0565 22.1309C16.3255 21.9809 16.9765 21.2569 17.3375 20.7059C17.5305 20.4139 17.5795 20.3759 17.6455 20.4799C17.6875 20.5419 17.6905 20.5749 17.6645 20.7089C17.5865 21.1239 17.3935 21.4379 17.0975 21.6349C16.9075 21.7579 16.8635 21.8299 16.8995 21.9449C16.9425 22.0879 17.2135 22.1559 17.3785 22.0699C17.5745 21.9699 17.8215 21.5899 18.0655 21.0229C18.2385 20.6169 18.2505 20.6019 18.3355 20.6019C18.5595 20.6019 18.4815 21.0789 18.2085 21.3949C18.0875 21.5349 18.0665 21.6289 18.1535 21.7079C18.2255 21.7759 18.3325 21.7499 18.5225 21.6269C18.7005 21.5119 18.7955 21.3969 18.9255 21.1419C19.0885 20.8269 19.1555 20.9079 19.0225 21.2599C18.8375 21.7629 18.3955 22.2099 17.7765 22.5289C17.6795 22.5769 17.6035 22.6249 17.6035 22.6329C17.6035 22.6409 17.6585 22.7139 17.7275 22.7889C17.7955 22.8669 17.8515 22.9369 17.8515 22.9519C17.8515 22.9789 17.4735 23.1529 17.0275 23.3269L16.6255 23.4829L16.4205 23.3509C16.1355 23.1749 15.9785 23.0439 15.9465 22.9539C15.8815 22.7809 15.6675 22.6659 15.5105 22.7229C15.4555 22.7419 15.3895 22.7399 15.2855 22.7119C15.0415 22.6479 14.8935 22.8439 14.8565 22.9449C14.9405 22.9579 14.8995 22.9549 14.9595 22.9529C15.2075 22.9419 15.2325 22.9499 15.3405 23.0609C15.4535 23.1779 15.6045 23.2379 15.7255 23.2149C15.7805 23.2039 15.8525 23.2349 16.0245 23.3489C16.1515 23.4299 16.2535 23.5049 16.2535 23.5159C16.2535 23.5439 16.1235 23.5439 15.7215 23.5109C15.4345 23.4879 15.3875 23.4779 15.3125 23.4159C15.1985 23.3179 15.0685 23.2979 14.9445 23.3569C14.8895 23.3849 14.7905 23.4079 14.7215 23.4099C14.6475 23.4129 14.5695 23.4369 14.5235 23.4699C14.4425 23.5319 14.3885 23.5629 14.3535 23.6859C14.5025 23.6839 14.4535 23.6839 14.5605 23.6699C14.7455 23.6419 14.7655 23.6439 14.8235 23.6979C14.8595 23.7279 14.9145 23.7709 14.9475 23.7879C15.0295 23.8299 15.2205 23.8259 15.3125 23.7759C15.3685 23.7479 15.5005 23.7379 15.8005 23.7359C16.0275 23.7329 16.2245 23.7329 16.2375 23.7359C16.2535 23.7359 16.1635 23.7969 16.0405 23.8719C15.8285 24.0039 15.8075 24.0079 15.6255 24.0049C15.3835 24.0019 15.2465 24.0749 15.2075 24.2309C15.1935 24.2869 15.1685 24.3889 15.1525 24.4499C15.1135 24.5979 15.0985 24.6209 15.2065 24.8769C15.3235 24.5959 15.2835 24.6819 15.3195 24.6289C15.3775 24.5419 15.4005 24.5279 15.5375 24.5169C15.7285 24.4999 15.8165 24.4419 15.8885 24.2879C15.9365 24.1819 15.9875 24.1369 16.2415 23.9779C16.5895 23.7599 16.5665 23.7599 16.9595 23.9439C17.1525 24.0369 17.2245 24.0829 17.2565 24.1479C17.3145 24.2649 17.4385 24.3109 17.5755 24.2679C17.7055 24.2299 17.7625 24.2499 17.8525 24.3769C17.8875 24.4309 17.8905 24.4209 17.9465 24.4709C17.9615 24.3929 17.9625 24.3819 17.9625 24.3029C17.9625 24.1889 17.9485 24.1659 17.8025 24.0149C17.6305 23.8419 17.5265 23.7939 17.4025 23.8419C17.3455 23.8649 17.2965 23.8569 17.1485 23.7869C16.9825 23.7119 16.9185 23.6499 17.0055 23.6499C17.0215 23.6499 17.2885 23.5489 17.5955 23.4289L18.1525 23.2109L18.2345 23.2779C18.3865 23.3979 18.6275 23.5099 18.7325 23.5099C18.8295 23.5099 18.8395 23.5019 18.8705 23.4019C18.9175 23.2419 19.2395 22.6119 19.4125 22.3449C19.7015 21.8909 19.8615 21.7739 19.9915 21.9189C20.0325 21.9669 20.0445 22.0209 20.0415 22.1939C20.0365 22.7049 19.7485 23.3729 19.3715 23.7499C19.1725 23.9509 18.9545 24.0609 18.6905 24.0999C18.4855 24.1279 18.3485 24.1809 18.3485 24.2329C18.3485 24.2889 18.4835 24.4519 18.5695 24.4959C18.6445 24.5349 18.7155 24.5429 18.8725 24.5379C19.0635 24.5299 19.0995 24.5189 19.2805 24.4069C19.4605 24.2979 19.4875 24.2889 19.5235 24.3249C19.5595 24.3609 19.5625 24.3869 19.5345 24.4879C19.4765 24.7069 19.3225 24.8059 18.9645 24.8509C18.5985 24.8979 18.4735 25.0109 18.5955 25.1839C18.6745 25.2959 18.8125 25.3539 19.0035 25.3539C19.2185 25.3539 19.4035 25.2579 19.6485 25.0229C19.7545 24.9259 19.8505 24.8529 19.8665 24.8629C19.9055 24.8859 19.9025 25.1099 19.8625 25.2459C19.8235 25.3769 19.6505 25.5849 19.5445 25.6259C19.5035 25.6419 19.3975 25.6769 19.3115 25.6979C19.0115 25.7819 18.9685 25.9009 19.1805 26.0429C19.3195 26.1359 19.5475 26.1429 19.7165 26.0619C19.8275 26.0119 20.1305 25.7239 20.1875 25.6199C20.2385 25.5269 20.2905 25.5959 20.2745 25.7329C20.2625 25.8469 20.1965 25.9759 20.0475 26.1889C19.9265 26.3569 19.9685 26.5829 20.1745 26.8909C20.3115 27.0959 20.4415 27.2429 20.5015 27.2679C20.5605 27.2419 20.6905 27.0959 20.8285 26.8909C21.0345 26.5829 21.0765 26.3569 20.9555 26.1889C20.8055 25.9759 20.7405 25.8479 20.7285 25.7329C20.7115 25.5959 20.7645 25.5279 20.8135 25.6199C20.8715 25.7229 21.1745 26.0119 21.2855 26.0619C21.4545 26.1429 21.6825 26.1359 21.8195 26.0429C22.0325 25.8999 21.9895 25.7819 21.6885 25.6979C21.6035 25.6769 21.4975 25.6419 21.4555 25.6259C21.3515 25.5849 21.1775 25.3769 21.1385 25.2459C21.0975 25.1099 21.0955 24.8859 21.1345 24.8629C21.1515 24.8529 21.2465 24.9249 21.3525 25.0229C21.5975 25.2579 21.7825 25.3539 21.9975 25.3539C22.1885 25.3539 22.3255 25.2959 22.4045 25.1839C22.5275 25.0109 22.4015 24.8979 22.0355 24.8509C21.6775 24.8059 21.5235 24.7069 21.4655 24.4879C21.4365 24.3869 21.4395 24.3619 21.4755 24.3249C21.5115 24.2879 21.5385 24.2979 21.7175 24.4069C21.9005 24.5189 21.9355 24.5299 22.1255 24.5379C22.2835 24.5439 22.3555 24.5359 22.4305 24.4959C22.5155 24.4519 22.6515 24.2879 22.6515 24.2329C22.6515 24.1809 22.5145 24.1279 22.3095 24.0999C22.0455 24.0609 21.8275 23.9509 21.6295 23.7499C21.2515 23.3729 20.9635 22.7049 20.9585 22.1939C20.9555 22.0209 20.9655 21.9669 21.0075 21.9189C21.1375 21.7739 21.2975 21.8919 21.5865 22.3449C21.7595 22.6119 22.0825 23.2419 22.1285 23.4019C22.1595 23.5029 22.1705 23.5099 22.2675 23.5099C22.3715 23.5099 22.6125 23.3979 22.7645 23.2779L22.8465 23.2109L23.4035 23.4289C23.7095 23.5499 23.9765 23.6499 23.9935 23.6499C24.0795 23.6499 24.0155 23.7119 23.8505 23.7869C23.7015 23.8569 23.6535 23.8649 23.5965 23.8419C23.4725 23.7939 23.3685 23.8419 23.1965 24.0149C23.0505 24.1659 23.0365 24.1889 23.0365 24.3029C23.0365 24.3819 23.0385 24.3919 23.0535 24.4709C23.1085 24.4199 23.1105 24.4309 23.1475 24.3769C23.2355 24.2499 23.2935 24.2299 23.4235 24.2679C23.5615 24.3099 23.6855 24.2649 23.7435 24.1479C23.7765 24.0839 23.8475 24.0369 24.0405 23.9439C24.4325 23.7599 24.4115 23.7599 24.7585 23.9779C25.0125 24.1369 25.0625 24.1819 25.1105 24.2879C25.1825 24.4419 25.2705 24.5009 25.4615 24.5169C25.5995 24.5269 25.6215 24.5409 25.6795 24.6289C25.7155 24.6819 25.6755 24.5959 25.7925 24.8769C25.8995 24.6209 25.8855 24.5979 25.8465 24.4499C25.8295 24.3879 25.8045 24.2869 25.7915 24.2309C25.7525 24.0749 25.6145 24.0019 25.3725 24.0049C25.1905 24.0079 25.1695 24.0049 24.9575 23.8719C24.8335 23.7969 24.7435 23.7359 24.7605 23.7359C24.7735 23.7329 24.9705 23.7329 25.1975 23.7359C25.4975 23.7379 25.6275 23.7479 25.6855 23.7759C25.7765 23.8269 25.9675 23.8309 26.0495 23.7879C26.0825 23.7709 26.1375 23.7279 26.1735 23.6979C26.2325 23.6439 26.2515 23.6419 26.4365 23.6699C26.5445 23.6839 26.4945 23.6839 26.6445 23.6859C26.6085 23.5629 26.5555 23.5319 26.4745 23.4699ZM22.5045 14.2869C22.5635 14.2489 22.4545 14.1349 22.5755 14.1409C22.6025 14.1419 22.6445 14.1489 22.7005 14.1659C22.7885 14.1819 22.8335 14.2809 22.7785 14.3369C22.7235 14.3959 22.4185 14.4179 22.3605 14.3699C22.2575 14.0899 22.4335 14.3349 22.5045 14.2869ZM18.6425 14.3699C18.5845 14.4179 18.2795 14.3959 18.2245 14.3369C18.1685 14.2809 18.2135 14.1819 18.3015 14.1659C18.3585 14.1489 18.4005 14.1429 18.4275 14.1409C18.5485 14.1359 18.4375 14.2489 18.4965 14.2869C18.5675 14.3349 18.7455 14.0899 18.6425 14.3699Z" fill="black"/>
</svg>
