<svg width="41" height="41" viewBox="0 0 41 41" fill="none" xmlns="http://www.w3.org/2000/svg">
<path d="M34.5 8.5H6.5C4.29086 8.5 2.5 10.2909 2.5 12.5V28.5C2.5 30.7091 4.29086 32.5 6.5 32.5H34.5C36.7091 32.5 38.5 30.7091 38.5 28.5V12.5C38.5 10.2909 36.7091 8.5 34.5 8.5Z" fill="#CF002E"/>
<path d="M38.5 28.5036V20.4976H2.5V28.5036C2.5 30.7106 4.289 32.4996 6.495 32.4996H34.504C36.711 32.4996 38.5 30.7106 38.5 28.5036Z" fill="black"/>
<path d="M18.7867 20.1226L19.9737 19.2816L21.1587 20.1226L20.7057 18.7606L21.8927 17.9186H20.4267L19.9737 16.5576L19.5197 17.9186H18.0527L19.2397 18.7606L18.7867 20.1226Z" fill="#F4D400"/>
<path d="M26.2946 26.8409C26.1216 26.5659 25.9076 26.3629 25.6276 26.1199C25.3466 25.8779 24.9606 25.6099 24.6746 25.3389L24.1286 25.9629C24.1056 25.9899 24.1136 26.0499 24.1426 26.0549C24.7546 26.1569 24.9466 26.3699 25.1906 26.5719C25.5186 26.8959 25.6546 27.2889 25.8676 27.4339C26.2646 27.7029 26.5496 27.2449 26.2946 26.8409ZM24.8616 25.8489C24.8216 25.8489 24.7876 25.8159 24.7876 25.7759C24.7876 25.7359 24.8216 25.7029 24.8616 25.7029C24.9036 25.7029 24.9376 25.7359 24.9376 25.7759C24.9376 25.8159 24.9036 25.8489 24.8616 25.8489ZM25.4166 26.3209C25.3746 26.3209 25.3426 26.2889 25.3426 26.2479C25.3426 26.2079 25.3746 26.1749 25.4166 26.1749C25.4586 26.1749 25.4916 26.2079 25.4916 26.2479C25.4916 26.2889 25.4576 26.3209 25.4166 26.3209ZM25.9046 26.8049C25.8626 26.8049 25.8286 26.7719 25.8286 26.7319C25.8286 26.6909 25.8626 26.6589 25.9046 26.6589C25.9456 26.6589 25.9786 26.6909 25.9786 26.7319C25.9786 26.7719 25.9456 26.8049 25.9046 26.8049Z" fill="#F4D400"/>
<path d="M21.3962 24.5386C20.9502 24.6886 20.4702 24.7706 19.9722 24.7706C18.9182 24.7706 17.9672 24.3916 17.2122 23.7866L16.5742 24.5476C16.8432 24.7626 17.1342 24.9566 17.4432 25.1206L17.2242 25.5206C17.5612 25.6966 17.9152 25.8396 18.2802 25.9476L18.4112 25.5236C18.7432 25.6256 19.0882 25.6956 19.4452 25.7316L19.4022 26.1656C19.7822 26.2016 20.1642 26.2016 20.5442 26.1656L20.5012 25.7316C20.8582 25.6986 21.2042 25.6306 21.5372 25.5316L21.6672 25.9476C21.8482 25.8936 22.0262 25.8326 22.2002 25.7626L21.9632 24.8666L21.3982 24.5406L21.3962 24.5386Z" fill="#F4D400"/>
<path d="M24.3457 20.5018C24.3457 21.8068 23.7437 22.9768 22.7977 23.7608L24.0267 24.5918C24.1867 24.4408 24.3387 24.2798 24.4807 24.1108L24.1347 23.8338C24.3577 23.5688 24.5537 23.2818 24.7207 22.9768L25.1147 23.1828C25.2957 22.8538 25.4427 22.5088 25.5537 22.1518L25.1257 22.0248C25.2267 21.6998 25.2957 21.3618 25.3297 21.0148L25.7757 21.0568C25.8127 20.6858 25.8127 20.3118 25.7757 19.9408L25.3297 19.9838C25.2937 19.6358 25.2237 19.2978 25.1227 18.9738L25.5537 18.8468C25.4427 18.4898 25.2957 18.1448 25.1147 17.8158L24.7147 18.0248C24.5457 17.7218 24.3477 17.4368 24.1237 17.1728L24.4807 16.8868C24.2377 16.5998 23.9677 16.3348 23.6707 16.0978L23.3737 16.4518C23.1027 16.2368 22.8097 16.0468 22.4977 15.8858L22.7197 15.4778C22.3827 15.3028 22.0307 15.1598 21.6647 15.0508L21.5277 15.4958C21.2077 15.4018 20.8757 15.3358 20.5327 15.2998L20.4277 16.2738C22.6257 16.4998 24.3467 18.2958 24.3467 20.5008" fill="#F4D400"/>
<path d="M22.6415 24.3329C21.4865 23.5379 20.2925 22.7169 19.2895 21.7939C19.2805 21.7859 19.2805 21.7709 19.2875 21.7619C19.2965 21.7529 19.3125 21.7529 19.3215 21.7609C20.3215 22.6819 21.5145 23.5019 22.6695 24.2949C23.2385 24.6869 23.8285 25.0919 24.3855 25.5029L24.5615 25.3019C22.6385 23.9619 18.0915 20.8789 18.0355 19.7559C17.1375 21.4669 18.2755 22.4879 19.0095 22.8959C20.8745 23.9309 22.1125 24.6139 24.0585 25.8779L24.3545 25.5379C23.7985 25.1279 23.2105 24.7229 22.6415 24.3329Z" fill="#F4D400"/>
</svg>
