<svg width="41" height="41" viewBox="0 0 41 41" fill="none" xmlns="http://www.w3.org/2000/svg">
<path d="M34.5 8.5H6.5C4.29086 8.5 2.5 10.2909 2.5 12.5V28.5C2.5 30.7091 4.29086 32.5 6.5 32.5H34.5C36.7091 32.5 38.5 30.7091 38.5 28.5V12.5C38.5 10.2909 36.7091 8.5 34.5 8.5Z" fill="#4979BF"/>
<path d="M12.2558 20.0788C12.1378 19.8388 12.0788 19.5995 12.0788 19.3608C11.9898 19.3608 11.9728 19.3778 11.9218 19.3638C11.8708 19.3498 11.8518 19.6948 11.6848 19.6268C11.6578 19.5928 11.8048 19.3438 11.6458 19.2398C11.5938 19.2058 11.6578 19.0018 11.6358 18.9118C11.6358 18.9118 11.4338 19.0188 11.2818 18.6428C11.2068 18.5438 11.1038 18.7328 11.1038 18.7328C11.1038 18.7328 11.1488 18.8478 11.0678 18.8758C10.9548 18.7918 10.8718 18.8358 10.7278 18.7198C10.5838 18.6038 10.7588 18.4718 10.4838 18.3738C10.6618 17.9258 10.6618 18.0148 11.1038 17.8358C10.9264 17.7165 10.7791 17.5672 10.6618 17.3878C10.3958 17.2978 10.3078 17.2078 10.0418 17.0278C9.68677 16.5788 9.50977 15.6818 9.50977 15.0538C9.73377 14.8428 10.0418 15.7718 10.4828 16.0418L11.1028 16.3118C11.4568 16.4908 11.5468 16.6698 11.8118 16.8488L12.6078 17.1188C12.9628 17.3888 13.1398 17.7468 13.4048 17.8368C13.6938 17.8368 13.7488 17.6698 13.8418 17.6578C14.3618 17.6308 14.6268 17.5628 14.7318 17.4048C14.8358 17.2788 15.0888 17.4778 15.7968 17.2088L15.7088 16.8498C15.7088 16.8498 15.8968 16.6938 16.1508 16.7598C16.1448 16.5968 16.1288 16.1598 16.3798 15.9608C16.2268 15.7998 16.3288 15.6828 16.3288 15.6828C16.3288 15.6828 16.4688 15.5458 16.4868 15.4718C16.4118 15.0768 16.5518 15.0708 16.5828 14.9538C16.6138 14.8378 16.4618 14.8778 16.5048 14.7168C16.5488 14.5568 16.8038 14.5188 16.8378 14.3858C16.8718 14.2538 16.7648 14.1878 16.7708 14.1558C16.8278 14.0298 16.7798 13.7318 16.7708 13.6178C17.2478 13.4888 17.4018 13.0958 17.5688 13.2588C17.6568 12.7198 17.7468 12.5408 18.2778 12.5408C18.3528 12.3758 18.0838 12.2348 18.1888 12.1808C18.3658 12.1578 18.5018 12.1698 18.7098 12.4418C18.7758 12.5278 18.7878 12.3158 18.8528 12.2928C18.9208 12.2698 19.0788 12.2698 19.1018 12.1638C19.1268 12.0548 19.1638 11.9118 19.2518 11.7318C19.3268 11.5858 19.3848 11.7878 19.4498 12.0738C19.8248 12.0878 20.6678 12.1718 21.0218 12.2698C21.2878 12.3398 21.4638 12.1998 21.7188 12.1718C21.9068 12.3628 22.0848 12.2198 22.1828 12.6258C22.3228 12.8448 22.5548 12.6458 22.6038 12.7098C22.8988 13.5378 23.9178 12.9798 23.9948 12.9938C24.1248 12.9938 24.2848 13.3638 24.3858 13.3538C24.5518 13.3258 24.5058 13.2108 24.6498 13.2578C24.6108 13.5688 24.9348 13.9288 24.9348 14.1598C24.9348 14.1598 25.0138 14.1998 25.0868 14.1308C25.1598 14.0618 25.2268 13.8838 25.2918 13.8888C25.4468 13.9108 25.5098 13.9308 25.6888 13.9618C26.1688 14.1278 26.4128 14.1658 26.5998 14.2508C26.6858 14.4118 26.7698 14.4938 26.9458 14.4648C27.0908 14.5628 26.9848 14.6928 27.0718 14.7018C27.2478 14.6118 27.3058 14.5138 27.4838 14.6038C27.6598 14.6938 27.8378 14.8728 27.9258 15.0518C27.9258 15.1418 27.8378 15.4998 27.9258 16.0398C27.9708 16.2188 27.9918 16.3608 28.1828 16.6688C28.1318 16.9848 28.4218 17.5168 28.4218 17.6528C28.4218 17.8318 28.2818 17.9248 28.1918 18.1038C28.5458 18.3728 28.1918 18.8208 28.0158 19.0908C29.3428 19.3608 28.7238 19.8988 29.7868 19.6288C29.5208 20.2568 29.6148 20.2068 29.8808 20.8348C29.3488 21.1948 29.8688 21.3038 29.5148 21.7518C29.4918 21.7798 29.7248 22.1428 30.0518 22.1428C29.9628 22.8598 29.6968 22.5908 29.7868 23.6678C29.0888 23.6548 29.3708 24.4738 28.9008 24.3868C28.9278 24.8998 29.1678 24.9438 29.0768 25.4638C28.8408 25.5232 28.6634 25.6425 28.5448 25.8218L28.2808 25.7328C28.1918 26.1808 28.0148 26.2698 28.2808 26.7198C28.2808 26.7198 27.9378 26.7308 27.8368 26.7198C27.8278 26.8738 27.9888 26.9158 28.0148 27.0798C27.9998 27.1438 27.5098 27.4268 27.1298 27.4378C27.0298 27.6588 27.3958 27.8948 27.3728 28.0068C26.9578 28.0888 26.7738 28.6038 26.7738 28.6038C26.7738 28.6038 26.9878 28.6908 26.9518 28.7838C26.8388 28.6988 26.7738 28.6938 26.5978 28.6938C26.5098 28.7168 26.2928 28.6878 26.0858 29.0418C25.8588 29.1168 25.7528 29.0898 25.5798 29.3218C25.5038 29.1018 25.3948 29.3228 25.2608 29.4098C25.1258 29.4948 24.9448 29.7058 24.9218 29.6968C24.9268 29.6368 25.0038 29.4108 25.0038 29.4108L24.5608 29.5018C24.5608 29.5018 24.5418 29.5038 24.5058 29.5068C24.4718 29.5108 24.4808 29.2448 24.3968 29.2548C24.3138 29.2638 24.0728 29.5888 23.9908 29.5988C23.9098 29.6088 23.8828 29.4958 23.8128 29.5048C23.7428 29.5148 23.6048 29.8468 23.5558 29.8558C23.5048 29.8648 23.3078 29.6538 23.1378 29.6828C22.2678 29.9948 22.1288 29.0678 21.9928 29.5908C21.8108 29.4918 21.8418 29.5498 21.6568 29.5978C21.5388 29.6298 21.5268 29.4408 21.4218 29.4418C21.2118 29.4478 21.2218 29.6508 21.1068 29.5908C21.0128 29.1688 20.4448 29.2458 20.3898 29.0648C20.3448 28.8788 20.6358 28.8788 20.7308 28.7528C20.8018 28.5698 20.6558 28.5008 20.9468 28.3238C21.3278 28.0628 21.1078 27.9638 21.1758 27.7678C21.2948 27.4848 21.2948 27.4168 21.1968 27.1668C21.1968 27.1668 20.8998 26.3588 20.8418 26.3588C20.6658 26.3078 20.6658 26.6558 20.4048 26.7528C19.8748 26.9318 18.9368 26.2968 18.7728 26.2968C18.6228 26.2998 17.9318 26.4638 17.9568 26.1138C17.8538 26.4538 17.4728 26.1938 17.4488 26.1938C17.0948 26.1938 17.2308 26.4718 16.9938 26.4608C16.8848 26.4248 15.7948 26.3598 15.7948 26.3598V26.5398L15.0868 26.1808L14.4668 26.0008C13.9358 25.8208 14.2008 25.3728 13.3158 25.6418V25.1038H12.8728C13.0498 24.0278 12.8728 24.5658 12.7838 23.5778L12.4298 23.6678C12.0758 23.1828 12.9228 23.2748 12.1648 22.9498C12.1648 22.9498 12.1778 22.4148 11.9868 22.5908C11.9478 22.6128 12.0758 22.8598 12.0758 22.8598C11.3668 22.7708 11.1908 22.5908 11.1908 21.8728C11.1908 21.8728 11.7738 21.9568 11.7208 21.8728C11.6388 21.7388 11.5308 20.8618 11.5488 20.8048C11.5418 20.6868 12.0918 20.3898 11.9848 20.1068C12.0538 20.0808 12.2528 20.0788 12.2528 20.0788H12.2558Z" fill="#E3E7EA"/>
<path d="M30.267 22.8972C30.252 22.8972 30.238 22.8892 30.23 22.8772C30.193 22.8212 30.189 22.7452 30.22 22.6752C30.228 22.6572 30.245 22.6442 30.264 22.6482C30.283 22.6502 30.298 22.6632 30.303 22.6812C30.33 22.7502 30.352 22.8022 30.303 22.8762C30.295 22.8882 30.281 22.8962 30.266 22.8962L30.267 22.8972Z" fill="#E3E7EA"/>
<path d="M9.36334 16.237C9.36334 16.237 9.36034 16.237 9.35834 16.237C9.33534 16.235 9.31534 16.218 9.30934 16.196C9.29334 16.135 9.30934 16.096 9.32634 16.074C9.35234 16.04 9.39634 16.022 9.45134 16.022C9.47034 16.024 9.49734 16.037 9.50634 16.054C9.51434 16.071 9.52534 16.092 9.51534 16.108C9.46934 16.139 9.44034 16.151 9.41434 16.206C9.40434 16.226 9.38534 16.238 9.36434 16.238L9.36334 16.237Z" fill="#E3E7EA"/>
<path d="M9.36379 15.9622C9.36379 15.9622 9.36079 15.9622 9.35879 15.9622C9.33579 15.9602 9.31679 15.9432 9.31079 15.9202C9.29679 15.8642 9.30079 15.8222 9.32479 15.7902C9.35979 15.7422 9.42179 15.7412 9.47179 15.7412C9.48979 15.7412 9.51879 15.7492 9.52879 15.7632C9.53979 15.7772 9.55579 15.7952 9.55079 15.8122C9.54579 15.8292 9.52079 15.8492 9.50479 15.8552C9.48279 15.8632 9.43779 15.8792 9.41379 15.9312C9.40379 15.9512 9.38479 15.9632 9.36379 15.9632V15.9622Z" fill="#E3E7EA"/>
<path d="M10.0953 17.5711C10.0743 17.5711 10.0553 17.5591 10.0453 17.5401C10.0153 17.4781 9.99031 17.4601 9.98131 17.4541C9.97131 17.4371 9.96131 17.4061 9.97031 17.3891C9.97931 17.3721 9.98531 17.3501 10.0043 17.3481C10.0423 17.3481 10.0933 17.3531 10.1293 17.3991C10.1463 17.4221 10.1643 17.4641 10.1483 17.5291C10.1423 17.5521 10.1233 17.5681 10.1003 17.5711C10.0983 17.5711 10.0963 17.5711 10.0943 17.5711H10.0953Z" fill="#E3E7EA"/>
</svg>
