<svg width="41" height="41" viewBox="0 0 41 41" fill="none" xmlns="http://www.w3.org/2000/svg">
<path d="M34.5 8.5H6.5C4.291 8.5 2.5 10.291 2.5 12.5V16.499H38.5V12.5C38.5 10.291 36.709 8.5 34.5 8.5Z" fill="#72A4DA"/>
<path d="M2.5 28.5C2.5 30.709 4.291 32.5 6.5 32.5H34.5C36.709 32.5 38.5 30.709 38.5 28.5V24.5H2.5V28.5Z" fill="#72A4DA"/>
<path d="M2.5 24.5H38.5V16.5H2.5V24.5ZM17.654 19.323L19.218 19.646L18.321 18.324L19.644 19.221L19.321 17.656L20.199 18.991L20.5 17.421L20.801 18.99L21.68 17.655L21.357 19.22L22.679 18.322L21.781 19.645L23.346 19.322L22.011 20.2L23.581 20.501L22.011 20.802L23.346 21.68L21.781 21.357L22.679 22.679L21.357 21.782L21.68 23.347L20.801 22.012L20.5 23.582L20.199 22.012L19.321 23.347L19.644 21.782L18.321 22.679L19.219 21.357L17.654 21.68L18.989 20.802L17.419 20.501L18.988 20.2L17.654 19.323Z" fill="#E3E7EA"/>
<path d="M21.6035 19.8387C21.6695 19.9477 21.7145 20.0627 21.7465 20.1897L21.9265 20.0717L22.5895 19.6357L21.8115 19.7957L21.6035 19.8387Z" fill="#FCBF49"/>
<path d="M19.8378 19.3967C19.9468 19.3307 20.0618 19.2847 20.1888 19.2527L20.0708 19.0727L19.6348 18.4097L19.7948 19.1867L19.8378 19.3967Z" fill="#FCBF49"/>
<path d="M21.2055 19.1876L21.3665 18.4106L20.9305 19.0736L20.8125 19.2526C20.9395 19.2846 21.0545 19.3296 21.1635 19.3956L21.2055 19.1876Z" fill="#FCBF49"/>
<path d="M19.1022 19.0389L17.7734 19.9248L17.774 19.9256L19.1028 19.0398L19.1022 19.0389Z" fill="#FCBF49"/>
<path d="M21.6785 17.6538V17.6548L21.3555 19.2188L21.6785 17.6538Z" fill="#FCBF49"/>
<path d="M19.7716 18.6382L18.1953 18.9009L18.1955 18.9019L19.7717 18.6392L19.7716 18.6382Z" fill="#FCBF49"/>
<path d="M19.2283 20.69C19.2183 20.625 19.1903 20.568 19.1903 20.5C19.1903 20.432 19.2193 20.375 19.2283 20.311L19.0173 20.351L18.2383 20.5L19.0163 20.649L19.2283 20.69Z" fill="#FCBF49"/>
<path d="M21.2656 19.4669C21.3696 19.5439 21.4566 19.6319 21.5336 19.7349L21.6536 19.5579L22.0986 18.9009L21.4416 19.3459L21.2656 19.4669Z" fill="#FCBF49"/>
<path d="M21.9825 20.649L22.7615 20.5L21.9825 20.351L21.7715 20.311C21.7815 20.375 21.8095 20.433 21.8095 20.5C21.8095 20.567 21.7805 20.625 21.7715 20.689L21.9825 20.649Z" fill="#FCBF49"/>
<path d="M20.6895 19.2288L20.6495 19.0178L20.5005 18.2388L20.3505 19.0188L20.3105 19.2288C20.3755 19.2188 20.4335 19.1908 20.5005 19.1908C20.5675 19.1908 20.6245 19.2188 20.6895 19.2288Z" fill="#FCBF49"/>
<path d="M21.5326 21.2656C21.4556 21.3686 21.3686 21.4556 21.2656 21.5326L21.4416 21.6526L22.0976 22.0976L21.6526 21.4416L21.5326 21.2656Z" fill="#FCBF49"/>
<path d="M19.7344 19.4669L19.5574 19.3469L18.9004 18.9009L19.3464 19.5579L19.4664 19.7349C19.5434 19.6309 19.6304 19.5439 19.7344 19.4669Z" fill="#FCBF49"/>
<path d="M18.9889 20.1987L17.4199 20.4997L18.9889 20.1997V20.1987Z" fill="#FCBF49"/>
<path d="M18.4102 19.6338L19.0732 20.0698L19.2532 20.1878C19.2852 20.0608 19.3302 19.9458 19.3962 19.8368L19.1872 19.7938L18.4102 19.6338Z" fill="#FCBF49"/>
<path d="M19.3962 21.1606C19.3302 21.0516 19.2852 20.9366 19.2532 20.8096L19.0732 20.9286L18.4102 21.3646L19.1872 21.2036L19.3962 21.1606Z" fill="#FCBF49"/>
<path d="M21.7465 20.811C21.7145 20.938 21.6695 21.053 21.6035 21.162L21.8115 21.205L22.5895 21.366L21.9265 20.93L21.7475 20.812L21.7465 20.811Z" fill="#FCBF49"/>
<path d="M19.7948 21.812L19.6348 22.59L20.0708 21.927L20.1888 21.747C20.0618 21.715 19.9468 21.67 19.8378 21.604L19.7948 21.812Z" fill="#FCBF49"/>
<path d="M21.1605 21.604C21.0515 21.67 20.9365 21.715 20.8105 21.747L20.9285 21.927L21.3645 22.59L21.2035 21.812L21.1605 21.604Z" fill="#FCBF49"/>
<path d="M20.3106 21.771L20.3506 21.982L20.4996 22.761L20.6486 21.982L20.6886 21.771C20.6236 21.781 20.5666 21.809 20.4986 21.809C20.4306 21.809 20.3736 21.781 20.3086 21.771H20.3106Z" fill="#FCBF49"/>
<path d="M19.4654 21.2646L19.3454 21.4416L18.9004 22.0986L19.5574 21.6536L19.7344 21.5336C19.6304 21.4566 19.5424 21.3686 19.4654 21.2646Z" fill="#FCBF49"/>
<path d="M20.5007 21.6547C21.1377 21.6547 21.6557 21.1367 21.6557 20.4997C21.6557 19.8627 21.1377 19.3447 20.5007 19.3447C19.8637 19.3447 19.3457 19.8627 19.3457 20.4997C19.3457 21.1367 19.8637 21.6547 20.5007 21.6547ZM20.9687 20.1657C21.1707 20.1657 21.3347 20.2467 21.3347 20.3457C21.3347 20.4447 21.1717 20.5257 20.9687 20.5257C20.7657 20.5257 20.6027 20.4457 20.6027 20.3457C20.6027 20.2457 20.7667 20.1657 20.9687 20.1657ZM20.5077 20.8967C20.6947 20.8967 20.8457 20.9597 20.8457 21.0377C20.8457 21.1157 20.6937 21.1787 20.5077 21.1787C20.3217 21.1787 20.1697 21.1157 20.1697 21.0377C20.1697 20.9597 20.3217 20.8967 20.5077 20.8967ZM20.0187 20.1877C20.2167 20.1877 20.3777 20.2647 20.3777 20.3607C20.3777 20.4567 20.2167 20.5327 20.0187 20.5327C19.8207 20.5327 19.6587 20.4557 19.6587 20.3607C19.6587 20.2657 19.8197 20.1877 20.0187 20.1877Z" fill="#FCBF49"/>
<path d="M22.0099 20.7999L23.5799 20.4999L22.0099 20.1999L23.3499 19.3199L21.7799 19.6399L22.6799 18.3199L21.3599 19.2199L21.6799 17.6499L20.7999 18.9899L20.4999 17.4199L20.1999 18.9899L19.3199 17.6499L19.6399 19.2199L18.3199 18.3199L19.2199 19.6399L17.6599 19.3199L18.9899 20.1999L17.4199 20.4999L18.9899 20.7999L17.6499 21.6799L19.2199 21.3599L18.3199 22.6799L19.6399 21.7799L19.3199 23.3499L20.1999 22.0099L20.4999 23.5799L20.7999 22.0099L21.6799 23.3499L21.3599 21.7799L22.6799 22.6799L21.7799 21.3599L23.3499 21.6799L22.0099 20.7999ZM22.7599 20.4999L21.9799 20.6499L21.7699 20.6899C21.7799 20.6199 21.8099 20.5699 21.8099 20.4999C21.8099 20.4299 21.7799 20.3799 21.7699 20.3099L21.9799 20.3499L22.7599 20.4999ZM21.8099 19.7999L22.5899 19.6399L21.9299 20.0699L21.7499 20.1899C21.7099 20.0599 21.6699 19.9499 21.5999 19.8399L21.8099 19.7999ZM21.6599 20.4999C21.6599 21.1399 21.1399 21.6599 20.4999 21.6599C19.8599 21.6599 19.3399 21.1399 19.3399 20.4999C19.3399 19.8599 19.8599 19.3399 20.4999 19.3399C21.1399 19.3399 21.6599 19.8599 21.6599 20.4999ZM21.4399 19.3499L22.0999 18.8999L21.6499 19.5599L21.5299 19.7399C21.4599 19.6299 21.3699 19.5399 21.2699 19.4699L21.4399 19.3499ZM20.9299 19.0699L21.3699 18.4099L21.1999 19.1899L21.1599 19.3999C21.0499 19.3299 20.9399 19.2899 20.8099 19.2499L20.9299 19.0699ZM20.3499 19.0199L20.4999 18.2399L20.6499 19.0199L20.6899 19.2299C20.6199 19.2199 20.5699 19.1899 20.4999 19.1899C20.4299 19.1899 20.3699 19.2199 20.3099 19.2299L20.3499 19.0199ZM19.6299 18.4099L20.0699 19.0699L20.1899 19.2499C20.0599 19.2899 19.9499 19.3299 19.8399 19.3999L19.7899 19.1899L19.6299 18.4099ZM18.8999 18.8999L19.5599 19.3499L19.7299 19.4699C19.6299 19.5399 19.5399 19.6299 19.4699 19.7299L19.3499 19.5599L18.8999 18.8999ZM18.4099 19.6299L19.1899 19.7899L19.3999 19.8399C19.3299 19.9499 19.2899 20.0599 19.2499 20.1899L19.0699 20.0699L18.4099 19.6299ZM18.2399 20.4999L19.0199 20.3499L19.2299 20.3099C19.2199 20.3799 19.1899 20.4299 19.1899 20.4999C19.1899 20.5699 19.2199 20.6199 19.2299 20.6899L19.0199 20.6499L18.2399 20.4999ZM19.1899 21.1999L18.4099 21.3699L19.0699 20.9299L19.2499 20.8099C19.2899 20.9399 19.3299 21.0499 19.3999 21.1599L19.1899 21.1999ZM19.5599 21.6499L18.8999 22.0999L19.3499 21.4399L19.4699 21.2599C19.5399 21.3699 19.6299 21.4599 19.7299 21.5299L19.5599 21.6499ZM20.0699 21.9299L19.6299 22.5899L19.7899 21.8099L19.8399 21.5999C19.9499 21.6699 20.0599 21.7099 20.1899 21.7499L20.0699 21.9299ZM20.6499 21.9799L20.4999 22.7599L20.3499 21.9799L20.3099 21.7699C20.3699 21.7799 20.4299 21.8099 20.4999 21.8099C20.5699 21.8099 20.6299 21.7799 20.6899 21.7699L20.6499 21.9799ZM20.9299 21.9299L20.8099 21.7499C20.9399 21.7099 21.0499 21.6699 21.1599 21.5999L21.1999 21.8099L21.3599 22.5899L20.9299 21.9299ZM22.0999 22.0999L21.4399 21.6499L21.2699 21.5299C21.3699 21.4599 21.4599 21.3699 21.5299 21.2699L21.6499 21.4399L22.0999 22.0999ZM21.5999 21.1599C21.6699 21.0499 21.7099 20.9399 21.7499 20.8099L21.9299 20.9299L22.5899 21.3699L21.8099 21.1999L21.5999 21.1599Z" fill="#843511"/>
<path d="M20.9676 20.166C20.7656 20.166 20.6016 20.246 20.6016 20.346C20.6016 20.446 20.7656 20.526 20.9676 20.526C21.1696 20.526 21.3336 20.445 21.3336 20.346C21.3336 20.247 21.1696 20.166 20.9676 20.166Z" fill="#C16540"/>
<path d="M20.3772 20.361C20.3772 20.265 20.2162 20.188 20.0182 20.188C19.8202 20.188 19.6582 20.265 19.6582 20.361C19.6582 20.457 19.8192 20.533 20.0182 20.533C20.2172 20.533 20.3772 20.456 20.3772 20.361Z" fill="#C16540"/>
<path d="M20.5079 20.897C20.3219 20.897 20.1699 20.96 20.1699 21.038C20.1699 21.116 20.3209 21.179 20.5079 21.179C20.6949 21.179 20.8459 21.116 20.8459 21.038C20.8459 20.96 20.6949 20.897 20.5079 20.897Z" fill="#ED8662"/>
</svg>
