<svg width="41" height="41" viewBox="0 0 41 41" fill="none" xmlns="http://www.w3.org/2000/svg">
<path d="M38.5004 12.4999C38.5004 11.5799 38.1774 10.7419 37.6544 10.0659L6.35742 20.4989L37.6554 30.9329C38.1774 30.2569 38.5004 29.4199 38.5004 28.4999V12.4999ZM37.5854 19.2419C37.5604 19.2929 37.5214 19.3329 37.4754 19.3629C37.5074 19.4469 37.5424 19.5819 37.4874 19.6909C37.4624 19.7409 37.4104 19.8009 37.3014 19.8279L37.1644 20.2839L34.9524 19.8639C34.8324 19.9339 34.2164 19.6799 33.9324 19.7609C33.9324 19.7609 33.9764 19.9789 34.2364 20.1089C34.4974 20.2389 34.4974 20.3269 34.2804 20.4569C34.0624 20.5879 33.8444 20.7609 34.0624 20.7609C34.2804 20.7609 34.3664 20.8909 34.2364 20.9789C34.1054 21.0649 34.7584 20.9789 34.3664 21.2829C33.9764 21.5879 33.8884 21.5879 33.8884 21.5879C33.8884 21.5879 34.2794 22.0659 34.1054 22.1099C33.9314 22.1529 33.3654 21.8479 33.3654 21.8479C33.3654 21.8479 33.4954 22.2839 33.7134 22.4139C33.7134 22.4139 33.2344 22.7169 32.9734 22.3699C32.9734 22.3699 33.0164 22.8489 33.1474 22.9789C33.1474 22.9789 32.8864 23.0219 32.6684 22.8479C32.6684 22.8479 32.4944 23.1949 32.5824 23.4129L32.1664 22.7459C32.1554 22.8219 32.1454 22.8999 32.1044 22.9729C31.8874 23.3649 31.8004 23.7129 31.8874 23.9299C31.9014 23.9659 31.9014 24.0059 31.9044 24.0449C31.9114 24.0489 31.9284 24.0609 31.9284 24.0609C31.9284 24.0609 35.0174 24.7579 35.0174 24.8019C35.0174 24.8449 34.9744 25.1049 34.7134 25.0619C34.5554 25.0359 33.0324 24.7389 31.7354 24.4699C31.6914 24.5129 31.6424 24.5539 31.5834 24.5829C31.4044 24.6719 31.2314 24.7779 31.1374 24.8239C32.6554 24.9499 34.2334 25.0829 34.4104 25.1049C34.7574 25.1489 34.7574 25.4529 34.4104 25.4959C34.2344 25.5179 32.6574 25.4069 31.1404 25.2909C31.1174 25.4169 30.7874 25.5359 30.4524 25.4509C30.0214 25.3439 29.6684 25.3209 29.5824 25.1909C29.5784 25.1849 29.5824 25.1759 29.5804 25.1689C28.7954 25.1069 28.2324 25.0599 28.2324 25.0599C28.2324 25.0599 27.9714 25.3209 27.9714 25.4079C27.9714 25.4939 30.2774 25.5389 30.2774 25.5389L30.0604 25.7559C30.0604 25.7559 30.9744 25.7989 31.3224 25.7129C31.6694 25.6259 31.7124 25.3659 31.7574 25.4519C31.8004 25.5389 31.4964 25.8869 31.5834 25.8869C31.6694 25.8869 32.6274 25.7999 32.6274 25.7999L31.9304 26.1479L32.9754 26.5389C32.9754 26.5389 32.4534 26.6699 32.2344 26.6699C32.0174 26.6699 31.6694 26.5829 31.6694 26.5829C31.6694 26.5829 32.0174 27.0609 32.2784 27.1479C32.2784 27.1479 31.4084 26.9299 31.2764 26.7999C31.1474 26.6709 31.5374 27.4539 30.7554 26.7569C29.9724 26.0599 29.9724 26.4099 29.9724 26.4099L30.2324 26.8449C30.2324 26.8449 29.5814 26.8449 29.1444 26.5839C28.7094 26.3229 28.1874 26.1929 27.7964 26.0619C27.4054 25.9309 27.0574 25.8009 26.7524 25.6269C26.4484 25.4529 25.7944 25.0619 25.9254 24.6699C26.0564 24.2789 26.5764 24.4089 26.5764 24.4089C26.5764 24.4089 26.9244 24.3219 27.1854 24.3649C27.4464 24.4089 27.6204 24.0609 27.8824 24.1909C28.1454 24.3229 28.2314 24.5839 28.2314 24.5839C28.2314 24.5839 28.5814 24.6129 29.1104 24.6559C29.1284 24.6399 29.1774 24.6199 29.2334 24.5829C29.3634 24.4969 29.7554 24.2789 29.7554 24.2789C29.7554 24.2789 29.7554 24.1059 29.9284 24.0609C29.4064 23.8869 28.6224 24.2349 28.6224 24.2349V23.7569L27.2734 23.3649L27.1444 23.7129H26.7964L26.6664 24.0169L26.1884 23.8859L26.2744 23.2319C26.2744 23.2319 25.8844 23.1889 25.7104 23.3189C25.5354 23.4499 25.2754 23.5799 25.2754 23.5799C25.2754 23.5799 25.0144 23.1019 24.6214 22.8399C24.2304 22.5799 23.7954 22.2759 23.7954 22.2759C23.7954 22.2759 24.6224 22.4069 24.9694 22.2759C25.3174 22.1459 25.7524 22.0149 25.7524 22.0149L26.4054 22.7109L26.6664 22.0579L27.1454 22.1889L27.1014 22.4069C27.1014 22.4069 27.4924 22.5379 27.4924 22.5809C27.4924 22.6239 27.4494 22.9729 27.4494 22.9729L28.6674 23.2769L28.8854 22.7989C28.8854 22.7989 29.6684 23.4949 29.9734 23.5379C30.1184 23.5589 30.4034 23.5599 30.6804 23.5699C30.7954 23.4699 30.9674 23.1049 31.0794 22.8459C31.0354 22.6929 30.9974 22.5059 31.0184 22.3239C31.0614 21.9339 31.0184 21.3669 30.9744 21.1499C30.9314 20.9319 30.4094 20.3239 29.9744 20.2359C29.7564 20.1919 29.4414 20.1709 29.1794 20.1599C29.0024 20.2169 28.7944 20.2589 28.5854 20.2699C27.8384 20.3119 26.8574 21.1139 26.8494 21.1219L26.8264 21.1399H26.7364C26.3904 21.6269 25.5774 21.3639 25.5774 21.3639L25.4484 21.7999C25.4484 21.7999 25.0574 21.6679 25.0134 21.3639C24.9774 21.1229 25.1644 20.8319 25.4364 20.6109L25.4004 20.5239L25.4294 20.4859C25.4294 20.4859 25.5914 20.2809 25.6324 20.0849C25.6404 20.0449 25.6454 20.0069 25.6494 19.9729C25.6704 19.8199 25.6884 19.6769 25.9464 19.5899C26.1954 19.5069 27.2544 18.9999 27.6324 18.8109C27.9244 18.6649 28.3364 18.2059 28.4364 18.0929C28.3484 18.0689 28.1974 18.0659 27.9304 18.1879C27.4524 18.4059 26.8424 18.6669 26.5814 18.3629C26.1824 17.8949 26.7654 17.3059 27.2344 17.1439C28.6264 16.6659 26.6694 16.1439 28.3224 15.4039C29.0154 15.0929 30.3674 14.8819 30.6284 14.7509C30.8894 14.6209 31.2794 14.1419 31.2794 14.1859C31.2794 14.2289 31.3234 14.5339 31.3234 14.5339C31.3234 14.5339 32.2814 14.2729 32.5854 14.1429C32.8894 14.0119 33.1504 13.6649 33.1504 13.6649L33.2364 13.9689C33.2364 13.9689 34.0204 13.8819 34.3244 13.6649C34.6284 13.4469 34.8464 13.6219 34.8464 13.6219C34.8464 13.6219 35.7164 13.4039 36.0644 13.2299C36.4124 13.0559 36.8914 12.9689 36.8044 13.2739C36.7184 13.5779 36.1964 15.1009 35.9774 15.4059C35.7604 15.7099 35.8034 16.1889 35.5424 16.4069C35.2824 16.6249 33.4984 17.6249 33.4984 17.6249C33.4984 17.6249 34.3684 17.6679 34.7174 17.7999C35.0294 17.8049 35.4804 17.7709 36.1794 17.6299C36.2714 17.6119 36.3574 17.5909 36.4374 17.5729C36.7494 17.4989 36.9984 17.4389 37.1654 17.6099C37.2864 17.7289 37.3204 17.8209 37.3254 17.8819C37.4164 17.9349 37.5814 18.0499 37.5814 18.1879V18.2979C37.6484 18.4249 37.7104 18.6399 37.5934 18.7769C37.6214 18.8749 37.6654 19.0839 37.5874 19.2379L37.5854 19.2419Z" fill="#E3E7EA"/>
<path d="M36.63 9.12302C36.472 9.02402 36.307 8.93502 36.136 8.85702C36.049 8.81702 35.956 8.78802 35.866 8.75402C35.728 8.70302 35.588 8.65902 35.444 8.62302C35.366 8.60402 35.289 8.58502 35.209 8.57102C34.98 8.52902 34.746 8.49902 34.504 8.49902H6.495C4.288 8.49902 2.5 10.288 2.5 12.495V20.498L36.63 9.12302Z" fill="#261B64"/>
<path d="M2.5 20.499V28.505C2.5 30.712 4.289 32.501 6.495 32.501H34.504C34.746 32.501 34.979 32.472 35.208 32.43C35.288 32.415 35.366 32.397 35.444 32.377C35.588 32.341 35.727 32.297 35.865 32.246C35.956 32.212 36.049 32.184 36.136 32.143C36.307 32.065 36.472 31.976 36.629 31.877L2.5 20.499Z" fill="#261B64"/>
<path d="M37.654 10.066H37.656C37.649 10.056 37.639 10.048 37.632 10.039C37.498 9.86905 37.354 9.70905 37.196 9.56205C37.175 9.54205 37.151 9.52605 37.129 9.50705C36.975 9.37005 36.813 9.24105 36.638 9.12905C36.635 9.12705 36.633 9.12505 36.63 9.12305L2.5 20.499L36.63 31.877C36.63 31.877 36.635 31.873 36.638 31.871C36.814 31.759 36.975 31.631 37.13 31.493C37.152 31.474 37.176 31.457 37.198 31.437C37.356 31.29 37.5 31.13 37.634 30.96C37.642 30.95 37.651 30.943 37.658 30.933H37.656L6.357 20.499L37.654 10.067V10.066Z" fill="#BC002A"/>
<path d="M30.6689 23.5851C30.6689 23.5851 30.6769 23.5751 30.6799 23.5721C30.4029 23.5631 30.1179 23.5621 29.9729 23.5401C29.6679 23.4971 28.8849 22.8011 28.8849 22.8011L28.6669 23.2791L27.4489 22.9751C27.4489 22.9751 27.4919 22.6271 27.4919 22.5831C27.4919 22.5401 27.1009 22.4091 27.1009 22.4091L27.1449 22.1911L26.6659 22.0601L26.4049 22.7131L25.7519 22.0171C25.7519 22.0171 25.3169 22.1471 24.9689 22.2781C24.6219 22.4091 23.7949 22.2781 23.7949 22.2781C23.7949 22.2781 24.2299 22.5821 24.6209 22.8421C25.0139 23.1041 25.2749 23.5821 25.2749 23.5821C25.2749 23.5821 25.5349 23.4521 25.7099 23.3211C25.8839 23.1911 26.2739 23.2341 26.2739 23.2341L26.1879 23.8881L26.6659 24.0191L26.7959 23.7151H27.1439L27.2729 23.3671L28.6219 23.7591V24.2371C28.6219 24.2371 29.4049 23.8901 29.9269 24.0631C30.1009 24.0201 30.4929 23.7161 30.6669 23.5851H30.6689Z" fill="#D89500"/>
<path d="M31.7363 24.4719C33.0333 24.7409 34.5563 25.0379 34.7143 25.0639C34.9753 25.1069 35.0183 24.8469 35.0183 24.8039C35.0183 24.7599 31.9293 24.0629 31.9293 24.0629C31.9293 24.0629 31.9113 24.0509 31.9053 24.0469C31.9163 24.1939 31.8573 24.3529 31.7363 24.4719Z" fill="#D89500"/>
<path d="M29.7561 24.8031C29.7561 24.8031 29.6691 24.7591 29.3211 24.7161C29.1231 24.6911 29.0871 24.6801 29.1101 24.6591C28.5811 24.6151 28.2311 24.5871 28.2311 24.5871C28.2311 24.5871 28.1451 24.3261 27.8821 24.1941C27.6201 24.0631 27.4461 24.4121 27.1851 24.3681C26.9241 24.3251 26.5761 24.4121 26.5761 24.4121C26.5761 24.4121 26.0551 24.2811 25.9251 24.6731C25.7951 25.0651 26.4481 25.4561 26.7521 25.6301C27.0571 25.8041 27.4051 25.9341 27.7961 26.0651C28.1871 26.1961 28.7091 26.3261 29.1441 26.5871C29.5811 26.8481 30.2321 26.8481 30.2321 26.8481L29.9721 26.4131C29.9721 26.4131 29.9721 26.0631 30.7551 26.7601C31.5371 27.4571 31.1471 26.6741 31.2761 26.8031C31.4081 26.9341 32.2781 27.1511 32.2781 27.1511C32.0171 27.0641 31.6691 26.5861 31.6691 26.5861C31.6691 26.5861 32.0171 26.6731 32.2341 26.6731C32.4531 26.6731 32.9751 26.5421 32.9751 26.5421L31.9301 26.1511L32.6271 25.8031C32.6271 25.8031 31.6691 25.8901 31.5831 25.8901C31.4961 25.8901 31.8001 25.5431 31.7571 25.4551C31.7131 25.3691 31.6701 25.6291 31.3221 25.7161C30.9741 25.8021 30.0601 25.7591 30.0601 25.7591L30.2771 25.5421C30.2771 25.5421 27.9711 25.4981 27.9711 25.4111C27.9711 25.3241 28.2321 25.0631 28.2321 25.0631C28.2321 25.0631 28.7951 25.1091 29.5801 25.1721C29.5271 25.0361 29.7551 24.8021 29.7551 24.8021L29.7561 24.8031Z" fill="#D89500"/>
<path d="M31.1495 25.2811C31.1495 25.2811 31.1415 25.2901 31.1415 25.2941C32.6585 25.4101 34.2355 25.5211 34.4115 25.4991C34.7585 25.4561 34.7585 25.1521 34.4115 25.1081C34.2345 25.0861 32.6555 24.9531 31.1385 24.8271C31.0945 24.8481 31.0625 24.8611 31.0625 24.8471C31.0625 24.8041 31.1495 25.1501 31.1495 25.2811Z" fill="#D89500"/>
<path d="M34.585 19.3702C34.498 19.3702 34.889 19.3702 34.932 19.1952C34.976 19.0212 34.758 18.9342 34.758 18.9342C34.758 18.9342 34.976 18.8912 34.976 18.7162C34.976 18.5422 34.889 18.3692 34.889 18.3692C34.889 18.3692 35.062 17.9352 34.716 17.8042C34.368 17.6722 33.497 17.6292 33.497 17.6292C33.497 17.6292 35.281 16.6292 35.541 16.4112C35.802 16.1932 35.759 15.7142 35.976 15.4102C36.195 15.1052 36.717 13.5822 36.803 13.2782C36.89 12.9732 36.412 13.0602 36.063 13.2342C35.716 13.4082 34.845 13.6262 34.845 13.6262C34.845 13.6262 34.627 13.4512 34.323 13.6692C34.019 13.8862 33.235 13.9732 33.235 13.9732L33.149 13.6692C33.149 13.6692 32.888 14.0162 32.584 14.1472C32.28 14.2772 31.322 14.5382 31.322 14.5382C31.322 14.5382 31.278 14.2332 31.278 14.1902C31.278 14.1462 30.888 14.6252 30.627 14.7552C30.366 14.8862 29.015 15.0972 28.321 15.4082C26.668 16.1482 28.625 16.6702 27.233 17.1482C26.765 17.3102 26.181 17.8992 26.58 18.3672C26.841 18.6712 27.451 18.4102 27.929 18.1922C28.196 18.0702 28.347 18.0732 28.435 18.0972C28.448 18.0822 28.476 18.0522 28.476 18.0522L28.71 17.7792L28.52 18.4752C28.963 18.3792 29.086 18.4232 29.127 18.5192C29.165 18.6042 29.1 18.7072 28.999 18.8062C29.201 18.7882 29.306 18.8202 29.342 18.9052C29.38 18.9942 29.31 19.0972 29.215 19.1892H29.225C29.489 19.1892 29.609 19.2342 29.634 19.3322C29.658 19.4302 29.56 19.5412 29.34 19.6662C29.473 19.6962 29.58 19.7532 29.58 19.8622C29.58 19.9862 29.409 20.0892 29.18 20.1632C29.441 20.1742 29.757 20.1962 29.975 20.2392C30.41 20.3262 30.932 20.9352 30.975 21.1532C31.019 21.3712 31.062 21.9372 31.019 22.3272C30.998 22.5092 31.036 22.6962 31.08 22.8492C31.131 23.0262 31.192 23.1542 31.192 23.1542L31.539 22.5462L32.148 22.7192L32.166 22.7492L32.582 23.4162C32.495 23.1982 32.668 22.8512 32.668 22.8512C32.886 23.0252 33.147 22.9822 33.147 22.9822C33.016 22.8512 32.973 22.3732 32.973 22.3732C33.234 22.7202 33.713 22.4172 33.713 22.4172C33.495 22.2862 33.365 21.8512 33.365 21.8512C33.365 21.8512 33.931 22.1562 34.105 22.1132C34.28 22.0692 33.888 21.5912 33.888 21.5912C33.888 21.5912 33.975 21.5912 34.366 21.2862C34.757 20.9822 34.105 21.0682 34.236 20.9822C34.366 20.8952 34.28 20.7642 34.062 20.7642C33.844 20.7642 34.062 20.5902 34.28 20.4602C34.497 20.3292 34.497 20.2422 34.236 20.1122C33.976 19.9822 33.932 19.7642 33.932 19.7642C34.216 19.6832 34.832 19.9362 34.952 19.8672C34.961 19.8622 34.974 19.8592 34.977 19.8502C35.02 19.7202 34.673 19.3722 34.586 19.3722L34.585 19.3702Z" fill="#9C3900"/>
<path d="M31.54 22.5459L31.193 23.1539C31.193 23.1539 31.132 23.0249 31.081 22.8489C30.968 23.1079 30.797 23.4729 30.682 23.5729C30.678 23.5759 30.674 23.5829 30.671 23.5859C30.497 23.7159 30.106 24.0209 29.932 24.0639C29.759 24.1089 29.759 24.2819 29.759 24.2819C29.759 24.2819 29.368 24.4999 29.237 24.5859C29.181 24.6239 29.132 24.6439 29.114 24.6589C29.09 24.6799 29.126 24.6909 29.325 24.7159C29.672 24.7589 29.76 24.8029 29.76 24.8029C29.76 24.8029 29.531 25.0369 29.585 25.1729C29.588 25.1799 29.583 25.1889 29.587 25.1949C29.673 25.3249 30.026 25.3479 30.457 25.4549C30.792 25.5389 31.122 25.4199 31.145 25.2949C31.145 25.2909 31.153 25.2859 31.153 25.2819C31.153 25.1519 31.066 24.8039 31.066 24.8469C31.066 24.8609 31.098 24.8479 31.142 24.8269C31.237 24.7809 31.41 24.6749 31.588 24.5859C31.646 24.5569 31.695 24.5159 31.74 24.4729C31.861 24.3529 31.92 24.1949 31.909 24.0479C31.906 24.0089 31.906 23.9679 31.892 23.9329C31.805 23.7159 31.892 23.3679 32.109 22.9759C32.15 22.9029 32.16 22.8249 32.171 22.7489L32.153 22.7189L31.544 22.5459H31.54Z" fill="#FFC220"/>
<path d="M25.437 20.6138C25.166 20.8338 24.979 21.1248 25.014 21.3668C25.057 21.6708 25.449 21.8028 25.449 21.8028L25.578 21.3668C25.578 21.3668 26.391 21.6298 26.737 21.1428H25.657L25.437 20.6138Z" fill="#FFC220"/>
<path d="M37.5801 18.3021V18.1921C37.5801 18.0541 37.4151 17.9391 37.3241 17.8861C37.3201 17.8261 37.2851 17.7331 37.1641 17.6141C36.9971 17.4441 36.7481 17.5031 36.4361 17.5771C36.3561 17.5951 36.2701 17.6161 36.1781 17.6341C35.4791 17.7741 35.0281 17.8091 34.7161 17.8041C35.0621 17.9351 34.8891 18.3691 34.8891 18.3691C34.8891 18.3691 34.9761 18.5431 34.9761 18.7161C34.9761 18.8911 34.7581 18.9341 34.7581 18.9341C34.7581 18.9341 34.9761 19.0211 34.9321 19.1951C34.8891 19.3701 34.4971 19.3701 34.5851 19.3701C34.6731 19.3701 35.0201 19.7171 34.9761 19.8481C34.9731 19.8571 34.9601 19.8591 34.9511 19.8651L37.1631 20.2851L37.3001 19.8291C37.4091 19.8021 37.4611 19.7421 37.4861 19.6921C37.5411 19.5831 37.5061 19.4481 37.4741 19.3641C37.5201 19.3341 37.5591 19.2941 37.5841 19.2431C37.6631 19.0891 37.6181 18.8801 37.5901 18.7821C37.7081 18.6451 37.6451 18.4301 37.5781 18.3031L37.5801 18.3021Z" fill="white"/>
<path d="M29.5794 19.8613C29.5794 19.7523 29.4714 19.6953 29.3394 19.6653C29.5594 19.5403 29.6574 19.4293 29.6334 19.3313C29.6084 19.2333 29.4884 19.1883 29.2244 19.1883H29.2144C29.3094 19.0963 29.3794 18.9933 29.3414 18.9043C29.3054 18.8193 29.2004 18.7873 28.9984 18.8053C29.0994 18.7063 29.1644 18.6033 29.1264 18.5183C29.0854 18.4223 28.9624 18.3783 28.5194 18.4743L28.7094 17.7783L28.4754 18.0513C28.4754 18.0513 28.4474 18.0823 28.4344 18.0963C28.3344 18.2093 27.9224 18.6683 27.6304 18.8143C27.2534 19.0033 26.1934 19.5103 25.9444 19.5933C25.6864 19.6793 25.6684 19.8233 25.6474 19.9763C25.6434 20.0113 25.6374 20.0483 25.6304 20.0883C25.5894 20.2843 25.4294 20.4873 25.4274 20.4893L25.3984 20.5273L25.4344 20.6143L25.6544 21.1423H26.8244L26.8474 21.1243C26.8564 21.1153 27.8364 20.3143 28.5834 20.2723C28.7914 20.2613 29.0004 20.2193 29.1774 20.1623C29.4064 20.0883 29.5774 19.9853 29.5774 19.8613H29.5794ZM26.0764 20.3243C26.0354 20.2413 26.0994 20.1243 26.2214 20.0633C26.3424 20.0013 26.4744 20.0203 26.5174 20.1043C26.5584 20.1873 26.4944 20.3053 26.3724 20.3653C26.2514 20.4273 26.1194 20.4073 26.0764 20.3243Z" fill="white"/>
<path d="M26.3724 20.3649C26.4944 20.3049 26.5574 20.1869 26.5174 20.1039C26.4754 20.0199 26.3424 20.0009 26.2214 20.0629C26.0994 20.1239 26.0364 20.2409 26.0764 20.3239C26.1184 20.4069 26.2514 20.4269 26.3724 20.3649Z" fill="black"/>
</svg>
