<svg width="41" height="41" viewBox="0 0 41 41" fill="none" xmlns="http://www.w3.org/2000/svg">
<path d="M3.38975 10.0132C3.01075 10.4872 2.72675 11.0382 2.59375 11.6522H6.65575L3.38975 10.0132Z" fill="#2E2C7B"/>
<path d="M34.499 8.5H21.321V9.558L17.147 11.652H21.321V14.805H17.147L21.321 16.899V18.193H19.685L13.471 15.073V18.193H10.331V15.073L4.11605 18.193H2.49805V28.499C2.49805 30.708 4.28905 32.499 6.49805 32.499H34.498C36.707 32.499 38.498 30.708 38.498 28.499V12.5C38.498 10.291 36.708 8.5 34.499 8.5ZM13.521 27.572L12.251 26.219L10.982 27.572L11.235 25.722L9.39905 25.56L10.983 24.607L9.96305 23.051L11.686 23.713L12.25 21.933L12.815 23.713L14.538 23.051L13.518 24.607L15.103 25.56L13.267 25.722L13.52 27.572H13.521ZM29.58 12.59L30.401 12.904L30.669 12.057L30.938 12.904L31.758 12.59L31.273 13.33L32.028 13.785L31.153 13.862L31.274 14.743L30.669 14.099L30.065 14.743L30.185 13.862L29.311 13.785L30.066 13.33L29.58 12.59ZM26.398 20.098L25.794 19.454L25.189 20.098L25.31 19.218L24.436 19.14L25.19 18.688L24.705 17.946L25.525 18.262L25.794 17.415L26.063 18.262L26.883 17.946L26.397 18.688L27.152 19.14L26.278 19.218L26.398 20.098ZM31.274 27.927L30.669 27.282L30.065 27.927L30.185 27.046L29.311 26.969L30.066 26.514L29.58 25.774L30.401 26.088L30.669 25.242L30.938 26.088L31.758 25.774L31.273 26.514L32.028 26.969L31.153 27.046L31.274 27.927ZM33.098 21.553L32.621 21.253L32.143 21.553L32.278 21L31.848 20.632L32.409 20.59L32.621 20.062L32.833 20.59L33.393 20.632L32.964 21L33.098 21.553ZM35.609 18.781L35.005 18.136L34.4 18.781L34.521 17.899L33.646 17.821L34.401 17.367L33.915 16.627L34.736 16.941L35.005 16.095L35.273 16.941L36.094 16.627L35.608 17.367L36.363 17.821L35.489 17.899L35.609 18.781Z" fill="#2E2C7B"/>
<path d="M10.3323 8.5H6.49933C6.00933 8.5 5.54533 8.601 5.11133 8.762L10.3323 11.383V8.5Z" fill="#2E2C7B"/>
<path d="M19.2147 8.5H13.4707V11.383L19.2147 8.5Z" fill="#2E2C7B"/>
<path d="M6.656 14.8062H2.5V16.8922L6.657 14.8062H6.656Z" fill="#2E2C7B"/>
<path d="M10.167 14.8062H8.763L2.5 17.9502V18.1942H3.417L10.167 14.8062Z" fill="#D00032"/>
<path d="M15.043 14.8062L21.322 17.9582V17.2532L16.447 14.8062H15.043Z" fill="#D00032"/>
<path d="M7.3587 11.652H8.7627L4.1047 9.31396L4.1037 9.31496C3.9227 9.45196 3.7507 9.59796 3.5957 9.76296L7.3587 11.652Z" fill="#D00032"/>
<path d="M15.0437 11.652L21.3227 8.5H19.9187L13.6387 11.652H15.0437Z" fill="#D00032"/>
<path d="M21.32 12.28V14.18H12.84V18.19H10.96V14.18H2.5V12.5C2.5 12.43 2.52 12.36 2.52 12.28H10.96V8.5H12.84V12.28H21.32Z" fill="#D00032"/>
<path d="M6.657 14.8062L2.5 16.8922V17.0042L6.879 14.8062H6.657Z" fill="#E3E7EA"/>
<path d="M21.3223 17.2532V16.9002L17.1483 14.8062H16.4473L21.3223 17.2532Z" fill="#E3E7EA"/>
<path d="M7.35963 11.6522L3.59662 9.76318C3.52362 9.84118 3.45962 9.92618 3.39262 10.0102L3.39062 10.0122L6.65663 11.6512H7.35862L7.35963 11.6522Z" fill="#E3E7EA"/>
<path d="M10.168 14.8062L3.41797 18.1942H4.11897L10.334 15.0752V14.8062H10.168Z" fill="#E3E7EA"/>
<path d="M10.3326 11.4952V11.3832L5.11161 8.76221C5.09761 8.76721 5.08361 8.77121 5.06861 8.77521C5.03661 8.78421 5.00461 8.79221 4.97461 8.80421L10.3336 11.4942L10.3326 11.4952Z" fill="#E3E7EA"/>
<path d="M17.1478 11.6518L21.3218 9.5578V9.4458L16.9258 11.6518H17.1478Z" fill="#E3E7EA"/>
<path d="M13.4727 15.0749L19.6867 18.1939H19.9097L13.4727 14.9629V15.0749Z" fill="#E3E7EA"/>
<path d="M13.4727 11.652H13.6387L19.9187 8.5H19.2167L13.4727 11.383V11.652Z" fill="#E3E7EA"/>
<path d="M13.4727 14.8062V14.9632L19.9097 18.1942H20.3897L13.6387 14.8062H13.4727Z" fill="#E3E7EA"/>
<path d="M10.1664 11.6522H10.3314V11.4952L4.97237 8.80518C4.89037 8.83918 4.81637 8.88618 4.73637 8.92618C4.73637 8.92618 4.73538 8.92618 4.73438 8.92618L10.1664 11.6522Z" fill="#E3E7EA"/>
<path d="M16.9263 11.6521L21.3223 9.44608V9.20508L16.4473 11.6521H16.9263Z" fill="#E3E7EA"/>
<path d="M6.879 14.8062L2.5 17.0042V17.2442L7.359 14.8062H6.879Z" fill="#E3E7EA"/>
<path d="M8.76342 11.6518H10.1684L4.73742 8.92578C4.51442 9.03578 4.30442 9.16478 4.10742 9.31278L8.76542 11.6508L8.76342 11.6518Z" fill="#E3E7EA"/>
<path d="M16.447 11.652L21.322 9.205V8.5L15.043 11.652H16.447Z" fill="#E3E7EA"/>
<path d="M7.359 14.8062L2.5 17.2442V17.9502L8.763 14.8062H7.359Z" fill="#E3E7EA"/>
<path d="M13.6387 14.8062L20.3897 18.1942H21.3227V17.9582L15.0437 14.8062H13.6387Z" fill="#E3E7EA"/>
<path d="M21.3216 12.2829V11.6519H17.1476L15.8926 12.2829H21.3216Z" fill="#E3E7EA"/>
<path d="M10.96 11.699V8.5H10.332V11.383L10.96 11.699Z" fill="#E3E7EA"/>
<path d="M10.332 15.0748V18.1938H10.96V14.7598L10.332 15.0748Z" fill="#E3E7EA"/>
<path d="M12.8438 18.1938H13.4718V15.0748L12.8438 14.7598V18.1938Z" fill="#E3E7EA"/>
<path d="M7.91148 12.2829L6.65548 11.6519H2.59348C2.54948 11.8549 2.53348 12.0679 2.52148 12.2809L7.91248 12.2819L7.91148 12.2829Z" fill="#E3E7EA"/>
<path d="M7.912 14.1748H2.5V14.8058H6.656L7.912 14.1748Z" fill="#E3E7EA"/>
<path d="M13.4718 11.383V8.5H12.8438V11.699L13.4718 11.383Z" fill="#E3E7EA"/>
<path d="M17.1476 14.8058H21.3216V14.1748H15.8926L17.1476 14.8058Z" fill="#E3E7EA"/>
<path d="M10.96 11.6988L10.332 11.3828V11.4948L10.96 11.8108V11.6988Z" fill="#E3E7EA"/>
<path d="M13.6377 11.6518H13.4718V11.3828L12.8438 11.6988V12.0508L13.6377 11.6518Z" fill="#E3E7EA"/>
<path d="M15.1895 14.1748L16.4465 14.8058H17.1475L15.8925 14.1748H15.1895Z" fill="#E3E7EA"/>
<path d="M15.6699 12.2829H15.8929L17.1479 11.6519H16.9259L15.6699 12.2829Z" fill="#E3E7EA"/>
<path d="M7.35925 11.6519H6.65625L7.91225 12.2829H8.61525L7.35925 11.6519Z" fill="#E3E7EA"/>
<path d="M7.91125 14.1748L6.65625 14.8058H6.87825L8.13325 14.1748H7.91125Z" fill="#E3E7EA"/>
<path d="M6.65625 14.8058H6.65725L7.91225 14.1748L6.65625 14.8058Z" fill="#E3E7EA"/>
<path d="M10.962 14.4072L10.168 14.8062H10.334V15.0752L10.962 14.7602V14.4072Z" fill="#E3E7EA"/>
<path d="M12.8438 14.647V14.76L13.4718 15.075V14.963L12.8438 14.647Z" fill="#E3E7EA"/>
<path d="M15.0422 14.8058H16.4462L15.1892 14.1748H13.7852L15.0422 14.8058Z" fill="#E3E7EA"/>
<path d="M10.0194 12.2829L8.76337 11.6519H7.35938L8.61537 12.2829H10.0194Z" fill="#E3E7EA"/>
<path d="M10.9617 14.1748H10.0197L8.76367 14.8058H10.1677L10.9617 14.4068V14.1748Z" fill="#E3E7EA"/>
<path d="M12.8438 12.2829H13.7858L15.0428 11.6519H13.6377L12.8438 12.0509V12.2829Z" fill="#E3E7EA"/>
<path d="M10.962 11.8111L10.334 11.4951V11.6521H10.168L10.962 12.0511V11.8111Z" fill="#E3E7EA"/>
<path d="M8.13491 14.1748H8.13391L6.87891 14.8058H7.35891L8.61491 14.1748H8.13491Z" fill="#E3E7EA"/>
<path d="M12.8438 14.6472L13.4718 14.9632V14.8062H13.6377L12.8438 14.4072V14.6472Z" fill="#E3E7EA"/>
<path d="M15.6695 12.2829L16.9255 11.6519H16.4465L15.1895 12.2829H15.6695Z" fill="#E3E7EA"/>
<path d="M12.8438 14.1748V14.4068L13.6377 14.8058H15.0428L13.7858 14.1748H12.8438Z" fill="#E3E7EA"/>
<path d="M10.9617 12.2829V12.0509L10.1677 11.6519H8.76367L10.0197 12.2829H10.9617Z" fill="#E3E7EA"/>
<path d="M8.61537 14.1748L7.35938 14.8058H8.76337L10.0194 14.1748H8.61537Z" fill="#E3E7EA"/>
<path d="M15.1892 12.2829L16.4462 11.6519H15.0422L13.7852 12.2829H15.1892Z" fill="#E3E7EA"/>
<path d="M13.5194 24.6061L14.5394 23.0511L12.8164 23.7121L12.2514 21.9321L11.6884 23.7121L9.96539 23.0511L10.9844 24.6061L9.40039 25.5601L11.2364 25.7221L10.9824 27.5721L12.2514 26.2191L13.5214 27.5721L13.2684 25.7221L15.1044 25.5601L13.5194 24.6061Z" fill="#E3E7EA"/>
<path d="M31.2745 26.5132L31.7595 25.7732L30.9395 26.0872L30.6705 25.2412L30.4025 26.0872L29.5815 25.7732L30.0665 26.5132L29.3125 26.9682L30.1865 27.0452L30.0665 27.9262L30.6705 27.2802L31.2755 27.9262L31.1545 27.0452L32.0295 26.9682L31.2745 26.5132Z" fill="#E3E7EA"/>
<path d="M26.3965 18.6871L26.8825 17.9441L26.0625 18.2601L25.7935 17.4131L25.5245 18.2601L24.7045 17.9441L25.1895 18.6871L24.4355 19.1391L25.3095 19.2171L25.1885 20.0971L25.7935 19.4531L26.3975 20.0971L26.2775 19.2171L27.1515 19.1391L26.3965 18.6871Z" fill="#E3E7EA"/>
<path d="M30.1865 13.8612L30.0665 14.7422L30.6705 14.0982L31.2755 14.7422L31.1545 13.8612L32.0295 13.7842L31.2745 13.3302L31.7595 12.5892L30.9395 12.9042L30.6705 12.0562L30.4025 12.9042L29.5815 12.5892L30.0665 13.3302L29.3125 13.7842L30.1865 13.8612Z" fill="#E3E7EA"/>
<path d="M35.6085 17.3672L36.0945 16.6272L35.2735 16.9412L35.0055 16.0952L34.7365 16.9412L33.9155 16.6272L34.4015 17.3672L33.6465 17.8212L34.5215 17.8982L34.4005 18.7802L35.0055 18.1352L35.6095 18.7802L35.4895 17.8982L36.3635 17.8212L35.6085 17.3672Z" fill="#E3E7EA"/>
<path d="M32.8327 20.589L32.6207 20.061L32.4087 20.589L31.8477 20.631L32.2767 20.999L32.1427 21.552L32.6207 21.252L33.0977 21.552L32.9647 20.999L33.3937 20.631L32.8327 20.589Z" fill="#E3E7EA"/>
</svg>
