<svg width="41" height="41" viewBox="0 0 41 41" fill="none" xmlns="http://www.w3.org/2000/svg">
<path d="M34.5 8.5H6.5C4.29086 8.5 2.5 10.2909 2.5 12.5V28.5C2.5 30.7091 4.29086 32.5 6.5 32.5H34.5C36.7091 32.5 38.5 30.7091 38.5 28.5V12.5C38.5 10.2909 36.7091 8.5 34.5 8.5Z" fill="#5480C4"/>
<path d="M7.33603 17.0298L6.41003 14.3048L3.70703 13.3788L6.40803 12.4438L7.32603 9.71777L8.25203 12.4418L10.955 13.3688L8.25503 14.3028L7.33603 17.0298Z" fill="#E3E7EA"/>
<path d="M7.3365 16.4201L6.5655 14.1511L4.3125 13.3781L6.5625 12.5991L7.3285 10.3281L8.1005 12.5981L10.3525 13.3691L8.1025 14.1491L7.3365 16.4201Z" fill="#D3003B"/>
<path d="M38.5 27.2622H2.5V28.4812H38.5V27.2622Z" fill="#F4D400"/>
<path d="M38.5 24.8262H2.5V26.0442H38.5V24.8262Z" fill="#F4D400"/>
</svg>
