<svg width="41" height="41" viewBox="0 0 41 41" fill="none" xmlns="http://www.w3.org/2000/svg">
<path d="M34.5 8.5H6.5C4.29086 8.5 2.5 10.2909 2.5 12.5V28.5C2.5 30.7091 4.29086 32.5 6.5 32.5H34.5C36.7091 32.5 38.5 30.7091 38.5 28.5V12.5C38.5 10.2909 36.7091 8.5 34.5 8.5Z" fill="#0F8FC7"/>
<path d="M2.5 24.5H38.5V16.499H2.5V24.5ZM23.569 18.859L23.895 19.72L24.74 19.339L24.356 20.176L25.224 20.501L24.356 20.824L24.738 21.663L23.893 21.281L23.566 22.142L23.24 21.281L22.395 21.659L22.779 20.821L21.91 20.498L22.779 20.175L22.397 19.337L23.242 19.717L23.569 18.859ZM20.438 17.435C21.303 17.435 22.085 17.788 22.647 18.355C22.244 18.097 21.764 17.946 21.248 17.946C19.824 17.946 18.671 19.089 18.671 20.499C18.671 21.909 19.824 23.055 21.248 23.055C21.764 23.055 22.244 22.904 22.647 22.645C22.085 23.213 21.303 23.565 20.438 23.565C18.73 23.565 17.345 22.194 17.345 20.499C17.345 18.804 18.73 17.435 20.438 17.435Z" fill="#EB003D"/>
<path d="M38.5 28.504V24.5H2.5V28.504C2.5 30.711 4.289 32.5 6.495 32.5H34.504C36.711 32.5 38.5 30.711 38.5 28.504Z" fill="#00B060"/>
<path d="M20.4368 23.5651C21.3018 23.5651 22.0838 23.2131 22.6458 22.6451C22.2428 22.9041 21.7627 23.0551 21.2467 23.0551C19.8227 23.0551 18.6698 21.9101 18.6698 20.4991C18.6698 19.0881 19.8227 17.9461 21.2467 17.9461C21.7627 17.9461 22.2428 18.0971 22.6458 18.3551C22.0838 17.7881 21.3018 17.4351 20.4368 17.4351C18.7288 17.4351 17.3438 18.8071 17.3438 20.4991C17.3438 22.1911 18.7288 23.5651 20.4368 23.5651Z" fill="#E3E7EA"/>
<path d="M22.7792 20.1759L21.9102 20.4989L22.7792 20.8219L22.3952 21.6589L23.2402 21.2809L23.5662 22.1419L23.8932 21.2809L24.7382 21.6629L24.3562 20.8239L25.2242 20.5009L24.3562 20.1759L24.7402 19.3389L23.8952 19.7199L23.5692 18.8589L23.2422 19.7179L22.3972 19.3379L22.7792 20.1759Z" fill="#E3E7EA"/>
</svg>
