<svg width="41" height="41" viewBox="0 0 41 41" fill="none" xmlns="http://www.w3.org/2000/svg">
<path d="M34.5 8.5H6.5C4.29086 8.5 2.5 10.2909 2.5 12.5V28.5C2.5 30.7091 4.29086 32.5 6.5 32.5H34.5C36.7091 32.5 38.5 30.7091 38.5 28.5V12.5C38.5 10.2909 36.7091 8.5 34.5 8.5Z" fill="#332989"/>
<path d="M4.51842 9.10006L5.89142 10.0741L5.42542 8.66406C4.72242 8.86006 4.09642 9.23306 3.60742 9.74706L4.51842 9.10006Z" fill="#E3E7EA"/>
<path d="M8.94531 8.5L33.5313 32.5V8.5H8.94531Z" fill="#FBCA00"/>
<path d="M28.5838 31.5242H26.8848L28.2528 32.5002H29.1058H29.9588L31.3268 31.5242H29.6288L29.1058 29.9502L28.5838 31.5242Z" fill="#E3E7EA"/>
<path d="M7.59209 12.1002L8.96509 13.0742L8.44109 11.4992L9.81409 10.5262H8.11609L7.59209 8.94922L7.06709 10.5262H5.37109L6.74409 11.4992L6.21909 13.0742L7.59209 12.1002Z" fill="#E3E7EA"/>
<path d="M10.6654 15.1002L12.0384 16.0752L11.5134 14.4992L12.8864 13.5252H11.1894L10.6654 11.9492L10.1404 13.5252H8.44336L9.81636 14.4982L9.29236 16.0752L10.6654 15.1002Z" fill="#E3E7EA"/>
<path d="M13.7386 18.1002L15.1116 19.0742L14.5876 17.4992L15.9596 16.5252H14.2626L13.7386 14.9492L13.2136 16.5252H11.5176L12.8896 17.4992L12.3656 19.0742L13.7386 18.1002Z" fill="#E3E7EA"/>
<path d="M16.8128 21.1002L18.1858 22.0752L17.6618 20.4982L19.0348 19.5252H17.3378L16.8128 17.9502L16.2888 19.5252H14.5918L15.9648 20.4982L15.4408 22.0752L16.8128 21.1002Z" fill="#E3E7EA"/>
<path d="M19.8861 24.1002L21.2581 25.0742L20.7341 23.4992L22.1071 22.5252H20.4101L19.8861 20.9492L19.3611 22.5252H17.6641L19.0371 23.4992L18.5121 25.0742L19.8861 24.1002Z" fill="#E3E7EA"/>
<path d="M22.9593 27.1012L24.3323 28.0742L23.8083 26.4992L25.1803 25.5242H23.4833L22.9593 23.9502L22.4343 25.5242H20.7383L22.1103 26.4992L21.5863 28.0742L22.9593 27.1012Z" fill="#E3E7EA"/>
<path d="M26.0325 30.1002L27.4035 31.0742L26.8795 29.4992L28.2525 28.5252H26.5565L26.0325 26.9492L25.5075 28.5252H23.8105L25.1835 29.4992L24.6585 31.0742L26.0325 30.1002Z" fill="#E3E7EA"/>
</svg>
