<svg width="41" height="41" viewBox="0 0 41 41" fill="none" xmlns="http://www.w3.org/2000/svg">
<path d="M34.5 8.5H6.5C4.29086 8.5 2.5 10.2909 2.5 12.5V28.5C2.5 30.7091 4.29086 32.5 6.5 32.5H34.5C36.7091 32.5 38.5 30.7091 38.5 28.5V12.5C38.5 10.2909 36.7091 8.5 34.5 8.5Z" fill="#2E2D7C"/>
<path d="M26.8617 8.5H14.1387V32.5H26.8617V8.5Z" fill="#FBC300"/>
<path d="M20.4995 14.4438C20.0855 15.5518 19.6645 16.7038 18.7625 17.5888C19.0425 17.4968 19.5335 17.4158 19.8465 17.4248V22.0838L18.5095 22.2788C18.4605 22.2738 18.4445 22.1998 18.4445 22.0988C18.3155 20.6528 17.9675 19.4368 17.5675 18.1808C17.5385 18.0088 17.0325 17.3528 17.4235 17.4678C17.4705 17.4738 17.9945 17.6848 17.9115 17.5838C17.1985 16.8588 16.1585 16.3378 15.1455 16.1828C15.0565 16.1598 15.0045 16.2038 15.0845 16.3058C16.4245 18.3358 17.5485 20.7308 17.5385 23.5738C18.0615 23.5738 19.3245 23.2708 19.8465 23.2708V26.5578H21.1525V23.2708C21.6745 23.2708 22.9385 23.5738 23.4605 23.5738C23.4515 20.7318 24.5745 18.3358 25.9145 16.3058C25.9955 16.2038 25.9425 16.1598 25.8535 16.1828C24.8415 16.3378 23.8015 16.8598 23.0885 17.5838C23.0045 17.6848 23.5295 17.4738 23.5765 17.4678C23.9665 17.3528 23.4605 18.0088 23.4325 18.1808C23.0325 19.4378 22.6835 20.6538 22.5545 22.0988C22.5545 22.1998 22.5395 22.2738 22.4895 22.2788L21.1525 22.0838V17.4248C21.4655 17.4158 21.9565 17.4968 22.2365 17.5888C21.3335 16.7038 20.9135 15.5508 20.4995 14.4438Z" fill="black"/>
</svg>
