<svg width="41" height="41" viewBox="0 0 41 41" fill="none" xmlns="http://www.w3.org/2000/svg">
<path d="M37.765 10.197C37.042 9.173 35.854 8.5 34.505 8.5H6.495C5.146 8.5 3.958 9.173 3.235 10.197C2.775 10.848 2.5 11.638 2.5 12.495V28.504C2.5 29.362 2.776 30.151 3.236 30.802C3.959 31.826 5.147 32.499 6.496 32.499H34.505C35.854 32.499 37.041 31.826 37.765 30.802C38.225 30.151 38.501 29.361 38.501 28.504V12.496C38.501 11.638 38.225 10.849 37.766 10.198L37.765 10.197Z" fill="#006E4E"/>
<path d="M18.5966 12.9731C22.8036 12.9731 26.2146 16.3431 26.2146 20.4991C26.2146 24.6551 22.8036 28.0261 18.5966 28.0261C14.3896 28.0261 10.9766 24.6581 10.9766 20.4991C10.9766 16.3401 14.3876 12.9731 18.5966 12.9731Z" fill="#F70046"/>
</svg>
