<svg width="41" height="41" viewBox="0 0 41 41" fill="none" xmlns="http://www.w3.org/2000/svg">
<path d="M34.5 8.5H6.5C4.29086 8.5 2.5 10.2909 2.5 12.5V28.5C2.5 30.7091 4.29086 32.5 6.5 32.5H34.5C36.7091 32.5 38.5 30.7091 38.5 28.5V12.5C38.5 10.2909 36.7091 8.5 34.5 8.5Z" fill="#00A03E"/>
<path d="M2.5 12.495V20.5H38.5V12.495C38.5 10.288 36.711 8.5 34.505 8.5H6.495C4.288 8.5 2.5 10.289 2.5 12.495Z" fill="#F10030"/>
<path d="M21.8583 20.9311L24.0553 19.3721H21.3393L20.5003 16.8511L19.6603 19.3721H16.9453L19.1423 20.9311L18.3023 23.4521L20.5003 21.8941L22.6973 23.4521L21.8583 20.9311Z" fill="#F9CF00"/>
</svg>
