<svg width="41" height="41" viewBox="0 0 41 41" fill="none" xmlns="http://www.w3.org/2000/svg">
<path d="M34.5 8.5H6.5C4.29086 8.5 2.5 10.2909 2.5 12.5V28.5C2.5 30.7091 4.29086 32.5 6.5 32.5H34.5C36.7091 32.5 38.5 30.7091 38.5 28.5V12.5C38.5 10.2909 36.7091 8.5 34.5 8.5Z" fill="#E3E7EA"/>
<path d="M38.4995 28.504V12.496C38.4995 10.289 36.7105 8.5 34.5045 8.5H10.3555L16.4415 10.9L10.3555 13.3L16.4415 15.702L10.3555 18.101L16.4415 20.5L10.3555 22.902L16.4415 25.301L10.3555 27.701L16.4415 30.103L10.3555 32.502H34.5035C36.7105 32.502 38.4985 30.713 38.4985 28.506L38.4995 28.504Z" fill="#CF002E"/>
</svg>
