<svg width="41" height="41" viewBox="0 0 41 41" fill="none" xmlns="http://www.w3.org/2000/svg">
<path d="M34.5 8.5H6.5C4.29086 8.5 2.5 10.2909 2.5 12.5V28.5C2.5 30.7091 4.29086 32.5 6.5 32.5H34.5C36.7091 32.5 38.5 30.7091 38.5 28.5V12.5C38.5 10.2909 36.7091 8.5 34.5 8.5Z" fill="#E3E7EA"/>
<path d="M15.4728 15.729C16.7538 14.478 18.5328 13.701 20.4998 13.701C22.4668 13.701 24.2458 14.478 25.5268 15.729L36.7848 9.22098C36.1378 8.76998 35.3548 8.50098 34.5068 8.50098H6.49284C5.64484 8.50098 4.86184 8.76998 4.21484 9.22198L15.4728 15.729Z" fill="#CF002E"/>
<path d="M20.4998 27.3C18.5328 27.3 16.7538 26.524 15.4728 25.272L4.21484 31.779C4.86184 32.231 5.64584 32.5 6.49484 32.5H34.5038C35.3528 32.5 36.1368 32.231 36.7838 31.779L25.5258 25.272C24.2448 26.523 22.4668 27.3 20.4998 27.3Z" fill="#CF002E"/>
<path d="M27.5583 20.5002C27.5583 21.2072 27.4463 21.8882 27.2383 22.5292L38.4493 29.0092C38.4703 28.8422 38.5003 28.6772 38.5003 28.5042V12.4952C38.5003 12.3222 38.4703 12.1582 38.4493 11.9902L27.2383 18.4702C27.4463 19.1112 27.5583 19.7942 27.5583 20.5002Z" fill="#00B933"/>
<path d="M13.442 20.5002C13.442 19.7932 13.554 19.1122 13.762 18.4712L2.551 11.9912C2.53 12.1582 2.5 12.3232 2.5 12.4962V28.5052C2.5 28.6782 2.53 28.8432 2.551 29.0102L13.762 22.5302C13.554 21.8892 13.442 21.2062 13.442 20.5002Z" fill="#00B933"/>
<path d="M20.9656 17.7809H21.8976L21.4316 16.9809L21.8976 16.1809H20.9656L20.4996 15.3809L20.0336 16.1809H19.1016L19.5676 16.9809L19.1016 17.7809H20.0336L20.4996 18.5809L20.9656 17.7809ZM19.3536 17.6369L19.7356 16.9809L19.3536 16.3249H20.1176L20.4996 15.6689L20.8816 16.3249H21.6456L21.2636 16.9809L21.6456 17.6369H20.8816L20.4996 18.2929L20.1176 17.6369H19.3536Z" fill="#00B933"/>
<path d="M23.1097 21.4602H22.1777L22.6437 22.2602L22.1777 23.0602H23.1097L23.5757 23.8602L24.0417 23.0602H24.9737L24.5077 22.2602L24.9737 21.4602H24.0417L23.5757 20.6602L23.1097 21.4602ZM24.7217 21.6042L24.3397 22.2602L24.7217 22.9162H23.9577L23.5757 23.5722L23.1937 22.9162H22.4297L22.8117 22.2602L22.4297 21.6042H23.1937L23.5757 20.9482L23.9577 21.6042H24.7217Z" fill="#00B933"/>
<path d="M17.8894 21.4602L17.4234 20.6602L16.9574 21.4602H16.0254L16.4914 22.2602L16.0254 23.0602H16.9574L17.4234 23.8602L17.8894 23.0602H18.8214L18.3554 22.2602L18.8214 21.4602H17.8894ZM18.5694 22.9162H17.8054L17.4224 23.5722L17.0404 22.9162H16.2764L16.6584 22.2602L16.2764 21.6042H17.0404L17.4224 20.9482L17.8054 21.6042H18.5694L18.1874 22.2602L18.5694 22.9162Z" fill="#00B933"/>
<path d="M20.8815 17.636H21.6455L21.2635 16.98L21.6455 16.324H20.8815L20.4995 15.668L20.1175 16.324H19.3535L19.7355 16.98L19.3535 17.636H20.1175L20.4995 18.292L20.8815 17.636Z" fill="#CF002E"/>
<path d="M23.1937 21.6042H22.4297L22.8117 22.2602L22.4297 22.9162H23.1937L23.5757 23.5722L23.9577 22.9162H24.7227L24.3407 22.2602L24.7227 21.6042H23.9577L23.5757 20.9482L23.1937 21.6042Z" fill="#CF002E"/>
<path d="M17.8063 21.6042L17.4233 20.9482L17.0413 21.6042H16.2773L16.6593 22.2602L16.2773 22.9162H17.0413L17.4233 23.5722L17.8063 22.9162H18.5703L18.1883 22.2602L18.5703 21.6042H17.8063Z" fill="#CF002E"/>
</svg>
