<svg width="41" height="41" viewBox="0 0 41 41" fill="none" xmlns="http://www.w3.org/2000/svg">
<path d="M34.5 8.5H6.5C4.291 8.5 2.5 10.291 2.5 12.5V28.5C2.5 30.709 4.291 32.5 6.5 32.5H34.5C36.709 32.5 38.5 30.709 38.5 28.5V12.5C38.5 10.291 36.709 8.5 34.5 8.5ZM15.254 12.015L15.39 12.424L15.662 12.355L15.594 11.947L16.275 11.811L16.35 12.242L16.616 12.167V11.674L17.299 11.607L17.357 12.033L17.845 11.948V12.22H17.98V11.879H18.321V12.152H18.525V11.811H18.865V12.083L19.138 12.015V11.401L19.818 11.334V11.742H20.158V11.334H20.84V11.742H21.181V11.334L21.862 11.401V12.015L22.134 12.083V11.811H22.474V12.152H22.679V11.879H23.019V12.22H23.156V11.948L23.643 12.033L23.7 11.607L24.381 11.675V12.169L24.647 12.243L24.722 11.811L25.403 11.947L25.335 12.355L25.607 12.424L25.744 12.015L26.425 12.22L26.085 13.105L25.88 13.038L24.857 15.287V20.464C24.857 20.869 24.807 21.223 24.736 21.555H24.75C24.715 21.72 24.666 21.868 24.617 22.017C24.603 22.06 24.594 22.109 24.578 22.151C24.499 22.371 24.406 22.574 24.302 22.761C24.281 22.799 24.257 22.83 24.235 22.867C24.149 23.011 24.06 23.148 23.965 23.274C23.926 23.325 23.886 23.37 23.847 23.418C23.762 23.521 23.676 23.62 23.587 23.71C23.545 23.753 23.505 23.793 23.463 23.833C23.369 23.923 23.277 24.007 23.183 24.086C23.15 24.114 23.117 24.143 23.084 24.169C22.966 24.265 22.852 24.354 22.743 24.435C22.621 24.526 22.505 24.611 22.403 24.687C21.587 25.3 20.496 25.71 20.496 25.71C20.496 25.71 19.406 25.299 18.588 24.687C18.495 24.617 18.391 24.541 18.281 24.459C18.255 24.44 18.229 24.419 18.202 24.399C18.112 24.332 18.021 24.261 17.926 24.183C17.88 24.145 17.834 24.105 17.787 24.065C17.707 23.996 17.627 23.924 17.546 23.847C17.495 23.798 17.445 23.749 17.394 23.696C17.315 23.614 17.238 23.526 17.162 23.434C17.115 23.378 17.068 23.324 17.022 23.264C16.936 23.151 16.857 23.026 16.779 22.898C16.749 22.848 16.716 22.805 16.687 22.752C16.586 22.569 16.495 22.37 16.417 22.155C16.396 22.098 16.383 22.032 16.365 21.972C16.322 21.835 16.276 21.702 16.245 21.551H16.258C16.188 21.218 16.137 20.864 16.137 20.46V15.283L15.115 13.034L14.91 13.101L14.57 12.216L15.251 12.011L15.254 12.015ZM28.133 24.552C28.064 24.959 27.724 25.232 27.655 25.642C27.589 26.05 27.589 26.256 27.246 26.323C26.906 26.391 26.156 26.46 26.156 26.46C26.156 26.46 26.156 27.072 26.292 27.414C26.428 27.754 25.952 28.368 24.111 29.049C22.272 29.731 21.455 29.663 20.5 29.663C19.545 29.663 18.729 29.731 16.888 29.049C15.049 28.368 14.571 27.755 14.708 27.414C14.845 27.072 14.845 26.46 14.845 26.46C14.845 26.46 14.095 26.391 13.755 26.323C13.414 26.255 13.414 26.05 13.346 25.642C13.277 25.233 12.936 24.961 12.869 24.552C12.8 24.145 12.8 24.007 12.8 24.007C12.8 24.007 12.821 24.053 12.857 24.111C12.828 23.822 13.134 23.533 14.368 23.121C14.368 23.121 14.108 23.911 14.163 24.713C14.893 24.885 15.723 24.997 16.139 25.028C16.966 25.092 17.093 25.3 17.093 25.506C17.093 25.54 17.062 25.571 17.019 25.601C17.001 25.636 16.996 25.663 16.958 25.712C16.742 25.982 16.491 26.385 16.428 26.846C17.069 27.21 17.775 27.574 18.457 27.756C19.48 28.029 20.501 27.961 20.501 27.961C20.501 27.961 21.524 28.03 22.545 27.756C23.228 27.575 23.934 27.209 24.575 26.845C24.511 26.384 24.261 25.982 24.043 25.712C24.005 25.664 24 25.637 23.982 25.602C23.939 25.572 23.908 25.541 23.908 25.507C23.908 25.302 24.036 25.093 24.861 25.029C25.279 24.998 26.108 24.885 26.839 24.713C26.895 23.911 26.633 23.121 26.633 23.121C27.864 23.531 28.172 23.82 28.145 24.108C28.18 24.052 28.2 24.007 28.2 24.007C28.2 24.007 28.2 24.144 28.133 24.552Z" fill="#E3E7EA"/>
<path d="M27.7928 24.4148C27.5438 24.5288 27.2028 24.6278 26.8388 24.7138C26.1088 24.8858 25.2788 24.9978 24.8608 25.0298C24.0358 25.0938 23.9078 25.3018 23.9078 25.5078C23.9078 25.5418 23.9388 25.5728 23.9818 25.6028C24.1978 25.7508 24.8728 25.8368 25.2698 25.7798C25.7468 25.7128 26.2928 25.8478 25.4748 26.3258C25.2028 26.4838 24.8948 26.6648 24.5748 26.8458C23.9328 27.2098 23.2268 27.5748 22.5448 27.7568C21.5238 28.0298 20.5008 27.9618 20.5008 27.9618C20.5008 27.9618 19.4788 28.0308 18.4568 27.7568C17.7748 27.5748 17.0688 27.2108 16.4278 26.8468C16.1078 26.6648 15.7988 26.4848 15.5258 26.3258C14.7078 25.8478 15.2528 25.7128 15.7298 25.7798C16.1278 25.8368 16.8028 25.7508 17.0188 25.6018C17.0618 25.5718 17.0928 25.5408 17.0928 25.5068C17.0928 25.3018 16.9658 25.0928 16.1388 25.0288C15.7218 24.9978 14.8928 24.8848 14.1628 24.7138C13.7988 24.6278 13.4578 24.5288 13.2088 24.4148C13.0168 24.3278 12.9138 24.2008 12.8578 24.1108C12.8218 24.0528 12.8008 24.0068 12.8008 24.0068C12.8008 24.0068 12.8008 24.1438 12.8698 24.5518C12.9368 24.9608 13.2778 25.2328 13.3468 25.6418C13.4148 26.0498 13.4148 26.2558 13.7558 26.3228C14.0958 26.3908 14.8458 26.4598 14.8458 26.4598C14.8458 26.4598 14.8458 27.0718 14.7088 27.4138C14.5718 27.7548 15.0498 28.3688 16.8888 29.0488C18.7298 29.7308 19.5478 29.6628 20.5008 29.6628C21.4538 29.6628 22.2728 29.7308 24.1118 29.0488C25.9528 28.3678 26.4288 27.7528 26.2928 27.4138C26.1568 27.0718 26.1568 26.4598 26.1568 26.4598C26.1568 26.4598 26.9058 26.3908 27.2468 26.3228C27.5898 26.2548 27.5898 26.0498 27.6558 25.6418C27.7248 25.2318 28.0648 24.9588 28.1338 24.5518C28.2008 24.1448 28.2008 24.0068 28.2008 24.0068C28.2008 24.0068 28.1808 24.0518 28.1458 24.1078C28.0898 24.1978 27.9868 24.3268 27.7938 24.4138L27.7928 24.4148ZM23.5668 28.8468C23.1388 29.0068 21.4548 29.2538 20.7048 29.2538C19.9548 29.2538 17.8988 29.0168 17.2988 28.7778C16.9578 28.6398 17.0948 27.8908 17.5028 28.0288C18.2588 28.2808 21.3978 28.9388 23.2938 28.0968C23.9078 27.8218 24.1118 28.6398 23.5668 28.8468Z" fill="#E3E7EA"/>
<path d="M23.2921 28.0971C21.3961 28.9401 18.2571 28.2811 17.5011 28.0291C17.0931 27.8911 16.9551 28.6401 17.2971 28.7781C17.8971 29.0171 19.9541 29.2541 20.7031 29.2541C21.4521 29.2541 23.1381 29.0061 23.5651 28.8471C24.1101 28.6401 23.9061 27.8221 23.2921 28.0971Z" fill="#BDAB92"/>
<path d="M24.8545 15.2849C24.8255 15.2759 23.6885 14.9429 22.6125 14.8089C21.5225 14.6729 20.4995 14.6729 20.4995 14.6729C20.4995 14.6729 19.4775 14.6729 18.3875 14.8089C17.3115 14.9439 16.1735 15.2769 16.1445 15.2849H24.8545Z" fill="#676666"/>
<path d="M13.2073 24.4146C13.4563 24.5286 13.7973 24.6276 14.1613 24.7136C14.1063 23.9106 14.3663 23.1216 14.3663 23.1216C13.1333 23.5326 12.8263 23.8216 12.8553 24.1116C12.9113 24.2016 13.0143 24.3286 13.2063 24.4156L13.2073 24.4146Z" fill="#E20016"/>
<path d="M28.1448 24.1086C28.1718 23.8206 27.8628 23.5316 26.6328 23.1216C26.6328 23.1216 26.8948 23.9116 26.8388 24.7136C27.2028 24.6276 27.5438 24.5286 27.7928 24.4146C27.9868 24.3266 28.0898 24.1986 28.1448 24.1086Z" fill="#E20016"/>
<path d="M15.7302 25.7796C15.2532 25.7126 14.7082 25.8476 15.5262 26.3256C15.7982 26.4846 16.1072 26.6646 16.4282 26.8466C16.4912 26.3856 16.7422 25.9826 16.9582 25.7126C16.9962 25.6646 17.0012 25.6376 17.0192 25.6016C16.8042 25.7506 16.1282 25.8356 15.7302 25.7796Z" fill="#E20016"/>
<path d="M25.2685 25.78C24.8715 25.837 24.1965 25.751 23.9805 25.603C23.9985 25.638 24.0035 25.665 24.0415 25.713C24.2595 25.983 24.5095 26.385 24.5735 26.846C24.8935 26.665 25.2015 26.484 25.4735 26.326C26.2915 25.848 25.7455 25.713 25.2685 25.78Z" fill="#E20016"/>
<path d="M16.1387 20.4638C16.1387 20.8688 16.1887 21.2228 16.2597 21.5548H24.7397C24.8097 21.2218 24.8607 20.8678 24.8607 20.4638V18.4878H16.1397V20.4638H16.1387ZM19.4097 19.5778L20.3647 19.8508L20.0927 18.9648L20.5007 19.2378L20.9097 18.9648L20.6377 19.8508L21.5917 19.5778L21.2517 20.0558L21.5917 20.4638L20.6377 20.1238L20.9787 21.0778L20.5007 20.8058L20.0237 21.0778L20.3647 20.1238L19.4097 20.4638L19.7507 20.0558L19.4097 19.5778Z" fill="#E20016"/>
<path d="M16.2471 21.5552C16.2781 21.7052 16.3241 21.8392 16.3671 21.9762C16.3861 22.0362 16.3991 22.1022 16.4191 22.1592C16.4971 22.3742 16.5881 22.5732 16.6891 22.7562C16.7181 22.8082 16.7511 22.8522 16.7811 22.9022C16.8591 23.0302 16.9381 23.1542 17.0241 23.2682C17.0691 23.3282 17.1171 23.3832 17.1641 23.4382C17.2411 23.5302 17.3171 23.6182 17.3961 23.7002C17.4471 23.7522 17.4971 23.8032 17.5481 23.8512C17.6291 23.9282 17.7081 24.0002 17.7891 24.0692C17.8361 24.1092 17.8821 24.1502 17.9281 24.1872C18.0241 24.2652 18.1151 24.3362 18.2041 24.4032C18.2301 24.4232 18.2581 24.4452 18.2831 24.4632C18.3931 24.5452 18.4981 24.6212 18.5901 24.6912C19.4081 25.3042 20.4981 25.7142 20.4981 25.7142C20.4981 25.7142 21.5881 25.3032 22.4051 24.6912C22.5071 24.6152 22.6231 24.5302 22.7451 24.4392C22.8541 24.3582 22.9681 24.2692 23.0861 24.1732C23.1191 24.1462 23.1521 24.1172 23.1851 24.0902C23.2781 24.0112 23.3711 23.9272 23.4651 23.8372C23.5071 23.7972 23.5481 23.7562 23.5891 23.7142C23.6781 23.6232 23.7631 23.5252 23.8491 23.4222C23.8891 23.3742 23.9291 23.3282 23.9671 23.2782C24.0621 23.1532 24.1521 23.0152 24.2371 22.8712C24.2591 22.8342 24.2831 22.8032 24.3041 22.7652C24.4071 22.5782 24.5001 22.3762 24.5801 22.1552C24.5951 22.1132 24.6041 22.0642 24.6191 22.0212C24.6681 21.8722 24.7171 21.7242 24.7521 21.5592H16.2461L16.2471 21.5552ZM21.3171 21.9622C21.3171 21.9622 21.5211 21.9622 21.5211 22.1692C21.5211 22.3732 21.3171 22.4412 21.3171 22.4412C21.3171 22.4412 21.4541 22.6452 21.6571 22.6452C21.8621 22.6452 21.9301 22.4412 21.9301 22.4412C21.9301 22.4412 21.6571 22.3722 21.6571 22.2372C21.6571 22.0992 21.8621 22.0302 21.8621 22.0302C21.8621 22.0302 21.8621 21.6902 22.0661 21.6902C22.2701 21.6902 22.2711 22.0302 22.2711 22.0302C22.2711 22.0302 22.4751 22.0992 22.4751 22.2372C22.4751 22.3722 22.2031 22.4412 22.2031 22.4412C22.2031 22.4412 22.2721 22.6452 22.4751 22.6452C22.6801 22.6452 22.8161 22.4412 22.8161 22.4412C22.8161 22.4412 22.6121 22.3722 22.6121 22.1692C22.6121 21.9622 22.8161 21.9622 22.8161 21.9622C22.8161 21.6912 23.0891 21.8272 23.0891 21.8272L22.8841 23.2592H21.2491L21.0441 21.8272C21.0441 21.8272 21.3161 21.6912 21.3161 21.9622H21.3171ZM20.0911 24.0082C20.0911 23.8722 20.2961 23.8042 20.2961 23.8042C20.2961 23.8042 20.2961 23.4632 20.5001 23.4632C20.7041 23.4632 20.7041 23.8042 20.7041 23.8042C20.7041 23.8042 20.9091 23.8722 20.9091 24.0082C20.9091 24.1452 20.6371 24.2122 20.6371 24.2122C20.6371 24.2122 20.7041 24.4162 20.9091 24.4162C21.1131 24.4162 21.2501 24.2122 21.2501 24.2122C21.2501 24.2122 21.0451 24.1462 21.0451 23.9402C21.0451 23.7362 21.2501 23.7362 21.2501 23.7362C21.2501 23.4642 21.5221 23.5992 21.5221 23.5992L21.3171 25.0302H19.6821L19.4781 23.5992C19.4781 23.5992 19.7501 23.4642 19.7501 23.7362C19.7501 23.7362 19.9541 23.7362 19.9541 23.9402C19.9541 24.1462 19.7501 24.2122 19.7501 24.2122C19.7501 24.2122 19.8871 24.4162 20.0901 24.4162C20.2931 24.4162 20.3621 24.2122 20.3621 24.2122C20.3621 24.2122 20.0911 24.1462 20.0911 24.0082ZM18.1831 21.9622C18.1831 21.9622 18.3881 21.9622 18.3881 22.1692C18.3881 22.3732 18.1831 22.4412 18.1831 22.4412C18.1831 22.4412 18.3201 22.6452 18.5231 22.6452C18.7281 22.6452 18.7951 22.4412 18.7951 22.4412C18.7951 22.4412 18.5231 22.3722 18.5231 22.2372C18.5231 22.0992 18.7281 22.0302 18.7281 22.0302C18.7281 22.0302 18.7281 21.6902 18.9321 21.6902C19.1361 21.6902 19.1371 22.0302 19.1371 22.0302C19.1371 22.0302 19.3411 22.0992 19.3411 22.2372C19.3411 22.3722 19.0691 22.4412 19.0691 22.4412C19.0691 22.4412 19.1381 22.6452 19.3411 22.6452C19.5461 22.6452 19.6811 22.4412 19.6811 22.4412C19.6811 22.4412 19.4771 22.3722 19.4771 22.1692C19.4771 21.9622 19.6811 21.9622 19.6811 21.9622C19.6811 21.6912 19.9551 21.8272 19.9551 21.8272L19.7511 23.2592H18.1151L17.9111 21.8272C17.9111 21.8272 18.1831 21.6912 18.1831 21.9622Z" fill="#0555A7"/>
<path d="M20.4997 15.2852H16.1437L16.1387 15.2862V18.4882H24.8597V15.2862L24.8547 15.2852H20.4997ZM18.1157 17.1932C18.1157 17.1932 18.1157 16.9212 17.9787 16.9212C17.8437 16.9212 17.8437 17.1932 17.8437 17.1932C18.1157 17.1932 17.8437 17.3982 17.8437 17.3982L18.0477 17.7382L17.7747 17.6692C17.8437 17.8732 17.5707 18.0772 17.5707 18.0772C17.5707 18.0772 17.2987 17.8732 17.3657 17.6692L17.0937 17.7382L17.2977 17.3982C17.2977 17.3982 17.0257 17.1932 17.2977 17.1932C17.2977 17.1932 17.2977 16.9212 17.1607 16.9212C17.0257 16.9212 17.0257 17.1932 17.0257 17.1932C17.0257 17.1932 16.7527 17.0572 16.7527 16.8532C16.7527 16.6492 16.8887 16.3082 17.2297 16.4442C17.2297 16.4442 17.1607 16.3082 17.2297 16.1042C17.2897 15.9202 17.5697 15.7632 17.5697 15.7632C17.5697 15.7632 17.8497 15.9202 17.9107 16.1042C17.9777 16.3092 17.9107 16.4442 17.9107 16.4442C18.2507 16.3082 18.3867 16.6492 18.3877 16.8532C18.3877 17.0582 18.1157 17.1932 18.1157 17.1932ZM21.0447 17.1942C21.0447 17.1942 21.0447 16.9222 20.9087 16.9222C20.7717 16.9222 20.7717 17.1942 20.7717 17.1942C21.0437 17.1942 20.7717 17.3992 20.7717 17.3992L20.9757 17.7392L20.7037 17.6702C20.7727 17.8742 20.4997 18.0782 20.4997 18.0782C20.4997 18.0782 20.2277 17.8742 20.2957 17.6682L20.0237 17.7372L20.2277 17.3972C20.2277 17.3972 19.9557 17.1922 20.2277 17.1922C20.2277 17.1922 20.2277 16.9202 20.0917 16.9202C19.9547 16.9202 19.9547 17.1922 19.9547 17.1922C19.9547 17.1922 19.6827 17.0562 19.6827 16.8522C19.6827 16.6482 19.8197 16.3072 20.1597 16.4432C20.1597 16.4432 20.0927 16.3072 20.1597 16.1032C20.2217 15.9192 20.5007 15.7622 20.5007 15.7622C20.5007 15.7622 20.7807 15.9192 20.8417 16.1032C20.9097 16.3082 20.8417 16.4432 20.8417 16.4432C21.1827 16.3072 21.3187 16.6482 21.3177 16.8532C21.3177 17.0582 21.0457 17.1932 21.0457 17.1932L21.0447 17.1942ZM23.9757 17.1932C23.9757 17.1932 23.9757 16.9212 23.8387 16.9212C23.7027 16.9212 23.7027 17.1932 23.7027 17.1932C23.9747 17.1932 23.7027 17.3982 23.7027 17.3982L23.9067 17.7382L23.6337 17.6692C23.7027 17.8732 23.4297 18.0772 23.4297 18.0772C23.4297 18.0772 23.1567 17.8732 23.2237 17.6692L22.9517 17.7382L23.1567 17.3982C23.1567 17.3982 22.8847 17.1932 23.1567 17.1932C23.1567 17.1932 23.1567 16.9212 23.0197 16.9212C22.8827 16.9212 22.8837 17.1932 22.8837 17.1932C22.8837 17.1932 22.6117 17.0572 22.6117 16.8532C22.6117 16.6492 22.7477 16.3082 23.0887 16.4442C23.0887 16.4442 23.0197 16.3082 23.0887 16.1042C23.1497 15.9202 23.4297 15.7632 23.4297 15.7632C23.4297 15.7632 23.7107 15.9202 23.7707 16.1042C23.8377 16.3092 23.7707 16.4442 23.7707 16.4442C24.1097 16.3082 24.2467 16.6492 24.2477 16.8532C24.2477 17.0582 23.9757 17.1932 23.9757 17.1932Z" fill="#0555A7"/>
<path d="M20.3652 20.1238L20.0232 21.0768L20.5002 20.8048L20.9782 21.0768L20.6372 20.1238L21.5912 20.4638L21.2502 20.0558L21.5912 19.5778L20.6372 19.8508L20.9092 18.9648L20.5002 19.2378L20.0922 18.9648L20.3652 19.8508L19.4102 19.5778L19.7512 20.0558L19.4102 20.4638L20.3652 20.1238Z" fill="#E3E7EA"/>
<path d="M17.9119 16.4442C17.9119 16.4442 17.9789 16.3082 17.9119 16.1042C17.8509 15.9202 17.5709 15.7632 17.5709 15.7632C17.5709 15.7632 17.2909 15.9202 17.2309 16.1042C17.1619 16.3082 17.2309 16.4442 17.2309 16.4442C16.8899 16.3082 16.7539 16.6492 16.7539 16.8532C16.7539 17.0572 17.0269 17.1932 17.0269 17.1932C17.0269 17.1932 17.0269 16.9212 17.1619 16.9212C17.2989 16.9212 17.2989 17.1932 17.2989 17.1932C17.0269 17.1932 17.2989 17.3982 17.2989 17.3982L17.0949 17.7382L17.3669 17.6692C17.2989 17.8732 17.5719 18.0772 17.5719 18.0772C17.5719 18.0772 17.8449 17.8732 17.7759 17.6692L18.0489 17.7382L17.8449 17.3982C17.8449 17.3982 18.1169 17.1932 17.8449 17.1932C17.8449 17.1932 17.8449 16.9212 17.9799 16.9212C18.1169 16.9212 18.1169 17.1932 18.1169 17.1932C18.1169 17.1932 18.3889 17.0572 18.3889 16.8532C18.3889 16.6492 18.2519 16.3082 17.9119 16.4442Z" fill="#EECC00"/>
<path d="M23.7703 16.4442C23.7703 16.4442 23.8373 16.3082 23.7703 16.1042C23.7103 15.9202 23.4293 15.7632 23.4293 15.7632C23.4293 15.7632 23.1493 15.9202 23.0883 16.1042C23.0193 16.3082 23.0883 16.4442 23.0883 16.4442C22.7473 16.3082 22.6113 16.6492 22.6113 16.8532C22.6113 17.0572 22.8833 17.1932 22.8833 17.1932C22.8833 17.1932 22.8833 16.9212 23.0193 16.9212C23.1553 16.9212 23.1563 17.1932 23.1563 17.1932C22.8843 17.1932 23.1563 17.3982 23.1563 17.3982L22.9513 17.7382L23.2233 17.6692C23.1563 17.8732 23.4293 18.0772 23.4293 18.0772C23.4293 18.0772 23.7013 17.8732 23.6333 17.6692L23.9063 17.7382L23.7023 17.3982C23.7023 17.3982 23.9743 17.1932 23.7023 17.1932C23.7023 17.1932 23.7023 16.9212 23.8383 16.9212C23.9753 16.9212 23.9753 17.1932 23.9753 17.1932C23.9753 17.1932 24.2483 17.0572 24.2483 16.8532C24.2483 16.6492 24.1103 16.3082 23.7713 16.4442H23.7703Z" fill="#EECC00"/>
<path d="M20.8406 16.4442C20.8406 16.4442 20.9086 16.3082 20.8406 16.1042C20.7796 15.9202 20.4996 15.7632 20.4996 15.7632C20.4996 15.7632 20.2206 15.9202 20.1586 16.1042C20.0916 16.3082 20.1586 16.4442 20.1586 16.4442C19.8186 16.3082 19.6816 16.6492 19.6816 16.8532C19.6816 17.0572 19.9536 17.1932 19.9536 17.1932C19.9536 17.1932 19.9536 16.9212 20.0906 16.9212C20.2266 16.9212 20.2266 17.1932 20.2266 17.1932C19.9546 17.1932 20.2266 17.3982 20.2266 17.3982L20.0226 17.7382L20.2946 17.6692C20.2266 17.8742 20.4986 18.0792 20.4986 18.0792C20.4986 18.0792 20.7706 17.8752 20.7026 17.6712L20.9746 17.7402L20.7706 17.4002C20.7706 17.4002 21.0426 17.1952 20.7706 17.1952C20.7706 17.1952 20.7706 16.9232 20.9076 16.9232C21.0436 16.9232 21.0436 17.1952 21.0436 17.1952C21.0436 17.1952 21.3156 17.0592 21.3156 16.8552C21.3156 16.6502 21.1806 16.3082 20.8396 16.4452L20.8406 16.4442Z" fill="#EECC00"/>
<path d="M15.1172 13.038L16.1392 15.287L16.1442 15.286C16.1732 15.277 17.3122 14.945 18.3872 14.81C19.4772 14.674 20.4992 14.674 20.4992 14.674C20.4992 14.674 21.5222 14.674 22.6122 14.81C23.6882 14.945 24.8252 15.278 24.8542 15.286L24.8592 15.287L25.8822 13.038L26.0872 13.105L26.4272 12.22L25.7462 12.015L25.6092 12.424L25.3372 12.355L25.4052 11.947L24.7242 11.811L24.6492 12.243L24.3822 12.169V11.675L23.7012 11.607L23.6442 12.033L23.1572 11.948V12.22H23.0202V11.879H22.6802V12.152H22.4752V11.811H22.1352V12.083L21.8632 12.015V11.401L21.1822 11.334V11.742H20.8412V11.334H20.1592V11.742H19.8192V11.334L19.1392 11.401V12.015L18.8662 12.083V11.811H18.5262V12.152H18.3222V11.879H17.9812V12.22H17.8462V11.948L17.3582 12.033L17.3002 11.607L16.6172 11.674V12.167L16.3512 12.242L16.2762 11.811L15.5952 11.947L15.6632 12.355L15.3912 12.424L15.2552 12.015L14.5742 12.22L14.9142 13.105L15.1192 13.038H15.1172ZM24.2952 13.043C24.3332 12.897 24.4822 12.81 24.6272 12.848C24.7742 12.886 24.8602 13.034 24.8232 13.181L24.6512 13.839L24.1232 13.702L24.2952 13.042V13.043ZM20.2272 12.696C20.2272 12.546 20.3492 12.425 20.4992 12.425C20.6492 12.425 20.7712 12.547 20.7722 12.696V13.378H20.2262V12.696H20.2272ZM16.3712 12.848C16.5172 12.81 16.6662 12.897 16.7032 13.044L16.8752 13.704L16.3482 13.84L16.1762 13.181C16.1372 13.034 16.2252 12.886 16.3712 12.848Z" fill="#EECC00"/>
<path d="M19.7521 23.258L19.9561 21.826C19.9561 21.826 19.6821 21.69 19.6821 21.961C19.6821 21.961 19.4781 21.961 19.4781 22.168C19.4781 22.372 19.6821 22.44 19.6821 22.44C19.6821 22.44 19.5471 22.644 19.3421 22.644C19.1381 22.644 19.0701 22.44 19.0701 22.44C19.0701 22.44 19.3421 22.371 19.3421 22.236C19.3421 22.098 19.1381 22.029 19.1381 22.029C19.1381 22.029 19.1381 21.689 18.9331 21.689C18.7281 21.689 18.7291 22.029 18.7291 22.029C18.7291 22.029 18.5241 22.098 18.5241 22.236C18.5241 22.371 18.7961 22.44 18.7961 22.44C18.7961 22.44 18.7291 22.644 18.5241 22.644C18.3201 22.644 18.1841 22.44 18.1841 22.44C18.1841 22.44 18.3891 22.371 18.3891 22.168C18.3891 21.961 18.1841 21.961 18.1841 21.961C18.1841 21.69 17.9121 21.826 17.9121 21.826L18.1161 23.258H19.7521Z" fill="#EECC00"/>
<path d="M22.8859 23.258L23.0909 21.826C23.0909 21.826 22.8179 21.69 22.8179 21.961C22.8179 21.961 22.6139 21.961 22.6139 22.168C22.6139 22.372 22.8179 22.44 22.8179 22.44C22.8179 22.44 22.6819 22.644 22.4769 22.644C22.2729 22.644 22.2049 22.44 22.2049 22.44C22.2049 22.44 22.4769 22.371 22.4769 22.236C22.4769 22.098 22.2729 22.029 22.2729 22.029C22.2729 22.029 22.2729 21.689 22.0679 21.689C21.8629 21.689 21.8639 22.029 21.8639 22.029C21.8639 22.029 21.6589 22.098 21.6589 22.236C21.6589 22.371 21.9319 22.44 21.9319 22.44C21.9319 22.44 21.8639 22.644 21.6589 22.644C21.4549 22.644 21.3189 22.44 21.3189 22.44C21.3189 22.44 21.5229 22.371 21.5229 22.168C21.5229 21.961 21.3189 21.961 21.3189 21.961C21.3189 21.69 21.0469 21.826 21.0469 21.826L21.2519 23.258H22.8859Z" fill="#EECC00"/>
<path d="M20.0905 24.4169C19.8865 24.4169 19.7505 24.2129 19.7505 24.2129C19.7505 24.2129 19.9545 24.1469 19.9545 23.9409C19.9545 23.7369 19.7505 23.7369 19.7505 23.7369C19.7505 23.4649 19.4785 23.5999 19.4785 23.5999L19.6825 25.0309H21.3175L21.5225 23.5999C21.5225 23.5999 21.2505 23.4649 21.2505 23.7369C21.2505 23.7369 21.0455 23.7369 21.0455 23.9409C21.0455 24.1469 21.2505 24.2129 21.2505 24.2129C21.2505 24.2129 21.1135 24.4169 20.9095 24.4169C20.7045 24.4169 20.6375 24.2129 20.6375 24.2129C20.6375 24.2129 20.9095 24.1469 20.9095 24.0089C20.9095 23.8729 20.7045 23.8049 20.7045 23.8049C20.7045 23.8049 20.7045 23.4639 20.5005 23.4639C20.2965 23.4639 20.2965 23.8049 20.2965 23.8049C20.2965 23.8049 20.0915 23.8729 20.0915 24.0089C20.0915 24.1459 20.3635 24.2129 20.3635 24.2129C20.3635 24.2129 20.2945 24.4169 20.0915 24.4169H20.0905Z" fill="#EECC00"/>
<path d="M20.7735 12.6958C20.7735 12.5458 20.6515 12.4248 20.5005 12.4248C20.3495 12.4248 20.2285 12.5468 20.2285 12.6958V13.3778H20.7745L20.7735 12.6958Z" fill="#625200"/>
<path d="M16.8762 13.7037L16.7042 13.0437C16.6672 12.8977 16.5182 12.8097 16.3722 12.8477C16.2262 12.8857 16.1382 13.0337 16.1772 13.1807L16.3492 13.8397L16.8762 13.7037Z" fill="#625200"/>
<path d="M24.825 13.1808C24.862 13.0338 24.776 12.8858 24.629 12.8478C24.483 12.8098 24.335 12.8968 24.297 13.0428L24.125 13.7028L24.653 13.8398L24.825 13.1818V13.1808Z" fill="#625200"/>
</svg>
