<svg width="41" height="41" viewBox="0 0 41 41" fill="none" xmlns="http://www.w3.org/2000/svg">
<path d="M34.5 8.49121H6.5C4.29086 8.49121 2.5 10.2821 2.5 12.4912V28.4912C2.5 30.7003 4.29086 32.4912 6.5 32.4912H34.5C36.7091 32.4912 38.5 30.7003 38.5 28.4912V12.4912C38.5 10.2821 36.7091 8.49121 34.5 8.49121Z" fill="#CC001C"/>
<path d="M21.322 18.1942H2.5V12.4902C2.5 10.2812 4.291 8.49023 6.5 8.49023H21.322V18.1942Z" fill="#2E2C7B"/>
<path d="M6.879 14.8062H6.657L2.5 16.8922V17.0042L6.879 14.8062Z" fill="#E3E7EA"/>
<path d="M21.3223 17.2532V16.9002L17.1483 14.8062H16.4473L21.3223 17.2532Z" fill="#E3E7EA"/>
<path d="M7.35963 11.6522L3.59662 9.76318C3.52262 9.84118 3.45863 9.92818 3.39062 10.0122L6.65663 11.6512H7.35862L7.35963 11.6522Z" fill="#E3E7EA"/>
<path d="M10.168 14.8062L3.41797 18.1942H4.11897L10.334 15.0752V14.8062H10.168Z" fill="#E3E7EA"/>
<path d="M10.3326 11.4952V11.3832L5.11161 8.76221C5.06661 8.77921 5.01861 8.78721 4.97461 8.80521L10.3326 11.4952Z" fill="#E3E7EA"/>
<path d="M17.1478 11.6523L21.3218 9.55829V9.44629L16.9258 11.6523H17.1478Z" fill="#E3E7EA"/>
<path d="M13.4727 15.0754L19.6867 18.1944H19.9097L13.4727 14.9634V15.0754Z" fill="#E3E7EA"/>
<path d="M13.4727 11.652H13.6387L19.9187 8.5H19.2167L13.4727 11.383V11.652Z" fill="#E3E7EA"/>
<path d="M10.167 14.8062H8.763L2.5 17.9502V18.1942H3.417L10.167 14.8062Z" fill="#D00032"/>
<path d="M15.043 14.8062L21.322 17.9582V17.2532L16.447 14.8062H15.043Z" fill="#D00032"/>
<path d="M4.1047 9.31445C3.9227 9.45145 3.7507 9.59845 3.5957 9.76445L7.3587 11.6535H8.7627L4.1047 9.31445Z" fill="#D00032"/>
<path d="M15.0437 11.652L21.3227 8.5H19.9187L13.6387 11.652H15.0437Z" fill="#D00032"/>
<path d="M13.4727 14.8062V14.9632L19.9097 18.1942H20.3897L13.6387 14.8062H13.4727Z" fill="#E3E7EA"/>
<path d="M10.3333 11.6522V11.4952L4.97433 8.80518C4.89133 8.83918 4.81633 8.88718 4.73633 8.92718L10.1673 11.6532H10.3323L10.3333 11.6522Z" fill="#E3E7EA"/>
<path d="M16.9263 11.6521L21.3223 9.44608V9.20508L16.4473 11.6521H16.9263Z" fill="#E3E7EA"/>
<path d="M6.879 14.8062L2.5 17.0042V17.2442L7.359 14.8062H6.879Z" fill="#E3E7EA"/>
<path d="M10.1665 11.6523L4.73552 8.92627C4.51152 9.03727 4.30152 9.16527 4.10352 9.31427L8.76152 11.6523H10.1665Z" fill="#E3E7EA"/>
<path d="M16.447 11.652L21.322 9.205V8.5L15.043 11.652H16.447Z" fill="#E3E7EA"/>
<path d="M2.5 17.2442V17.9502L8.763 14.8062H7.359L2.5 17.2442Z" fill="#E3E7EA"/>
<path d="M13.6387 14.8062L20.3897 18.1942H21.3227V17.9582L15.0437 14.8062H13.6387Z" fill="#E3E7EA"/>
<path d="M21.3216 12.2833V11.6523H17.1476L15.8926 12.2833H21.3216Z" fill="#E3E7EA"/>
<path d="M10.96 11.699V8.5H10.332V11.383L10.96 11.699Z" fill="#E3E7EA"/>
<path d="M10.332 15.0753V18.1943H10.96V14.7603L10.332 15.0753Z" fill="#E3E7EA"/>
<path d="M12.8438 18.1943H13.4718V15.0753L12.8438 14.7603V18.1943Z" fill="#E3E7EA"/>
<path d="M7.91148 12.2833L6.65548 11.6523H2.59348C2.54948 11.8563 2.53248 12.0693 2.52148 12.2833H7.91148Z" fill="#E3E7EA"/>
<path d="M7.912 14.1753H2.5V14.8063H6.656L7.912 14.1753Z" fill="#E3E7EA"/>
<path d="M13.4718 11.383V8.5H12.8438V11.699L13.4718 11.383Z" fill="#E3E7EA"/>
<path d="M17.1476 14.8063H21.3216V14.1753H15.8926L17.1476 14.8063Z" fill="#E3E7EA"/>
<path d="M10.96 11.6993L10.332 11.3833V11.4953L10.96 11.8113V11.6993Z" fill="#E3E7EA"/>
<path d="M13.6377 11.6523H13.4718V11.3833L12.8438 11.6993V12.0513L13.6377 11.6523Z" fill="#E3E7EA"/>
<path d="M15.1895 14.1753L16.4465 14.8063H17.1475L15.8925 14.1753H15.1895Z" fill="#E3E7EA"/>
<path d="M15.6699 12.2833H15.8929L17.1479 11.6523H16.9259L15.6699 12.2833Z" fill="#E3E7EA"/>
<path d="M7.35925 11.6523H6.65625L7.91225 12.2833H8.61525L7.35925 11.6523Z" fill="#E3E7EA"/>
<path d="M7.91125 14.1753L6.65625 14.8063H6.87825L8.13325 14.1753H7.91125Z" fill="#E3E7EA"/>
<path d="M6.65625 14.8063H6.65725L7.91225 14.1753L6.65625 14.8063Z" fill="#E3E7EA"/>
<path d="M10.962 14.4072L10.168 14.8062H10.334V15.0752L10.962 14.7602V14.4072Z" fill="#E3E7EA"/>
<path d="M12.8438 14.6475V14.7605L13.4718 15.0755V14.9635L12.8438 14.6475Z" fill="#E3E7EA"/>
<path d="M15.0422 14.8063H16.4462L15.1892 14.1753H13.7852L15.0422 14.8063Z" fill="#E3E7EA"/>
<path d="M10.0194 12.2833L8.76337 11.6523H7.35938L8.61537 12.2833H10.0194Z" fill="#E3E7EA"/>
<path d="M10.9617 14.1753H10.0197L8.76367 14.8063H10.1677L10.9617 14.4073V14.1753Z" fill="#E3E7EA"/>
<path d="M12.8438 12.2833H13.7858L15.0428 11.6523H13.6377L12.8438 12.0513V12.2833Z" fill="#E3E7EA"/>
<path d="M10.168 11.6521L10.962 12.0511V11.8111L10.334 11.4951V11.6521H10.168Z" fill="#E3E7EA"/>
<path d="M8.61491 14.1753H8.13491H8.13391L6.87891 14.8063H7.35891L8.61491 14.1753Z" fill="#E3E7EA"/>
<path d="M12.8438 14.6472L13.4718 14.9632V14.8062H13.6377L12.8438 14.4072V14.6472Z" fill="#E3E7EA"/>
<path d="M15.6695 12.2833L16.9255 11.6523H16.4465L15.1895 12.2833H15.6695Z" fill="#E3E7EA"/>
<path d="M12.8438 14.1753V14.4073L13.6377 14.8063H15.0428L13.7858 14.1753H12.8438Z" fill="#E3E7EA"/>
<path d="M10.9617 12.0513L10.1677 11.6523H8.76367L10.0197 12.2833H10.9617V12.0513Z" fill="#E3E7EA"/>
<path d="M8.61537 14.1753L7.35938 14.8063H8.76337L10.0194 14.1753H8.61537Z" fill="#E3E7EA"/>
<path d="M15.1892 12.2833L16.4462 11.6523H15.0422L13.7852 12.2833H15.1892Z" fill="#E3E7EA"/>
<path d="M15.893 12.283H12.845V8.5H10.962V12.283H2.522C2.518 12.356 2.5 12.426 2.5 12.5V14.175H10.961V18.194H12.844V14.175H21.322V12.283H15.893Z" fill="#D00032"/>
<path d="M32.467 23.6579C32.343 24.0329 32.001 24.0679 31.809 24.0569C31.9 24.2549 31.958 24.3709 32.146 24.2769C32.382 24.1589 32.734 24.3359 32.852 24.5709C32.971 24.8059 32.706 24.9529 32.412 25.1579C32.118 25.3649 31.766 24.9519 31.618 24.7469C31.579 24.6919 31.457 24.6049 31.301 24.5079C31.143 24.6139 30.973 24.6879 30.878 24.6879C30.671 24.6879 30.613 24.8639 30.613 24.8639C30.613 24.8639 30.849 25.0109 30.731 25.1299C30.644 25.2159 30.387 25.1439 30.255 25.0999H30.098C29.966 25.1439 29.709 25.2159 29.622 25.1299C29.505 25.0119 29.74 24.8639 29.74 24.8639C29.74 24.8639 29.682 24.6879 29.475 24.6879C29.381 24.6879 29.211 24.6149 29.053 24.5089C28.898 24.6049 28.776 24.6919 28.737 24.7469C28.589 24.9529 28.237 25.3649 27.943 25.1579C27.649 24.9519 27.384 24.8049 27.502 24.5709C27.62 24.3349 27.972 24.1589 28.208 24.2769C28.396 24.3709 28.454 24.2549 28.544 24.0569C28.352 24.0679 28.012 24.0319 27.888 23.6579C27.884 23.6469 27.883 23.6399 27.879 23.6289H26.123C26.141 24.1189 26.295 24.8039 27.137 25.1949C27.908 25.5529 28.91 25.9659 29.433 26.2969C29.725 26.4809 30.177 26.7919 30.177 26.7919C30.177 26.7919 30.629 26.4809 30.92 26.2969C31.443 25.9659 32.448 25.5539 33.219 25.1949C34.061 24.8039 34.216 24.1179 34.234 23.6289H32.474C32.471 23.6389 32.469 23.6469 32.465 23.6579H32.467Z" fill="#2E8F22"/>
<path d="M28.6833 24.041C28.6833 24.041 28.6263 24.053 28.5453 24.057C28.4553 24.255 28.3973 24.371 28.2093 24.277C27.9733 24.159 27.6213 24.336 27.5033 24.571C27.3853 24.806 27.6503 24.953 27.9443 25.158C28.2383 25.365 28.5903 24.952 28.7383 24.747C28.7773 24.692 28.8993 24.605 29.0543 24.509C28.8693 24.385 28.6983 24.215 28.6823 24.04L28.6833 24.041Z" fill="#CF1B2B"/>
<path d="M31.3027 24.509C31.4577 24.606 31.5807 24.693 31.6197 24.748C31.7677 24.954 32.1187 25.366 32.4137 25.159C32.7077 24.953 32.9717 24.806 32.8537 24.572C32.7357 24.336 32.3837 24.16 32.1477 24.278C31.9597 24.372 31.9017 24.256 31.8107 24.058C31.7307 24.053 31.6747 24.042 31.6747 24.042C31.6587 24.216 31.4887 24.386 31.3037 24.51L31.3027 24.509Z" fill="#CF1B2B"/>
<path d="M28.1539 21.7771C28.1649 21.6021 28.1069 21.4551 28.0389 21.3301C27.5739 21.4011 27.1259 21.5821 27.0619 21.6891C26.9739 21.8371 27.0319 22.3371 26.9739 22.6601C26.9149 22.9831 26.7679 23.2481 26.9149 23.1891C27.0149 23.1501 27.3549 23.0271 27.6659 22.8801C27.6329 22.7851 27.5959 22.6991 27.5359 22.6291C27.5359 22.6291 28.1239 22.2181 28.1539 21.7771Z" fill="#CF1B2B"/>
<path d="M28.8299 19.895C29.3889 19.542 29.8309 19.484 29.9179 19.689H30.4379C30.5259 19.482 30.9669 19.542 31.5259 19.895C32.0849 20.249 32.4089 19.983 32.5259 19.807C32.5259 19.807 32.5979 19.904 32.6479 20.019C32.7659 19.934 32.8569 19.846 32.8809 19.747C32.9399 19.512 32.7329 19.335 32.3809 19.394C32.0279 19.453 31.8219 19.453 31.6149 19.659C31.4089 19.865 31.3799 19.63 31.2919 19.394C31.2049 19.159 31.3499 19.071 31.3809 18.835C31.4099 18.6 31.3509 17.952 31.1739 17.688C30.9979 17.423 31.0889 17.248 30.7949 17.1C30.5009 16.952 30.1799 16.835 30.1799 16.835C30.1799 16.835 29.8559 16.953 29.5619 17.1C29.2679 17.248 29.3559 17.423 29.1799 17.688C29.0029 17.953 28.9439 18.601 28.9729 18.835C29.0029 19.071 29.1489 19.159 29.0619 19.394C28.9729 19.63 28.9439 19.864 28.7389 19.659C28.5319 19.453 28.3269 19.453 27.9729 19.394C27.6199 19.335 27.4139 19.512 27.4729 19.747C27.4979 19.846 27.5889 19.935 27.7069 20.019C27.7559 19.904 27.8289 19.806 27.8289 19.806C27.9459 19.982 28.2699 20.246 28.8289 19.894L28.8299 19.895ZM30.5609 17.424L30.6189 17.63L30.3249 17.689L30.2669 17.571L30.5609 17.424ZM29.7659 17.424L30.0609 17.571L30.0019 17.689L29.7079 17.63L29.7659 17.424ZM29.5599 17.805L29.5019 17.599L29.7659 17.864L29.8839 18.011L30.0319 17.864L30.1789 18.011L30.3259 17.864L30.4739 18.011L30.5919 17.864L30.8559 17.599L30.7979 17.805L31.0919 18.012L30.8269 17.894L30.6799 17.953L30.5329 18.1L30.3259 18.042L30.1789 18.218L30.0319 18.042L29.8249 18.1L29.6779 17.953L29.5309 17.894L29.2659 18.012L29.5599 17.805Z" fill="#CF1B2B"/>
<path d="M32.8205 22.6291C32.7605 22.6991 32.7235 22.7851 32.6905 22.8801C33.0015 23.0261 33.3405 23.1491 33.4405 23.1891C33.5885 23.2481 33.4435 22.9831 33.3835 22.6601C33.3255 22.3361 33.3835 21.8361 33.2955 21.6891C33.2315 21.5831 32.7845 21.4021 32.3185 21.3311C32.2505 21.4561 32.1915 21.6031 32.2025 21.7781C32.2325 22.2191 32.8205 22.6291 32.8205 22.6291Z" fill="#CF1B2B"/>
<path d="M28.5468 24.0566C28.6268 24.0526 28.6848 24.0406 28.6848 24.0406C28.7008 24.2156 28.8708 24.3856 29.0568 24.5096C29.2148 24.6156 29.3848 24.6886 29.4788 24.6886C29.6858 24.6886 29.7438 24.8646 29.7438 24.8646C29.7438 24.8646 29.5088 25.0126 29.6258 25.1306C29.7128 25.2166 29.9698 25.1446 30.1018 25.1006H29.8868V24.8366C29.8868 24.8366 29.8218 24.6756 29.7048 24.5926C29.0928 24.4556 28.9168 24.1906 28.9458 24.1326C28.9458 24.1326 29.2098 24.0736 29.1518 23.8976C29.0928 23.7206 28.8868 23.7796 28.8868 23.7796C28.8868 23.7796 28.8278 23.6026 28.6508 23.6316C28.4748 23.6606 28.5328 23.8666 28.5328 23.8666C28.5328 23.8666 28.2098 24.0146 28.0328 23.6316C28.0208 23.6146 28.0108 23.5956 28.0038 23.5736C27.9538 23.4226 27.9188 23.2636 27.8758 23.1156C27.8758 23.1126 27.8778 23.1096 27.8788 23.1066C27.8198 22.9366 27.7498 22.7706 27.6798 22.6886C27.6798 22.6886 28.3198 22.2566 28.3538 21.8196L28.3168 21.4336C28.2358 21.1436 28.0628 21.0136 28.0628 21.0136C28.0628 21.0136 27.7688 20.8066 27.6508 20.8066C27.5688 20.8066 27.4238 20.8856 27.3978 20.8686C27.3568 21.0446 27.5008 21.2186 27.5958 21.2186C27.7138 21.2186 27.8018 21.0126 27.8018 21.0126C27.8018 21.0126 27.9358 21.1396 28.0398 21.3296C28.1078 21.4546 28.1658 21.6016 28.1548 21.7766C28.1248 22.2176 27.5368 22.6286 27.5368 22.6286C27.5968 22.6976 27.6338 22.7836 27.6668 22.8796C27.7298 23.0606 27.7728 23.2966 27.8818 23.6296C27.8848 23.6396 27.8868 23.6476 27.8908 23.6586C28.0148 24.0326 28.3548 24.0676 28.5468 24.0576V24.0566Z" fill="#FFE000"/>
<path d="M32.9152 20.7766C32.9302 20.7946 32.9262 20.7955 32.9362 20.8085C32.9262 20.7885 32.9272 20.7676 32.9112 20.7486C32.7862 20.6026 32.6802 20.5146 32.6582 20.4146C32.6642 20.5286 32.7802 20.6185 32.9162 20.7775L32.9152 20.7766Z" fill="#FFE000"/>
<path d="M27.7029 20.4106C27.6829 20.5126 27.5749 20.6006 27.4489 20.7486C27.4299 20.7696 27.4309 20.7936 27.4199 20.8156C27.4299 20.8016 27.4259 20.7986 27.4449 20.7766C27.5829 20.6166 27.6979 20.5256 27.7029 20.4106Z" fill="#FFE000"/>
<path d="M27.7988 20.0128C27.9158 20.1898 28.4078 20.4408 28.8278 20.1898C29.2688 19.9238 29.3858 19.9828 29.5048 19.9238C29.5048 19.9238 29.4328 20.1288 29.5928 20.1898C29.8288 20.2778 29.9168 20.0708 29.9168 20.0708H30.4448C30.4448 20.0708 30.5348 20.2778 30.7688 20.1898C30.9288 20.1288 30.8568 19.9238 30.8568 19.9238C30.9748 19.9828 31.0928 19.9238 31.5338 20.1898C31.9538 20.4408 32.4448 20.1898 32.5628 20.0128C32.5628 20.0128 32.6538 20.0698 32.6868 20.1598C32.6828 20.1118 32.6698 20.0658 32.6498 20.0188C32.6008 19.9038 32.5278 19.8068 32.5278 19.8068C32.4098 19.9828 32.0868 20.2478 31.5278 19.8948C30.9688 19.5418 30.5278 19.4828 30.4398 19.6888H29.9198C29.8328 19.4828 29.3908 19.5418 28.8318 19.8948C28.2728 20.2478 27.9488 19.9828 27.8318 19.8068C27.8318 19.8068 27.7588 19.9048 27.7098 20.0198C27.6898 20.0678 27.6778 20.1148 27.6738 20.1638C27.7058 20.0718 27.7988 20.0128 27.7988 20.0128Z" fill="#FFE000"/>
<path d="M32.7079 20.8057C32.5899 20.8057 32.2959 21.0127 32.2959 21.0127C32.2959 21.0127 31.9729 21.2487 32.0019 21.8077C32.0259 22.2487 32.6789 22.6887 32.6789 22.6877C32.5029 22.8957 32.4619 23.2527 32.3559 23.5717C32.3489 23.5937 32.3389 23.6127 32.3269 23.6297C32.1499 24.0127 31.8269 23.8647 31.8269 23.8647C31.8269 23.8647 31.8849 23.6587 31.7089 23.6297C31.5319 23.6007 31.4729 23.7777 31.4729 23.7777C31.4729 23.7777 31.2669 23.7177 31.2079 23.8947C31.1499 24.0717 31.4139 24.1307 31.4139 24.1307C31.4429 24.1897 31.2669 24.4537 30.6549 24.5907C30.5369 24.6757 30.4729 24.8367 30.4729 24.8367V25.1007H30.2559C30.3879 25.1447 30.6449 25.2167 30.7319 25.1307C30.8499 25.0117 30.6139 24.8647 30.6139 24.8647C30.6139 24.8647 30.6719 24.6887 30.8789 24.6887C30.9729 24.6887 31.1429 24.6147 31.3019 24.5087C31.4869 24.3847 31.6569 24.2147 31.6729 24.0407C31.6729 24.0407 31.7289 24.0517 31.8089 24.0567C32.0009 24.0677 32.3429 24.0327 32.4669 23.6577C32.4709 23.6467 32.4719 23.6397 32.4759 23.6287C32.5849 23.2957 32.6279 23.0607 32.6899 22.8797C32.7229 22.7837 32.7599 22.6977 32.8199 22.6287C32.8199 22.6287 32.2319 22.2177 32.2019 21.7767C32.1909 21.6017 32.2489 21.4547 32.3179 21.3297C32.4219 21.1387 32.5569 21.0117 32.5569 21.0117C32.5569 21.0117 32.6459 21.2177 32.7629 21.2177C32.8579 21.2177 33.0019 21.0437 32.9609 20.8677C32.9319 20.8827 32.7889 20.8057 32.7079 20.8057Z" fill="#FFE000"/>
<path d="M27.6501 20.8059C27.7681 20.8059 28.0621 21.0129 28.0621 21.0129C28.0621 21.0129 28.2361 21.1429 28.3161 21.4329L28.2371 20.6009L28.4721 20.6599C28.4721 20.6599 28.6201 20.5129 28.6201 20.4829C28.6201 20.4529 28.7971 20.5709 28.7971 20.5709L29.0031 20.4239L29.3851 20.4539L29.6791 21.0419L29.9711 21.2369L29.8851 20.6889L30.2381 20.6009L30.7161 21.4439C30.7481 21.4039 30.7791 21.3629 30.8261 21.3359C31.0911 21.1889 31.2371 21.1889 31.3551 21.3359C31.4551 21.4619 31.7291 21.6099 32.0091 21.5929C32.0021 21.6579 31.9981 21.7289 32.0021 21.8069C31.9731 21.2479 32.2961 21.0119 32.2961 21.0119C32.2961 21.0119 32.5901 20.8049 32.7081 20.8049C32.7891 20.8049 32.9311 20.8819 32.9601 20.8669C32.9701 20.8619 32.9581 20.8399 32.9351 20.8069C32.9261 20.7939 32.9301 20.7929 32.9141 20.7749C32.7771 20.6159 32.6621 20.5259 32.6561 20.4119C32.6541 20.3789 32.6591 20.3439 32.6791 20.3039C32.7071 20.2479 32.7011 20.1999 32.6861 20.1579C32.6531 20.0679 32.5621 20.0109 32.5621 20.0109C32.4441 20.1879 31.9531 20.4389 31.5331 20.1879C31.0921 19.9219 30.9741 19.9809 30.8561 19.9219C30.8561 19.9219 30.9281 20.1269 30.7681 20.1879C30.5331 20.2759 30.4441 20.0689 30.4441 20.0689H29.9161C29.9161 20.0689 29.8271 20.2759 29.5921 20.1879C29.4321 20.1269 29.5041 19.9219 29.5041 19.9219C29.3851 19.9809 29.2681 19.9219 28.8271 20.1879C28.4071 20.4389 27.9151 20.1879 27.7981 20.0109C27.7981 20.0109 27.7041 20.0699 27.6721 20.1619C27.6581 20.2039 27.6521 20.2499 27.6801 20.3049C27.6991 20.3439 27.7031 20.3769 27.7021 20.4099C27.6981 20.5249 27.5821 20.6149 27.4441 20.7759C27.4251 20.7979 27.4281 20.8009 27.4191 20.8149C27.4011 20.8409 27.3891 20.8629 27.3971 20.8669C27.4241 20.8839 27.5681 20.8059 27.6501 20.8059Z" fill="#64B4D1"/>
<path d="M28.2387 22.5429C28.3117 22.5639 28.3737 22.6019 28.4317 22.6409L28.3537 21.8179C28.3197 22.2549 27.6797 22.6869 27.6797 22.6869C27.7497 22.7699 27.8197 22.9349 27.8787 23.1049C27.9507 22.8259 28.0857 22.4989 28.2387 22.5429Z" fill="#64B4D1"/>
<path d="M29.1816 21.041L29.6656 22.804C29.6656 22.804 29.6766 22.804 29.6816 22.806C29.7166 22.828 29.7346 22.857 29.7586 22.883L29.8776 22.252L29.1816 21.041Z" fill="#E4CB5E"/>
<path d="M29.2274 22.905C29.3034 22.85 29.3964 22.795 29.4964 22.779C29.4564 22.635 29.0904 21.334 29.0634 21.306C29.0384 21.281 29.1844 22.537 29.2274 22.905Z" fill="#E4CB5E"/>
<path d="M28.6813 22.7488C28.7453 22.7038 28.9853 22.6638 29.0713 22.7978L28.9453 20.9828L29.0633 20.6598L29.2993 20.9538L29.9753 21.8718V21.7478L30.0343 21.6308L29.9723 21.2368L29.6803 21.0418L29.3863 20.4538L29.0043 20.4238L28.7983 20.5708C28.7983 20.5708 28.6213 20.4528 28.6213 20.4828C28.6213 20.5128 28.4733 20.6598 28.4733 20.6598L28.2383 20.6008L28.3173 21.4328L28.3543 21.8188L28.4323 22.6418C28.5383 22.7138 28.6243 22.7868 28.6813 22.7488Z" fill="#E4CB5E"/>
<path d="M25.6865 16.1968V23.7178C25.6865 24.2478 25.8075 24.9748 26.7745 25.4238C27.5985 25.8068 28.8255 26.2478 29.3845 26.6008C29.6975 26.7968 30.1795 27.1298 30.1795 27.1298C30.1795 27.1298 30.6625 26.7968 30.9745 26.6008C31.5335 26.2478 32.6745 25.8068 33.4975 25.4238C34.4655 24.9738 34.5855 24.2478 34.5855 23.7178V16.1968H25.6865ZM34.2405 23.6298H34.2365C34.2185 24.1188 34.0635 24.8048 33.2215 25.1958C32.4505 25.5538 31.4465 25.9668 30.9225 26.2978C30.6315 26.4818 30.1795 26.7928 30.1795 26.7928C30.1795 26.7928 29.7275 26.4818 29.4355 26.2978C28.9125 25.9668 27.9105 25.5548 27.1395 25.1958C26.2975 24.8048 26.1435 24.1198 26.1255 23.6298H26.1215V16.6298H34.2395L34.2405 23.6298Z" fill="black"/>
<path d="M29.9738 21.7466V21.8706L29.9838 21.8846L31.2678 21.5996L31.3108 21.6636L31.3258 21.6586L31.2378 21.4236L30.7378 21.4826L30.7158 21.4436L30.2378 20.6006L29.8848 20.6886L29.9708 21.2366L30.0318 21.6296L29.9738 21.7466Z" fill="black"/>
<path d="M29.8773 22.2527L29.9453 21.8937L29.9853 21.8847L29.9753 21.8707L29.2993 20.9527L29.0633 20.6587L28.9453 20.9817L29.0713 22.7967C29.1013 22.8447 29.1143 22.9117 29.0913 23.0117C29.0913 23.0117 29.1503 22.9597 29.2273 22.9037C29.1843 22.5347 29.0383 21.2797 29.0633 21.3047C29.0903 21.3327 29.4563 22.6337 29.4963 22.7777C29.5543 22.7677 29.6113 22.7757 29.6643 22.8037L29.1803 21.0407L29.8763 22.2527H29.8773Z" fill="black"/>
<path d="M31.3109 21.6636L31.2679 21.5996L29.9829 21.8846L29.9429 21.8936L29.8749 22.2526L29.7559 22.8836C29.8959 23.0386 29.8839 23.2476 29.8839 23.2476L29.9739 23.4246C29.9739 23.4246 30.4749 23.5136 30.6799 23.1886C30.8859 22.8656 31.3569 22.5126 31.4749 22.8656C31.4749 22.8656 31.6389 22.6206 31.8439 22.5206L31.8579 22.4816L31.3129 21.6636H31.3109Z" fill="#9F5A2B"/>
<path d="M32.6789 22.6896C32.4989 22.8996 32.4589 23.2496 32.3589 23.5696C32.3489 23.5896 32.3389 23.6095 32.3289 23.6295C32.1489 24.0095 31.8289 23.8596 31.8289 23.8596C31.8289 23.8596 31.8889 23.6595 31.7089 23.6295C31.5289 23.5995 31.4689 23.7796 31.4689 23.7796C31.4689 23.7796 31.2689 23.7195 31.2089 23.8895C31.1489 24.0695 31.4189 24.1295 31.4189 24.1295C31.4389 24.1895 31.2689 24.4496 30.6589 24.5896C30.5389 24.6796 30.4689 24.8396 30.4689 24.8396V25.0996H29.8889V24.8396C29.8889 24.8396 29.8189 24.6796 29.6989 24.5896C29.0889 24.4596 28.9189 24.1895 28.9489 24.1295C28.9489 24.1295 29.2089 24.0696 29.1489 23.8996C29.0889 23.7196 28.8889 23.7796 28.8889 23.7796C28.8889 23.7796 28.8289 23.5995 28.6489 23.6295C28.4689 23.6595 28.5289 23.8696 28.5289 23.8696C28.5289 23.8696 28.2089 24.0095 28.0289 23.6295C28.0189 23.6095 28.0089 23.5896 27.9989 23.5696C27.9489 23.4196 27.9189 23.2596 27.8789 23.1096C27.9489 22.8296 28.0889 22.4996 28.2389 22.5396C28.3089 22.5596 28.3689 22.5995 28.4289 22.6395C28.5389 22.7095 28.6189 22.7896 28.6789 22.7496C28.7389 22.6996 28.9789 22.6595 29.0689 22.7995C29.0989 22.8495 29.1089 22.9096 29.0889 23.0096C29.0889 23.0096 29.1489 22.9596 29.2289 22.9096C29.2989 22.8496 29.3989 22.7996 29.4989 22.7796C29.5489 22.7696 29.6089 22.7795 29.6589 22.7995C29.6689 22.8095 29.6789 22.7996 29.6789 22.8096C29.7089 22.8296 29.7289 22.8595 29.7589 22.8795C29.8989 23.0395 29.8789 23.2496 29.8789 23.2496L29.9689 23.4296C29.9689 23.4296 30.4789 23.5096 30.6789 23.1896C30.8889 22.8696 31.3589 22.5096 31.4789 22.8696C31.4789 22.8696 31.6389 22.6196 31.8389 22.5196L31.8589 22.4796L31.3089 21.6596H31.3289L31.2389 21.4196L30.7389 21.4796L30.7189 21.4396C30.7489 21.3996 30.7789 21.3596 30.8289 21.3396C31.0889 21.1896 31.2389 21.1896 31.3589 21.3396C31.4589 21.4596 31.7289 21.6096 32.0089 21.5896C31.9989 21.6596 31.9989 21.7296 31.9989 21.8096C32.0289 22.1896 32.5089 22.5596 32.6389 22.6596C32.6589 22.6796 32.6789 22.6896 32.6789 22.6896Z" fill="#CCCCCC"/>
<path d="M26.1221 23.6289H27.8821C27.7731 23.2959 27.7301 23.0609 27.6671 22.8789C27.3561 23.0259 27.0151 23.1489 26.9161 23.1879C26.7691 23.2469 26.9161 22.9819 26.9751 22.6589C27.0331 22.3349 26.9751 21.8349 27.0631 21.6879C27.1271 21.5819 27.5751 21.4009 28.0401 21.3289C27.9361 21.1389 27.8021 21.0119 27.8021 21.0119C27.8021 21.0119 27.7141 21.2179 27.5961 21.2179C27.5001 21.2179 27.3571 21.0439 27.3981 20.8679C27.3901 20.8629 27.4031 20.8419 27.4201 20.8159C27.4311 20.7939 27.4301 20.7699 27.4491 20.7489C27.5751 20.6009 27.6831 20.5129 27.7031 20.4109C27.7041 20.3789 27.7001 20.3449 27.6811 20.3059C27.6531 20.2509 27.6581 20.2049 27.6731 20.1629C27.6771 20.1139 27.6891 20.0669 27.7091 20.0189C27.5911 19.9339 27.5001 19.8459 27.4751 19.7469C27.4161 19.5119 27.6231 19.3349 27.9751 19.3939C28.3281 19.4529 28.5341 19.4529 28.7411 19.6589C28.9471 19.8649 28.9761 19.6299 29.0641 19.3939C29.1511 19.1589 29.0051 19.0709 28.9751 18.8349C28.9461 18.5999 29.0051 17.9519 29.1821 17.6879C29.3581 17.4229 29.2701 17.2479 29.5641 17.0999C29.8581 16.9529 30.1821 16.8349 30.1821 16.8349C30.1821 16.8349 30.5031 16.9519 30.7971 17.0999C31.0911 17.2479 31.0001 17.4229 31.1761 17.6879C31.3531 17.9529 31.4121 18.6009 31.3831 18.8349C31.3521 19.0709 31.2071 19.1589 31.2941 19.3939C31.3831 19.6299 31.4121 19.8639 31.6171 19.6589C31.8241 19.4529 32.0291 19.4529 32.3831 19.3939C32.7361 19.3349 32.9421 19.5119 32.8831 19.7469C32.8581 19.8459 32.7681 19.9339 32.6501 20.0189C32.6701 20.0659 32.6821 20.1119 32.6871 20.1599C32.7031 20.2019 32.7091 20.2499 32.6801 20.3059C32.6601 20.3459 32.6551 20.3799 32.6571 20.4139C32.6791 20.5149 32.7861 20.6019 32.9101 20.7479C32.9271 20.7669 32.9251 20.7879 32.9351 20.8079C32.9581 20.8399 32.9701 20.8629 32.9601 20.8679C33.0001 21.0439 32.8571 21.2179 32.7621 21.2179C32.6451 21.2179 32.5561 21.0119 32.5561 21.0119C32.5561 21.0119 32.4221 21.1389 32.3171 21.3299C32.7821 21.4009 33.2301 21.5819 33.2941 21.6879C33.3821 21.8359 33.3241 22.3359 33.3821 22.6589C33.4421 22.9819 33.5881 23.2469 33.4391 23.1879C33.3391 23.1479 33.0001 23.0259 32.6891 22.8789C32.6261 23.0599 32.5831 23.2949 32.4751 23.6279H34.2391V16.6279H26.1211V23.6279L26.1221 23.6289Z" fill="white"/>
<path d="M30.0629 17.5708L29.7679 17.4238L29.7109 17.6288L30.0039 17.6878L30.0629 17.5708Z" fill="white"/>
<path d="M30.6215 17.6288L30.5635 17.4238L30.2695 17.5708L30.3275 17.6878L30.6215 17.6288Z" fill="white"/>
<path d="M29.6796 17.9526L29.8266 18.0996L30.0326 18.0416L30.1796 18.2176L30.3266 18.0416L30.5336 18.0996L30.6796 17.9526L30.8266 17.8936L31.0926 18.0116L30.7976 17.8046L30.8556 17.5996L30.5926 17.8646L30.4746 18.0116L30.3266 17.8646L30.1796 18.0116L30.0326 17.8646L29.8856 18.0116L29.7676 17.8646L29.5036 17.5996L29.5616 17.8046L29.2676 18.0116L29.5326 17.8936L29.6796 17.9526Z" fill="black"/>
</svg>
