<svg width="41" height="41" viewBox="0 0 41 41" fill="none" xmlns="http://www.w3.org/2000/svg">
<path d="M34.5 8.5H6.5C4.29086 8.5 2.5 10.2909 2.5 12.5V28.5C2.5 30.7091 4.29086 32.5 6.5 32.5H34.5C36.7091 32.5 38.5 30.7091 38.5 28.5V12.5C38.5 10.2909 36.7091 8.5 34.5 8.5Z" fill="#F2E000"/>
<path d="M2.5 12.4962V16.4212L38.5 25.2472V19.5802L2.866 10.8442C2.636 11.3492 2.5 11.9052 2.5 12.4962Z" fill="#E3E7EA"/>
<path d="M2.5 21.4199L38.133 30.1569C38.363 29.6519 38.5 29.0959 38.5 28.5049V25.2469L2.5 16.4199V21.4199Z" fill="black"/>
<path d="M24.2462 17.416C24.6892 18.104 24.9452 18.923 24.9452 19.802C24.9452 22.242 22.9672 24.221 20.5272 24.221C18.0872 24.221 16.1082 22.242 16.1082 19.802C16.1082 18.923 16.3652 18.104 16.8072 17.416C15.9692 18.321 15.4562 19.532 15.4562 20.863C15.4562 23.664 17.7262 25.934 20.5272 25.934C23.3282 25.934 25.5982 23.663 25.5982 20.863C25.5982 19.532 25.0852 18.321 24.2462 17.416ZM12.3532 17.987C12.8902 18.105 13.0092 18.31 12.9822 18.745C12.9822 18.745 13.2552 18.798 13.4452 19.07C13.6362 19.342 13.8122 19.613 14.1382 19.722C14.4652 19.831 14.7232 20.047 14.7232 20.7V23.12C14.7232 23.12 14.6632 23.365 14.7992 23.69C14.9352 24.017 14.8582 24.479 13.8522 24.479C12.8462 24.479 12.8402 24.044 12.9752 23.718C13.1112 23.392 13.2682 23.119 13.2682 23.119V21.039C13.2682 21.039 13.0722 20.754 12.8002 20.563C12.5282 20.373 11.9542 19.693 11.8732 19.04C11.7912 18.389 11.6392 17.831 12.3532 17.987ZM28.6102 17.987C28.0732 18.105 27.9542 18.31 27.9812 18.745C27.9812 18.745 27.7072 18.798 27.5172 19.07C27.3272 19.342 27.2492 19.613 26.9232 19.722C26.5972 19.831 26.4382 20.047 26.4382 20.7V23.12C26.4382 23.12 26.3992 23.365 26.2622 23.69C26.1262 24.017 26.1552 24.479 27.1602 24.479C28.1652 24.479 28.2472 24.044 28.1112 23.718C27.9752 23.392 27.8922 23.119 27.8922 23.119V21.039C27.8922 21.039 27.9892 20.754 28.2602 20.563C28.5332 20.373 29.0562 19.693 29.1382 19.04C29.2212 18.389 29.3232 17.831 28.6102 17.987Z" fill="#CF1B26"/>
<path d="M26.0846 27.2189C26.0846 27.2189 26.4096 26.5669 26.0566 26.4309C25.7026 26.2949 24.9966 26.4309 24.9966 26.4309C24.9966 26.4309 25.5856 25.6839 25.0226 25.3699C24.4616 25.0569 24.0756 25.8319 23.5836 26.1849C23.0926 26.5389 22.5976 26.7339 21.9976 26.9329C21.3996 27.1319 20.6196 27.2179 20.6196 27.2179C20.6196 27.2179 19.7446 27.1319 19.1466 26.9329C18.5476 26.7339 17.9586 26.5379 17.4666 26.1849C16.9746 25.8319 16.5896 25.0559 16.0276 25.3699C15.4656 25.6829 16.0556 26.4309 16.0556 26.4309C16.0556 26.4309 15.3486 26.2949 14.9956 26.4309C14.6416 26.5669 14.9696 27.2189 14.9696 27.2189C14.1816 27.3279 14.4566 27.8179 14.4566 27.8179C14.4566 27.8179 14.6526 27.5649 15.4686 27.5649C16.2846 27.5649 16.6216 28.3619 17.1656 28.3619C17.7096 28.3619 17.7056 27.8449 17.7056 27.8449C18.7126 28.6879 20.6206 28.6879 20.6206 28.6879C20.6206 28.6879 22.4346 28.6879 23.4406 27.8449C23.4406 27.8449 23.3896 28.3619 23.9336 28.3619C24.4776 28.3619 24.7906 27.5649 25.6076 27.5649C26.4246 27.5649 26.6076 27.8179 26.6076 27.8179C26.6076 27.8179 26.8746 27.3289 26.0846 27.2189ZM23.9246 16.6479C23.3266 16.4849 22.6866 15.7239 21.8436 15.7239C21.0006 15.7239 20.6186 16.3769 20.6186 16.3769C20.6186 16.3769 20.1516 15.7239 19.3086 15.7239C18.4656 15.7239 17.7396 16.4849 17.1406 16.6479C16.5426 16.8119 15.9716 16.6479 15.9716 16.6479C16.1076 17.2729 16.8066 17.4159 16.8066 17.4159C16.8806 17.8039 17.4656 17.8169 17.4656 17.8169C17.5446 18.2789 18.3926 17.9609 18.3926 17.9609C18.3926 17.9609 18.3396 18.4159 18.7746 18.3609C19.2096 18.3069 19.9466 17.5449 19.9466 17.5449C19.9466 17.5449 19.7346 17.7629 19.7626 17.9599C19.7896 18.1579 20.1276 18.1429 20.1276 18.1429C19.8286 18.4419 20.3686 18.7959 20.3686 18.7959L20.6186 18.6059L20.7836 18.7959C20.7836 18.7959 21.2806 18.4429 20.9806 18.1429C20.9806 18.1429 21.2966 18.1579 21.3246 17.9599C21.3516 17.7619 21.1296 17.5449 21.1296 17.5449C21.1296 17.5449 21.8616 18.3069 22.2966 18.3609C22.7326 18.4149 22.6766 17.9609 22.6766 17.9609C22.6766 17.9609 23.5236 18.2799 23.6036 17.8169C23.6036 17.8169 24.1876 17.8029 24.2606 17.4159C24.2606 17.4159 24.9596 17.2729 25.0956 16.6479C25.0956 16.6479 24.5236 16.8119 23.9246 16.6479ZM19.6706 14.2009C19.6706 14.0799 20.0536 13.9829 20.5276 13.9829C21.0016 13.9829 21.3846 14.0799 21.3846 14.2009C21.3846 14.3209 21.0006 14.4179 20.5276 14.4179C20.0536 14.4189 19.6706 14.3209 19.6706 14.2009Z" fill="#CF1B26"/>
<path d="M21.5314 14.636C21.5044 14.445 21.3894 14.418 21.3894 14.418C21.3894 14.418 20.9404 14.534 20.5264 14.534C20.1124 14.534 19.6694 14.418 19.6694 14.418C19.6694 14.418 19.5604 14.445 19.5334 14.636C19.5064 14.826 19.3164 15.411 19.3164 15.411L19.6704 15.023L19.9694 15.411L20.2684 15.023L20.5264 15.411L20.7914 15.023L21.0944 15.411L21.3944 15.023L21.7494 15.411C21.7494 15.411 21.5594 14.827 21.5314 14.636ZM20.6184 12.312V13.372L21.3474 13.685L21.0664 13.25L21.6384 12.977L20.6184 12.312ZM20.3084 15.411H20.7574V16.553H20.3084V15.411ZM21.1244 23.487C21.1244 23.487 21.4184 23.08 21.3574 22.773C21.2964 22.467 21.0114 21.984 20.9304 21.675C20.8484 21.366 21.1284 21.08 21.1284 21.08L20.9114 21.039C20.9114 21.039 21.2034 20.774 21.1284 20.488C21.0534 20.202 20.9114 19.836 20.8704 19.51C20.8294 19.183 21.1284 18.796 21.1284 18.796L20.7414 19.02L20.5304 18.796L20.3254 19.02L19.9454 18.796C19.9454 18.796 20.2444 19.183 20.2034 19.51C20.1624 19.836 20.0194 20.203 19.9454 20.488C19.8704 20.774 20.1634 21.039 20.1634 21.039L19.9454 21.08C19.9454 21.08 20.2244 21.366 20.1424 21.675C20.0614 21.984 19.7754 22.467 19.7144 22.773C19.6534 23.08 19.9454 23.487 19.9454 23.487L19.3614 23.365C19.6804 24.017 20.0534 24.098 20.5304 24.098C21.0074 24.098 21.3864 24.017 21.7054 23.365L21.1244 23.487Z" fill="#CF1B26"/>
</svg>
