<svg width="41" height="41" viewBox="0 0 41 41" fill="none" xmlns="http://www.w3.org/2000/svg">
<path d="M17.5804 23.7672L17.0464 24.1202C17.0104 24.1442 17.0014 24.1932 17.0244 24.2272C17.0484 24.2622 17.0954 24.2732 17.1314 24.2502L17.8984 23.7422C17.7944 23.7552 17.6904 23.7672 17.5804 23.7672Z" fill="#AA5520"/>
<path d="M16.5927 23.6799C16.5547 23.6989 16.5397 23.7459 16.5597 23.7839C16.5777 23.8229 16.6247 23.8379 16.6627 23.8179L16.9447 23.6739C16.8837 23.6499 16.8237 23.6239 16.7727 23.5879L16.5927 23.6799Z" fill="#AA5520"/>
<path d="M17.4899 24.5481C17.4619 24.5801 17.4649 24.6301 17.4969 24.6591C17.5279 24.6861 17.5769 24.6831 17.6059 24.6511L18.5319 23.5991C18.4439 23.6301 18.3499 23.6561 18.2539 23.6811L17.4899 24.5481Z" fill="#AA5520"/>
<path d="M18.7529 23.5091L18.4629 24.0771L19.0339 24.3881L19.2449 24.0961L19.3419 24.1951L19.8029 23.2401C19.6929 23.1971 19.5889 23.1431 19.4889 23.0811C19.3219 23.2091 19.0679 23.3701 18.7529 23.5091Z" fill="#AA5520"/>
<path d="M24.3376 23.8179C24.3756 23.8369 24.4226 23.8219 24.4416 23.7839C24.4606 23.7459 24.4456 23.6989 24.4086 23.6799L24.2286 23.5879C24.1776 23.6239 24.1186 23.6499 24.0566 23.6739L24.3386 23.8179H24.3376Z" fill="#AA5520"/>
<path d="M23.1026 23.7422L23.8686 24.2502C23.9046 24.2732 23.9526 24.2622 23.9756 24.2272C23.9996 24.1932 23.9896 24.1442 23.9536 24.1202L23.4196 23.7672C23.3096 23.7672 23.2056 23.7552 23.1016 23.7422H23.1026Z" fill="#AA5520"/>
<path d="M23.3948 24.6511C23.4218 24.6821 23.4708 24.6861 23.5028 24.6591C23.5348 24.6301 23.5378 24.5811 23.5098 24.5481L22.7458 23.6811C22.6498 23.6571 22.5567 23.6311 22.4688 23.6001L23.3948 24.6511Z" fill="#AA5520"/>
<path d="M21.1983 23.241L21.6583 24.195L21.7553 24.096L21.9653 24.388L22.5363 24.077L22.2463 23.51C21.9313 23.372 21.6783 23.21 21.5113 23.082C21.4113 23.144 21.3083 23.198 21.1983 23.241Z" fill="#AA5520"/>
<path d="M21.4303 18.1509C21.4093 18.1569 21.3903 18.1619 21.3693 18.1689C20.6153 18.3999 20.5003 18.8059 20.5003 18.8059C20.4973 18.8099 20.4923 18.8139 20.4883 18.8179C20.4903 18.8179 20.5003 18.8239 20.5003 18.8239C20.5003 18.8239 21.0693 18.5509 21.4303 18.1509Z" fill="#FFDE00"/>
<path d="M19.7865 18.1891C19.7305 18.1611 19.6325 18.1301 19.5195 18.0981C19.6395 18.2431 19.7895 18.3731 19.9375 18.4821C19.9385 18.3571 19.9025 18.2471 19.7865 18.1891Z" fill="#FFDE00"/>
<path d="M2.5 25.667H38.5V15.334H2.5V25.667ZM24.646 18.459C24.608 18.517 24.286 18.981 24.286 18.981H23.822L24.01 18.72L24.646 18.459ZM23.482 18.328L24.001 17.877L23.825 18.487L23.386 18.635L23.482 18.328ZM17.52 18.328L17.615 18.635L17.177 18.487C17.177 18.487 17.019 17.945 17.001 17.877L17.52 18.328ZM16.99 18.72L17.18 18.981H16.716C16.716 18.981 16.394 18.517 16.354 18.459L16.99 18.72ZM16.295 19.183L16.474 19.429C16.479 19.384 16.483 19.356 16.485 19.349C16.504 19.291 16.988 19.639 16.988 19.639L17.103 19.001L17.489 19.31L17.682 18.702L18.833 19.802C19.011 19.535 19.242 19.317 19.508 19.156C19.346 19.044 19.17 18.852 19.012 18.621C19.059 18.778 19.024 18.946 18.901 19.05C18.731 19.195 18.461 19.157 18.299 18.966C18.138 18.775 18.144 18.502 18.316 18.357C18.474 18.222 18.715 18.251 18.879 18.409C18.786 18.246 18.706 18.075 18.651 17.905C18.193 17.816 17.779 17.749 17.779 17.749H17.78H17.782C17.792 17.743 18.232 17.469 18.592 17.289C18.698 16.677 19.331 16.133 19.459 16.225C19.559 16.296 19.376 16.652 19.304 17.104C19.54 17.084 19.795 17.082 19.885 17.211C20.019 17.402 20.21 17.668 20.497 17.634C20.499 17.634 20.501 17.634 20.503 17.634C20.508 17.634 20.514 17.634 20.519 17.634C20.793 17.601 20.89 17.669 20.946 17.442C21.004 17.213 21.39 17.136 21.706 17.17C21.642 16.687 21.439 16.299 21.545 16.225C21.678 16.128 22.383 16.738 22.432 17.39C22.775 17.518 23.105 17.664 23.138 17.723C23.151 17.737 23.145 17.747 23.109 17.75C22.965 17.76 22.691 17.816 22.357 17.899C22.196 18.407 21.816 18.94 21.496 19.16C21.761 19.321 21.992 19.539 22.169 19.806L23.32 18.707L23.515 19.315L23.9 19.006L24.016 19.644C24.016 19.644 24.497 19.296 24.516 19.354C24.519 19.361 24.522 19.389 24.528 19.434L24.705 19.189L25.342 18.928C25.303 18.987 24.98 19.45 24.98 19.45H24.53C24.567 19.784 24.659 20.929 24.691 21.614C24.724 22.284 24.746 23.227 24.228 23.594L24.408 23.686C24.446 23.705 24.461 23.752 24.441 23.79C24.423 23.829 24.375 23.844 24.337 23.824L24.055 23.68C24.004 23.7 23.958 23.727 23.899 23.737C23.734 23.767 23.575 23.773 23.421 23.773L23.955 24.126C23.991 24.15 24.001 24.199 23.977 24.233C23.954 24.268 23.906 24.279 23.87 24.256L23.104 23.748C22.981 23.733 22.862 23.716 22.748 23.687L23.512 24.554C23.54 24.586 23.537 24.636 23.505 24.665C23.473 24.692 23.424 24.689 23.397 24.657L22.471 23.606C22.392 23.578 22.321 23.548 22.249 23.516L22.539 24.083L21.968 24.394L21.758 24.102L21.661 24.201L21.201 23.247C21.1 23.287 20.998 23.323 20.89 23.346C20.909 23.521 21.032 24.062 21.083 24.298C21.139 24.566 20.888 24.798 20.888 24.798L20.59 23.379C20.56 23.38 20.533 23.389 20.503 23.389C20.473 23.389 20.445 23.381 20.416 23.379L20.117 24.798C20.117 24.798 19.866 24.566 19.922 24.298C19.972 24.062 20.096 23.52 20.114 23.345C20.007 23.323 19.905 23.286 19.805 23.246L19.344 24.201L19.247 24.102L19.036 24.394L18.465 24.083L18.755 23.515C18.683 23.546 18.612 23.577 18.534 23.605L17.608 24.657C17.579 24.688 17.53 24.692 17.499 24.665C17.466 24.636 17.464 24.587 17.492 24.554L18.256 23.686C18.142 23.715 18.023 23.732 17.9 23.747L17.133 24.255C17.097 24.278 17.05 24.267 17.026 24.232C17.003 24.198 17.012 24.149 17.048 24.125L17.582 23.772C17.427 23.772 17.268 23.765 17.103 23.736C17.044 23.725 16.998 23.699 16.947 23.679L16.665 23.823C16.627 23.842 16.581 23.827 16.562 23.789C16.542 23.751 16.558 23.704 16.595 23.685L16.775 23.593C16.257 23.226 16.279 22.283 16.312 21.613C16.345 20.928 16.437 19.783 16.473 19.449H16.022C16.022 19.449 15.7 18.986 15.661 18.927L16.296 19.188L16.295 19.183ZM22.782 18.964C22.619 19.155 22.351 19.193 22.179 19.048C22.008 18.903 22 18.631 22.161 18.439C22.323 18.247 22.593 18.209 22.764 18.354C22.936 18.5 22.944 18.772 22.782 18.963V18.964Z" fill="#FFDE00"/>
<path d="M18.7002 22.2108L18.4622 22.3208C18.4622 22.3208 18.4442 22.2658 18.4222 22.1868C18.3322 22.1678 18.2602 22.1468 18.2602 22.1468C18.2602 22.1468 18.1842 21.5668 18.1812 20.9688C18.1792 20.3698 18.3182 19.9068 18.3182 19.9068L18.3762 19.9468V19.9448L18.5682 20.0798L18.6072 19.6358L18.1812 19.2158L18.0272 19.6568L17.7762 19.5218C17.7762 19.5218 17.1362 22.7458 18.1802 22.9978C18.8722 23.1648 19.1532 23.0338 19.2662 22.9268C19.0332 22.7358 18.8412 22.4928 18.6992 22.2118L18.7002 22.2108Z" fill="#FFDE00"/>
<path d="M22.8194 22.9968C23.8644 22.7448 23.2234 19.5208 23.2234 19.5208L22.9724 19.6558L22.8194 19.2148L22.3914 19.6348H22.3934L22.4334 20.0778L22.6234 19.9438V19.9468L22.6834 19.9048C22.6834 19.9048 22.8214 20.3688 22.8194 20.9668C22.8174 21.5648 22.7404 22.1448 22.7404 22.1448C22.7404 22.1448 22.6684 22.1658 22.5774 22.1848C22.5544 22.2638 22.5374 22.3188 22.5374 22.3188L22.3014 22.2098C22.1594 22.4908 21.9674 22.7338 21.7344 22.9248C21.8484 23.0318 22.1294 23.1608 22.8194 22.9948V22.9968Z" fill="#FFDE00"/>
<path d="M34.5 8.5H6.5C4.291 8.5 2.5 10.291 2.5 12.5V15.333H38.5V12.5C38.5 10.291 36.709 8.5 34.5 8.5Z" fill="#EA0000"/>
<path d="M18.377 19.9438V19.9458L18.569 20.0798L18.377 19.9438Z" fill="#EA0000"/>
<path d="M20.1026 22.8301L20.0996 22.8291C20.1346 22.8401 20.1666 22.8561 20.2026 22.8651C20.1686 22.8571 20.1366 22.8421 20.1036 22.8311L20.1026 22.8301Z" fill="#EA0000"/>
<path d="M19.8145 22.6992L19.8125 22.6982C19.8495 22.7202 19.8855 22.7462 19.9245 22.7652C19.8865 22.7462 19.8515 22.7212 19.8145 22.6992Z" fill="#EA0000"/>
<path d="M20.4902 22.8979L20.4992 22.8989L20.4902 22.8979Z" fill="#EA0000"/>
<path d="M16.3095 21.6072C16.2765 22.2772 16.2545 23.2202 16.7725 23.5872C16.8235 23.6232 16.8825 23.6492 16.9445 23.6732C16.9955 23.6932 17.0415 23.7192 17.1005 23.7302C17.2655 23.7602 17.4245 23.7672 17.5795 23.7662C17.6895 23.7662 17.7935 23.7542 17.8975 23.7412C18.0205 23.7262 18.1395 23.7092 18.2535 23.6802C18.3495 23.6562 18.4435 23.6302 18.5315 23.5982C18.6095 23.5702 18.6805 23.5402 18.7525 23.5082C19.0675 23.3692 19.3205 23.2082 19.4875 23.0802C19.4105 23.0322 19.3365 22.9822 19.2665 22.9242C19.1535 23.0312 18.8725 23.1622 18.1805 22.9952C17.1365 22.7432 17.7765 19.5192 17.7765 19.5192L18.0275 19.6542L18.1815 19.2132L18.6075 19.6332L18.8205 19.8142C18.8245 19.8082 18.8285 19.8042 18.8325 19.7982L17.6815 18.6982L17.4885 19.3062L17.1025 18.9972L16.9875 19.6352C16.9875 19.6352 16.5035 19.2872 16.4845 19.3452C16.4825 19.3522 16.4785 19.3812 16.4735 19.4252C16.4735 19.4292 16.4725 19.4362 16.4715 19.4402C16.4355 19.7742 16.3435 20.9192 16.3105 21.6042L16.3095 21.6072Z" fill="#EA0000"/>
<path d="M19.3594 22.2822C19.3834 22.3142 19.4024 22.3502 19.4284 22.3792C19.4034 22.3492 19.3834 22.3142 19.3604 22.2822H19.3594Z" fill="#EA0000"/>
<path d="M18.4638 22.32L18.7018 22.21C18.6008 22.215 18.5058 22.203 18.4238 22.186C18.4468 22.265 18.4638 22.32 18.4638 22.32Z" fill="#EA0000"/>
<path d="M19.9183 24.2918C19.8623 24.5598 20.1133 24.7918 20.1133 24.7918L20.4123 23.3728C20.3103 23.3678 20.2083 23.3598 20.1103 23.3398C20.0923 23.5148 19.9683 24.0548 19.9183 24.2918Z" fill="#EA0000"/>
<path d="M21.8828 21.846C21.8948 21.815 21.9038 21.783 21.9148 21.751C21.9048 21.783 21.8938 21.815 21.8828 21.846Z" fill="#EA0000"/>
<path d="M21.7402 22.139C21.7622 22.102 21.7802 22.061 21.8002 22.021C21.7802 22.06 21.7632 22.102 21.7402 22.139Z" fill="#EA0000"/>
<path d="M21.5723 22.379C21.5943 22.353 21.6113 22.321 21.6323 22.293C21.6113 22.32 21.5943 22.353 21.5723 22.379Z" fill="#EA0000"/>
<path d="M21.0801 22.7631C21.1141 22.7471 21.1451 22.7231 21.1771 22.7041H21.1751C21.1431 22.7241 21.1131 22.7471 21.0801 22.7631Z" fill="#EA0000"/>
<path d="M20.502 22.8989C20.502 22.8989 20.51 22.8979 20.514 22.8979C20.51 22.8979 20.506 22.8989 20.502 22.8989Z" fill="#EA0000"/>
<path d="M21.334 22.604C21.366 22.58 21.393 22.55 21.423 22.522C21.393 22.549 21.366 22.579 21.335 22.603L21.334 22.604Z" fill="#EA0000"/>
<path d="M20.8008 22.864C20.8328 22.856 20.8618 22.842 20.8928 22.832C20.8918 22.832 20.8898 22.832 20.8888 22.833C20.8588 22.842 20.8318 22.856 20.8008 22.864Z" fill="#EA0000"/>
<path d="M20.8859 24.7909C20.8859 24.7909 21.1369 24.5589 21.0809 24.2909C21.0309 24.0549 20.9069 23.5129 20.8879 23.3389C20.7909 23.3589 20.6889 23.3669 20.5879 23.3719L20.8859 24.7909Z" fill="#EA0000"/>
<path d="M22.5768 22.1861C22.4958 22.2031 22.4018 22.2151 22.3008 22.2101L22.5368 22.3191C22.5368 22.3191 22.5548 22.2641 22.5768 22.1851V22.1861Z" fill="#EA0000"/>
<path d="M22.3917 19.6372L22.8197 19.2152L22.9727 19.6562L23.2237 19.5212C23.2237 19.5212 23.8647 22.7452 22.8197 22.9972C22.1297 23.1632 21.8487 23.0342 21.7347 22.9272C21.6647 22.9852 21.5907 23.0352 21.5137 23.0822C21.6807 23.2092 21.9347 23.3712 22.2487 23.5102C22.3207 23.5422 22.3927 23.5722 22.4707 23.6002C22.5587 23.6312 22.6527 23.6572 22.7477 23.6812C22.8607 23.7102 22.9807 23.7272 23.1037 23.7422C23.2077 23.7552 23.3117 23.7662 23.4217 23.7672C23.5767 23.7672 23.7347 23.7612 23.8997 23.7312C23.9597 23.7202 24.0047 23.6942 24.0557 23.6742C24.1177 23.6502 24.1767 23.6242 24.2277 23.5882C24.7457 23.2202 24.7227 22.2782 24.6907 21.6082C24.6577 20.9232 24.5667 19.7782 24.5297 19.4442C24.5297 19.4392 24.5287 19.4322 24.5277 19.4282C24.5227 19.3842 24.5187 19.3552 24.5157 19.3482C24.4967 19.2902 24.0157 19.6382 24.0157 19.6382L23.8997 19.0002L23.5147 19.3092L23.3197 18.7012L22.1687 19.8002C22.1727 19.8062 22.1777 19.8102 22.1807 19.8162L22.3917 19.6372Z" fill="#EA0000"/>
<path d="M22.6436 19.9944L22.4141 20.0278L22.4144 20.0298L22.6439 19.9963L22.6436 19.9944Z" fill="#EA0000"/>
<path d="M18.3144 18.3541C18.1434 18.5001 18.1374 18.7721 18.2974 18.9631C18.4594 19.1541 18.7294 19.1921 18.8994 19.0471C19.0214 18.9431 19.0564 18.7761 19.0104 18.6181C18.9634 18.5491 18.9194 18.4791 18.8764 18.4051C18.7134 18.2471 18.4714 18.2181 18.3134 18.3531L18.3144 18.3541Z" fill="#EA0000"/>
<path d="M2.5 28.5V28.504C2.5 30.711 4.289 32.5 6.495 32.5H34.504C36.711 32.5 38.499 30.711 38.499 28.504V25.666H2.5V28.5Z" fill="#007E2A"/>
<path d="M18.3767 19.9463L18.3187 19.9063C18.3187 19.9063 18.1797 20.3703 18.1817 20.9683C18.1847 21.5663 18.2607 22.1463 18.2607 22.1463C18.2607 22.1463 18.3327 22.1673 18.4227 22.1863C18.5037 22.2033 18.5987 22.2153 18.7007 22.2103C18.5367 21.8863 18.4347 21.5193 18.4347 21.1223C18.4347 20.6343 18.5797 20.1853 18.8207 19.8153L18.6077 19.6343L18.5687 20.0783L18.3767 19.9443V19.9463Z" fill="#007E2A"/>
<path d="M19.0156 21.481C19.0196 21.502 19.0276 21.521 19.0316 21.542C19.0276 21.521 19.0186 21.502 19.0156 21.481Z" fill="#007E2A"/>
<path d="M19.0742 21.7051C19.0782 21.7201 19.0812 21.7351 19.0862 21.7501C19.0812 21.7351 19.0792 21.7191 19.0742 21.7051Z" fill="#007E2A"/>
<path d="M22.7406 22.1463C22.7406 22.1463 22.8176 21.5663 22.8196 20.9683C22.8216 20.3693 22.6836 19.9063 22.6836 19.9063L22.6246 19.9483L22.4346 20.0803V20.0783L22.3946 19.6353H22.3926L22.1816 19.8163C22.4226 20.1863 22.5676 20.6353 22.5676 21.1233C22.5676 21.5193 22.4656 21.8873 22.3016 22.2113C22.4026 22.2163 22.4966 22.2043 22.5776 22.1873C22.6686 22.1683 22.7406 22.1463 22.7406 22.1463Z" fill="#007E2A"/>
<path d="M19.9384 18.4824C19.7904 18.3734 19.6404 18.2444 19.5204 18.0984C19.2844 18.0324 18.9614 17.9614 18.6504 17.9014C18.7054 18.0714 18.7844 18.2424 18.8784 18.4054C18.9204 18.4794 18.9654 18.5494 19.0124 18.6184C19.1704 18.8494 19.3464 19.0414 19.5084 19.1534C19.5974 19.0994 19.6884 19.0504 19.7844 19.0114C19.8564 18.8644 19.9374 18.6584 19.9394 18.4814L19.9384 18.4824Z" fill="#007E2A"/>
<path d="M22.4304 17.384C22.3814 16.732 21.6764 16.123 21.5434 16.219C21.4384 16.294 21.6404 16.681 21.7044 17.164C21.7084 17.164 21.7124 17.164 21.7164 17.164C21.8454 17.18 22.1404 17.275 22.4294 17.383L22.4304 17.384Z" fill="#007E2A"/>
<path d="M19.3018 17.0982C19.3748 16.6472 19.5568 16.2902 19.4568 16.2192C19.3288 16.1272 18.6958 16.6712 18.5898 17.2832C18.7558 17.1992 18.9058 17.1342 18.9848 17.1282C19.0688 17.1212 19.1828 17.1082 19.3018 17.0982Z" fill="#007E2A"/>
<path d="M20.4995 18.8251C20.4995 18.8251 20.4895 18.8201 20.4875 18.8191C20.4735 18.8371 20.4555 18.8531 20.4395 18.8701C20.4595 18.8701 20.4795 18.8631 20.4995 18.8631C20.8625 18.8631 21.1975 18.9741 21.4935 19.1541C21.8125 18.9341 22.1935 18.4011 22.3545 17.8931C22.0775 17.9621 21.7595 18.0501 21.4295 18.1511C21.0685 18.5501 20.4995 18.8251 20.4995 18.8251Z" fill="#007E2A"/>
<path d="M20.8063 19.3832C20.7073 19.3592 20.6053 19.3472 20.5013 19.3472C20.6063 19.3472 20.7083 19.3592 20.8063 19.3832Z" fill="#007E2A"/>
<path d="M17.614 18.635L17.519 18.328L17 17.877C17.018 17.945 17.176 18.487 17.176 18.487L17.614 18.635Z" fill="white"/>
<path d="M17.1776 18.98L16.9876 18.719L16.3516 18.458C16.3916 18.516 16.7136 18.98 16.7136 18.98H17.1776Z" fill="white"/>
<path d="M16.4702 19.4429C16.4702 19.4429 16.4712 19.4319 16.4722 19.4279L16.2932 19.1819L15.6582 18.9209C15.6972 18.9799 16.0192 19.4429 16.0192 19.4429H16.4702Z" fill="white"/>
<path d="M24.9774 19.4429C24.9774 19.4429 25.3004 18.9799 25.3394 18.9209L24.7024 19.1819L24.5254 19.4269C24.5254 19.4269 24.5264 19.4379 24.5274 19.4429H24.9774Z" fill="white"/>
<path d="M23.9988 17.876L23.4798 18.328L23.3848 18.635L23.8238 18.487L23.9988 17.876Z" fill="white"/>
<path d="M24.2843 18.98C24.2843 18.98 24.6063 18.516 24.6443 18.458L24.0083 18.719L23.8203 18.98H24.2843Z" fill="white"/>
<path d="M22.1594 18.4382C21.9974 18.6292 22.0054 18.9022 22.1774 19.0472C22.3494 19.1922 22.6174 19.1542 22.7804 18.9632C22.9424 18.7722 22.9354 18.4992 22.7624 18.3542C22.5914 18.2092 22.3214 18.2462 22.1594 18.4382Z" fill="white"/>
<path d="M19.7854 18.1891C19.9014 18.2471 19.9384 18.3571 19.9364 18.4821C19.9344 18.6591 19.8534 18.8641 19.7814 19.0121C19.9044 18.7611 20.0674 18.3311 19.7854 18.1891C19.4384 18.0161 17.7794 17.7451 17.7764 17.7451C17.7764 17.7451 18.1894 17.8131 18.6474 17.9021C18.9584 17.9631 19.2824 18.0331 19.5174 18.0991C19.6294 18.1301 19.7274 18.1611 19.7844 18.1901L19.7854 18.1891Z" fill="white"/>
<path d="M21.1766 17.4929C21.2346 17.2609 21.4846 17.2609 21.8036 17.2999C22.0806 17.3329 23.0536 17.6259 23.1356 17.7169C23.1026 17.6579 22.7726 17.5119 22.4296 17.3839C22.1406 17.2759 21.8456 17.1809 21.7166 17.1649C21.7126 17.1649 21.7086 17.1649 21.7046 17.1649C21.3876 17.1309 21.0026 17.2079 20.9446 17.4369C20.8876 17.6639 20.7916 17.5959 20.5176 17.6289C20.8036 17.5969 21.1206 17.7209 21.1776 17.4939L21.1766 17.4929Z" fill="white"/>
<path d="M19.1283 17.28C19.3793 17.261 19.6113 17.184 19.7463 17.377C19.8333 17.501 20.0013 17.58 20.1863 17.614C20.2073 17.613 20.2263 17.609 20.2483 17.609C20.3203 17.609 20.3853 17.617 20.4453 17.629C20.4613 17.629 20.4773 17.63 20.4923 17.629C20.2053 17.662 20.0143 17.396 19.8803 17.206C19.7903 17.077 19.5353 17.079 19.2993 17.099C19.1803 17.109 19.0663 17.122 18.9823 17.129C18.9033 17.135 18.7533 17.2 18.5873 17.284C18.2273 17.465 17.7873 17.738 17.7773 17.744C17.7873 17.74 18.8773 17.3 19.1273 17.281L19.1283 17.28Z" fill="white"/>
<path d="M19.7873 18.1882C20.0693 18.3302 19.9063 18.7612 19.7833 19.0122C19.9893 18.9282 20.2093 18.8782 20.4403 18.8712C20.4573 18.8542 20.4743 18.8372 20.4883 18.8202C20.4913 18.8162 20.4973 18.8122 20.5003 18.8082C20.5003 18.8082 20.6153 18.4022 21.3693 18.1712C21.3903 18.1652 21.4093 18.1602 21.4303 18.1532C21.7603 18.0522 22.0783 17.9642 22.3553 17.8952C22.6893 17.8122 22.9633 17.7562 23.1073 17.7462C23.1433 17.7432 23.1493 17.7332 23.1363 17.7192C23.0543 17.6272 22.0813 17.3352 21.8043 17.3022C21.4853 17.2632 21.2353 17.2632 21.1773 17.4952C21.1203 17.7222 20.8033 17.5982 20.5173 17.6302C20.5123 17.6302 20.5063 17.6302 20.5013 17.6302C20.4993 17.6302 20.4973 17.6302 20.4953 17.6302C20.4793 17.6322 20.4633 17.6302 20.4483 17.6302C20.5923 17.6592 20.6943 17.7162 20.6943 17.7832C20.6943 17.8802 20.4953 17.9582 20.2513 17.9582C20.0053 17.9582 19.8063 17.8802 19.8063 17.7832C19.8063 17.6962 19.9743 17.6272 20.1893 17.6152C20.0043 17.5812 19.8353 17.5032 19.7493 17.3782C19.6143 17.1852 19.3823 17.2622 19.1313 17.2812C18.8823 17.3002 17.7923 17.7402 17.7813 17.7442H17.7793C17.7793 17.7442 19.4403 18.0152 19.7883 18.1872L19.7873 18.1882Z" fill="#010101"/>
<path d="M19.0154 20.7652C18.9954 20.8802 18.9844 21.0002 18.9844 21.1232C18.9844 21.1712 18.9934 21.2162 18.9964 21.2632C19.2204 21.1752 19.4944 21.0492 19.6714 20.8912C19.7644 20.8082 19.8514 20.7322 19.9344 20.6632C19.8824 20.5692 19.8444 20.4662 19.8444 20.3512C19.8444 19.9882 20.1384 19.6942 20.5014 19.6942C20.8644 19.6942 21.1574 19.9892 21.1574 20.3512C21.1574 20.4682 21.1184 20.5722 21.0644 20.6672C21.3734 20.8772 21.7364 21.1302 22.0074 21.2322C22.0094 21.1952 22.0164 21.1602 22.0164 21.1232C22.0164 21.0002 22.0054 20.8812 21.9854 20.7652C21.9454 20.5342 21.8664 20.3192 21.7574 20.1302C21.5394 19.7522 21.2004 19.4772 20.8064 19.3832C20.7074 19.3592 20.6054 19.3472 20.5014 19.3472C20.3974 19.3472 20.2944 19.3592 20.1954 19.3832C19.8004 19.4782 19.4614 19.7522 19.2434 20.1302C19.1344 20.3192 19.0554 20.5342 19.0154 20.7652Z" fill="#F39E00"/>
<path d="M21.0637 20.6668C21.1177 20.5718 21.1567 20.4678 21.1567 20.3508C21.1567 19.9888 20.8627 19.6938 20.5007 19.6938C20.1387 19.6938 19.8438 19.9878 19.8438 20.3508C19.8438 20.4658 19.8818 20.5688 19.9338 20.6628C20.1578 20.4758 20.3457 20.3508 20.5007 20.3508C20.5917 20.3508 20.8097 20.4948 21.0637 20.6668Z" fill="#DE001B"/>
<path d="M21.0641 20.6671C20.8101 20.4941 20.5921 20.3511 20.5011 20.3511C20.3461 20.3511 20.1591 20.4761 19.9341 20.6631C19.8511 20.7321 19.7641 20.8081 19.6711 20.8911C19.4941 21.0491 19.2211 21.1751 18.9961 21.2631C18.9991 21.3001 19.0011 21.3361 19.0051 21.3731C19.0121 21.4301 19.0191 21.4871 19.0311 21.5431C19.0431 21.5991 19.0581 21.6521 19.0741 21.7061C19.0901 21.7591 19.1051 21.8121 19.1251 21.8631C19.1451 21.9141 19.1691 21.9621 19.1931 22.0101C19.2171 22.0581 19.2391 22.1061 19.2671 22.1511C19.2951 22.1971 19.3271 22.2391 19.3591 22.2821C19.3891 22.3231 19.4181 22.3651 19.4511 22.4021C19.4871 22.4421 19.5271 22.4771 19.5661 22.5131C19.6011 22.5451 19.6341 22.5791 19.6711 22.6071C19.7151 22.6411 19.7641 22.6681 19.8111 22.6961C19.8111 22.6961 19.8121 22.6961 19.8131 22.6971C19.8501 22.7191 19.8841 22.7441 19.9231 22.7631C19.9791 22.7901 20.0391 22.8071 20.0981 22.8261C20.0991 22.8261 20.1001 22.8261 20.1011 22.8271C20.1351 22.8381 20.1661 22.8531 20.2001 22.8611C20.2931 22.8831 20.3891 22.8941 20.4871 22.8951C20.4901 22.8951 20.4931 22.8951 20.4961 22.8951C20.4971 22.8951 20.4971 22.8951 20.4981 22.8951C20.5021 22.8951 20.5061 22.8941 20.5101 22.8941C20.6081 22.8941 20.7041 22.8821 20.7971 22.8601C20.8271 22.8531 20.8551 22.8391 20.8851 22.8291C20.8861 22.8291 20.8881 22.8291 20.8891 22.8281C20.9531 22.8081 21.0171 22.7891 21.0771 22.7601C21.1101 22.7441 21.1401 22.7211 21.1721 22.7021H21.1741C21.2271 22.6691 21.2811 22.6391 21.3311 22.6011C21.3621 22.5771 21.3901 22.5471 21.4191 22.5201C21.4651 22.4781 21.5111 22.4381 21.5521 22.3911C21.5791 22.3601 21.6021 22.3241 21.6271 22.2911C21.6651 22.2411 21.7031 22.1911 21.7361 22.1361C21.7581 22.0991 21.7761 22.0581 21.7961 22.0191C21.8251 21.9621 21.8541 21.9051 21.8771 21.8441C21.8931 21.8011 21.9051 21.7551 21.9191 21.7111C21.9381 21.6491 21.9561 21.5861 21.9691 21.5211C21.9791 21.4731 21.9831 21.4231 21.9891 21.3731C21.9951 21.3261 21.9991 21.2791 22.0011 21.2311C21.7301 21.1291 21.3671 20.8761 21.0581 20.6661L21.0641 20.6671ZM20.7041 22.6481C20.5921 22.6481 20.5011 22.5011 20.5011 22.3191C20.5011 22.1371 20.5911 21.9911 20.7041 21.9911C20.8161 21.9911 20.9061 22.1371 20.9061 22.3191C20.9061 22.5011 20.8161 22.6481 20.7041 22.6481ZM21.1961 22.6481C21.1961 22.6711 21.1781 22.6881 21.1571 22.6881C21.1361 22.6881 21.1181 22.6711 21.1181 22.6481V21.8451C20.9471 21.8291 20.8101 21.7071 20.8101 21.5461C20.8101 21.3761 20.9621 21.2371 21.1471 21.2371C21.3341 21.2391 21.4851 21.3761 21.4851 21.5461C21.4851 21.7001 21.3561 21.8141 21.1951 21.8381L21.1961 22.6481Z" fill="#008E2B"/>
<path d="M20.1877 17.6139C19.9727 17.6259 19.8047 17.6949 19.8047 17.7819C19.8047 17.8789 20.0037 17.9569 20.2497 17.9569C20.4937 17.9569 20.6927 17.8789 20.6927 17.7819C20.6927 17.7149 20.5907 17.6579 20.4467 17.6289C20.3867 17.6169 20.3217 17.6089 20.2497 17.6089C20.2277 17.6089 20.2087 17.6119 20.1877 17.6139Z" fill="#F39E00"/>
<path d="M21.1172 21.8459V22.6489C21.1172 22.6719 21.1352 22.6889 21.1562 22.6889C21.1772 22.6889 21.1952 22.6719 21.1952 22.6489V21.8389C21.1772 21.8419 21.1662 21.8569 21.1472 21.8569C21.1362 21.8569 21.1282 21.8469 21.1172 21.8459Z" fill="#BA7B00"/>
<path d="M20.703 21.9917C20.591 21.9917 20.5 22.1377 20.5 22.3197C20.5 22.5017 20.59 22.6487 20.703 22.6487C20.815 22.6487 20.905 22.5017 20.905 22.3197C20.905 22.1377 20.815 21.9917 20.703 21.9917Z" fill="#BA7B00"/>
<path d="M21.4855 21.5468C21.4855 21.3768 21.3345 21.2398 21.1475 21.2378C20.9625 21.2378 20.8105 21.3768 20.8105 21.5468C20.8105 21.7078 20.9475 21.8298 21.1185 21.8458C21.1295 21.8458 21.1365 21.8568 21.1475 21.8568C21.1665 21.8568 21.1775 21.8408 21.1955 21.8388C21.3565 21.8148 21.4855 21.7008 21.4855 21.5468Z" fill="#00AE5D"/>
<path d="M18.4336 21.1228C18.4336 21.5198 18.5356 21.8868 18.6996 22.2108C18.8416 22.4918 19.0336 22.7348 19.2666 22.9258C19.3366 22.9838 19.4106 23.0338 19.4876 23.0818C19.5876 23.1438 19.6916 23.1978 19.8016 23.2408C19.9026 23.2808 20.0036 23.3168 20.1106 23.3398C20.2086 23.3608 20.3096 23.3688 20.4126 23.3728C20.4426 23.3738 20.4696 23.3828 20.4996 23.3828C20.5296 23.3828 20.5576 23.3748 20.5866 23.3728C20.6886 23.3678 20.7896 23.3598 20.8866 23.3398C20.9946 23.3178 21.0966 23.2808 21.1976 23.2408C21.3076 23.1978 21.4106 23.1438 21.5116 23.0818C21.5886 23.0338 21.6626 22.9838 21.7326 22.9268C21.9656 22.7358 22.1576 22.4928 22.2996 22.2118C22.4636 21.8878 22.5656 21.5208 22.5656 21.1238C22.5656 20.6358 22.4206 20.1868 22.1796 19.8168C22.1756 19.8108 22.1716 19.8058 22.1676 19.8008C21.9906 19.5338 21.7596 19.3158 21.4946 19.1548C21.1986 18.9758 20.8626 18.8638 20.5006 18.8638C20.4796 18.8638 20.4606 18.8698 20.4406 18.8708C20.2096 18.8778 19.9896 18.9288 19.7836 19.0118C19.6876 19.0508 19.5966 19.0998 19.5076 19.1538C19.2416 19.3148 19.0106 19.5328 18.8326 19.7998C18.8286 19.8058 18.8236 19.8108 18.8206 19.8158C18.5796 20.1848 18.4336 20.6348 18.4336 21.1228ZM20.1936 19.3828C20.2926 19.3588 20.3946 19.3468 20.4996 19.3468C20.6046 19.3468 20.7066 19.3588 20.8046 19.3828C21.1996 19.4778 21.5376 19.7518 21.7556 20.1298C21.8646 20.3188 21.9436 20.5338 21.9836 20.7648C22.0036 20.8798 22.0146 20.9998 22.0146 21.1228C22.0146 21.1598 22.0076 21.1958 22.0056 21.2318C22.0026 21.2798 21.9986 21.3268 21.9936 21.3738C21.9896 21.4088 21.9906 21.4458 21.9846 21.4798C21.9816 21.4938 21.9766 21.5068 21.9736 21.5218C21.9606 21.5868 21.9416 21.6498 21.9236 21.7118C21.9196 21.7238 21.9176 21.7378 21.9136 21.7498C21.9036 21.7818 21.8936 21.8138 21.8816 21.8448C21.8586 21.9058 21.8296 21.9628 21.8006 22.0198C21.7806 22.0598 21.7626 22.0998 21.7406 22.1378C21.7076 22.1928 21.6696 22.2418 21.6316 22.2928C21.6106 22.3208 21.5936 22.3528 21.5716 22.3788C21.5666 22.3848 21.5606 22.3878 21.5566 22.3938C21.5156 22.4408 21.4686 22.4808 21.4236 22.5228C21.3936 22.5498 21.3666 22.5798 21.3346 22.6048C21.2856 22.6428 21.2316 22.6728 21.1776 22.7048C21.1446 22.7238 21.1146 22.7478 21.0806 22.7638C21.0206 22.7928 20.9566 22.8118 20.8926 22.8318C20.8616 22.8418 20.8326 22.8568 20.8006 22.8638C20.7076 22.8858 20.6116 22.8968 20.5136 22.8978C20.5096 22.8978 20.5056 22.8988 20.5016 22.8988C20.5016 22.8988 20.5016 22.8988 20.5006 22.8988C20.5016 22.8988 20.4996 22.8988 20.5006 22.8988C20.4976 22.8988 20.4936 22.8988 20.4906 22.8988C20.3926 22.8988 20.2966 22.8868 20.2036 22.8648C20.1676 22.8568 20.1356 22.8408 20.1006 22.8288C20.0416 22.8098 19.9816 22.7928 19.9256 22.7658C19.8866 22.7468 19.8516 22.7208 19.8136 22.6988C19.7656 22.6708 19.7176 22.6438 19.6736 22.6098C19.6366 22.5808 19.6036 22.5468 19.5686 22.5148C19.5296 22.4788 19.4886 22.4438 19.4536 22.4038C19.4466 22.3958 19.4376 22.3898 19.4306 22.3808C19.4056 22.3508 19.3856 22.3148 19.3616 22.2838C19.3296 22.2408 19.2976 22.1998 19.2696 22.1528C19.2426 22.1078 19.2196 22.0588 19.1956 22.0108C19.1716 21.9628 19.1476 21.9148 19.1276 21.8638C19.1126 21.8268 19.1006 21.7888 19.0886 21.7508C19.0836 21.7358 19.0816 21.7208 19.0766 21.7058C19.0606 21.6528 19.0456 21.5988 19.0336 21.5428C19.0296 21.5218 19.0206 21.5028 19.0176 21.4818C19.0116 21.4468 19.0126 21.4088 19.0086 21.3738C19.0046 21.3378 19.0016 21.3008 18.9996 21.2638C18.9966 21.2168 18.9876 21.1718 18.9876 21.1238C18.9876 21.0008 18.9986 20.8818 19.0186 20.7658C19.0586 20.5348 19.1376 20.3198 19.2466 20.1308C19.4646 19.7528 19.8036 19.4778 20.1986 19.3838L20.1936 19.3828Z" fill="#00A5E2"/>
</svg>
