<svg width="41" height="41" viewBox="0 0 41 41" fill="none" xmlns="http://www.w3.org/2000/svg">
<path d="M34.5 8.5H6.5C4.29086 8.5 2.5 10.2909 2.5 12.5V28.5C2.5 30.7091 4.29086 32.5 6.5 32.5H34.5C36.7091 32.5 38.5 30.7091 38.5 28.5V12.5C38.5 10.2909 36.7091 8.5 34.5 8.5Z" fill="#1B337C"/>
<path d="M2.5 12.496V18.796L14.148 8.5H6.496C4.289 8.5 2.5 10.289 2.5 12.496Z" fill="#FFD700"/>
<path d="M14.148 8.5L2.5 18.796V28.505C2.5 30.712 4.289 32.501 6.495 32.501H7.224L34.376 8.501H14.148V8.5Z" fill="#E3E7EA"/>
<path d="M18.128 19.4661L19.259 18.8141L18.128 18.1621C17.833 15.7771 15.938 13.8831 13.553 13.5871L12.901 12.4551L12.249 13.5861C9.86397 13.8811 7.96897 15.7761 7.67397 18.1611L6.54297 18.8131L7.67397 19.4651C7.96897 21.8501 9.86397 23.7451 12.249 24.0401L12.901 25.1731L13.553 24.0431C15.938 23.7461 17.833 21.8501 18.128 19.4661ZM12.901 23.4051C10.37 23.4051 8.30897 21.3451 8.30897 18.8141C8.30897 16.2831 10.369 14.2231 12.901 14.2231C15.433 14.2231 17.492 16.2831 17.492 18.8141C17.492 21.3451 15.432 23.4051 12.901 23.4051Z" fill="#010101"/>
<path d="M14.7167 18.8139L15.6237 17.2419H13.8087L12.9017 15.6699L11.9947 17.2419H10.1797L11.0867 18.8139L10.1797 20.3849H11.9947L12.9017 21.9579L13.8087 20.3849H15.6237L14.7167 18.8139Z" fill="#F20001"/>
</svg>
