<svg width="41" height="41" viewBox="0 0 41 41" fill="none" xmlns="http://www.w3.org/2000/svg">
<path d="M7.6543 20.4991L20.5003 28.8151L33.3473 20.4991L20.5003 12.1851L7.6543 20.4991ZM25.9183 20.4991C25.9183 20.7601 25.8943 21.0141 25.8593 21.2651C25.8613 21.2671 25.8633 21.2681 25.8653 21.2701C25.8603 21.3021 25.8493 21.3331 25.8443 21.3651C25.8033 21.6271 25.7503 21.8861 25.6733 22.1341C25.6733 22.1351 25.6733 22.1371 25.6733 22.1381C24.9853 24.3701 22.9293 25.9901 20.5013 25.9901C17.5113 25.9901 15.0853 23.5311 15.0853 20.4991C15.0853 20.0211 15.1523 19.5601 15.2653 19.1181C15.2623 19.1181 15.2603 19.1181 15.2573 19.1191C15.2643 19.0901 15.2783 19.0641 15.2863 19.0351C15.3533 18.7881 15.4343 18.5471 15.5343 18.3151C15.5393 18.3031 15.5413 18.2901 15.5463 18.2791C15.5483 18.2791 15.5493 18.2791 15.5513 18.2791C16.3933 16.3551 18.2923 15.0091 20.5013 15.0091C23.4923 15.0091 25.9193 17.4691 25.9193 20.4991H25.9183Z" fill="#F4BE00"/>
<path d="M15.5488 18.2788C16.1548 18.1928 16.7748 18.1468 17.4048 18.1468C20.6228 18.1468 23.5718 19.3188 25.8578 21.2658C25.8928 21.0148 25.9168 20.7608 25.9168 20.4998C25.9168 17.4698 23.4898 15.0098 20.4988 15.0098C18.2888 15.0098 16.3908 16.3558 15.5488 18.2798V18.2788ZM22.1808 18.5608L22.2328 18.7238H22.4008L22.2648 18.8248L22.3168 18.9878L22.1798 18.8878L22.0438 18.9878L22.0958 18.8258L21.9588 18.7248H22.1278L22.1798 18.5618L22.1808 18.5608Z" fill="#332470"/>
<path d="M15.262 19.1177C15.149 19.5597 15.082 20.0207 15.082 20.4987C15.082 23.5307 17.508 25.9897 20.498 25.9897C22.926 25.9897 24.982 24.3687 25.67 22.1377C23.477 20.1447 20.58 18.9307 17.404 18.9307C16.673 18.9307 15.958 18.9957 15.262 19.1177ZM15.984 22.4407L15.893 22.3737L15.802 22.4407L15.837 22.3327L15.746 22.2657H15.858L15.893 22.1567L15.928 22.2657H16.04L15.95 22.3327L15.985 22.4407H15.984ZM16.213 19.7037L16.077 19.6027L15.941 19.7037L15.993 19.5407L15.857 19.4407H16.025L16.078 19.2777L16.13 19.4407H16.298L16.161 19.5407L16.213 19.7037ZM16.692 22.0107L16.556 21.9107L16.42 22.0107L16.472 21.8487L16.335 21.7477H16.504L16.556 21.5847L16.608 21.7477H16.777L16.641 21.8477L16.692 22.0107ZM17.151 21.5747L17.086 21.5267L17.021 21.5747L17.046 21.4987L16.981 21.4507H17.062L17.087 21.3727L17.112 21.4507H17.192L17.127 21.4987L17.151 21.5747ZM17.635 23.0707L17.521 22.9867L17.407 23.0707L17.451 22.9347L17.337 22.8507H17.478L17.521 22.7157L17.564 22.8507H17.705L17.591 22.9347L17.635 23.0707ZM20.544 24.8577L20.499 24.8247L20.454 24.8577L20.471 24.8037L20.425 24.7697H20.481L20.499 24.7147L20.517 24.7697H20.573L20.527 24.8027L20.544 24.8577ZM23.295 24.7417L23.204 24.6757L23.113 24.7417L23.148 24.6337L23.057 24.5667H23.169L23.204 24.4577L23.239 24.5667H23.351L23.26 24.6327L23.294 24.7407L23.295 24.7417ZM25.047 22.3217L25.082 22.4307H25.194L25.103 22.4977L25.138 22.6057L25.047 22.5387L24.956 22.6057L24.991 22.4967L24.9 22.4307H25.012L25.047 22.3217ZM24.631 23.0717L24.517 22.9877L24.403 23.0717L24.446 22.9357L24.332 22.8517H24.472L24.515 22.7167L24.559 22.8517H24.7L24.587 22.9357L24.631 23.0717ZM24.296 22.1917L24.348 22.3537H24.517L24.38 22.4547L24.432 22.6177L24.296 22.5167L24.159 22.6177L24.211 22.4547L24.075 22.3537H24.244L24.296 22.1917ZM24.142 23.2927L24.185 23.1577L24.228 23.2927H24.368L24.255 23.3757L24.298 23.5107L24.185 23.4277L24.071 23.5107L24.115 23.3757L24.001 23.2917L24.142 23.2927ZM23.75 23.4727L23.784 23.5807H23.897L23.806 23.6487L23.841 23.7567L23.75 23.6897L23.659 23.7567L23.694 23.6487L23.603 23.5807H23.715L23.75 23.4727ZM23.19 23.3687L23.225 23.4767H23.338L23.247 23.5437L23.282 23.6527L23.191 23.5857L23.1 23.6527L23.135 23.5437L23.044 23.4767H23.156L23.19 23.3687ZM23.169 24.0027L23.213 23.8667L23.257 24.0027H23.397L23.283 24.0857L23.326 24.2207L23.212 24.1377L23.098 24.2207L23.142 24.0857L23.028 24.0027H23.169ZM22.585 23.5547L22.62 23.6637H22.732L22.641 23.7297L22.676 23.8377L22.585 23.7717L22.495 23.8377L22.529 23.7297L22.438 23.6637H22.55L22.585 23.5547ZM22.305 24.1357L22.191 24.2197L22.235 24.3557L22.121 24.2717L22.007 24.3557L22.051 24.2197L21.937 24.1357H22.078L22.121 24.0007L22.164 24.1357H22.305ZM21.973 20.0667L22.008 20.1747H22.121L22.03 20.2427L22.065 20.3507L21.974 20.2837L21.883 20.3507L21.918 20.2417L21.828 20.1747H21.94L21.975 20.0667H21.973ZM21.693 23.4207L21.728 23.5287H21.84L21.749 23.5957L21.784 23.7047L21.693 23.6377L21.602 23.7047L21.637 23.5957L21.546 23.5287H21.658L21.693 23.4207ZM21.126 21.6777L21.17 21.8127H21.31L21.196 21.8957L21.239 22.0317L21.125 21.9477L21.011 22.0317L21.055 21.8967L20.941 21.8127H21.082L21.126 21.6777ZM20.635 23.1547L20.499 23.0547L20.362 23.1547L20.414 22.9917L20.278 22.8907H20.446L20.498 22.7277L20.55 22.8907H20.719L20.582 22.9917L20.634 23.1537L20.635 23.1547ZM20.498 21.1847L20.542 21.3197H20.683L20.569 21.4027L20.612 21.5387L20.498 21.4557L20.384 21.5387L20.428 21.4027L20.314 21.3197H20.454L20.497 21.1847H20.498ZM20.225 22.1427L20.25 22.2207H20.33L20.265 22.2687L20.29 22.3457L20.225 22.2977L20.16 22.3457L20.185 22.2687L20.12 22.2207H20.2L20.225 22.1427ZM19.953 21.7177L19.987 21.8257H20.1L20.009 21.8927L20.043 22.0017L19.952 21.9347L19.861 22.0017L19.896 21.8937L19.805 21.8257H19.918L19.953 21.7177ZM18.435 20.5277L18.478 20.6627H18.619L18.505 20.7467L18.548 20.8817L18.435 20.7987L18.321 20.8817L18.365 20.7467L18.251 20.6627H18.391L18.434 20.5277H18.435ZM18.272 23.3407L18.324 23.1777L18.376 23.3407H18.545L18.408 23.4407L18.46 23.6027L18.323 23.5027L18.186 23.6027L18.238 23.4397L18.102 23.3397H18.271L18.272 23.3407ZM17.683 22.1707L17.726 22.3057H17.866L17.753 22.3897L17.797 22.5247L17.683 22.4417L17.569 22.5247L17.613 22.3897L17.498 22.3047H17.639L17.682 22.1697L17.683 22.1707Z" fill="#332470"/>
<path d="M34.5 8.5H6.5C4.291 8.5 2.5 10.291 2.5 12.5V28.5C2.5 30.709 4.291 32.5 6.5 32.5H34.5C36.709 32.5 38.5 30.709 38.5 28.5V12.5C38.5 10.291 36.709 8.5 34.5 8.5ZM20.5 28.815L7.654 20.499L20.5 12.185L33.347 20.499L20.5 28.815Z" fill="#009538"/>
<path d="M15.8165 18.3752C15.6895 18.3902 15.5995 18.5202 15.6175 18.6632C15.6355 18.8062 15.7525 18.9102 15.8795 18.8942C16.0065 18.8782 16.0965 18.7502 16.0785 18.6062C16.0615 18.4632 15.9445 18.3592 15.8165 18.3752ZM15.8675 18.7982C15.7925 18.8072 15.7225 18.7412 15.7115 18.6512C15.7005 18.5612 15.7515 18.4812 15.8275 18.4722C15.9025 18.4622 15.9715 18.5282 15.9825 18.6192C15.9935 18.7082 15.9415 18.7892 15.8675 18.7982Z" fill="#009538"/>
<path d="M16.7385 18.4561C16.7325 18.3661 16.6555 18.2981 16.5655 18.3041L16.2715 18.3251L16.2995 18.8471L16.3955 18.8401L16.3825 18.6461L16.5805 18.6311C16.5545 18.6081 16.5225 18.5911 16.4715 18.5941L16.6115 18.5841C16.6285 18.5831 16.6395 18.5911 16.6525 18.5981C16.7045 18.5671 16.7435 18.5191 16.7395 18.4541L16.7385 18.4561ZM16.5745 18.5361L16.3755 18.5501L16.3655 18.4151L16.5645 18.4021C16.6015 18.3981 16.6325 18.4271 16.6355 18.4641C16.6375 18.5011 16.6105 18.5341 16.5745 18.5361Z" fill="#009538"/>
<path d="M16.4717 18.596C16.5227 18.592 16.5557 18.609 16.5807 18.633C16.6357 18.683 16.6457 18.772 16.6487 18.823L16.7367 18.818C16.7327 18.755 16.7197 18.634 16.6517 18.601C16.6387 18.595 16.6277 18.586 16.6107 18.587L16.4707 18.597L16.4717 18.596Z" fill="#009538"/>
<path d="M17.1883 18.2779L16.9453 18.2819L16.9543 18.8049L17.1973 18.7999C17.3193 18.7999 17.4163 18.6969 17.4143 18.5729L17.4123 18.4979C17.4103 18.3749 17.3113 18.2759 17.1883 18.2779ZM17.1883 18.7039L17.0483 18.7079L17.0423 18.3779L17.1823 18.3759C17.2603 18.3739 17.3233 18.4369 17.3253 18.5149V18.5599C17.3273 18.6379 17.2653 18.7019 17.1883 18.7039Z" fill="#009538"/>
<path d="M18.0774 18.7189L17.7014 18.7049L17.7064 18.5709L18.0014 18.5819L18.0044 18.4909L17.7094 18.4819L17.7124 18.3769L18.0674 18.3899L18.0694 18.2919L17.6274 18.2759L17.6094 18.7989L18.0744 18.8159L18.0774 18.7189Z" fill="#009538"/>
<path d="M18.3827 18.4781L18.4537 18.8441L18.5357 18.8521L18.6687 18.5041L18.6377 18.8611L18.7267 18.8691L18.7707 18.3481L18.6427 18.3361L18.5087 18.6851L18.4367 18.3181L18.3087 18.3071L18.2637 18.8281L18.3517 18.8351L18.3827 18.4781Z" fill="#009538"/>
<path d="M19.729 18.9279L19.434 18.8769L19.454 18.7579L19.694 18.8009L19.709 18.7109L19.469 18.6709L19.483 18.5889L19.767 18.6399L19.783 18.5509L19.41 18.4849L19.332 18.9489L19.713 19.0159L19.729 18.9279Z" fill="#009538"/>
<path d="M20.4535 18.9811L20.6535 19.0331C20.7405 19.0561 20.8295 19.0031 20.8515 18.9161C20.8735 18.8281 20.8215 18.7381 20.7345 18.7151L20.4495 18.6401L20.3125 19.1451L20.4055 19.1691L20.4535 18.9811ZM20.5115 18.7571L20.7035 18.8071C20.7395 18.8171 20.7605 18.8531 20.7515 18.8891C20.7425 18.9251 20.7065 18.9461 20.6715 18.9381L20.4785 18.8871L20.5115 18.7571Z" fill="#009538"/>
<path d="M21.0933 19.1598L21.2833 19.2208C21.2683 19.1898 21.2433 19.1618 21.1943 19.1458L21.3283 19.1878C21.3443 19.1928 21.3513 19.2058 21.3613 19.2158C21.4203 19.2068 21.4743 19.1768 21.4943 19.1148C21.5203 19.0278 21.4733 18.9368 21.3883 18.9088L21.1063 18.8188L20.9453 19.3148L21.0363 19.3448L21.0943 19.1588L21.0933 19.1598ZM21.1623 18.9388L21.3523 18.9998C21.3873 19.0108 21.4073 19.0488 21.3953 19.0848C21.3843 19.1198 21.3473 19.1398 21.3113 19.1278L21.1223 19.0678L21.1623 18.9388Z" fill="#009538"/>
<path d="M21.1953 19.146C21.2443 19.162 21.2683 19.19 21.2843 19.221C21.3173 19.288 21.2943 19.375 21.2793 19.423L21.3643 19.45C21.3833 19.39 21.4153 19.273 21.3633 19.217C21.3533 19.207 21.3463 19.194 21.3303 19.189L21.1963 19.147L21.1953 19.146Z" fill="#009538"/>
<path d="M22.0947 19.441C22.1447 19.306 22.0877 19.159 21.9677 19.113C21.8477 19.068 21.7097 19.14 21.6607 19.276C21.6107 19.411 21.6677 19.558 21.7877 19.603C21.9077 19.649 22.0447 19.576 22.0947 19.441ZM21.7497 19.31C21.7807 19.224 21.8637 19.177 21.9347 19.204C22.0057 19.232 22.0367 19.322 22.0057 19.406C21.9747 19.491 21.8917 19.539 21.8207 19.511C21.7507 19.485 21.7187 19.395 21.7497 19.31Z" fill="#009538"/>
<path d="M22.5684 19.848L22.6134 19.744L22.5694 19.725C22.5284 19.762 22.4794 19.784 22.4324 19.763C22.3634 19.732 22.3364 19.64 22.3714 19.557C22.4074 19.474 22.4934 19.432 22.5614 19.462C22.6304 19.492 22.6574 19.584 22.6214 19.667L22.7094 19.706C22.7664 19.573 22.7174 19.425 22.5994 19.373C22.4824 19.322 22.3404 19.386 22.2834 19.519C22.2264 19.652 22.2764 19.801 22.3934 19.853C22.4504 19.878 22.5124 19.873 22.5674 19.849L22.5684 19.848Z" fill="#009538"/>
<path d="M22.6797 19.7741L22.7097 19.7051L22.6797 19.7741Z" fill="#009538"/>
<path d="M22.531 19.626L22.502 19.695L22.57 19.725L22.614 19.744L22.643 19.676L22.711 19.705H22.71L22.623 19.667L22.531 19.626Z" fill="#009538"/>
<path d="M22.6421 19.6758L22.6131 19.7438L22.5681 19.8478L22.5391 19.9158L22.6071 19.9458L22.6801 19.7738L22.7101 19.7048L22.6421 19.6758Z" fill="#009538"/>
<path d="M22.9513 19.897L23.1293 19.987C23.1193 19.953 23.0993 19.922 23.0533 19.898L23.1783 19.962C23.1943 19.97 23.1993 19.983 23.2073 19.995C23.2673 19.995 23.3253 19.974 23.3533 19.916C23.3923 19.835 23.3603 19.737 23.2803 19.695L23.0173 19.562L22.7793 20.026L22.8653 20.069L22.9503 19.896L22.9513 19.897ZM23.0533 19.689L23.2313 19.779C23.2643 19.796 23.2773 19.835 23.2613 19.869C23.2443 19.903 23.2053 19.916 23.1723 19.899L22.9943 19.81L23.0543 19.689H23.0533Z" fill="#009538"/>
<path d="M23.0527 19.8979C23.0987 19.9209 23.1187 19.9529 23.1287 19.9869C23.1507 20.0579 23.1147 20.1399 23.0927 20.1849L23.1717 20.2249C23.1997 20.1689 23.2487 20.0589 23.2067 19.9949C23.1987 19.9829 23.1937 19.9699 23.1777 19.9619L23.0527 19.8979Z" fill="#009538"/>
<path d="M23.8143 20.475L23.4873 20.287L23.5523 20.171L23.8083 20.318L23.8523 20.24L23.5963 20.093L23.6463 20.001L23.9553 20.178L24.0023 20.093L23.6163 19.873L23.3633 20.329L23.7673 20.56L23.8143 20.475Z" fill="#009538"/>
<path d="M24.1275 20.7861C24.2115 20.8401 24.3375 20.8901 24.4085 20.7761C24.5075 20.6201 24.1865 20.4831 24.2355 20.4091C24.2635 20.3631 24.3035 20.3761 24.3515 20.4091C24.4015 20.4401 24.4345 20.4861 24.4045 20.5331L24.4995 20.5941C24.5695 20.4871 24.4795 20.3931 24.4235 20.3571C24.3675 20.3211 24.2185 20.2161 24.1325 20.3511C24.0325 20.5071 24.3585 20.6381 24.3015 20.7281C24.2835 20.7551 24.2405 20.7571 24.1785 20.7181C24.1165 20.6791 24.0885 20.6291 24.1165 20.5841L24.0185 20.5211C23.9495 20.6311 24.0555 20.7401 24.1275 20.7861Z" fill="#009538"/>
<path d="M24.6703 21.1582C24.7503 21.2162 24.8743 21.2732 24.9523 21.1622C25.0583 21.0122 24.7463 20.8572 24.7983 20.7872C24.8293 20.7432 24.8683 20.7592 24.9143 20.7922C24.9633 20.8272 24.9923 20.8742 24.9613 20.9192L25.0533 20.9852C25.1283 20.8812 25.0433 20.7832 24.9903 20.7442C24.9353 20.7052 24.7933 20.5932 24.7003 20.7232C24.5913 20.8742 24.9113 21.0232 24.8493 21.1092C24.8303 21.1362 24.7873 21.1352 24.7273 21.0922C24.6673 21.0482 24.6423 20.9982 24.6723 20.9552L24.5773 20.8872C24.5023 20.9942 24.6033 21.1082 24.6723 21.1582H24.6703Z" fill="#009538"/>
<path d="M25.5357 21.499C25.6247 21.386 25.6147 21.229 25.5147 21.148C25.4147 21.067 25.2607 21.092 25.1717 21.206C25.0837 21.319 25.0927 21.477 25.1937 21.557C25.2937 21.638 25.4467 21.611 25.5357 21.499ZM25.2477 21.266C25.3037 21.195 25.3967 21.176 25.4547 21.224C25.5137 21.272 25.5167 21.368 25.4607 21.439C25.4047 21.511 25.3127 21.529 25.2537 21.481C25.1947 21.433 25.1917 21.338 25.2477 21.266Z" fill="#009538"/>
<path d="M23.2621 19.8699C23.2781 19.8359 23.2651 19.7969 23.2321 19.7799L23.0541 19.6899L22.9941 19.8109L23.1721 19.8999C23.2051 19.9169 23.2451 19.9039 23.2621 19.8699Z" fill="#E3E7EA"/>
<path d="M25.4622 21.438C25.5182 21.367 25.5152 21.271 25.4562 21.223C25.3982 21.175 25.3052 21.195 25.2492 21.265C25.1932 21.337 25.1962 21.432 25.2552 21.48C25.3142 21.528 25.4062 21.509 25.4622 21.438Z" fill="#E3E7EA"/>
<path d="M22.5317 19.6258L22.6227 19.6658C22.6587 19.5828 22.6317 19.4908 22.5627 19.4608C22.4947 19.4308 22.4087 19.4728 22.3727 19.5558C22.3377 19.6388 22.3647 19.7308 22.4337 19.7618C22.4807 19.7828 22.5297 19.7618 22.5707 19.7238L22.5027 19.6938L22.5317 19.6258Z" fill="#E3E7EA"/>
<path d="M22.0048 19.4059C22.0358 19.3209 22.0048 19.2309 21.9338 19.2039C21.8628 19.1769 21.7798 19.2239 21.7488 19.3099C21.7168 19.3949 21.7488 19.4859 21.8198 19.5119C21.8898 19.5389 21.9728 19.4899 22.0048 19.4059Z" fill="#E3E7EA"/>
<path d="M16.3672 18.4151L16.3772 18.5501L16.5762 18.5361C16.6122 18.5341 16.6392 18.5011 16.6372 18.4641C16.6342 18.4271 16.6032 18.3991 16.5662 18.4021L16.3672 18.4151Z" fill="#E3E7EA"/>
<path d="M15.8304 18.472C15.7554 18.482 15.7034 18.561 15.7144 18.651C15.7254 18.741 15.7954 18.807 15.8704 18.798C15.9454 18.788 15.9964 18.708 15.9854 18.619C15.9744 18.528 15.9054 18.463 15.8304 18.472Z" fill="#E3E7EA"/>
<path d="M17.183 18.376L17.043 18.378L17.049 18.708L17.189 18.704C17.267 18.702 17.328 18.638 17.326 18.56V18.515C17.324 18.437 17.261 18.374 17.183 18.376Z" fill="#E3E7EA"/>
<path d="M15.5499 18.279C15.5499 18.279 15.5469 18.279 15.5449 18.279C15.5399 18.291 15.5379 18.304 15.5329 18.315C15.4339 18.547 15.3539 18.789 15.2849 19.035C15.2769 19.064 15.2639 19.09 15.2559 19.119C15.2589 19.119 15.2609 19.119 15.2639 19.118C15.9599 18.996 16.6749 18.931 17.4059 18.931C20.5829 18.931 23.4799 20.145 25.6719 22.138C25.6719 22.137 25.6719 22.135 25.6719 22.134C25.7489 21.886 25.8009 21.627 25.8429 21.365C25.8479 21.333 25.8599 21.302 25.8639 21.27C25.8619 21.268 25.8599 21.267 25.8579 21.265C23.5709 19.319 20.6229 18.146 17.4049 18.146C16.7749 18.146 16.1559 18.192 15.5489 18.278L15.5499 18.279ZM15.8799 18.895C15.7529 18.911 15.6359 18.807 15.6179 18.664C15.6009 18.521 15.6899 18.391 15.8169 18.376C15.9439 18.36 16.0609 18.463 16.0789 18.607C16.0959 18.751 16.0069 18.879 15.8799 18.895ZM16.7379 18.817L16.6499 18.822C16.6459 18.771 16.6359 18.682 16.5819 18.632L16.3839 18.647L16.3969 18.841L16.3009 18.848L16.2729 18.326L16.5669 18.305C16.6569 18.299 16.7339 18.367 16.7399 18.457C16.7439 18.522 16.7049 18.57 16.6529 18.601C16.7209 18.634 16.7339 18.755 16.7379 18.818V18.817ZM25.1719 21.206C25.2609 21.093 25.4139 21.067 25.5149 21.148C25.6149 21.23 25.6239 21.386 25.5359 21.499C25.4469 21.611 25.2939 21.638 25.1939 21.556C25.0929 21.476 25.0839 21.319 25.1719 21.206ZM24.5749 20.887L24.6699 20.955C24.6399 20.998 24.6649 21.048 24.7249 21.092C24.7849 21.135 24.8269 21.136 24.8469 21.109C24.9089 21.023 24.5889 20.875 24.6979 20.723C24.7909 20.593 24.9339 20.705 24.9879 20.744C25.0419 20.784 25.1269 20.881 25.0509 20.985L24.9589 20.919C24.9909 20.874 24.9609 20.827 24.9119 20.792C24.8659 20.759 24.8279 20.742 24.7959 20.787C24.7449 20.857 25.0569 21.012 24.9499 21.162C24.8719 21.273 24.7489 21.217 24.6679 21.158C24.5989 21.108 24.4979 20.993 24.5729 20.887H24.5749ZM24.1159 20.585C24.0879 20.629 24.1159 20.679 24.1779 20.719C24.2399 20.759 24.2829 20.757 24.3009 20.729C24.3579 20.639 24.0309 20.508 24.1319 20.352C24.2179 20.218 24.3669 20.322 24.4229 20.358C24.4789 20.394 24.5689 20.488 24.4989 20.595L24.4039 20.534C24.4339 20.487 24.4009 20.441 24.3509 20.41C24.3039 20.377 24.2639 20.364 24.2349 20.41C24.1869 20.483 24.5069 20.62 24.4079 20.777C24.3369 20.892 24.2099 20.841 24.1269 20.787C24.0549 20.74 23.9489 20.631 24.0179 20.522L24.1159 20.585ZM23.6169 19.874L24.0019 20.094L23.9549 20.179L23.6459 20.002L23.5949 20.094L23.8519 20.241L23.8079 20.319L23.5519 20.172L23.4869 20.288L23.8139 20.476L23.7669 20.561L23.3629 20.33L23.6169 19.874ZM23.0159 19.564L23.2789 19.697C23.3599 19.739 23.3909 19.837 23.3519 19.918C23.3229 19.976 23.2659 19.997 23.2059 19.997C23.2479 20.061 23.1979 20.171 23.1709 20.227L23.0919 20.187C23.1139 20.142 23.1499 20.06 23.1279 19.989L22.9499 19.899L22.8649 20.072L22.7789 20.029L23.0169 19.565L23.0159 19.564ZM22.2829 19.519C22.3399 19.386 22.4809 19.322 22.5989 19.373C22.7169 19.425 22.7659 19.574 22.7089 19.706L22.6799 19.775L22.6069 19.947L22.5389 19.917L22.5679 19.849C22.5119 19.873 22.4499 19.878 22.3939 19.853C22.2759 19.801 22.2269 19.651 22.2839 19.519H22.2829ZM21.6589 19.277C21.7089 19.142 21.8469 19.069 21.9659 19.114C22.0859 19.16 22.1429 19.307 22.0929 19.442C22.0429 19.576 21.9049 19.65 21.7849 19.604C21.6649 19.559 21.6079 19.412 21.6579 19.277H21.6589ZM21.1069 18.821L21.3889 18.911C21.4739 18.939 21.5209 19.03 21.4949 19.117C21.4749 19.179 21.4209 19.209 21.3619 19.218C21.4139 19.275 21.3819 19.392 21.3629 19.451L21.2779 19.424C21.2939 19.376 21.3169 19.289 21.2829 19.222L21.0929 19.161L21.0349 19.347L20.9439 19.317L21.1049 18.821H21.1069ZM20.4489 18.642L20.7339 18.717C20.8209 18.74 20.8729 18.83 20.8509 18.918C20.8279 19.005 20.7389 19.058 20.6529 19.035L20.4529 18.983L20.4049 19.171L20.3119 19.147L20.4489 18.642ZM19.4109 18.487L19.7839 18.552L19.7679 18.641L19.4839 18.59L19.4709 18.672L19.7099 18.713L19.6949 18.802L19.4549 18.76L19.4349 18.878L19.7299 18.929L19.7149 19.017L19.3329 18.951L19.4109 18.487ZM18.3089 18.309L18.4369 18.32L18.5089 18.687L18.6429 18.338L18.7709 18.35L18.7269 18.871L18.6389 18.863L18.6699 18.506L18.5369 18.854L18.4549 18.846L18.3829 18.48L18.3529 18.837L18.2649 18.83L18.3089 18.309ZM17.6269 18.279L18.0689 18.294L18.0669 18.392L17.7119 18.38L17.7089 18.484L18.0039 18.494L18.0009 18.584L17.7059 18.573L17.7019 18.708L18.0769 18.721L18.0739 18.818L17.6099 18.801L17.6279 18.278L17.6269 18.279ZM17.4149 18.576C17.4169 18.701 17.3199 18.802 17.1979 18.803L16.9549 18.808L16.9459 18.285L17.1889 18.281C17.3109 18.279 17.4109 18.378 17.4139 18.501L17.4159 18.576H17.4149Z" fill="#E3E7EA"/>
<path d="M21.396 19.084C21.407 19.048 21.388 19.011 21.353 18.999L21.163 18.938L21.123 19.067L21.312 19.127C21.347 19.138 21.384 19.119 21.396 19.084Z" fill="#E3E7EA"/>
<path d="M20.7515 18.8888C20.7605 18.8528 20.7405 18.8158 20.7035 18.8068L20.5115 18.7568L20.4785 18.8868L20.6715 18.9378C20.7065 18.9468 20.7435 18.9258 20.7515 18.8888Z" fill="#E3E7EA"/>
<path d="M16.0793 19.2778L16.0273 19.4408H16.0553L16.0793 19.2778Z" fill="#E3E7EA"/>
<path d="M16.0667 19.4408H16.0907H16.1307L16.0787 19.2778L16.0547 19.4408H16.0667Z" fill="#E3E7EA"/>
<path d="M16.0918 19.4409V19.4759L16.0968 19.4699L16.0988 19.4749L16.3008 19.4409H16.1318H16.0918Z" fill="#E3E7EA"/>
<path d="M16.0977 19.4749L16.1017 19.4819L16.1137 19.4839L16.1087 19.4909L16.1437 19.4799L16.1627 19.5409L16.2997 19.4409L16.0977 19.4749Z" fill="#E3E7EA"/>
<path d="M15.8574 19.4409L15.9944 19.5409L16.0024 19.5139L15.8574 19.4409Z" fill="#E3E7EA"/>
<path d="M16.1086 19.4909L16.1136 19.4839L16.1016 19.4819L16.1066 19.4919L16.1086 19.4909Z" fill="#E3E7EA"/>
<path d="M16.0134 19.4799L16.0504 19.4919L16.0614 19.4699L16.0784 19.4939L16.0904 19.4769V19.4759V19.4409H16.0664H16.0544H16.0264H15.8574L16.0024 19.5139L16.0134 19.4799Z" fill="#E3E7EA"/>
<path d="M16.1444 19.48L16.1094 19.491L16.1074 19.492L16.1184 19.515L16.1254 19.517L16.1214 19.521L16.2154 19.704L16.1634 19.541L16.1444 19.48Z" fill="#E3E7EA"/>
<path d="M16.0901 19.4762V19.4772L16.0781 19.4942L16.0861 19.5042L16.1171 19.5152L16.1061 19.4922L16.1011 19.4822L16.0971 19.4752L16.0951 19.4702L16.0901 19.4762Z" fill="#E3E7EA"/>
<path d="M16.1201 19.521L16.1071 19.534L16.1301 19.565L16.0781 19.604L16.2141 19.704L16.1201 19.521Z" fill="#E3E7EA"/>
<path d="M16.0788 19.4942L16.0618 19.4702L16.0508 19.4922L16.0868 19.5042L16.0788 19.4942Z" fill="#E3E7EA"/>
<path d="M16.1314 19.5652L16.1084 19.5342L15.9434 19.7042L16.0794 19.6042L16.1314 19.5652Z" fill="#E3E7EA"/>
<path d="M16.1084 19.534L16.1214 19.521L16.1254 19.517L16.1184 19.515L16.0874 19.504L16.0514 19.492L16.0144 19.48L16.0034 19.514L15.9954 19.541L15.9434 19.704L16.1084 19.534Z" fill="#E3E7EA"/>
<path d="M16.5579 21.5859L16.5059 21.7489H16.5339L16.5579 21.5859Z" fill="#E3E7EA"/>
<path d="M16.5462 21.7489H16.5692H16.6092L16.5572 21.5859L16.5332 21.7489H16.5462Z" fill="#E3E7EA"/>
<path d="M16.5703 21.749V21.785L16.5713 21.784L16.5753 21.779L16.5773 21.783L16.7793 21.749H16.6103H16.5703Z" fill="#E3E7EA"/>
<path d="M16.5762 21.783L16.5802 21.79L16.5932 21.792L16.5872 21.801L16.6222 21.789L16.6412 21.849L16.7782 21.749L16.5762 21.783Z" fill="#E3E7EA"/>
<path d="M16.5703 21.7852V21.7872L16.5713 21.7842L16.5703 21.7852Z" fill="#E3E7EA"/>
<path d="M16.3359 21.749L16.4729 21.85L16.4819 21.823L16.3359 21.749Z" fill="#E3E7EA"/>
<path d="M16.5871 21.801L16.5931 21.792L16.5801 21.79L16.5851 21.801H16.5871Z" fill="#E3E7EA"/>
<path d="M16.4929 21.789L16.5289 21.801L16.5399 21.779L16.5569 21.803L16.5689 21.787V21.785V21.749H16.5459H16.5329H16.5049H16.3359L16.4819 21.823L16.4929 21.789Z" fill="#E3E7EA"/>
<path d="M16.6229 21.7891L16.5879 21.8011H16.5859L16.5969 21.8231L16.6049 21.8251L16.6009 21.8291L16.6939 22.0121L16.6419 21.8491L16.6229 21.7891Z" fill="#E3E7EA"/>
<path d="M16.5716 21.7838L16.5706 21.7868L16.5586 21.8028L16.5656 21.8118L16.5976 21.8228L16.5866 21.8008L16.5816 21.7898L16.5776 21.7828L16.5756 21.7788L16.5716 21.7838Z" fill="#E3E7EA"/>
<path d="M16.6016 21.8291L16.5876 21.8431L16.6096 21.8741L16.5586 21.9121L16.6946 22.0121L16.6016 21.8291Z" fill="#E3E7EA"/>
<path d="M16.5573 21.8028L16.5403 21.7788L16.5293 21.8008L16.5643 21.8118L16.5573 21.8028Z" fill="#E3E7EA"/>
<path d="M16.6089 21.8738L16.5869 21.8428L16.4219 22.0118L16.5579 21.9118L16.6089 21.8738Z" fill="#E3E7EA"/>
<path d="M16.5869 21.8431L16.6009 21.8291L16.6049 21.8251L16.5969 21.8231L16.5649 21.8121L16.5299 21.8011L16.4939 21.7891L16.4829 21.8231L16.4739 21.8501L16.4219 22.0121L16.5869 21.8431Z" fill="#E3E7EA"/>
<path d="M15.8944 22.1582L15.8594 22.2662H15.8784L15.8944 22.1582Z" fill="#E3E7EA"/>
<path d="M15.8869 22.2662H15.9019H15.9299L15.8949 22.1582L15.8789 22.2662H15.8869Z" fill="#E3E7EA"/>
<path d="M15.9023 22.2661V22.2901L15.9043 22.2891L15.9063 22.2861L15.9083 22.2891L16.0423 22.2661H15.9303H15.9023Z" fill="#E3E7EA"/>
<path d="M15.9082 22.2891L15.9102 22.2931L15.9182 22.2951L15.9142 22.3001V22.3011L15.9382 22.2931L15.9512 22.3331L16.0422 22.2661L15.9082 22.2891Z" fill="#E3E7EA"/>
<path d="M15.9023 22.2901V22.2921L15.9043 22.2891L15.9023 22.2901Z" fill="#E3E7EA"/>
<path d="M15.748 22.2661L15.839 22.3331L15.844 22.3161L15.748 22.2661Z" fill="#E3E7EA"/>
<path d="M15.9182 22.295L15.9102 22.293L15.9142 22.3L15.9182 22.295Z" fill="#E3E7EA"/>
<path d="M15.852 22.2931L15.876 22.3011L15.884 22.2861L15.895 22.3021L15.902 22.2921V22.2901V22.2661H15.887H15.879H15.86H15.748L15.844 22.3161L15.852 22.2931Z" fill="#E3E7EA"/>
<path d="M15.9381 22.293L15.9141 22.301L15.9221 22.316L15.9251 22.317L15.9231 22.318L15.9861 22.441L15.9511 22.333L15.9381 22.293Z" fill="#E3E7EA"/>
<path d="M15.9035 22.2891L15.9015 22.2921L15.8945 22.3021L15.8995 22.3091L15.9215 22.3161L15.9135 22.3011V22.3001L15.9095 22.2931L15.9075 22.2891L15.9055 22.2861L15.9035 22.2891Z" fill="#E3E7EA"/>
<path d="M15.9225 22.3179L15.9135 22.3279L15.9285 22.3499L15.8945 22.3749L15.9855 22.4409L15.9225 22.3179Z" fill="#E3E7EA"/>
<path d="M15.894 22.3021L15.883 22.2861L15.875 22.3011L15.899 22.3091L15.894 22.3021Z" fill="#E3E7EA"/>
<path d="M15.9297 22.3501L15.9147 22.3281L15.8047 22.4411L15.8957 22.3751L15.9297 22.3501Z" fill="#E3E7EA"/>
<path d="M15.9147 22.328L15.9237 22.318L15.9257 22.317L15.9227 22.316L15.9007 22.309L15.8767 22.301L15.8527 22.293L15.8447 22.316L15.8397 22.333L15.8047 22.441L15.9147 22.328Z" fill="#E3E7EA"/>
<path d="M17.0895 21.374L17.0645 21.451H17.0775L17.0895 21.374Z" fill="#E3E7EA"/>
<path d="M17.0822 21.451H17.0922H17.1132L17.0882 21.374L17.0762 21.451H17.0822Z" fill="#E3E7EA"/>
<path d="M17.0938 21.4512V21.4682H17.0958L17.0978 21.4652V21.4672L17.1948 21.4512H17.1148H17.0938Z" fill="#E3E7EA"/>
<path d="M17.0977 21.4672L17.0997 21.4702L17.1067 21.4722L17.1047 21.4742L17.1197 21.4692L17.1297 21.5002L17.1947 21.4512L17.0977 21.4672Z" fill="#E3E7EA"/>
<path d="M16.9844 21.4512L17.0484 21.5002L17.0534 21.4862L16.9844 21.4512Z" fill="#E3E7EA"/>
<path d="M17.1021 21.471L17.0996 21.4741L17.1036 21.4772L17.106 21.474L17.1021 21.471Z" fill="#E3E7EA"/>
<path d="M17.0584 21.4692L17.0764 21.4752L17.0804 21.4652L17.0894 21.4772L17.0934 21.4702V21.4682V21.4512H17.0834H17.0774H17.0644H16.9844L17.0534 21.4862L17.0584 21.4692Z" fill="#E3E7EA"/>
<path d="M17.1196 21.4692L17.1046 21.4742L17.1016 21.4752L17.1076 21.4852L17.1106 21.4872L17.1096 21.4892L17.1546 21.5762L17.1296 21.5002L17.1196 21.4692Z" fill="#E3E7EA"/>
<path d="M17.0939 21.4678L17.0929 21.4698H17.0919L17.0879 21.4768L17.0899 21.4798L17.1059 21.4848L17.0999 21.4748L17.0979 21.4698L17.0959 21.4668V21.4648L17.0939 21.4678Z" fill="#E3E7EA"/>
<path d="M17.1079 21.4888L17.1009 21.4948L17.1119 21.5098L17.0879 21.5278L17.1529 21.5758L17.1079 21.4888Z" fill="#E3E7EA"/>
<path d="M17.0892 21.4768L17.0802 21.4648L17.0762 21.4748L17.0912 21.4798L17.0892 21.4768Z" fill="#E3E7EA"/>
<path d="M17.1124 21.5101L17.1014 21.4951L17.0234 21.5761L17.0884 21.5281L17.1124 21.5101Z" fill="#E3E7EA"/>
<path d="M17.1014 21.4952L17.1084 21.4892L17.1094 21.4872L17.1064 21.4852L17.0904 21.4802L17.0754 21.4752L17.0574 21.4692L17.0524 21.4862L17.0474 21.5002L17.0234 21.5762L17.1014 21.4952Z" fill="#E3E7EA"/>
<path d="M17.6856 22.1709L17.6426 22.3059H17.6656L17.6856 22.1709Z" fill="#E3E7EA"/>
<path d="M17.676 22.3059H17.695H17.729L17.686 22.1709L17.666 22.3059H17.676Z" fill="#E3E7EA"/>
<path d="M17.6953 22.3062V22.3362H17.6973L17.7003 22.3312L17.7023 22.3352L17.8693 22.3062H17.7293H17.6953Z" fill="#E3E7EA"/>
<path d="M17.7012 22.3352L17.7042 22.3412L17.7142 22.3432L17.7092 22.3502L17.7392 22.3402L17.7552 22.3902L17.8682 22.3062L17.7012 22.3352Z" fill="#E3E7EA"/>
<path d="M17.6953 22.3359V22.3379L17.6973 22.3359H17.6953Z" fill="#E3E7EA"/>
<path d="M17.5 22.3062L17.615 22.3912L17.622 22.3682L17.5 22.3062Z" fill="#E3E7EA"/>
<path d="M17.7101 22.3498L17.7151 22.3428L17.7051 22.3408L17.7101 22.3498Z" fill="#E3E7EA"/>
<path d="M17.622 22.3682L17.632 22.3402L17.661 22.3502L17.671 22.3312L17.685 22.3512L17.694 22.3382V22.3362V22.3062H17.675H17.665H17.642H17.5L17.622 22.3682Z" fill="#E3E7EA"/>
<path d="M17.739 22.3398L17.709 22.3498L17.718 22.3678L17.723 22.3698L17.72 22.3728L17.799 22.5248L17.755 22.3898L17.739 22.3398Z" fill="#E3E7EA"/>
<path d="M17.7205 22.373L17.7095 22.385L17.7275 22.411L17.6855 22.442L17.7995 22.525L17.7205 22.373Z" fill="#E3E7EA"/>
<path d="M17.6915 22.3591L17.7185 22.3681L17.7095 22.3501L17.7045 22.3411L17.7015 22.3351L17.6995 22.3311L17.6965 22.3361L17.6945 22.3381L17.6855 22.3511L17.6915 22.3591Z" fill="#E3E7EA"/>
<path d="M17.6921 22.3591L17.6861 22.3511L17.6721 22.3311L17.6621 22.3501L17.6921 22.3591Z" fill="#E3E7EA"/>
<path d="M17.7283 22.4108L17.7103 22.3848L17.5723 22.5248L17.6863 22.4418L17.7283 22.4108Z" fill="#E3E7EA"/>
<path d="M17.7103 22.3848L17.7213 22.3728L17.7243 22.3698L17.7193 22.3678L17.6923 22.3588L17.6623 22.3498L17.6333 22.3398L17.6233 22.3678L17.6163 22.3908L17.5723 22.5248L17.7103 22.3848Z" fill="#E3E7EA"/>
<path d="M17.5235 22.7158L17.4805 22.8518H17.5035L17.5235 22.7158Z" fill="#E3E7EA"/>
<path d="M17.5139 22.8518H17.5329H17.5669L17.5239 22.7158L17.5039 22.8518H17.5139Z" fill="#E3E7EA"/>
<path d="M17.5332 22.8521V22.8811H17.5342L17.5372 22.8761L17.5392 22.8801L17.7082 22.8521H17.5672H17.5332Z" fill="#E3E7EA"/>
<path d="M17.5391 22.8801L17.5421 22.8861L17.5531 22.8881L17.5481 22.8941L17.5781 22.8841L17.5941 22.9361L17.7081 22.8521L17.5391 22.8801Z" fill="#E3E7EA"/>
<path d="M17.5332 22.8809V22.8829L17.5342 22.8809H17.5332Z" fill="#E3E7EA"/>
<path d="M17.3379 22.8521L17.4529 22.9361L17.4599 22.9131L17.3379 22.8521Z" fill="#E3E7EA"/>
<path d="M17.547 22.8942L17.552 22.8882L17.541 22.8862L17.546 22.8952L17.547 22.8942Z" fill="#E3E7EA"/>
<path d="M17.4689 22.8841L17.4989 22.8941L17.5079 22.8761L17.5219 22.8961L17.5319 22.8831V22.8811V22.8521H17.5129H17.5029H17.4799H17.3379L17.4599 22.9131L17.4689 22.8841Z" fill="#E3E7EA"/>
<path d="M17.5779 22.8838L17.5479 22.8938L17.5469 22.8948L17.5559 22.9128L17.5619 22.9148L17.5589 22.9178L17.6369 23.0718L17.5939 22.9358L17.5779 22.8838Z" fill="#E3E7EA"/>
<path d="M17.5344 22.881L17.5334 22.883L17.5234 22.896L17.5294 22.904L17.5564 22.913L17.5474 22.895L17.5424 22.886L17.5394 22.88L17.5374 22.876L17.5344 22.881Z" fill="#E3E7EA"/>
<path d="M17.5594 22.918L17.5474 22.929L17.5674 22.956L17.5234 22.988L17.6374 23.072L17.5594 22.918Z" fill="#E3E7EA"/>
<path d="M17.523 22.896L17.509 22.876L17.5 22.894L17.529 22.904L17.523 22.896Z" fill="#E3E7EA"/>
<path d="M17.5672 22.9562L17.5472 22.9292L17.4102 23.0722L17.5232 22.9882L17.5672 22.9562Z" fill="#E3E7EA"/>
<path d="M17.5472 22.9288L17.5592 22.9178L17.5622 22.9148L17.5562 22.9128L17.5292 22.9038L17.5002 22.8938L17.4702 22.8838L17.4612 22.9128L17.4542 22.9358L17.4102 23.0718L17.5472 22.9288Z" fill="#E3E7EA"/>
<path d="M22.1809 18.5601L22.1289 18.7231H22.1569L22.1809 18.5601Z" fill="#E3E7EA"/>
<path d="M22.1712 18.7231H22.1932H22.2342L22.1822 18.5601L22.1582 18.7231H22.1712Z" fill="#E3E7EA"/>
<path d="M22.1934 18.7231V18.7581H22.1954L22.1994 18.7531L22.2014 18.7571L22.4024 18.7231H22.2344H22.1934Z" fill="#E3E7EA"/>
<path d="M22.2012 18.7571L22.2042 18.7641L22.2172 18.7661L22.2122 18.7741L22.2462 18.7631L22.2662 18.8241L22.4022 18.7231L22.2012 18.7571Z" fill="#E3E7EA"/>
<path d="M22.1934 18.7578V18.7598L22.1954 18.7578H22.1934Z" fill="#E3E7EA"/>
<path d="M21.9609 18.7231L22.0979 18.8241L22.1059 18.7971L21.9609 18.7231Z" fill="#E3E7EA"/>
<path d="M22.2111 18.7742L22.2161 18.7662L22.2031 18.7642L22.2091 18.7752L22.2111 18.7742Z" fill="#E3E7EA"/>
<path d="M22.1059 18.7971L22.1169 18.7631L22.1539 18.7751L22.1649 18.7531L22.1819 18.7771L22.1929 18.7601V18.7581V18.7231H22.1709H22.1579H22.1299H21.9609L22.1059 18.7971Z" fill="#E3E7EA"/>
<path d="M22.245 18.7632L22.211 18.7742L22.209 18.7752L22.22 18.7972L22.227 18.7992L22.223 18.8032L22.318 18.9862L22.265 18.8242L22.245 18.7632Z" fill="#E3E7EA"/>
<path d="M22.2236 18.8032L22.2096 18.8172L22.2326 18.8492L22.1816 18.8862L22.3186 18.9862L22.2236 18.8032Z" fill="#E3E7EA"/>
<path d="M22.1886 18.7859L22.2206 18.7969L22.2096 18.7749L22.2036 18.7639L22.2006 18.7569L22.1986 18.7529L22.1946 18.7579L22.1926 18.7599L22.1816 18.7769L22.1886 18.7859Z" fill="#E3E7EA"/>
<path d="M22.1893 18.7859L22.1823 18.7769L22.1653 18.7529L22.1543 18.7749L22.1893 18.7859Z" fill="#E3E7EA"/>
<path d="M22.2329 18.8489L22.2099 18.8169L22.0449 18.9859L22.1819 18.8859L22.2329 18.8489Z" fill="#E3E7EA"/>
<path d="M22.2099 18.8172L22.2239 18.8032L22.2279 18.7992L22.2209 18.7972L22.1889 18.7862L22.1539 18.7752L22.1169 18.7632L22.1059 18.7972L22.0979 18.8242L22.0449 18.9862L22.2099 18.8172Z" fill="#E3E7EA"/>
<path d="M24.2961 22.1919L24.2441 22.3539H24.2721L24.2961 22.1919Z" fill="#E3E7EA"/>
<path d="M24.2864 22.3539H24.3084H24.3494L24.2974 22.1919L24.2734 22.3539H24.2864Z" fill="#E3E7EA"/>
<path d="M24.3086 22.354V22.389H24.3106L24.3156 22.383L24.3176 22.388L24.5186 22.354H24.3496H24.3086Z" fill="#E3E7EA"/>
<path d="M24.3164 22.388L24.3204 22.395L24.3314 22.397L24.3264 22.405L24.3614 22.394L24.3804 22.455L24.5174 22.354L24.3164 22.388Z" fill="#E3E7EA"/>
<path d="M24.3086 22.3892V22.3922L24.3106 22.3892H24.3086Z" fill="#E3E7EA"/>
<path d="M24.0762 22.354L24.2122 22.455L24.2212 22.427L24.0762 22.354Z" fill="#E3E7EA"/>
<path d="M24.3263 22.405L24.3313 22.397L24.3203 22.395L24.3253 22.405H24.3263Z" fill="#E3E7EA"/>
<path d="M24.2212 22.427L24.2322 22.394L24.2682 22.406L24.2802 22.383L24.2972 22.407L24.3082 22.392V22.389V22.354H24.2862H24.2732H24.2452H24.0762L24.2212 22.427Z" fill="#E3E7EA"/>
<path d="M24.3622 22.394L24.3272 22.405H24.3262L24.3372 22.427L24.3422 22.429L24.3402 22.432L24.4342 22.617L24.3812 22.455L24.3622 22.394Z" fill="#E3E7EA"/>
<path d="M24.3399 22.4321L24.3259 22.4471L24.3489 22.4791L24.2969 22.5171L24.4339 22.6171L24.3399 22.4321Z" fill="#E3E7EA"/>
<path d="M24.3039 22.4168L24.3369 22.4268L24.3259 22.4048L24.3209 22.3948L24.3169 22.3878L24.3149 22.3828L24.3099 22.3888L24.3079 22.3918L24.2969 22.4068L24.3039 22.4168Z" fill="#E3E7EA"/>
<path d="M24.3036 22.4168L24.2966 22.4068L24.2796 22.3828L24.2676 22.4058L24.3036 22.4168Z" fill="#E3E7EA"/>
<path d="M24.3482 22.4788L24.3252 22.4468L24.1602 22.6168L24.2962 22.5168L24.3482 22.4788Z" fill="#E3E7EA"/>
<path d="M24.3252 22.447L24.3392 22.432L24.3412 22.429L24.3362 22.427L24.3032 22.417L24.2672 22.406L24.2312 22.394L24.2202 22.427L24.2112 22.455L24.1602 22.617L24.3252 22.447Z" fill="#E3E7EA"/>
<path d="M25.0487 22.3218L25.0137 22.4308H25.0327L25.0487 22.3218Z" fill="#E3E7EA"/>
<path d="M25.0412 22.4308H25.0562H25.0842L25.0492 22.3218L25.0332 22.4308H25.0412Z" fill="#E3E7EA"/>
<path d="M25.0566 22.4312V22.4552H25.0576L25.0606 22.4502L25.0626 22.4542L25.1966 22.4312H25.0846H25.0566Z" fill="#E3E7EA"/>
<path d="M25.0625 22.4542L25.0645 22.4582L25.0735 22.4602L25.0705 22.4642L25.0925 22.4572L25.1055 22.4982L25.1965 22.4312L25.0625 22.4542Z" fill="#E3E7EA"/>
<path d="M24.9023 22.4312L24.9923 22.4972L24.9983 22.4792L24.9023 22.4312Z" fill="#E3E7EA"/>
<path d="M25.068 22.457L25.0645 22.4619L25.0693 22.4654L25.0728 22.4605L25.068 22.457Z" fill="#E3E7EA"/>
<path d="M24.9983 22.4792L25.0053 22.4572L25.0303 22.4652L25.0383 22.4502L25.0493 22.4662L25.0563 22.4552V22.4312H25.0413H25.0333H25.0143H24.9023L24.9983 22.4792Z" fill="#E3E7EA"/>
<path d="M25.0914 22.457L25.0694 22.464L25.0664 22.465L25.0744 22.48L25.0784 22.481L25.0764 22.484L25.1394 22.606L25.1044 22.498L25.0914 22.457Z" fill="#E3E7EA"/>
<path d="M25.0768 22.4839L25.0678 22.4929L25.0828 22.5139L25.0488 22.5389L25.1398 22.6059L25.0768 22.4839Z" fill="#E3E7EA"/>
<path d="M25.0528 22.4732L25.0748 22.4802L25.0668 22.4652L25.0638 22.4582L25.0618 22.4542L25.0598 22.4502L25.0568 22.4552H25.0558L25.0488 22.4662L25.0528 22.4732Z" fill="#E3E7EA"/>
<path d="M25.0523 22.4732L25.0483 22.4662L25.0373 22.4502L25.0293 22.4652L25.0523 22.4732Z" fill="#E3E7EA"/>
<path d="M25.082 22.5142L25.067 22.4932L24.957 22.6062L25.048 22.5392L25.082 22.5142Z" fill="#E3E7EA"/>
<path d="M25.067 22.493L25.076 22.484L25.078 22.481L25.074 22.48L25.052 22.473L25.029 22.465L25.004 22.457L24.997 22.479L24.991 22.497L24.957 22.606L25.067 22.493Z" fill="#E3E7EA"/>
<path d="M24.5186 22.7158L24.4746 22.8518H24.4986L24.5186 22.7158Z" fill="#E3E7EA"/>
<path d="M24.509 22.8518H24.528H24.561L24.518 22.7158L24.498 22.8518H24.509Z" fill="#E3E7EA"/>
<path d="M24.5273 22.8521V22.8811H24.5283L24.5313 22.8761L24.5333 22.8801L24.7013 22.8521H24.5603H24.5273Z" fill="#E3E7EA"/>
<path d="M24.5332 22.8801L24.5362 22.8861L24.5472 22.8881L24.5432 22.8941L24.5712 22.8841L24.5882 22.9361L24.7012 22.8521L24.5332 22.8801Z" fill="#E3E7EA"/>
<path d="M24.5273 22.8809V22.8829L24.5283 22.8809H24.5273Z" fill="#E3E7EA"/>
<path d="M24.334 22.8521L24.448 22.9361L24.455 22.9131L24.334 22.8521Z" fill="#E3E7EA"/>
<path d="M24.5441 22.8942L24.5481 22.8882L24.5371 22.8862L24.5411 22.8952L24.5441 22.8942Z" fill="#E3E7EA"/>
<path d="M24.464 22.8841L24.495 22.8951L24.504 22.8761L24.518 22.8961L24.528 22.8831V22.8811V22.8521H24.509H24.498H24.474H24.334L24.455 22.9131L24.464 22.8841Z" fill="#E3E7EA"/>
<path d="M24.572 22.8838L24.544 22.8938L24.541 22.8948L24.551 22.9128L24.556 22.9148L24.553 22.9168L24.632 23.0718L24.589 22.9358L24.572 22.8838Z" fill="#E3E7EA"/>
<path d="M24.5286 22.881L24.5276 22.883L24.5176 22.896L24.5226 22.904L24.5506 22.913L24.5406 22.895L24.5366 22.886L24.5336 22.88L24.5316 22.876L24.5286 22.881Z" fill="#E3E7EA"/>
<path d="M24.5526 22.917L24.5416 22.929L24.5606 22.956L24.5176 22.988L24.6316 23.072L24.5526 22.917Z" fill="#E3E7EA"/>
<path d="M24.5171 22.896L24.5031 22.876L24.4941 22.895L24.5221 22.904L24.5171 22.896Z" fill="#E3E7EA"/>
<path d="M24.5603 22.9562L24.5413 22.9292L24.4043 23.0722L24.5173 22.9882L24.5603 22.9562Z" fill="#E3E7EA"/>
<path d="M24.5413 22.9288L24.5523 22.9168L24.5553 22.9148L24.5503 22.9128L24.5223 22.9038L24.4943 22.8948L24.4633 22.8838L24.4543 22.9128L24.4473 22.9358L24.4043 23.0718L24.5413 22.9288Z" fill="#E3E7EA"/>
<path d="M23.2139 23.8672L23.1699 24.0032H23.1939L23.2139 23.8672Z" fill="#E3E7EA"/>
<path d="M23.2034 24.0032H23.2224H23.2574L23.2134 23.8672L23.1934 24.0032H23.2034Z" fill="#E3E7EA"/>
<path d="M23.2227 24.0029V24.0319L23.2247 24.0309L23.2277 24.0279L23.2287 24.0309L23.3977 24.0029H23.2577H23.2227Z" fill="#E3E7EA"/>
<path d="M23.2285 24.0309L23.2315 24.0369L23.2425 24.0379L23.2365 24.0449L23.2675 24.0359L23.2835 24.0859L23.3975 24.0029L23.2285 24.0309Z" fill="#E3E7EA"/>
<path d="M23.2227 24.0318V24.0338L23.2247 24.0308L23.2227 24.0318Z" fill="#E3E7EA"/>
<path d="M23.1503 24.0639L23.0293 24.0029L23.1433 24.0859L23.1503 24.0639Z" fill="#E3E7EA"/>
<path d="M23.2374 24.0451L23.2434 24.0381L23.2324 24.0371L23.2374 24.0461V24.0451Z" fill="#E3E7EA"/>
<path d="M23.1593 24.0359L23.1903 24.0449L23.1993 24.0279L23.2133 24.0469L23.2223 24.0339V24.0319V24.0029H23.2033H23.1933H23.1693H23.0293L23.1503 24.0639L23.1593 24.0359Z" fill="#E3E7EA"/>
<path d="M23.2673 24.0361L23.2363 24.0451V24.0461L23.2453 24.0641L23.2513 24.0651L23.2483 24.0691L23.3263 24.2211L23.2833 24.0861L23.2673 24.0361Z" fill="#E3E7EA"/>
<path d="M23.2489 24.0688L23.2379 24.0798L23.2569 24.1058L23.2129 24.1378L23.3269 24.2208L23.2489 24.0688Z" fill="#E3E7EA"/>
<path d="M23.2189 24.0548L23.2449 24.0638L23.2359 24.0458L23.2309 24.0368L23.2279 24.0308L23.2269 24.0278L23.2239 24.0308L23.2219 24.0338L23.2129 24.0468L23.2189 24.0548Z" fill="#E3E7EA"/>
<path d="M23.2204 24.0548L23.2144 24.0468L23.2004 24.0278L23.1914 24.0448L23.2204 24.0548Z" fill="#E3E7EA"/>
<path d="M23.2566 24.1061L23.2376 24.0801L23.0996 24.2211L23.2126 24.1381L23.2566 24.1061Z" fill="#E3E7EA"/>
<path d="M23.2376 24.0801L23.2486 24.0691L23.2516 24.0651L23.2456 24.0641L23.2196 24.0551L23.1906 24.0451L23.1596 24.0361L23.1506 24.0641L23.1436 24.0861L23.0996 24.2211L23.2376 24.0801Z" fill="#E3E7EA"/>
<path d="M23.2059 24.459L23.1719 24.568H23.1899L23.2059 24.459Z" fill="#E3E7EA"/>
<path d="M23.1985 24.568H23.2135H23.2405L23.2055 24.459L23.1895 24.568H23.1985Z" fill="#E3E7EA"/>
<path d="M23.2129 24.5679V24.5909H23.2139L23.2169 24.5869L23.2179 24.5899L23.3519 24.5679H23.2399H23.2129Z" fill="#E3E7EA"/>
<path d="M23.2188 24.5899L23.2218 24.5949L23.2297 24.5959L23.2248 24.6019L23.2498 24.5939L23.2627 24.6339L23.3527 24.5679L23.2188 24.5899Z" fill="#E3E7EA"/>
<path d="M23.2129 24.5908V24.5928L23.2139 24.5908H23.2129Z" fill="#E3E7EA"/>
<path d="M23.0586 24.5679L23.1496 24.6349L23.1556 24.6169L23.0586 24.5679Z" fill="#E3E7EA"/>
<path d="M23.2307 24.5962L23.2227 24.5952L23.2257 24.6022L23.2307 24.5962Z" fill="#E3E7EA"/>
<path d="M23.1626 24.5939L23.1876 24.6019L23.1946 24.5869L23.2066 24.6029L23.2136 24.5929V24.5909V24.5679H23.1986H23.1896H23.1716H23.0586L23.1556 24.6169L23.1626 24.5939Z" fill="#E3E7EA"/>
<path d="M23.2496 24.5942L23.2246 24.6022L23.2326 24.6172L23.2366 24.6182L23.2346 24.6212L23.2966 24.7432L23.2626 24.6342L23.2496 24.5942Z" fill="#E3E7EA"/>
<path d="M23.215 24.5909L23.214 24.5929L23.207 24.6029L23.212 24.6099L23.233 24.6169L23.225 24.6019L23.222 24.5949L23.219 24.5899L23.218 24.5869L23.215 24.5909Z" fill="#E3E7EA"/>
<path d="M23.2341 24.6211L23.2251 24.6301L23.2401 24.6511L23.2051 24.6761L23.2961 24.7431L23.2341 24.6211Z" fill="#E3E7EA"/>
<path d="M23.2065 24.6029L23.1945 24.5869L23.1875 24.6019L23.2115 24.6099L23.2065 24.6029Z" fill="#E3E7EA"/>
<path d="M23.2412 24.6509L23.2262 24.6299L23.1152 24.7429L23.2062 24.6759L23.2412 24.6509Z" fill="#E3E7EA"/>
<path d="M23.2262 24.6302L23.2352 24.6212L23.2372 24.6182L23.2332 24.6172L23.2122 24.6102L23.1882 24.6022L23.1632 24.5942L23.1562 24.6172L23.1502 24.6352L23.1152 24.7432L23.2262 24.6302Z" fill="#E3E7EA"/>
<path d="M23.7518 23.4731L23.7168 23.5811H23.7348L23.7518 23.4731Z" fill="#E3E7EA"/>
<path d="M23.7434 23.5811H23.7584H23.7854L23.7514 23.4731L23.7344 23.5811H23.7434Z" fill="#E3E7EA"/>
<path d="M23.7598 23.5811V23.6051H23.7618L23.7648 23.6021L23.7658 23.6041L23.8998 23.5811H23.7868H23.7598Z" fill="#E3E7EA"/>
<path d="M23.7656 23.6041L23.7686 23.6091L23.7766 23.6101L23.7726 23.6151L23.7956 23.6081L23.8086 23.6491L23.8996 23.5811L23.7656 23.6041Z" fill="#E3E7EA"/>
<path d="M23.7598 23.605V23.607L23.7618 23.605H23.7598Z" fill="#E3E7EA"/>
<path d="M23.6055 23.5811L23.6965 23.6491L23.7025 23.6301L23.6055 23.5811Z" fill="#E3E7EA"/>
<path d="M23.7717 23.6081L23.7676 23.6138L23.7716 23.6167L23.7758 23.6111L23.7717 23.6081Z" fill="#E3E7EA"/>
<path d="M23.7025 23.6301L23.7095 23.6081L23.7335 23.6161L23.7405 23.6021L23.7525 23.6171L23.7595 23.6071V23.6051V23.5811H23.7445H23.7355H23.7175H23.6055L23.7025 23.6301Z" fill="#E3E7EA"/>
<path d="M23.7955 23.6079L23.7725 23.6149L23.7715 23.6159L23.7795 23.6309L23.7825 23.6319L23.7805 23.6339L23.8435 23.7569L23.8085 23.6489L23.7955 23.6079Z" fill="#E3E7EA"/>
<path d="M23.78 23.6338L23.771 23.6438L23.786 23.6638L23.752 23.6898L23.843 23.7568L23.78 23.6338Z" fill="#E3E7EA"/>
<path d="M23.756 23.6241L23.779 23.6311L23.771 23.6161L23.768 23.6091L23.765 23.6041L23.764 23.6021L23.761 23.6051L23.759 23.6071L23.752 23.6171L23.756 23.6241Z" fill="#E3E7EA"/>
<path d="M23.7554 23.6241L23.7514 23.6171L23.7394 23.6021L23.7324 23.6161L23.7554 23.6241Z" fill="#E3E7EA"/>
<path d="M23.7852 23.664L23.7702 23.644L23.6602 23.757L23.7512 23.69L23.7852 23.664Z" fill="#E3E7EA"/>
<path d="M23.7702 23.6439L23.7792 23.6339L23.7812 23.6319L23.7782 23.6309L23.7552 23.6239L23.7322 23.6159L23.7082 23.6079L23.7012 23.6299L23.6952 23.6489L23.6602 23.7569L23.7702 23.6439Z" fill="#E3E7EA"/>
<path d="M24.1856 23.1582L24.1426 23.2932H24.1656L24.1856 23.1582Z" fill="#E3E7EA"/>
<path d="M24.177 23.2932H24.196H24.23L24.186 23.1582L24.166 23.2932H24.177Z" fill="#E3E7EA"/>
<path d="M24.1953 23.293V23.323L24.1963 23.322L24.2003 23.318L24.2023 23.321L24.3693 23.293H24.2293H24.1953Z" fill="#E3E7EA"/>
<path d="M24.2031 23.321L24.2061 23.327L24.2161 23.329L24.2111 23.335L24.2401 23.326L24.2571 23.376L24.3701 23.293L24.2031 23.321Z" fill="#E3E7EA"/>
<path d="M24.1953 23.3228V23.3238L24.1963 23.3218L24.1953 23.3228Z" fill="#E3E7EA"/>
<path d="M24.124 23.354L24.002 23.293L24.117 23.377L24.124 23.354Z" fill="#E3E7EA"/>
<path d="M24.2101 23.3351L24.2151 23.3291L24.2051 23.3271L24.2091 23.3351H24.2101Z" fill="#E3E7EA"/>
<path d="M24.133 23.326L24.163 23.335L24.172 23.318L24.187 23.337L24.196 23.324V23.323V23.293H24.177H24.166H24.143H24.002L24.124 23.354L24.133 23.326Z" fill="#E3E7EA"/>
<path d="M24.239 23.3262L24.21 23.3352H24.209L24.218 23.3542L24.224 23.3562L24.221 23.3592L24.299 23.5112L24.256 23.3762L24.239 23.3262Z" fill="#E3E7EA"/>
<path d="M24.2225 23.3589L24.2115 23.3699L24.2305 23.3959L24.1875 23.4279L24.3005 23.5109L24.2225 23.3589Z" fill="#E3E7EA"/>
<path d="M24.1925 23.3449L24.2195 23.3539L24.2105 23.3349L24.2065 23.3269L24.2035 23.3209L24.2015 23.3179L24.1975 23.3219L24.1965 23.3239L24.1875 23.3369L24.1925 23.3449Z" fill="#E3E7EA"/>
<path d="M24.1911 23.3449L24.1861 23.3369L24.1711 23.3179L24.1621 23.3349L24.1911 23.3449Z" fill="#E3E7EA"/>
<path d="M24.2293 23.3961L24.2103 23.3701L24.0723 23.5111L24.1863 23.4281L24.2293 23.3961Z" fill="#E3E7EA"/>
<path d="M24.2103 23.3702L24.2213 23.3592L24.2243 23.3562L24.2183 23.3542L24.1913 23.3452L24.1623 23.3352L24.1323 23.3262L24.1233 23.3542L24.1163 23.3772L24.0723 23.5112L24.2103 23.3702Z" fill="#E3E7EA"/>
<path d="M23.1903 23.3691L23.1562 23.4771H23.1752L23.1903 23.3691Z" fill="#E3E7EA"/>
<path d="M23.1838 23.4771H23.1988H23.2258L23.1908 23.3691L23.1758 23.4771H23.1838Z" fill="#E3E7EA"/>
<path d="M23.1992 23.4771V23.5001H23.2012L23.2022 23.4971L23.2042 23.4991L23.3392 23.4771H23.2262H23.1992Z" fill="#E3E7EA"/>
<path d="M23.2031 23.4991L23.2051 23.5031L23.2141 23.5051L23.2101 23.5101L23.2341 23.5031L23.2471 23.5441L23.3381 23.4771L23.2031 23.4991Z" fill="#E3E7EA"/>
<path d="M23.1992 23.5V23.502L23.2012 23.5H23.1992Z" fill="#E3E7EA"/>
<path d="M23.0449 23.4771L23.1349 23.5431L23.1409 23.5261L23.0449 23.4771Z" fill="#E3E7EA"/>
<path d="M23.2101 23.5099L23.2141 23.5049L23.2051 23.5029L23.2091 23.5109L23.2101 23.5099Z" fill="#E3E7EA"/>
<path d="M23.1409 23.5261L23.1479 23.5031L23.1729 23.5111L23.1799 23.4971L23.1909 23.5121L23.1989 23.5021V23.5001V23.4771H23.1839H23.1759H23.1569H23.0449L23.1409 23.5261Z" fill="#E3E7EA"/>
<path d="M23.234 23.5029L23.21 23.5099L23.209 23.5109L23.216 23.5239L23.222 23.5259L23.218 23.5299L23.282 23.6529L23.247 23.5439L23.234 23.5029Z" fill="#E3E7EA"/>
<path d="M23.2184 23.5298L23.2104 23.5388L23.2254 23.5598L23.1914 23.5848L23.2824 23.6528L23.2184 23.5298Z" fill="#E3E7EA"/>
<path d="M23.1954 23.5181L23.2174 23.5241L23.2104 23.5111L23.2064 23.5031L23.2044 23.4991L23.2024 23.4971L23.2014 23.5001L23.1994 23.5021L23.1914 23.5121L23.1954 23.5181Z" fill="#E3E7EA"/>
<path d="M23.1958 23.5181L23.1918 23.5121L23.1808 23.4971L23.1738 23.5111L23.1958 23.5181Z" fill="#E3E7EA"/>
<path d="M23.2256 23.5601L23.2106 23.5391L23.0996 23.6531L23.1916 23.5851L23.2256 23.5601Z" fill="#E3E7EA"/>
<path d="M23.2106 23.5389L23.2186 23.5299L23.2226 23.5259L23.2166 23.5239L23.1946 23.5179L23.1726 23.5109L23.1476 23.5029L23.1406 23.5259L23.1346 23.5429L23.0996 23.6529L23.2106 23.5389Z" fill="#E3E7EA"/>
<path d="M18.4385 20.5269L18.3945 20.6629H18.4175L18.4385 20.5269Z" fill="#E3E7EA"/>
<path d="M18.427 20.6629H18.446H18.48L18.437 20.5269L18.416 20.6629H18.427Z" fill="#E3E7EA"/>
<path d="M18.4473 20.6631V20.6921H18.4493L18.4523 20.6881L18.4543 20.6911L18.6223 20.6631H18.4813H18.4473Z" fill="#E3E7EA"/>
<path d="M18.4531 20.6911L18.4561 20.6971L18.4651 20.6991L18.4601 20.7061L18.4911 20.6961L18.5071 20.7471L18.6211 20.6631L18.4531 20.6911Z" fill="#E3E7EA"/>
<path d="M18.4473 20.6919V20.6939L18.4493 20.6919H18.4473Z" fill="#E3E7EA"/>
<path d="M18.2539 20.6631L18.3669 20.7471L18.3749 20.7241L18.2539 20.6631Z" fill="#E3E7EA"/>
<path d="M18.466 20.6988L18.457 20.6968L18.461 20.7058L18.466 20.6988Z" fill="#E3E7EA"/>
<path d="M18.3749 20.7241L18.3839 20.6961L18.4139 20.7061L18.4229 20.6881L18.4379 20.7081L18.4469 20.6941V20.6921V20.6631H18.4279H18.4169H18.3939H18.2539L18.3749 20.7241Z" fill="#E3E7EA"/>
<path d="M18.4919 20.6958L18.4609 20.7058L18.4709 20.7248L18.4759 20.7258L18.4729 20.7288L18.5509 20.8818L18.5079 20.7468L18.4919 20.6958Z" fill="#E3E7EA"/>
<path d="M18.4725 20.729L18.4615 20.741L18.4795 20.767L18.4375 20.798L18.5505 20.882L18.4725 20.729Z" fill="#E3E7EA"/>
<path d="M18.4425 20.716L18.4705 20.725L18.4605 20.706L18.4565 20.697L18.4535 20.691L18.4515 20.688L18.4485 20.692L18.4465 20.694L18.4375 20.708L18.4425 20.716Z" fill="#E3E7EA"/>
<path d="M18.4431 20.716L18.4381 20.708L18.4231 20.688L18.4141 20.706L18.4431 20.716Z" fill="#E3E7EA"/>
<path d="M18.4802 20.7672L18.4622 20.7412L18.3242 20.8822L18.4382 20.7982L18.4802 20.7672Z" fill="#E3E7EA"/>
<path d="M18.4622 20.7408L18.4732 20.7288L18.4762 20.7258L18.4712 20.7248L18.4432 20.7158L18.4142 20.7058L18.3842 20.6958L18.3752 20.7238L18.3672 20.7468L18.3242 20.8818L18.4622 20.7408Z" fill="#E3E7EA"/>
<path d="M21.9745 20.0669L21.9395 20.1749H21.9585L21.9745 20.0669Z" fill="#E3E7EA"/>
<path d="M21.968 20.1749H21.983H22.01L21.975 20.0669L21.959 20.1749H21.968Z" fill="#E3E7EA"/>
<path d="M21.9824 20.1748V20.1988V20.1978L21.9864 20.1938L21.9874 20.1978L22.1224 20.1748H22.0094H21.9824Z" fill="#E3E7EA"/>
<path d="M21.9883 20.1978L21.9913 20.2028L21.9993 20.2038L21.9963 20.2078L22.0183 20.2008L22.0323 20.2418L22.1233 20.1748L21.9883 20.1978Z" fill="#E3E7EA"/>
<path d="M21.8281 20.1748L21.9181 20.2418L21.9241 20.2238L21.8281 20.1748Z" fill="#E3E7EA"/>
<path d="M21.9957 20.2031L21.9922 20.208L21.9962 20.2109L21.9998 20.2061L21.9957 20.2031Z" fill="#E3E7EA"/>
<path d="M21.9241 20.2238L21.9311 20.2008L21.9551 20.2088L21.9631 20.1938L21.9741 20.2098L21.9821 20.1988V20.1748H21.9671H21.9581H21.9391H21.8281L21.9241 20.2238Z" fill="#E3E7EA"/>
<path d="M22.0181 20.2012L21.9961 20.2082L21.9941 20.2092L22.0021 20.2242L22.0061 20.2252L22.0041 20.2272L22.0661 20.3512L22.0321 20.2422L22.0181 20.2012Z" fill="#E3E7EA"/>
<path d="M22.0046 20.2271L21.9956 20.2371L22.0106 20.2581L21.9766 20.2831L22.0666 20.3511L22.0046 20.2271Z" fill="#E3E7EA"/>
<path d="M21.9796 20.2168L22.0016 20.2238L21.9936 20.2088L21.9906 20.2028L21.9876 20.1978L21.9866 20.1938L21.9826 20.1978V20.1988L21.9746 20.2098L21.9796 20.2168Z" fill="#E3E7EA"/>
<path d="M21.9791 20.2168L21.9741 20.2098L21.9631 20.1938L21.9551 20.2088L21.9791 20.2168Z" fill="#E3E7EA"/>
<path d="M22.0108 20.2578L21.9958 20.2368L21.8848 20.3508L21.9768 20.2828L22.0108 20.2578Z" fill="#E3E7EA"/>
<path d="M21.9958 20.2372L22.0048 20.2272L22.0068 20.2252L22.0028 20.2242L21.9808 20.2172L21.9568 20.2092L21.9328 20.2012L21.9258 20.2242L21.9198 20.2422L21.8848 20.3512L21.9958 20.2372Z" fill="#E3E7EA"/>
<path d="M20.5012 22.729L20.4492 22.892H20.4772L20.5012 22.729Z" fill="#E3E7EA"/>
<path d="M20.4896 22.892H20.5126H20.5526L20.5006 22.729L20.4766 22.892H20.4896Z" fill="#E3E7EA"/>
<path d="M20.5137 22.8921V22.9271H20.5157L20.5187 22.9221L20.5207 22.9261L20.7227 22.8921H20.5537H20.5137Z" fill="#E3E7EA"/>
<path d="M20.5195 22.9261L20.5235 22.9331L20.5365 22.9351L20.5305 22.9431L20.5655 22.9311L20.5855 22.9931L20.7215 22.8921L20.5195 22.9261Z" fill="#E3E7EA"/>
<path d="M20.5137 22.9268V22.9278L20.5157 22.9268H20.5137Z" fill="#E3E7EA"/>
<path d="M20.2812 22.8921L20.4172 22.9921L20.4262 22.9651L20.2812 22.8921Z" fill="#E3E7EA"/>
<path d="M20.5304 22.9431L20.5364 22.9351L20.5234 22.9331L20.5284 22.9431H20.5304Z" fill="#E3E7EA"/>
<path d="M20.4373 22.9311L20.4732 22.9431L20.4852 22.9221L20.5012 22.9451L20.5132 22.9281V22.9271V22.8921H20.4902H20.4772H20.4492H20.2812L20.4262 22.9651L20.4373 22.9311Z" fill="#E3E7EA"/>
<path d="M20.5663 22.9312L20.5313 22.9432H20.5293L20.5413 22.9652L20.5473 22.9682L20.5443 22.9712L20.6383 23.1552L20.5863 22.9932L20.5663 22.9312Z" fill="#E3E7EA"/>
<path d="M20.514 22.9269L20.512 22.9279L20.5 22.9449L20.507 22.9549L20.54 22.9649L20.528 22.9429L20.523 22.9329L20.519 22.9259L20.517 22.9219L20.514 22.9269Z" fill="#E3E7EA"/>
<path d="M20.543 22.9712L20.529 22.9852L20.551 23.0172L20.5 23.0552L20.637 23.1552L20.543 22.9712Z" fill="#E3E7EA"/>
<path d="M20.5007 22.9449L20.4847 22.9219L20.4727 22.9429L20.5077 22.9549L20.5007 22.9449Z" fill="#E3E7EA"/>
<path d="M20.5522 23.0169L20.5302 22.9849L20.3652 23.1549L20.5012 23.0549L20.5522 23.0169Z" fill="#E3E7EA"/>
<path d="M20.5302 22.9852L20.5442 22.9712L20.5472 22.9682L20.5412 22.9652L20.5082 22.9552L20.4732 22.9432L20.4372 22.9312L20.4262 22.9652L20.4172 22.9922L20.3652 23.1552L20.5302 22.9852Z" fill="#E3E7EA"/>
<path d="M21.128 21.6782L21.084 21.8142H21.108L21.128 21.6782Z" fill="#E3E7EA"/>
<path d="M21.1184 21.8142H21.1364H21.1714L21.1274 21.6782L21.1074 21.8142H21.1184Z" fill="#E3E7EA"/>
<path d="M21.1367 21.814V21.843H21.1377L21.1407 21.838L21.1427 21.842L21.3117 21.814H21.1717H21.1367Z" fill="#E3E7EA"/>
<path d="M21.1426 21.842L21.1456 21.847L21.1576 21.849L21.1526 21.856L21.1816 21.846L21.1976 21.897L21.3116 21.814L21.1426 21.842Z" fill="#E3E7EA"/>
<path d="M21.1367 21.8428V21.8438L21.1377 21.8428H21.1367Z" fill="#E3E7EA"/>
<path d="M20.9434 21.814L21.0574 21.897L21.0644 21.875L20.9434 21.814Z" fill="#E3E7EA"/>
<path d="M21.1535 21.8562L21.1585 21.8492L21.1465 21.8472L21.1515 21.8562H21.1535Z" fill="#E3E7EA"/>
<path d="M21.0644 21.875L21.0734 21.846L21.1034 21.856L21.1134 21.838L21.1274 21.857L21.1364 21.844V21.843V21.814H21.1184H21.1074H21.0834H20.9434L21.0644 21.875Z" fill="#E3E7EA"/>
<path d="M21.1814 21.8462L21.1524 21.8562H21.1504L21.1594 21.8752L21.1654 21.8762L21.1624 21.8802L21.2404 22.0332L21.1974 21.8972L21.1814 21.8462Z" fill="#E3E7EA"/>
<path d="M21.162 21.8799L21.151 21.8909L21.17 21.9169L21.127 21.9489L21.24 22.0329L21.162 21.8799Z" fill="#E3E7EA"/>
<path d="M21.133 21.8659L21.159 21.8749L21.15 21.8559L21.145 21.8469L21.142 21.8419L21.14 21.8379L21.137 21.8429L21.136 21.8439L21.127 21.8569L21.133 21.8659Z" fill="#E3E7EA"/>
<path d="M21.1335 21.8659L21.1275 21.8569L21.1135 21.8379L21.1035 21.8559L21.1335 21.8659Z" fill="#E3E7EA"/>
<path d="M21.1707 21.9171L21.1517 21.8911L21.0137 22.0331L21.1277 21.9491L21.1707 21.9171Z" fill="#E3E7EA"/>
<path d="M21.1517 21.8912L21.1627 21.8802L21.1657 21.8762L21.1597 21.8752L21.1337 21.8662L21.1037 21.8562L21.0737 21.8462L21.0647 21.8752L21.0577 21.8972L21.0137 22.0332L21.1517 21.8912Z" fill="#E3E7EA"/>
<path d="M20.5 21.1851L20.457 21.3211H20.48L20.5 21.1851Z" fill="#E3E7EA"/>
<path d="M20.4915 21.3211H20.5105H20.5445L20.5005 21.1851L20.4805 21.3211H20.4915Z" fill="#E3E7EA"/>
<path d="M20.5117 21.3208V21.3498H20.5127L20.5157 21.3448L20.5177 21.3488L20.6857 21.3208H20.5457H20.5117Z" fill="#E3E7EA"/>
<path d="M20.5176 21.3488L20.5206 21.3548L20.5316 21.3568L20.5276 21.3628L20.5556 21.3528L20.5726 21.4038L20.6856 21.3208L20.5176 21.3488Z" fill="#E3E7EA"/>
<path d="M20.5117 21.3501V21.3511L20.5127 21.3501H20.5117Z" fill="#E3E7EA"/>
<path d="M20.3184 21.3208L20.4314 21.4038L20.4384 21.3818L20.3184 21.3208Z" fill="#E3E7EA"/>
<path d="M20.5265 21.363L20.5305 21.357L20.5195 21.355L20.5235 21.363H20.5265Z" fill="#E3E7EA"/>
<path d="M20.4384 21.3818L20.4484 21.3528L20.4784 21.3628L20.4884 21.3448L20.5014 21.3648L20.5114 21.3508V21.3498V21.3208H20.4924H20.4814H20.4584H20.3184L20.4384 21.3818Z" fill="#E3E7EA"/>
<path d="M20.5544 21.353L20.5264 21.363H20.5234L20.5334 21.381L20.5394 21.383L20.5354 21.386L20.6144 21.54L20.5714 21.404L20.5544 21.353Z" fill="#E3E7EA"/>
<path d="M20.535 21.3862L20.524 21.3982L20.543 21.4252L20.5 21.4562L20.614 21.5402L20.535 21.3862Z" fill="#E3E7EA"/>
<path d="M20.506 21.3732L20.533 21.3812L20.523 21.3632L20.519 21.3552L20.516 21.3492L20.514 21.3452L20.511 21.3502L20.51 21.3512L20.5 21.3652L20.506 21.3732Z" fill="#E3E7EA"/>
<path d="M20.5075 21.3732L20.5015 21.3652L20.4885 21.3452L20.4785 21.3632L20.5075 21.3732Z" fill="#E3E7EA"/>
<path d="M20.5437 21.4249L20.5247 21.3979L20.3867 21.5399L20.5007 21.4559L20.5437 21.4249Z" fill="#E3E7EA"/>
<path d="M20.5247 21.398L20.5357 21.386L20.5397 21.383L20.5337 21.381L20.5067 21.373L20.4777 21.363L20.4477 21.353L20.4377 21.382L20.4307 21.404L20.3867 21.54L20.5247 21.398Z" fill="#E3E7EA"/>
<path d="M19.9549 21.7168L19.9199 21.8248H19.9389L19.9549 21.7168Z" fill="#E3E7EA"/>
<path d="M19.9485 21.8248H19.9625H19.9895L19.9555 21.7168L19.9395 21.8248H19.9485Z" fill="#E3E7EA"/>
<path d="M19.9629 21.8252V21.8492H19.9649L19.9669 21.8462L19.9689 21.8482L20.1029 21.8252H19.9899H19.9629Z" fill="#E3E7EA"/>
<path d="M19.9688 21.8482L19.9707 21.8532L19.9788 21.8542L19.9757 21.8592L19.9998 21.8522L20.0117 21.8922L20.1027 21.8252L19.9688 21.8482Z" fill="#E3E7EA"/>
<path d="M19.9629 21.8491V21.8511L19.9649 21.8491H19.9629Z" fill="#E3E7EA"/>
<path d="M19.8086 21.8252L19.8996 21.8932L19.9056 21.8752L19.8086 21.8252Z" fill="#E3E7EA"/>
<path d="M19.9749 21.8518L19.9707 21.8574L19.9747 21.8604L19.9789 21.8548L19.9749 21.8518Z" fill="#E3E7EA"/>
<path d="M19.9056 21.8752L19.9126 21.8522L19.9376 21.8602L19.9446 21.8462L19.9556 21.8612L19.9626 21.8512V21.8492V21.8252H19.9486H19.9396H19.9206H19.8086L19.9056 21.8752Z" fill="#E3E7EA"/>
<path d="M19.9996 21.8521L19.9756 21.8591L19.9746 21.8601L19.9816 21.8741L19.9866 21.8761L19.9836 21.8781L20.0466 22.0011L20.0116 21.8921L19.9996 21.8521Z" fill="#E3E7EA"/>
<path d="M19.9831 21.8779L19.9741 21.8879L19.9901 21.9089L19.9551 21.9349L20.0461 22.0009L19.9831 21.8779Z" fill="#E3E7EA"/>
<path d="M19.9601 21.8672L19.9811 21.8742L19.9741 21.8602L19.9701 21.8532L19.9681 21.8482L19.9661 21.8462L19.9641 21.8492L19.9621 21.8512L19.9551 21.8612L19.9601 21.8672Z" fill="#E3E7EA"/>
<path d="M19.9605 21.8672L19.9555 21.8612L19.9445 21.8462L19.9375 21.8602L19.9605 21.8672Z" fill="#E3E7EA"/>
<path d="M19.9912 21.9092L19.9752 21.8882L19.8652 22.0012L19.9562 21.9352L19.9912 21.9092Z" fill="#E3E7EA"/>
<path d="M19.9752 21.8881L19.9842 21.8781L19.9872 21.8761L19.9822 21.8741L19.9612 21.8671L19.9382 21.8601L19.9132 21.8521L19.9062 21.8751L19.9002 21.8931L19.8652 22.0011L19.9752 21.8881Z" fill="#E3E7EA"/>
<path d="M20.2281 22.1431L20.2031 22.2201H20.2171L20.2281 22.1431Z" fill="#E3E7EA"/>
<path d="M20.2228 22.2201H20.2338H20.2538L20.2278 22.1431L20.2168 22.2201H20.2228Z" fill="#E3E7EA"/>
<path d="M20.2344 22.2202V22.2382H20.2354L20.2374 22.2352L20.2384 22.2372L20.3344 22.2202H20.2544H20.2344Z" fill="#E3E7EA"/>
<path d="M20.2383 22.2372L20.2403 22.2412L20.2463 22.2422L20.2443 22.2442L20.2593 22.2392L20.2683 22.2692L20.3343 22.2202L20.2383 22.2372Z" fill="#E3E7EA"/>
<path d="M20.2344 22.2378V22.2388L20.2354 22.2378H20.2344Z" fill="#E3E7EA"/>
<path d="M20.123 22.2202L20.188 22.2692L20.192 22.2552L20.123 22.2202Z" fill="#E3E7EA"/>
<path d="M20.2426 22.2404L20.2402 22.2437L20.2435 22.246L20.2458 22.2428L20.2426 22.2404Z" fill="#E3E7EA"/>
<path d="M20.192 22.2552L20.198 22.2392L20.215 22.2452L20.22 22.2352L20.229 22.2462L20.234 22.2392V22.2382V22.2202H20.223H20.217H20.203H20.123L20.192 22.2552Z" fill="#E3E7EA"/>
<path d="M20.2592 22.2388L20.2442 22.2438L20.2422 22.2448L20.2482 22.2558L20.2502 22.2568L20.2492 22.2578L20.2942 22.3458L20.2682 22.2688L20.2592 22.2388Z" fill="#E3E7EA"/>
<path d="M20.2485 22.2578L20.2415 22.2648L20.2535 22.2798L20.2285 22.2978L20.2935 22.3458L20.2485 22.2578Z" fill="#E3E7EA"/>
<path d="M20.2315 22.2509L20.2475 22.2559L20.2415 22.2449L20.2395 22.2409L20.2375 22.2369L20.2365 22.2349L20.2345 22.2379L20.2335 22.2389L20.2285 22.2459L20.2315 22.2509Z" fill="#E3E7EA"/>
<path d="M20.2278 22.2367L20.2148 22.2461L20.2201 22.2534L20.2331 22.244L20.2278 22.2367Z" fill="#E3E7EA"/>
<path d="M20.2541 22.2801L20.2421 22.2651L20.1641 22.3461L20.2291 22.2981L20.2541 22.2801Z" fill="#E3E7EA"/>
<path d="M20.2421 22.2648L20.2491 22.2578L20.2501 22.2568L20.2481 22.2558L20.2321 22.2508L20.2151 22.2448L20.1981 22.2388L20.1921 22.2548L20.1881 22.2688L20.1641 22.3458L20.2421 22.2648Z" fill="#E3E7EA"/>
<path d="M22.1231 24.001L22.0801 24.136H22.1031L22.1231 24.001Z" fill="#E3E7EA"/>
<path d="M22.1035 24.136H22.1135H22.1325H22.1665L22.1235 24.001L22.1035 24.136Z" fill="#E3E7EA"/>
<path d="M22.1328 24.1362V24.1662H22.1348L22.1378 24.1622L22.1398 24.1652L22.3078 24.1362H22.1668H22.1328Z" fill="#E3E7EA"/>
<path d="M22.1387 24.1652L22.1417 24.1712L22.1517 24.1732L22.1467 24.1802L22.1767 24.1702L22.1927 24.2202L22.3067 24.1362L22.1387 24.1652Z" fill="#E3E7EA"/>
<path d="M22.1348 24.166H22.1328V24.168L22.1348 24.166Z" fill="#E3E7EA"/>
<path d="M21.9395 24.1362L22.0525 24.2202L22.0605 24.1982L21.9395 24.1362Z" fill="#E3E7EA"/>
<path d="M22.1476 24.1799L22.1526 24.1729L22.1426 24.1709L22.1466 24.1799H22.1476Z" fill="#E3E7EA"/>
<path d="M22.0695 24.1702L22.0995 24.1802L22.1095 24.1622L22.1235 24.1812L22.1325 24.1682V24.1662V24.1362H22.1135H22.1035H22.0805H21.9395L22.0605 24.1982L22.0695 24.1702Z" fill="#E3E7EA"/>
<path d="M22.1775 24.1699L22.1475 24.1799H22.1465L22.1565 24.1979L22.1605 24.1999L22.1585 24.2019L22.2375 24.3559L22.1935 24.2199L22.1775 24.1699Z" fill="#E3E7EA"/>
<path d="M22.123 24.1811L22.129 24.1901L22.156 24.1981L22.146 24.1801L22.142 24.1711L22.139 24.1651L22.137 24.1621L22.134 24.1661L22.132 24.1681L22.123 24.1811Z" fill="#E3E7EA"/>
<path d="M22.158 24.2021L22.147 24.2141L22.166 24.2411L22.123 24.2721L22.237 24.3561L22.158 24.2021Z" fill="#E3E7EA"/>
<path d="M22.1236 24.1811L22.1096 24.1621L22.0996 24.1801L22.1296 24.1901L22.1236 24.1811Z" fill="#E3E7EA"/>
<path d="M22.1668 24.2409L22.1478 24.2139L22.0098 24.3559L22.1238 24.2719L22.1668 24.2409Z" fill="#E3E7EA"/>
<path d="M22.1478 24.2139L22.1588 24.2019L22.1608 24.1999L22.1568 24.1979L22.1298 24.1899L22.0998 24.1799L22.0698 24.1699L22.0608 24.1979L22.0528 24.2199L22.0098 24.3559L22.1478 24.2139Z" fill="#E3E7EA"/>
<path d="M22.5877 23.5552L22.5527 23.6642H22.5717L22.5877 23.5552Z" fill="#E3E7EA"/>
<path d="M22.5783 23.6642H22.5943H22.6213L22.5863 23.5552L22.5703 23.6642H22.5783Z" fill="#E3E7EA"/>
<path d="M22.5957 23.6641V23.6881L22.5967 23.6871L22.5987 23.6841L22.6007 23.6871L22.7357 23.6641H22.6227H22.5957Z" fill="#E3E7EA"/>
<path d="M22.5996 23.6871L22.6016 23.6911L22.6106 23.6921L22.6076 23.6971L22.6296 23.6891L22.6436 23.7301L22.7346 23.6641L22.5996 23.6871Z" fill="#E3E7EA"/>
<path d="M22.5957 23.688L22.5967 23.687L22.5957 23.688Z" fill="#E3E7EA"/>
<path d="M22.4395 23.6641L22.5305 23.7301L22.5365 23.7121L22.4395 23.6641Z" fill="#E3E7EA"/>
<path d="M22.607 23.6904L22.6035 23.6953L22.6076 23.6982L22.6111 23.6933L22.607 23.6904Z" fill="#E3E7EA"/>
<path d="M22.5365 23.7121L22.5435 23.6891L22.5685 23.6971L22.5755 23.6841L22.5865 23.7001L22.5945 23.6881V23.6641H22.5785H22.5705H22.5515H22.4395L22.5365 23.7121Z" fill="#E3E7EA"/>
<path d="M22.6305 23.689L22.6085 23.697H22.6055L22.6135 23.712L22.6175 23.714L22.6155 23.716L22.6785 23.838L22.6445 23.73L22.6305 23.689Z" fill="#E3E7EA"/>
<path d="M22.6139 23.7158L22.6049 23.7258L22.6199 23.7468L22.5859 23.7718L22.6769 23.8378L22.6139 23.7158Z" fill="#E3E7EA"/>
<path d="M22.5899 23.7051L22.6119 23.7121L22.6039 23.6971L22.6009 23.6911L22.5989 23.6871L22.5969 23.6841L22.5949 23.6871L22.5939 23.6881L22.5859 23.7001L22.5899 23.7051Z" fill="#E3E7EA"/>
<path d="M22.5904 23.7051L22.5864 23.7001L22.5754 23.6841L22.5684 23.6971L22.5904 23.7051Z" fill="#E3E7EA"/>
<path d="M22.6201 23.7471L22.6051 23.7261L22.4961 23.8381L22.5861 23.7721L22.6201 23.7471Z" fill="#E3E7EA"/>
<path d="M22.6051 23.726L22.6141 23.716L22.6161 23.714L22.6121 23.712L22.5901 23.705L22.5681 23.697L22.5431 23.689L22.5361 23.712L22.5301 23.73L22.4961 23.838L22.6051 23.726Z" fill="#E3E7EA"/>
<path d="M21.6952 23.4209L21.6602 23.5289H21.6782L21.6952 23.4209Z" fill="#E3E7EA"/>
<path d="M21.6887 23.5289H21.7037H21.7307L21.6967 23.4209L21.6797 23.5289H21.6887Z" fill="#E3E7EA"/>
<path d="M21.7031 23.5288V23.5518H21.7051L21.7071 23.5488L21.7081 23.5508L21.8421 23.5288H21.7301H21.7031Z" fill="#E3E7EA"/>
<path d="M21.707 23.5508L21.709 23.5558L21.717 23.5568L21.713 23.5628V23.5638L21.738 23.5548L21.751 23.5948L21.841 23.5288L21.707 23.5508Z" fill="#E3E7EA"/>
<path d="M21.7031 23.5518V23.5548L21.7051 23.5518H21.7031Z" fill="#E3E7EA"/>
<path d="M21.5488 23.5288L21.6398 23.5958L21.6458 23.5778L21.5488 23.5288Z" fill="#E3E7EA"/>
<path d="M21.717 23.5572L21.709 23.5562L21.713 23.5632L21.717 23.5572Z" fill="#E3E7EA"/>
<path d="M21.6458 23.5778L21.6528 23.5548L21.6778 23.5638L21.6848 23.5488L21.6958 23.5638L21.7038 23.5548V23.5518V23.5288H21.6888H21.6798H21.6618H21.5488L21.6458 23.5778Z" fill="#E3E7EA"/>
<path d="M21.7379 23.5552L21.7129 23.5642L21.7209 23.5792L21.7249 23.5802L21.7229 23.5832L21.7859 23.7052L21.7509 23.5952L21.7379 23.5552Z" fill="#E3E7EA"/>
<path d="M21.7243 23.583L21.7153 23.592L21.7303 23.612L21.6953 23.637L21.7873 23.705L21.7243 23.583Z" fill="#E3E7EA"/>
<path d="M21.7013 23.5718L21.7223 23.5788L21.7143 23.5638V23.5628L21.7103 23.5558L21.7083 23.5508L21.7073 23.5488L21.7053 23.5518L21.7033 23.5548L21.6953 23.5638L21.7013 23.5718Z" fill="#E3E7EA"/>
<path d="M21.7017 23.5718L21.6957 23.5638L21.6847 23.5488L21.6777 23.5638L21.7017 23.5718Z" fill="#E3E7EA"/>
<path d="M21.7295 23.6118L21.7145 23.5918L21.6035 23.7048L21.6945 23.6368L21.7295 23.6118Z" fill="#E3E7EA"/>
<path d="M21.7145 23.5922L21.7235 23.5832L21.7255 23.5802L21.7215 23.5792L21.7005 23.5722L21.6765 23.5642L21.6515 23.5552L21.6445 23.5782L21.6385 23.5962L21.6035 23.7052L21.7145 23.5922Z" fill="#E3E7EA"/>
<path d="M18.3274 23.1782L18.2754 23.3412H18.3034L18.3274 23.1782Z" fill="#E3E7EA"/>
<path d="M18.3157 23.3412H18.3377H18.3787L18.3267 23.1782L18.3027 23.3412H18.3157Z" fill="#E3E7EA"/>
<path d="M18.3379 23.3408V23.3758H18.3389L18.3439 23.3698L18.3459 23.3748L18.5479 23.3408H18.3789H18.3379Z" fill="#E3E7EA"/>
<path d="M18.3457 23.3748L18.3497 23.3818L18.3617 23.3838L18.3567 23.3908L18.3917 23.3788L18.4117 23.4408L18.5477 23.3408L18.3457 23.3748Z" fill="#E3E7EA"/>
<path d="M18.3379 23.376V23.378L18.3389 23.376H18.3379Z" fill="#E3E7EA"/>
<path d="M18.2505 23.4138L18.1055 23.3408L18.2425 23.4398L18.2505 23.4138Z" fill="#E3E7EA"/>
<path d="M18.3566 23.3908L18.3616 23.3838L18.3496 23.3818L18.3546 23.3918L18.3566 23.3908Z" fill="#E3E7EA"/>
<path d="M18.2615 23.3788L18.2985 23.3918L18.3095 23.3698L18.3265 23.3928L18.3375 23.3778V23.3758V23.3408H18.3155H18.3025H18.2745H18.1055L18.2505 23.4138L18.2615 23.3788Z" fill="#E3E7EA"/>
<path d="M18.3925 23.3789L18.3575 23.3909L18.3555 23.3919L18.3675 23.4149L18.3735 23.4169L18.3705 23.4199L18.4645 23.6029L18.4125 23.4409L18.3925 23.3789Z" fill="#E3E7EA"/>
<path d="M18.3692 23.4199L18.3552 23.4339L18.3772 23.4649L18.3262 23.5029L18.4632 23.6029L18.3692 23.4199Z" fill="#E3E7EA"/>
<path d="M18.3332 23.4041L18.3662 23.4151L18.3542 23.3921L18.3492 23.3821L18.3452 23.3751L18.3432 23.3701L18.3382 23.3761L18.3372 23.3781L18.3262 23.3931L18.3332 23.4041Z" fill="#E3E7EA"/>
<path d="M18.3338 23.4041L18.3268 23.3931L18.3098 23.3701L18.2988 23.3921L18.3338 23.4041Z" fill="#E3E7EA"/>
<path d="M18.3775 23.4651L18.3555 23.4341L18.1895 23.6031L18.3265 23.5031L18.3775 23.4651Z" fill="#E3E7EA"/>
<path d="M18.3555 23.4339L18.3695 23.4199L18.3725 23.4169L18.3665 23.4149L18.3335 23.4039L18.2985 23.3919L18.2615 23.3789L18.2505 23.4139L18.2425 23.4399L18.1895 23.6029L18.3555 23.4339Z" fill="#E3E7EA"/>
<path d="M20.5004 24.7158L20.4824 24.7708H20.4924L20.5004 24.7158Z" fill="#E3E7EA"/>
<path d="M20.4962 24.7708H20.5052H20.5182L20.5002 24.7158L20.4922 24.7708H20.4962Z" fill="#E3E7EA"/>
<path d="M20.5059 24.771V24.783L20.5069 24.781L20.5079 24.782L20.5749 24.771H20.5189H20.5059Z" fill="#E3E7EA"/>
<path d="M20.5078 24.782L20.5088 24.784L20.5128 24.785L20.5108 24.788L20.5228 24.784L20.5288 24.804L20.5748 24.771L20.5078 24.782Z" fill="#E3E7EA"/>
<path d="M20.4277 24.771L20.4737 24.805L20.4767 24.796L20.4277 24.771Z" fill="#E3E7EA"/>
<path d="M20.5101 24.7843L20.5078 24.7876L20.5103 24.7893L20.5126 24.786L20.5101 24.7843Z" fill="#E3E7EA"/>
<path d="M20.4797 24.784L20.4917 24.788L20.4957 24.781L20.5007 24.789L20.5057 24.783V24.771H20.4967H20.4927H20.4827H20.4277L20.4767 24.796L20.4797 24.784Z" fill="#E3E7EA"/>
<path d="M20.5237 24.7842L20.5117 24.7882V24.7892L20.5147 24.7962L20.5177 24.7972L20.5167 24.7982L20.5467 24.8592L20.5297 24.8042L20.5237 24.7842Z" fill="#E3E7EA"/>
<path d="M20.505 24.7828L20.5 24.7888L20.503 24.7918L20.513 24.7958L20.51 24.7888L20.508 24.7838L20.507 24.7818L20.506 24.7808L20.505 24.7828Z" fill="#E3E7EA"/>
<path d="M20.515 24.7979L20.51 24.8029L20.517 24.8119L20.5 24.8249L20.545 24.8589L20.515 24.7979Z" fill="#E3E7EA"/>
<path d="M20.5012 24.7888L20.4962 24.7808L20.4922 24.7878L20.5042 24.7918L20.5012 24.7888Z" fill="#E3E7EA"/>
<path d="M20.5171 24.8122L20.5101 24.8032L20.4551 24.8592L20.5001 24.8252L20.5171 24.8122Z" fill="#E3E7EA"/>
<path d="M20.5101 24.8032L20.5151 24.7982L20.5161 24.7972L20.5131 24.7962L20.5031 24.7922L20.4911 24.7882L20.4791 24.7842L20.4761 24.7962L20.4731 24.8052L20.4551 24.8592L20.5101 24.8032Z" fill="#E3E7EA"/>
</svg>
