<svg width="41" height="41" viewBox="0 0 41 41" fill="none" xmlns="http://www.w3.org/2000/svg">
<path d="M34.5 8.5H6.5C4.29086 8.5 2.5 10.2909 2.5 12.5V28.5C2.5 30.7091 4.29086 32.5 6.5 32.5H34.5C36.7091 32.5 38.5 30.7091 38.5 28.5V12.5C38.5 10.2909 36.7091 8.5 34.5 8.5Z" fill="#00A9C6"/>
<path d="M19.9848 20.4992L13.9648 24.5082H38.5008V16.4912H13.9648L19.9848 20.4992Z" fill="#F6DF0B"/>
<path d="M2.5 24.5078V28.5038C2.5 29.6178 2.958 30.6228 3.693 31.3478L13.964 24.5078H2.5Z" fill="black"/>
<path d="M2.5 16.4909H13.964L3.693 9.65088C2.958 10.3759 2.5 11.3809 2.5 12.4949V16.4899V16.4909Z" fill="black"/>
<path d="M19.984 20.4992L13.964 16.4912H2.5V24.5082H13.964L19.984 20.4992Z" fill="black"/>
</svg>
