<svg width="41" height="41" viewBox="0 0 41 41" fill="none" xmlns="http://www.w3.org/2000/svg">
<path d="M29.1608 15.0029L28.8728 14.7759L28.6648 15.2289L28.5028 14.8579C28.5028 14.8579 28.3788 14.7349 28.1728 14.8789C28.0338 14.9749 27.9098 15.1599 27.8418 15.2749C28.0028 15.3619 28.1968 15.4459 28.3948 15.5259L29.1248 15.0659L29.1608 15.0029Z" fill="#EDAC00"/>
<path d="M28.0957 15.688C28.1037 15.692 28.1097 15.697 28.1177 15.701L28.1247 15.697C28.1157 15.695 28.1057 15.69 28.0957 15.688Z" fill="#EDAC00"/>
<path d="M7.368 28.7621C7.368 28.7621 7.395 28.7501 7.436 28.7301L7.957 28.4021C7.987 28.3771 8.02 28.3551 8.047 28.3291C8.294 28.0811 8.933 27.5881 9.345 27.5251C9.348 27.5251 9.35 27.5231 9.353 27.5231L10.108 27.0481C10.122 27.0361 10.134 27.0231 10.148 27.0111C10.148 27.0111 9.674 27.1751 9.221 27.2581C8.768 27.3401 8.705 27.4431 8.397 27.6701C8.087 27.8971 7.881 27.6701 7.881 27.6701C7.881 27.6701 8.211 27.6081 8.479 27.2581C8.747 26.9081 9.221 26.7641 9.509 26.7641C9.797 26.7641 10.313 26.5581 10.498 26.3301C10.683 26.1031 10.931 26.1031 10.931 26.1031C10.931 26.1031 10.581 26.1241 10.209 26.1851C9.838 26.2471 9.674 26.0621 9.406 26.2881C9.138 26.5161 9.53 26.0411 9.859 25.9791C10.189 25.9171 10.581 25.7931 10.869 25.6911C11.157 25.5871 11.363 25.4641 11.363 25.4641C11.363 25.4641 10.765 25.1751 10.477 25.2991C10.189 25.4221 10.106 25.1751 9.838 25.1131C9.57 25.0511 9.262 25.1541 9.262 25.1541C9.262 25.1541 9.489 24.7831 9.86 24.8241C10.231 24.8661 10.705 24.7431 11.158 24.8661C11.611 24.9901 12.105 25.0111 12.332 24.9901C12.559 24.9691 13.424 24.7621 13.732 24.6611C14.041 24.5571 14.289 24.0841 14.289 24.0841C14.289 24.0841 13.959 24.0631 13.815 23.8781C13.815 23.8781 14.083 23.8371 14.289 23.6721C14.495 23.5081 14.7 23.3631 14.783 23.4251C14.865 23.4871 14.535 22.9311 14.906 22.8691C14.906 22.8691 14.875 22.3021 15.07 22.1761C14.857 22.2441 14.261 22.4041 13.958 22.1691C13.958 22.1691 14.392 22.1691 14.576 21.9631C14.762 21.7571 14.844 21.4491 15.297 21.4491C15.297 21.4491 15.153 20.6431 15.689 20.5001C15.689 20.5001 15.586 20.0681 15.812 19.9861C15.812 19.9861 15.215 19.8211 15.03 19.9241C15.03 19.9241 15.565 19.3061 16.122 19.4711C16.678 19.6361 16.204 19.0791 16.781 19.1421C17.357 19.2031 16.967 18.5021 17.749 18.6671C17.749 18.6671 17.542 18.4001 17.398 18.1321C17.253 17.8631 17.975 18.0281 18.408 18.3181C18.841 18.6061 19.335 18.3591 19.83 18.4211C20.324 18.4831 19.892 18.0701 19.892 18.0701L20.901 18.5231C20.901 18.5231 21.765 19.0171 22.239 18.8941C22.714 18.7701 21.806 18.7491 21.806 18.7491C21.806 18.7491 22.467 18.5231 22.528 18.5441C22.591 18.5651 22.199 18.1511 22.405 17.7811C22.405 17.7811 21.704 17.5131 21.889 17.0811C21.889 17.0811 21.476 17.0601 21.313 17.2261C21.147 17.3911 21.024 17.7201 21.024 17.7201C21.024 17.7201 20.942 17.3081 21.21 16.9791C21.477 16.6491 21.374 16.4231 21.374 16.4231C21.374 16.4231 20.797 16.5061 20.633 16.7731C20.633 16.7731 21.045 15.9901 21.477 15.8871C21.477 15.8871 21.457 15.1251 21.869 14.7131C21.869 14.7131 20.86 14.4661 20.499 14.5891C20.138 14.7131 19.85 14.8781 19.85 14.8781C19.85 14.8781 20.035 14.3421 20.53 14.3421C21.025 14.3421 21.622 14.1361 22.137 14.2801C22.653 14.4241 21.457 13.8871 22.281 13.9501C22.281 13.9501 21.972 13.4961 22.817 13.8881C23.661 14.2811 23.537 13.8061 23.228 13.6831C22.919 13.5591 21.806 13.2711 21.518 13.3531C21.229 13.4351 21.095 13.7601 21.538 13.8881C21.538 13.8881 21.147 14.0531 20.941 13.7651C20.736 13.4771 21.209 12.8801 21.827 12.9421C22.446 13.0041 23.085 13.2721 23.085 13.2721C23.085 13.2721 24.486 13.4581 23.908 13.1481C23.331 12.8391 22.962 12.5501 22.631 12.6741C22.302 12.7981 22.837 12.2211 24.053 12.9421C24.053 12.9421 24.65 12.9001 24.095 12.6941C23.538 12.4881 22.837 12.2821 22.529 12.3021C22.221 12.3221 22.076 12.1371 22.632 12.0751C23.189 12.0131 23.847 12.0961 24.465 12.4671C25.083 12.8381 25.557 12.8791 25.083 12.4671C24.609 12.0551 24.032 11.8911 24.032 11.8911C24.032 11.8911 24.299 11.7531 24.629 11.7771C24.364 11.6931 24.05 11.6131 23.847 11.6231C23.435 11.6441 24.095 11.1701 25.145 11.6651C26.197 12.1581 25.969 12.3441 26.403 12.4881C26.835 12.6321 27.906 12.8391 28.359 12.7771C28.811 12.7151 29.079 13.2921 29.656 13.0861C30.233 12.8801 30.357 13.3541 30.625 12.9001C30.893 12.4461 30.893 12.4881 31.058 12.3231C31.222 12.1581 31.202 12.1581 31.181 11.8081C31.16 11.4571 31.387 11.4781 31.614 11.2921C31.84 11.1061 31.923 10.9001 31.923 10.9001C31.923 10.9001 32.128 11.2101 31.799 11.4571C31.469 11.7041 31.469 12.1571 31.387 12.4251C31.304 12.6931 30.995 13.3111 30.995 13.3111C30.995 13.3111 31.223 13.0221 31.49 12.9601C31.757 12.8981 32.375 13.0021 32.643 12.8161C32.643 12.8161 32.634 12.8421 32.631 12.8561L37.454 9.81707C36.722 9.01207 35.677 8.49707 34.503 8.49707H6.5C4.291 8.49707 2.5 10.2881 2.5 12.4971V28.4971C2.5 29.5321 2.904 30.4661 3.549 31.1771L7.38 28.7631C7.38 28.7631 7.372 28.7621 7.368 28.7591V28.7621Z" fill="#EDAC00"/>
<path d="M31.3984 13.6339L32.1034 13.1899C31.9354 13.2259 31.7654 13.2619 31.6934 13.3139C31.6094 13.3739 31.4884 13.5189 31.3984 13.6339Z" fill="#EDAC00"/>
<path d="M26.8759 16.2361C26.4629 16.2361 26.1749 16.1331 26.0109 16.1741C25.8459 16.2151 25.5159 16.5251 25.2689 16.5251C25.0219 16.5251 25.6399 16.0921 25.8039 15.9071C25.9689 15.7211 25.4329 15.9481 24.8779 15.9071C24.3209 15.8661 25.0209 15.6601 25.2889 15.5561C25.5559 15.4531 24.6669 15.3911 24.6669 15.3911C24.6669 15.3911 24.5059 15.8451 24.5059 16.1331C24.5059 16.1331 25.1959 16.8061 25.7849 17.1701L27.3629 16.1761C27.3129 16.1451 27.2569 16.1041 27.2109 16.0821C27.1009 16.1721 26.9849 16.2351 26.8759 16.2351V16.2361Z" fill="#EDAC00"/>
<path d="M17.2959 21.7569C17.2009 22.0349 17.1469 22.3409 17.1289 22.6239L19.3869 21.2009C18.3899 20.9909 17.5059 21.1429 17.2959 21.7569Z" fill="#EDAC00"/>
<path d="M38.422 11.7228C38.392 11.5718 38.339 11.4288 38.292 11.2848C38.263 11.1958 38.244 11.1038 38.209 11.0178C38.129 10.8208 38.03 10.6338 37.92 10.4538C37.906 10.4308 37.896 10.4048 37.881 10.3818C37.763 10.1958 37.628 10.0218 37.482 9.85785C37.471 9.84585 37.463 9.83085 37.452 9.81885H37.45L32.627 12.8588C32.616 12.9018 32.59 12.9868 32.495 13.0668C32.433 13.1178 32.269 13.1538 32.102 13.1898L31.397 13.6338C31.332 13.7168 31.28 13.7878 31.28 13.7878H31.61C31.796 13.7878 31.961 13.5608 32.269 13.5408C32.577 13.5208 33.361 13.7458 33.631 13.5788C33.631 13.5788 33.486 13.9288 32.867 13.9078C32.249 13.8868 32.003 13.9898 31.755 14.1138C31.509 14.2368 30.623 14.3818 30.623 14.3818L30.355 14.8768C30.355 14.8768 30.603 15.1858 30.458 15.4938C30.368 15.6888 30.314 15.9048 30.283 16.0468C30.547 16.0868 30.759 16.0878 30.913 15.9468C31.159 15.7208 30.768 15.5378 30.768 15.5378C30.768 15.5378 31.366 15.7008 31.304 15.9688C31.304 15.9688 31.787 15.6808 31.308 15.4128C31.308 15.4128 31.88 15.3918 31.88 15.8658C31.88 15.8658 32.313 15.8448 32.643 16.1748C32.973 16.5048 32.746 16.6698 32.746 16.6698C32.746 16.6698 32.705 16.1548 32.149 16.2158C31.592 16.2778 31.202 16.4838 30.605 16.4628C30.424 16.4568 30.14 16.3708 29.816 16.2598C29.812 16.5328 29.801 16.8578 29.574 17.0198C29.574 17.0198 29.585 16.5368 29.583 16.1788L29.11 16.0078C29.077 16.0278 29.04 16.0458 29.018 16.0708C28.975 16.1208 28.927 16.1778 28.88 16.2358C29.161 16.4568 29.422 16.7028 29.327 16.8338C29.161 17.0598 28.935 17.5538 28.564 17.1838C28.295 16.9148 27.774 16.4258 27.362 16.1768L25.784 17.1708C25.854 17.2138 25.923 17.2548 25.988 17.2878C26.606 17.5968 27.615 18.1108 28.232 17.9458C28.85 17.7828 29.304 17.9778 29.304 17.9778C29.304 17.9778 29.634 16.6478 30.725 16.6478C31.816 16.6478 31.528 17.3068 31.528 17.3068C31.528 17.3068 32.269 17.8628 32.269 18.2548C32.269 18.6468 31.445 19.5318 30.621 19.5318C29.797 19.5318 29.385 18.9338 29.385 18.9338C29.385 18.9338 28.52 19.5318 27.696 19.5318L27.963 20.4378L27.53 19.9428L27.386 20.6438C27.386 20.6438 26.911 20.1078 27.056 19.6548C27.056 19.6548 26.911 19.9438 26.603 19.9238C26.603 19.9238 26.871 19.7378 26.892 19.3058C26.892 19.3058 26.335 18.9978 25.923 19.4098C25.923 19.4098 26.005 20.4608 25.696 21.0988C25.387 21.7378 24.769 22.2528 24.749 22.5198C24.728 22.7878 24.626 22.9118 24.688 22.9118C24.749 22.9118 26.088 23.6338 26.85 23.3868C27.613 23.1398 28.044 21.9648 29.064 22.5618C29.064 22.5618 28.435 22.9138 28.168 23.4378C28.168 23.4378 29.465 23.0568 29.465 24.2718C29.465 24.2718 30.001 25.3218 29.341 25.8988C28.684 26.4758 27.962 26.1458 27.962 26.1458C27.962 26.1458 27.015 25.9608 26.603 25.3018C26.192 24.6438 26.583 24.4578 26.583 24.4578C26.583 24.4578 25.428 24.2518 24.831 24.0248C24.233 23.7988 23.513 23.2838 23.513 23.2838L23.162 23.7778L23.018 23.1798C23.018 23.1798 22.626 23.6738 22.277 23.4268C22.277 23.4268 22.606 23.1998 22.73 22.8918L22.38 22.4578L22.957 22.6858C22.957 22.6858 23.287 22.3138 23.348 22.0668C23.348 22.0668 21.514 21.9638 20.217 21.4498C19.938 21.3388 19.657 21.2588 19.383 21.2018L17.125 22.6248C17.093 23.1358 17.184 23.5658 17.396 23.5928C17.725 23.6338 17.582 22.6038 17.994 22.4588C18.406 22.3138 19.127 22.6868 19.127 22.6868C19.127 22.6868 18.509 22.6868 18.364 23.3258C18.364 23.3258 19.765 22.7898 19.868 23.7368C19.868 23.7368 20.485 24.2118 20.156 24.8078C19.826 25.4048 19.146 25.3428 19.146 25.3428C19.146 25.3428 18.549 25.5278 18.178 25.2608C17.808 24.9928 17.849 24.8078 17.849 24.8078L17.334 24.7658C17.334 24.7658 17.169 25.5288 17.272 25.8368C17.375 26.1448 17.788 26.4128 17.808 26.8878C17.808 26.8878 18.715 26.8678 19.085 27.1558C19.455 27.4428 19.208 28.5968 19.208 28.5968C19.208 28.5968 19.146 27.9788 18.899 27.7118C18.652 27.4438 18.26 27.5888 18.26 27.5888C18.26 27.5888 18.466 27.8348 18.507 28.2878C18.549 28.7408 18.322 28.9678 18.322 28.9678C18.322 28.9678 18.384 29.8328 17.745 30.0388C17.106 30.2448 16.468 29.8738 16.345 29.5238C16.221 29.1728 16.345 28.9878 16.345 28.9878C16.345 28.9878 15.665 28.1648 16.036 27.7308C16.407 27.2978 16.736 27.3808 16.736 27.3808C16.736 27.3808 16.715 26.7218 16.468 26.4338C16.468 26.4338 16.303 26.3298 16.076 26.8058L15.924 26.3928L15.211 26.4758C15.211 26.4758 15.623 25.8988 15.911 26.0228L15.458 25.6938L16.179 25.6318C16.179 25.6318 16.2 24.9938 16.2 25.0558C16.2 25.1178 15.438 25.0348 15.006 25.4268C14.573 25.8188 14.326 26.1258 14.079 26.2708C13.832 26.4148 13.44 26.8278 13.152 27.0748C12.863 27.3218 12.081 27.2608 11.916 27.6108C11.916 27.6108 12.204 27.1768 12.452 27.1358C12.699 27.0948 12.926 26.7028 12.926 26.7028C12.926 26.7028 12.679 26.7028 12.308 26.9298C11.937 27.1578 11.649 27.5068 11.278 27.4048C11.278 27.4048 11.586 27.1768 11.71 26.9108C11.71 26.9108 11.587 27.0548 11.278 27.0548C10.969 27.0548 11.051 27.2198 10.927 27.4248C10.803 27.6308 10.37 27.6108 10.205 27.6308C10.041 27.6518 10.102 28.0828 9.58802 28.2278C9.07202 28.3728 8.84602 28.2078 8.41302 28.4558C7.98502 28.6998 7.77702 29.0008 7.37402 28.7678L3.54302 31.1818H3.54102C3.54102 31.1818 3.54702 31.1878 3.55002 31.1908C3.72202 31.3798 3.91302 31.5508 4.11802 31.7038C4.13002 31.7128 4.14102 31.7248 4.15402 31.7338C4.34502 31.8738 4.55302 31.9908 4.76702 32.0958C4.80202 32.1128 4.83302 32.1348 4.86802 32.1508C5.06202 32.2388 5.26902 32.2998 5.47802 32.3568C5.53902 32.3728 5.59502 32.3988 5.65702 32.4118C5.90702 32.4658 6.16802 32.4928 6.43402 32.4968C6.45302 32.4968 6.47002 32.5028 6.48902 32.5028H34.498C36.705 32.5028 38.493 30.7138 38.493 28.5068V12.4958C38.493 12.2308 38.465 11.9728 38.415 11.7238L38.422 11.7228Z" fill="#E31729"/>
<path d="M29.4609 15.8857C29.5019 15.8967 29.5369 15.9047 29.5739 15.9137L29.5709 15.8687C29.5709 15.8687 29.5229 15.8757 29.4609 15.8867V15.8857Z" fill="#E31729"/>
<path d="M28.1152 15.7017C28.2062 15.7477 28.2922 15.7957 28.3562 15.8477C28.4292 15.9077 28.5762 16.0107 28.7322 16.1287C28.7632 16.0687 28.8062 16.0137 28.8702 15.9717L28.9102 15.9427C28.6412 15.8477 28.3762 15.7647 28.1222 15.6987L28.1152 15.7027V15.7017Z" fill="#E31729"/>
<path d="M29.1245 15.0669L28.3945 15.5269C28.6355 15.6239 28.8845 15.7149 29.1185 15.7869C29.3335 15.6139 29.5535 15.4159 29.5535 15.4159L29.6155 15.2099L28.9975 15.2919L29.1245 15.0669Z" fill="#E31729"/>
<path d="M9.35352 27.5219C9.73352 27.4619 9.88752 27.2429 10.1085 27.0469L9.35352 27.5219Z" fill="#E31729"/>
<path d="M29.8418 15.9696L30.1388 16.0266C30.1068 15.9056 30.0798 15.7626 30.0888 15.5996C30.0888 15.5996 29.8978 15.7366 29.8418 15.9696Z" fill="#E31729"/>
<path d="M7.43555 28.7299C7.54755 28.6769 7.77455 28.5539 7.95655 28.4019L7.43555 28.7299Z" fill="#E31729"/>
<path d="M31.4872 12.9628C31.2202 13.0248 30.9922 13.3138 30.9922 13.3138C30.9922 13.3138 31.3012 12.6958 31.3842 12.4278C31.4662 12.1598 31.4662 11.7068 31.7962 11.4598C32.1252 11.2128 31.9202 10.9028 31.9202 10.9028C31.9202 10.9028 31.8372 11.1088 31.6112 11.2948C31.3842 11.4808 31.1582 11.4598 31.1782 11.8108C31.1992 12.1608 31.2192 12.1608 31.0552 12.3258C30.8912 12.4908 30.8912 12.4488 30.6222 12.9028C30.3542 13.3558 30.2302 12.8818 29.6532 13.0888C29.0762 13.2958 28.8082 12.7178 28.3562 12.7798C27.9032 12.8418 26.8322 12.6348 26.4002 12.4908C25.9672 12.3458 26.1942 12.1608 25.1422 11.6678C24.0922 11.1728 23.4322 11.6468 23.8442 11.6258C24.0472 11.6158 24.3612 11.6958 24.6262 11.7798C24.2962 11.7558 24.0292 11.8938 24.0292 11.8938C24.0292 11.8938 24.6062 12.0578 25.0802 12.4698C25.5542 12.8818 25.0802 12.8408 24.4622 12.4698C23.8442 12.0988 23.1852 12.0168 22.6292 12.0778C22.0732 12.1398 22.2182 12.3248 22.5262 12.3048C22.8342 12.2848 23.5362 12.4908 24.0922 12.6968C24.6472 12.9028 24.0502 12.9448 24.0502 12.9448C22.8342 12.2238 22.2992 12.7998 22.6282 12.6768C22.9592 12.5528 23.3282 12.8418 23.9052 13.1508C24.4822 13.4608 23.0822 13.2748 23.0822 13.2748C23.0822 13.2748 22.4432 13.0068 21.8242 12.9448C21.2062 12.8828 20.7332 13.4798 20.9382 13.7678C21.1442 14.0558 21.5352 13.8908 21.5352 13.8908C21.0922 13.7628 21.2262 13.4378 21.5152 13.3558C21.8032 13.2738 22.9162 13.5618 23.2252 13.6858C23.5342 13.8088 23.6582 14.2838 22.8142 13.8908C21.9692 13.4988 22.2782 13.9528 22.2782 13.9528C21.4542 13.8908 22.6492 14.4268 22.1342 14.2828C21.6192 14.1378 21.0222 14.3448 20.5272 14.3448C20.0322 14.3448 19.8472 14.8808 19.8472 14.8808C19.8472 14.8808 20.1352 14.7158 20.4962 14.5918C20.8572 14.4688 21.8662 14.7158 21.8662 14.7158C21.4552 15.1278 21.4742 15.8898 21.4742 15.8898C21.0422 15.9928 20.6302 16.7758 20.6302 16.7758C20.7942 16.5078 21.3712 16.4258 21.3712 16.4258C21.3712 16.4258 21.4742 16.6528 21.2072 16.9818C20.9392 17.3108 21.0212 17.7228 21.0212 17.7228C21.0212 17.7228 21.1442 17.3938 21.3102 17.2288C21.4732 17.0638 21.8862 17.0838 21.8862 17.0838C21.7002 17.5168 22.4022 17.7838 22.4022 17.7838C22.1962 18.1538 22.5882 18.5668 22.5252 18.5468C22.4642 18.5258 21.8032 18.7518 21.8032 18.7518C21.8032 18.7518 22.7112 18.7728 22.2362 18.8968C21.7622 19.0198 20.8982 18.5258 20.8982 18.5258L19.8892 18.0728C19.8892 18.0728 20.3222 18.4848 19.8272 18.4238C19.3322 18.3618 18.8382 18.6098 18.4052 18.3208C17.9722 18.0318 17.2512 17.8668 17.3952 18.1348C17.5392 18.4028 17.7462 18.6698 17.7462 18.6698C16.9642 18.5048 17.3542 19.2048 16.7782 19.1448C16.2012 19.0828 16.6752 19.6388 16.1192 19.4738C15.5622 19.3088 15.0272 19.9268 15.0272 19.9268C15.2132 19.8228 15.8092 19.9888 15.8092 19.9888C15.5822 20.0708 15.6862 20.5028 15.6862 20.5028C15.1502 20.6458 15.2942 21.4518 15.2942 21.4518C14.8412 21.4518 14.7592 21.7598 14.5732 21.9658C14.3882 22.1718 13.9552 22.1718 13.9552 22.1718C14.2582 22.4068 14.8542 22.2458 15.0672 22.1788C14.8722 22.3048 14.9032 22.8718 14.9032 22.8718C14.5322 22.9338 14.8622 23.4898 14.7802 23.4278C14.6972 23.3658 14.4922 23.5108 14.2862 23.6748C14.0802 23.8398 13.8122 23.8808 13.8122 23.8808C13.9562 24.0668 14.2862 24.0868 14.2862 24.0868C14.2862 24.0868 14.0382 24.5608 13.7292 24.6638C13.4202 24.7658 12.5552 24.9718 12.3292 24.9928C12.1022 25.0138 11.6082 24.9928 11.1552 24.8688C10.7022 24.7458 10.2282 24.8688 9.85723 24.8268C9.48623 24.7858 9.25923 25.1568 9.25923 25.1568C9.25923 25.1568 9.56823 25.0538 9.83523 25.1158C10.1032 25.1778 10.1862 25.4248 10.4742 25.3018C10.7622 25.1778 11.3602 25.4668 11.3602 25.4668C11.3602 25.4668 11.1542 25.5898 10.8662 25.6938C10.5782 25.7968 10.1862 25.9198 9.85623 25.9818C9.52723 26.0438 9.13523 26.5178 9.40323 26.2908C9.67123 26.0638 9.83523 26.2498 10.2062 26.1878C10.5782 26.1258 10.9282 26.1058 10.9282 26.1058C10.9282 26.1058 10.6812 26.1058 10.4952 26.3328C10.3092 26.5608 9.79523 26.7668 9.50623 26.7668C9.21723 26.7668 8.74423 26.9118 8.47623 27.2608C8.20823 27.6118 7.87823 27.6728 7.87823 27.6728C7.87823 27.6728 8.08423 27.8998 8.39423 27.6728C8.70323 27.4458 8.76524 27.3428 9.21824 27.2608C9.67124 27.1778 10.1452 27.0138 10.1452 27.0138C10.1312 27.0258 10.1192 27.0388 10.1052 27.0508C9.88423 27.2468 9.73123 27.4658 9.35023 27.5258C9.34723 27.5258 9.34523 27.5278 9.34223 27.5278C8.93023 27.5898 8.29123 28.0838 8.04423 28.3318C8.01823 28.3578 7.98423 28.3808 7.95423 28.4048C7.77123 28.5568 7.54523 28.6798 7.43323 28.7328C7.39223 28.7528 7.36523 28.7648 7.36523 28.7648C7.36923 28.7678 7.37323 28.7658 7.37723 28.7688C7.77923 29.0008 7.98823 28.7008 8.41623 28.4568C8.84923 28.2098 9.07523 28.3738 9.59123 28.2288C10.1062 28.0838 10.0442 27.6528 10.2082 27.6318C10.3732 27.6118 10.8062 27.6318 10.9302 27.4258C11.0542 27.2208 10.9712 27.0558 11.2812 27.0558C11.5912 27.0558 11.7132 26.9118 11.7132 26.9118C11.5892 27.1788 11.2812 27.4058 11.2812 27.4058C11.6522 27.5088 11.9402 27.1588 12.3112 26.9308C12.6822 26.7038 12.9292 26.7038 12.9292 26.7038C12.9292 26.7038 12.7022 27.0958 12.4552 27.1368C12.2072 27.1778 11.9192 27.6118 11.9192 27.6118C12.0842 27.2608 12.8662 27.3228 13.1552 27.0758C13.4432 26.8288 13.8352 26.4158 14.0822 26.2718C14.3292 26.1268 14.5762 25.8198 15.0092 25.4278C15.4422 25.0358 16.2032 25.1188 16.2032 25.0568C16.2032 24.9948 16.1822 25.6328 16.1822 25.6328L15.4612 25.6948L15.9142 26.0238C15.6262 25.8998 15.2142 26.4768 15.2142 26.4768L15.9272 26.3938L16.0792 26.8068C16.3062 26.3308 16.4712 26.4348 16.4712 26.4348C16.7182 26.7228 16.7392 27.3818 16.7392 27.3818C16.7392 27.3818 16.4102 27.2988 16.0392 27.7318C15.6682 28.1648 16.3482 28.9888 16.3482 28.9888C16.3482 28.9888 16.2242 29.1748 16.3482 29.5248C16.4712 29.8748 17.1102 30.2458 17.7482 30.0398C18.3862 29.8338 18.3252 28.9688 18.3252 28.9688C18.3252 28.9688 18.5522 28.7418 18.5102 28.2888C18.4692 27.8358 18.2632 27.5898 18.2632 27.5898C18.2632 27.5898 18.6552 27.4448 18.9022 27.7128C19.1492 27.9798 19.2112 28.5978 19.2112 28.5978C19.2112 28.5978 19.4582 27.4448 19.0882 27.1568C18.7182 26.8698 17.8112 26.8888 17.8112 26.8888C17.7902 26.4138 17.3782 26.1468 17.2752 25.8378C17.1722 25.5288 17.3372 24.7668 17.3372 24.7668L17.8522 24.8088C17.8522 24.8088 17.8112 24.9948 18.1812 25.2618C18.5522 25.5288 19.1492 25.3438 19.1492 25.3438C19.1492 25.3438 19.8292 25.4058 20.1592 24.8088C20.4882 24.2118 19.8712 23.7378 19.8712 23.7378C19.7682 22.7908 18.3672 23.3268 18.3672 23.3268C18.5122 22.6878 19.1302 22.6878 19.1302 22.6878C19.1302 22.6878 18.4092 22.3158 17.9972 22.4598C17.5852 22.6038 17.7292 23.6348 17.3992 23.5938C17.1872 23.5668 17.0962 23.1368 17.1282 22.6258C17.1462 22.3438 17.2002 22.0378 17.2952 21.7588C17.5052 21.1448 18.3892 20.9928 19.3862 21.2028C19.6602 21.2608 19.9402 21.3398 20.2202 21.4508C21.5172 21.9648 23.3512 22.0678 23.3512 22.0678C23.2902 22.3148 22.9602 22.6868 22.9602 22.6868L22.3832 22.4588L22.7332 22.8928C22.6092 23.2018 22.2802 23.4278 22.2802 23.4278C22.6302 23.6748 23.0212 23.1808 23.0212 23.1808L23.1652 23.7788L23.5162 23.2848C23.5162 23.2848 24.2362 23.7998 24.8342 24.0258C25.4312 24.2528 26.5862 24.4588 26.5862 24.4588C26.5862 24.4588 26.1942 24.6448 26.6062 25.3028C27.0182 25.9618 27.9652 26.1468 27.9652 26.1468C27.9652 26.1468 28.6872 26.4768 29.3442 25.8998C30.0042 25.3228 29.4682 24.2728 29.4682 24.2728C29.4682 23.0588 28.1712 23.4388 28.1712 23.4388C28.4382 22.9138 29.0672 22.5628 29.0672 22.5628C28.0472 21.9658 27.6152 23.1408 26.8532 23.3878C26.0902 23.6348 24.7512 22.9128 24.6912 22.9128C24.6292 22.9128 24.7312 22.7888 24.7522 22.5208C24.7732 22.2538 25.3912 21.7388 25.6992 21.0998C26.0092 20.4608 25.9262 19.4108 25.9262 19.4108C26.3372 18.9998 26.8952 19.3068 26.8952 19.3068C26.8742 19.7398 26.6062 19.9248 26.6062 19.9248C26.9152 19.9458 27.0592 19.6558 27.0592 19.6558C26.9142 20.1088 27.3892 20.6448 27.3892 20.6448L27.5332 19.9438L27.9662 20.4388L27.6992 19.5328C28.5222 19.5328 29.3882 18.9348 29.3882 18.9348C29.3882 18.9348 29.8002 19.5328 30.6242 19.5328C31.4482 19.5328 32.2722 18.6468 32.2722 18.2558C32.2722 17.8648 31.5312 17.3078 31.5312 17.3078C31.5312 17.3078 31.8192 16.6488 30.7282 16.6488C29.6372 16.6488 29.3072 17.9788 29.3072 17.9788C29.3072 17.9788 28.8532 17.7828 28.2352 17.9468C27.6182 18.1118 26.6092 17.5968 25.9912 17.2888C25.9262 17.2568 25.8562 17.2148 25.7872 17.1718C25.1982 16.8078 24.5082 16.1348 24.5082 16.1348C24.5082 15.8468 24.6692 15.3928 24.6692 15.3928C24.6692 15.3928 25.5582 15.4548 25.2912 15.5578C25.0232 15.6608 24.3232 15.8668 24.8802 15.9088C25.4352 15.9498 25.9712 15.7228 25.8062 15.9088C25.6422 16.0938 25.0242 16.5268 25.2712 16.5268C25.5182 16.5268 25.8482 16.2168 26.0132 16.1758C26.1772 16.1348 26.4652 16.2378 26.8782 16.2378C26.9872 16.2378 27.1032 16.1748 27.2132 16.0848C27.2592 16.1068 27.3142 16.1478 27.3652 16.1788C27.7772 16.4278 28.2982 16.9168 28.5672 17.1858C28.9382 17.5558 29.1642 17.0618 29.3302 16.8358C29.4252 16.7048 29.1642 16.4598 28.8832 16.2378C28.9302 16.1798 28.9782 16.1228 29.0212 16.0728C29.0432 16.0468 29.0802 16.0288 29.1132 16.0098L29.5862 16.1808C29.5892 16.5378 29.5772 17.0218 29.5772 17.0218C29.8042 16.8598 29.8152 16.5348 29.8192 16.2618C30.1432 16.3738 30.4272 16.4588 30.6082 16.4648C31.2052 16.4858 31.5962 16.2788 32.1522 16.2178C32.7082 16.1558 32.7492 16.6718 32.7492 16.6718C32.7492 16.6718 32.9762 16.5068 32.6462 16.1768C32.3172 15.8468 31.8832 15.8678 31.8832 15.8678C31.8832 15.3938 31.3112 15.4148 31.3112 15.4148C31.7902 15.6828 31.3072 15.9708 31.3072 15.9708C31.3692 15.7028 30.7712 15.5398 30.7712 15.5398C30.7712 15.5398 31.1632 15.7238 30.9162 15.9488C30.7622 16.0898 30.5502 16.0888 30.2862 16.0488C30.3172 15.9068 30.3722 15.6908 30.4612 15.4958C30.6062 15.1868 30.3582 14.8788 30.3582 14.8788L30.6262 14.3838C30.6262 14.3838 31.5122 14.2388 31.7582 14.1158C32.0062 13.9918 32.2522 13.8878 32.8702 13.9098C33.4892 13.9308 33.6342 13.5808 33.6342 13.5808C33.3642 13.7488 32.5812 13.5228 32.2722 13.5428C31.9632 13.5628 31.7982 13.7898 31.6132 13.7898H31.2832C31.2832 13.7898 31.3352 13.7198 31.4002 13.6358C31.4902 13.5208 31.6112 13.3758 31.6952 13.3158C31.7672 13.2638 31.9372 13.2278 32.1052 13.1918C32.2722 13.1558 32.4362 13.1198 32.4982 13.0688C32.5922 12.9898 32.6192 12.9048 32.6302 12.8608C32.6332 12.8478 32.6422 12.8208 32.6422 12.8208C32.3742 13.0068 31.7562 12.9028 31.4892 12.9648L31.4872 12.9628ZM28.8712 15.9698C28.8082 16.0118 28.7642 16.0668 28.7332 16.1268C28.5772 16.0098 28.4292 15.9058 28.3572 15.8458C28.2942 15.7938 28.2072 15.7468 28.1162 15.6998C28.1082 15.6958 28.1032 15.6908 28.0942 15.6868C28.1032 15.6888 28.1132 15.6928 28.1232 15.6958C28.3762 15.7618 28.6422 15.8448 28.9112 15.9398L28.8712 15.9688V15.9698ZM29.4612 15.8848C29.5232 15.8738 29.5712 15.8668 29.5712 15.8668L29.5742 15.9118C29.5372 15.9028 29.5022 15.8958 29.4612 15.8838V15.8848ZM29.5532 15.4148C29.5532 15.4148 29.3332 15.6128 29.1182 15.7858C28.8842 15.7128 28.6352 15.6228 28.3942 15.5258C28.1952 15.4458 28.0012 15.3608 27.8412 15.2748C27.9092 15.1598 28.0332 14.9758 28.1722 14.8788C28.3782 14.7348 28.5022 14.8578 28.5022 14.8578L28.6642 15.2288L28.8722 14.7758L29.1602 15.0028L29.1242 15.0658L28.9962 15.2908L29.6142 15.2088L29.5532 15.4148ZM29.8412 15.9698C29.8972 15.7368 30.0872 15.5998 30.0872 15.5998C30.0782 15.7628 30.1062 15.9058 30.1372 16.0268L29.8412 15.9698Z" fill="white"/>
</svg>
