<svg width="41" height="41" viewBox="0 0 41 41" fill="none" xmlns="http://www.w3.org/2000/svg">
<path d="M34.5 8.5H6.5C4.29086 8.5 2.5 10.2909 2.5 12.5V28.5C2.5 30.7091 4.29086 32.5 6.5 32.5H34.5C36.7091 32.5 38.5 30.7091 38.5 28.5V12.5C38.5 10.2909 36.7091 8.5 34.5 8.5Z" fill="#FD0032"/>
<path d="M9.761 17.746H2.5V19.124H9.761H11.153V17.746V8.5H9.761V17.746Z" fill="#E3E7EA"/>
<path d="M15.3305 17.746V8.5H13.9375V17.746V19.124H15.3305H38.5005V17.746H15.3305Z" fill="#E3E7EA"/>
<path d="M2.5 21.8779V23.2549H9.761V32.4999H11.153V23.2549V21.8779H9.761H2.5Z" fill="#E3E7EA"/>
<path d="M13.9375 21.8779V23.2549V32.4999H15.3305V23.2549H38.5005V21.8779H15.3305H13.9375Z" fill="#E3E7EA"/>
<path d="M15.33 19.124H13.937V17.746V8.5H11.153V17.746V19.124H9.761H2.5V21.878H9.761H11.153V23.255V32.5H13.937V23.255V21.878H15.33H38.5V19.124H15.33Z" fill="#1D3386"/>
</svg>
