<svg width="41" height="41" viewBox="0 0 41 41" fill="none" xmlns="http://www.w3.org/2000/svg">
<path d="M34.5 8.5H6.5C4.29086 8.5 2.5 10.2909 2.5 12.5V28.5C2.5 30.7091 4.29086 32.5 6.5 32.5H34.5C36.7091 32.5 38.5 30.7091 38.5 28.5V12.5C38.5 10.2909 36.7091 8.5 34.5 8.5Z" fill="#19BAEC"/>
<path d="M38.5 17.377H2.5V18.327H38.5V17.377Z" fill="#E3E7EA"/>
<path d="M38.5 22.6709H2.5V23.6219H38.5V22.6709Z" fill="#E3E7EA"/>
<path d="M38.5 18.707H2.5V22.293H38.5V18.707Z" fill="black"/>
<path d="M38.5 18.3271H2.5V18.7071H38.5V18.3271Z" fill="black"/>
<path d="M38.5 22.293H2.5V22.671H38.5V22.293Z" fill="black"/>
</svg>
