<svg width="41" height="41" viewBox="0 0 41 41" fill="none" xmlns="http://www.w3.org/2000/svg">
<path d="M34.5 8.5H6.5C4.29086 8.5 2.5 10.2909 2.5 12.5V28.5C2.5 30.7091 4.29086 32.5 6.5 32.5H34.5C36.7091 32.5 38.5 30.7091 38.5 28.5V12.5C38.5 10.2909 36.7091 8.5 34.5 8.5Z" fill="#E3E7EA"/>
<path d="M34.505 8.5H7.25195V24.568H38.5V12.495C38.5 10.288 36.711 8.5 34.505 8.5Z" fill="#CC001C"/>
<path d="M7.25195 32.4999H34.504C36.711 32.4999 38.499 30.7109 38.499 28.5039V24.5679H7.25195V32.4999Z" fill="#009D39"/>
<path d="M4.72819 14.9497H4.49219V15.6227H4.72819V14.9497Z" fill="#CC001C"/>
<path d="M4.13834 12.9297V13.2667H4.02134V13.6017H3.90234V14.0527H4.02134V14.3887H4.13834V14.7257H4.49234V14.3887H4.72834V14.7257H5.08134V14.3887H5.20034V14.0527H5.31834V13.6017H5.20034V13.2667H5.08134V12.9297H4.72834V13.2667H4.49234V12.9297H4.13834ZM4.72734 13.7157H4.84534V13.4897H4.96234V13.7157H5.08034V13.9407H4.96234V14.1657H4.84534V13.9407H4.72734V13.7157ZM4.49234 13.9407H4.37534V14.1657H4.25734V13.9407H4.13934V13.7157H4.25734V13.4897H4.37534V13.7157H4.49234V13.9407Z" fill="#CC001C"/>
<path d="M6.37591 10.0099H6.13991V9.44689H5.90391V8.88689H5.66891V8.58789C5.58691 8.60489 5.51291 8.63889 5.43291 8.66089V8.88689H5.19791V9.44889H4.96191V10.0099H4.72691V10.5709H4.49091V10.0099H4.25491V9.44889H4.01991V9.38189C3.93991 9.44589 3.85891 9.50689 3.78391 9.57689V10.0109H4.01991V10.5719H4.25491V11.1339H4.01991V11.6949H3.78391V12.2569H3.54891V11.6949H3.31291V11.1339H3.07791V10.5719H3.31291V10.1049C3.07791 10.4169 2.89091 10.7609 2.75391 11.1339H2.84191V11.6949H3.07791V12.2569H3.31291V12.8179H3.54891V13.3789H3.78391V12.8179H4.01991V12.2569H4.25491V11.6949H4.49091V11.1339H4.72591V11.6949H4.96191V12.2569H5.19691V12.8179H5.43291V13.3789H5.66891V12.8179H5.90391V12.2569H6.13991V11.6949H6.37491V11.1339H6.61091V10.5719H6.37591V10.0099ZM6.13991 11.1329H5.90391V11.6939H5.66891V12.2559H5.43291V11.6939H5.19791V11.1329H4.96191V10.5709H5.19791V10.0099H5.43291V9.44889H5.66891V10.0099H5.90391V10.5709H6.13991V11.1329Z" fill="#CC001C"/>
<path d="M4.72819 21.125H4.49219V21.687H4.72819V21.125Z" fill="#CC001C"/>
<path d="M4.13734 20.5109V20.5059V20.1709H3.90234V20.5059V20.5109V20.8449H4.13734V20.5109Z" fill="#CC001C"/>
<path d="M4.72819 19.3291H4.49219V19.8891H4.72819V19.3291Z" fill="#CC001C"/>
<path d="M5.08008 20.5059V20.5109V20.8449H5.31608V20.5109V20.5059V20.1709H5.08008V20.5059Z" fill="#CC001C"/>
<path d="M5.66959 10.5708H5.43359V11.1328H5.66959V10.5708Z" fill="#CC001C"/>
<path d="M4.72819 12.0308H4.49219V12.7038H4.72819V12.0308Z" fill="#CC001C"/>
<path d="M6.0192 12.9258V13.2638H5.9012V13.6008H5.7832V14.0488H5.9012V14.3858H6.0192V14.7218H6.3732V14.3858H6.4902V14.0488H6.6082V13.6008H6.4902V13.2638H6.3732V12.9258H6.0192ZM6.3732 13.9368H6.2552V14.1618H6.1372V13.9368H6.0192V13.7138H6.1372V13.4888H6.2552V13.7138H6.3732V13.9368Z" fill="#CC001C"/>
<path d="M4.84372 20.0018H4.72672V20.1708H4.49072V20.0018H4.37272V19.7788H4.13672V20.1148H4.25472V20.2838H4.37272V20.5038V20.5108V20.7318H4.25472V20.8998H4.13672V21.2378H4.37272V21.0118H4.49072V20.8448H4.72672V21.0118H4.84372V21.2378H5.07972V20.8998H4.96172V20.7318H4.84372V20.5108V20.5038V20.2838H4.96172V20.1148H5.07972V19.7788H4.84372V20.0018Z" fill="#CC001C"/>
<path d="M4.72819 8.92969C4.64819 8.96969 4.56919 9.01269 4.49219 9.05769V9.44869H4.72819V8.92969Z" fill="#CC001C"/>
<path d="M6.611 22.8091H6.375V23.2591H6.611V22.8091Z" fill="#CC001C"/>
<path d="M6.611 8.77393H6.375V9.44893H6.611V8.77393Z" fill="#CC001C"/>
<path d="M6.611 12.0308H6.375V12.7038H6.611V12.0308Z" fill="#CC001C"/>
<path d="M6.611 14.9497H6.375V15.6227H6.611V14.9497Z" fill="#CC001C"/>
<path d="M3.78383 10.5708H3.54883V11.1328H3.78383V10.5708Z" fill="#CC001C"/>
<path d="M6.611 17.7578H6.375V18.2058H6.611V17.7578Z" fill="#CC001C"/>
<path d="M3.54962 9.81689C3.49362 9.87889 3.44263 9.94489 3.39062 10.0099H3.54962V9.81689Z" fill="#CC001C"/>
<path d="M6.375 20.5059V20.5109V20.8449H6.611V20.5109V20.5059V20.1709H6.375V20.5059Z" fill="#CC001C"/>
<path d="M2.84342 14.9497H2.60742V15.6227H2.84342V14.9497Z" fill="#CC001C"/>
<path d="M2.84342 12.0308H2.60742V12.7038H2.84342V12.0308Z" fill="#CC001C"/>
<path d="M2.84342 22.8091H2.60742V23.2591H2.84342V22.8091Z" fill="#CC001C"/>
<path d="M2.84342 17.7578H2.60742V18.2058H2.84342V17.7578Z" fill="#CC001C"/>
<path d="M2.84242 20.5109V20.5059V20.1709H2.60742V20.5059V20.5109V20.8449H2.84242V20.5109Z" fill="#CC001C"/>
<path d="M2.72447 14.3877H2.84247V14.7247H3.19547V14.3877H3.31347V14.0517H3.43147V13.6007H3.31347V13.2657H3.19547V12.9287H2.84247V13.2657H2.72447V13.6007H2.60547V14.0517H2.72447V14.3877ZM2.84247 13.7147H2.95947V13.4887H3.07747V13.7147H3.19447V13.9397H3.07747V14.1647H2.95947V13.9397H2.84247V13.7147Z" fill="#CC001C"/>
<path d="M6.37642 15.9609H6.14142V15.3989H5.90542V14.8379H5.67042V14.2749H5.43442V14.8379H5.19842V15.3989H4.96342V15.9609H4.72742V16.5209H4.49242V15.9609H4.25642V15.3989H4.02142V14.8379H3.78542V14.2749H3.55042V14.8379H3.31442V15.3989H3.07842V15.9609H2.84342V16.5209H2.60742V17.0819H2.84342V17.6439H3.07842V18.2049H3.31442V18.7669H3.55042V18.2049H3.78542V17.6439H4.02142V17.0819H3.78542V16.4089H4.02142V16.8589H4.25642V17.7569H4.37442L4.37642 18.3119L4.02142 18.3169V18.7669H3.78542V19.1029H3.55042V19.6649H3.31442V19.1029H3.07842V18.7669H2.84342V18.4299H2.60742V19.4399H2.84342V19.8899H3.07842V20.2829H3.31442V20.7309H3.07842V21.1239H2.84342V21.5739H2.60742V22.5839H2.84342V22.2469H3.07842V21.9099H3.31442V21.3489H3.55042V21.9099H3.78542V22.2469H4.02142V22.6969L4.37642 22.7019L4.37442 23.2579H4.25642V24.1559H4.02142V24.6059H3.78542V23.9309H4.02142V23.3699H3.78542V22.8079H3.55042V22.2469H3.31442V22.8079H3.07842V23.3699H2.84342V23.9309H2.60742V24.4939H2.84342V25.0539H3.07942V25.6159H3.31442V26.1769H3.55042V26.7379H3.78542V26.1769H4.02142V25.6149H4.25642V25.0539H4.49242V24.4939H4.72842V25.0539H4.96342V25.6149H5.19942V26.1769H5.43442V26.7379H5.67042V26.1769H5.90542V25.6149H6.14142V25.0539H6.37642V24.4939H6.61242V23.9309H6.37642V23.3699H6.14142V22.8079H5.90542V22.2469H5.67042V22.8079H5.43442V23.3699H5.19842V23.9309H5.43442V24.6039H5.19842V24.1559H4.96342V23.2579H4.84642V22.6959H5.20042V22.2479H5.43542V21.9109H5.67142V21.3499H5.90642V21.9109H6.14242V22.2479H6.37842V22.5849H6.61342V21.5749H6.37842V21.1249H6.14242V20.7319H5.90642V20.2839H6.14242V19.8909H6.37842V19.4409H6.61342V18.4309H6.37842V18.7679H6.14242V19.1039H5.90642V19.6659H5.67142V19.1039H5.43542V18.7679H5.20042V18.3179H4.84642V17.7569H4.96342V16.8589H5.19842V16.4089H5.43442V17.0839H5.19842V17.6449H5.43442V18.2059H5.67042V18.7679H5.90542V18.2059H6.14142V17.6449H6.37642V17.0839H6.61242V16.5209H6.37642V15.9609ZM5.19942 19.4409V19.8909H5.43442V20.2839H5.67042V20.7319H5.43442V21.1249H5.19942V21.5749H4.84542V22.1069H4.72742V22.3609H4.49142V22.1029H4.37442V21.5759H4.02042V21.1259H3.78442V20.7329H3.54942V20.2849H3.78442V19.8919H4.02042V19.4419H4.37442V18.9129H4.49142V18.6569H4.72742V18.9079H4.84542V19.4419L5.19942 19.4409Z" fill="#CC001C"/>
<path d="M2.84342 28.312H2.60742V28.985H2.84342V28.312Z" fill="#CC001C"/>
<path d="M4.72819 25.3931H4.49219V26.0661H4.72819V25.3931Z" fill="#CC001C"/>
<path d="M2.72447 27.75H2.84247V28.087H3.19547V27.75H3.31347V27.414H3.43147V26.964H3.31347V26.628H3.19547V26.291H2.84247V26.628H2.72447V26.964H2.60547V27.414H2.72447V27.75ZM2.84247 27.077H2.96047V26.852H3.07747V27.077H3.19447V27.302H3.07747V27.528H2.96047V27.302H2.84247V27.077Z" fill="#CC001C"/>
<path d="M2.84342 25.3931H2.60742V26.0661H2.84342V25.3931Z" fill="#CC001C"/>
<path d="M4.72719 28.312H4.49219V28.985H4.72719V28.312Z" fill="#CC001C"/>
<path d="M6.611 28.312H6.375V28.985H6.611V28.312Z" fill="#CC001C"/>
<path d="M4.13834 26.291V26.628H4.02134V26.964H3.90234V27.414H4.02134V27.75H4.13834V28.087H4.49234V27.75H4.72734V28.087H5.08134V27.75H5.20034V27.414H5.31834V26.964H5.20034V26.628H5.08134V26.291H4.72834V26.628H4.49234V26.291H4.13834ZM4.72734 27.076H4.84534V26.851H4.96234V27.076H5.08034V27.301H4.96234V27.527H4.84534V27.301H4.72734V27.076ZM4.49234 27.301H4.37534V27.527H4.25734V27.301H4.13934V27.076H4.25734V26.851H4.37534V27.076H4.49234V27.301Z" fill="#CC001C"/>
<path d="M6.611 25.3931H6.375V26.0661H6.611V25.3931Z" fill="#CC001C"/>
<path d="M6.611 31.5669H6.375V32.2419H6.611V31.5669Z" fill="#CC001C"/>
<path d="M3.5493 31.1828V31.0068H3.4043C3.4523 31.0658 3.4983 31.1268 3.5493 31.1828Z" fill="#CC001C"/>
<path d="M6.37477 29.3226H6.13977V28.7606H5.90377V28.1996H5.66877V27.6396H5.43277V28.1996H5.19677V28.7606H4.96177V29.3226H4.72577V29.8836H4.49077V29.3226H4.25477V28.7606H4.01977V28.1996H3.78377V27.6396H3.54877V28.1996H3.31277V28.7606H3.07777V29.3226H2.84177V29.8836H2.75977C2.89577 30.2506 3.08177 30.5896 3.31277 30.8966V30.4446H3.07777V29.8836H3.31277V29.3226H3.54877V28.7606H3.78377V29.3226H4.01977V29.8836H4.25477V30.4446H4.01977V31.0066H3.78377V31.4236C3.85877 31.4936 3.93977 31.5546 4.01977 31.6186V31.5676H4.25477V31.0066H4.49077V30.4446H4.72677V31.0066H4.96177V31.5676H5.19777V32.1296H5.43277V32.3386C5.51277 32.3606 5.58677 32.3946 5.66877 32.4116V32.1296H5.90377V31.5676H6.13977V31.0066H6.37577V30.4446H6.61077V29.8836H6.37477V29.3226ZM6.13977 30.4446H5.90377V31.0066H5.66877V31.5676H5.43277V31.0066H5.19777V30.4446H4.96177V29.8836H5.19777V29.3226H5.43277V28.7606H5.66877V29.3226H5.90377V29.8836H6.13977V30.4446Z" fill="#CC001C"/>
<path d="M6.0192 26.2939V26.6299H5.9012V26.9669H5.7832V27.4149H5.9012V27.7519H6.0192V28.0879H6.3732V27.7519H6.4902V27.4149H6.6082V26.9669H6.4902V26.6299H6.3732V26.2939H6.0192ZM6.3732 27.3029H6.2552V27.5279H6.1372V27.3029H6.0192V27.0779H6.1372V26.8549H6.2552V27.0779H6.3732V27.3029Z" fill="#CC001C"/>
<path d="M3.78383 29.8838H3.54883V30.4448H3.78383V29.8838Z" fill="#CC001C"/>
<path d="M5.66959 29.8838H5.43359V30.4448H5.66959V29.8838Z" fill="#CC001C"/>
<path d="M4.49219 31.9419C4.56919 31.9869 4.64819 32.0299 4.72819 32.0699V31.5669H4.49219V31.9419Z" fill="#CC001C"/>
</svg>
