<svg width="41" height="41" viewBox="0 0 41 41" fill="none" xmlns="http://www.w3.org/2000/svg">
<path d="M38.4309 11.8068C38.4279 11.7928 38.4289 11.7778 38.4269 11.7648C38.4059 11.6558 38.3729 11.5518 38.3429 11.4458C38.3209 11.3658 38.2949 11.2878 38.2699 11.2098C38.2589 11.1758 38.2509 11.1408 38.2389 11.1078C38.1849 10.9658 38.1219 10.8278 38.0529 10.6938C38.0429 10.6738 38.0319 10.6558 38.0219 10.6358C38.0029 10.6008 37.9849 10.5648 37.9649 10.5308C37.8769 10.3778 37.7819 10.2278 37.6759 10.0878C37.6719 10.0818 37.6689 10.0758 37.6649 10.0698H3.33991C3.33591 10.0758 3.33291 10.0818 3.32891 10.0878C3.22291 10.2278 3.12791 10.3768 3.03991 10.5298C3.01991 10.5648 3.00191 10.6008 2.98291 10.6358C2.97291 10.6548 2.96191 10.6738 2.95191 10.6938C2.88191 10.8278 2.81991 10.9658 2.76591 11.1078C2.75291 11.1408 2.74491 11.1758 2.73491 11.2098C2.70991 11.2878 2.68391 11.3658 2.66191 11.4458C2.63191 11.5518 2.59891 11.6558 2.57791 11.7648C2.57491 11.7788 2.57591 11.7938 2.57391 11.8068C2.53291 12.0308 2.50391 12.2588 2.50391 12.4948V28.5038C2.50391 28.7368 2.53291 28.9628 2.57291 29.1838C2.57591 29.2008 2.57491 29.2188 2.57791 29.2358C2.59991 29.3508 2.63491 29.4608 2.66691 29.5708C2.69791 29.6788 2.72691 29.7868 2.76591 29.8908C2.82291 30.0408 2.88991 30.1858 2.96391 30.3258C2.98891 30.3728 3.01291 30.4198 3.03991 30.4658C3.13391 30.6278 3.23491 30.7848 3.34891 30.9328C3.34891 30.9328 3.35291 30.9388 3.35491 30.9418H37.6509C37.6509 30.9418 37.6549 30.9358 37.6569 30.9328C37.7719 30.7848 37.8729 30.6258 37.9669 30.4628C37.9929 30.4188 38.0159 30.3728 38.0399 30.3278C38.1149 30.1868 38.1809 30.0408 38.2389 29.8898C38.2779 29.7868 38.3069 29.6788 38.3379 29.5718C38.3699 29.4598 38.4059 29.3498 38.4279 29.2348C38.4739 28.9978 38.5019 28.7548 38.5019 28.5038V12.4948C38.5019 12.2578 38.4719 12.0298 38.4309 11.8068ZM20.5009 29.4998C15.5299 29.4998 11.5009 25.4698 11.5009 20.4998C11.5009 15.5298 15.5299 11.4998 20.5009 11.4998C25.4719 11.4998 29.5009 15.5288 29.5009 20.4998C29.5009 25.4708 25.4719 29.4998 20.5009 29.4998Z" fill="#183F86"/>
<path d="M37.6578 10.071C36.9268 9.122 35.7908 8.5 34.4998 8.5H6.4998C5.2088 8.5 4.0728 9.122 3.3418 10.071H37.6578Z" fill="#CF002E"/>
<path d="M3.35352 30.9429C4.08552 31.8839 5.21552 32.4999 6.50052 32.4999H34.5005C35.7845 32.4999 36.9155 31.8839 37.6475 30.9429H3.35352Z" fill="#CF002E"/>
<path d="M22.1331 12.8029C22.1271 12.7279 22.1331 12.6499 22.1531 12.5699C21.7641 12.4889 21.3631 12.4459 20.9561 12.4229C20.9531 12.5049 20.9381 12.5819 20.9121 12.6519C21.3281 12.6729 21.7371 12.7189 22.1331 12.8029Z" fill="#730900"/>
<path d="M28.1973 22.1326C28.2723 22.1266 28.3503 22.1326 28.4303 22.1526C28.5113 21.7636 28.5543 21.3626 28.5773 20.9546C28.4953 20.9526 28.4183 20.9366 28.3483 20.9106C28.3263 21.3266 28.2813 21.7366 28.1973 22.1326Z" fill="#730900"/>
<path d="M28.1973 18.8677C28.2813 19.2637 28.3263 19.6727 28.3483 20.0877C28.4183 20.0617 28.4953 20.0467 28.5773 20.0437C28.5543 19.6367 28.5113 19.2357 28.4303 18.8477C28.3503 18.8677 28.2713 18.8737 28.1973 18.8677Z" fill="#730900"/>
<path d="M16.2163 13.9051C16.1593 13.8571 16.1073 13.7971 16.0643 13.7271C15.7273 13.9481 15.4103 14.1971 15.1113 14.4651C15.1683 14.5251 15.2113 14.5901 15.2433 14.6581C15.5483 14.3831 15.8713 14.1301 16.2163 13.9051Z" fill="#730900"/>
<path d="M16.2153 27.0938C15.8703 26.8688 15.5473 26.6158 15.2423 26.3408C15.2113 26.4088 15.1673 26.4738 15.1113 26.5338C15.4113 26.8018 15.7273 27.0508 16.0643 27.2718C16.1073 27.2018 16.1583 27.1418 16.2153 27.0938Z" fill="#730900"/>
<path d="M13.9065 24.7856C13.8585 24.8426 13.7985 24.8946 13.7285 24.9376C13.9495 25.2746 14.1985 25.5906 14.4665 25.8906C14.5265 25.8336 14.5915 25.7906 14.6585 25.7586C14.3845 25.4536 14.1305 25.1306 13.9065 24.7856Z" fill="#730900"/>
<path d="M18.8687 12.8029C19.2647 12.7199 19.6737 12.6739 20.0887 12.6519C20.0627 12.5819 20.0477 12.5049 20.0447 12.4229C19.6377 12.4459 19.2367 12.4889 18.8477 12.5699C18.8677 12.6499 18.8747 12.7279 18.8687 12.8029Z" fill="#730900"/>
<path d="M27.0968 24.7847C26.8718 25.1297 26.6188 25.4537 26.3438 25.7587C26.4118 25.7897 26.4768 25.8337 26.5368 25.8907C26.8048 25.5907 27.0538 25.2747 27.2748 24.9377C27.2048 24.8947 27.1448 24.8427 27.0968 24.7847Z" fill="#730900"/>
<path d="M13.0205 22.9341C12.9595 22.9761 12.8885 23.0101 12.8105 23.0331C12.9375 23.4181 13.0945 23.7881 13.2745 24.1451C13.3465 24.1061 13.4205 24.0811 13.4935 24.0681C13.3085 23.7051 13.1475 23.3271 13.0205 22.9341Z" fill="#730900"/>
<path d="M12.8038 22.1306C12.7208 21.7346 12.6748 21.3266 12.6528 20.9106C12.5828 20.9366 12.5058 20.9516 12.4238 20.9546C12.4468 21.3616 12.4898 21.7626 12.5708 22.1516C12.6508 22.1316 12.7298 22.1256 12.8038 22.1306Z" fill="#730900"/>
<path d="M13.9065 16.2139C14.1315 15.8689 14.3845 15.5449 14.6595 15.2399C14.5915 15.2089 14.5265 15.1649 14.4665 15.1089C14.1985 15.4089 13.9495 15.7249 13.7285 16.0619C13.7985 16.1049 13.8585 16.1559 13.9065 16.2139Z" fill="#730900"/>
<path d="M27.0948 16.2149C27.1428 16.1579 27.2028 16.1059 27.2728 16.0629C27.0518 15.7259 26.8028 15.4099 26.5348 15.1099C26.4748 15.1659 26.4098 15.2099 26.3418 15.2409C26.6168 15.5459 26.8698 15.8689 27.0948 16.2149Z" fill="#730900"/>
<path d="M13.4945 16.932C13.4215 16.919 13.3475 16.893 13.2755 16.854C13.0945 17.211 12.9375 17.582 12.8105 17.968C12.8885 17.991 12.9595 18.025 13.0205 18.067C13.1485 17.674 13.3085 17.296 13.4945 16.932Z" fill="#730900"/>
<path d="M18.0684 13.0191C18.0264 12.9581 17.9924 12.8881 17.9694 12.8091C17.5844 12.9361 17.2144 13.0931 16.8574 13.2731C16.8964 13.3451 16.9214 13.4191 16.9344 13.4921C17.2974 13.3071 17.6754 13.1461 18.0684 13.0181V13.0191Z" fill="#730900"/>
<path d="M12.8048 18.8686C12.7298 18.8746 12.6518 18.8686 12.5718 18.8486C12.4918 19.2366 12.4478 19.6376 12.4258 20.0446C12.5078 20.0476 12.5848 20.0626 12.6548 20.0886C12.6758 19.6736 12.7218 19.2656 12.8058 18.8696L12.8048 18.8686Z" fill="#730900"/>
<path d="M24.0695 13.4931C24.0825 13.4201 24.1085 13.3461 24.1475 13.2741C23.7905 13.0931 23.4195 12.9361 23.0345 12.8101C23.0115 12.8891 22.9775 12.9591 22.9355 13.0201C23.3285 13.1481 23.7065 13.3081 24.0695 13.4941V13.4931Z" fill="#730900"/>
<path d="M27.5078 24.0671C27.5808 24.0801 27.6548 24.1061 27.7268 24.1451C27.9068 23.7881 28.0638 23.4181 28.1908 23.0331C28.1128 23.0101 28.0418 22.9771 27.9808 22.9341C27.8528 23.3271 27.6928 23.7041 27.5078 24.0671Z" fill="#730900"/>
<path d="M24.7852 13.9061C25.1302 14.1311 25.4542 14.3841 25.7592 14.6591C25.7902 14.5911 25.8342 14.5261 25.8912 14.4661C25.5912 14.1981 25.2752 13.9491 24.9372 13.7271C24.8942 13.7971 24.8422 13.8571 24.7852 13.9051V13.9061Z" fill="#730900"/>
<path d="M18.8696 28.1968C18.8756 28.2718 18.8696 28.3498 18.8496 28.4298C19.2376 28.5098 19.6386 28.5538 20.0456 28.5758C20.0486 28.4938 20.0636 28.4168 20.0896 28.3468C19.6746 28.3258 19.2656 28.2798 18.8706 28.1958L18.8696 28.1968Z" fill="#730900"/>
<path d="M22.1321 28.1968C21.7361 28.2798 21.3271 28.3258 20.9121 28.3478C20.9381 28.4178 20.9531 28.4948 20.9561 28.5768C21.3631 28.5538 21.7641 28.5108 22.1521 28.4308C22.1321 28.3508 22.1261 28.2708 22.1321 28.1968Z" fill="#730900"/>
<path d="M24.7871 27.0938C24.8441 27.1418 24.8961 27.2018 24.9391 27.2718C25.2761 27.0508 25.5931 26.8018 25.8921 26.5338C25.8361 26.4738 25.7921 26.4088 25.7611 26.3408C25.4561 26.6158 25.1321 26.8688 24.7871 27.0938Z" fill="#730900"/>
<path d="M16.9335 27.5068C16.9205 27.5798 16.8945 27.6538 16.8555 27.7258C17.2125 27.9068 17.5835 28.0638 17.9685 28.1908C17.9915 28.1128 18.0245 28.0418 18.0675 27.9808C17.6745 27.8528 17.2965 27.6928 16.9335 27.5068Z" fill="#730900"/>
<path d="M27.9808 18.065C28.0418 18.023 28.1128 17.989 28.1908 17.967C28.0638 17.582 27.9068 17.211 27.7268 16.854C27.6548 16.893 27.5808 16.919 27.5078 16.932C27.6928 17.295 27.8538 17.673 27.9818 18.066L27.9808 18.065Z" fill="#730900"/>
<path d="M22.9365 27.9799C22.9785 28.0409 23.0125 28.1119 23.0345 28.1899C23.4195 28.0629 23.7905 27.9059 24.1475 27.7249C24.1085 27.6529 24.0825 27.5789 24.0695 27.5059C23.7065 27.6909 23.3285 27.8519 22.9355 27.9789L22.9365 27.9799Z" fill="#730900"/>
<path d="M20.5 12.9911C20.683 12.9911 20.838 12.8511 20.911 12.6521C20.937 12.5821 20.952 12.5051 20.955 12.4231C20.955 12.4151 20.959 12.4081 20.959 12.4001C20.959 12.0741 20.753 11.8091 20.5 11.8091C20.247 11.8091 20.041 12.0741 20.041 12.4001C20.041 12.4081 20.044 12.4151 20.045 12.4231C20.048 12.5051 20.063 12.5821 20.089 12.6521C20.163 12.8511 20.318 12.9911 20.5 12.9911Z" fill="#007F00"/>
<path d="M20.5 28.0093C20.317 28.0093 20.162 28.1493 20.089 28.3483C20.063 28.4183 20.048 28.4953 20.045 28.5773C20.045 28.5853 20.041 28.5923 20.041 28.6003C20.041 28.9263 20.247 29.1913 20.5 29.1913C20.753 29.1913 20.959 28.9263 20.959 28.6003C20.959 28.5923 20.956 28.5853 20.955 28.5773C20.952 28.4953 20.937 28.4183 20.911 28.3483C20.837 28.1493 20.682 28.0093 20.5 28.0093Z" fill="#007F00"/>
<path d="M22.1321 12.803C22.1491 13.019 22.2641 13.198 22.4431 13.245C22.6221 13.293 22.8101 13.197 22.9331 13.019C22.9751 12.958 23.0091 12.888 23.0321 12.809C23.0341 12.803 23.0371 12.799 23.0391 12.794C23.1241 12.478 22.9941 12.17 22.7491 12.104C22.5041 12.039 22.2381 12.241 22.1531 12.556C22.1521 12.561 22.1531 12.565 22.1511 12.57C22.1311 12.65 22.1261 12.729 22.1321 12.803Z" fill="#007F00"/>
<path d="M27.094 16.2151C26.956 16.3791 26.911 16.5861 27.004 16.7461C27.096 16.9051 27.296 16.9701 27.507 16.9331C27.58 16.9201 27.654 16.8941 27.726 16.8551C27.732 16.8521 27.738 16.8511 27.744 16.8481C28.028 16.6841 28.154 16.3751 28.028 16.1561C27.9 15.9361 27.569 15.8901 27.286 16.0531C27.281 16.0561 27.278 16.0611 27.272 16.0641C27.202 16.1071 27.142 16.1571 27.094 16.2151Z" fill="#007F00"/>
<path d="M13.9053 24.7863C14.0443 24.6213 14.0893 24.4143 13.9963 24.2553C13.9043 24.0953 13.7033 24.0313 13.4913 24.0683C13.4183 24.0813 13.3443 24.1073 13.2723 24.1453C13.2663 24.1483 13.2603 24.1493 13.2543 24.1523C12.9703 24.3153 12.8443 24.6253 12.9713 24.8463C13.0983 25.0653 13.4303 25.1113 13.7133 24.9483C13.7183 24.9453 13.7213 24.9413 13.7263 24.9383C13.7963 24.8953 13.8563 24.8443 13.9043 24.7863H13.9053Z" fill="#007F00"/>
<path d="M18.8676 28.197C18.8506 27.981 18.7356 27.801 18.5556 27.753C18.3766 27.706 18.1876 27.803 18.0656 27.981C18.0236 28.042 17.9896 28.113 17.9666 28.191C17.9646 28.197 17.9616 28.201 17.9596 28.206C17.8746 28.521 18.0046 28.83 18.2496 28.896C18.4956 28.961 18.7616 28.759 18.8466 28.443C18.8476 28.439 18.8466 28.435 18.8476 28.43C18.8676 28.35 18.8736 28.272 18.8676 28.197Z" fill="#007F00"/>
<path d="M24.2538 13.9961C24.4138 14.0881 24.6198 14.0441 24.7838 13.9061C24.8408 13.8581 24.8928 13.7981 24.9358 13.7281C24.9388 13.7231 24.9438 13.7201 24.9468 13.7141C25.1108 13.4321 25.0648 13.0991 24.8448 12.9731C24.6248 12.8461 24.3158 12.9731 24.1518 13.2551C24.1478 13.2611 24.1478 13.2681 24.1448 13.2741C24.1058 13.3461 24.0798 13.4201 24.0668 13.4931C24.0298 13.7041 24.0938 13.9041 24.2538 13.9951V13.9961Z" fill="#007F00"/>
<path d="M27.7534 18.556C27.8004 18.736 27.9804 18.852 28.1964 18.868C28.2714 18.874 28.3494 18.868 28.4294 18.848C28.4334 18.847 28.4384 18.848 28.4424 18.847C28.7584 18.762 28.9594 18.495 28.8944 18.25C28.8284 18.006 28.5204 17.875 28.2054 17.96C28.1994 17.961 28.1954 17.965 28.1904 17.967C28.1124 17.99 28.0414 18.023 27.9804 18.065C27.8034 18.188 27.7064 18.377 27.7544 18.555L27.7534 18.556Z" fill="#007F00"/>
<path d="M13.2472 22.4431C13.1992 22.2641 13.0192 22.1481 12.8032 22.1311C12.7282 22.1251 12.6502 22.1311 12.5702 22.1521C12.5662 22.1531 12.5622 22.1521 12.5582 22.1531C12.2422 22.2371 12.0402 22.5041 12.1062 22.7491C12.1722 22.9941 12.4792 23.1241 12.7952 23.0401C12.8002 23.0391 12.8042 23.0351 12.8102 23.0331C12.8882 23.0101 12.9592 22.9761 13.0202 22.9341C13.1982 22.8111 13.2952 22.6221 13.2472 22.4431Z" fill="#007F00"/>
<path d="M25.8091 15.1899C25.9381 15.3189 26.1471 15.3299 26.3401 15.2409C26.4081 15.2099 26.4731 15.1659 26.5331 15.1099C26.5381 15.1049 26.5451 15.1029 26.5501 15.0969C26.7811 14.8649 26.8231 14.5339 26.6441 14.3549C26.4651 14.1759 26.1341 14.2169 25.9021 14.4489C25.8971 14.4549 25.8941 14.4609 25.8891 14.4669C25.8321 14.5269 25.7891 14.5919 25.7571 14.6599C25.6681 14.8529 25.6791 15.0609 25.8081 15.1909L25.8091 15.1899Z" fill="#007F00"/>
<path d="M16.7463 27.0012C16.5863 26.9092 16.3783 26.9542 16.2143 27.0942C16.1573 27.1432 16.1063 27.2022 16.0633 27.2722C16.0603 27.2772 16.0563 27.2802 16.0533 27.2852C15.8893 27.5682 15.9353 27.9002 16.1563 28.0262C16.3753 28.1522 16.6853 28.0262 16.8483 27.7432C16.8513 27.7372 16.8523 27.7322 16.8553 27.7262C16.8943 27.6542 16.9203 27.5802 16.9333 27.5072C16.9713 27.2962 16.9063 27.0952 16.7463 27.0012Z" fill="#007F00"/>
<path d="M15.1911 25.8089C15.0611 25.6789 14.8511 25.6689 14.6581 25.7579C14.5901 25.7889 14.5251 25.8329 14.4661 25.8899C14.4611 25.8949 14.4541 25.8969 14.4491 25.9029C14.2181 26.1339 14.1761 26.4659 14.3551 26.6449C14.5351 26.8249 14.8661 26.7829 15.0971 26.5509C15.1021 26.5459 15.1041 26.5389 15.1101 26.5339C15.1661 26.4739 15.2101 26.4089 15.2411 26.3409C15.3301 26.1479 15.3201 25.9379 15.1911 25.8089Z" fill="#007F00"/>
<path d="M12.9906 20.5C12.9906 20.317 12.8506 20.162 12.6516 20.088C12.5816 20.062 12.5046 20.047 12.4226 20.044C12.4146 20.044 12.4076 20.041 12.3996 20.041C12.0726 20.041 11.8086 20.247 11.8086 20.5C11.8086 20.753 12.0736 20.959 12.3996 20.959C12.4076 20.959 12.4146 20.956 12.4226 20.955C12.5046 20.952 12.5816 20.937 12.6516 20.911C12.8506 20.837 12.9906 20.682 12.9906 20.5Z" fill="#007F00"/>
<path d="M28.1974 22.1331C27.9814 22.1501 27.8024 22.2651 27.7544 22.4441C27.7064 22.6231 27.8034 22.8121 27.9804 22.9351C28.0414 22.9771 28.1124 23.0111 28.1904 23.0341C28.1954 23.0361 28.1994 23.0391 28.2054 23.0411C28.5214 23.1261 28.8294 22.9961 28.8954 22.7511C28.9604 22.5061 28.7584 22.2401 28.4434 22.1551C28.4384 22.1541 28.4344 22.1551 28.4304 22.1541C28.3504 22.1341 28.2714 22.1281 28.1974 22.1341V22.1331Z" fill="#007F00"/>
<path d="M12.803 18.8692C13.019 18.8522 13.199 18.7372 13.247 18.5572C13.294 18.3782 13.197 18.1892 13.019 18.0672C12.958 18.0252 12.887 17.9912 12.809 17.9682C12.803 17.9662 12.799 17.9632 12.794 17.9612C12.479 17.8772 12.17 18.0062 12.104 18.2512C12.039 18.4972 12.241 18.7632 12.557 18.8482C12.561 18.8482 12.565 18.8482 12.57 18.8492C12.65 18.8692 12.729 18.8752 12.803 18.8692Z" fill="#007F00"/>
<path d="M16.2154 13.9051C16.3794 14.0441 16.5864 14.0891 16.7454 13.9961C16.9044 13.9041 16.9694 13.7031 16.9324 13.4921C16.9194 13.4191 16.8944 13.3451 16.8554 13.2731C16.8524 13.2671 16.8514 13.2601 16.8484 13.2541C16.6854 12.9721 16.3754 12.8451 16.1554 12.9721C15.9354 13.0991 15.8894 13.4311 16.0534 13.7131C16.0564 13.7181 16.0614 13.7211 16.0644 13.7261C16.1074 13.7971 16.1584 13.8561 16.2164 13.9041L16.2154 13.9051Z" fill="#007F00"/>
<path d="M24.7848 27.0942C24.6208 26.9562 24.4138 26.9112 24.2538 27.0032C24.0948 27.0952 24.0298 27.2962 24.0668 27.5062C24.0798 27.5792 24.1058 27.6532 24.1448 27.7252C24.1478 27.7312 24.1488 27.7372 24.1518 27.7432C24.3158 28.0262 24.6248 28.1522 24.8448 28.0252C25.0648 27.8982 25.1108 27.5672 24.9478 27.2852C24.9448 27.2792 24.9398 27.2762 24.9368 27.2712C24.8938 27.2012 24.8428 27.1422 24.7848 27.0942Z" fill="#007F00"/>
<path d="M18.5561 13.2462C18.7351 13.1982 18.8501 13.0192 18.8671 12.8032C18.8731 12.7282 18.8671 12.6502 18.8471 12.5702C18.8461 12.5662 18.8471 12.5612 18.8461 12.5572C18.7611 12.2422 18.4951 12.0392 18.2501 12.1052C18.0051 12.1712 17.8751 12.4792 17.9591 12.7942C17.9611 12.8002 17.9641 12.8042 17.9661 12.8092C17.9891 12.8872 18.0231 12.9572 18.0651 13.0192C18.1881 13.1962 18.3781 13.2942 18.5561 13.2462Z" fill="#007F00"/>
<path d="M28.0098 20.5C28.0098 20.683 28.1498 20.838 28.3478 20.911C28.4178 20.937 28.4948 20.953 28.5768 20.955C28.5848 20.955 28.5918 20.959 28.5998 20.959C28.9268 20.959 29.1898 20.754 29.1898 20.5C29.1898 20.246 28.9258 20.041 28.5998 20.041C28.5918 20.041 28.5848 20.044 28.5768 20.044C28.4948 20.047 28.4178 20.062 28.3478 20.088C28.1488 20.162 28.0098 20.317 28.0098 20.5Z" fill="#007F00"/>
<path d="M15.1899 15.1898C15.3199 15.0598 15.3299 14.8508 15.2409 14.6578C15.2099 14.5898 15.1659 14.5248 15.1089 14.4648C15.1039 14.4588 15.1009 14.4528 15.0959 14.4468C14.8649 14.2168 14.5329 14.1738 14.3539 14.3528C14.1739 14.5318 14.2159 14.8638 14.4479 15.0948C14.4529 15.0998 14.4599 15.1028 14.4659 15.1078C14.5259 15.1638 14.5909 15.2078 14.6589 15.2388C14.8519 15.3278 15.0609 15.3178 15.1909 15.1878L15.1899 15.1898Z" fill="#007F00"/>
<path d="M13.9971 16.7449C14.0891 16.5849 14.0441 16.3779 13.9061 16.2139C13.8581 16.1569 13.7981 16.1049 13.7281 16.0619C13.7231 16.0589 13.7201 16.0549 13.7151 16.0519C13.4311 15.8879 13.1001 15.9339 12.9731 16.1549C12.8461 16.3739 12.9731 16.6839 13.2561 16.8469C13.2621 16.8499 13.2681 16.8509 13.2741 16.8539C13.3461 16.8929 13.4201 16.9189 13.4931 16.9319C13.7041 16.9689 13.9051 16.9049 13.9971 16.7449Z" fill="#007F00"/>
<path d="M22.4431 27.7538C22.2631 27.8018 22.1481 27.9808 22.1311 28.1968C22.1251 28.2718 22.1311 28.3498 22.1511 28.4298C22.1521 28.4348 22.1511 28.4388 22.1521 28.4438C22.2371 28.7588 22.5041 28.9608 22.7491 28.8948C22.9931 28.8288 23.1231 28.5208 23.0391 28.2058C23.0371 28.1998 23.0341 28.1958 23.0321 28.1908C23.0091 28.1128 22.9761 28.0418 22.9341 27.9808C22.8121 27.8028 22.6221 27.7048 22.4431 27.7538Z" fill="#007F00"/>
<path d="M27.0035 24.2552C26.9115 24.4142 26.9555 24.6202 27.0935 24.7852C27.1415 24.8432 27.2015 24.8942 27.2715 24.9372C27.2765 24.9402 27.2795 24.9452 27.2855 24.9482C27.5685 25.1122 27.9005 25.0652 28.0265 24.8462C28.1535 24.6262 28.0265 24.3162 27.7445 24.1522C27.7385 24.1492 27.7315 24.1482 27.7255 24.1452C27.6535 24.1062 27.5795 24.0802 27.5065 24.0672C27.2955 24.0302 27.0955 24.0952 27.0035 24.2552Z" fill="#007F00"/>
<path d="M25.8099 25.81C25.6809 25.939 25.6699 26.147 25.7599 26.341C25.7909 26.409 25.8349 26.474 25.8909 26.534C25.8959 26.54 25.8989 26.546 25.9039 26.552C26.1359 26.782 26.4669 26.825 26.6459 26.646C26.8249 26.467 26.7839 26.135 26.5519 25.904C26.5459 25.898 26.5389 25.896 26.5339 25.891C26.4739 25.834 26.4089 25.791 26.3409 25.759C26.1479 25.67 25.9389 25.681 25.8089 25.811L25.8099 25.81Z" fill="#007F00"/>
<path d="M24.1631 26.2783C24.1361 26.2953 24.1091 26.3113 24.0801 26.3233C24.1091 26.3103 24.1391 26.2963 24.1631 26.2783Z" fill="#EEEEEE"/>
<path d="M23.7127 24.8752C23.3207 24.9402 22.8867 25.1892 22.8867 25.1892C22.8867 25.1892 22.8047 25.1172 22.6667 25.0842C22.7567 25.1362 22.8147 25.2422 22.8147 25.2422C22.7807 25.2652 22.7307 25.2922 22.6897 25.3162C22.6897 25.3222 22.6917 25.3352 22.6917 25.3352L22.3177 25.5212C22.0367 25.6622 21.7387 25.7982 21.5687 25.8712C21.5687 25.8712 21.3387 25.9892 21.1137 26.0502C20.7567 26.1482 20.5127 26.0652 20.5127 26.0652C20.5127 26.0652 20.2687 26.1482 19.9117 26.0502C19.6867 25.9892 19.4577 25.8712 19.4577 25.8712C19.2877 25.7982 18.9907 25.6622 18.7097 25.5202L18.3357 25.3342C18.3357 25.3342 18.3377 25.3212 18.3377 25.3152C18.2967 25.2902 18.2467 25.2642 18.2127 25.2412C18.2127 25.2412 18.2707 25.1352 18.3607 25.0822C18.2227 25.1162 18.1397 25.1882 18.1397 25.1882C18.1397 25.1882 17.5707 24.8472 17.1477 24.8472C16.7247 24.8472 16.3507 25.2532 16.3677 25.3672C16.3797 25.4542 16.4957 25.7002 16.6007 25.8982C16.5887 25.6492 16.9697 25.5292 17.2947 25.5942C17.6207 25.6602 17.8967 25.8062 18.3347 26.2012C18.3347 26.2012 18.2897 26.2092 18.2247 26.2202C18.2597 26.2432 18.3167 26.2782 18.4027 26.3222C18.5197 26.3832 18.6937 26.4642 18.9447 26.5642C18.9897 26.5822 19.0307 26.5992 19.0817 26.6192C19.2527 26.6842 19.4177 26.7322 19.5727 26.7702C20.1097 26.9022 20.5117 26.8952 20.5117 26.8952C20.5117 26.8952 20.9167 26.9032 21.4547 26.7702C21.4567 26.7622 21.4547 26.7562 21.4567 26.7492C21.5087 26.5302 21.7627 26.4642 21.9417 26.4412C21.9617 26.4092 21.9817 26.3852 22.0007 26.3662C21.8947 26.4092 21.7917 26.4442 21.6997 26.4572C21.1317 26.5402 21.6997 26.0662 21.6997 26.0662C22.1537 25.8242 23.0167 25.2882 23.3087 25.2212C23.6007 25.1562 23.9597 25.1902 23.9267 25.3352C23.8947 25.4832 23.7157 25.5622 23.4387 25.5952C23.2447 25.6182 22.7477 25.9902 22.2717 26.2392C22.3977 26.2092 22.5117 26.2022 22.5117 26.2022C22.5477 26.2372 22.5847 26.2782 22.6217 26.3222C22.7067 26.2772 22.7637 26.2432 22.7987 26.2202C22.7347 26.2092 22.6917 26.2022 22.6917 26.2022C23.1297 25.8082 23.4067 25.6612 23.7317 25.5952C24.0547 25.5312 24.4327 25.6502 24.4247 25.8972C24.5297 25.6992 24.6447 25.4552 24.6567 25.3682C24.6717 25.2702 24.3947 24.9722 24.0497 24.8852C23.9357 24.8852 23.8227 24.8802 23.7107 24.8752H23.7127ZM17.8167 25.6292C16.8237 25.2052 17.2307 25.0102 17.8167 25.2382C18.1967 25.3862 18.8087 26.0502 17.8167 25.6292ZM20.8547 26.6362C20.3507 26.5862 19.3107 26.4782 18.9527 26.3302C18.5957 26.1802 18.7777 25.9202 19.1317 26.0192C19.5627 26.1372 20.2857 26.2622 20.6927 26.2622C21.0997 26.2622 21.3587 26.6852 20.8547 26.6362Z" fill="#EEEEEE"/>
<path d="M17.6548 26.313C17.4818 26.34 17.3148 26.365 17.2148 26.375C17.3308 26.375 17.4958 26.347 17.6548 26.313Z" fill="#EEEEEE"/>
<path d="M16.9553 26.3274C16.9223 26.3134 16.8913 26.2954 16.8613 26.2754C16.8883 26.2964 16.9213 26.3124 16.9553 26.3274Z" fill="#EEEEEE"/>
<path d="M17.2137 26.376C17.1457 26.384 17.0777 26.373 17.0117 26.353C17.0677 26.368 17.1327 26.376 17.2137 26.376Z" fill="#EEEEEE"/>
<path d="M23.8122 26.376C23.7102 26.365 23.5422 26.34 23.3672 26.313C23.5282 26.348 23.6952 26.376 23.8122 26.376Z" fill="#EEEEEE"/>
<path d="M19.3165 25.4504C19.2065 25.3494 19.0395 25.2734 18.8225 25.1574C18.7075 25.0964 18.6085 25.0734 18.5195 25.0684C18.6985 25.1394 19.0575 25.2814 19.3065 25.4404C19.3115 25.4434 19.3115 25.4474 19.3165 25.4504Z" fill="#EEEEEE"/>
<path d="M22.507 25.0684C22.418 25.0734 22.318 25.0954 22.203 25.1574C21.986 25.2754 21.818 25.3504 21.709 25.4524C21.714 25.4494 21.715 25.4444 21.72 25.4414C21.969 25.2824 22.329 25.1394 22.507 25.0684Z" fill="#EEEEEE"/>
<path d="M24.0142 26.353C23.9522 26.372 23.8882 26.381 23.8242 26.375C23.8982 26.375 23.9612 26.367 24.0142 26.353Z" fill="#EEEEEE"/>
<path d="M18.9442 26.5648C18.6932 26.4638 18.5182 26.3838 18.4022 26.3228C18.2142 26.5478 18.0672 26.8658 18.4782 27.0298C18.6382 27.0228 18.8022 26.9458 18.9032 26.8308C18.9682 26.7558 18.9622 26.6518 18.9442 26.5648Z" fill="#ADADAD"/>
<path d="M18.2119 25.2427C18.2459 25.2657 18.2959 25.2927 18.3369 25.3167C18.3419 25.2677 18.3719 25.0407 18.5619 25.1557C18.7729 25.2867 18.7089 25.5187 18.7089 25.5207C18.9899 25.6627 19.2869 25.7987 19.4569 25.8717C19.4569 25.8717 19.5499 25.6087 19.3159 25.4497C19.3119 25.4467 19.3109 25.4427 19.3059 25.4397C19.0569 25.2807 18.6979 25.1387 18.5189 25.0677C18.5169 25.0677 18.5149 25.0667 18.5129 25.0657C18.4539 25.0417 18.4039 25.0587 18.3589 25.0847C18.2689 25.1367 18.2109 25.2437 18.2109 25.2437L18.2119 25.2427Z" fill="#ADADAD"/>
<path d="M17.2938 25.5956C16.9688 25.5306 16.5888 25.6506 16.5998 25.8996C16.6058 26.0426 16.7158 26.1826 16.8588 26.2756C16.8888 26.2956 16.9198 26.3136 16.9528 26.3276C16.9718 26.3356 16.9898 26.3466 17.0098 26.3526C17.0758 26.3726 17.1448 26.3836 17.2118 26.3756C17.3128 26.3646 17.4798 26.3406 17.6528 26.3136C17.8698 26.2796 18.0938 26.2426 18.2238 26.2206C18.2888 26.2096 18.3338 26.2016 18.3338 26.2016C17.8958 25.8076 17.6188 25.6606 17.2938 25.5946V25.5956ZM16.7738 25.8976C16.7578 25.7116 17.0008 25.6956 17.2458 25.6956C17.4908 25.6956 18.0428 26.1016 18.0428 26.1016C18.0428 26.1016 17.4738 26.2316 17.2958 26.1986C17.1168 26.1676 16.7898 26.0866 16.7738 25.8976Z" fill="#ADADAD"/>
<path d="M22.2724 26.2397C22.1804 26.2887 22.0894 26.3307 22.0004 26.3657C21.9814 26.3857 21.9614 26.4087 21.9414 26.4407C22.0404 26.4287 22.1224 26.4247 22.1224 26.4247C22.1064 26.4727 22.0084 26.7007 22.1224 26.8307C22.2224 26.9457 22.3874 27.0227 22.5474 27.0297C22.9584 26.8647 22.8104 26.5467 22.6224 26.3217C22.5854 26.2777 22.5484 26.2367 22.5124 26.2017C22.5124 26.2017 22.3994 26.2107 22.2724 26.2397Z" fill="#ADADAD"/>
<path d="M22.4649 25.1558C22.6539 25.0408 22.6849 25.2668 22.6889 25.3158C22.7299 25.2918 22.7799 25.2648 22.8139 25.2418C22.8139 25.2418 22.7559 25.1358 22.6659 25.0838C22.6209 25.0578 22.5719 25.0418 22.5119 25.0648C22.5099 25.0648 22.5079 25.0668 22.5059 25.0668C22.3279 25.1378 21.9679 25.2798 21.7189 25.4388C21.7139 25.4418 21.7129 25.4468 21.7079 25.4498C21.4769 25.6088 21.5689 25.8708 21.5689 25.8708C21.7389 25.7978 22.0359 25.6618 22.3179 25.5188C22.3169 25.5148 22.2549 25.2858 22.4649 25.1558Z" fill="#ADADAD"/>
<path d="M23.7314 25.5956C23.4054 25.6616 23.1294 25.8076 22.6914 26.2026C22.6914 26.2026 22.7354 26.2106 22.7984 26.2206C22.9264 26.2416 23.1494 26.2786 23.3664 26.3126C23.5414 26.3396 23.7104 26.3646 23.8114 26.3756C23.8114 26.3756 23.8184 26.3746 23.8214 26.3756C23.8854 26.3816 23.9494 26.3726 24.0114 26.3536C24.0354 26.3466 24.0554 26.3346 24.0784 26.3236C24.1074 26.3106 24.1344 26.2956 24.1614 26.2786C24.3064 26.1866 24.4184 26.0456 24.4254 25.9006V25.8986C24.4334 25.6506 24.0554 25.5316 23.7324 25.5966L23.7314 25.5956ZM22.9834 26.1006C22.9834 26.1006 23.5364 25.6946 23.7804 25.6946C24.0244 25.6946 24.2684 25.7106 24.2524 25.8966C24.2364 26.0846 23.9104 26.1656 23.7324 26.1976C23.5534 26.2296 22.9844 26.1006 22.9844 26.1006H22.9834Z" fill="#ADADAD"/>
<path d="M19.083 26.6199C19.033 26.5999 18.992 26.5829 18.946 26.5649C18.965 26.6519 18.97 26.7559 18.905 26.8309C18.804 26.9459 18.64 27.0229 18.48 27.0299C18.459 27.0299 18.438 27.0439 18.418 27.0409C18.418 27.0409 18.532 27.0609 18.681 27.0889C18.687 27.0899 18.694 27.0919 18.7 27.0929C18.935 27.1379 19.247 27.2049 19.344 27.2529C19.503 27.3299 19.643 27.0989 19.574 26.7699C19.419 26.7319 19.254 26.6839 19.083 26.6189V26.6199Z" fill="#6699FF"/>
<path d="M18.5629 25.156C18.3729 25.04 18.3419 25.268 18.3379 25.317C18.3379 25.323 18.3359 25.336 18.3359 25.336L18.7099 25.522C18.7099 25.522 18.7739 25.286 18.5629 25.156Z" fill="#6699FF"/>
<path d="M17.2462 25.6953C17.0012 25.6953 16.7582 25.7113 16.7742 25.8973C16.7902 26.0853 17.1162 26.1663 17.2952 26.1983C17.4732 26.2303 18.0422 26.1013 18.0422 26.1013C18.0422 26.1013 17.4902 25.6953 17.2462 25.6953Z" fill="#6699FF"/>
<path d="M22.124 26.4263C22.124 26.4263 22.042 26.4303 21.943 26.4423C21.763 26.4653 21.51 26.5303 21.458 26.7503C21.456 26.7583 21.458 26.7643 21.456 26.7713C21.386 27.1003 21.526 27.3323 21.685 27.2543C21.782 27.2053 22.094 27.1393 22.329 27.0943C22.335 27.0933 22.342 27.0913 22.348 27.0903C22.497 27.0613 22.611 27.0423 22.611 27.0423C22.59 27.0443 22.57 27.0323 22.549 27.0313C22.389 27.0243 22.225 26.9473 22.124 26.8323C22.01 26.7023 22.108 26.4743 22.124 26.4263Z" fill="#6699FF"/>
<path d="M22.4649 25.1561C22.2549 25.2861 22.3169 25.5161 22.3179 25.5201L22.6919 25.3351C22.6919 25.3351 22.6899 25.3221 22.6899 25.3161C22.6849 25.2671 22.6539 25.0401 22.4649 25.1561Z" fill="#6699FF"/>
<path d="M24.2514 25.8973C24.2674 25.7113 24.0234 25.6953 23.7794 25.6953C23.5354 25.6953 22.9824 26.1013 22.9824 26.1013C22.9824 26.1013 23.5514 26.2313 23.7304 26.1983C23.9084 26.1673 24.2344 26.0863 24.2504 25.8973H24.2514Z" fill="#6699FF"/>
<path d="M18.0479 15.3469C18.0989 15.3349 18.1499 15.3199 18.1969 15.2979C18.2669 15.2669 18.3269 15.2309 18.3859 15.1899C18.5519 15.0739 18.6689 14.9469 18.6689 14.9469C18.6689 14.9469 18.8829 14.9379 19.2069 14.9419C19.2909 14.9419 19.3769 14.9439 19.4749 14.9469C19.5189 14.9489 19.5579 14.9629 19.6009 14.9689C19.7809 14.9949 19.9459 15.0479 20.0719 15.1099C20.2119 15.1789 20.2949 15.2369 20.3209 15.2569C20.3259 15.2609 20.3429 15.2719 20.3429 15.2719L20.5119 15.5329C20.5119 15.5329 20.6089 15.5939 20.7499 15.6739C20.8329 15.7209 20.9289 15.7729 21.0369 15.8289C21.2879 15.9569 21.5819 16.0839 21.8169 16.1239C21.5549 15.9739 21.3509 15.8449 21.3369 15.8039C21.3009 15.6939 21.5239 15.3869 21.5239 15.3869C21.6189 15.3439 22.3029 15.6819 22.7769 15.9199C22.9719 15.9709 23.2669 16.0079 23.5169 16.0029C23.5399 15.7919 23.6619 15.6189 23.8909 15.5719C23.7739 15.2849 23.4829 14.9099 23.0809 14.6699C22.6409 14.4089 22.3149 14.7029 22.1709 14.8799C22.1179 14.9449 22.0879 14.9949 22.0879 14.9949C22.0289 14.9789 21.9829 14.9829 21.9269 14.9729C21.5789 14.9099 21.2949 14.9279 21.0979 14.9669C21.0199 14.9819 20.9529 14.9969 20.9029 15.0069C20.8269 15.0219 20.7769 15.0269 20.7729 14.9949C20.7569 14.8809 20.6109 14.6049 20.6109 14.6049C20.6109 14.6049 20.7329 14.6119 20.9029 14.6179C20.9639 14.6199 21.0269 14.6219 21.0979 14.6239C21.3739 14.6319 21.6999 14.6329 21.9269 14.6119C21.9469 14.6099 21.9639 14.6079 21.9829 14.6059C22.0759 14.5949 22.1529 14.5799 22.1809 14.5559C22.3379 14.4269 22.3659 14.1169 21.4319 13.9329C20.4989 13.7489 20.3439 14.1989 20.3439 14.1989C20.3439 14.1989 20.3489 13.8899 19.6509 13.9389C18.9519 13.9869 18.7179 14.7029 18.7179 14.7029C18.7179 14.7029 18.3489 14.1349 17.7829 14.4749C17.1339 14.8659 17.2119 15.4009 17.2119 15.4009C17.2119 15.4009 17.4689 15.4099 17.7649 15.3879H17.7669C17.7869 15.3869 17.8059 15.3839 17.8259 15.3819C17.8759 15.3779 17.9249 15.3749 17.9749 15.3679C18.0009 15.3649 18.0229 15.3509 18.0479 15.3439V15.3469Z" fill="#289400"/>
<path d="M20.621 16.5938C20.56 16.6868 20.544 16.7888 20.586 16.8828C20.616 16.9498 20.68 16.9868 20.745 17.0238C20.903 17.1128 21.138 17.1418 21.394 17.1708C21.52 17.1848 21.641 17.2098 21.763 17.2398C21.814 17.2518 21.868 17.2568 21.916 17.2738C22.409 17.4528 22.952 17.4848 23.162 17.2738C23.318 17.1178 23.122 16.8058 22.642 16.5658C22.63 16.5598 22.616 16.5528 22.604 16.5458C22.44 16.4678 22.246 16.3978 22.021 16.3458C21.267 16.1698 20.779 16.3508 20.62 16.5928L20.621 16.5938Z" fill="#289400"/>
<path d="M20.2509 17.7658C20.3039 17.7218 20.3429 17.6688 20.3449 17.5988C20.3499 17.4338 20.2639 17.2628 20.0769 17.1638C19.8769 17.0588 19.5619 17.0378 19.1109 17.2078C18.4219 17.4678 18.1559 17.9558 18.3359 18.1508C18.5139 18.3458 19.0339 18.1838 19.3189 18.0538C19.4179 18.0088 19.5709 17.9808 19.7279 17.9498C19.7969 17.9368 19.8659 17.9228 19.9329 17.9058C20.0629 17.8738 20.1759 17.8298 20.2519 17.7658H20.2509Z" fill="#289400"/>
<path d="M17.3867 16.4779C17.3977 16.4869 17.4097 16.4949 17.4207 16.5039C17.5347 16.4439 17.6537 16.3799 17.7677 16.3179C17.7527 16.2809 17.7417 16.2539 17.7417 16.2539C17.8307 16.1689 18.1577 15.9389 18.2387 16.0589C18.2697 16.0419 18.2927 16.0289 18.3057 16.0209C18.4157 15.9599 18.5987 16.1789 18.4277 16.2529C18.4067 16.2619 18.3747 16.2779 18.3347 16.2989C18.3677 16.3859 18.4087 16.4779 18.4597 16.5619C18.4757 16.5579 18.4927 16.5529 18.5087 16.5489C18.6667 16.5059 18.8227 16.4609 18.9497 16.4249C19.0687 16.3919 19.1627 16.3659 19.2037 16.3619C19.3267 16.3489 19.8267 16.3929 19.9977 16.1849C20.0417 16.1309 20.0697 16.0649 20.0557 15.9709C20.0277 15.7729 19.8777 15.6439 19.6597 15.5609C19.3767 15.4539 18.9667 15.4329 18.4387 15.5149C18.4387 15.5149 18.3917 15.5169 18.3217 15.5249C18.2767 15.5299 18.2137 15.5429 18.1487 15.5569C18.1287 15.5609 18.1167 15.5609 18.0957 15.5669C18.0547 15.5769 18.0067 15.5999 17.9627 15.6159C17.7997 15.6709 17.6237 15.7589 17.4577 15.9039C17.4757 15.9709 17.4827 16.0429 17.4787 16.1169C17.4657 16.3469 17.4097 16.4459 17.3867 16.4779Z" fill="#289400"/>
<path d="M17.7168 16.6458C17.7678 16.6588 17.8158 16.6688 17.8578 16.6718C17.8558 16.6398 17.8538 16.6068 17.8468 16.5728C17.8038 16.5968 17.7608 16.6218 17.7168 16.6458Z" fill="#289400"/>
<path d="M17.3802 16.4268C17.3782 16.4318 17.3802 16.4378 17.3772 16.4428C17.3732 16.4508 17.3712 16.4548 17.3672 16.4628C17.3702 16.4658 17.3742 16.4678 17.3772 16.4708C17.3792 16.4598 17.3792 16.4488 17.3802 16.4268Z" fill="#289400"/>
<path d="M20.8168 17.8199C20.8068 17.8909 20.8288 17.9659 20.8888 18.0379C21.1318 18.3299 22.2048 18.4759 22.3188 18.3629C22.4318 18.2479 22.4068 17.6319 21.7088 17.5179C21.5678 17.4949 21.4438 17.4949 21.3308 17.5049C21.0298 17.5329 20.8398 17.6629 20.8168 17.8199Z" fill="#289400"/>
<path d="M25.0572 24.62C24.6512 24.734 24.5762 24.357 24.6872 24.017L24.4882 23.889V23.873C24.3162 23.813 24.1342 23.756 23.9452 23.701L23.9532 23.84L23.8192 23.838C23.8942 24 24.0032 24.244 23.6592 24.207C23.2682 24.165 23.0252 24.168 22.7812 24.207C22.5372 24.248 22.3912 23.982 22.6512 23.993C22.8632 24.002 23.0182 23.916 23.1262 23.76C23.1282 23.704 23.1312 23.615 23.1352 23.49C22.9152 23.439 22.7052 23.396 22.5122 23.362C22.2432 23.836 21.9022 24.198 21.7082 24.377C21.3592 24.701 20.5142 25.174 20.5142 25.174C20.5142 25.174 19.6692 24.7 19.3192 24.377C19.1142 24.186 18.7402 23.79 18.4652 23.271C18.2532 23.278 18.0462 23.287 17.8462 23.297C17.8532 23.512 17.8592 23.679 17.8622 23.761C17.9702 23.916 18.1242 24.002 18.3372 23.994C18.5972 23.983 18.4512 24.249 18.2072 24.208C17.9642 24.169 17.7202 24.166 17.3292 24.208C16.9862 24.245 17.0942 24.001 17.1702 23.839L17.0362 23.841L17.0632 23.341C16.8652 23.355 16.6792 23.37 16.5222 23.385L16.5012 23.889L16.3042 24.016C16.4152 24.355 16.3382 24.733 15.9322 24.619C15.6192 24.533 15.6722 24.3 15.7352 24.035L15.5412 23.903C15.5412 23.903 15.5622 23.764 15.5932 23.571C14.2252 24.048 15.5992 24.931 16.0452 24.797C16.5332 24.65 17.3452 24.537 17.9142 24.747C18.4832 24.958 19.1652 25.398 20.5152 25.382C21.8642 25.367 22.1742 24.666 22.9702 24.797C23.1852 24.832 23.4442 24.859 23.7142 24.873C23.8262 24.879 23.9392 24.883 24.0532 24.883C24.6782 24.886 25.2892 24.803 25.4892 24.552C25.5662 24.456 25.4802 24.343 25.2942 24.225C25.3202 24.405 25.2932 24.552 25.0592 24.617L25.0572 24.62Z" fill="#289400"/>
<path d="M18.5469 22.8941C18.6139 23.0681 18.6919 23.2351 18.7799 23.3861H19.7109L19.3199 22.8381C19.3199 22.8381 19.5599 22.9481 19.8729 23.0381L19.5359 22.7961L19.8809 22.2521L20.9829 22.2001L21.1559 23.0431H19.8909C20.0929 23.1001 20.3229 23.1481 20.5399 23.1541C21.1019 23.1671 21.2429 23.0751 21.2429 23.0751L21.0829 23.3861H22.2479C22.3359 23.2351 22.4139 23.0681 22.4809 22.8941L20.5159 21.1421L18.5489 22.8941H18.5469Z" fill="#9ED7FF"/>
<path d="M19.7103 23.3862H18.7793C18.7793 23.3862 18.7803 23.3872 18.7813 23.3882C18.8843 23.5672 18.9973 23.7262 19.1043 23.8622C19.1063 23.8652 19.1093 23.8702 19.1113 23.8732H21.9173C21.9283 23.8592 21.9403 23.8382 21.9513 23.8232C22.0413 23.7062 22.1343 23.5732 22.2223 23.4252C22.2313 23.4102 22.2403 23.4012 22.2493 23.3862H19.7103Z" fill="#006AC8"/>
<path d="M19.1094 23.873C19.1094 23.873 19.1134 23.878 19.1164 23.881C19.2404 24.037 19.3564 24.161 19.4404 24.239C19.4984 24.293 19.5714 24.35 19.6524 24.409H21.3754C21.3864 24.401 21.3934 24.394 21.4044 24.386C21.4554 24.348 21.5004 24.311 21.5414 24.275C21.5544 24.263 21.5744 24.25 21.5864 24.239C21.6614 24.17 21.7624 24.06 21.8704 23.928C21.8764 23.921 21.8814 23.916 21.8864 23.909C21.8964 23.896 21.9064 23.887 21.9164 23.873H19.1094Z" fill="#5AC800"/>
<path d="M19.6504 24.4102C19.6584 24.4162 19.6684 24.4222 19.6774 24.4282C20.0314 24.6842 20.5124 24.9542 20.5124 24.9542C20.5124 24.9542 20.5854 24.9122 20.6794 24.8572C20.7094 24.8402 20.7364 24.8242 20.7714 24.8032C20.7994 24.7862 20.8254 24.7702 20.8554 24.7512C20.9104 24.7172 20.9684 24.6812 21.0284 24.6422C21.0534 24.6262 21.0754 24.6122 21.1014 24.5962C21.1774 24.5462 21.2524 24.4942 21.3244 24.4432C21.3404 24.4322 21.3574 24.4212 21.3724 24.4102H19.6484H19.6504Z" fill="#FFD801"/>
<path d="M20.5137 19.1431V21.1421L22.4787 22.8941L22.4827 22.8981C22.4907 22.8781 22.4937 22.8571 22.5007 22.8371C22.5297 22.7561 22.5537 22.6731 22.5757 22.5881C22.5887 22.5371 22.6047 22.4871 22.6147 22.4351C22.6377 22.3171 22.6497 22.1971 22.6527 22.0761C22.6527 22.0581 22.6587 22.0421 22.6587 22.0241V19.1431H20.5137ZM21.4887 19.8151L21.4447 19.8571L21.5587 19.9821L22.0977 19.4641L22.4017 19.7811L21.8547 20.3061L22.4487 20.9571C22.4867 20.9981 22.4827 21.0611 22.4427 21.0971C22.4017 21.1351 22.3387 21.1311 22.3017 21.0911L21.7107 20.4441L21.1907 20.9431L20.8877 20.6271L21.4147 20.1211L21.2997 19.9951L21.0247 20.2551L20.6947 19.9071L21.1587 19.4681L21.4887 19.8151Z" fill="#FFD83C"/>
<path d="M19.7902 19.9589L19.6652 19.8789C19.6462 19.8849 19.6262 19.8919 19.6132 19.9099L19.4882 20.0739L19.2672 20.3619L18.6902 21.1149C18.6572 21.1589 18.6652 21.2209 18.7092 21.2539C18.7532 21.2879 18.8162 21.2789 18.8492 21.2349L19.4242 20.4839L19.6312 20.2139L19.7712 20.0309C19.7872 20.0099 19.7932 19.9839 19.7902 19.9589Z" fill="#782121"/>
<path d="M21.4138 20.12L21.5578 19.981L21.4448 19.856L21.2988 19.994L21.4138 20.12Z" fill="#782121"/>
<path d="M22.3 21.0902C22.337 21.1312 22.401 21.1342 22.441 21.0962C22.482 21.0592 22.485 20.9962 22.447 20.9562L21.853 20.3052L21.709 20.4432L22.3 21.0902Z" fill="#782121"/>
<path d="M20.5 11.5C15.529 11.5 11.5 15.529 11.5 20.5C11.5 25.471 15.529 29.5 20.5 29.5C25.471 29.5 29.5 25.47 29.5 20.5C29.5 15.53 25.471 11.5 20.5 11.5ZM28.028 16.155C28.154 16.374 28.028 16.683 27.744 16.847C27.738 16.85 27.732 16.851 27.726 16.854C27.907 17.211 28.064 17.582 28.19 17.967C28.196 17.965 28.2 17.962 28.205 17.96C28.52 17.875 28.829 18.006 28.894 18.25C28.959 18.495 28.758 18.761 28.442 18.847C28.438 18.848 28.433 18.847 28.429 18.848C28.51 19.237 28.553 19.638 28.576 20.044C28.584 20.044 28.591 20.041 28.599 20.041C28.926 20.041 29.189 20.246 29.189 20.5C29.189 20.754 28.925 20.959 28.599 20.959C28.591 20.959 28.584 20.956 28.576 20.955C28.553 21.362 28.51 21.764 28.429 22.153C28.434 22.153 28.438 22.153 28.442 22.154C28.757 22.238 28.959 22.505 28.894 22.75C28.827 22.995 28.52 23.125 28.204 23.04C28.199 23.039 28.195 23.035 28.189 23.033C28.062 23.418 27.905 23.788 27.725 24.145C27.731 24.148 27.738 24.149 27.744 24.152C28.027 24.316 28.153 24.626 28.026 24.846C27.9 25.065 27.568 25.111 27.285 24.948C27.28 24.945 27.277 24.94 27.271 24.937C27.05 25.274 26.801 25.591 26.533 25.89C26.539 25.895 26.546 25.898 26.551 25.903C26.782 26.133 26.824 26.465 26.645 26.645C26.466 26.824 26.135 26.782 25.903 26.551C25.898 26.546 25.895 26.539 25.89 26.533C25.59 26.801 25.274 27.05 24.937 27.271C24.94 27.276 24.945 27.28 24.948 27.285C25.112 27.567 25.065 27.899 24.845 28.025C24.625 28.151 24.316 28.025 24.152 27.743C24.149 27.737 24.148 27.731 24.145 27.725C23.788 27.906 23.417 28.063 23.032 28.19C23.034 28.196 23.037 28.2 23.039 28.205C23.124 28.521 22.993 28.829 22.749 28.894C22.504 28.96 22.238 28.758 22.152 28.443C22.151 28.438 22.152 28.434 22.151 28.429C21.762 28.51 21.361 28.553 20.955 28.575C20.955 28.583 20.959 28.59 20.959 28.598C20.959 28.924 20.753 29.189 20.5 29.189C20.247 29.189 20.041 28.924 20.041 28.598C20.041 28.59 20.044 28.583 20.045 28.575C19.639 28.552 19.238 28.509 18.849 28.429C18.848 28.433 18.849 28.437 18.848 28.442C18.763 28.758 18.497 28.96 18.251 28.895C18.006 28.829 17.877 28.52 17.961 28.205C17.963 28.199 17.966 28.195 17.968 28.19C17.583 28.063 17.212 27.906 16.855 27.725C16.852 27.731 16.852 27.736 16.848 27.742C16.685 28.025 16.375 28.152 16.156 28.025C15.935 27.898 15.89 27.567 16.053 27.284C16.056 27.279 16.06 27.276 16.063 27.271C15.726 27.05 15.409 26.801 15.11 26.533C15.105 26.538 15.103 26.545 15.097 26.55C14.866 26.781 14.535 26.824 14.355 26.644C14.176 26.465 14.217 26.133 14.449 25.902C14.454 25.897 14.461 25.894 14.466 25.889C14.198 25.589 13.949 25.273 13.728 24.936C13.723 24.939 13.72 24.943 13.715 24.946C13.432 25.11 13.1 25.064 12.973 24.844C12.846 24.623 12.973 24.313 13.256 24.15C13.262 24.147 13.268 24.146 13.274 24.143C13.094 23.786 12.937 23.416 12.81 23.031C12.805 23.033 12.801 23.036 12.795 23.038C12.479 23.123 12.171 22.992 12.106 22.747C12.04 22.502 12.242 22.236 12.558 22.151C12.562 22.15 12.566 22.151 12.57 22.15C12.489 21.762 12.446 21.36 12.423 20.953C12.415 20.953 12.408 20.957 12.4 20.957C12.073 20.957 11.809 20.751 11.809 20.498C11.809 20.245 12.074 20.039 12.4 20.039C12.408 20.039 12.415 20.042 12.423 20.042C12.446 19.636 12.489 19.235 12.569 18.846C12.565 18.846 12.561 18.846 12.556 18.845C12.24 18.76 12.039 18.494 12.103 18.248C12.17 18.003 12.478 17.873 12.793 17.958C12.799 17.96 12.803 17.963 12.808 17.965C12.935 17.58 13.092 17.209 13.273 16.851C13.267 16.848 13.261 16.847 13.255 16.844C12.972 16.681 12.845 16.371 12.972 16.152C13.099 15.932 13.43 15.886 13.714 16.049C13.719 16.052 13.722 16.056 13.727 16.059C13.948 15.722 14.197 15.406 14.465 15.106C14.459 15.101 14.453 15.098 14.447 15.093C14.216 14.862 14.173 14.53 14.353 14.351C14.532 14.172 14.864 14.214 15.095 14.445C15.1 14.45 15.103 14.457 15.108 14.463C15.408 14.195 15.724 13.946 16.061 13.725C16.058 13.72 16.053 13.717 16.05 13.712C15.886 13.43 15.932 13.097 16.152 12.971C16.372 12.845 16.682 12.971 16.845 13.253C16.848 13.259 16.849 13.266 16.852 13.272C17.209 13.092 17.579 12.935 17.964 12.808C17.962 12.802 17.959 12.798 17.957 12.793C17.872 12.477 18.003 12.169 18.248 12.104C18.493 12.039 18.759 12.241 18.844 12.556C18.845 12.56 18.844 12.565 18.845 12.569C19.234 12.488 19.635 12.445 20.042 12.422C20.042 12.414 20.038 12.407 20.038 12.399C20.038 12.073 20.244 11.808 20.497 11.808C20.75 11.808 20.956 12.073 20.956 12.399C20.956 12.407 20.953 12.414 20.952 12.422C21.359 12.445 21.76 12.488 22.149 12.569C22.15 12.564 22.149 12.56 22.151 12.555C22.236 12.24 22.502 12.038 22.747 12.103C22.992 12.169 23.121 12.477 23.037 12.793C23.035 12.799 23.032 12.803 23.03 12.808C23.415 12.935 23.786 13.092 24.143 13.272C24.146 13.266 24.147 13.259 24.15 13.253C24.314 12.971 24.623 12.845 24.843 12.971C25.063 13.097 25.108 13.429 24.945 13.712C24.942 13.717 24.937 13.72 24.934 13.726C25.272 13.947 25.588 14.196 25.888 14.465C25.893 14.459 25.896 14.453 25.901 14.447C26.132 14.216 26.463 14.175 26.643 14.353C26.822 14.532 26.781 14.863 26.549 15.095C26.544 15.1 26.537 15.103 26.532 15.108C26.8 15.408 27.049 15.724 27.27 16.061C27.275 16.058 27.278 16.053 27.284 16.05C27.567 15.886 27.898 15.933 28.026 16.153L28.028 16.155Z" fill="white"/>
<path d="M19.2053 14.943H19.2073C18.8833 14.939 18.6693 14.947 18.6693 14.947C18.6693 14.947 18.5523 15.073 18.3863 15.19L18.3223 15.527C18.3933 15.519 18.4393 15.517 18.4393 15.517C18.9673 15.434 19.3773 15.456 19.6603 15.563L19.7923 15.464L19.2053 14.943Z" fill="white"/>
<path d="M23.5063 16.1189C23.5043 16.0799 23.5133 16.0429 23.5173 16.0049C23.2673 16.0089 22.9723 15.9729 22.7773 15.9219C22.9743 16.0209 23.1383 16.1039 23.2033 16.1319C23.3913 16.2139 23.5183 16.4949 23.6853 16.6349C23.6703 16.5809 23.6483 16.5209 23.6103 16.4439C23.5993 16.4219 23.6023 16.3989 23.5953 16.3769C23.5943 16.4319 23.6053 16.4939 23.6053 16.4939C23.6053 16.4939 23.5223 16.4119 23.5063 16.1189Z" fill="white"/>
<path d="M24.2834 16.8991C24.2534 16.9401 24.2754 16.9881 24.3164 17.0331L24.2894 16.8921C24.2894 16.8921 24.2854 16.8971 24.2834 16.8991Z" fill="white"/>
<path d="M22.5108 23.362C22.7038 23.396 22.9148 23.44 23.1338 23.49C23.1528 22.919 23.1918 21.794 23.2048 21.566C23.2218 21.257 23.3358 20.314 23.3758 20.022C23.4008 19.842 23.4398 19.64 23.4668 19.505C23.4168 19.511 23.3818 19.517 23.3818 19.517C23.3818 19.517 23.3668 19.241 23.3818 19.159C23.3838 19.15 23.4088 19.15 23.4418 19.154L23.3758 18.915C23.3758 18.915 23.1088 19.337 23.0588 19.354C23.0118 19.37 22.9098 19.256 22.9008 19.246V22.02C22.9008 22.522 22.7298 22.978 22.5108 23.362Z" fill="white"/>
<path d="M15.54 17.8261C15.175 18.2701 15.464 18.3441 15.464 18.3441L15.685 18.0701C15.685 18.0701 15.658 17.8791 15.653 17.7061C15.609 17.7281 15.581 17.7431 15.559 17.7521C15.559 17.7751 15.566 17.7961 15.541 17.8261H15.54Z" fill="white"/>
<path d="M24.4069 21.9879L24.1189 21.0469L23.8379 21.7279L23.9449 23.7019C24.1339 23.7569 24.3159 23.8149 24.4869 23.8739L24.4069 21.9879Z" fill="white"/>
<path d="M25.8093 15.1898C25.6803 15.0598 25.6693 14.8508 25.7583 14.6588C25.4533 14.3838 25.1293 14.1308 24.7843 13.9058C24.6203 14.0438 24.4143 14.0878 24.2543 13.9958C24.0953 13.9048 24.0303 13.7038 24.0673 13.4938C23.7043 13.3078 23.3263 13.1478 22.9333 13.0198C22.8103 13.1968 22.6223 13.2928 22.4433 13.2458C22.2643 13.1988 22.1493 13.0198 22.1323 12.8038C21.7363 12.7198 21.3273 12.6738 20.9113 12.6528C20.8373 12.8518 20.6823 12.9918 20.5003 12.9918C20.3183 12.9918 20.1623 12.8518 20.0893 12.6528C19.6743 12.6738 19.2653 12.7198 18.8693 12.8038C18.8523 13.0198 18.7373 13.1988 18.5583 13.2468C18.3793 13.2948 18.1913 13.1978 18.0683 13.0198C17.6753 13.1478 17.2973 13.3078 16.9343 13.4938C16.9713 13.7048 16.9063 13.9058 16.7473 13.9978C16.5883 14.0898 16.3813 14.0448 16.2173 13.9068C15.8723 14.1318 15.5483 14.3848 15.2443 14.6598C15.3333 14.8528 15.3233 15.0618 15.1933 15.1918C15.0643 15.3208 14.8553 15.3318 14.6613 15.2428C14.3863 15.5478 14.1333 15.8708 13.9083 16.2168C14.0473 16.3808 14.0923 16.5878 13.9993 16.7478C13.9063 16.9078 13.7053 16.9718 13.4953 16.9348C13.3103 17.2978 13.1493 17.6758 13.0213 18.0698C13.1993 18.1928 13.2963 18.3818 13.2493 18.5598C13.2013 18.7398 13.0213 18.8558 12.8053 18.8718C12.7223 19.2678 12.6763 19.6758 12.6543 20.0908C12.8533 20.1648 12.9933 20.3198 12.9933 20.5028C12.9933 20.6858 12.8533 20.8408 12.6543 20.9138C12.6753 21.3298 12.7213 21.7378 12.8053 22.1338C13.0213 22.1508 13.2013 22.2658 13.2493 22.4458C13.2973 22.6248 13.2003 22.8138 13.0223 22.9368C13.1503 23.3298 13.3103 23.7078 13.4953 24.0708C13.7063 24.0338 13.9073 24.0978 14.0003 24.2578C14.0923 24.4168 14.0473 24.6238 13.9093 24.7888C14.1343 25.1338 14.3873 25.4568 14.6613 25.7618C14.8543 25.6718 15.0643 25.6828 15.1943 25.8128C15.3243 25.9418 15.3343 26.1518 15.2443 26.3448C15.5493 26.6198 15.8723 26.8728 16.2173 27.0978C16.3813 26.9588 16.5893 26.9138 16.7493 27.0048C16.9093 27.0978 16.9733 27.2988 16.9353 27.5108C17.2983 27.6958 17.6763 27.8568 18.0693 27.9848C18.1923 27.8068 18.3813 27.7098 18.5593 27.7568C18.7393 27.8048 18.8553 27.9848 18.8713 28.2008C19.2673 28.2838 19.6753 28.3298 20.0903 28.3518C20.1643 28.1528 20.3193 28.0128 20.5013 28.0128C20.6833 28.0128 20.8393 28.1528 20.9123 28.3518C21.3283 28.3308 21.7363 28.2848 22.1323 28.2008C22.1493 27.9848 22.2643 27.8058 22.4443 27.7578C22.6233 27.7088 22.8123 27.8068 22.9353 27.9838C23.3283 27.8558 23.7063 27.6958 24.0693 27.5108C24.0323 27.2998 24.0973 27.0998 24.2563 27.0078C24.4163 26.9158 24.6223 26.9598 24.7873 27.0988C25.1323 26.8738 25.4563 26.6198 25.7613 26.3458C25.6723 26.1528 25.6823 25.9448 25.8113 25.8148C25.9413 25.6858 26.1503 25.6748 26.3433 25.7628C26.6183 25.4578 26.8713 25.1348 27.0963 24.7888C26.9583 24.6248 26.9133 24.4178 27.0063 24.2588C27.0983 24.0988 27.2983 24.0338 27.5093 24.0708C27.6943 23.7078 27.8543 23.3308 27.9823 22.9378C27.8043 22.8148 27.7083 22.6258 27.7563 22.4468C27.8043 22.2678 27.9833 22.1528 28.1993 22.1358C28.2833 21.7398 28.3293 21.3308 28.3503 20.9148C28.1513 20.8408 28.0123 20.6858 28.0123 20.5038C28.0123 20.3218 28.1523 20.1658 28.3503 20.0918C28.3293 19.6768 28.2833 19.2678 28.1993 18.8718C27.9833 18.8548 27.8033 18.7398 27.7563 18.5598C27.7083 18.3808 27.8053 18.1918 27.9823 18.0698C27.8543 17.6768 27.6943 17.2988 27.5083 16.9358C27.2973 16.9728 27.0983 16.9078 27.0053 16.7488C26.9123 16.5888 26.9563 16.3828 27.0953 16.2178C26.8703 15.8728 26.6173 15.5488 26.3423 15.2438C26.1493 15.3328 25.9403 15.3228 25.8113 15.1928L25.8093 15.1898ZM26.7413 18.0018C26.8633 18.0698 26.6813 18.6118 26.5953 18.6028C26.5093 18.5928 26.4123 18.4588 26.4003 18.3498C26.3923 18.2778 26.2393 18.1948 26.1303 18.1428C26.1083 18.1758 26.0863 18.2098 26.0793 18.2638C26.0473 18.5398 25.8723 19.0438 25.7413 19.1488C25.6123 19.2548 25.3473 19.2368 25.2333 19.0748C25.1193 18.9118 24.8583 18.6498 24.8583 18.6498L24.7633 19.1648C24.7743 19.1618 24.7943 19.1568 24.7943 19.1568C24.7943 19.1568 24.8093 19.1938 24.8253 19.2388H24.8273C25.0053 19.6278 25.1683 20.4728 25.1363 20.9278C25.1043 21.3828 25.0143 21.8538 25.1413 22.2758C25.2673 22.6998 25.4453 23.9018 25.4453 23.9018L25.2523 24.0328C25.2683 24.0998 25.2813 24.1638 25.2903 24.2248C25.4763 24.3428 25.5623 24.4558 25.4853 24.5518C25.2853 24.8028 24.6743 24.8858 24.0493 24.8828C24.3943 24.9698 24.6703 25.2678 24.6563 25.3658C24.6443 25.4528 24.5293 25.6968 24.4243 25.8948V25.8968C24.4173 26.0418 24.3063 26.1828 24.1603 26.2748C24.1363 26.2938 24.1063 26.3068 24.0773 26.3198C24.0543 26.3298 24.0343 26.3418 24.0103 26.3498C23.9573 26.3638 23.8943 26.3708 23.8203 26.3718C23.8173 26.3718 23.8133 26.3728 23.8103 26.3718C23.6933 26.3718 23.5263 26.3438 23.3653 26.3088C23.1483 26.2748 22.9253 26.2378 22.7973 26.2168C22.7633 26.2398 22.7063 26.2738 22.6203 26.3188C22.8083 26.5438 22.9563 26.8618 22.5453 27.0268C22.5663 27.0268 22.5873 27.0408 22.6073 27.0378C22.6073 27.0378 22.4933 27.0578 22.3443 27.0858C22.3403 27.0858 22.3383 27.0878 22.3333 27.0888C22.3303 27.0888 22.3283 27.0888 22.3243 27.0888C22.0893 27.1338 21.7773 27.2008 21.6803 27.2488C21.5213 27.3258 21.3813 27.0938 21.4513 26.7658C20.9133 26.8988 20.5083 26.8908 20.5083 26.8908C20.5083 26.8908 20.1053 26.8978 19.5693 26.7658C19.6383 27.0948 19.4983 27.3258 19.3393 27.2488C19.2423 27.1998 18.9313 27.1338 18.6953 27.0888C18.6923 27.0888 18.6903 27.0888 18.6863 27.0888C18.6823 27.0888 18.6793 27.0868 18.6753 27.0858C18.5263 27.0568 18.4123 27.0378 18.4123 27.0378C18.4333 27.0398 18.4533 27.0278 18.4743 27.0268C18.0633 26.8618 18.2103 26.5448 18.3983 26.3198C18.3123 26.2748 18.2553 26.2408 18.2203 26.2178C18.0913 26.2398 17.8673 26.2768 17.6493 26.3108C17.4893 26.3458 17.3253 26.3728 17.2093 26.3728H17.2073C17.1263 26.3728 17.0613 26.3638 17.0053 26.3498C16.9853 26.3438 16.9683 26.3328 16.9483 26.3248C16.9143 26.3108 16.8803 26.2938 16.8543 26.2728C16.7113 26.1798 16.6013 26.0398 16.5953 25.8968C16.4903 25.6988 16.3743 25.4528 16.3623 25.3658C16.3463 25.2518 16.7193 24.8458 17.1423 24.8458C17.5653 24.8458 18.1343 25.1868 18.1343 25.1868C18.1343 25.1868 18.2163 25.1148 18.3553 25.0808C18.3993 25.0548 18.4493 25.0388 18.5093 25.0618C18.5113 25.0618 18.5133 25.0638 18.5153 25.0638C18.6043 25.0688 18.7033 25.0908 18.8183 25.1528C19.0353 25.2698 19.2023 25.3448 19.3123 25.4458C19.5463 25.6048 19.4533 25.8678 19.4533 25.8678C19.4533 25.8678 19.6823 25.9858 19.9073 26.0468C20.2643 26.1448 20.5083 26.0618 20.5083 26.0618C20.5083 26.0618 20.7523 26.1448 21.1093 26.0468C21.3343 25.9858 21.5643 25.8678 21.5643 25.8678C21.5643 25.8678 21.4723 25.6058 21.7033 25.4468C21.8123 25.3448 21.9803 25.2698 22.1973 25.1518C22.3123 25.0898 22.4123 25.0678 22.5013 25.0628C22.5033 25.0628 22.5053 25.0618 22.5073 25.0608C22.5663 25.0368 22.6163 25.0538 22.6613 25.0798C22.7993 25.1138 22.8813 25.1848 22.8813 25.1848C22.8813 25.1848 23.3143 24.9348 23.7073 24.8708C23.4373 24.8568 23.1783 24.8298 22.9633 24.7948C22.1673 24.6638 21.8573 25.3648 20.5083 25.3798C19.1583 25.3958 18.4763 24.9558 17.9073 24.7448C17.3383 24.5338 16.5253 24.6478 16.0383 24.7948C15.5923 24.9288 14.2183 24.0448 15.5863 23.5688C15.6483 23.1818 15.7543 22.5578 15.8393 22.2738C15.9653 21.8518 15.8763 21.3798 15.8433 20.9258C15.8103 20.4718 15.9733 19.6258 16.1523 19.2368H16.1553C16.1713 19.1918 16.1863 19.1548 16.1863 19.1548C16.1863 19.1548 16.2063 19.1598 16.2183 19.1628L16.1233 18.6468C16.1233 18.6468 15.7953 18.9828 15.6813 19.1458C15.5683 19.3088 15.3423 19.0728 15.2113 18.9668C15.0813 18.8618 14.9353 18.5368 14.9023 18.2598C14.8973 18.2138 14.8753 18.1738 14.8563 18.1338C14.7233 18.2658 14.5773 18.5258 14.4393 18.5898C14.2793 18.6628 14.1683 18.2918 14.2303 18.1998C14.3663 17.9998 14.5823 17.8468 14.6583 17.7958C14.6333 17.7398 14.6233 17.6838 14.6583 17.6258C14.7713 17.4308 14.8693 17.3338 15.0653 17.3338C15.1693 17.3338 15.2293 17.4068 15.2653 17.4758C15.2923 17.4648 15.8353 17.2448 16.0733 17.1378C16.3173 17.0278 16.5983 16.8578 16.5983 16.8578L16.7043 16.9408C16.7043 16.9248 16.7093 16.9088 16.6993 16.8948C16.6263 16.7978 16.4633 16.6188 16.4633 16.4058C16.4633 16.2878 16.4503 16.1018 16.5133 15.9648C16.4993 15.9598 16.4783 15.9528 16.4783 15.9528L16.4213 16.1718C16.4213 16.1718 16.2333 15.9528 16.4123 15.7408C16.5913 15.5298 16.8933 15.5458 16.8933 15.5458H16.9783C17.2463 15.5458 17.4013 15.7008 17.4553 15.9018C17.6213 15.7558 17.7973 15.6688 17.9603 15.6138L17.8243 15.3808C17.8043 15.3828 17.7843 15.3848 17.7653 15.3868L17.7633 15.3908V15.3868C17.4673 15.4088 17.2103 15.3998 17.2103 15.3998C17.2103 15.3998 17.1323 14.8638 17.7813 14.4738C18.3473 14.1338 18.7163 14.7018 18.7163 14.7018C18.7163 14.7018 18.9503 13.9858 19.6493 13.9378C20.3473 13.8888 20.3423 14.1978 20.3423 14.1978C20.3423 14.1978 20.4973 13.7488 21.4303 13.9318C22.3643 14.1158 22.3353 14.4248 22.1793 14.5548C22.1513 14.5778 22.0743 14.5928 21.9813 14.6048H22.1693V14.8788C22.3133 14.7018 22.6393 14.4078 23.0793 14.6688C23.4813 14.9078 23.7733 15.2838 23.8893 15.5708C23.9273 15.5628 23.9583 15.5478 24.0023 15.5478H24.0863C24.0863 15.5478 24.3873 15.5328 24.5663 15.7428C24.7443 15.9538 24.5573 16.1738 24.5573 16.1738L24.5003 15.9548C24.5003 15.9548 24.4803 15.9618 24.4683 15.9658C24.5313 16.1028 24.5183 16.2898 24.5183 16.4088C24.5183 16.6058 24.3813 16.7708 24.3023 16.8718L25.6183 17.5788C25.6183 17.5788 25.4413 17.5788 25.4443 17.7318C25.4453 17.7758 25.3523 17.7488 25.2243 17.6928C25.2693 17.9088 25.2993 18.2028 25.2993 18.2028L25.4923 18.3688C25.4923 18.3688 25.6183 18.0858 25.5213 17.8738C25.4243 17.6618 25.6723 17.5978 25.6723 17.5978C25.6723 17.5978 25.6793 17.5218 25.8753 17.5218C26.0713 17.5218 26.1923 17.6468 26.3053 17.8418C26.3453 17.9098 26.3263 17.9468 26.2923 17.9798L26.5703 18.0698C26.5703 18.0698 26.6193 17.9358 26.7403 18.0018H26.7413Z" fill="white"/>
<path d="M18.1226 19.108L18.0916 19.241C18.0916 19.241 17.9776 19.371 17.9286 19.354C17.8796 19.337 17.6106 18.915 17.6106 18.915L17.5446 19.154C17.5756 19.151 17.6006 19.15 17.6016 19.159C17.6186 19.241 17.6016 19.517 17.6016 19.517C17.6016 19.517 17.5666 19.511 17.5176 19.505C17.5446 19.64 17.5836 19.842 17.6076 20.022C17.6476 20.314 17.7626 21.258 17.7786 21.566C17.7896 21.771 17.8216 22.695 17.8426 23.296C18.0436 23.286 18.2496 23.278 18.4616 23.27C18.2676 22.905 18.1216 22.482 18.1216 22.019V19.107L18.1226 19.108Z" fill="white"/>
<path d="M21.0996 14.6258V14.9678C21.2966 14.9288 21.5806 14.9108 21.9286 14.9738V14.6128C21.7016 14.6338 21.3756 14.6328 21.0996 14.6248V14.6258Z" fill="white"/>
<path d="M20.6113 14.6069C20.6113 14.6069 20.7573 14.8829 20.7733 14.9969C20.7783 15.0289 20.8283 15.0249 20.9033 15.0089V14.6199C20.7333 14.6129 20.6113 14.6069 20.6113 14.6069Z" fill="white"/>
<path d="M16.71 16.9658C16.71 16.9718 16.71 16.9738 16.709 16.9828C16.711 16.9768 16.709 16.9718 16.71 16.9658Z" fill="white"/>
<path d="M20.2795 18.401L19.7285 17.95C19.5715 17.981 19.4185 18.009 19.3195 18.054C19.0355 18.185 18.5145 18.346 18.3365 18.151C18.1565 17.956 18.4225 17.468 19.1115 17.208C19.5625 17.038 19.8775 17.058 20.0775 17.164L20.0745 17.154L19.6365 16.802H18.8185C18.7835 16.833 18.5835 17.006 18.4055 17.094C18.2105 17.191 17.8645 17.217 17.8645 17.217C17.8645 17.217 17.8605 16.9 17.8645 16.717C17.8645 16.703 17.8605 16.686 17.8595 16.671C17.8175 16.668 17.7695 16.659 17.7185 16.645C17.5375 16.748 17.3595 16.848 17.2305 16.917C17.2315 16.922 17.2305 16.926 17.2325 16.93C17.2815 17.077 17.2955 17.255 17.6135 17.271C17.9315 17.287 17.9925 17.389 18.0405 17.665C18.0895 17.941 18.0935 18.083 18.0775 18.311C18.0605 18.539 18.0775 18.62 18.0775 18.62C18.0775 18.62 18.3695 18.563 18.5795 18.596C18.7905 18.628 19.2305 18.898 19.2305 18.898H18.1735L18.1615 18.947H20.1185L20.2795 18.401Z" fill="white"/>
<path d="M18.6199 16.7378L18.5099 16.5498C18.4939 16.5538 18.4769 16.5588 18.4609 16.5628C18.5049 16.6358 18.5569 16.6958 18.6199 16.7378Z" fill="white"/>
<path d="M20.8111 17.4959L21.3931 17.1709C21.1371 17.1419 20.9021 17.1129 20.7441 17.0239L20.8111 17.4959Z" fill="white"/>
<path d="M18.0488 15.3469L18.0968 15.5689C18.1178 15.5639 18.1298 15.5639 18.1498 15.5589L18.1978 15.2979C18.1498 15.3199 18.0998 15.3339 18.0488 15.3469Z" fill="white"/>
<path d="M20.3443 16.2768L20.7513 15.6748C20.6103 15.5938 20.5133 15.5338 20.5133 15.5338L20.3443 15.2728C20.3443 15.2728 20.3273 15.2608 20.3223 15.2578L20.2793 15.7148L20.3453 16.2778L20.3443 16.2768Z" fill="white"/>
<path d="M20.6207 16.5941C20.7787 16.3521 21.2677 16.1711 22.0217 16.3471C22.2457 16.3991 22.4407 16.4691 22.6047 16.5471C22.3637 16.4261 22.0657 16.2671 21.8187 16.1261C21.5837 16.0851 21.2907 15.9591 21.0387 15.8311L20.5137 16.4791L20.6207 16.5941Z" fill="white"/>
<path d="M17.3854 16.4779C17.3794 16.4869 17.3734 16.4929 17.3734 16.4929C17.3734 16.4929 17.3754 16.4779 17.3764 16.4709C17.3734 16.4679 17.3694 16.4659 17.3664 16.4629C17.3484 16.4979 17.3334 16.5269 17.3184 16.5559C17.3514 16.5389 17.3844 16.5219 17.4194 16.5039C17.4084 16.4949 17.3964 16.4869 17.3854 16.4779Z" fill="white"/>
<path d="M20.3436 18.0861L20.2506 17.7661C20.1746 17.8291 20.0616 17.8741 19.9316 17.9061L20.3426 18.0861H20.3436Z" fill="white"/>
<path d="M20.0726 15.1102C19.9466 15.0482 19.7806 14.9952 19.6016 14.9692L20.0616 15.4632C20.0616 15.4632 20.0706 15.2792 20.0726 15.1102Z" fill="white"/>
<path d="M16.8675 21.0459L16.5795 21.9869L16.5195 23.3839C16.6765 23.3679 16.8625 23.3539 17.0605 23.3399L17.1475 21.7259L16.8665 21.0449L16.8675 21.0459Z" fill="white"/>
<path d="M22.9997 16.7289C22.9367 16.7079 22.8047 16.6469 22.6417 16.5659C23.1217 16.8059 23.3187 17.1179 23.1617 17.2739C22.9507 17.4849 22.4087 17.4529 21.9157 17.2739C21.8677 17.2569 21.8137 17.2519 21.7627 17.2399L21.3297 17.5049C21.4417 17.4949 21.5657 17.4949 21.7077 17.5179C22.4057 17.6329 22.4317 18.2489 22.3177 18.3629C22.2037 18.4759 21.1307 18.3309 20.8877 18.0379C20.8277 17.9659 20.8047 17.8909 20.8157 17.8199L20.8047 17.8269V18.9479H22.8247L22.8127 18.8989H21.7557C21.7557 18.8989 22.1947 18.6299 22.4067 18.5969C22.6177 18.5649 22.9087 18.6209 22.9087 18.6209C22.9087 18.6209 22.9277 18.5399 22.9107 18.3119C22.8947 18.0839 22.8527 18.0079 22.9017 17.7309C22.9507 17.4549 23.0577 17.2869 23.3737 17.2709C23.6917 17.2549 23.6207 17.0919 23.6697 16.9459C23.6797 16.9169 23.6867 16.8899 23.6927 16.8629C23.6897 16.8609 23.6857 16.8629 23.6817 16.8609C23.5477 16.7869 23.2547 16.8119 22.9977 16.7269L22.9997 16.7289Z" fill="white"/>
<path d="M19.9462 16.671L20.3452 17.08L20.1882 16.61L19.9992 16.186C19.8282 16.394 19.3282 16.35 19.2052 16.363C19.1642 16.367 19.0702 16.393 18.9512 16.426C18.9802 16.505 19.0062 16.574 19.0062 16.574L19.9462 16.671Z" fill="white"/>
<path d="M20.5132 21.1421V19.1431H18.3672V22.0241C18.3672 22.1661 18.3852 22.3061 18.4122 22.4441C18.4202 22.4851 18.4322 22.5231 18.4422 22.5631C18.4662 22.6591 18.4932 22.7551 18.5272 22.8471C18.5332 22.8641 18.5362 22.8821 18.5422 22.8981L18.5462 22.8951L20.5132 21.1421ZM19.6432 20.2251C19.6892 20.2711 19.6842 20.3541 19.6332 20.4211L20.0592 20.8471L20.1202 20.7861C20.1492 20.7571 20.1962 20.7571 20.2232 20.7861L20.2332 20.7951C20.2622 20.8231 20.2622 20.8691 20.2332 20.8981L19.9982 21.1341C19.9692 21.1621 19.9222 21.1621 19.8942 21.1341L19.8842 21.1251C19.8552 21.0951 19.8552 21.0501 19.8842 21.0211L19.9732 20.9311L19.5382 20.4961C19.4962 20.5141 19.4592 20.5001 19.4252 20.4851L18.8502 21.2361C18.8172 21.2801 18.7542 21.2891 18.7102 21.2551C18.6662 21.2221 18.6582 21.1601 18.6912 21.1161L19.2682 20.3631L18.5282 19.6351C18.4762 19.5841 18.4902 19.4861 18.5592 19.4151C18.6292 19.3441 18.7282 19.3281 18.7802 19.3801L19.4882 20.0761L19.6132 19.9121C19.6262 19.8941 19.6462 19.8871 19.6652 19.8811L19.4522 19.7461L19.7092 19.3411L20.2492 19.6831L19.9922 20.0881L19.7922 19.9611C19.7952 19.9861 19.7892 20.0121 19.7732 20.0331L19.6332 20.2161L19.6442 20.2261L19.6432 20.2251Z" fill="white"/>
<path d="M20.8867 20.6259L21.1897 20.9419L21.7097 20.4429L21.8537 20.3049L22.4017 19.7799L22.0967 19.4629L21.5577 19.9809L21.4137 20.1199L20.8867 20.6259Z" fill="white"/>
<path d="M21.0244 20.2538L21.2984 19.9938L21.4444 19.8558L21.4874 19.8148L21.1574 19.4668L20.6934 19.9058L21.0244 20.2538Z" fill="white"/>
<path d="M19.8882 23.0432H21.1532L20.9812 22.2002L19.8782 22.2522L19.5332 22.7962L19.8712 23.0382L19.8782 23.0432H19.8882Z" fill="white"/>
<path d="M17.5443 19.1542L17.6103 18.9152C17.6103 18.9152 17.8793 19.3372 17.9283 19.3542C17.9773 19.3712 18.0913 19.2412 18.0913 19.2412L18.1223 19.1082L18.1603 18.9482L18.1723 18.8992H19.2293C19.2293 18.8992 18.7903 18.6302 18.5783 18.5972C18.3673 18.5652 18.0763 18.6212 18.0763 18.6212C18.0763 18.6212 18.0583 18.5402 18.0763 18.3122C18.0923 18.0842 18.0883 17.9422 18.0393 17.6662C17.9903 17.3902 17.9293 17.2882 17.6123 17.2722C17.2943 17.2562 17.2803 17.0782 17.2313 16.9312C17.2293 16.9262 17.2313 16.9222 17.2293 16.9182C17.1973 16.8042 17.2353 16.7202 17.3203 16.5562C17.3353 16.5272 17.3503 16.4982 17.3683 16.4632C17.3723 16.4552 17.3743 16.4512 17.3783 16.4432C17.3813 16.4382 17.3793 16.4322 17.3813 16.4272C17.3863 16.3442 17.3773 16.2222 17.2463 16.3302V16.0212C17.2463 16.0212 16.8393 16.0532 16.7023 16.0212C16.6053 15.9992 16.5493 15.9802 16.5173 15.9692C16.4543 16.1062 16.4673 16.2932 16.4673 16.4102C16.4673 16.6222 16.6303 16.8012 16.7033 16.8992C16.7143 16.9132 16.7083 16.9292 16.7083 16.9452L16.7113 16.9482C16.7113 16.9482 16.7113 16.9582 16.7113 16.9662C16.7103 16.9722 16.7113 16.9772 16.7103 16.9832C16.7053 17.0392 16.6863 17.1472 16.6153 17.1912C16.5173 17.2522 15.7863 17.6182 15.7253 17.6672C15.7073 17.6812 15.6793 17.6932 15.6543 17.7062C15.6593 17.8792 15.6863 18.0702 15.6863 18.0702L15.4653 18.3442C15.4653 18.3442 15.1763 18.2692 15.5413 17.8262C15.5663 17.7962 15.5593 17.7752 15.5593 17.7522C15.5503 17.7552 15.5293 17.7642 15.5293 17.7642C15.5293 17.7642 15.4693 17.6422 15.4083 17.6912C15.3473 17.7402 15.3103 17.8742 15.3103 17.8742C15.3103 17.8742 15.0663 17.9842 14.9193 18.0822C14.9003 18.0942 14.8803 18.1192 14.8613 18.1392C14.8793 18.1802 14.9013 18.2192 14.9073 18.2652C14.9393 18.5412 15.0853 18.8662 15.2163 18.9722C15.3463 19.0782 15.5723 19.3142 15.6863 19.1512C15.7993 18.9882 16.1283 18.6522 16.1283 18.6522L16.2233 19.1682C16.2983 19.1872 16.5733 19.2512 16.8703 19.2422C17.1533 19.2332 17.4343 19.1652 17.5483 19.1552L17.5443 19.1542Z" fill="#FBD44D"/>
<path d="M14.9166 17.7774C15.0876 17.7164 15.0746 17.6674 15.1736 17.6314C15.2706 17.5944 15.2586 17.4844 15.2586 17.4844C15.2586 17.4844 15.2666 17.4804 15.2676 17.4804C15.2316 17.4114 15.1716 17.3384 15.0676 17.3384C14.8726 17.3384 14.7746 17.4354 14.6606 17.6304C14.6266 17.6884 14.6366 17.7444 14.6606 17.8004C14.6776 17.7894 14.6956 17.7774 14.6956 17.7774C14.6956 17.7774 14.7456 17.8384 14.9166 17.7774Z" fill="#FBD44D"/>
<path d="M15.7316 24.0361C15.6686 24.3011 15.6156 24.5331 15.9286 24.6201C16.3346 24.7341 16.4106 24.3561 16.3006 24.0171L15.9936 24.2151L15.7316 24.0371V24.0361Z" fill="#FBD44D"/>
<path d="M17.1681 23.8383C17.0921 24.0003 16.9841 24.2443 17.3271 24.2073C17.7181 24.1653 17.9621 24.1683 18.2051 24.2073C18.4501 24.2483 18.5961 23.9823 18.3351 23.9933C18.1221 24.0023 17.9691 23.9163 17.8601 23.7603C17.8611 23.7933 17.8621 23.8253 17.8621 23.8253L17.1681 23.8383Z" fill="#FBD44D"/>
<path d="M17.8461 16.5719C17.8251 16.4739 17.7911 16.3789 17.7671 16.3179C17.6531 16.3799 17.5341 16.4439 17.4201 16.5039C17.3851 16.5219 17.3521 16.5389 17.3191 16.5559C17.2341 16.7199 17.1961 16.8039 17.2281 16.9179C17.3581 16.8489 17.5361 16.7479 17.7161 16.6459C17.7601 16.6209 17.8021 16.5959 17.8461 16.5719Z" fill="#892614"/>
<path d="M18.3343 16.2998C18.3743 16.2788 18.4063 16.2628 18.4273 16.2538C18.5973 16.1798 18.4143 15.9608 18.3053 16.0218C18.2913 16.0298 18.2683 16.0428 18.2383 16.0598C18.2633 16.0978 18.2943 16.1928 18.3343 16.2998Z" fill="#892614"/>
<path d="M15.3083 17.8738C15.3083 17.8738 15.3453 17.7398 15.4063 17.6908C15.4673 17.6408 15.5273 17.7638 15.5273 17.7638C15.5273 17.7638 15.5483 17.7548 15.5573 17.7518C15.5803 17.7428 15.6083 17.7288 15.6513 17.7058C15.6763 17.6928 15.7043 17.6808 15.7223 17.6668C15.7833 17.6178 16.5143 17.2518 16.6123 17.1908C16.6833 17.1468 16.7023 17.0388 16.7073 16.9828C16.7073 16.9738 16.7083 16.9718 16.7083 16.9658C16.7083 16.9578 16.7083 16.9478 16.7083 16.9478L16.7053 16.9448L16.5993 16.8618C16.5993 16.8618 16.3183 17.0318 16.0743 17.1418C15.8363 17.2488 15.2933 17.4688 15.2663 17.4798L15.2573 17.4838C15.2573 17.4838 15.2693 17.5938 15.1723 17.6308C15.0743 17.6678 15.0863 17.7158 14.9153 17.7768C14.7443 17.8378 14.6953 17.7768 14.6953 17.7768C14.6953 17.7768 14.6763 17.7888 14.6603 17.7998C14.5843 17.8508 14.3683 18.0028 14.2323 18.2038C14.1703 18.2958 14.2813 18.6668 14.4413 18.5938C14.5793 18.5308 14.7253 18.2708 14.8583 18.1378C14.8773 18.1188 14.8973 18.0938 14.9163 18.0808C15.0633 17.9828 15.3073 17.8728 15.3073 17.8728L15.3083 17.8738Z" fill="#892614"/>
<path d="M26.1568 17.9358L26.2938 17.9798C26.3268 17.9468 26.3458 17.9098 26.3068 17.8418C26.1938 17.6468 26.0718 17.5218 25.8768 17.5218C25.6818 17.5218 25.6738 17.5978 25.6738 17.5978C25.6738 17.5978 25.4258 17.6628 25.5228 17.8738C25.6198 18.0848 25.4938 18.3688 25.4938 18.3688L25.3008 18.2028C25.3008 18.2028 25.2708 17.9088 25.2258 17.6928C24.9068 17.5528 24.3528 17.2158 24.3528 17.2158L24.3168 17.0318C24.2758 16.9868 24.2538 16.9388 24.2838 16.8978C24.2858 16.8958 24.2878 16.8928 24.2898 16.8908L24.2838 16.8618L24.3038 16.8728C24.3828 16.7718 24.5198 16.6068 24.5198 16.4098C24.5198 16.2918 24.5328 16.1048 24.4698 15.9668C24.4378 15.9778 24.3808 15.9968 24.2798 16.0208C24.1418 16.0528 23.7318 16.0208 23.7318 16.0208V16.3298C23.6228 16.2438 23.5988 16.3048 23.5968 16.3758C23.6038 16.3978 23.5998 16.4208 23.6118 16.4428C23.6498 16.5198 23.6718 16.5798 23.6868 16.6338C23.7128 16.7258 23.7108 16.7958 23.6948 16.8638C23.6888 16.8908 23.6808 16.9168 23.6718 16.9468C23.6228 17.0928 23.6938 17.2558 23.3758 17.2718C23.0588 17.2878 22.9518 17.4558 22.9038 17.7318C22.8548 18.0078 22.8968 18.0848 22.9128 18.3128C22.9298 18.5408 22.9108 18.6218 22.9108 18.6218C22.9108 18.6218 22.6198 18.5648 22.4088 18.5978C22.1968 18.6298 21.7578 18.8998 21.7578 18.8998H22.8148L22.8268 18.9488L22.8968 19.2418L22.9018 19.2468C22.9108 19.2568 23.0118 19.3708 23.0598 19.3548C23.1088 19.3378 23.3768 18.9158 23.3768 18.9158L23.4428 19.1548C23.5588 19.1658 23.8398 19.2338 24.1198 19.2418C24.4168 19.2508 24.6938 19.1858 24.7668 19.1678L24.8618 18.6528C24.8618 18.6528 25.1228 18.9148 25.2368 19.0778C25.3498 19.2398 25.6158 19.2578 25.7448 19.1518C25.8758 19.0468 26.0508 18.5428 26.0828 18.2668C26.0888 18.2128 26.1118 18.1788 26.1338 18.1458C26.0748 18.1178 26.0258 18.0958 26.0258 18.0958L26.1598 17.9378L26.1568 17.9358Z" fill="#892614"/>
<path d="M24.992 24.2136L24.687 24.0166C24.576 24.3556 24.651 24.7336 25.057 24.6196C25.291 24.5556 25.318 24.4086 25.292 24.2276C25.283 24.1666 25.27 24.1026 25.254 24.0356L24.992 24.2136Z" fill="#892614"/>
<path d="M22.6492 23.9928C22.3892 23.9818 22.5352 24.2478 22.7792 24.2068C23.0242 24.1678 23.2672 24.1648 23.6572 24.2068C24.0002 24.2438 23.8922 23.9998 23.8172 23.8378L23.1222 23.8248C23.1222 23.8248 23.1232 23.7928 23.1242 23.7588C23.0162 23.9148 22.8622 24.0018 22.6492 23.9928Z" fill="#892614"/>
<path d="M17.8145 25.2389C17.2285 25.0099 16.8215 25.2059 17.8145 25.6299C18.8065 26.0509 18.1945 25.3869 17.8145 25.2389Z" fill="#D3D3D3"/>
<path d="M20.6914 26.263C20.2844 26.263 19.5614 26.138 19.1304 26.02C18.7764 25.921 18.5944 26.181 18.9514 26.331C19.3084 26.479 20.3494 26.588 20.8534 26.637C21.3574 26.686 21.0974 26.262 20.6914 26.262V26.263Z" fill="#D3D3D3"/>
<path d="M23.4387 25.5957C23.7147 25.5627 23.8937 25.4837 23.9267 25.3357C23.9587 25.1897 23.6007 25.1567 23.3087 25.2217C23.0167 25.2887 22.1537 25.8247 21.6997 26.0667C21.6997 26.0667 21.1317 26.5407 21.6997 26.4577C21.7927 26.4447 21.8947 26.4097 22.0007 26.3667C22.0897 26.3317 22.1797 26.2887 22.2727 26.2407C22.7487 25.9907 23.2457 25.6197 23.4397 25.5967L23.4387 25.5957Z" fill="#D3D3D3"/>
<path d="M19.9912 20.0859L20.2482 19.6809L19.7082 19.3389L19.4512 19.7439L19.6652 19.8789L19.7902 19.9589L19.9912 20.0859Z" fill="#D3D3D3"/>
<path d="M15.7311 24.0362L15.9931 24.2142L16.3001 24.0162L16.4971 23.8892L16.5181 23.3852L16.5781 21.9882L16.8661 21.0472L17.1471 21.7282L17.0601 23.3422L17.0331 23.8422L17.1671 23.8402L17.8621 23.8272C17.8621 23.8272 17.8611 23.7952 17.8601 23.7622C17.8571 23.6802 17.8521 23.5132 17.8441 23.2982C17.8231 22.6972 17.7911 21.7732 17.7801 21.5682C17.7641 21.2592 17.6491 20.3162 17.6091 20.0242C17.5851 19.8442 17.5461 19.6422 17.5191 19.5072C17.4051 19.4922 17.1801 19.4732 16.9001 19.5192C16.4991 19.5842 16.3361 19.5682 16.1891 19.5192C16.0901 19.4862 16.1251 19.3382 16.1581 19.2432H16.1551C15.9771 19.6322 15.8141 20.4772 15.8461 20.9322C15.8781 21.3872 15.9681 21.8582 15.8421 22.2802C15.7581 22.5632 15.6521 23.1872 15.5891 23.5752C15.5581 23.7682 15.5371 23.9072 15.5371 23.9072L15.7311 24.0392V24.0362Z" fill="#D3D3D3"/>
<path d="M17.8572 16.6709C17.8582 16.6859 17.8632 16.7029 17.8622 16.7169C17.8582 16.8999 17.8622 17.2169 17.8622 17.2169C17.8622 17.2169 18.2082 17.1919 18.4032 17.0939C18.5812 17.0049 18.7812 16.8319 18.8162 16.8019C18.8192 16.7989 18.8302 16.7899 18.8302 16.7899C18.7482 16.8029 18.6802 16.7789 18.6192 16.7379C18.5562 16.6959 18.5042 16.6349 18.4602 16.5629C18.4092 16.4789 18.3682 16.3859 18.3352 16.2999C18.2942 16.1929 18.2642 16.0979 18.2392 16.0599C18.1582 15.9399 17.8312 16.1689 17.7422 16.2549C17.7422 16.2549 17.7532 16.2819 17.7682 16.3189C17.7922 16.3799 17.8262 16.4749 17.8472 16.5729C17.8542 16.6069 17.8562 16.6399 17.8582 16.6719L17.8572 16.6709Z" fill="#D3D3D3"/>
<path d="M24.796 19.5172C24.65 19.5662 24.487 19.5822 24.086 19.5172C23.806 19.4712 23.582 19.4902 23.467 19.5052C23.44 19.6402 23.401 19.8422 23.376 20.0222C23.336 20.3142 23.222 21.2582 23.205 21.5662C23.192 21.7942 23.154 22.9192 23.134 23.4902C23.13 23.6152 23.127 23.7032 23.125 23.7602C23.124 23.7942 23.123 23.8262 23.123 23.8262L23.818 23.8392L23.952 23.8412L23.944 23.7022L23.837 21.7282L24.118 21.0472L24.406 21.9882L24.486 23.8742V23.8902L24.686 24.0182L24.991 24.2152L25.253 24.0372L25.446 23.9062C25.446 23.9062 25.268 22.7032 25.142 22.2802C25.015 21.8582 25.105 21.3862 25.137 20.9322C25.169 20.4782 25.007 19.6322 24.828 19.2432H24.826C24.859 19.3382 24.895 19.4862 24.795 19.5192L24.796 19.5172Z" fill="#D3D3D3"/>
<path d="M16.1881 19.517C16.3351 19.566 16.4981 19.582 16.8991 19.517C17.1791 19.471 17.4041 19.49 17.5181 19.505C17.5671 19.511 17.6021 19.517 17.6021 19.517C17.6021 19.517 17.6191 19.241 17.6021 19.159C17.6001 19.15 17.5751 19.151 17.5451 19.154C17.4311 19.164 17.1501 19.233 16.8671 19.241C16.5711 19.25 16.2951 19.186 16.2201 19.167C16.2081 19.164 16.1881 19.159 16.1881 19.159C16.1881 19.159 16.1731 19.196 16.1571 19.241C16.1241 19.336 16.0891 19.484 16.1881 19.517Z" fill="#9B5F00"/>
<path d="M23.4397 19.154C23.4067 19.151 23.3817 19.15 23.3797 19.159C23.3647 19.241 23.3797 19.517 23.3797 19.517C23.3797 19.517 23.4147 19.511 23.4647 19.505C23.5797 19.49 23.8037 19.472 24.0837 19.517C24.4847 19.582 24.6477 19.566 24.7937 19.517C24.8937 19.484 24.8577 19.336 24.8247 19.241C24.8087 19.195 24.7937 19.159 24.7937 19.159C24.7937 19.159 24.7737 19.164 24.7627 19.167C24.6897 19.186 24.4137 19.25 24.1157 19.241C23.8357 19.232 23.5567 19.164 23.4397 19.154Z" fill="#9B5F00"/>
<path d="M20.118 18.9482H18.161L18.123 19.1082V22.0202C18.123 22.4832 18.27 22.9062 18.463 23.2712C18.739 23.7902 19.112 24.1872 19.317 24.3772C19.667 24.7002 20.512 25.1742 20.512 25.1742C20.512 25.1742 21.357 24.7012 21.706 24.3772C21.899 24.1982 22.24 23.8352 22.51 23.3622C22.728 22.9782 22.901 22.5222 22.901 22.0202V19.2462L22.896 19.2412L22.826 18.9482H20.118ZM22.658 19.1432V22.0242C22.658 22.0422 22.653 22.0582 22.652 22.0762C22.649 22.1982 22.636 22.3172 22.614 22.4352C22.604 22.4872 22.589 22.5372 22.575 22.5882C22.553 22.6722 22.53 22.7552 22.5 22.8372C22.493 22.8572 22.489 22.8792 22.482 22.8982L22.478 22.8942C22.411 23.0682 22.333 23.2352 22.245 23.3862H22.248C22.239 23.4012 22.23 23.4102 22.221 23.4252C22.133 23.5732 22.04 23.7052 21.95 23.8232C21.939 23.8382 21.927 23.8592 21.916 23.8732C21.905 23.8862 21.896 23.8962 21.886 23.9092C21.88 23.9162 21.875 23.9212 21.87 23.9282C21.762 24.0592 21.661 24.1692 21.586 24.2392C21.574 24.2502 21.555 24.2642 21.541 24.2752C21.5 24.3112 21.454 24.3482 21.404 24.3862C21.393 24.3942 21.386 24.4012 21.375 24.4092C21.36 24.4202 21.341 24.4312 21.326 24.4422C21.254 24.4942 21.179 24.5452 21.103 24.5952C21.078 24.6122 21.055 24.6262 21.03 24.6412C20.97 24.6802 20.912 24.7162 20.857 24.7502C20.827 24.7692 20.801 24.7852 20.773 24.8022C20.739 24.8232 20.71 24.8392 20.681 24.8562C20.586 24.9122 20.514 24.9532 20.514 24.9532C20.514 24.9532 20.034 24.6842 19.68 24.4272C19.671 24.4212 19.662 24.4152 19.653 24.4092H19.655C19.575 24.3502 19.499 24.2922 19.442 24.2382C19.358 24.1612 19.243 24.0362 19.119 23.8802C19.117 23.8772 19.115 23.8752 19.112 23.8722C19.11 23.8692 19.107 23.8642 19.105 23.8612C18.998 23.7252 18.886 23.5672 18.782 23.3872C18.782 23.3872 18.781 23.3862 18.78 23.3852C18.692 23.2342 18.615 23.0672 18.547 22.8932L18.543 22.8962C18.537 22.8802 18.534 22.8612 18.528 22.8452C18.494 22.7532 18.467 22.6582 18.443 22.5612C18.433 22.5212 18.421 22.4822 18.413 22.4422C18.386 22.3052 18.368 22.1652 18.368 22.0222V19.1412H22.659L22.658 19.1432Z" fill="black"/>
<path d="M17.2462 16.0211V16.3301C17.3772 16.2221 17.3862 16.3441 17.3812 16.4271C17.3802 16.4491 17.3792 16.4591 17.3782 16.4711C17.3772 16.4781 17.3752 16.4931 17.3752 16.4931C17.3752 16.4931 17.3802 16.4871 17.3872 16.4781C17.4112 16.4461 17.4672 16.3491 17.4792 16.1181C17.4832 16.0451 17.4762 15.9721 17.4582 15.9051C17.4042 15.7041 17.2492 15.5491 16.9812 15.5491H16.8962C16.8962 15.5491 16.5942 15.5341 16.4152 15.7441C16.2362 15.9551 16.4242 16.1751 16.4242 16.1751L16.4812 15.9561C16.4812 15.9561 16.5022 15.9631 16.5162 15.9681C16.5482 15.9791 16.6042 15.9981 16.7012 16.0201C16.8392 16.0521 17.2452 16.0201 17.2452 16.0201L17.2462 16.0211Z" fill="black"/>
<path d="M23.5191 16.0051C23.5151 16.0431 23.5061 16.0801 23.5081 16.1191C23.5241 16.4111 23.6081 16.4941 23.6081 16.4941C23.6081 16.4941 23.5971 16.4331 23.5981 16.3771C23.6001 16.3061 23.6241 16.2441 23.7331 16.3311V16.0221C23.7331 16.0221 24.1431 16.0541 24.2811 16.0221C24.3821 15.9991 24.4391 15.9801 24.4711 15.9681C24.4831 15.9641 24.5031 15.9571 24.5031 15.9571L24.5601 16.1761C24.5601 16.1761 24.7471 15.9571 24.5691 15.7451C24.3901 15.5341 24.0891 15.5501 24.0891 15.5501H24.0051C23.9611 15.5501 23.9301 15.5651 23.8921 15.5731C23.6631 15.6211 23.5421 15.7941 23.5181 16.0041L23.5191 16.0051Z" fill="black"/>
<path d="M18.1984 15.2989L18.1504 15.5599C18.2154 15.5459 18.2784 15.5329 18.3234 15.5279L18.3874 15.1909C18.3294 15.2319 18.2684 15.2669 18.1984 15.2989Z" fill="#B34B00"/>
<path d="M21.9277 14.9749C21.9837 14.9849 22.0297 14.9809 22.0887 14.9969C22.0887 14.9969 22.1187 14.9469 22.1717 14.8819V14.6079H21.9837C21.9657 14.6099 21.9477 14.6129 21.9277 14.6139V14.9749Z" fill="#B34B00"/>
<path d="M18.8308 16.7899C18.8308 16.7899 18.8208 16.7989 18.8168 16.8019H19.6348L20.0728 17.1539L20.0758 17.1639C20.2628 17.2629 20.3488 17.4339 20.3438 17.5989C20.3418 17.6699 20.3038 17.7219 20.2498 17.7659L20.3428 18.0859L19.9318 17.9059C19.8648 17.9229 19.7958 17.9369 19.7268 17.9499L20.2778 18.4009L20.1178 18.9469H20.8048V17.8259L20.8158 17.8189C20.8388 17.6619 21.0298 17.5319 21.3298 17.5039L21.7628 17.2389C21.6408 17.2089 21.5198 17.1839 21.3938 17.1699L20.8118 17.4949L20.7448 17.0229C20.6798 16.9859 20.6158 16.9489 20.5858 16.8819C20.5428 16.7869 20.5598 16.6859 20.6208 16.5929L20.5128 16.4779L21.0378 15.8299C20.9298 15.7749 20.8338 15.7229 20.7508 15.6749L20.3438 16.2769L20.2778 15.7139L20.3208 15.2569C20.2948 15.2369 20.2118 15.1789 20.0718 15.1099C20.0698 15.2789 20.0608 15.4629 20.0608 15.4629L19.6008 14.9689C19.5578 14.9629 19.5198 14.9489 19.4748 14.9469C19.3768 14.9439 19.2908 14.9429 19.2068 14.9419H19.2048L19.7928 15.4639L19.6608 15.5629C19.8788 15.6459 20.0288 15.7739 20.0568 15.9729C20.0698 16.0669 20.0428 16.1329 19.9988 16.1869L20.1878 16.6109L20.3448 17.0809L19.9458 16.6719L19.0058 16.5749C19.0058 16.5749 18.9808 16.5069 18.9508 16.4269C18.8238 16.4629 18.6678 16.5079 18.5098 16.5509L18.6198 16.7389C18.6808 16.7789 18.7488 16.8029 18.8308 16.7899Z" fill="#B34B00"/>
<path d="M20.9043 14.6201V15.0091C20.9543 14.9991 21.0213 14.9841 21.0993 14.9691V14.6271C21.0283 14.6251 20.9643 14.6231 20.9043 14.6211V14.6201Z" fill="#B34B00"/>
<path d="M17.7656 15.3941L17.7676 15.3901L17.7656 15.3911V15.3941Z" fill="#B34B00"/>
<path d="M18.0482 15.3467C18.0232 15.3527 18.0012 15.3677 17.9752 15.3707C17.9252 15.3777 17.8762 15.3807 17.8262 15.3847L17.9622 15.6177C18.0072 15.6027 18.0542 15.5797 18.0952 15.5687L18.0482 15.3467Z" fill="#B34B00"/>
<path d="M18.78 19.3778C18.728 19.3258 18.629 19.3418 18.559 19.4128C18.49 19.4838 18.475 19.5818 18.528 19.6328L19.268 20.3608L19.489 20.0728L18.781 19.3768L18.78 19.3778Z" fill="#B34B00"/>
<path d="M19.5388 20.4958L19.9738 20.9308L19.8848 21.0208C19.8558 21.0498 19.8558 21.0958 19.8848 21.1248L19.8948 21.1338C19.9228 21.1618 19.9698 21.1618 19.9988 21.1338L20.2338 20.8978C20.2638 20.8688 20.2638 20.8228 20.2338 20.7948L20.2238 20.7858C20.1958 20.7568 20.1488 20.7568 20.1208 20.7858L20.0598 20.8468L19.6338 20.4208C19.6838 20.3528 19.6898 20.2708 19.6438 20.2248L19.6328 20.2148L19.4258 20.4848C19.4598 20.4998 19.4968 20.5138 19.5388 20.4958Z" fill="#B34B00"/>
<path d="M21.2423 23.0749C21.2423 23.0749 21.1023 23.1679 20.5393 23.1539C20.3223 23.1489 20.0923 23.1009 19.8903 23.0429H19.8803L19.8733 23.0379C19.5603 22.9479 19.3203 22.8379 19.3203 22.8379L19.7113 23.3859H21.0823L21.2423 23.0749Z" fill="#B34B00"/>
<path d="M23.2059 16.131C23.1409 16.103 22.9769 16.019 22.7799 15.921C22.3059 15.683 21.6219 15.345 21.5269 15.388C21.5269 15.388 21.3039 15.695 21.3399 15.805C21.3539 15.846 21.5579 15.975 21.8199 16.125C22.0679 16.267 22.3649 16.426 22.6059 16.546C22.6179 16.552 22.6319 16.559 22.6439 16.566C22.8069 16.647 22.9389 16.708 23.0019 16.729C23.2589 16.814 23.5519 16.789 23.6859 16.863C23.6889 16.865 23.6929 16.863 23.6969 16.865C23.7129 16.797 23.7149 16.727 23.6889 16.635C23.5219 16.495 23.3939 16.214 23.2069 16.132L23.2059 16.131Z" fill="#B34B00"/>
<path d="M26.2944 17.98L26.1574 17.936L26.0234 18.094C26.0234 18.094 26.0724 18.115 26.1314 18.144C26.2404 18.196 26.3934 18.279 26.4014 18.351C26.4144 18.46 26.5114 18.594 26.5964 18.604C26.6824 18.613 26.8644 18.07 26.7424 18.003C26.6214 17.937 26.5724 18.071 26.5724 18.071L26.2944 17.981V17.98Z" fill="#B34B00"/>
<path d="M24.2912 16.8918L24.3182 17.0328L24.3542 17.2168C24.3542 17.2168 24.9082 17.5538 25.2272 17.6938C25.3552 17.7498 25.4492 17.7768 25.4472 17.7328C25.4432 17.5788 25.6212 17.5798 25.6212 17.5798L24.3052 16.8728L24.2852 16.8618L24.2912 16.8918Z" fill="#B34B00"/>
</svg>
