<svg width="41" height="41" viewBox="0 0 41 41" fill="none" xmlns="http://www.w3.org/2000/svg">
<path d="M29.9053 32.6221H9.69531V32.6421H29.9053V32.6221Z" fill="#E3E7EA"/>
<path d="M34.5 8.5H6.5C4.29086 8.5 2.5 10.2909 2.5 12.5V28.5C2.5 30.7091 4.29086 32.5 6.5 32.5H34.5C36.7091 32.5 38.5 30.7091 38.5 28.5V12.5C38.5 10.2909 36.7091 8.5 34.5 8.5Z" fill="#E3E7EA"/>
<path d="M2.49905 12.495V28.504C2.49905 30.711 4.28805 32.5 6.49405 32.5H10.393V8.52002H6.29405C4.18205 8.62602 2.49805 10.357 2.49805 12.495H2.49905Z" fill="#FF0010"/>
<path d="M30.6045 32.5H34.5035C36.7105 32.5 38.4985 30.711 38.4985 28.504V12.495C38.4985 10.357 36.8145 8.62602 34.7025 8.52002H30.6035L30.6045 32.5Z" fill="#FF0010"/>
<path d="M24.4379 24.2059L28.0789 20.8839L27.3249 20.4869C26.9929 20.3539 27.0859 20.1439 27.2049 19.6399L27.7599 17.3719L25.6449 17.8709C25.4379 17.9059 25.2999 17.7589 25.2699 17.6189L24.9979 16.5509L23.3259 18.6539C23.0879 18.9899 22.6059 18.9899 22.7559 18.2119L23.4699 13.9519L22.5119 14.5089C22.2429 14.6779 21.9739 14.7059 21.8239 14.4039L20.4999 11.6309L19.1759 14.4039C19.0259 14.7059 18.7569 14.6769 18.4869 14.5089L17.5289 13.9519L18.2429 18.2119C18.3929 18.9899 17.9109 18.9899 17.6729 18.6539L15.9999 16.5509L15.7279 17.6189C15.6969 17.7589 15.5589 17.9069 15.3529 17.8709L13.2379 17.3719L13.7939 19.6399C13.9129 20.1449 14.0049 20.3539 13.6739 20.4869L12.9199 20.8839L16.5609 24.2059C16.7049 24.3319 16.7779 24.5579 16.7259 24.7619L16.4069 25.9369C17.6599 25.7749 18.7849 25.6289 20.0379 25.4679C20.1489 25.4659 20.3339 25.5729 20.3329 25.7169L20.1669 30.0199H20.7759L20.6799 25.7269C20.6799 25.5829 20.8469 25.4669 20.9579 25.4689C22.2109 25.6309 23.3349 25.7759 24.5889 25.9379L24.2699 24.7629C24.2179 24.5589 24.2909 24.3329 24.4349 24.2069L24.4379 24.2059Z" fill="#FF0010"/>
</svg>
