<svg width="41" height="41" viewBox="0 0 41 41" fill="none" xmlns="http://www.w3.org/2000/svg">
<path d="M34.5 8.5H6.5C4.29086 8.5 2.5 10.2909 2.5 12.5V28.5C2.5 30.7091 4.29086 32.5 6.5 32.5H34.5C36.7091 32.5 38.5 30.7091 38.5 28.5V12.5C38.5 10.2909 36.7091 8.5 34.5 8.5Z" fill="#008316"/>
<path d="M32.3269 22.0802L32.4889 22.6322H33.0459L32.6049 22.9722L32.7669 23.5092L32.3269 23.1712L31.8869 23.4932L32.0489 22.9712L31.6089 22.6312H32.1519L32.3279 22.0792L32.3269 22.0802ZM30.8759 15.9132L30.2319 16.5072L30.2959 15.6342L29.4289 15.5012L30.1519 15.0062L29.7159 14.2462L30.5539 14.5022L30.8749 13.6882L31.1959 14.5022L32.0339 14.2462L31.5979 15.0062L32.3199 15.5002L31.4539 15.6332L31.5179 16.5062L30.8739 15.9122L30.8759 15.9132ZM27.4399 20.9502L26.7959 21.5452L26.8609 20.6702L25.9929 20.5382L26.7159 20.0432L26.2799 19.2832L27.1179 19.5402L27.4389 18.7252L27.7599 19.5402L28.5989 19.2832L28.1629 20.0432L28.8849 20.5382L28.0189 20.6702L28.0839 21.5452L27.4399 20.9502ZM34.1819 20.5342L33.5389 21.1282L33.6029 20.2542L32.7349 20.1222L33.4589 19.6272L33.0229 18.8672L33.8599 19.1242L34.1809 18.3092L34.5019 19.1242L35.3409 18.8672L34.9049 19.6272L35.6269 20.1222L34.7609 20.2542L34.8249 21.1282L34.1799 20.5342H34.1819ZM30.8189 27.8742L30.1759 28.4682L30.2389 27.5942L29.3719 27.4622L30.0959 26.9662L29.6599 26.2062L30.4989 26.4622L30.8189 25.6472L31.1399 26.4622L31.9789 26.2062L31.5429 26.9662L32.2649 27.4612L31.3989 27.5942L31.4619 28.4682L30.8189 27.8742ZM22.6899 24.2412C20.6269 24.2412 18.9539 22.5672 18.9539 20.5042C18.9539 18.4412 20.6279 16.7682 22.6899 16.7682C23.4749 16.7682 24.2009 17.0132 24.8029 17.4272C23.9449 16.4422 22.6839 15.8162 21.2719 15.8162C18.6819 15.8162 16.5839 17.9152 16.5839 20.5052C16.5839 23.0952 18.6819 25.1942 21.2719 25.1942C22.6819 25.1942 23.9449 24.5682 24.8049 23.5822C24.2039 23.9962 23.4749 24.2412 22.6899 24.2412ZM14.7329 15.8162C14.7329 18.4792 12.5749 20.6382 9.91089 20.6382C7.24689 20.6382 5.08789 18.4792 5.08789 15.8162C5.08789 13.1532 7.24689 10.9932 9.90989 10.9932C12.5729 10.9932 14.7329 13.1522 14.7329 15.8162Z" fill="#FFDF0B"/>
<path d="M10.1522 19.6084H9.07617C9.07617 19.6084 9.42917 19.2744 9.61417 18.9734C9.79817 18.6704 10.5362 17.0654 10.4532 15.5994C10.3712 14.1344 10.6222 14.3794 10.7072 15.2534C10.7912 16.1274 10.7072 17.9204 10.5562 18.4414C10.4042 18.9624 10.2372 19.2944 10.4552 19.3604C10.6732 19.4284 10.7402 19.6074 10.7402 19.6074L10.1522 19.6084Z" fill="#802109"/>
<path d="M8.28716 12.8932H8.94216L10.2862 14.1712L9.83216 13.3472L10.2462 13.0902L10.3702 12.0712L11.4962 11.9702L11.3452 12.5422L11.9332 12.8442L11.2782 13.8012L12.7062 13.6682L12.4372 14.5072H13.2102L13.5302 15.5662L11.6482 15.4152L12.5882 16.1202V17.1962L10.6052 15.3312L10.4372 16.1202L10.3192 16.9102L9.88416 17.0402L9.78116 16.4392L9.32616 17.1952H8.72316L9.31016 15.0632L6.28516 15.6322L7.09216 14.6582L8.68816 14.3382L7.27716 13.6002L9.36016 13.9702L7.21016 12.8932H8.28716Z" fill="#0A802A"/>
</svg>
