<svg width="41" height="41" viewBox="0 0 41 41" fill="none" xmlns="http://www.w3.org/2000/svg">
<path d="M34.5 8.5H6.5C4.29086 8.5 2.5 10.2909 2.5 12.5V28.5C2.5 30.7091 4.29086 32.5 6.5 32.5H34.5C36.7091 32.5 38.5 30.7091 38.5 28.5V12.5C38.5 10.2909 36.7091 8.5 34.5 8.5Z" fill="#4772BB"/>
<path d="M4.91772 32.1742L38.4997 14.8162V13.6162L3.88672 31.5082C4.19572 31.7772 4.53672 32.0092 4.91772 32.1742Z" fill="#F3D400"/>
<path d="M2.5 26.2242V27.4242L37.144 9.51719C36.838 9.24619 36.498 9.01419 36.12 8.84619L2.5 26.2242Z" fill="#F3D400"/>
<path d="M2.5 28.5041C2.5 29.7081 3.044 30.7751 3.887 31.5081L38.5 13.6171V12.4961C38.5 11.3061 37.97 10.2501 37.144 9.51807L2.5 27.4241V28.5041Z" fill="#CF0028"/>
<path d="M8.57873 11.0459L9.49973 13.9149H12.4797L10.0687 15.6889L10.9897 18.5579L8.57873 16.7849L6.16773 18.5579L7.08873 15.6889L4.67773 13.9149H7.65773L8.57873 11.0459Z" fill="#F3D400"/>
</svg>
