<svg width="41" height="41" viewBox="0 0 41 41" fill="none" xmlns="http://www.w3.org/2000/svg">
<path d="M34.5 8.5H6.5C4.29086 8.5 2.5 10.2909 2.5 12.5V28.5C2.5 30.7091 4.29086 32.5 6.5 32.5H34.5C36.7091 32.5 38.5 30.7091 38.5 28.5V12.5C38.5 10.2909 36.7091 8.5 34.5 8.5Z" fill="#E5E8EB"/>
<path d="M2.5 12.884V14.499H38.5V12.884C38.5 10.463 36.823 8.49902 34.755 8.49902H6.245C4.177 8.49902 2.5 10.462 2.5 12.884Z" fill="#2A357D"/>
<path d="M38.5 20.5H2.5V26.5H38.5V20.5Z" fill="#489844"/>
<path d="M38.5 28.115V26.5H2.5V28.115C2.5 30.537 4.177 32.5 6.245 32.5H34.755C36.823 32.5 38.5 30.537 38.5 28.115Z" fill="#F4CC29"/>
<path d="M23.5747 8.5H17.4277V32.5H23.5747V8.5Z" fill="#C01F3F"/>
<path d="M8.65734 9.05811L9.27934 10.9241H11.2893L9.66334 12.0771L10.2833 13.9421L8.65734 12.7891L7.03234 13.9421L7.65334 12.0771L6.02734 10.9241H8.03734L8.65734 9.05811Z" fill="#F4CC29"/>
</svg>
