<svg width="41" height="41" viewBox="0 0 41 41" fill="none" xmlns="http://www.w3.org/2000/svg">
<path d="M34.5 8.5H6.5C4.29086 8.5 2.5 10.2909 2.5 12.5V28.5C2.5 30.7091 4.29086 32.5 6.5 32.5H34.5C36.7091 32.5 38.5 30.7091 38.5 28.5V12.5C38.5 10.2909 36.7091 8.5 34.5 8.5Z" fill="#FADD00"/>
<path d="M2.5 12.496V28.505C2.5 28.969 2.595 29.407 2.74 29.821L27.455 8.5H6.495C4.288 8.5 2.5 10.289 2.5 12.496Z" fill="#00973A"/>
<path d="M38.4999 28.5042V12.4962C38.4999 12.0322 38.4049 11.5942 38.2599 11.1802L13.5449 32.5012H34.5039C36.7109 32.5012 38.4989 30.7122 38.4989 28.5052L38.4999 28.5042Z" fill="#DC0024"/>
</svg>
