<svg width="41" height="41" viewBox="0 0 41 41" fill="none" xmlns="http://www.w3.org/2000/svg">
<path d="M34.5 8.5H6.5C4.29086 8.5 2.5 10.2909 2.5 12.5V28.5C2.5 30.7091 4.29086 32.5 6.5 32.5H34.5C36.7091 32.5 38.5 30.7091 38.5 28.5V12.5C38.5 10.2909 36.7091 8.5 34.5 8.5Z" fill="#2E2C7B"/>
<path d="M29.4025 14.3651L29.0805 15.3401L29.9205 14.7371L30.7605 15.3401L30.4395 14.3651L31.2795 13.7621H30.2415L29.9205 12.7871L29.5995 13.7621H28.5625L29.4025 14.3651Z" fill="#E3E7EA"/>
<path d="M32.3324 15.2439L32.8504 16.1319L32.9594 15.1119L33.9744 14.8989L33.0264 14.4819L33.1344 13.4619L32.4404 14.2239L31.4924 13.8069L32.0114 14.6949L31.3164 15.4569L32.3324 15.2439Z" fill="#E3E7EA"/>
<path d="M34.2605 16.0449L33.3125 16.4619L34.3275 16.6759L34.4355 17.6959L34.9555 16.8079L35.9705 17.0199L35.2755 16.2589L35.7945 15.3709L34.8465 15.7879L34.1525 15.0259L34.2605 16.0449Z" fill="#E3E7EA"/>
<path d="M35.7577 18.183H34.7207L35.5607 18.785L35.2397 19.761L36.0787 19.158L36.9187 19.761L36.5977 18.785L37.4377 18.183H36.3997L36.0787 17.208L35.7577 18.183Z" fill="#E3E7EA"/>
<path d="M36.139 21.7571L36.658 22.6451L36.766 21.6251L37.782 21.4121L36.833 20.9951L36.942 19.9751L36.248 20.7371L35.299 20.3201L35.818 21.2081L35.123 21.9701L36.139 21.7571Z" fill="#E3E7EA"/>
<path d="M36.0704 23.7379L36.5894 22.8499L35.6414 23.2679L34.9474 22.5049L35.0554 23.5249L34.1074 23.9419L35.1224 24.1549L35.2314 25.1749L35.7494 24.2869L36.7644 24.4999L36.0704 23.7379Z" fill="#E3E7EA"/>
<path d="M34.0462 25.3354L33.7262 24.3604L33.4052 25.3354H32.3672L33.2062 25.9384L32.8862 26.9134L33.7262 26.3114L34.5652 26.9134L34.2452 25.9384L35.0852 25.3354H34.0462Z" fill="#E3E7EA"/>
<path d="M31.7403 26.584L31.8483 25.564L31.1533 26.326L30.2053 25.909L30.7243 26.798L30.0293 27.559L31.0453 27.346L31.5643 28.234L31.6733 27.214L32.6883 27.001L31.7403 26.584Z" fill="#E3E7EA"/>
<path d="M29.1153 26.798L29.6353 25.909L28.6863 26.326L27.9923 25.564L28.1003 26.584L27.1523 27.001L28.1673 27.214L28.2763 28.234L28.7953 27.346L29.8103 27.559L29.1153 26.798Z" fill="#E3E7EA"/>
<path d="M26.6309 25.9384L27.4709 25.3354H26.4339L26.1129 24.3604L25.7919 25.3354H24.7539L25.5939 25.9384L25.2729 26.9134L26.1129 26.3114L26.9519 26.9134L26.6309 25.9384Z" fill="#E3E7EA"/>
<path d="M24.7172 24.1549L25.7332 23.9419L24.7852 23.5249L24.8932 22.5049L24.1992 23.2679L23.2512 22.8499L23.7692 23.7379L23.0742 24.4999L24.0902 24.2869L24.6092 25.1749L24.7172 24.1549Z" fill="#E3E7EA"/>
<path d="M23.1826 22.6451L23.7006 21.7571L24.7166 21.9701L24.0216 21.2081L24.5406 20.3201L23.5926 20.7371L22.8986 19.9751L23.0066 20.9951L22.0586 21.4121L23.0736 21.6251L23.1826 22.6451Z" fill="#E3E7EA"/>
<path d="M23.2413 18.785L22.9203 19.761L23.7603 19.158L24.6003 19.761L24.2793 18.785L25.1193 18.183H24.0813L23.7603 17.208L23.4393 18.183H22.4023L23.2413 18.785Z" fill="#E3E7EA"/>
<path d="M24.8851 16.8079L25.4031 17.6959L25.5121 16.6759L26.5281 16.4619L25.5801 16.0449L25.6881 15.0259L24.9931 15.7879L24.0461 15.3709L24.5641 16.2589L23.8691 17.0199L24.8851 16.8079Z" fill="#E3E7EA"/>
<path d="M26.8802 15.1119L26.9882 16.1319L27.5072 15.2439L28.5222 15.4569L27.8282 14.6949L28.3472 13.8069L27.3992 14.2239L26.7042 13.4619L26.8132 14.4819L25.8652 14.8989L26.8802 15.1119Z" fill="#E3E7EA"/>
<path d="M6.879 14.8062H6.657L2.5 16.8922V17.0042L6.879 14.8062Z" fill="#E3E7EA"/>
<path d="M21.3223 17.2532V16.9002L17.1483 14.8062H16.4473L21.3223 17.2532Z" fill="#E3E7EA"/>
<path d="M7.35963 11.6522L3.59662 9.76318C3.52262 9.84118 3.45863 9.92818 3.39062 10.0122L6.65663 11.6512H7.35862L7.35963 11.6522Z" fill="#E3E7EA"/>
<path d="M10.168 14.8062L3.41797 18.1942H4.11897L10.334 15.0752V14.8062H10.168Z" fill="#E3E7EA"/>
<path d="M10.3326 11.4952V11.3832L5.11161 8.76221C5.06661 8.77921 5.01861 8.78721 4.97461 8.80521L10.3326 11.4952Z" fill="#E3E7EA"/>
<path d="M17.1478 11.6518L21.3218 9.5578V9.4458L16.9258 11.6518H17.1478Z" fill="#E3E7EA"/>
<path d="M13.4727 15.0749L19.6867 18.1939H19.9097L13.4727 14.9629V15.0749Z" fill="#E3E7EA"/>
<path d="M13.4727 11.652H13.6387L19.9187 8.5H19.2167L13.4727 11.383V11.652Z" fill="#E3E7EA"/>
<path d="M10.167 14.8062H8.763L2.5 17.9502V18.1942H3.417L10.167 14.8062Z" fill="#D00032"/>
<path d="M15.043 14.8062L21.322 17.9582V17.2532L16.447 14.8062H15.043Z" fill="#D00032"/>
<path d="M4.1047 9.31396C3.9227 9.45096 3.7507 9.59796 3.5957 9.76396L7.3587 11.653H8.7627L4.1047 9.31396Z" fill="#D00032"/>
<path d="M15.0437 11.652L21.3227 8.5H19.9187L13.6387 11.652H15.0437Z" fill="#D00032"/>
<path d="M13.4727 14.8062V14.9632L19.9097 18.1942H20.3897L13.6387 14.8062H13.4727Z" fill="#E3E7EA"/>
<path d="M10.3333 11.6522V11.4952L4.97433 8.80518C4.89133 8.83918 4.81633 8.88718 4.73633 8.92718L10.1673 11.6532H10.3323L10.3333 11.6522Z" fill="#E3E7EA"/>
<path d="M16.9263 11.6521L21.3223 9.44608V9.20508L16.4473 11.6521H16.9263Z" fill="#E3E7EA"/>
<path d="M6.879 14.8062L2.5 17.0042V17.2442L7.359 14.8062H6.879Z" fill="#E3E7EA"/>
<path d="M10.1665 11.6518L4.73552 8.92578C4.51152 9.03678 4.30152 9.16478 4.10352 9.31378L8.76152 11.6518H10.1665Z" fill="#E3E7EA"/>
<path d="M16.447 11.652L21.322 9.205V8.5L15.043 11.652H16.447Z" fill="#E3E7EA"/>
<path d="M2.5 17.2442V17.9502L8.763 14.8062H7.359L2.5 17.2442Z" fill="#E3E7EA"/>
<path d="M13.6387 14.8062L20.3897 18.1942H21.3227V17.9582L15.0437 14.8062H13.6387Z" fill="#E3E7EA"/>
<path d="M21.3216 12.2829V11.6519H17.1476L15.8926 12.2829H21.3216Z" fill="#E3E7EA"/>
<path d="M10.96 11.699V8.5H10.332V11.383L10.96 11.699Z" fill="#E3E7EA"/>
<path d="M10.332 15.0748V18.1938H10.96V14.7598L10.332 15.0748Z" fill="#E3E7EA"/>
<path d="M12.8438 18.1938H13.4718V15.0748L12.8438 14.7598V18.1938Z" fill="#E3E7EA"/>
<path d="M7.91148 12.2829L6.65548 11.6519H2.59348C2.54948 11.8559 2.53248 12.0689 2.52148 12.2829H7.91148Z" fill="#E3E7EA"/>
<path d="M7.912 14.1748H2.5V14.8058H6.656L7.912 14.1748Z" fill="#E3E7EA"/>
<path d="M13.4718 11.383V8.5H12.8438V11.699L13.4718 11.383Z" fill="#E3E7EA"/>
<path d="M17.1476 14.8058H21.3216V14.1748H15.8926L17.1476 14.8058Z" fill="#E3E7EA"/>
<path d="M10.96 11.6988L10.332 11.3828V11.4948L10.96 11.8108V11.6988Z" fill="#E3E7EA"/>
<path d="M13.6377 11.6518H13.4718V11.3828L12.8438 11.6988V12.0508L13.6377 11.6518Z" fill="#E3E7EA"/>
<path d="M15.1895 14.1748L16.4465 14.8058H17.1475L15.8925 14.1748H15.1895Z" fill="#E3E7EA"/>
<path d="M15.6699 12.2829H15.8929L17.1479 11.6519H16.9259L15.6699 12.2829Z" fill="#E3E7EA"/>
<path d="M7.35925 11.6519H6.65625L7.91225 12.2829H8.61525L7.35925 11.6519Z" fill="#E3E7EA"/>
<path d="M7.91125 14.1748L6.65625 14.8058H6.87825L8.13325 14.1748H7.91125Z" fill="#E3E7EA"/>
<path d="M6.65625 14.8058H6.65725L7.91225 14.1748L6.65625 14.8058Z" fill="#E3E7EA"/>
<path d="M10.962 14.4072L10.168 14.8062H10.334V15.0752L10.962 14.7602V14.4072Z" fill="#E3E7EA"/>
<path d="M12.8438 14.647V14.76L13.4718 15.075V14.963L12.8438 14.647Z" fill="#E3E7EA"/>
<path d="M15.0422 14.8058H16.4462L15.1892 14.1748H13.7852L15.0422 14.8058Z" fill="#E3E7EA"/>
<path d="M10.0194 12.2829L8.76337 11.6519H7.35938L8.61537 12.2829H10.0194Z" fill="#E3E7EA"/>
<path d="M10.9617 14.1748H10.0197L8.76367 14.8058H10.1677L10.9617 14.4068V14.1748Z" fill="#E3E7EA"/>
<path d="M12.8438 12.2829H13.7858L15.0428 11.6519H13.6377L12.8438 12.0509V12.2829Z" fill="#E3E7EA"/>
<path d="M10.168 11.6521L10.962 12.0511V11.8111L10.334 11.4951V11.6521H10.168Z" fill="#E3E7EA"/>
<path d="M8.61491 14.1748H8.13491H8.13391L6.87891 14.8058H7.35891L8.61491 14.1748Z" fill="#E3E7EA"/>
<path d="M12.8438 14.6472L13.4718 14.9632V14.8062H13.6377L12.8438 14.4072V14.6472Z" fill="#E3E7EA"/>
<path d="M15.6695 12.2829L16.9255 11.6519H16.4465L15.1895 12.2829H15.6695Z" fill="#E3E7EA"/>
<path d="M12.8438 14.1748V14.4068L13.6377 14.8058H15.0428L13.7858 14.1748H12.8438Z" fill="#E3E7EA"/>
<path d="M10.9617 12.0509L10.1677 11.6519H8.76367L10.0197 12.2829H10.9617V12.0509Z" fill="#E3E7EA"/>
<path d="M8.61537 14.1748L7.35938 14.8058H8.76337L10.0194 14.1748H8.61537Z" fill="#E3E7EA"/>
<path d="M15.1892 12.2829L16.4462 11.6519H15.0422L13.7852 12.2829H15.1892Z" fill="#E3E7EA"/>
<path d="M15.893 12.283H12.845V8.5H10.962V12.283H2.522C2.518 12.356 2.5 12.426 2.5 12.5V14.175H10.961V18.194H12.844V14.175H21.322V12.283H15.893Z" fill="#D00032"/>
</svg>
