<svg width="41" height="41" viewBox="0 0 41 41" fill="none" xmlns="http://www.w3.org/2000/svg">
<path d="M14.647 8.5H6.495C4.288 8.5 2.5 10.289 2.5 12.496V20.5H14.647V8.5ZM10.358 16.927L8.573 15.646L6.788 16.927L7.469 14.854L5.684 13.573H7.891L8.573 11.5L9.255 13.573H11.462L9.677 14.854L10.358 16.927Z" fill="#303C9D"/>
<path d="M2.5 20.5V28.504C2.5 30.711 4.288 32.499 6.495 32.5H34.505C36.711 32.5 38.5 30.711 38.5 28.504V20.5H2.5Z" fill="#D5001C"/>
<path d="M34.5014 8.5H14.6484V20.5H38.5014V12.5C38.5014 10.291 36.7104 8.5 34.5014 8.5Z" fill="#E3E7EA"/>
<path d="M9.25655 13.573L8.57355 11.5L7.89155 13.573H5.68555L7.47055 14.854L6.78955 16.927L8.57455 15.646L10.3585 16.927L9.67755 14.854L11.4625 13.573H9.25655Z" fill="#E3E7EA"/>
</svg>
