<svg width="41" height="41" viewBox="0 0 41 41" fill="none" xmlns="http://www.w3.org/2000/svg">
<path d="M6.5 8.5H6.495C4.288 8.5 2.5 10.289 2.5 12.496V28.505C2.5 30.712 4.289 32.501 6.495 32.501H14.15V8.5H6.5Z" fill="#007E5C"/>
<path d="M14.1504 8.5V32.5H26.8484V8.5H14.1504ZM22.4894 23.207L20.4994 21.778L18.5084 23.207L19.2684 20.895L17.2784 19.466H19.7384L20.4984 17.155L21.2584 19.466H23.7184L21.7274 20.895L22.4874 23.207H22.4894Z" fill="#CF002E"/>
<path d="M34.4987 8.5H26.8477V32.5H34.4987C36.7077 32.5 38.4987 30.709 38.4987 28.5V12.5C38.4987 10.291 36.7077 8.5 34.4987 8.5Z" fill="#F9CF00"/>
<path d="M21.2593 19.4658L20.4993 17.1548L19.7393 19.4658H17.2793L19.2693 20.8948L18.5083 23.2068L20.4993 21.7778L22.4893 23.2068L21.7293 20.8948L23.7193 19.4658H21.2593Z" fill="#F9CF00"/>
</svg>
