<svg width="41" height="41" viewBox="0 0 41 41" fill="none" xmlns="http://www.w3.org/2000/svg">
<path d="M34.5 8.5H6.5C4.29086 8.5 2.5 10.2909 2.5 12.5V28.5C2.5 30.7091 4.29086 32.5 6.5 32.5H34.5C36.7091 32.5 38.5 30.7091 38.5 28.5V12.5C38.5 10.2909 36.7091 8.5 34.5 8.5Z" fill="#DE001B"/>
<path d="M5.08988 17.4798L5.80688 15.2968L3.92188 13.9438L6.25588 13.9388L6.98387 11.7598L7.70988 13.9398L10.0449 13.9468L8.15788 15.2978L8.87388 17.4808L6.98187 16.1368L5.08988 17.4798Z" fill="#FADD00"/>
<path d="M11.598 18.66L12.386 18.971L12.933 18.333L12.876 19.165L13.662 19.48L12.839 19.683L12.777 20.515L12.326 19.808L11.502 20.008L12.046 19.368L11.598 18.66Z" fill="#FADD00"/>
<path d="M15.8629 14.4661L15.0259 14.3231L14.6249 15.0581L14.5059 14.2331L13.6699 14.0851L14.4319 13.7191L14.3159 12.8921L14.9069 13.4911L15.6719 13.1271L15.2739 13.8651L15.8629 14.4661Z" fill="#FADD00"/>
<path d="M14.0852 18.203L14.3462 17.409L13.6602 16.917L14.5102 16.915L14.7742 16.123L15.0382 16.916L15.8872 16.918L15.2012 17.409L15.4612 18.203L14.7742 17.714L14.0852 18.203Z" fill="#FADD00"/>
<path d="M11.6387 10.9538L12.4097 11.3048L12.9897 10.6958L12.8887 11.5238L13.6567 11.8788L12.8237 12.0398L12.7177 12.8668L12.3047 12.1378L11.4707 12.2948L12.0487 11.6838L11.6387 10.9538Z" fill="#FADD00"/>
</svg>
