<svg width="41" height="41" viewBox="0 0 41 41" fill="none" xmlns="http://www.w3.org/2000/svg">
<path d="M34.5 8.5H6.5C4.29086 8.5 2.5 10.2909 2.5 12.5V28.5C2.5 30.7091 4.29086 32.5 6.5 32.5H34.5C36.7091 32.5 38.5 30.7091 38.5 28.5V12.5C38.5 10.2909 36.7091 8.5 34.5 8.5Z" fill="#2B317D"/>
<path d="M2.5 28.5038C2.5 28.5328 2.508 28.5588 2.508 28.5878H38.491C38.491 28.5588 38.499 28.5328 38.499 28.5038V24.5698H2.5V28.5038Z" fill="#E3E7EA"/>
<path d="M38.5 12.5171H2.5V16.5351H38.5V12.5171Z" fill="#E3E7EA"/>
<path d="M38.5 16.5352H2.5V24.5712H38.5V16.5352Z" fill="#CF002E"/>
</svg>
