<svg width="41" height="41" viewBox="0 0 41 41" fill="none" xmlns="http://www.w3.org/2000/svg">
<path d="M34.5 8.5H6.49998C5.34598 8.5 4.31398 8.996 3.58398 9.778L9.22798 13.345H38.5V12.5C38.5 10.291 36.709 8.5 34.5 8.5Z" fill="#2C3B88"/>
<path d="M20.6635 20.5722L16.8605 22.9682H38.5005V18.1372H16.8105L20.6635 20.5722Z" fill="#2C3B88"/>
<path d="M3.64258 31.2942C4.36858 32.0362 5.37858 32.5002 6.49958 32.5002H34.4996C36.7086 32.5002 38.4996 30.7092 38.4996 28.5002V27.7612H9.25158L3.64258 31.2942Z" fill="#2C3B88"/>
<path d="M13.056 25.3648L16.86 22.9678L20.663 20.5718L16.81 18.1368L13.019 15.7408L9.228 13.3448L3.584 9.77783H3.582C3.567 9.79283 3.556 9.81183 3.542 9.82883C3.395 9.99183 3.257 10.1628 3.137 10.3488C3.12 10.3748 3.109 10.4028 3.093 10.4288C2.981 10.6098 2.879 10.7978 2.797 10.9968C2.759 11.0888 2.739 11.1888 2.708 11.2838C2.662 11.4258 2.609 11.5648 2.579 11.7138C2.528 11.9658 2.5 12.2268 2.5 12.4948V28.5038C2.5 28.7778 2.528 29.0448 2.581 29.3028C2.596 29.3768 2.628 29.4438 2.647 29.5168C2.694 29.6958 2.74 29.8758 2.811 30.0448C2.874 30.1938 2.959 30.3298 3.038 30.4688C3.084 30.5498 3.12 30.6378 3.172 30.7148C3.271 30.8638 3.391 30.9968 3.509 31.1308C3.556 31.1838 3.593 31.2458 3.643 31.2968H3.645L9.254 27.7618L13.058 25.3658L13.056 25.3648ZM4.413 19.4428H7.103L7.941 16.9038L8.753 19.4428H11.434L9.251 20.9848L10.08 23.4958L7.924 21.9288L5.769 23.4958L6.598 20.9848L4.415 19.4428H4.413Z" fill="#ED002C"/>
<path d="M13.056 25.3653L9.25195 27.7613H38.5V25.3653V22.9683H16.86L13.056 25.3653Z" fill="#E3E7EA"/>
<path d="M13.0195 15.7412L16.8105 18.1372H38.5005V15.7412V13.3452H9.22852L13.0195 15.7412Z" fill="#E3E7EA"/>
<path d="M9.25016 20.9804L10.0802 23.5004L7.92016 21.9304L5.77016 23.5004L6.60016 20.9804L4.41016 19.4404H7.10016L7.94016 16.9004L8.75016 19.4404H11.4302L9.25016 20.9804Z" fill="#E3E7EA"/>
</svg>
