<svg width="41" height="41" viewBox="0 0 41 41" fill="none" xmlns="http://www.w3.org/2000/svg">
<path d="M34.5 8.5H6.5C4.29086 8.5 2.5 10.2909 2.5 12.5V28.5C2.5 30.7091 4.29086 32.5 6.5 32.5H34.5C36.7091 32.5 38.5 30.7091 38.5 28.5V12.5C38.5 10.2909 36.7091 8.5 34.5 8.5Z" fill="#233990"/>
<path d="M38.5 24.1821H2.5V26.0091H38.5V24.1821Z" fill="#E3E7EA"/>
<path d="M38.5 20.5259H2.5V22.3539H38.5V20.5259Z" fill="#E3E7EA"/>
<path d="M38.5 22.354H2.5V24.182H38.5V22.354Z" fill="#CF002E"/>
<path d="M12.5301 26.6079L12.2851 27.3649H11.4961L12.1341 27.8329L11.8911 28.5909L12.5301 28.1229L13.1681 28.5909L12.9241 27.8329L13.5641 27.3649H12.7741L12.5301 26.6079Z" fill="#F9CF00"/>
<path d="M15.7244 27.6548L15.4804 28.4118H14.6914L15.3294 28.8798L15.0864 29.6378L15.7244 29.1688L16.3634 29.6378L16.1194 28.8798L16.7584 28.4118H15.9694L15.7244 27.6548Z" fill="#F9CF00"/>
<path d="M18.9188 26.6079L18.6748 27.3649H17.8848L18.5238 27.8329L18.2798 28.5909L18.9188 28.1229L19.5578 28.5909L19.3138 27.8329L19.9528 27.3649H19.1628L18.9188 26.6079Z" fill="#F9CF00"/>
<path d="M15.7244 16.688L15.4804 17.446H14.6914L15.3294 17.914L15.0864 18.672L15.7244 18.203L16.3634 18.672L16.1194 17.914L16.7584 17.446H15.9694L15.7244 16.688Z" fill="#F9CF00"/>
<path d="M12.5301 17.7349L12.2851 18.4929H11.4961L12.1341 18.9609L11.8911 19.7189L12.5301 19.2499L13.1681 19.7189L12.9241 18.9609L13.5641 18.4929H12.7741L12.5301 17.7349Z" fill="#F9CF00"/>
<path d="M10.5555 20.4771L10.3115 21.2341H9.52148L10.1605 21.7031L9.91648 22.4601L10.5555 21.9921L11.1945 22.4601L10.9495 21.7031L11.5885 21.2341H10.7995L10.5555 20.4771Z" fill="#F9CF00"/>
<path d="M10.5555 23.8662L10.3115 24.6232H9.52148L10.1605 25.0922L9.91648 25.8492L10.5555 25.3812L11.1945 25.8492L10.9495 25.0922L11.5885 24.6232H10.7995L10.5555 23.8662Z" fill="#F9CF00"/>
<path d="M20.8953 20.4771L20.6513 21.2341H19.8613L20.5003 21.7031L20.2563 22.4601L20.8953 21.9921L21.5343 22.4601L21.2903 21.7031L21.9293 21.2341H21.1393L20.8953 20.4771Z" fill="#F9CF00"/>
<path d="M20.8953 23.8662L20.6513 24.6232H19.8613L20.5003 25.0922L20.2563 25.8492L20.8953 25.3812L21.5343 25.8492L21.2903 25.0922L21.9293 24.6232H21.1393L20.8953 23.8662Z" fill="#F9CF00"/>
<path d="M18.9188 17.7349L18.6748 18.4929H17.8848L18.5238 18.9609L18.2798 19.7189L18.9188 19.2499L19.5578 19.7189L19.3138 18.9609L19.9528 18.4929H19.1628L18.9188 17.7349Z" fill="#F9CF00"/>
</svg>
