<svg width="41" height="41" viewBox="0 0 41 41" fill="none" xmlns="http://www.w3.org/2000/svg">
<path d="M34.5 8.5H6.5C4.29086 8.5 2.5 10.2909 2.5 12.5V28.5C2.5 30.7091 4.29086 32.5 6.5 32.5H34.5C36.7091 32.5 38.5 30.7091 38.5 28.5V12.5C38.5 10.2909 36.7091 8.5 34.5 8.5Z" fill="#1A3375"/>
<path d="M38.5 23.6299H2.5V27.7749H38.5V23.6299Z" fill="#FBE900"/>
<path d="M11.5673 15.7409L10.9993 13.8319L10.4313 15.7409H8.59534L10.0813 16.9209L9.51434 18.8289L11.0003 17.6499L12.4863 18.8289L11.9203 16.9209L13.4063 15.7409H11.5693H11.5673ZM9.01034 11.8099H7.63234L7.20634 10.3789L6.78034 11.8099H5.40234L6.51634 12.6949L6.09034 14.1269L7.20534 13.2409L8.32034 14.1269L7.89434 12.6949L9.00834 11.8099H9.01034Z" fill="#E3E7EA"/>
</svg>
