<svg width="41" height="41" viewBox="0 0 41 41" fill="none" xmlns="http://www.w3.org/2000/svg">
<path d="M20.537 23.7701C18.742 23.7701 17.286 22.3011 17.286 20.4901C17.286 19.8321 17.483 19.2211 17.813 18.7081L3.934 9.45508C3.064 10.1891 2.5 11.2731 2.5 12.5001V28.5001C2.5 30.7091 4.291 32.5001 6.5 32.5001H34.5C35.483 32.5001 36.371 32.1321 37.068 31.5441L23.235 22.3221C22.651 23.1961 21.661 23.7701 20.537 23.7701ZM5.241 22.8301L4.782 22.3961L4.317 22.8231L4.367 22.1901L3.746 22.0901L4.268 21.7351L3.958 21.1831L4.558 21.3731L4.793 20.7841L5.02 21.3761L5.623 21.1941L5.306 21.7421L5.822 22.1041L5.2 22.1961L5.242 22.8291L5.241 22.8301ZM7.991 16.7101L8.591 16.9001L8.826 16.3111L9.053 16.9031L9.656 16.7211L9.339 17.2691L9.855 17.6311L9.233 17.7231L9.275 18.3561L8.815 17.9231L8.351 18.3501L8.401 17.7181L7.78 17.6181L8.302 17.2631L7.992 16.7111L7.991 16.7101ZM9.365 28.1261L8.906 27.6921L8.441 28.1201L8.491 27.4881L7.871 27.3881L8.392 27.0331L8.083 26.4811L8.682 26.6711L8.917 26.0831L9.144 26.6741L9.746 26.4921L9.43 27.0401L9.946 27.4011L9.324 27.4931L9.365 28.1261ZM10.903 23.6061L10.408 23.2731L9.926 23.6241L10.096 23.0581L9.607 22.7161L10.207 22.7001L10.387 22.1381L10.588 22.6931L11.188 22.6881L10.712 23.0471L10.903 23.6061ZM13.178 21.4431L12.719 21.0091L12.255 21.4371L12.305 20.8051L11.684 20.7051L12.206 20.3501L11.896 19.7981L12.496 19.9881L12.731 19.4001L12.958 19.9911L13.561 19.8091L13.244 20.3571L13.76 20.7191L13.138 20.8111L13.179 21.4441L13.178 21.4431Z" fill="#353399"/>
<path d="M20.5362 23.77C21.6592 23.77 22.6492 23.195 23.2342 22.322C23.5842 21.799 23.7882 21.169 23.7882 20.49C23.7882 18.678 22.3322 17.21 20.5362 17.21C19.3932 17.21 18.3922 17.808 17.8122 18.708C17.4812 19.222 17.2852 19.832 17.2852 20.49C17.2852 22.302 18.7412 23.77 20.5362 23.77ZM18.5152 19.026C18.7372 19.334 19.0752 19.85 19.3452 19.715C19.5562 19.715 19.6662 19.731 19.6952 19.873C20.1942 19.959 21.0322 19.746 21.5542 19.061C21.5542 19.061 21.5982 19.067 21.5832 18.807C21.5862 18.693 21.7372 18.716 21.7412 18.753C21.7622 18.809 21.7582 18.852 21.7872 18.853C21.8512 18.831 21.9392 18.686 22.0132 18.594C22.0332 18.553 22.0222 18.51 22.0272 18.459C22.0662 18.363 22.1622 18.384 22.1832 18.434C22.2012 18.467 22.2022 18.492 22.2192 18.524C22.3182 18.59 22.4952 18.528 22.5092 18.528C22.5272 18.447 22.5782 18.455 22.5782 18.455C22.6432 18.441 22.6182 18.446 22.6612 18.469C22.6232 18.905 22.7462 18.924 22.7352 19.148C22.7392 19.398 22.6612 19.468 22.6612 19.564C22.6862 19.68 23.0512 19.684 22.9222 19.783C22.8102 19.844 22.9222 19.958 22.7532 20.002C22.2582 20.255 22.1642 20.472 22.1642 20.472C22.1642 20.472 22.0402 20.709 22.0262 20.709C21.9432 20.867 21.8382 20.781 21.7802 20.857C21.7512 20.954 21.7182 21.168 21.7772 21.279C21.8062 21.432 21.7742 21.515 21.7362 21.668C21.7042 21.987 21.5782 22.036 21.5642 22.148C21.5062 22.267 21.5772 22.829 21.5212 22.829C21.1532 22.837 20.8722 22.758 20.7262 22.729C20.8682 22.113 20.8132 21.571 20.8132 21.515C20.7772 21.074 20.1582 21.182 20.0632 21.123C19.9842 21.106 19.9352 21.042 19.9072 21.014C19.8202 21.005 19.7872 20.985 19.7002 20.975C19.6562 20.997 19.6822 21.02 19.5852 21.05C19.3382 21.08 19.2292 20.834 19.2292 20.834C19.2422 20.75 18.6742 20.851 18.3672 20.778C18.2402 20.849 18.1852 21.059 18.0822 21.084C18.0792 21.149 17.9122 21.03 17.8782 20.966C17.8702 20.78 18.0392 20.697 18.0392 20.697C18.1732 20.603 18.2522 20.587 18.3162 20.522C18.3482 20.36 18.3322 20.24 18.4012 20.118C18.4582 20.025 18.5452 20.069 18.6022 20.027C18.6652 19.985 18.6912 19.712 18.6332 19.637C18.6332 19.637 18.3842 19.41 18.3702 19.396C18.2882 19.161 18.4652 19.009 18.5152 19.026Z" fill="#FCC20E"/>
<path d="M36.0326 18.0322C35.7656 17.9422 35.5796 17.9142 35.3846 18.0112C35.3226 18.0392 35.2616 18.0662 35.1996 18.0942C35.1996 18.0942 34.9116 18.0522 34.9116 18.0322C34.2716 17.9972 34.3346 15.8562 34.1076 14.9642C33.9606 14.3762 32.6416 13.1102 31.6506 12.3032C31.4136 12.1402 31.2596 12.2372 31.2906 12.4692C31.4136 12.6772 31.5066 12.9052 31.6306 13.1132C31.6646 13.2512 31.7306 13.3482 31.7646 13.4862C31.7646 13.4862 31.7746 13.7252 31.7956 13.7462C32.1046 14.0882 32.1446 14.3792 32.1446 14.3792C32.3226 14.7252 32.4806 14.9772 32.7926 15.2612C33.1426 15.4832 32.8856 16.1712 32.8956 16.5382C32.8956 16.7692 32.7306 16.7422 32.5866 16.7142C31.4516 15.6632 30.3266 15.6592 29.3356 15.3552C28.9486 15.3132 28.9406 15.5002 29.0676 15.6042C29.7606 16.3512 30.4126 16.8602 31.2696 17.2852C31.4136 17.3752 31.5576 17.4652 31.7016 17.5552C31.8666 17.6942 32.0316 17.8322 32.1956 17.9702C32.5766 18.2192 32.6076 18.4472 32.6076 18.4682C32.6176 18.9352 32.3706 19.2982 32.2986 19.4432C32.1686 19.9382 31.9086 20.0242 31.9086 20.0242C29.7886 21.4672 28.6776 21.8402 25.2416 21.3942C25.1896 21.3662 24.8616 21.4222 25.2416 21.5602C26.1166 21.8542 28.2646 22.3262 30.3416 21.3332C30.8416 20.9802 31.1746 21.0962 31.5356 20.8852C32.1286 20.5162 32.9766 20.0562 33.1316 20.0042C33.5936 19.7552 34.8906 19.4742 35.1886 19.2262C35.5316 19.1982 35.8866 19.1532 35.9106 18.8552C36.0236 18.7822 36.1876 18.8352 36.3106 18.5932C36.5816 18.5452 36.5366 18.4472 36.5366 18.4472C36.4686 18.2542 36.2146 18.1742 36.0326 18.0322ZM35.4236 18.5132C35.3406 18.4872 35.2886 18.4232 35.3066 18.3712C35.3246 18.3192 35.4076 18.2982 35.4906 18.3252C35.5736 18.3512 35.6256 18.4142 35.6076 18.4662C35.5896 18.5182 35.5066 18.5392 35.4236 18.5122V18.5132Z" fill="#FCC20E"/>
<path d="M38.4846 12.319C38.4846 12.299 38.4776 12.282 38.4766 12.262C38.3566 10.227 36.7276 8.60998 34.6846 8.51798C34.6776 8.51798 34.6716 8.51598 34.6646 8.51498L6.47764 8.50098C6.22864 8.50198 5.98564 8.52898 5.74964 8.57498C5.58464 8.60698 5.42764 8.65898 5.27164 8.71098C5.20664 8.73298 5.13864 8.74698 5.07464 8.77198C4.88264 8.84698 4.69964 8.93798 4.52264 9.04098C4.50564 9.05098 4.48864 9.05898 4.47164 9.06798C4.28464 9.18098 4.10664 9.30798 3.93964 9.44798C3.93764 9.44998 3.93464 9.45198 3.93164 9.45398L17.8116 18.707C18.3916 17.807 19.3926 17.209 20.5356 17.209C22.3316 17.209 23.7876 18.678 23.7876 20.489C23.7876 21.167 23.5836 21.798 23.2336 22.321L37.0666 31.543L37.0696 31.545C37.0766 31.539 37.0806 31.532 37.0876 31.526C37.2816 31.36 37.4576 31.175 37.6176 30.977C37.6356 30.955 37.6536 30.934 37.6716 30.912C37.8146 30.726 37.9356 30.525 38.0446 30.316C38.0686 30.271 38.0956 30.228 38.1176 30.182C38.2096 29.989 38.2766 29.782 38.3356 29.573C38.3546 29.507 38.3806 29.445 38.3966 29.378C38.4506 29.142 38.4766 28.897 38.4856 28.647C38.4866 28.61 38.4986 28.576 38.4986 28.539V28.517L38.4846 12.341V12.319ZM36.3116 18.592C36.1886 18.834 36.0256 18.781 35.9116 18.854C35.8876 19.151 35.5326 19.197 35.1896 19.225C34.8916 19.474 33.5946 19.754 33.1326 20.003C32.9776 20.055 32.1296 20.515 31.5366 20.884C31.1756 21.095 30.8416 20.979 30.3426 21.332C28.2646 22.325 26.1166 21.853 25.2426 21.559C24.8626 21.421 25.1906 21.365 25.2426 21.393C28.6786 21.839 29.7896 21.466 31.9096 20.023C31.9096 20.023 32.1696 19.937 32.2996 19.442C32.3716 19.297 32.6186 18.933 32.6086 18.467C32.6086 18.446 32.5786 18.218 32.1966 17.969C32.0326 17.831 31.8676 17.692 31.7026 17.554C31.5586 17.464 31.4146 17.374 31.2706 17.284C30.4136 16.859 29.7616 16.35 29.0686 15.603C28.9416 15.499 28.9496 15.312 29.3366 15.354C30.3276 15.658 31.4526 15.662 32.5876 16.713C32.7316 16.741 32.8966 16.768 32.8966 16.537C32.8866 16.17 33.1436 15.482 32.7936 15.26C32.4816 14.977 32.3236 14.724 32.1456 14.378C32.1456 14.378 32.1046 14.087 31.7966 13.745C31.7756 13.724 31.7656 13.485 31.7656 13.485C31.7316 13.347 31.6656 13.25 31.6316 13.112C31.5086 12.904 31.4156 12.676 31.2916 12.468C31.2616 12.236 31.4146 12.139 31.6516 12.302C32.6426 13.108 33.9616 14.375 34.1086 14.963C34.3356 15.855 34.2726 17.995 34.9126 18.031C34.9126 18.052 35.2006 18.093 35.2006 18.093C35.2626 18.065 35.3236 18.038 35.3856 18.01C35.5806 17.913 35.7666 17.941 36.0336 18.031C36.2156 18.173 36.4686 18.252 36.5376 18.446C36.5376 18.446 36.5836 18.544 36.3116 18.592Z" fill="#008B3A"/>
<path d="M18.3711 19.3959C18.3841 19.4099 18.6341 19.6369 18.6341 19.6369C18.6911 19.7119 18.6651 19.9849 18.6031 20.0269C18.5461 20.0689 18.4591 20.0249 18.4021 20.1179C18.3341 20.2399 18.3501 20.3599 18.3171 20.5219C18.2531 20.5869 18.1731 20.6029 18.0401 20.6969C18.0401 20.6969 17.8721 20.7799 17.8791 20.9659C17.9131 21.0299 18.0791 21.1489 18.0831 21.0839C18.1861 21.0589 18.2411 20.8489 18.3681 20.7779C18.6761 20.8499 19.2431 20.7499 19.2301 20.8339C19.2301 20.8339 19.3391 21.0799 19.5861 21.0499C19.6831 21.0199 19.6571 20.9969 19.7011 20.9749C19.7881 20.9849 19.8211 21.0049 19.9081 21.0139C19.9361 21.0419 19.9851 21.1069 20.0641 21.1229C20.1591 21.1819 20.7771 21.0739 20.8141 21.5149C20.8141 21.5709 20.8691 22.1129 20.7271 22.7289C20.8731 22.7579 21.1551 22.8369 21.5221 22.8289C21.5781 22.8289 21.5071 22.2669 21.5651 22.1479C21.5791 22.0349 21.7051 21.9869 21.7371 21.6679C21.7741 21.5149 21.8061 21.4319 21.7781 21.2789C21.7201 21.1679 21.7531 20.9539 21.7811 20.8569C21.8391 20.7799 21.9441 20.8659 22.0271 20.7089C22.0411 20.7089 22.1651 20.4719 22.1651 20.4719C22.1651 20.4719 22.2601 20.2549 22.7541 20.0019C22.9241 19.9579 22.8111 19.8439 22.9231 19.7829C23.0521 19.6839 22.6861 19.6799 22.6621 19.5639C22.6621 19.4689 22.7411 19.3979 22.7361 19.1479C22.7461 18.9239 22.6241 18.9049 22.6621 18.4689C22.6191 18.4459 22.6441 18.4399 22.5791 18.4549C22.5791 18.4549 22.5271 18.4479 22.5101 18.5279C22.4961 18.5279 22.3191 18.5899 22.2201 18.5239C22.2021 18.4919 22.2011 18.4659 22.1841 18.4339C22.1631 18.3839 22.0671 18.3629 22.0281 18.4589C22.0241 18.5099 22.0351 18.5529 22.0141 18.5939C21.9411 18.6859 21.8531 18.8309 21.7881 18.8529C21.7591 18.8519 21.7641 18.8089 21.7421 18.7529C21.7381 18.7159 21.5871 18.6929 21.5841 18.8069C21.5991 19.0669 21.5551 19.0609 21.5551 19.0609C21.0331 19.7469 20.1951 19.9589 19.6961 19.8729C19.6671 19.7309 19.5571 19.7159 19.3461 19.7149C19.0751 19.8499 18.7381 19.3339 18.5161 19.0259C18.4651 19.0089 18.2891 19.1599 18.3711 19.3959Z" fill="#008B3A"/>
<path d="M35.4926 18.3248C35.4086 18.2978 35.3256 18.3188 35.3086 18.3708C35.2896 18.4228 35.3426 18.4858 35.4256 18.5128C35.5096 18.5388 35.5926 18.5188 35.6096 18.4668C35.6286 18.4148 35.5756 18.3508 35.4926 18.3248Z" fill="#008B3A"/>
<path d="M8.4013 17.717L8.3513 18.349L8.8153 17.922L9.2753 18.355L9.2323 17.723L9.8553 17.631L9.3383 17.269L9.6553 16.721L9.0523 16.903L8.8263 16.312L8.5913 16.9L7.9913 16.71L8.3013 17.262L7.7793 17.617L8.4013 17.717Z" fill="#E3E7EA"/>
<path d="M10.5884 22.6932L10.3874 22.1382L10.2074 22.7012L9.60742 22.7172L10.0964 23.0592L9.92742 23.6252L10.4084 23.2732L10.9044 23.6062L10.7134 23.0472L11.1894 22.6882L10.5884 22.6932Z" fill="#E3E7EA"/>
<path d="M13.2426 20.3569L13.5596 19.8089L12.9566 19.9899L12.7296 19.3989L12.4946 19.9879L11.8946 19.7979L12.2046 20.3499L11.6836 20.7049L12.3046 20.8049L12.2546 21.4369L12.7186 21.0089L13.1776 21.4429L13.1366 20.8099L13.7586 20.7179L13.2426 20.3569Z" fill="#E3E7EA"/>
<path d="M5.30509 21.7441L5.62209 21.1961L5.01909 21.3781L4.79209 20.7861L4.55709 21.3751L3.95709 21.1851L4.26809 21.7371L3.74609 22.0921L4.36709 22.1921L4.31709 22.8241L4.78209 22.3971L5.24109 22.8301L5.19909 22.1971L5.82109 22.1051L5.30509 21.7441Z" fill="#E3E7EA"/>
<path d="M9.43105 27.04L9.74805 26.491L9.14605 26.673L8.91805 26.082L8.68305 26.67L8.08405 26.481L8.39305 27.033L7.87305 27.387L8.49305 27.488L8.44305 28.12L8.90805 27.692L9.36705 28.126L9.32605 27.493L9.94805 27.401L9.43105 27.04Z" fill="#E3E7EA"/>
</svg>
