<svg width="41" height="41" viewBox="0 0 41 41" fill="none" xmlns="http://www.w3.org/2000/svg">
<path d="M6.495 8.5H34.504C36.709 8.5 38.5 10.29 38.5 12.496V28.505C38.5 30.71 36.71 32.5 34.505 32.5H6.496C4.291 32.5 2.5 30.71 2.5 28.504V12.495C2.5 10.29 4.29 8.5 6.495 8.5Z" fill="#E3E7EA"/>
<path d="M17.8139 15.7928C17.8139 16.1088 17.8499 16.1478 17.8669 16.2068C17.8849 16.2658 17.9069 17.3528 17.7609 17.6488C17.6139 17.9448 17.3239 18.1128 17.2079 18.1428C17.0919 18.1728 16.7269 17.8868 16.3869 17.7678C16.0489 17.6498 16.0659 17.6688 15.9239 17.6688C15.7809 17.6688 15.4599 17.8018 15.3709 17.8858C15.3129 17.8758 15.2989 17.8458 15.2639 17.8858C15.2289 17.9248 15.0859 18.0838 15.0499 18.1818C15.0139 18.2808 14.9249 18.6558 14.8179 18.6948C14.7119 18.7348 14.4219 19.0548 14.2299 19.0708C14.0379 19.0848 14.0909 19.0598 13.9619 19.0508C13.8329 19.0408 13.8199 18.8938 13.6939 18.8138C13.5689 18.7348 13.5329 18.6758 13.5329 18.6758C13.5329 18.6758 13.4979 18.5178 13.4439 18.5178C13.3909 18.5178 13.3379 18.7948 13.3379 18.8738C13.3379 18.9528 13.4799 19.2498 13.5519 19.3088C13.6239 19.3678 13.6239 19.7228 13.5879 19.8228C13.5519 19.9218 13.6599 20.0198 13.6769 20.1188C13.6939 20.2178 13.5699 20.2968 13.6239 20.3168C13.6769 20.3358 13.7489 20.4548 13.7489 20.5728C13.7489 20.6918 14.0159 20.7308 14.0699 20.8498C14.1229 20.9678 14.1419 21.1658 14.1589 21.2838C14.1759 21.4028 14.2389 21.3488 14.2479 21.6388C14.3329 21.6828 14.4629 21.7768 14.5689 21.8368C14.6759 21.8958 14.6579 22.0338 14.8009 22.0938C14.9429 22.1528 14.9429 22.0938 15.0149 22.1128C15.0869 22.1318 14.9789 22.1528 15.1039 22.1918C15.2299 22.2318 15.2829 22.1718 15.3899 22.2318C15.4959 22.2908 15.5499 22.4288 15.6209 22.4688C15.6929 22.5088 15.9959 22.6068 16.0139 22.6268C16.0319 22.6458 16.2279 22.7258 16.2629 22.7258C16.2979 22.7258 16.4059 22.6468 16.4059 22.6468C16.4059 22.6468 16.5309 22.6868 16.6379 22.6468C16.7439 22.6068 16.8159 22.4888 16.8869 22.4888C16.9579 22.4888 16.9759 22.5288 17.0469 22.5288C17.1179 22.5288 17.2249 22.4888 17.2249 22.4888C17.2249 22.4888 17.3849 22.4488 17.5099 22.5288C17.6349 22.6078 17.9199 22.9838 17.9199 23.1408C17.9199 23.2988 17.9029 23.3778 17.9029 23.3778C17.9029 23.3778 18.0459 23.3588 18.0989 23.3978C18.1519 23.4378 18.1479 23.3628 18.5449 23.4378C18.5179 23.3288 18.1349 23.0228 18.4919 22.5888C18.8479 22.1538 18.8709 22.3318 18.9549 22.2528C19.0399 22.1738 19.3649 21.9418 19.9179 22.1538C20.4529 22.0548 20.0609 21.9758 20.3639 21.9558C20.4179 21.9318 20.5199 21.9618 20.6319 21.9958C20.6679 21.9228 20.7439 21.8528 20.8639 21.8778C20.8859 21.8078 21.0329 21.7148 21.1839 21.6998C21.2069 21.5668 21.5899 21.3988 21.8089 21.3838C21.8979 21.2948 22.0009 20.8998 22.4869 21.0868C22.5039 20.9578 22.5849 20.7508 22.7189 20.7118C22.7449 20.4448 22.6559 19.9058 22.8969 19.7238C23.1379 19.4828 23.3649 19.5368 23.7709 19.5458C24.0479 19.6108 24.1809 19.8428 24.2699 19.8618C24.3589 19.8818 24.3949 19.8818 24.5019 19.8028C24.6089 19.7238 24.4849 19.5658 24.5739 19.5658C24.6629 19.5658 24.6269 19.5848 24.7699 19.5658C24.9119 19.5458 24.8949 19.4918 24.9839 19.4668C25.1259 19.5448 25.2869 19.4858 25.3579 19.5448C25.4299 19.6048 25.4379 19.5998 25.5899 19.6238C25.6429 19.7228 25.7859 19.7228 25.7859 19.7228C25.7859 19.7228 25.6789 19.6838 25.7139 19.6238C25.7499 19.5648 25.7139 19.3868 25.6419 19.3078C25.5709 19.2288 25.5359 19.2088 25.4809 19.1298C25.4279 19.0508 25.4989 19.0508 25.4089 18.9518C25.3199 18.8528 25.1239 18.7548 25.0709 18.6358C25.0179 18.5168 25.0349 18.4388 24.9459 18.3388C24.8569 18.2408 24.4999 17.9048 24.4829 17.5498C24.4649 17.1938 24.4999 16.8538 24.7139 16.7398C24.7049 16.5318 24.7499 16.5028 24.9459 16.3838C25.1419 16.2648 25.1599 16.3438 25.2839 16.3438C25.4079 16.3438 25.4799 16.3638 25.6049 16.2648C25.7299 16.1658 25.6229 15.9488 25.9439 15.6328C26.2649 15.3168 26.3899 15.1588 26.4969 15.1388C26.6029 15.1188 26.9919 14.8178 27.1559 14.8428C27.2719 14.6898 27.3879 14.5068 27.5299 14.3878C27.6729 14.2698 27.8339 14.2698 27.9049 14.1708C27.9759 14.0718 27.9579 13.8948 28.1719 13.7368C28.3869 13.5788 28.5649 13.4798 28.6529 13.4008C28.7419 13.3218 28.9379 13.3808 29.0099 13.3018C29.0819 13.2228 29.0819 12.9268 29.1529 12.8678C29.2239 12.8088 28.9209 13.0058 28.7609 13.0848C28.6009 13.1638 28.3679 13.3018 28.1719 13.2818C27.9759 13.2628 28.0829 13.4008 27.9759 13.4398C27.8699 13.4788 27.6909 13.4588 27.6189 13.5388C27.5479 13.6178 27.4239 13.8148 27.3159 13.8948C27.2089 13.9738 27.1559 13.9538 27.0479 14.0128C26.9419 14.0718 26.8529 14.1318 26.7629 14.1708C26.6739 14.2108 26.4059 14.1908 26.4059 14.1908C26.4059 14.1908 26.1749 14.5268 26.0679 14.6448C25.9609 14.7628 25.8359 14.7438 25.7289 14.8028C25.6229 14.8618 24.7129 15.5138 24.0889 15.6128C23.4649 15.7118 23.7499 15.5538 23.5539 15.6128C23.3579 15.6718 23.0729 16.0868 22.8409 16.1068C22.6089 16.1268 22.5369 16.1068 22.4839 16.1068C22.4309 16.1068 22.1449 16.3048 21.9669 16.2648C21.7049 16.3538 21.5079 16.3338 21.4319 16.3238C21.3559 16.3138 21.2169 16.4228 21.0219 16.3238C20.8699 16.2688 20.8699 16.3878 20.5759 16.2838C20.2809 16.1808 20.0759 16.3238 19.9339 16.2438C19.7909 16.1648 19.8079 16.1058 19.7019 16.1058C19.5949 16.1058 19.5949 16.1848 19.4699 16.1848C19.3449 16.1848 19.3269 16.1058 19.2209 16.1058C19.1139 16.1058 18.9889 16.1848 18.8279 16.1648C18.6679 16.1448 18.6139 16.0658 18.5069 16.0658C18.3999 16.0658 17.8119 15.7898 17.8119 15.7898L17.8139 15.7928Z" fill="#EB7700"/>
<path d="M19.6377 27.8559C19.9477 27.6089 20.2207 27.5269 20.6407 27.4449C21.0617 27.3619 21.5077 27.2249 21.7427 27.1569C21.9777 27.0879 20.9497 27.4859 20.6897 27.5689C20.4297 27.6509 19.6367 27.8569 19.6367 27.8569L19.6377 27.8559Z" fill="#006A52"/>
<path d="M21.3333 27.1288C21.2473 26.5398 21.4573 25.9218 21.9403 25.6758C22.0523 26.1008 21.7053 26.8278 21.3333 27.1288Z" fill="#006A52"/>
<path d="M22.1484 26.823C21.8904 26.335 22.3274 25.704 22.6474 25.396C22.7944 25.69 22.5344 26.568 22.1484 26.823Z" fill="#006A52"/>
<path d="M22.9061 26.4439C22.6301 26.0249 22.9561 25.2919 23.3031 25.0039C23.4391 25.4159 23.3031 26.1559 22.9061 26.4439Z" fill="#006A52"/>
<path d="M23.6647 25.9198C23.4147 25.5248 23.5877 24.9078 23.9477 24.5098C24.2077 24.8388 23.9847 25.5518 23.6647 25.9198Z" fill="#006A52"/>
<path d="M24.2689 25.3879C24.0589 25.0169 24.3189 24.1249 24.6529 23.8789C24.8009 24.2079 24.6899 25.1409 24.2689 25.3879Z" fill="#006A52"/>
<path d="M24.7513 25.2509C24.6893 24.7159 25.5313 24.1259 25.8783 24.1399C25.8413 24.5789 25.4813 25.0589 24.7513 25.2509Z" fill="#006A52"/>
<path d="M24.2793 25.854C24.6753 25.401 25.4433 25.401 25.7163 25.498C25.6423 25.758 24.7373 26.335 24.2793 25.854Z" fill="#006A52"/>
<path d="M23.7344 26.307C24.2914 26.142 24.6514 26.005 24.9854 26.389C24.7504 26.718 23.8464 26.622 23.7344 26.307Z" fill="#006A52"/>
<path d="M22.9435 26.7039C23.4755 26.3889 24.1195 26.8549 24.2185 27.1289C23.6245 27.4029 22.9315 26.7729 22.9435 26.7039Z" fill="#006A52"/>
<path d="M22.2129 27.1569C22.6959 26.9509 23.2539 27.2259 23.4759 27.5279C23.2159 27.6649 22.5349 27.8159 22.2129 27.1569Z" fill="#006A52"/>
<path d="M21.5449 27.3902C22.1019 27.3212 22.6369 27.7892 22.7529 28.0562C22.0399 28.1312 21.7669 27.8982 21.5449 27.3902Z" fill="#006A52"/>
<path d="M21.3643 27.8559C21.0543 27.6089 20.7823 27.5269 20.3613 27.4449C19.9403 27.3619 19.4943 27.2249 19.2593 27.1569C19.0243 27.0879 20.0523 27.4859 20.3123 27.5689C20.5723 27.6509 21.3653 27.8569 21.3653 27.8569L21.3643 27.8559Z" fill="#006A52"/>
<path d="M19.6674 27.1288C19.7534 26.5398 19.5434 25.9218 19.0604 25.6758C18.9484 26.1008 19.2964 26.8278 19.6674 27.1288Z" fill="#006A52"/>
<path d="M18.8512 26.823C19.1092 26.335 18.6722 25.704 18.3522 25.396C18.2052 25.69 18.4652 26.568 18.8512 26.823Z" fill="#006A52"/>
<path d="M18.0956 26.4439C18.3716 26.0249 18.0456 25.2919 17.6996 25.0039C17.5636 25.4159 17.6996 26.1559 18.0956 26.4439Z" fill="#006A52"/>
<path d="M17.3365 25.9198C17.5865 25.5248 17.4135 24.9078 17.0535 24.5098C16.7935 24.8388 17.0165 25.5518 17.3365 25.9198Z" fill="#006A52"/>
<path d="M16.7334 25.3879C16.9444 25.0169 16.6834 24.1249 16.3494 23.8789C16.2014 24.2079 16.3124 25.1409 16.7334 25.3879Z" fill="#006A52"/>
<path d="M16.25 25.2509C16.312 24.7159 15.469 24.1259 15.123 24.1399C15.16 24.5789 15.519 25.0589 16.25 25.2509Z" fill="#006A52"/>
<path d="M16.7202 25.854C16.3242 25.401 15.5562 25.401 15.2832 25.498C15.3572 25.758 16.2622 26.335 16.7202 25.854Z" fill="#006A52"/>
<path d="M17.2666 26.307C16.7096 26.142 16.3496 26.005 16.0156 26.389C16.2516 26.718 17.1546 26.622 17.2666 26.307Z" fill="#006A52"/>
<path d="M18.0582 26.7039C17.5262 26.3889 16.8822 26.8549 16.7832 27.1289C17.3782 27.4029 18.0702 26.7729 18.0582 26.7039Z" fill="#006A52"/>
<path d="M18.7884 27.1569C18.3054 26.9509 17.7474 27.2259 17.5254 27.5279C17.7854 27.6649 18.4664 27.8159 18.7884 27.1569Z" fill="#006A52"/>
<path d="M19.457 27.3902C18.9 27.3212 18.365 27.7892 18.248 28.0562C18.961 28.1312 19.234 27.8982 19.457 27.3902Z" fill="#006A52"/>
</svg>
