<svg width="41" height="41" viewBox="0 0 41 41" fill="none" xmlns="http://www.w3.org/2000/svg">
<path d="M34.5 8.5H6.5C4.29086 8.5 2.5 10.2909 2.5 12.5V28.5C2.5 30.7091 4.29086 32.5 6.5 32.5H34.5C36.7091 32.5 38.5 30.7091 38.5 28.5V12.5C38.5 10.2909 36.7091 8.5 34.5 8.5Z" fill="#1E4580"/>
<path d="M3.94141 31.553C4.63541 32.135 5.51941 32.5 6.49641 32.5H34.5054C36.7124 32.5 38.5004 30.711 38.5004 28.504V20.5H20.7574L3.94141 31.553Z" fill="#D70020"/>
<path d="M20.7565 20.5H38.4995V12.495C38.4995 10.288 36.7105 8.5 34.5045 8.5H6.49445C5.51745 8.5 4.63445 8.865 3.93945 9.447L20.7565 20.5Z" fill="#E3E7EA"/>
</svg>
