<svg width="41" height="41" viewBox="0 0 41 41" fill="none" xmlns="http://www.w3.org/2000/svg">
<path d="M29.7416 17.4758L29.5276 17.4568L29.6436 16.9338L29.4096 16.9698L29.3896 16.5358L29.2906 16.1018L29.1016 15.8208V16.3618C29.1306 16.4258 29.1556 16.4798 29.1556 16.4798C29.1556 16.4798 29.1306 16.4928 29.1016 16.5108V16.8558C29.1676 16.9738 29.2326 17.0938 29.2326 17.0938C29.2326 17.0938 29.1726 17.1058 29.1016 17.1198V19.4458H29.7476V17.5458L29.7416 17.4758Z" fill="#C1694F"/>
<path d="M29.1016 26.9756V30.3556C29.1016 30.5196 29.2466 30.6536 29.4256 30.6536C29.6046 30.6536 29.7476 30.5206 29.7476 30.3556V26.9756C29.6406 26.9776 29.5356 26.9826 29.4256 26.9826C29.3146 26.9826 29.2096 26.9786 29.1016 26.9756Z" fill="#C1694F"/>
<path d="M27.4448 24.944L27.6458 24.634L27.6278 24.31L27.3538 24.599L27.2548 24.038L27.6458 24.002C27.6458 24.002 27.3078 23.297 27.8028 23.314C28.3518 23.333 27.9788 23.984 27.9788 23.984H28.3908L28.4498 24.507L28.0588 24.29V24.598L28.3148 24.824C28.5238 24.807 28.7508 24.794 28.9898 24.788L29.2328 24.362L28.6658 24.487V23.783L29.1948 24.018L28.9408 23.441H29.1018V22.833C28.9758 22.806 28.8228 22.768 28.6848 22.717C28.3908 22.609 28.2738 22.373 27.7838 22.373C27.2938 22.373 27.1568 22.681 27.1568 22.681C27.1568 22.681 26.8448 22.537 26.5108 22.716C26.4428 22.753 26.4048 22.815 26.3718 22.879C26.2998 23.022 26.3018 23.215 26.3438 23.421C26.4028 23.52 26.4568 23.627 26.4888 23.724L26.8048 23.711L26.6878 24.289C26.6878 24.289 27.0988 24.001 27.1188 24.072C27.1368 24.146 27.1968 24.668 27.1968 24.668L26.6668 24.56L26.9798 24.976L26.7198 25.09C26.7228 25.114 26.7248 25.126 26.7248 25.13C26.9658 25.055 27.2038 24.992 27.4448 24.944Z" fill="#DD2E44"/>
<path d="M31.8805 24.978L32.1935 24.562L31.6665 24.67C31.6665 24.67 31.7255 24.148 31.7445 24.074C31.7645 24.003 32.1755 24.291 32.1755 24.291L32.0585 23.713L32.3735 23.726C32.4055 23.629 32.4595 23.522 32.5185 23.423C32.5555 23.237 32.5715 23.054 32.5195 22.915C32.4875 22.831 32.4345 22.762 32.3515 22.717C32.0175 22.538 31.7045 22.682 31.7045 22.682C31.7045 22.682 31.5665 22.374 31.0775 22.374C30.5885 22.374 30.4715 22.609 30.1775 22.718C30.0365 22.77 29.8785 22.809 29.7505 22.837V23.443H29.8585L29.6035 24.039L30.1915 23.75V24.544L29.6225 24.364L29.9265 24.791C30.1455 24.797 30.3545 24.808 30.5485 24.824L30.8025 24.601V24.293L30.4095 24.51L30.4705 23.987H30.8815C30.8815 23.987 30.5095 23.336 31.0565 23.317C31.5525 23.299 31.2135 24.005 31.2135 24.005L31.6055 24.041L31.5085 24.602L31.2345 24.313L31.2135 24.637L31.4115 24.94C31.6545 24.988 31.8945 25.052 32.1375 25.127C32.1375 25.12 32.1395 25.113 32.1415 25.095L31.8785 24.98L31.8805 24.978Z" fill="#DD2E44"/>
<path d="M29.1005 19.4468V19.7538H28.8095V20.2058H29.1005V20.6178C28.8885 20.7288 28.7395 20.9348 28.7395 21.1798C28.7395 21.4248 28.8885 21.6308 29.1005 21.7418V22.0038C28.9415 21.9628 28.7365 21.9088 28.5765 21.8238C28.5605 21.8148 28.5395 21.8028 28.5235 21.7928C28.2575 21.6428 27.9125 21.4148 27.4405 21.3108C27.2925 21.2778 27.1345 21.2538 26.9605 21.2538C26.1975 21.2538 25.8745 21.7148 25.7275 22.1748C25.6635 22.3728 25.6675 22.6178 25.7175 22.8668C25.7835 23.1978 25.9425 23.5388 26.2265 23.8028C26.2865 23.8588 26.3355 23.8958 26.3755 23.9208C26.3615 24.0788 26.3495 24.2948 26.3735 24.4348C26.3975 24.5788 26.4645 24.8108 26.5135 24.9738C26.5435 25.0748 26.5695 25.1558 26.5695 25.1558L26.7195 25.0898L26.9795 24.9758L26.6665 24.5598L27.1965 24.6678C27.1965 24.6678 27.1365 24.1458 27.1185 24.0718C27.0985 24.0008 26.6875 24.2888 26.6875 24.2888L26.8045 23.7108L26.4885 23.7238C26.4565 23.6268 26.4025 23.5198 26.3435 23.4208C26.3155 23.3738 26.2885 23.3238 26.2585 23.2858C26.1795 23.1868 26.1355 23.0298 26.1095 22.8618C26.0595 22.5268 26.1195 22.1288 26.3745 21.9308C26.9615 21.4688 27.7195 21.7538 28.0775 21.9838C28.4475 22.2228 28.8525 22.3328 29.1015 22.3818V23.4398H28.9405L29.1945 24.0168L28.6655 23.7818V24.4858L29.2325 24.3608L28.9895 24.7868C28.7505 24.7928 28.5235 24.8058 28.3145 24.8228L28.0585 24.5968V24.2888L28.4495 24.5058L28.3905 23.9828H27.9785C27.9785 23.9828 28.3515 23.3318 27.8025 23.3128C27.3075 23.2948 27.6455 24.0008 27.6455 24.0008L27.2545 24.0368L27.3535 24.5978L27.6275 24.3088L27.6455 24.6328L27.4445 24.9428C27.2035 24.9918 26.9655 25.0548 26.7245 25.1298C26.6905 25.1398 26.6585 25.1448 26.6245 25.1558C26.6245 25.1558 26.5645 25.6278 26.6815 25.8618C26.6965 25.8918 26.8105 25.9168 26.9875 25.9378C27.5655 25.7928 28.4375 25.6978 29.4255 25.6978C30.4205 25.6978 31.2975 25.7938 31.8745 25.9398C32.0665 25.9178 32.1925 25.8918 32.2075 25.8608C32.3265 25.6258 32.2665 25.1548 32.2665 25.1548C32.2225 25.1408 32.1805 25.1348 32.1375 25.1218C31.8945 25.0478 31.6545 24.9828 31.4115 24.9348L31.2135 24.6318L31.2345 24.3078L31.5085 24.5968L31.6055 24.0358L31.2135 23.9998C31.2135 23.9998 31.5525 23.2948 31.0565 23.3118C30.5095 23.3308 30.8815 23.9818 30.8815 23.9818H30.4705L30.4095 24.5048L30.8025 24.2878V24.5958L30.5485 24.8188C30.3545 24.8038 30.1455 24.7918 29.9265 24.7858L29.6225 24.3588L30.1915 24.5388V23.7448L29.6035 24.0338L29.8585 23.4378H29.7505V22.3808C29.9985 22.3328 30.4085 22.2238 30.7835 21.9818C31.1415 21.7508 31.8995 21.4658 32.4875 21.9288C32.7475 22.1308 32.8055 22.5418 32.7495 22.8808C32.7235 23.0408 32.6795 23.1888 32.6035 23.2838C32.5735 23.3218 32.5465 23.3718 32.5175 23.4188C32.4585 23.5178 32.4045 23.6248 32.3725 23.7218L32.0575 23.7088L32.1745 24.2868C32.1745 24.2868 31.7635 23.9988 31.7435 24.0698C31.7245 24.1438 31.6655 24.6658 31.6655 24.6658L32.1925 24.5578L31.8795 24.9738L32.1425 25.0888L32.2905 25.1538C32.2905 25.1538 32.3065 25.1048 32.3265 25.0388C32.3755 24.8818 32.4595 24.5968 32.4875 24.4328C32.5105 24.2918 32.4985 24.0758 32.4865 23.9178C32.5265 23.8928 32.5745 23.8558 32.6335 23.8008C32.9215 23.5348 33.0795 23.1898 33.1445 22.8558C33.1925 22.6098 33.1955 22.3688 33.1325 22.1738C32.9865 21.7138 32.6625 21.2528 31.8995 21.2528C31.8835 21.2528 31.8715 21.2578 31.8555 21.2578C31.1175 21.2728 30.6275 21.6358 30.2845 21.8218C30.2335 21.8488 30.1745 21.8678 30.1175 21.8898C29.9915 21.9368 29.8615 21.9768 29.7515 22.0048V21.7398C29.9625 21.6288 30.1115 21.4238 30.1115 21.1788C30.1115 20.9338 29.9625 20.7288 29.7515 20.6168V20.2038H30.0425V19.7518H29.7515V19.4448H29.1005V19.4468Z" fill="#FFCC4D"/>
<path d="M26.3714 22.8813C26.2884 22.8733 26.2014 22.8673 26.1094 22.8643C26.1344 23.0323 26.1784 23.1893 26.2584 23.2883C26.2884 23.3263 26.3154 23.3763 26.3434 23.4233C26.3024 23.2173 26.2994 23.0243 26.3714 22.8813Z" fill="#E3E7EA"/>
<path d="M28.2165 16.7341L27.8625 16.6431L27.6085 17.1311C27.6085 17.1311 27.3935 16.8971 27.3735 16.9501C27.3595 16.9881 27.2515 17.1741 27.1875 17.2841C27.4755 17.3901 27.7185 17.5181 27.9675 17.6401L28.2165 16.7341Z" fill="#E3E7EA"/>
<path d="M25.926 13.1479C26.071 13.1479 26.187 13.1619 26.31 13.1729L25.886 13.0319L26.083 12.7429L24.867 12.4539L25.613 12.2729L25.103 11.4779L26.16 12.0569L26.63 11.9119L26.866 12.4729L27.297 12.7079L27.374 13.1229L27.59 13.0319L27.785 13.5199L28.041 13.4469L28.177 13.7909L28.551 13.8089L28.451 13.3569L28.607 13.1399L28.176 12.8139L28.55 12.6519L28 12.2359L28.47 12.1819L27.804 11.5859L27.897 11.5889C27.397 11.3389 26.942 11.0659 25.947 11.0659C24.136 11.0659 24.136 11.9889 22.318 11.9889C21.988 11.9889 21.732 11.9519 21.5 11.9029V13.9869C21.732 14.0369 21.989 14.0739 22.319 14.0739C24.137 14.0739 24.137 13.1509 25.926 13.1509V13.1479Z" fill="#E3E7EA"/>
<path d="M28.9773 16.6432C28.9953 16.6672 29.0483 16.7612 29.1013 16.8562V16.5112C29.0403 16.5472 28.9513 16.6062 28.9773 16.6432Z" fill="#E3E7EA"/>
<path d="M29.0563 15.8818C29.0173 15.9498 28.9663 16.0488 28.9783 16.0828C28.9903 16.1168 29.0543 16.2578 29.1023 16.3628V15.8848C29.0883 15.8828 29.0703 15.8838 29.0563 15.8818Z" fill="#E3E7EA"/>
<path d="M29.1021 17.1211C28.9671 17.1481 28.7831 17.1851 28.8221 17.1851C28.8821 17.1851 29.0381 17.4381 29.0381 17.4381L28.7831 17.5291L28.6661 17.8001C28.6661 17.8001 28.3731 17.4931 28.3921 17.5471C28.4011 17.5701 28.3671 17.6811 28.3281 17.7961C28.5431 17.8781 28.7941 17.9401 29.1021 17.9721V17.1211Z" fill="#E3E7EA"/>
<path d="M26.9047 17.0242C26.9107 17.0402 26.8837 17.1062 26.8477 17.1852C26.9157 17.2022 26.9907 17.2152 27.0527 17.2352C26.9807 17.1242 26.8937 16.9912 26.9047 17.0242Z" fill="#E3E7EA"/>
<path d="M21.5 17.9141C21.732 17.9641 21.989 18.0011 22.319 18.0011C24.058 18.0011 24.15 17.1651 25.721 17.0921L26.454 16.4641L27.081 16.0311L26.667 15.9781C26.667 15.9781 27.264 15.7871 27.332 15.7791C27.51 15.7611 27.06 15.6171 27.06 15.6171L27.721 15.4321C27.579 15.3601 27.429 15.2921 27.269 15.2291C27.112 15.2631 26.961 15.2911 26.961 15.2911L26.928 15.1161C26.794 15.0801 26.649 15.0501 26.484 15.0291L26.277 15.1091C26.277 15.1091 26.265 15.0661 26.251 15.0141C26.15 15.0071 26.062 14.9941 25.948 14.9941C25.893 14.9941 25.854 15.0021 25.802 15.0041C25.729 15.0421 25.669 15.0731 25.669 15.0731L25.613 15.0171C25.503 15.0261 25.388 15.0311 25.292 15.0471L25.161 15.2371L24.984 15.1151C24.058 15.3621 23.736 15.9181 22.319 15.9181C21.989 15.9181 21.732 15.8811 21.5 15.8311V17.9151V17.9141Z" fill="#E3E7EA"/>
<path d="M38.2215 30.1372C38.1645 30.2722 38.0935 30.4002 38.0195 30.5272C38.0925 30.4002 38.1645 30.2732 38.2215 30.1372Z" fill="#E3E7EA"/>
<path d="M29.663 12.0731C29.644 12.1451 29.546 12.7781 29.546 12.7781L29.703 12.8691L29.683 13.5741C29.683 13.5741 29.84 13.8261 29.84 13.7721C29.84 13.7181 29.996 12.8511 29.996 12.8511L30.212 13.0141L30.288 12.5631L30.441 11.8931C30.201 11.9471 29.934 11.9871 29.587 11.9871C29.505 11.9871 29.444 11.9761 29.369 11.9731L29.291 12.2011C29.291 12.2011 29.684 12.0031 29.663 12.0751V12.0731Z" fill="#E3E7EA"/>
<path d="M37.5313 31.1899C37.4013 31.3299 37.2623 31.4619 37.1113 31.5829C37.2623 31.4609 37.4013 31.3309 37.5313 31.1899Z" fill="#E3E7EA"/>
<path d="M37.9155 30.7031C37.8215 30.8441 37.7185 30.9791 37.6055 31.1071C37.7175 30.9781 37.8225 30.8451 37.9155 30.7031Z" fill="#E3E7EA"/>
<path d="M32.5176 23.4233C32.5456 23.3763 32.5736 23.3263 32.6036 23.2883C32.6786 23.1933 32.7226 23.0453 32.7496 22.8853C32.6696 22.8943 32.5916 22.9043 32.5196 22.9163C32.5716 23.0553 32.5556 23.2373 32.5186 23.4243L32.5176 23.4233Z" fill="#E3E7EA"/>
<path d="M30.7444 11.813C30.6764 11.836 30.6004 11.854 30.5254 11.873L30.6614 12.073L30.7444 11.813Z" fill="#E3E7EA"/>
<path d="M4.24414 9.14525C4.46914 9.00025 4.71514 8.87925 4.97414 8.78125C4.71614 8.87925 4.47114 9.00125 4.24414 9.14525Z" fill="#E3E7EA"/>
<path d="M2.60127 11.3921C2.60127 11.3921 2.60427 11.3841 2.60527 11.3801C2.60527 11.3781 2.60627 11.3751 2.60727 11.3721C2.59427 11.4241 2.58327 11.4761 2.57227 11.5291C2.58127 11.4831 2.59127 11.4361 2.60227 11.3911H2.60027L2.60127 11.3921Z" fill="#E3E7EA"/>
<path d="M33.228 18.9238C31.581 18.9238 31.413 19.6748 30.043 19.8168V20.2058H29.752V20.6188C29.963 20.7298 30.112 20.9348 30.112 21.1808C30.112 21.4268 29.963 21.6318 29.752 21.7418V21.9158C29.878 21.9098 30.009 21.9068 30.118 21.8928C30.175 21.8718 30.234 21.8518 30.285 21.8248C30.629 21.6388 31.118 21.2758 31.856 21.2608C32.2 21.1188 32.604 21.0078 33.227 21.0078C35.046 21.0078 35.046 21.9888 36.863 21.9888C37.654 21.9888 38.098 21.8018 38.5 21.5918V19.4568C38.098 19.6478 37.654 19.8178 36.865 19.8198C35.047 19.8198 35.047 18.9248 33.227 18.9248L33.228 18.9238Z" fill="#E3E7EA"/>
<path d="M33.2275 14.9941C32.2405 14.9941 31.7875 15.2651 31.2895 15.5141C31.2325 15.5671 31.1855 15.6151 31.2095 15.6151C31.2695 15.6151 32.0515 15.6511 32.0515 15.6511L31.7185 15.8681L32.5035 15.9041L32.1495 16.1571C32.1495 16.1571 32.7955 16.2111 32.7955 16.2661C32.7955 16.3191 32.5225 16.5911 32.5225 16.5911L33.0895 16.6451C33.0895 16.6451 32.8165 16.9151 32.8735 16.9351C32.8955 16.9411 33.0035 17.0051 33.1335 17.0841C33.1675 17.0841 33.1925 17.0781 33.2275 17.0781C35.0465 17.0781 35.0465 18.0581 36.8635 18.0581C37.6545 18.0581 38.0985 17.8711 38.5005 17.6611V15.5251C38.0985 15.7161 37.6545 15.8871 36.8655 15.8881C35.0475 15.8881 35.0475 14.9941 33.2275 14.9941Z" fill="#E3E7EA"/>
<path d="M4.34352 9.2322L4.22852 9.1582L4.34352 9.2322Z" fill="#E3E7EA"/>
<path d="M29.782 17.9459L29.748 17.5469V17.9879C29.853 17.9829 29.959 17.9789 30.052 17.9689L29.998 17.8919L29.782 17.9459Z" fill="#E3E7EA"/>
<path d="M31.6204 17.0249C31.6404 16.9709 31.3074 16.6269 31.3074 16.6269L31.2294 16.7899L31.0144 16.3019L30.8194 16.5549L30.4464 16.0839L30.3094 16.2819L29.8404 15.8999C29.8254 15.8999 29.8124 15.9019 29.7974 15.9029C29.7934 15.9759 29.7844 16.1499 29.7994 16.1929C29.8194 16.2469 30.1724 16.4819 30.1724 16.4819C30.1724 16.4819 29.9374 16.5719 29.9374 16.6259C29.9374 16.6799 30.4084 17.0239 30.4084 17.0239L30.1924 17.1689L30.7014 17.5669C30.7014 17.5669 30.2314 17.6579 30.2894 17.6929C30.3224 17.7129 30.4084 17.8089 30.4794 17.8929C31.1224 17.7369 31.4934 17.4489 32.0514 17.2579L31.8764 16.9339C31.8764 16.9339 31.6024 17.0779 31.6204 17.0249Z" fill="#E3E7EA"/>
<path d="M21.5 10.054C21.732 10.104 21.989 10.141 22.319 10.141C24.137 10.141 24.137 9.21802 25.926 9.21802C27.772 9.21802 27.772 10.141 29.534 10.141C31.409 10.141 31.409 9.21802 33.227 9.21802C35.045 9.21802 35.046 10.198 36.863 10.198C37.237 10.198 37.53 10.154 37.782 10.088C37.059 9.13002 35.861 8.49902 34.5 8.49902H21.5V10.054Z" fill="#E3E7EA"/>
<path d="M33.227 26.7832C31.47 26.7832 31.397 27.6382 29.748 27.6952V29.7752C31.395 29.7022 31.487 28.8652 33.227 28.8652C35.046 28.8652 35.046 29.8452 36.863 29.8452C37.606 29.8452 38.04 29.6782 38.426 29.4852C38.47 29.2642 38.5 29.0392 38.5 28.8062V27.3132C38.098 27.5042 37.654 27.6742 36.865 27.6762C35.047 27.6762 35.047 26.7822 33.227 26.7822V26.7832Z" fill="#E3E7EA"/>
<path d="M33.2278 30.7121C31.4108 30.7121 31.4108 31.6351 29.5888 31.6351C27.7668 31.6351 27.7738 30.7121 25.9488 30.7121C24.1378 30.7121 24.1378 31.6351 22.3198 31.6351C20.5018 31.6351 20.5008 30.7121 18.6828 30.7121C16.8648 30.7121 16.8648 31.6351 15.0468 31.6351C13.2288 31.6351 13.2288 30.7121 11.4108 30.7121C9.59281 30.7121 9.59281 31.6351 7.77481 31.6351C5.95681 31.6351 5.95581 30.7121 4.13781 30.7121C3.73381 30.7121 3.42181 30.7581 3.15881 30.8291C2.99281 30.5961 2.85981 30.3441 2.75781 30.0781C3.32081 31.4881 4.77581 32.5001 6.49981 32.5001H34.4998C35.4978 32.5001 36.3988 32.1501 37.0998 31.5931C37.0218 31.5981 36.9528 31.6071 36.8658 31.6071C35.0478 31.6071 35.0478 30.7121 33.2278 30.7121Z" fill="#E3E7EA"/>
<path d="M4.137 28.8658C5.956 28.8658 5.956 29.7888 7.774 29.7888C9.592 29.7888 9.592 28.8658 11.41 28.8658C13.228 28.8658 13.228 29.7888 15.046 29.7888C16.864 29.7888 16.864 28.8658 18.682 28.8658C20.5 28.8658 20.501 29.7888 22.319 29.7888C24.137 29.7888 24.137 28.8658 25.926 28.8658C27.602 28.8658 27.77 29.6188 29.102 29.7598V27.6748C27.766 27.5248 27.589 26.7838 25.948 26.7838C24.137 26.7838 24.137 27.7068 22.319 27.7068C20.501 27.7068 20.5 26.7838 18.682 26.7838C16.864 26.7838 16.864 27.7068 15.046 27.7068C13.228 27.7068 13.228 26.7838 11.41 26.7838C9.592 26.7838 9.592 27.7068 7.774 27.7068C5.956 27.7068 5.955 26.7838 4.137 26.7838C3.347 26.7838 2.903 26.9588 2.501 27.1568V25.3108C2.903 25.1128 3.346 24.9378 4.137 24.9378C5.956 24.9378 5.956 25.8608 7.774 25.8608C9.592 25.8608 9.592 24.9378 11.41 24.9378C13.228 24.9378 13.228 25.8608 15.046 25.8608C16.864 25.8608 16.864 24.9378 18.682 24.9378C20.5 24.9378 20.501 25.8608 22.319 25.8608C24.137 25.8608 24.137 24.9378 25.926 24.9378C26.147 24.9378 26.34 24.9528 26.514 24.9758C26.465 24.8128 26.398 24.5808 26.374 24.4368C26.35 24.2958 26.362 24.0808 26.376 23.9228C26.336 23.8978 26.287 23.8608 26.227 23.8048C25.942 23.5418 25.784 23.2008 25.718 22.8688C24.151 22.9488 24.05 23.7768 22.32 23.7768C20.501 23.7768 20.501 22.8538 18.683 22.8538C16.865 22.8538 16.865 23.7768 15.047 23.7768C13.229 23.7768 13.229 22.8538 11.411 22.8538C9.593 22.8538 9.593 23.7768 7.775 23.7768C5.957 23.7768 5.956 22.8538 4.138 22.8538C3.348 22.8538 2.904 23.0288 2.502 23.2268V21.3808C2.904 21.1838 3.347 21.0078 4.138 21.0078C5.957 21.0078 5.957 21.9308 7.775 21.9308C9.593 21.9308 9.593 21.0078 11.411 21.0078C13.229 21.0078 13.229 21.9308 15.047 21.9308C16.865 21.9308 16.865 21.0078 18.683 21.0078C20.501 21.0078 20.502 21.9308 22.32 21.9308C24.138 21.9308 24.138 21.0078 25.927 21.0078C26.637 21.0078 27.073 21.1448 27.442 21.3128C27.914 21.4168 28.259 21.6448 28.525 21.7948C28.691 21.8448 28.886 21.8788 29.102 21.9008V21.7438C28.89 21.6328 28.741 21.4278 28.741 21.1818C28.741 20.9358 28.89 20.7308 29.102 20.6198V20.2078H28.811V19.7698C27.733 19.5528 27.462 18.9248 25.949 18.9248C24.138 18.9248 24.138 19.8478 22.32 19.8478C21.99 19.8478 21.733 19.8108 21.501 19.7608V20.5008H2.5V28.8088C2.5 29.2468 2.597 29.6598 2.748 30.0488C2.65 29.7848 2.581 29.5078 2.546 29.2198C2.936 29.0308 3.375 28.8658 4.137 28.8658Z" fill="#E3E7EA"/>
<path d="M33.2262 22.8531C33.1952 22.8531 33.1742 22.8581 33.1442 22.8581C33.0792 23.1921 32.9212 23.5371 32.6332 23.8031C32.5732 23.8581 32.5262 23.8951 32.4862 23.9201C32.4992 24.0781 32.5102 24.2941 32.4872 24.4351C32.4592 24.5991 32.3742 24.8831 32.3262 25.0411C32.5762 24.9801 32.8582 24.9361 33.2262 24.9361C35.0452 24.9361 35.0452 25.9161 36.8622 25.9161C37.6532 25.9161 38.0972 25.7291 38.4992 25.5191V23.3841C38.0972 23.5751 37.6532 23.7461 36.8642 23.7461C35.0462 23.7461 35.0462 22.8521 33.2262 22.8521V22.8531Z" fill="#E3E7EA"/>
<path d="M4.09059 9.26619C4.11059 9.25219 4.12559 9.23419 4.14559 9.22119C3.93159 9.36619 3.73659 9.52919 3.55859 9.70919C3.56359 9.70419 3.57059 9.70019 3.57559 9.69419C3.73359 9.53819 3.90559 9.39619 4.09059 9.26619Z" fill="#E3E7EA"/>
<path d="M32.2871 17.1919C32.3061 17.1869 32.3261 17.1839 32.3461 17.1789C32.3391 17.1689 32.3281 17.1509 32.3281 17.1509L32.2871 17.1919Z" fill="#E3E7EA"/>
<path d="M38.4382 11.624C38.0512 11.803 37.6152 11.958 36.8642 11.958C35.0462 11.958 35.0462 11.064 33.2262 11.064C33.1182 11.064 33.0342 11.077 32.9382 11.083C32.9682 11.141 33.3622 11.332 33.3042 11.35C33.2452 11.368 32.2462 11.277 32.2462 11.277L31.6802 11.801L32.0322 11.91L31.5022 12.199L31.9532 12.325L31.5422 12.614L31.8952 12.578L31.3272 12.976L31.8952 13.085L31.1312 13.446L31.3072 13.627L30.9902 13.8C31.2832 13.676 31.5382 13.535 31.8282 13.412C31.9092 13.364 31.9892 13.318 32.0512 13.283C32.3452 13.12 32.5802 12.813 33.0712 12.687C33.5622 12.561 34.5002 12.706 34.5002 12.706L33.6182 13.14L33.6442 13.177C35.0442 13.318 35.2032 14.128 36.8632 14.128C37.6542 14.128 38.0982 13.941 38.5002 13.731V12.192C38.5002 11.997 38.4692 11.811 38.4382 11.624Z" fill="#E3E7EA"/>
<path d="M29.4264 25.7012C28.4384 25.7012 27.5664 25.7952 26.9884 25.9412C26.5484 26.0522 26.2734 26.1902 26.2734 26.3442C26.2734 26.6762 27.5164 26.9442 29.1024 26.9772C29.2104 26.9792 29.3154 26.9842 29.4264 26.9842C29.5364 26.9842 29.6414 26.9802 29.7484 26.9772C31.3354 26.9442 32.5784 26.6762 32.5784 26.3442C32.5784 26.1922 32.3084 26.0542 31.8754 25.9442C31.2974 25.7972 30.4204 25.7012 29.4264 25.7012ZM29.4264 26.9312C28.2564 26.9312 27.3074 26.7722 27.3074 26.5772C27.3074 26.3832 28.2564 26.2242 29.4264 26.2242C30.5964 26.2242 31.5434 26.3832 31.5434 26.5772C31.5434 26.7732 30.5954 26.9312 29.4264 26.9312Z" fill="#E3E7EA"/>
<path d="M29.4256 26.2241C28.2556 26.2241 27.3066 26.3831 27.3066 26.5771C27.3066 26.7731 28.2556 26.9311 29.4256 26.9311C30.5956 26.9311 31.5426 26.7721 31.5426 26.5771C31.5426 26.3831 30.5946 26.2241 29.4256 26.2241Z" fill="#99AAB5"/>
<path d="M33.1472 10.8441H32.6972L32.5982 10.5731L32.1092 10.6991L31.7762 10.7181L31.2872 11.2421L31.0712 10.7901L30.7432 11.8131L30.6602 12.0741L30.5242 11.8741L30.4642 11.7851L30.4402 11.8921L30.2872 12.5621L30.2112 13.0131L29.9952 12.8501C29.9952 12.8501 29.8392 13.7181 29.8392 13.7711C29.8392 13.8241 29.6822 13.5731 29.6822 13.5731L29.7022 12.8681L29.5452 12.7771C29.5452 12.7771 29.6432 12.1441 29.6622 12.0721C29.6832 12.0001 29.2902 12.1981 29.2902 12.1981L29.3682 11.9701L29.5452 11.4561L29.2322 11.3841C29.2322 11.3841 29.2912 10.8241 29.2712 10.7691C29.2512 10.7151 28.8002 10.9671 28.8002 10.9671L28.1542 10.2261L28.2352 10.9481L27.8032 11.0391L28.3332 11.5991L27.8962 11.5841L27.8032 11.5811L28.4692 12.1771L27.9992 12.2311L28.5492 12.6471L28.1752 12.8091L28.6062 13.1351L28.4502 13.3521L28.5502 13.8041L28.1762 13.7861L28.0402 13.4421L27.7842 13.5151L27.5892 13.0271L27.3732 13.1181L27.2962 12.7031L26.8652 12.4681L26.6292 11.9071L26.1592 12.0521L25.1022 11.4731L25.6122 12.2681L24.8662 12.4491L26.0822 12.7381L25.8852 13.0271L26.3092 13.1681L26.8062 13.3331L26.4142 13.6221L27.0212 13.7311L27.7262 14.2551L26.8652 13.9661L26.6092 14.0021C26.6092 14.0021 25.7492 13.8761 25.7092 13.8211C25.6692 13.7671 25.9052 14.0561 25.9052 14.0561L25.0232 14.0021L24.8862 14.2551L24.2402 14.6341L24.5532 14.7961L24.2802 15.1751L24.8462 15.0131L24.9832 15.1081L25.1602 15.2301L25.2912 15.0401L25.4342 14.8321L25.6112 15.0101L25.6672 15.0661C25.6672 15.0661 25.7272 15.0351 25.8002 14.9971C25.9412 14.9241 26.1442 14.8131 26.1572 14.7771C26.1702 14.7401 26.2182 14.8981 26.2492 15.0071C26.2642 15.0591 26.2752 15.1021 26.2752 15.1021L26.4822 15.0221L26.8812 14.8681L26.9262 15.1091L26.9592 15.2841C26.9592 15.2841 27.1102 15.2561 27.2672 15.2221C27.4192 15.1891 27.5772 15.1491 27.6062 15.1221C27.6652 15.0681 28.1542 15.3031 28.1542 15.3031L27.7192 15.4251L27.0582 15.6101C27.0582 15.6101 27.5082 15.7541 27.3302 15.7721C27.2622 15.7801 26.6652 15.9711 26.6652 15.9711L27.0792 16.0241L26.4522 16.4571L25.7192 17.0851L25.6292 17.1621L25.1402 17.8131L25.5702 17.5791L25.6302 18.0311C25.6302 18.0311 25.8662 17.6151 25.8452 17.5241C25.8272 17.4331 26.1392 17.9221 26.1392 17.9221C26.1392 17.9221 26.3342 17.2891 26.3342 17.2171C26.3342 17.1441 26.6082 17.6511 26.6082 17.6511C26.6082 17.6511 26.7612 17.3681 26.8462 17.1791C26.8822 17.1001 26.9092 17.0341 26.9032 17.0181C26.8912 16.9851 26.9792 17.1181 27.0512 17.2291C27.0962 17.2991 27.1362 17.3621 27.1362 17.3621C27.1362 17.3621 27.1572 17.3261 27.1852 17.2791C27.2492 17.1691 27.3572 16.9831 27.3712 16.9451C27.3912 16.8921 27.6062 17.1261 27.6062 17.1261L27.8602 16.6381L28.2142 16.7291L27.9652 17.6361L27.9212 17.7951L28.2142 18.1021C28.2142 18.1021 28.2752 17.9411 28.3262 17.7901C28.3652 17.6751 28.3982 17.5651 28.3902 17.5411C28.3712 17.4871 28.6642 17.7941 28.6642 17.7941L28.7812 17.5231L29.0362 17.4321C29.0362 17.4321 28.8802 17.1791 28.8202 17.1791C28.7812 17.1791 28.9652 17.1411 29.1002 17.1151C29.1712 17.1011 29.2312 17.0891 29.2312 17.0891C29.2312 17.0891 29.1662 16.9691 29.1002 16.8511C29.0472 16.7561 28.9942 16.6621 28.9762 16.6381C28.9502 16.6011 29.0392 16.5421 29.1002 16.5061C29.1292 16.4891 29.1542 16.4751 29.1542 16.4751C29.1542 16.4751 29.1292 16.4211 29.1002 16.3571C29.0522 16.2521 28.9882 16.1111 28.9762 16.0771C28.9642 16.0431 29.0152 15.9441 29.0542 15.8761C29.0762 15.8381 29.0942 15.8071 29.0942 15.8071L29.1002 15.8161L29.2892 16.0971L29.3882 16.5311L29.4082 16.9651L29.6422 16.9291L29.5262 17.4521L29.7402 17.4711L29.7462 17.5411L29.7802 17.9401L29.9962 17.8861L30.0502 17.9631L30.3872 18.4461L30.5822 18.0121C30.5822 18.0121 30.5342 17.9531 30.4782 17.8871C30.4072 17.8041 30.3222 17.7071 30.2882 17.6871C30.2302 17.6511 30.7002 17.5611 30.7002 17.5611L30.1912 17.1631L30.4072 17.0181C30.4072 17.0181 29.9362 16.6741 29.9362 16.6201C29.9362 16.5661 30.1712 16.4761 30.1712 16.4761C30.1712 16.4761 29.8182 16.2411 29.7982 16.1871C29.7832 16.1441 29.7912 15.9701 29.7962 15.8971C29.7972 15.8781 29.7982 15.8611 29.7982 15.8611L29.8392 15.8941L30.3082 16.2761L30.4452 16.0781L30.8182 16.5491L31.0132 16.2961L31.2282 16.7841L31.3062 16.6211C31.3062 16.6211 31.6392 16.9651 31.6192 17.0191C31.6012 17.0721 31.8752 16.9281 31.8752 16.9281L32.0502 17.2521L32.1092 17.3621L32.2852 17.1861L32.3252 17.1451C32.3252 17.1451 32.3362 17.1621 32.3432 17.1731C32.3872 17.2391 32.5422 17.4781 32.5582 17.5251C32.5782 17.5791 32.7932 17.3091 32.7932 17.3091L33.6752 17.4171C33.6752 17.4171 33.3672 17.2221 33.1312 17.0791C33.0012 17.0001 32.8932 16.9361 32.8712 16.9301C32.8142 16.9101 33.0872 16.6401 33.0872 16.6401L32.5202 16.5861C32.5202 16.5861 32.7932 16.3151 32.7932 16.2611C32.7932 16.2071 32.1472 16.1521 32.1472 16.1521L32.5012 15.8991L31.7162 15.8631L32.0492 15.6461C32.0492 15.6461 31.2672 15.6101 31.2072 15.6101C31.1822 15.6101 31.2292 15.5621 31.2872 15.5091C31.3642 15.4381 31.4632 15.3571 31.4632 15.3571C31.4632 15.3571 30.8372 15.3041 30.7782 15.2851C30.7182 15.2671 31.1892 15.1231 31.1892 15.1231L30.9342 14.9251L31.4822 14.7441L31.5802 14.4371L32.3832 14.3101L32.3632 13.9851L33.3042 13.8581L33.2262 13.5511L33.7932 13.3891L33.6422 13.1731L33.6162 13.1361L34.4982 12.7021C34.4982 12.7021 33.5602 12.5571 33.0692 12.6831C32.5782 12.8091 32.3432 13.1171 32.0492 13.2791C31.9862 13.3141 31.9072 13.3601 31.8262 13.4081C31.5282 13.5831 31.1682 13.8041 31.1682 13.8041L30.4432 14.3281L30.5422 14.0391L30.9882 13.7961L31.3052 13.6231L31.1292 13.4421L31.8932 13.0811L31.3252 12.9721L31.8932 12.5741L31.5402 12.6101L31.9512 12.3211L31.5002 12.1951L32.0302 11.9061L31.6782 11.7971L32.2442 11.2731C32.2442 11.2731 33.2432 11.3641 33.3022 11.3461C33.3602 11.3281 32.9662 11.1371 32.9362 11.0791L32.9312 11.0751C32.9122 11.0221 33.1462 10.8411 33.1462 10.8411L33.1472 10.8441Z" fill="#77B255"/>
<path d="M25.436 14.8379L25.293 15.0459C25.389 15.0309 25.504 15.0249 25.614 15.0159L25.436 14.8379Z" fill="#00247D"/>
<path d="M33.2279 28.8662C31.4879 28.8662 31.3959 29.7032 29.7489 29.7762V30.3562C29.7489 30.5212 29.6059 30.6542 29.4269 30.6542C29.2479 30.6542 29.1029 30.5202 29.1029 30.3562V29.7602C27.7709 29.6202 27.6029 28.8662 25.9269 28.8662C24.1379 28.8662 24.1379 29.7892 22.3199 29.7892C20.5019 29.7892 20.5019 28.8662 18.6829 28.8662C16.8639 28.8662 16.8649 29.7892 15.0469 29.7892C13.2289 29.7892 13.2289 28.8662 11.4109 28.8662C9.59288 28.8662 9.59288 29.7892 7.77488 29.7892C5.95688 29.7892 5.95688 28.8662 4.13788 28.8662C3.37588 28.8662 2.93687 29.0312 2.54688 29.2202C2.58188 29.5082 2.65087 29.7842 2.74887 30.0492C2.75287 30.0592 2.75487 30.0692 2.75887 30.0792C2.86087 30.3452 2.99387 30.5982 3.15987 30.8302C3.42287 30.7592 3.73487 30.7132 4.13888 30.7132C5.95687 30.7132 5.95688 31.6362 7.77588 31.6362C9.59488 31.6362 9.59387 30.7132 11.4119 30.7132C13.2299 30.7132 13.2299 31.6362 15.0479 31.6362C16.8659 31.6362 16.8659 30.7132 18.6839 30.7132C20.5019 30.7132 20.5019 31.6362 22.3209 31.6362C24.1399 31.6362 24.1389 30.7132 25.9499 30.7132C27.7749 30.7132 27.7749 31.6362 29.5899 31.6362C31.4049 31.6362 31.4119 30.7132 33.2289 30.7132C35.0459 30.7132 35.0489 31.6082 36.8669 31.6082C36.9539 31.6082 37.0229 31.5992 37.1009 31.5942H37.1029C37.1069 31.5912 37.1089 31.5882 37.1129 31.5852C37.2639 31.4642 37.4029 31.3322 37.5329 31.1922C37.5589 31.1652 37.5829 31.1372 37.6079 31.1092C37.7209 30.9812 37.8239 30.8462 37.9179 30.7052C37.9559 30.6482 37.9869 30.5882 38.0209 30.5292C38.0949 30.4022 38.1659 30.2742 38.2229 30.1392C38.2599 30.0522 38.2839 29.9592 38.3139 29.8682C38.3539 29.7452 38.3999 29.6252 38.4259 29.4972C38.4259 29.4942 38.4279 29.4902 38.4289 29.4872H38.4269C38.0419 29.6802 37.6069 29.8472 36.8639 29.8472C35.0469 29.8472 35.0469 28.8672 33.2279 28.8672V28.8662Z" fill="#00247D"/>
<path d="M26.8834 14.875L26.4844 15.029C26.6494 15.05 26.7944 15.08 26.9284 15.116L26.8834 14.875Z" fill="#00247D"/>
<path d="M28.1565 15.3092C28.1565 15.3092 27.6675 15.0742 27.6085 15.1282C27.5795 15.1552 27.4215 15.1952 27.2695 15.2282C27.4285 15.2912 27.5795 15.3592 27.7215 15.4312L28.1565 15.3092Z" fill="#00247D"/>
<path d="M33.2261 17.0781C33.1911 17.0781 33.1661 17.0831 33.1321 17.0841C33.3681 17.2281 33.6761 17.4221 33.6761 17.4221L32.7941 17.3141C32.7941 17.3141 32.5791 17.5851 32.5591 17.5301C32.5431 17.4841 32.3881 17.2451 32.3441 17.1781C32.3251 17.1831 32.3041 17.1861 32.2851 17.1911L32.1091 17.3671L32.0501 17.2571C31.4921 17.4481 31.1211 17.7361 30.4781 17.8921C30.5341 17.9581 30.5821 18.0171 30.5821 18.0171L30.3871 18.4511L30.0501 17.9681C29.9571 17.9781 29.8511 17.9831 29.7461 17.9871V19.4461H29.7491V19.7531H30.0401V19.8161C31.4101 19.6741 31.5781 18.9231 33.2251 18.9231C35.0451 18.9231 35.0451 19.8181 36.8631 19.8181C37.6521 19.8161 38.0961 19.6461 38.4981 19.4551V17.6611C38.0961 17.8711 37.6521 18.0581 36.8611 18.0581C35.0441 18.0581 35.0451 17.0781 33.2261 17.0781Z" fill="#00247D"/>
<path d="M31.079 22.3738C31.568 22.3738 31.706 22.6818 31.706 22.6818C31.706 22.6818 32.019 22.5378 32.353 22.7168C32.436 22.7618 32.489 22.8308 32.521 22.9148C32.593 22.9018 32.671 22.8928 32.751 22.8838C32.807 22.5448 32.749 22.1338 32.489 21.9318C31.901 21.4698 31.143 21.7548 30.785 21.9848C30.41 22.2268 30 22.3368 29.752 22.3838V22.8348C29.879 22.8078 30.037 22.7688 30.179 22.7158C30.473 22.6078 30.59 22.3718 31.079 22.3718V22.3738Z" fill="#00247D"/>
<path d="M25.729 22.1758C25.876 21.7158 26.199 21.2548 26.962 21.2548C27.137 21.2548 27.294 21.2788 27.442 21.3118C27.073 21.1438 26.637 21.0068 25.927 21.0068C24.138 21.0068 24.138 21.9298 22.32 21.9298C20.502 21.9298 20.502 21.0068 18.683 21.0068C16.864 21.0068 16.865 21.9298 15.047 21.9298C13.229 21.9298 13.229 21.0068 11.411 21.0068C9.59295 21.0068 9.59295 21.9298 7.77495 21.9298C5.95695 21.9298 5.95695 21.0068 4.13795 21.0068C3.34695 21.0068 2.90395 21.1828 2.50195 21.3798V23.2258C2.90395 23.0278 3.34795 22.8528 4.13795 22.8528C5.95595 22.8528 5.95595 23.7758 7.77495 23.7758C9.59395 23.7758 9.59295 22.8528 11.411 22.8528C13.229 22.8528 13.229 23.7758 15.047 23.7758C16.865 23.7758 16.865 22.8528 18.683 22.8528C20.501 22.8528 20.501 23.7758 22.32 23.7758C24.051 23.7758 24.152 22.9478 25.718 22.8678C25.668 22.6188 25.665 22.3738 25.728 22.1758H25.729Z" fill="#00247D"/>
<path d="M2.60256 11.3909C2.60256 11.3909 2.60456 11.3839 2.60556 11.3799C2.60456 11.3839 2.60256 11.3879 2.60156 11.3919H2.60356L2.60256 11.3909Z" fill="#00247D"/>
<path d="M3.57617 9.69314C3.73417 9.53714 3.90717 9.39514 4.09117 9.26514C3.90617 9.39414 3.73417 9.53714 3.57617 9.69314Z" fill="#00247D"/>
<path d="M33.2265 21.0068C32.6045 21.0068 32.2005 21.1178 31.8555 21.2598C31.8715 21.2598 31.8835 21.2548 31.8995 21.2548C32.6625 21.2548 32.9865 21.7158 33.1325 22.1758C33.1955 22.3708 33.1925 22.6118 33.1445 22.8578C33.1745 22.8578 33.1955 22.8528 33.2265 22.8528C35.0465 22.8528 35.0465 23.7468 36.8645 23.7468C37.6535 23.7468 38.0975 23.5758 38.4995 23.3848V21.5908C38.0975 21.8008 37.6535 21.9878 36.8625 21.9878C35.0455 21.9878 35.0455 21.0068 33.2265 21.0068Z" fill="#00247D"/>
<path d="M29.0997 17.9701V19.7501H28.8097V19.7701C27.7297 19.5501 27.4597 18.9201 25.9497 18.9201C24.1397 18.9201 24.1397 19.8501 22.3197 19.8501C21.9897 19.8501 21.7297 19.8101 21.4997 19.7601V18.6301L18.6797 16.8101H21.4997V17.9101C21.7297 17.9601 21.9897 18.0001 22.3197 18.0001C24.0597 18.0001 24.1497 17.1701 25.7197 17.0901L25.6297 17.1701L25.1397 17.8201L25.5697 17.5801L25.6297 18.0401C25.6297 18.0401 25.8697 17.6201 25.8497 17.5301C25.8797 17.5201 26.1397 17.9301 26.1397 17.9301C26.1397 17.9301 26.3397 17.2901 26.3397 17.2201C26.3697 17.2101 26.6097 17.6601 26.6097 17.6601C26.6097 17.6601 26.7597 17.3701 26.8497 17.1801C26.9197 17.2001 26.9897 17.2101 27.0497 17.2301C27.0997 17.3001 27.1397 17.3701 27.1397 17.3701C27.1397 17.3701 27.1597 17.3301 27.1897 17.2801C27.4697 17.3901 27.7197 17.5201 27.9697 17.6401L27.9197 17.8001L28.2197 18.1101C28.2197 18.1101 28.2797 17.9501 28.3297 17.8001C28.5397 17.8801 28.7897 17.9401 29.0997 17.9701Z" fill="#00247D"/>
<path d="M30.118 21.8931C30.009 21.9071 29.878 21.9111 29.752 21.9161V22.0081C29.862 21.9801 29.993 21.9401 30.118 21.8931Z" fill="#00247D"/>
<path d="M24.984 15.1139L24.847 15.0189L24.281 15.1809L24.554 14.8019L24.241 14.6399L24.887 14.2609L25.024 14.0079L25.906 14.0619C25.906 14.0619 25.67 13.7719 25.71 13.8269C25.75 13.8809 26.61 14.0079 26.61 14.0079L26.866 13.9719L27.727 14.2609L27.022 13.7369L26.415 13.6279L26.807 13.3389L26.31 13.1739C26.186 13.1639 26.07 13.1489 25.926 13.1489C24.137 13.1489 24.137 14.0719 22.319 14.0719C21.989 14.0719 21.732 14.0349 21.5 13.9849V15.8309C21.732 15.8809 21.989 15.9179 22.319 15.9179C23.736 15.9179 24.058 15.3609 24.984 15.1139Z" fill="#00247D"/>
<path d="M38.4395 11.6202C38.0495 11.8002 37.6095 11.9602 36.8595 11.9602C35.0495 11.9602 35.0495 11.0602 33.2295 11.0602C33.1195 11.0602 33.0295 11.0802 32.9395 11.0802H32.9295C32.9095 11.0202 33.1495 10.8402 33.1495 10.8402H32.6995L32.5995 10.5702L32.1095 10.7002L31.7795 10.7202L31.2895 11.2402L31.0695 10.7902L30.7395 11.8102C30.6795 11.8402 30.5995 11.8502 30.5295 11.8702L30.4695 11.7902L30.4395 11.8902C30.1995 11.9502 29.9295 11.9902 29.5895 11.9902C29.5095 11.9902 29.4395 11.9802 29.3695 11.9702L29.5495 11.4602L29.2295 11.3902C29.2295 11.3902 29.2895 10.8302 29.2695 10.7702C29.2495 10.7202 28.7995 10.9702 28.7995 10.9702L28.1595 10.2302L28.2395 10.9502L27.7995 11.0402L28.3295 11.6002L27.8995 11.5902C27.3995 11.3402 26.9395 11.0602 25.9495 11.0602C24.1395 11.0602 24.1395 11.9902 22.3195 11.9902C21.9895 11.9902 21.7295 11.9502 21.4995 11.9002V12.1902H18.6895L21.4995 10.3702V10.0502C21.7295 10.1002 21.9895 10.1402 22.3195 10.1402C24.1395 10.1402 24.1395 9.22021 25.9295 9.22021C27.7695 9.22021 27.7695 10.1402 29.5295 10.1402C31.4095 10.1402 31.4095 9.22021 33.2295 9.22021C35.0495 9.22021 35.0495 10.2002 36.8595 10.2002C37.2395 10.2002 37.5295 10.1502 37.7795 10.0902C38.1195 10.5402 38.3395 11.0602 38.4395 11.6202Z" fill="#00247D"/>
<path d="M29.1004 22.0049V21.9009C28.8844 21.8779 28.6894 21.8439 28.5234 21.7949C28.5404 21.8039 28.5604 21.8169 28.5764 21.8259C28.7354 21.9109 28.9414 21.9649 29.1004 22.0059V22.0049Z" fill="#00247D"/>
<path d="M33.6447 13.1768L33.7957 13.3928L33.2287 13.5548L33.3067 13.8618L32.3657 13.9888L32.3857 14.3138L31.5827 14.4408L31.4847 14.7478L30.9367 14.9288L31.1917 15.1268C31.1917 15.1268 30.7207 15.2718 30.7807 15.2888C30.8397 15.3078 31.4657 15.3608 31.4657 15.3608C31.4657 15.3608 31.3667 15.4418 31.2897 15.5128C31.7877 15.2638 32.2407 14.9928 33.2277 14.9928C35.0477 14.9928 35.0477 15.8868 36.8657 15.8868C37.6547 15.8868 38.0987 15.7148 38.5007 15.5238V13.7298C38.0987 13.9398 37.6547 14.1268 36.8637 14.1268C35.2037 14.1268 35.0447 13.3168 33.6447 13.1758V13.1768Z" fill="#00247D"/>
<path d="M30.4453 14.3321L31.1703 13.8081C31.1703 13.8081 31.5303 13.5871 31.8283 13.4121C31.5383 13.5351 31.2833 13.6761 30.9903 13.8001L30.5443 14.0431L30.4453 14.3321Z" fill="#00247D"/>
<path d="M26.2517 15.0138C26.2207 14.9048 26.1727 14.7468 26.1597 14.7838C26.1467 14.8198 25.9437 14.9298 25.8027 15.0038C25.8547 15.0028 25.8937 14.9938 25.9487 14.9938C26.0627 14.9938 26.1507 15.0068 26.2517 15.0138Z" fill="#00247D"/>
<path d="M29.1026 15.822L29.0966 15.813C29.0966 15.813 29.0776 15.844 29.0566 15.882C29.0706 15.884 29.0886 15.883 29.1026 15.885V15.822Z" fill="#00247D"/>
<path d="M29.8008 15.8672C29.8008 15.8672 29.7998 15.8842 29.7988 15.9032C29.8138 15.9032 29.8278 15.9012 29.8418 15.9002L29.8008 15.8672Z" fill="#00247D"/>
<path d="M26.274 26.343C26.274 26.189 26.549 26.051 26.989 25.94C26.812 25.919 26.698 25.893 26.683 25.864C26.566 25.629 26.626 25.158 26.626 25.158C26.66 25.147 26.693 25.142 26.726 25.132C26.726 25.127 26.724 25.115 26.721 25.092L26.571 25.158C26.571 25.158 26.546 25.077 26.515 24.976C26.34 24.953 26.148 24.938 25.927 24.938C24.138 24.938 24.138 25.861 22.32 25.861C20.502 25.861 20.502 24.938 18.683 24.938C16.864 24.938 16.865 25.861 15.047 25.861C13.229 25.861 13.229 24.938 11.411 24.938C9.59295 24.938 9.59295 25.861 7.77495 25.861C5.95695 25.861 5.95695 24.938 4.13795 24.938C3.34695 24.938 2.90395 25.113 2.50195 25.311V27.157C2.90395 26.959 3.34795 26.784 4.13795 26.784C5.95595 26.784 5.95595 27.707 7.77495 27.707C9.59395 27.707 9.59295 26.784 11.411 26.784C13.229 26.784 13.229 27.707 15.047 27.707C16.865 27.707 16.865 26.784 18.683 26.784C20.501 26.784 20.501 27.707 22.32 27.707C24.139 27.707 24.138 26.784 25.949 26.784C27.59 26.784 27.767 27.524 29.103 27.675V26.977C27.517 26.944 26.274 26.675 26.274 26.343Z" fill="#00247D"/>
<path d="M33.226 24.937C32.857 24.937 32.576 24.981 32.326 25.042C32.306 25.108 32.29 25.157 32.29 25.157L32.142 25.092C32.14 25.11 32.139 25.117 32.138 25.124C32.181 25.137 32.224 25.143 32.267 25.157C32.267 25.157 32.327 25.629 32.208 25.863C32.193 25.894 32.067 25.92 31.875 25.942C32.308 26.052 32.578 26.19 32.578 26.342C32.578 26.674 31.335 26.942 29.748 26.975V27.695C31.397 27.638 31.47 26.783 33.227 26.783C35.047 26.783 35.047 27.677 36.865 27.677C37.654 27.675 38.098 27.505 38.5 27.314V25.52C38.098 25.73 37.654 25.917 36.863 25.917C35.046 25.917 35.045 24.937 33.226 24.937Z" fill="#00247D"/>
<path d="M26.5108 22.717C26.8448 22.538 27.1568 22.682 27.1568 22.682C27.1568 22.682 27.2958 22.374 27.7838 22.374C28.2718 22.374 28.3908 22.609 28.6848 22.718C28.8228 22.769 28.9758 22.807 29.1018 22.834V22.384C28.8528 22.335 28.4488 22.225 28.0778 21.986C27.7198 21.755 26.9618 21.47 26.3748 21.933C26.1208 22.131 26.0598 22.529 26.1098 22.864C26.2018 22.867 26.2888 22.873 26.3718 22.881C26.4048 22.816 26.4418 22.755 26.5108 22.718V22.717Z" fill="#00247D"/>
<path d="M3.162 10.1572C3.162 10.1572 3.12 10.2112 3.035 10.3462C2.958 10.4692 2.891 10.5982 2.829 10.7302C2.824 10.7402 2.817 10.7502 2.812 10.7612C2.723 10.9562 2.658 11.1612 2.607 11.3722C2.607 11.3742 2.606 11.3772 2.605 11.3802C2.605 11.3842 2.603 11.3882 2.602 11.3912C2.591 11.4372 2.581 11.4832 2.572 11.5292C2.529 11.7452 2.5 11.9652 2.5 12.1922H6.313L3.162 10.1572Z" fill="#00247D"/>
<path d="M9.50048 10.871V8.5H6.50048C6.18048 8.5 5.89648 8.542 5.89648 8.542L9.50048 10.871Z" fill="#00247D"/>
<path d="M9.50003 18.1289L5.83203 20.4999H9.50003V18.1289Z" fill="#00247D"/>
<path d="M6.385 16.8081H2.5V19.3611L6.385 16.8081Z" fill="#00247D"/>
<path d="M14.5 17.4819V20.4999H19.168L14.5 17.4819Z" fill="#00247D"/>
<path d="M14.5 11.518L19.169 8.5H14.5V11.518Z" fill="#00247D"/>
<path d="M8.937 16.8083H9.5V17.5663L4.961 20.5003H5.832L9.5 18.1293V20.5003H10.5V15.8853H2.5V16.8083H6.385L2.5 19.3613V20.5003H3.234L8.937 16.8083Z" fill="#EEEEEE"/>
<path d="M10.5 8.50002H9.5V10.871L5.896 8.54102C5.864 8.54602 5.835 8.55902 5.803 8.56402C5.602 8.59702 5.41 8.65102 5.22 8.71002C5.139 8.73502 5.054 8.75002 4.975 8.78002C4.715 8.87802 4.47 9.00002 4.245 9.14402C4.239 9.14802 4.231 9.15002 4.224 9.15402L4.228 9.15702L4.343 9.23102L5.78 10.159L8.926 12.191H7.19L3.467 9.78302C3.375 9.88202 3.293 9.98702 3.213 10.094C3.202 10.109 3.188 10.123 3.177 10.138C3.172 10.144 3.167 10.15 3.162 10.156L6.313 12.191H2.5V13.114H10.5V8.50002Z" fill="#EEEEEE"/>
<path d="M16.07 16.8083H17.813L21.5 19.1913V18.6273L18.685 16.8083H21.5V15.8853H13.5V20.5003H14.5V17.4823L19.168 20.5003H21.5V20.3173L16.07 16.8083Z" fill="#EEEEEE"/>
<path d="M13.5 13.115H21.5V12.192H18.686L21.5 10.373V10.054V8.683L16.071 12.192H14.5V12.081L20.039 8.5H19.169L14.5 11.518V8.5H13.5V13.115Z" fill="#EEEEEE"/>
<path d="M10.5 15.885V20.5H13.5V15.885H21.5V15.83V13.984V13.115H13.5V8.5H10.5V13.115H2.5V15.885H10.5Z" fill="#CF1B2B"/>
<path d="M7.1898 12.1918H8.9248L5.7798 10.1598L4.3428 9.23179L4.2278 9.15779L4.2238 9.15479C4.1948 9.17379 4.1738 9.20079 4.1458 9.21979C4.1258 9.23279 4.1108 9.25079 4.0908 9.26479C3.9068 9.39479 3.7328 9.53579 3.5758 9.69279C3.5708 9.69779 3.5638 9.70179 3.5588 9.70779C3.5308 9.73579 3.4938 9.75479 3.4668 9.78379L7.1898 12.1918Z" fill="#CF1B2B"/>
<path d="M14.5 12.081V12.192H16.071L21.5 8.683V8.5H20.039L14.5 12.081Z" fill="#CF1B2B"/>
<path d="M17.8133 16.8081H16.0703L21.5003 20.3171V19.7601V19.1911L17.8133 16.8081Z" fill="#CF1B2B"/>
<path d="M9.50037 17.5661V16.8081H8.93738L3.23438 20.5001H4.96137L9.50037 17.5661Z" fill="#CF1B2B"/>
</svg>
