<svg width="41" height="41" viewBox="0 0 41 41" fill="none" xmlns="http://www.w3.org/2000/svg">
<path d="M34.5 8.5H6.5C4.29086 8.5 2.5 10.2909 2.5 12.5V28.5C2.5 30.7091 4.29086 32.5 6.5 32.5H34.5C36.7091 32.5 38.5 30.7091 38.5 28.5V12.5C38.5 10.2909 36.7091 8.5 34.5 8.5Z" fill="#E3E7EA"/>
<path d="M12.8016 14.5L23.1046 20.5H38.4996V12.495C38.4996 10.289 36.7116 8.5 34.5046 8.5H6.49458C5.55358 8.5 4.69958 8.839 4.01758 9.384L12.8026 14.5H12.8016Z" fill="#70AEE0"/>
<path d="M38.5006 28.504V20.5H23.1056L12.8026 26.5L4.01758 31.616C4.70058 32.161 5.55458 32.5 6.49558 32.5H34.5046C36.7116 32.5 38.5006 30.711 38.5006 28.504Z" fill="#00B136"/>
<path d="M9.36847 18.0996L9.90247 19.7586H11.6315L10.2325 20.7836L10.7675 22.4416L9.36847 21.4166L7.97047 22.4416L8.50447 20.7836L7.10547 19.7586H8.83447L9.36847 18.0996Z" fill="#FF0010"/>
</svg>
