<svg width="41" height="41" viewBox="0 0 41 41" fill="none" xmlns="http://www.w3.org/2000/svg">
<path d="M15.309 17.5H2.5V19.5H14.59C14.711 18.781 14.957 18.107 15.309 17.5Z" fill="#F9CF00"/>
<path d="M26.4104 19.5H38.5004V17.5H25.6914C26.0434 18.107 26.2904 18.781 26.4104 19.5Z" fill="#F9CF00"/>
<path d="M19.514 8.50002H17.541V15.284C18.142 14.942 18.807 14.705 19.514 14.587V8.50002Z" fill="#F9CF00"/>
<path d="M17.541 25.7158V32.4998H19.514V26.4118C18.807 26.2948 18.142 26.0578 17.541 25.7158Z" fill="#F9CF00"/>
<path d="M25.6914 23.5H38.5004V21.5H26.4104C26.2894 22.219 26.0434 22.893 25.6914 23.5Z" fill="#E3E7EA"/>
<path d="M14.59 21.5H2.5V23.5H15.309C14.957 22.892 14.711 22.218 14.59 21.5Z" fill="#E3E7EA"/>
<path d="M23.4591 25.7158C22.8581 26.0568 22.1941 26.2948 21.4871 26.4118V32.4998H6.49414H34.5071H23.4591V25.7158Z" fill="#E3E7EA"/>
<path d="M21.4863 14.588C22.1933 14.705 22.8583 14.943 23.4583 15.284V8.5H21.4863V14.588Z" fill="#E3E7EA"/>
<path d="M20.886 22.1013C20.87 22.1543 20.833 22.2093 20.791 22.2563C20.802 22.2683 20.815 22.2723 20.825 22.2893C20.818 22.2893 20.819 22.2973 20.812 22.2993C20.812 22.2993 20.815 22.2993 20.816 22.2993C20.886 22.2993 20.948 22.3143 21.01 22.3373C20.984 22.2453 20.956 22.1503 20.935 22.0693C20.917 22.0773 20.905 22.0953 20.886 22.1013Z" fill="#D50038"/>
<path d="M20.4805 20.9313C20.5405 20.9553 20.5995 20.9843 20.6575 21.0213C20.6055 20.9403 20.5555 20.8603 20.5055 20.7793C20.4905 20.8423 20.4845 20.8893 20.4805 20.9313Z" fill="#D50038"/>
<path d="M26.411 19.5C26.29 18.781 26.044 18.107 25.692 17.5C25.158 16.578 24.387 15.811 23.46 15.284C22.859 14.943 22.195 14.705 21.488 14.588C21.166 14.535 20.838 14.5 20.502 14.5C20.166 14.5 19.837 14.535 19.516 14.588C18.809 14.705 18.144 14.943 17.543 15.285C16.616 15.812 15.846 16.578 15.311 17.501C14.959 18.108 14.712 18.782 14.592 19.501C14.537 19.827 14.502 20.159 14.502 20.501C14.502 20.843 14.537 21.175 14.592 21.501C14.713 22.22 14.959 22.894 15.311 23.501C15.845 24.423 16.616 25.189 17.543 25.717C18.144 26.059 18.809 26.296 19.516 26.414C19.838 26.467 20.166 26.502 20.502 26.502C20.838 26.502 21.167 26.467 21.488 26.414C22.195 26.297 22.86 26.059 23.46 25.718C24.387 25.191 25.158 24.425 25.692 23.502C26.044 22.894 26.29 22.22 26.411 21.502C26.466 21.176 26.501 20.844 26.501 20.502C26.501 20.16 26.466 19.828 26.411 19.502V19.5ZM20.332 15.664L20.501 15.14L20.672 15.665H21.224L20.775 15.985L20.946 16.513L20.501 16.188L20.055 16.513L20.228 15.989L19.777 15.664H20.332ZM16.409 21.996L16.238 22.525L16.067 21.998L15.517 22L15.965 21.674L15.794 21.149L16.236 21.476L16.686 21.151L16.514 21.676L16.961 21.998L16.409 21.996ZM16.514 19.084L16.686 19.609L16.241 19.283L15.792 19.61L15.963 19.083L15.517 18.761H16.07L16.24 18.235L16.406 18.76H16.961L16.514 19.084ZM17.421 16.14L17.868 16.465L18.315 16.141L18.14 16.663L18.588 16.989H18.036L17.867 17.513L17.699 16.988H17.144L17.592 16.663L17.421 16.14ZM18.313 24.621L17.865 24.295L17.421 24.619L17.592 24.094L17.145 23.77L17.695 23.773L17.867 23.246L18.037 23.771H18.589L18.141 24.092L18.313 24.621ZM20.67 25.096L20.501 25.619L20.33 25.094H19.778L20.226 24.773L20.056 24.246L20.501 24.572L20.946 24.246L20.773 24.77L21.224 25.096H20.67ZM22.339 22.928C22.266 22.84 22.162 22.732 22.04 22.61C22.056 22.921 22.082 23.219 22.095 23.318C22.111 23.455 22.095 23.652 22.019 23.67C22.088 24.184 21.933 24.227 21.822 24.168C21.573 24.098 21.461 23.695 21.384 23.498C21.342 23.391 21.238 23.08 21.134 22.746C21.12 22.741 21.105 22.733 21.091 22.728C20.951 22.681 20.903 22.696 20.826 22.709C20.832 22.711 20.837 22.718 20.843 22.719C20.809 22.762 20.724 22.856 20.612 22.829C20.573 22.82 20.548 22.794 20.522 22.77C20.449 22.822 20.367 22.821 20.285 22.767V22.786C20.253 22.838 20.126 22.878 20.037 22.834V22.837C19.921 22.843 19.832 22.775 19.78 22.668C19.603 22.64 19.412 22.601 19.247 22.556C19.213 22.591 18.956 22.608 18.775 22.616C18.673 22.547 18.656 22.418 18.656 22.35C18.656 22.281 18.698 22.213 18.784 22.213C18.87 22.213 19.085 22.117 19.222 22.109C19.358 22.101 19.689 22.159 19.811 22.202C19.861 22.131 19.928 22.089 19.997 22.078C19.894 21.839 19.839 21.437 19.854 21.151C19.593 20.791 19.399 20.39 19.449 20.168C19.423 20.164 19.385 20.16 19.342 20.147C19.351 20.117 19.367 19.967 19.372 19.877C19.346 19.877 19.299 19.877 19.26 19.864C19.269 19.808 19.286 19.645 19.286 19.572C19.243 19.559 19.191 19.516 19.153 19.473C19.182 19.396 19.26 19.246 19.299 19.156C19.235 19.148 19.188 19.083 19.166 19.045C19.222 19.011 19.295 18.912 19.324 18.852C19.277 18.813 19.222 18.758 19.213 18.732C19.273 18.676 19.449 18.484 19.526 18.377C19.478 18.377 19.462 18.373 19.422 18.364C19.486 18.339 19.56 18.244 19.646 18.163C19.72 18.227 19.827 18.253 19.933 18.254C19.828 18.254 19.72 18.227 19.646 18.163C19.616 18.149 19.6 18.145 19.574 18.117C19.617 18.095 19.689 18.027 19.728 17.975C19.728 17.974 19.728 17.973 19.728 17.971C19.728 17.971 19.728 17.972 19.726 17.973C19.585 17.956 19.531 17.89 19.508 17.82C19.458 17.893 19.422 17.977 19.43 18.081C19.147 17.882 19.129 17.302 19.443 17.219C19.443 17.219 19.444 17.219 19.445 17.219C19.472 16.873 19.934 16.744 20.242 16.796C20.696 16.873 20.687 17.13 20.897 17.143L20.884 17.22C20.936 17.272 21.064 17.362 21.193 17.4C21.193 17.4 21.155 17.516 21.116 17.554C21.181 17.593 21.31 17.696 21.373 17.76C21.348 17.798 21.283 17.876 21.283 17.876C21.322 17.991 21.399 18.107 21.476 18.171C21.437 18.197 21.399 18.222 21.36 18.261C21.373 18.363 21.437 18.467 21.514 18.53C21.463 18.568 21.437 18.62 21.424 18.658C21.422 18.66 21.419 18.665 21.417 18.667C21.484 18.719 21.547 18.78 21.605 18.853C22.08 19.457 22.389 21.116 22.338 22.929L22.339 22.928ZM22.688 16.139L23.136 16.464L23.58 16.14L23.409 16.666L23.855 16.99L23.306 16.985L23.134 17.513L22.964 16.988H22.412L22.859 16.667L22.688 16.139ZM23.581 24.619L23.134 24.293L22.686 24.619L22.861 24.096L22.413 23.77H22.965L23.134 23.246L23.302 23.771H23.857L23.409 24.096L23.581 24.619ZM24.592 18.763L24.763 18.234L24.934 18.761H25.483L25.036 19.084L25.207 19.61L24.765 19.283L24.316 19.608L24.487 19.083L24.04 18.76L24.592 18.763ZM24.932 21.998L24.761 22.523L24.595 21.998H24.041L24.487 21.674L24.316 21.15L24.76 21.476L25.209 21.149L25.038 21.676L25.484 21.998H24.932Z" fill="#D50038"/>
<path d="M17.541 15.284V8.5H6.5C4.291 8.5 2.5 10.291 2.5 12.5V17.5H15.309C15.843 16.578 16.614 15.812 17.541 15.284Z" fill="#00693F"/>
<path d="M23.459 25.716V32.5H34.502C36.711 32.5 38.501 30.709 38.501 28.5V23.5H25.692C25.158 24.422 24.386 25.189 23.459 25.716Z" fill="#00693F"/>
<path d="M34.5 8.5H23.459V15.284C24.386 15.811 25.157 16.577 25.691 17.5H38.5V12.5C38.5 10.291 36.709 8.5 34.5 8.5Z" fill="#00693F"/>
<path d="M15.309 23.5H2.5V28.5C2.5 30.709 4.29 32.499 6.499 32.5H17.541V25.716C16.614 25.189 15.844 24.423 15.309 23.5Z" fill="#00693F"/>
<path d="M17.5906 16.6626L17.1426 16.9886L17.6976 16.9876L17.8656 17.5126L18.0346 16.9876L18.5866 16.9886L18.1386 16.6626L18.3136 16.1406L17.8666 16.4646L17.4196 16.1396L17.5906 16.6626Z" fill="#00693F"/>
<path d="M23.4081 24.0961L23.8561 23.7701L23.3011 23.7711L23.1331 23.2461L22.9641 23.7711L22.4121 23.7701L22.8601 24.0961L22.6851 24.6191L23.1331 24.2931L23.5801 24.6191L23.4081 24.0961Z" fill="#00693F"/>
<path d="M16.0656 21.9984L16.2366 22.5254L16.4076 21.9964L16.9596 21.9984L16.5126 21.6764L16.6846 21.1514L16.2346 21.4764L15.7926 21.1494L15.9636 21.6744L15.5156 22.0004L16.0656 21.9984Z" fill="#00693F"/>
<path d="M16.4046 18.7604L16.2386 18.2354L16.0686 18.7614H15.5156L15.9616 19.0834L15.7906 19.6104L16.2396 19.2834L16.6846 19.6094L16.5126 19.0844L16.9596 18.7614L16.4046 18.7604Z" fill="#00693F"/>
<path d="M24.5931 21.9984L24.7591 22.5234L24.9301 21.9984H25.4821L25.0361 21.6764L25.2071 21.1494L24.7581 21.4764L24.3141 21.1504L24.4851 21.6744L24.0391 21.9984H24.5931Z" fill="#00693F"/>
<path d="M24.7621 18.2344L24.5911 18.7634L24.0391 18.7604L24.4861 19.0834L24.3151 19.6084L24.7641 19.2834L25.2061 19.6104L25.0351 19.0844L25.4821 18.7604L24.9331 18.7614L24.7621 18.2344Z" fill="#00693F"/>
<path d="M18.0365 23.7711L17.8665 23.2461L17.6945 23.7731L17.1445 23.7701L17.5915 24.0941L17.4205 24.6191L17.8645 24.2951L18.3125 24.6211L18.1405 24.0921L18.5885 23.7701L18.0365 23.7711Z" fill="#00693F"/>
<path d="M20.0534 16.5126L20.4994 16.1876L20.9444 16.5126L20.7734 15.9846L21.2224 15.6646H20.6704L20.4994 15.1396L20.3304 15.6636H19.7754L20.2264 15.9886L20.0534 16.5126Z" fill="#00693F"/>
<path d="M20.9453 24.2461L20.5003 24.5721L20.0553 24.2461L20.2253 24.7731L19.7773 25.0941H20.3293L20.5003 25.6191L20.6693 25.0961H21.2233L20.7723 24.7701L20.9453 24.2461Z" fill="#00693F"/>
<path d="M22.9622 16.9877L23.1322 17.5127L23.3042 16.9847L23.8532 16.9897L23.4072 16.6657L23.5782 16.1397L23.1342 16.4637L22.6862 16.1387L22.8572 16.6667L22.4102 16.9887L22.9622 16.9877Z" fill="#00693F"/>
<path d="M21.416 18.6673C20.926 18.2873 20.225 18.4453 20.01 18.9043C19.906 19.1233 19.892 19.6453 19.996 19.8693C20.079 20.0473 20.274 20.4043 20.504 20.7813C20.553 20.8623 20.604 20.9423 20.656 21.0233C20.598 20.9863 20.539 20.9563 20.479 20.9333C20.478 20.9443 20.472 20.9643 20.472 20.9743C20.427 21.1733 20.336 21.4893 20.259 21.6243C20.116 21.4963 19.979 21.3283 19.852 21.1523C19.837 21.4383 19.892 21.8413 19.995 22.0793C20.047 22.0703 20.098 22.0733 20.143 22.0993C20.223 22.0593 20.315 22.0453 20.395 22.1103C20.391 22.1133 20.389 22.1223 20.386 22.1263C20.481 22.1053 20.58 22.1213 20.642 22.1963C20.695 22.1883 20.746 22.2103 20.79 22.2573C20.831 22.2103 20.868 22.1553 20.885 22.1023C20.904 22.0963 20.916 22.0783 20.934 22.0703C20.955 22.1513 20.983 22.2463 21.009 22.3383C21.069 22.3603 21.128 22.3893 21.192 22.4193C21.321 22.4793 21.484 22.5133 21.621 22.4973C21.767 22.4873 21.853 22.6343 21.825 22.7553C21.8 22.8763 21.731 22.9873 21.62 22.9523C21.517 22.9213 21.306 22.8113 21.132 22.7473C21.236 23.0823 21.341 23.3923 21.382 23.4993C21.459 23.6963 21.571 24.0993 21.82 24.1693C21.931 24.2283 22.086 24.1853 22.017 23.6713C22.093 23.6533 22.109 23.4563 22.093 23.3193C22.08 23.2203 22.054 22.9233 22.038 22.6113C22.16 22.7333 22.264 22.8413 22.337 22.9293C22.388 21.1163 22.079 19.4573 21.604 18.8533C21.547 18.7803 21.483 18.7193 21.416 18.6673Z" fill="#00693F"/>
<path d="M21.5134 18.5301C21.4364 18.4661 21.3724 18.3631 21.3594 18.2611C21.3014 18.2831 21.1664 18.2651 21.0904 18.2471C21.0804 18.2451 21.0634 18.2431 21.0564 18.2411C20.8864 18.2961 20.7344 18.3181 20.5954 18.3101C20.4564 18.3011 20.3294 18.2611 20.2074 18.1911C20.1394 18.2291 20.0354 18.2541 19.9304 18.2531C19.8244 18.2531 19.7174 18.2261 19.6434 18.1621C19.5574 18.2431 19.4834 18.3381 19.4194 18.3631C19.4594 18.3721 19.4754 18.3761 19.5234 18.3761C19.4464 18.4831 19.2704 18.6751 19.2104 18.7311C19.2194 18.7571 19.2744 18.8121 19.3214 18.8511C19.2924 18.9111 19.2194 19.0101 19.1634 19.0441C19.1854 19.0821 19.2324 19.1471 19.2964 19.1551C19.2574 19.2451 19.1794 19.3951 19.1504 19.4721C19.1884 19.5151 19.2404 19.5581 19.2834 19.5711C19.2834 19.6441 19.2664 19.8071 19.2574 19.8631C19.2964 19.8761 19.3434 19.8761 19.3694 19.8761C19.3644 19.9661 19.3484 20.1161 19.3394 20.1461C19.3824 20.1591 19.4204 20.1631 19.4464 20.1671C19.3964 20.3891 19.5904 20.7901 19.8514 21.1501C19.9784 21.3251 20.1154 21.4931 20.2584 21.6221C20.3354 21.4871 20.4264 21.1711 20.4714 20.9721C20.4714 20.9621 20.4774 20.9431 20.4784 20.9311C20.4824 20.8891 20.4884 20.8431 20.5034 20.7801C20.2734 20.4031 20.0794 20.0461 19.9954 19.8681C19.8914 19.6441 19.9054 19.1221 20.0094 18.9031C20.2254 18.4451 20.9264 18.2861 21.4154 18.6661C21.4174 18.6641 21.4204 18.6591 21.4224 18.6571C21.4354 18.6191 21.4614 18.5671 21.5124 18.5291L21.5134 18.5301Z" fill="#7D76B6"/>
<path d="M20.2074 18.1903C20.3294 18.2613 20.4564 18.3013 20.5954 18.3103C20.7344 18.3193 20.8854 18.2963 21.0564 18.2413C21.0634 18.2433 21.0804 18.2453 21.0894 18.2473C21.1654 18.2653 21.3004 18.2833 21.3584 18.2613C21.3974 18.2223 21.4354 18.1973 21.4744 18.1713C21.3974 18.1073 21.3204 17.9913 21.2814 17.8763C21.2814 17.8763 21.3464 17.7983 21.3714 17.7603C21.3084 17.6963 21.1794 17.5933 21.1144 17.5543C21.1534 17.5163 21.1914 17.4003 21.1914 17.4003C21.0624 17.3623 20.9344 17.2723 20.8824 17.2203L20.8954 17.1433C20.6854 17.1303 20.6944 16.8733 20.2404 16.7963C19.9314 16.7443 19.4704 16.8733 19.4434 17.2193C19.6144 17.3853 19.8744 17.6093 19.7274 17.9703C19.7274 17.9713 19.7274 17.9723 19.7274 17.9743C19.6884 18.0263 19.6164 18.0943 19.5734 18.1163C19.5994 18.1443 19.6164 18.1483 19.6464 18.1623C19.7194 18.2263 19.8264 18.2523 19.9324 18.2533C20.0384 18.2543 20.1414 18.2293 20.2094 18.1913L20.2074 18.1903ZM20.0614 17.0903C20.2924 17.0903 20.2864 17.4373 20.0614 17.4373C19.8364 17.4373 19.8304 17.0903 20.0614 17.0903Z" fill="#7D76B6"/>
<path d="M19.4433 17.2197C19.4433 17.2197 19.4423 17.2188 19.4413 17.2188C19.1273 17.3017 19.1453 17.8817 19.4283 18.0807C19.4203 17.9767 19.4563 17.8927 19.5063 17.8197C19.5293 17.8897 19.5833 17.9557 19.7243 17.9727C19.7243 17.9727 19.7243 17.9718 19.7263 17.9708C19.8733 17.6088 19.6143 17.3868 19.4423 17.2208L19.4433 17.2197Z" fill="white"/>
<path d="M20.67 22.5384C20.67 22.4644 20.685 22.3264 20.811 22.2984C20.817 22.2974 20.817 22.2894 20.824 22.2884C20.814 22.2724 20.801 22.2674 20.79 22.2554C20.746 22.2084 20.694 22.1864 20.642 22.1944C20.58 22.1194 20.481 22.1034 20.386 22.1244C20.389 22.1204 20.391 22.1114 20.395 22.1084C20.315 22.0434 20.223 22.0574 20.143 22.0974C20.098 22.0714 20.047 22.0684 19.995 22.0774C19.926 22.0894 19.859 22.1304 19.809 22.2014C19.774 22.2524 19.745 22.3124 19.735 22.3914C19.721 22.5014 19.741 22.5924 19.778 22.6674C19.83 22.7744 19.919 22.8424 20.035 22.8364V22.8334C20.124 22.8774 20.251 22.8374 20.284 22.7854V22.7664C20.365 22.8204 20.447 22.8214 20.52 22.7694C20.546 22.7934 20.571 22.8194 20.61 22.8284C20.722 22.8554 20.807 22.7614 20.841 22.7184C20.835 22.7184 20.83 22.7104 20.824 22.7084C20.745 22.6884 20.67 22.6084 20.67 22.5384Z" fill="white"/>
<path d="M19.8093 22.2021C19.6873 22.1591 19.3563 22.1011 19.2203 22.1091C19.0833 22.1171 18.8683 22.2131 18.7823 22.2131C18.6963 22.2131 18.6543 22.2811 18.6543 22.3501C18.6543 22.4181 18.6713 22.5471 18.7733 22.6161C18.9543 22.6081 19.2113 22.5911 19.2453 22.5561C19.4103 22.6011 19.6003 22.6401 19.7783 22.6681C19.7423 22.5931 19.7213 22.5021 19.7353 22.3921C19.7453 22.3131 19.7733 22.2531 19.8093 22.2021Z" fill="#FFD420"/>
<path d="M21.6199 22.9508C21.7309 22.9858 21.7999 22.8748 21.8249 22.7538C21.8529 22.6328 21.7669 22.4858 21.6209 22.4958C21.4839 22.5118 21.3209 22.4778 21.1919 22.4178C21.1279 22.3878 21.0689 22.3588 21.0089 22.3368C20.9469 22.3138 20.8839 22.2988 20.8149 22.2988H20.8109C20.6849 22.3268 20.6699 22.4648 20.6699 22.5388C20.6699 22.6088 20.7449 22.6888 20.8239 22.7088C20.9009 22.6948 20.9489 22.6798 21.0889 22.7278C21.1019 22.7318 21.1179 22.7408 21.1319 22.7458C21.3059 22.8098 21.5169 22.9198 21.6199 22.9508Z" fill="#FFD420"/>
<path d="M20.0616 17.4368C20.2866 17.4368 20.2926 17.0898 20.0616 17.0898C19.8306 17.0898 19.8366 17.4368 20.0616 17.4368ZM20.0616 17.2198C20.1196 17.2198 20.1176 17.3068 20.0616 17.3058C20.0056 17.3058 20.0036 17.2198 20.0616 17.2198Z" fill="#FFD420"/>
<path d="M14.5 20.5C14.5 20.158 14.535 19.826 14.59 19.5H2.5V21.5H14.59C14.535 21.174 14.5 20.842 14.5 20.5Z" fill="black"/>
<path d="M26.5002 20.5C26.5002 20.841 26.4652 21.174 26.4102 21.5H38.5002V19.5H26.4102C26.4652 19.826 26.5002 20.158 26.5002 20.5Z" fill="black"/>
<path d="M19.5137 26.4121V32.5001H21.4867V26.4121C21.1647 26.4651 20.8367 26.5001 20.5007 26.5001C20.1647 26.5001 19.8347 26.4651 19.5137 26.4121Z" fill="black"/>
<path d="M20.5007 14.5C20.8377 14.5 21.1657 14.535 21.4867 14.588V8.5H19.5137V14.588C19.8357 14.535 20.1647 14.5 20.5007 14.5Z" fill="black"/>
<path d="M20.0623 17.2197C20.0043 17.2197 20.0063 17.3057 20.0623 17.3057C20.1183 17.3067 20.1203 17.2197 20.0623 17.2197Z" fill="black"/>
</svg>
