<svg width="41" height="41" viewBox="0 0 41 41" fill="none" xmlns="http://www.w3.org/2000/svg">
<path d="M38.1855 30.0569C38.3875 29.5789 38.4995 29.0549 38.4995 28.5039C38.4995 29.0549 38.3865 29.5799 38.1855 30.0569Z" fill="#E3E7EA"/>
<path d="M36.0571 32.1855C35.9171 32.2445 35.7661 32.2785 35.6191 32.3215C35.7661 32.2785 35.9181 32.2445 36.0571 32.1855Z" fill="#E3E7EA"/>
<path d="M21.7027 21.7384C21.7027 21.7384 21.7527 21.9384 21.7527 22.0894C21.8337 22.0284 21.9457 21.9964 22.0517 21.9754C22.0077 21.8744 21.9527 21.7314 21.9527 21.6384C21.9027 21.4384 22.1027 21.2874 22.1027 21.2874C22.1027 21.2874 22.2027 21.4874 22.2527 21.6384C22.3017 21.5724 22.3727 21.5214 22.4457 21.4774C22.3687 21.3944 22.2377 21.2434 22.2027 21.1374C22.1527 20.9874 22.3527 20.7864 22.3527 20.7864C22.3527 20.7864 22.5027 20.9364 22.6027 21.0864C22.6397 21.0114 22.7067 20.9324 22.7737 20.8594C22.6847 20.8014 22.5807 20.7204 22.5527 20.6364C22.4027 20.4864 22.5027 20.2354 22.5027 20.2354C22.5027 20.2354 22.7027 20.3354 22.8027 20.4354C22.8187 20.3564 22.8557 20.2744 22.8977 20.1964C22.7967 20.1584 22.6477 20.0984 22.5527 20.0344C22.4527 19.8844 22.4527 19.6834 22.4527 19.6834C22.4527 19.6834 22.6527 19.7334 22.8037 19.8334C22.8037 19.7354 22.8287 19.6254 22.8567 19.5244C22.7417 19.5144 22.5917 19.4914 22.5037 19.4334C22.3537 19.3834 22.3037 19.1324 22.3037 19.1324C22.3037 19.1324 22.5037 19.1324 22.7047 19.1824C22.6637 19.0784 22.6597 18.9614 22.6657 18.8554C22.5617 18.8814 22.3887 18.9154 22.2537 18.8814C22.0537 18.8314 22.0037 18.6314 22.0037 18.6314C22.0037 18.6314 22.2037 18.5814 22.4047 18.5814C22.3257 18.4764 22.2757 18.3184 22.2447 18.1904L21.9037 18.5314V19.5834H20.9847L21.3027 20.0344L21.2927 20.0414L21.3957 20.1854H21.9037V21.1374C21.8537 21.5374 21.5527 21.6884 21.3027 21.6884H20.7517V20.8284L20.1007 21.2554V21.6894H19.5497C19.2997 21.6894 18.9987 21.5394 18.9487 21.1384V20.1864H19.4537L19.3997 20.0864L19.6167 19.9574L19.5497 19.8354L19.9927 19.5854H18.9987V18.5334L18.6967 18.2314C18.6647 18.3514 18.6187 18.4894 18.5477 18.5834C18.7477 18.5834 18.9487 18.6334 18.9487 18.6334C18.9487 18.6334 18.8487 18.8834 18.6987 18.8834C18.5567 18.9194 18.3667 18.8794 18.2677 18.8524C18.2707 18.9594 18.2687 19.0784 18.2477 19.1834C18.4477 19.1334 18.6487 19.1334 18.6487 19.1334C18.6487 19.1334 18.5987 19.3834 18.4487 19.4344C18.3607 19.4924 18.2107 19.5154 18.0957 19.5254C18.1237 19.6274 18.1487 19.7364 18.1487 19.8344C18.2987 19.7344 18.4997 19.6844 18.4997 19.6844C18.4997 19.6844 18.4997 19.8844 18.3997 20.0354C18.3047 20.0984 18.1557 20.1594 18.0547 20.1974C18.0967 20.2754 18.1337 20.3574 18.1497 20.4364C18.2497 20.3364 18.4497 20.2364 18.4497 20.2364C18.4497 20.2364 18.5497 20.4864 18.3997 20.6374C18.3717 20.7214 18.2667 20.8034 18.1787 20.8614C18.2457 20.9344 18.3117 21.0134 18.3497 21.0884C18.4497 20.9384 18.5997 20.7884 18.5997 20.7884C18.5997 20.7884 18.6997 20.9884 18.7497 21.1394C18.7147 21.2444 18.5827 21.3964 18.5067 21.4794C18.5797 21.5234 18.6507 21.5744 18.6997 21.6404C18.7497 21.4904 18.8497 21.2894 18.8497 21.2894C18.8497 21.2894 19.0497 21.4394 18.9997 21.6404C18.9997 21.7324 18.9447 21.8754 18.9007 21.9774C19.0067 21.9984 19.1187 22.0304 19.1997 22.0914C19.1997 21.9414 19.2497 21.7404 19.2497 21.7404C19.2497 21.7404 19.4497 21.8404 19.4997 21.9904C19.5167 22.0594 19.5157 22.1384 19.5077 22.2134C19.5727 22.1884 19.6227 22.1744 19.7007 22.1404C19.7187 22.1384 19.7377 22.1404 19.7557 22.1384C19.7517 22.0814 19.7507 22.0404 19.7507 22.0404C19.7507 22.0404 19.8037 22.0804 19.8687 22.1324C20.2457 22.1034 20.6357 22.1034 21.0147 22.1294C21.1067 22.0464 21.2037 22.0404 21.2037 22.0404C21.2037 22.0404 21.2037 22.0814 21.1987 22.1384C21.2167 22.1394 21.2357 22.1384 21.2537 22.1404C21.3307 22.1794 21.3837 22.1854 21.4477 22.1874C21.4427 22.1204 21.4397 22.0504 21.4547 21.9894C21.5047 21.8394 21.7047 21.7394 21.7047 21.7394L21.7027 21.7384Z" fill="#E3E7EA"/>
<path d="M20.7496 19.2538V18.6318H20.5996V19.2398L20.6996 19.1828L20.7496 19.2538Z" fill="#E3E7EA"/>
<path d="M23.511 17.719V8.5H17.49V17.721H2.5V23.24H17.489V32.499H34.5C34.777 32.499 35.048 32.47 35.309 32.417C35.049 32.47 34.78 32.498 34.504 32.498H23.51V23.238H38.5V17.719H23.511ZM23.555 22.238C23.505 22.388 23.405 22.589 23.254 22.689C23.204 22.739 23.154 22.789 23.104 22.789H23.004L22.954 22.739C22.854 22.839 22.804 22.939 22.704 23.09C22.604 23.14 22.504 23.24 22.353 23.29H22.103C22.003 23.24 21.953 23.24 21.903 23.19C21.853 23.14 21.753 23.14 21.753 23.04C21.753 22.94 21.753 22.94 21.803 22.84C21.768 22.84 21.534 22.766 21.381 22.722C21.338 22.747 21.296 22.773 21.252 22.79C21.352 22.89 21.502 23.04 21.502 23.04C21.502 23.04 21.302 23.14 21.151 23.09C21.001 23.04 20.8 22.739 20.8 22.739C20.8 22.739 20.802 22.694 20.805 22.638C20.586 22.628 20.357 22.634 20.144 22.648C20.147 22.699 20.148 22.738 20.148 22.738C20.148 22.738 19.948 23.039 19.797 23.089C19.647 23.139 19.446 23.039 19.446 23.039C19.446 23.039 19.596 22.889 19.696 22.789C19.66 22.775 19.626 22.753 19.59 22.733C19.458 22.782 19.27 22.839 19.195 22.839C19.195 22.939 19.345 23.039 19.095 23.19C19.045 23.24 18.995 23.29 18.895 23.29C18.745 23.29 18.544 23.29 18.394 23.14C18.244 22.99 18.194 22.94 18.093 22.739C18.043 22.789 18.043 22.839 17.893 22.789C17.843 22.789 17.743 22.689 17.743 22.689C17.593 22.589 17.493 22.388 17.442 22.238C17.392 22.088 17.292 21.938 17.192 21.838L17.142 21.788C17.192 21.788 17.292 21.838 17.342 21.838C17.392 21.888 17.442 21.888 17.492 21.938C17.442 21.788 17.442 21.688 17.392 21.537L17.442 21.587L17.492 21.637C17.592 21.737 17.692 21.837 17.792 21.988L17.842 22.088C17.892 22.038 17.942 22.038 18.042 22.088C18.092 22.138 18.142 22.188 18.192 22.238C18.292 22.338 18.392 22.488 18.442 22.589C18.642 22.489 18.743 22.439 18.943 22.389C18.955 22.386 18.97 22.381 18.982 22.378C18.891 22.307 18.801 22.209 18.73 22.122C18.629 22.151 18.484 22.189 18.391 22.189C18.241 22.189 18.09 21.989 18.09 21.989C18.09 21.989 18.29 21.939 18.441 21.889C18.369 21.794 18.31 21.665 18.267 21.556C18.156 21.564 18.021 21.566 17.94 21.539C17.74 21.439 17.69 21.239 17.69 21.239H18.041C17.998 21.154 17.976 21.034 17.962 20.922C17.863 20.901 17.693 20.857 17.59 20.788C17.44 20.688 17.44 20.437 17.44 20.437C17.44 20.437 17.64 20.487 17.791 20.487C17.771 20.387 17.777 20.275 17.789 20.172C17.699 20.128 17.593 20.065 17.54 19.986C17.44 19.886 17.49 19.635 17.49 19.635C17.49 19.635 17.64 19.685 17.79 19.785C17.79 19.699 17.829 19.586 17.871 19.484C17.78 19.416 17.625 19.289 17.59 19.184C17.54 19.034 17.64 18.833 17.64 18.833C17.64 18.833 17.79 18.983 17.89 19.083C17.941 18.956 18.029 18.83 18.105 18.736C18.032 18.649 17.94 18.524 17.94 18.432C17.94 18.282 18.09 18.081 18.09 18.081C18.09 18.081 18.24 18.231 18.29 18.382C18.39 18.182 18.741 17.981 18.741 17.981C18.741 17.981 18.73 18.048 18.713 18.131H20.093V18.331H20.293V18.03H20.593V18.331H20.743V18.131H22.223C22.206 18.048 22.195 17.981 22.195 17.981C22.195 17.981 22.546 18.181 22.646 18.382C22.671 18.306 22.722 18.231 22.766 18.174C22.714 18.161 22.666 18.149 22.596 18.131C22.446 18.081 22.296 18.031 22.195 17.981C22.145 17.981 22.095 17.931 22.045 17.881V17.781L22.095 17.681L21.744 17.581C21.444 17.481 21.043 17.581 20.843 17.531C20.643 17.481 20.743 17.281 20.743 17.18H20.042L20.092 17.38C20.092 17.43 19.992 17.48 19.942 17.48C19.742 17.53 19.491 17.43 19.041 17.53C18.891 17.53 18.841 17.58 18.69 17.63C18.69 17.73 18.74 17.78 18.69 17.83C18.49 18.03 17.989 18.03 17.738 18.181C17.638 18.231 17.538 18.331 17.437 18.381C17.487 18.281 17.537 18.231 17.587 18.131L17.637 18.031L17.286 18.081C17.336 18.031 17.336 17.981 17.436 17.931C17.586 17.831 17.737 17.781 17.887 17.731L18.137 17.631C18.037 17.431 18.037 17.381 18.237 17.28C18.588 17.03 19.088 16.929 19.539 16.929V16.829C19.639 16.779 19.689 16.779 19.789 16.779C20.14 16.779 20.59 16.729 20.941 16.779C21.041 16.779 21.141 16.779 21.191 16.829C21.291 16.929 21.241 17.079 21.241 17.079C21.241 17.079 21.542 17.079 21.692 17.129C21.842 17.129 22.043 17.179 22.193 17.229C22.293 17.229 22.694 17.429 22.744 17.53C22.794 17.58 22.744 17.63 22.694 17.73L23.145 17.88C23.245 17.93 23.446 18.03 23.496 18.13L23.145 18.08C23.195 18.18 23.345 18.381 23.345 18.431C23.161 18.308 23.065 18.262 22.931 18.22C22.962 18.279 22.994 18.346 22.994 18.431C22.994 18.524 22.902 18.649 22.829 18.735C22.905 18.829 22.993 18.955 23.044 19.082C23.144 18.982 23.294 18.832 23.294 18.832C23.294 18.832 23.394 19.032 23.344 19.183C23.309 19.288 23.154 19.415 23.063 19.483C23.105 19.585 23.144 19.698 23.144 19.784C23.294 19.684 23.445 19.634 23.445 19.634C23.445 19.634 23.495 19.884 23.395 19.985C23.343 20.064 23.237 20.127 23.146 20.172C23.158 20.275 23.164 20.387 23.144 20.486C23.294 20.436 23.495 20.436 23.495 20.436C23.495 20.436 23.495 20.686 23.345 20.787C23.242 20.856 23.072 20.899 22.973 20.921C22.959 21.033 22.937 21.153 22.894 21.238H23.245C23.245 21.238 23.195 21.438 22.995 21.538C22.914 21.565 22.779 21.563 22.668 21.555C22.625 21.665 22.566 21.793 22.494 21.888C22.644 21.938 22.845 21.988 22.845 21.988C22.845 21.988 22.695 22.188 22.545 22.188C22.452 22.188 22.308 22.151 22.206 22.121C22.151 22.188 22.081 22.256 22.012 22.319C22.19 22.37 22.361 22.434 22.545 22.538C22.745 22.288 22.896 21.937 23.146 22.087C23.196 22.037 23.146 22.037 23.246 21.937C23.246 21.887 23.296 21.837 23.346 21.787C23.446 21.687 23.496 21.587 23.596 21.487C23.596 21.537 23.546 21.637 23.546 21.687L23.496 21.887C23.596 21.837 23.646 21.787 23.847 21.787C23.697 21.937 23.597 22.037 23.547 22.238H23.555Z" fill="#E3E7EA"/>
<path d="M20.3006 18.6318H20.0996V19.5228L20.3006 19.4098V18.6318Z" fill="#E3E7EA"/>
<path d="M2.5 23.2412V28.5052C2.5 30.7122 4.289 32.5012 6.495 32.5012H17.489V23.2412H2.5Z" fill="#CF002E"/>
<path d="M38.5 17.7188V17.7197L38.501 17.7188H38.5Z" fill="#CF002E"/>
<path d="M38.5007 17.719V12.495C38.5007 10.288 36.7117 8.49902 34.5057 8.49902H23.5117V17.719H38.5007Z" fill="#CF002E"/>
<path d="M19.868 22.1291C19.803 22.0771 19.75 22.0371 19.75 22.0371C19.75 22.0371 19.75 22.0781 19.755 22.1351C19.792 22.1321 19.831 22.1321 19.868 22.1291Z" fill="#699635"/>
<path d="M19.4983 21.9875C19.4483 21.8375 19.2483 21.7375 19.2483 21.7375C19.2483 21.7375 19.1983 21.9375 19.1983 22.0885C19.1173 22.0275 19.0053 21.9955 18.8993 21.9745C18.9433 21.8735 18.9983 21.7305 18.9983 21.6375C19.0483 21.4375 18.8483 21.2865 18.8483 21.2865C18.8483 21.2865 18.7483 21.4865 18.6983 21.6375C18.6493 21.5715 18.5783 21.5205 18.5053 21.4765C18.5823 21.3935 18.7133 21.2425 18.7483 21.1365C18.6983 20.9865 18.5983 20.7855 18.5983 20.7855C18.5983 20.7855 18.4483 20.9355 18.3483 21.0855C18.3113 21.0105 18.2443 20.9315 18.1773 20.8585C18.2663 20.8005 18.3703 20.7195 18.3983 20.6345C18.5483 20.4845 18.4483 20.2335 18.4483 20.2335C18.4483 20.2335 18.2483 20.3335 18.1483 20.4335C18.1323 20.3545 18.0953 20.2725 18.0533 20.1945C18.1543 20.1565 18.3033 20.0965 18.3983 20.0325C18.4983 19.8825 18.4983 19.6815 18.4983 19.6815C18.4983 19.6815 18.2983 19.7315 18.1473 19.8315C18.1473 19.7335 18.1223 19.6235 18.0943 19.5225C18.2093 19.5125 18.3593 19.4895 18.4473 19.4315C18.5973 19.3815 18.6473 19.1305 18.6473 19.1305C18.6473 19.1305 18.4473 19.1305 18.2463 19.1805C18.2673 19.0755 18.2693 18.9565 18.2663 18.8495C18.3663 18.8755 18.5553 18.9155 18.6973 18.8805C18.8473 18.8805 18.9473 18.6305 18.9473 18.6305C18.9473 18.6305 18.7473 18.5805 18.5463 18.5805C18.6173 18.4865 18.6643 18.3485 18.6953 18.2285L18.5963 18.1295H18.7183C18.7353 18.0465 18.7463 17.9795 18.7463 17.9795C18.7463 17.9795 18.3953 18.1795 18.2953 18.3805C18.2453 18.2305 18.0953 18.0795 18.0953 18.0795C18.0953 18.0795 17.9453 18.2795 17.9453 18.4305C17.9453 18.5235 18.0373 18.6485 18.1103 18.7345C18.0343 18.8285 17.9463 18.9545 17.8953 19.0815C17.7953 18.9815 17.6453 18.8315 17.6453 18.8315C17.6453 18.8315 17.5453 19.0315 17.5953 19.1825C17.6303 19.2875 17.7853 19.4145 17.8763 19.4825C17.8343 19.5845 17.7953 19.6975 17.7953 19.7835C17.6453 19.6835 17.4953 19.6335 17.4953 19.6335C17.4953 19.6335 17.4453 19.8835 17.5453 19.9845C17.5973 20.0635 17.7033 20.1265 17.7943 20.1705C17.7823 20.2735 17.7763 20.3855 17.7963 20.4855C17.6463 20.4855 17.4453 20.4355 17.4453 20.4355C17.4453 20.4355 17.4453 20.6855 17.5953 20.7865C17.6983 20.8555 17.8683 20.8985 17.9673 20.9205C17.9813 21.0325 18.0033 21.1525 18.0463 21.2375H17.6953C17.6953 21.2375 17.7453 21.4375 17.9453 21.5375C18.0263 21.5645 18.1613 21.5625 18.2723 21.5545C18.3153 21.6645 18.3743 21.7925 18.4463 21.8875C18.2963 21.9375 18.0953 21.9875 18.0953 21.9875C18.0953 21.9875 18.2453 22.1875 18.3963 22.1875C18.4893 22.1875 18.6333 22.1505 18.7353 22.1205C18.8063 22.2075 18.8963 22.3055 18.9873 22.3765C19.1313 22.3405 19.2983 22.2885 19.5063 22.2095C19.5143 22.1345 19.5163 22.0555 19.4983 21.9865V21.9875Z" fill="#699635"/>
<path d="M19.6992 22.6885C19.6742 22.7005 19.6372 22.7165 19.5932 22.7325C19.6282 22.7525 19.6632 22.7745 19.6992 22.7885C19.5992 22.8885 19.4492 23.0385 19.4492 23.0385C19.4492 23.0385 19.6492 23.1385 19.8002 23.0885C19.9502 23.0385 20.1512 22.7375 20.1512 22.7375C20.1512 22.7375 20.1502 22.6975 20.1472 22.6475C19.9822 22.6585 19.8252 22.6725 19.7012 22.6875L19.6992 22.6885Z" fill="#699635"/>
<path d="M21.3798 22.7207C21.3168 22.7027 21.2658 22.6887 21.2508 22.6887C21.1198 22.6597 20.9658 22.6457 20.8058 22.6377C20.8018 22.6937 20.8008 22.7387 20.8008 22.7387C20.8008 22.7387 21.0008 23.0397 21.1518 23.0897C21.3018 23.1397 21.5028 23.0397 21.5028 23.0397C21.5028 23.0397 21.3528 22.8897 21.2528 22.7897C21.2968 22.7717 21.3388 22.7467 21.3818 22.7217L21.3798 22.7207Z" fill="#699635"/>
<path d="M21.2007 22.0371C21.2007 22.0371 21.1047 22.0421 21.0117 22.1261C21.0727 22.1301 21.1357 22.1291 21.1957 22.1351C21.1997 22.0781 21.2007 22.0371 21.2007 22.0371Z" fill="#699635"/>
<path d="M23.3545 20.7855C23.5045 20.6855 23.5045 20.4345 23.5045 20.4345C23.5045 20.4345 23.3045 20.4345 23.1535 20.4845C23.1735 20.3845 23.1675 20.2725 23.1555 20.1705C23.2455 20.1265 23.3515 20.0625 23.4045 19.9835C23.5045 19.8835 23.4545 19.6325 23.4545 19.6325C23.4545 19.6325 23.3045 19.6825 23.1535 19.7825C23.1535 19.6965 23.1145 19.5835 23.0725 19.4815C23.1635 19.4135 23.3185 19.2865 23.3535 19.1815C23.4035 19.0315 23.3035 18.8305 23.3035 18.8305C23.3035 18.8305 23.1535 18.9805 23.0535 19.0805C23.0025 18.9535 22.9145 18.8275 22.8385 18.7335C22.9115 18.6465 23.0035 18.5215 23.0035 18.4295C23.0035 18.3455 22.9715 18.2775 22.9405 18.2185C22.8935 18.2045 22.8365 18.1875 22.7735 18.1715C22.7295 18.2275 22.6785 18.3035 22.6535 18.3795C22.5535 18.1795 22.2025 17.9785 22.2025 17.9785C22.2025 17.9785 22.2135 18.0455 22.2305 18.1285H22.3025L22.2425 18.1885C22.2735 18.3175 22.3235 18.4745 22.4025 18.5795C22.2025 18.5795 22.0015 18.6295 22.0015 18.6295C22.0015 18.6295 22.0515 18.8295 22.2515 18.8795C22.3865 18.9135 22.5595 18.8795 22.6635 18.8535C22.6575 18.9595 22.6615 19.0765 22.7025 19.1805C22.5025 19.1305 22.3015 19.1305 22.3015 19.1305C22.3015 19.1305 22.3515 19.3805 22.5015 19.4315C22.5895 19.4895 22.7395 19.5125 22.8545 19.5225C22.8265 19.6245 22.8015 19.7335 22.8015 19.8315C22.6515 19.7315 22.4505 19.6815 22.4505 19.6815C22.4505 19.6815 22.4505 19.8815 22.5505 20.0325C22.6455 20.0955 22.7945 20.1565 22.8955 20.1945C22.8535 20.2725 22.8165 20.3545 22.8005 20.4335C22.7005 20.3335 22.5005 20.2335 22.5005 20.2335C22.5005 20.2335 22.4005 20.4835 22.5505 20.6345C22.5785 20.7185 22.6835 20.8005 22.7715 20.8575C22.7045 20.9305 22.6385 21.0095 22.6005 21.0845C22.5005 20.9345 22.3505 20.7845 22.3505 20.7845C22.3505 20.7845 22.1505 20.9845 22.2005 21.1355C22.2355 21.2405 22.3675 21.3925 22.4435 21.4755C22.3705 21.5195 22.2995 21.5705 22.2505 21.6365C22.2005 21.4865 22.1005 21.2855 22.1005 21.2855C22.1005 21.2855 21.9005 21.4355 21.9505 21.6365C21.9505 21.7285 22.0055 21.8715 22.0495 21.9735C21.9435 21.9945 21.8315 22.0265 21.7505 22.0875C21.7505 21.9375 21.7005 21.7365 21.7005 21.7365C21.7005 21.7365 21.5005 21.8365 21.4505 21.9865C21.4355 22.0475 21.4385 22.1165 21.4435 22.1845C21.4625 22.1845 21.4775 22.1875 21.5005 22.1875C21.6915 22.2355 21.8575 22.2715 22.0195 22.3185C22.0885 22.2555 22.1595 22.1875 22.2135 22.1205C22.3145 22.1495 22.4595 22.1875 22.5525 22.1875C22.7025 22.1875 22.8525 21.9875 22.8525 21.9875C22.8525 21.9875 22.6525 21.9375 22.5015 21.8875C22.5735 21.7925 22.6325 21.6635 22.6755 21.5545C22.7865 21.5625 22.9215 21.5645 23.0025 21.5375C23.2025 21.4375 23.2525 21.2375 23.2525 21.2375H22.9015C22.9445 21.1525 22.9665 21.0325 22.9805 20.9205C23.0795 20.8995 23.2485 20.8555 23.3525 20.7865L23.3545 20.7855Z" fill="#699635"/>
<path d="M17.49 8.5H6.495C4.288 8.5 2.5 10.289 2.5 12.496V17.721H17.49V8.5Z" fill="#002D62"/>
<path d="M23.5098 23.2393V32.4993H34.5038C34.7798 32.4993 35.0488 32.4713 35.3088 32.4183C35.4158 32.3963 35.5138 32.3523 35.6178 32.3223C35.7648 32.2793 35.9168 32.2453 36.0558 32.1863C37.0128 31.7823 37.7798 31.0153 38.1848 30.0583C38.3868 29.5803 38.4978 29.0553 38.4978 28.5043V23.2393H23.5078H23.5098Z" fill="#002D62"/>
<path d="M18.5977 18.1318L18.6967 18.2308L18.9977 18.5318V19.5838H19.9917L20.0997 19.5228V18.6318H19.9497V18.3318H20.0997V18.1318H18.7197H18.5977Z" fill="#002D62"/>
<path d="M21.503 20.3346L20.752 20.8266V21.6866H21.303C21.553 21.6866 21.854 21.5366 21.904 21.1356V20.1836H21.396L21.503 20.3346Z" fill="#002D62"/>
<path d="M23.1539 17.881L22.7029 17.731C22.7529 17.631 22.8029 17.581 22.7529 17.531C22.7029 17.431 22.3019 17.23 22.2019 17.23C22.0519 17.18 21.8509 17.13 21.7009 17.13C21.5509 17.08 21.2499 17.08 21.2499 17.08C21.2499 17.08 21.2999 16.93 21.1999 16.83C21.1499 16.78 21.0499 16.78 20.9499 16.78C20.5989 16.73 20.1489 16.78 19.7979 16.78C19.6979 16.78 19.6479 16.78 19.5479 16.83V16.93C19.0969 16.93 18.5959 17.03 18.2459 17.281C18.0459 17.381 18.0459 17.431 18.1459 17.632L17.8959 17.732C17.7459 17.782 17.5959 17.832 17.4449 17.932C17.3449 17.982 17.3449 18.032 17.2949 18.082L17.6459 18.032L17.5959 18.132C17.5459 18.232 17.4959 18.282 17.4459 18.382C17.5459 18.332 17.6459 18.232 17.7469 18.182C17.9969 18.032 18.4979 18.032 18.6989 17.831C18.7489 17.781 18.6989 17.731 18.6989 17.631C18.8489 17.581 18.8989 17.531 19.0499 17.531C19.5009 17.431 19.7509 17.531 19.9509 17.481C20.0009 17.481 20.1009 17.431 20.1009 17.381L20.0509 17.181H20.7519C20.7519 17.281 20.6519 17.481 20.8519 17.532C21.0519 17.582 21.4529 17.482 21.7529 17.582L22.1039 17.682L22.0539 17.782V17.882C22.1039 17.932 22.1539 17.982 22.2039 17.982C22.3039 18.032 22.4539 18.082 22.6049 18.132C22.6749 18.15 22.7229 18.162 22.7749 18.175C22.8379 18.191 22.8949 18.207 22.9419 18.222C23.0759 18.264 23.1719 18.31 23.3559 18.433C23.3559 18.383 23.2059 18.183 23.1559 18.082L23.5069 18.132C23.4569 18.032 23.2569 17.932 23.1559 17.882L23.1539 17.881Z" fill="#002D62"/>
<path d="M20.901 18.6318H20.75V19.2538L20.983 19.5838H21.902V18.5318L22.243 18.1908L22.303 18.1318H22.231H20.75V18.3318H20.901V18.6318Z" fill="#CE1126"/>
<path d="M19.4523 20.1846H18.9473V21.1366C18.9973 21.5366 19.2983 21.6876 19.5483 21.6876H20.0993V21.2536L20.0493 21.2866L19.4523 20.1846Z" fill="#CE1126"/>
<path d="M23.5555 21.6883C23.5555 21.6383 23.6055 21.5383 23.6055 21.4883C23.5055 21.5883 23.4555 21.6883 23.3555 21.7883C23.3055 21.8383 23.2555 21.8883 23.2555 21.9383C23.1555 22.0383 23.2055 22.0383 23.1555 22.0883C22.9055 21.9383 22.7545 22.2883 22.5545 22.5393C22.3705 22.4343 22.1995 22.3713 22.0215 22.3203C21.8595 22.2733 21.6935 22.2373 21.5025 22.1893C21.4795 22.1893 21.4645 22.1873 21.4455 22.1863C21.3815 22.1843 21.3295 22.1773 21.2515 22.1393C21.2335 22.1373 21.2145 22.1393 21.1965 22.1373C21.1365 22.1313 21.0735 22.1323 21.0125 22.1283C20.6335 22.1023 20.2435 22.1023 19.8665 22.1313C19.8295 22.1343 19.7905 22.1333 19.7535 22.1373C19.7355 22.1383 19.7165 22.1373 19.6985 22.1393C19.6205 22.1733 19.5705 22.1873 19.5055 22.2123C19.2975 22.2913 19.1305 22.3433 18.9865 22.3793C18.9745 22.3823 18.9595 22.3873 18.9475 22.3903C18.7475 22.4403 18.6465 22.4903 18.4465 22.5903C18.3965 22.4903 18.2965 22.3403 18.1965 22.2393C18.1465 22.1893 18.0965 22.1393 18.0465 22.0893C17.9465 22.0393 17.8965 22.0393 17.8465 22.0893L17.7965 21.9893C17.6965 21.8393 17.5965 21.7393 17.4965 21.6383L17.4465 21.5883L17.3965 21.5383C17.4465 21.6883 17.4465 21.7883 17.4965 21.9393C17.4465 21.8893 17.3965 21.8893 17.3465 21.8393C17.2965 21.8393 17.1965 21.7893 17.1465 21.7893L17.1965 21.8393C17.2965 21.9393 17.3965 22.0893 17.4465 22.2393C17.4965 22.3893 17.5965 22.5903 17.7475 22.6903C17.7475 22.6903 17.8475 22.7903 17.8975 22.7903C18.0475 22.8403 18.0475 22.7903 18.0975 22.7403C18.1975 22.9403 18.2475 22.9903 18.3985 23.1413C18.5485 23.2913 18.7495 23.2913 18.8995 23.2913C18.9995 23.2913 19.0495 23.2413 19.0995 23.1913C19.3495 23.0413 19.1995 22.9413 19.1995 22.8403C19.2745 22.8403 19.4635 22.7833 19.5945 22.7343C19.6375 22.7183 19.6755 22.7023 19.7005 22.6903C19.8245 22.6743 19.9815 22.6613 20.1465 22.6503C20.3595 22.6363 20.5875 22.6293 20.8075 22.6403C20.9675 22.6473 21.1215 22.6613 21.2525 22.6913C21.2675 22.6913 21.3185 22.7053 21.3815 22.7233C21.5345 22.7673 21.7675 22.8413 21.8035 22.8413C21.7702 22.9079 21.7535 22.9746 21.7535 23.0413C21.7535 23.1413 21.8535 23.1413 21.9035 23.1913C21.9535 23.2413 22.0035 23.2413 22.1035 23.2913H22.3535C22.5035 23.2413 22.6035 23.1413 22.7045 23.0913C22.8045 22.9413 22.8545 22.8413 22.9545 22.7403L23.0045 22.7903H23.1045C23.1545 22.7903 23.2045 22.7403 23.2545 22.6903C23.4045 22.5903 23.5045 22.3893 23.5555 22.2393C23.6055 22.0393 23.7055 21.9393 23.8555 21.7883C23.6555 21.7883 23.6055 21.8383 23.5045 21.8883L23.5555 21.6883Z" fill="#CE1126"/>
<path d="M19.9492 18.6322H20.0992H20.3002V19.4102L20.6002 19.2402V18.6322H20.7502H20.9012V18.3323H20.7502H20.6002V18.0312H20.3002V18.3323H20.0992H19.9492V18.6322Z" fill="#EAC102"/>
<path d="M20.0994 20.8361L19.6154 19.9561L19.3984 20.0851L19.4524 20.1851L20.0494 21.2871L20.0994 21.2541L20.7504 20.8271L21.5024 20.3351L21.3944 20.1851L21.2924 20.0411L20.0994 20.8361Z" fill="#201B18"/>
<path d="M19.6158 19.9556L20.0998 20.8356L21.2928 20.0406L21.3018 20.0346L20.9838 19.5836L20.7508 19.2536L20.7008 19.1826L20.6008 19.2396L20.3008 19.4096L20.0998 19.5226L19.9918 19.5836L19.5488 19.8336L19.6158 19.9556Z" fill="#C9C9C9"/>
</svg>
