<svg width="41" height="41" viewBox="0 0 41 41" fill="none" xmlns="http://www.w3.org/2000/svg">
<path d="M34.5 8.5H6.5C4.29086 8.5 2.5 10.2909 2.5 12.5V28.5C2.5 30.7091 4.29086 32.5 6.5 32.5H34.5C36.7091 32.5 38.5 30.7091 38.5 28.5V12.5C38.5 10.2909 36.7091 8.5 34.5 8.5Z" fill="#E3E7EA"/>
<path d="M21.799 20.5003L20.502 18.7373V22.2633L21.799 20.5003Z" fill="#E3E7EA"/>
<path d="M18.1732 23.4996C18.7982 24.2696 19.6142 24.7976 20.5002 25.0736V15.9346C19.9462 16.1086 19.4112 16.3716 18.9302 16.7516C16.8352 18.4086 16.4962 21.4296 18.1732 23.4996Z" fill="#007831"/>
<path d="M17.464 25.696C14.559 24.039 13.563 20.369 15.241 17.499C16.365 15.576 18.404 14.506 20.501 14.504V8.5H6.495C4.288 8.5 2.5 10.289 2.5 12.496V28.505C2.5 30.712 4.289 32.501 6.495 32.501H20.5V26.496C19.467 26.497 18.421 26.244 17.463 25.697L17.464 25.696Z" fill="#007831"/>
<path d="M20.5019 25.0739C19.6159 24.7979 18.7989 24.2699 18.1749 23.4999C16.4979 21.4299 16.8369 18.4089 18.9319 16.7519C19.4129 16.3719 19.9479 16.1089 20.5019 15.9349C22.3609 15.3529 24.4689 15.9049 25.7619 17.4989C25.2289 16.5879 24.4619 15.8299 23.5389 15.3029C22.5809 14.7559 21.5349 14.5029 20.5029 14.5039C18.4059 14.5059 16.3669 15.5759 15.2429 17.4989C13.5649 20.3689 14.5609 24.0389 17.4659 25.6959C18.4239 26.2429 19.4709 26.4959 20.5029 26.4949C22.5999 26.4929 24.6389 25.4219 25.7629 23.4999C25.5399 23.7749 25.2859 24.0259 25.0069 24.2469C23.6919 25.2869 21.9979 25.5409 20.5039 25.0749L20.5019 25.0739Z" fill="#D3003B"/>
<path d="M22.6 21.5885L23.897 23.3525V21.1725L25.995 20.4995L23.897 19.8255V17.6455L22.6 19.4085L20.502 18.7365L21.799 20.4995L20.502 22.2625L22.6 21.5885Z" fill="#D3003B"/>
</svg>
