<svg width="41" height="41" viewBox="0 0 41 41" fill="none" xmlns="http://www.w3.org/2000/svg">
<path d="M34.5 8.5H6.5C4.3 8.5 2.5 10.3 2.5 12.5V20.5H15.7V19.2C15.148 19.2 14.7 18.976 14.7 18.7C14.7 18.424 15.148 18.2 15.7 18.2C15.797 18.2 15.886 18.215 15.975 18.228C16.315 17.662 16.932 17.3 17.6 17.3H20.061C20.202 17.24 20.348 17.2 20.5 17.2C20.5 16.2 19 15.3 17.1 15.3C16.7 15.3 16.3 15.3 15.9 15.4C16.399 14.568 17.938 13.742 19.535 14.581C19.523 14.52 19.499 14.461 19.499 14.4C19.499 13.9 19.899 14.4 20.499 14.4C21.099 14.4 21.499 13.9 21.499 14.4C21.499 14.456 21.477 14.509 21.467 14.565C23.111 13.663 24.597 14.563 25.099 15.4C24.699 15.4 24.299 15.3 23.899 15.3C21.999 15.3 20.5 16.2 20.5 17.2C20.652 17.2 20.796 17.24 20.938 17.3H23.399C24.116 17.3 24.7 17.685 25.024 18.228C25.113 18.215 25.202 18.2 25.299 18.2C25.851 18.2 26.299 18.424 26.299 18.7C26.299 18.976 25.851 19.2 25.299 19.2V20.5H38.499V12.5C38.499 10.3 36.7 8.5 34.5 8.5ZM16.6 16.3C17.152 16.3 17.6 16.524 17.6 16.8C17.6 17.076 17.152 17.3 16.6 17.3C16.048 17.3 15.6 17.076 15.6 16.8C15.6 16.524 16.048 16.3 16.6 16.3ZM24.4 17.3C23.848 17.3 23.4 17.076 23.4 16.8C23.4 16.524 23.848 16.3 24.4 16.3C24.952 16.3 25.4 16.524 25.4 16.8C25.4 17.076 24.952 17.3 24.4 17.3Z" fill="#F9CF00"/>
<path d="M25.3 22.1C25.3 23.2 24.4 24 23.4 24H20.5C22.102 24 23.4 24.448 23.4 25C23.4 25.303 23 25.572 22.381 25.755C22.387 25.803 22.4 25.853 22.4 25.9C22.4 26.161 22.297 26.353 22.133 26.5H38.5V20.5H25.3V22.1Z" fill="#233990"/>
<path d="M18.6 25.9C18.6 25.854 18.613 25.804 18.619 25.755C18 25.572 17.6 25.303 17.6 25C17.6 24.448 18.898 24 20.5 24H17.6C16.5 24 15.7 23.1 15.7 22.1V20.5H2.5V26.5H18.867C18.703 26.353 18.6 26.161 18.6 25.9Z" fill="#233990"/>
<path d="M20.5 26.9C19.826 26.9 19.205 26.804 18.867 26.5H2.5V28.5C2.5 30.7 4.3 32.5 6.5 32.5H34.5C36.7 32.5 38.5 30.7 38.5 28.5V26.5H22.133C21.795 26.804 21.174 26.9 20.5 26.9Z" fill="#CF002E"/>
<path d="M21.7185 18.0108C22.0925 17.8728 22.3475 17.6658 22.4005 17.3998C23.6005 17.4998 23.4005 17.8998 23.4005 18.1998C23.4005 18.2738 23.3875 18.3448 23.3625 18.4128C23.9915 18.7358 24.4005 19.3888 24.4005 20.0998V21.0998C24.4005 22.1998 23.5005 23.9998 22.5005 23.9998H23.4005C24.4005 23.9998 25.3005 23.1998 25.3005 22.0998V19.1998C24.7485 19.1998 24.3005 18.9758 24.3005 18.6998C24.3005 18.4728 24.6095 18.2888 25.0255 18.2278C24.7015 17.6848 24.1175 17.2998 23.4005 17.2998H20.9395C21.2325 17.4248 21.4945 17.6738 21.7185 18.0108Z" fill="#FFDD00"/>
<path d="M17.6002 23.9998H18.6002C17.5002 23.9998 16.7002 22.1998 16.7002 21.0998V20.0998C16.7002 19.3608 17.1102 18.7648 17.6792 18.4478C17.6322 18.3658 17.6002 18.2838 17.6002 18.1998C17.6002 17.8998 17.4002 17.5998 18.6002 17.3998C18.6542 17.6158 18.9172 17.8298 19.3012 17.9828C19.5202 17.6608 19.7772 17.4208 20.0622 17.2998H17.6012C16.9332 17.2998 16.3162 17.6618 15.9762 18.2278C16.3922 18.2888 16.7012 18.4728 16.7012 18.6998C16.7012 18.9758 16.2532 19.1998 15.7012 19.1998V22.0998C15.7012 23.0998 16.5002 23.9998 17.6002 23.9998Z" fill="#FFDD00"/>
<path d="M23.8994 15.2996C24.2994 15.2996 24.6994 15.3996 25.0994 15.3996C24.5964 14.5626 23.1114 13.6616 21.4674 14.5646C21.3904 15.0026 21.0324 15.3996 20.4994 15.3996C19.9734 15.3996 19.6184 15.0126 19.5354 14.5806C17.9384 13.7406 16.3994 14.5666 15.9004 15.3996C16.3004 15.2996 16.7004 15.2996 17.1004 15.2996C19.0004 15.2996 20.5004 16.1996 20.5004 17.1996C20.5004 16.1996 21.9994 15.2996 23.8994 15.2996Z" fill="#662113"/>
<path d="M19.3013 17.9832C19.1023 18.2752 18.9393 18.6352 18.8193 19.0472C18.7003 19.4562 18.6283 19.9112 18.6113 20.3962C19.0093 20.1992 19.5043 20.1002 20.0003 20.1002C20.0823 20.1002 20.1633 20.1192 20.2453 20.1262C20.3283 20.1152 20.4093 20.1002 20.5003 20.1002C20.9233 20.1002 21.2813 20.2322 21.4273 20.4182C21.7843 20.5722 22.1123 20.7652 22.3793 20.9852C22.3873 20.8572 22.4013 20.7322 22.4013 20.6002C22.4013 20.0462 22.3203 19.5302 22.1883 19.0682C22.0723 18.6602 21.9133 18.3032 21.7193 18.0112C21.4963 17.6752 21.2333 17.4252 20.9393 17.3002C20.7983 17.2402 20.6523 17.2002 20.5003 17.2002C20.3483 17.2002 20.2033 17.2402 20.0613 17.3002C19.7763 17.4212 19.5193 17.6612 19.3003 17.9832H19.3013Z" fill="#8ED2E7"/>
<path d="M21.7846 23.0908C21.4476 23.6008 20.9986 23.8998 20.4996 23.8998C19.5086 23.8998 18.6186 22.4248 18.6026 20.5488C18.6026 20.5668 18.5996 20.5828 18.5996 20.5998C18.5996 22.4778 19.4506 23.9998 20.4996 23.9998C20.9966 23.9998 21.4456 23.6498 21.7846 23.0908Z" fill="#8ED2E7"/>
<path d="M21.9001 22.8809C21.8631 22.9479 21.8291 23.0219 21.7891 23.0839C21.8281 23.0189 21.8641 22.9509 21.9001 22.8809Z" fill="#8ED2E7"/>
<path d="M18.1124 18.8114C18.2934 18.9034 18.5264 18.9834 18.8194 19.0474C18.9384 18.6354 19.1024 18.2764 19.3014 17.9834C18.9174 17.8304 18.6544 17.6164 18.6004 17.4004C17.4004 17.6004 17.6004 17.9004 17.6004 18.2004C17.6004 18.2844 17.6324 18.3674 17.6794 18.4484C17.7554 18.5794 17.8984 18.7024 18.1124 18.8114Z" fill="#6DBE46"/>
<path d="M23.3627 18.4134C23.3877 18.3454 23.4007 18.2744 23.4007 18.2004C23.4007 17.9004 23.6007 17.5004 22.4007 17.4004C22.3477 17.6664 22.0928 17.8734 21.7188 18.0114C21.9128 18.3034 22.0717 18.6604 22.1877 19.0684C22.4917 19.0104 22.7307 18.9334 22.9137 18.8394C23.1477 18.7204 23.2997 18.5784 23.3617 18.4124L23.3627 18.4134Z" fill="#6DBE46"/>
<path d="M18.6006 20.5006C18.6006 20.5176 18.6036 20.5326 18.6036 20.5496C18.6196 22.4256 19.5096 23.9006 20.5006 23.9006C20.9996 23.9006 21.4486 23.6016 21.7856 23.0916C21.7866 23.0896 21.7886 23.0876 21.7896 23.0856C21.8306 23.0236 21.8636 22.9496 21.9006 22.8826C22.1716 22.3876 22.3566 21.7476 22.4006 21.0016C22.3946 20.9966 22.3856 20.9916 22.3786 20.9866C22.1116 20.7676 21.7836 20.5736 21.4266 20.4196C21.4706 20.4766 21.4996 20.5366 21.4996 20.6016C21.4996 20.8776 21.0516 21.1016 20.4996 21.1016C19.9476 21.1016 19.4996 20.8776 19.4996 20.6016C19.4996 20.3706 19.8196 20.1846 20.2446 20.1276C20.1626 20.1206 20.0816 20.1016 19.9996 20.1016C19.5036 20.1016 19.0096 20.2006 18.6106 20.3976C18.6076 20.3996 18.6026 20.3996 18.5996 20.4016V20.5016L18.6006 20.5006Z" fill="#6DBE46"/>
<path d="M22.381 25.755C23 25.572 23.4 25.303 23.4 25C23.4 24.448 22.102 24 20.5 24C21.442 24 22.285 24.973 22.381 25.755Z" fill="#FFCC4D"/>
<path d="M17.5996 25C17.5996 25.303 17.9996 25.572 18.6186 25.755C18.7146 24.973 19.5576 24 20.4996 24C18.8976 24 17.5996 24.448 17.5996 25Z" fill="#FFCC4D"/>
<path d="M24.4 21.1001V20.1001C24.4 19.3891 23.991 18.7351 23.362 18.4131C23.3 18.5791 23.148 18.7211 22.914 18.8401C23.217 19.1831 23.4 19.6291 23.4 20.1011V21.1011C23.4 22.2011 22.5 24.0011 21.5 24.0011H22.5C23.5 24.0011 24.4 22.2001 24.4 21.1001Z" fill="#034EA2"/>
<path d="M17.5992 21.1002V20.1002C17.5992 19.5862 17.8002 19.1432 18.1112 18.8112C17.8972 18.7022 17.7542 18.5792 17.6782 18.4482C17.1092 18.7652 16.6992 19.3612 16.6992 20.1002V21.1002C16.6992 22.2002 17.4992 24.0002 18.5992 24.0002H19.4992C18.3992 24.0002 17.5992 22.2002 17.5992 21.1002Z" fill="#034EA2"/>
<path d="M21.5 25.9C21.5 26.7 21.1 26.9 20.5 26.9C21.174 26.9 21.795 26.804 22.133 26.5C22.297 26.353 22.4 26.161 22.4 25.9C22.4 25.854 22.387 25.804 22.381 25.755C22.285 24.973 21.442 24 20.5 24C21.1 24 21.5 25.1 21.5 25.9Z" fill="#034EA2"/>
<path d="M18.6186 25.755C18.6126 25.803 18.5996 25.853 18.5996 25.9C18.5996 26.161 18.7026 26.353 18.8666 26.5C19.2046 26.804 19.8256 26.9 20.4996 26.9C19.8996 26.9 19.4996 26.7 19.4996 25.9C19.4996 25.1 19.8996 24 20.4996 24C19.5576 24 18.7146 24.973 18.6186 25.755Z" fill="#034EA2"/>
<path d="M18.5996 20.5995C18.5996 20.5815 18.6026 20.5655 18.6026 20.5485C18.6026 20.5315 18.5996 20.5165 18.5996 20.4995V20.3995C18.5996 20.3995 18.6076 20.3975 18.6106 20.3955C18.6266 19.9095 18.6996 19.4555 18.8186 19.0465C18.5256 18.9835 18.2926 18.9025 18.1116 18.8105C17.8006 19.1425 17.5996 19.5855 17.5996 20.0995V21.0995C17.5996 22.1995 18.3996 23.9995 19.4996 23.9995H20.4996C19.4506 23.9995 18.5996 22.4775 18.5996 20.5995Z" fill="#ED1C23"/>
<path d="M23.399 21.0999V20.0999C23.399 19.6279 23.216 19.1829 22.913 18.8389C22.73 18.9319 22.49 19.0089 22.187 19.0679C22.318 19.5299 22.4 20.0459 22.4 20.5999C22.4 20.7319 22.387 20.8569 22.378 20.9849C22.385 20.9899 22.393 20.9949 22.4 20.9999C22.356 21.7459 22.172 22.3869 21.9 22.8809C21.864 22.9509 21.828 23.0189 21.789 23.0839C21.788 23.0859 21.786 23.0879 21.785 23.0899C21.446 23.6499 20.997 23.9989 20.5 23.9989H21.5C22.5 23.9989 23.4 22.1989 23.4 21.0989L23.399 21.0999Z" fill="#ED1C23"/>
<path d="M19.5 25.9C19.5 26.7 19.9 26.9 20.5 26.9C21.1 26.9 21.5 26.7 21.5 25.9C21.5 25.1 21.1 24 20.5 24C19.9 24 19.5 25.1 19.5 25.9Z" fill="#ED1C23"/>
<path d="M20.5 15.4C21.033 15.4 21.39 15.003 21.468 14.565C21.478 14.51 21.5 14.457 21.5 14.4C21.5 13.9 21.1 14.4 20.5 14.4C19.9 14.4 19.5 13.9 19.5 14.4C19.5 14.462 19.524 14.521 19.536 14.581C19.62 15.013 19.975 15.4 20.5 15.4Z" fill="#CCD6DD"/>
<path d="M19.5 20.5996C19.5 20.8756 19.948 21.0996 20.5 21.0996C21.052 21.0996 21.5 20.8756 21.5 20.5996C21.5 20.5356 21.471 20.4746 21.427 20.4176C21.281 20.2316 20.924 20.0996 20.5 20.0996C20.41 20.0996 20.328 20.1136 20.245 20.1256C19.819 20.1826 19.5 20.3686 19.5 20.5996Z" fill="white"/>
<path d="M16.6992 18.7002C16.6992 18.4732 16.3892 18.2882 15.9742 18.2282C15.8852 18.2152 15.7972 18.2002 15.6992 18.2002C15.1472 18.2002 14.6992 18.4242 14.6992 18.7002C14.6992 18.9762 15.1472 19.2002 15.6992 19.2002C16.2512 19.2002 16.6992 18.9762 16.6992 18.7002Z" fill="#C1694F"/>
<path d="M16.5996 17.2998C17.1519 17.2998 17.5996 17.0759 17.5996 16.7998C17.5996 16.5237 17.1519 16.2998 16.5996 16.2998C16.0473 16.2998 15.5996 16.5237 15.5996 16.7998C15.5996 17.0759 16.0473 17.2998 16.5996 17.2998Z" fill="#C1694F"/>
<path d="M24.2988 18.7002C24.2988 18.9762 24.7468 19.2002 25.2988 19.2002C25.8508 19.2002 26.2988 18.9762 26.2988 18.7002C26.2988 18.4242 25.8508 18.2002 25.2988 18.2002C25.2008 18.2002 25.1128 18.2152 25.0238 18.2282C24.6088 18.2892 24.2988 18.4732 24.2988 18.7002Z" fill="#C1694F"/>
<path d="M24.3984 17.2998C24.9507 17.2998 25.3984 17.0759 25.3984 16.7998C25.3984 16.5237 24.9507 16.2998 24.3984 16.2998C23.8462 16.2998 23.3984 16.5237 23.3984 16.7998C23.3984 17.0759 23.8462 17.2998 24.3984 17.2998Z" fill="#C1694F"/>
</svg>
