<svg width="41" height="41" viewBox="0 0 41 41" fill="none" xmlns="http://www.w3.org/2000/svg">
<path d="M20.253 21.2318L19.853 20.6318L19.123 22.7038L19.829 22.8438L20.253 21.2318Z" fill="#E3E7EA"/>
<path d="M18.7717 22.891C18.6657 22.903 18.5957 23.102 18.5957 23.102C18.5957 23.102 18.4187 23.15 18.4067 23.232C18.3967 23.302 18.5487 23.456 18.5487 23.456C18.5487 23.456 18.5487 23.632 18.7017 23.68C18.8547 23.728 19.4777 23.845 20.4907 23.833C21.5027 23.821 22.2207 23.762 22.3027 23.691C22.3847 23.62 22.4557 23.467 22.4557 23.467C22.4557 23.467 22.6207 23.35 22.6087 23.256C22.5967 23.162 22.3617 23.103 22.3617 23.103C22.3617 23.103 22.2957 22.961 22.2167 22.903C22.1387 22.844 21.6327 23.138 20.5497 23.138C19.4897 23.138 18.8787 22.879 18.7727 22.891H18.7717ZM22.1957 23.456C22.1137 23.504 21.4777 23.621 20.4547 23.598C19.4537 23.576 18.9597 23.516 18.8777 23.481C18.7957 23.446 18.7427 23.397 18.8777 23.316C18.9367 23.281 19.3837 23.399 20.4427 23.398C21.3017 23.398 22.0077 23.281 22.1497 23.304C22.2907 23.327 22.2787 23.41 22.1967 23.457L22.1957 23.456Z" fill="#E3E7EA"/>
<path d="M20.7793 21.2318L21.2023 22.8438L21.9093 22.7038L21.1793 20.6318L20.7793 21.2318Z" fill="#E3E7EA"/>
<path d="M2.5 24.542H38.5V16.5H2.5V24.542ZM18.123 18.666C18.123 18.666 18.146 18.113 18.652 18.184C19.158 18.255 19.193 18.502 19.735 18.56C19.795 18.567 19.838 18.569 19.892 18.574C20.047 18.338 20.274 17.915 20.194 17.524C20.194 17.524 19.958 17.289 19.9 17.371C19.841 17.453 19.77 17.183 19.9 17.077C20.03 16.971 20.312 17.112 20.312 17.112C20.312 17.112 20.383 16.948 20.747 17.124C21.112 17.3 21.006 17.453 21.006 17.806C21.006 18.045 21.072 18.355 21.154 18.57L21.266 18.56C21.808 18.501 21.843 18.254 22.349 18.184C22.855 18.114 22.878 18.666 22.878 18.666L23.078 22.939L22.666 22.621L22.664 22.57L21.807 21.809L21.712 21.714L22.05 22.703C22.05 22.703 22.478 22.677 22.462 22.981C22.479 23.009 22.491 23.032 22.491 23.032C22.491 23.032 22.726 23.161 22.738 23.279C22.749 23.396 22.573 23.491 22.573 23.491C22.573 23.491 22.562 23.679 22.397 23.762C22.232 23.845 21.608 23.962 20.502 23.962C19.396 23.962 18.76 23.833 18.584 23.75C18.408 23.668 18.454 23.526 18.454 23.526C18.29 23.432 18.278 23.244 18.278 23.244C18.301 23.139 18.514 23.044 18.514 23.044C18.514 23.044 18.533 23.005 18.569 22.962C18.569 22.675 18.984 22.702 18.984 22.702L19.339 21.665L19.196 21.808L18.339 22.569L18.337 22.619L17.925 22.937L18.125 18.665L18.123 18.666Z" fill="#E3E7EA"/>
<path d="M20.2575 18.6414L20.4295 18.5364L20.5355 18.7014L20.6415 18.5484L20.8655 18.6544L20.8535 18.5244L21.0535 18.6424C21.0535 18.6424 20.8885 18.4664 20.8655 18.0544C20.8425 17.6434 20.9215 17.4474 20.7795 17.4234C20.6375 17.4004 20.5415 17.5014 20.5415 17.5014C20.5415 17.5014 20.4055 17.4204 20.2535 17.3134C20.0175 17.1494 19.9355 17.2314 19.9355 17.2314C20.1125 17.2194 20.3005 17.4534 20.3005 17.4534C20.3005 17.4534 20.3305 17.7224 20.3235 17.8424C20.3005 18.2434 20.0055 18.6074 20.0055 18.6074L20.2055 18.5014L20.2575 18.6414Z" fill="#E3E7EA"/>
<path d="M19.3175 19.2164L19.4175 19.2564C19.4175 19.2564 20.0645 19.2334 20.5355 18.9034C20.9145 19.2404 21.5155 19.2384 21.6385 19.2344L21.7585 19.1864L22.4765 18.5044L22.6855 18.5884C22.6765 18.5034 22.6295 18.3124 22.3705 18.3494C21.9445 18.4104 21.7705 18.6434 21.3225 18.6904L21.2145 18.7014C21.2355 18.7374 21.2555 18.7794 21.2765 18.7964C21.2765 18.7964 21.1005 18.7964 20.9945 18.7254L20.9715 18.8434C20.9715 18.8434 20.8475 18.7984 20.7615 18.7474L20.6615 18.7574L20.5125 18.8314L20.4685 18.7694L20.2725 18.7504C20.2005 18.7964 20.1135 18.8484 20.0535 18.8664L20.0915 18.7324L20.0065 18.7244C19.9315 18.7414 19.8285 18.7614 19.7595 18.7614L19.8035 18.7044L19.6775 18.6914C19.2305 18.6444 19.0545 18.4114 18.6295 18.3504C18.3705 18.3124 18.3235 18.5044 18.3145 18.5894L18.5235 18.5034L19.3175 19.2164Z" fill="#E3E7EA"/>
<path d="M20.5371 21.2563C21.4141 20.7133 21.4541 19.3853 21.4541 19.3853C21.4541 19.3853 20.8681 19.4193 20.5251 19.1143C20.1441 19.3813 19.6191 19.4083 19.6191 19.4083C19.6191 19.4083 19.6891 20.7313 20.5381 21.2553L20.5371 21.2563ZM20.9011 19.4093C20.9011 19.4093 21.1011 19.5263 21.2661 19.5623C21.2661 19.5623 21.2071 20.2443 20.9011 20.7743V19.4093ZM20.1591 20.7513C19.8531 20.2213 19.7941 19.5393 19.7941 19.5393C19.9581 19.5043 20.1591 19.3863 20.1591 19.3863V20.7513Z" fill="#E3E7EA"/>
<path d="M34.505 8.5H6.495C4.288 8.5 2.5 10.289 2.5 12.496V16.5H38.5V12.496C38.5 10.289 36.711 8.5 34.505 8.5Z" fill="#CF002E"/>
<path d="M2.5 28.5V28.504C2.5 28.772 2.529 29.032 2.579 29.284C2.595 29.366 2.627 29.441 2.648 29.522C2.692 29.687 2.735 29.851 2.798 30.006C2.845 30.12 2.907 30.225 2.964 30.333C3.02 30.44 3.071 30.55 3.137 30.652C3.223 30.784 3.322 30.906 3.423 31.027C3.474 31.088 3.52 31.153 3.575 31.211C3.704 31.349 3.845 31.475 3.993 31.593C4.028 31.621 4.061 31.652 4.097 31.679C4.269 31.807 4.451 31.922 4.642 32.022C4.659 32.031 4.675 32.041 4.692 32.049C4.899 32.153 5.116 32.241 5.342 32.309L5.356 32.313C5.588 32.382 5.828 32.43 6.075 32.457C6.077 32.457 6.078 32.457 6.08 32.457C6.219 32.472 6.354 32.499 6.497 32.499H34.506C34.649 32.499 34.784 32.472 34.923 32.457C34.925 32.457 34.926 32.457 34.928 32.457C35.175 32.431 35.416 32.382 35.647 32.313L35.661 32.309C35.887 32.241 36.104 32.153 36.311 32.049C36.328 32.04 36.344 32.031 36.361 32.022C36.552 31.922 36.734 31.807 36.906 31.679C36.942 31.652 36.975 31.622 37.01 31.593C37.158 31.475 37.298 31.349 37.428 31.211C37.483 31.153 37.529 31.088 37.58 31.027C37.681 30.906 37.78 30.784 37.866 30.652C37.932 30.55 37.983 30.441 38.039 30.333C38.096 30.225 38.158 30.12 38.205 30.006C38.269 29.851 38.311 29.686 38.355 29.522C38.376 29.442 38.408 29.366 38.424 29.284C38.474 29.032 38.503 28.772 38.503 28.504V24.542H2.5V28.5Z" fill="black"/>
<path d="M20.9023 19.4082V20.7732C21.2083 20.2432 21.2673 19.5612 21.2673 19.5612C21.1023 19.5252 20.9023 19.4082 20.9023 19.4082Z" fill="#BF9300"/>
<path d="M20.1599 20.7498V19.3848C20.1599 19.3848 19.9599 19.5018 19.7949 19.5378C19.7949 19.5378 19.8539 20.2198 20.1599 20.7498Z" fill="#BF9300"/>
<path d="M18.3379 22.57L19.1949 21.809L19.3379 21.666L18.9829 22.703C18.9829 22.703 18.5669 22.676 18.5679 22.963C18.5329 23.006 18.5129 23.045 18.5129 23.045C18.5129 23.045 18.3009 23.139 18.2769 23.245C18.2769 23.245 18.2889 23.433 18.4529 23.527C18.4529 23.527 18.4059 23.669 18.5829 23.751C18.7589 23.833 19.3949 23.963 20.5009 23.963C21.6069 23.963 22.2309 23.846 22.3959 23.763C22.5609 23.681 22.5719 23.492 22.5719 23.492C22.5719 23.492 22.7479 23.398 22.7369 23.28C22.7249 23.163 22.4899 23.033 22.4899 23.033C22.4899 23.033 22.4789 23.01 22.4609 22.982C22.4769 22.678 22.0489 22.704 22.0489 22.704L21.7109 21.715L21.8059 21.81L22.6629 22.571L22.6649 22.622L23.0769 22.94L22.8769 18.667C22.8769 18.667 22.8539 18.114 22.3479 18.185C21.8419 18.256 21.8059 18.503 21.2649 18.561L21.1529 18.571C21.0719 18.356 21.0049 18.046 21.0049 17.807C21.0049 17.454 21.1109 17.301 20.7459 17.125C20.3809 16.949 20.3109 17.113 20.3109 17.113C20.3109 17.113 20.0289 16.971 19.8989 17.078C19.7689 17.184 19.8399 17.454 19.8989 17.372C19.9579 17.29 20.1929 17.525 20.1929 17.525C20.2729 17.916 20.0459 18.339 19.8909 18.575C19.8379 18.57 19.7949 18.567 19.7339 18.561C19.1919 18.502 19.1569 18.255 18.6509 18.185C18.1449 18.115 18.1219 18.667 18.1219 18.667L17.9219 22.939L18.3339 22.621L18.3359 22.571L18.3379 22.57ZM19.8549 20.632L20.2549 21.232L19.8309 22.844L19.1249 22.703L19.8549 20.632ZM19.6199 19.408C19.6199 19.408 20.1449 19.381 20.5259 19.114C20.8689 19.419 21.4549 19.385 21.4549 19.385C21.4549 19.385 21.4149 20.713 20.5379 21.256C19.6889 20.732 19.6189 19.409 19.6189 19.409L19.6199 19.408ZM22.2169 22.903C22.2949 22.962 22.3619 23.103 22.3619 23.103C22.3619 23.103 22.5969 23.162 22.6089 23.256C22.6209 23.35 22.4559 23.467 22.4559 23.467C22.4559 23.467 22.3849 23.62 22.3029 23.691C22.2209 23.762 21.5029 23.82 20.4909 23.833C19.4789 23.845 18.8549 23.727 18.7019 23.68C18.5489 23.633 18.5489 23.456 18.5489 23.456C18.5489 23.456 18.3979 23.302 18.4069 23.232C18.4189 23.15 18.5959 23.102 18.5959 23.102C18.5959 23.102 18.6659 22.903 18.7719 22.891C18.8769 22.879 19.4889 23.138 20.5489 23.138C21.6319 23.138 22.1389 22.844 22.2169 22.903ZM21.9109 22.704L21.2049 22.845L20.7819 21.233L21.1819 20.633L21.9109 22.704ZM20.3249 17.842C20.3319 17.722 20.3019 17.453 20.3019 17.453C20.3019 17.453 20.1139 17.219 19.9369 17.231C19.9369 17.231 20.0189 17.149 20.2549 17.313C20.4079 17.42 20.5429 17.501 20.5429 17.501C20.5429 17.501 20.6389 17.399 20.7809 17.423C20.9229 17.446 20.8439 17.643 20.8669 18.054C20.8899 18.466 21.0549 18.642 21.0549 18.642L20.8549 18.524L20.8669 18.654L20.6429 18.548L20.5369 18.701L20.4309 18.536L20.2589 18.641L20.2069 18.501L20.0069 18.607C20.0069 18.607 20.3009 18.242 20.3249 17.842ZM18.6309 18.35C19.0559 18.411 19.2309 18.644 19.6789 18.691L19.8049 18.704L19.7609 18.761C19.8299 18.761 19.9329 18.741 20.0079 18.724L20.0929 18.732L20.0549 18.866C20.1149 18.848 20.2029 18.796 20.2739 18.75L20.4699 18.769L20.5139 18.831L20.6629 18.757L20.7629 18.747C20.8499 18.797 20.9729 18.843 20.9729 18.843L20.9959 18.725C21.1019 18.796 21.2779 18.796 21.2779 18.796C21.2579 18.78 21.2369 18.737 21.2159 18.701L21.3239 18.69C21.7709 18.643 21.9459 18.41 22.3719 18.349C22.6309 18.312 22.6779 18.503 22.6869 18.588L22.4779 18.504L21.7599 19.186L21.6399 19.234C21.5169 19.238 20.9159 19.24 20.5369 18.903C20.0659 19.233 19.4189 19.256 19.4189 19.256L19.3189 19.216L18.5239 18.503L18.3149 18.589C18.3239 18.504 18.3719 18.313 18.6309 18.35Z" fill="#BF9300"/>
<path d="M18.8775 23.3148C18.7425 23.3958 18.7955 23.4448 18.8775 23.4798C18.9595 23.5148 19.4535 23.5748 20.4545 23.5968C21.4775 23.6198 22.1135 23.5028 22.1955 23.4548C22.2775 23.4078 22.2895 23.3248 22.1485 23.3018C22.0065 23.2788 21.3015 23.3958 20.4415 23.3958C19.3825 23.3958 18.9355 23.2788 18.8765 23.3138L18.8775 23.3148Z" fill="#BF9300"/>
</svg>
