<svg width="41" height="41" viewBox="0 0 41 41" fill="none" xmlns="http://www.w3.org/2000/svg">
<path d="M2.49219 8.6416V8.7636L2.49319 8.6416H2.49219Z" fill="black"/>
<path d="M34.5058 8.5H6.49583C6.22983 8.5 5.96983 8.528 5.71883 8.579C5.56783 8.61 5.42683 8.662 5.28283 8.709C5.19183 8.739 5.09583 8.758 5.00783 8.794C4.80983 8.875 4.62283 8.976 4.44283 9.086C4.41783 9.101 4.39083 9.112 4.36583 9.128C4.18083 9.247 4.00783 9.383 3.84483 9.529C3.83083 9.542 3.81283 9.551 3.79883 9.564H3.80083L12.2448 16.499H38.5008V12.495C38.5008 10.288 36.7118 8.5 34.5058 8.5Z" fill="black"/>
<path d="M3.80278 31.436H3.80078C3.81478 31.45 3.83078 31.459 3.84478 31.471C4.00878 31.617 4.18178 31.754 4.36778 31.873C4.39078 31.888 4.41578 31.897 4.43878 31.912C4.62078 32.024 4.80978 32.125 5.00978 32.206C5.09178 32.24 5.18078 32.257 5.26478 32.285C5.41478 32.335 5.56278 32.389 5.72078 32.421C5.97078 32.471 6.22878 32.499 6.49478 32.499H34.5078C36.7138 32.499 38.5018 30.71 38.5018 28.504V24.5H12.2918L3.80278 31.436Z" fill="#008334"/>
<path d="M17.1521 20.529L12.2911 24.5H38.5001V16.499H12.2441L17.1521 20.529ZM23.8971 17.309C24.1041 17.309 24.3051 17.332 24.5011 17.371C24.6971 17.333 24.8981 17.309 25.1051 17.309C26.8511 17.309 28.2661 18.738 28.2661 20.5C28.2661 22.262 26.8501 23.691 25.1051 23.691C24.8981 23.691 24.6971 23.668 24.5011 23.63C24.3051 23.668 24.1041 23.691 23.8971 23.691C22.1511 23.691 20.7361 22.262 20.7361 20.5C20.7361 18.738 22.1521 17.309 23.8971 17.309Z" fill="#E3E7EA"/>
<path d="M21.9434 20.4996C21.9434 22.0526 23.0444 23.3436 24.5004 23.6286C24.6964 23.6666 24.8974 23.6896 25.1044 23.6896C26.8504 23.6896 28.2654 22.2606 28.2654 20.4986C28.2654 18.7366 26.8494 17.3076 25.1044 17.3076C24.8974 17.3076 24.6964 17.3306 24.5004 17.3696C23.0444 17.6546 21.9434 18.9466 21.9434 20.4996ZM24.4144 18.2616L24.9234 19.8586L26.5844 19.8716L25.2364 20.8526L25.7384 22.4516L24.3964 21.4616L23.0454 22.4376L23.5644 20.8436L22.2274 19.8476L23.8894 19.8526L24.4144 18.2616Z" fill="#E3E7EA"/>
<path d="M5.71967 32.4212C5.56267 32.3892 5.41367 32.3352 5.26367 32.2852C5.41467 32.3342 5.56167 32.3902 5.71967 32.4212Z" fill="#CC001C"/>
<path d="M3.84375 9.52893C4.00675 9.38293 4.17975 9.24693 4.36475 9.12793C4.17875 9.24593 4.00775 9.38293 3.84375 9.52893Z" fill="#CC001C"/>
<path d="M5.0085 32.2061C4.8085 32.1241 4.6195 32.0231 4.4375 31.9121C4.6205 32.0231 4.8075 32.1261 5.0085 32.2061Z" fill="#CC001C"/>
<path d="M17.152 20.5294L12.244 16.5004L3.8 9.56641C3.006 10.2974 2.5 11.3364 2.5 12.5004V28.5004C2.5 29.6664 3.007 30.7054 3.802 31.4364L12.291 24.5004L17.152 20.5294Z" fill="#CC001C"/>
<path d="M4.44141 9.08595C4.62141 8.97595 4.80941 8.87495 5.00641 8.79395C4.80741 8.87395 4.62241 8.97595 4.44141 9.08595Z" fill="#CC001C"/>
<path d="M4.36675 31.8727C4.18075 31.7537 4.00775 31.6177 3.84375 31.4707C4.00775 31.6177 4.17975 31.7537 4.36675 31.8727Z" fill="#CC001C"/>
<path d="M23.8973 23.6906C24.1043 23.6906 24.3053 23.6676 24.5013 23.6296C23.0453 23.3446 21.9443 22.0536 21.9443 20.5006C21.9443 18.9476 23.0453 17.6566 24.5013 17.3716C24.3053 17.3336 24.1043 17.3096 23.8973 17.3096C22.1513 17.3096 20.7363 18.7386 20.7363 20.5006C20.7363 22.2626 22.1523 23.6906 23.8973 23.6906Z" fill="#CC001C"/>
<path d="M23.5655 20.8437L23.0465 22.4377L24.3975 21.4617L25.7395 22.4517L25.2385 20.8527L26.5855 19.8717L24.9245 19.8577L24.4145 18.2607L23.8895 19.8527L22.2285 19.8477L23.5655 20.8437Z" fill="#CC001C"/>
</svg>
