<svg width="41" height="41" viewBox="0 0 41 41" fill="none" xmlns="http://www.w3.org/2000/svg">
<path d="M36.1574 20.642L36.1074 20.625V20.658L36.1574 20.642Z" fill="#EB003D"/>
<path d="M2.5 12.4996V28.4996C2.5 29.8326 3.159 31.0056 4.162 31.7326L38.5 20.5176V20.4846L4.16 9.26855C3.158 9.99555 2.5 11.1676 2.5 12.4996ZM5.505 19.3816C5.601 19.9366 5.9 20.3636 6.058 20.8196C5.62 19.1126 5.657 17.0636 6.124 16.7156C6.43 17.1946 6.46 18.1236 6.422 18.8476C6.753 18.1916 6.121 15.4536 7.639 14.9436C7.442 15.5846 7.417 16.1496 7.182 16.9276C7.353 16.6606 7.53 16.2776 7.974 16.0336C8.44 15.1636 9.794 13.7006 10.329 13.9506C10.09 14.3006 9.658 14.7336 9.385 14.9776C10.364 14.3226 11.913 13.7666 12.532 14.2176C11.989 14.6666 10.93 14.7036 10.253 15.0456C10.679 15.1746 11.355 15.1376 11.787 14.9546C11.563 15.4476 11.009 15.4956 10.654 15.4966C10.202 15.4986 9.716 15.4556 9.485 15.7856C9.802 15.8476 10.158 15.8326 10.459 15.7206C10.325 16.0256 9.849 16.1086 9.613 16.1096C8.544 16.1146 7.652 16.4576 7.308 17.7676C7.79 17.2156 7.942 16.8936 8.284 16.6546C8.582 17.1116 8.125 17.7786 7.762 17.9646C7.247 18.2456 6.718 18.9456 6.794 19.3826C7.144 18.9806 7.097 18.8296 7.236 18.6646C7.382 19.0926 7.195 19.4716 6.977 19.8966C6.788 20.2996 6.824 20.7126 6.712 21.3126C6.938 20.9656 7.03 20.3736 7.177 19.8126C7.221 20.3576 7.524 21.0616 7.537 21.3866C7.554 21.8316 7.249 22.0646 7.241 22.3816C7.249 22.7936 7.357 22.9016 7.473 23.2516C7.503 22.7096 7.494 22.4156 7.408 22.1256C7.747 22.4246 7.998 23.0666 8.196 23.5636C8.279 23.3586 8.207 23.1846 8.298 23.0176C8.618 24.0306 9.581 25.4076 10.795 25.4536C11.233 25.4936 11.193 25.6436 11.704 25.7306C11.66 24.9246 11.597 23.9936 11.553 23.1876C11.214 23.4396 9.405 23.7236 9.398 22.0876C9.781 22.4476 10.042 22.6666 10.636 22.6916C10.131 22.4476 9.349 21.9006 9.42 21.3106C9.42 21.3106 10.117 21.8286 10.437 21.8936C10.226 21.6336 9.851 21.1706 9.95 20.8146C10.271 20.9326 10.846 21.4086 11.299 22.0446C11.255 21.1666 11.255 20.4936 11.233 19.7676C10.455 20.0626 9.877 19.8076 9.774 18.4836C10.046 18.8976 10.23 19.0846 10.393 18.9156C10.051 18.5156 9.951 17.8036 10.061 17.1996C10.175 17.6886 10.555 18.1776 10.89 18.4186C10.337 17.6666 10.625 17.3146 10.978 17.6526C11.391 18.0626 11.427 18.4406 11.399 18.9476C12.034 18.1316 12.025 17.7056 11.808 17.1456C11.392 17.2086 11.015 17.1116 10.716 16.5636C11.205 16.7306 11.56 16.8046 11.697 16.3686C11.118 16.6466 10.743 16.4226 10.501 16.1666C10.859 15.8536 11.397 15.9756 11.778 16.1966C11.686 15.8626 11.672 15.7646 11.72 15.3536C12.533 15.5316 12.494 16.3276 12.119 16.7346C12.138 17.0886 12.236 17.2656 12.318 17.7486C12.52 17.0516 12.917 16.6076 13.611 16.7416C13.222 16.9066 13.2 17.3246 13.069 17.6186C13.571 17.5376 13.627 17.3116 13.8 17.0466C14.213 17.7446 13.46 18.1986 13.028 18.4536C13.387 18.4806 13.738 18.3796 13.909 18.1166C14.041 18.7796 13.351 19.0496 12.85 19.0216C12.33 18.9856 11.991 18.6646 11.854 19.1576C11.764 19.4956 11.642 19.9476 11.653 20.5746C11.805 19.9396 11.995 19.3826 12.257 19.1136C12.163 19.5476 12.163 19.9426 12.273 20.3156C12.74 20.0876 13.09 19.5916 13.113 19.1496C13.776 19.5666 13.306 20.3646 12.711 20.7886C13.24 20.9156 13.731 20.8066 14.011 20.4536C14.091 21.4986 13.008 21.4986 12.36 21.3296C12.096 21.2816 11.534 21.4396 11.775 22.0346C12.007 22.5846 11.993 23.2626 12.189 23.7776C12.308 23.1446 12.422 22.6466 12.609 22.3976C13.107 21.7526 13.476 21.9876 13.057 22.7696C13.448 22.5636 13.705 22.1966 13.869 21.8916C14.164 22.6106 13.559 23.0546 13.221 23.4846C13.535 23.4706 13.825 23.1596 13.912 22.8406C14.351 23.8526 13.121 24.3376 12.716 24.2666C12.3 24.2086 12.083 25.2206 12.155 25.7056C12.81 25.4446 13.161 25.2716 14.178 25.0746C14.969 24.9246 15.01 24.2736 15.173 23.8976C15.339 23.5226 15.868 23.1616 16.079 22.8126C16.14 23.0296 16.077 23.3756 16.022 23.5766C16.288 23.3406 16.452 23.0036 16.446 22.7176C16.443 22.2396 16.461 22.2646 16.629 22.0426C16.801 21.8036 16.701 21.2686 16.552 20.9896C16.352 20.6226 16.518 19.8946 16.943 19.7816C16.82 20.4276 17.152 21.2406 17.491 21.4816C17.575 20.7696 17.352 20.4466 17.18 20.1306C16.925 19.6826 16.837 19.1916 16.829 18.6036C16.263 18.2186 15.431 17.2906 15.818 16.5086C16.507 16.8926 16.321 17.6416 16.939 17.5746C16.659 17.1186 16.433 16.7316 16.099 16.3446C15.961 16.1746 15.681 16.4486 15.148 16.4526C14.55 16.4566 14.32 16.2316 13.976 15.8916C14.354 15.9376 14.943 15.9376 15.094 15.8616C14.502 15.5326 13.881 15.4746 13.301 15.5836C12.814 15.6806 12.239 15.3916 11.869 14.8986C12.138 15.0356 12.463 15.1416 12.598 15.0496C12.536 14.8976 12.239 14.8066 12.168 14.6016C12.805 14.8106 13.111 14.4476 13.501 14.4656C13.992 14.4886 14.45 15.3376 14.908 15.3656C14.028 14.7286 13.954 14.2426 13.864 13.6276C14.668 14.1286 15.47 14.8296 15.921 15.6736C16.479 16.0606 16.739 16.4566 16.969 16.9816C16.962 16.2156 16.823 15.4566 16.502 15.1796C17.509 15.1516 17.673 17.1146 17.734 18.0486C17.933 17.9966 17.991 16.8376 17.847 16.4276C18.948 17.5636 18.464 19.2876 17.955 20.6606C18.153 20.6106 18.6 19.9426 18.548 19.3356C19.587 20.3826 18.39 21.7356 17.513 23.0346C17.896 22.8386 18.795 22.1076 19.091 21.2256C19.473 22.8146 17.127 24.2976 16.344 24.6506C16.674 24.7136 17.136 24.4406 17.537 24.6096C17.132 25.2116 14.907 26.1476 12.345 26.1996C12.868 26.3486 13.212 26.7256 13.189 27.1336L10.572 27.1436C10.564 26.7636 10.869 26.3616 11.4 26.2176C9.38 26.1346 8.221 25.8096 7.609 25.0626C7.187 24.7926 6.663 24.6216 6.007 24.4736C6.411 24.0046 7.361 24.4526 7.858 24.6786C7.492 24.1366 5.133 23.6786 5.009 21.4726C5.457 22.1066 6.141 22.8616 6.832 23.2136C5.915 22.0646 4.816 20.6116 5.509 19.3796L5.505 19.3816Z" fill="#EB003D"/>
<path d="M4.1582 31.7336C4.1632 31.7376 4.1692 31.7396 4.1742 31.7436C4.2792 31.8196 4.3932 31.8826 4.5052 31.9486C4.5962 32.0016 4.6882 32.0536 4.7832 32.0996C4.8872 32.1496 4.9932 32.1936 5.1012 32.2356C5.2322 32.2856 5.3662 32.3246 5.5032 32.3606C5.5912 32.3836 5.6772 32.4096 5.7662 32.4266C5.9962 32.4696 6.2322 32.4986 6.4752 32.4996H6.4892L34.6222 32.4886H34.6362C34.6512 32.4886 34.6652 32.4836 34.6802 32.4826C34.9312 32.4716 35.1772 32.4406 35.4142 32.3856C35.4232 32.3836 35.4322 32.3796 35.4412 32.3766C35.6822 32.3186 35.9162 32.2406 36.1382 32.1416C36.1572 32.1326 36.1742 32.1206 36.1922 32.1116C36.4012 32.0146 36.6022 31.9026 36.7892 31.7716C36.8312 31.7426 36.8652 31.7056 36.9062 31.6756C37.0642 31.5566 37.2182 31.4326 37.3572 31.2916C37.4272 31.2206 37.4822 31.1376 37.5462 31.0626C37.6432 30.9486 37.7442 30.8376 37.8282 30.7126C37.9172 30.5796 37.9852 30.4326 38.0582 30.2896C38.1002 30.2076 38.1522 30.1316 38.1882 30.0466C38.2752 29.8386 38.3392 29.6196 38.3902 29.3956C38.3972 29.3646 38.4112 29.3356 38.4182 29.3046C38.4702 29.0466 38.4992 28.7796 38.4992 28.5066V20.5186L4.1612 31.7326L4.1582 31.7336Z" fill="#5480C4"/>
<path d="M38.4192 11.6989C38.4062 11.6329 38.3782 11.5739 38.3612 11.5099C38.3132 11.3219 38.2642 11.1349 38.1902 10.9589C38.1392 10.8389 38.0692 10.7299 38.0082 10.6159C37.9502 10.5079 37.9012 10.3949 37.8332 10.2929C37.7292 10.1379 37.6062 9.99693 37.4822 9.85793C37.4412 9.81193 37.4072 9.75893 37.3642 9.71393C37.2012 9.54793 37.0222 9.39793 36.8332 9.26193C36.8212 9.25293 36.8112 9.24193 36.7992 9.23393C36.1832 8.80293 35.4402 8.54093 34.6382 8.51393L6.47816 8.50293C6.46516 8.50293 6.45316 8.50593 6.44016 8.50593C6.21516 8.50893 5.99616 8.53293 5.78216 8.57193C5.67616 8.59193 5.57516 8.62193 5.47216 8.64993C5.35316 8.68193 5.23516 8.71593 5.12016 8.75893C5.00016 8.80393 4.88316 8.85293 4.76916 8.90893C4.68816 8.94893 4.61116 8.99193 4.53316 9.03693C4.40816 9.10893 4.28316 9.17993 4.16616 9.26393C4.16416 9.26493 4.16216 9.26593 4.16016 9.26793L38.5012 20.4839V12.4959C38.5012 12.2229 38.4722 11.9559 38.4192 11.6989Z" fill="#00B136"/>
<path d="M5.00595 21.4759C5.12995 23.6819 7.48895 24.1399 7.85495 24.6819C7.35795 24.4559 6.40795 24.0089 6.00395 24.4769C6.65995 24.6249 7.18495 24.7959 7.60595 25.0659C8.21895 25.8119 9.37695 26.1379 11.397 26.2209C10.866 26.3649 10.561 26.7669 10.569 27.1469L13.186 27.1369C13.209 26.7289 12.865 26.3519 12.342 26.2029C14.903 26.1509 17.129 25.2149 17.534 24.6129C17.133 24.4439 16.671 24.7169 16.341 24.6539C17.124 24.3009 19.47 22.8179 19.088 21.2289C18.792 22.1119 17.893 22.8419 17.51 23.0379C18.387 21.7389 19.584 20.3859 18.545 19.3389C18.597 19.9459 18.15 20.6139 17.952 20.6639C18.461 19.2909 18.946 17.5679 17.844 16.4309C17.988 16.8419 17.93 17.9999 17.731 18.0519C17.67 17.1179 17.506 15.1549 16.499 15.1829C16.82 15.4609 16.959 16.2189 16.966 16.9849C16.736 16.4599 16.476 16.0649 15.918 15.6769C15.467 14.8319 14.664 14.1319 13.861 13.6309C13.951 14.2459 14.025 14.7309 14.905 15.3689C14.447 15.3409 13.989 14.4929 13.498 14.4689C13.108 14.4499 12.802 14.8139 12.165 14.6049C12.236 14.8099 12.533 14.9009 12.595 15.0529C12.459 15.1449 12.135 15.0389 11.866 14.9019C12.236 15.3939 12.811 15.6839 13.298 15.5869C13.878 15.4779 14.499 15.5359 15.091 15.8649C14.94 15.9409 14.351 15.9399 13.973 15.8949C14.316 16.2339 14.547 16.4599 15.145 16.4559C15.678 16.4529 15.958 16.1779 16.096 16.3479C16.431 16.7349 16.656 17.1219 16.936 17.5779C16.317 17.6449 16.504 16.8949 15.815 16.5119C15.428 17.2939 16.26 18.2209 16.826 18.6069C16.834 19.1949 16.922 19.6859 17.177 20.1339C17.349 20.4489 17.572 20.7719 17.488 21.4849C17.149 21.2439 16.817 20.4309 16.94 19.7849C16.515 19.8979 16.349 20.6269 16.549 20.9929C16.698 21.2719 16.798 21.8069 16.626 22.0459C16.458 22.2679 16.44 22.2439 16.443 22.7209C16.449 23.0069 16.285 23.3449 16.019 23.5799C16.074 23.3789 16.138 23.0319 16.076 22.8159C15.865 23.1649 15.337 23.5259 15.17 23.9009C15.007 24.2769 14.965 24.9279 14.175 25.0779C13.159 25.2749 12.807 25.4469 12.152 25.7089C12.08 25.2229 12.298 24.2109 12.713 24.2699C13.119 24.3399 14.349 23.8549 13.909 22.8439C13.822 23.1629 13.532 23.4739 13.218 23.4879C13.556 23.0589 14.161 22.6149 13.866 21.8949C13.703 22.2009 13.445 22.5669 13.054 22.7729C13.473 21.9909 13.103 21.7559 12.606 22.4009C12.419 22.6499 12.305 23.1479 12.186 23.7809C11.99 23.2659 12.004 22.5879 11.772 22.0379C11.531 21.4429 12.093 21.2849 12.357 21.3329C13.005 21.5019 14.088 21.5009 14.008 20.4569C13.728 20.8109 13.237 20.9199 12.708 20.7919C13.303 20.3679 13.773 19.5699 13.11 19.1529C13.087 19.5949 12.737 20.0909 12.27 20.3189C12.16 19.9459 12.16 19.5499 12.254 19.1169C11.993 19.3859 11.803 19.9429 11.65 20.5779C11.639 19.9509 11.761 19.4989 11.851 19.1609C11.988 18.6679 12.327 18.9889 12.847 19.0249C13.348 19.0519 14.038 18.7829 13.906 18.1199C13.735 18.3819 13.384 18.4839 13.025 18.4569C13.457 18.2009 14.21 17.7479 13.797 17.0499C13.624 17.3139 13.567 17.5399 13.066 17.6219C13.198 17.3269 13.219 16.9099 13.608 16.7449C12.913 16.6099 12.516 17.0549 12.315 17.7519C12.233 17.2689 12.135 17.0909 12.116 16.7379C12.491 16.3309 12.531 15.5349 11.717 15.3569C11.67 15.7679 11.683 15.8659 11.775 16.1999C11.394 15.9789 10.857 15.8569 10.498 16.1699C10.74 16.4249 11.116 16.6499 11.694 16.3719C11.557 16.8079 11.202 16.7339 10.713 16.5669C11.012 17.1139 11.389 17.2119 11.805 17.1489C12.023 17.7089 12.032 18.1349 11.396 18.9509C11.425 18.4439 11.388 18.0659 10.975 17.6559C10.622 17.3179 10.334 17.6699 10.887 18.4219C10.551 18.1809 10.171 17.6919 10.058 17.2029C9.94695 17.8069 10.047 18.5189 10.39 18.9189C10.228 19.0879 10.044 18.9009 9.77095 18.4869C9.87395 19.8109 10.452 20.0659 11.23 19.7709C11.252 20.4969 11.252 21.1699 11.296 22.0479C10.843 21.4119 10.268 20.9359 9.94695 20.8179C9.84795 21.1739 10.223 21.6379 10.434 21.8969C10.113 21.8319 9.41695 21.3139 9.41695 21.3139C9.34695 21.9039 10.129 22.4509 10.633 22.6949C10.039 22.6699 9.77795 22.4509 9.39495 22.0909C9.40195 23.7269 11.211 23.4439 11.55 23.1909C11.595 23.9969 11.657 24.9279 11.701 25.7339C11.189 25.6469 11.23 25.4969 10.792 25.4569C9.57795 25.4109 8.61495 24.0329 8.29495 23.0209C8.20395 23.1879 8.27595 23.3619 8.19295 23.5669C7.99495 23.0699 7.74395 22.4279 7.40495 22.1289C7.49095 22.4189 7.49995 22.7129 7.46995 23.2549C7.35395 22.9039 7.24595 22.7969 7.23795 22.3849C7.24595 22.0689 7.55095 21.8349 7.53395 21.3899C7.52095 21.0649 7.21795 20.3609 7.17395 19.8159C7.02695 20.3769 6.93395 20.9679 6.70895 21.3159C6.82095 20.7159 6.78495 20.3029 6.97395 19.8999C7.19295 19.4749 7.37895 19.0959 7.23295 18.6679C7.09395 18.8329 7.14095 18.9829 6.79095 19.3859C6.71495 18.9489 7.24395 18.2489 7.75895 17.9679C8.12095 17.7819 8.57795 17.1149 8.28095 16.6579C7.93995 16.8969 7.78695 17.2199 7.30495 17.7709C7.64795 16.4599 8.54095 16.1179 9.60995 16.1129C9.84695 16.1129 10.323 16.0289 10.456 15.7239C10.155 15.8369 9.79895 15.8509 9.48195 15.7889C9.71295 15.4589 10.199 15.5019 10.651 15.4999C11.006 15.4989 11.56 15.4509 11.784 14.9579C11.352 15.1409 10.676 15.1789 10.25 15.0489C10.927 14.7069 11.986 14.6699 12.529 14.2209C11.91 13.7699 10.361 14.3259 9.38195 14.9809C9.65495 14.7369 10.088 14.3039 10.326 13.9539C9.79095 13.7039 8.43695 15.1669 7.97095 16.0369C7.52795 16.2809 7.35095 16.6639 7.17895 16.9309C7.41495 16.1519 7.43895 15.5879 7.63595 14.9469C6.11795 15.4569 6.74895 18.1949 6.41895 18.8509C6.45795 18.1269 6.42695 17.1979 6.12095 16.7189C5.65395 17.0669 5.61595 19.1169 6.05495 20.8229C5.89695 20.3659 5.59795 19.9399 5.50195 19.3849C4.80895 20.6169 5.90795 22.0709 6.82495 23.2189C6.13395 22.8669 5.44995 22.1119 5.00195 21.4779L5.00595 21.4759Z" fill="#FBC300"/>
</svg>
