<svg width="41" height="41" viewBox="0 0 41 41" fill="none" xmlns="http://www.w3.org/2000/svg">
<path d="M34.5 8.5H6.5C4.291 8.5 2.5 10.291 2.5 12.5V14.5H38.5V12.5C38.5 10.291 36.709 8.5 34.5 8.5Z" fill="#C70026"/>
<path d="M2.5 28.5C2.5 30.709 4.291 32.5 6.5 32.5H34.5C36.709 32.5 38.5 30.709 38.5 28.5V26.5H2.5V28.5Z" fill="#C70026"/>
<path d="M2.5 26.5H38.5V14.5H2.5V26.5ZM15.18 18.153H15.98V23.753H16.78V24.553H14.38V23.753H15.18V18.153ZM9.58 21.353V18.953H11.98C10.655 18.953 9.58 18.416 9.58 17.753C9.58 17.612 9.638 17.479 9.727 17.353C9.638 17.29 9.58 17.223 9.58 17.153C9.58 16.822 10.655 16.553 11.98 16.553C13.305 16.553 14.38 16.822 14.38 17.153C14.38 17.224 14.322 17.29 14.233 17.353C14.322 17.478 14.38 17.612 14.38 17.753C14.38 18.416 13.305 18.953 11.98 18.953H14.38V22.153C14.38 23.479 13.306 24.553 11.98 24.553C10.654 24.553 9.58 23.479 9.58 22.153V21.353ZM7.18 23.753H7.98V18.153H8.78V23.753H9.58V24.553H7.18V23.753Z" fill="#FCC100"/>
<path d="M11.9805 21.3531H14.3805V19.7531V18.9531H11.9805V21.3531Z" fill="#F4A2B2"/>
<path d="M11.9801 18.9531H9.58008V19.7531V21.3531H11.9801V18.9531Z" fill="#C70026"/>
<path d="M11.9801 24.5525C13.3061 24.5525 14.3801 23.4785 14.3801 22.1525V21.3525H9.58008V22.1525C9.58008 23.4785 10.6541 24.5525 11.9801 24.5525Z" fill="#EA596E"/>
<path d="M14.3801 17.7525C14.3801 17.6115 14.3221 17.4785 14.2331 17.3525C13.9021 17.5845 13.0231 17.7525 11.9801 17.7525C10.9371 17.7525 10.0581 17.5855 9.72708 17.3525C9.63808 17.4775 9.58008 17.6115 9.58008 17.7525C9.58008 18.4155 10.6551 18.9525 11.9801 18.9525C13.3051 18.9525 14.3801 18.4155 14.3801 17.7525Z" fill="#EA596E"/>
<path d="M14.2331 17.3527C14.3221 17.2897 14.3801 17.2227 14.3801 17.1527C14.3801 16.8217 13.3051 16.5527 11.9801 16.5527C10.6551 16.5527 9.58008 16.8217 9.58008 17.1527C9.58008 17.2237 9.63808 17.2897 9.72708 17.3527C10.0581 17.5847 10.9371 17.7527 11.9801 17.7527C13.0231 17.7527 13.9021 17.5857 14.2331 17.3527Z" fill="#FFAC33"/>
<path d="M8.78047 18.9531H7.98047V23.7531H8.78047V18.9531Z" fill="#99AAB5"/>
<path d="M15.9797 18.9531H15.1797V23.7531H15.9797V18.9531Z" fill="#99AAB5"/>
<path d="M14.3789 23.7529V24.5529H15.1789H15.9789H16.7789V23.7529H15.9789H15.1789H14.3789Z" fill="#66757F"/>
<path d="M15.9797 18.1533H15.1797V18.9533H15.9797V18.1533Z" fill="#66757F"/>
<path d="M8.78047 18.1533H7.98047V18.9533H8.78047V18.1533Z" fill="#66757F"/>
<path d="M8.77969 24.5529H9.57969V23.7529H8.77969H7.97969H7.17969V24.5529H7.97969H8.77969Z" fill="#66757F"/>
</svg>
