<svg width="41" height="41" viewBox="0 0 41 41" fill="none" xmlns="http://www.w3.org/2000/svg">
<path d="M20.5 26.5C18.749 26.5 17.18 25.725 16.097 24.5H2.5V28.5C2.5 30.709 4.291 32.5 6.5 32.5H34.5C36.709 32.5 38.5 30.709 38.5 28.5V24.5H24.903C23.819 25.725 22.251 26.5 20.5 26.5Z" fill="#E31729"/>
<path d="M34.505 8.5H6.495C4.288 8.5 2.5 10.289 2.5 12.496V16.501H16.097C17.181 15.276 18.749 14.501 20.501 14.501C22.253 14.501 23.82 15.276 24.904 16.501H38.5V12.496C38.5 10.289 36.711 8.5 34.505 8.5Z" fill="#006F3C"/>
<path d="M16.0971 24.5C17.1811 25.725 18.7491 26.5 20.5001 26.5C22.2511 26.5 23.8191 25.725 24.9031 24.5C25.8431 23.438 26.4191 22.039 26.4191 20.5C26.4191 18.961 25.8431 17.562 24.9031 16.5C23.8191 15.275 22.2511 14.5 20.5001 14.5C18.7491 14.5 17.1801 15.275 16.0961 16.5C15.1561 17.562 14.5801 18.961 14.5801 20.5C14.5801 22.039 15.1561 23.438 16.0961 24.5H16.0971ZM15.9961 21.983L15.9661 21.888L18.4061 21.085L18.4371 21.18L18.4671 21.275L16.0271 22.078L15.9961 21.983ZM23.0751 23.717L23.2831 24.364L20.5001 22.315L18.4631 23.815L18.6701 23.168L21.6301 20.988L21.7581 21.388L20.8351 22.068L23.0751 23.717ZM20.0381 21.975L19.1151 21.295L18.2591 23.965L17.7161 24.365L18.7791 21.049L16.7421 19.549H17.4141L20.3731 21.729L20.0381 21.975ZM20.5991 25.3H20.4021V22.7H20.5991V25.3ZM25.0041 21.983L24.9731 22.078L22.5331 21.275L22.5941 21.085L25.0341 21.888L25.0041 21.983ZM22.2211 21.048L22.9991 23.475L22.4561 23.075L21.3261 19.548H21.7411L22.0941 20.648L24.3351 18.998H25.0061L22.2231 21.048H22.2211ZM21.6961 18.661L23.2041 16.558L23.2841 16.617L23.3641 16.676L21.8561 18.779L21.7761 18.72L21.6961 18.661ZM20.2931 16.328L20.5011 15.681L21.5641 18.998H24.0821L23.5391 19.398H19.8801L20.0091 18.998H21.1501L20.2941 16.328H20.2931ZM19.2251 18.72L19.1451 18.779L17.6371 16.676L17.7171 16.617L17.7971 16.558L19.3051 18.661L19.2251 18.72ZM19.4381 18.998L20.2161 16.571L20.4241 17.218L19.2941 20.745L18.9581 20.498L19.3111 19.398H16.5421L15.9991 18.998H19.4381Z" fill="#03A3D9"/>
<path d="M24.9043 16.5C25.8443 17.562 26.4203 18.961 26.4203 20.5C26.4203 22.039 25.8433 23.438 24.9043 24.5H38.5013V16.5H24.9053H24.9043Z" fill="#F4DD00"/>
<path d="M16.097 16.5H2.5V24.5H16.097C15.157 23.438 14.581 22.039 14.581 20.5C14.581 18.961 15.157 17.562 16.097 16.5Z" fill="#F4DD00"/>
<path d="M20.0372 21.9749L20.3732 21.7279L17.4142 19.5479H16.7422L18.7782 21.0479L17.7162 24.3649L18.2592 23.9649L19.1152 21.2949L20.0372 21.9749Z" fill="#F4DD00"/>
<path d="M20.0079 18.9977L19.8789 19.3977H23.5379L24.0809 18.9977H21.5629L20.4999 15.6807L20.2929 16.3287L21.1489 18.9977H20.0079Z" fill="#F4DD00"/>
<path d="M20.8368 22.0673L21.7588 21.3873L21.6318 20.9873L18.6718 23.1673L18.4648 23.8143L20.5008 22.3143L23.2838 24.3643L23.0768 23.7163L20.8368 22.0673Z" fill="#F4DD00"/>
<path d="M22.0912 20.648L21.7382 19.548H21.3242L22.4542 23.075L22.9972 23.475L22.2202 21.048L25.0032 18.998H24.3322L22.0912 20.648Z" fill="#F4DD00"/>
<path d="M16.5401 19.3973H19.3081L18.9561 20.4973L19.2921 20.7443L20.4221 17.2173L20.2151 16.5703L19.4371 18.9973H15.9961L16.5401 19.3973Z" fill="#F4DD00"/>
<path d="M21.8543 18.7786L23.3623 16.6756L23.2823 16.6166L23.2033 16.5576L21.6953 18.6606L21.7753 18.7196L21.8543 18.7786Z" fill="#F4DD00"/>
<path d="M19.2237 18.7196L19.3037 18.6606L17.7957 16.5576L17.7167 16.6166L17.6367 16.6756L19.1447 18.7786L19.2237 18.7196Z" fill="#F4DD00"/>
<path d="M24.9732 22.079L25.0042 21.983L25.0342 21.888L22.5942 21.085L22.5332 21.275L24.9732 22.079Z" fill="#F4DD00"/>
<path d="M15.9968 21.983L16.0278 22.079L18.4678 21.275L18.4368 21.18L18.4068 21.085L15.9668 21.888L15.9968 21.983Z" fill="#F4DD00"/>
<path d="M20.5993 22.6992H20.4023V25.2992H20.5993V22.6992Z" fill="#F4DD00"/>
</svg>
