<svg width="41" height="41" viewBox="0 0 41 41" fill="none" xmlns="http://www.w3.org/2000/svg">
<path d="M34.5 8.5H6.5C4.29086 8.5 2.5 10.2909 2.5 12.5V28.5C2.5 30.7091 4.29086 32.5 6.5 32.5H34.5C36.7091 32.5 38.5 30.7091 38.5 28.5V12.5C38.5 10.2909 36.7091 8.5 34.5 8.5Z" fill="#293492"/>
<path d="M20.4993 11.167L20.2223 12.088H19.3223L20.0493 12.657L19.7713 13.579L20.4993 13.009L21.2273 13.579L20.9493 12.657L21.6763 12.088H20.7763L20.4993 11.167Z" fill="#FCC800"/>
<path d="M20.7763 28.088L20.4993 27.167L20.2223 28.088H19.3223L20.0493 28.658L19.7713 29.579L20.4993 29.009L21.2273 29.579L20.9493 28.658L21.6763 28.088H20.7763Z" fill="#FCC800"/>
<path d="M13.0764 21.01L13.8034 21.579L13.5264 20.657L14.2534 20.088H13.3534L13.0764 19.167L12.7984 20.088H11.8984L12.6264 20.657L12.3484 21.579L13.0764 21.01Z" fill="#FCC800"/>
<path d="M16.7883 12.2393L16.5103 13.1603H15.6113L16.3383 13.7293L16.0613 14.6513L16.7883 14.0813L17.5153 14.6513L17.2373 13.7293L17.9653 13.1603H17.0663L16.7883 12.2393Z" fill="#FCC800"/>
<path d="M14.0706 15.167L13.7926 16.088H12.8926L13.6206 16.658L13.3426 17.579L14.0706 17.009L14.7976 17.579L14.5196 16.658L15.2466 16.088H14.3476L14.0706 15.167Z" fill="#FCC800"/>
<path d="M14.3486 24.088L14.0706 23.167L13.7926 24.088H12.8926L13.6206 24.657L13.3426 25.579L14.0706 25.009L14.7976 25.579L14.5196 24.657L15.2466 24.088H14.3486Z" fill="#FCC800"/>
<path d="M17.0663 27.0157L16.7883 26.0947L16.5103 27.0157H15.6113L16.3383 27.5857L16.0603 28.5067L16.7883 27.9367L17.5153 28.5067L17.2373 27.5857L17.9653 27.0157H17.0663Z" fill="#FCC800"/>
<path d="M29.1011 20.088H28.2011L27.9241 19.167L27.6461 20.088H26.7461L27.4731 20.657L27.1961 21.579L27.9241 21.01L28.6511 21.579L28.3731 20.657L29.1011 20.088Z" fill="#FCC800"/>
<path d="M24.2112 12.2393L23.9332 13.1603H23.0352L23.7622 13.7293L23.4842 14.6513L24.2112 14.0813L24.9382 14.6513L24.6612 13.7293L25.3882 13.1603H24.4892L24.2112 12.2393Z" fill="#FCC800"/>
<path d="M26.4809 16.658L26.2029 17.579L26.9299 17.009L27.6579 17.579L27.3799 16.658L28.1079 16.088H27.2079L26.9299 15.167L26.6519 16.088H25.7539L26.4809 16.658Z" fill="#FCC800"/>
<path d="M27.2079 24.088L26.9299 23.167L26.6519 24.088H25.7539L26.4809 24.658L26.2029 25.579L26.9299 25.009L27.6579 25.579L27.3799 24.658L28.1079 24.088H27.2079Z" fill="#FCC800"/>
<path d="M24.4892 27.0157L24.2112 26.0947L23.9332 27.0157H23.0352L23.7622 27.5857L23.4842 28.5067L24.2112 27.9367L24.9382 28.5067L24.6612 27.5857L25.3882 27.0157H24.4892Z" fill="#FCC800"/>
</svg>
