<svg width="41" height="41" viewBox="0 0 41 41" fill="none" xmlns="http://www.w3.org/2000/svg">
<path d="M34.5 8.5H22.937V18.808H2.5V28.5C2.5 30.709 4.291 32.5 6.5 32.5H34.5C36.709 32.5 38.5 30.709 38.5 28.5V12.5C38.5 10.291 36.709 8.5 34.5 8.5ZM27.011 21.239V21.202C27.011 21.173 27.01 21.153 27.01 21.153L27.011 21.202C27.011 21.219 27.012 21.237 27.013 21.263C27.013 21.254 27.011 21.248 27.011 21.239ZM34.89 18.713V22.858C34.89 24.897 31.46 26.148 30.998 26.308C30.536 26.149 27.106 24.898 27.106 22.858V16.157H34.889L34.89 18.713Z" fill="#51B1E0"/>
<path d="M14.4219 18.808H20.6519L14.4219 15.666V18.808Z" fill="#262B69"/>
<path d="M11.0165 11.643V8.5H6.49647C6.26447 8.5 6.03947 8.526 5.82047 8.569C5.62847 8.606 5.44047 8.657 5.25747 8.717C5.24847 8.72 5.23947 8.721 5.23047 8.724L11.0165 11.643Z" fill="#262B69"/>
<path d="M22.9372 11.9363V9.65234L18.4102 11.9363H22.9372Z" fill="#262B69"/>
<path d="M22.9372 17.6561V15.3721H18.4102L22.9372 17.6561Z" fill="#262B69"/>
<path d="M20.6519 8.5H14.4219V11.643L20.6519 8.5Z" fill="#262B69"/>
<path d="M4.78516 18.808H11.0162V15.666L4.78516 18.808Z" fill="#262B69"/>
<path d="M7.02759 11.9362L3.33659 10.0742C3.33259 10.0792 3.32959 10.0842 3.32659 10.0902C3.23459 10.2112 3.14959 10.3382 3.07159 10.4702C3.05459 10.4992 3.03959 10.5302 3.02259 10.5602C2.87959 10.8162 2.76359 11.0892 2.68059 11.3772C2.67359 11.4002 2.66559 11.4222 2.65959 11.4452C2.61659 11.6042 2.58159 11.7662 2.55859 11.9322V11.9362H7.02959H7.02759Z" fill="#262B69"/>
<path d="M2.5 15.3721V17.6561L7.028 15.3721H2.5Z" fill="#262B69"/>
<path d="M14.422 12.623H13.74V11.986V11.936V8.5H11.697V11.936V11.986V12.623H11.016H8.39H2.5V14.685H8.39H11.016H11.697V15.322V15.372V18.808H13.74V15.372V15.322V14.685H14.422H17.048H22.937V12.623H17.048H14.422Z" fill="#D3003B"/>
<path d="M2.5 18.8081H4.023L10.836 15.3721H9.312L2.5 18.8081Z" fill="#D3003B"/>
<path d="M9.31255 11.9356L4.10655 9.30957C4.09555 9.31757 4.08655 9.32857 4.07555 9.33757C3.89455 9.47657 3.72455 9.62657 3.57055 9.79357C3.56755 9.79657 3.56355 9.79857 3.56055 9.80257L7.78955 11.9356H9.31255Z" fill="#D3003B"/>
<path d="M22.9366 8.5H21.4136L14.6016 11.936H16.1246L22.9366 8.5Z" fill="#D3003B"/>
<path d="M16.125 15.3721L22.937 18.8081V18.0401L17.648 15.3721H16.125Z" fill="#D3003B"/>
<path d="M28.4706 18.174C28.6396 18.031 28.7306 17.979 28.7306 17.979L28.7826 17.732L28.5356 17.719L28.6266 17.433C28.6266 17.433 28.4446 17.471 28.3146 17.354C28.1846 17.237 28.1716 17.12 28.0546 17.159C27.9606 17.191 27.9926 17.281 27.8516 17.343C28.0076 17.411 28.1176 17.548 28.1176 17.71C28.1176 17.821 28.0656 17.921 27.9836 17.996C28.0056 18.02 28.0286 18.045 28.0556 18.069C28.1726 18.174 28.3026 18.316 28.4716 18.173L28.4706 18.174Z" fill="#D21034"/>
<path d="M27.1074 18.7132H30.4434V21.5403H27.1074V22.6322H30.4434V26.0933C30.7074 26.2033 30.9094 26.2752 30.9984 26.3062C31.0854 26.2762 31.2794 26.2063 31.5364 26.1003V22.6313H34.8904V21.5392H31.5364V18.7122H34.8904V16.1562H27.1074V18.7132ZM27.4524 17.3312C27.3804 17.2762 27.3514 17.1932 27.3794 17.1092C27.4314 16.9532 27.6914 16.8103 27.9384 16.7843C28.1854 16.7583 28.4194 17.0052 28.6144 17.0182C28.8094 17.0312 28.9134 16.9232 28.9524 16.7822C28.9914 16.6402 29.2644 16.3182 29.0954 16.2382C29.3164 16.2382 29.3164 16.4722 29.3164 16.4722C29.3164 16.4722 29.5634 16.2252 29.7464 16.2382C29.8504 16.4202 29.7464 16.6803 29.7464 16.6803C29.7464 16.6803 30.0064 16.5763 30.1884 16.6933C29.8374 16.7453 29.7854 16.9532 29.7854 16.9532C29.7854 16.9532 29.8504 17.1222 29.7594 17.2132C29.6684 17.3042 30.4744 17.4733 30.9174 17.3433C31.3594 17.2133 32.2054 16.9132 32.7514 16.9132C33.2974 16.9132 33.4144 17.1212 33.5444 16.9392C33.6744 16.7572 33.3884 16.5622 32.9204 16.6012C32.4524 16.6402 31.6584 17.1822 31.3464 16.8202C31.2684 16.8202 31.2294 16.9132 31.2294 16.9132C31.2294 16.9132 31.0344 16.8482 30.8394 16.7442C30.6444 16.6402 30.6834 16.9912 30.7874 17.0432C30.4614 17.0302 30.4724 16.8202 30.4724 16.8202C30.4724 16.8202 30.0714 16.5252 30.3314 16.3042C30.3504 16.7082 30.7084 16.5902 30.9044 16.5122C31.0994 16.4342 31.3464 16.4993 31.4634 16.6033C31.5804 16.7073 31.9184 16.7983 32.3474 16.5513C32.7774 16.3043 33.9344 16.2132 33.9474 16.7332C33.9604 17.2532 33.3744 17.2922 33.3744 17.2922C33.3744 17.2922 33.4394 17.6042 33.8044 17.5392C34.1694 17.4742 34.4034 17.3702 34.5074 17.6562C34.6114 17.9423 34.8454 17.9553 34.7684 18.1903C34.6904 18.4243 34.4304 18.5332 34.0794 18.4722C33.7284 18.4112 33.6894 18.2682 33.9754 18.2162C34.2614 18.1642 34.3134 17.9432 34.2094 17.8902C34.1054 17.8382 33.9104 18.0472 33.6504 17.9422C33.3904 17.8372 33.0514 17.6302 33.0514 17.6302C33.0514 17.6302 33.0644 17.7732 32.8304 17.8512C32.5964 17.9292 32.7914 18.0202 32.8564 18.1632C32.9214 18.3062 32.6224 18.4232 32.3104 18.4872C31.9984 18.5522 31.7644 18.7223 31.4644 18.3573C31.1654 17.9923 31.5424 17.8893 31.6984 18.0063C31.8544 18.1223 32.0104 18.3312 32.1404 18.2272C32.2704 18.1232 32.0494 18.0582 32.0234 17.8622C31.9974 17.6672 32.0364 17.4333 32.0364 17.4333C32.0364 17.4333 31.6204 18.0822 30.7364 18.2122C29.8524 18.3422 29.6954 18.3422 29.6954 18.3422L29.4354 18.1602L29.1234 18.3682L29.1104 18.1343C29.1104 18.1343 28.6164 18.5223 28.3564 18.5823C28.0964 18.6423 27.3854 18.4733 27.3704 18.2773C27.3634 18.1883 27.3784 18.1222 27.4174 18.0672C27.2704 17.9962 27.1674 17.8652 27.1674 17.7092C27.1674 17.5392 27.2864 17.3933 27.4544 17.3293L27.4524 17.3312Z" fill="#D21034"/>
<path d="M31.5371 21.5399H34.8911V18.7129H31.5371V21.5399ZM33.2041 19.4119C33.1531 18.9929 33.3231 18.8889 33.3231 18.8889V19.4479C33.3231 19.4479 34.2641 18.5639 34.7821 19.6299C33.9471 19.1999 33.5411 19.6429 33.5411 19.6429C33.5411 19.6429 34.4061 19.4349 34.2871 20.4359C34.0121 19.8249 33.4401 19.8899 33.4401 19.8899C33.4401 19.8899 34.1031 20.1899 33.8431 20.9309C33.6941 20.5219 33.5091 20.3699 33.3751 20.3129C33.3571 20.5859 33.3461 20.9509 33.4011 21.0619C33.4931 21.2439 33.7271 21.3739 33.2581 21.3869C32.7511 21.4009 33.0371 21.2979 33.0891 21.1599C33.1221 21.0709 33.1211 20.6129 33.1161 20.2989C32.8351 20.3509 32.5141 20.6299 32.4911 21.0619C32.1791 20.5929 32.5611 20.0729 32.9611 19.8909C32.2561 19.9039 31.9961 20.2159 31.9051 20.4759C31.8141 19.7869 32.6901 19.5139 32.9611 19.6299C32.7891 19.3309 32.1141 19.3559 31.7751 19.6029C31.7751 19.0309 32.7861 18.8939 33.2041 19.4109V19.4119Z" fill="white"/>
<path d="M31.5364 26.0998C31.2804 26.2058 31.0854 26.2758 30.9984 26.3058C30.9094 26.2748 30.7074 26.2028 30.4434 26.0928V22.6318H27.1074V22.8578C27.1074 24.8978 30.5374 26.1488 30.9994 26.3078C31.4614 26.1478 34.8914 24.8968 34.8914 22.8578V22.6318H31.5374V26.1008L31.5364 26.0998ZM28.1164 23.7688C28.0044 23.6878 27.9944 23.5678 27.9984 23.5028C27.9894 23.5538 27.9554 23.6188 27.8084 23.5598C27.7954 23.3398 27.9194 23.2998 27.9194 23.2998C27.9194 23.2998 27.6394 23.2338 27.7184 22.9218C27.8494 22.8828 27.9334 23.1558 27.9334 23.1558C27.9334 23.1558 27.9264 23.0648 27.9334 22.9218C28.0334 22.9658 28.1151 23.0618 28.1784 23.2098C28.1784 23.2098 28.2254 23.5988 28.1184 23.7688H28.1164ZM29.4154 24.2288C29.5614 24.4718 29.5014 24.6678 29.4994 24.6768L29.4814 24.7308L29.9774 25.1368L29.5704 25.2638L29.2994 24.6818L29.2434 24.6838C29.1214 24.6838 28.5854 24.6608 28.5024 24.2308C28.4474 23.9448 28.4944 23.7338 28.5254 23.5938C28.5484 23.4868 28.5644 23.4158 28.5254 23.3578L28.5054 23.3278L28.4334 23.3028C28.3814 23.2948 28.3104 23.2808 28.2424 23.2648C28.2894 23.2358 28.3354 23.1998 28.3744 23.1598C28.3994 23.1358 28.4374 23.1058 28.4814 23.1058C28.5354 23.1058 28.5954 23.1538 28.6474 23.2418C28.7714 23.4468 28.8654 23.7118 28.8664 23.7138L29.0274 23.6768C29.0254 23.6628 28.9974 23.3398 29.3424 23.1618C29.4734 23.0938 29.5684 23.0428 29.6374 23.0048L29.4984 23.5628L29.6724 23.4558C29.7304 23.4188 29.9594 23.2758 30.1174 23.1298C30.0994 23.6618 29.6734 24.0168 29.4534 24.1078L29.3644 24.1448L29.4154 24.2288ZM32.2694 24.9118C32.3294 24.9158 32.3584 24.9298 32.3924 24.9418C32.3754 24.9348 32.3544 24.9308 32.3394 24.9208C32.1434 24.7978 32.0194 24.1048 32.3394 24.0388C32.2174 23.6228 32.4774 23.4148 32.5684 23.3888C32.5744 23.3868 32.5894 23.3918 32.5984 23.3918C32.6734 23.0948 33.0244 22.9218 33.0244 22.9218C33.0244 22.9218 33.1934 23.0248 33.3874 23.1458C33.5384 22.8988 33.7114 22.8298 33.8684 22.8298C34.0764 22.8298 34.3794 23.0458 34.2584 23.1808C34.0504 23.4148 33.9984 23.0638 33.8554 23.0768C33.7604 23.0848 33.6964 23.1768 33.6344 23.3028C33.7914 23.4038 33.9294 23.4948 33.9724 23.5328C34.0694 23.6188 33.9484 23.9238 33.7004 24.0938C33.7224 24.1128 33.7394 24.1318 33.7444 24.1528C33.7644 24.2468 33.5854 24.5328 33.2784 24.5588C33.3634 24.8148 32.7944 25.0518 32.4544 24.9648C32.6514 25.1268 31.7744 25.5868 31.7744 25.5868C31.7744 25.5868 32.0014 24.8908 32.2684 24.9108L32.2694 24.9118Z" fill="white"/>
<path d="M30.4434 18.7129H27.1074V21.5399H30.4434V18.7129ZM30.2654 19.7229C30.0964 19.4759 29.8624 19.4109 29.8104 19.9959C30.0574 19.9309 30.2004 20.1259 30.1354 20.3859C29.9014 20.1129 29.7324 20.0809 29.6284 20.2789C29.9014 20.3859 29.9064 20.6199 29.7674 20.8159C29.7064 20.4779 29.5264 20.5039 29.4304 20.8159C29.4304 20.8189 29.4284 20.8199 29.4274 20.8229C29.4084 21.0199 29.3244 21.2549 29.1474 21.2219C28.9584 21.1879 29.1144 20.8579 29.2524 20.6809C29.2784 20.4349 29.3874 20.0589 29.5114 20.0279C29.5234 19.9549 29.5444 19.8729 29.5724 19.7919C29.5264 19.7139 29.2794 19.2979 29.1604 19.3339C29.0304 19.3729 28.9444 19.7639 28.9444 19.7639C28.9444 19.7639 29.4194 19.7499 29.2464 20.3879C29.1734 20.0369 29.0944 19.9979 29.0044 19.9979C28.9524 19.9979 28.8954 20.0879 28.8544 20.1659C28.9564 20.4019 29.0184 21.0419 28.7844 21.0629C28.6184 21.0779 28.6364 20.4449 28.7154 20.1869C28.5964 20.0519 28.5244 19.9309 28.5244 19.9309C28.5244 19.9309 28.7084 20.4249 28.4214 20.6339C28.4344 20.1789 28.1214 20.0229 28.2904 19.8409C28.4594 19.6589 28.7454 19.8409 28.7454 19.8409C28.7454 19.8409 28.8124 19.7349 28.5194 19.4759C28.4624 19.4249 28.4114 19.3919 28.3604 19.3579C28.0734 19.5699 27.9854 19.8769 28.0584 20.2849C28.2624 20.3019 28.5514 21.0729 28.3544 21.1539C28.2114 21.2119 28.0234 20.9319 27.9574 20.6689C27.7784 20.6809 27.5174 20.6709 27.5094 20.8969C27.2364 20.8549 27.6264 20.3219 27.8744 20.3999C27.8224 20.1139 27.4534 19.9969 27.4164 20.4649C27.0024 20.0999 27.5294 19.7499 27.7664 19.9059C27.6394 19.4639 27.3974 19.4719 27.3674 19.7369C27.0544 19.4769 27.3704 19.0609 27.6414 19.2559C27.9124 19.4509 27.9324 19.6589 27.9324 19.6589C27.9324 19.6589 28.0094 19.3899 28.1864 19.2479C28.0794 19.1839 28.0094 19.1299 28.0014 19.0089C28.1124 19.0749 28.2434 19.1199 28.3694 19.1719C28.4384 19.1619 28.5134 19.1649 28.6014 19.2049C28.5704 19.2179 28.5544 19.2379 28.5264 19.2529C28.6624 19.3359 28.7734 19.4509 28.7984 19.6719C28.8604 19.0869 29.1244 19.0739 29.2454 19.0609C29.3674 19.0489 29.6534 19.1129 29.7574 19.0089C29.7574 19.2169 29.5234 19.1519 29.3674 19.2169C29.5334 19.3309 29.5744 19.6369 29.5844 19.7609C29.6584 19.5579 29.7814 19.3639 29.9784 19.3199C30.2644 19.2549 30.3294 19.5539 30.2644 19.7229H30.2654Z" fill="white"/>
<path d="M27.4131 18.0681C27.4581 18.0041 27.5361 17.9561 27.6631 17.9131C27.8431 17.8531 27.9081 17.9161 27.9821 17.9961C28.0641 17.9221 28.1161 17.8211 28.1161 17.7101C28.1161 17.5481 28.0061 17.4111 27.8501 17.3431C27.8171 17.3571 27.7851 17.3721 27.7291 17.3811C27.6041 17.4031 27.5121 17.3771 27.4511 17.3301C27.2821 17.3931 27.1641 17.5391 27.1641 17.7101C27.1641 17.8661 27.2671 17.9971 27.4141 18.0681H27.4131Z" fill="white"/>
<path d="M27.8518 17.3428C27.9928 17.2808 27.9608 17.1918 28.0548 17.1588C28.1718 17.1198 28.1848 17.2358 28.3148 17.3538C28.4448 17.4708 28.6268 17.4328 28.6268 17.4328L28.5358 17.7188L28.7828 17.7318L28.7308 17.9788C28.7308 17.9788 28.6398 18.0308 28.4708 18.1738C28.3018 18.3168 28.1718 18.1738 28.0548 18.0698C28.0278 18.0458 28.0048 18.0198 27.9828 17.9968C27.9088 17.9168 27.8438 17.8538 27.6638 17.9138C27.5368 17.9558 27.4598 18.0048 27.4138 18.0688C27.3758 18.1238 27.3598 18.1898 27.3668 18.2788C27.3828 18.4748 28.0938 18.6438 28.3528 18.5838C28.6128 18.5238 29.1068 18.1358 29.1068 18.1358L29.1198 18.3698L29.4318 18.1618L29.6918 18.3438C29.6918 18.3438 29.8478 18.3438 30.7328 18.2138C31.6168 18.0838 32.0328 17.4348 32.0328 17.4348C32.0328 17.4348 31.9938 17.6688 32.0198 17.8638C32.0468 18.0598 32.2668 18.1238 32.1368 18.2288C32.0068 18.3328 31.8508 18.1238 31.6948 18.0078C31.5388 17.8908 31.1618 17.9948 31.4608 18.3588C31.7608 18.7238 31.9948 18.5538 32.3068 18.4888C32.6188 18.4238 32.9178 18.3078 32.8528 18.1648C32.7878 18.0218 32.5928 17.9308 32.8268 17.8528C33.0618 17.7748 33.0478 17.6318 33.0478 17.6318C33.0478 17.6318 33.3858 17.8388 33.6468 17.9438C33.9078 18.0488 34.1018 17.8398 34.2058 17.8918C34.3098 17.9438 34.2578 18.1658 33.9718 18.2178C33.6858 18.2698 33.7248 18.4138 34.0758 18.4738C34.4268 18.5348 34.6868 18.4258 34.7648 18.1918C34.8418 17.9568 34.6088 17.9448 34.5038 17.6578C34.3998 17.3718 34.1658 17.4758 33.8008 17.5408C33.4358 17.6058 33.3708 17.2938 33.3708 17.2938C33.3708 17.2938 33.9568 17.2548 33.9438 16.7348C33.9308 16.2148 32.7738 16.3048 32.3438 16.5528C31.9148 16.7988 31.5768 16.7088 31.4598 16.6048C31.3428 16.5008 31.0948 16.4358 30.9008 16.5138C30.7048 16.5918 30.3468 16.7098 30.3278 16.3058C30.0668 16.5268 30.4688 16.8218 30.4688 16.8218C30.4688 16.8218 30.4578 17.0318 30.7838 17.0448C30.6788 16.9928 30.6408 16.6418 30.8358 16.7458C31.0318 16.8498 31.2258 16.9148 31.2258 16.9148C31.2258 16.9148 31.2648 16.8218 31.3428 16.8218C31.6548 17.1838 32.4488 16.6418 32.9168 16.6028C33.3848 16.5638 33.6708 16.7588 33.5408 16.9408C33.4108 17.1228 33.2938 16.9148 32.7478 16.9148C32.2018 16.9148 31.3558 17.2148 30.9138 17.3448C30.4708 17.4748 29.6648 17.3058 29.7558 17.2148C29.8468 17.1238 29.7818 16.9548 29.7818 16.9548C29.7818 16.9548 29.8338 16.7468 30.1848 16.6948C30.0028 16.5778 29.7428 16.6818 29.7428 16.6818C29.7428 16.6818 29.8468 16.4218 29.7428 16.2398C29.5608 16.2268 29.3128 16.4738 29.3128 16.4738C29.3128 16.4738 29.3128 16.2398 29.0918 16.2398C29.2608 16.3208 28.9878 16.6428 28.9488 16.7838C28.9098 16.9248 28.8058 17.0338 28.6108 17.0198C28.4158 17.0078 28.1818 16.7598 27.9348 16.7858C27.6878 16.8128 27.4268 16.9558 27.3758 17.1108C27.3478 17.1948 27.3778 17.2778 27.4488 17.3328C27.5098 17.3788 27.6018 17.4058 27.7268 17.3838C27.7828 17.3738 27.8148 17.3598 27.8478 17.3458L27.8518 17.3428Z" fill="#FFD101"/>
<path d="M29.2465 20.7187C29.2465 20.7077 29.2515 20.6917 29.2525 20.6797C29.1145 20.8567 28.9595 21.1867 29.1475 21.2207C29.3245 21.2527 29.4085 21.0187 29.4275 20.8217C29.3325 21.1157 29.2465 20.7187 29.2465 20.7187Z" fill="#964B36"/>
<path d="M27.9561 20.6682C28.0221 20.9312 28.2111 21.2122 28.3531 21.1532C28.5501 21.0722 28.2611 20.3012 28.0571 20.2842C28.0741 20.3772 28.0831 20.4642 28.1151 20.5682C28.1391 20.6462 28.0621 20.6612 27.9551 20.6682H27.9561Z" fill="#964B36"/>
<path d="M33.2032 20.2779C33.1752 20.2779 33.1442 20.2939 33.1152 20.2989C33.1202 20.6139 33.1212 21.0709 33.0882 21.1599C33.0362 21.2969 32.7502 21.4009 33.2572 21.3869C33.7262 21.3749 33.4922 21.2449 33.4002 21.0619C33.3452 20.9519 33.3572 20.5859 33.3742 20.3129C33.2742 20.2699 33.2032 20.2779 33.2032 20.2779Z" fill="#964B36"/>
<path d="M33.8547 23.079C33.9977 23.066 34.0497 23.417 34.2577 23.183C34.3787 23.048 34.0757 22.832 33.8677 22.832C33.7097 22.832 33.5367 22.901 33.3867 23.148C33.4687 23.199 33.5537 23.252 33.6347 23.305C33.6957 23.179 33.7597 23.088 33.8547 23.079Z" fill="#964B36"/>
<path d="M28.7124 20.187C28.6334 20.445 28.6164 21.078 28.7814 21.063C29.0154 21.042 28.9534 20.402 28.8514 20.166C28.8204 20.225 28.7974 20.279 28.7974 20.279C28.7654 20.248 28.7384 20.218 28.7114 20.187H28.7124Z" fill="#964B36"/>
<path d="M32.4524 24.9665C32.4294 24.9605 32.4104 24.9505 32.3904 24.9425C32.3564 24.9305 32.3274 24.9175 32.2674 24.9125C32.0004 24.8925 31.7734 25.5885 31.7734 25.5885C31.7734 25.5885 32.6494 25.1295 32.4524 24.9665Z" fill="#964B36"/>
<path d="M33.2506 23.7589C33.4496 23.9479 33.6246 24.0249 33.7026 24.0949C33.9506 23.9249 34.0716 23.6199 33.9746 23.5339C33.9316 23.4959 33.7936 23.4049 33.6366 23.3039C33.5546 23.2519 33.4706 23.1989 33.3886 23.1469C33.1936 23.0249 33.0256 22.9229 33.0256 22.9229C33.0256 22.9229 32.6746 23.0959 32.5996 23.3929C32.7136 23.3909 33.0156 23.5319 33.2516 23.7579L33.2506 23.7589Z" fill="#FFF202"/>
<path d="M22.9402 15.3704H18.4102L22.9402 17.6604V18.0404L17.6502 15.3704H16.1202L22.9402 18.8104H20.6502L14.4202 15.6704V18.8104H13.7402V14.6904H22.9402V15.3704Z" fill="#E3E7EA"/>
<path d="M22.9402 9.65L18.4102 11.94H22.9402V12.62H13.7402V8.5H14.4202V11.64L20.6502 8.5H21.4102L14.6002 11.94H16.1202L22.9402 8.5V9.65Z" fill="#E3E7EA"/>
<path d="M11.7 14.6904V18.8104H11.02V15.6704L4.78 18.8104H4.02L10.84 15.3704H9.31L2.5 18.8104V17.6604L7.03 15.3704H2.5V14.6904H11.7Z" fill="#E3E7EA"/>
<path d="M11.7 8.5V12.62H2.5V12.5C2.5 12.3 2.53 12.12 2.56 11.94H7.03L3.34 10.07C3.41 9.98 3.48 9.89 3.56 9.8L7.79 11.94H9.31L4.11 9.31L4.12 9.3C4.27 9.19 4.43 9.09 4.59 9.01C4.62 8.99 4.65 8.97 4.68 8.96C4.85 8.87 5.03 8.79 5.22 8.73C5.22 8.73 5.23 8.73 5.23 8.72L11.02 11.64V8.5H11.7Z" fill="#E3E7EA"/>
<path d="M30.1172 23.1318C29.9592 23.2778 29.7302 23.4208 29.6722 23.4578L29.4982 23.5648L29.6372 23.0068C29.5672 23.0448 29.4722 23.0968 29.3422 23.1638C28.9972 23.3418 29.0262 23.6648 29.0272 23.6788L28.8662 23.7158C28.8662 23.7158 28.7712 23.4488 28.6472 23.2438C28.5952 23.1568 28.5352 23.1078 28.4812 23.1078C28.4382 23.1078 28.3992 23.1378 28.3742 23.1618C28.3352 23.2018 28.2882 23.2378 28.2422 23.2668C28.3102 23.2818 28.3812 23.2958 28.4332 23.3048L28.5052 23.3298L28.5252 23.3598C28.5652 23.4178 28.5492 23.4888 28.5252 23.5958C28.4932 23.7358 28.4472 23.9468 28.5022 24.2328C28.5842 24.6618 29.1212 24.6858 29.2432 24.6858L29.2992 24.6838L29.5702 25.2658L29.9772 25.1388L29.4812 24.7328L29.4992 24.6788C29.5012 24.6708 29.5612 24.4738 29.4152 24.2308L29.3652 24.1468L29.4542 24.1098C29.6752 24.0198 30.1002 23.6638 30.1172 23.1318Z" fill="#E3E7EA"/>
<path d="M28.6031 19.2039C28.5151 19.1639 28.4401 19.1609 28.3711 19.1709C28.4261 19.1939 28.4781 19.2219 28.5281 19.2519C28.5571 19.2379 28.5721 19.2179 28.6031 19.2039Z" fill="#00A651"/>
<path d="M27.9334 19.6565C27.9334 19.6565 27.9134 19.4485 27.6424 19.2535C27.3714 19.0585 27.0554 19.4745 27.3684 19.7345C27.3984 19.4695 27.6404 19.4615 27.7674 19.9035C27.5304 19.7475 27.0034 20.0985 27.4174 20.4625C27.4544 19.9945 27.8234 20.1115 27.8754 20.3975C27.6284 20.3195 27.2374 20.8535 27.5104 20.8945C27.5184 20.6685 27.7794 20.6785 27.9584 20.6665C28.0654 20.6595 28.1424 20.6445 28.1184 20.5665C28.0864 20.4625 28.0764 20.3755 28.0604 20.2825C27.9874 19.8735 28.0744 19.5675 28.3624 19.3555C28.2974 19.3115 28.2394 19.2745 28.1894 19.2445C28.0114 19.3865 27.9354 19.6555 27.9354 19.6555L27.9334 19.6565Z" fill="#00A651"/>
<path d="M29.368 19.2158C29.525 19.1508 29.758 19.2158 29.758 19.0078C29.654 19.1108 29.368 19.0468 29.246 19.0598C29.124 19.0728 28.861 19.0858 28.799 19.6708C28.775 19.4488 28.664 19.3338 28.527 19.2518C28.477 19.2218 28.425 19.1938 28.37 19.1708C28.244 19.1188 28.113 19.0738 28.002 19.0078C28.009 19.1288 28.08 19.1818 28.187 19.2468C28.237 19.2768 28.295 19.3138 28.36 19.3578C28.41 19.3918 28.461 19.4258 28.519 19.4758C28.812 19.7348 28.745 19.8408 28.745 19.8408C28.745 19.8408 28.459 19.6588 28.29 19.8408C28.121 20.0228 28.433 20.1788 28.421 20.6338C28.708 20.4258 28.524 19.9308 28.524 19.9308C28.524 19.9308 28.596 20.0528 28.715 20.1868C28.742 20.2178 28.769 20.2478 28.801 20.2788C28.801 20.2788 28.824 20.2248 28.855 20.1658C28.896 20.0868 28.953 19.9978 29.005 19.9978C29.096 19.9978 29.174 20.0368 29.247 20.3878C29.42 19.7498 28.945 19.7638 28.945 19.7638C28.945 19.7638 29.032 19.3728 29.161 19.3338C29.28 19.2978 29.527 19.7138 29.573 19.7918C29.577 19.7818 29.582 19.7708 29.586 19.7608C29.576 19.6368 29.535 19.3298 29.369 19.2168L29.368 19.2158Z" fill="#00A651"/>
<path d="M32.9614 19.6306C32.6904 19.5136 31.8154 19.7866 31.9054 20.4766C31.9964 20.2166 32.2554 19.9046 32.9614 19.8916C32.5614 20.0736 32.1784 20.5936 32.4914 21.0626C32.5144 20.6306 32.8354 20.3516 33.1164 20.2996C33.1454 20.2946 33.1764 20.2786 33.2044 20.2786C33.2044 20.2786 33.2754 20.2706 33.3754 20.3136C33.5084 20.3716 33.6944 20.5226 33.8434 20.9316C34.1044 20.1906 33.4404 19.8906 33.4404 19.8906C33.4404 19.8906 34.0134 19.8256 34.2874 20.4366C34.4064 19.4356 33.5414 19.6436 33.5414 19.6436C33.5414 19.6436 33.9474 19.2006 34.7824 19.6306C34.2644 18.5646 33.3234 19.4486 33.3234 19.4486V18.8896C33.3234 18.8896 33.1534 18.9936 33.2044 19.4126C32.7864 18.8956 31.7754 19.0326 31.7754 19.6046C32.1144 19.3576 32.7904 19.3316 32.9614 19.6306Z" fill="#00A651"/>
<path d="M29.9791 19.3187C29.7821 19.3637 29.6591 19.5577 29.5851 19.7597C29.5811 19.7697 29.5751 19.7807 29.5721 19.7907C29.5441 19.8717 29.5231 19.9537 29.5111 20.0267C29.3871 20.0577 29.2781 20.4337 29.2521 20.6797C29.2511 20.6917 29.2471 20.7077 29.2461 20.7187C29.2461 20.7187 29.3321 21.1157 29.4271 20.8217C29.4271 20.8187 29.4291 20.8177 29.4301 20.8147C29.5261 20.5027 29.7061 20.4767 29.7671 20.8147C29.9061 20.6187 29.9011 20.3847 29.6281 20.2777C29.7321 20.0797 29.9011 20.1117 30.1351 20.3847C30.2001 20.1247 30.0571 19.9297 29.8101 19.9947C29.8621 19.4097 30.0961 19.4747 30.2651 19.7217C30.3301 19.5527 30.2651 19.2537 29.9791 19.3187Z" fill="#00A651"/>
<path d="M33.2798 24.5611C33.5868 24.5351 33.7658 24.2491 33.7458 24.1551C33.7418 24.1341 33.7238 24.1151 33.7018 24.0961C33.6238 24.0261 33.4488 23.9491 33.2498 23.7601C33.0128 23.5341 32.7118 23.3931 32.5978 23.3951C32.5898 23.3951 32.5748 23.3901 32.5678 23.3921C32.4768 23.4181 32.2178 23.6261 32.3388 24.0421C32.0188 24.1081 32.1428 24.8001 32.3388 24.9241C32.3538 24.9341 32.3748 24.9371 32.3918 24.9451C32.4118 24.9541 32.4318 24.9641 32.4538 24.9691C32.7948 25.0551 33.3638 24.8181 33.2778 24.5631L33.2798 24.5611Z" fill="#00A651"/>
<path d="M27.9319 22.9218C27.9249 23.0648 27.9319 23.1558 27.9319 23.1558C27.9319 23.1558 27.8479 22.8828 27.7169 22.9218C27.6389 23.2338 27.9179 23.2998 27.9179 23.2998C27.9179 23.2998 27.7949 23.3398 27.8069 23.5598C27.9549 23.6198 27.9889 23.5538 27.9969 23.5028C27.9929 23.5688 28.0029 23.6888 28.1149 23.7688C28.2219 23.5978 28.1749 23.2098 28.1749 23.2098C28.1116 23.0618 28.0299 22.9658 27.9299 22.9218H27.9319Z" fill="#00A651"/>
</svg>
