<svg width="41" height="41" viewBox="0 0 41 41" fill="none" xmlns="http://www.w3.org/2000/svg">
<path d="M35.8961 27.2171C35.9241 27.1291 35.9501 27.0431 35.9631 26.9701C35.9631 26.9651 35.9641 26.9591 35.9651 26.9551C35.8691 27.0211 35.7781 27.0851 35.6621 27.1551C35.7431 27.2011 35.8211 27.2231 35.8961 27.2171Z" fill="#261B64"/>
<path d="M34.504 8.5H22.938V9.652L18.41 11.936H22.938V15.372H18.41L22.938 17.656V18.809H20.653L14.422 15.666V18.808H11.016V15.665L4.785 18.808H2.5V28.504C2.5 30.711 4.289 32.5 6.495 32.5H34.504C36.711 32.5 38.499 30.711 38.499 28.504V12.496C38.499 10.289 36.71 8.5 34.504 8.5ZM36.926 26.642C36.86 26.933 36.588 27.624 36.296 28.008C36.298 27.998 36.296 27.993 36.298 27.983C36.205 28.121 36.097 28.241 35.963 28.266C35.702 28.315 35.108 28.132 34.626 27.675C33.784 28.038 32.752 28.337 31.645 28.343V28.345H31.629H31.613V28.343C30.505 28.337 29.473 28.038 28.631 27.675C28.149 28.132 27.555 28.315 27.294 28.266C27.162 28.241 27.054 28.124 26.961 27.989C26.962 27.996 26.961 28 26.962 28.008C26.67 27.624 26.398 26.933 26.332 26.642C26.288 26.446 26.275 26.159 26.697 26.097C26.789 25.812 27.026 25.467 27.195 25.129C27.357 24.797 27.498 24.514 27.652 24.406C27.724 24.356 27.904 24.338 28.119 24.341C27.45 23.317 26.952 21.939 26.952 20.084V13.584H36.328V20.084C36.328 21.939 35.83 23.317 35.161 24.341C35.364 24.341 35.533 24.359 35.602 24.406C35.756 24.514 35.897 24.797 36.059 25.129C36.228 25.467 36.465 25.812 36.557 26.097C36.98 26.159 36.968 26.446 36.923 26.642H36.926Z" fill="#261B64"/>
<path d="M27.6836 25.7848C27.8666 25.9758 28.0716 26.1368 28.2896 26.2788C28.3926 26.0608 28.4606 25.8528 28.4556 25.7178C28.1476 25.4918 27.8686 25.5758 27.6836 25.7848Z" fill="#261B64"/>
<path d="M27.362 27.2171C27.436 27.2201 27.513 27.1981 27.592 27.1531C27.477 27.0841 27.388 27.0201 27.293 26.9551C27.293 26.9601 27.294 26.9661 27.295 26.9701C27.308 27.0431 27.334 27.1291 27.362 27.2171Z" fill="#261B64"/>
<path d="M34.801 25.7187C34.796 25.8537 34.863 26.0627 34.966 26.2807C35.185 26.1387 35.39 25.9767 35.574 25.7857C35.388 25.5757 35.11 25.4927 34.801 25.7187Z" fill="#261B64"/>
<path d="M31.6425 27.043C31.6425 27.043 30.5745 26.751 29.4585 25.833C29.4145 26.135 29.3385 26.451 29.2305 26.742C30.1575 27.078 31.1145 27.155 31.6295 27.157C32.1445 27.155 33.1015 27.079 34.0275 26.743C33.9215 26.458 33.8465 26.149 33.8025 25.852C32.6955 26.754 31.6425 27.043 31.6425 27.043Z" fill="#261B64"/>
<path d="M5.22852 8.724L11.0145 11.642V8.5H6.49452C6.04952 8.5 5.62852 8.59 5.22852 8.724Z" fill="#261B64"/>
<path d="M11.0156 8.50002H11.0166L11.0156 8.49902V8.50002Z" fill="#261B64"/>
<path d="M20.6519 8.5H14.4219V11.643L20.6519 8.5Z" fill="#261B64"/>
<path d="M3.33664 10.0742C2.92764 10.6062 2.65464 11.2402 2.55664 11.9362H7.02764L3.33664 10.0742Z" fill="#261B64"/>
<path d="M2.5 15.3721V17.6561L7.028 15.3721H2.5Z" fill="#261B64"/>
<path d="M22.9402 9.65L18.4102 11.94H22.9402V12.62H13.7402V8.5H14.4202V11.64L20.6502 8.5H21.4102L14.6002 11.94H16.1202L22.9402 8.5V9.65Z" fill="#E3E7EA"/>
<path d="M22.9402 15.3704H18.4102L22.9402 17.6604V18.0404L17.6502 15.3704H16.1202L22.9402 18.8104H20.6502L14.4202 15.6704V18.8104H13.7402V14.6904H22.9402V15.3704Z" fill="#E3E7EA"/>
<path d="M11.7 14.6904V18.8104H11.02V15.6704L4.78 18.8104H4.02L10.84 15.3704H9.31L2.5 18.8104V17.6604L7.03 15.3704H2.5V14.6904H11.7Z" fill="#E3E7EA"/>
<path d="M11.7 8.5V12.62H2.5V12.5C2.5 12.3 2.53 12.12 2.56 11.94H7.03L3.34 10.07C3.41 9.98 3.48 9.89 3.56 9.8L7.79 11.94H9.31L4.11 9.31C4.44 9.06 4.82 8.86 5.23 8.73L11.02 11.64V8.5H11.7Z" fill="#E3E7EA"/>
<path d="M9.31255 11.9355H9.31055L9.31255 11.9365V11.9355Z" fill="#E3E7EA"/>
<path d="M14.422 12.623H13.74V11.986V11.936V8.5H11.697V11.936V11.986V12.623H11.016H8.39H2.5V14.685H8.39H11.016H11.697V15.322V15.372V18.808H13.74V15.372V15.322V14.685H14.422H17.048H22.937V12.623H17.048H14.422Z" fill="#D3003B"/>
<path d="M2.5 18.8081H4.023L10.836 15.3721H9.312L2.5 18.8081Z" fill="#D3003B"/>
<path d="M9.30955 11.9355H9.31155L4.10655 9.31055C3.90955 9.45755 3.72655 9.62255 3.56055 9.80255L7.78955 11.9355H9.30955Z" fill="#D3003B"/>
<path d="M22.9366 8.5H21.4136L14.6016 11.936H16.1246L22.9366 8.5Z" fill="#D3003B"/>
<path d="M16.125 15.3721L22.937 18.8081V18.0401L17.648 15.3721H16.125Z" fill="#D3003B"/>
<path d="M27.3615 27.2173C27.4535 27.5053 27.5775 27.8153 27.4095 27.7673C27.4565 27.4263 26.8335 27.1643 26.9605 27.9893C27.0545 28.1243 27.1615 28.2413 27.2935 28.2663C27.5545 28.3153 28.1485 28.1313 28.6305 27.6753C28.2395 27.5073 27.8805 27.3283 27.5915 27.1533C27.5125 27.1993 27.4355 27.2213 27.3615 27.2173Z" fill="#BA6747"/>
<path d="M27.6843 25.7851C27.8703 25.5761 28.1483 25.4931 28.4563 25.7191C28.4613 25.8541 28.3933 26.0621 28.2903 26.2801C28.5873 26.4731 28.9053 26.6251 29.2303 26.7431C29.3383 26.4521 29.4143 26.1361 29.4583 25.8341C28.9953 25.4541 28.5283 24.9661 28.1213 24.3431C27.9063 24.3401 27.7253 24.3581 27.6543 24.4081C27.5003 24.5161 27.3593 24.7991 27.1973 25.1311C27.3303 25.3811 27.4993 25.5941 27.6843 25.7871V25.7851Z" fill="#BA6747"/>
<path d="M35.847 27.7673C35.679 27.8143 35.803 27.5053 35.895 27.2173C35.82 27.2233 35.741 27.2013 35.661 27.1553C35.372 27.3303 35.015 27.5083 34.625 27.6763C35.107 28.1333 35.701 28.3153 35.962 28.2673C36.096 28.2423 36.204 28.1233 36.297 27.9843C36.42 27.1673 35.801 27.4263 35.847 27.7673Z" fill="#BA6747"/>
<path d="M33.8008 25.8518C33.8448 26.1488 33.9198 26.4568 34.0258 26.7428C34.3508 26.6248 34.6678 26.4738 34.9648 26.2808C34.8618 26.0618 34.7948 25.8538 34.7998 25.7188C35.1088 25.4928 35.3868 25.5758 35.5728 25.7858C35.7588 25.5928 35.9268 25.3798 36.0598 25.1298C35.8978 24.7978 35.7568 24.5148 35.6028 24.4068C35.5338 24.3588 35.3648 24.3408 35.1618 24.3418C34.7478 24.9758 34.2718 25.4688 33.8008 25.8518Z" fill="#BA6747"/>
<path d="M35.9645 26.9549C36.0175 26.6389 35.9805 26.0489 36.4875 26.0799C36.5195 26.0819 36.5315 26.0939 36.5595 26.0979C36.4675 25.8139 36.2305 25.4679 36.0615 25.1299C35.9285 25.3799 35.7595 25.5929 35.5745 25.7859C35.3905 25.9769 35.1855 26.1389 34.9665 26.2809C34.6705 26.4739 34.3525 26.6249 34.0275 26.7429C33.1005 27.0789 32.1435 27.1549 31.6295 27.1569C31.1145 27.1549 30.1575 27.0789 29.2305 26.7419C28.9055 26.6239 28.5875 26.4719 28.2905 26.2789C28.0725 26.1369 27.8675 25.9759 27.6845 25.7849C27.4995 25.5919 27.3305 25.3789 27.1975 25.1289C27.0275 25.4669 26.7915 25.8119 26.6995 26.0969C26.6645 26.2049 26.6465 26.3059 26.6665 26.3919C26.6885 26.4859 26.9265 26.7029 27.2945 26.9539C27.3895 27.0189 27.4795 27.0829 27.5935 27.1519C27.8825 27.3269 28.2415 27.5059 28.6325 27.6739C29.4745 28.0369 30.5065 28.3359 31.6145 28.3419V28.3439H31.6305H31.6465V28.3419C32.7535 28.3359 33.7865 28.0369 34.6275 27.6739C35.0175 27.5059 35.3745 27.3279 35.6635 27.1529C35.7795 27.0829 35.8705 27.0189 35.9665 26.9529L35.9645 26.9549Z" fill="#E9CFC6"/>
<path d="M27.4109 27.7676C27.5789 27.8146 27.4549 27.5056 27.3629 27.2176C27.3349 27.1296 27.3089 27.0436 27.2959 26.9706C27.2959 26.9656 27.2949 26.9596 27.2939 26.9556C26.9259 26.7036 26.6879 26.4866 26.6659 26.3936C26.6459 26.3076 26.6639 26.2066 26.6989 26.0986C26.2769 26.1606 26.2889 26.4476 26.3339 26.6436C26.3999 26.9346 26.6719 27.6256 26.9639 28.0096C26.9629 28.0016 26.9639 27.9976 26.9629 27.9906C26.8359 27.1656 27.4589 27.4276 27.4119 27.7686L27.4109 27.7676Z" fill="#D7A896"/>
<path d="M36.5607 26.0973C36.5327 26.0933 36.5207 26.0813 36.4887 26.0793C35.9817 26.0483 36.0187 26.6393 35.9657 26.9543C35.9657 26.9593 35.9647 26.9653 35.9637 26.9693C35.9507 27.0423 35.9247 27.1283 35.8967 27.2163C35.8047 27.5043 35.6807 27.8133 35.8487 27.7663C35.8027 27.4263 36.4217 27.1653 36.2987 27.9823C36.2977 27.9923 36.2987 27.9973 36.2967 28.0073C36.5887 27.6233 36.8607 26.9323 36.9267 26.6413C36.9717 26.4453 36.9837 26.1593 36.5607 26.0973Z" fill="#D7A896"/>
<path d="M34.2547 23.7578C34.2547 23.7578 33.8927 24.9848 32.7207 25.4938C33.1837 25.7728 33.5837 25.5608 33.8727 25.2838C33.9127 25.2448 33.9657 25.2118 34.0157 25.1768C34.3927 24.8108 34.7607 24.3638 35.0757 23.8188C35.0637 23.8128 35.0517 23.8068 35.0387 23.8008C34.8637 23.7648 34.2547 23.7578 34.2547 23.7578Z" fill="#0072C4"/>
<path d="M27.8886 22.7126C27.9136 22.6936 27.9406 22.6796 27.9646 22.6566C28.3296 22.3216 28.9446 22.1556 29.4086 22.6216C29.4086 22.6206 29.4036 22.6106 29.4036 22.6106L29.9956 22.4996V22.0936C29.6836 22.1576 29.5586 22.4686 29.5586 22.4686C29.5586 22.4686 29.4336 22.2346 29.3866 21.9846C29.3396 21.7346 29.4686 21.4946 29.4686 21.4946H29.4706C29.4056 21.4516 29.3406 21.4046 29.2776 21.3456C28.7156 20.8146 28.2306 21.0796 27.9496 21.3616C27.7746 21.5366 27.5706 21.6386 27.4336 21.6956C27.4966 22.0356 27.5776 22.3536 27.6756 22.6506C27.7306 22.6606 27.8106 22.6866 27.8886 22.7126Z" fill="#0072C4"/>
<path d="M33.5126 18.4385C33.5126 18.4385 33.5196 18.8135 33.4746 19.1105C33.5056 19.1845 33.5656 19.2135 33.8096 18.9685C33.8466 19.0315 33.9196 19.0795 34.0136 19.1065C33.9866 18.8605 33.9346 18.5155 33.9346 18.5155L33.5126 18.4385Z" fill="#0072C4"/>
<path d="M32.5433 22.6395L33.0433 22.5275V22.0635C32.6993 22.1415 32.6053 22.4695 32.6053 22.4695C32.6053 22.4695 32.4173 22.0325 32.4173 21.7985C32.4173 21.6625 32.4483 21.5425 32.4743 21.4615C32.4413 21.4345 32.4023 21.4235 32.3713 21.3925C32.2933 21.3175 32.2123 21.2765 32.1313 21.2275C32.1003 21.3115 32.0723 21.3995 32.0593 21.4845C32.0143 21.7775 32.1373 22.1565 32.1373 22.1565C32.1373 22.1565 31.9033 21.9795 31.6523 21.9765V22.3365C31.7203 22.3335 31.7893 22.3395 31.8593 22.3535C32.0493 22.3395 32.1993 22.3315 32.1993 22.3315C32.1993 22.3315 32.1593 22.3805 32.1033 22.4405C32.2183 22.4985 32.3343 22.5745 32.4483 22.6885C32.6583 22.8975 32.8573 22.9965 33.0433 23.0235V22.8435C32.6903 22.8825 32.5433 22.6395 32.5433 22.6395Z" fill="#0072C4"/>
<path d="M32.9814 18.3453C32.8874 18.3143 32.4194 18.5013 32.0754 18.5013C31.7314 18.5013 30.9664 18.2823 30.8254 18.4073C30.7174 18.5023 30.5834 18.8983 30.4844 19.2403C30.5434 19.1993 30.6024 19.1483 30.6534 19.0623C30.7624 19.2023 31.2944 19.2803 31.6534 18.9683C31.7474 19.0933 32.2164 19.2183 32.5284 19.0153C32.6164 19.0933 32.8284 19.1923 33.0504 19.1793C33.0934 19.0763 33.1224 18.9713 33.1224 18.8453C33.1224 18.6583 33.0754 18.3763 32.9814 18.3453Z" fill="#0072C4"/>
<path d="M29.7695 22.9131C29.8455 22.9571 29.9205 22.9761 29.9955 22.9971V22.9351C29.9955 22.9351 29.9915 22.9371 29.9885 22.9381C29.9015 22.9471 29.8345 22.9311 29.7695 22.9131Z" fill="#0072C4"/>
<path d="M31.6533 23.6895V24.6575C32.2313 24.6575 32.6063 24.4975 32.8683 24.2885C32.6933 24.2395 32.5213 24.1595 32.3713 24.0145C32.1413 23.7925 31.8943 23.6935 31.6533 23.6895Z" fill="#0072C4"/>
<path d="M30.9507 23.9679C30.7777 24.1209 30.5497 24.2349 30.3027 24.2799C30.4917 24.4669 30.8527 24.6249 31.5137 24.6469V23.7109C31.3127 23.7389 31.1187 23.8179 30.9507 23.9669V23.9679Z" fill="#0072C4"/>
<path d="M28.9841 19.7435C28.7471 19.2855 28.6681 18.8445 28.6681 18.8445C28.8401 19.0945 29.2001 19.3605 29.4181 18.9845C29.5081 19.1485 29.6151 19.3995 29.8551 19.2055C29.8991 18.8705 29.8861 18.5515 29.7001 18.4855C29.4341 18.3915 28.9641 18.1105 28.8081 17.6105C28.6531 17.1105 28.7311 15.9545 28.5901 15.8765C28.4491 15.7985 28.0281 15.9855 27.7781 15.6735C27.5281 15.3615 27.6841 15.2505 27.8561 15.1415C28.0281 15.0325 28.5121 14.7825 28.4811 14.6885C28.4501 14.5945 28.5121 14.4455 28.8081 14.3445C29.3561 14.1565 29.7931 14.6415 29.9651 14.8285C30.1371 15.0165 30.5901 15.2665 30.7931 15.2815C30.9961 15.2975 33.4491 15.3285 33.7311 15.3595C34.0121 15.3905 34.7311 15.5785 34.6691 16.4375C34.6071 17.2965 34.4851 18.1255 34.3661 18.2815C34.2471 18.4375 34.1691 18.4845 34.1691 18.4845C34.1691 18.4845 34.2391 18.8675 34.2671 19.1135C34.3701 19.0945 34.4841 19.0605 34.6211 18.9845C34.7771 19.1565 35.2301 19.1565 35.2301 19.1565C35.2301 19.1565 35.0791 19.4355 34.8561 19.7515C35.0501 19.7855 35.2411 19.8785 35.4021 20.0655C35.6401 20.3415 35.8411 20.4015 35.9811 20.3935C35.9841 20.2915 35.9961 20.1965 35.9961 20.0915V13.9785H27.2871V20.0915C27.2871 20.1675 27.2961 20.2345 27.2971 20.3095C27.4721 20.2965 27.7331 20.2445 27.9651 20.0325C28.2251 19.7935 28.6141 19.6435 28.9841 19.7435Z" fill="#0072C4"/>
<path d="M31.334 22.4053C31.392 22.3823 31.452 22.3653 31.513 22.3533V21.9843C31.216 22.0783 31.075 22.3313 31.075 22.3313C31.075 22.3313 30.813 22.0073 30.809 21.7503C30.807 21.6023 30.836 21.4943 30.872 21.4033C30.787 21.4683 30.694 21.5273 30.592 21.5723C30.466 21.9683 30.528 22.2803 30.528 22.2803C30.528 22.2803 30.385 22.1263 30.168 22.0943V22.4663L30.575 22.3903C30.575 22.3903 30.463 22.7283 30.168 22.8693V23.0433C30.413 23.0533 30.65 22.9463 30.855 22.7323C30.927 22.6573 31.008 22.5923 31.092 22.5343C31.083 22.5093 31.075 22.4823 31.075 22.4683C31.075 22.4443 31.187 22.4223 31.334 22.4033V22.4053Z" fill="#0072C4"/>
<path d="M30.1524 18.8453C30.0924 18.9053 30.0834 19.1053 30.0684 19.2793C30.1054 19.2933 30.1464 19.2983 30.1864 19.3043C30.2054 19.0743 30.2224 18.7753 30.1524 18.8453Z" fill="#0072C4"/>
<path d="M33.9332 21.3613C33.8082 21.4953 33.6632 21.5813 33.5122 21.6413C33.5122 21.6443 33.5092 21.6473 33.5092 21.6503C33.4592 21.9883 33.5742 22.2193 33.5742 22.2193C33.5742 22.2193 33.4392 22.0683 33.1992 22.0573V22.4923L33.6522 22.3913C33.6522 22.3913 33.5142 22.6853 33.1992 22.8033V23.0293C33.4592 23.0123 33.6872 22.8643 33.8702 22.6893C34.2142 22.3593 34.9322 22.1433 35.4012 22.6893C35.4492 22.7443 35.4912 22.7703 35.5352 22.8093C35.6602 22.4693 35.7662 22.1053 35.8432 21.7063C35.7522 21.6633 35.6192 21.5823 35.4172 21.4083C34.9792 21.0333 34.3702 20.8923 33.9332 21.3613Z" fill="#0072C4"/>
<path d="M30.6216 25.5013C29.8996 25.1683 29.6316 24.5273 29.5436 24.1573C29.4536 24.1073 29.3636 24.0473 29.2786 23.9673C29.2166 23.9093 29.1596 23.8853 29.0996 23.8453C29.0356 23.8473 28.9796 23.8553 28.9506 23.8763C28.9076 23.9083 28.8626 23.8193 28.8246 23.7063C28.5786 23.6383 28.3626 23.6943 28.1836 23.8073C28.4476 24.2733 28.7516 24.6623 29.0666 24.9953C29.2006 25.0463 29.3316 25.1203 29.4506 25.2513C29.8346 25.6743 30.2566 25.7223 30.6216 25.5013Z" fill="#0072C4"/>
<path d="M29.997 20.3057C29.997 20.2587 30.035 20.2197 30.083 20.2197C30.131 20.2197 30.169 20.2577 30.169 20.3057V20.4218C30.414 20.4318 30.651 20.3248 30.856 20.1108C31.262 19.6888 31.872 19.4888 32.45 20.0658C32.576 20.1908 32.697 20.2717 32.814 20.3267L33.115 20.2267C33.115 20.2267 33.118 20.2188 33.122 20.2188C33.124 20.2188 33.124 20.2227 33.126 20.2227L33.137 20.2188V20.2337C33.168 20.2437 33.2 20.2618 33.2 20.2968V20.4048C33.46 20.3878 33.688 20.2398 33.871 20.0648C34.097 19.8478 34.484 19.6857 34.856 19.7507C35.079 19.4337 35.23 19.1558 35.23 19.1558C35.23 19.1558 34.777 19.1557 34.621 18.9837C34.484 19.0597 34.37 19.0948 34.267 19.1128C34.166 19.1308 34.083 19.1258 34.013 19.1058C33.919 19.0778 33.846 19.0308 33.809 18.9678C33.564 19.2128 33.504 19.1838 33.474 19.1098C33.46 19.0748 33.449 19.0338 33.434 18.9988C33.317 19.1328 33.182 19.1708 33.05 19.1788C32.828 19.1918 32.616 19.0927 32.528 19.0147C32.216 19.2177 31.747 19.0928 31.653 18.9678C31.294 19.2798 30.762 19.2018 30.653 19.0618C30.601 19.1478 30.543 19.1997 30.484 19.2397C30.386 19.3057 30.286 19.3188 30.187 19.3038C30.147 19.2978 30.106 19.2927 30.069 19.2787C30.001 19.2537 29.938 19.2208 29.887 19.1868C29.875 19.1978 29.867 19.1958 29.855 19.2048C29.615 19.3978 29.507 19.1477 29.418 18.9837C29.2 19.3597 28.84 19.0938 28.668 18.8438C28.668 18.8438 28.746 19.2858 28.984 19.7428C29.147 19.7868 29.306 19.8737 29.449 20.0317C29.59 20.1877 29.737 20.2797 29.884 20.3417L29.996 20.3048L29.997 20.3057Z" fill="#015121"/>
<path d="M29.4571 25.833C30.5731 26.751 31.6411 27.043 31.6411 27.043C31.6411 27.043 32.6941 26.754 33.8011 25.852C34.2711 25.469 34.7481 24.975 35.1621 24.342C35.8311 23.319 36.3291 21.941 36.3291 20.085V13.585H26.9531V20.085C26.9531 21.94 27.4511 23.319 28.1201 24.342C28.5271 24.965 28.9941 25.452 29.4571 25.833ZM28.1831 23.808C28.1471 23.83 28.1071 23.848 28.0751 23.873C28.0301 23.911 27.3291 22.968 27.5871 22.879C27.6251 22.866 27.6641 22.846 27.7021 22.828C27.5811 22.752 27.5041 22.689 27.5301 22.658C27.5481 22.637 27.6011 22.637 27.6771 22.651C27.5791 22.354 27.4981 22.036 27.4351 21.696C27.3521 21.73 27.2891 21.752 27.2891 21.752L27.1071 20.313C27.1071 20.313 27.1901 20.317 27.2981 20.309C27.2961 20.235 27.2881 20.167 27.2881 20.091V13.978H35.9971V20.091C35.9971 20.196 35.9861 20.291 35.9821 20.393C36.1191 20.385 36.2001 20.314 36.2001 20.314L35.9971 21.752C35.9971 21.752 35.9511 21.755 35.8451 21.706C35.7681 22.105 35.6621 22.469 35.5371 22.809C35.5801 22.847 35.6261 22.898 35.6661 22.924C35.7471 23.235 35.3071 23.942 35.2471 23.903C35.1931 23.867 35.1331 23.847 35.0761 23.819C34.7611 24.364 34.3931 24.811 34.0161 25.177C34.1201 25.104 34.2361 25.039 34.3671 25C33.7231 25.924 31.8881 26.861 31.6431 26.86C31.3951 26.86 29.4041 25.986 28.8091 24.928C28.8961 24.933 28.9821 24.963 29.0671 24.995C28.7521 24.662 28.4481 24.274 28.1841 23.807L28.1831 23.808Z" fill="white"/>
<path d="M30.068 19.2803C30.083 19.1063 30.092 18.9073 30.152 18.8463C30.222 18.7763 30.206 19.0753 30.186 19.3053C30.284 19.3203 30.385 19.3073 30.483 19.2413C30.582 18.8993 30.716 18.5033 30.824 18.4083C30.965 18.2833 31.73 18.5023 32.074 18.5023C32.418 18.5023 32.886 18.3153 32.98 18.3463C33.074 18.3773 33.121 18.6593 33.121 18.8463C33.121 18.9723 33.092 19.0773 33.049 19.1803C33.182 19.1723 33.317 19.1343 33.433 19.0003C33.448 19.0353 33.458 19.0763 33.473 19.1113C33.518 18.8143 33.511 18.4393 33.511 18.4393L33.933 18.5163C33.933 18.5163 33.985 18.8613 34.012 19.1073C34.082 19.1273 34.165 19.1323 34.266 19.1143C34.237 18.8683 34.168 18.4853 34.168 18.4853C34.168 18.4853 34.246 18.4383 34.365 18.2823C34.484 18.1263 34.606 17.2973 34.668 16.4383C34.73 15.5793 34.011 15.3913 33.73 15.3603C33.448 15.3293 30.995 15.2983 30.792 15.2823C30.589 15.2673 30.136 15.0173 29.964 14.8293C29.792 14.6423 29.355 14.1573 28.807 14.3453C28.511 14.4463 28.449 14.5953 28.48 14.6893C28.511 14.7833 28.027 15.0333 27.855 15.1423C27.683 15.2513 27.527 15.3623 27.777 15.6743C28.027 15.9863 28.448 15.7993 28.589 15.8773C28.73 15.9553 28.652 17.1113 28.807 17.6113C28.963 18.1113 29.433 18.3923 29.699 18.4863C29.885 18.5523 29.898 18.8713 29.854 19.2063C29.866 19.1973 29.873 19.1993 29.886 19.1883C29.937 19.2223 30 19.2543 30.068 19.2803ZM28.386 15.0333C28.464 14.8613 28.728 14.9083 28.807 15.0333C28.886 15.1583 28.308 15.2053 28.386 15.0333Z" fill="white"/>
<path d="M31.6406 26.8597C31.8856 26.8597 33.7206 25.9237 34.3646 24.9997C34.2336 25.0387 34.1176 25.1037 34.0136 25.1767C33.9636 25.2117 33.9116 25.2447 33.8706 25.2837C33.5816 25.5597 33.1816 25.7727 32.7186 25.4937C32.4156 25.6257 32.0726 25.7207 31.6516 25.7207C31.2226 25.7207 30.8946 25.6287 30.6196 25.5017C30.2546 25.7237 29.8336 25.6737 29.4486 25.2507C29.3296 25.1197 29.1986 25.0457 29.0646 24.9947C28.9796 24.9627 28.8936 24.9327 28.8066 24.9277C29.4016 25.9857 31.3926 26.8597 31.6406 26.8597Z" fill="white"/>
<path d="M33.8702 22.6898C33.6872 22.8648 33.4592 23.0128 33.1992 23.0298V23.9308C33.4252 23.5548 33.4192 23.1748 33.4192 23.1748C33.4192 23.1748 35.0752 22.7218 35.2312 22.7838C35.3872 22.8468 35.1212 23.1118 35.0122 23.3408C34.9022 23.5698 35.1672 23.8578 35.0802 23.8128C35.0722 23.8088 35.0542 23.8058 35.0372 23.8018C35.0492 23.8068 35.0612 23.8138 35.0742 23.8198C35.1312 23.8478 35.1912 23.8678 35.2452 23.9038C35.3052 23.9428 35.7452 23.2358 35.6642 22.9248C35.6242 22.8998 35.5782 22.8478 35.5352 22.8098C35.4902 22.7708 35.4492 22.7458 35.4012 22.6898C34.9322 22.1438 34.2142 22.3598 33.8702 22.6898Z" fill="white"/>
<path d="M28.8232 23.7071C28.7702 23.5481 28.7302 23.3401 28.7302 23.3401C28.7302 23.3401 28.0352 23.0361 27.7012 22.8281C27.6622 22.8461 27.6232 22.8671 27.5862 22.8791C27.3282 22.9681 28.0292 23.9111 28.0742 23.8731C28.1062 23.8471 28.1472 23.8301 28.1822 23.8081C28.3602 23.6961 28.5772 23.6391 28.8232 23.7071Z" fill="white"/>
<path d="M31.513 23.7121V22.7661C31.247 22.7881 31.128 22.6401 31.092 22.5371C31.008 22.5951 30.927 22.6601 30.855 22.7351C30.65 22.9481 30.413 23.0561 30.168 23.0461V24.1101C30.199 24.1681 30.244 24.2241 30.302 24.2811C30.549 24.2361 30.777 24.1211 30.95 23.9691C31.118 23.8211 31.312 23.7411 31.513 23.7121Z" fill="white"/>
<path d="M29.2775 21.3463C29.3395 21.4053 29.4045 21.4523 29.4705 21.4953L29.9955 21.3513V21.1123C29.6745 21.1303 29.5585 20.9393 29.5585 20.9393L29.9955 20.7953V20.6683L29.1675 20.5803L29.8835 20.3433C29.7365 20.2813 29.5895 20.1883 29.4485 20.0333C29.3055 19.8753 29.1465 19.7883 28.9835 19.7443C28.6135 19.6443 28.2255 19.7943 27.9645 20.0333C27.7325 20.2453 27.4715 20.2973 27.2965 20.3103C27.1885 20.3183 27.1055 20.3143 27.1055 20.3143L27.2875 21.7533C27.2875 21.7533 27.3515 21.7313 27.4335 21.6973C27.5695 21.6403 27.7745 21.5383 27.9495 21.3633C28.2305 21.0813 28.7155 20.8153 29.2775 21.3463Z" fill="white"/>
<path d="M29.0977 23.8461C29.1577 23.8861 29.2147 23.9101 29.2767 23.9681C29.3617 24.0491 29.4517 24.1081 29.5417 24.1581C29.5027 23.9941 29.4957 23.8841 29.4957 23.8841C29.4957 23.8841 29.2657 23.8411 29.0977 23.8461Z" fill="white"/>
<path d="M32.4483 22.6904C32.3343 22.5764 32.2183 22.5004 32.1033 22.4424C32.0103 22.5414 31.8533 22.6704 31.6523 22.7344V23.6914C31.8933 23.6954 32.1413 23.7944 32.3713 24.0164C32.5213 24.1614 32.6923 24.2414 32.8683 24.2904C32.9313 24.2394 32.9943 24.1904 33.0433 24.1354V23.0264C32.8573 22.9984 32.6583 22.8994 32.4483 22.6904Z" fill="white"/>
<path d="M31.075 21.1266L31.513 21.0276V20.8446C31.179 20.8666 31.075 20.5796 31.075 20.5796L31.513 20.4696V20.3936L30.746 20.3116L31.513 20.0576V20.0236C31.513 19.9846 31.544 19.9536 31.583 19.9536C31.622 19.9536 31.653 19.9846 31.653 20.0236V20.4336L32.137 20.3126C32.137 20.3126 31.993 20.6946 31.653 20.8136V20.9956L32.31 20.8476C32.31 20.8476 32.208 21.0236 32.132 21.2286C32.213 21.2766 32.294 21.3186 32.372 21.3936C32.404 21.4246 32.442 21.4356 32.475 21.4626C32.494 21.4036 32.512 21.3616 32.512 21.3616L33.044 21.2336V21.0136C32.786 21.0086 32.606 20.8146 32.606 20.8146L33.044 20.6906V20.5736L32.309 20.4946L32.813 20.3276C32.695 20.2726 32.574 20.1916 32.449 20.0666C31.871 19.4896 31.261 19.6896 30.855 20.1116C30.65 20.3246 30.413 20.4326 30.168 20.4226V20.7396L30.652 20.5806C30.652 20.5806 30.637 20.9716 30.168 21.0966V21.3046L30.809 21.1286C30.703 21.2826 30.637 21.4336 30.592 21.5756C30.695 21.5306 30.787 21.4716 30.872 21.4066C30.95 21.2106 31.075 21.1286 31.075 21.1286V21.1266Z" fill="white"/>
<path d="M29.7687 22.9135C29.5177 22.8465 29.4187 22.6465 29.4087 22.6215C28.9447 22.1555 28.3287 22.3215 27.9647 22.6565C27.9397 22.6795 27.9137 22.6925 27.8887 22.7125C28.4897 22.9065 29.6617 23.4755 29.9957 23.6415V22.9985C29.9197 22.9775 29.8447 22.9585 29.7697 22.9145L29.7687 22.9135Z" fill="white"/>
<path d="M31.334 22.4055C31.39 22.3985 31.449 22.3915 31.513 22.3845V22.3535C31.452 22.3655 31.392 22.3815 31.334 22.4055Z" fill="white"/>
<path d="M31.8593 22.3547C31.7893 22.3407 31.7203 22.3347 31.6523 22.3377V22.3707C31.7233 22.3647 31.7933 22.3597 31.8593 22.3547Z" fill="white"/>
<path d="M35.4012 20.0658C35.2402 19.8788 35.0492 19.7858 34.8552 19.7518C34.4832 19.6868 34.0962 19.8488 33.8702 20.0658C33.6872 20.2418 33.4592 20.3888 33.1992 20.4058V20.6448L33.7612 20.4848C33.7612 20.4848 33.5432 20.8918 33.1992 21.0008V21.1938L33.9032 21.0248C33.9032 21.0248 33.5672 21.3078 33.5122 21.6408C33.6632 21.5808 33.8082 21.4948 33.9332 21.3608C34.3702 20.8918 34.9792 21.0328 35.4172 21.4078C35.6192 21.5818 35.7522 21.6628 35.8432 21.7058C35.9492 21.7558 35.9952 21.7518 35.9952 21.7518L36.1982 20.3138C36.1982 20.3138 36.1182 20.3858 35.9802 20.3928C35.8392 20.4008 35.6382 20.3418 35.4012 20.0658Z" fill="white"/>
<path d="M28.3862 15.033C28.3082 15.205 28.8862 15.158 28.8072 15.033C28.7282 14.908 28.4642 14.861 28.3862 15.033Z" fill="black"/>
<path d="M28.7301 23.3397C28.7301 23.3397 28.7701 23.5477 28.8231 23.7067C28.8611 23.8197 28.9061 23.9087 28.9491 23.8767C28.9781 23.8557 29.0341 23.8477 29.0981 23.8457C29.2661 23.8407 29.4961 23.8837 29.4961 23.8837C29.4961 23.8837 29.5041 23.9947 29.5421 24.1577C29.6291 24.5277 29.8971 25.1677 30.6201 25.5017C30.8961 25.6287 31.2231 25.7207 31.6521 25.7207C32.0731 25.7207 32.4161 25.6247 32.7191 25.4937C33.8911 24.9847 34.2531 23.7577 34.2531 23.7577C34.2531 23.7577 34.8621 23.7657 35.0371 23.8007C35.0541 23.8037 35.0721 23.8077 35.0801 23.8117C35.1671 23.8567 34.9021 23.5687 35.0121 23.3397C35.1211 23.1107 35.3871 22.8457 35.2311 22.7827C35.0751 22.7207 33.4191 23.1737 33.4191 23.1737C33.4191 23.1737 33.4251 23.5537 33.1991 23.9297V24.4857C33.1991 24.5287 33.1641 24.5637 33.1211 24.5637C33.0781 24.5637 33.0431 24.5287 33.0431 24.4857V24.1337C32.9941 24.1897 32.9311 24.2387 32.8681 24.2887C32.6061 24.4977 32.2321 24.6577 31.6531 24.6577V24.7437C31.6531 24.7827 31.6221 24.8137 31.5831 24.8137C31.5441 24.8137 31.5131 24.7827 31.5131 24.7437V24.6477C30.8521 24.6257 30.4911 24.4667 30.3021 24.2807C30.2441 24.2237 30.1991 24.1677 30.1681 24.1097V24.2607C30.1681 24.3087 30.1301 24.3467 30.0821 24.3467C30.0341 24.3467 29.9961 24.3087 29.9961 24.2607V23.6407C29.6611 23.4757 28.4901 22.9057 27.8891 22.7117C27.8111 22.6867 27.7321 22.6607 27.6771 22.6497C27.6021 22.6357 27.5481 22.6347 27.5301 22.6567C27.5051 22.6877 27.5811 22.7507 27.7021 22.8267C28.0361 23.0347 28.7311 23.3387 28.7311 23.3387L28.7301 23.3397Z" fill="#DD8B59"/>
<path d="M31.5117 22.3542V22.3852C31.5587 22.3802 31.6037 22.3762 31.6517 22.3722V21.9782C31.6047 21.9782 31.5587 21.9712 31.5117 21.9862V22.3542Z" fill="#DD8B59"/>
<path d="M33.043 22.5277L33.199 22.4927V22.0577C33.15 22.0557 33.102 22.0497 33.043 22.0637V22.5277Z" fill="#DD8B59"/>
<path d="M30.1681 22.8721C30.1141 22.8981 30.0641 22.9291 29.9961 22.9371V24.2621C29.9961 24.3101 30.0341 24.3481 30.0821 24.3481C30.1301 24.3481 30.1681 24.3101 30.1681 24.2621V22.8721Z" fill="#DD8B59"/>
<path d="M33.199 22.8037C33.164 22.8167 33.137 22.8367 33.098 22.8447C33.077 22.8487 33.063 22.8427 33.043 22.8447V24.4857C33.043 24.5287 33.078 24.5637 33.121 24.5637C33.164 24.5637 33.199 24.5287 33.199 24.4857V22.8037Z" fill="#DD8B59"/>
<path d="M30.1681 22.0961C30.1141 22.0881 30.0591 22.0811 29.9971 22.0941L29.9961 22.5001L30.1681 22.4681V22.0961Z" fill="#DD8B59"/>
<path d="M33.1203 20.2197C33.1203 20.2197 33.1163 20.2267 33.1133 20.2277L33.1243 20.2237C33.1243 20.2237 33.1223 20.2197 33.1203 20.2197Z" fill="#DD8B59"/>
<path d="M33.136 20.2354V20.5834L33.043 20.5734V20.6904L33.199 20.6464V20.2984C33.199 20.2634 33.167 20.2454 33.136 20.2354Z" fill="#DD8B59"/>
<path d="M30.1681 20.4217V20.3057C30.1681 20.2577 30.1301 20.2197 30.0821 20.2197C30.0341 20.2197 29.9961 20.2587 29.9961 20.3057V20.6677V20.7947L30.1681 20.7377V20.4207V20.4217Z" fill="#DD8B59"/>
<path d="M33.043 21.233L33.199 21.195V21.002C33.143 21.02 33.094 21.014 33.043 21.013V21.233Z" fill="#DD8B59"/>
<path d="M30.1681 21.0947C30.0991 21.1127 30.0511 21.1087 29.9961 21.1117V21.3507L30.1681 21.3037V21.0957V21.0947Z" fill="#DD8B59"/>
<path d="M31.6517 20.8155C31.6267 20.8245 31.6087 20.8425 31.5817 20.8475C31.5537 20.8535 31.5367 20.8435 31.5117 20.8455V21.0285L31.6517 20.9965V20.8145V20.8155Z" fill="#DD8B59"/>
<path d="M31.6517 22.7344C31.6197 22.7444 31.5917 22.7634 31.5577 22.7684C31.5397 22.7714 31.5287 22.7654 31.5117 22.7664V24.7444C31.5117 24.7834 31.5427 24.8144 31.5817 24.8144C31.6207 24.8144 31.6517 24.7834 31.6517 24.7444V22.7344Z" fill="#DD8B59"/>
<path d="M31.6517 20.0251C31.6517 19.9861 31.6207 19.9551 31.5817 19.9551C31.5427 19.9551 31.5117 19.9861 31.5117 20.0251V20.0591L31.5727 20.0391V20.4011L31.5117 20.3951V20.4711L31.6517 20.4361V20.0251Z" fill="#DD8B59"/>
<path d="M31.8612 22.355C31.7952 22.36 31.7252 22.365 31.6542 22.372C31.6062 22.376 31.5612 22.381 31.5142 22.385C31.4502 22.392 31.3912 22.398 31.3352 22.406C31.1872 22.425 31.0762 22.447 31.0762 22.471C31.0762 22.485 31.0842 22.512 31.0932 22.537C31.1292 22.64 31.2482 22.788 31.5142 22.766C31.5312 22.765 31.5422 22.771 31.5602 22.768C31.5942 22.762 31.6222 22.744 31.6542 22.734C31.8552 22.67 32.0122 22.541 32.1052 22.442C32.1612 22.382 32.2012 22.333 32.2012 22.333C32.2012 22.333 32.0512 22.341 31.8612 22.355Z" fill="#FECF3D"/>
<path d="M32.5449 22.6406C32.5449 22.6406 32.6919 22.8846 33.0449 22.8456C33.0649 22.8436 33.0789 22.8496 33.0999 22.8456C33.1389 22.8376 33.1659 22.8176 33.2009 22.8046C33.5159 22.6876 33.6539 22.3926 33.6539 22.3926L33.2009 22.4936L33.0449 22.5286L32.5449 22.6406Z" fill="#FECF3D"/>
<path d="M30.6516 20.5791L30.1676 20.7381L29.9956 20.7951L29.5586 20.9391C29.5586 20.9391 29.6746 21.1291 29.9956 21.1121C30.0506 21.1091 30.0986 21.1141 30.1676 21.0951C30.6366 20.9701 30.6516 20.5791 30.6516 20.5791Z" fill="#FECF3D"/>
<path d="M31.6527 20.9966L31.5127 21.0286L31.0747 21.1276C31.0747 21.1276 30.9497 21.2096 30.8717 21.4056C30.8357 21.4966 30.8067 21.6036 30.8087 21.7526C30.8127 22.0096 31.0747 22.3336 31.0747 22.3336C31.0747 22.3336 31.2157 22.0806 31.5127 21.9866C31.5597 21.9716 31.6057 21.9786 31.6527 21.9786C31.9037 21.9816 32.1377 22.1586 32.1377 22.1586C32.1377 22.1586 32.0147 21.7796 32.0597 21.4866C32.0727 21.4016 32.1007 21.3136 32.1317 21.2296C32.2077 21.0246 32.3097 20.8486 32.3097 20.8486L31.6527 20.9966Z" fill="#FECF3D"/>
<path d="M32.512 21.3614C32.512 21.3614 32.495 21.4034 32.475 21.4624C32.448 21.5444 32.418 21.6644 32.418 21.7994C32.418 22.0334 32.606 22.4704 32.606 22.4704C32.606 22.4704 32.7 22.1424 33.044 22.0644C33.103 22.0514 33.151 22.0564 33.2 22.0584C33.44 22.0684 33.575 22.2204 33.575 22.2204C33.575 22.2204 33.46 21.9894 33.51 21.6514C33.51 21.6484 33.513 21.6454 33.513 21.6424C33.568 21.3094 33.904 21.0264 33.904 21.0264L33.2 21.1954L33.044 21.2334L32.512 21.3614Z" fill="#FECF3D"/>
<path d="M29.7703 22.9146C29.8353 22.9316 29.9023 22.9486 29.9893 22.9396C29.9923 22.9396 29.9933 22.9376 29.9963 22.9366C30.0643 22.9286 30.1143 22.8976 30.1683 22.8716C30.4633 22.7306 30.5753 22.3926 30.5753 22.3926L30.1683 22.4686L29.9963 22.5006L29.4043 22.6116L29.4093 22.6226C29.4193 22.6476 29.5183 22.8486 29.7693 22.9146H29.7703Z" fill="#FECF3D"/>
<path d="M32.6055 20.8143C32.6055 20.8143 32.7855 21.0083 33.0435 21.0133C33.0945 21.0133 33.1435 21.0203 33.1995 21.0023C33.5435 20.8933 33.7615 20.4863 33.7615 20.4863L33.1995 20.6463L33.0435 20.6903L32.6055 20.8143Z" fill="#FECF3D"/>
<path d="M30.1683 22.0969C30.3853 22.1289 30.5283 22.2829 30.5283 22.2829C30.5283 22.2829 30.4663 21.9709 30.5923 21.5749C30.6373 21.4329 30.7043 21.2819 30.8093 21.1279L30.1683 21.3039L29.9963 21.3509L29.4713 21.4949H29.4693C29.4693 21.4949 29.3403 21.7349 29.3873 21.9849C29.4343 22.2349 29.5593 22.4689 29.5593 22.4689C29.5593 22.4689 29.6843 22.1579 29.9963 22.0939C30.0583 22.0819 30.1143 22.0879 30.1683 22.0959V22.0969Z" fill="#FECF3D"/>
<path d="M31.6542 20.8155C31.9942 20.6975 32.1382 20.3145 32.1382 20.3145L31.6542 20.4355L31.5142 20.4705L31.0762 20.5805C31.0762 20.5805 31.1802 20.8675 31.5142 20.8455C31.5392 20.8435 31.5562 20.8535 31.5842 20.8475C31.6112 20.8425 31.6292 20.8245 31.6542 20.8155Z" fill="#FECF3D"/>
<path d="M33.0436 20.5727L33.1366 20.5827V20.2347V20.2197L33.1256 20.2237L33.1146 20.2277L32.8126 20.3267L32.3086 20.4937L33.0436 20.5727Z" fill="#FF0100"/>
<path d="M29.996 20.3057L29.884 20.3427L29.168 20.5797L29.996 20.6677V20.3057Z" fill="#FF0100"/>
<path d="M31.5741 20.0391L31.5131 20.0591L30.7461 20.3131L31.5131 20.3951L31.5741 20.4011V20.0391Z" fill="#FF0100"/>
</svg>
