<svg width="41" height="41" viewBox="0 0 41 41" fill="none" xmlns="http://www.w3.org/2000/svg">
<path d="M34.5 8.5H6.5C4.29086 8.5 2.5 10.2909 2.5 12.5V28.5C2.5 30.7091 4.29086 32.5 6.5 32.5H34.5C36.7091 32.5 38.5 30.7091 38.5 28.5V12.5C38.5 10.2909 36.7091 8.5 34.5 8.5Z" fill="#72AFDC"/>
<path d="M20.5007 10.9004L19.9527 12.5584H18.1777L19.6137 13.5834L19.0647 15.2424L20.5007 14.2174L21.9367 15.2424L21.3887 13.5834L22.8237 12.5584H21.0487L20.5007 10.9004Z" fill="#E3E7EA"/>
<path d="M28.5836 21.0397L30.2716 20.5007L28.5836 19.9618V18.2188L27.5396 19.6287L25.8516 19.0907L26.8956 20.5007L25.8516 21.9117L27.5406 21.3727L28.5836 22.7838V21.0397Z" fill="#E3E7EA"/>
<path d="M13.4605 19.6287L12.4175 18.2188V19.9618L10.7285 20.5007L12.4175 21.0397V22.7838L13.4595 21.3727L15.1485 21.9117L14.1045 20.5007L15.1485 19.0907L13.4605 19.6287Z" fill="#E3E7EA"/>
<path d="M21.3877 27.4178L21.9367 25.7598L20.5007 26.7848L19.0647 25.7598L19.6137 27.4178L18.1777 28.4428H19.9517L20.5007 30.1008L21.0497 28.4428H22.8237L21.3877 27.4178Z" fill="#E3E7EA"/>
</svg>
