<svg width="41" height="41" viewBox="0 0 41 41" fill="none" xmlns="http://www.w3.org/2000/svg">
<path d="M34.5 8.5H6.5C4.29086 8.5 2.5 10.2909 2.5 12.5V28.5C2.5 30.7091 4.29086 32.5 6.5 32.5H34.5C36.7091 32.5 38.5 30.7091 38.5 28.5V12.5C38.5 10.2909 36.7091 8.5 34.5 8.5Z" fill="#E3E7EA"/>
<path d="M14.8297 17.5V8.5H13.3027V17.5V19H14.8297H38.5007V17.5H14.8297Z" fill="#2C6FB9"/>
<path d="M2.5 22V23.5H8.722V32.5H10.248V23.5V22H8.722H2.5Z" fill="#2C6FB9"/>
<path d="M8.722 17.5H2.5V19H8.722H10.248V17.5V8.5H8.722V17.5Z" fill="#2C6FB9"/>
<path d="M13.3027 22V23.5V32.5H14.8297V23.5H38.5007V22H14.8297H13.3027Z" fill="#2C6FB9"/>
<path d="M14.829 19H13.302V17.5V8.5H10.248V17.5V19H8.722H2.5V22H8.722H10.248V23.5V32.5H13.302V23.5V22H14.829H38.5V19H14.829Z" fill="#F10030"/>
</svg>
