<svg width="41" height="41" viewBox="0 0 41 41" fill="none" xmlns="http://www.w3.org/2000/svg">
<path d="M34.5 8.5H6.5C4.29086 8.5 2.5 10.2909 2.5 12.5V28.5C2.5 30.7091 4.29086 32.5 6.5 32.5H34.5C36.7091 32.5 38.5 30.7091 38.5 28.5V12.5C38.5 10.2909 36.7091 8.5 34.5 8.5Z" fill="#E3E7EA"/>
<path d="M36.9307 9.34098C36.9307 9.34098 36.9217 9.33498 36.9177 9.33198C36.7757 9.22298 36.6227 9.12698 36.4677 9.03698C36.4157 9.00698 36.3637 8.97898 36.3107 8.95198C36.1757 8.88198 36.0357 8.81898 35.8927 8.76398C35.7837 8.72198 35.6717 8.69198 35.5587 8.65998C35.4517 8.62998 35.3467 8.59598 35.2367 8.57498C34.9997 8.52898 34.7567 8.50098 34.5057 8.50098H23.8887V16.57L36.9307 9.34098Z" fill="#2E2C7B"/>
<path d="M17.4575 16.569V8.5H6.49552C6.24652 8.5 6.00552 8.53 5.76852 8.574C5.69552 8.587 5.62552 8.607 5.55452 8.625C5.39152 8.665 5.23252 8.714 5.07752 8.773C5.00152 8.802 4.92452 8.831 4.85052 8.864C4.68852 8.938 4.53452 9.023 4.38452 9.117C4.33652 9.147 4.28552 9.171 4.23852 9.203C4.23552 9.205 4.23152 9.207 4.22852 9.209L17.4565 16.57L17.4575 16.569Z" fill="#2E2C7B"/>
<path d="M38.5 17.1775V13.2275L31.416 17.1775H38.5Z" fill="#2E2C7B"/>
<path d="M38.5 28.2117V24.3057H31.416L38.5 28.2117Z" fill="#2E2C7B"/>
<path d="M4.64062 32.023C4.64863 32.027 4.65663 32.03 4.66363 32.034C4.84663 32.129 5.03863 32.208 5.23563 32.277C5.34763 32.316 5.46063 32.354 5.57763 32.383C5.65863 32.403 5.74262 32.417 5.82562 32.432C6.04362 32.472 6.26562 32.5 6.49662 32.5H17.4586V24.915L4.64062 32.023Z" fill="#2E2C7B"/>
<path d="M23.8867 24.9151V32.5001H34.5037C34.7407 32.5001 34.9697 32.4711 35.1937 32.4301C35.2797 32.4141 35.3647 32.3961 35.4487 32.3741C35.5727 32.3431 35.6927 32.3041 35.8117 32.2611C36.0407 32.1781 36.2627 32.0801 36.4717 31.9601C36.4987 31.9451 36.5277 31.9331 36.5547 31.9171L23.8877 24.9141L23.8867 24.9151Z" fill="#2E2C7B"/>
<path d="M2.5 24.3057V28.4427L9.929 24.3057H2.5Z" fill="#2E2C7B"/>
<path d="M2.5 13.0332V17.1782H9.929L2.5 13.0332Z" fill="#2E2C7B"/>
<path d="M24.6768 17.1777H27.5518L38.2778 11.2377C38.2778 11.2377 38.2748 11.2317 38.2738 11.2287C38.2018 11.0147 38.1118 10.8117 38.0078 10.6167C37.9998 10.6017 37.9918 10.5867 37.9838 10.5717C37.8778 10.3807 37.7578 10.1987 37.6218 10.0277C37.6178 10.0227 37.6158 10.0177 37.6118 10.0127L24.6768 17.1777Z" fill="#D00032"/>
<path d="M29.7773 24.3057H26.9023L37.9803 30.4377C37.9843 30.4307 37.9863 30.4237 37.9893 30.4167C38.0963 30.2227 38.1883 30.0207 38.2613 29.8097C38.2663 29.7947 38.2703 29.7787 38.2753 29.7637C38.3473 29.5507 38.4033 29.3307 38.4383 29.1017V29.0987L29.7763 24.3047L29.7773 24.3057Z" fill="#D00032"/>
<path d="M12.0175 17.1783H14.8935L3.01455 10.5713C3.01155 10.5773 3.00955 10.5843 3.00655 10.5903C2.89955 10.7853 2.80855 10.9893 2.73455 11.2013C2.72955 11.2153 2.72555 11.2303 2.72155 11.2443C2.64955 11.4593 2.59455 11.6813 2.56055 11.9113V11.9143L12.0185 17.1773L12.0175 17.1783Z" fill="#D00032"/>
<path d="M17.1176 24.3057H14.2426L3.05664 30.5047C3.05664 30.5047 3.06164 30.5117 3.06464 30.5157C3.17964 30.7107 3.30964 30.8927 3.45464 31.0637C3.46564 31.0757 3.47564 31.0897 3.48564 31.1017C3.63164 31.2707 3.79264 31.4267 3.96564 31.5697C3.97164 31.5747 3.97664 31.5807 3.98264 31.5857L17.1176 24.3057Z" fill="#D00032"/>
<path d="M22.601 8.5H18.743V18.604H2.5V22.88H18.743V32.5H22.601V22.88H38.5V18.604H22.601V8.5Z" fill="#D00032"/>
</svg>
