<svg width="41" height="41" viewBox="0 0 41 41" fill="none" xmlns="http://www.w3.org/2000/svg">
<path d="M23.398 20.5004C23.398 21.0564 23.232 21.5714 22.957 22.0114L34.545 29.1404V11.8604L22.957 18.9884C23.232 19.4284 23.398 19.9444 23.398 20.5004Z" fill="#007E5C"/>
<path d="M17.6021 20.5003C17.6021 19.9443 17.7681 19.4293 18.0431 18.9893L6.45508 11.8613V29.1413L18.0431 22.0123C17.7681 21.5723 17.6021 21.0563 17.6021 20.5003ZM11.2411 21.9713C11.0901 21.6713 10.8171 21.3273 10.4971 21.0293C10.6051 21.4343 10.6701 21.8383 10.6651 22.1913C10.3401 22.0563 9.99408 21.7863 9.68308 21.4663C9.78008 21.8643 9.94208 22.2443 10.1501 22.5263C7.00408 21.9173 8.89208 19.3203 8.36608 18.2313C9.12908 19.1813 12.0641 18.9993 11.2411 21.9713Z" fill="#007E5C"/>
<path d="M34.5 8.5H6.5C4.291 8.5 2.5 10.291 2.5 12.5V28.5C2.5 30.709 4.291 32.5 6.5 32.5H34.5C36.709 32.5 38.5 30.709 38.5 28.5V12.5C38.5 10.291 36.709 8.5 34.5 8.5ZM28.196 9.698L28.549 8.62L28.901 9.698H30.042L29.12 10.364L29.472 11.442L28.55 10.776L27.628 11.442L27.98 10.364L27.058 9.698H28.198H28.196ZM20.147 9.698L20.499 8.62L20.852 9.698H21.992L21.07 10.364L21.423 11.442L20.5 10.776L19.578 11.442L19.931 10.364L19.009 9.698H20.149H20.147ZM12.098 9.698L12.45 8.62L12.803 9.698H13.943L13.021 10.364L13.373 11.442L12.451 10.776L11.529 11.442L11.881 10.364L10.959 9.698H12.1H12.098ZM13.372 32.082L12.45 31.416L11.528 32.082L11.88 31.004L10.958 30.337H12.099L12.451 29.259L12.804 30.337H13.944L13.022 31.004L13.374 32.082H13.372ZM21.422 32.082L20.499 31.416L19.577 32.082L19.93 31.004L19.008 30.337H20.148L20.5 29.259L20.853 30.337H21.993L21.071 31.004L21.424 32.082H21.422ZM29.471 32.082L28.549 31.416L27.627 32.082L27.979 31.004L27.057 30.337H28.197L28.55 29.259L28.902 30.337H30.043L29.121 31.004L29.473 32.082H29.471ZM34.545 29.139H6.455V11.86H34.545V29.139Z" fill="#CF002E"/>
<path d="M18.0426 22.0111C18.5536 22.8301 19.4586 23.3801 20.4996 23.3801C21.5406 23.3801 22.4456 22.8301 22.9566 22.0111C23.2316 21.5711 23.3976 21.0561 23.3976 20.5001C23.3976 19.9441 23.2316 19.4291 22.9566 18.9891C22.4456 18.1701 21.5406 17.6211 20.4996 17.6211C19.4586 17.6211 18.5536 18.1711 18.0426 18.9891C17.7676 19.4291 17.6016 19.9441 17.6016 20.5001C17.6016 21.0561 17.7676 21.5711 18.0426 22.0111ZM19.9036 19.6851L20.4996 17.8601L21.0966 19.6851H23.0266L21.4646 20.8121L22.0616 22.6361L20.4996 21.5091L18.9386 22.6361L19.5346 20.8121L17.9736 19.6851H19.9036Z" fill="#CF002E"/>
<path d="M9.68374 21.4656C9.99474 21.7856 10.3407 22.0556 10.6657 22.1906C10.6707 21.8376 10.6057 21.4336 10.4977 21.0286C10.2217 20.7716 9.91274 20.5476 9.60674 20.4326C9.56274 20.7576 9.59874 21.1176 9.68374 21.4656Z" fill="#CF002E"/>
<path d="M20.5001 23.3797C19.4601 23.3797 18.5541 22.8297 18.0431 22.0107L6.45508 29.1397H34.5451L22.9571 22.0107C22.4461 22.8297 21.5411 23.3797 20.5001 23.3797Z" fill="#F9CF00"/>
<path d="M18.0431 18.9893C18.5541 18.1703 19.4591 17.6213 20.5001 17.6213C21.5411 17.6213 22.4461 18.1713 22.9571 18.9893L34.5451 11.8613H6.45508L18.0431 18.9893Z" fill="#F9CF00"/>
<path d="M19.5337 20.8124L18.9387 22.6364L20.4997 21.5084L22.0607 22.6364L21.4647 20.8124L23.0267 19.6854H21.0957L20.4997 17.8604L19.9037 19.6854H17.9727L19.5337 20.8124Z" fill="#F9CF00"/>
<path d="M11.529 11.4421L12.452 10.7761L13.374 11.4421L13.022 10.3641L13.945 9.69812H12.805L12.452 8.62012L12.1 9.69812H10.959L11.881 10.3641L11.529 11.4421Z" fill="#F9CF00"/>
<path d="M19.5768 11.4421L20.4998 10.7761L21.4228 11.4421L21.0698 10.3641L21.9918 9.69812H20.8518L20.4998 8.62012L20.1478 9.69812H19.0078L19.9298 10.3641L19.5768 11.4421Z" fill="#F9CF00"/>
<path d="M27.6276 11.4421L28.5496 10.7761L29.4716 11.4421L29.1206 10.3641L30.0426 9.69812H28.9016L28.5496 8.62012L28.1966 9.69812H27.0566L27.9796 10.3641L27.6276 11.4421Z" fill="#F9CF00"/>
<path d="M12.805 30.3378L12.452 29.2598L12.1 30.3378H10.959L11.881 31.0038L11.529 32.0828L12.452 31.4168L13.374 32.0828L13.022 31.0038L13.945 30.3378H12.805Z" fill="#F9CF00"/>
<path d="M20.8518 30.3378L20.4998 29.2598L20.1478 30.3378H19.0078L19.9298 31.0038L19.5768 32.0828L20.4998 31.4168L21.4228 32.0828L21.0698 31.0038L21.9918 30.3378H20.8518Z" fill="#F9CF00"/>
<path d="M28.9016 30.3378L28.5496 29.2598L28.1966 30.3378H27.0566L27.9796 31.0038L27.6276 32.0828L28.5496 31.4168L29.4716 32.0828L29.1206 31.0038L30.0426 30.3378H28.9016Z" fill="#F9CF00"/>
<path d="M8.36665 18.2305C8.89265 19.3195 7.00365 21.9175 10.1507 22.5255C9.94365 22.2445 9.78065 21.8645 9.68365 21.4655C9.59865 21.1185 9.56265 20.7565 9.60665 20.4315C9.91265 20.5475 10.2217 20.7715 10.4977 21.0275C10.8177 21.3255 11.0907 21.6695 11.2417 21.9695C12.0647 18.9975 9.12965 19.1785 8.36665 18.2285V18.2305Z" fill="#F9CF00"/>
</svg>
