<svg width="41" height="41" viewBox="0 0 41 41" fill="none" xmlns="http://www.w3.org/2000/svg">
<path d="M34.5 8.5H6.5C4.29086 8.5 2.5 10.2909 2.5 12.5V28.5C2.5 30.7091 4.29086 32.5 6.5 32.5H34.5C36.7091 32.5 38.5 30.7091 38.5 28.5V12.5C38.5 10.2909 36.7091 8.5 34.5 8.5Z" fill="#E3E7EA"/>
<path d="M9.56994 13.9157C9.54894 14.3567 9.50394 14.7917 9.43694 15.2207C9.41594 15.3587 9.39094 15.4947 9.36494 15.6317C9.63594 15.5987 9.91194 15.5807 10.1919 15.5807C10.4719 15.5807 10.7479 15.5977 11.0189 15.6317C10.9929 15.4957 10.9679 15.3587 10.9469 15.2207C10.8799 14.7927 10.8349 14.3567 10.8139 13.9157C11.4029 13.9437 11.9819 14.0127 12.5479 14.1187C12.5139 13.8507 12.4969 13.5767 12.4969 13.3007C12.4969 13.0247 12.5149 12.7507 12.5479 12.4827C11.9819 12.5887 11.4039 12.6577 10.8139 12.6857C10.8419 12.1027 10.9119 11.5297 11.0189 10.9707C10.7479 11.0037 10.4719 11.0207 10.1919 11.0207C9.91194 11.0207 9.63594 11.0037 9.36494 10.9707C9.47194 11.5297 9.54194 12.1027 9.56994 12.6857C8.98094 12.6577 8.40194 12.5887 7.83594 12.4827C7.86994 12.7507 7.88694 13.0237 7.88694 13.3007C7.88694 13.5777 7.86894 13.8507 7.83594 14.1187C8.40194 14.0127 8.97994 13.9437 9.56994 13.9157Z" fill="#EA0034"/>
<path d="M30.1861 13.9157C30.1651 14.3567 30.1201 14.7917 30.0531 15.2207C30.0321 15.3587 30.0071 15.4947 29.9811 15.6317C30.2521 15.5987 30.5281 15.5807 30.8081 15.5807C31.0881 15.5807 31.3641 15.5977 31.6351 15.6317C31.6091 15.4957 31.5851 15.3587 31.5631 15.2207C31.4961 14.7927 31.4511 14.3567 31.4291 13.9157C32.0191 13.9437 32.5971 14.0127 33.1631 14.1187C33.1291 13.8507 33.1121 13.5767 33.1121 13.3007C33.1121 13.0247 33.1301 12.7507 33.1631 12.4827C32.5971 12.5887 32.0191 12.6577 31.4291 12.6857C31.4581 12.1027 31.5281 11.5297 31.6351 10.9707C31.3641 11.0037 31.0881 11.0207 30.8081 11.0207C30.5281 11.0207 30.2521 11.0037 29.9811 10.9707C30.0881 11.5297 30.1581 12.1027 30.1861 12.6857C29.5971 12.6577 29.0181 12.5887 28.4531 12.4827C28.4871 12.7507 28.5041 13.0237 28.5041 13.3007C28.5041 13.5777 28.4861 13.8507 28.4531 14.1187C29.0191 14.0127 29.5971 13.9437 30.1861 13.9157Z" fill="#EA0034"/>
<path d="M10.8139 27.0851C10.8359 26.6441 10.8799 26.2081 10.9469 25.7801C10.9679 25.6421 10.9929 25.5061 11.0189 25.3691C10.7479 25.4021 10.4719 25.4191 10.1919 25.4191C9.91194 25.4191 9.63594 25.4021 9.36494 25.3691C9.39094 25.5051 9.41594 25.6421 9.43694 25.7801C9.50394 26.2081 9.54894 26.6431 9.56994 27.0851C8.98094 27.0561 8.40194 26.9881 7.83594 26.8821C7.86994 27.1501 7.88694 27.4231 7.88694 27.7001C7.88694 27.9771 7.86894 28.2501 7.83594 28.5181C8.40194 28.4121 8.97994 28.3431 9.56994 28.3151C9.54194 28.8981 9.47194 29.4711 9.36494 30.0311C9.63594 29.9981 9.91194 29.9801 10.1919 29.9801C10.4719 29.9801 10.7479 29.9981 11.0189 30.0311C10.9119 29.4711 10.8419 28.8991 10.8139 28.3151C11.4029 28.3441 11.9819 28.4131 12.5479 28.5181C12.5139 28.2501 12.4969 27.9761 12.4969 27.7001C12.4969 27.4241 12.5149 27.1501 12.5479 26.8821C11.9819 26.9881 11.4039 27.0561 10.8139 27.0851Z" fill="#EA0034"/>
<path d="M31.4311 27.0851C31.4531 26.6441 31.4981 26.2081 31.5651 25.7801C31.5861 25.6421 31.6101 25.5061 31.6371 25.3691C31.3661 25.4021 31.0901 25.4191 30.8101 25.4191C30.5301 25.4191 30.2541 25.4021 29.9831 25.3691C30.0091 25.5051 30.0331 25.6421 30.0551 25.7801C30.1221 26.2081 30.1671 26.6431 30.1881 27.0851C29.5991 27.0561 29.0201 26.9881 28.4551 26.8821C28.4891 27.1501 28.5061 27.4231 28.5061 27.7001C28.5061 27.9771 28.4891 28.2501 28.4551 28.5181C29.0201 28.4121 29.5991 28.3431 30.1881 28.3151C30.1601 28.8981 30.0901 29.4711 29.9831 30.0311C30.2541 29.9981 30.5301 29.9801 30.8101 29.9801C31.0901 29.9801 31.3661 29.9981 31.6371 30.0311C31.5301 29.4711 31.4601 28.8991 31.4311 28.3151C32.0211 28.3441 32.5991 28.4131 33.1651 28.5181C33.1311 28.2501 33.1141 27.9761 33.1141 27.7001C33.1141 27.4241 33.1321 27.1501 33.1651 26.8821C32.5991 26.9881 32.0211 27.0561 31.4311 27.0851Z" fill="#EA0034"/>
<path d="M26.139 18.081H22.945V8.5H18.055V18.081H14.86H2.5V22.919H14.86H18.055V32.5H22.945V22.919H26.139H38.5V18.081H26.139Z" fill="#EA0034"/>
</svg>
