<svg width="41" height="41" viewBox="0 0 41 41" fill="none" xmlns="http://www.w3.org/2000/svg">
<path d="M34.5 8.5H6.5C4.29086 8.5 2.5 10.2909 2.5 12.5V28.5C2.5 30.7091 4.29086 32.5 6.5 32.5H34.5C36.7091 32.5 38.5 30.7091 38.5 28.5V12.5C38.5 10.2909 36.7091 8.5 34.5 8.5Z" fill="#FFDB00"/>
<path d="M3.11623 10.384L37.9012 30.585C38.2742 29.978 38.5002 29.27 38.5002 28.504V12.496C38.5002 10.289 36.7112 8.5 34.5052 8.5H6.49523C5.06623 8.5 3.82323 9.256 3.11623 10.384Z" fill="#008B1C"/>
<path d="M18.9212 21.0328L17.9462 24.0358L20.5002 22.1798L23.0552 24.0358L22.3362 21.8268L22.0792 21.0338L24.6342 19.1778H21.4762L20.5002 16.1748L19.5252 19.1778H16.3672L18.9212 21.0328Z" fill="#EF0000"/>
</svg>
