<svg width="41" height="41" viewBox="0 0 41 41" fill="none" xmlns="http://www.w3.org/2000/svg">
<path d="M34.5 8.5H6.5C4.29086 8.5 2.5 10.2909 2.5 12.5V28.5C2.5 30.7091 4.29086 32.5 6.5 32.5H34.5C36.7091 32.5 38.5 30.7091 38.5 28.5V12.5C38.5 10.2909 36.7091 8.5 34.5 8.5Z" fill="#E3E7EA"/>
<path d="M28.3633 19.5H21.4823V12.5L22.4653 11.5H18.5333L19.5163 12.5V19.5H12.6353L11.6523 18.5V22.5L12.6353 21.5H19.5163V28.5L18.5333 29.5H22.4653L21.4823 28.5V21.5H28.3633L29.3463 22.5V18.5L28.3633 19.5Z" fill="#F4DD00"/>
<path d="M17.551 17.5H2.5V23.5H17.551V32.5H23.449V23.5H38.5V17.5H23.449V8.5H17.551V17.5ZM22.466 11.5L21.483 12.5V19.5H28.364L29.347 18.5V22.5L28.364 21.5H21.483V28.5L22.466 29.5H18.534L19.517 28.5V21.5H12.636L11.653 22.5V18.5L12.636 19.5H19.517V12.5L18.534 11.5H22.466Z" fill="#EA0034"/>
</svg>
