<svg width="41" height="41" viewBox="0 0 41 41" fill="none" xmlns="http://www.w3.org/2000/svg">
<path d="M34.5 8.5H6.5C4.29086 8.5 2.5 10.2909 2.5 12.5V28.5C2.5 30.7091 4.29086 32.5 6.5 32.5H34.5C36.7091 32.5 38.5 30.7091 38.5 28.5V12.5C38.5 10.2909 36.7091 8.5 34.5 8.5Z" fill="#F9CF00"/>
<path d="M38.5 28.504V24.5H2.5V28.504C2.5 30.711 4.289 32.5 6.495 32.5H34.504C36.711 32.5 38.5 30.711 38.5 28.504Z" fill="#006F3C"/>
<path d="M2.5 12.496V16.501H38.5V12.496C38.5 10.289 36.711 8.5 34.505 8.5H6.495C4.288 8.5 2.5 10.289 2.5 12.496Z" fill="#CF002E"/>
<path d="M17.0215 19.7157H19.6795L20.5005 17.1777L21.3215 19.7157H23.9795L21.8295 21.2837L22.6505 23.8227L20.5005 22.2537L18.3505 23.8227L19.1715 21.2837L17.0215 19.7157Z" fill="black"/>
</svg>
