<svg width="41" height="41" viewBox="0 0 41 41" fill="none" xmlns="http://www.w3.org/2000/svg">
<path d="M20.6302 24.1592H20.1582V24.5782H20.6302V24.1592Z" fill="#E3E7EA"/>
<path d="M34.5 8.5H6.5C4.291 8.5 2.5 10.291 2.5 12.5V24.578H19.826V24.159H16.562V23.454H12.549V22.711L13.291 22.314V18.257H12.549V16.772H13.291V17.515H14.023V14.545H13.281V13.06H14.023V13.803H14.766V13.06H16.251V13.803H16.993V13.06H17.736V14.545H16.993V15.575H17.517V16.529H18.471V12.714H17.517V10.807H18.471V11.761H19.425V10.807H21.333V11.761H22.287V10.807H23.241V12.714H22.287V16.529H23.241V15.575H24.001V14.545H23.258V13.06H24.001V13.803H24.743V13.06H26.228V13.803H26.97V13.06H27.714V14.545H26.97V17.515H27.714V16.772H28.455V18.257H27.714V22.314L28.455 22.711V23.454H24.195V24.159H20.949V24.578H38.504V12.5C38.504 10.291 36.713 8.5 34.504 8.5H34.5Z" fill="#E3E7EA"/>
<path d="M20.5232 25.5311C20.5862 25.4671 20.6302 25.3621 20.6302 25.2371V24.5781H20.1582V25.2371C20.1582 25.3621 20.2032 25.4661 20.2662 25.5311H20.5222H20.5232Z" fill="#DC001B"/>
<path d="M20.4195 25.9691L19.7051 26.6816L20.4176 27.3961L21.132 26.6835L20.4195 25.9691Z" fill="#DC001B"/>
<path d="M20.945 25.2161C20.945 25.4661 20.848 25.6781 20.709 25.7831L21.613 26.6861L20.584 27.7141V32.2131H20.252V31.7101H19.116V31.0361H19.448V31.3801H20.252V30.3801H19.448V30.7191H19.116V30.0501H20.252V27.7131L19.222 26.6871L20.102 25.8121C19.941 25.7231 19.825 25.4931 19.825 25.2181V24.5801H2.5V28.5061C2.5 30.7131 4.289 32.5021 6.495 32.5021H34.504C36.711 32.5021 38.499 30.7131 38.499 28.5061V24.5801H20.944V25.2181L20.945 25.2161Z" fill="#DC001B"/>
<path d="M19.937 23.5156L19.043 22.7116C19.038 22.7066 19.043 22.6996 19.038 22.6946H18.999V20.6276C18.999 19.8666 19.615 19.2496 20.376 19.2496C21.137 19.2496 21.753 19.8666 21.753 20.6276V22.6946H21.713C21.709 22.6996 21.713 22.7066 21.708 22.7116L20.827 23.5036C20.898 23.6176 20.943 23.7706 20.943 23.9396V24.1586H24.189V23.4536H28.449V22.7106L27.708 22.3136V18.2566H28.449V16.7716H27.708V17.5146H26.964V14.5446H27.708V13.0596H26.964V13.8026H26.222V13.0596H24.737V13.8026H23.995V13.0596H23.252V14.5446H23.995V15.5746H23.235V16.5286H22.281V12.7136H23.235V10.8066H22.281V11.7606H21.327V10.8066H19.419V11.7606H18.465V10.8066H17.511V12.7136H18.465V16.5286H17.511V15.5746H16.987V14.5446H17.73V13.0596H16.987V13.8026H16.245V13.0596H14.76V13.8026H14.017V13.0596H13.275V14.5446H14.017V17.5146H13.285V16.7716H12.543V18.2556H13.285V22.3126L12.543 22.7096V23.4526H16.556V24.1576H19.82V23.9386C19.82 23.7746 19.864 23.6276 19.931 23.5146L19.937 23.5156ZM26.226 20.7056V21.9696H24.741V20.7056C24.741 20.1136 24.891 19.6326 25.483 19.6326C26.075 19.6326 26.226 20.1136 26.226 20.7056ZM24.74 16.0296C24.74 15.6196 25.073 15.2876 25.482 15.2876C25.891 15.2876 26.224 15.6196 26.224 16.0296V17.5146H24.739L24.74 16.0296ZM19.423 14.6206C19.423 14.0936 19.85 13.6666 20.377 13.6666C20.904 13.6666 21.331 14.0936 21.331 14.6206V16.5276H19.423V14.6206ZM14.765 16.0296C14.765 15.6196 15.097 15.2876 15.507 15.2876C15.917 15.2876 16.249 15.6196 16.249 16.0296V17.5146H14.764V16.0296H14.765ZM16.251 21.9696H14.766V20.7056C14.766 20.1136 14.916 19.6326 15.508 19.6326C16.1 19.6326 16.25 20.1136 16.25 20.7056V21.9696H16.251Z" fill="#DA1C0B"/>
<path d="M20.6302 23.9505C20.6302 23.8665 20.6082 23.7915 20.5762 23.7305L20.5342 23.7685C20.4972 23.8005 20.4392 23.8115 20.3762 23.8075C20.3132 23.8115 20.2542 23.8005 20.2182 23.7685L20.2022 23.7545C20.1762 23.8115 20.1582 23.8765 20.1582 23.9505V24.1585H20.6302V23.9505Z" fill="#DA1C0B"/>
<path d="M20.297 23.3013H20.456L21.13 22.6943H19.623L20.297 23.3013Z" fill="#DA1C0B"/>
<path d="M16.2496 16.0301C16.2496 15.6201 15.9176 15.2871 15.5076 15.2881C15.0976 15.2881 14.7656 15.6201 14.7656 16.0301V17.5151H16.2506V16.0301H16.2496Z" fill="black"/>
<path d="M15.5076 19.6328C14.9156 19.6328 14.7656 20.1138 14.7656 20.7058V21.9698H16.2506V20.7058C16.2506 20.1138 16.0996 19.6328 15.5076 19.6328Z" fill="black"/>
<path d="M26.2242 16.0301C26.2242 15.6201 25.8912 15.2871 25.4822 15.2881C25.0732 15.2881 24.7402 15.6201 24.7402 16.0301V17.5151H26.2252L26.2242 16.0301Z" fill="black"/>
<path d="M25.4822 19.6328C24.8902 19.6328 24.7402 20.1138 24.7402 20.7058V21.9698H26.2252V20.7058C26.2252 20.1138 26.0742 19.6328 25.4822 19.6328Z" fill="black"/>
<path d="M21.3299 14.621C21.3299 14.094 20.9029 13.667 20.3759 13.667C19.8489 13.667 19.4219 14.094 19.4219 14.621V16.528H21.3299V14.621Z" fill="black"/>
<path d="M21.754 20.628C21.754 19.867 21.138 19.25 20.377 19.25C19.616 19.25 19 19.867 19 20.628V22.695H19.039C18.994 22.636 19.018 22.556 19.112 22.504C19.214 22.448 19.35 22.449 19.415 22.507L19.623 22.695H21.129L21.337 22.507C21.402 22.449 21.538 22.447 21.64 22.504C21.735 22.555 21.76 22.636 21.713 22.695H21.753L21.754 20.628Z" fill="black"/>
<path d="M20.1022 25.8106L19.2222 26.6856L20.2522 27.7116V30.0486H19.1162V30.7176H19.4482V30.3786H20.2522V31.3786H19.4482V31.0346H19.1162V31.7086H20.2522V32.2116H20.5842V27.7126L21.6132 26.6846L20.7092 25.7816C20.8472 25.6776 20.9452 25.4656 20.9452 25.2146V23.9386C20.9452 23.7696 20.9002 23.6166 20.8292 23.5026L21.7102 22.7106C21.7152 22.7056 21.7102 22.6986 21.7152 22.6936C21.7612 22.6346 21.7372 22.5536 21.6422 22.5026C21.5402 22.4456 21.4042 22.4476 21.3392 22.5056L21.1312 22.6936L20.4572 23.3006H20.2982L19.6242 22.6936L19.4162 22.5056C19.3512 22.4476 19.2152 22.4466 19.1132 22.5026C19.0182 22.5546 18.9942 22.6346 19.0402 22.6936C19.0442 22.6986 19.0402 22.7056 19.0452 22.7106L19.9392 23.5146C19.8722 23.6276 19.8282 23.7746 19.8282 23.9386V25.2146C19.8282 25.4896 19.9442 25.7196 20.1052 25.8086L20.1022 25.8106ZM21.1312 26.6846L20.4172 27.3976L19.7052 26.6836L20.4182 25.9706L21.1312 26.6846ZM20.1582 24.5786V23.9516C20.1582 23.8776 20.1762 23.8126 20.2022 23.7556L20.2182 23.7696C20.2542 23.8016 20.3132 23.8126 20.3762 23.8086C20.4392 23.8126 20.4972 23.8016 20.5342 23.7696L20.5762 23.7316C20.6082 23.7926 20.6302 23.8666 20.6302 23.9516V25.2386C20.6302 25.3636 20.5862 25.4676 20.5232 25.5326H20.2672C20.2042 25.4686 20.1592 25.3636 20.1592 25.2386V24.5796L20.1582 24.5786Z" fill="#FFF100"/>
</svg>
