<svg width="41" height="41" viewBox="0 0 41 41" fill="none" xmlns="http://www.w3.org/2000/svg">
<path d="M34.5 8.5H6.5C4.29086 8.5 2.5 10.2909 2.5 12.5V28.5C2.5 30.7091 4.29086 32.5 6.5 32.5H34.5C36.7091 32.5 38.5 30.7091 38.5 28.5V12.5C38.5 10.2909 36.7091 8.5 34.5 8.5Z" fill="#E3E7EA"/>
<path d="M38.5 28.504V20.5H21.934C21.934 24.919 18.338 28.5 13.901 28.5C9.464 28.5 5.868 24.918 5.868 20.5H2.5V28.504C2.5 30.711 4.289 32.5 6.495 32.5H34.504C36.711 32.5 38.5 30.711 38.5 28.504Z" fill="#D10039"/>
<path d="M13.9002 12.5C9.46319 12.5 5.86719 16.082 5.86719 20.5H21.9332C21.9332 16.082 18.3372 12.5 13.9002 12.5Z" fill="#D10039"/>
</svg>
