<svg width="41" height="41" viewBox="0 0 41 41" fill="none" xmlns="http://www.w3.org/2000/svg">
<path d="M34.5 8.5H6.5C4.29086 8.5 2.5 10.2909 2.5 12.5V28.5C2.5 30.7091 4.29086 32.5 6.5 32.5H34.5C36.7091 32.5 38.5 30.7091 38.5 28.5V12.5C38.5 10.2909 36.7091 8.5 34.5 8.5Z" fill="#161515"/>
<path d="M2.5 12.496V16.368H38.5V12.496C38.5 10.289 36.711 8.5 34.505 8.5H6.495C4.288 8.5 2.5 10.289 2.5 12.496Z" fill="#1F3179"/>
<path d="M30.7325 30.2493C30.7325 30.2493 22.9245 26.1423 19.1475 24.9023C15.3695 23.6633 14.3625 24.6313 14.1495 25.0963C14.5565 23.9913 14.9825 23.7213 14.9825 23.7213C14.9825 23.7213 13.4915 24.1082 13.5105 25.0382C13.2005 24.2042 14.2455 23.1783 15.6225 23.1583C14.3835 22.9833 12.2325 23.1783 11.8455 24.3983C11.8645 23.1393 14.0535 22.7902 14.9445 22.8282C12.7155 22.1302 10.8565 22.1502 10.7205 23.0802C10.5655 22.6732 10.9915 22.3393 10.9915 22.3393C10.9915 22.3393 10.1195 22.2662 9.69352 22.6532C9.67352 22.3042 11.1075 21.9563 11.8055 22.0343C10.5855 21.5493 9.63652 21.4703 9.40352 22.0233C9.32452 21.3773 11.5915 21.2022 12.6375 21.4352C10.1965 20.5452 9.28552 20.1963 8.37552 21.1453C8.37552 20.4873 9.16952 20.2352 9.73052 20.2922C9.24552 19.7882 8.87852 19.4582 8.37552 19.4392C8.66552 19.3232 9.28552 19.5553 9.28552 19.5553C9.28552 19.5553 8.58752 18.8182 8.10352 18.5852C8.95652 18.7212 10.5445 20.3683 10.6615 20.5033C10.7775 20.6383 11.4555 20.7932 11.4555 20.7932C11.4555 20.7932 9.24652 18.9912 9.17052 18.4102C10.0805 18.8562 11.8635 20.8132 11.8635 20.8132C11.8635 20.8132 12.3085 21.0643 12.3285 20.8713C12.3485 20.6783 9.65452 18.9143 9.69452 17.9062C10.2365 18.6612 11.0125 19.5142 11.0125 19.5142C11.0125 19.5142 10.4515 18.7783 10.5085 18.1003C11.0505 19.0693 11.8635 20.2492 12.6005 20.6572C11.3895 19.4692 11.2645 18.7782 11.3615 18.5262C12.0205 19.7282 13.0855 20.9293 13.2605 21.0063C13.4355 21.0843 13.5315 21.0642 13.5315 21.0642C13.5315 21.0642 12.7775 20.2703 12.6595 19.7663C13.1815 20.1343 13.5495 20.9862 13.6665 21.0252C13.7835 21.0642 13.9185 20.9862 13.9185 20.9862C13.9185 20.9862 12.7945 19.8232 12.7945 19.2612C13.3375 19.6872 14.0535 20.8703 14.1505 21.0443C14.2465 21.2193 14.6925 21.5282 14.7505 21.3932C14.8095 21.2572 13.1425 19.7462 13.6275 19.4932C14.4015 20.1332 14.8475 21.0633 14.9255 21.0823C15.0035 21.1013 15.3515 21.2373 15.2935 21.1213C15.2355 21.0053 14.2005 19.6982 14.4605 18.9722C14.5175 19.7433 15.3135 21.2202 16.6895 21.5492C18.0645 21.8782 22.1525 24.6293 24.8845 25.4443C27.6155 26.2583 32.5365 27.3433 32.5365 27.3433L32.3815 27.5763C32.3815 27.5763 25.1545 25.6762 25.1545 25.7362C25.1545 25.7952 25.3675 25.9872 25.3675 25.9872C25.3675 25.9872 32.3045 27.8083 32.2855 27.8673C32.2655 27.9263 32.1285 28.1982 32.1285 28.1982L25.0965 26.0093H24.8835C24.8835 26.0093 31.8965 28.3732 31.8965 28.4312C31.8965 28.4892 31.7615 28.7412 31.7615 28.7412L24.5145 26.0093L24.7475 26.2803C24.7475 26.2803 31.6645 28.9133 31.6455 28.9923C31.6255 29.0703 31.4505 29.2642 31.4505 29.2642L24.8635 26.5702L24.4755 26.4743L31.3335 29.4392L31.1205 29.6903L24.7465 26.8622H24.5335L30.9855 30.0592L30.7325 30.2512V30.2493Z" fill="#008316"/>
<path d="M27.3405 26.4053C27.3405 26.4053 27.0995 25.5843 25.5075 25.5513L25.5115 25.5473C26.3785 24.6803 27.1675 24.7623 27.5985 24.9303C27.5985 24.9303 27.1955 24.2053 25.6865 24.4743C26.3525 23.5333 27.1095 23.4573 27.5535 23.5353C27.5535 23.5353 26.9975 22.8623 25.4935 23.4953C25.5025 23.4733 25.5155 23.4553 25.5245 23.4323C25.9615 22.2863 26.7155 22.0393 27.1785 22.0173C27.1785 22.0173 26.5175 21.5123 25.2505 22.3723C25.4785 21.2513 26.1355 20.8743 26.5725 20.7663C26.5725 20.7663 25.7945 20.3803 24.6855 21.5573C24.6855 21.5413 24.6885 21.5273 24.6875 21.5123C24.6275 20.2883 25.2145 19.7563 25.6305 19.5503C25.6305 19.5503 24.7965 19.3463 23.9745 20.7103V20.7063C23.6545 19.5233 24.1175 18.8793 24.4795 18.5893C24.4795 18.5893 23.6295 18.5673 23.1125 20.0553C22.5735 18.9783 22.8875 18.2593 23.1805 17.9053C23.1805 17.9053 22.3485 18.0633 22.1495 19.6203C21.4065 18.6793 21.5655 17.9133 21.7785 17.5073C21.7785 17.5073 20.9955 17.8333 21.1225 19.3993C20.1965 18.6303 20.1955 17.8473 20.3205 17.4053C20.3205 17.4053 19.6215 17.8863 20.0685 19.3933C19.0045 18.8343 18.8375 18.0663 18.8685 17.6063C18.8685 17.6063 18.2785 18.2233 19.0395 19.6163C17.8625 19.2953 17.5365 18.5713 17.4705 18.1133C17.4705 18.1133 17.0255 18.8333 18.0405 20.0233C16.8555 19.9363 16.3965 19.3073 16.2395 18.8773C16.2395 18.8773 15.9445 19.6863 17.2195 20.6563C17.2195 20.6563 17.2055 20.6563 17.1985 20.6583C15.9895 20.8493 15.3965 20.3203 15.1475 19.9293C15.1475 19.9293 15.0385 20.7493 16.4035 21.4173C15.3305 21.7643 14.6805 21.3863 14.3735 21.0613C14.3735 21.0613 14.4225 21.9333 16.0105 22.3103C15.9895 22.3223 15.9695 22.3303 15.9485 22.3433C14.9205 23.0073 14.1645 22.7633 13.7795 22.5063C13.7795 22.5063 14.0205 23.3283 15.6115 23.3603L15.6075 23.3643C14.7425 24.2293 13.9525 24.1513 13.5215 23.9813C13.5215 23.9813 13.9235 24.7073 15.4325 24.4373C14.7685 25.3773 14.0095 25.4573 13.5655 25.3773C13.5655 25.3773 14.1215 26.0503 15.6245 25.4163C15.6155 25.4383 15.6025 25.4573 15.5945 25.4793C15.1585 26.6233 14.4035 26.8743 13.9415 26.8943C13.9415 26.8943 14.6015 27.3993 15.8675 26.5413C15.6415 27.6603 14.9835 28.0393 14.5485 28.1463C14.5485 28.1463 15.3265 28.5323 16.4345 27.3553C16.4345 27.3703 16.4315 27.3833 16.4325 27.3993C16.4945 28.6213 15.9065 29.1563 15.4905 29.3613C15.4905 29.3613 16.3235 29.5653 17.1465 28.2013V28.2063C17.4675 29.3873 17.0045 30.0333 16.6415 30.3213C16.6415 30.3213 17.4915 30.3433 18.0085 28.8573C18.5465 29.9323 18.2335 30.6523 17.9395 31.0063C17.9395 31.0063 18.7725 30.8483 18.9715 29.2913C19.7155 30.2313 19.5565 30.9983 19.3425 31.4033C19.3425 31.4033 20.1255 31.0773 19.9995 29.5113C20.9255 30.2793 20.9265 31.0633 20.8015 31.5053C20.8015 31.5053 21.5005 31.0243 21.0535 29.5173C22.1195 30.0783 22.2815 30.8473 22.2535 31.3033C22.2535 31.3033 22.8415 30.6863 22.0835 29.2953C23.2625 29.6173 23.5835 30.3403 23.6525 30.7963C23.6525 30.7963 24.0965 30.0793 23.0845 28.8883C24.2705 28.9753 24.7255 29.6043 24.8845 30.0323C24.8845 30.0323 25.1795 29.2233 23.9035 28.2533H23.9235C25.1355 28.0603 25.7255 28.5913 25.9735 28.9813C25.9735 28.9813 26.0825 28.1623 24.7175 27.4923C25.7925 27.1453 26.4395 27.5253 26.7485 27.8483C26.7485 27.8483 26.6985 26.9773 25.1125 26.5983C25.1335 26.5863 25.1535 26.5783 25.1725 26.5663C26.2025 25.9053 26.9555 26.1503 27.3425 26.4073L27.3405 26.4053Z" fill="#FFDB00"/>
<path d="M9.57741 13.7891C9.57741 13.7891 9.61741 12.4141 8.72541 11.6771C7.83441 10.9411 7.27241 11.7351 7.31041 12.1811C7.34941 12.6271 7.73341 13.2071 8.44241 13.4211C8.00841 12.5681 8.59841 12.5521 8.80241 12.6661C9.09141 12.8261 9.24741 13.2471 9.24741 13.7891H9.57741Z" fill="#FFDB00"/>
<path d="M9.98573 9.00391C9.01673 9.50891 9.05573 10.9999 9.36473 11.7549C9.67473 12.5109 9.75273 13.7889 9.75273 13.7889H10.2177C10.2177 13.7889 10.2947 12.5109 10.6057 11.7549C10.9157 10.9999 10.9537 9.50691 9.98573 9.00391Z" fill="#FFDB00"/>
<path d="M10.3928 13.7891C10.3928 13.7891 10.3528 12.4141 11.2448 11.6771C12.1348 10.9411 12.6978 11.7351 12.6578 12.1811C12.6188 12.6271 12.2348 13.2071 11.5258 13.4211C11.9598 12.5681 11.3708 12.5521 11.1658 12.6661C10.8768 12.8261 10.7208 13.2471 10.7208 13.7891H10.3928Z" fill="#FFDB00"/>
<path d="M9.98492 13.9629L9.16992 14.0309L9.98492 14.0989L10.7999 14.0309L9.98492 13.9629Z" fill="#FFDB00"/>
<path d="M11.0448 14.9714C10.5358 14.6954 10.3918 14.2734 10.3918 14.2734H9.57683C9.57683 14.2734 9.43183 14.6944 8.92383 14.9714C9.37283 15.0434 9.83783 14.8114 9.83783 14.8114C9.83783 14.8114 9.57583 15.4514 9.98383 16.0754C10.3908 15.4504 10.1288 14.8114 10.1288 14.8114C10.1288 14.8114 10.5948 15.0444 11.0448 14.9714Z" fill="#FFDB00"/>
<path d="M20.0981 13.7891C20.0981 13.7891 20.1381 12.4141 19.2461 11.6771C18.3561 10.9411 17.7921 11.7351 17.8321 12.1811C17.8711 12.6271 18.2551 13.2071 18.9641 13.4211C18.5301 12.5681 19.1191 12.5521 19.3241 12.6661C19.6131 12.8261 19.7691 13.2471 19.7691 13.7891H20.0981Z" fill="#FFDB00"/>
<path d="M20.5046 9.00391C19.5356 9.50891 19.5756 10.9999 19.8846 11.7549C20.1946 12.5109 20.2726 13.7889 20.2726 13.7889H20.7376C20.7376 13.7889 20.8156 12.5109 21.1256 11.7549C21.4346 10.9999 21.4746 9.50691 20.5046 9.00391Z" fill="#FFDB00"/>
<path d="M20.9124 13.7891C20.9124 13.7891 20.8724 12.4141 21.7654 11.6771C22.6554 10.9411 23.2174 11.7351 23.1794 12.1811C23.1404 12.6271 22.7564 13.2071 22.0474 13.4211C22.4824 12.5681 21.8914 12.5521 21.6874 12.6661C21.3984 12.8261 21.2424 13.2471 21.2424 13.7891H20.9134H20.9124Z" fill="#FFDB00"/>
<path d="M20.5045 13.9629L19.6895 14.0309L20.5045 14.0989L21.3205 14.0309L20.5045 13.9629Z" fill="#FFDB00"/>
<path d="M21.5673 14.9714C21.0583 14.6954 20.9143 14.2734 20.9143 14.2734H20.0983C20.0983 14.2734 19.9543 14.6944 19.4453 14.9714C19.8953 15.0434 20.3603 14.8114 20.3603 14.8114C20.3603 14.8114 20.0973 15.4504 20.5053 16.0754C20.9123 15.4504 20.6513 14.8114 20.6513 14.8114C20.6513 14.8114 21.1163 15.0444 21.5673 14.9714Z" fill="#FFDB00"/>
<path d="M30.6889 13.7891C30.6889 13.7891 30.7289 12.4141 29.8379 11.6771C28.9469 10.9411 28.3839 11.7351 28.4239 12.1811C28.4629 12.6271 28.8469 13.2071 29.5559 13.4211C29.1219 12.5681 29.7119 12.5521 29.9169 12.6661C30.2059 12.8261 30.3619 13.2471 30.3619 13.7891H30.6889Z" fill="#FFDB00"/>
<path d="M31.0981 9.00391C30.1291 9.50891 30.1691 10.9999 30.4791 11.7549C30.7891 12.5109 30.8671 13.7889 30.8671 13.7889H31.3311C31.3311 13.7889 31.4091 12.5109 31.7191 11.7549C32.0291 10.9999 32.0681 9.50691 31.0981 9.00391Z" fill="#FFDB00"/>
<path d="M31.5042 13.7891C31.5042 13.7891 31.4642 12.4141 32.3572 11.6771C33.2472 10.9411 33.8092 11.7351 33.7702 12.1811C33.7312 12.6271 33.3472 13.2071 32.6382 13.4211C33.0732 12.5681 32.4822 12.5521 32.2782 12.6661C31.9892 12.8261 31.8332 13.2471 31.8332 13.7891H31.5042Z" fill="#FFDB00"/>
<path d="M31.0972 13.9629L30.2812 14.0309L31.0972 14.0989L31.9132 14.0309L31.0972 13.9629Z" fill="#FFDB00"/>
<path d="M32.1591 14.9714C31.6501 14.6954 31.5051 14.2734 31.5051 14.2734H30.6901C30.6901 14.2734 30.5461 14.6944 30.0371 14.9714C30.4871 15.0434 30.9531 14.8114 30.9531 14.8114C30.9531 14.8114 30.6901 15.4514 31.0981 16.0754C31.5051 15.4504 31.2441 14.8114 31.2441 14.8114C31.2441 14.8114 31.7081 15.0444 32.1591 14.9714Z" fill="#FFDB00"/>
</svg>
