<svg width="41" height="41" viewBox="0 0 41 41" fill="none" xmlns="http://www.w3.org/2000/svg">
<path d="M13.8675 20.4996L9.97852 24.4426H38.5005V16.5566H9.97852L13.8675 20.4996ZM21.9085 17.5246L22.1485 17.6316L22.3615 17.4756L22.3905 17.7386L22.6305 17.8446L22.4185 18.0006L22.4455 18.2616L22.2055 18.1546L21.9925 18.3106L21.9645 18.0486L21.7235 17.9416L21.9375 17.7866L21.9085 17.5246ZM20.9455 17.2736L21.2035 17.3326L21.3825 17.1396L21.4605 17.3916L21.7175 17.4506L21.5375 17.6436L21.6145 17.8956L21.3575 17.8366L21.1765 18.0296L21.1005 17.7776L20.8435 17.7186L21.0235 17.5256L20.9455 17.2736ZM19.9435 17.2476H20.2075L20.3395 17.0196L20.4715 17.2476H20.7355L20.6035 17.4756L20.7355 17.7046H20.4715L20.3395 17.9326L20.2075 17.7046H19.9435L20.0755 17.4756L19.9435 17.2476ZM21.6785 18.2056V21.9026C21.6785 22.6566 21.2525 22.7776 21.0345 22.7776H20.3165C19.8665 22.7776 19.8135 23.1506 19.8135 23.1506C19.8135 23.1506 19.7605 22.7776 19.3105 22.7776H18.5925C18.3735 22.7776 17.9485 22.6556 17.9485 21.9026V18.2056H21.6785ZM18.9605 17.2476H19.2245L19.3565 17.0196L19.4885 17.2476H19.7525L19.6205 17.4756L19.7525 17.7046H19.4885L19.3565 17.9326L19.2245 17.7046H18.9605L19.0925 17.4756L18.9605 17.2476ZM18.2355 17.3926L18.3135 17.1406L18.4925 17.3336L18.7495 17.2746L18.6725 17.5266L18.8525 17.7196L18.5955 17.7786L18.5185 18.0306L18.3385 17.8376L18.0815 17.8966L18.1575 17.6446L17.9785 17.4516L18.2355 17.3926ZM17.3045 17.7386L17.3335 17.4756L17.5455 17.6316L17.7865 17.5246L17.7575 17.7876L17.9705 17.9426L17.7305 18.0496L17.7025 18.3116L17.4895 18.1556L17.2495 18.2626L17.2765 18.0016L17.0635 17.8456L17.3045 17.7386ZM17.0735 21.0876C17.0735 21.0876 17.2675 21.4286 17.5105 21.6586C17.8025 21.9346 17.6005 22.1726 17.4225 22.3076C17.5065 22.4646 17.6375 22.6286 17.8875 22.7276C18.6215 23.0196 19.1285 22.8986 19.1885 22.9226C19.2275 22.9386 19.2155 23.1836 19.2035 23.3616C19.3465 23.3916 19.5395 23.4126 19.8135 23.4126C20.0875 23.4126 20.2795 23.3916 20.4235 23.3616C20.4105 23.1836 20.3985 22.9376 20.4385 22.9226C20.4995 22.8986 21.0055 23.0196 21.7395 22.7276C21.9895 22.6276 22.1205 22.4646 22.2045 22.3076C22.0265 22.1726 21.8255 21.9346 22.1165 21.6586C22.3605 21.4286 22.5535 21.0876 22.5535 21.0876C22.5045 21.4286 22.7595 21.9396 22.6885 22.1086C22.6485 22.2026 22.5635 22.2856 22.4945 22.3446C22.5295 22.5296 22.5765 22.5826 22.6135 22.6556C22.6505 22.7286 22.6875 22.9966 21.9685 23.3376C21.5575 23.5326 21.1205 23.5706 20.8185 23.5686C20.8165 23.6346 20.8125 23.6956 20.8035 23.7386C20.7675 23.9076 20.5115 24.0066 19.8145 24.0066C19.1175 24.0066 18.8615 23.9076 18.8255 23.7386C18.8165 23.6946 18.8115 23.6346 18.8105 23.5686C18.5075 23.5706 18.0705 23.5326 17.6595 23.3376C16.9405 22.9966 16.9765 22.7296 17.0145 22.6556C17.0515 22.5836 17.0985 22.5296 17.1335 22.3446C17.0645 22.2856 16.9795 22.2026 16.9395 22.1086C16.8675 21.9396 17.1215 21.4286 17.0735 21.0876Z" fill="#E3E7EA"/>
<path d="M3.44922 31.0624C3.44922 31.0624 3.45822 31.0704 3.46222 31.0744C3.63322 31.2764 3.82522 31.4594 4.03122 31.6254C4.04922 31.6394 4.06522 31.6544 4.08322 31.6684C4.27422 31.8164 4.48222 31.9414 4.69822 32.0534C4.74122 32.0754 4.78122 32.1014 4.82422 32.1214C5.02122 32.2144 5.23222 32.2824 5.44522 32.3414C5.51022 32.3594 5.57222 32.3864 5.63822 32.4014C5.90322 32.4604 6.17822 32.4934 6.46122 32.4954C6.47222 32.4954 6.48322 32.4994 6.49422 32.4994H34.5032C36.7102 32.4994 38.4982 30.7104 38.4982 28.5044V24.4424H9.97822L3.45022 31.0614L3.44922 31.0624Z" fill="#E5001E"/>
<path d="M13.868 20.5005L9.97895 16.5575L3.45095 9.93848C3.44595 9.94448 3.44195 9.95248 3.43695 9.95848C3.30295 10.1195 3.18195 10.2905 3.07295 10.4705C3.05595 10.4995 3.04195 10.5295 3.02495 10.5585C2.93095 10.7235 2.84695 10.8935 2.77595 11.0715C2.74095 11.1615 2.71895 11.2565 2.68995 11.3495C2.64895 11.4805 2.60495 11.6095 2.57795 11.7455C2.52995 11.9875 2.50195 12.2375 2.50195 12.4945V28.5035C2.50195 28.7605 2.52995 29.0105 2.57795 29.2525C2.60495 29.3885 2.64895 29.5165 2.68995 29.6475C2.71895 29.7415 2.74095 29.8365 2.77695 29.9275C2.84695 30.1045 2.93095 30.2745 3.02495 30.4385C3.04195 30.4685 3.05595 30.4995 3.07395 30.5295C3.18195 30.7085 3.30295 30.8785 3.43595 31.0395C3.44195 31.0465 3.44595 31.0545 3.45195 31.0615L9.97995 24.4425L13.869 20.4995L13.868 20.5005Z" fill="#356FB9"/>
<path d="M19.7511 19.7089C19.6971 19.6869 19.6521 19.6569 19.6401 19.6279C19.6351 19.6689 19.6261 19.7009 19.6191 19.7369C19.7011 19.8299 19.7521 19.9059 19.7521 19.9059V19.7089H19.7511Z" fill="#C8C8C9"/>
<path d="M17.9492 21.9021C17.9492 22.6561 18.3752 22.7771 18.5932 22.7771H19.3112C19.7612 22.7771 19.8142 23.1501 19.8142 23.1501C19.8142 23.1501 19.8672 22.7771 20.3172 22.7771H21.0352C21.2542 22.7771 21.6792 22.6551 21.6792 21.9021V18.2051H17.9502V21.9021H17.9492ZM18.4152 19.7731C18.5932 19.6761 18.8082 19.6521 18.8082 19.6521C18.8082 19.6521 18.8632 19.3841 18.9592 19.2021C19.0552 19.0201 19.2162 18.9471 19.2162 18.9471C19.2162 18.9471 19.4122 18.5211 19.7512 18.4971C20.0902 18.4731 20.0902 18.8251 20.0902 18.8251C20.0902 18.8251 20.3002 18.8251 20.3412 18.9461C20.5282 18.7511 20.8562 18.7761 20.9292 18.8611C21.0022 18.9461 20.9292 19.1291 20.9292 19.1291C20.9292 19.1291 21.2182 19.0441 21.2802 19.1411C21.3422 19.2381 21.2802 19.3641 21.2802 19.3641C21.2802 19.3641 21.5132 19.4091 21.4032 19.6641C21.2932 19.9191 20.9532 19.8461 20.9532 19.8461C20.9532 19.8461 20.8142 19.9921 20.6652 19.9801C20.5162 19.9681 20.4672 19.7611 20.4672 19.7611H20.4602C20.2192 19.8351 19.9452 19.9631 19.9452 20.5871C19.9452 21.2171 20.0412 21.8741 20.1632 22.1051C20.2852 22.3371 20.2822 22.5811 19.8152 22.5811C19.3482 22.5811 19.2762 22.4111 19.4342 22.0461C19.5922 21.6811 19.6772 21.1871 19.6772 20.5881C19.6772 20.2861 19.6222 20.1031 19.5372 19.9651C19.4822 20.0511 19.4022 20.1201 19.2762 20.1851C19.0292 20.3151 18.8532 20.0271 18.8532 20.0271C18.8532 20.0271 18.6282 20.1851 18.4162 20.0751C18.2052 19.9651 18.2382 19.8681 18.4162 19.7711L18.4152 19.7731Z" fill="#C8C8C9"/>
<path d="M20.1584 19.6792C20.1354 19.6592 20.1104 19.6462 20.0894 19.6162C20.0484 19.6782 19.9964 19.7082 19.9434 19.7242V19.8342C19.9434 19.8342 20.0404 19.7532 20.1574 19.6792H20.1584Z" fill="#C8C8C9"/>
<path d="M17.1337 22.3439C17.0987 22.5289 17.0517 22.5819 17.0147 22.6549C16.9777 22.7279 16.9407 22.9959 17.6597 23.3369C18.0707 23.5319 18.5087 23.5699 18.8107 23.5679C18.8127 23.6339 18.8167 23.6939 18.8257 23.7379C18.8627 23.9069 19.1177 24.0059 19.8147 24.0059C20.5117 24.0059 20.7677 23.9069 20.8037 23.7379C20.8137 23.6939 20.8177 23.6339 20.8187 23.5679C21.1217 23.5699 21.5577 23.5319 21.9687 23.3369C22.6877 22.9959 22.6517 22.7289 22.6137 22.6549C22.5757 22.5829 22.5297 22.5289 22.4947 22.3439C22.5637 22.2849 22.6487 22.2019 22.6887 22.1079C22.7607 21.9389 22.5047 21.4279 22.5537 21.0869C22.5537 21.0869 22.3597 21.4279 22.1167 21.6579C21.8247 21.9339 22.0267 22.1719 22.2047 22.3069C22.1207 22.4639 21.9897 22.6279 21.7397 22.7269C21.0057 23.0189 20.4987 22.8979 20.4387 22.9219C20.3997 22.9379 20.4107 23.1829 20.4237 23.3609C20.2807 23.3909 20.0877 23.4119 19.8137 23.4119C19.5397 23.4119 19.3467 23.3909 19.2037 23.3609C19.2167 23.1829 19.2287 22.9379 19.1887 22.9219C19.1277 22.8979 18.6217 23.0189 17.8877 22.7269C17.6377 22.6269 17.5067 22.4639 17.4227 22.3069C17.6007 22.1719 17.8017 21.9339 17.5107 21.6579C17.2667 21.4279 17.0737 21.0869 17.0737 21.0869C17.1217 21.4279 16.8667 21.9389 16.9387 22.1079C16.9787 22.2019 17.0647 22.2849 17.1337 22.3439Z" fill="#C8C8C9"/>
<path d="M20.2064 17.7035L20.3384 17.9315L20.4704 17.7035H20.7344L20.6024 17.4755L20.7344 17.2475H20.4704L20.3384 17.0195L20.2064 17.2475H19.9434L20.0754 17.4755L19.9434 17.7035H20.2064Z" fill="#FFD701"/>
<path d="M19.223 17.7035L19.354 17.9315L19.486 17.7035H19.75L19.617 17.4755L19.75 17.2475H19.486L19.354 17.0195L19.223 17.2475H18.959L19.09 17.4755L18.959 17.7035H19.223Z" fill="#FFD701"/>
<path d="M21.9637 18.0486L21.9917 18.3116L22.2047 18.1556L22.4457 18.2616L22.4177 18.0006L22.6307 17.8446L22.3897 17.7386L22.3617 17.4756L22.1477 17.6316L21.9077 17.5246L21.9367 17.7876L21.7227 17.9416L21.9637 18.0486Z" fill="#FFD701"/>
<path d="M17.2485 18.2616L17.4895 18.1556L17.7025 18.3116L17.7305 18.0486L17.9705 17.9416L17.7575 17.7876L17.7865 17.5246L17.5455 17.6316L17.3325 17.4756L17.3045 17.7386L17.0625 17.8446L17.2755 18.0006L17.2485 18.2616Z" fill="#FFD701"/>
<path d="M18.0796 17.8956L18.3366 17.8366L18.5166 18.0306L18.5936 17.7776L18.8506 17.7186L18.6706 17.5256L18.7476 17.2736L18.4906 17.3326L18.3116 17.1396L18.2336 17.3916L17.9766 17.4506L18.1556 17.6446L18.0796 17.8956Z" fill="#FFD701"/>
<path d="M21.0988 17.7776L21.1748 18.0306L21.3558 17.8366L21.6128 17.8956L21.5358 17.6446L21.7148 17.4506L21.4588 17.3916L21.3808 17.1396L21.2018 17.3326L20.9438 17.2736L21.0218 17.5256L20.8418 17.7186L21.0988 17.7776Z" fill="#FFD701"/>
<path d="M20.1572 19.6787C20.0402 19.7527 19.9432 19.8337 19.9432 19.8337V19.7237C19.8742 19.7447 19.8072 19.7337 19.7502 19.7097V19.9067C19.7502 19.9067 19.7002 19.8297 19.6172 19.7377C19.5992 19.8257 19.5752 19.9047 19.5342 19.9677C19.6202 20.1057 19.6742 20.2887 19.6742 20.5907C19.6742 21.1887 19.5892 21.6837 19.4312 22.0487C19.2732 22.4137 19.3452 22.5837 19.8122 22.5837C20.2792 22.5837 20.2822 22.3397 20.1602 22.1077C20.0392 21.8767 19.9422 21.2197 19.9422 20.5897C19.9422 19.9647 20.2162 19.8377 20.4572 19.7637C20.4402 19.7677 20.2882 19.7907 20.1562 19.6797L20.1572 19.6787Z" fill="#A36629"/>
<path d="M34.5043 8.50002H6.49427C6.48327 8.50002 6.47227 8.50402 6.46127 8.50402C6.17827 8.50602 5.90327 8.53902 5.63827 8.59802C5.57227 8.61302 5.51127 8.63902 5.44627 8.65702C5.23227 8.71702 5.02027 8.78502 4.82227 8.87802C4.77927 8.89802 4.74027 8.92302 4.69827 8.94502C4.48127 9.05702 4.27227 9.18302 4.08027 9.33202C4.06327 9.34502 4.04727 9.36002 4.03027 9.37302C3.82227 9.53902 3.63027 9.72402 3.45827 9.92702C3.45527 9.93102 3.45027 9.93402 3.44727 9.93802L9.97527 16.557H38.4973V12.495C38.4973 10.288 36.7083 8.49902 34.5023 8.49902L34.5043 8.50002Z" fill="#2A9E35"/>
<path d="M18.4137 20.0783C18.6257 20.1883 18.8507 20.0303 18.8507 20.0303C18.8507 20.0303 19.0257 20.3183 19.2737 20.1883C19.3987 20.1223 19.4797 20.0533 19.5347 19.9683C19.5757 19.9053 19.5997 19.8263 19.6177 19.7383C19.6247 19.7023 19.6337 19.6703 19.6387 19.6293C19.6517 19.6593 19.6967 19.6883 19.7497 19.7103C19.8067 19.7343 19.8737 19.7453 19.9427 19.7243C19.9957 19.7083 20.0467 19.6783 20.0887 19.6163C20.1097 19.6463 20.1337 19.6593 20.1577 19.6793C20.2897 19.7903 20.4417 19.7673 20.4587 19.7633H20.4657C20.4657 19.7633 20.5147 19.9703 20.6637 19.9823C20.8127 19.9953 20.9517 19.8483 20.9517 19.8483C20.9517 19.8483 21.2917 19.9213 21.4017 19.6663C21.5117 19.4113 21.2787 19.3663 21.2787 19.3663C21.2787 19.3663 21.3407 19.2413 21.2787 19.1433C21.2167 19.0453 20.9277 19.1313 20.9277 19.1313C20.9277 19.1313 21.0007 18.9483 20.9277 18.8633C20.8547 18.7783 20.5257 18.7533 20.3397 18.9483C20.2997 18.8273 20.0887 18.8273 20.0887 18.8273C20.0887 18.8273 20.0887 18.4743 19.7497 18.4993C19.4107 18.5233 19.2147 18.9493 19.2147 18.9493C19.2147 18.9493 19.0537 19.0223 18.9577 19.2043C18.8617 19.3863 18.8067 19.6543 18.8067 19.6543C18.8067 19.6543 18.5917 19.6783 18.4137 19.7753C18.2357 19.8723 18.2027 19.9703 18.4137 20.0793V20.0783Z" fill="#009A3B"/>
</svg>
