<svg width="41" height="41" viewBox="0 0 41 41" fill="none" xmlns="http://www.w3.org/2000/svg">
<path d="M34.5 8.5H6.5C4.29086 8.5 2.5 10.2909 2.5 12.5V28.5C2.5 30.7091 4.29086 32.5 6.5 32.5H34.5C36.7091 32.5 38.5 30.7091 38.5 28.5V12.5C38.5 10.2909 36.7091 8.5 34.5 8.5Z" fill="#2C2478"/>
<path d="M2.5 28.5051C2.5 28.9011 2.575 29.2761 2.682 29.6371H38.317C38.424 29.2761 38.499 28.9011 38.499 28.5051V26.9951H2.5V28.5051Z" fill="#E3E7EA"/>
<path d="M38.5006 16.4258H16.0176V19.0678H38.5006V16.4258Z" fill="#E3E7EA"/>
<path d="M38.5006 12.4956C38.5006 12.0176 38.4026 11.5666 38.2496 11.1416H16.0176V13.7836H38.5006V12.4946V12.4956Z" fill="#E3E7EA"/>
<path d="M10.61 13.784V11.142V8.5H7.906V11.142V13.784H2.5V16.426H7.906V19.068V21.71H2.5V24.353H38.5V21.71H16.017H10.61V19.068V16.426H16.017V13.784H10.61Z" fill="#E3E7EA"/>
</svg>
