<svg width="41" height="41" viewBox="0 0 41 41" fill="none" xmlns="http://www.w3.org/2000/svg">
<path d="M2.5 15.3574V17.6364L7.086 15.3574H2.5Z" fill="#261B64"/>
<path d="M30.9897 14.8173C30.9787 14.9743 30.9877 15.1823 30.9707 15.3603C31.0667 15.4203 31.0647 15.5703 31.1217 15.6163C31.1817 15.6643 31.2367 15.4613 31.3637 15.3763C31.3957 15.1373 31.4977 14.7893 31.4847 14.6793C31.4647 14.5013 31.0087 14.5403 30.9887 14.8183L30.9897 14.8173Z" fill="#261B64"/>
<path d="M32.043 15.1739C32.103 14.9159 31.944 14.5589 31.864 14.8169C31.813 14.9799 31.729 15.2289 31.625 15.4069C31.711 15.4919 31.761 15.6209 31.821 15.6309C31.889 15.6419 31.924 15.5139 32.014 15.4659C32.012 15.3719 32.02 15.2719 32.043 15.1739Z" fill="#261B64"/>
<path d="M30.6913 15.1155C30.7103 14.8385 30.5133 14.4015 30.4933 14.7785C30.4803 15.0295 30.4623 15.3165 30.4023 15.5025C30.4673 15.5805 30.5113 15.7165 30.5423 15.6755C30.5723 15.6355 30.6093 15.5055 30.6943 15.4175C30.6873 15.3185 30.6853 15.2125 30.6923 15.1155H30.6913Z" fill="#261B64"/>
<path d="M3.34364 10.0684C2.93364 10.5994 2.65764 11.2324 2.55664 11.9274H7.08364L3.34364 10.0684Z" fill="#261B64"/>
<path d="M20.8823 8.5H14.5723V11.635L20.8823 8.5Z" fill="#261B64"/>
<path d="M11.122 11.634V8.5H6.49895C6.06095 8.5 5.64695 8.588 5.25195 8.718L11.122 11.635V11.634Z" fill="#261B64"/>
<path d="M35.0466 23.856C35.0436 23.848 35.0386 23.842 35.0366 23.834C35.0296 23.834 35.0226 23.834 35.0156 23.834C35.0256 23.841 35.0376 23.848 35.0466 23.855V23.856Z" fill="#261B64"/>
<path d="M28.8694 27.1611C28.7534 27.2571 28.6594 27.3491 28.5664 27.4401C28.7744 27.4911 28.9784 27.5471 29.1434 27.5951C29.0734 27.4441 28.9854 27.2941 28.8694 27.1611Z" fill="#261B64"/>
<path d="M34.499 8.5H23.196V9.649L18.611 11.928H23.197V15.357H18.61L23.196 17.636V18.019V18.785H20.881L14.571 15.65V18.785H11.121V15.65L4.81105 18.785H2.49805V28.5C2.49805 30.709 4.28905 32.5 6.49805 32.5H34.498C36.707 32.5 38.498 30.709 38.498 28.5V12.5C38.498 10.291 36.708 8.5 34.499 8.5ZM26.883 15.228C26.883 15.228 27.51 15.518 28.147 15.577C27.954 15.302 27.998 14.915 27.998 14.915C27.998 14.915 28.73 15.012 29.159 15.953C29.16 15.95 29.161 15.945 29.162 15.942C29.56 16.24 29.664 17.073 29.53 17.46C29.967 17.481 30.051 17.847 29.917 18.115C29.711 17.819 29.493 18.093 29.443 18.332C29.871 18.342 30.177 18.108 30.325 17.954C30.286 17.871 30.246 17.788 30.184 17.726C29.96 17.502 29.802 17.272 29.778 17.098C29.778 17.096 29.774 17.092 29.774 17.091C29.774 17.091 29.775 17.091 29.776 17.091C29.768 17.026 29.776 16.967 29.813 16.923C29.634 16.626 29.915 16.492 29.998 16.15C30.058 15.903 30.121 15.672 30.2 15.546C30.202 15.382 30.253 15.116 30.216 14.916C30.157 14.599 29.919 14.221 30.018 13.844C30.105 13.513 29.998 13.19 29.74 13.289C29.482 13.388 29.244 13.23 29.284 13.15C29.309 13.1 29.443 12.993 29.631 12.916C29.509 12.834 29.363 12.742 29.16 12.624C28.877 12.46 28.818 12.119 28.951 11.865C29.085 11.612 29.403 11.523 29.325 11.761C29.248 11.999 29.164 12.291 29.325 12.316C29.486 12.341 29.441 11.999 29.59 12.014C29.738 12.029 29.441 12.565 29.59 12.58C29.738 12.595 29.694 12.104 29.858 12.163C30.022 12.222 29.992 12.654 29.858 12.684C29.779 12.702 29.802 12.776 29.852 12.856C29.907 12.846 29.959 12.833 30.019 12.833C30.151 12.833 30.29 12.861 30.424 12.897C30.491 12.803 30.536 12.705 30.443 12.685C30.309 12.655 30.279 12.223 30.443 12.164C30.607 12.105 30.562 12.596 30.711 12.581C30.86 12.566 30.563 12.031 30.711 12.015C30.86 12 30.815 12.342 30.976 12.317C31.137 12.292 31.053 12 30.976 11.762C30.899 11.524 31.217 11.613 31.351 11.866C31.484 12.119 31.425 12.461 31.143 12.625C30.908 12.761 30.744 12.865 30.617 12.954C30.792 13.021 30.912 13.101 30.893 13.151C30.854 13.25 30.417 13.34 30.417 13.34C30.417 13.34 30.477 13.726 31.211 13.726C31.945 13.726 32.559 13.905 32.421 14.797C32.342 15.305 32.295 15.558 32.247 15.678C32.277 15.833 32.289 16.025 32.358 16.137C32.477 16.33 32.73 16.702 32.581 16.925C32.606 16.943 32.607 16.967 32.62 16.988C32.626 16.99 32.644 16.982 32.644 16.988C32.644 16.992 32.633 17.002 32.632 17.007C32.702 17.16 32.526 17.372 32.313 17.535C32.203 17.619 32.09 17.764 32.006 17.937C32.147 18.089 32.458 18.343 32.905 18.333C32.853 18.094 32.637 17.82 32.432 18.116C32.298 17.847 32.382 17.482 32.819 17.461C32.686 17.075 32.79 16.241 33.187 15.943C33.187 15.945 33.189 15.95 33.19 15.953C33.619 15.013 34.351 14.916 34.351 14.916C34.351 14.916 34.396 15.302 34.203 15.578C34.841 15.519 35.467 15.229 35.467 15.229C35.646 15.735 34.574 16.271 33.92 16.24C34.232 16.552 33.935 16.821 33.637 16.873C33.758 16.575 33.465 16.363 33.296 16.449C33.361 16.843 33.414 17.297 33.414 17.297C33.414 17.297 33.801 16.969 34.279 16.829C34.281 17.125 33.904 17.977 33.337 18.25C33.016 19.003 32.266 18.71 31.904 18.462C31.908 18.553 31.91 18.644 31.942 18.74C32.106 19.097 32.73 18.725 32.879 18.948C32.963 19.07 32.971 19.392 32.686 19.659C32.706 19.659 32.727 19.658 32.746 19.659L33.019 19.661H33.109V20.552V20.674V21.773C33.109 21.951 33.092 22.233 32.98 22.534C32.899 22.788 32.774 23.063 32.57 23.327C32.468 23.458 32.342 23.585 32.201 23.706C32.18 23.724 32.153 23.739 32.132 23.756C32.171 23.796 32.203 23.828 32.225 23.841C32.384 23.941 32.166 24.099 32.166 24.099C32.166 24.099 32.384 24.159 32.443 24.308C32.502 24.457 32.443 24.536 32.443 24.536L32.78 24.833C32.78 24.833 32.551 25.131 32.371 25.231C32.19 25.332 31.908 24.972 31.908 24.972C31.908 24.972 31.868 25.289 31.764 25.246C31.66 25.203 31.422 25.051 31.422 25.051C31.422 25.051 31.173 25.309 31.129 25.231C31.085 25.153 30.98 24.763 30.98 24.763C30.98 24.763 30.692 24.744 30.686 24.763C30.68 24.782 30.721 24.337 30.721 24.337C30.721 24.337 30.48 24.536 30.436 24.595C30.392 24.655 30.306 24.099 30.306 24.099C30.306 24.099 30.164 23.866 30.326 23.612C30.233 23.525 30.139 23.439 30.066 23.347C29.861 23.088 29.73 22.819 29.646 22.566C29.539 22.246 29.507 21.957 29.507 21.773V19.66H29.631L29.869 19.658C29.876 19.658 29.885 19.658 29.892 19.658C29.71 19.482 29.648 19.279 29.7 19.109C29.819 18.723 30.235 18.93 30.369 18.826C30.424 18.784 30.447 18.635 30.445 18.463C30.08 18.71 29.337 18.998 29.017 18.248C28.45 17.975 28.074 17.123 28.076 16.827C28.555 16.967 28.941 17.295 28.941 17.295C28.941 17.295 28.994 16.841 29.059 16.447C28.89 16.36 28.596 16.572 28.718 16.87C28.42 16.818 28.123 16.549 28.435 16.237C27.781 16.268 26.709 15.731 26.888 15.226L26.883 15.228ZM26.096 22.161C26.26 21.759 26.572 21.626 26.676 21.492C26.78 21.359 27.156 20.572 27.166 20.288C27.2 19.336 27.359 18.86 27.345 18.487C27.331 18.114 27.657 18.115 27.911 18.04C28.164 17.966 28.283 18.174 28.491 18.188C28.7 18.203 28.819 18.233 28.759 18.485C28.699 18.737 28.506 19.064 28.462 19.154C28.417 19.244 28.715 19.809 28.953 20.285C29.191 20.761 29.533 21.371 29.281 22.324C29.028 23.276 28.879 23.618 28.775 23.693C28.671 23.767 28.751 23.068 28.659 22.741C28.567 22.413 28.448 22.339 28.448 22.339C28.448 22.339 28.046 22.718 27.898 23.198C27.75 23.678 27.869 24.027 28.151 24.224C28.434 24.421 29.074 24.54 29.177 24.6C29.281 24.659 28.969 24.793 28.537 24.764C28.106 24.734 27.085 24.372 26.702 23.965C26.32 23.559 25.798 22.895 26.096 22.161ZM34.808 26.416C34.741 26.359 34.701 26.306 34.655 26.252C34.562 26.318 34.462 26.395 34.347 26.52C34.897 26.891 35.344 27.635 35.345 27.636L34.839 28.127C33.675 28.333 33.446 28.654 33.441 28.661V28.656C33.434 28.626 33.28 28.017 33.044 27.813C33.055 27.233 33.219 26.802 33.219 26.802C33.219 26.802 32.441 26.326 31.417 26.326C30.393 26.326 29.615 26.802 29.615 26.802C29.615 26.802 29.779 27.233 29.79 27.813C29.548 28.021 29.392 28.661 29.392 28.661C29.392 28.661 29.392 28.654 29.392 28.653V28.661C29.392 28.661 29.168 28.333 27.993 28.126L27.488 27.636C27.488 27.636 27.935 26.892 28.485 26.52C28.369 26.394 28.27 26.317 28.176 26.251C28.129 26.305 28.089 26.358 28.022 26.416C27.605 26.773 27.13 26.743 27.159 26.342C27.561 26.238 27.456 25.441 27.79 25.338C27.79 25.341 27.79 25.344 27.79 25.348C27.896 25.258 28.061 25.213 28.275 25.252C28.736 25.337 29.212 26.075 29.212 26.075C29.212 26.075 30.089 25.554 31.416 25.554C32.743 25.554 33.619 26.075 33.619 26.075C33.619 26.075 34.095 25.337 34.556 25.252C34.769 25.213 34.934 25.258 35.039 25.347C35.039 25.344 35.039 25.342 35.039 25.338C35.373 25.441 35.268 26.238 35.67 26.342C35.7 26.744 35.225 26.773 34.808 26.416ZM36.226 24.364C35.885 24.424 35.455 24.069 35.157 23.963C35.268 24.088 35.065 24.243 34.787 24.249C34.507 24.255 34.084 24.303 33.901 24.225C33.717 24.147 34.145 23.991 34.145 23.991C34.145 23.991 34.071 23.976 33.833 23.837C33.595 23.697 34.285 23.749 34.507 23.708C34.51 23.708 34.512 23.708 34.515 23.708C34.272 23.563 34.08 23.284 33.986 22.787C33.817 21.894 33.946 21.21 33.986 20.63C34.017 20.175 33.973 19.084 34.179 18.595C33.933 18.665 33.594 18.525 33.624 18.443C33.658 18.352 34.145 18.08 34.338 18.155C34.457 17.927 34.751 17.847 35.097 17.907C35.117 17.91 35.125 17.93 35.143 17.936C35.44 17.871 35.781 17.824 35.871 17.832C36.035 17.846 36.025 17.811 35.98 17.886C35.964 17.913 35.49 17.977 35.484 18.024C35.471 18.107 35.902 18.055 35.975 18.115C36.024 18.155 35.495 18.15 35.585 18.216C35.704 18.305 36.154 18.507 36.022 18.457C35.934 18.424 35.705 18.398 35.459 18.367C35.499 18.578 35.49 18.813 35.483 18.964C35.468 19.276 36.16 19.202 36.164 20.883C36.168 22.564 35.692 23.517 35.825 23.755C35.959 23.993 36.569 24.306 36.227 24.365L36.226 24.364Z" fill="#261B64"/>
<path d="M33.9615 27.1611C33.8445 27.2941 33.7575 27.4431 33.6875 27.5941C33.8525 27.5461 34.0565 27.4901 34.2635 27.4401C34.1715 27.3491 34.0775 27.2571 33.9615 27.1611Z" fill="#261B64"/>
<path d="M10.941 15.3569L4.042 18.7849H4.813L11.123 15.6499V18.7849H11.813V15.3069V14.6709H8.466H2.5V15.3569H7.086L2.5 17.6359V18.7849L9.399 15.3569H10.941Z" fill="#E3E7EA"/>
<path d="M13.8828 12.614H17.2318H23.1978V11.928H18.6118L23.1968 9.649V8.5L16.2978 11.928H14.7548L21.6538 8.5H20.8828L14.5728 11.635V8.5H13.8828V11.978V12.614Z" fill="#E3E7EA"/>
<path d="M11.813 11.978V8.5H11.123V11.635L5.253 8.719H5.251C5.245 8.719 5.24 8.723 5.235 8.725C5.048 8.787 4.868 8.864 4.695 8.951C4.662 8.968 4.63 8.987 4.597 9.004C4.435 9.091 4.278 9.186 4.131 9.295C4.127 9.298 4.121 9.301 4.117 9.304L9.4 11.93H7.857L3.568 9.798C3.488 9.884 3.416 9.976 3.344 10.069H3.346L7.086 11.929H2.5V12.615H11.813V11.98V11.978Z" fill="#E3E7EA"/>
<path d="M13.8828 14.6709V15.3069V18.7849H14.5728V15.6499L20.8828 18.7849H23.1968L16.2978 15.3569H17.8398L23.1968 18.0189V17.6359L18.6108 15.3569H23.1978V14.6709H17.2308H13.8828Z" fill="#E3E7EA"/>
<path d="M11.813 14.671V15.307V18.785H13.883V15.307V14.671H17.231H23.198V12.614H17.232H13.883V11.978V8.5H11.813V11.978V12.613V12.614H8.464H2.5V14.671H8.466H11.813Z" fill="#CC001C"/>
<path d="M10.941 15.3574H9.399L2.5 18.7854H4.042L10.941 15.3574Z" fill="#CC001C"/>
<path d="M7.85641 11.9278H9.39941L4.11641 9.30176C4.10241 9.31176 4.09141 9.32576 4.07741 9.33676C3.89941 9.47276 3.73141 9.62076 3.57741 9.78576C3.57441 9.78976 3.56941 9.79276 3.56641 9.79576L7.85641 11.9278Z" fill="#CC001C"/>
<path d="M16.2988 15.3574L23.1978 18.7854H23.1988V18.0194H23.1978L17.8408 15.3574H16.2988Z" fill="#CC001C"/>
<path d="M16.2989 11.928L23.1979 8.5H21.6549L14.7559 11.928H16.2989Z" fill="#CC001C"/>
<path d="M31.1402 12.6251C31.4232 12.4611 31.4822 12.1201 31.3482 11.8661C31.2142 11.6131 30.8962 11.5241 30.9732 11.7621C31.0502 12.0001 31.1342 12.2921 30.9732 12.3171C30.8122 12.3421 30.8572 12.0001 30.7082 12.0151C30.5602 12.0301 30.8572 12.5661 30.7082 12.5811C30.5602 12.5961 30.6042 12.1051 30.4402 12.1641C30.2762 12.2231 30.3062 12.6551 30.4402 12.6851C30.5332 12.7061 30.4882 12.8041 30.4212 12.8971C30.4872 12.9151 30.5552 12.9321 30.6132 12.9541C30.7402 12.8651 30.9052 12.7611 31.1392 12.6251H31.1402Z" fill="#CDAD57"/>
<path d="M29.8576 12.6851C29.9916 12.6551 30.0216 12.2231 29.8576 12.1641C29.6936 12.1051 29.7386 12.5961 29.5896 12.5811C29.4406 12.5661 29.7376 12.0311 29.5896 12.0151C29.4406 12.0001 29.4856 12.3421 29.3246 12.3171C29.1636 12.2921 29.2476 12.0001 29.3246 11.7621C29.4026 11.5241 29.0846 11.6131 28.9506 11.8661C28.8176 12.1191 28.8766 12.4611 29.1596 12.6251C29.3626 12.7431 29.5096 12.8341 29.6306 12.9171C29.6976 12.8901 29.7706 12.8711 29.8516 12.8571C29.8016 12.7781 29.7786 12.7031 29.8576 12.6851Z" fill="#CDAD57"/>
<path d="M30.3007 15.452C30.3417 15.44 30.3737 15.466 30.4037 15.502C30.4637 15.315 30.4817 15.029 30.4947 14.778C30.5147 14.401 30.7117 14.838 30.6927 15.115C30.6857 15.212 30.6877 15.318 30.6947 15.417C30.7367 15.374 30.7857 15.338 30.8587 15.333C30.9087 15.33 30.9437 15.342 30.9717 15.36C30.9887 15.183 30.9797 14.974 30.9907 14.817C31.0107 14.539 31.4667 14.5 31.4867 14.678C31.4987 14.789 31.3967 15.137 31.3657 15.375C31.3957 15.355 31.4257 15.334 31.4657 15.333C31.5347 15.331 31.5837 15.364 31.6267 15.407C31.7307 15.229 31.8147 14.98 31.8657 14.817C31.9457 14.559 32.1047 14.916 32.0447 15.174C32.0217 15.272 32.0147 15.373 32.0167 15.466C32.0447 15.451 32.0777 15.443 32.1207 15.452C32.1967 15.467 32.2257 15.563 32.2477 15.678C32.2957 15.558 32.3427 15.305 32.4217 14.797C32.5597 13.905 31.9457 13.726 31.2117 13.726C30.4777 13.726 30.4177 13.34 30.4177 13.34C30.4177 13.34 30.8547 13.25 30.8937 13.151C30.9137 13.101 30.7927 13.022 30.6177 12.954C30.5607 12.932 30.4917 12.915 30.4257 12.897C30.2927 12.861 30.1527 12.833 30.0207 12.833C29.9607 12.833 29.9087 12.847 29.8537 12.856C29.7727 12.87 29.6997 12.889 29.6327 12.916C29.4447 12.992 29.3107 13.1 29.2857 13.15C29.2457 13.23 29.4837 13.388 29.7417 13.289C29.9997 13.19 30.1067 13.513 30.0197 13.844C29.9207 14.221 30.1587 14.599 30.2177 14.916C30.2547 15.116 30.2037 15.383 30.2017 15.546C30.2327 15.497 30.2647 15.462 30.3007 15.452Z" fill="#923F00"/>
<path d="M28.9373 17.2973C28.9373 17.2973 28.5503 16.9693 28.0723 16.8293C28.0703 17.1253 28.4463 17.9773 29.0133 18.2503C29.1093 18.2973 29.2113 18.3233 29.3183 18.3303C29.3303 18.3303 29.3413 18.3333 29.3533 18.3333C29.3833 18.3333 29.4113 18.3443 29.4423 18.3413C29.4423 18.3393 29.4443 18.3363 29.4453 18.3343C29.4963 18.0953 29.7133 17.8213 29.9193 18.1173C30.0533 17.8483 29.9693 17.4833 29.5323 17.4623C29.6653 17.0763 29.5613 16.2423 29.1643 15.9443C29.1633 15.9473 29.1623 15.9523 29.1613 15.9553C29.1273 16.0523 29.0893 16.2423 29.0553 16.4503C28.9903 16.8443 28.9373 17.2973 28.9373 17.2973Z" fill="#1500FF"/>
<path d="M32.9944 18.3334C33.0064 18.3334 33.0174 18.3314 33.0294 18.3304C33.1364 18.3234 33.2374 18.2974 33.3344 18.2504C33.9014 17.9774 34.2784 17.1254 34.2764 16.8294C33.7974 16.9694 33.4114 17.2974 33.4114 17.2974C33.4114 17.2974 33.3584 16.8424 33.2934 16.4494C33.2594 16.2404 33.2214 16.0504 33.1874 15.9534C33.1874 15.9514 33.1854 15.9464 33.1844 15.9434C32.7864 16.2414 32.6824 17.0744 32.8164 17.4614C32.3794 17.4824 32.2954 17.8484 32.4294 18.1164C32.6344 17.8204 32.8514 18.0944 32.9024 18.3334C32.9024 18.3354 32.9044 18.3384 32.9054 18.3404C32.9364 18.3434 32.9644 18.3344 32.9944 18.3334Z" fill="#1500FF"/>
<path d="M31.1834 17.8615C31.1834 17.8615 32.4864 16.9525 32.6194 16.9875C32.6064 16.9665 32.6054 16.9425 32.5804 16.9245C32.7294 16.7015 32.4764 16.3295 32.3574 16.1365C32.2884 16.0245 32.2764 15.8325 32.2464 15.6775C32.2244 15.5635 32.1944 15.4665 32.1194 15.4515C32.0774 15.4425 32.0444 15.4515 32.0154 15.4655C31.9244 15.5125 31.8904 15.6415 31.8224 15.6305C31.7624 15.6205 31.7134 15.4905 31.6264 15.4065C31.5834 15.3645 31.5344 15.3305 31.4654 15.3325C31.4254 15.3335 31.3954 15.3545 31.3654 15.3745C31.2384 15.4595 31.1834 15.6625 31.1234 15.6145C31.0664 15.5685 31.0674 15.4185 30.9724 15.3585C30.9444 15.3405 30.9094 15.3285 30.8594 15.3315C30.7874 15.3365 30.7374 15.3725 30.6954 15.4155C30.6104 15.5035 30.5734 15.6345 30.5434 15.6735C30.5124 15.7145 30.4694 15.5795 30.4034 15.5005C30.3734 15.4655 30.3414 15.4385 30.3004 15.4505C30.2644 15.4605 30.2324 15.4975 30.2014 15.5455C30.1224 15.6715 30.0594 15.9025 29.9994 16.1495C29.9164 16.4915 29.6354 16.6255 29.8144 16.9225C29.7784 16.9675 29.7704 17.0255 29.7774 17.0905C29.8234 16.9295 31.1824 17.8605 31.1824 17.8605L31.1834 17.8615Z" fill="#656263"/>
<path d="M30.4425 18.4658C30.4445 18.6368 30.4215 18.7858 30.3665 18.8288C30.2325 18.9328 29.8165 18.7248 29.6975 19.1118C29.6455 19.2818 29.7065 19.4848 29.8895 19.6608C30.3635 19.6608 30.9295 19.6848 31.3075 19.9158C31.6735 19.6908 32.2195 19.6628 32.6855 19.6618C32.9705 19.3938 32.9625 19.0718 32.8785 18.9508C32.7295 18.7268 32.1055 19.0988 31.9415 18.7428C31.9095 18.6468 31.9085 18.5558 31.9035 18.4648C31.8945 18.2698 31.9325 18.0928 32.0065 17.9398C32.0905 17.7668 32.2035 17.6218 32.3135 17.5378C32.5265 17.3748 32.7015 17.1628 32.6325 17.0098C32.5715 17.1858 31.1845 18.1168 31.1845 18.1168C31.1845 18.1168 29.7725 17.2818 29.7825 17.1028C29.8075 17.2768 29.9645 17.5068 30.1885 17.7308C30.2505 17.7928 30.2905 17.8758 30.3295 17.9588C30.4075 18.1258 30.4415 18.3038 30.4445 18.4698L30.4425 18.4658Z" fill="#656263"/>
<path d="M31.1824 18.114C31.1824 18.114 32.5694 17.183 32.6304 17.007C32.6324 17.002 32.6434 16.992 32.6424 16.988C32.6424 16.982 32.6244 16.988 32.6184 16.988C32.4854 16.953 31.1824 17.862 31.1824 17.862C31.1824 17.862 29.8234 16.931 29.7774 17.092H29.7754C29.7754 17.094 29.7794 17.099 29.7794 17.099C29.7704 17.278 31.1814 18.113 31.1814 18.113L31.1824 18.114Z" fill="#ADB0B2"/>
<path d="M32.318 20.8552L32.553 21.1612L32.201 21.6192L32.096 21.4822L31.516 23.1122L31.648 23.2842L31.309 23.7252L30.97 23.2842L31.095 23.1212L30.516 21.4922L30.43 21.6042L30.09 21.1622L30.301 20.8882L29.864 19.6612H29.626L29.924 20.0492L29.502 20.5972V20.6312L29.91 21.1612L29.502 21.6912V21.7252L29.895 22.2362L29.641 22.5662C29.725 22.8182 29.856 23.0882 30.061 23.3472L30.429 22.8682L30.748 23.2812L30.418 23.7092C30.606 23.8692 30.84 24.0112 31.112 24.1342L31.309 23.8782L31.503 24.1302C31.774 24.0062 32.008 23.8642 32.196 23.7042L31.869 23.2802L32.199 22.8512L32.565 23.3262C32.77 23.0612 32.894 22.7872 32.975 22.5332L32.745 22.2342L33.105 21.7662V21.6452L32.73 21.1592L33.105 20.6722V20.5512V20.5502L32.717 20.0472L33.015 19.6602L32.742 19.6582L32.317 20.8542L32.318 20.8552ZM30.43 22.6582L30.104 22.2352L30.43 21.8122L30.756 22.2352L30.43 22.6582ZM32.201 22.6742L31.864 22.2352L32.201 21.7962L32.538 22.2352L32.201 22.6742Z" fill="#1E5AA6"/>
<path d="M31.3047 24.2293C31.2337 24.2023 31.1777 24.1663 31.1127 24.1363C30.8407 24.0133 30.6067 23.8713 30.4187 23.7113C30.3817 23.6793 30.3567 23.6443 30.3217 23.6123C30.1597 23.8663 30.3017 24.0993 30.3017 24.0993C30.3017 24.0993 30.3887 24.6553 30.4317 24.5953C30.4757 24.5363 30.7167 24.3373 30.7167 24.3373C30.7167 24.3373 30.6747 24.7813 30.6817 24.7633C30.6887 24.7453 30.9757 24.7633 30.9757 24.7633C30.9757 24.7633 31.0807 25.1523 31.1247 25.2313C31.1687 25.3103 31.4177 25.0513 31.4177 25.0513C31.4177 25.0513 31.6557 25.2033 31.7597 25.2463C31.8637 25.2893 31.9037 24.9723 31.9037 24.9723C31.9037 24.9723 32.1857 25.3323 32.3667 25.2313C32.5477 25.1313 32.7757 24.8333 32.7757 24.8333L32.4387 24.5363C32.4387 24.5363 32.4977 24.4583 32.4387 24.3083C32.3797 24.1583 32.1617 24.0993 32.1617 24.0993C32.1617 24.0993 32.3797 23.9413 32.2207 23.8413C32.1987 23.8273 32.1657 23.7953 32.1277 23.7563C31.9517 23.8953 31.7457 24.0223 31.5037 24.1323C31.4357 24.1633 31.3787 24.2013 31.3047 24.2293Z" fill="#00713D"/>
<path d="M29.8882 19.6602C29.8812 19.6602 29.8722 19.6602 29.8652 19.6602L30.3022 20.8872L30.5172 21.4912L31.0962 23.1202L31.2992 23.6912C31.2992 23.7082 31.3102 23.7082 31.3102 23.6912L31.5162 23.1122L32.0962 21.4822L32.3192 20.8562L32.7442 19.6602C32.7252 19.6602 32.7042 19.6602 32.6842 19.6602C32.2182 19.6612 31.6732 19.6892 31.3062 19.9142C30.9282 19.6832 30.3622 19.6602 29.8882 19.6602Z" fill="#016C00"/>
<path d="M29.177 24.6006C29.073 24.5406 28.433 24.4216 28.151 24.2246C27.868 24.0276 27.749 23.6776 27.898 23.1986C28.047 22.7186 28.448 22.3396 28.448 22.3396C28.448 22.3396 28.567 22.4136 28.659 22.7416C28.751 23.0686 28.671 23.7676 28.775 23.6936C28.879 23.6186 29.027 23.2766 29.281 22.3246C29.533 21.3726 29.191 20.7626 28.953 20.2856C28.715 19.8086 28.417 19.2436 28.462 19.1546C28.506 19.0646 28.699 18.7376 28.759 18.4856C28.819 18.2336 28.7 18.2036 28.491 18.1886C28.283 18.1746 28.164 17.9656 27.911 18.0406C27.658 18.1146 27.331 18.1146 27.345 18.4876C27.359 18.8606 27.2 19.3356 27.166 20.2886C27.156 20.5736 26.779 21.3596 26.676 21.4926C26.572 21.6266 26.26 21.7606 26.096 22.1616C25.798 22.8956 26.32 23.5606 26.702 23.9666C27.085 24.3726 28.106 24.7356 28.537 24.7656C28.968 24.7956 29.281 24.6596 29.177 24.6006Z" fill="#8B9497"/>
<path d="M29.3537 18.3331C29.3417 18.3321 29.3307 18.3321 29.3187 18.3301C29.2117 18.3231 29.1107 18.2971 29.0137 18.2501C29.3337 19.0001 30.0767 18.7121 30.4417 18.4651C30.4397 18.2991 30.4047 18.1211 30.3267 17.9541C30.1787 18.1081 29.8737 18.3421 29.4447 18.3321C29.4447 18.3341 29.4427 18.3371 29.4417 18.3391C29.4107 18.3421 29.3827 18.3321 29.3527 18.3311L29.3537 18.3331Z" fill="white"/>
<path d="M28.4311 16.24C28.1191 16.552 28.4161 16.821 28.7141 16.873C28.5921 16.575 28.8871 16.363 29.0551 16.45C29.0891 16.242 29.1261 16.052 29.1611 15.955C28.7321 15.013 28.0001 14.917 28.0001 14.917C28.0001 14.917 27.9551 15.303 28.1491 15.579C27.5111 15.52 26.8851 15.23 26.8851 15.23C26.7061 15.736 27.7781 16.272 28.4321 16.241L28.4311 16.24Z" fill="white"/>
<path d="M31.9007 18.4625C32.2637 18.7105 33.0127 19.0045 33.3337 18.2505C33.2377 18.2975 33.1357 18.3235 33.0287 18.3305C33.0167 18.3325 33.0057 18.3325 32.9937 18.3335C32.9637 18.3335 32.9357 18.3445 32.9047 18.3415C32.9047 18.3395 32.9027 18.3365 32.9017 18.3345C32.4557 18.3445 32.1437 18.0905 32.0027 17.9385C31.9287 18.0915 31.8907 18.2685 31.8997 18.4635L31.9007 18.4625Z" fill="white"/>
<path d="M33.6325 16.873C33.9305 16.821 34.2275 16.552 33.9155 16.24C34.5695 16.271 35.6415 15.734 35.4625 15.229C35.4625 15.229 34.8365 15.519 34.1985 15.578C34.3915 15.303 34.3465 14.916 34.3465 14.916C34.3465 14.916 33.6145 15.012 33.1855 15.953C33.2195 16.05 33.2575 16.24 33.2915 16.449C33.4605 16.363 33.7535 16.575 33.6325 16.873Z" fill="white"/>
<path d="M31.8705 23.2825L32.1975 23.7065C32.0085 23.8665 31.7755 24.0085 31.5045 24.1325L31.3105 23.8805L31.1135 24.1365C30.8415 24.0135 30.6075 23.8715 30.4195 23.7115L30.7495 23.2835L30.4305 22.8705L30.0625 23.3495C30.1355 23.4415 30.2295 23.5275 30.3225 23.6145C30.3575 23.6465 30.3825 23.6815 30.4195 23.7135C30.6075 23.8735 30.8415 24.0155 31.1135 24.1385C31.1795 24.1685 31.2345 24.2045 31.3055 24.2315C31.3795 24.2035 31.4365 24.1665 31.5045 24.1355C31.7465 24.0255 31.9515 23.8985 32.1285 23.7595C32.1505 23.7425 32.1775 23.7275 32.1975 23.7095C32.3395 23.5885 32.4655 23.4615 32.5665 23.3305L32.2005 22.8555L31.8705 23.2845V23.2825Z" fill="white"/>
<path d="M33.1065 21.6468V20.6748L32.7305 21.1608L33.1065 21.6468Z" fill="white"/>
<path d="M32.9751 22.5346C33.0871 22.2326 33.1041 21.9516 33.1041 21.7736V21.7686L32.7441 22.2366L32.9741 22.5356L32.9751 22.5346Z" fill="white"/>
<path d="M29.502 21.7256V21.7746C29.502 21.9586 29.534 22.2476 29.641 22.5676L29.895 22.2376L29.502 21.7256Z" fill="white"/>
<path d="M30.4295 21.8135L30.1035 22.2365L30.4295 22.6595L30.7555 22.2365L30.4295 21.8135Z" fill="white"/>
<path d="M32.5527 21.1615L32.3177 20.8555L32.0957 21.4825L32.2007 21.6195L32.5527 21.1615Z" fill="white"/>
<path d="M31.8633 22.2359L32.2003 22.6749L32.5373 22.2359L32.2003 21.7969L31.8633 22.2359Z" fill="white"/>
<path d="M32.7188 20.0492L33.1067 20.5522V19.6602L33.0157 19.6612H33.0167L32.7188 20.0492Z" fill="white"/>
<path d="M30.4298 21.6027L30.5158 21.4907L30.3008 20.8867L30.0898 21.1607L30.4298 21.6027Z" fill="white"/>
<path d="M29.626 19.6602L29.502 19.6612V20.5962L29.923 20.0482L29.626 19.6602Z" fill="white"/>
<path d="M29.502 20.6309V21.6909L29.91 21.1609L29.502 20.6309Z" fill="white"/>
<path d="M30.9688 23.2833L31.3078 23.7243L31.6468 23.2833L31.5148 23.1113L31.3088 23.6903C31.3088 23.7073 31.2978 23.7073 31.2978 23.6903L31.0948 23.1193L30.9698 23.2823L30.9688 23.2833Z" fill="white"/>
<path d="M35.0162 23.8352C35.0232 23.8352 35.0302 23.8352 35.0372 23.8352C35.0032 23.6512 35.2092 23.3203 35.3012 22.9373C35.4222 22.4313 35.3622 21.8793 35.1102 21.9473C34.8572 22.0153 35.2142 23.2423 34.7982 23.2013C34.3812 23.1603 34.1582 22.2403 34.2032 21.3993C34.2482 20.5573 34.4122 20.4972 34.6502 20.2302C34.8882 19.9632 34.7392 19.8433 34.4862 19.5613C34.2332 19.2783 34.3222 19.0553 34.5902 18.9062C34.8202 18.7782 34.4062 18.8332 34.3012 18.5312C34.2652 18.5612 34.2242 18.5833 34.1782 18.5963C33.9722 19.0863 34.0162 20.1773 33.9852 20.6313C33.9452 21.2123 33.8162 21.8952 33.9852 22.7882C34.0792 23.2842 34.2712 23.5642 34.5142 23.7092C34.7372 23.6712 34.8982 23.7462 35.0172 23.8372L35.0162 23.8352Z" fill="white"/>
<path d="M35.825 23.7539C35.692 23.5159 36.168 22.5639 36.164 20.8819C36.16 19.2009 35.468 19.2749 35.483 18.9629C35.49 18.8119 35.499 18.5769 35.459 18.3659C35.061 18.3149 34.62 18.2489 34.665 18.1149C34.685 18.0549 34.9 17.9899 35.143 17.9359C35.125 17.9299 35.117 17.9109 35.097 17.9069C34.751 17.8469 34.457 17.9269 34.338 18.1549C34.399 18.1789 34.433 18.2349 34.412 18.3449C34.396 18.4309 34.353 18.4859 34.301 18.5289C34.406 18.8309 34.819 18.7759 34.59 18.9039C34.322 19.0529 34.233 19.2759 34.486 19.5589C34.739 19.8419 34.888 19.9609 34.65 20.2279C34.412 20.4949 34.248 20.5549 34.203 21.3969C34.158 22.2389 34.381 23.1579 34.798 23.1989C35.214 23.2399 34.857 22.0119 35.11 21.9449C35.362 21.8769 35.422 22.4299 35.301 22.9349C35.209 23.3179 35.002 23.6489 35.037 23.8329C35.039 23.8409 35.044 23.8469 35.047 23.8549C35.089 23.8899 35.126 23.9269 35.156 23.9589V23.9619C35.454 24.0669 35.884 24.4229 36.225 24.3629C36.567 24.3029 35.957 23.9909 35.823 23.7529L35.825 23.7539Z" fill="black"/>
<path d="M35.4593 18.366C35.7053 18.398 35.9343 18.424 36.0223 18.456C36.1543 18.506 35.7043 18.304 35.5853 18.215C35.4953 18.149 36.0243 18.154 35.9753 18.114C35.9023 18.054 35.4703 18.106 35.4843 18.023C35.4903 17.976 35.9643 17.912 35.9803 17.885C36.0253 17.81 36.0343 17.845 35.8713 17.831C35.7813 17.823 35.4403 17.87 35.1433 17.935C34.9003 17.988 34.6853 18.054 34.6653 18.114C34.6203 18.248 35.0613 18.315 35.4593 18.366Z" fill="#F8F001"/>
<path d="M34.4111 18.3445C34.4321 18.2345 34.3981 18.1775 34.3371 18.1545C34.1431 18.0795 33.6571 18.3515 33.6231 18.4425C33.5921 18.5245 33.9321 18.6635 34.1781 18.5945C34.2241 18.5815 34.2651 18.5595 34.3011 18.5295C34.3531 18.4865 34.3961 18.4315 34.4121 18.3455L34.4111 18.3445Z" fill="#F66B01"/>
<path d="M35.0465 23.8554C35.0375 23.8474 35.0245 23.8414 35.0155 23.8344C34.8975 23.7434 34.7365 23.6684 34.5125 23.7064C34.5095 23.7064 34.5075 23.7064 34.5045 23.7064C34.2825 23.7474 33.5925 23.6964 33.8305 23.8354C34.0685 23.9744 34.1425 23.9894 34.1425 23.9894C34.1425 23.9894 33.7155 24.1454 33.8985 24.2234C34.0825 24.3014 34.5055 24.2534 34.7845 24.2474C35.0625 24.2414 35.2655 24.0874 35.1545 23.9614V23.9584C35.1245 23.9254 35.0885 23.8894 35.0455 23.8544L35.0465 23.8554Z" fill="#F66B01"/>
<path d="M35.0403 25.3379C35.0403 25.3379 35.0403 25.3429 35.0403 25.3469C35.1633 25.4499 35.2033 25.6149 35.1073 25.8069C34.9883 26.0439 34.8403 26.1219 34.6562 26.2529C34.7032 26.3069 34.7422 26.3589 34.8092 26.4169C35.2262 26.7739 35.7023 26.7439 35.6723 26.3429C35.2703 26.2389 35.3753 25.4419 35.0413 25.3389L35.0403 25.3379Z" fill="#C11600"/>
<path d="M27.7256 25.8069C27.6296 25.6159 27.6686 25.4519 27.7906 25.3479C27.7906 25.3439 27.7906 25.3419 27.7906 25.3379C27.4566 25.4409 27.5616 26.2379 27.1596 26.3419C27.1296 26.7439 27.6056 26.7729 28.0226 26.4159C28.0896 26.3579 28.1296 26.3059 28.1766 26.2509C27.9936 26.1199 27.8456 26.0429 27.7266 25.8059L27.7256 25.8069Z" fill="#C11600"/>
<path d="M33.4424 28.6632V28.6622L33.4414 28.6572L33.4424 28.6632Z" fill="#C11600"/>
<path d="M34.2664 27.4385C34.0584 27.4895 33.8544 27.5445 33.6904 27.5925C33.4484 28.1135 33.4434 28.6555 33.4434 28.6605C33.4474 28.6535 33.6774 28.3325 34.8414 28.1265V28.1255C34.8394 28.1225 34.6464 27.8135 34.2664 27.4385Z" fill="#C11600"/>
<path d="M28.5691 27.4395C28.1871 27.8165 27.9941 28.1275 27.9941 28.1275C29.1701 28.3355 29.3931 28.6625 29.3931 28.6625V28.6545C29.3931 28.6225 29.3831 28.1005 29.1471 27.5935C28.9821 27.5455 28.7781 27.4895 28.5701 27.4385L28.5691 27.4395Z" fill="#C11600"/>
<path d="M35.1073 25.8074C35.2033 25.6154 35.1633 25.4504 35.0403 25.3474C34.9343 25.2584 34.7703 25.2134 34.5573 25.2524C34.0963 25.3374 33.6203 26.0754 33.6203 26.0754C33.6203 26.0754 32.7433 25.5544 31.4173 25.5544C30.0913 25.5544 29.2133 26.0754 29.2133 26.0754C29.2133 26.0754 28.7373 25.3374 28.2763 25.2524C28.0623 25.2134 27.8963 25.2584 27.7913 25.3484C27.6693 25.4524 27.6303 25.6164 27.7263 25.8074C27.8443 26.0434 27.9933 26.1214 28.1763 26.2524C28.2703 26.3194 28.3693 26.3964 28.4853 26.5214C27.9353 26.8934 27.4883 27.6374 27.4883 27.6374L27.9933 28.1274C27.9933 28.1274 28.1863 27.8174 28.5683 27.4404C28.6603 27.3494 28.7553 27.2564 28.8713 27.1614C28.9883 27.2944 29.0753 27.4444 29.1453 27.5954C29.3813 28.1024 29.3913 28.6244 29.3913 28.6564V28.6644C29.3913 28.6644 29.5473 28.0244 29.7893 27.8164C29.7783 27.2364 29.6143 26.8054 29.6143 26.8054C29.6143 26.8054 30.3913 26.3294 31.4163 26.3294C32.4413 26.3294 33.2183 26.8054 33.2183 26.8054C33.2183 26.8054 33.0543 27.2364 33.0433 27.8164C33.2793 28.0194 33.4323 28.6284 33.4403 28.6594V28.6644H33.4413C33.4413 28.6584 33.4453 28.1154 33.6883 27.5954C33.7583 27.4444 33.8453 27.2954 33.9623 27.1624C34.0783 27.2574 34.1723 27.3504 34.2643 27.4414C34.6443 27.8164 34.8373 28.1254 34.8393 28.1284L35.3453 27.6384C35.3453 27.6384 34.8973 26.8934 34.3473 26.5224C34.4623 26.3974 34.5623 26.3204 34.6553 26.2544C34.8393 26.1234 34.9873 26.0454 35.1063 25.8084L35.1073 25.8074Z" fill="#FFBC00"/>
</svg>
