<svg width="41" height="41" viewBox="0 0 41 41" fill="none" xmlns="http://www.w3.org/2000/svg">
<path d="M6.5 8.5C4.291 8.5 2.5 10.291 2.5 12.5V28.5C2.5 30.709 4.291 32.5 6.5 32.5H14.136V8.5H6.5Z" fill="#80C4E1"/>
<path d="M34.4993 8.5H26.8633V32.5H34.4993C36.7083 32.5 38.4993 30.709 38.4993 28.5V12.5C38.4993 10.291 36.7083 8.5 34.4993 8.5Z" fill="#80C4E1"/>
<path d="M18.645 23.8396L18.586 23.8096C18.574 23.8096 18.561 23.8126 18.549 23.8126L18.502 23.8506C18.552 23.8506 18.593 23.8376 18.645 23.8396Z" fill="#E3E7EA"/>
<path d="M18.1309 23.8821C18.2319 23.8561 18.3519 23.8591 18.4679 23.8551C18.4529 23.8471 18.4289 23.8381 18.3929 23.8281C18.3109 23.8431 18.2259 23.8631 18.1309 23.8821Z" fill="#E3E7EA"/>
<path d="M22.4179 17.9561L22.2559 18.1181C22.6049 18.6281 22.9309 19.2821 22.9809 19.9711C23.0279 20.6291 22.8949 21.1451 22.7069 21.5691C22.7749 21.6311 22.8289 21.6821 22.8489 21.7021C22.9419 21.7951 23.0349 22.1931 23.0369 22.1991L23.0529 22.1861C23.0529 22.1861 23.0949 22.2321 23.1479 22.2901C23.1549 22.2751 23.1649 22.2661 23.1719 22.2491C23.2809 21.9731 23.3509 22.0981 23.3259 22.3531C23.3219 22.3921 23.3129 22.4301 23.3049 22.4681C23.3109 22.4751 23.3229 22.4811 23.3299 22.4881C23.3909 22.4341 23.4569 22.3781 23.5429 22.3201C23.5729 22.3001 23.5899 22.2931 23.6129 22.2801C23.5749 22.1141 23.5489 21.9181 23.6739 21.6401C23.7829 21.3991 23.8339 21.4331 23.7929 21.6281C23.7589 21.8001 24.1309 21.9701 23.8229 22.5391L23.8469 22.5071C23.9869 22.2951 23.9659 22.0181 23.9239 21.8741C23.7839 21.3811 24.0009 21.2791 23.9809 21.0221C23.9649 20.7551 24.0159 20.6541 24.1899 21.0051L24.1939 21.0171C24.1769 20.9031 24.1569 20.7951 24.1369 20.7081C24.0509 20.3361 24.1109 20.2781 24.2849 20.4791C24.4109 20.6251 24.5639 20.8121 24.5489 21.1431C24.5629 21.0921 24.5749 21.0411 24.5869 20.9881C24.6729 20.4131 24.2509 20.7191 24.1359 19.8281C24.1109 19.6391 24.0339 19.5141 24.3409 19.7311C24.3489 19.7361 24.3539 19.7451 24.3609 19.7501C24.3319 19.6271 24.3019 19.5081 24.2469 19.3801C24.1359 19.3381 24.0159 19.2691 23.9019 19.1041C23.8379 19.0121 23.8149 18.9241 23.8129 18.8611C23.6519 18.7511 23.5189 18.5841 23.4839 18.2711C23.4449 17.9101 23.5249 17.9441 23.7299 18.2471C23.7729 18.3111 23.8309 18.3551 23.8949 18.3951C23.8099 18.2871 23.7309 18.1531 23.6669 17.9731C23.6149 17.8271 23.6069 17.7571 23.6249 17.7371C23.4829 17.6651 23.3659 17.5421 23.2709 17.3721L22.6149 18.0551L22.4179 17.9561Z" fill="#E3E7EA"/>
<path d="M18.998 23.4863C19.057 23.6273 19.17 23.7963 19.405 23.8843C19.253 23.7743 19.144 23.6353 19.059 23.4923C19.028 23.4903 19.014 23.4923 18.998 23.4863Z" fill="#E3E7EA"/>
<path d="M18.7616 23.6872C18.7516 23.6792 18.7476 23.6682 18.7386 23.6602L18.7246 23.6712L18.7616 23.6872Z" fill="#E3E7EA"/>
<path d="M21.0117 24.0787L20.9597 24.0887C21.0247 24.0597 21.0707 24.0357 21.1187 24.0117C21.2197 23.7657 21.3768 23.4587 21.6108 23.0977C21.3508 23.4527 20.8627 23.9917 20.2188 24.2147C20.3048 24.2557 20.4048 24.2957 20.4748 24.3377C20.6248 24.2487 20.8047 24.1617 21.0117 24.0777V24.0787Z" fill="#E3E7EA"/>
<path d="M18.2815 23.6287L18.2195 23.5897L18.2295 23.6007C18.1105 23.5337 18.0185 23.5157 17.9395 23.5127C18.0605 23.5497 18.1685 23.5927 18.2705 23.6357C18.2705 23.6357 18.2705 23.6357 18.2715 23.6357C18.2735 23.6357 18.2785 23.6287 18.2815 23.6287Z" fill="#E3E7EA"/>
<path d="M17.3242 17.3157C17.4422 17.2587 17.5422 17.2257 17.6292 17.1767L17.4702 17.0117C17.4402 17.1027 17.4112 17.2027 17.3242 17.3157Z" fill="#E3E7EA"/>
<path d="M18.2774 22.8227C18.2314 22.4397 18.3274 22.4947 18.4564 22.7267C18.5224 22.8447 18.6194 22.8947 18.7184 22.9847C18.7844 22.9977 18.8464 23.0247 18.8464 23.0247L18.8934 23.1047L18.8984 23.0997C18.8844 23.0177 18.8814 22.9407 18.8924 22.8757C18.9144 22.7397 18.9784 22.6557 19.0384 22.8827C19.0444 22.9067 19.0574 22.9187 19.0654 22.9387C19.3284 22.6867 19.8034 22.2427 20.3464 21.7857C20.1444 21.6067 19.9734 21.4587 19.8374 21.3447C19.6224 21.3547 19.4384 21.3607 19.3174 21.3607C19.2994 21.3607 19.2904 21.3567 19.2734 21.3557L18.2994 22.3567L18.0684 22.2127L18.2694 22.3727C18.2694 22.3727 18.1464 22.4987 18.0774 22.6517C18.1684 22.7507 18.2614 22.8717 18.3324 23.1087C18.3824 23.2737 18.4284 23.3787 18.4754 23.4587C18.4904 23.4417 18.5054 23.4287 18.5194 23.4107C18.3944 23.2357 18.3014 23.0447 18.2754 22.8237L18.2774 22.8227Z" fill="#E3E7EA"/>
<path d="M20.9548 21.2949H20.7388C20.5508 21.3059 20.3588 21.3169 20.1758 21.3269C20.2998 21.4239 20.4228 21.5219 20.5448 21.6219C20.6798 21.5109 20.8168 21.4019 20.9548 21.2949Z" fill="#E3E7EA"/>
<path d="M17.3316 22.4727C17.3096 22.5807 17.3246 22.6817 17.3946 22.7897C17.4146 22.7707 17.4336 22.7557 17.4536 22.7387C17.4266 22.6597 17.3996 22.5837 17.3526 22.5097C17.3426 22.4937 17.3406 22.4867 17.3316 22.4727Z" fill="#E3E7EA"/>
<path d="M23.6489 22.4473L23.6269 22.4863C23.5899 22.5443 23.5689 22.6033 23.5469 22.6643C23.5679 22.6793 23.5889 22.7013 23.6099 22.7183C23.6529 22.6273 23.6669 22.5393 23.6489 22.4473Z" fill="#E3E7EA"/>
<path d="M22.7462 23.5801L22.7402 23.5841L22.7422 23.5851L22.7462 23.5801Z" fill="#E3E7EA"/>
<path d="M23.6547 17.2353C23.6107 17.1783 23.5827 17.1243 23.5607 17.0723L23.4727 17.1643C23.5307 17.1853 23.5877 17.2033 23.6547 17.2353Z" fill="#E3E7EA"/>
<path d="M23.0362 23.499C22.9562 23.502 22.8642 23.52 22.7422 23.585C22.7502 23.591 22.7562 23.594 22.7632 23.599C22.8502 23.564 22.9372 23.529 23.0362 23.499Z" fill="#E3E7EA"/>
<path d="M22.1992 23.6777L22.2272 23.6658C22.2572 23.6528 22.2822 23.6378 22.3082 23.6238L22.2722 23.5938C22.2442 23.6198 22.2312 23.6537 22.2002 23.6777H22.1992Z" fill="#E3E7EA"/>
<path d="M22.4688 22.0283C22.3018 22.3033 22.1338 22.5283 22.0078 22.7223C22.0338 22.7333 22.0548 22.7883 22.0658 22.8563C22.0718 22.8923 22.0638 22.9373 22.0628 22.9783C22.0988 23.0133 22.1298 23.0423 22.1548 23.0673C22.2828 22.9013 22.4218 22.8603 22.5078 22.7053C22.6388 22.4713 22.7348 22.4153 22.6898 22.8033C22.6658 22.9973 22.5978 23.1703 22.5008 23.3293C22.5108 23.3413 22.5198 23.3533 22.5308 23.3663C22.5638 23.2943 22.5968 23.2093 22.6318 23.0913C22.7228 22.7933 22.8438 22.6723 22.9568 22.5543C22.8908 22.4503 22.8178 22.3723 22.8178 22.3723L23.0218 22.2093L22.7878 22.3553L22.4688 22.0283Z" fill="#E3E7EA"/>
<path d="M21.544 23.8785C21.78 23.7925 21.895 23.6255 21.956 23.4835C21.936 23.4815 21.922 23.4835 21.899 23.4775C21.812 23.6235 21.7 23.7665 21.543 23.8775L21.544 23.8785Z" fill="#E3E7EA"/>
<path d="M22.3823 23.7984L22.3203 23.8294C22.4163 23.8254 22.4973 23.8454 22.5863 23.8514L22.5403 23.8134C22.4873 23.8054 22.4333 23.7954 22.3823 23.7984Z" fill="#E3E7EA"/>
<path d="M22.8591 23.875C22.7921 23.862 22.7331 23.848 22.6741 23.835C22.6491 23.843 22.6321 23.849 22.6211 23.855C22.7001 23.863 22.7881 23.855 22.8591 23.875Z" fill="#E3E7EA"/>
<path d="M18.8277 21.1661C18.7937 21.1011 18.7757 21.0281 18.7757 20.9391C18.7757 20.8511 18.8327 20.7541 18.9097 20.6671C18.5827 20.4511 18.3177 20.2901 18.3177 20.2901C18.5147 20.3081 18.7607 20.4071 19.0307 20.5531C19.1687 20.4641 19.3447 20.4281 19.5237 20.5291C19.5237 20.5291 19.5237 20.3631 19.3057 19.7401C19.0877 19.1171 18.6197 18.4471 18.5737 18.1511C18.5647 18.0981 18.5677 18.0541 18.5687 18.0091L18.4747 18.0561L17.7747 17.3281C17.6817 17.5811 17.5307 17.7241 17.3537 17.8141C17.3717 17.8341 17.3637 17.9041 17.3137 18.0481C17.2507 18.2261 17.1717 18.3571 17.0887 18.4641C17.1517 18.4251 17.2087 18.3811 17.2517 18.3181C17.4537 18.0191 17.5327 17.9861 17.4927 18.3411C17.4587 18.6501 17.3277 18.8161 17.1697 18.9251C17.1697 18.9881 17.1457 19.0741 17.0827 19.1661C16.9697 19.3291 16.8517 19.3971 16.7417 19.4391C16.6857 19.5661 16.6557 19.6841 16.6267 19.8061C16.6337 19.8011 16.6387 19.7921 16.6467 19.7871C16.9517 19.5721 16.8747 19.6961 16.8507 19.8831C16.7357 20.7631 16.3197 20.4631 16.4037 21.0291C16.4157 21.0821 16.4277 21.1341 16.4417 21.1851C16.4267 20.8581 16.5787 20.6731 16.7037 20.5281C16.8727 20.3291 16.9347 20.3861 16.8497 20.7541C16.8297 20.8401 16.8097 20.9471 16.7927 21.0611L16.7977 21.0471C16.9687 20.7001 17.0207 20.7991 17.0027 21.0641C16.9847 21.3181 17.1977 21.4191 17.0587 21.9051C17.0187 22.0511 16.9957 22.3291 17.1417 22.5401L17.1647 22.5701C16.8537 22.0021 17.2237 21.8351 17.1887 21.6621C17.1497 21.4711 17.1997 21.4381 17.3077 21.6741C17.4317 21.9491 17.4057 22.1441 17.3687 22.3081C17.3917 22.3211 17.4087 22.3281 17.4387 22.3481C17.5367 22.4141 17.6157 22.4781 17.6817 22.5401C17.6717 22.4871 17.6577 22.4351 17.6527 22.3811C17.6267 22.1291 17.6937 22.0071 17.8037 22.2791C17.8207 22.3221 17.8437 22.3481 17.8647 22.3811C17.9487 22.2851 18.0387 22.1871 18.0387 22.1871L18.0547 22.1991C18.0567 22.1911 18.1487 21.7941 18.2407 21.7021C18.2977 21.6461 18.5987 21.3731 18.8277 21.1661Z" fill="#E3E7EA"/>
<path d="M17.2713 17.8555C17.2113 17.8795 17.1503 17.9015 17.0873 17.9185C16.9253 17.9615 16.7963 18.1225 16.6973 18.2945C16.8693 18.1525 17.0543 18.1295 17.1663 17.9805C17.2083 17.9255 17.2423 17.8865 17.2713 17.8555Z" fill="#E3E7EA"/>
<path d="M14.1367 8.5V32.5H26.8647V8.5H14.1367ZM25.1247 20.978C25.2557 20.841 25.2717 20.995 25.1587 21.237C25.2827 21.251 25.4127 21.261 25.4937 21.23C25.5987 21.196 25.5987 21.349 25.3117 21.47C25.1807 21.525 24.9757 21.609 24.7787 21.706C24.6287 21.82 24.4767 21.895 24.3477 22.016C24.7467 21.722 25.0457 21.862 25.2667 21.733C25.5407 21.573 25.3917 21.824 25.3177 21.897C24.5417 22.673 24.4227 22.084 23.9917 22.499C24.0597 22.467 24.1327 22.444 24.2157 22.434C24.5577 22.395 24.6787 22.343 24.5027 22.56C24.2877 22.819 24.1117 22.945 23.9577 23.014C24.0587 23.014 24.1577 23.018 24.2467 23.037C24.4677 23.083 24.3927 23.123 24.2427 23.168C24.1977 23.182 24.1627 23.208 24.1237 23.228C24.2087 23.323 24.2747 23.408 24.2677 23.447C24.2517 23.54 24.1127 23.634 24.0507 23.758C23.9887 23.882 23.8477 23.914 23.7397 23.758C23.3867 23.906 23.1227 23.915 22.9117 23.88C23.0267 23.917 23.1317 23.967 23.2197 24.033C23.4027 24.168 23.3537 24.218 23.1977 24.194C22.9037 24.147 22.7197 24.235 22.4767 24.234C22.6247 24.342 22.7487 24.465 22.9707 24.53C23.1187 24.575 23.1657 24.658 22.9237 24.68C21.9967 24.759 21.7607 24.178 21.3177 24.184C21.2757 24.197 21.2357 24.214 21.1947 24.229C21.0397 24.529 20.9247 24.753 20.9247 24.753C20.9247 24.753 20.9247 24.592 21.0177 24.293C20.8997 24.343 20.7837 24.4 20.6717 24.475C20.7137 24.51 20.7667 24.545 20.7937 24.579C20.7827 24.681 20.5867 24.663 20.5637 24.72C20.5327 24.688 20.5017 24.665 20.4707 24.637C20.4397 24.665 20.4077 24.688 20.3777 24.72C20.3537 24.663 20.1177 24.714 20.1067 24.611C20.1417 24.568 20.2057 24.521 20.2657 24.475C20.0667 24.342 19.8567 24.26 19.6327 24.191C19.1947 24.185 18.9617 24.759 18.0447 24.681C17.8047 24.659 17.8527 24.577 17.9997 24.533C18.2187 24.468 18.3407 24.347 18.4867 24.24C18.2467 24.24 18.0657 24.153 17.7747 24.2C17.6207 24.225 17.5717 24.175 17.7517 24.042C17.8397 23.977 17.9427 23.927 18.0567 23.891C17.8627 23.923 17.6227 23.917 17.3077 23.798C17.2067 23.896 17.0927 23.865 17.0387 23.757C16.9777 23.633 16.8377 23.539 16.8217 23.446C16.8157 23.414 16.8627 23.35 16.9227 23.277C16.8657 23.242 16.8097 23.206 16.7417 23.186C16.5947 23.142 16.5197 23.102 16.7377 23.056C16.8267 23.038 16.9237 23.033 17.0237 23.034C16.8717 22.966 16.6987 22.842 16.4877 22.586C16.3107 22.372 16.4317 22.422 16.7707 22.461C16.8507 22.471 16.9217 22.494 16.9877 22.524C16.5647 22.118 16.4447 22.696 15.6807 21.931C15.6057 21.856 15.4587 21.61 15.7297 21.767C15.9477 21.894 16.2407 21.759 16.6297 22.039C16.5047 21.925 16.3597 21.851 16.2147 21.742C16.0187 21.646 15.8147 21.562 15.6857 21.508C15.4027 21.389 15.4027 21.236 15.5047 21.27C15.5867 21.297 15.7167 21.287 15.8387 21.273C15.7267 21.034 15.7417 20.881 15.8717 21.016C15.9857 21.135 16.1497 21.177 16.3567 21.324L16.3397 21.265C16.1587 20.924 15.7687 21.089 15.5377 20.542C15.4957 20.442 15.2897 20.333 15.5717 20.35C15.7747 20.362 16.0277 20.482 16.2117 20.741C16.0717 20.357 15.7327 20.555 15.5947 19.633C15.5697 19.463 15.5497 19.119 15.6627 19.401C15.7077 19.514 15.8157 19.627 15.9307 19.762C15.8927 19.572 15.9057 19.406 15.9447 19.28C15.8737 19.17 15.8097 19.057 15.7917 18.927C15.7607 18.702 15.8157 18.503 15.8997 18.74C15.9297 18.826 15.9857 18.881 16.0447 18.938C16.0667 18.859 16.0867 18.831 16.1477 18.938C16.1867 19.007 16.2067 19.097 16.2287 19.184L16.2327 19.195C16.2447 19.243 16.2597 19.288 16.2667 19.342L16.2697 19.356C16.2847 19.273 16.3037 19.191 16.3227 19.109C16.2787 18.8 15.8027 18.809 15.9667 17.813C16.0067 17.572 16.0227 17.501 16.1087 17.801C16.1857 18.079 16.4307 18.101 16.4457 18.652L16.4657 18.589C16.5167 18.058 16.1547 17.613 16.4297 17.158C16.5757 16.915 16.6527 16.893 16.6367 17.09C16.6187 17.321 16.7577 17.565 16.7317 17.901L16.7427 17.876C16.7977 17.466 16.6517 17.341 16.8197 17.073C16.9037 16.938 17.0347 16.757 17.0007 16.983C16.9937 17.028 16.9897 17.082 16.9847 17.137C17.0197 16.985 17.1307 16.882 17.2657 16.798L16.9607 16.481L17.3097 16.775C17.3717 16.742 17.4247 16.701 17.4967 16.678C17.7377 16.6 17.6627 16.714 17.5747 16.808C17.5387 16.847 17.5157 16.89 17.4977 16.934L17.7147 17.118C17.7217 17.111 17.7317 17.11 17.7387 17.102C17.8907 16.914 17.8597 17.064 17.8177 17.205L18.4727 17.758L18.7297 17.698V17.7C18.7707 17.681 18.8147 17.668 18.8677 17.664C19.2537 17.642 20.2537 17.669 20.8427 17.667C20.6627 17.625 20.4737 17.561 20.3487 17.46C19.8647 17.071 20.2387 16.588 20.2387 16.588C20.0517 16.416 20.3117 16.229 20.5017 16.245C20.6897 16.261 20.7837 16.369 20.5817 16.588C20.5817 16.588 21.1277 16.884 21.5627 17.289C21.7157 17.431 21.9267 17.663 22.1387 17.949L22.3837 17.715L22.6147 17.757L23.2057 17.257C23.2007 17.244 23.1917 17.238 23.1867 17.224C23.1397 17.085 23.0387 16.777 23.2337 17.018C23.2727 17.066 23.3237 17.089 23.3767 17.114L23.5287 16.986C23.4957 16.887 23.4727 16.799 23.4007 16.721C23.3107 16.627 23.2367 16.511 23.4807 16.59C23.6037 16.63 23.7117 16.686 23.7997 16.757L24.1277 16.48L23.8307 16.789C23.9087 16.862 23.9717 16.946 23.9967 17.054C23.9917 16.998 23.9877 16.944 23.9807 16.898C23.9467 16.67 24.0777 16.852 24.1657 16.99C24.3347 17.261 24.1847 17.387 24.2437 17.804L24.2537 17.826C24.2277 17.487 24.3677 17.24 24.3487 17.007C24.3327 16.807 24.4117 16.829 24.5597 17.075C24.8387 17.537 24.4697 17.988 24.5247 18.527L24.5457 18.592C24.5577 18.03 24.8057 18.007 24.8857 17.726C24.9717 17.423 24.9897 17.494 25.0287 17.738C25.1957 18.746 24.7147 18.737 24.6687 19.049C24.6877 19.131 24.7077 19.214 24.7227 19.298L24.7247 19.288C24.7447 19.129 24.7797 18.986 24.8447 18.874C24.9067 18.766 24.9277 18.794 24.9497 18.874C25.0097 18.816 25.0667 18.76 25.0967 18.674C25.1827 18.435 25.2367 18.636 25.2057 18.863C25.1877 18.995 25.1227 19.109 25.0507 19.22C25.0907 19.347 25.1037 19.514 25.0657 19.706C25.1817 19.57 25.2917 19.456 25.3377 19.342C25.4507 19.056 25.4307 19.405 25.4057 19.576C25.2657 20.506 24.9237 20.309 24.7817 20.695C24.9677 20.435 25.2247 20.314 25.4287 20.302C25.7137 20.285 25.5047 20.394 25.4637 20.496C25.2297 21.048 24.8337 20.881 24.6507 21.227L24.6337 21.286C24.8427 21.138 25.0107 21.096 25.1257 20.976L25.1247 20.978Z" fill="#E3E7EA"/>
<path d="M21.9688 19.6141C22.1028 19.9761 22.1618 20.2501 22.1888 20.4861C22.3448 20.4091 22.4888 20.3541 22.6188 20.3221C22.6498 20.1281 22.6638 19.9411 22.6448 19.7721C22.5798 19.2151 22.4838 18.7181 22.0858 18.2881L21.5918 18.7821C21.7008 18.9731 21.8278 19.2361 21.9688 19.6141Z" fill="#E3E7EA"/>
<path d="M21.3102 21.2949C21.1692 21.4099 20.9722 21.5809 20.7422 21.7849C21.1112 22.0959 21.4482 22.3999 21.7102 22.6429C21.7322 22.6059 21.7622 22.5669 21.7802 22.5309C21.9002 22.2899 22.0372 22.0099 22.1672 21.7169L21.7562 21.2949H21.3102Z" fill="#E3E7EA"/>
<path d="M17.0001 22.5305L17.0121 22.5375L16.9961 22.5195L17.0001 22.5305Z" fill="#E3E7EA"/>
<path d="M22.1074 21.0236C22.1744 21.0836 22.2644 21.1646 22.3594 21.2516C22.4694 20.9606 22.5594 20.6686 22.6104 20.3916C22.5064 20.4566 22.3614 20.5496 22.1994 20.6566C22.1994 20.8126 22.1684 20.9346 22.1074 21.0236Z" fill="#E3E7EA"/>
<path d="M23.9827 22.5071L23.9857 22.4971L23.9707 22.5151C23.9707 22.5151 23.9777 22.5091 23.9827 22.5071Z" fill="#E3E7EA"/>
<path d="M23.893 17.8423C23.829 17.8243 23.767 17.8033 23.707 17.7783C23.738 17.8093 23.772 17.8493 23.815 17.9053C23.928 18.0553 24.114 18.0793 24.287 18.2223C24.188 18.0493 24.057 17.8863 23.893 17.8423Z" fill="#E3E7EA"/>
<path d="M21.5039 23.9067L21.5649 23.8877L21.5229 23.8947C21.5169 23.8997 21.5099 23.9037 21.5039 23.9067Z" fill="#E3E7EA"/>
<path d="M19.3965 23.8984L19.4495 23.9144L19.4335 23.9044L19.3965 23.8984Z" fill="#E3E7EA"/>
<path d="M21.424 18.211C21.424 18.211 21.422 18.212 21.422 18.213C21.345 18.283 21.252 18.336 21.252 18.336C21.252 18.336 21.336 18.389 21.471 18.587L21.938 18.141C21.815 18.033 21.663 17.932 21.489 17.834C21.507 17.904 21.501 17.981 21.514 18.04C21.527 18.099 21.48 18.159 21.424 18.211Z" fill="#E3E7EA"/>
<path d="M19.2305 23.1589C19.3105 23.2419 19.4005 23.3559 19.4805 23.6149C19.5645 23.8819 19.6385 23.9359 19.9885 24.0949L19.9595 24.0899C20.0335 24.1199 20.0835 24.1519 20.1495 24.1819C20.4415 23.9639 21.1365 23.4189 21.5545 22.8769C21.2625 22.6089 20.8945 22.2739 20.5455 21.9609C20.0495 22.4049 19.5095 22.9009 19.2305 23.1589Z" fill="#E3E7EA"/>
<path d="M18.0358 22.7775C18.0428 22.7345 18.0598 22.6925 18.0778 22.6515C18.1468 22.4985 18.2698 22.3725 18.2698 22.3725L18.0688 22.2125L18.0518 22.1985L18.0358 22.1865C18.0358 22.1865 17.9458 22.2845 17.8618 22.3805C17.8348 22.4115 17.8088 22.4415 17.7858 22.4675C17.7138 22.5505 17.5848 22.6295 17.4518 22.7405C17.4318 22.7575 17.4128 22.7715 17.3928 22.7915C17.3728 22.8105 17.3538 22.8195 17.3348 22.8415C17.2228 22.9635 17.0368 23.1425 16.9218 23.2795C16.8608 23.3525 16.8148 23.4165 16.8208 23.4485C16.8368 23.5415 16.9768 23.6355 17.0378 23.7595C17.0918 23.8685 17.2068 23.8985 17.3068 23.8005C17.3208 23.7865 17.3358 23.7785 17.3498 23.7595C17.4588 23.6035 18.0048 22.9805 18.0358 22.7775Z" fill="#6C301E"/>
<path d="M18.7959 21.749L19.1549 21.342C19.0779 21.332 19.0139 21.316 18.9649 21.292L18.6699 21.622L18.7959 21.748V21.749Z" fill="#6C301E"/>
<path d="M23.6094 22.7176C23.5884 22.7006 23.5664 22.6786 23.5464 22.6636C23.4594 22.5996 23.3844 22.5426 23.3284 22.4876C23.3214 22.4806 23.3094 22.4746 23.3034 22.4676L23.3014 22.4656C23.2554 22.4116 23.1964 22.3446 23.1464 22.2886C23.0934 22.2296 23.0514 22.1846 23.0514 22.1846L23.0354 22.1976L23.0224 22.2076L22.8184 22.3706C22.8184 22.3706 22.8924 22.4486 22.9574 22.5526C23.0004 22.6196 23.0404 22.6956 23.0524 22.7756C23.0834 22.9786 23.6304 23.6006 23.7384 23.7566C23.8474 23.9126 23.9884 23.8796 24.0494 23.7566C24.1104 23.6336 24.2504 23.5386 24.2664 23.4456C24.2744 23.4066 24.2074 23.3216 24.1224 23.2266C24.0064 23.0976 23.8504 22.9456 23.7524 22.8386C23.7044 22.7856 23.6574 22.7556 23.6084 22.7166L23.6094 22.7176Z" fill="#6C301E"/>
<path d="M21.8711 21.272L22.1981 21.642C22.2241 21.582 22.2491 21.523 22.2741 21.463L22.0081 21.165C21.9631 21.206 21.9101 21.248 21.8711 21.272Z" fill="#6C301E"/>
<path d="M18.8465 23.1514C18.8465 23.1514 18.8655 23.1324 18.8935 23.1054L18.8465 23.0254C18.8465 23.0254 18.7845 22.9994 18.7185 22.9854C18.6515 22.9714 18.5795 22.9714 18.5605 23.0264C18.5235 23.1324 18.7045 23.1834 18.7045 23.1834C18.7045 23.1834 18.6185 23.2974 18.5215 23.4104C18.5065 23.4274 18.4925 23.4414 18.4775 23.4584C18.3985 23.5464 18.3225 23.6214 18.2805 23.6294C18.2785 23.6294 18.2735 23.6354 18.2705 23.6354H18.2695C18.1765 23.6374 18.1445 23.8634 18.1445 23.8634C18.2315 23.8004 18.3245 23.8084 18.3935 23.8274C18.4295 23.8374 18.4535 23.8464 18.4685 23.8544C18.4765 23.8584 18.4875 23.8644 18.4875 23.8644L18.5025 23.8524L18.5495 23.8144L18.7235 23.6724L18.7375 23.6614L18.9615 23.4784C18.9615 23.4784 18.9845 23.4834 18.9975 23.4874C19.0135 23.4924 19.0275 23.4904 19.0585 23.4934C19.0995 23.4964 19.1455 23.4984 19.2035 23.4784C19.3405 23.4324 19.2065 23.1874 19.2035 23.1834C19.1055 23.2734 19.0335 23.3404 19.0335 23.3404L18.8455 23.1524L18.8465 23.1514Z" fill="#FAB81B"/>
<path d="M22.3846 23.1835C22.3846 23.1835 22.5646 23.1325 22.5276 23.0265C22.4916 22.9185 22.2416 23.0265 22.2416 23.0265L22.1946 23.1065C22.2226 23.1345 22.2416 23.1525 22.2416 23.1525L22.0566 23.3395C22.0566 23.3395 21.9836 23.2745 21.8856 23.1835C21.8836 23.1875 21.7486 23.4325 21.8856 23.4785C21.8916 23.4805 21.8946 23.4785 21.8996 23.4795C21.9216 23.4865 21.9366 23.4825 21.9566 23.4855C22.0526 23.4975 22.1286 23.4785 22.1286 23.4785L22.2716 23.5955L22.3076 23.6255L22.5396 23.8155L22.5856 23.8535L22.6006 23.8655C22.6006 23.8655 22.6116 23.8595 22.6196 23.8555C22.6306 23.8495 22.6486 23.8445 22.6726 23.8355C22.7416 23.8125 22.8466 23.7935 22.9426 23.8645C22.9426 23.8645 22.9116 23.6355 22.8176 23.6355C22.8056 23.6355 22.7816 23.6125 22.7636 23.5995C22.7566 23.5945 22.7506 23.5915 22.7426 23.5855C22.7426 23.5855 22.7416 23.5855 22.7406 23.5845C22.6766 23.5325 22.6026 23.4525 22.5316 23.3665C22.5206 23.3535 22.5116 23.3425 22.5016 23.3295C22.4376 23.2515 22.3846 23.1835 22.3846 23.1835Z" fill="#FAB81B"/>
<path d="M19.2747 21.355C19.2287 21.354 19.1937 21.347 19.1557 21.342L18.7967 21.749L18.6707 21.623L18.9657 21.293C18.8997 21.261 18.8527 21.219 18.8257 21.166C18.5967 21.373 18.2957 21.646 18.2387 21.702C18.1467 21.794 18.0537 22.191 18.0527 22.199L18.0697 22.213L18.3007 22.357L19.2747 21.356V21.355Z" fill="#B1B6BA"/>
<path d="M17.6279 17.1774L17.7719 17.3274L18.4719 18.0554L18.5659 18.0084C18.5699 17.8584 18.6249 17.7514 18.7299 17.7014V17.6994L18.4719 17.7594L17.8169 17.2064L17.7149 17.1204L17.4979 16.9364L17.3099 16.7774L16.9609 16.4834L17.2659 16.8004L17.4709 17.0134L17.6299 17.1784L17.6279 17.1774Z" fill="#B1B6BA"/>
<path d="M20.3477 21.7842C19.8047 22.2412 19.3307 22.6852 19.0667 22.9372C18.9927 23.0082 18.9367 23.0622 18.8997 23.0992C18.8977 23.1002 18.8947 23.1042 18.8947 23.1042C18.8667 23.1322 18.8477 23.1502 18.8477 23.1502L19.0357 23.3382C19.0357 23.3382 19.1077 23.2722 19.2057 23.1812C19.2137 23.1742 19.2217 23.1662 19.2307 23.1582C19.5107 22.9002 20.0507 22.4042 20.5457 21.9602C20.4797 21.9002 20.4117 21.8402 20.3487 21.7832L20.3477 21.7842Z" fill="#B1B6BA"/>
<path d="M20.543 21.6229C20.609 21.6769 20.675 21.7319 20.74 21.7859C20.969 21.5819 21.167 21.4109 21.308 21.2959H20.953C20.815 21.4029 20.678 21.5119 20.543 21.6229Z" fill="#B1B6BA"/>
<path d="M22.1985 20.6563C22.3605 20.5493 22.5055 20.4563 22.6095 20.3913C22.6135 20.3673 22.6155 20.3453 22.6195 20.3213C22.4885 20.3533 22.3445 20.4083 22.1895 20.4853C22.1965 20.5463 22.1995 20.6033 22.1995 20.6553L22.1985 20.6563Z" fill="#B1B6BA"/>
<path d="M22.0478 21.1254C22.0368 21.1384 22.0238 21.1514 22.0078 21.1664L22.2738 21.4644C22.3028 21.3944 22.3298 21.3234 22.3568 21.2524C22.2618 21.1664 22.1718 21.0854 22.1048 21.0244C22.0838 21.0554 22.0768 21.1014 22.0478 21.1254Z" fill="#B1B6BA"/>
<path d="M22.7077 21.5693C22.6337 21.7363 22.5547 21.8903 22.4707 22.0283L22.7897 22.3563L23.0237 22.2103L23.0367 22.2003C23.0357 22.1943 22.9427 21.7953 22.8487 21.7033C22.8287 21.6833 22.7747 21.6323 22.7067 21.5703L22.7077 21.5693Z" fill="#B1B6BA"/>
<path d="M21.8309 21.2954H21.7559L22.1669 21.7174C22.1779 21.6924 22.1889 21.6684 22.1999 21.6434L21.8729 21.2734C21.8539 21.2854 21.8359 21.2954 21.8309 21.2954Z" fill="#B1B6BA"/>
<path d="M22.4177 17.9568L22.2417 17.8688L22.6147 17.7598L22.3837 17.7178L22.1387 17.9518C22.1777 18.0048 22.2167 18.0618 22.2557 18.1188L22.4177 17.9568Z" fill="#B1B6BA"/>
<path d="M21.5917 18.7816L22.0857 18.2876C22.0397 18.2386 21.9937 18.1886 21.9397 18.1416L21.4727 18.5876C21.5087 18.6406 21.5477 18.7066 21.5917 18.7816Z" fill="#B1B6BA"/>
<path d="M22.4162 17.9564L22.6132 18.0554L23.2702 17.3724L23.4702 17.1644L23.5582 17.0724L23.8282 16.7914L24.1252 16.4824L23.7982 16.7594L23.5272 16.9884L23.3752 17.1164L23.2052 17.2604L22.6132 17.7594L22.2402 17.8684L22.4162 17.9564Z" fill="#B1B6BA"/>
<path d="M18.9074 20.6671C18.9444 20.6251 18.9804 20.5841 19.0294 20.5521C18.7594 20.4061 18.5134 20.3071 18.3164 20.2891C18.3164 20.2891 18.5814 20.4501 18.9084 20.6661L18.9074 20.6671Z" fill="#B1B6BA"/>
<path d="M20.5439 21.6221C20.4219 21.5221 20.2989 21.4241 20.1749 21.3271C20.0569 21.3331 19.9439 21.3391 19.8379 21.3441C19.9749 21.4581 20.1459 21.6061 20.3469 21.7851C20.4099 21.8411 20.4779 21.9021 20.5439 21.9621C20.8929 22.2741 21.2609 22.6101 21.5529 22.8781C21.6139 22.7991 21.6619 22.7221 21.7089 22.6451C21.4469 22.4011 21.1099 22.0981 20.7409 21.7871C20.6759 21.7331 20.6099 21.6781 20.5439 21.6241V21.6221Z" fill="#B1B6BA"/>
<path d="M22.054 23.3396L22.24 23.1516C22.24 23.1516 22.221 23.1326 22.193 23.1056C22.183 23.0956 22.168 23.0806 22.154 23.0676C22.129 23.0426 22.098 23.0136 22.062 22.9786C22.023 22.9406 21.979 22.8986 21.928 22.8506C21.888 22.9216 21.842 23.0046 21.791 23.0976C21.829 23.1326 21.854 23.1566 21.885 23.1846C21.983 23.2746 22.055 23.3406 22.055 23.3406L22.054 23.3396Z" fill="#B1B6BA"/>
<path d="M18.5657 18.0075C18.5647 18.0525 18.5617 18.0965 18.5707 18.1495C18.6167 18.4455 19.0847 19.1155 19.3027 19.7385C19.5207 20.3615 19.5207 20.5275 19.5207 20.5275C19.3417 20.4255 19.1657 20.4625 19.0277 20.5515C18.9787 20.5835 18.9427 20.6235 18.9057 20.6665C18.8297 20.7545 18.7717 20.8515 18.7717 20.9385C18.7717 21.0275 18.7907 21.1005 18.8237 21.1655C18.8507 21.2185 18.8977 21.2605 18.9637 21.2925C19.0127 21.3155 19.0767 21.3325 19.1537 21.3425C19.1917 21.3475 19.2267 21.3535 19.2727 21.3555C19.2897 21.3555 19.2987 21.3605 19.3167 21.3605C19.4377 21.3605 19.6217 21.3545 19.8367 21.3445C19.9427 21.3395 20.0557 21.3345 20.1737 21.3275C20.3567 21.3175 20.5487 21.3065 20.7367 21.2955H19.4477C19.4207 21.2955 19.5207 21.1415 19.5207 21.0945C19.5207 21.0465 19.4217 20.8715 19.4477 20.8715H21.8287C21.8547 20.8715 22.0277 20.9265 22.1697 20.8715L22.0737 21.0835C22.0737 21.0925 22.0607 21.1085 22.0467 21.1255C22.0747 21.1025 22.0827 21.0565 22.1047 21.0245C22.1657 20.9355 22.1957 20.8125 22.1967 20.6565C22.1967 20.6035 22.1937 20.5465 22.1867 20.4865C22.1607 20.2505 22.1007 19.9765 21.9667 19.6145C21.8257 19.2365 21.6987 18.9725 21.5897 18.7815C21.5467 18.7065 21.5067 18.6405 21.4697 18.5875C21.3337 18.3895 21.2507 18.3365 21.2507 18.3365C21.2507 18.3365 21.3437 18.2835 21.4207 18.2135C21.4337 18.2185 21.2507 18.2905 21.2507 18.3365C21.2507 18.3835 21.4517 18.6365 21.4247 18.6365H19.0437C19.0177 18.6365 18.8837 18.4715 18.8837 18.4245L18.7017 18.2115C18.8437 18.2665 19.0167 18.2115 19.0427 18.2115H21.4227C21.4787 18.1595 21.5267 18.0995 21.5137 18.0405C21.5007 17.9815 21.5067 17.9045 21.4887 17.8345C21.4347 17.8035 21.3877 17.7725 21.3277 17.7425C21.3277 17.7425 21.0937 17.7285 20.8407 17.6695C20.2517 17.6705 19.2517 17.6435 18.8657 17.6665C18.8127 17.6695 18.7687 17.6835 18.7287 17.7025C18.6237 17.7525 18.5687 17.8595 18.5647 18.0095L18.5657 18.0075Z" fill="#F9F0AA"/>
<path d="M22.0677 22.8557C22.0577 22.7877 22.0367 22.7337 22.0097 22.7217C21.9847 22.7597 21.9567 22.8007 21.9367 22.8367C21.9347 22.8397 21.9317 22.8457 21.9297 22.8487C21.9807 22.8977 22.0247 22.9387 22.0637 22.9767C22.0647 22.9357 22.0727 22.8907 22.0667 22.8547L22.0677 22.8557Z" fill="#437E24"/>
<path d="M22.2422 23.025C22.2422 23.025 22.4922 22.918 22.5282 23.025C22.5652 23.131 22.3853 23.182 22.3853 23.182C22.3853 23.182 22.4382 23.25 22.5022 23.328C22.5992 23.169 22.6682 22.995 22.6912 22.802C22.7362 22.414 22.6402 22.47 22.5092 22.704C22.4232 22.859 22.2843 22.9 22.1562 23.066C22.1703 23.079 22.1852 23.094 22.1952 23.104L22.2422 23.025Z" fill="#437E24"/>
<path d="M20.9615 24.0894L21.0135 24.0794C20.8065 24.1634 20.6265 24.2504 20.4765 24.3394C20.4065 24.2974 20.3055 24.2574 20.2205 24.2164C20.1495 24.2414 20.0815 24.2724 20.0065 24.2884C20.0065 24.2884 20.0665 24.2444 20.1495 24.1834C20.0835 24.1534 20.0335 24.1214 19.9595 24.0914L19.9885 24.0964C19.6385 23.9374 19.5645 23.8834 19.4805 23.6164C19.4005 23.3574 19.3105 23.2434 19.2305 23.1604C19.2215 23.1684 19.2135 23.1764 19.2055 23.1834C19.2075 23.1874 19.3415 23.4324 19.2055 23.4784C19.1475 23.4984 19.1005 23.4964 19.0605 23.4934C19.1455 23.6364 19.2545 23.7754 19.4065 23.8854C19.1705 23.7974 19.0585 23.6284 18.9995 23.4874C18.9865 23.4834 18.9635 23.4784 18.9635 23.4784L18.7395 23.6614C18.7495 23.6694 18.7525 23.6804 18.7625 23.6884L18.7255 23.6724L18.5515 23.8144C18.5635 23.8144 18.5765 23.8104 18.5885 23.8114L18.6475 23.8414C18.5955 23.8394 18.5545 23.8524 18.5045 23.8534L18.4895 23.8654C18.4895 23.8654 18.4785 23.8594 18.4705 23.8554C18.3545 23.8594 18.2345 23.8564 18.1335 23.8824C18.2285 23.8634 18.3135 23.8434 18.3955 23.8284C18.3275 23.8094 18.2335 23.8014 18.1465 23.8644C18.1465 23.8644 18.1785 23.6384 18.2715 23.6364C18.1705 23.5934 18.0615 23.5504 17.9405 23.5134C18.0195 23.5164 18.1115 23.5344 18.2305 23.6014L18.2205 23.5904L18.2825 23.6294C18.3235 23.6214 18.4005 23.5464 18.4795 23.4584C18.4315 23.3784 18.3865 23.2734 18.3365 23.1084C18.2655 22.8714 18.1725 22.7504 18.0815 22.6514C18.0635 22.6924 18.0465 22.7344 18.0395 22.7774C18.0085 22.9804 17.4625 23.6024 17.3535 23.7584C17.3405 23.7774 17.3255 23.7864 17.3105 23.7994C17.6245 23.9184 17.8645 23.9244 18.0595 23.8924C17.9455 23.9284 17.8425 23.9784 17.7545 24.0434C17.5745 24.1764 17.6235 24.2264 17.7775 24.2014C18.0685 24.1544 18.2495 24.2414 18.4895 24.2414C18.3435 24.3484 18.2215 24.4694 18.0025 24.5344C17.8555 24.5784 17.8075 24.6604 18.0475 24.6824C18.9645 24.7604 19.1975 24.1864 19.6355 24.1924C19.8595 24.2614 20.0695 24.3434 20.2685 24.4764C20.2085 24.5224 20.1445 24.5694 20.1095 24.6124C20.1205 24.7154 20.3565 24.6644 20.3805 24.7214C20.4105 24.6894 20.4425 24.6664 20.4735 24.6384C20.5045 24.6664 20.5355 24.6894 20.5665 24.7214C20.5895 24.6644 20.7855 24.6824 20.7965 24.5804C20.7695 24.5464 20.7165 24.5114 20.6745 24.4764C20.7865 24.4014 20.9015 24.3444 21.0205 24.2944C21.0465 24.2114 21.0795 24.1174 21.1225 24.0124C21.0745 24.0364 21.0285 24.0604 20.9635 24.0894H20.9615ZM19.3965 23.8984L19.4335 23.9044L19.4495 23.9144L19.3965 23.8984Z" fill="#437E24"/>
<path d="M17.3947 22.7898C17.3247 22.6818 17.3097 22.5798 17.3317 22.4728C17.3407 22.4868 17.3427 22.4948 17.3527 22.5108C17.3997 22.5838 17.4267 22.6598 17.4537 22.7398C17.5857 22.6288 17.7147 22.5498 17.7877 22.4668C17.8107 22.4398 17.8367 22.4098 17.8637 22.3798C17.8437 22.3468 17.8207 22.3208 17.8027 22.2778C17.6927 22.0058 17.6257 22.1278 17.6517 22.3798C17.6567 22.4338 17.6707 22.4858 17.6807 22.5388C17.6147 22.4768 17.5357 22.4128 17.4377 22.3468C17.4077 22.3268 17.3907 22.3198 17.3677 22.3068C17.4047 22.1428 17.4307 21.9478 17.3067 21.6728C17.1987 21.4368 17.1487 21.4698 17.1877 21.6608C17.2227 21.8338 16.8527 22.0008 17.1637 22.5688L17.1407 22.5388C16.9947 22.3278 17.0177 22.0498 17.0577 21.9038C17.1967 21.4178 16.9837 21.3168 17.0017 21.0628C17.0197 20.7978 16.9677 20.6988 16.7967 21.0458L16.7917 21.0598C16.8087 20.9458 16.8287 20.8388 16.8487 20.7528C16.9337 20.3848 16.8717 20.3278 16.7027 20.5268C16.5777 20.6718 16.4257 20.8568 16.4407 21.1838C16.4267 21.1328 16.4147 21.0808 16.4027 21.0278C16.3187 20.4618 16.7347 20.7618 16.8497 19.8818C16.8737 19.6948 16.9507 19.5708 16.6457 19.7858C16.6377 19.7908 16.6327 19.7998 16.6257 19.8048C16.6547 19.6828 16.6847 19.5648 16.7407 19.4378C16.8507 19.3958 16.9687 19.3278 17.0817 19.1648C17.1447 19.0728 17.1677 18.9868 17.1687 18.9238C17.3267 18.8148 17.4577 18.6488 17.4917 18.3398C17.5317 17.9848 17.4527 18.0178 17.2507 18.3168C17.2077 18.3798 17.1507 18.4238 17.0877 18.4628C17.1707 18.3558 17.2497 18.2248 17.3127 18.0468C17.3627 17.9028 17.3707 17.8328 17.3527 17.8128C17.5297 17.7228 17.6807 17.5798 17.7737 17.3268L17.6297 17.1768C17.5427 17.2258 17.4427 17.2588 17.3247 17.3158C17.4117 17.2028 17.4417 17.1028 17.4707 17.0118L17.2657 16.7988C17.1307 16.8828 17.0197 16.9858 16.9847 17.1378C16.9897 17.0828 16.9937 17.0288 17.0007 16.9838C17.0347 16.7578 16.9037 16.9388 16.8197 17.0738C16.6517 17.3418 16.7977 17.4668 16.7427 17.8768L16.7317 17.9018C16.7577 17.5658 16.6187 17.3218 16.6367 17.0908C16.6527 16.8938 16.5757 16.9158 16.4297 17.1588C16.1547 17.6138 16.5167 18.0588 16.4657 18.5898L16.4457 18.6528C16.4307 18.1018 16.1857 18.0798 16.1087 17.8018C16.0227 17.5018 16.0067 17.5728 15.9667 17.8138C15.8027 18.8098 16.2787 18.8008 16.3227 19.1098C16.3037 19.1918 16.2847 19.2738 16.2697 19.3568L16.2667 19.3428C16.2597 19.2888 16.2447 19.2438 16.2327 19.1958L16.2287 19.1848C16.2067 19.0978 16.1867 19.0078 16.1477 18.9388C16.0867 18.8318 16.0667 18.8598 16.0447 18.9388C15.9857 18.8818 15.9297 18.8268 15.8997 18.7408C15.8157 18.5038 15.7607 18.7028 15.7917 18.9278C15.8097 19.0578 15.8737 19.1708 15.9447 19.2808C15.9057 19.4068 15.8927 19.5728 15.9307 19.7628C15.8157 19.6278 15.7077 19.5148 15.6627 19.4018C15.5497 19.1198 15.5697 19.4638 15.5947 19.6338C15.7327 20.5558 16.0717 20.3578 16.2117 20.7418C16.0277 20.4828 15.7747 20.3628 15.5717 20.3508C15.2897 20.3338 15.4957 20.4428 15.5377 20.5428C15.7687 21.0898 16.1587 20.9248 16.3397 21.2658L16.3567 21.3248C16.1497 21.1778 15.9857 21.1358 15.8717 21.0168C15.7417 20.8818 15.7267 21.0348 15.8387 21.2738C15.7167 21.2878 15.5867 21.2978 15.5047 21.2708C15.4027 21.2368 15.4027 21.3898 15.6857 21.5088C15.8147 21.5628 16.0187 21.6468 16.2147 21.7428C16.3597 21.8518 16.5047 21.9258 16.6297 22.0398C16.2407 21.7598 15.9477 21.8948 15.7297 21.7678C15.4587 21.6108 15.6057 21.8568 15.6807 21.9318C16.4447 22.6968 16.5647 22.1188 16.9877 22.5248C16.9217 22.4948 16.8507 22.4718 16.7707 22.4618C16.4317 22.4228 16.3107 22.3728 16.4877 22.5868C16.6987 22.8428 16.8717 22.9668 17.0237 23.0348C16.9237 23.0348 16.8267 23.0388 16.7377 23.0568C16.5197 23.1028 16.5947 23.1428 16.7417 23.1868C16.8097 23.2078 16.8657 23.2428 16.9227 23.2778C17.0377 23.1398 17.2237 22.9618 17.3357 22.8398C17.3557 22.8188 17.3757 22.8088 17.3947 22.7898ZM17.0877 17.9178C17.1507 17.9008 17.2117 17.8788 17.2717 17.8548C17.2427 17.8858 17.2087 17.9248 17.1667 17.9798C17.0547 18.1288 16.8697 18.1518 16.6977 18.2938C16.7967 18.1218 16.9257 17.9608 17.0877 17.9178ZM17.0007 22.5308L16.9967 22.5198L17.0127 22.5378L17.0007 22.5308Z" fill="#437E24"/>
<path d="M23.0533 22.7767C23.0413 22.6967 23.0013 22.6207 22.9583 22.5537C22.8453 22.6707 22.7243 22.7927 22.6333 23.0907C22.5983 23.2087 22.5653 23.2947 22.5323 23.3657C22.6033 23.4517 22.6783 23.5317 22.7413 23.5837L22.7473 23.5797L22.7433 23.5847C22.8643 23.5197 22.9573 23.5017 23.0373 23.4987C22.9373 23.5287 22.8523 23.5637 22.7653 23.5987C22.7833 23.6107 22.8073 23.6347 22.8193 23.6347C22.9133 23.6347 22.9443 23.8637 22.9443 23.8637C22.8483 23.7927 22.7433 23.8117 22.6743 23.8347C22.7333 23.8477 22.7923 23.8617 22.8593 23.8747C22.7883 23.8557 22.7003 23.8617 22.6213 23.8537C22.6143 23.8577 22.6023 23.8637 22.6023 23.8637L22.5873 23.8517C22.4983 23.8447 22.4173 23.8247 22.3213 23.8297L22.3833 23.7987C22.4343 23.7967 22.4883 23.8067 22.5413 23.8147L22.3093 23.6247C22.2833 23.6387 22.2593 23.6537 22.2283 23.6667L22.2003 23.6787C22.2313 23.6547 22.2443 23.6207 22.2723 23.5947L22.1293 23.4777C22.1293 23.4777 22.0543 23.4967 21.9573 23.4847C21.8963 23.6267 21.7813 23.7937 21.5453 23.8797C21.7023 23.7677 21.8143 23.6257 21.9013 23.4797C21.8963 23.4777 21.8933 23.4797 21.8873 23.4787C21.7493 23.4327 21.8843 23.1877 21.8873 23.1837C21.8573 23.1557 21.8313 23.1317 21.7933 23.0967C21.6093 23.4347 21.3753 23.8837 21.1953 24.2307C21.2363 24.2167 21.2763 24.1997 21.3183 24.1857C21.7613 24.1797 21.9973 24.7607 22.9243 24.6817C23.1663 24.6597 23.1193 24.5767 22.9713 24.5317C22.7493 24.4667 22.6253 24.3437 22.4773 24.2357C22.7203 24.2357 22.9043 24.1487 23.1983 24.1957C23.3543 24.2197 23.4033 24.1697 23.2203 24.0347C23.1323 23.9687 23.0273 23.9187 22.9123 23.8817C23.1233 23.9157 23.3873 23.9077 23.7403 23.7597C23.6323 23.6037 23.0853 22.9817 23.0543 22.7787L23.0533 22.7767ZM21.5043 23.9067C21.5103 23.9037 21.5173 23.8997 21.5233 23.8947L21.5653 23.8877L21.5043 23.9067Z" fill="#437E24"/>
<path d="M23.1724 22.2498C23.1654 22.2668 23.1554 22.2748 23.1484 22.2908C23.1984 22.3468 23.2584 22.4138 23.3034 22.4678C23.3034 22.4678 23.3054 22.4688 23.3054 22.4698C23.3134 22.4318 23.3224 22.3938 23.3264 22.3548C23.3514 22.0998 23.2814 21.9738 23.1724 22.2498Z" fill="#437E24"/>
<path d="M23.2345 17.02C23.0395 16.779 23.1405 17.087 23.1875 17.226C23.1925 17.24 23.2015 17.246 23.2065 17.259L23.3765 17.115C23.3245 17.091 23.2725 17.068 23.2335 17.019L23.2345 17.02Z" fill="#437E24"/>
<path d="M25.4635 20.498C25.5045 20.396 25.7135 20.287 25.4285 20.304C25.2245 20.316 24.9675 20.437 24.7815 20.697C24.9235 20.311 25.2655 20.508 25.4055 19.578C25.4305 19.407 25.4505 19.058 25.3375 19.344C25.2915 19.458 25.1815 19.572 25.0655 19.708C25.1035 19.516 25.0905 19.349 25.0505 19.222C25.1225 19.111 25.1875 18.997 25.2055 18.865C25.2365 18.638 25.1825 18.437 25.0965 18.676C25.0665 18.762 25.0095 18.818 24.9495 18.876C24.9275 18.796 24.9065 18.768 24.8445 18.876C24.7795 18.988 24.7445 19.131 24.7245 19.29L24.7225 19.3C24.7075 19.216 24.6875 19.133 24.6685 19.051C24.7145 18.739 25.1955 18.748 25.0285 17.74C24.9895 17.496 24.9715 17.425 24.8855 17.728C24.8055 18.009 24.5575 18.032 24.5455 18.594L24.5245 18.529C24.4695 17.99 24.8385 17.539 24.5595 17.077C24.4115 16.831 24.3325 16.809 24.3485 17.009C24.3675 17.242 24.2275 17.489 24.2535 17.828L24.2435 17.806C24.1845 17.389 24.3345 17.263 24.1655 16.992C24.0775 16.854 23.9465 16.672 23.9805 16.9C23.9875 16.946 23.9915 17 23.9965 17.056C23.9715 16.948 23.9085 16.864 23.8305 16.791L23.5605 17.072C23.5825 17.124 23.6105 17.177 23.6545 17.235C23.5885 17.203 23.5295 17.185 23.4715 17.164L23.2715 17.372C23.3655 17.541 23.4825 17.665 23.6255 17.737C23.6075 17.757 23.6155 17.827 23.6675 17.973C23.7315 18.153 23.8105 18.287 23.8955 18.395C23.8315 18.355 23.7735 18.311 23.7305 18.247C23.5255 17.944 23.4455 17.91 23.4845 18.271C23.5195 18.584 23.6525 18.751 23.8135 18.861C23.8155 18.924 23.8385 19.012 23.9025 19.104C24.0165 19.269 24.1365 19.338 24.2475 19.38C24.3025 19.508 24.3325 19.627 24.3615 19.75C24.3545 19.745 24.3495 19.736 24.3415 19.731C24.0345 19.514 24.1115 19.639 24.1365 19.828C24.2515 20.719 24.6735 20.413 24.5875 20.988C24.5755 21.041 24.5635 21.092 24.5495 21.143C24.5645 20.812 24.4115 20.625 24.2855 20.479C24.1115 20.278 24.0515 20.336 24.1375 20.708C24.1575 20.795 24.1775 20.903 24.1945 21.017L24.1905 21.005C24.0165 20.654 23.9655 20.755 23.9815 21.022C24.0015 21.279 23.7845 21.381 23.9245 21.874C23.9665 22.018 23.9875 22.295 23.8475 22.507L23.8235 22.539C24.1315 21.97 23.7595 21.8 23.7935 21.628C23.8345 21.433 23.7835 21.399 23.6745 21.64C23.5495 21.918 23.5755 22.114 23.6135 22.28C23.5905 22.293 23.5735 22.3 23.5435 22.32C23.4575 22.378 23.3915 22.434 23.3305 22.488C23.3865 22.543 23.4615 22.6 23.5485 22.664C23.5705 22.603 23.5915 22.544 23.6285 22.486L23.6505 22.447C23.6685 22.539 23.6545 22.627 23.6115 22.718C23.6595 22.757 23.7075 22.787 23.7555 22.84C23.8535 22.947 24.0095 23.099 24.1255 23.228C24.1645 23.207 24.1995 23.182 24.2445 23.168C24.3945 23.123 24.4695 23.083 24.2485 23.037C24.1595 23.018 24.0605 23.013 23.9595 23.014C24.1135 22.945 24.2895 22.819 24.5045 22.56C24.6805 22.343 24.5595 22.395 24.2175 22.434C24.1345 22.444 24.0615 22.467 23.9935 22.499C24.4245 22.084 24.5435 22.673 25.3195 21.897C25.3935 21.824 25.5425 21.573 25.2685 21.733C25.0475 21.862 24.7485 21.722 24.3495 22.016C24.4785 21.895 24.6305 21.82 24.7805 21.706C24.9775 21.609 25.1825 21.525 25.3135 21.47C25.6005 21.349 25.6005 21.196 25.4955 21.23C25.4145 21.261 25.2845 21.251 25.1605 21.237C25.2735 20.995 25.2575 20.841 25.1265 20.978C25.0115 21.098 24.8435 21.14 24.6345 21.288L24.6515 21.229C24.8345 20.883 25.2295 21.05 25.4635 20.498ZM23.8165 17.905C23.7735 17.849 23.7395 17.809 23.7085 17.778C23.7685 17.803 23.8305 17.824 23.8945 17.842C24.0585 17.886 24.1895 18.049 24.2885 18.222C24.1155 18.079 23.9295 18.055 23.8165 17.905ZM23.9835 22.507C23.9785 22.509 23.9755 22.513 23.9715 22.515L23.9865 22.497L23.9835 22.507Z" fill="#437E24"/>
<path d="M18.4563 22.7268C18.3273 22.4948 18.2313 22.4398 18.2773 22.8228C18.3033 23.0438 18.3963 23.2348 18.5213 23.4098C18.6183 23.2958 18.7043 23.1828 18.7043 23.1828C18.7043 23.1828 18.5233 23.1318 18.5603 23.0258C18.5793 22.9718 18.6513 22.9718 18.7183 22.9848C18.6193 22.8948 18.5223 22.8448 18.4563 22.7268Z" fill="#437E24"/>
<path d="M17.7388 17.1026C17.7318 17.1106 17.7218 17.1116 17.7148 17.1186L17.8168 17.2046C17.8598 17.0646 17.8908 16.9136 17.7378 17.1016L17.7388 17.1026Z" fill="#437E24"/>
<path d="M23.4797 16.5916C23.2357 16.5126 23.3097 16.6286 23.3997 16.7226C23.4717 16.7996 23.4947 16.8886 23.5277 16.9876L23.7987 16.7586C23.7107 16.6876 23.6027 16.6316 23.4797 16.5916Z" fill="#437E24"/>
<path d="M18.8934 22.8754C18.8824 22.9404 18.8854 23.0184 18.8994 23.0994C18.9364 23.0634 18.9934 23.0084 19.0664 22.9374C19.0584 22.9174 19.0454 22.9064 19.0394 22.8814C18.9794 22.6544 18.9154 22.7394 18.8934 22.8754Z" fill="#437E24"/>
<path d="M17.5755 16.8093C17.6635 16.7153 17.7385 16.6013 17.4975 16.6793C17.4245 16.7023 17.3715 16.7433 17.3105 16.7763L17.4985 16.9353C17.5165 16.8913 17.5395 16.8483 17.5755 16.8093Z" fill="#437E24"/>
<path d="M21.9299 22.8491C21.9299 22.8491 21.9349 22.8401 21.9369 22.8371C21.9579 22.8011 21.9859 22.7611 22.0099 22.7221C22.1359 22.5281 22.3039 22.3031 22.4709 22.0281C22.5549 21.8891 22.6349 21.7351 22.7079 21.5691C22.8959 21.1441 23.0279 20.6291 22.9819 19.9711C22.9319 19.2821 22.6059 18.6281 22.2569 18.1181C22.2179 18.0611 22.1799 18.0041 22.1399 17.9511C21.9279 17.6651 21.7179 17.4331 21.5639 17.2911C21.1289 16.8861 20.5829 16.5901 20.5829 16.5901C20.7849 16.3711 20.6909 16.2631 20.5029 16.2471C20.3129 16.2311 20.0529 16.4181 20.2399 16.5901C20.2399 16.5901 19.8659 17.0731 20.3499 17.4621C20.4749 17.5631 20.6639 17.6271 20.8439 17.6691C21.0969 17.7281 21.3309 17.7421 21.3309 17.7421C21.3909 17.7721 21.4379 17.8031 21.4919 17.8341C21.6659 17.9321 21.8179 18.0331 21.9409 18.1411C21.9949 18.1891 22.0409 18.2381 22.0869 18.2871C22.4849 18.7171 22.5819 19.2141 22.6459 19.7711C22.6649 19.9401 22.6509 20.1271 22.6199 20.3211C22.6159 20.3441 22.6149 20.3671 22.6099 20.3911C22.5589 20.6691 22.4689 20.9611 22.3589 21.2511C22.3319 21.3221 22.3049 21.3921 22.2759 21.4631C22.2509 21.5241 22.2259 21.5831 22.1999 21.6421C22.1889 21.6671 22.1779 21.6911 22.1669 21.7161C22.0369 22.0091 21.9009 22.2891 21.7799 22.5301C21.7619 22.5661 21.7319 22.6051 21.7099 22.6421C21.6639 22.7191 21.6149 22.7971 21.5539 22.8751C21.1359 23.4171 20.4419 23.9621 20.1489 24.1801C20.0659 24.2421 20.0059 24.2851 20.0059 24.2851C20.0809 24.2691 20.1489 24.2381 20.2199 24.2131C20.8639 23.9901 21.3519 23.4511 21.6119 23.0961C21.3779 23.4571 21.2199 23.7631 21.1199 24.0101C21.0769 24.1151 21.0429 24.2091 21.0179 24.2921C20.9249 24.5911 20.9249 24.7521 20.9249 24.7521C20.9249 24.7521 21.0399 24.5281 21.1949 24.2281C21.3749 23.8811 21.6089 23.4321 21.7929 23.0941C21.8429 23.0021 21.8889 22.9181 21.9299 22.8471V22.8491Z" fill="#437E24"/>
<path d="M21.4241 18.2109H19.0441C19.0181 18.2109 18.8451 18.2659 18.7031 18.2109L18.8851 18.4239C18.8851 18.4709 19.0191 18.6359 19.0451 18.6359H21.4261C21.4531 18.6359 21.2511 18.3829 21.2511 18.3359C21.2511 18.2899 21.4351 18.2169 21.4221 18.2129C21.4221 18.2129 21.4251 18.2109 21.4241 18.2109Z" fill="#E2CF81"/>
<path d="M21.3099 21.2951H21.8309C21.8359 21.2951 21.8529 21.2851 21.8719 21.2731C21.9109 21.2481 21.9629 21.2071 22.0089 21.1661C22.0249 21.1511 22.0379 21.1381 22.0489 21.1251C22.0629 21.1091 22.0759 21.0931 22.0759 21.0831L22.1719 20.8711C22.0299 20.9261 21.8569 20.8711 21.8309 20.8711H19.4499C19.4239 20.8711 19.5229 21.0461 19.5229 21.0941C19.5229 21.1411 19.4229 21.2951 19.4499 21.2951H21.3099Z" fill="#E2CF81"/>
</svg>
