<svg width="41" height="41" viewBox="0 0 41 41" fill="none" xmlns="http://www.w3.org/2000/svg">
<path d="M4.44336 30.5625H36.6064V10.4365H4.44336V30.5625ZM20.5054 14.5075C20.5054 14.5075 24.1684 17.0075 24.1684 20.4605C24.1684 23.9135 20.5054 26.4915 20.5054 26.4915C20.5054 26.4915 16.8194 23.6825 16.8194 20.4605C16.8194 17.2385 20.5054 14.5075 20.5054 14.5075Z" fill="#3A53A8"/>
<path d="M18.7768 20.8732C18.7768 20.8732 19.0468 20.9882 19.3288 21.3042V20.7832H19.4638V21.4762C19.4738 21.4902 19.4837 21.5032 19.4937 21.5172H19.8748L20.0468 21.0452C20.0468 21.0452 20.2178 21.0562 20.4788 21.0682C20.3768 19.8732 20.4478 18.5562 20.4688 18.2552C20.4138 18.3072 20.4037 18.4502 20.4037 18.4502L20.3197 18.4052L20.3078 18.5922L20.2367 18.5212V18.7922L20.1597 18.7082L20.1718 18.9142L20.0947 18.8172L20.1308 19.0622L20.0588 18.9852L20.0658 19.1842L20.0117 19.1332V19.4362L19.9517 19.3392L19.8568 19.7642L19.8027 19.4102C19.8027 19.4102 19.7088 19.4802 19.7148 19.4232C19.7208 19.3652 19.7978 19.1592 19.7978 19.1592C19.7978 19.1592 19.7147 19.2112 19.7327 19.1472C19.7507 19.0822 19.8757 18.9082 19.8757 18.9082C19.8757 18.9082 19.7808 18.9532 19.7868 18.9082C19.7928 18.8632 19.9298 18.7092 19.9298 18.7092C19.9298 18.7092 19.8167 18.7352 19.8277 18.7092C19.8407 18.6832 19.9948 18.5482 19.9948 18.5482L19.9228 18.5222L20.1427 18.2122C20.0827 18.2122 19.8997 18.3802 19.8997 18.3802L19.9058 18.2122L19.7157 18.4382V18.3102L19.5378 18.5742L19.5247 18.4322L19.3698 18.6772L19.3398 18.5422L19.2388 18.7672L19.2087 18.6712L19.0968 18.9152L19.0788 18.8062L18.9007 19.0372C19.0197 18.2322 19.9468 17.8972 19.9468 17.8972L19.5548 17.9742L19.5728 17.8642L19.3638 17.9672V17.8512L19.1017 18.0312L19.0898 17.9482L18.9288 18.1032L18.8988 17.9872L18.7197 18.1672L18.7138 18.0642L18.5058 18.2062L18.4998 18.1022L18.2668 18.2182C18.2668 18.2182 18.4158 17.7482 19.1058 17.5932C19.7948 17.4392 20.3008 17.7612 20.3008 17.7612H20.2987L20.3307 17.7672L20.2528 17.7082L20.0807 17.5602L20.1458 17.5022L19.9967 17.4632L20.0208 17.3802L19.8488 17.2902L19.9438 17.2582L19.8008 17.1682L19.8608 17.1162L19.6998 17.0512L19.7358 16.9802L19.5748 16.8832L19.6217 16.8442L19.5278 16.7162C19.8748 16.6902 20.2947 17.2012 20.4587 17.4202L20.5198 17.3992L20.3958 17.2252L20.5138 17.2182L20.3057 17.0122L20.4307 16.9612L20.2458 16.7612L20.3407 16.7102L20.1618 16.5172L20.2568 16.4842L20.0608 16.3172L20.2218 16.3112L20.0198 16.0922L20.1087 16.0732L20.0438 15.9062L20.1917 16.0732L20.2458 15.9962L20.3108 16.1952L20.3818 16.0992L20.4468 16.4092L20.5117 16.2992L20.5357 16.6152L20.6248 16.5122L20.6418 16.8342L20.7308 16.7752L20.7127 17.0462L20.7728 17.0012C20.7858 17.0432 20.7858 17.2122 20.7828 17.3872C20.9778 17.0242 21.3658 16.6732 21.9568 16.6542L21.7717 16.7572L21.8797 16.8092L21.6658 16.8932L21.7728 16.9642L21.5168 16.9832L21.6478 17.0802L21.4587 17.1062L21.3097 17.1382L21.4167 17.2482L21.2027 17.2732L21.3407 17.3512C21.3407 17.3512 21.0018 17.4802 20.9778 17.5182C20.9778 17.5182 22.1188 17.2032 22.3988 17.7882L22.1788 17.6852L22.1968 17.7952L22.0417 17.6732L22.0648 17.7632L21.9048 17.6732L21.9277 17.7822L21.7617 17.6792L21.7978 17.7762L21.5837 17.6662L21.6198 17.7692L21.4347 17.7042L21.4527 17.8142L21.2677 17.8012L21.2838 17.9162C22.4298 18.1362 22.2828 19.0582 22.2828 19.0582L22.2118 18.8382L22.1278 18.9092L22.0637 18.7162L21.9928 18.8002L21.9568 18.5812L21.8848 18.6652L21.8078 18.4522L21.7838 18.5882L21.7008 18.3952L21.6588 18.5302L21.5758 18.3502L21.5518 18.4332L21.4338 18.2532L21.4158 18.3952L21.2607 18.1632V18.3182L21.0828 18.1632L21.0347 18.2662L20.8867 18.2012L21.0287 18.3622L20.9517 18.3942L21.1537 18.5362L21.0457 18.5812L21.2428 18.7362L21.1537 18.7552L21.2847 18.9232L21.1957 18.9162L21.2917 19.0832L21.2017 19.0962L21.3207 19.3472L21.2558 19.2892L21.2738 19.6432L21.1847 19.4052L21.1007 19.4692V19.2252L21.0128 19.3022L21.0187 19.0062L20.9298 19.0762L20.9237 18.8262L20.8468 18.8772L20.8698 18.6702L20.8057 18.7022L20.8167 18.5412L20.7397 18.5932L20.7568 18.3752L20.6728 18.4002C20.7078 18.3632 20.6538 18.2962 20.5858 18.2592C20.5498 19.1472 20.5678 20.2762 20.6378 21.0762C21.5678 21.1122 23.3038 21.1342 23.7148 20.8262C23.7248 20.7052 23.7367 20.5852 23.7367 20.4622C23.7367 17.3702 20.5018 15.0762 20.5018 15.0762C20.5018 15.0762 17.2188 17.4472 17.2188 20.4622C17.2188 20.8242 17.2658 21.1772 17.3488 21.5182H18.7687C18.7977 21.3252 18.8098 21.1132 18.7728 20.8732H18.7768ZM19.5557 19.7572H19.7017V20.3502C19.7017 20.4162 19.7078 20.4642 19.7188 20.4952C19.7358 20.5492 19.7738 20.5762 19.8318 20.5762C19.8898 20.5762 19.9268 20.5482 19.9438 20.4952C19.9558 20.4642 19.9597 20.4162 19.9597 20.3502V19.7572H20.1058V20.3502C20.1058 20.4522 20.0938 20.5322 20.0718 20.5892C20.0298 20.6932 19.9488 20.7452 19.8298 20.7452C19.7118 20.7452 19.6308 20.6932 19.5888 20.5892C19.5658 20.5322 19.5538 20.4522 19.5538 20.3502V19.7572H19.5557ZM21.3458 20.7212L21.3018 20.5232H21.0487L21.0018 20.7212H20.8517L21.0968 19.7572H21.2577L21.4998 20.7212H21.3447H21.3458ZM22.5308 19.7572H22.7378V20.7212H22.6038V19.9912C22.6038 19.9572 22.6038 19.9312 22.6038 19.9132L22.4738 20.7222H22.3347L22.2057 19.9132C22.2057 19.9312 22.2057 19.9572 22.2057 19.9912V20.7212H22.0718V19.7572H22.2808L22.4058 20.5142L22.5287 19.7572H22.5308ZM18.3407 20.6132C18.2797 20.5242 18.2498 20.4022 18.2498 20.2482C18.2498 20.0922 18.2807 19.9672 18.3417 19.8732C18.4027 19.7792 18.4827 19.7322 18.5837 19.7322C18.6697 19.7322 18.7408 19.7632 18.7938 19.8252C18.8468 19.8872 18.8778 19.9652 18.8848 20.0572H18.7437C18.7327 19.9922 18.7067 19.9452 18.6637 19.9202C18.6407 19.9052 18.6148 19.8982 18.5858 19.8982C18.5298 19.8982 18.4847 19.9262 18.4487 19.9862C18.4127 20.0442 18.3958 20.1332 18.3958 20.2502C18.3958 20.3692 18.4148 20.4522 18.4538 20.5032C18.4918 20.5512 18.5357 20.5762 18.5847 20.5762C18.6327 20.5762 18.6717 20.5562 18.7027 20.5172C18.7337 20.4782 18.7527 20.4272 18.7607 20.3632H18.6007V20.2022H18.8867V20.7192H18.7927L18.7787 20.5982C18.7507 20.6442 18.7258 20.6762 18.7038 20.6962C18.6668 20.7282 18.6198 20.7452 18.5648 20.7452C18.4738 20.7452 18.3997 20.7012 18.3417 20.6122L18.3407 20.6132Z" fill="#6DAADD"/>
<path d="M20.3127 23.8626C20.3277 23.9816 19.2157 23.8156 18.8217 24.2746C19.0567 24.5606 19.2907 24.8146 19.5077 25.0326C19.5907 24.9246 19.7377 24.7566 19.9477 24.6016C20.2967 24.3436 21.1847 24.6186 21.1847 23.9996C21.1847 23.2606 20.4187 23.3926 20.3127 23.2776C20.2547 23.2146 20.6837 22.9506 21.0127 22.9836C20.8587 22.7436 20.7157 22.4676 20.6317 22.1186C20.5877 21.9366 20.5537 21.7366 20.5257 21.5266H19.8707L19.8737 21.5176H19.4927C19.6267 21.7116 19.7527 21.9536 19.8387 22.2656C19.8387 22.2656 19.6747 22.2306 19.4627 22.2126V22.3406C19.8217 22.3186 20.0927 22.2656 20.0927 22.2656C20.0927 22.2656 20.1247 22.4896 19.6217 22.5746V22.6746C19.7107 22.6626 19.7647 22.6526 19.7647 22.6526C19.7647 22.6526 19.8117 22.8096 19.2057 22.8096C18.5997 22.8096 18.6257 22.6486 18.6257 22.6486C18.6257 22.6486 18.6807 22.6586 18.7647 22.6706V22.5806C18.2567 22.5096 18.2997 22.3166 18.2997 22.3166C18.2997 22.3166 18.6967 22.3506 19.1877 22.3506C19.2367 22.3506 19.2797 22.3466 19.3267 22.3456V22.2046C19.1277 22.1976 18.9097 22.2106 18.7427 22.2826H18.5207C18.5207 22.2826 18.7037 21.9756 18.7707 21.5176H17.3477C17.4887 22.1016 17.7367 22.6496 18.0297 23.1496C18.8057 23.1186 20.2637 23.5036 20.3107 23.8636L20.3127 23.8626Z" fill="#163B77"/>
<path d="M19.2143 22.7029C19.3303 22.7029 19.4413 22.6949 19.5323 22.6849V22.5889C19.4343 22.5999 19.3233 22.6089 19.1883 22.6089C19.0623 22.6089 18.9563 22.6039 18.8633 22.5949V22.6829C18.9663 22.6939 19.0913 22.7039 19.2143 22.7039V22.7029Z" fill="#163B77"/>
<path d="M20.7424 21.8094C20.8734 22.3654 21.1304 22.7494 21.3774 23.0074C21.7484 22.9954 22.2564 22.8424 22.5164 22.6944C22.7454 22.5654 23.0784 22.5324 23.2654 22.5244C23.4074 22.2064 23.5274 21.8734 23.6094 21.5264H20.6914C20.7074 21.6344 20.7244 21.7304 20.7424 21.8094Z" fill="#163B77"/>
<path d="M20.6406 21.0752C20.6556 21.2412 20.6716 21.3952 20.6906 21.5272H23.6116C23.6136 21.5182 23.6156 21.5092 23.6176 21.5002C23.6306 21.4432 23.6436 21.3862 23.6546 21.3282L23.6756 21.1762L23.7126 20.9012L23.7236 20.8232C23.7236 20.8232 23.7196 20.8252 23.7176 20.8262C23.3066 21.1342 21.5716 21.1102 20.6406 21.0752Z" fill="#E4DADA"/>
<path d="M20.4781 21.0679C20.2161 21.0569 20.0461 21.0449 20.0461 21.0449L19.8741 21.5169L19.8711 21.5259H20.5261C20.5061 21.3779 20.4911 21.2229 20.4781 21.0679Z" fill="#E4DADA"/>
<path d="M18.4433 23.7822C18.5613 23.9462 18.6813 24.1042 18.8033 24.2522C18.8093 24.2602 18.8153 24.2692 18.8213 24.2762C19.2153 23.8172 20.3273 23.9822 20.3123 23.8642C20.2653 23.5042 18.8063 23.1192 18.0313 23.1502H18.0293C18.0353 23.1602 18.0423 23.1692 18.0473 23.1792C18.1593 23.3682 18.2773 23.5502 18.3993 23.7232C18.4133 23.7442 18.4283 23.7632 18.4433 23.7832V23.7822Z" fill="#F7EB00"/>
<path d="M21.3778 23.0084C21.6228 23.2654 21.8578 23.3984 21.9478 23.4514C22.0508 23.5114 22.0108 23.7604 21.8058 23.7434C21.6698 23.7324 21.3138 23.4554 21.0128 22.9844C20.6838 22.9524 20.2548 23.2164 20.3128 23.2784C20.4188 23.3934 21.1848 23.2614 21.1848 24.0004C21.1848 24.6184 20.2978 24.3444 19.9478 24.6024C19.7378 24.7574 19.5898 24.9254 19.5078 25.0334C19.5078 25.0334 19.5128 25.0384 19.5158 25.0414C20.0548 25.5834 20.4778 25.8984 20.4778 25.8984C20.4778 25.8984 20.5668 25.8334 20.7058 25.7204C20.7138 25.7134 20.7238 25.7054 20.7328 25.6984C20.7788 25.6614 20.8248 25.6234 20.8798 25.5754C20.8878 25.5684 20.8978 25.5594 20.9068 25.5524C21.0018 25.4714 21.1078 25.3754 21.2238 25.2674C21.2588 25.2344 21.2928 25.2034 21.3298 25.1684C21.3798 25.1204 21.4308 25.0694 21.4828 25.0174C21.5258 24.9744 21.5698 24.9294 21.6148 24.8834C21.6688 24.8284 21.7218 24.7724 21.7758 24.7134C21.8218 24.6644 21.8688 24.6114 21.9148 24.5584C21.9698 24.4964 22.0248 24.4354 22.0808 24.3694C22.1438 24.2944 22.2068 24.2144 22.2698 24.1344C22.3078 24.0864 22.3468 24.0414 22.3848 23.9914L22.4458 23.9024L22.7348 23.4854L22.8058 23.3834C22.8138 23.3704 22.8208 23.3544 22.8288 23.3414C22.9728 23.1074 23.1068 22.8604 23.2268 22.6024C23.2398 22.5754 23.2568 22.5514 23.2688 22.5244H23.2638C23.0778 22.5324 22.7438 22.5644 22.5148 22.6944C22.2538 22.8424 21.7458 22.9954 21.3758 23.0074L21.3778 23.0084Z" fill="#F7EB00"/>
<path d="M19.4631 20.7842H19.3281V21.3052C19.3731 21.3562 19.4181 21.4152 19.4631 21.4772V20.7842Z" fill="black"/>
<path d="M19.3281 22.3451C19.3741 22.3441 19.4191 22.3431 19.4631 22.3401V22.2121C19.4201 22.2081 19.3751 22.2061 19.3281 22.2051V22.3461V22.3451Z" fill="black"/>
<path d="M20.799 17.9171C20.796 17.9641 20.771 18.0001 20.737 18.0241C20.737 18.0271 20.74 18.0281 20.74 18.0311C20.74 18.1071 20.684 18.1681 20.614 18.1681C20.591 18.1681 20.573 18.1531 20.554 18.1411C20.55 18.1511 20.549 18.1621 20.543 18.1701L20.595 18.1661C20.594 18.1951 20.593 18.2271 20.592 18.2571C20.66 18.2941 20.713 18.3611 20.679 18.3981L20.763 18.3731L20.746 18.5911L20.823 18.5391L20.812 18.7001L20.876 18.6681L20.853 18.8751L20.93 18.8241L20.936 19.0741L21.025 19.0041L21.019 19.3001L21.107 19.2231V19.4671L21.191 19.4031L21.28 19.6411L21.262 19.2871L21.327 19.3451L21.208 19.0941L21.298 19.0811L21.202 18.9141L21.291 18.9211L21.16 18.7531L21.249 18.7341L21.052 18.5791L21.16 18.5341L20.958 18.3921L21.035 18.3601L20.893 18.1991L21.041 18.2641L21.089 18.1611L21.267 18.3161V18.1611L21.422 18.3931L21.44 18.2511L21.558 18.4311L21.582 18.3481L21.665 18.5281L21.707 18.3931L21.79 18.5861L21.814 18.4501L21.891 18.6631L21.963 18.5791L21.999 18.7981L22.07 18.7141L22.134 18.9071L22.218 18.8361L22.289 19.0561C22.289 19.0561 22.436 18.1341 21.29 17.9141L21.292 17.9281L20.799 17.9171Z" fill="#00936C"/>
<path d="M20.4525 18.2244C20.3885 18.2244 20.3355 18.1674 20.3355 18.0974C20.3355 18.0384 20.3755 17.9974 20.4245 17.9824C20.3705 17.9674 20.3275 17.9214 20.3275 17.8584C20.3275 17.8294 20.3415 17.8064 20.3555 17.7854L20.3355 17.7694L20.3035 17.7634H20.3055C20.3055 17.7634 19.7995 17.4414 19.1105 17.5954C18.4205 17.7504 18.2715 18.2204 18.2715 18.2204L18.5045 18.1044L18.5105 18.2084L18.7185 18.0664L18.7245 18.1694L18.9035 17.9894L18.9335 18.1054L19.0945 17.9504L19.1065 18.0334L19.3685 17.8534V17.9694L19.5775 17.8664L19.5595 17.9764L19.9515 17.8994C19.9515 17.8994 19.0245 18.2344 18.9055 19.0394L19.0835 18.8084L19.1015 18.9174L19.2135 18.6734L19.2435 18.7694L19.3445 18.5444L19.3745 18.6794L19.5295 18.4344L19.5425 18.5764L19.7205 18.3124V18.4404L19.9105 18.2144L19.9045 18.3824C19.9045 18.3824 20.0885 18.2144 20.1475 18.2144L19.9275 18.5244L19.9995 18.5504C19.9995 18.5504 19.8445 18.6854 19.8325 18.7114C19.8205 18.7374 19.9345 18.7114 19.9345 18.7114C19.9345 18.7114 19.7975 18.8664 19.7915 18.9104C19.7855 18.9554 19.8805 18.9104 19.8805 18.9104C19.8805 18.9104 19.7555 19.0844 19.7375 19.1494C19.7205 19.2134 19.8025 19.1614 19.8025 19.1614C19.8025 19.1614 19.7255 19.3674 19.7195 19.4254C19.7135 19.4824 19.8075 19.4124 19.8075 19.4124L19.8615 19.7664L19.9565 19.3414L20.0165 19.4384V19.1354L20.0705 19.1864L20.0635 18.9874L20.1355 19.0644L20.0995 18.8194L20.1765 18.9164L20.1645 18.7104L20.2415 18.7944V18.5234L20.3125 18.5944L20.3245 18.4074L20.4085 18.4524C20.4085 18.4524 20.4185 18.3094 20.4735 18.2574C20.4735 18.2434 20.4755 18.2264 20.4765 18.2174C20.4695 18.2184 20.4645 18.2264 20.4575 18.2264L20.4525 18.2244Z" fill="#00936C"/>
<path d="M20.4824 17.9827C20.4904 17.9847 20.4964 17.9887 20.5034 17.9927C20.5064 17.9847 20.5084 17.9767 20.5124 17.9697C20.5024 17.9757 20.4934 17.9797 20.4824 17.9827Z" fill="#00936C"/>
<path d="M20.4532 17.7217C20.4832 17.7217 20.5082 17.7367 20.5302 17.7557C20.5012 17.6247 20.4122 17.4397 20.4122 17.4397L20.4642 17.4217C20.3002 17.2027 19.8792 16.6927 19.5332 16.7177L19.6272 16.8467L19.5802 16.8857L19.7412 16.9827L19.7052 17.0537L19.8662 17.1187L19.8062 17.1707L19.9492 17.2607L19.8542 17.2927L20.0262 17.3827L20.0022 17.4657L20.1512 17.5047L20.0862 17.5627L20.2582 17.7107L20.3362 17.7697L20.3562 17.7857C20.3792 17.7497 20.4112 17.7227 20.4542 17.7227L20.4532 17.7217Z" fill="#00936C"/>
<path d="M20.5303 17.7563C20.5503 17.7733 20.5593 17.7973 20.5663 17.8243C20.5873 17.7943 20.6173 17.7763 20.6533 17.7713C20.6733 17.6513 20.7193 17.5193 20.7903 17.3873C20.7943 17.2123 20.7933 17.0443 20.7803 17.0013L20.7203 17.0463L20.7383 16.7753L20.6493 16.8343L20.6323 16.5123L20.5433 16.6153L20.5193 16.2993L20.4543 16.4093L20.3893 16.0993L20.3183 16.1953L20.2533 15.9963L20.1993 16.0733L20.0513 15.9053L20.1163 16.0733L20.0273 16.0923L20.2293 16.3113L20.0683 16.3173L20.2643 16.4843L20.1693 16.5173L20.3483 16.7103L20.2533 16.7613L20.4383 16.9613L20.3133 17.0123L20.5213 17.2183L20.4033 17.2253L20.5273 17.3993L20.4663 17.4203L20.4143 17.4383C20.4143 17.4383 20.5033 17.6233 20.5323 17.7543L20.5303 17.7563Z" fill="#00936C"/>
<path d="M20.6664 17.7643C20.7404 17.7643 20.8014 17.8293 20.8014 17.9103C20.8014 17.9133 20.7984 17.9153 20.7984 17.9183L21.2904 17.9293L21.2884 17.9153L21.2724 17.8003L21.4574 17.8133L21.4394 17.7033L21.6244 17.7683L21.5884 17.6653L21.8024 17.7753L21.7664 17.6783L21.9324 17.7813L21.9094 17.6723L22.0694 17.7623L22.0464 17.6723L22.2014 17.7943L22.1834 17.6843L22.4034 17.7873C22.1234 17.2023 20.9824 17.5173 20.9824 17.5173C21.0054 17.4783 21.3454 17.3503 21.3454 17.3503L21.2074 17.2723L21.4214 17.2473L21.3144 17.1373L21.4634 17.1053L21.6524 17.0793L21.5214 16.9823L21.7774 16.9633L21.6704 16.8923L21.8844 16.8083L21.7764 16.7563L21.9614 16.6533C21.3704 16.6723 20.9824 17.0233 20.7874 17.3863C20.7164 17.5183 20.6704 17.6503 20.6504 17.7703C20.6554 17.7703 20.6594 17.7633 20.6644 17.7633L20.6664 17.7643Z" fill="#00936C"/>
<path d="M34.5 8.5H6.5C4.291 8.5 2.5 10.291 2.5 12.5V28.5C2.5 30.709 4.291 32.5 6.5 32.5H34.5C36.709 32.5 38.5 30.709 38.5 28.5V12.5C38.5 10.291 36.709 8.5 34.5 8.5ZM36.607 30.563H4.444V10.437H36.607V30.563Z" fill="#D7144A"/>
<path d="M20.5063 26.4918C20.5063 26.4918 24.1693 23.9138 24.1693 20.4608C24.1693 17.0078 20.5063 14.5078 20.5063 14.5078C20.5063 14.5078 16.8203 17.2398 16.8203 20.4608C16.8203 23.6818 20.5063 26.4918 20.5063 26.4918ZM18.0303 23.1488H18.0323C17.7393 22.6488 17.4913 22.1008 17.3503 21.5168H17.3533C17.2703 21.1748 17.2233 20.8218 17.2233 20.4608C17.2233 17.4458 20.5063 15.0748 20.5063 15.0748C20.5063 15.0748 23.7413 17.3688 23.7413 20.4608C23.7413 20.5838 23.7293 20.7038 23.7193 20.8248C23.7213 20.8238 23.7233 20.8228 23.7253 20.8218L23.7143 20.8998C23.7053 20.9928 23.6913 21.0838 23.6773 21.1748L23.6563 21.3268C23.6443 21.3848 23.6323 21.4418 23.6193 21.4988C23.6173 21.5078 23.6163 21.5168 23.6143 21.5258H23.6093C23.5273 21.8738 23.4073 22.2058 23.2653 22.5238H23.2703C23.2583 22.5518 23.2413 22.5748 23.2283 22.6018C23.1083 22.8598 22.9753 23.1068 22.8303 23.3408C22.8223 23.3538 22.8163 23.3698 22.8073 23.3828L22.7363 23.4848C22.6423 23.6288 22.5463 23.7678 22.4473 23.9018L22.3863 23.9908C22.3483 24.0408 22.3093 24.0848 22.2713 24.1338C22.2083 24.2138 22.1453 24.2938 22.0823 24.3688C22.0263 24.4348 21.9723 24.4958 21.9163 24.5578C21.8693 24.6098 21.8233 24.6628 21.7773 24.7128C21.7223 24.7718 21.6693 24.8278 21.6163 24.8828C21.5713 24.9298 21.5283 24.9738 21.4843 25.0168C21.4323 25.0688 21.3813 25.1198 21.3313 25.1678C21.2943 25.2028 21.2603 25.2338 21.2253 25.2668C21.1093 25.3748 21.0033 25.4708 20.9083 25.5518C20.8993 25.5588 20.8903 25.5678 20.8813 25.5748C20.8263 25.6218 20.7793 25.6608 20.7343 25.6978C20.7253 25.7058 20.7153 25.7128 20.7073 25.7198C20.5683 25.8328 20.4793 25.8978 20.4793 25.8978C20.4793 25.8978 20.0563 25.5808 19.5173 25.0398C19.5143 25.0368 19.5123 25.0348 19.5093 25.0318C19.2923 24.8138 19.0583 24.5608 18.8233 24.2738C18.8173 24.2668 18.8113 24.2578 18.8053 24.2498C18.6843 24.1018 18.5633 23.9438 18.4453 23.7798C18.4303 23.7588 18.4163 23.7398 18.4013 23.7198C18.2793 23.5458 18.1613 23.3648 18.0493 23.1758C18.0433 23.1658 18.0363 23.1568 18.0313 23.1468L18.0303 23.1488Z" fill="#D7144A"/>
<path d="M18.777 20.6004L18.791 20.7214H18.885V20.2044H18.599V20.3654H18.759C18.751 20.4284 18.732 20.4804 18.701 20.5194C18.67 20.5584 18.631 20.5784 18.583 20.5784C18.534 20.5784 18.491 20.5534 18.452 20.5054C18.414 20.4554 18.394 20.3714 18.394 20.2524C18.394 20.1354 18.411 20.0464 18.447 19.9884C18.483 19.9284 18.528 19.9004 18.584 19.9004C18.613 19.9004 18.639 19.9074 18.662 19.9224C18.704 19.9484 18.731 19.9944 18.742 20.0594H18.883C18.875 19.9664 18.845 19.8894 18.792 19.8274C18.739 19.7654 18.669 19.7344 18.582 19.7344C18.481 19.7344 18.4 19.7814 18.34 19.8754C18.278 19.9694 18.248 20.0944 18.248 20.2504C18.248 20.4044 18.279 20.5264 18.339 20.6154C18.397 20.7034 18.471 20.7484 18.562 20.7484C18.618 20.7484 18.664 20.7314 18.701 20.6994C18.723 20.6804 18.748 20.6474 18.776 20.6014L18.777 20.6004Z" fill="#D7144A"/>
<path d="M19.8326 20.7458C19.9516 20.7458 20.0326 20.6928 20.0746 20.5898C20.0966 20.5328 20.1086 20.4528 20.1086 20.3508V19.7578H19.9626V20.3508C19.9626 20.4168 19.9576 20.4648 19.9466 20.4958C19.9296 20.5498 19.8916 20.5768 19.8346 20.5768C19.7756 20.5768 19.7386 20.5488 19.7216 20.4958C19.7096 20.4648 19.7046 20.4168 19.7046 20.3508V19.7578H19.5586V20.3508C19.5586 20.4528 19.5706 20.5328 19.5936 20.5898C19.6356 20.6948 19.7166 20.7458 19.8346 20.7458H19.8326Z" fill="#D7144A"/>
<path d="M21.0966 19.7568L20.8516 20.7208H21.0016L21.0486 20.5228H21.3016L21.3456 20.7208H21.5006L21.2586 19.7568H21.0966ZM21.0866 20.3568L21.1756 19.9778L21.2626 20.3568H21.0866Z" fill="#D7144A"/>
<path d="M22.0742 19.7568V20.7208H22.2082V19.9908C22.2082 19.9568 22.2082 19.9308 22.2082 19.9128L22.3372 20.7218H22.4762L22.6062 19.9128C22.6062 19.9308 22.6062 19.9568 22.6062 19.9908V20.7208H22.7402V19.7568H22.5332L22.4102 20.5138L22.2852 19.7568H22.0762H22.0742Z" fill="#D7144A"/>
<path d="M19.3294 21.304C19.0474 20.987 18.7774 20.873 18.7774 20.873C18.8154 21.113 18.8024 21.324 18.7734 21.518C18.7054 21.976 18.5234 22.283 18.5234 22.283H18.7454C18.9114 22.211 19.1304 22.198 19.3294 22.205C19.3754 22.207 19.4204 22.209 19.4644 22.212C19.6764 22.23 19.8404 22.265 19.8404 22.265C19.7534 21.953 19.6284 21.712 19.4944 21.517C19.4844 21.503 19.4744 21.49 19.4644 21.476C19.4194 21.414 19.3754 21.355 19.3294 21.304Z" fill="#E3E7EA"/>
<path d="M19.5351 22.6842C19.4441 22.6942 19.3331 22.7022 19.2171 22.7022C19.0941 22.7022 18.9691 22.6922 18.8661 22.6812V22.5932C18.8281 22.5902 18.8011 22.5842 18.7681 22.5792V22.6692C18.6831 22.6572 18.6291 22.6472 18.6291 22.6472C18.6291 22.6472 18.6021 22.8082 19.2091 22.8082C19.8161 22.8082 19.7681 22.6512 19.7681 22.6512C19.7681 22.6512 19.7131 22.6612 19.6251 22.6732V22.5732C19.5961 22.5782 19.5701 22.5842 19.5371 22.5882V22.6842H19.5351Z" fill="#7B490F"/>
<path d="M21.8074 23.743C22.0134 23.76 22.0524 23.511 21.9494 23.451C21.8594 23.398 21.6244 23.265 21.3794 23.008C21.1324 22.749 20.8754 22.365 20.7444 21.81C20.7254 21.731 20.7084 21.635 20.6934 21.527C20.6744 21.395 20.6584 21.241 20.6434 21.075C20.5734 20.275 20.5554 19.146 20.5914 18.258C20.5924 18.229 20.5934 18.196 20.5944 18.167L20.5424 18.171C20.5254 18.196 20.5014 18.21 20.4724 18.216C20.4724 18.225 20.4704 18.242 20.4694 18.256C20.4484 18.557 20.3774 19.873 20.4794 21.069C20.4924 21.225 20.5074 21.38 20.5264 21.527C20.5544 21.737 20.5884 21.937 20.6324 22.119C20.7164 22.468 20.8594 22.744 21.0134 22.984C21.3144 23.454 21.6714 23.731 21.8074 23.743Z" fill="#7B490F"/>
<path d="M19.1897 22.3506C18.6987 22.3506 18.3017 22.3166 18.3017 22.3166C18.3017 22.3166 18.2587 22.5096 18.7667 22.5806C18.7997 22.5856 18.8267 22.5916 18.8647 22.5946C18.9577 22.6036 19.0637 22.6086 19.1897 22.6086C19.3247 22.6086 19.4357 22.6006 19.5337 22.5886C19.5667 22.5846 19.5927 22.5786 19.6217 22.5736C20.1247 22.4886 20.0927 22.2646 20.0927 22.2646C20.0927 22.2646 19.8227 22.3176 19.4627 22.3396C19.4197 22.3426 19.3737 22.3436 19.3277 22.3446C19.2807 22.3456 19.2377 22.3496 19.1887 22.3496L19.1897 22.3506Z" fill="#7B490F"/>
<path d="M20.5787 17.8577C20.5787 17.8827 20.5647 17.9017 20.5547 17.9217C20.5737 17.9097 20.5907 17.8947 20.6137 17.8947C20.6817 17.8947 20.7327 17.9527 20.7367 18.0237C20.7717 17.9987 20.7967 17.9637 20.7987 17.9167C20.7987 17.9137 20.8017 17.9117 20.8017 17.9087C20.8017 17.8277 20.7407 17.7627 20.6667 17.7627C20.6607 17.7627 20.6577 17.7687 20.6527 17.7697C20.6167 17.7747 20.5867 17.7927 20.5657 17.8227C20.5687 17.8347 20.5787 17.8447 20.5787 17.8577Z" fill="#7B490F"/>
<path d="M20.4812 17.9817C20.4922 17.9787 20.5022 17.9737 20.5112 17.9677C20.5222 17.9467 20.5352 17.9337 20.5542 17.9217C20.5652 17.9017 20.5782 17.8827 20.5782 17.8577C20.5782 17.8447 20.5682 17.8357 20.5652 17.8237C20.5582 17.7967 20.5492 17.7727 20.5292 17.7557C20.5072 17.7367 20.4822 17.7217 20.4522 17.7217C20.4092 17.7217 20.3772 17.7487 20.3542 17.7847C20.3402 17.8067 20.3262 17.8297 20.3262 17.8577C20.3262 17.9217 20.3702 17.9667 20.4232 17.9817C20.4332 17.9787 20.4402 17.9687 20.4522 17.9687C20.4632 17.9687 20.4702 17.9787 20.4812 17.9817Z" fill="#7B490F"/>
<path d="M20.4879 18.0318C20.4879 18.0158 20.4989 18.0058 20.5039 17.9908C20.4969 17.9868 20.4899 17.9838 20.4829 17.9808C20.4729 17.9778 20.4659 17.9678 20.4539 17.9678C20.4429 17.9678 20.4359 17.9778 20.4249 17.9808C20.3759 17.9958 20.3359 18.0368 20.3359 18.0958C20.3359 18.1658 20.3889 18.2228 20.4529 18.2228C20.4609 18.2228 20.4649 18.2158 20.4719 18.2138C20.5009 18.2078 20.5249 18.1938 20.5419 18.1688C20.5479 18.1608 20.5489 18.1498 20.5529 18.1398C20.5159 18.1158 20.4869 18.0798 20.4869 18.0298L20.4879 18.0318Z" fill="#7B490F"/>
<path d="M20.6133 17.8945C20.5903 17.8945 20.5733 17.9095 20.5543 17.9215C20.5353 17.9335 20.5223 17.9475 20.5113 17.9675C20.5073 17.9745 20.5053 17.9825 20.5023 17.9905C20.4973 18.0045 20.4863 18.0155 20.4863 18.0315C20.4863 18.0825 20.5153 18.1175 20.5523 18.1415C20.5713 18.1535 20.5883 18.1685 20.6123 18.1685C20.6823 18.1685 20.7383 18.1075 20.7383 18.0315C20.7383 18.0285 20.7353 18.0265 20.7353 18.0245C20.7313 17.9525 20.6793 17.8955 20.6123 17.8955L20.6133 17.8945Z" fill="#7B490F"/>
<path d="M21.0879 20.3565H21.2639L21.1769 19.9775L21.0879 20.3565Z" fill="#3C93D2"/>
</svg>
