<svg width="41" height="41" viewBox="0 0 41 41" fill="none" xmlns="http://www.w3.org/2000/svg">
<path d="M34.5 8.5H6.5C4.29086 8.5 2.5 10.2909 2.5 12.5V28.5C2.5 30.7091 4.29086 32.5 6.5 32.5H34.5C36.7091 32.5 38.5 30.7091 38.5 28.5V12.5C38.5 10.2909 36.7091 8.5 34.5 8.5Z" fill="#00A03E"/>
<path d="M3.94141 9.44593L5.85941 10.6379L37.7574 20.5499L5.85841 30.4619L4.00941 31.6109C4.15741 31.7299 4.31141 31.8379 4.47641 31.9349L38.4984 21.3629V19.7359L4.36141 9.12793C4.21241 9.22293 4.07641 9.33293 3.94141 9.44593Z" fill="#E3E7EA"/>
<path d="M5.85938 30.4617L37.7584 20.5487L5.86037 10.6377L21.8094 20.5487L5.85938 30.4617Z" fill="#F9CF00"/>
<path d="M3.94147 9.44629C3.77547 9.58529 3.62247 9.73529 3.48047 9.89929L5.85947 10.6383L3.94147 9.44629Z" fill="black"/>
<path d="M3.54688 31.1799C3.68888 31.3369 3.84487 31.4779 4.01087 31.6099L5.85988 30.4609L3.54788 31.1799H3.54688Z" fill="black"/>
<path d="M21.8097 20.5494L5.86072 10.6384L3.48172 9.89941C3.35872 10.0424 3.23872 10.1864 3.13672 10.3454L19.5567 20.5494L3.17772 30.7294C3.28672 30.8914 3.41672 31.0364 3.54772 31.1804L5.85972 30.4614L21.8097 20.5494Z" fill="black"/>
<path d="M19.557 20.5487L3.137 10.3447C2.738 10.9667 2.5 11.7017 2.5 12.4957V28.5047C2.5 29.3287 2.75 30.0937 3.177 30.7297L19.557 20.5487Z" fill="#CF002E"/>
</svg>
