<svg width="41" height="41" viewBox="0 0 41 41" fill="none" xmlns="http://www.w3.org/2000/svg">
<path d="M19.7513 17.049L19.8333 17.101C19.2263 17.993 19.2613 19.553 20.3363 20.359C19.6063 19.49 20.1653 18.465 20.8633 18.141C21.8233 17.695 22.0993 16.449 21.6053 15.711C21.1543 15.038 21.5113 14.388 22.0593 14.121C20.5793 13.994 19.1893 14.837 18.6333 16.2C17.9683 17.831 18.7063 19.663 20.2723 20.432C19.0973 19.551 19.1683 17.872 19.7513 17.049ZM19.9673 16.042L20.2703 16.307L20.6193 16.104L20.4583 16.471L20.7613 16.736L20.3583 16.698L20.1973 17.065L20.1093 16.674L19.7073 16.636L20.0553 16.433L19.9673 16.042Z" fill="#E3E7EA"/>
<path d="M24.104 17.4466C22.33 17.3246 20.796 18.5856 20.543 20.2986C21.026 18.9196 22.662 18.4676 23.633 18.7616L23.609 18.8546C22.565 18.5596 21.075 19.0736 20.632 20.3346C21.242 19.3786 22.4 19.5886 22.926 20.1436C23.652 20.9096 24.935 20.7836 25.492 20.0916C26 19.4586 26.735 19.5936 27.161 20.0276C26.827 18.5956 25.586 17.5486 24.104 17.4456V17.4466ZM24.245 19.6146L24.157 19.2246L23.754 19.1866L24.103 18.9836L24.015 18.5926L24.318 18.8576L24.667 18.6546L24.506 19.0216L24.809 19.2866L24.406 19.2486L24.245 19.6146Z" fill="#E3E7EA"/>
<path d="M16.9046 20.1727L16.9796 20.1117C17.6496 20.9587 19.1596 21.4077 20.2666 20.6447C19.2056 21.0637 18.3926 20.2207 18.2966 19.4647C18.1646 18.4227 17.0516 17.7777 16.1896 18.0157C15.4036 18.2317 14.8886 17.6947 14.8016 17.0967C14.2216 18.4497 14.6026 20.0187 15.7416 20.9627C17.1036 22.0927 19.0926 21.9637 20.3146 20.7287C19.1046 21.5617 17.5146 20.9747 16.9046 20.1727ZM16.0036 19.6577L16.3516 19.4547L16.2636 19.0637L16.5676 19.3287L16.9156 19.1257L16.7546 19.4927L17.0576 19.7577L16.6546 19.7197L16.4936 20.0867L16.4056 19.6957L16.0026 19.6577H16.0036Z" fill="#E3E7EA"/>
<path d="M23.1861 22.9454L23.0891 22.9504C23.0501 21.8754 22.0941 20.6324 20.7441 20.6064C21.8541 20.8834 22.0101 22.0384 21.6391 22.7064C21.1271 23.6264 21.6441 24.7954 22.4831 25.1044C23.2471 25.3864 23.3451 26.1214 23.0601 26.6554C24.3331 25.8974 24.9561 24.4064 24.5961 22.9814C24.1651 21.2754 22.4801 20.2224 20.7561 20.5114C22.2301 20.5394 23.1691 21.9404 23.1861 22.9454ZM23.6101 23.8854L23.2071 23.8474L23.0461 24.2144L22.9581 23.8234L22.5551 23.7854L22.9041 23.5814L22.8161 23.1904L23.1191 23.4554L23.4671 23.2524L23.3061 23.6194L23.6091 23.8844L23.6101 23.8854Z" fill="#E3E7EA"/>
<path d="M19.0269 23.8173L18.9909 23.7273C20.0119 23.3593 20.9119 22.0743 20.5189 20.7963C20.5959 21.9263 19.5329 22.4313 18.7759 22.2863C17.7339 22.0893 16.7699 22.9373 16.7319 23.8213C16.6969 24.6273 16.0209 24.9463 15.4199 24.8433C16.5409 25.8073 18.1669 25.9333 19.4259 25.1543C20.9329 24.2213 21.4249 22.3103 20.6129 20.7783C21.0409 22.1733 19.9859 23.4903 19.0259 23.8173H19.0269ZM18.2539 24.5053L18.1659 24.1153L17.7629 24.0773L18.1119 23.8743L18.0239 23.4833L18.3269 23.7483L18.6749 23.5453L18.5139 23.9123L18.8169 24.1773L18.4139 24.1393L18.2539 24.5053Z" fill="#E3E7EA"/>
<path d="M34.994 8.54883H6.006C4.033 8.79283 2.5 10.4558 2.5 12.4948V28.5038C2.5 30.7108 4.289 32.4998 6.495 32.4998H34.504C36.711 32.4998 38.499 30.7108 38.499 28.5038V12.4958C38.499 10.4568 36.966 8.79283 34.993 8.54983L34.994 8.54883ZM25.492 20.0918C24.935 20.7848 23.652 20.9108 22.926 20.1438C22.399 19.5888 21.241 19.3788 20.632 20.3348C20.62 20.3698 20.604 20.4028 20.593 20.4398C20.614 20.4578 20.623 20.4818 20.631 20.5078C20.673 20.5068 20.713 20.5108 20.755 20.5118C22.479 20.2218 24.165 21.2748 24.595 22.9818C24.955 24.4078 24.331 25.8988 23.059 26.6558C23.344 26.1218 23.246 25.3868 22.482 25.1048C21.644 24.7948 21.126 23.6258 21.638 22.7068C22.01 22.0388 21.853 20.8838 20.743 20.6068C20.704 20.6068 20.665 20.6008 20.625 20.6028C20.614 20.6278 20.602 20.6478 20.579 20.6628C20.593 20.7018 20.601 20.7398 20.613 20.7778C21.424 22.3098 20.933 24.2218 19.426 25.1538C18.167 25.9328 16.541 25.8068 15.42 24.8428C16.022 24.9458 16.697 24.6268 16.732 23.8208C16.771 22.9368 17.734 22.0888 18.776 22.2858C19.533 22.4298 20.595 21.9248 20.519 20.7958C20.508 20.7608 20.501 20.7258 20.489 20.6918C20.46 20.6898 20.436 20.6768 20.414 20.6608C20.381 20.6858 20.347 20.7048 20.314 20.7278C19.092 21.9638 17.103 22.0918 15.741 20.9618C14.603 20.0178 14.221 18.4488 14.801 17.0958C14.888 17.6938 15.403 18.2308 16.189 18.0148C17.051 17.7778 18.164 18.4218 18.296 19.4638C18.392 20.2198 19.205 21.0628 20.266 20.6438C20.299 20.6218 20.332 20.6028 20.364 20.5788C20.361 20.5678 20.351 20.5598 20.351 20.5478C20.351 20.5308 20.364 20.5198 20.369 20.5048C20.334 20.4808 20.304 20.4538 20.271 20.4288C18.705 19.6608 17.966 17.8278 18.632 16.1968C19.188 14.8338 20.578 13.9908 22.058 14.1178C21.51 14.3848 21.153 15.0348 21.604 15.7078C22.098 16.4458 21.822 17.6918 20.862 18.1378C20.165 18.4618 19.605 19.4868 20.335 20.3558C20.367 20.3798 20.395 20.4058 20.429 20.4288C20.451 20.4158 20.472 20.3998 20.5 20.3998C20.502 20.3998 20.503 20.4018 20.505 20.4018C20.516 20.3648 20.531 20.3318 20.544 20.2968C20.798 18.5848 22.331 17.3228 24.105 17.4448C25.587 17.5468 26.827 18.5948 27.162 20.0268C26.737 19.5928 26.001 19.4578 25.493 20.0908L25.492 20.0918Z" fill="#DE001B"/>
<path d="M20.1071 16.674L20.1951 17.065L20.3561 16.698L20.7591 16.736L20.4561 16.471L20.6171 16.104L20.2681 16.307L19.9651 16.042L20.0531 16.433L19.7051 16.636L20.1071 16.674Z" fill="#DE001B"/>
<path d="M20.4286 20.4309C20.3946 20.4089 20.3666 20.3819 20.3346 20.3579C19.2596 19.5519 19.2256 17.9919 19.8316 17.0999L19.7496 17.0479C19.1666 17.8709 19.0956 19.5479 20.2706 20.4299C20.3036 20.4549 20.3336 20.4819 20.3686 20.5059C20.3796 20.4729 20.3976 20.4489 20.4276 20.4309H20.4286Z" fill="#DE001B"/>
<path d="M24.5069 19.0218L24.6689 18.6548L24.3199 18.8578L24.0169 18.5928L24.1049 18.9838L23.7559 19.1868L24.1589 19.2248L24.2459 19.6148L24.4079 19.2488L24.8099 19.2868L24.5069 19.0218Z" fill="#DE001B"/>
<path d="M23.6089 18.8543L23.6329 18.7613C22.6619 18.4673 21.0259 18.9193 20.5429 20.2983C20.5309 20.3333 20.5149 20.3663 20.5039 20.4033C20.5379 20.4043 20.5679 20.4193 20.5929 20.4393C20.6039 20.4033 20.6189 20.3703 20.6319 20.3343C21.0749 19.0733 22.5639 18.5583 23.6089 18.8543Z" fill="#DE001B"/>
<path d="M16.6549 19.7195L17.0579 19.7575L16.7549 19.4925L16.9159 19.1255L16.5679 19.3295L16.2639 19.0635L16.3519 19.4555L16.0039 19.6585L16.4059 19.6965L16.4939 20.0865L16.6549 19.7195Z" fill="#DE001B"/>
<path d="M20.3643 20.5803C20.3323 20.6043 20.2993 20.6233 20.2663 20.6453C19.1593 21.4073 17.6483 20.9583 16.9793 20.1123L16.9043 20.1733C17.5143 20.9753 19.1053 21.5613 20.3143 20.7283C20.3473 20.7053 20.3823 20.6863 20.4143 20.6613C20.3873 20.6413 20.3723 20.6133 20.3643 20.5803Z" fill="#DE001B"/>
<path d="M23.1187 23.4554L22.8157 23.1904L22.9037 23.5814L22.5547 23.7844L22.9577 23.8234L23.0447 24.2144L23.2067 23.8464L23.6087 23.8844L23.3057 23.6194L23.4667 23.2524L23.1187 23.4554Z" fill="#DE001B"/>
<path d="M20.649 20.5492C20.649 20.5702 20.635 20.5852 20.627 20.6032C20.667 20.6022 20.705 20.6062 20.745 20.6072C22.095 20.6332 23.051 21.8762 23.09 22.9512L23.187 22.9462C23.17 21.9412 22.23 20.5422 20.757 20.5132C20.715 20.5132 20.676 20.5072 20.633 20.5092C20.638 20.5232 20.65 20.5342 20.65 20.5502L20.649 20.5492Z" fill="#DE001B"/>
<path d="M18.5147 23.9114L18.6757 23.5444L18.3277 23.7474L18.0237 23.4824L18.1117 23.8734L17.7637 24.0764L18.1657 24.1144L18.2537 24.5054L18.4147 24.1384L18.8177 24.1764L18.5147 23.9114Z" fill="#DE001B"/>
<path d="M20.5002 20.6971C20.5002 20.6971 20.4942 20.6931 20.4902 20.6931C20.5032 20.7281 20.5092 20.7631 20.5202 20.7971C20.9122 22.0751 20.0132 23.3591 18.9922 23.7281L19.0282 23.8181C19.9882 23.4921 21.0432 22.1751 20.6152 20.7791C20.6032 20.7401 20.5962 20.7021 20.5812 20.6641C20.5572 20.6811 20.5322 20.6971 20.5002 20.6971Z" fill="#DE001B"/>
<path d="M20.5046 20.4034C20.5046 20.4034 20.5016 20.4014 20.4996 20.4014C20.4716 20.4014 20.4506 20.4174 20.4286 20.4304C20.3986 20.4484 20.3806 20.4724 20.3696 20.5054C20.3646 20.5204 20.3516 20.5314 20.3516 20.5484C20.3516 20.5604 20.3616 20.5684 20.3646 20.5794C20.3726 20.6134 20.3876 20.6404 20.4146 20.6604C20.4366 20.6764 20.4606 20.6894 20.4896 20.6914C20.4936 20.6914 20.4956 20.6954 20.4996 20.6954C20.5316 20.6954 20.5566 20.6784 20.5806 20.6624C20.6026 20.6464 20.6146 20.6274 20.6266 20.6024C20.6346 20.5844 20.6486 20.5694 20.6486 20.5484C20.6486 20.5324 20.6366 20.5224 20.6316 20.5074C20.6226 20.4814 20.6146 20.4564 20.5936 20.4394C20.5686 20.4184 20.5396 20.4044 20.5046 20.4034Z" fill="#DE001B"/>
</svg>
