<svg width="41" height="41" viewBox="0 0 41 41" fill="none" xmlns="http://www.w3.org/2000/svg">
<path d="M34.5 8.5H22.005V9.568L17.685 11.758H22.005V15.055H17.684L22.004 17.245V17.614V18.352H19.824L13.878 15.337V18.352H10.627V15.337L4.681 18.352H2.5V28.499C2.5 30.708 4.291 32.499 6.5 32.499H34.5C36.709 32.499 38.5 30.708 38.5 28.499V12.5C38.5 10.291 36.709 8.5 34.5 8.5ZM13.522 28.351L12.252 26.998L10.983 28.351L11.236 26.501L9.4 26.339L10.984 25.386L9.964 23.83L11.687 24.492L12.251 22.712L12.816 24.492L14.539 23.83L13.519 25.386L15.104 26.339L13.268 26.501L13.521 28.351H13.522ZM30.668 13.263L31.489 13.577L31.757 12.73L32.026 13.577L32.846 13.263L32.361 14.003L33.116 14.458L32.241 14.535L32.362 15.416L31.757 14.772L31.153 15.416L31.273 14.535L30.399 14.458L31.154 14.003L30.668 13.263ZM27.486 20.771L26.882 20.127L26.277 20.771L26.398 19.891L25.524 19.813L26.278 19.361L25.793 18.619L26.613 18.935L26.882 18.088L27.151 18.935L27.971 18.619L27.485 19.361L28.24 19.813L27.366 19.891L27.486 20.771ZM32.362 28.6L31.757 27.955L31.153 28.6L31.273 27.719L30.399 27.642L31.154 27.187L30.668 26.447L31.489 26.761L31.757 25.915L32.026 26.761L32.846 26.447L32.361 27.187L33.116 27.642L32.241 27.719L32.362 28.6ZM34.186 22.227L33.709 21.927L33.231 22.227L33.366 21.674L32.936 21.306L33.497 21.264L33.709 20.736L33.921 21.264L34.481 21.306L34.052 21.674L34.186 22.227ZM36.576 18.573L36.697 19.455L36.093 18.81L35.488 19.455L35.609 18.573L34.734 18.495L35.489 18.041L35.003 17.301L35.824 17.615L36.093 16.769L36.361 17.615L37.182 17.301L36.696 18.041L37.451 18.495L36.576 18.573Z" fill="#2F2680"/>
<path d="M19.7539 8.5H13.8789V11.478L19.7539 8.5Z" fill="#2F2680"/>
<path d="M10.626 11.478V8.5H6.49403C6.25903 8.5 6.03103 8.526 5.81003 8.569C5.61403 8.607 5.42303 8.66 5.23603 8.723C5.22603 8.726 5.21603 8.728 5.20703 8.731L10.626 11.478Z" fill="#2F2680"/>
<path d="M2.5 15.0557V17.2457L6.821 15.0557H2.5Z" fill="#2F2680"/>
<path d="M6.81922 11.7586L3.38322 10.0166C3.37822 10.0236 3.37422 10.0306 3.36822 10.0376C3.17722 10.2796 3.01122 10.5416 2.87822 10.8226C2.87722 10.8256 2.87522 10.8276 2.87422 10.8306C2.82822 10.9276 2.79222 11.0296 2.75522 11.1316C2.70822 11.2576 2.66822 11.3876 2.63522 11.5196C2.61522 11.5986 2.59022 11.6756 2.57422 11.7566V11.7596H6.82022L6.81922 11.7586Z" fill="#2F2680"/>
<path d="M11.277 14.396V15.008V18.353H13.228V15.008V14.396H16.383H22.005V12.419H16.384H13.228V11.807V8.5H11.277V11.808V12.419H8.122H2.508H2.5V12.496V12.5V14.396H8.123H11.277Z" fill="#FF0010"/>
<path d="M7.54861 11.759H9.00261L4.13161 9.29004C4.11461 9.30304 4.10061 9.31904 4.08461 9.33204C3.91561 9.46004 3.75361 9.59704 3.60761 9.75104C3.60461 9.75404 3.60161 9.75604 3.59961 9.75804L7.54861 11.759Z" fill="#FF0010"/>
<path d="M15.5048 11.759L21.9338 8.5H20.4808L14.0508 11.759H15.5048Z" fill="#FF0010"/>
<path d="M15.5039 15.0557L22.0049 18.3527H22.0059V17.6147H22.0049L16.9579 15.0557H15.5039Z" fill="#FF0010"/>
<path d="M10.456 15.0557H9.002L2.5 18.3527H3.954L10.456 15.0557Z" fill="#FF0010"/>
<path d="M13.2285 12.419H16.3845H22.0055V14.396H16.3835H13.2285V15.008V18.353H13.8785V15.338L19.8255 18.353H22.0055L15.5045 15.056H16.9585L22.0055 17.615V17.246L17.6855 15.056H22.0065V11.759H17.6855L22.0055 9.568V8.5H21.9335L15.5045 11.759H14.0505L20.4805 8.5H19.7535L13.8785 11.478V8.5H13.2285V11.807V12.419Z" fill="#E3E7EA"/>
<path d="M10.456 15.0565L3.954 18.3535H4.681L10.627 15.3385V18.3535H11.277V15.0085V14.3965H8.123H2.5V15.0565H6.821L2.5 17.2465V18.3535L9.002 15.0565H10.456Z" fill="#E3E7EA"/>
<path d="M8.12281 12.419H11.2788V8.5H10.6288V11.478L5.20981 8.731C5.20981 8.731 5.20281 8.734 5.19881 8.736C5.02481 8.796 4.85681 8.869 4.69481 8.951C4.65481 8.971 4.61581 8.994 4.57581 9.015C4.42681 9.096 4.28181 9.183 4.14481 9.283C4.14081 9.286 4.13681 9.288 4.13281 9.291L9.00381 11.76H7.54981L3.59981 9.759C3.52281 9.84 3.45581 9.93 3.38581 10.018L6.82181 11.76H2.57481C2.53481 11.975 2.51281 12.195 2.50781 12.42H8.12181L8.12281 12.419Z" fill="#E3E7EA"/>
<path d="M13.5194 25.3859L14.5394 23.8299L12.8164 24.4919L12.2514 22.7119L11.6884 24.4919L9.96539 23.8299L10.9844 25.3859L9.40039 26.3389L11.2364 26.5009L10.9824 28.3509L12.2514 26.9979L13.5214 28.3509L13.2684 26.5009L15.1044 26.3389L13.5194 25.3859Z" fill="#E3E7EA"/>
<path d="M32.3614 27.1871L32.8464 26.4461L32.0264 26.7611L31.7574 25.9141L31.4884 26.7611L30.6674 26.4461L31.1534 27.1871L30.3984 27.6411L31.2724 27.7181L31.1524 28.5991L31.7574 27.9541L32.3614 28.5991L32.2414 27.7181L33.1154 27.6411L32.3614 27.1871Z" fill="#E3E7EA"/>
<path d="M27.4844 19.3599L27.9704 18.6179L27.1504 18.9339L26.8814 18.0859L26.6124 18.9339L25.7924 18.6179L26.2774 19.3599L25.5234 19.8119L26.3974 19.8899L26.2764 20.7699L26.8814 20.1259L27.4854 20.7699L27.3654 19.8899L28.2394 19.8119L27.4844 19.3599Z" fill="#E3E7EA"/>
<path d="M31.2724 14.5355L31.1524 15.4155L31.7574 14.7715L32.3614 15.4155L32.2414 14.5355L33.1154 14.4585L32.3614 14.0035L32.8464 13.2635L32.0264 13.5775L31.7574 12.7305L31.4884 13.5775L30.6674 13.2635L31.1534 14.0035L30.3984 14.4585L31.2724 14.5355Z" fill="#E3E7EA"/>
<path d="M37.1824 17.2996L36.3614 17.6146L36.0934 16.7676L35.8244 17.6146L35.0034 17.2996L35.4894 18.0406L34.7344 18.4936L35.6084 18.5716L35.4884 19.4536L36.0934 18.8076L36.6974 19.4536L36.5764 18.5716L37.4514 18.4936L36.6964 18.0406L37.1824 17.2996Z" fill="#E3E7EA"/>
<path d="M33.9215 21.2634L33.7095 20.7344L33.4965 21.2634L32.9355 21.3044L33.3655 21.6724L33.2305 22.2264L33.7095 21.9254L34.1865 22.2264L34.0525 21.6724L34.4815 21.3044L33.9215 21.2634Z" fill="#E3E7EA"/>
</svg>
