<svg width="41" height="41" viewBox="0 0 41 41" fill="none" xmlns="http://www.w3.org/2000/svg">
<path d="M2.5 24.5H38.5V16.5H2.5V24.5ZM26.354 18.272L26.63 17.421L26.905 18.272H27.795L27.074 18.798L27.35 19.649L26.629 19.123L25.908 19.649L26.184 18.798L25.463 18.272H26.354ZM26.354 21.967L26.63 21.116L26.905 21.967H27.795L27.075 22.493L27.351 23.344L26.63 22.818L25.909 23.344L26.185 22.493L25.464 21.967H26.354ZM20.225 20.12L20.5 19.269L20.775 20.12H21.666L20.946 20.646L21.221 21.497L20.5 20.971L19.779 21.497L20.054 20.646L19.334 20.12H20.225ZM14.096 18.273L14.371 17.422L14.647 18.273H15.538L14.817 18.799L15.093 19.65L14.372 19.124L13.651 19.65L13.927 18.799L13.206 18.273H14.096ZM14.096 21.968L14.371 21.117L14.647 21.968H15.538L14.817 22.494L15.093 23.345L14.372 22.819L13.651 23.345L13.927 22.494L13.207 21.968H14.097H14.096Z" fill="#E3E7EA"/>
<path d="M2.5 28.5C2.5 30.709 4.291 32.5 6.5 32.5H34.5C36.709 32.5 38.5 30.709 38.5 28.5V24.5H2.5V28.5Z" fill="#374BA4"/>
<path d="M34.5 8.5H6.5C4.291 8.5 2.5 10.291 2.5 12.5V16.5H38.5V12.5C38.5 10.291 36.709 8.5 34.5 8.5Z" fill="#374BA4"/>
<path d="M19.779 21.4966L20.5 20.9706L21.221 21.4966L20.945 20.6456L21.666 20.1186H20.775L20.5 19.2686L20.225 20.1186H19.334L20.055 20.6456L19.779 21.4966Z" fill="#374BA4"/>
<path d="M25.9079 23.3442L26.6289 22.8182L27.3499 23.3442L27.0739 22.4932L27.7949 21.9672H26.9039L26.6299 21.1162L26.3539 21.9672H25.4629L26.1839 22.4932L25.9079 23.3442Z" fill="#374BA4"/>
<path d="M25.9079 19.6489L26.6289 19.1229L27.3499 19.6489L27.0739 18.7979L27.7949 18.2719H26.9039L26.6299 17.4209L26.3539 18.2719H25.4629L26.1839 18.7979L25.9079 19.6489Z" fill="#374BA4"/>
<path d="M13.6501 23.3442L14.3711 22.8182L15.0921 23.3442L14.8161 22.4932L15.5371 21.9672H14.6461L14.3701 21.1162L14.0961 21.9672H13.2051L13.9261 22.4932L13.6501 23.3442Z" fill="#374BA4"/>
<path d="M13.6501 19.6489L14.3711 19.1229L15.0921 19.6489L14.8161 18.7979L15.5371 18.2719H14.6461L14.3701 17.4209L14.0961 18.2719H13.2051L13.9261 18.7979L13.6501 19.6489Z" fill="#374BA4"/>
</svg>
