<svg width="41" height="41" viewBox="0 0 41 41" fill="none" xmlns="http://www.w3.org/2000/svg">
<path d="M24.543 22.946V23.882H16.456V20.5H2.5V28.5C2.5 30.709 4.291 32.5 6.5 32.5H34.5C36.709 32.5 38.5 30.709 38.5 28.5V20.5H24.543V22.946Z" fill="#D3003B"/>
<path d="M34.505 8.5H6.495C4.288 8.5 2.5 10.289 2.5 12.496V20.5H16.457V17.118H24.544V20.5H38.501V12.496C38.501 10.289 36.711 8.5 34.505 8.5Z" fill="#2F2D91"/>
<path d="M19.3311 20.9676H19.3461L18.3331 20.1406C18.3191 20.1446 18.3091 20.1426 18.2951 20.1506C18.2341 20.1806 18.1911 20.2686 18.1421 20.3296L18.1191 20.8536L19.2081 21.4476L19.3321 20.9686L19.3311 20.9676Z" fill="#00209F"/>
<path d="M19.485 20.9679H19.559L19.575 20.8749L19.618 20.4969L18.88 19.6689C18.786 19.7089 18.735 19.8959 18.644 19.8939L18.627 20.2729L19.484 20.9669L19.485 20.9679Z" fill="#00209F"/>
<path d="M19.1596 21.6245L19.1776 21.5505H19.1806L19.1836 21.5395L17.8706 20.8135C17.8446 20.8255 17.8196 20.8355 17.7916 20.8595L17.7676 21.5785L19.1276 21.7445L19.1616 21.6255L19.1596 21.6245Z" fill="#00209F"/>
<path d="M21.8047 21.5365L21.8117 21.5625L21.8657 21.7435L23.2167 21.5785L23.1927 20.8595C23.1647 20.8355 23.1397 20.8255 23.1137 20.8135L21.8047 21.5365Z" fill="#00209F"/>
<path d="M22.1291 19.6924L21.3691 20.5714V20.5864L21.4111 20.5484L21.4621 20.9994L22.3571 20.2744L22.3391 19.8964C22.2571 19.8964 22.2061 19.7544 22.1291 19.6934V19.6924Z" fill="#00209F"/>
<path d="M22.6902 20.1496C22.6752 20.1426 22.6652 20.1446 22.6512 20.1396L21.6172 20.9846L21.6192 20.9926L21.6532 20.9676L21.7812 21.4456L22.8662 20.8536L22.8422 20.3296C22.7932 20.2686 22.7502 20.1806 22.6892 20.1506L22.6902 20.1496Z" fill="#00209F"/>
<path d="M20.0337 21.8985L19.9507 21.8535L19.8887 21.9295L19.9367 21.9565L20.0337 21.8985Z" fill="#F1B517"/>
<path d="M17.8695 20.8121L19.1825 21.5381L19.6755 21.8101L19.9305 21.8411L19.2055 21.4451L18.1165 20.8511L17.9425 20.7561L17.8085 20.6831C17.8085 20.6831 17.8045 20.6701 17.8035 20.6671C17.7965 20.6431 17.7665 20.5421 17.7595 20.5211C17.7515 20.4971 17.1445 20.4121 17.1445 20.4121L17.5175 20.7391L17.6035 20.7451L17.7685 20.7561L17.8695 20.8121Z" fill="#F1B517"/>
<path d="M18.2851 20.1022L18.3311 20.1402L19.3441 20.9672L20.1871 21.6562L20.2431 21.5832L19.4831 20.9682L18.6261 20.2742L18.4311 20.1162L18.3251 20.0302C18.3251 20.0302 18.3021 19.9912 18.2791 19.9492C18.2541 19.9052 18.2291 19.8562 18.2291 19.8442C18.2291 19.8202 17.7031 19.6172 17.7031 19.6172L18.0101 19.9822L18.1171 20.0292L18.2851 20.1022Z" fill="#F1B517"/>
<path d="M18.869 19.6566L18.88 19.6696L19.619 20.4976L20.342 21.3076V21.1856L20.203 21.0316L18.969 19.6666L18.924 19.6166L18.963 19.5136L18.982 19.4626L18.457 19.1426L18.676 19.6246L18.694 19.6276L18.869 19.6566Z" fill="#F1B517"/>
<path d="M18.628 22.7884C19.089 22.7884 19.194 22.2464 19.194 22.2464L19.534 22.6184L19.656 22.4804L19.634 22.4504L19.403 22.1404L19.742 22.1064L19.889 21.9294L19.952 21.8544L19.959 21.8464L19.932 21.8434L19.677 21.8124L19.126 21.7454L17.766 21.5794L17.672 21.5684L17.623 21.9404H18.06C18.06 21.9404 18.019 22.0204 18.019 22.1744C18.019 22.2224 18.041 22.3024 18.074 22.3874C18.148 22.5734 18.309 22.7904 18.626 22.7904L18.628 22.7884Z" fill="#F1B517"/>
<path d="M21.4603 20.9982L20.7383 21.5832L20.7953 21.6562L21.4913 21.0872L21.6163 20.9842L22.6503 20.1392L22.6963 20.1012L22.8643 20.0272L22.9713 19.9802L23.2793 19.6152C23.2793 19.6152 22.7533 19.8172 22.7533 19.8422C22.7533 19.8542 22.7283 19.9032 22.7033 19.9472C22.6793 19.9892 22.6563 20.0282 22.6563 20.0282L22.5503 20.1142L22.3553 20.2722L21.4603 20.9972V20.9982Z" fill="#F1B517"/>
<path d="M20.7305 21.3076L21.3005 20.6486L21.3675 20.5706L22.1285 19.6916L22.1595 19.6566L22.2925 19.6316L22.3295 19.6246L22.5255 19.1426L22.0015 19.4626L22.0325 19.5096L22.1025 19.6166L22.0595 19.6656L20.7755 21.1346L20.7305 21.1856V21.3076Z" fill="#F1B517"/>
<path d="M20.9492 21.8985L21.0462 21.9565L21.0952 21.9295L21.0322 21.8535L20.9492 21.8985Z" fill="#F1B517"/>
<path d="M21.0518 21.8431L21.3068 21.8121L21.8048 21.5371L23.1138 20.8141L23.2148 20.7581L23.3788 20.7481L23.4658 20.7421L23.8378 20.4141C23.8378 20.4141 23.2308 20.4991 23.2228 20.5231C23.2148 20.5451 23.1858 20.6451 23.1788 20.6691C23.1788 20.6721 23.1738 20.6851 23.1738 20.6851L23.0388 20.7591L22.8648 20.8531L21.7798 21.4451L21.0508 21.8421L21.0518 21.8431Z" fill="#F1B517"/>
<path d="M21.3083 21.8114L21.0533 21.8424L21.0273 21.8454L21.0333 21.8534L21.0963 21.9284L21.2443 22.1064L21.5823 22.1404L21.3373 22.4704L21.3293 22.4804L21.4523 22.6184L21.7923 22.2464C21.7923 22.2464 21.8973 22.7884 22.3583 22.7884C22.6823 22.7884 22.8443 22.5624 22.9163 22.3734C22.9463 22.2934 22.9653 22.2184 22.9653 22.1734C22.9653 22.0194 22.9253 21.9394 22.9253 21.9394H23.3623L23.3133 21.5664L23.2183 21.5774L21.8673 21.7424L21.3083 21.8114Z" fill="#F1B517"/>
<path d="M20.556 21.9221C20.587 21.9221 20.615 21.9261 20.644 21.9291C20.673 21.7461 20.696 21.4901 20.711 21.1931C20.723 20.9551 20.73 20.6931 20.73 20.4131C20.73 20.0431 20.718 19.7001 20.698 19.4121C20.62 19.4341 20.535 19.5051 20.535 19.5051C20.535 19.5051 20.447 19.4391 20.366 19.4141C20.346 19.7021 20.334 20.0441 20.334 20.4131C20.334 20.6871 20.341 20.9441 20.353 21.1771C20.368 21.4831 20.392 21.7461 20.422 21.9331C20.465 21.9271 20.509 21.9231 20.557 21.9231L20.556 21.9221Z" fill="#F1B517"/>
<path d="M21.2988 20.6493L21.3668 20.5863L21.3658 20.5713L21.2988 20.6493Z" fill="white"/>
<path d="M19.5746 20.875L19.5586 20.968H19.5646L19.5746 20.875Z" fill="white"/>
<path d="M19.1782 21.5518H19.1752L19.1582 21.6258L19.1752 21.5638L19.1782 21.5518Z" fill="white"/>
<path d="M21.4902 21.0883L21.6172 20.9933L21.6152 20.9863L21.4902 21.0883Z" fill="white"/>
<path d="M18.0731 22.3863C18.0391 22.3013 18.0181 22.2223 18.0181 22.1733C18.0181 22.0193 18.0591 21.9393 18.0591 21.9393H17.6221L17.6711 21.5673L17.7651 21.5783L17.7891 20.8593C17.7891 20.8593 17.7851 20.8603 17.7831 20.8623C17.6941 20.9433 17.7181 21.1933 17.5641 21.1623C17.4141 21.1303 17.5941 20.7633 17.6021 20.7463L17.5161 20.7403L17.1431 20.4133C17.1431 20.4133 17.7501 20.4983 17.7581 20.5223C17.7651 20.5443 17.7951 20.6443 17.8021 20.6683C17.8851 20.6763 17.9561 20.7133 17.9601 20.7403C17.9611 20.7493 17.9461 20.7513 17.9411 20.7573L18.1151 20.8523L18.1381 20.3283C18.1001 20.3753 18.0581 20.4083 17.9981 20.3763C17.8901 20.3183 18.0421 20.1153 18.1151 20.0273L18.0081 19.9803L17.7011 19.6153C17.7011 19.6153 18.2271 19.8173 18.2271 19.8423C18.2271 19.8543 18.2521 19.9033 18.2771 19.9473C18.3951 19.9503 18.5001 20.0453 18.4951 20.0813C18.4921 20.1063 18.4671 20.1093 18.4291 20.1133L18.6241 20.2713L18.6411 19.8923C18.6261 19.8923 18.6131 19.9003 18.5951 19.8873C18.5181 19.8323 18.6071 19.7133 18.6911 19.6253L18.6731 19.6223L18.4541 19.1413L18.9791 19.4613L18.9601 19.5123C19.0601 19.5433 19.1361 19.6293 19.1271 19.6613C19.1181 19.6963 19.0471 19.6703 18.9661 19.6643L20.1991 21.0293L20.3491 21.1753C20.3371 20.9423 20.3301 20.6853 20.3301 20.4113C20.3301 20.0423 20.3421 19.7003 20.3621 19.4123C20.3141 19.3973 20.2671 19.3933 20.2431 19.4353C20.1781 19.5493 20.0961 19.5333 20.0871 19.2813C20.0791 19.0303 20.1431 18.6573 20.1431 18.6573C20.1431 18.6573 19.9981 18.9163 19.9531 19.0463C19.9081 19.1763 19.6581 19.2163 19.6901 19.0463C19.7231 18.8753 19.9251 18.6083 19.8031 18.6973C19.6811 18.7873 19.5361 18.8433 19.3951 18.8433C19.2541 18.8433 19.0591 18.8593 19.2451 18.7083C19.4311 18.5563 19.8521 18.3813 19.8521 18.3813C19.6901 18.3973 19.3911 18.5513 19.1971 18.6643C19.0021 18.7783 18.8651 18.6483 18.9701 18.5023C19.0751 18.3563 19.4561 18.2433 19.4561 18.2433C19.4561 18.2433 19.2291 18.2503 19.0761 18.2753C18.9221 18.2993 18.6311 18.4213 18.7871 18.2353C18.9431 18.0493 19.3431 18.0573 19.6141 18.0493C19.8851 18.0413 20.0231 18.1393 19.9011 18.0093C19.7791 17.8793 19.5941 17.9123 19.3961 17.9043C19.1981 17.8963 19.1651 17.8723 19.2871 17.8083C19.4081 17.7433 19.6271 17.6633 19.9111 17.7363C20.1891 17.8073 20.3741 17.9813 20.5221 18.0103C20.6701 17.9803 20.8451 17.8073 21.1231 17.7363C21.4061 17.6633 21.6201 17.7433 21.7411 17.8083C21.8631 17.8723 21.8281 17.8963 21.6301 17.9043C21.4321 17.9133 21.2451 17.8803 21.1231 18.0093C21.0011 18.1383 21.1391 18.0413 21.4101 18.0493C21.6821 18.0573 22.0821 18.0493 22.2371 18.2353C22.3931 18.4213 22.1021 18.3003 21.9481 18.2753C21.7941 18.2513 21.5671 18.2433 21.5671 18.2433C21.5671 18.2433 21.9471 18.3563 22.0531 18.5023C22.1581 18.6473 22.0211 18.7773 21.8271 18.6643C21.6331 18.5513 21.3341 18.3973 21.1721 18.3813C21.1721 18.3813 21.5931 18.5563 21.7791 18.7083C21.9641 18.8593 21.7701 18.8433 21.6281 18.8433C21.4871 18.8433 21.3411 18.7863 21.2201 18.6973C21.0981 18.6083 21.3011 18.8763 21.3331 19.0463C21.3661 19.2163 21.1141 19.1763 21.0701 19.0463C21.0251 18.9163 20.8801 18.6573 20.8801 18.6573C20.8801 18.6573 20.9451 19.0303 20.9361 19.2813C20.9281 19.5323 20.8671 19.5483 20.8011 19.4353C20.7781 19.3953 20.7381 19.3973 20.6951 19.4093C20.7151 19.6973 20.7271 20.0403 20.7271 20.4103C20.7271 20.6903 20.7201 20.9533 20.7081 21.1903L20.7731 21.1303L22.0571 19.6613C21.9571 19.6503 21.8621 19.7013 21.8511 19.6593C21.8431 19.6263 21.9241 19.5333 22.0301 19.5053L21.9991 19.4583L22.5231 19.1383L22.3271 19.6193L22.2901 19.6263C22.3731 19.7153 22.4591 19.8313 22.3821 19.8853C22.3641 19.8983 22.3501 19.8903 22.3351 19.8903L22.3531 20.2683L22.5481 20.1103C22.5101 20.1063 22.4851 20.1023 22.4821 20.0783C22.4781 20.0423 22.5821 19.9473 22.7011 19.9433C22.7261 19.8993 22.7511 19.8503 22.7511 19.8383C22.7511 19.8143 23.2771 19.6113 23.2771 19.6113L22.9691 19.9763L22.8621 20.0233C22.9351 20.1113 23.0881 20.3143 22.9801 20.3723C22.9191 20.4043 22.8771 20.3723 22.8391 20.3243L22.8631 20.8483L23.0371 20.7543C23.0321 20.7483 23.0161 20.7453 23.0171 20.7363C23.0211 20.7093 23.0931 20.6723 23.1761 20.6643C23.1831 20.6403 23.2121 20.5393 23.2201 20.5183C23.2281 20.4943 23.8351 20.4093 23.8351 20.4093L23.4631 20.7373L23.3761 20.7433C23.3851 20.7623 23.5631 21.1263 23.4141 21.1583C23.2601 21.1903 23.2841 20.9393 23.1951 20.8583C23.1931 20.8563 23.1911 20.8573 23.1891 20.8553L23.2131 21.5743L23.3081 21.5633L23.3571 21.9363H22.9201C22.9201 21.9363 22.9601 22.0163 22.9601 22.1703C22.9601 22.2163 22.9411 22.2903 22.9111 22.3703C23.5191 22.5133 24.0711 22.7043 24.5401 22.9423V17.1133H16.4531V22.9423C16.9101 22.7103 17.4641 22.5253 18.0711 22.3823L18.0731 22.3863Z" fill="white"/>
<path d="M22.3355 23.0034C22.1525 23.0404 21.7285 23.1974 21.3815 23.2424C21.0335 23.2854 20.5345 23.3004 20.5345 23.3004C20.5345 23.3004 20.0755 23.2864 19.7275 23.2424C19.3795 23.1974 18.9955 23.0404 18.8125 23.0034C18.6295 22.9664 18.5565 23.1314 18.1355 23.2224C17.7155 23.3144 17.3125 23.2994 17.3125 23.2994L17.4225 23.4934L17.3125 23.5884C18.2645 23.6064 18.7035 23.2984 18.7035 23.2984C19.1785 23.6134 20.5345 23.6224 20.5345 23.6224C20.5345 23.6224 21.9305 23.6134 22.4065 23.2984C22.4065 23.2984 22.8655 23.6054 23.8165 23.5884L23.7155 23.4934L23.8315 23.2994C23.8315 23.2994 23.4305 23.3134 23.0105 23.2224C22.5905 23.1304 22.5175 22.9664 22.3345 23.0034H22.3355Z" fill="white"/>
<path d="M20.5557 22.2469C20.7187 22.2469 20.8557 22.2099 20.9247 22.1569C20.9537 22.1349 20.9727 22.1109 20.9727 22.0849C20.9727 22.0079 20.8307 21.9459 20.6437 21.9299C20.6147 21.9279 20.5867 21.9229 20.5557 21.9229C20.5077 21.9229 20.4637 21.9279 20.4207 21.9329C20.2577 21.9549 20.1387 22.0139 20.1387 22.0839C20.1387 22.1009 20.1507 22.1169 20.1647 22.1329C20.2187 22.1979 20.3707 22.2459 20.5567 22.2459L20.5557 22.2469Z" fill="white"/>
<path d="M20.342 21.308L19.619 20.498L19.576 20.876L19.565 20.969H19.485L20.245 21.584L20.189 21.657L19.346 20.968H19.331L19.207 21.447L19.932 21.843L19.959 21.846L19.952 21.854L20.035 21.899L19.938 21.956L19.89 21.929L19.743 22.106L19.404 22.14L19.635 22.45L20.149 22.601V22.132H20.166C20.153 22.116 20.14 22.101 20.14 22.083C20.14 22.012 20.259 21.954 20.422 21.932C20.392 21.745 20.368 21.482 20.353 21.176L20.203 21.03L20.342 21.184V21.306V21.308Z" fill="#D21C33"/>
<path d="M17.9437 20.7589C17.9487 20.7529 17.9637 20.7499 17.9627 20.7419C17.9587 20.7149 17.8877 20.6779 17.8047 20.6699C17.8047 20.6729 17.8097 20.6859 17.8097 20.6859L17.9437 20.7589Z" fill="#D21C33"/>
<path d="M18.4332 20.1162C18.4712 20.1122 18.4962 20.1082 18.4992 20.0842C18.5042 20.0482 18.3993 19.9532 18.2812 19.9502C18.3043 19.9922 18.3272 20.0312 18.3272 20.0312L18.4332 20.1172V20.1162Z" fill="#D21C33"/>
<path d="M18.9698 19.6666C19.0498 19.6726 19.1208 19.6986 19.1308 19.6636C19.1388 19.6316 19.0628 19.5456 18.9638 19.5146L18.9258 19.6166L18.9698 19.6666Z" fill="#D21C33"/>
<path d="M19.182 21.54L19.179 21.551L19.176 21.563L19.159 21.625L19.125 21.745L19.676 21.812L19.182 21.54Z" fill="#D21C33"/>
<path d="M17.7683 20.7581L17.6033 20.7471C17.5953 20.7641 17.4153 21.1311 17.5653 21.1631C17.7193 21.1951 17.6953 20.9441 17.7843 20.8631C17.7863 20.8611 17.7883 20.8621 17.7903 20.8601C17.8183 20.8351 17.8443 20.8251 17.8693 20.8141L17.7683 20.7581Z" fill="#D21C33"/>
<path d="M18.8802 19.6699L18.8682 19.6569L18.6942 19.6279C18.6102 19.7169 18.5202 19.8359 18.5982 19.8899C18.6162 19.9029 18.6292 19.8949 18.6442 19.8949C18.7352 19.8959 18.7862 19.7089 18.8802 19.6699Z" fill="#D21C33"/>
<path d="M18.2939 20.1493C18.3089 20.1423 18.3179 20.1443 18.3319 20.1393L18.2859 20.1013L18.1179 20.0273C18.0449 20.1153 17.8919 20.3183 18.0009 20.3763C18.0609 20.4083 18.1029 20.3763 18.1409 20.3283C18.1909 20.2673 18.2329 20.1793 18.2939 20.1493Z" fill="#D21C33"/>
<path d="M23.1152 20.814C23.1412 20.826 23.1662 20.835 23.1942 20.86C23.1962 20.862 23.1982 20.861 23.2002 20.863C23.2892 20.944 23.2652 21.194 23.4192 21.163C23.5692 21.131 23.3902 20.767 23.3812 20.748L23.2172 20.758L23.1152 20.814Z" fill="#D21C33"/>
<path d="M23.1787 20.6699C23.0957 20.6769 23.0237 20.7149 23.0197 20.7419C23.0177 20.7509 23.0347 20.7539 23.0397 20.7599L23.1747 20.6859C23.1747 20.6859 23.1777 20.6729 23.1787 20.6699Z" fill="#D21C33"/>
<path d="M20.9735 22.0849C20.9735 22.1109 20.9535 22.1349 20.9255 22.1569V22.5969L21.3365 22.4709L21.5815 22.1409L21.2435 22.1069L21.0955 21.9289L21.0465 21.9559L20.9495 21.8989L21.0325 21.8539L21.0265 21.8459L21.0525 21.8429L21.7815 21.4459L21.6535 20.9679L21.6195 20.9929L21.4925 21.0879L20.7965 21.6569L20.7395 21.5839L21.4615 20.9989L21.4105 20.5479L21.3695 20.5859L21.3015 20.6489L20.7315 21.3079V21.1859L20.7765 21.1339L20.7115 21.1939C20.6965 21.4909 20.6735 21.7459 20.6445 21.9299C20.8315 21.9459 20.9735 22.0079 20.9735 22.0849Z" fill="#D21C33"/>
<path d="M22.7035 19.9492C22.5855 19.9522 22.4805 20.0472 22.4845 20.0842C22.4875 20.1092 22.5125 20.1122 22.5505 20.1162L22.6565 20.0302C22.6565 20.0302 22.6795 19.9912 22.7035 19.9492Z" fill="#D21C33"/>
<path d="M22.0331 19.5098C21.9271 19.5378 21.8461 19.6308 21.8541 19.6638C21.8651 19.7058 21.9601 19.6548 22.0601 19.6658L22.1031 19.6168L22.0331 19.5098Z" fill="#D21C33"/>
<path d="M21.8656 21.7441L21.8116 21.5631L21.8046 21.5371L21.3066 21.8121L21.8656 21.7441Z" fill="#D21C33"/>
<path d="M22.6964 20.1023L22.6504 20.1403C22.6644 20.1443 22.6744 20.1423 22.6894 20.1503C22.7504 20.1803 22.7924 20.2683 22.8424 20.3293C22.8804 20.3763 22.9224 20.4093 22.9834 20.3773C23.0914 20.3193 22.9384 20.1163 22.8654 20.0283L22.6964 20.1023Z" fill="#D21C33"/>
<path d="M22.1599 19.6569L22.1289 19.6919C22.2059 19.7539 22.2569 19.8949 22.3389 19.8949C22.3539 19.8949 22.3679 19.9029 22.3859 19.8899C22.4619 19.8359 22.3769 19.7199 22.2939 19.6309L22.1599 19.6569Z" fill="#D21C33"/>
<path d="M20.1465 22.9119H20.1635C20.1545 22.9019 20.1495 22.8909 20.1465 22.8789V22.9119Z" fill="#D21C33"/>
<path d="M20.5555 22.2468C20.3705 22.2468 20.2185 22.1988 20.1635 22.1338H20.1465V22.8448C20.1695 22.7638 20.3395 22.6998 20.5545 22.6998C20.7175 22.6998 20.8545 22.7368 20.9235 22.7898V22.1568C20.8545 22.2088 20.7185 22.2468 20.5555 22.2468Z" fill="#D21C33"/>
<path d="M20.5557 22.7002C20.3407 22.7002 20.1697 22.7632 20.1477 22.8452C20.1457 22.8512 20.1387 22.8562 20.1387 22.8622C20.1387 22.8682 20.1457 22.8732 20.1477 22.8792C20.1507 22.8902 20.1557 22.9012 20.1647 22.9122C20.2197 22.9772 20.3707 23.0242 20.5557 23.0242C20.7867 23.0242 20.9727 22.9522 20.9727 22.8622C20.9727 22.8362 20.9527 22.8122 20.9247 22.7902C20.8557 22.7372 20.7187 22.7002 20.5557 22.7002Z" fill="#D21C33"/>
<path d="M22.356 22.7891C21.895 22.7891 21.79 22.2471 21.79 22.2471L21.45 22.6191L21.327 22.4811L21.335 22.4711L20.924 22.5971V22.7901C20.953 22.8121 20.972 22.8361 20.972 22.8621C20.972 22.9521 20.786 23.0241 20.555 23.0241C20.37 23.0241 20.218 22.9771 20.164 22.9121H20.147V22.8791C20.145 22.8731 20.138 22.8681 20.138 22.8621C20.138 22.8561 20.145 22.8511 20.147 22.8451V22.6031L19.633 22.4521L19.655 22.4821L19.533 22.6201L19.193 22.2481C19.193 22.2481 19.088 22.7901 18.627 22.7901C18.31 22.7901 18.149 22.5731 18.075 22.3871C17.468 22.5291 16.914 22.7151 16.457 22.9471V23.8831H24.544V22.9471C24.076 22.7091 23.524 22.5191 22.915 22.3751C22.843 22.5641 22.681 22.7901 22.357 22.7901L22.356 22.7891ZM23.832 23.2991L23.716 23.4931L23.817 23.5881C22.866 23.6061 22.407 23.2981 22.407 23.2981C21.932 23.6131 20.535 23.6221 20.535 23.6221C20.535 23.6221 19.179 23.6131 18.704 23.2981C18.704 23.2981 18.265 23.6051 17.313 23.5881L17.423 23.4931L17.313 23.2991C17.313 23.2991 17.716 23.3141 18.136 23.2221C18.557 23.1311 18.63 22.9661 18.813 23.0031C18.996 23.0401 19.38 23.1971 19.728 23.2421C20.076 23.2861 20.535 23.3001 20.535 23.3001C20.535 23.3001 21.034 23.2851 21.382 23.2421C21.729 23.1971 22.153 23.0401 22.336 23.0031C22.519 22.9661 22.591 23.1311 23.012 23.2221C23.432 23.3131 23.832 23.2991 23.832 23.2991Z" fill="#006A16"/>
<path d="M20.6968 19.413C20.7388 19.401 20.7798 19.399 20.8028 19.439C20.8678 19.553 20.9288 19.536 20.9378 19.285C20.9458 19.035 20.8818 18.661 20.8818 18.661C20.8818 18.661 21.0268 18.92 21.0718 19.05C21.1158 19.18 21.3668 19.22 21.3348 19.05C21.3028 18.88 21.1008 18.612 21.2218 18.701C21.3438 18.79 21.4888 18.847 21.6298 18.847C21.7718 18.847 21.9658 18.863 21.7808 18.712C21.5948 18.56 21.1738 18.385 21.1738 18.385C21.3358 18.401 21.6348 18.555 21.8288 18.668C22.0228 18.781 22.1598 18.652 22.0548 18.506C21.9498 18.36 21.5688 18.247 21.5688 18.247C21.5688 18.247 21.7958 18.255 21.9498 18.279C22.1038 18.304 22.3938 18.425 22.2388 18.239C22.0828 18.053 21.6828 18.061 21.4118 18.053C21.1408 18.045 21.0038 18.142 21.1248 18.013C21.2458 17.884 21.4338 17.917 21.6318 17.908C21.8298 17.9 21.8648 17.876 21.7428 17.812C21.6208 17.747 21.4078 17.667 21.1248 17.74C20.8468 17.811 20.6718 17.984 20.5238 18.014C20.3758 17.985 20.1908 17.811 19.9128 17.74C19.6298 17.667 19.4098 17.747 19.2888 17.812C19.1668 17.876 19.1998 17.9 19.3978 17.908C19.5958 17.916 19.7818 17.884 19.9028 18.013C20.0248 18.143 19.8868 18.045 19.6158 18.053C19.3448 18.061 18.9438 18.053 18.7888 18.239C18.6328 18.425 18.9238 18.303 19.0778 18.279C19.2318 18.254 19.4578 18.247 19.4578 18.247C19.4578 18.247 19.0778 18.36 18.9718 18.506C18.8668 18.651 19.0038 18.781 19.1988 18.668C19.3928 18.554 19.6928 18.401 19.8538 18.385C19.8538 18.385 19.4328 18.56 19.2468 18.712C19.0608 18.863 19.2558 18.847 19.3968 18.847C19.5378 18.847 19.6838 18.791 19.8048 18.701C19.9268 18.612 19.7248 18.879 19.6918 19.05C19.6598 19.22 19.9108 19.18 19.9548 19.05C19.9988 18.92 20.1448 18.661 20.1448 18.661C20.1448 18.661 20.0808 19.033 20.0888 19.285C20.0968 19.536 20.1798 19.552 20.2448 19.439C20.2688 19.397 20.3158 19.401 20.3638 19.416C20.4458 19.441 20.5328 19.507 20.5328 19.507C20.5328 19.507 20.6178 19.437 20.6958 19.414L20.6968 19.413Z" fill="#006A16"/>
</svg>
