<svg width="41" height="41" viewBox="0 0 41 41" fill="none" xmlns="http://www.w3.org/2000/svg">
<path d="M34.5052 8.5H26.7012C26.7012 14.087 26.7012 25.584 26.7012 32.5H34.5052C36.7122 32.5 38.5002 30.711 38.5002 28.504V12.496C38.5002 10.289 36.7112 8.5 34.5052 8.5Z" fill="#FFC800"/>
<path d="M22.4166 19.5765C22.4976 19.6345 22.5646 19.7035 22.5646 19.8015C22.5646 20.0435 22.7146 20.2865 22.7146 20.2865L22.6696 20.4535C22.6696 20.4535 22.5186 20.3775 22.4736 20.2865C22.4396 20.2185 22.4816 20.0405 22.4166 19.9555V20.6685C22.5596 20.8115 22.7006 20.9665 22.7006 20.9665C22.7006 20.9665 22.8666 21.2845 23.1236 21.4365C23.3806 21.5865 23.7146 21.9205 23.7146 21.9205C23.7146 21.9205 23.2756 22.2395 23.2446 22.4355C23.2146 22.6305 23.3956 22.7075 23.3806 22.8745C23.3656 23.0405 23.1706 22.9545 23.0036 23.0455C22.8366 23.1365 23.0066 23.3685 23.0066 23.3685H23.4606L23.6846 22.9505V22.6465L24.1646 22.5405C24.1646 22.5405 24.1206 22.7225 24.2116 22.8275C24.3026 22.9355 24.6516 23.0855 24.6516 23.3425C24.6516 23.5995 24.5166 23.6085 24.3646 23.6225C24.2136 23.6385 24.1386 23.8145 24.1386 23.8145H24.7286C24.7286 23.8145 24.8946 23.4265 24.9856 23.2465C25.0756 23.0625 25.0146 22.9385 24.9086 22.8915C24.8026 22.8465 24.6976 22.6095 24.7276 22.4125C24.7276 22.4125 24.9386 22.5815 25.1816 22.5375C25.4236 22.4915 25.6356 22.2885 25.6516 22.0325C25.6666 21.7745 25.6516 21.5205 25.4096 21.4305C25.1676 21.3405 25.2146 21.5995 25.3036 21.6745C25.3946 21.7495 25.3946 22.0835 25.2726 22.1605C25.1516 22.2365 24.9556 22.3275 24.8946 22.1155C24.8336 21.9035 24.7026 21.5715 24.4436 21.4805C24.1866 21.3895 23.8346 20.8145 23.8506 20.4065C23.8546 20.2835 23.8636 20.1125 23.8696 19.9285C23.8616 19.9435 23.8546 19.9595 23.8446 19.9655C23.6776 20.0635 23.1436 20.0305 22.9406 19.9845C22.8966 19.9735 22.9016 19.8555 22.9346 19.7775C22.8836 19.7185 22.7166 19.5195 22.6396 19.3785C22.5486 19.2125 22.4726 19.0605 22.3066 19.0605C22.1696 19.0605 22.0426 19.2095 22.0556 19.3145H22.4156V19.5755L22.4166 19.5765Z" fill="#C79A4E"/>
<path d="M17.9803 19.712C17.9943 19.712 18.0033 19.726 18.0153 19.735C18.0013 19.636 17.9903 19.458 18.0883 19.382C18.2233 19.276 18.4653 19.129 18.4803 18.811C18.4813 18.789 18.4743 18.781 18.4733 18.762C18.3213 18.734 18.2353 18.608 18.2353 18.608C18.2053 18.621 18.1753 18.634 18.1473 18.651C17.9973 18.742 17.6483 18.443 17.3613 18.742C17.1543 18.959 17.1133 19.359 17.1133 19.737C17.1233 19.728 17.1323 19.716 17.1493 19.719C17.3693 19.756 17.7223 19.729 17.9813 19.711L17.9803 19.712ZM17.8673 18.835C18.0003 18.807 18.1013 18.887 17.9733 18.932C17.8443 18.978 17.7843 18.851 17.8673 18.835ZM17.5953 19.53C17.7693 19.517 17.5793 19.031 17.5793 19.031C17.7393 19.205 17.8443 19.614 17.5793 19.62C17.3153 19.628 17.3003 19.143 17.3003 19.143C17.3003 19.143 17.4203 19.544 17.5963 19.529L17.5953 19.53Z" fill="#C79A4E"/>
<path d="M23.834 19.72C23.852 19.717 23.862 19.729 23.872 19.739C23.872 19.361 23.83 18.96 23.623 18.743C23.335 18.444 22.989 18.743 22.836 18.652C22.808 18.635 22.778 18.622 22.749 18.609C22.748 18.611 22.661 18.735 22.511 18.763C22.511 18.782 22.503 18.789 22.504 18.812C22.519 19.13 22.761 19.277 22.898 19.383C22.994 19.458 22.984 19.636 22.97 19.735C22.981 19.726 22.99 19.712 23.004 19.712C23.262 19.729 23.614 19.757 23.834 19.72ZM23.404 19.031C23.404 19.031 23.213 19.516 23.387 19.53C23.562 19.545 23.683 19.144 23.683 19.144C23.683 19.144 23.668 19.628 23.404 19.621C23.138 19.614 23.244 19.205 23.404 19.031ZM23.114 18.835C23.197 18.851 23.138 18.978 23.008 18.932C22.88 18.887 22.982 18.807 23.114 18.835Z" fill="#C79A4E"/>
<path d="M15.8016 22.5385C16.0436 22.5835 16.2556 22.4135 16.2556 22.4135C16.2856 22.6095 16.1786 22.8475 16.0736 22.8925C15.9676 22.9395 15.9066 23.0645 15.9976 23.2475C16.0876 23.4285 16.2546 23.8155 16.2546 23.8155H16.8446C16.8446 23.8155 16.7696 23.6395 16.6186 23.6235C16.4666 23.6095 16.3326 23.6005 16.3326 23.3435C16.3326 23.0865 16.6836 22.9365 16.7746 22.8285C16.8656 22.7235 16.8266 22.5415 16.8266 22.5415L17.2986 22.6475V22.9515L17.6456 23.3635H18.1006C18.1006 23.3635 18.1446 23.1365 17.9786 23.0455C17.8126 22.9545 17.6156 23.0395 17.6006 22.8745C17.5866 22.7075 17.7676 22.6305 17.7376 22.4355C17.7066 22.2395 17.2676 21.9205 17.2676 21.9205C17.2676 21.9205 17.6006 21.5865 17.8576 21.4365C18.1146 21.2845 18.2816 20.9665 18.2816 20.9665C18.2816 20.9665 18.4206 20.8145 18.5616 20.6725V19.9665C18.5056 20.0545 18.5416 20.2205 18.5076 20.2855C18.4626 20.3765 18.3116 20.4525 18.3116 20.4525L18.2666 20.2855C18.2666 20.2855 18.4166 20.0425 18.4166 19.8005C18.4166 19.7045 18.4826 19.6365 18.5606 19.5795V19.3145H18.9246C18.9386 19.2095 18.8106 19.0605 18.6736 19.0605C18.5066 19.0605 18.4316 19.2125 18.3406 19.3785C18.2626 19.5205 18.0946 19.7205 18.0446 19.7785C18.0776 19.8555 18.0816 19.9735 18.0376 19.9845C17.8346 20.0305 17.3016 20.0625 17.1336 19.9655C17.1246 19.9595 17.1176 19.9445 17.1106 19.9315C17.1166 20.1145 17.1266 20.2845 17.1316 20.4065C17.1456 20.8145 16.7946 21.3895 16.5376 21.4805C16.2796 21.5715 16.1486 21.9035 16.0866 22.1145C16.0266 22.3275 15.8296 22.2365 15.7086 22.1595C15.5876 22.0825 15.5876 21.7485 15.6786 21.6735C15.7696 21.5995 15.8136 21.3395 15.5716 21.4295C15.3306 21.5195 15.3146 21.7735 15.3306 22.0315C15.3456 22.2885 15.5576 22.4905 15.7996 22.5365L15.8016 22.5385Z" fill="#C79A4E"/>
<path d="M22.9421 19.9859C23.1451 20.0319 23.6791 20.0639 23.8461 19.9669C23.8561 19.9609 23.8641 19.9439 23.8711 19.9299C23.9021 19.8729 23.9091 19.7769 23.8711 19.7399C23.8611 19.7299 23.8511 19.7179 23.8331 19.7209C23.6131 19.7579 23.2601 19.7309 23.0021 19.7129C22.9891 19.7129 22.9791 19.7269 22.9681 19.7359C22.9551 19.7469 22.9431 19.7589 22.9341 19.7799C22.9011 19.8569 22.8961 19.9759 22.9401 19.9869L22.9421 19.9859Z" fill="#888B8D"/>
<path d="M18.04 19.9859C18.084 19.9749 18.08 19.8569 18.047 19.7799C18.038 19.7589 18.027 19.7469 18.014 19.7359C18.003 19.7259 17.993 19.7119 17.979 19.7129C17.72 19.7299 17.367 19.7579 17.147 19.7209C17.13 19.7179 17.121 19.7299 17.111 19.7389C17.071 19.7759 17.079 19.8769 17.112 19.9339C17.119 19.9469 17.126 19.9619 17.135 19.9679C17.303 20.0659 17.836 20.0329 18.039 19.9869L18.04 19.9859Z" fill="#888B8D"/>
<path d="M23.114 18.8349C22.982 18.8069 22.88 18.8869 23.008 18.9319C23.138 18.9779 23.197 18.8509 23.114 18.8349Z" fill="#010101"/>
<path d="M23.4043 19.6193C23.6673 19.6273 23.6833 19.1423 23.6833 19.1423C23.6833 19.1423 23.5623 19.5433 23.3873 19.5283C23.2133 19.5153 23.4043 19.0293 23.4043 19.0293C23.2443 19.2033 23.1383 19.6123 23.4043 19.6183V19.6193Z" fill="#010101"/>
<path d="M22.748 18.6086C22.748 18.6086 22.703 18.5866 22.647 18.5836C22.629 18.5836 22.613 18.5806 22.592 18.5876C22.586 18.5896 22.582 18.5856 22.575 18.5886C22.565 18.5946 22.567 18.6056 22.559 18.6126C22.541 18.6296 22.529 18.6476 22.521 18.6686C22.504 18.7186 22.5 18.7656 22.5 18.7656C22.503 18.7656 22.505 18.7626 22.508 18.7616C22.659 18.7336 22.745 18.6096 22.746 18.6076L22.748 18.6086Z" fill="#010101"/>
<path d="M17.9723 18.9319C18.1003 18.8869 17.9993 18.8069 17.8663 18.8349C17.7833 18.8509 17.8433 18.9779 17.9723 18.9319Z" fill="#010101"/>
<path d="M18.4724 18.7624C18.4724 18.7624 18.4764 18.7654 18.4804 18.7664C18.4804 18.7664 18.4774 18.7184 18.4594 18.6694C18.4524 18.6484 18.4404 18.6304 18.4224 18.6144C18.4144 18.6064 18.4164 18.5954 18.4064 18.5894C18.3994 18.5864 18.3954 18.5904 18.3894 18.5884C18.3694 18.5804 18.3524 18.5834 18.3344 18.5844C18.2784 18.5874 18.2344 18.6084 18.2344 18.6084C18.2344 18.6084 18.3214 18.7344 18.4724 18.7624Z" fill="#010101"/>
<path d="M17.5788 19.6193C17.8438 19.6123 17.7388 19.2043 17.5788 19.0303C17.5788 19.0303 17.7688 19.5153 17.5948 19.5293C17.4188 19.5443 17.2988 19.1433 17.2988 19.1433C17.2988 19.1433 17.3138 19.6273 17.5778 19.6203L17.5788 19.6193Z" fill="#010101"/>
<path d="M20.4906 19.0321C20.9746 19.0321 21.3596 19.1561 21.4476 19.3161H21.5996C21.7006 19.0711 21.8606 18.6931 21.9016 18.6491C21.9616 18.5841 22.2446 18.4151 22.2446 18.0431C22.2446 17.6701 21.7726 17.3451 21.2816 17.5431C21.2816 17.5431 20.9756 17.2481 20.6456 17.3241L20.5736 17.2761L20.5796 16.9531H20.4296L20.4366 17.2761L20.3656 17.3241C20.0356 17.2501 19.7296 17.5431 19.7296 17.5431C19.2386 17.3461 18.7656 17.6691 18.7656 18.0431C18.7656 18.4171 19.0486 18.5851 19.1096 18.6491C19.1506 18.6931 19.3096 19.0711 19.4106 19.3161H19.5336C19.6226 19.1551 20.0066 19.0321 20.4916 19.0321H20.4906ZM21.4816 18.3901C21.3376 18.3381 21.3096 18.1421 21.3096 18.1421C21.3096 18.1421 21.4926 18.1471 21.6126 18.2311C21.7346 18.3151 21.7726 18.4181 21.7726 18.4181C21.7726 18.4181 21.6276 18.4421 21.4816 18.3901ZM21.9526 18.0631C21.9316 18.1651 21.8556 18.3391 21.6476 18.2561C21.4376 18.1731 21.4736 17.9071 21.4736 17.9071C21.6506 17.7101 22.0066 17.8051 21.9526 18.0631ZM21.4706 17.7021C21.5486 17.8711 21.3476 17.9091 21.2856 17.8011C21.2256 17.6941 21.4256 17.6031 21.4706 17.7021ZM21.4276 17.9561C21.5006 18.0301 21.4256 18.1571 21.3096 18.1041C21.1936 18.0521 21.3346 17.8571 21.4276 17.9561ZM21.0186 17.6551C21.1376 17.6841 21.1796 17.8431 21.1796 17.8431C21.1796 17.8431 21.0996 17.9321 20.9026 17.9011C20.7056 17.8701 20.7026 17.6561 20.7026 17.6561C20.7026 17.6561 20.8696 17.6211 21.0196 17.6561L21.0186 17.6551ZM20.6726 17.8661C20.6726 17.8661 20.8586 17.8881 20.9586 17.9171C21.0576 17.9461 21.2446 18.0631 21.2446 18.0631C21.2446 18.0631 21.1756 18.1981 21.1016 18.2551C21.0266 18.3101 20.8556 18.2961 20.8556 18.2961L20.6726 18.1081V17.8671V17.8661ZM19.8326 17.8421C19.8326 17.8421 19.8736 17.6831 19.9906 17.6541C20.1416 17.6191 20.3086 17.6541 20.3086 17.6541C20.3086 17.6541 20.3056 17.8681 20.1086 17.8991C20.2036 17.8791 20.3086 17.8651 20.3086 17.8651V18.1061L20.1406 18.2941C20.1406 18.2941 19.9776 18.3081 19.9026 18.2531C19.8276 18.1951 19.7616 18.0611 19.7616 18.0611C19.7616 18.0611 19.9336 17.9441 20.0356 17.9151C20.0576 17.9091 20.0836 17.9031 20.1096 17.8981C19.9136 17.9291 19.8336 17.8401 19.8336 17.8401L19.8326 17.8421ZM19.7016 18.1031C19.5836 18.1561 19.5106 18.0291 19.5816 17.9551C19.6766 17.8561 19.8156 18.0521 19.7016 18.1031ZM19.5396 17.7011C19.5836 17.6021 19.7846 17.6921 19.7246 17.8001C19.6636 17.9081 19.4626 17.8711 19.5396 17.7011ZM19.0576 18.0621C19.0036 17.8041 19.3586 17.7091 19.5366 17.9061C19.5366 17.9061 19.5716 18.1731 19.3626 18.2551C19.1526 18.3371 19.0786 18.1641 19.0576 18.0621ZM19.2386 18.4171C19.2386 18.4171 19.2756 18.3141 19.3966 18.2301C19.5186 18.1461 19.7016 18.1411 19.7016 18.1411C19.7016 18.1411 19.6726 18.3371 19.5276 18.3891C19.3826 18.4411 19.2386 18.4171 19.2386 18.4171Z" fill="#EECF00"/>
<path d="M18.4176 19.8021C18.4176 20.0441 18.2676 20.2871 18.2676 20.2871L18.3126 20.4541C18.3126 20.4541 18.4636 20.3781 18.5086 20.2871C18.5416 20.2211 18.5066 20.0561 18.5626 19.9681V19.5811C18.4836 19.6391 18.4186 19.7061 18.4186 19.8021H18.4176Z" fill="#0069AC"/>
<path d="M14.3008 28.196V32.496H26.6998V8.5H14.3008C14.3008 13.04 14.3008 21.48 14.3008 28.196ZM18.2318 16.696C18.4848 16.645 18.6758 16.463 18.6758 16.463C18.4938 16.14 18.7998 15.944 19.3738 15.877C19.8198 15.825 20.4978 15.806 20.4978 15.806C20.4978 15.806 21.1658 15.825 21.6098 15.877C22.1838 15.945 22.4848 16.14 22.3008 16.463C22.3008 16.463 22.4888 16.645 22.7428 16.696C22.9958 16.747 23.3978 16.696 23.3978 16.696C23.3978 16.696 23.1928 17.039 22.9428 17.13C22.9428 17.13 23.0148 17.362 23.3248 17.412C23.3248 17.412 22.6698 17.523 22.1948 17.322C21.7208 17.119 21.4578 16.948 21.3878 16.877C21.3158 16.807 21.5878 16.646 21.3968 16.625C21.2048 16.605 20.4968 16.585 20.4968 16.585C20.4968 16.585 19.7768 16.605 19.5848 16.625C19.3948 16.645 19.6528 16.807 19.5808 16.877C19.5108 16.949 19.2478 17.12 18.7738 17.322C18.2998 17.522 17.6438 17.412 17.6438 17.412C17.9578 17.362 18.0288 17.13 18.0288 17.13C17.7778 17.039 17.5758 16.696 17.5758 16.696C17.5758 16.696 17.9788 16.747 18.2318 16.696ZM15.5738 21.432C15.8158 21.342 15.7718 21.601 15.6808 21.676C15.5898 21.752 15.5898 22.086 15.7108 22.162C15.8318 22.238 16.0288 22.329 16.0888 22.117C16.1498 21.906 16.2808 21.574 16.5398 21.483C16.7968 21.392 17.1488 20.817 17.1338 20.409C17.1288 20.286 17.1188 20.117 17.1128 19.934C17.0788 19.877 17.0718 19.776 17.1118 19.739C17.1118 19.361 17.1528 18.961 17.3598 18.744C17.6478 18.445 17.9958 18.744 18.1458 18.653C18.1738 18.636 18.2038 18.623 18.2338 18.61C18.2338 18.61 18.2788 18.588 18.3338 18.585C18.3538 18.584 18.3718 18.585 18.3888 18.589C18.3948 18.591 18.3998 18.587 18.4058 18.59C18.4168 18.596 18.4148 18.607 18.4218 18.615C18.4368 18.628 18.4498 18.645 18.4588 18.67C18.4768 18.72 18.4798 18.767 18.4798 18.767C18.4768 18.767 18.4748 18.764 18.4718 18.763C18.4718 18.782 18.4798 18.789 18.4788 18.812C18.4638 19.13 18.2218 19.277 18.0868 19.383C17.9898 19.459 17.9998 19.637 18.0138 19.736C18.0268 19.747 18.0378 19.76 18.0468 19.78C18.0968 19.722 18.2658 19.522 18.3428 19.38C18.4338 19.214 18.5098 19.062 18.6758 19.062C18.8128 19.062 18.9398 19.211 18.9268 19.316H19.4108C19.3098 19.071 19.1498 18.693 19.1098 18.649C19.0498 18.584 18.7658 18.416 18.7658 18.043C18.7658 17.67 19.2398 17.346 19.7298 17.543C19.7298 17.543 20.0358 17.249 20.3658 17.324L20.4368 17.276L20.4298 16.953H20.5798L20.5738 17.276L20.6458 17.324C20.9758 17.249 21.2818 17.543 21.2818 17.543C21.7728 17.345 22.2458 17.669 22.2448 18.043C22.2448 18.415 21.9628 18.585 21.9018 18.649C21.8608 18.693 21.7008 19.071 21.5998 19.316H22.0548C22.0408 19.211 22.1688 19.062 22.3058 19.062C22.4728 19.062 22.5478 19.214 22.6388 19.38C22.7158 19.522 22.8838 19.72 22.9338 19.779C22.9428 19.758 22.9538 19.746 22.9678 19.735C22.9818 19.636 22.9928 19.459 22.8958 19.383C22.7588 19.277 22.5168 19.13 22.5018 18.812C22.5008 18.79 22.5078 18.782 22.5088 18.763C22.5058 18.763 22.5048 18.766 22.5008 18.767C22.5008 18.767 22.5038 18.72 22.5218 18.67C22.5308 18.644 22.5438 18.628 22.5598 18.614C22.5678 18.607 22.5658 18.595 22.5758 18.59C22.5818 18.587 22.5858 18.591 22.5928 18.589C22.6098 18.584 22.6278 18.583 22.6478 18.585C22.7038 18.587 22.7488 18.609 22.7488 18.609C22.7778 18.623 22.8078 18.636 22.8358 18.653C22.9888 18.744 23.3348 18.445 23.6228 18.744C23.8308 18.961 23.8718 19.362 23.8718 19.74C23.9088 19.778 23.9028 19.873 23.8718 19.93C23.8658 20.114 23.8568 20.285 23.8528 20.408C23.8378 20.816 24.1888 21.392 24.4458 21.482C24.7038 21.573 24.8348 21.905 24.8968 22.117C24.9578 22.329 25.1538 22.238 25.2748 22.162C25.3968 22.085 25.3968 21.751 25.3058 21.676C25.2168 21.601 25.1698 21.342 25.4118 21.432C25.6538 21.522 25.6688 21.776 25.6538 22.034C25.6378 22.291 25.4258 22.493 25.1838 22.539C24.9418 22.584 24.7298 22.414 24.7298 22.414C24.6998 22.61 24.8048 22.848 24.9108 22.893C25.0158 22.94 25.0778 23.064 24.9878 23.248C24.8958 23.429 24.7308 23.816 24.7308 23.816H24.1408C24.1408 23.816 24.2158 23.64 24.3668 23.624C24.5188 23.61 24.6538 23.601 24.6538 23.344C24.6538 23.087 24.3048 22.937 24.2138 22.829C24.1228 22.724 24.1668 22.542 24.1668 22.542L23.6868 22.648V22.952L23.4628 23.37H23.0088C23.0088 23.37 22.8388 23.138 23.0058 23.047C23.1728 22.956 23.3678 23.041 23.3828 22.876C23.3978 22.709 23.2168 22.632 23.2468 22.437C23.2778 22.241 23.7168 21.922 23.7168 21.922C23.7168 21.922 23.3828 21.588 23.1258 21.438C22.8688 21.286 22.7028 20.968 22.7028 20.968C22.7028 20.968 22.5618 20.813 22.4188 20.67V22.481C22.4188 23.729 20.5028 23.729 20.5028 23.729C20.5028 23.729 18.5648 23.729 18.5648 22.481V20.674C18.4228 20.816 18.2848 20.968 18.2848 20.968C18.2848 20.968 18.1178 21.286 17.8608 21.438C17.6038 21.588 17.2708 21.922 17.2708 21.922C17.2708 21.922 17.7098 22.241 17.7408 22.437C17.7708 22.632 17.5898 22.709 17.6038 22.876C17.6188 23.042 17.8148 22.956 17.9818 23.047C18.1488 23.138 18.1038 23.365 18.1038 23.365H17.6488L17.3018 22.953V22.649L16.8298 22.543C16.8298 22.543 16.8688 22.725 16.7778 22.83C16.6868 22.938 16.3358 23.088 16.3358 23.345C16.3358 23.602 16.4698 23.611 16.6218 23.625C16.7728 23.641 16.8478 23.817 16.8478 23.817H16.2578C16.2578 23.817 16.0908 23.429 16.0008 23.249C15.9098 23.066 15.9698 22.941 16.0768 22.894C16.1818 22.849 16.2878 22.612 16.2588 22.415C16.2588 22.415 16.0478 22.584 15.8048 22.54C15.5628 22.494 15.3518 22.291 15.3358 22.035C15.3198 21.777 15.3358 21.523 15.5768 21.433L15.5738 21.432Z" fill="#0069AC"/>
<path d="M22.669 20.4541L22.714 20.2871C22.714 20.2871 22.564 20.0441 22.564 19.8021C22.564 19.7041 22.496 19.6351 22.416 19.5771V19.9561C22.481 20.0411 22.439 20.2191 22.473 20.2871C22.518 20.3781 22.669 20.4541 22.669 20.4541Z" fill="#0069AC"/>
<path d="M19.5373 17.9061C19.3593 17.7091 19.0043 17.8041 19.0583 18.0621C19.0793 18.1641 19.1543 18.3381 19.3633 18.2551C19.5733 18.1721 19.5373 17.9061 19.5373 17.9061Z" fill="#0069AC"/>
<path d="M19.7239 17.7997C19.7839 17.6927 19.5829 17.6017 19.5389 17.7007C19.4619 17.8697 19.6619 17.9077 19.7239 17.7997Z" fill="#0069AC"/>
<path d="M20.108 17.9002C20.305 17.8692 20.308 17.6552 20.308 17.6552C20.308 17.6552 20.142 17.6202 19.99 17.6552C19.873 17.6842 19.832 17.8432 19.832 17.8432C19.832 17.8432 19.912 17.9312 20.108 17.9002Z" fill="#0069AC"/>
<path d="M19.5811 17.9554C19.5091 18.0294 19.5831 18.1564 19.7011 18.1034C19.8161 18.0514 19.6761 17.8564 19.5811 17.9554Z" fill="#0069AC"/>
<path d="M21.6469 18.256C21.8559 18.338 21.9309 18.165 21.9519 18.063C22.0059 17.805 21.6499 17.71 21.4729 17.907C21.4729 17.907 21.4379 18.174 21.6469 18.256Z" fill="#0069AC"/>
<path d="M20.9022 17.9002C21.0992 17.9312 21.1792 17.8422 21.1792 17.8422C21.1792 17.8422 21.1372 17.6832 21.0182 17.6542C20.8692 17.6192 20.7012 17.6542 20.7012 17.6542C20.7012 17.6542 20.7042 17.8682 20.9012 17.8992L20.9022 17.9002Z" fill="#0069AC"/>
<path d="M21.4715 17.7019C21.4265 17.6029 21.2265 17.6929 21.2865 17.8009C21.3475 17.9089 21.5495 17.8719 21.4715 17.7019Z" fill="#0069AC"/>
<path d="M21.427 17.9553C21.334 17.8563 21.194 18.0523 21.309 18.1033C21.425 18.1563 21.499 18.0293 21.427 17.9553Z" fill="#0069AC"/>
<path d="M19.7013 18.1426C19.7013 18.1426 19.5173 18.1476 19.3963 18.2316C19.2753 18.3156 19.2383 18.4186 19.2383 18.4186C19.2383 18.4186 19.3823 18.4426 19.5273 18.3906C19.6723 18.3386 19.7013 18.1426 19.7013 18.1426Z" fill="#D0001E"/>
<path d="M19.7608 18.0622C19.7608 18.0622 19.8268 18.1972 19.9018 18.2542C19.9778 18.3092 20.1398 18.2952 20.1398 18.2952L20.3078 18.1072V17.8662C20.3078 17.8662 20.2028 17.8802 20.1078 17.9002C20.0818 17.9052 20.0558 17.9112 20.0338 17.9172C19.9328 17.9462 19.7598 18.0632 19.7598 18.0632L19.7608 18.0622Z" fill="#D0001E"/>
<path d="M21.1009 18.2552C21.1759 18.1972 21.2439 18.0632 21.2439 18.0632C21.2439 18.0632 21.0569 17.9462 20.9579 17.9172C20.8579 17.8882 20.6719 17.8662 20.6719 17.8662V18.1072L20.8549 18.2952C20.8549 18.2952 21.0259 18.3102 21.1009 18.2552Z" fill="#D0001E"/>
<path d="M21.6135 18.2316C21.4925 18.1476 21.3105 18.1426 21.3105 18.1426C21.3105 18.1426 21.3385 18.3386 21.4825 18.3906C21.6285 18.4426 21.7735 18.4186 21.7735 18.4186C21.7735 18.4186 21.7365 18.3156 21.6135 18.2316Z" fill="#D0001E"/>
<path d="M20.4912 19.0322C20.0062 19.0322 19.6212 19.1562 19.5332 19.3162H21.4482C21.3592 19.1552 20.9752 19.0322 20.4912 19.0322Z" fill="#D0001E"/>
<path d="M18.5625 19.5814V22.4804C18.5625 23.7284 20.5005 23.7284 20.5005 23.7284C20.5005 23.7284 22.4165 23.7284 22.4165 22.4804V19.3164H18.5635L18.5625 19.5814ZM22.2145 22.4824C22.2145 23.5104 20.4985 23.4944 20.4985 23.4944C20.4985 23.4944 18.7815 23.5094 18.7815 22.4824V19.5254H22.2145V22.4824Z" fill="#020202"/>
<path d="M22.2143 19.5254H18.7812V22.4824C18.7812 23.5104 20.4983 23.4944 20.4983 23.4944C20.4983 23.4944 22.2143 23.5094 22.2143 22.4824V19.5254ZM19.6432 19.7024L20.2283 20.2874H19.0583L19.6443 19.7024H19.6432ZM19.6432 20.6094L20.2283 21.1944H19.0583L19.6443 20.6094H19.6432ZM19.6432 21.5784L20.2283 22.1624H19.0583L19.6443 21.5784H19.6432ZM19.9053 23.1314L20.4913 22.5444L21.0763 23.1314H19.9053ZM20.6912 22.1624L21.2763 21.5784L21.8623 22.1624H20.6923H20.6912ZM20.6912 21.1944L21.2763 20.6094L21.8623 21.1944H20.6923H20.6912ZM20.6912 20.2864L21.2763 19.7014L21.8623 20.2864H20.6923H20.6912Z" fill="#3484C9"/>
<path d="M6.5 8.5C4.291 8.5 2.5 10.291 2.5 12.5V28.5C2.5 30.709 4.291 32.5 6.5 32.5H14.3V8.5H6.5Z" fill="#E3E7EA"/>
<path d="M14.3008 32.4963V28.1963C14.3008 29.7463 14.3008 31.2033 14.3008 32.5003H26.7008V32.4963H14.3018H14.3008Z" fill="#E3E7EA"/>
<path d="M18.0292 17.1297C18.0292 17.1297 17.9582 17.3617 17.6442 17.4117C17.6442 17.4117 18.3002 17.5217 18.7742 17.3217C19.2482 17.1197 19.5112 16.9487 19.5812 16.8767C19.6532 16.8067 19.3942 16.6457 19.5852 16.6247C19.7772 16.6047 20.4972 16.5847 20.4972 16.5847C20.4972 16.5847 21.2052 16.6047 21.3972 16.6247C21.5882 16.6447 21.3172 16.8067 21.3882 16.8767C21.4582 16.9477 21.7212 17.1187 22.1952 17.3217C22.6702 17.5227 23.3252 17.4117 23.3252 17.4117C23.0152 17.3617 22.9432 17.1297 22.9432 17.1297C23.1932 17.0387 23.3982 16.6957 23.3982 16.6957C23.3982 16.6957 22.9952 16.7467 22.7432 16.6957C22.4892 16.6447 22.3012 16.4627 22.3012 16.4627C22.4852 16.1397 22.1842 15.9447 21.6102 15.8767C21.1662 15.8247 20.4982 15.8057 20.4982 15.8057C20.4982 15.8057 19.8202 15.8247 19.3742 15.8767C18.8012 15.9437 18.4952 16.1387 18.6762 16.4627C18.6762 16.4627 18.4852 16.6447 18.2322 16.6957C17.9782 16.7467 17.5762 16.6957 17.5762 16.6957C17.5762 16.6957 17.7792 17.0387 18.0292 17.1297Z" fill="#E3E7EA"/>
<path d="M20.6914 21.1954H21.8614L21.2764 20.6104L20.6914 21.1954Z" fill="#E3E7EA"/>
<path d="M19.6446 21.5791L19.0586 22.1631H20.2286L19.6446 21.5791Z" fill="#E3E7EA"/>
<path d="M19.6446 20.6104L19.0586 21.1954H20.2286L19.6446 20.6104Z" fill="#E3E7EA"/>
<path d="M20.6914 20.2871H21.8614L21.2764 19.7021L20.6914 20.2871Z" fill="#E3E7EA"/>
<path d="M19.6446 19.7021L19.0586 20.2871H20.2286L19.6446 19.7021Z" fill="#E3E7EA"/>
<path d="M19.9062 23.1319H21.0763L20.4912 22.5449L19.9062 23.1319Z" fill="#E3E7EA"/>
<path d="M20.6914 22.1631H21.8614L21.2764 21.5791L20.6914 22.1631Z" fill="#E3E7EA"/>
</svg>
