<svg width="41" height="41" viewBox="0 0 41 41" fill="none" xmlns="http://www.w3.org/2000/svg">
<path d="M34.5 8.5H6.5C4.29086 8.5 2.5 10.2909 2.5 12.5V28.5C2.5 30.7091 4.29086 32.5 6.5 32.5H34.5C36.7091 32.5 38.5 30.7091 38.5 28.5V12.5C38.5 10.2909 36.7091 8.5 34.5 8.5Z" fill="#E3E7EA"/>
<path d="M6.495 8.5C4.288 8.5 2.5 10.289 2.5 12.496V28.505C2.5 30.712 4.289 32.501 6.495 32.501H14.136V8.5H6.495Z" fill="#009B5E"/>
<path d="M38.4993 28.504V12.496C38.4993 10.289 36.7103 8.5 34.5043 8.5H26.8633V32.5H34.5043C36.7113 32.5 38.4993 30.711 38.4993 28.504Z" fill="#FF7635"/>
</svg>
