<svg width="41" height="41" viewBox="0 0 41 41" fill="none" xmlns="http://www.w3.org/2000/svg">
<path d="M38.5 14.2578H2.5V26.7418H38.5V14.2578Z" fill="#E3E7EA"/>
<path d="M34.5 8.5H6.5C4.29086 8.5 2.5 10.2909 2.5 12.5V28.5C2.5 30.7091 4.29086 32.5 6.5 32.5H34.5C36.7091 32.5 38.5 30.7091 38.5 28.5V12.5C38.5 10.2909 36.7091 8.5 34.5 8.5Z" fill="#E3E7EA"/>
<path d="M2.5 12.4964V14.2584H38.5V12.4964C38.5 11.7244 38.271 11.0094 37.891 10.3984H3.109C2.729 11.0094 2.5 11.7244 2.5 12.4964Z" fill="#2F3887"/>
<path d="M2.5 28.5042C2.5 29.2762 2.729 29.9912 3.109 30.6022H37.892C38.272 29.9912 38.501 29.2762 38.501 28.5042V26.7422H2.5V28.5042Z" fill="#2F3887"/>
<path d="M23.6045 20.5004L25.1875 17.7984H22.0465L20.5005 15.0684L18.9535 17.7984H15.8125L17.3965 20.5004L15.8125 23.2024H18.9535L20.5005 25.9324L22.0465 23.2024H25.1875L23.6045 20.5004ZM19.9385 17.7984L20.4995 16.8164L21.0615 17.7984H19.9385ZM23.1045 21.3684L23.6435 22.3104H22.5615L23.1045 21.3684ZM22.5615 18.6914H23.6435L23.1045 19.6344L22.5615 18.6914ZM21.0625 23.2034L20.5005 24.1854L19.9395 23.2034H21.0625ZM19.4285 22.3104L18.3925 20.5004L19.4285 18.6904H21.5735L22.6095 20.5004L21.5735 22.3104H19.4285ZM18.4395 22.3104H17.3575L17.8965 21.3684L18.4395 22.3104ZM17.3575 18.6904H18.4395L17.8965 19.6334L17.3575 18.6904Z" fill="#2F3887"/>
</svg>
