<svg width="41" height="41" viewBox="0 0 41 41" fill="none" xmlns="http://www.w3.org/2000/svg">
<path d="M34.5 8.5H6.5C4.291 8.5 2.5 10.291 2.5 12.5V28.5C2.5 30.709 4.291 32.5 6.5 32.5H34.5C36.709 32.5 38.5 30.709 38.5 28.5V12.5C38.5 10.291 36.709 8.5 34.5 8.5ZM25.44 16.982C25.159 17.544 25.387 19.552 25.016 20.361C25.016 20.361 25.342 20.549 24.972 21.188C24.603 21.828 24.227 21.738 23.775 21.563C23.775 21.563 22.681 21.613 21.943 21.485C21.428 21.397 21.082 21.257 20.914 21.178C20.765 21.245 20.602 21.287 20.428 21.287C20.417 21.287 20.407 21.281 20.396 21.28C20.084 21.52 19.351 22.085 19.092 22.302L18.979 22.665C18.979 22.665 19.515 22.781 19.943 23.302C20.373 23.822 20.856 24.736 21.105 25.019C21.238 25.169 21.41 25.165 21.565 25.172L21.638 24.795L21.338 24.49L21.763 24.439L21.961 24.059L22.141 24.449L22.564 24.52L22.251 24.813L22.312 25.235L21.939 25.027L21.629 25.182C21.736 25.193 21.833 25.218 21.886 25.338C22.02 25.642 21.251 25.788 21.195 26.503C21.139 27.218 20.657 28.009 20.244 27.736C19.917 27.519 20.822 26.078 20.477 25.554C20.131 25.03 18.278 24.224 17.763 23.497C17.763 23.497 17.437 23.686 17.067 23.045C16.698 22.406 16.963 22.126 17.341 21.821C17.341 21.821 17.845 20.849 18.324 20.274C18.802 19.699 19.218 19.459 19.218 19.459C19.218 19.459 19.23 19.462 19.239 19.465C19.239 19.463 19.238 19.461 19.238 19.459C19.238 19.356 19.272 19.263 19.297 19.168C19.287 19.165 19.273 19.159 19.273 19.159C19.273 19.159 19.089 17.759 19.015 17.333L18.757 17.054C18.757 17.054 18.389 17.46 17.723 17.571C17.058 17.682 16.025 17.644 15.655 17.718C15.459 17.757 15.376 17.909 15.293 18.039L15.582 18.29L15.996 18.183L15.828 18.577L16.057 18.938L15.631 18.9L15.357 19.23L15.261 18.813L14.863 18.656L15.231 18.436L15.252 18.09C15.189 18.178 15.119 18.25 14.989 18.236C14.657 18.199 14.916 17.46 14.324 17.054C13.733 16.648 13.289 15.836 13.733 15.615C14.083 15.439 14.878 16.944 15.506 16.907C16.134 16.87 17.758 15.668 18.645 15.585C18.645 15.585 18.645 15.207 19.384 15.207C20.123 15.207 20.233 15.577 20.307 16.057C20.307 16.057 20.897 16.98 21.156 17.682C21.388 18.31 21.411 18.74 21.413 18.828C21.479 18.93 21.527 19.038 21.559 19.158C21.587 19.134 21.607 19.116 21.607 19.116C21.607 19.116 22.912 19.657 23.318 19.806L23.69 19.723C23.69 19.723 23.521 19.2 23.759 18.568C23.994 17.936 24.544 17.061 24.665 16.703C24.729 16.514 24.638 16.366 24.567 16.23L24.206 16.355L24.091 16.767L23.834 16.424L23.406 16.442L23.653 16.092L23.503 15.69L23.912 15.815L24.248 15.55L24.254 15.979L24.534 16.163C24.491 16.066 24.474 15.971 24.549 15.868C24.746 15.598 25.257 16.192 25.903 15.883C26.551 15.575 27.477 15.599 27.447 16.092C27.424 16.484 25.723 16.419 25.441 16.98L25.44 16.982Z" fill="#EA0034"/>
<path d="M25.902 15.8839C25.256 16.1929 24.745 15.5989 24.548 15.8689C24.472 15.9729 24.49 16.0669 24.533 16.1639L24.61 16.2149L24.565 16.2309C24.636 16.3679 24.727 16.5149 24.663 16.7039C24.543 17.0609 23.992 17.9369 23.757 18.5689C23.519 19.1999 23.688 19.7239 23.688 19.7239L23.316 19.8069C22.911 19.6579 21.605 19.1169 21.605 19.1169C21.605 19.1169 21.585 19.1339 21.557 19.1589C21.51 19.1999 21.431 19.2699 21.337 19.3569C21.108 19.5689 20.802 19.8729 20.721 20.0579C20.588 20.3639 20.791 21.1209 20.791 21.1209C20.791 21.1209 20.84 21.1459 20.913 21.1799C21.082 21.2589 21.428 21.3989 21.942 21.4869C22.68 21.6139 23.774 21.5649 23.774 21.5649C24.226 21.7399 24.601 21.8289 24.971 21.1899C25.341 20.5499 25.015 20.3629 25.015 20.3629C25.385 19.5539 25.157 17.5459 25.439 16.9839C25.72 16.4229 27.422 16.4869 27.445 16.0959C27.475 15.6029 26.55 15.5789 25.901 15.8869L25.902 15.8839Z" fill="white"/>
<path d="M20.1746 19.931C20.0396 19.748 19.6486 19.597 19.4116 19.518C19.3286 19.49 19.2686 19.472 19.2416 19.465C19.2326 19.463 19.2206 19.459 19.2206 19.459C19.2206 19.459 18.8046 19.699 18.3266 20.274C17.8476 20.849 17.3436 21.821 17.3436 21.821C16.9656 22.126 16.7006 22.406 17.0696 23.045C17.4386 23.686 17.7656 23.497 17.7656 23.497C18.2806 24.224 20.1336 25.029 20.4796 25.554C20.8246 26.078 19.9196 27.519 20.2466 27.736C20.6596 28.008 21.1416 27.218 21.1976 26.503C21.2536 25.788 22.0236 25.642 21.8886 25.338C21.8366 25.219 21.7396 25.194 21.6316 25.182L21.5586 25.219L21.5676 25.174C21.4126 25.167 21.2406 25.171 21.1076 25.021C20.8586 24.739 20.3746 23.824 19.9456 23.304C19.5176 22.783 18.9816 22.667 18.9816 22.667L19.0946 22.304C19.3536 22.087 20.0866 21.522 20.3986 21.282C20.4866 21.214 20.5466 21.168 20.5466 21.168C20.5466 21.168 20.3726 20.199 20.1746 19.931Z" fill="white"/>
<path d="M20.5287 19.455C20.6967 19.436 20.9207 19.286 21.1017 19.141C21.2787 19 21.4147 18.864 21.4147 18.864C21.4147 18.864 21.4137 18.838 21.4127 18.828C21.4097 18.74 21.3867 18.31 21.1557 17.682C20.8967 16.98 20.3067 16.057 20.3067 16.057C20.2327 15.578 20.1227 15.207 19.3837 15.207C18.6447 15.207 18.6447 15.585 18.6447 15.585C17.7577 15.668 16.1337 16.869 15.5057 16.907C14.8777 16.944 14.0837 15.439 13.7327 15.615C13.2897 15.836 13.7327 16.649 14.3237 17.054C14.9147 17.46 14.6557 18.199 14.9887 18.236C15.1187 18.25 15.1887 18.179 15.2517 18.09L15.2567 18.009L15.2917 18.039C15.3747 17.909 15.4577 17.757 15.6537 17.718C16.0227 17.644 17.0557 17.682 17.7217 17.571C18.3867 17.46 18.7557 17.054 18.7557 17.054L19.0137 17.333C19.0877 17.759 19.2717 19.159 19.2717 19.159C19.2717 19.159 19.2857 19.164 19.2957 19.168C19.3347 19.182 19.4367 19.218 19.5807 19.262C19.8807 19.356 20.3187 19.477 20.5267 19.454L20.5287 19.455Z" fill="white"/>
<path d="M19.5823 19.2629C19.4393 19.2179 19.3363 19.1819 19.2973 19.1689C19.2723 19.2639 19.2383 19.3569 19.2383 19.4599C19.2383 19.4619 19.2393 19.4639 19.2393 19.4659C19.2663 19.4739 19.3263 19.4919 19.4093 19.5189C19.4603 19.4289 19.5093 19.3369 19.5813 19.2629H19.5823Z" fill="#F8DC15"/>
<path d="M21.1016 19.1411C21.1906 19.2041 21.2696 19.2721 21.3386 19.3561C21.4326 19.2691 21.5116 19.1991 21.5586 19.1581C21.5266 19.0381 21.4786 18.9301 21.4126 18.8281C21.4126 18.8381 21.4146 18.8641 21.4146 18.8641C21.4146 18.8641 21.2786 18.9991 21.1016 19.1411Z" fill="#F8DC15"/>
<path d="M20.7222 20.0566C20.8032 19.8716 21.1092 19.5676 21.3382 19.3556C21.2692 19.2716 21.1902 19.2036 21.1012 19.1406C20.9202 19.2856 20.6962 19.4356 20.5282 19.4546C20.3202 19.4776 19.8822 19.3566 19.5822 19.2626C19.5102 19.3356 19.4612 19.4286 19.4102 19.5186C19.6472 19.5976 20.0382 19.7476 20.1732 19.9316C20.3712 20.2006 20.5452 21.1676 20.5452 21.1676C20.5452 21.1676 20.4852 21.2136 20.3972 21.2816C20.4082 21.2816 20.4182 21.2886 20.4292 21.2886C20.6032 21.2886 20.7662 21.2466 20.9152 21.1796C20.8422 21.1456 20.7932 21.1206 20.7932 21.1206C20.7932 21.1206 20.5912 20.3636 20.7232 20.0576L20.7222 20.0566Z" fill="#F8DC15"/>
<path d="M21.6308 25.1825L21.9408 25.0265L22.3138 25.2355L22.2528 24.8135L22.5658 24.5205L22.1438 24.4505L21.9638 24.0605L21.7658 24.4395L21.3398 24.4905L21.6398 24.7965L21.5668 25.1735L21.5578 25.2185L21.6308 25.1825Z" fill="#F8DC15"/>
<path d="M15.2533 18.0907L15.2323 18.4377L14.8633 18.6567L15.2613 18.8147L15.3573 19.2317L15.6303 18.9017L16.0563 18.9397L15.8273 18.5797L15.9953 18.1847L15.5813 18.2917L15.2923 18.0407L15.2583 18.0107L15.2533 18.0907Z" fill="#F8DC15"/>
<path d="M24.5343 16.1638L24.2542 15.9798L24.2482 15.5508L23.9122 15.8158L23.5033 15.6908L23.6532 16.0938L23.4062 16.4428L23.8342 16.4248L24.0912 16.7678L24.2052 16.3548L24.5662 16.2298L24.6112 16.2148L24.5343 16.1638Z" fill="#F8DC15"/>
</svg>
