<svg width="41" height="41" viewBox="0 0 41 41" fill="none" xmlns="http://www.w3.org/2000/svg">
<path d="M34.505 8.5H6.495C4.288 8.5 2.5 10.289 2.5 12.496V16.5H38.5V12.496C38.5 10.289 36.711 8.5 34.505 8.5Z" fill="#FF8E1E"/>
<path d="M2.5 28.5V28.504C2.5 30.711 4.289 32.5 6.495 32.5H34.504C36.711 32.5 38.499 30.711 38.499 28.504V24.5H2.5V28.5Z" fill="#008B36"/>
<path d="M2.5 16.5V24.5H38.5V16.5H2.5ZM20.5 24.1C18.52 24.1 16.92 22.49 16.92 20.5C16.92 18.51 18.52 16.9 20.5 16.9C22.48 16.9 24.08 18.51 24.08 20.5C24.08 22.49 22.48 24.1 20.5 24.1Z" fill="#E3E7EA"/>
<path d="M21.9295 20.6L21.0395 20.51V20.49L21.9295 20.4L23.7295 20.5C23.7295 20.4 23.7295 20.31 23.7195 20.22H23.7095C23.6195 20.22 23.5595 20.16 23.5595 20.08C23.5595 20 23.6095 19.94 23.6795 19.93C23.6695 19.84 23.6495 19.75 23.6295 19.66H23.6195L21.9095 20.22L21.0095 20.37V20.35L21.8595 20.03L23.6195 19.66C23.5995 19.57 23.5795 19.49 23.5495 19.41C23.5295 19.42 23.5095 19.42 23.4895 19.42C23.4095 19.42 23.3395 19.35 23.3395 19.27C23.3395 19.21 23.3795 19.16 23.4295 19.13C23.3895 19.05 23.3495 18.96 23.2995 18.88L21.7895 19.86L20.9695 20.24C20.9595 20.24 20.9595 20.23 20.9495 20.23L21.6995 19.7L23.2995 18.87C23.2495 18.79 23.1995 18.72 23.1495 18.64C23.1295 18.66 23.0995 18.67 23.0695 18.67C22.9795 18.67 22.9195 18.6 22.9195 18.52C22.9195 18.48 22.9395 18.43 22.9695 18.41C22.9095 18.34 22.8495 18.27 22.7895 18.21L21.5795 19.55L20.8895 20.13C20.8829 20.1233 20.8762 20.1167 20.8695 20.11L21.4495 19.41L22.7795 18.2C22.7195 18.14 22.6495 18.07 22.5795 18.02C22.5595 18.05 22.5095 18.07 22.4595 18.07C22.3795 18.07 22.3195 18.01 22.3195 17.92C22.3195 17.89 22.3295 17.86 22.3495 17.83C22.2695 17.78 22.1995 17.73 22.1195 17.69L21.2995 19.3L20.7695 20.05C20.7695 20.04 20.7595 20.04 20.7595 20.03L21.1395 19.2L22.1095 17.68C22.0395 17.64 21.9595 17.6 21.8695 17.56C21.8495 17.61 21.7995 17.65 21.7395 17.65C21.6595 17.65 21.5895 17.58 21.5895 17.5C21.5895 17.48 21.5895 17.46 21.5995 17.44C21.5195 17.41 21.4295 17.39 21.3395 17.36L20.9595 19.13L20.6495 19.99H20.6295L20.7795 19.08L21.3295 17.36C21.2495 17.34 21.1595 17.32 21.0695 17.3C21.0595 17.37 20.9995 17.43 20.9295 17.43C20.8395 17.43 20.7795 17.36 20.7795 17.28V17.26C20.6895 17.26 20.5995 17.25 20.5095 17.25L20.5995 19.06L20.5095 19.96H20.4895L20.4095 19.06L20.4995 17.25C20.4095 17.25 20.3195 17.25 20.2295 17.26V17.28C20.2295 17.36 20.1595 17.43 20.0795 17.43C19.9995 17.43 19.9395 17.37 19.9295 17.3C19.8395 17.32 19.7495 17.34 19.6695 17.36L20.2195 19.08L20.3795 19.99H20.3495L20.0395 19.13L19.6595 17.36C19.5695 17.39 19.4795 17.41 19.3995 17.44C19.3995 17.46 19.4095 17.48 19.4095 17.51C19.4095 17.59 19.3395 17.65 19.2595 17.65C19.1995 17.65 19.1395 17.62 19.1195 17.56C19.0395 17.6 18.9595 17.64 18.8895 17.68L19.8695 19.2L20.2495 20.04C20.2395 20.04 20.2295 20.04 20.2295 20.05L19.6995 19.3L18.8795 17.69C18.7995 17.73 18.7195 17.78 18.6495 17.83C18.6695 17.86 18.6795 17.89 18.6795 17.92C18.6795 18.01 18.6095 18.07 18.5295 18.07C18.4795 18.07 18.4395 18.05 18.4195 18.02C18.3495 18.07 18.2795 18.14 18.2195 18.2L19.5495 19.41L20.1295 20.11C20.1295 20.12 20.1195 20.12 20.1195 20.13L19.4195 19.55L18.2095 18.21C18.1495 18.27 18.0895 18.34 18.0295 18.4C18.0595 18.43 18.0895 18.47 18.0895 18.52C18.0895 18.6 18.0195 18.67 17.9395 18.67C17.8995 18.67 17.8695 18.66 17.8495 18.64C17.7995 18.72 17.7495 18.79 17.6995 18.87L19.3095 19.7L20.0495 20.23C20.0495 20.23 20.0395 20.24 20.0395 20.25L19.2095 19.86L17.6995 18.88C17.6495 18.96 17.6095 19.04 17.5695 19.12C17.6195 19.14 17.6595 19.2 17.6595 19.26C17.6595 19.34 17.5995 19.41 17.5095 19.41C17.4895 19.41 17.4695 19.4 17.4595 19.4C17.4295 19.48 17.3995 19.57 17.3795 19.65L19.1395 20.03L19.9995 20.35C19.9895 20.36 19.9895 20.37 19.9895 20.37L19.0895 20.22L17.3695 19.66C17.3495 19.75 17.3295 19.84 17.3195 19.93C17.3895 19.94 17.4495 20 17.4495 20.08C17.4495 20.16 17.3795 20.23 17.2995 20.23C17.2895 20.23 17.2895 20.22 17.2795 20.22C17.2695 20.31 17.2695 20.4 17.2695 20.5L19.0695 20.4L19.9695 20.49V20.51L19.0695 20.6L17.2695 20.5C17.2695 20.6 17.2695 20.69 17.2795 20.78H17.2895C17.3795 20.78 17.4395 20.84 17.4395 20.92C17.4395 21 17.3895 21.06 17.3195 21.07C17.3295 21.16 17.3495 21.25 17.3695 21.34L19.0895 20.78L19.9895 20.63V20.65L19.1395 20.97L17.3795 21.35C17.3995 21.44 17.4295 21.52 17.4595 21.61C17.4795 21.6 17.4995 21.6 17.5195 21.6C17.5995 21.6 17.6695 21.66 17.6695 21.75C17.6695 21.81 17.6295 21.86 17.5695 21.88C17.6095 21.96 17.6495 22.04 17.6995 22.12L19.2095 21.14L20.0395 20.76L20.0495 20.77L19.3095 21.3L17.6995 22.13C17.7495 22.21 17.7995 22.28 17.8495 22.36C17.8695 22.34 17.8995 22.33 17.9395 22.33C18.0195 22.33 18.0795 22.4 18.0795 22.48C18.0795 22.52 18.0595 22.57 18.0295 22.59C18.0895 22.66 18.1495 22.73 18.2095 22.79L19.4195 21.45L20.1095 20.87C20.1195 20.88 20.1295 20.88 20.1295 20.89L19.5495 21.59L18.2195 22.8C18.2795 22.86 18.3495 22.92 18.4095 22.98C18.4395 22.95 18.4795 22.93 18.5295 22.93C18.6095 22.93 18.6795 22.99 18.6795 23.07C18.6795 23.11 18.6695 23.14 18.6495 23.16C18.7195 23.22 18.7995 23.27 18.8795 23.31L19.6995 21.7L20.2295 20.95C20.2295 20.96 20.2395 20.96 20.2495 20.97L19.8695 21.8L18.8895 23.32C18.9595 23.36 19.0495 23.4 19.1295 23.44C19.1495 23.39 19.1995 23.35 19.2595 23.35C19.3495 23.35 19.4095 23.42 19.4095 23.5C19.4095 23.52 19.4095 23.54 19.3995 23.56C19.4795 23.59 19.5695 23.61 19.6595 23.64L20.0395 21.87L20.3495 21.01H20.3695L20.2195 21.92L19.6695 23.64C19.7495 23.66 19.8395 23.68 19.9295 23.7C19.9395 23.63 19.9995 23.57 20.0695 23.57C20.1495 23.57 20.2195 23.64 20.2195 23.72V23.74C20.3095 23.74 20.3995 23.75 20.4995 23.75L20.3995 21.94L20.4895 21.04H20.5095L20.5995 21.94L20.4995 23.75C20.5995 23.75 20.6895 23.74 20.7795 23.74C20.7795 23.73 20.7695 23.73 20.7695 23.72C20.7695 23.64 20.8395 23.57 20.9195 23.57C20.9995 23.57 21.0595 23.63 21.0695 23.7C21.1595 23.68 21.2495 23.66 21.3295 23.64L20.7795 21.92L20.6295 21.02C20.6295 21.01 20.6395 21.01 20.6495 21.01L20.9595 21.87L21.3395 23.64C21.4295 23.61 21.5195 23.59 21.5995 23.55C21.5995 23.54 21.5895 23.52 21.5895 23.5C21.5895 23.42 21.6595 23.35 21.7395 23.35C21.7995 23.35 21.8495 23.39 21.8795 23.44C21.9595 23.4 22.0395 23.36 22.1095 23.32L21.1295 21.8L20.7595 20.97C20.7595 20.96 20.7695 20.96 20.7695 20.96L21.2995 21.7L22.1195 23.31C22.1995 23.26 22.2795 23.21 22.3595 23.16C22.3495 23.14 22.3495 23.12 22.3495 23.09C22.3495 23.01 22.4095 22.95 22.4995 22.95C22.5295 22.95 22.5595 22.96 22.5895 22.98C22.6595 22.92 22.7195 22.86 22.7795 22.8L21.4495 21.59L20.8695 20.89C20.8762 20.8833 20.8829 20.8767 20.8895 20.87L21.5795 21.45L22.7895 22.79C22.8495 22.73 22.9095 22.67 22.9695 22.6C22.9395 22.57 22.9195 22.53 22.9195 22.48C22.9195 22.4 22.9795 22.33 23.0595 22.33C23.0995 22.33 23.1295 22.34 23.1495 22.36C23.1995 22.29 23.2495 22.21 23.2995 22.13L21.6995 21.3H21.6895L21.3495 21.06L20.9495 20.78C20.9595 20.77 20.9595 20.76 20.9695 20.76L21.7895 21.14L23.2995 22.12C23.3495 22.04 23.3895 21.96 23.4295 21.88C23.4229 21.88 23.4195 21.8767 23.4195 21.87H23.3995C23.3995 21.8633 23.3962 21.86 23.3895 21.86C23.3795 21.84 23.3595 21.82 23.3495 21.8C23.3395 21.78 23.3395 21.76 23.3395 21.74C23.3395 21.66 23.4095 21.59 23.4895 21.59C23.4995 21.59 23.5095 21.6 23.5195 21.6H23.5395C23.5695 21.52 23.5995 21.43 23.6195 21.35L21.8595 20.97L21.0095 20.65V20.63L21.9095 20.78L23.0095 21.14L23.6295 21.34C23.6495 21.25 23.6695 21.16 23.6795 21.07C23.6095 21.06 23.5595 21 23.5595 20.93C23.5595 20.84 23.6195 20.78 23.7095 20.78H23.7195C23.7295 20.69 23.7295 20.6 23.7295 20.5L21.9295 20.6ZM20.4995 20.92C20.2695 20.92 20.0895 20.73 20.0895 20.5C20.0895 20.27 20.2695 20.08 20.4995 20.08C20.7295 20.08 20.9195 20.27 20.9195 20.5C20.9195 20.73 20.7295 20.92 20.4995 20.92Z" fill="#E3E7EA"/>
<path d="M20.5 24.1004C22.479 24.1004 24.084 22.4894 24.084 20.5004C24.084 18.5124 22.479 16.9004 20.5 16.9004C18.521 16.9004 16.916 18.5124 16.916 20.5004C16.916 22.4884 18.521 24.1004 20.5 24.1004ZM17.847 22.3594C17.795 22.2854 17.747 22.2074 17.701 22.1284L19.306 21.3044L20.05 20.7744C20.046 20.7674 20.041 20.7624 20.038 20.7554L19.21 21.1384L17.697 22.1214C17.653 22.0444 17.612 21.9654 17.574 21.8844C17.631 21.8634 17.671 21.8094 17.671 21.7454C17.671 21.6634 17.605 21.5964 17.523 21.5964C17.5 21.5964 17.479 21.6024 17.46 21.6104C17.429 21.5234 17.401 21.4354 17.377 21.3454L19.139 20.9664L19.995 20.6474C19.993 20.6404 19.992 20.6334 19.991 20.6264L19.09 20.7814L17.374 21.3384C17.351 21.2504 17.332 21.1624 17.315 21.0724C17.387 21.0614 17.442 20.9994 17.442 20.9244C17.442 20.8424 17.376 20.7754 17.294 20.7754C17.288 20.7754 17.283 20.7754 17.278 20.7754C17.271 20.6854 17.266 20.5944 17.265 20.5034L19.065 20.5954L19.967 20.5114C19.967 20.5114 19.965 20.5044 19.965 20.5004C19.965 20.4964 19.967 20.4924 19.968 20.4884L19.065 20.4034L17.265 20.4964C17.265 20.4044 17.271 20.3144 17.278 20.2244C17.287 20.2244 17.294 20.2264 17.303 20.2264C17.385 20.2264 17.452 20.1594 17.452 20.0774C17.452 19.9994 17.392 19.9354 17.315 19.9284C17.331 19.8384 17.351 19.7504 17.374 19.6634L19.09 20.2194L19.991 20.3734C19.993 20.3664 19.993 20.3584 19.995 20.3514L19.139 20.0334L17.376 19.6534C17.4 19.5654 17.427 19.4784 17.458 19.3934C17.474 19.4004 17.494 19.4034 17.512 19.4034C17.595 19.4034 17.66 19.3374 17.66 19.2554C17.66 19.1944 17.624 19.1414 17.571 19.1184C17.61 19.0364 17.651 18.9554 17.696 18.8774L19.209 19.8604L20.038 20.2434C20.042 20.2364 20.046 20.2314 20.05 20.2244L19.305 19.6934L17.7 18.8694C17.746 18.7904 17.795 18.7134 17.847 18.6384C17.872 18.6574 17.903 18.6684 17.936 18.6684C18.018 18.6684 18.084 18.6024 18.084 18.5204C18.084 18.4724 18.061 18.4294 18.026 18.4024C18.084 18.3334 18.144 18.2674 18.208 18.2034L19.416 19.5474L20.114 20.1284C20.119 20.1224 20.125 20.1174 20.13 20.1114L19.552 19.4114L18.214 18.1974C18.278 18.1334 18.345 18.0724 18.414 18.0134C18.441 18.0474 18.482 18.0694 18.529 18.0694C18.611 18.0694 18.676 18.0034 18.676 17.9214C18.676 17.8884 18.666 17.8574 18.648 17.8334C18.722 17.7814 18.798 17.7324 18.876 17.6864L19.696 19.2984L20.225 20.0464C20.231 20.0424 20.237 20.0374 20.243 20.0344L19.863 19.2014L18.883 17.6814C18.96 17.6374 19.039 17.5964 19.12 17.5584C19.141 17.6134 19.195 17.6524 19.257 17.6524C19.339 17.6524 19.406 17.5864 19.406 17.5044C19.406 17.4834 19.401 17.4624 19.393 17.4434C19.479 17.4124 19.567 17.3854 19.656 17.3614L20.034 19.1314L20.35 19.9914C20.357 19.9894 20.365 19.9894 20.372 19.9874L20.219 19.0824L19.665 17.3594C19.751 17.3364 19.839 17.3164 19.928 17.3004C19.939 17.3724 20 17.4284 20.075 17.4284C20.157 17.4284 20.223 17.3614 20.223 17.2794C20.223 17.2734 20.223 17.2684 20.223 17.2624C20.312 17.2544 20.403 17.2504 20.493 17.2504L20.403 19.0584L20.488 19.9644C20.488 19.9644 20.496 19.9614 20.501 19.9614C20.505 19.9614 20.508 19.9634 20.512 19.9634L20.596 19.0584L20.505 17.2504C20.597 17.2504 20.688 17.2554 20.778 17.2634C20.778 17.2694 20.776 17.2754 20.776 17.2814C20.776 17.3634 20.842 17.4294 20.924 17.4294C20.999 17.4294 21.06 17.3734 21.07 17.3014C21.159 17.3174 21.246 17.3364 21.332 17.3594L20.778 19.0824L20.624 19.9864C20.631 19.9884 20.639 19.9884 20.646 19.9904L20.963 19.1324L21.34 17.3614C21.428 17.3854 21.514 17.4124 21.6 17.4434C21.593 17.4604 21.588 17.4794 21.588 17.4984C21.588 17.5804 21.654 17.6464 21.736 17.6464C21.797 17.6464 21.849 17.6094 21.872 17.5574C21.955 17.5964 22.034 17.6384 22.113 17.6824L21.134 19.2024L20.754 20.0324C20.761 20.0364 20.766 20.0414 20.773 20.0454L21.3 19.2994L22.12 17.6874C22.198 17.7324 22.273 17.7814 22.347 17.8334C22.328 17.8584 22.315 17.8904 22.315 17.9244C22.315 18.0064 22.381 18.0734 22.463 18.0734C22.512 18.0734 22.554 18.0504 22.581 18.0144C22.65 18.0734 22.717 18.1344 22.782 18.1994L21.445 19.4124L20.868 20.1114C20.874 20.1174 20.88 20.1214 20.886 20.1284L21.581 19.5504L22.788 18.2064C22.851 18.2704 22.913 18.3374 22.971 18.4074C22.937 18.4344 22.916 18.4764 22.916 18.5234C22.916 18.6054 22.982 18.6724 23.064 18.6724C23.097 18.6724 23.126 18.6614 23.152 18.6434C23.204 18.7174 23.253 18.7944 23.298 18.8734L21.694 19.6974L20.952 20.2264C20.956 20.2324 20.961 20.2384 20.965 20.2454L21.79 19.8644L23.304 18.8804C23.351 18.9624 23.393 19.0484 23.434 19.1354C23.381 19.1574 23.344 19.2104 23.344 19.2724C23.344 19.3544 23.41 19.4214 23.492 19.4214C23.512 19.4214 23.53 19.4174 23.547 19.4104C23.576 19.4904 23.602 19.5734 23.624 19.6564L21.861 20.0354L21.01 20.3514C21.012 20.3584 21.013 20.3664 21.015 20.3734L21.911 20.2204L23.626 19.6644C23.649 19.7514 23.669 19.8394 23.686 19.9294C23.614 19.9404 23.559 20.0024 23.559 20.0774C23.559 20.1594 23.625 20.2264 23.707 20.2264C23.713 20.2264 23.718 20.2264 23.722 20.2264C23.73 20.3164 23.734 20.4074 23.734 20.4984L21.935 20.4064L21.037 20.4904C21.037 20.4904 21.039 20.4984 21.039 20.5024C21.039 20.5064 21.037 20.5104 21.037 20.5144L21.934 20.5974L23.734 20.5054C23.734 20.5974 23.729 20.6894 23.722 20.7784C23.717 20.7784 23.712 20.7784 23.707 20.7784C23.625 20.7784 23.559 20.8454 23.559 20.9274C23.559 21.0014 23.614 21.0634 23.685 21.0744C23.669 21.1644 23.649 21.2524 23.626 21.3394L23.014 21.1404L21.911 20.7824L21.015 20.6284C21.013 20.6364 21.013 20.6444 21.01 20.6514L21.861 20.9684L23.624 21.3464C23.6 21.4344 23.573 21.5204 23.542 21.6054C23.535 21.6024 23.527 21.6004 23.519 21.5984C23.509 21.5964 23.499 21.5954 23.488 21.5954C23.406 21.5954 23.34 21.6614 23.34 21.7444C23.34 21.7644 23.344 21.7844 23.352 21.8014C23.361 21.8234 23.375 21.8434 23.393 21.8584C23.393 21.8584 23.4 21.8644 23.404 21.8674C23.404 21.8674 23.412 21.8724 23.416 21.8744C23.416 21.8744 23.422 21.8794 23.426 21.8804C23.387 21.9634 23.346 22.0434 23.301 22.1214L21.789 21.1394L20.964 20.7584C20.96 20.7654 20.955 20.7704 20.951 20.7774L21.344 21.0564L21.692 21.3054L23.295 22.1284C23.249 22.2084 23.2 22.2864 23.147 22.3624C23.123 22.3454 23.093 22.3344 23.06 22.3344C22.978 22.3344 22.912 22.4014 22.912 22.4834C22.912 22.5294 22.933 22.5704 22.966 22.5974C22.908 22.6664 22.85 22.7324 22.787 22.7954L21.579 21.4524L20.884 20.8744C20.878 20.8804 20.873 20.8854 20.867 20.8904L21.442 21.5884L22.78 22.8014C22.718 22.8634 22.652 22.9234 22.585 22.9804C22.559 22.9594 22.526 22.9464 22.492 22.9464C22.41 22.9464 22.344 23.0134 22.344 23.0954C22.344 23.1174 22.349 23.1384 22.357 23.1584C22.279 23.2134 22.199 23.2644 22.118 23.3124L21.297 21.7024L20.772 20.9564C20.765 20.9604 20.759 20.9664 20.752 20.9694L21.132 21.7974L22.11 23.3184C22.033 23.3624 21.953 23.4044 21.873 23.4424C21.85 23.3904 21.798 23.3544 21.738 23.3544C21.656 23.3544 21.59 23.4214 21.59 23.5034C21.59 23.5224 21.594 23.5404 21.6 23.5564C21.515 23.5874 21.428 23.6154 21.339 23.6394L20.962 21.8684L20.646 21.0124C20.639 21.0144 20.631 21.0154 20.623 21.0164L20.777 21.9174L21.331 23.6404C21.245 23.6634 21.156 23.6834 21.067 23.7004C21.056 23.6274 20.994 23.5734 20.92 23.5734C20.838 23.5734 20.772 23.6404 20.772 23.7224C20.772 23.7284 20.772 23.7334 20.772 23.7384C20.683 23.7464 20.592 23.7504 20.501 23.7504L20.593 21.9434L20.509 21.0404C20.509 21.0404 20.503 21.0424 20.5 21.0424C20.495 21.0424 20.49 21.0394 20.485 21.0394L20.401 21.9434L20.493 23.7504C20.4 23.7504 20.308 23.7454 20.217 23.7384C20.217 23.7334 20.217 23.7284 20.217 23.7224C20.217 23.6404 20.151 23.5734 20.069 23.5734C19.994 23.5734 19.932 23.6284 19.922 23.7004C19.834 23.6834 19.748 23.6644 19.663 23.6414L20.217 21.9194L20.37 21.0164C20.363 21.0144 20.355 21.0144 20.348 21.0124L20.032 21.8694L19.654 23.6404C19.566 23.6164 19.48 23.5894 19.395 23.5584C19.402 23.5414 19.406 23.5234 19.406 23.5044C19.406 23.4224 19.341 23.3554 19.259 23.3554C19.198 23.3554 19.146 23.3924 19.122 23.4444C19.04 23.4054 18.96 23.3644 18.882 23.3184L19.861 21.7984L20.241 20.9674C20.234 20.9634 20.229 20.9584 20.222 20.9544L19.694 21.7014L18.874 23.3134C18.795 23.2684 18.718 23.2174 18.643 23.1654C18.66 23.1404 18.672 23.1104 18.672 23.0764C18.672 22.9944 18.606 22.9274 18.523 22.9274C18.477 22.9274 18.435 22.9494 18.409 22.9834C18.341 22.9254 18.274 22.8654 18.212 22.8034L19.55 21.5904L20.128 20.8904C20.122 20.8844 20.117 20.8794 20.111 20.8724L19.414 21.4534L18.206 22.7964C18.143 22.7314 18.081 22.6654 18.022 22.5954C18.056 22.5684 18.078 22.5254 18.078 22.4794C18.078 22.3974 18.013 22.3304 17.931 22.3304C17.897 22.3304 17.868 22.3414 17.842 22.3604L17.847 22.3594Z" fill="#2C2478"/>
<path d="M20.5019 20.92C20.7319 20.92 20.9169 20.732 20.9169 20.503C20.9169 20.274 20.7309 20.085 20.5019 20.085C20.2729 20.085 20.0859 20.272 20.0859 20.503C20.0859 20.734 20.2729 20.92 20.5019 20.92Z" fill="#2C2478"/>
</svg>
