<svg width="41" height="41" viewBox="0 0 41 41" fill="none" xmlns="http://www.w3.org/2000/svg">
<path d="M29.7416 17.4763L29.5276 17.4573L29.6436 16.9343L29.4096 16.9703L29.3896 16.5363L29.2906 16.1023L29.1016 15.8213V16.3623C29.1306 16.4263 29.1556 16.4803 29.1556 16.4803C29.1556 16.4803 29.1306 16.4933 29.1016 16.5113V16.8563C29.1676 16.9743 29.2326 17.0943 29.2326 17.0943C29.2326 17.0943 29.1726 17.1063 29.1016 17.1203V19.4463H29.7476V17.5463L29.7416 17.4763Z" fill="#C1694F"/>
<path d="M29.1016 26.9766V30.3566C29.1016 30.5206 29.2466 30.6546 29.4256 30.6546C29.6046 30.6546 29.7476 30.5216 29.7476 30.3566V26.9766C29.6406 26.9786 29.5356 26.9836 29.4256 26.9836C29.3146 26.9836 29.2096 26.9796 29.1016 26.9766Z" fill="#C1694F"/>
<path d="M27.4448 24.944L27.6458 24.634L27.6278 24.31L27.3538 24.599L27.2548 24.038L27.6458 24.002C27.6458 24.002 27.3078 23.297 27.8028 23.314C28.3518 23.333 27.9788 23.984 27.9788 23.984H28.3908L28.4498 24.507L28.0588 24.29V24.598L28.3148 24.824C28.5238 24.807 28.7508 24.794 28.9898 24.788L29.2328 24.362L28.6658 24.487V23.783L29.1948 24.018L28.9408 23.441H29.1018V22.833C28.9758 22.806 28.8228 22.768 28.6848 22.717C28.3908 22.609 28.2738 22.373 27.7838 22.373C27.2938 22.373 27.1568 22.681 27.1568 22.681C27.1568 22.681 26.8448 22.537 26.5108 22.716C26.4428 22.753 26.4048 22.815 26.3718 22.879C26.2998 23.022 26.3018 23.215 26.3438 23.421C26.4028 23.52 26.4568 23.627 26.4888 23.724L26.8048 23.711L26.6878 24.289C26.6878 24.289 27.0988 24.001 27.1188 24.072C27.1368 24.146 27.1968 24.668 27.1968 24.668L26.6668 24.56L26.9798 24.976L26.7198 25.09C26.7228 25.114 26.7248 25.126 26.7248 25.13C26.9658 25.055 27.2038 24.992 27.4448 24.944Z" fill="#DD2E44"/>
<path d="M31.8805 24.978L32.1935 24.562L31.6665 24.67C31.6665 24.67 31.7255 24.148 31.7445 24.074C31.7645 24.003 32.1755 24.291 32.1755 24.291L32.0585 23.713L32.3735 23.726C32.4055 23.629 32.4595 23.522 32.5185 23.423C32.5555 23.237 32.5715 23.054 32.5195 22.915C32.4875 22.831 32.4345 22.762 32.3515 22.717C32.0175 22.538 31.7045 22.682 31.7045 22.682C31.7045 22.682 31.5665 22.374 31.0775 22.374C30.5885 22.374 30.4715 22.609 30.1775 22.718C30.0365 22.77 29.8785 22.809 29.7505 22.837V23.443H29.8585L29.6035 24.039L30.1915 23.75V24.544L29.6225 24.364L29.9265 24.791C30.1455 24.797 30.3545 24.808 30.5485 24.824L30.8025 24.601V24.293L30.4095 24.51L30.4705 23.987H30.8815C30.8815 23.987 30.5095 23.336 31.0565 23.317C31.5525 23.299 31.2135 24.005 31.2135 24.005L31.6055 24.041L31.5085 24.602L31.2345 24.313L31.2135 24.637L31.4115 24.94C31.6545 24.988 31.8945 25.052 32.1375 25.127C32.1375 25.12 32.1395 25.113 32.1415 25.095L31.8785 24.98L31.8805 24.978Z" fill="#DD2E44"/>
<path d="M29.1005 19.4473V19.7543H28.8095V20.2063H29.1005V20.6183C28.8885 20.7293 28.7395 20.9353 28.7395 21.1803C28.7395 21.4253 28.8885 21.6313 29.1005 21.7423V22.0043C28.9415 21.9633 28.7365 21.9093 28.5765 21.8243C28.5605 21.8153 28.5395 21.8033 28.5235 21.7933C28.2575 21.6433 27.9125 21.4153 27.4405 21.3113C27.2925 21.2783 27.1345 21.2543 26.9605 21.2543C26.1975 21.2543 25.8745 21.7153 25.7275 22.1753C25.6635 22.3733 25.6675 22.6183 25.7175 22.8673C25.7835 23.1983 25.9425 23.5393 26.2265 23.8033C26.2865 23.8593 26.3355 23.8963 26.3755 23.9213C26.3615 24.0793 26.3495 24.2953 26.3735 24.4353C26.3975 24.5793 26.4645 24.8113 26.5135 24.9743C26.5435 25.0753 26.5695 25.1563 26.5695 25.1563L26.7195 25.0903L26.9795 24.9763L26.6665 24.5603L27.1965 24.6683C27.1965 24.6683 27.1365 24.1463 27.1185 24.0723C27.0985 24.0013 26.6875 24.2893 26.6875 24.2893L26.8045 23.7113L26.4885 23.7243C26.4565 23.6273 26.4025 23.5203 26.3435 23.4213C26.3155 23.3743 26.2885 23.3243 26.2585 23.2863C26.1795 23.1873 26.1355 23.0303 26.1095 22.8623C26.0595 22.5273 26.1195 22.1293 26.3745 21.9313C26.9615 21.4693 27.7195 21.7543 28.0775 21.9843C28.4475 22.2233 28.8525 22.3333 29.1015 22.3823V23.4403H28.9405L29.1945 24.0173L28.6655 23.7823V24.4863L29.2325 24.3613L28.9895 24.7873C28.7505 24.7933 28.5235 24.8063 28.3145 24.8233L28.0585 24.5973V24.2893L28.4495 24.5063L28.3905 23.9833H27.9785C27.9785 23.9833 28.3515 23.3323 27.8025 23.3133C27.3075 23.2953 27.6455 24.0013 27.6455 24.0013L27.2545 24.0373L27.3535 24.5983L27.6275 24.3093L27.6455 24.6333L27.4445 24.9433C27.2035 24.9923 26.9655 25.0553 26.7245 25.1303C26.6905 25.1403 26.6585 25.1453 26.6245 25.1563C26.6245 25.1563 26.5645 25.6283 26.6815 25.8623C26.6965 25.8923 26.8105 25.9173 26.9875 25.9383C27.5655 25.7933 28.4375 25.6983 29.4255 25.6983C30.4205 25.6983 31.2975 25.7943 31.8745 25.9403C32.0665 25.9183 32.1925 25.8923 32.2075 25.8613C32.3265 25.6263 32.2665 25.1553 32.2665 25.1553C32.2225 25.1413 32.1805 25.1353 32.1375 25.1223C31.8945 25.0483 31.6545 24.9833 31.4115 24.9353L31.2135 24.6323L31.2345 24.3083L31.5085 24.5973L31.6055 24.0363L31.2135 24.0003C31.2135 24.0003 31.5525 23.2953 31.0565 23.3123C30.5095 23.3313 30.8815 23.9823 30.8815 23.9823H30.4705L30.4095 24.5053L30.8025 24.2883V24.5963L30.5485 24.8193C30.3545 24.8043 30.1455 24.7923 29.9265 24.7863L29.6225 24.3593L30.1915 24.5393V23.7453L29.6035 24.0343L29.8585 23.4383H29.7505V22.3813C29.9985 22.3333 30.4085 22.2243 30.7835 21.9823C31.1415 21.7513 31.8995 21.4663 32.4875 21.9293C32.7475 22.1313 32.8055 22.5423 32.7495 22.8813C32.7235 23.0413 32.6795 23.1893 32.6035 23.2843C32.5735 23.3223 32.5465 23.3723 32.5175 23.4193C32.4585 23.5183 32.4045 23.6253 32.3725 23.7223L32.0575 23.7093L32.1745 24.2873C32.1745 24.2873 31.7635 23.9993 31.7435 24.0703C31.7245 24.1443 31.6655 24.6663 31.6655 24.6663L32.1925 24.5583L31.8795 24.9743L32.1425 25.0893L32.2905 25.1543C32.2905 25.1543 32.3065 25.1053 32.3265 25.0393C32.3755 24.8823 32.4595 24.5973 32.4875 24.4333C32.5105 24.2923 32.4985 24.0763 32.4865 23.9183C32.5265 23.8933 32.5745 23.8563 32.6335 23.8013C32.9215 23.5353 33.0795 23.1903 33.1445 22.8563C33.1925 22.6103 33.1955 22.3693 33.1325 22.1743C32.9865 21.7143 32.6625 21.2533 31.8995 21.2533C31.8835 21.2533 31.8715 21.2583 31.8555 21.2583C31.1175 21.2733 30.6275 21.6363 30.2845 21.8223C30.2335 21.8493 30.1745 21.8683 30.1175 21.8903C29.9915 21.9373 29.8615 21.9773 29.7515 22.0053V21.7403C29.9625 21.6293 30.1115 21.4243 30.1115 21.1793C30.1115 20.9343 29.9625 20.7293 29.7515 20.6173V20.2043H30.0425V19.7523H29.7515V19.4453H29.1005V19.4473Z" fill="#FFCC4D"/>
<path d="M4.24414 9.14525C4.46914 9.00025 4.71514 8.87925 4.97414 8.78125C4.71614 8.87925 4.47114 9.00125 4.24414 9.14525Z" fill="#E3E7EA"/>
<path d="M28.9773 16.6427C28.9953 16.6667 29.0483 16.7607 29.1013 16.8557V16.5107C29.0403 16.5467 28.9513 16.6057 28.9773 16.6427Z" fill="#E3E7EA"/>
<path d="M28.2165 16.7336L27.8625 16.6426L27.6085 17.1306C27.6085 17.1306 27.3935 16.8966 27.3735 16.9496C27.3595 16.9876 27.2515 17.1736 27.1875 17.2836C27.4755 17.3896 27.7185 17.5176 27.9675 17.6396L28.2165 16.7336Z" fill="#E3E7EA"/>
<path d="M37.5313 31.1904C37.4013 31.3304 37.2623 31.4624 37.1113 31.5834C37.2623 31.4614 37.4013 31.3314 37.5313 31.1904Z" fill="#E3E7EA"/>
<path d="M32.5176 23.4228C32.5456 23.3758 32.5736 23.3258 32.6036 23.2878C32.6786 23.1928 32.7226 23.0448 32.7496 22.8848C32.6696 22.8938 32.5916 22.9038 32.5196 22.9158C32.5716 23.0548 32.5556 23.2368 32.5186 23.4238L32.5176 23.4228Z" fill="#E3E7EA"/>
<path d="M30.7444 11.8135C30.6764 11.8365 30.6004 11.8545 30.5254 11.8735L30.6614 12.0735L30.7444 11.8135Z" fill="#E3E7EA"/>
<path d="M21.5 17.9141C21.732 17.9641 21.989 18.0011 22.319 18.0011C24.058 18.0011 24.15 17.1651 25.721 17.0921L26.454 16.4641L27.081 16.0311L26.667 15.9781C26.667 15.9781 27.264 15.7871 27.332 15.7791C27.51 15.7611 27.06 15.6171 27.06 15.6171L27.721 15.4321C27.579 15.3601 27.429 15.2921 27.269 15.2291C27.112 15.2631 26.961 15.2911 26.961 15.2911L26.928 15.1161C26.794 15.0801 26.649 15.0501 26.484 15.0291L26.277 15.1091C26.277 15.1091 26.265 15.0661 26.251 15.0141C26.15 15.0071 26.062 14.9941 25.948 14.9941C25.893 14.9941 25.854 15.0021 25.802 15.0041C25.729 15.0421 25.669 15.0731 25.669 15.0731L25.613 15.0171C25.503 15.0261 25.388 15.0311 25.292 15.0471L25.161 15.2371L24.984 15.1151C24.058 15.3621 23.736 15.9181 22.319 15.9181C21.989 15.9181 21.732 15.8811 21.5 15.8311V17.9151V17.9141Z" fill="#E3E7EA"/>
<path d="M26.3714 22.8813C26.2884 22.8733 26.2014 22.8673 26.1094 22.8643C26.1344 23.0323 26.1784 23.1893 26.2584 23.2883C26.2884 23.3263 26.3154 23.3763 26.3434 23.4233C26.3024 23.2173 26.2994 23.0243 26.3714 22.8813Z" fill="#E3E7EA"/>
<path d="M29.663 12.0726C29.644 12.1446 29.546 12.7776 29.546 12.7776L29.703 12.8686L29.683 13.5736C29.683 13.5736 29.84 13.8256 29.84 13.7716C29.84 13.7176 29.996 12.8506 29.996 12.8506L30.212 13.0136L30.288 12.5626L30.441 11.8926C30.201 11.9466 29.934 11.9866 29.587 11.9866C29.505 11.9866 29.444 11.9756 29.369 11.9726L29.291 12.2006C29.291 12.2006 29.684 12.0026 29.663 12.0746V12.0726Z" fill="#E3E7EA"/>
<path d="M25.926 13.1484C26.071 13.1484 26.187 13.1624 26.31 13.1734L25.886 13.0324L26.083 12.7434L24.867 12.4544L25.613 12.2734L25.103 11.4784L26.16 12.0574L26.63 11.9124L26.866 12.4734L27.297 12.7084L27.374 13.1234L27.59 13.0324L27.785 13.5204L28.041 13.4474L28.177 13.7914L28.551 13.8094L28.451 13.3574L28.607 13.1404L28.176 12.8144L28.55 12.6524L28 12.2364L28.47 12.1824L27.804 11.5864L27.897 11.5894C27.397 11.3394 26.942 11.0664 25.947 11.0664C24.136 11.0664 24.136 11.9894 22.318 11.9894C21.988 11.9894 21.732 11.9524 21.5 11.9034V13.9874C21.732 14.0374 21.989 14.0744 22.319 14.0744C24.137 14.0744 24.137 13.1514 25.926 13.1514V13.1484Z" fill="#E3E7EA"/>
<path d="M29.1021 17.1211C28.9671 17.1481 28.7831 17.1851 28.8221 17.1851C28.8821 17.1851 29.0381 17.4381 29.0381 17.4381L28.7831 17.5291L28.6661 17.8001C28.6661 17.8001 28.3731 17.4931 28.3921 17.5471C28.4011 17.5701 28.3671 17.6811 28.3281 17.7961C28.5431 17.8781 28.7941 17.9401 29.1021 17.9721V17.1211Z" fill="#E3E7EA"/>
<path d="M37.9155 30.7031C37.8215 30.8441 37.7185 30.9791 37.6055 31.1071C37.7175 30.9781 37.8225 30.8451 37.9155 30.7031Z" fill="#E3E7EA"/>
<path d="M29.0563 15.8818C29.0173 15.9498 28.9663 16.0488 28.9783 16.0828C28.9903 16.1168 29.0543 16.2578 29.1023 16.3628V15.8848C29.0883 15.8828 29.0703 15.8838 29.0563 15.8818Z" fill="#E3E7EA"/>
<path d="M4.34352 9.2322L4.22852 9.1582L4.34352 9.2322Z" fill="#E3E7EA"/>
<path d="M28.74 21.1799C28.74 21.4299 28.89 21.6299 29.1 21.7399V21.8999C28.88 21.8799 28.69 21.8399 28.52 21.7899C28.26 21.6399 27.91 21.4199 27.44 21.3099C27.07 21.1399 26.64 21.0099 25.93 21.0099C24.14 21.0099 24.14 21.9299 22.32 21.9299C20.5 21.9299 20.5 21.0099 18.68 21.0099C16.86 21.0099 16.86 21.9299 15.05 21.9299C13.23 21.9299 13.23 21.0099 11.41 21.0099C9.59 21.0099 9.59 21.9299 7.77 21.9299C5.96 21.9299 5.96 21.0099 4.14 21.0099C3.35 21.0099 2.9 21.1799 2.5 21.3799V20.4999H21.5V19.7599C21.73 19.8099 21.99 19.8499 22.32 19.8499C24.14 19.8499 24.14 18.9199 25.95 18.9199C27.46 18.9199 27.73 19.5499 28.81 19.7699V20.2099H29.1V20.6199C28.89 20.7299 28.74 20.9399 28.74 21.1799Z" fill="#E3E7EA"/>
<path d="M4.14 24.9396C3.35 24.9396 2.9 25.1096 2.5 25.3096V23.2296C2.9 23.0296 3.35 22.8496 4.14 22.8496C5.96 22.8496 5.96 23.7796 7.77 23.7796C9.59 23.7796 9.59 22.8496 11.41 22.8496C13.23 22.8496 13.23 23.7796 15.05 23.7796C16.86 23.7796 16.86 22.8496 18.68 22.8496C20.5 22.8496 20.5 23.7796 22.32 23.7796C24.05 23.7796 24.15 22.9496 25.72 22.8696C25.78 23.1996 25.94 23.5396 26.23 23.7996C26.29 23.8596 26.34 23.8996 26.38 23.9196C26.36 24.0796 26.35 24.2996 26.37 24.4396C26.4 24.5796 26.46 24.8096 26.51 24.9796C26.34 24.9496 26.15 24.9396 25.93 24.9396C24.14 24.9396 24.14 25.8596 22.32 25.8596C20.5 25.8596 20.5 24.9396 18.68 24.9396C16.86 24.9396 16.86 25.8596 15.05 25.8596C13.23 25.8596 13.23 24.9396 11.41 24.9396C9.59 24.9396 9.59 25.8596 7.77 25.8596C5.96 25.8596 5.96 24.9396 4.14 24.9396Z" fill="#E3E7EA"/>
<path d="M29.1 27.6703V29.7603C27.77 29.6203 27.6 28.8703 25.93 28.8703C24.14 28.8703 24.14 29.7903 22.32 29.7903C20.5 29.7903 20.5 28.8703 18.68 28.8703C16.86 28.8703 16.86 29.7903 15.05 29.7903C13.23 29.7903 13.23 28.8703 11.41 28.8703C9.59 28.8703 9.59 29.7903 7.77 29.7903C5.96 29.7903 5.96 28.8703 4.14 28.8703C3.38 28.8703 2.94 29.0303 2.55 29.2203C2.56 29.3603 2.59 29.5003 2.62 29.6303C2.54 29.3703 2.5 29.1003 2.5 28.8103V27.1603C2.9 26.9603 3.35 26.7803 4.14 26.7803C5.96 26.7803 5.96 27.7103 7.77 27.7103C9.59 27.7103 9.59 26.7803 11.41 26.7803C13.23 26.7803 13.23 27.7103 15.05 27.7103C16.86 27.7103 16.86 26.7803 18.68 26.7803C20.5 26.7803 20.5 27.7103 22.32 27.7103C24.14 27.7103 24.14 26.7803 25.95 26.7803C27.59 26.7803 27.77 27.5203 29.1 27.6703Z" fill="#E3E7EA"/>
<path d="M4.09059 9.2657C4.11059 9.2517 4.12559 9.2337 4.14559 9.2207C3.93159 9.3657 3.73659 9.5287 3.55859 9.7087C3.56359 9.7037 3.57059 9.6997 3.57559 9.6937C3.73359 9.5377 3.90559 9.3957 4.09059 9.2657Z" fill="#E3E7EA"/>
<path d="M33.227 26.7832C31.47 26.7832 31.397 27.6382 29.748 27.6952V29.7752C31.395 29.7022 31.487 28.8652 33.227 28.8652C35.046 28.8652 35.046 29.8452 36.863 29.8452C37.606 29.8452 38.04 29.6782 38.426 29.4852C38.47 29.2642 38.5 29.0392 38.5 28.8062V27.3132C38.098 27.5042 37.654 27.6742 36.865 27.6762C35.047 27.6762 35.047 26.7822 33.227 26.7822V26.7832Z" fill="#E3E7EA"/>
<path d="M38.2215 30.1367C38.1645 30.2717 38.0935 30.3997 38.0195 30.5267C38.0925 30.3997 38.1645 30.2727 38.2215 30.1367Z" fill="#E3E7EA"/>
<path d="M33.2278 30.7121C31.4108 30.7121 31.4108 31.6351 29.5888 31.6351C27.7668 31.6351 27.7738 30.7121 25.9488 30.7121C24.1378 30.7121 24.1378 31.6351 22.3198 31.6351C20.5018 31.6351 20.5008 30.7121 18.6828 30.7121C16.8648 30.7121 16.8648 31.6351 15.0468 31.6351C13.2288 31.6351 13.2288 30.7121 11.4108 30.7121C9.59281 30.7121 9.59281 31.6351 7.77481 31.6351C5.95681 31.6351 5.95581 30.7121 4.13781 30.7121C3.73381 30.7121 3.42181 30.7581 3.15881 30.8291C2.99281 30.5961 2.85981 30.3441 2.75781 30.0781C3.32081 31.4881 4.77581 32.5001 6.49981 32.5001H34.4998C35.4978 32.5001 36.3988 32.1501 37.0998 31.5931C37.0218 31.5981 36.9528 31.6071 36.8658 31.6071C35.0478 31.6071 35.0478 30.7121 33.2278 30.7121Z" fill="#E3E7EA"/>
<path d="M38.4382 11.6245C38.0512 11.8035 37.6152 11.9585 36.8642 11.9585C35.0462 11.9585 35.0462 11.0645 33.2262 11.0645C33.1182 11.0645 33.0342 11.0775 32.9382 11.0835C32.9682 11.1415 33.3622 11.3325 33.3042 11.3505C33.2452 11.3685 32.2462 11.2775 32.2462 11.2775L31.6802 11.8015L32.0322 11.9105L31.5022 12.1995L31.9532 12.3255L31.5422 12.6145L31.8952 12.5785L31.3272 12.9765L31.8952 13.0855L31.1312 13.4465L31.3072 13.6275L30.9902 13.8005C31.2832 13.6765 31.5382 13.5355 31.8282 13.4125C31.9092 13.3645 31.9892 13.3185 32.0512 13.2835C32.3452 13.1205 32.5802 12.8135 33.0712 12.6875C33.5622 12.5615 34.5002 12.7065 34.5002 12.7065L33.6182 13.1405L33.6442 13.1775C35.0442 13.3185 35.2032 14.1285 36.8632 14.1285C37.6542 14.1285 38.0982 13.9415 38.5002 13.7315V12.1925C38.5002 11.9975 38.4692 11.8115 38.4382 11.6245Z" fill="#E3E7EA"/>
<path d="M33.2262 22.8526C33.1952 22.8526 33.1742 22.8576 33.1442 22.8576C33.0792 23.1916 32.9212 23.5366 32.6332 23.8026C32.5732 23.8576 32.5262 23.8946 32.4862 23.9196C32.4992 24.0776 32.5102 24.2936 32.4872 24.4346C32.4592 24.5986 32.3742 24.8826 32.3262 25.0406C32.5762 24.9796 32.8582 24.9356 33.2262 24.9356C35.0452 24.9356 35.0452 25.9156 36.8622 25.9156C37.6532 25.9156 38.0972 25.7286 38.4992 25.5186V23.3836C38.0972 23.5746 37.6532 23.7456 36.8642 23.7456C35.0462 23.7456 35.0462 22.8516 33.2262 22.8516V22.8526Z" fill="#E3E7EA"/>
<path d="M33.2275 14.9941C32.2405 14.9941 31.7875 15.2651 31.2895 15.5141C31.2325 15.5671 31.1855 15.6151 31.2095 15.6151C31.2695 15.6151 32.0515 15.6511 32.0515 15.6511L31.7185 15.8681L32.5035 15.9041L32.1495 16.1571C32.1495 16.1571 32.7955 16.2111 32.7955 16.2661C32.7955 16.3191 32.5225 16.5911 32.5225 16.5911L33.0895 16.6451C33.0895 16.6451 32.8165 16.9151 32.8735 16.9351C32.8955 16.9411 33.0035 17.0051 33.1335 17.0841C33.1675 17.0841 33.1925 17.0781 33.2275 17.0781C35.0465 17.0781 35.0465 18.0581 36.8635 18.0581C37.6545 18.0581 38.0985 17.8711 38.5005 17.6611V15.5251C38.0985 15.7161 37.6545 15.8871 36.8655 15.8881C35.0475 15.8881 35.0475 14.9941 33.2275 14.9941Z" fill="#E3E7EA"/>
<path d="M33.228 18.9238C31.581 18.9238 31.413 19.6748 30.043 19.8168V20.2058H29.752V20.6188C29.963 20.7298 30.112 20.9348 30.112 21.1808C30.112 21.4268 29.963 21.6318 29.752 21.7418V21.9158C29.878 21.9098 30.009 21.9068 30.118 21.8928C30.175 21.8718 30.234 21.8518 30.285 21.8248C30.629 21.6388 31.118 21.2758 31.856 21.2608C32.2 21.1188 32.604 21.0078 33.227 21.0078C35.046 21.0078 35.046 21.9888 36.863 21.9888C37.654 21.9888 38.098 21.8018 38.5 21.5918V19.4568C38.098 19.6478 37.654 19.8178 36.865 19.8198C35.047 19.8198 35.047 18.9248 33.227 18.9248L33.228 18.9238Z" fill="#E3E7EA"/>
<path d="M2.60127 11.3921C2.60127 11.3921 2.60427 11.3841 2.60527 11.3801C2.60527 11.3781 2.60627 11.3751 2.60727 11.3721C2.59427 11.4241 2.58327 11.4761 2.57227 11.5291C2.58127 11.4831 2.59127 11.4361 2.60227 11.3911H2.60027L2.60127 11.3921Z" fill="#E3E7EA"/>
<path d="M31.6204 17.0254C31.6404 16.9714 31.3074 16.6274 31.3074 16.6274L31.2294 16.7904L31.0144 16.3024L30.8194 16.5554L30.4464 16.0844L30.3094 16.2824L29.8404 15.9004C29.8254 15.9004 29.8124 15.9024 29.7974 15.9034C29.7934 15.9764 29.7844 16.1504 29.7994 16.1934C29.8194 16.2474 30.1724 16.4824 30.1724 16.4824C30.1724 16.4824 29.9374 16.5724 29.9374 16.6264C29.9374 16.6804 30.4084 17.0244 30.4084 17.0244L30.1924 17.1694L30.7014 17.5674C30.7014 17.5674 30.2314 17.6584 30.2894 17.6934C30.3224 17.7134 30.4084 17.8094 30.4794 17.8934C31.1224 17.7374 31.4934 17.4494 32.0514 17.2584L31.8764 16.9344C31.8764 16.9344 31.6024 17.0784 31.6204 17.0254Z" fill="#E3E7EA"/>
<path d="M21.5 10.054C21.732 10.104 21.989 10.141 22.319 10.141C24.137 10.141 24.137 9.21802 25.926 9.21802C27.772 9.21802 27.772 10.141 29.534 10.141C31.409 10.141 31.409 9.21802 33.227 9.21802C35.045 9.21802 35.046 10.198 36.863 10.198C37.237 10.198 37.53 10.154 37.782 10.088C37.059 9.13002 35.861 8.49902 34.5 8.49902H21.5V10.054Z" fill="#E3E7EA"/>
<path d="M32.2871 17.1924C32.3061 17.1874 32.3261 17.1844 32.3461 17.1794C32.3391 17.1694 32.3281 17.1514 32.3281 17.1514L32.2871 17.1924Z" fill="#E3E7EA"/>
<path d="M29.782 17.9459L29.748 17.5469V17.9879C29.853 17.9829 29.959 17.9789 30.052 17.9689L29.998 17.8919L29.782 17.9459Z" fill="#E3E7EA"/>
<path d="M26.9047 17.0237C26.9107 17.0397 26.8837 17.1057 26.8477 17.1847C26.9157 17.2017 26.9907 17.2147 27.0527 17.2347C26.9807 17.1237 26.8937 16.9907 26.9047 17.0237Z" fill="#E3E7EA"/>
<path d="M29.4264 25.7012C28.4384 25.7012 27.5664 25.7952 26.9884 25.9412C26.5484 26.0522 26.2734 26.1902 26.2734 26.3442C26.2734 26.6762 27.5164 26.9442 29.1024 26.9772C29.2104 26.9792 29.3154 26.9842 29.4264 26.9842C29.5364 26.9842 29.6414 26.9802 29.7484 26.9772C31.3354 26.9442 32.5784 26.6762 32.5784 26.3442C32.5784 26.1922 32.3084 26.0542 31.8754 25.9442C31.2974 25.7972 30.4204 25.7012 29.4264 25.7012ZM29.4264 26.9312C28.2564 26.9312 27.3074 26.7722 27.3074 26.5772C27.3074 26.3832 28.2564 26.2242 29.4264 26.2242C30.5964 26.2242 31.5434 26.3832 31.5434 26.5772C31.5434 26.7732 30.5954 26.9312 29.4264 26.9312Z" fill="#E3E7EA"/>
<path d="M29.4256 26.2236C28.2556 26.2236 27.3066 26.3826 27.3066 26.5766C27.3066 26.7726 28.2556 26.9306 29.4256 26.9306C30.5956 26.9306 31.5426 26.7716 31.5426 26.5766C31.5426 26.3826 30.5946 26.2236 29.4256 26.2236Z" fill="#99AAB5"/>
<path d="M33.1472 10.8436H32.6972L32.5982 10.5726L32.1092 10.6986L31.7762 10.7176L31.2872 11.2416L31.0712 10.7896L30.7432 11.8126L30.6602 12.0736L30.5242 11.8736L30.4642 11.7846L30.4402 11.8916L30.2872 12.5616L30.2112 13.0126L29.9952 12.8496C29.9952 12.8496 29.8392 13.7176 29.8392 13.7706C29.8392 13.8236 29.6822 13.5726 29.6822 13.5726L29.7022 12.8676L29.5452 12.7766C29.5452 12.7766 29.6432 12.1436 29.6622 12.0716C29.6832 11.9996 29.2902 12.1976 29.2902 12.1976L29.3682 11.9696L29.5452 11.4556L29.2322 11.3836C29.2322 11.3836 29.2912 10.8236 29.2712 10.7686C29.2512 10.7146 28.8002 10.9666 28.8002 10.9666L28.1542 10.2256L28.2352 10.9476L27.8032 11.0386L28.3332 11.5986L27.8962 11.5836L27.8032 11.5806L28.4692 12.1766L27.9992 12.2306L28.5492 12.6466L28.1752 12.8086L28.6062 13.1346L28.4502 13.3516L28.5502 13.8036L28.1762 13.7856L28.0402 13.4416L27.7842 13.5146L27.5892 13.0266L27.3732 13.1176L27.2962 12.7026L26.8652 12.4676L26.6292 11.9066L26.1592 12.0516L25.1022 11.4726L25.6122 12.2676L24.8662 12.4486L26.0822 12.7376L25.8852 13.0266L26.3092 13.1676L26.8062 13.3326L26.4142 13.6216L27.0212 13.7306L27.7262 14.2546L26.8652 13.9656L26.6092 14.0016C26.6092 14.0016 25.7492 13.8756 25.7092 13.8206C25.6692 13.7666 25.9052 14.0556 25.9052 14.0556L25.0232 14.0016L24.8862 14.2546L24.2402 14.6336L24.5532 14.7956L24.2802 15.1746L24.8462 15.0126L24.9832 15.1076L25.1602 15.2296L25.2912 15.0396L25.4342 14.8316L25.6112 15.0096L25.6672 15.0656C25.6672 15.0656 25.7272 15.0346 25.8002 14.9966C25.9412 14.9236 26.1442 14.8126 26.1572 14.7766C26.1702 14.7396 26.2182 14.8976 26.2492 15.0066C26.2642 15.0586 26.2752 15.1016 26.2752 15.1016L26.4822 15.0216L26.8812 14.8676L26.9262 15.1086L26.9592 15.2836C26.9592 15.2836 27.1102 15.2556 27.2672 15.2216C27.4192 15.1886 27.5772 15.1486 27.6062 15.1216C27.6652 15.0676 28.1542 15.3026 28.1542 15.3026L27.7192 15.4246L27.0582 15.6096C27.0582 15.6096 27.5082 15.7536 27.3302 15.7716C27.2622 15.7796 26.6652 15.9706 26.6652 15.9706L27.0792 16.0236L26.4522 16.4566L25.7192 17.0846L25.6292 17.1616L25.1402 17.8126L25.5702 17.5786L25.6302 18.0306C25.6302 18.0306 25.8662 17.6146 25.8452 17.5236C25.8272 17.4326 26.1392 17.9216 26.1392 17.9216C26.1392 17.9216 26.3342 17.2886 26.3342 17.2166C26.3342 17.1436 26.6082 17.6506 26.6082 17.6506C26.6082 17.6506 26.7612 17.3676 26.8462 17.1786C26.8822 17.0996 26.9092 17.0336 26.9032 17.0176C26.8912 16.9846 26.9792 17.1176 27.0512 17.2286C27.0962 17.2986 27.1362 17.3616 27.1362 17.3616C27.1362 17.3616 27.1572 17.3256 27.1852 17.2786C27.2492 17.1686 27.3572 16.9826 27.3712 16.9446C27.3912 16.8916 27.6062 17.1256 27.6062 17.1256L27.8602 16.6376L28.2142 16.7286L27.9652 17.6356L27.9212 17.7946L28.2142 18.1016C28.2142 18.1016 28.2752 17.9406 28.3262 17.7896C28.3652 17.6746 28.3982 17.5646 28.3902 17.5406C28.3712 17.4866 28.6642 17.7936 28.6642 17.7936L28.7812 17.5226L29.0362 17.4316C29.0362 17.4316 28.8802 17.1786 28.8202 17.1786C28.7812 17.1786 28.9652 17.1406 29.1002 17.1146C29.1712 17.1006 29.2312 17.0886 29.2312 17.0886C29.2312 17.0886 29.1662 16.9686 29.1002 16.8506C29.0472 16.7556 28.9942 16.6616 28.9762 16.6376C28.9502 16.6006 29.0392 16.5416 29.1002 16.5056C29.1292 16.4886 29.1542 16.4746 29.1542 16.4746C29.1542 16.4746 29.1292 16.4206 29.1002 16.3566C29.0522 16.2516 28.9882 16.1106 28.9762 16.0766C28.9642 16.0426 29.0152 15.9436 29.0542 15.8756C29.0762 15.8376 29.0942 15.8066 29.0942 15.8066L29.1002 15.8156L29.2892 16.0966L29.3882 16.5306L29.4082 16.9646L29.6422 16.9286L29.5262 17.4516L29.7402 17.4706L29.7462 17.5406L29.7802 17.9396L29.9962 17.8856L30.0502 17.9626L30.3872 18.4456L30.5822 18.0116C30.5822 18.0116 30.5342 17.9526 30.4782 17.8866C30.4072 17.8036 30.3222 17.7066 30.2882 17.6866C30.2302 17.6506 30.7002 17.5606 30.7002 17.5606L30.1912 17.1626L30.4072 17.0176C30.4072 17.0176 29.9362 16.6736 29.9362 16.6196C29.9362 16.5656 30.1712 16.4756 30.1712 16.4756C30.1712 16.4756 29.8182 16.2406 29.7982 16.1866C29.7832 16.1436 29.7912 15.9696 29.7962 15.8966C29.7972 15.8776 29.7982 15.8606 29.7982 15.8606L29.8392 15.8936L30.3082 16.2756L30.4452 16.0776L30.8182 16.5486L31.0132 16.2956L31.2282 16.7836L31.3062 16.6206C31.3062 16.6206 31.6392 16.9646 31.6192 17.0186C31.6012 17.0716 31.8752 16.9276 31.8752 16.9276L32.0502 17.2516L32.1092 17.3616L32.2852 17.1856L32.3252 17.1446C32.3252 17.1446 32.3362 17.1616 32.3432 17.1726C32.3872 17.2386 32.5422 17.4776 32.5582 17.5246C32.5782 17.5786 32.7932 17.3086 32.7932 17.3086L33.6752 17.4166C33.6752 17.4166 33.3672 17.2216 33.1312 17.0786C33.0012 16.9996 32.8932 16.9356 32.8712 16.9296C32.8142 16.9096 33.0872 16.6396 33.0872 16.6396L32.5202 16.5856C32.5202 16.5856 32.7932 16.3146 32.7932 16.2606C32.7932 16.2066 32.1472 16.1516 32.1472 16.1516L32.5012 15.8986L31.7162 15.8626L32.0492 15.6456C32.0492 15.6456 31.2672 15.6096 31.2072 15.6096C31.1822 15.6096 31.2292 15.5616 31.2872 15.5086C31.3642 15.4376 31.4632 15.3566 31.4632 15.3566C31.4632 15.3566 30.8372 15.3036 30.7782 15.2846C30.7182 15.2666 31.1892 15.1226 31.1892 15.1226L30.9342 14.9246L31.4822 14.7436L31.5802 14.4366L32.3832 14.3096L32.3632 13.9846L33.3042 13.8576L33.2262 13.5506L33.7932 13.3886L33.6422 13.1726L33.6162 13.1356L34.4982 12.7016C34.4982 12.7016 33.5602 12.5566 33.0692 12.6826C32.5782 12.8086 32.3432 13.1166 32.0492 13.2786C31.9862 13.3136 31.9072 13.3596 31.8262 13.4076C31.5282 13.5826 31.1682 13.8036 31.1682 13.8036L30.4432 14.3276L30.5422 14.0386L30.9882 13.7956L31.3052 13.6226L31.1292 13.4416L31.8932 13.0806L31.3252 12.9716L31.8932 12.5736L31.5402 12.6096L31.9512 12.3206L31.5002 12.1946L32.0302 11.9056L31.6782 11.7966L32.2442 11.2726C32.2442 11.2726 33.2432 11.3636 33.3022 11.3456C33.3602 11.3276 32.9662 11.1366 32.9362 11.0786L32.9312 11.0746C32.9122 11.0216 33.1462 10.8406 33.1462 10.8406L33.1472 10.8436Z" fill="#77B255"/>
<path d="M29.1026 15.8225L29.0966 15.8135C29.0966 15.8135 29.0776 15.8445 29.0566 15.8825C29.0706 15.8845 29.0886 15.8835 29.1026 15.8855V15.8225Z" fill="#00247D"/>
<path d="M26.5108 22.7165C26.8448 22.5375 27.1568 22.6815 27.1568 22.6815C27.1568 22.6815 27.2958 22.3735 27.7838 22.3735C28.2718 22.3735 28.3908 22.6085 28.6848 22.7175C28.8228 22.7685 28.9758 22.8065 29.1018 22.8335V22.3835C28.8528 22.3345 28.4488 22.2245 28.0778 21.9855C27.7198 21.7545 26.9618 21.4695 26.3748 21.9325C26.1208 22.1305 26.0598 22.5285 26.1098 22.8635C26.2018 22.8665 26.2888 22.8725 26.3718 22.8805C26.4048 22.8155 26.4418 22.7545 26.5108 22.7175V22.7165Z" fill="#00247D"/>
<path d="M28.1565 15.3092C28.1565 15.3092 27.6675 15.0742 27.6085 15.1282C27.5795 15.1552 27.4215 15.1952 27.2695 15.2282C27.4285 15.2912 27.5795 15.3592 27.7215 15.4312L28.1565 15.3092Z" fill="#00247D"/>
<path d="M26.8834 14.875L26.4844 15.029C26.6494 15.05 26.7944 15.08 26.9284 15.116L26.8834 14.875Z" fill="#00247D"/>
<path d="M25.729 22.1758C25.876 21.7158 26.199 21.2548 26.962 21.2548C27.137 21.2548 27.294 21.2788 27.442 21.3118C27.073 21.1438 26.637 21.0068 25.927 21.0068C24.138 21.0068 24.138 21.9298 22.32 21.9298C20.502 21.9298 20.502 21.0068 18.683 21.0068C16.864 21.0068 16.865 21.9298 15.047 21.9298C13.229 21.9298 13.229 21.0068 11.411 21.0068C9.59295 21.0068 9.59295 21.9298 7.77495 21.9298C5.95695 21.9298 5.95695 21.0068 4.13795 21.0068C3.34695 21.0068 2.90395 21.1828 2.50195 21.3798V23.2258C2.90395 23.0278 3.34795 22.8528 4.13795 22.8528C5.95595 22.8528 5.95595 23.7758 7.77495 23.7758C9.59395 23.7758 9.59295 22.8528 11.411 22.8528C13.229 22.8528 13.229 23.7758 15.047 23.7758C16.865 23.7758 16.865 22.8528 18.683 22.8528C20.501 22.8528 20.501 23.7758 22.32 23.7758C24.051 23.7758 24.152 22.9478 25.718 22.8678C25.668 22.6188 25.665 22.3738 25.728 22.1758H25.729Z" fill="#00247D"/>
<path d="M26.2517 15.0138C26.2207 14.9048 26.1727 14.7468 26.1597 14.7838C26.1467 14.8198 25.9437 14.9298 25.8027 15.0038C25.8547 15.0028 25.8937 14.9938 25.9487 14.9938C26.0627 14.9938 26.1507 15.0068 26.2517 15.0138Z" fill="#00247D"/>
<path d="M24.984 15.1144L24.847 15.0194L24.281 15.1814L24.554 14.8024L24.241 14.6404L24.887 14.2614L25.024 14.0084L25.906 14.0624C25.906 14.0624 25.67 13.7724 25.71 13.8274C25.75 13.8814 26.61 14.0084 26.61 14.0084L26.866 13.9724L27.727 14.2614L27.022 13.7374L26.415 13.6284L26.807 13.3394L26.31 13.1744C26.186 13.1644 26.07 13.1494 25.926 13.1494C24.137 13.1494 24.137 14.0724 22.319 14.0724C21.989 14.0724 21.732 14.0354 21.5 13.9854V15.8314C21.732 15.8814 21.989 15.9184 22.319 15.9184C23.736 15.9184 24.058 15.3614 24.984 15.1144Z" fill="#00247D"/>
<path d="M29.1004 22.0049V21.9009C28.8844 21.8779 28.6894 21.8439 28.5234 21.7949C28.5404 21.8039 28.5604 21.8169 28.5764 21.8259C28.7354 21.9109 28.9414 21.9649 29.1004 22.0059V22.0049Z" fill="#00247D"/>
<path d="M25.436 14.8379L25.293 15.0459C25.389 15.0309 25.504 15.0249 25.614 15.0159L25.436 14.8379Z" fill="#00247D"/>
<path d="M29.0997 17.9696V19.7496H28.8097V19.7696C27.7297 19.5496 27.4597 18.9196 25.9497 18.9196C24.1397 18.9196 24.1397 19.8496 22.3197 19.8496C21.9897 19.8496 21.7297 19.8096 21.4997 19.7596V18.6296L18.6797 16.8096H21.4997V17.9096C21.7297 17.9596 21.9897 17.9996 22.3197 17.9996C24.0597 17.9996 24.1497 17.1696 25.7197 17.0896L25.6297 17.1696L25.1397 17.8196L25.5697 17.5796L25.6297 18.0396C25.6297 18.0396 25.8697 17.6196 25.8497 17.5296C25.8797 17.5196 26.1397 17.9296 26.1397 17.9296C26.1397 17.9296 26.3397 17.2896 26.3397 17.2196C26.3697 17.2096 26.6097 17.6596 26.6097 17.6596C26.6097 17.6596 26.7597 17.3696 26.8497 17.1796C26.9197 17.1996 26.9897 17.2096 27.0497 17.2296C27.0997 17.2996 27.1397 17.3696 27.1397 17.3696C27.1397 17.3696 27.1597 17.3296 27.1897 17.2796C27.4697 17.3896 27.7197 17.5196 27.9697 17.6396L27.9197 17.7996L28.2197 18.1096C28.2197 18.1096 28.2797 17.9496 28.3297 17.7996C28.5397 17.8796 28.7897 17.9396 29.0997 17.9696Z" fill="#00247D"/>
<path d="M33.2265 21.0068C32.6045 21.0068 32.2005 21.1178 31.8555 21.2598C31.8715 21.2598 31.8835 21.2548 31.8995 21.2548C32.6625 21.2548 32.9865 21.7158 33.1325 22.1758C33.1955 22.3708 33.1925 22.6118 33.1445 22.8578C33.1745 22.8578 33.1955 22.8528 33.2265 22.8528C35.0465 22.8528 35.0465 23.7468 36.8645 23.7468C37.6535 23.7468 38.0975 23.5758 38.4995 23.3848V21.5908C38.0975 21.8008 37.6535 21.9878 36.8625 21.9878C35.0455 21.9878 35.0455 21.0068 33.2265 21.0068Z" fill="#00247D"/>
<path d="M33.226 24.9365C32.857 24.9365 32.576 24.9805 32.326 25.0415C32.306 25.1075 32.29 25.1565 32.29 25.1565L32.142 25.0915C32.14 25.1095 32.139 25.1165 32.138 25.1235C32.181 25.1365 32.224 25.1425 32.267 25.1565C32.267 25.1565 32.327 25.6285 32.208 25.8625C32.193 25.8935 32.067 25.9195 31.875 25.9415C32.308 26.0515 32.578 26.1895 32.578 26.3415C32.578 26.6735 31.335 26.9415 29.748 26.9745V27.6945C31.397 27.6375 31.47 26.7825 33.227 26.7825C35.047 26.7825 35.047 27.6765 36.865 27.6765C37.654 27.6745 38.098 27.5045 38.5 27.3135V25.5195C38.098 25.7295 37.654 25.9165 36.863 25.9165C35.046 25.9165 35.045 24.9365 33.226 24.9365Z" fill="#00247D"/>
<path d="M33.2279 28.8662C31.4879 28.8662 31.3959 29.7032 29.7489 29.7762V30.3562C29.7489 30.5212 29.6059 30.6542 29.4269 30.6542C29.2479 30.6542 29.1029 30.5202 29.1029 30.3562V29.7602C27.7709 29.6202 27.6029 28.8662 25.9269 28.8662C24.1379 28.8662 24.1379 29.7892 22.3199 29.7892C20.5019 29.7892 20.5019 28.8662 18.6829 28.8662C16.8639 28.8662 16.8649 29.7892 15.0469 29.7892C13.2289 29.7892 13.2289 28.8662 11.4109 28.8662C9.59288 28.8662 9.59288 29.7892 7.77488 29.7892C5.95688 29.7892 5.95688 28.8662 4.13788 28.8662C3.37588 28.8662 2.93687 29.0312 2.54688 29.2202C2.58188 29.5082 2.65087 29.7842 2.74887 30.0492C2.75287 30.0592 2.75487 30.0692 2.75887 30.0792C2.86087 30.3452 2.99387 30.5982 3.15987 30.8302C3.42287 30.7592 3.73487 30.7132 4.13888 30.7132C5.95687 30.7132 5.95688 31.6362 7.77588 31.6362C9.59488 31.6362 9.59387 30.7132 11.4119 30.7132C13.2299 30.7132 13.2299 31.6362 15.0479 31.6362C16.8659 31.6362 16.8659 30.7132 18.6839 30.7132C20.5019 30.7132 20.5019 31.6362 22.3209 31.6362C24.1399 31.6362 24.1389 30.7132 25.9499 30.7132C27.7749 30.7132 27.7749 31.6362 29.5899 31.6362C31.4049 31.6362 31.4119 30.7132 33.2289 30.7132C35.0459 30.7132 35.0489 31.6082 36.8669 31.6082C36.9539 31.6082 37.0229 31.5992 37.1009 31.5942H37.1029C37.1069 31.5912 37.1089 31.5882 37.1129 31.5852C37.2639 31.4642 37.4029 31.3322 37.5329 31.1922C37.5589 31.1652 37.5829 31.1372 37.6079 31.1092C37.7209 30.9812 37.8239 30.8462 37.9179 30.7052C37.9559 30.6482 37.9869 30.5882 38.0209 30.5292C38.0949 30.4022 38.1659 30.2742 38.2229 30.1392C38.2599 30.0522 38.2839 29.9592 38.3139 29.8682C38.3539 29.7452 38.3999 29.6252 38.4259 29.4972C38.4259 29.4942 38.4279 29.4902 38.4289 29.4872H38.4269C38.0419 29.6802 37.6069 29.8472 36.8639 29.8472C35.0469 29.8472 35.0469 28.8672 33.2279 28.8672V28.8662Z" fill="#00247D"/>
<path d="M33.6447 13.1768L33.7957 13.3928L33.2287 13.5548L33.3067 13.8618L32.3657 13.9888L32.3857 14.3138L31.5827 14.4408L31.4847 14.7478L30.9367 14.9288L31.1917 15.1268C31.1917 15.1268 30.7207 15.2718 30.7807 15.2888C30.8397 15.3078 31.4657 15.3608 31.4657 15.3608C31.4657 15.3608 31.3667 15.4418 31.2897 15.5128C31.7877 15.2638 32.2407 14.9928 33.2277 14.9928C35.0477 14.9928 35.0477 15.8868 36.8657 15.8868C37.6547 15.8868 38.0987 15.7148 38.5007 15.5238V13.7298C38.0987 13.9398 37.6547 14.1268 36.8637 14.1268C35.2037 14.1268 35.0447 13.3168 33.6447 13.1758V13.1768Z" fill="#00247D"/>
<path d="M33.2261 17.0781C33.1911 17.0781 33.1661 17.0831 33.1321 17.0841C33.3681 17.2281 33.6761 17.4221 33.6761 17.4221L32.7941 17.3141C32.7941 17.3141 32.5791 17.5851 32.5591 17.5301C32.5431 17.4841 32.3881 17.2451 32.3441 17.1781C32.3251 17.1831 32.3041 17.1861 32.2851 17.1911L32.1091 17.3671L32.0501 17.2571C31.4921 17.4481 31.1211 17.7361 30.4781 17.8921C30.5341 17.9581 30.5821 18.0171 30.5821 18.0171L30.3871 18.4511L30.0501 17.9681C29.9571 17.9781 29.8511 17.9831 29.7461 17.9871V19.4461H29.7491V19.7531H30.0401V19.8161C31.4101 19.6741 31.5781 18.9231 33.2251 18.9231C35.0451 18.9231 35.0451 19.8181 36.8631 19.8181C37.6521 19.8161 38.0961 19.6461 38.4981 19.4551V17.6611C38.0961 17.8711 37.6521 18.0581 36.8611 18.0581C35.0441 18.0581 35.0451 17.0781 33.2261 17.0781Z" fill="#00247D"/>
<path d="M2.60256 11.3909C2.60256 11.3909 2.60456 11.3839 2.60556 11.3799C2.60456 11.3839 2.60256 11.3879 2.60156 11.3919H2.60356L2.60256 11.3909Z" fill="#00247D"/>
<path d="M30.118 21.8926C30.009 21.9066 29.878 21.9106 29.752 21.9156V22.0076C29.862 21.9796 29.993 21.9396 30.118 21.8926Z" fill="#00247D"/>
<path d="M3.57617 9.69265C3.73417 9.53665 3.90717 9.39465 4.09117 9.26465C3.90617 9.39365 3.73417 9.53665 3.57617 9.69265Z" fill="#00247D"/>
<path d="M29.8008 15.8672C29.8008 15.8672 29.7998 15.8842 29.7988 15.9032C29.8138 15.9032 29.8278 15.9012 29.8418 15.9002L29.8008 15.8672Z" fill="#00247D"/>
<path d="M31.079 22.3738C31.568 22.3738 31.706 22.6818 31.706 22.6818C31.706 22.6818 32.019 22.5378 32.353 22.7168C32.436 22.7618 32.489 22.8308 32.521 22.9148C32.593 22.9018 32.671 22.8928 32.751 22.8838C32.807 22.5448 32.749 22.1338 32.489 21.9318C31.901 21.4698 31.143 21.7548 30.785 21.9848C30.41 22.2268 30 22.3368 29.752 22.3838V22.8348C29.879 22.8078 30.037 22.7688 30.179 22.7158C30.473 22.6078 30.59 22.3718 31.079 22.3718V22.3738Z" fill="#00247D"/>
<path d="M26.274 26.3435C26.274 26.1895 26.549 26.0515 26.989 25.9405C26.812 25.9195 26.698 25.8935 26.683 25.8645C26.566 25.6295 26.626 25.1585 26.626 25.1585C26.66 25.1475 26.693 25.1425 26.726 25.1325C26.726 25.1275 26.724 25.1155 26.721 25.0925L26.571 25.1585C26.571 25.1585 26.546 25.0775 26.515 24.9765C26.34 24.9535 26.148 24.9385 25.927 24.9385C24.138 24.9385 24.138 25.8615 22.32 25.8615C20.502 25.8615 20.502 24.9385 18.683 24.9385C16.864 24.9385 16.865 25.8615 15.047 25.8615C13.229 25.8615 13.229 24.9385 11.411 24.9385C9.59295 24.9385 9.59295 25.8615 7.77495 25.8615C5.95695 25.8615 5.95695 24.9385 4.13795 24.9385C3.34695 24.9385 2.90395 25.1135 2.50195 25.3115V27.1575C2.90395 26.9595 3.34795 26.7845 4.13795 26.7845C5.95595 26.7845 5.95595 27.7075 7.77495 27.7075C9.59395 27.7075 9.59295 26.7845 11.411 26.7845C13.229 26.7845 13.229 27.7075 15.047 27.7075C16.865 27.7075 16.865 26.7845 18.683 26.7845C20.501 26.7845 20.501 27.7075 22.32 27.7075C24.139 27.7075 24.138 26.7845 25.949 26.7845C27.59 26.7845 27.767 27.5245 29.103 27.6755V26.9775C27.517 26.9445 26.274 26.6755 26.274 26.3435Z" fill="#00247D"/>
<path d="M38.4395 11.6197C38.0495 11.7997 37.6095 11.9597 36.8595 11.9597C35.0495 11.9597 35.0495 11.0597 33.2295 11.0597C33.1195 11.0597 33.0295 11.0797 32.9395 11.0797H32.9295C32.9095 11.0197 33.1495 10.8397 33.1495 10.8397H32.6995L32.5995 10.5697L32.1095 10.6997L31.7795 10.7197L31.2895 11.2397L31.0695 10.7897L30.7395 11.8097C30.6795 11.8397 30.5995 11.8497 30.5295 11.8697L30.4695 11.7897L30.4395 11.8897C30.1995 11.9497 29.9295 11.9897 29.5895 11.9897C29.5095 11.9897 29.4395 11.9797 29.3695 11.9697L29.5495 11.4597L29.2295 11.3897C29.2295 11.3897 29.2895 10.8297 29.2695 10.7697C29.2495 10.7197 28.7995 10.9697 28.7995 10.9697L28.1595 10.2297L28.2395 10.9497L27.7995 11.0397L28.3295 11.5997L27.8995 11.5897C27.3995 11.3397 26.9395 11.0597 25.9495 11.0597C24.1395 11.0597 24.1395 11.9897 22.3195 11.9897C21.9895 11.9897 21.7295 11.9497 21.4995 11.8997V12.1897H18.6895L21.4995 10.3697V10.0497C21.7295 10.0997 21.9895 10.1397 22.3195 10.1397C24.1395 10.1397 24.1395 9.21973 25.9295 9.21973C27.7695 9.21973 27.7695 10.1397 29.5295 10.1397C31.4095 10.1397 31.4095 9.21973 33.2295 9.21973C35.0495 9.21973 35.0495 10.1997 36.8595 10.1997C37.2395 10.1997 37.5295 10.1497 37.7795 10.0897C38.1195 10.5397 38.3395 11.0597 38.4395 11.6197Z" fill="#00247D"/>
<path d="M30.4453 14.3321L31.1703 13.8081C31.1703 13.8081 31.5303 13.5871 31.8283 13.4121C31.5383 13.5351 31.2833 13.6761 30.9903 13.8001L30.5443 14.0431L30.4453 14.3321Z" fill="#00247D"/>
<path d="M3.162 10.1572C3.162 10.1572 3.12 10.2112 3.035 10.3462C2.958 10.4692 2.891 10.5982 2.829 10.7302C2.824 10.7402 2.817 10.7502 2.812 10.7612C2.723 10.9562 2.658 11.1612 2.607 11.3722C2.607 11.3742 2.606 11.3772 2.605 11.3802C2.605 11.3842 2.603 11.3882 2.602 11.3912C2.591 11.4372 2.581 11.4832 2.572 11.5292C2.529 11.7452 2.5 11.9652 2.5 12.1922H6.313L3.162 10.1572Z" fill="#00247D"/>
<path d="M9.50048 10.871V8.5H6.50048C6.18048 8.5 5.89648 8.542 5.89648 8.542L9.50048 10.871Z" fill="#00247D"/>
<path d="M6.385 16.8076H2.5V19.3606L6.385 16.8076Z" fill="#00247D"/>
<path d="M14.5 11.518L19.169 8.5H14.5V11.518Z" fill="#00247D"/>
<path d="M9.50003 18.1289L5.83203 20.4999H9.50003V18.1289Z" fill="#00247D"/>
<path d="M14.5 17.4824V20.5004H19.168L14.5 17.4824Z" fill="#00247D"/>
<path d="M8.937 16.8078H9.5V17.5658L4.961 20.4998H5.832L9.5 18.1288V20.4998H10.5V15.8848H2.5V16.8078H6.385L2.5 19.3608V20.4998H3.234L8.937 16.8078Z" fill="#EEEEEE"/>
<path d="M10.5 8.50002H9.5V10.871L5.896 8.54102C5.864 8.54602 5.835 8.55902 5.803 8.56402C5.602 8.59702 5.41 8.65102 5.22 8.71002C5.139 8.73502 5.054 8.75002 4.975 8.78002C4.715 8.87802 4.47 9.00002 4.245 9.14402C4.239 9.14802 4.231 9.15002 4.224 9.15402L4.228 9.15702L4.343 9.23102L5.78 10.159L8.926 12.191H7.19L3.467 9.78302C3.375 9.88202 3.293 9.98702 3.213 10.094C3.202 10.109 3.188 10.123 3.177 10.138C3.172 10.144 3.167 10.15 3.162 10.156L6.313 12.191H2.5V13.114H10.5V8.50002Z" fill="#EEEEEE"/>
<path d="M13.5 13.115H21.5V12.192H18.686L21.5 10.373V10.054V8.683L16.071 12.192H14.5V12.081L20.039 8.5H19.169L14.5 11.518V8.5H13.5V13.115Z" fill="#EEEEEE"/>
<path d="M16.07 16.8078H17.813L21.5 19.1908V18.6268L18.685 16.8078H21.5V15.8848H13.5V20.4998H14.5V17.4818L19.168 20.4998H21.5V20.3168L16.07 16.8078Z" fill="#EEEEEE"/>
<path d="M10.5 15.885V20.5H13.5V15.885H21.5V15.83V13.984V13.115H13.5V8.5H10.5V13.115H2.5V15.885H10.5Z" fill="#CF1B2B"/>
<path d="M7.1898 12.1923H8.9248L5.7798 10.1603L4.3428 9.23227L4.2278 9.15827L4.2238 9.15527C4.1948 9.17427 4.1738 9.20127 4.1458 9.22027C4.1258 9.23327 4.1108 9.25127 4.0908 9.26527C3.9068 9.39527 3.7328 9.53627 3.5758 9.69327C3.5708 9.69827 3.5638 9.70227 3.5588 9.70827C3.5308 9.73627 3.4938 9.75527 3.4668 9.78427L7.1898 12.1923Z" fill="#CF1B2B"/>
<path d="M14.5 12.081V12.192H16.071L21.5 8.683V8.5H20.039L14.5 12.081Z" fill="#CF1B2B"/>
<path d="M9.50037 17.5656V16.8076H8.93738L3.23438 20.4996H4.96137L9.50037 17.5656Z" fill="#CF1B2B"/>
<path d="M17.8133 16.8076H16.0703L21.5003 20.3166V19.7596V19.1906L17.8133 16.8076Z" fill="#CF1B2B"/>
</svg>
