<svg width="41" height="41" viewBox="0 0 41 41" fill="none" xmlns="http://www.w3.org/2000/svg">
<path d="M34.5 8.5H6.5C4.29086 8.5 2.5 10.2909 2.5 12.5V28.5C2.5 30.7091 4.29086 32.5 6.5 32.5H34.5C36.7091 32.5 38.5 30.7091 38.5 28.5V12.5C38.5 10.2909 36.7091 8.5 34.5 8.5Z" fill="#E3E7EA"/>
<path d="M38.5 12.495C38.5 10.288 36.711 8.5 34.505 8.5H6.495C4.288 8.5 2.5 10.289 2.5 12.495V16.499H38.5V12.495Z" fill="#D0002E"/>
<path d="M23.8901 21.2003C23.8531 21.0703 23.5751 21.1193 23.6251 21.2663C23.6881 21.3613 23.9001 21.3593 23.8901 21.2003Z" fill="#E3E7EA"/>
<path d="M38.5 28.505V24.501H2.5V28.505C2.5 30.711 4.288 32.499 6.493 32.5H34.507C36.712 32.499 38.5 30.71 38.5 28.505Z" fill="#060606"/>
<path d="M24.0336 19.0258C24.2106 19.1188 24.4066 19.1088 24.5466 18.9998C24.6096 18.9518 24.6316 18.9518 24.7566 18.9948C24.8596 19.0308 24.9206 19.0368 24.9896 19.0198C25.1276 18.9828 25.2046 18.8188 25.1526 18.6758C25.1256 18.6028 25.0696 18.5868 25.0736 18.6538C25.0776 18.7068 24.9576 18.8628 24.8996 18.8778C24.8766 18.8838 24.7976 18.8578 24.7246 18.8208L24.5896 18.7508L24.4756 18.8478C24.3466 18.9578 24.2156 18.9798 24.0136 18.9248C23.9016 18.8938 23.8846 18.8948 23.9116 18.9338C23.9296 18.9588 23.9846 19.0008 24.0336 19.0258Z" fill="#009D40"/>
<path d="M24.6098 18.4324C24.6228 18.2444 24.6028 18.1884 24.5228 18.1634C24.4778 18.1484 24.4608 18.1594 24.4428 18.2094C24.4248 18.2674 24.4828 18.5044 24.5318 18.5674C24.5768 18.6254 24.5988 18.5844 24.6088 18.4324H24.6098Z" fill="#009D40"/>
<path d="M13.9774 22.3554C13.8714 22.6104 13.5764 22.6734 13.4004 22.8574C13.9674 22.9994 14.3754 22.6534 14.4774 22.2004H20.2854C20.2854 21.7324 20.2854 21.0844 20.2854 20.6554C20.2384 20.2964 19.8594 20.3144 19.7084 20.0754C19.4154 20.2444 18.9774 20.2684 18.9774 20.7324C18.3394 20.7614 17.5864 20.7844 16.9064 20.7714C17.1364 20.4764 18.3934 19.2464 18.7374 18.9004C18.7994 18.8664 18.8824 18.8804 18.9504 18.8504C18.8514 18.7984 18.6324 18.5134 18.6484 18.3984C18.0964 18.9364 17.4654 19.5094 17.3754 19.5994C16.4764 20.5034 16.4914 20.4924 16.3604 20.6244C16.3604 20.7994 16.3634 21.0424 16.3634 21.1584H19.4704C19.6244 21.1584 19.4354 20.6184 19.6324 20.6184C19.8404 20.6184 19.7704 21.0404 19.7704 21.3034C18.4454 21.3034 17.0454 21.3134 15.7474 21.3134V20.4734C15.4144 20.7574 15.3794 20.7834 15.1704 20.8594C15.3324 20.8904 15.3424 21.1404 15.3244 21.3524C14.7794 21.3674 14.0434 21.4354 14.2474 20.8114C13.9574 21.0084 13.9124 21.0344 13.6274 21.1394C13.8004 21.4564 14.0674 21.8004 13.9784 22.3574L13.9774 22.3554Z" fill="#009D40"/>
<path d="M27.4102 21.157C27.2702 21.247 27.2072 21.416 26.9102 21.35V18.993C26.9362 18.876 27.0332 18.833 27.0652 18.722C26.7992 18.653 26.6272 18.491 26.4102 18.374V22.199H27.6792C27.6882 21.903 27.4482 21.533 27.4102 21.157Z" fill="#009D40"/>
<path d="M25.9694 22.1937V18.5107C25.9034 18.6477 25.6384 18.8437 25.5044 18.9797C25.5044 19.7087 25.5144 20.5027 25.5144 21.2877H25.1814V19.2307C25.1814 19.2447 24.7194 19.6377 24.7194 19.6377C24.7194 19.6897 24.7164 21.2867 24.7164 21.2867H24.3804C24.3804 21.2867 24.3734 20.3327 24.3734 19.9287C23.9914 20.2637 23.9444 20.2997 23.8034 20.4417C23.8154 20.5117 23.8634 20.4447 23.8914 20.4977V20.8097C23.0034 20.6397 23.0114 21.4317 23.0534 22.1957C23.2854 22.1957 25.0324 22.1957 25.9694 22.1957V22.1937ZM23.8904 21.1997C23.9004 21.3577 23.6874 21.3597 23.6254 21.2657C23.5754 21.1187 23.8544 21.0697 23.8904 21.1997Z" fill="#009D40"/>
<path d="M15.1839 22.4551C15.0859 22.4551 15.0059 22.5351 15.0059 22.6351C15.0059 22.7331 15.0859 22.8141 15.1839 22.8141C15.2819 22.8141 15.3619 22.7341 15.3619 22.6351C15.3619 22.5351 15.2819 22.4551 15.1839 22.4551Z" fill="#009D40"/>
<path d="M21.6777 21.1609C21.5367 21.2509 21.4747 21.4199 21.1777 21.3539V18.9969C21.2037 18.8799 21.3007 18.8369 21.3317 18.7259C21.0667 18.6569 20.8947 18.4949 20.6777 18.3779V22.2029H21.9467C21.9557 21.9069 21.7157 21.5369 21.6777 21.1609Z" fill="#009D40"/>
</svg>
