<svg width="41" height="41" viewBox="0 0 41 41" fill="none" xmlns="http://www.w3.org/2000/svg">
<path d="M2.5 28.8081C2.5 30.8471 4.291 32.5001 6.5 32.5001H34.5C36.709 32.5001 38.5 30.8471 38.5 28.8081V26.0391H2.5V28.8081Z" fill="#DA0001"/>
<path d="M2.5 25.1148H38.5V15.8838H2.5V25.1148ZM22.763 22.9918C25.003 20.4278 22.922 18.1538 21.965 17.7018C25.925 18.9228 24.154 22.7078 22.763 22.9918ZM19.499 17.0228C19.652 17.4008 20.055 17.4548 20.487 17.2328C20.801 17.4068 21.287 17.4188 21.455 17.0418C21.582 17.9728 20.521 17.7528 20.481 17.5708C20.086 17.9238 19.351 17.7188 19.499 17.0228ZM20.083 22.7798L20.101 22.7938L20.021 18.0438L20.496 17.6768L20.971 18.0628L20.924 22.7678C23.461 20.9998 22.139 18.3148 21.709 17.8288C22.361 18.2418 23.023 19.2608 23.038 20.4128C23.051 21.3978 22.565 22.4738 21.221 23.3608C21.794 23.5088 22.421 23.5648 22.953 23.5578C22.481 23.7948 21.586 23.7338 20.914 23.6758V23.7238L20.514 24.1438L20.116 23.7398V23.6768C19.448 23.7328 18.572 23.7898 18.108 23.5558C18.624 23.5618 19.228 23.5078 19.786 23.3698C18.429 22.4818 17.939 21.3998 17.952 20.4118C17.966 19.2598 18.629 18.2408 19.281 17.8278C18.85 18.3148 17.52 21.0138 20.083 22.7798ZM19.028 17.7018C18.071 18.1538 15.99 20.4278 18.23 22.9918C16.839 22.7078 15.069 18.9228 19.028 17.7018Z" fill="#E3E7EA"/>
<path d="M34.5 8.5H6.5C4.291 8.5 2.5 10.153 2.5 12.192V14.961H38.5V12.192C38.5 10.153 36.709 8.5 34.5 8.5Z" fill="#239F40"/>
<path d="M38.5 25.1152H2.5V26.0382H38.5V25.1152Z" fill="#E96667"/>
<path d="M20.4819 17.5705C20.5219 17.7525 21.5829 17.9735 21.4559 17.0415C21.2879 17.4185 20.8019 17.4065 20.4879 17.2325C20.0559 17.4545 19.6529 17.4005 19.4999 17.0225C19.3519 17.7185 20.0869 17.9235 20.4819 17.5705Z" fill="#BE1931"/>
<path d="M22.7628 22.9921C24.1538 22.7081 25.9248 18.9231 21.9648 17.7021C22.9218 18.1541 25.0028 20.4281 22.7628 22.9921Z" fill="#BE1931"/>
<path d="M18.2307 22.9921C15.9907 20.4281 18.0717 18.1541 19.0287 17.7021C15.0697 18.9231 16.8397 22.7081 18.2307 22.9921Z" fill="#BE1931"/>
<path d="M17.9534 20.4118C17.9404 21.4008 18.4304 22.4828 19.7874 23.3698C19.2294 23.5068 18.6254 23.5618 18.1094 23.5558C18.5734 23.7888 19.4494 23.7328 20.1164 23.6768V23.7398L20.5154 24.1438L20.9154 23.7238V23.6758C21.5874 23.7328 22.4824 23.7948 22.9544 23.5578C22.4224 23.5658 21.7954 23.5088 21.2224 23.3608C22.5664 22.4738 23.0524 21.3978 23.0394 20.4128C23.0244 19.2608 22.3624 18.2418 21.7104 17.8288C22.1404 18.3158 23.4624 21.0008 20.9254 22.7678L20.9724 18.0628L20.4974 17.6768L20.0224 18.0438L20.1024 22.7938L20.0844 22.7798C17.5214 21.0128 18.8514 18.3148 19.2824 17.8278C18.6304 18.2408 17.9674 19.2598 17.9534 20.4118Z" fill="#BE1931"/>
<path d="M38.5 14.9609H2.5V15.8839H38.5V14.9609Z" fill="#7BC58C"/>
</svg>
