<svg width="41" height="41" viewBox="0 0 41 41" fill="none" xmlns="http://www.w3.org/2000/svg">
<path d="M34.5 8.5H6.5C4.29086 8.5 2.5 10.2909 2.5 12.5V28.5C2.5 30.7091 4.29086 32.5 6.5 32.5H34.5C36.7091 32.5 38.5 30.7091 38.5 28.5V12.5C38.5 10.2909 36.7091 8.5 34.5 8.5Z" fill="#233893"/>
<path d="M10.209 18.048H2.5V19.274H10.209H11.43V18.048V8.5H10.209V18.048Z" fill="#E3E7EA"/>
<path d="M15.0911 18.048V8.5H13.8711V18.048V19.274H15.0911H38.4991V18.048H15.0911Z" fill="#E3E7EA"/>
<path d="M2.5 21.7256V22.9516H10.209V32.4996H11.43V22.9516V21.7256H10.209H2.5Z" fill="#E3E7EA"/>
<path d="M13.8711 21.7256V22.9516V32.4996H15.0911V22.9516H38.4991V21.7256H15.0911H13.8711Z" fill="#E3E7EA"/>
<path d="M15.092 19.274H13.872V18.048V8.5H11.43V18.048V19.274H10.209H2.5V21.726H10.209H11.43V22.952V32.5H13.872V22.952V21.726H15.092H38.5V19.274H15.092Z" fill="#D8002C"/>
</svg>
