<svg width="41" height="41" viewBox="0 0 41 41" fill="none" xmlns="http://www.w3.org/2000/svg">
<path d="M34.5 8.5H6.5C4.29086 8.5 2.5 10.2909 2.5 12.5V28.5C2.5 30.7091 4.29086 32.5 6.5 32.5H34.5C36.7091 32.5 38.5 30.7091 38.5 28.5V12.5C38.5 10.2909 36.7091 8.5 34.5 8.5Z" fill="#F2F3F4"/>
<path d="M14.221 8.5H6.495C4.288 8.5 2.5 10.289 2.5 12.496V28.505C2.5 30.711 4.288 32.5 6.495 32.5H14.221V8.5Z" fill="#00963D"/>
<path d="M38.5003 28.505V12.496C38.5003 10.289 36.7113 8.5 34.5053 8.5H26.7793V32.5H34.5053C36.7113 32.5 38.5003 30.711 38.5003 28.505Z" fill="#ED002C"/>
</svg>
