<svg width="41" height="41" viewBox="0 0 41 41" fill="none" xmlns="http://www.w3.org/2000/svg">
<path d="M38.3636 11.5137C38.1396 10.6367 37.6296 9.88273 36.9336 9.34473C37.6296 9.88173 38.1406 10.6357 38.3636 11.5137Z" fill="#E3E7EA"/>
<path d="M4.10156 31.683C4.77156 32.189 5.59556 32.5 6.49956 32.5H34.4996C35.4036 32.5 36.2286 32.189 36.8986 31.683L20.5006 22.042L4.10156 31.683Z" fill="#E3E7EA"/>
<path d="M2.63672 29.4844C2.85972 30.3614 3.37072 31.1164 4.06472 31.6534C3.36972 31.1154 2.85872 30.3614 2.63672 29.4844Z" fill="#E3E7EA"/>
<path d="M18.5362 12.1914C18.5102 12.2074 18.5032 12.2114 18.4922 12.2194C18.5042 12.2124 18.5102 12.2074 18.5362 12.1914Z" fill="#E3E7EA"/>
<path d="M2.621 11.5645C2.548 11.8665 2.5 12.1765 2.5 12.5005V28.5005C2.5 28.8245 2.549 29.1345 2.621 29.4365L17.855 20.5005L2.621 11.5645Z" fill="#E3E7EA"/>
<path d="M38.4995 12.5005C38.4995 12.1765 38.4505 11.8665 38.3785 11.5645L23.1445 20.5005L38.3785 29.4365C38.4515 29.1345 38.4995 28.8245 38.4995 28.5005V12.5005Z" fill="#E3E7EA"/>
<path d="M36.8986 9.317C36.2286 8.811 35.4036 8.5 34.4996 8.5H6.49956C5.59556 8.5 4.77056 8.811 4.10156 9.317L20.5006 18.959L36.8986 9.317ZM20.4906 18.058V18.048C20.3126 17.95 18.7646 17.05 18.2916 14.864C18.0516 13.758 18.4606 12.238 18.4606 12.238C18.4606 12.238 18.3826 11.741 18.1736 11.26C17.9656 10.779 17.6526 10.283 17.6526 10.283C17.6526 10.283 17.8216 10.257 17.9916 10.322C18.1596 10.387 18.2446 10.689 18.2446 10.689C18.2446 10.689 18.3936 10.349 18.8496 10.571C18.8496 10.571 18.6026 10.819 18.6546 11.027C18.7066 11.236 18.8506 11.328 19.0976 11.294C19.3846 11.256 19.4366 10.923 19.4366 10.923C19.4366 10.923 19.2606 10.89 19.2406 10.74C19.2286 10.649 19.2736 10.519 19.4296 10.506C19.5476 10.496 19.6636 10.57 19.6636 10.714C19.6636 10.819 19.5336 10.909 19.5336 10.909C19.5336 10.909 19.6376 11.133 19.8726 11.144C20.1726 11.157 20.3056 10.988 20.3096 10.701C20.3166 10.29 19.7886 10.284 19.7886 10.284C19.7886 10.284 19.8346 10.082 20.0176 9.978C20.2006 9.873 20.3696 10.017 20.3696 10.017C20.3696 10.017 20.2396 9.723 20.2786 9.521C20.3116 9.347 20.4426 9.175 20.4896 9.118V9.097L20.4976 9.107L20.5056 9.097V9.116C20.5526 9.173 20.6826 9.346 20.7166 9.519C20.7556 9.722 20.6256 10.015 20.6256 10.015C20.6256 10.015 20.7956 9.872 20.9776 9.976C21.1596 10.08 21.2056 10.282 21.2056 10.282C21.2056 10.282 20.6776 10.288 20.6846 10.699C20.6886 10.986 20.8216 11.155 21.1206 11.142C21.3566 11.131 21.4606 10.907 21.4606 10.907C21.4606 10.907 21.3296 10.817 21.3296 10.712C21.3296 10.569 21.4456 10.494 21.5646 10.504C21.7206 10.516 21.7656 10.647 21.7536 10.738C21.7346 10.888 21.5566 10.921 21.5566 10.921C21.5566 10.921 21.6096 11.253 21.8966 11.292C22.1426 11.326 22.2866 11.234 22.3396 11.025C22.3926 10.817 22.1446 10.569 22.1446 10.569C22.5996 10.348 22.7496 10.687 22.7496 10.687C22.7496 10.687 22.8356 10.387 23.0036 10.322C23.1736 10.257 23.3446 10.283 23.3446 10.283C23.3446 10.283 23.0326 10.779 22.8236 11.26C22.6146 11.742 22.5366 12.238 22.5366 12.238C22.5366 12.238 22.4456 12.175 22.2826 12.094C22.4316 12.172 22.5346 12.238 22.5346 12.238C22.5346 12.238 22.9456 13.758 22.7046 14.864C22.2326 17.05 20.6836 17.951 20.5056 18.048V18.058L20.4976 18.054L20.4906 18.058Z" fill="#E3E7EA"/>
<path d="M19.5478 12.9667C19.5568 12.9457 19.5677 12.9227 19.5917 12.9227H19.6047C19.6317 12.9227 19.6458 12.9467 19.6528 12.9707C19.6798 12.9527 19.6938 12.9267 19.6938 12.8967C19.6938 12.8517 19.7197 12.8027 19.7197 12.8027C19.7197 12.8027 19.6388 12.8437 19.5928 12.8477C19.5468 12.8517 19.4688 12.8147 19.4688 12.8147C19.4688 12.8147 19.4918 12.8547 19.4988 12.8867C19.5028 12.9087 19.5128 12.9437 19.5478 12.9667Z" fill="#DD2E44"/>
<path d="M19.5156 14.5559C19.5156 14.5559 19.5366 14.5899 19.5416 14.6209C19.5456 14.6409 19.5546 14.6719 19.5866 14.6929C19.5946 14.6729 19.6056 14.6519 19.6276 14.6519H19.6386C19.6626 14.6519 19.6756 14.6729 19.6816 14.6949C19.7056 14.6789 19.7176 14.6559 19.7176 14.6289C19.7176 14.5879 19.7406 14.5439 19.7406 14.5439C19.7406 14.5439 19.6676 14.5819 19.6266 14.5859C19.5856 14.5879 19.5156 14.5559 19.5156 14.5559Z" fill="#DD2E44"/>
<path d="M19.7285 16.1653C19.7285 16.1653 19.7445 16.1903 19.7475 16.2113C19.7515 16.2273 19.7575 16.2513 19.7825 16.2663C19.7885 16.2523 19.7955 16.2363 19.8115 16.2363H19.8195C19.8375 16.2363 19.8455 16.2523 19.8505 16.2683C19.8685 16.2573 19.8785 16.2393 19.8785 16.2193C19.8785 16.1883 19.8955 16.1553 19.8955 16.1553C19.8955 16.1553 19.8415 16.1843 19.8115 16.1863C19.7805 16.1883 19.7285 16.1653 19.7285 16.1653Z" fill="#DD2E44"/>
<path d="M23.1441 20.5004L38.3781 11.5644C38.3741 11.5464 38.3671 11.5314 38.3621 11.5144C38.1391 10.6374 37.6281 9.88241 36.9321 9.34541C36.9201 9.33641 36.9111 9.32441 36.8991 9.31641H36.8971L20.4991 18.9584L4.10114 9.31741H4.09914C4.08614 9.32641 4.07614 9.33841 4.06414 9.34841C3.37014 9.88541 2.85914 10.6394 2.63714 11.5154C2.63314 11.5324 2.62414 11.5474 2.62014 11.5654L17.8551 20.5014L2.62014 29.4364H2.61914C2.62314 29.4534 2.63114 29.4684 2.63514 29.4844C2.85714 30.3614 3.36814 31.1164 4.06314 31.6534C4.07614 31.6634 4.08614 31.6754 4.09814 31.6844H4.10014L20.4991 22.0414L36.8971 31.6824H36.8991C36.9111 31.6744 36.9201 31.6624 36.9321 31.6534C37.6281 31.1154 38.1391 30.3604 38.3621 29.4824C38.3661 29.4664 38.3741 29.4514 38.3781 29.4354H38.3771L23.1431 20.4994L23.1441 20.5004Z" fill="#E20033"/>
<path d="M18.7373 13.4415L18.7393 13.4385H18.7363L18.7373 13.4415Z" fill="#E20033"/>
<path d="M19.2051 16.4981L19.2061 16.4971H19.2051V16.4981Z" fill="#E20033"/>
<path d="M20.6226 15.4323L20.6436 15.3703C20.6436 15.3703 20.6216 15.3653 20.5996 15.3623L20.6226 15.4323Z" fill="#E20033"/>
<path d="M21.7668 15.3041L21.7718 15.2891H21.7578L21.7668 15.3041Z" fill="#E20033"/>
<path d="M18.8413 15.1653L18.8683 15.1123L18.8223 15.1223L18.8413 15.1653Z" fill="#E20033"/>
<path d="M20.5744 15.2926C20.5824 15.2876 20.5844 15.2786 20.5954 15.2756L20.5664 15.2686L20.5744 15.2926Z" fill="#E20033"/>
<path d="M20.4903 18.048V18.058L20.4983 18.054L20.5063 18.058V18.048C20.6843 17.951 22.2333 17.05 22.7053 14.864C22.9463 13.758 22.5353 12.238 22.5353 12.238C22.5353 12.238 22.4313 12.173 22.2833 12.094C22.0973 11.996 21.8363 11.875 21.5583 11.814C21.0913 11.711 20.5683 11.71 20.4973 11.71C20.4263 11.71 19.9033 11.71 19.4373 11.814C19.0503 11.899 18.6853 12.102 18.5353 12.191C18.5093 12.207 18.5023 12.211 18.4913 12.219C18.4833 12.224 18.4613 12.237 18.4613 12.237C18.4613 12.237 18.0523 13.758 18.2923 14.864C18.7653 17.05 20.3133 17.95 20.4913 18.048H20.4903ZM21.5993 16.801C21.5403 16.793 21.4723 16.838 21.4353 16.87C21.4283 16.876 21.4143 16.883 21.4113 16.889L21.4283 16.797L21.3593 16.823L21.3993 16.71H21.3113C21.3113 16.71 21.3213 16.694 21.3353 16.676C21.3403 16.669 21.3443 16.668 21.3513 16.661C21.3613 16.651 21.3683 16.64 21.3813 16.634L21.3863 16.643C21.3993 16.636 21.4083 16.623 21.4233 16.623C21.4933 16.623 21.6513 16.641 21.6593 16.593C21.6673 16.545 21.6163 16.479 21.5153 16.485C21.4163 16.489 21.2253 16.545 21.1073 16.515C21.1073 16.515 21.0683 16.572 21.1033 16.615C21.1383 16.659 21.1903 16.711 21.1643 16.742C21.1383 16.771 21.0733 16.771 21.0113 16.767C20.9513 16.763 20.7423 16.78 20.6683 16.806C20.6343 16.818 20.6023 16.833 20.5763 16.845C20.5483 16.859 20.5233 16.872 20.5223 16.873L20.5573 16.772C20.5573 16.772 20.4883 16.752 20.4533 16.781C20.4533 16.781 20.4663 16.716 20.5233 16.703L20.4583 16.685C20.4583 16.685 20.4663 16.671 20.4793 16.655C20.4833 16.649 20.4873 16.648 20.4953 16.642C20.5023 16.636 20.5053 16.63 20.5153 16.625L20.5183 16.634C20.5363 16.624 20.5503 16.61 20.5823 16.613C20.6783 16.622 20.7213 16.644 20.7523 16.609C20.7823 16.574 20.6783 16.504 20.6783 16.504C20.6783 16.504 20.5993 16.535 20.4263 16.561C20.2523 16.587 20.1393 16.579 20.1393 16.579C20.1393 16.579 20.1173 16.762 19.8393 16.792C19.5613 16.823 19.4223 16.692 19.3563 16.667C19.3253 16.654 19.2883 16.654 19.2583 16.656C19.2373 16.658 19.2243 16.659 19.2163 16.661C19.2133 16.661 19.2013 16.663 19.2013 16.663H19.1983L19.2413 16.582V16.585L19.2453 16.58L19.1413 16.602H19.1383C19.1383 16.602 19.1323 16.501 19.2033 16.498L19.1073 16.472C19.1073 16.472 19.1283 16.458 19.1393 16.448C19.1473 16.441 19.1473 16.44 19.1593 16.433C19.1663 16.429 19.1643 16.427 19.1723 16.423L19.1753 16.43C19.2033 16.416 19.2353 16.402 19.2753 16.411C19.3713 16.433 19.4203 16.514 19.5103 16.559C19.6583 16.632 20.0023 16.58 19.7453 16.528C19.6853 16.516 19.6433 16.458 19.6433 16.458C19.6433 16.458 19.4803 16.493 19.3533 16.297C19.2693 16.166 19.2273 16.061 19.0773 16.086C19.0733 16.086 19.0713 16.085 19.0673 16.086C19.0673 16.086 19.0863 16.066 19.1133 16.046C19.1203 16.041 19.1263 16.043 19.1343 16.038C19.1533 16.027 19.1713 16.014 19.1953 16.015L19.1933 16.027C19.2063 16.027 19.2153 16.015 19.2283 16.02C19.2283 16.02 19.2153 16.007 19.1993 15.994V15.996C19.1773 15.98 19.1433 15.962 19.1023 15.964C19.1023 15.964 19.1133 15.945 19.1343 15.927C19.1393 15.922 19.1473 15.925 19.1543 15.921C19.1713 15.911 19.1863 15.899 19.2143 15.902V15.911C19.2253 15.911 19.2293 15.901 19.2453 15.906C19.2453 15.906 19.2313 15.895 19.2163 15.885V15.888C19.1953 15.874 19.1633 15.856 19.1323 15.859C19.1323 15.859 19.1413 15.844 19.1593 15.831C19.1813 15.813 19.2233 15.799 19.3063 15.846C19.4453 15.924 19.3613 15.99 19.3893 16.038C19.4073 16.069 19.4443 16.121 19.5373 16.203C19.6933 16.342 19.7673 16.377 19.7193 16.236C19.6673 16.201 19.6373 16.111 19.6243 16.069C19.6113 16.025 19.5373 15.921 19.5593 15.894C19.5813 15.868 19.6463 15.916 19.6463 15.916C19.6463 15.916 19.7293 15.881 19.8423 15.881C19.9553 15.881 19.9993 15.933 19.9993 15.933C19.9993 15.933 20.0773 15.872 20.0903 15.903C20.1033 15.933 20.0463 15.982 20.0203 16.034C19.9943 16.086 20.0243 16.147 20.0243 16.147C20.0243 16.147 20.1013 16.247 20.2573 16.251C20.4143 16.255 20.6463 16.229 20.7293 16.212C20.8123 16.194 20.9563 16.167 21.0513 16.183C21.1473 16.201 21.4173 16.194 21.4083 16.124C21.3993 16.055 21.3343 16.033 21.1993 16.05C21.0653 16.069 20.9473 16.111 20.6993 16.094C20.4523 16.076 20.4273 15.951 20.4433 15.889C20.4653 15.807 20.6043 15.756 20.7343 15.756C20.8643 15.756 21.0283 15.811 21.1233 15.811C21.2133 15.811 21.3373 15.786 21.3373 15.786C21.3373 15.786 21.2753 15.868 21.0633 15.868C20.8513 15.868 20.9463 15.84 20.7763 15.84C20.6073 15.84 20.5333 15.884 20.5333 15.935C20.5333 15.988 20.5933 16.02 20.8203 16.02C21.0473 16.02 21.1293 15.963 21.3113 15.963C21.4933 15.963 21.5633 16.029 21.5633 16.111C21.5633 16.194 21.4453 16.346 21.2593 16.298C21.2593 16.298 21.3903 16.363 21.5283 16.355C21.6673 16.346 21.7863 16.32 21.7943 16.351C21.8023 16.382 21.8593 16.542 21.8513 16.629C21.8373 16.764 21.6673 16.812 21.5993 16.803V16.801ZM22.0423 15.412C21.9483 15.401 21.8253 15.488 21.7903 15.529L21.7993 15.482C21.7783 15.498 21.7503 15.515 21.7413 15.526L21.7603 15.426L21.7193 15.441L21.7283 15.417L21.6703 15.438L21.7203 15.289H21.6553L21.6573 15.286H21.6043C21.6043 15.286 21.6413 15.215 21.7023 15.183L21.7203 15.218C21.7443 15.196 21.7703 15.172 21.8073 15.172C21.9013 15.172 22.1123 15.195 22.1233 15.131C22.1353 15.066 22.0643 14.979 21.9303 14.985C21.7953 14.99 21.5373 15.066 21.3803 15.026C21.3803 15.026 21.3283 15.102 21.3753 15.161C21.4213 15.219 21.4913 15.289 21.4563 15.33C21.4213 15.371 21.3333 15.371 21.2523 15.365C21.1703 15.36 20.8893 15.383 20.7903 15.418C20.6903 15.453 20.5973 15.505 20.5973 15.505L20.6083 15.472C20.5783 15.487 20.5453 15.504 20.5453 15.504L20.5923 15.369C20.5923 15.369 20.5783 15.367 20.5713 15.365C20.5463 15.365 20.5203 15.365 20.5023 15.382C20.5023 15.382 20.5073 15.371 20.5083 15.367C20.4883 15.369 20.4673 15.367 20.4523 15.381C20.4523 15.381 20.4693 15.293 20.5453 15.275L20.4583 15.252C20.4583 15.252 20.4763 15.197 20.5353 15.171L20.5453 15.201C20.5703 15.177 20.6093 15.154 20.6723 15.16C20.8013 15.171 20.8603 15.201 20.9013 15.154C20.9413 15.107 20.8013 15.013 20.8013 15.013C20.8013 15.013 20.6963 15.054 20.4613 15.089C20.2273 15.125 20.0753 15.112 20.0753 15.112C20.0753 15.112 20.0463 15.358 19.6713 15.399C19.2963 15.439 19.1093 15.264 19.0213 15.229C18.9343 15.194 18.8113 15.224 18.8113 15.224L18.8153 15.215C18.7853 15.218 18.7613 15.222 18.7613 15.222L18.8133 15.123L18.7293 15.141C18.7293 15.141 18.7303 15.132 18.7303 15.13L18.6793 15.141C18.6793 15.141 18.6703 15.005 18.7673 15L18.6383 14.965C18.6383 14.965 18.6723 14.924 18.7263 14.899L18.7373 14.925C18.7763 14.895 18.8323 14.866 18.9103 14.883C19.0393 14.912 19.1053 15.022 19.2263 15.082C19.4243 15.182 19.8873 15.111 19.5423 15.041C19.4613 15.024 19.4043 14.948 19.4043 14.948C19.4043 14.948 19.1853 14.994 19.0153 14.731C18.9233 14.588 18.8663 14.469 18.7423 14.446V14.454C18.7003 14.435 18.6503 14.431 18.5863 14.443C18.5863 14.443 18.6633 14.343 18.7593 14.348L18.7573 14.357C18.7843 14.348 18.8143 14.345 18.8453 14.357C18.8453 14.357 18.8123 14.329 18.7663 14.306L18.7633 14.324C18.7343 14.302 18.6893 14.277 18.6343 14.28C18.6343 14.28 18.6723 14.184 18.7843 14.197V14.2C18.8073 14.196 18.8353 14.195 18.8683 14.205C18.8683 14.205 18.8323 14.18 18.7903 14.161L18.7873 14.178C18.7583 14.158 18.7163 14.136 18.6743 14.14C18.6743 14.14 18.6993 14.064 18.8033 14.082V14.086C18.8373 14.08 18.8813 14.083 18.9503 14.122C19.1383 14.228 19.0253 14.316 19.0613 14.38C19.0853 14.421 19.1363 14.492 19.2603 14.603C19.4713 14.791 19.5713 14.837 19.5063 14.646C19.4363 14.6 19.3953 14.479 19.3783 14.421C19.3603 14.362 19.2613 14.222 19.2903 14.187C19.3193 14.152 19.4073 14.217 19.4073 14.217C19.4073 14.217 19.5183 14.17 19.6703 14.17C19.8223 14.17 19.8803 14.241 19.8803 14.241C19.8803 14.241 19.9863 14.159 20.0033 14.199C20.0213 14.241 19.9453 14.304 19.9103 14.375C19.8753 14.445 19.9163 14.527 19.9163 14.527C19.9163 14.527 20.0183 14.662 20.2293 14.668C20.4393 14.673 20.7523 14.638 20.8633 14.615C20.9743 14.592 21.1683 14.554 21.2963 14.577C21.4263 14.6 21.7883 14.592 21.7763 14.497C21.7643 14.404 21.6763 14.375 21.4953 14.398C21.3143 14.421 21.1573 14.48 20.8233 14.456C20.4903 14.433 20.4563 14.264 20.4783 14.181C20.5073 14.07 20.6943 14.003 20.8703 14.003C21.0453 14.003 21.2653 14.076 21.3943 14.076C21.5263 14.076 21.6923 14.041 21.6923 14.041C21.6923 14.041 21.6123 14.152 21.3243 14.152C21.0363 14.152 21.1663 14.114 20.9373 14.114C20.7083 14.114 20.6103 14.172 20.6103 14.243C20.6103 14.313 20.6923 14.357 20.9963 14.357C21.3003 14.357 21.4123 14.281 21.6563 14.281C21.9023 14.281 21.9963 14.369 21.9963 14.48C21.9963 14.592 21.8383 14.796 21.5883 14.732C21.5883 14.732 21.7623 14.82 21.9493 14.808C22.1373 14.797 22.2953 14.762 22.3063 14.803C22.3173 14.844 22.3923 15.06 22.3823 15.178C22.3643 15.36 22.1363 15.424 22.0423 15.412ZM18.5473 12.634C18.5753 12.614 18.6103 12.601 18.6483 12.596C18.6563 12.596 18.6623 12.587 18.6703 12.588L18.6683 12.597C18.6833 12.597 18.6983 12.593 18.7143 12.599C18.7143 12.599 18.6953 12.578 18.6693 12.558C18.6513 12.545 18.6193 12.541 18.5913 12.532C18.5713 12.526 18.5573 12.513 18.5323 12.514C18.5323 12.514 18.5323 12.513 18.5323 12.512C18.5303 12.512 18.5303 12.511 18.5283 12.511C18.5283 12.511 18.5443 12.482 18.5753 12.456C18.5973 12.437 18.6313 12.427 18.6743 12.425C18.6833 12.425 18.6863 12.417 18.6963 12.418V12.426C18.7103 12.426 18.7213 12.424 18.7393 12.429C18.7393 12.429 18.7183 12.411 18.6923 12.395C18.6773 12.385 18.6553 12.383 18.6353 12.375C18.6153 12.368 18.5973 12.355 18.5763 12.357C18.5763 12.357 18.5763 12.355 18.5773 12.355C18.5763 12.355 18.5753 12.355 18.5743 12.355C18.5743 12.355 18.5883 12.332 18.6153 12.313C18.6353 12.298 18.6633 12.288 18.7083 12.294C18.7123 12.294 18.7133 12.291 18.7173 12.292V12.297C18.7483 12.302 18.7843 12.312 18.8303 12.338C19.0373 12.452 18.9123 12.551 18.9523 12.622C18.9783 12.667 19.0353 12.747 19.1743 12.87C19.4093 13.078 19.5193 13.131 19.4473 12.919C19.3693 12.867 19.3233 12.733 19.3043 12.668C19.2843 12.603 19.1743 12.447 19.2063 12.407C19.2393 12.368 19.3363 12.44 19.3363 12.44C19.3363 12.44 19.4603 12.387 19.6293 12.387C19.7983 12.387 19.8633 12.465 19.8633 12.465C19.8633 12.465 19.9803 12.374 20.0003 12.42C20.0193 12.465 19.9353 12.538 19.8963 12.616C19.8573 12.694 19.9023 12.785 19.9023 12.785C19.9023 12.785 20.0163 12.934 20.2513 12.941C20.4853 12.947 20.8343 12.908 20.9583 12.882C21.0813 12.856 21.2963 12.813 21.4403 12.84C21.5843 12.866 21.9883 12.856 21.9753 12.752C21.9613 12.648 21.8643 12.615 21.6633 12.641C21.4603 12.667 21.2853 12.732 20.9133 12.706C20.5413 12.68 20.5043 12.491 20.5283 12.399C20.5613 12.275 20.7703 12.2 20.9653 12.2C21.1613 12.2 21.4063 12.282 21.5483 12.282C21.6933 12.284 21.8783 12.244 21.8783 12.244C21.8783 12.244 21.7863 12.368 21.4673 12.368C21.1483 12.368 21.2903 12.326 21.0373 12.326C20.7823 12.326 20.6723 12.391 20.6723 12.469C20.6723 12.547 20.7633 12.596 21.1033 12.596C21.4413 12.596 21.5663 12.511 21.8393 12.511C22.1123 12.511 22.2163 12.609 22.2163 12.733C22.2163 12.857 22.0403 13.085 21.7593 13.013C21.7593 13.013 21.9563 13.11 22.1653 13.097C22.3723 13.085 22.5483 13.046 22.5623 13.092C22.5763 13.137 22.6603 13.378 22.6483 13.509C22.6283 13.711 22.3733 13.782 22.2693 13.77C22.1653 13.757 22.0293 13.855 21.9903 13.9L22.0153 13.763L21.9103 13.802L21.9693 13.633H21.8403C21.8403 13.633 21.8533 13.61 21.8743 13.583C21.8823 13.572 21.8893 13.571 21.9013 13.559C21.9163 13.544 21.9273 13.528 21.9463 13.518L21.9533 13.531C21.9723 13.521 21.9843 13.502 22.0073 13.502C22.1123 13.502 22.3473 13.528 22.3613 13.457C22.3733 13.386 22.2953 13.288 22.1463 13.294C21.9963 13.3 21.7083 13.385 21.5333 13.339C21.5333 13.339 21.4753 13.423 21.5273 13.489C21.5783 13.554 21.6563 13.633 21.6173 13.678C21.5783 13.723 21.4803 13.723 21.3903 13.717C21.2983 13.711 20.9853 13.736 20.8753 13.776C20.7643 13.815 20.6603 13.874 20.6603 13.874V13.871L20.6593 13.872L20.7103 13.724C20.7103 13.724 20.6073 13.692 20.5563 13.737C20.5563 13.737 20.5563 13.735 20.5563 13.734C20.5563 13.734 20.5553 13.734 20.5543 13.734C20.5543 13.734 20.5743 13.639 20.6563 13.618L20.5613 13.593L20.5593 13.591C20.5593 13.591 20.5713 13.569 20.5923 13.545C20.5973 13.539 20.6003 13.539 20.6063 13.533C20.6183 13.522 20.6263 13.51 20.6443 13.502L20.6503 13.519C20.6773 13.505 20.6973 13.485 20.7433 13.489C20.8863 13.502 20.9513 13.534 20.9973 13.482C21.0433 13.43 20.8863 13.326 20.8863 13.326C20.8863 13.326 20.7693 13.372 20.5093 13.411C20.2483 13.451 20.0793 13.437 20.0793 13.437C20.0793 13.437 20.0463 13.711 19.6293 13.756C19.2123 13.801 19.0043 13.606 18.9063 13.567C18.8573 13.548 18.7993 13.546 18.7533 13.549C18.7523 13.549 18.7513 13.549 18.7503 13.549C18.7063 13.552 18.6723 13.56 18.6723 13.56H18.6693L18.7333 13.438L18.5793 13.47V13.468H18.5773C18.5773 13.468 18.5683 13.321 18.6743 13.313L18.5343 13.275H18.5323C18.5323 13.275 18.5613 13.245 18.6033 13.219C18.6123 13.213 18.6183 13.207 18.6293 13.202L18.6313 13.207C18.6723 13.187 18.7213 13.172 18.7803 13.186C18.9243 13.218 18.9973 13.34 19.1323 13.407C19.3543 13.518 19.8693 13.44 19.4853 13.362C19.3953 13.344 19.3323 13.258 19.3323 13.258C19.3323 13.258 19.0873 13.31 18.8983 13.017C18.8043 12.871 18.7453 12.746 18.6313 12.706C18.6023 12.695 18.5643 12.697 18.5273 12.699C18.5093 12.699 18.4963 12.694 18.4753 12.699C18.4753 12.699 18.4773 12.697 18.4773 12.696C18.4753 12.696 18.4743 12.696 18.4733 12.696C18.4733 12.696 18.5023 12.665 18.5433 12.636L18.5473 12.634Z" fill="#E20033"/>
<path d="M18.7837 15.0313C18.7957 15.0213 18.7967 15.0023 18.8167 15.0003L18.7637 14.9863L18.7837 15.0313Z" fill="#E20033"/>
<path d="M18.5363 12.1907C18.6863 12.1007 19.0513 11.8987 19.4383 11.8137C19.9043 11.7107 20.4273 11.7097 20.4983 11.7097C20.5693 11.7097 21.0923 11.7097 21.5593 11.8137C21.8373 11.8757 22.0983 11.9957 22.2843 12.0937C22.4483 12.1747 22.5383 12.2377 22.5383 12.2377C22.5383 12.2377 22.6163 11.7417 22.8253 11.2597C23.0343 10.7787 23.3463 10.2827 23.3463 10.2827C23.3463 10.2827 23.1753 10.2567 23.0053 10.3217C22.8373 10.3867 22.7513 10.6867 22.7513 10.6867C22.7513 10.6867 22.6013 10.3477 22.1463 10.5687C22.1463 10.5687 22.3943 10.8167 22.3413 11.0247C22.2883 11.2337 22.1443 11.3257 21.8983 11.2917C21.6113 11.2527 21.5583 10.9207 21.5583 10.9207C21.5583 10.9207 21.7363 10.8877 21.7553 10.7377C21.7673 10.6467 21.7223 10.5157 21.5663 10.5037C21.4473 10.4937 21.3313 10.5687 21.3313 10.7117C21.3313 10.8167 21.4623 10.9067 21.4623 10.9067C21.4623 10.9067 21.3583 11.1307 21.1223 11.1417C20.8233 11.1547 20.6903 10.9857 20.6863 10.6987C20.6793 10.2877 21.2073 10.2817 21.2073 10.2817C21.2073 10.2817 21.1613 10.0797 20.9793 9.97568C20.7973 9.87168 20.6273 10.0147 20.6273 10.0147C20.6273 10.0147 20.7573 9.72168 20.7183 9.51868C20.6843 9.34568 20.5543 9.17268 20.5073 9.11568V9.09668L20.4993 9.10668L20.4913 9.09668V9.11768C20.4443 9.17468 20.3133 9.34668 20.2803 9.52068C20.2413 9.72268 20.3713 10.0167 20.3713 10.0167C20.3713 10.0167 20.2023 9.87268 20.0193 9.97768C19.8363 10.0817 19.7903 10.2837 19.7903 10.2837C19.7903 10.2837 20.3183 10.2897 20.3113 10.7007C20.3073 10.9877 20.1743 11.1567 19.8743 11.1437C19.6393 11.1327 19.5353 10.9087 19.5353 10.9087C19.5353 10.9087 19.6653 10.8187 19.6653 10.7137C19.6653 10.5697 19.5493 10.4957 19.4313 10.5057C19.2753 10.5187 19.2303 10.6487 19.2423 10.7397C19.2623 10.8897 19.4383 10.9227 19.4383 10.9227C19.4383 10.9227 19.3863 11.2557 19.0993 11.2937C18.8523 11.3277 18.7083 11.2357 18.6563 11.0267C18.6043 10.8187 18.8513 10.5707 18.8513 10.5707C18.3953 10.3487 18.2463 10.6887 18.2463 10.6887C18.2463 10.6887 18.1613 10.3867 17.9933 10.3217C17.8233 10.2567 17.6543 10.2827 17.6543 10.2827C17.6543 10.2827 17.9673 10.7787 18.1753 11.2597C18.3843 11.7407 18.4623 12.2357 18.4623 12.2367C18.4623 12.2367 18.4843 12.2237 18.4923 12.2187C18.5043 12.2107 18.5103 12.2067 18.5363 12.1907Z" fill="#FFCC4D"/>
<path d="M18.738 13.4382H18.741L18.739 13.4412L18.786 13.5482C18.775 13.5482 18.768 13.5502 18.758 13.5502C18.804 13.5472 18.863 13.5482 18.911 13.5682C19.009 13.6072 19.217 13.8022 19.634 13.7572C20.051 13.7122 20.084 13.4382 20.084 13.4382C20.084 13.4382 20.253 13.4522 20.514 13.4122C20.774 13.3732 20.891 13.3272 20.891 13.3272C20.891 13.3272 21.048 13.4312 21.002 13.4832C20.956 13.5352 20.891 13.5032 20.748 13.4902C20.702 13.4862 20.682 13.5062 20.655 13.5202L20.756 13.8252C20.702 13.8502 20.667 13.8702 20.664 13.8712V13.8742C20.664 13.8742 20.767 13.8152 20.878 13.7762C20.988 13.7362 21.301 13.7112 21.393 13.7172C21.483 13.7232 21.581 13.7232 21.62 13.6782C21.659 13.6332 21.581 13.5542 21.53 13.4892C21.478 13.4232 21.536 13.3392 21.536 13.3392C21.711 13.3852 21.999 13.3002 22.149 13.2942C22.298 13.2882 22.376 13.3862 22.364 13.4572C22.35 13.5282 22.115 13.5022 22.01 13.5022C21.987 13.5022 21.975 13.5212 21.956 13.5312L22.105 13.8142C22.054 13.8422 22.01 13.8772 21.992 13.9002C22.031 13.8552 22.167 13.7572 22.271 13.7702C22.375 13.7822 22.63 13.7112 22.65 13.5092C22.662 13.3782 22.578 13.1372 22.564 13.0922C22.55 13.0462 22.374 13.0852 22.167 13.0972C21.958 13.1102 21.761 13.0132 21.761 13.0132C22.042 13.0852 22.218 12.8572 22.218 12.7332C22.218 12.6092 22.114 12.5112 21.841 12.5112C21.568 12.5112 21.443 12.5962 21.105 12.5962C20.765 12.5962 20.674 12.5472 20.674 12.4692C20.674 12.3912 20.784 12.3262 21.039 12.3262C21.292 12.3262 21.15 12.3682 21.469 12.3682C21.788 12.3682 21.88 12.2442 21.88 12.2442C21.88 12.2442 21.695 12.2842 21.55 12.2822C21.408 12.2822 21.163 12.2002 20.967 12.2002C20.772 12.2002 20.563 12.2752 20.53 12.3992C20.506 12.4912 20.543 12.6802 20.915 12.7062C21.287 12.7322 21.462 12.6672 21.665 12.6412C21.866 12.6152 21.963 12.6482 21.977 12.7522C21.99 12.8562 21.586 12.8662 21.442 12.8402C21.298 12.8132 21.083 12.8562 20.96 12.8822C20.836 12.9082 20.487 12.9472 20.253 12.9412C20.018 12.9342 19.904 12.7852 19.904 12.7852C19.904 12.7852 19.859 12.6942 19.898 12.6162C19.937 12.5382 20.021 12.4652 20.002 12.4202C19.982 12.3742 19.865 12.4652 19.865 12.4652C19.865 12.4652 19.8 12.3872 19.631 12.3872C19.462 12.3872 19.338 12.4402 19.338 12.4402C19.338 12.4402 19.241 12.3682 19.208 12.4072C19.176 12.4472 19.286 12.6032 19.306 12.6682C19.325 12.7332 19.371 12.8672 19.449 12.9192C19.521 13.1312 19.411 13.0782 19.176 12.8702C19.037 12.7472 18.98 12.6672 18.954 12.6222C18.914 12.5512 19.039 12.4522 18.832 12.3382C18.785 12.3122 18.75 12.3022 18.718 12.2972L18.701 12.3982C18.701 12.3982 18.696 12.3972 18.694 12.3962C18.72 12.4132 18.741 12.4302 18.741 12.4302C18.723 12.4252 18.712 12.4282 18.697 12.4272L18.675 12.5602C18.675 12.5602 18.671 12.5602 18.67 12.5582C18.697 12.5782 18.715 12.5992 18.715 12.5992C18.699 12.5932 18.685 12.5972 18.669 12.5972L18.651 12.7062C18.651 12.7062 18.641 12.7062 18.637 12.7062C18.752 12.7472 18.81 12.8712 18.904 13.0172C19.093 13.3102 19.338 13.2582 19.338 13.2582C19.338 13.2582 19.401 13.3442 19.491 13.3622C19.875 13.4402 19.36 13.5182 19.138 13.4072C19.003 13.3402 18.93 13.2182 18.786 13.1862C18.727 13.1722 18.678 13.1872 18.637 13.2072C18.641 13.2172 18.737 13.4372 18.737 13.4372L18.584 13.4692V13.4712L18.737 13.4392L18.738 13.4382ZM19.605 13.2932H19.592C19.56 13.2932 19.534 13.2662 19.534 13.2342V12.9802C19.534 12.9722 19.545 12.9722 19.548 12.9652C19.513 12.9422 19.503 12.9072 19.499 12.8852C19.492 12.8532 19.469 12.8132 19.469 12.8132C19.469 12.8132 19.547 12.8502 19.593 12.8462C19.639 12.8422 19.72 12.8012 19.72 12.8012C19.72 12.8012 19.694 12.8502 19.694 12.8952C19.694 12.9262 19.68 12.9512 19.653 12.9692C19.655 12.9742 19.664 12.9742 19.664 12.9802V13.2342C19.664 13.2662 19.638 13.2932 19.605 13.2932Z" fill="#FFCC4D"/>
<path d="M21.7297 15.4163L21.7207 15.4403L21.7617 15.4253L21.7657 15.4023L21.7297 15.4163Z" fill="#FFCC4D"/>
<path d="M20.0765 15.1119C20.0765 15.1119 20.2285 15.1249 20.4625 15.0889C20.6975 15.0539 20.8025 15.0129 20.8025 15.0129C20.8025 15.0129 20.9425 15.1069 20.9025 15.1539C20.8615 15.2009 20.8025 15.1709 20.6735 15.1599C20.6105 15.1539 20.5715 15.1769 20.5465 15.2009L20.5685 15.2689L20.5975 15.2759C20.5875 15.2779 20.5855 15.2879 20.5765 15.2929L20.5995 15.3629C20.6225 15.3659 20.6435 15.3709 20.6435 15.3709L20.6225 15.4329L20.6315 15.4609C20.6185 15.4669 20.6195 15.4669 20.6085 15.4719L20.5975 15.5049C20.5975 15.5049 20.6905 15.4529 20.7905 15.4179C20.8895 15.3829 21.1705 15.3599 21.2525 15.3649C21.3335 15.3709 21.4215 15.3709 21.4565 15.3299C21.4915 15.2889 21.4215 15.2189 21.3755 15.1609C21.3285 15.1019 21.3805 15.0259 21.3805 15.0259C21.5375 15.0659 21.7955 14.9899 21.9305 14.9849C22.0645 14.9789 22.1355 15.0659 22.1235 15.1309C22.1125 15.1949 21.9015 15.1719 21.8075 15.1719C21.7715 15.1719 21.7455 15.1959 21.7205 15.2179L21.7585 15.2889H21.7725L21.7675 15.3039L21.8435 15.4479C21.8235 15.4589 21.8155 15.4699 21.7995 15.4819L21.7905 15.5289C21.8255 15.4879 21.9485 15.4009 22.0425 15.4119C22.1365 15.4239 22.3645 15.3599 22.3825 15.1779C22.3925 15.0599 22.3175 14.8439 22.3065 14.8029C22.2955 14.7619 22.1375 14.7969 21.9495 14.8079C21.7625 14.8199 21.5885 14.7319 21.5885 14.7319C21.8385 14.7959 21.9965 14.5919 21.9965 14.4799C21.9965 14.3689 21.9025 14.2809 21.6565 14.2809C21.4125 14.2809 21.2995 14.3569 20.9965 14.3569C20.6935 14.3569 20.6105 14.3129 20.6105 14.2429C20.6105 14.1719 20.7095 14.1139 20.9375 14.1139C21.1655 14.1139 21.0375 14.1519 21.3245 14.1519C21.6115 14.1519 21.6925 14.0409 21.6925 14.0409C21.6925 14.0409 21.5265 14.0759 21.3945 14.0759C21.2655 14.0759 21.0455 14.0029 20.8705 14.0029C20.6945 14.0029 20.5075 14.0699 20.4785 14.1809C20.4565 14.2639 20.4905 14.4329 20.8235 14.4559C21.1575 14.4799 21.3145 14.4209 21.4955 14.3979C21.6765 14.3749 21.7645 14.4039 21.7765 14.4969C21.7885 14.5919 21.4265 14.5999 21.2965 14.5769C21.1685 14.5539 20.9745 14.5919 20.8635 14.6149C20.7525 14.6379 20.4395 14.6729 20.2295 14.6679C20.0185 14.6619 19.9165 14.5269 19.9165 14.5269C19.9165 14.5269 19.8755 14.4449 19.9105 14.3749C19.9455 14.3039 20.0215 14.2409 20.0035 14.1989C19.9865 14.1589 19.8805 14.2409 19.8805 14.2409C19.8805 14.2409 19.8225 14.1699 19.6705 14.1699C19.5185 14.1699 19.4075 14.2169 19.4075 14.2169C19.4075 14.2169 19.3195 14.1519 19.2905 14.1869C19.2615 14.2219 19.3605 14.3619 19.3785 14.4209C19.3955 14.4789 19.4365 14.5999 19.5065 14.6459C19.5715 14.8369 19.4715 14.7909 19.2605 14.6029C19.1365 14.4919 19.0855 14.4209 19.0615 14.3799C19.0255 14.3159 19.1385 14.2279 18.9505 14.1219C18.8815 14.0829 18.8375 14.0799 18.8025 14.0859L18.7905 14.1609C18.8325 14.1799 18.8685 14.2049 18.8685 14.2049C18.8345 14.1949 18.8075 14.1949 18.7835 14.1999L18.7655 14.3069C18.8115 14.3299 18.8445 14.3579 18.8445 14.3579C18.8135 14.3469 18.7845 14.3499 18.7565 14.3579L18.7415 14.4469C18.8655 14.4699 18.9215 14.5889 19.0145 14.7319C19.1845 14.9949 19.4035 14.9489 19.4035 14.9489C19.4035 14.9489 19.4605 15.0249 19.5415 15.0419C19.8865 15.1119 19.4235 15.1829 19.2255 15.0829C19.1045 15.0229 19.0385 14.9129 18.9095 14.8839C18.8315 14.8659 18.7755 14.8959 18.7365 14.9259L18.7625 14.9869L18.8155 15.0009C18.7955 15.0019 18.7945 15.0209 18.7825 15.0319L18.8175 15.1139L18.7295 15.1319L18.7285 15.1429L18.8125 15.1249L18.8185 15.1139L18.8225 15.1229L18.8685 15.1129L18.8415 15.1659L18.8615 15.2129C18.8435 15.2129 18.8295 15.2149 18.8145 15.2169L18.8105 15.2259C18.8105 15.2259 18.9335 15.1959 19.0205 15.2309C19.1085 15.2659 19.2955 15.4409 19.6705 15.4009C20.0455 15.3599 20.0745 15.1139 20.0745 15.1139L20.0765 15.1119ZM19.6395 14.9859H19.6285C19.5995 14.9859 19.5755 14.9629 19.5755 14.9329V14.7049C19.5755 14.6979 19.5855 14.6989 19.5875 14.6929C19.5555 14.6719 19.5465 14.6409 19.5425 14.6209C19.5375 14.5899 19.5165 14.5559 19.5165 14.5559C19.5165 14.5559 19.5865 14.5879 19.6275 14.5859C19.6685 14.5819 19.7415 14.5439 19.7415 14.5439C19.7415 14.5439 19.7185 14.5879 19.7185 14.6289C19.7185 14.6559 19.7065 14.6789 19.6825 14.6949C19.6835 14.6999 19.6925 14.6989 19.6925 14.7049V14.9329C19.6925 14.9629 19.6695 14.9859 19.6395 14.9859Z" fill="#FFCC4D"/>
<path d="M20.5791 16.8439C20.6051 16.8319 20.6371 16.8169 20.6711 16.8049C20.7451 16.7789 20.9541 16.7619 21.0141 16.7659C21.0761 16.7699 21.1411 16.7699 21.1671 16.7409C21.1931 16.7099 21.1411 16.6579 21.1061 16.6139C21.0711 16.5709 21.1101 16.5139 21.1101 16.5139C21.2281 16.5439 21.4191 16.4879 21.5181 16.4839C21.6191 16.4779 21.6701 16.5439 21.6621 16.5919C21.6541 16.6399 21.4961 16.6219 21.4261 16.6219C21.4101 16.6219 21.4021 16.6349 21.3891 16.6419L21.4891 16.8309C21.4661 16.8439 21.4521 16.8569 21.4371 16.8699C21.4741 16.8379 21.5411 16.7929 21.6011 16.8009C21.6691 16.8099 21.8391 16.7619 21.8531 16.6269C21.8611 16.5399 21.8041 16.3799 21.7961 16.3489C21.7881 16.3179 21.6691 16.3439 21.5301 16.3529C21.3921 16.3609 21.2611 16.2959 21.2611 16.2959C21.4471 16.3439 21.5651 16.1919 21.5651 16.1089C21.5651 16.0269 21.4951 15.9609 21.3131 15.9609C21.1311 15.9609 21.0481 16.0179 20.8221 16.0179C20.5961 16.0179 20.5351 15.9859 20.5351 15.9329C20.5351 15.8819 20.6091 15.8379 20.7781 15.8379C20.9481 15.8379 20.8521 15.8659 21.0651 15.8659C21.2781 15.8659 21.3391 15.7839 21.3391 15.7839C21.3391 15.7839 21.2151 15.8099 21.1251 15.8089C21.0301 15.8089 20.8661 15.7539 20.7361 15.7539C20.6061 15.7539 20.4671 15.8049 20.4451 15.8869C20.4291 15.9489 20.4541 16.0739 20.7011 16.0919C20.9491 16.1089 21.0671 16.0669 21.2011 16.0479C21.3361 16.0309 21.4011 16.0529 21.4101 16.1219C21.4191 16.1919 21.1491 16.1989 21.0531 16.1809C20.9581 16.1649 20.8141 16.1919 20.7311 16.2099C20.6481 16.2269 20.4161 16.2529 20.2591 16.2489C20.1031 16.2449 20.0261 16.1449 20.0261 16.1449C20.0261 16.1449 19.9961 16.0839 20.0221 16.0319C20.0481 15.9799 20.1051 15.9309 20.0921 15.9009C20.0791 15.8699 20.0011 15.9309 20.0011 15.9309C20.0011 15.9309 19.9571 15.8789 19.8441 15.8789C19.7311 15.8789 19.6481 15.9139 19.6481 15.9139C19.6481 15.9139 19.5831 15.8659 19.5611 15.8919C19.5391 15.9189 19.6131 16.0229 19.6261 16.0669C19.6391 16.1089 19.6691 16.1989 19.7211 16.2339C19.7691 16.3749 19.6951 16.3399 19.5391 16.2009C19.4461 16.1189 19.4091 16.0669 19.3911 16.0359C19.3631 15.9879 19.4471 15.9219 19.3081 15.8439C19.2251 15.7969 19.1831 15.8109 19.1611 15.8289C19.1761 15.8189 19.1951 15.8089 19.2301 15.8159L19.2181 15.8829C19.2331 15.8929 19.2471 15.9039 19.2471 15.9039C19.2311 15.8999 19.2271 15.9089 19.2151 15.9089L19.2021 15.9919C19.2181 16.0039 19.2311 16.0179 19.2311 16.0179C19.2181 16.0129 19.2091 16.0239 19.1961 16.0249L19.1851 16.0919C19.1571 16.0799 19.1221 16.0789 19.0801 16.0849C19.2301 16.0609 19.2711 16.1649 19.3561 16.2959C19.4831 16.4919 19.6461 16.4569 19.6461 16.4569C19.6461 16.4569 19.6881 16.5149 19.7481 16.5269C20.0051 16.5789 19.6611 16.6309 19.5131 16.5579C19.4231 16.5129 19.3741 16.4319 19.2781 16.4099C19.2371 16.4009 19.2061 16.4149 19.1781 16.4289L19.2081 16.4969L19.2451 16.5789L19.1451 16.5999L19.2491 16.5789L19.2461 16.5839L19.2771 16.6529C19.2691 16.6529 19.2701 16.6539 19.2631 16.6549C19.2931 16.6529 19.3301 16.6539 19.3611 16.6659C19.4271 16.6909 19.5661 16.8219 19.8441 16.7909C20.1221 16.7609 20.1441 16.5779 20.1441 16.5779C20.1441 16.5779 20.2571 16.5859 20.4311 16.5599C20.6041 16.5339 20.6831 16.5029 20.6831 16.5029C20.6831 16.5029 20.7871 16.5729 20.7571 16.6079C20.7261 16.6429 20.6831 16.6209 20.5871 16.6119C20.5551 16.6089 20.5411 16.6229 20.5231 16.6329L20.5911 16.8389C20.5851 16.8419 20.5861 16.8419 20.5811 16.8439H20.5791ZM19.8801 16.2189C19.8801 16.2389 19.8711 16.2569 19.8521 16.2679C19.8531 16.2719 19.8601 16.2709 19.8601 16.2759V16.4449C19.8601 16.4659 19.8431 16.4839 19.8211 16.4839H19.8131C19.7911 16.4839 19.7741 16.4659 19.7741 16.4449V16.2759C19.7741 16.2709 19.7821 16.2709 19.7841 16.2659C19.7601 16.2509 19.7531 16.2269 19.7491 16.2109C19.7461 16.1899 19.7301 16.1649 19.7301 16.1649C19.7301 16.1649 19.7821 16.1879 19.8131 16.1859C19.8431 16.1839 19.8971 16.1549 19.8971 16.1549C19.8971 16.1549 19.8801 16.1879 19.8801 16.2189Z" fill="#FFCC4D"/>
<path d="M18.7182 12.297V12.292C18.7182 12.292 18.7142 12.294 18.7102 12.294C18.6662 12.288 18.6372 12.298 18.6172 12.313C18.5902 12.333 18.5762 12.355 18.5762 12.355H18.5792C18.6002 12.354 18.6172 12.367 18.6372 12.375C18.6572 12.383 18.6792 12.384 18.6942 12.395C18.6962 12.396 18.6992 12.396 18.7012 12.397L18.7182 12.296V12.297Z" fill="#11429A"/>
<path d="M18.6982 12.427V12.419C18.6892 12.418 18.6872 12.426 18.6772 12.426C18.6352 12.427 18.6002 12.438 18.5782 12.457C18.5472 12.483 18.5312 12.512 18.5312 12.512C18.5333 12.512 18.5332 12.513 18.5352 12.513C18.5602 12.513 18.5732 12.526 18.5932 12.533C18.6202 12.542 18.6532 12.546 18.6712 12.559C18.6712 12.559 18.6752 12.559 18.6762 12.561L18.6982 12.428V12.427Z" fill="#11429A"/>
<path d="M18.6381 13.2062L18.6361 13.2012C18.6251 13.2062 18.6191 13.2122 18.6101 13.2182C18.5681 13.2452 18.5391 13.2732 18.5391 13.2732H18.5421L18.6821 13.3122C18.5761 13.3202 18.5841 13.4672 18.5841 13.4672H18.5861L18.7391 13.4342C18.7391 13.4342 18.6441 13.2142 18.6391 13.2042L18.6381 13.2062Z" fill="#11429A"/>
<path d="M18.6695 12.5969L18.6715 12.5879C18.6625 12.5879 18.6575 12.5949 18.6495 12.5959C18.6115 12.5999 18.5765 12.6139 18.5485 12.6339C18.5075 12.6639 18.4785 12.6939 18.4785 12.6939C18.4805 12.6939 18.4825 12.6939 18.4825 12.6939C18.5035 12.6899 18.5145 12.6979 18.5325 12.6969C18.5705 12.6959 18.6085 12.6939 18.6365 12.7039C18.6405 12.7049 18.6465 12.7039 18.6505 12.7039L18.6685 12.5949L18.6695 12.5969Z" fill="#11429A"/>
<path d="M19.6652 12.9809C19.6652 12.9749 19.6562 12.9759 19.6542 12.9699C19.6472 12.9459 19.6332 12.9219 19.6062 12.9219H19.5932C19.5692 12.9219 19.5582 12.9449 19.5492 12.9659C19.5462 12.9729 19.5352 12.9729 19.5352 12.9809V13.2349C19.5352 13.2669 19.5612 13.2939 19.5932 13.2939H19.6062C19.6392 13.2939 19.6652 13.2669 19.6652 13.2349V12.9809Z" fill="#11429A"/>
<path d="M20.6556 13.5199L20.6496 13.5029C20.6316 13.5109 20.6236 13.5239 20.6116 13.5339C20.6076 13.5379 20.6006 13.5419 20.5976 13.5459C20.5766 13.5699 20.5646 13.5919 20.5646 13.5919H20.5666L20.6626 13.6179C20.6626 13.6179 20.6626 13.6189 20.6606 13.6189C20.5776 13.6399 20.5586 13.7349 20.5586 13.7349C20.5586 13.7349 20.5596 13.7349 20.5606 13.7349C20.6136 13.6919 20.7146 13.7229 20.7146 13.7229V13.7249L20.6626 13.8729L20.6646 13.8719C20.6676 13.8719 20.7026 13.8509 20.7566 13.8259L20.6556 13.5199Z" fill="#11429A"/>
<path d="M18.7388 13.4415V13.4385L18.6738 13.5615H18.6768C18.6798 13.5615 18.7128 13.5555 18.7538 13.5515C18.7548 13.5515 18.7558 13.5515 18.7568 13.5515C18.7668 13.5515 18.7738 13.5495 18.7848 13.5495L18.7378 13.4425L18.7388 13.4415Z" fill="#11429A"/>
<path d="M21.9567 13.5306L21.9497 13.5176C21.9297 13.5276 21.9187 13.5436 21.9047 13.5586C21.8957 13.5676 21.8848 13.5746 21.8778 13.5826C21.8568 13.6096 21.8438 13.6326 21.8438 13.6326H21.9727L21.9137 13.8016L22.0187 13.7626L21.9937 13.8996C22.0117 13.8766 22.0558 13.8416 22.1068 13.8136L21.9578 13.5306H21.9567Z" fill="#11429A"/>
<path d="M18.7848 14.1965C18.6728 14.1835 18.6348 14.2795 18.6348 14.2795C18.6898 14.2765 18.7348 14.3015 18.7638 14.3235L18.7668 14.3055L18.7848 14.1985V14.1965Z" fill="#11429A"/>
<path d="M18.7609 14.3488C18.6649 14.3438 18.5879 14.4438 18.5879 14.4438C18.6519 14.4318 18.7019 14.4358 18.7429 14.4548V14.4468L18.7589 14.3578L18.7609 14.3488Z" fill="#11429A"/>
<path d="M18.8048 14.0819C18.7008 14.0639 18.6758 14.1399 18.6758 14.1399C18.7178 14.1359 18.7598 14.1579 18.7888 14.1779L18.7918 14.1609L18.8038 14.0859V14.0819H18.8048Z" fill="#11429A"/>
<path d="M18.7846 15.0314L18.7656 14.9864L18.7396 14.9254L18.7286 14.8994C18.6746 14.9244 18.6406 14.9654 18.6406 14.9654L18.7696 15.0004C18.6726 15.0054 18.6816 15.1414 18.6816 15.1414L18.7326 15.1304L18.8206 15.1124L18.7856 15.0304L18.7846 15.0314Z" fill="#11429A"/>
<path d="M20.6241 15.4319L20.6011 15.3619L20.5781 15.2919L20.5701 15.2679L20.5481 15.1999L20.5381 15.1699C20.4791 15.1959 20.4611 15.2509 20.4611 15.2509L20.5481 15.2739C20.4721 15.2919 20.4551 15.3799 20.4551 15.3799C20.4701 15.3669 20.4911 15.3679 20.5111 15.3659C20.5411 15.3629 20.5591 15.3599 20.5741 15.3639C20.5801 15.3649 20.5951 15.3679 20.5951 15.3679L20.5481 15.5029C20.5481 15.5029 20.5811 15.4859 20.6111 15.4709C20.6221 15.4659 20.6201 15.4659 20.6341 15.4599L20.6251 15.4319H20.6241Z" fill="#11429A"/>
<path d="M18.8427 15.1653L18.8237 15.1223L18.8197 15.1133L18.8137 15.1243L18.7617 15.2233C18.7617 15.2233 18.7857 15.2193 18.8157 15.2163C18.8307 15.2143 18.8437 15.2123 18.8627 15.2123L18.8427 15.1653Z" fill="#11429A"/>
<path d="M19.6932 14.7053C19.6932 14.6993 19.6852 14.7003 19.6832 14.6953C19.6762 14.6733 19.6632 14.6523 19.6402 14.6523H19.6292C19.6062 14.6523 19.5952 14.6733 19.5882 14.6933C19.5862 14.6993 19.5762 14.6983 19.5762 14.7053V14.9333C19.5762 14.9633 19.6002 14.9863 19.6292 14.9863H19.6402C19.6702 14.9863 19.6932 14.9633 19.6932 14.9333V14.7053Z" fill="#11429A"/>
<path d="M21.7694 15.3036L21.7614 15.2886L21.7234 15.2176L21.7054 15.1826C21.6444 15.2146 21.6074 15.2856 21.6074 15.2856H21.7244V15.2886L21.6734 15.4376L21.7314 15.4166L21.7674 15.4026L21.7634 15.4256L21.7444 15.5256C21.7534 15.5146 21.7814 15.4976 21.8024 15.4816C21.8184 15.4696 21.8264 15.4596 21.8464 15.4476L21.7694 15.3036Z" fill="#11429A"/>
<path d="M20.5591 16.771L20.5241 16.872C20.5241 16.872 20.5501 16.858 20.5781 16.844C20.5831 16.842 20.5821 16.842 20.5881 16.839L20.5201 16.633L20.5171 16.624C20.5071 16.628 20.5041 16.635 20.4971 16.641C20.4911 16.646 20.4851 16.65 20.4811 16.654C20.4681 16.67 20.4601 16.684 20.4601 16.684L20.5251 16.702C20.4681 16.715 20.4551 16.78 20.4551 16.78C20.4901 16.751 20.5591 16.771 20.5591 16.771Z" fill="#11429A"/>
<path d="M19.2155 15.8999C19.1865 15.8969 19.1715 15.9089 19.1555 15.9189C19.1505 15.9219 19.1405 15.9209 19.1355 15.9249C19.1145 15.9429 19.1035 15.9619 19.1035 15.9619C19.1445 15.9599 19.1785 15.9779 19.2005 15.9939V15.9919L19.2145 15.9089L19.2155 15.8999Z" fill="#11429A"/>
<path d="M19.1598 15.8288C19.1418 15.8418 19.1328 15.8568 19.1328 15.8568C19.1638 15.8538 19.1958 15.8718 19.2168 15.8858V15.8828L19.2288 15.8158C19.1938 15.8088 19.1748 15.8188 19.1598 15.8288Z" fill="#11429A"/>
<path d="M21.3895 16.6418L21.3845 16.6328C21.3715 16.6398 21.3645 16.6508 21.3545 16.6598C21.3495 16.6648 21.3425 16.6698 21.3385 16.6748C21.3235 16.6938 21.3145 16.7088 21.3145 16.7088H21.4025L21.3625 16.8218L21.4315 16.7958L21.4145 16.8878C21.4185 16.8828 21.4315 16.8758 21.4385 16.8688C21.4535 16.8558 21.4675 16.8418 21.4905 16.8298L21.3905 16.6408L21.3895 16.6418Z" fill="#11429A"/>
<path d="M19.1944 16.0247L19.1964 16.0127C19.1724 16.0127 19.1544 16.0247 19.1354 16.0357C19.1284 16.0397 19.1204 16.0397 19.1144 16.0437C19.0874 16.0637 19.0684 16.0837 19.0684 16.0837C19.0724 16.0837 19.0744 16.0847 19.0784 16.0837C19.1194 16.0777 19.1544 16.0787 19.1834 16.0907L19.1944 16.0247Z" fill="#11429A"/>
<path d="M19.2074 16.4979L19.1774 16.4289L19.1744 16.4219C19.1664 16.4259 19.1684 16.4279 19.1614 16.4319C19.1514 16.4389 19.1484 16.4409 19.1414 16.4469C19.1304 16.4569 19.1094 16.4709 19.1094 16.4709L19.2054 16.4969C19.1344 16.4999 19.1404 16.6009 19.1404 16.6009H19.1434L19.2434 16.5789L19.2074 16.4969V16.4979Z" fill="#11429A"/>
<path d="M19.2432 16.5841V16.5811L19.1992 16.6621H19.2022C19.2022 16.6621 19.2142 16.6611 19.2172 16.6601C19.2252 16.6591 19.2382 16.6571 19.2592 16.6551C19.2662 16.6551 19.2662 16.6531 19.2732 16.6531L19.2432 16.5841Z" fill="#11429A"/>
<path d="M19.8124 16.2363C19.7954 16.2363 19.7884 16.2523 19.7834 16.2663C19.7814 16.2713 19.7734 16.2703 19.7734 16.2763V16.4453C19.7734 16.4663 19.7904 16.4843 19.8124 16.4843H19.8204C19.8424 16.4843 19.8594 16.4663 19.8594 16.4453V16.2763C19.8594 16.2763 19.8534 16.2723 19.8514 16.2683C19.8464 16.2523 19.8374 16.2363 19.8204 16.2363H19.8124Z" fill="#11429A"/>
</svg>
