<svg width="41" height="41" viewBox="0 0 41 41" fill="none" xmlns="http://www.w3.org/2000/svg">
<path d="M34.5 8.5H6.5C4.29086 8.5 2.5 10.2909 2.5 12.5V28.5C2.5 30.7091 4.29086 32.5 6.5 32.5H34.5C36.7091 32.5 38.5 30.7091 38.5 28.5V12.5C38.5 10.2909 36.7091 8.5 34.5 8.5Z" fill="#F3DA00"/>
<path d="M20.4999 22.7363L4.41992 31.9043C5.02692 32.2753 5.73292 32.5003 6.49592 32.5003H34.5049C35.2679 32.5003 35.9739 32.2753 36.5809 31.9043L20.4999 22.7363Z" fill="#1E8C35"/>
<path d="M20.5009 18.264L36.5819 9.096C35.9749 8.725 35.2689 8.5 34.5059 8.5H6.49592C5.73292 8.5 5.02692 8.725 4.41992 9.096L20.5009 18.264Z" fill="#1E8C35"/>
<path d="M2.502 12.4756C2.502 12.4826 2.5 12.4886 2.5 12.4956V28.5046C2.5 28.5116 2.502 28.5176 2.502 28.5246L16.577 20.4996L2.502 12.4756Z" fill="black"/>
<path d="M38.4988 28.5246C38.4988 28.5176 38.5008 28.5116 38.5008 28.5046V12.4956C38.5008 12.4886 38.4988 12.4826 38.4988 12.4756L24.4238 20.4996L38.4988 28.5246Z" fill="black"/>
</svg>
