<svg width="41" height="41" viewBox="0 0 41 41" fill="none" xmlns="http://www.w3.org/2000/svg">
<path d="M34.5052 8.50002H6.49519C6.24519 8.50002 6.00419 8.52902 5.76819 8.57402C5.66919 8.59302 5.57419 8.62202 5.47719 8.64802C5.35319 8.68202 5.23019 8.71702 5.11119 8.76202C4.98419 8.81002 4.86019 8.86402 4.74019 8.92402C4.67019 8.95902 4.60319 8.99602 4.53519 9.03502C4.39619 9.11502 4.25919 9.19702 4.13019 9.29202C4.12619 9.29502 4.12119 9.29702 4.11719 9.30002L18.6702 16.499H38.4992V12.495C38.4992 10.288 36.7102 8.49902 34.5042 8.49902L34.5052 8.50002Z" fill="black"/>
<path d="M4.11719 31.699C4.11719 31.699 4.12619 31.704 4.13019 31.707C4.25819 31.802 4.39519 31.884 4.53419 31.964C4.60219 32.003 4.66919 32.04 4.73919 32.075C4.86019 32.136 4.98419 32.189 5.11119 32.238C5.23019 32.283 5.35219 32.318 5.47619 32.351C5.57319 32.377 5.66819 32.407 5.76719 32.426C6.00319 32.471 6.24419 32.5 6.49419 32.5H34.5032C36.7102 32.5 38.4982 30.711 38.4982 28.504V24.5H18.6692L4.11719 31.699Z" fill="#007F38"/>
<path d="M18.671 24.4998L26.757 20.4998L18.672 16.4998L4.118 9.30078C4.039 9.35978 3.967 9.42478 3.893 9.48878C3.767 9.59778 3.647 9.71278 3.535 9.83678C3.459 9.92078 3.388 10.0078 3.319 10.0978C3.246 10.1938 3.176 10.2918 3.111 10.3948C3.022 10.5358 2.943 10.6818 2.873 10.8338C2.845 10.8948 2.816 10.9558 2.791 11.0178C2.71 11.2178 2.646 11.4248 2.598 11.6388C2.588 11.6828 2.581 11.7288 2.573 11.7738C2.53 12.0078 2.5 12.2468 2.5 12.4938V28.5028C2.5 28.7498 2.53 28.9888 2.573 29.2228C2.581 29.2678 2.588 29.3138 2.598 29.3578C2.646 29.5728 2.71 29.7798 2.791 29.9788C2.816 30.0408 2.845 30.1018 2.873 30.1628C2.944 30.3148 3.023 30.4618 3.112 30.6018C3.177 30.7048 3.246 30.8028 3.32 30.8988C3.389 30.9888 3.46 31.0758 3.536 31.1598C3.647 31.2828 3.766 31.3978 3.892 31.5058C3.967 31.5708 4.04 31.6368 4.12 31.6958L18.672 24.4968L18.671 24.4998ZM8.641 19.4308L9.62 19.7268L9.996 18.7848L10.372 19.7268L11.351 19.4308L10.841 20.3088L11.686 20.8808L10.674 21.0338L10.748 22.0438L9.996 21.3568L9.245 22.0438L9.319 21.0338L8.307 20.8808L9.152 20.3088L8.642 19.4308H8.641Z" fill="#CF002E"/>
<path d="M26.7579 20.5L18.6719 24.5H38.5009V16.5H18.6719L26.7579 20.5Z" fill="#E3E7EA"/>
<path d="M9.31864 21.0341L9.24464 22.0451L9.99564 21.3571L10.7476 22.0451L10.6736 21.0341L11.6856 20.8821L10.8406 20.3101L11.3506 19.4321L10.3716 19.7281L9.99564 18.7861L9.61964 19.7281L8.64064 19.4321L9.15164 20.3101L8.30664 20.8821L9.31864 21.0341Z" fill="#E3E7EA"/>
</svg>
