<svg width="41" height="41" viewBox="0 0 41 41" fill="none" xmlns="http://www.w3.org/2000/svg">
<path d="M38.5 28.504V12.496C38.5 10.289 36.711 8.5 34.505 8.5H6.495C4.288 8.5 2.5 10.289 2.5 12.496V28.505C2.5 30.712 4.289 32.501 6.495 32.501H34.504C36.711 32.501 38.499 30.712 38.499 28.505L38.5 28.504Z" fill="#E3E7EA"/>
<path d="M20.5009 13.2998C16.4999 13.2998 13.2559 16.5238 13.2559 20.4998C13.2559 24.4758 16.4989 27.6998 20.5009 27.6998C24.5029 27.6998 27.7449 24.4758 27.7449 20.4998C27.7449 16.5238 24.5019 13.2998 20.5009 13.2998Z" fill="#BD001A"/>
</svg>
