<svg width="41" height="41" viewBox="0 0 41 41" fill="none" xmlns="http://www.w3.org/2000/svg">
<path d="M20.5878 21.2979C20.5078 21.3589 20.4208 21.3999 20.3258 21.3999C20.2288 21.3999 20.1418 21.3569 20.0608 21.2959L17.9258 25.0179C17.9768 25.1129 18.0198 25.2029 18.0748 25.2999C18.6768 26.3619 19.5348 27.4989 20.1718 27.6659C20.1428 27.6069 19.5798 26.4279 19.5798 24.5269C19.5798 22.5769 20.1768 21.3769 20.1768 21.3769V27.6669C20.2268 27.6799 20.2788 27.6999 20.3258 27.6999C20.3728 27.6999 20.4248 27.6799 20.4748 27.6669V21.3769C20.4748 21.3769 21.0708 22.5769 21.0708 24.5269C21.0708 26.4279 20.5088 27.6079 20.4798 27.6659C21.1178 27.4989 21.9748 26.3609 22.5768 25.2999C22.6318 25.2039 22.6748 25.1139 22.7248 25.0199L20.5878 21.2979Z" fill="#BA001A"/>
<path d="M16.745 20.4994C16.745 19.2994 17.043 18.1004 17.49 16.8994H2.5V24.0994H17.49C17.043 22.8994 16.745 21.6994 16.745 20.4994Z" fill="#BA001A"/>
<path d="M20.9216 20.5001C20.9216 20.6911 20.8736 20.8581 20.8066 21.0041L22.9116 24.6671C23.0116 24.4611 23.0966 24.2691 23.1596 24.1001C22.7126 22.9001 22.4146 21.7001 22.4146 20.5001C22.4146 19.3001 22.7126 18.1011 23.1596 16.9001C23.0966 16.7311 23.0106 16.5361 22.9096 16.3291L20.8066 19.9961C20.8736 20.1421 20.9226 20.3091 20.9226 20.5001H20.9216Z" fill="#BA001A"/>
<path d="M19.7272 20.5C19.7272 20.311 19.7752 20.145 19.8412 20L17.7372 16.335C17.6372 16.54 17.5522 16.732 17.4902 16.9C17.9382 18.1 18.2362 19.3 18.2362 20.5C18.2362 21.7 17.9382 22.9 17.4902 24.1C17.5542 24.272 17.6422 24.47 17.7462 24.681L19.8462 21.011C19.7772 20.864 19.7272 20.694 19.7272 20.5Z" fill="#BA001A"/>
<path d="M20.0598 19.7048C20.1408 19.6428 20.2288 19.5998 20.3258 19.5998C20.4238 19.5998 20.5118 19.6438 20.5938 19.7068L22.7258 15.9808C22.6758 15.8858 22.6318 15.7958 22.5768 15.6988C21.9758 14.6378 21.1178 13.5008 20.4808 13.3338C20.5108 13.3958 21.0718 14.5738 21.0718 16.4718C21.0718 18.4218 20.4758 19.6218 20.4758 19.6218V13.3318C20.4258 13.3188 20.3738 13.2988 20.3268 13.2988C20.2798 13.2988 20.2278 13.3188 20.1778 13.3318V19.6218C20.1778 19.6218 19.5808 18.4218 19.5808 16.4718C19.5808 14.5738 20.1428 13.3948 20.1728 13.3328C19.5348 13.5008 18.6778 14.6368 18.0758 15.6988C18.0198 15.7978 17.9758 15.8888 17.9238 15.9858L20.0598 19.7048Z" fill="#BA001A"/>
<path d="M23.9042 20.4994C23.9042 21.6994 23.6062 22.8994 23.1582 24.0994H38.5002V16.8994H23.1582C23.6062 18.0994 23.9042 19.2994 23.9042 20.4994Z" fill="#BA001A"/>
<path d="M16.0781 27.6358H16.0801L16.0791 27.6348L16.0781 27.6358Z" fill="#006D2D"/>
<path d="M24.604 27.6148L24.321 27.8028L24.311 27.7858L22.884 25.3008H22.575C21.973 26.3628 21.116 27.4998 20.478 27.6668C20.478 27.6678 20.473 27.6778 20.473 27.6778V27.6678C20.423 27.6808 20.371 27.7008 20.324 27.7008C20.277 27.7008 20.225 27.6808 20.175 27.6678V27.6778C20.175 27.6778 20.171 27.6678 20.17 27.6668C19.532 27.4998 18.675 26.3618 18.073 25.3008H17.762L16.327 27.8028L16.051 27.6428L17.391 25.2998H2.5V28.5038C2.5 30.7108 4.289 32.4998 6.495 32.4998H34.504C36.711 32.4998 38.499 30.7108 38.499 28.5038V25.2998H23.273L24.604 27.6148Z" fill="#006D2D"/>
<path d="M34.505 8.5H6.495C4.288 8.5 2.5 10.289 2.5 12.496V15.7H17.373L17.344 15.649C16.941 15.546 16.712 15.147 16.49 14.761C15.871 13.684 15.6 12.722 15.482 12.105C15.49 12.111 15.5 12.121 15.508 12.127C15.506 12.118 15.504 12.11 15.502 12.101C15.615 12.2 15.721 12.3 15.824 12.401C16.278 12.82 16.811 13.439 17.299 14.29C17.521 14.676 17.75 15.075 17.639 15.495L17.757 15.701H18.073C18.675 14.64 19.532 13.503 20.17 13.335L20.175 13.323V13.334C20.225 13.321 20.277 13.301 20.324 13.301C20.371 13.301 20.423 13.321 20.473 13.334V13.323C20.473 13.323 20.478 13.333 20.478 13.335C21.116 13.502 21.973 14.639 22.574 15.7H22.884L23.011 15.479C22.898 15.077 23.127 14.677 23.349 14.291C23.966 13.215 24.66 12.498 25.133 12.086C25.132 12.096 25.128 12.109 25.127 12.119C25.134 12.113 25.139 12.107 25.146 12.101C25.118 12.248 25.084 12.389 25.049 12.528C24.915 13.133 24.649 13.907 24.159 14.759C23.937 15.145 23.708 15.545 23.292 15.658L23.268 15.7H38.498V12.496C38.498 10.289 36.709 8.5 34.503 8.5H34.505Z" fill="black"/>
<path d="M23.1571 24.1004C23.6051 22.9004 23.9031 21.7004 23.9031 20.5004C23.9031 19.3004 23.6051 18.1014 23.1571 16.9004C22.7101 18.1004 22.4121 19.3004 22.4121 20.5004C22.4121 21.7004 22.7101 22.9004 23.1571 24.1004Z" fill="black"/>
<path d="M17.4891 16.9004C17.0421 18.1004 16.7441 19.3004 16.7441 20.5004C16.7441 21.7004 17.0421 22.9004 17.4891 24.1004C17.9371 22.9004 18.2351 21.7004 18.2351 20.5004C18.2351 19.3004 17.9371 18.1014 17.4891 16.9004Z" fill="black"/>
<path d="M22.5762 25.2995H22.8852L22.7242 25.0195C22.6742 25.1135 22.6312 25.2035 22.5762 25.2995Z" fill="#E3E7EA"/>
<path d="M23.1582 24.0996C23.0952 24.2676 23.0102 24.4606 22.9102 24.6666L23.2742 25.2996H38.5002V24.0996H23.1582Z" fill="#E3E7EA"/>
<path d="M22.8842 15.6992H22.5742C22.6292 15.7962 22.6722 15.8862 22.7232 15.9812L22.8842 15.6992Z" fill="#E3E7EA"/>
<path d="M22.9082 16.3292C23.0092 16.5362 23.0952 16.7302 23.1582 16.9002H38.5002V15.7002H23.2702L22.9092 16.3302L22.9082 16.3292Z" fill="#E3E7EA"/>
<path d="M17.746 24.6806C17.643 24.4696 17.554 24.2716 17.49 24.0996H2.5V25.2996H17.391L17.746 24.6806Z" fill="#E3E7EA"/>
<path d="M17.7617 25.2996H18.0727C18.0177 25.2026 17.9737 25.1126 17.9237 25.0176L17.7617 25.2996Z" fill="#E3E7EA"/>
<path d="M17.49 16.8992C17.553 16.7312 17.637 16.5392 17.737 16.3342L17.372 15.6992H2.5V16.8992H17.49Z" fill="#E3E7EA"/>
<path d="M18.0738 15.6992H17.7578L17.9228 15.9862C17.9738 15.8902 18.0178 15.7982 18.0738 15.6992Z" fill="#E3E7EA"/>
<path d="M19.8515 21.0225L16.0605 27.6245L16.0775 27.6345H16.0795L16.3195 27.7745L20.0465 21.2835C19.9675 21.2195 19.9035 21.1295 19.8515 21.0225Z" fill="#E3E7EA"/>
<path d="M24.8566 12.3696C24.0026 13.1976 23.5016 14.0646 23.3676 14.2986C23.1436 14.6886 22.9196 15.0776 23.0296 15.4876L20.6016 19.7156C20.6806 19.7796 20.7446 19.8686 20.7966 19.9766L23.2876 15.6376C23.6946 15.5276 23.9186 15.1376 24.1426 14.7476C24.2756 14.5166 24.7616 13.6636 25.0496 12.5266C25.0846 12.3876 25.1186 12.2456 25.1466 12.0996C25.1396 12.1056 25.1346 12.1116 25.1276 12.1176C25.1256 12.1196 25.1226 12.1216 25.1206 12.1246C25.0286 12.2056 24.9426 12.2876 24.8576 12.3706L24.8566 12.3696Z" fill="#E3E7EA"/>
<path d="M20.6016 21.2825L24.3286 27.7745L24.5876 27.6245L20.7976 21.0215C20.7456 21.1295 20.6806 21.2185 20.6026 21.2815L20.6016 21.2825Z" fill="#E3E7EA"/>
<path d="M15.589 12.4806C15.875 13.6416 16.373 14.5146 16.507 14.7496C16.731 15.1396 16.954 15.5296 17.362 15.6396L19.852 19.9776C19.905 19.8696 19.969 19.7806 20.047 19.7176L17.62 15.4896C17.729 15.0796 17.505 14.6906 17.282 14.3006C17.149 14.0696 16.659 13.2206 15.824 12.4016C15.721 12.3006 15.615 12.2006 15.502 12.1016C15.504 12.1106 15.506 12.1186 15.508 12.1276C15.508 12.1306 15.509 12.1326 15.51 12.1356C15.533 12.2536 15.561 12.3686 15.588 12.4816L15.589 12.4806Z" fill="#E3E7EA"/>
<path d="M19.8456 21.0106C19.8456 21.0106 19.8496 21.0196 19.8516 21.0236C19.9046 21.1306 19.9686 21.2206 20.0466 21.2836C20.0506 21.2866 20.0546 21.2926 20.0586 21.2956C20.1396 21.3576 20.2276 21.3996 20.3236 21.3996C20.4186 21.3996 20.5056 21.3576 20.5856 21.2976C20.5906 21.2936 20.5946 21.2866 20.6006 21.2826C20.6786 21.2186 20.7436 21.1296 20.7956 21.0226C20.7986 21.0166 20.8016 21.0096 20.8036 21.0036C20.8706 20.8576 20.9186 20.6906 20.9186 20.4996C20.9186 20.3086 20.8706 20.1416 20.8026 19.9956C20.7996 19.9896 20.7976 19.9826 20.7946 19.9766C20.7426 19.8686 20.6776 19.7796 20.5996 19.7156C20.5966 19.7126 20.5936 19.7086 20.5896 19.7056C20.5086 19.6426 20.4196 19.5986 20.3216 19.5986C20.2246 19.5986 20.1366 19.6416 20.0556 19.7036C20.0516 19.7066 20.0476 19.7126 20.0436 19.7156C19.9646 19.7786 19.9006 19.8686 19.8486 19.9756C19.8446 19.9826 19.8416 19.9906 19.8386 19.9986C19.7726 20.1436 19.7246 20.3096 19.7246 20.4986C19.7246 20.6926 19.7736 20.8626 19.8436 21.0096L19.8456 21.0106Z" fill="#E3E7EA"/>
<path d="M20.4746 21.3779V27.6779C20.4746 27.6779 20.4786 27.6679 20.4796 27.6669C20.5086 27.6079 21.0706 26.4289 21.0706 24.5279C21.0706 22.5779 20.4746 21.3779 20.4746 21.3779Z" fill="#E3E7EA"/>
<path d="M20.1751 19.6223V13.3213C20.1751 13.3213 20.1701 13.3313 20.1701 13.3333C20.1401 13.3953 19.5781 14.5733 19.5781 16.4723C19.5781 18.4223 20.1751 19.6223 20.1751 19.6223Z" fill="#E3E7EA"/>
<path d="M19.5781 24.527C19.5781 26.428 20.1411 27.608 20.1701 27.666C20.1701 27.667 20.1751 27.677 20.1751 27.677V21.377C20.1751 21.377 19.5781 22.577 19.5781 24.527Z" fill="#E3E7EA"/>
<path d="M21.0706 16.4723C21.0706 14.5743 20.5096 13.3953 20.4796 13.3343C20.4796 13.3323 20.4746 13.3223 20.4746 13.3223V19.6233C20.4746 19.6233 21.0706 18.4233 21.0706 16.4733V16.4723Z" fill="#E3E7EA"/>
</svg>
