<svg width="41" height="41" viewBox="0 0 41 41" fill="none" xmlns="http://www.w3.org/2000/svg">
<path d="M24.1276 20.3381C24.1186 20.1571 24.0966 19.9791 24.0616 19.8061C24.0816 19.7871 24.1026 19.7691 24.1256 19.7521C24.1006 19.7621 24.0776 19.7691 24.0546 19.7741C24.0186 19.5971 23.9686 19.4251 23.9066 19.2591C23.9236 19.2381 23.9426 19.2171 23.9616 19.1951C23.9386 19.2081 23.9166 19.2201 23.8946 19.2291C23.8306 19.0611 23.7556 18.8991 23.6676 18.7441C23.6796 18.7201 23.6956 18.6961 23.7116 18.6721C23.6916 18.6891 23.6706 18.7031 23.6516 18.7161C23.5616 18.5601 23.4616 18.4131 23.3516 18.2731C23.3616 18.2481 23.3716 18.2211 23.3846 18.1941C23.3666 18.2151 23.3486 18.2321 23.3316 18.2471C23.2196 18.1081 23.0976 17.9771 22.9666 17.8561C22.9716 17.8291 22.9786 17.8011 22.9866 17.7731C22.9726 17.7961 22.9576 17.8161 22.9426 17.8341C22.8116 17.7141 22.6696 17.6041 22.5216 17.5051C22.5216 17.4781 22.5256 17.4501 22.5286 17.4211C22.5176 17.4461 22.5066 17.4671 22.4936 17.4881C22.3456 17.3901 22.1886 17.3041 22.0266 17.2291C22.0226 17.2021 22.0216 17.1741 22.0206 17.1451C22.0146 17.1711 22.0066 17.1951 21.9976 17.2161C21.8356 17.1431 21.6676 17.0821 21.4956 17.0341C21.4876 17.0081 21.4816 16.9801 21.4756 16.9511C21.4726 16.9781 21.4686 17.0021 21.4636 17.0251C21.2936 16.9791 21.1186 16.9461 20.9396 16.9251C20.9276 16.9001 20.9186 16.8731 20.9076 16.8461C20.9096 16.8731 20.9096 16.8981 20.9076 16.9211C20.7816 16.9081 20.6536 16.9011 20.5246 16.9011C20.4736 16.9011 20.4246 16.9011 20.3746 16.9041C20.3596 16.8811 20.3446 16.8571 20.3306 16.8311C20.3366 16.8571 20.3406 16.8821 20.3426 16.9051C20.1626 16.9141 19.9846 16.9361 19.8126 16.9711C19.7946 16.9511 19.7766 16.9291 19.7586 16.9071C19.7686 16.9321 19.7756 16.9551 19.7816 16.9781C19.6046 17.0151 19.4336 17.0651 19.2686 17.1271C19.2476 17.1111 19.2256 17.0921 19.2056 17.0721C19.2186 17.0951 19.2296 17.1171 19.2386 17.1391C19.0716 17.2031 18.9096 17.2791 18.7556 17.3671C18.7326 17.3541 18.7086 17.3391 18.6846 17.3231C18.7016 17.3441 18.7156 17.3641 18.7276 17.3841C18.5726 17.4741 18.4256 17.5751 18.2866 17.6861C18.2606 17.6761 18.2356 17.6651 18.2086 17.6531C18.2286 17.6711 18.2456 17.6891 18.2606 17.7061C18.1216 17.8181 17.9926 17.9411 17.8716 18.0721C17.8446 18.0671 17.8176 18.0601 17.7886 18.0521C17.8116 18.0661 17.8316 18.0811 17.8486 18.0961C17.7296 18.2281 17.6196 18.3701 17.5206 18.5191C17.4936 18.5191 17.4656 18.5151 17.4366 18.5121C17.4616 18.5231 17.4836 18.5341 17.5036 18.5461C17.4066 18.6951 17.3196 18.8521 17.2456 19.0161C17.2186 19.0191 17.1916 19.0211 17.1626 19.0221C17.1886 19.0281 17.2116 19.0361 17.2326 19.0451C17.1606 19.2071 17.0996 19.3761 17.0516 19.5501C17.0256 19.5581 16.9986 19.5641 16.9696 19.5691C16.9966 19.5721 17.0206 19.5761 17.0436 19.5811C16.9976 19.7521 16.9636 19.9281 16.9436 20.1071C16.9196 20.1191 16.8926 20.1291 16.8656 20.1391C16.8926 20.1381 16.9176 20.1381 16.9406 20.1391C16.9276 20.2661 16.9206 20.3941 16.9206 20.5241C16.9206 20.5751 16.9226 20.6251 16.9246 20.6751C16.9026 20.6911 16.8776 20.7051 16.8516 20.7201C16.8786 20.7141 16.9026 20.7101 16.9256 20.7081C16.9356 20.8891 16.9576 21.0671 16.9926 21.2401C16.9726 21.2581 16.9506 21.2771 16.9276 21.2941C16.9526 21.2851 16.9766 21.2771 16.9986 21.2721C17.0356 21.4491 17.0856 21.6211 17.1466 21.7871C17.1296 21.8081 17.1116 21.8291 17.0916 21.8501C17.1146 21.8371 17.1366 21.8261 17.1586 21.8171C17.2226 21.9851 17.2986 22.1471 17.3856 22.3021C17.3726 22.3251 17.3576 22.3501 17.3416 22.3741C17.3616 22.3571 17.3816 22.3431 17.4016 22.3311C17.4906 22.4871 17.5906 22.6341 17.7006 22.7741C17.6916 22.8001 17.6806 22.8261 17.6676 22.8521C17.6856 22.8321 17.7036 22.8151 17.7206 22.8001C17.8326 22.9391 17.9546 23.0701 18.0856 23.1911C18.0806 23.2181 18.0736 23.2451 18.0656 23.2741C18.0796 23.2511 18.0946 23.2311 18.1096 23.2131C18.2416 23.3331 18.3826 23.4431 18.5306 23.5421C18.5306 23.5691 18.5266 23.5971 18.5236 23.6261C18.5356 23.6021 18.5456 23.5791 18.5586 23.5601C18.7066 23.6571 18.8636 23.7441 19.0256 23.8191C19.0296 23.8461 19.0306 23.8741 19.0316 23.9031C19.0386 23.8771 19.0466 23.8531 19.0546 23.8321C19.2166 23.9051 19.3846 23.9661 19.5576 24.0141C19.5646 24.0401 19.5706 24.0681 19.5766 24.0961C19.5796 24.0701 19.5836 24.0451 19.5886 24.0231C19.7586 24.0691 19.9336 24.1031 20.1126 24.1231C20.1246 24.1481 20.1346 24.1741 20.1446 24.2021C20.1426 24.1751 20.1446 24.1501 20.1446 24.1271C20.2696 24.1401 20.3976 24.1471 20.5276 24.1471C20.5776 24.1471 20.6276 24.1461 20.6776 24.1441C20.6926 24.1661 20.7066 24.1911 20.7216 24.2171C20.7166 24.1911 20.7126 24.1661 20.7106 24.1431C20.8906 24.1331 21.0676 24.1111 21.2396 24.0761C21.2586 24.0961 21.2756 24.1181 21.2936 24.1411C21.2836 24.1161 21.2766 24.0921 21.2716 24.0701C21.4476 24.0321 21.6186 23.9821 21.7836 23.9211C21.8046 23.9381 21.8266 23.9561 21.8476 23.9761C21.8346 23.9531 21.8226 23.9311 21.8136 23.9101C21.9816 23.8461 22.1426 23.7691 22.2966 23.6811C22.3206 23.6941 22.3446 23.7101 22.3686 23.7261C22.3516 23.7051 22.3376 23.6851 22.3246 23.6651C22.4796 23.5761 22.6266 23.4751 22.7656 23.3641C22.7906 23.3731 22.8176 23.3851 22.8436 23.3971C22.8236 23.3791 22.8056 23.3611 22.7906 23.3441C22.9296 23.2311 23.0596 23.1091 23.1796 22.9781C23.2066 22.9831 23.2346 22.9901 23.2626 22.9981C23.2406 22.9841 23.2196 22.9691 23.2026 22.9541C23.3226 22.8211 23.4316 22.6801 23.5306 22.5311C23.5576 22.5311 23.5866 22.5351 23.6146 22.5381C23.5896 22.5281 23.5686 22.5161 23.5476 22.5041C23.6456 22.3551 23.7316 22.1981 23.8056 22.0341C23.8326 22.0311 23.8606 22.0291 23.8886 22.0281C23.8626 22.0211 23.8396 22.0131 23.8186 22.0051C23.8916 21.8431 23.9516 21.6741 23.9996 21.5001C24.0256 21.4921 24.0526 21.4861 24.0816 21.4811C24.0546 21.4781 24.0306 21.4741 24.0086 21.4691C24.0536 21.2981 24.0876 21.1221 24.1076 20.9431C24.1326 20.9311 24.1596 20.9211 24.1856 20.9111C24.1586 20.9121 24.1336 20.9111 24.1106 20.9111C24.1236 20.7851 24.1306 20.6571 24.1306 20.5261C24.1306 20.4761 24.1306 20.4251 24.1266 20.3751C24.1496 20.3601 24.1736 20.3451 24.1996 20.3311C24.1736 20.3371 24.1486 20.3401 24.1256 20.3421L24.1276 20.3381ZM22.8866 18.5161C22.4086 18.5551 21.9536 18.6721 21.5326 18.8561C21.4776 18.8141 21.4216 18.7741 21.3646 18.7351C21.8086 18.5461 22.2886 18.4281 22.7936 18.3961C22.8256 18.4351 22.8566 18.4751 22.8866 18.5161ZM22.6266 18.2081C22.0826 18.2331 21.5626 18.3541 21.0826 18.5551C21.0146 18.5141 20.9446 18.4751 20.8746 18.4391C21.3766 18.2281 21.9216 18.1031 22.4936 18.0801C22.5386 18.1221 22.5836 18.1641 22.6256 18.2081H22.6266ZM21.1906 19.0231C21.1206 19.0611 21.0516 19.1021 20.9826 19.1431C20.9266 19.1001 20.8686 19.0581 20.8106 19.0181C20.8786 18.9761 20.9496 18.9371 21.0196 18.8991C21.0786 18.9391 21.1346 18.9801 21.1906 19.0231ZM20.5256 17.3121C21.1706 17.3121 21.7676 17.5241 22.2526 17.8811C21.6426 17.9061 21.0596 18.0421 20.5256 18.2721C19.9906 18.0421 19.4096 17.9061 18.7986 17.8811C19.2846 17.5241 19.8806 17.3121 20.5256 17.3121ZM20.5256 18.8351C20.4566 18.7941 20.3866 18.7551 20.3156 18.7191C20.3836 18.6781 20.4546 18.6401 20.5256 18.6031C20.5966 18.6401 20.6656 18.6781 20.7356 18.7191C20.6646 18.7561 20.5946 18.7951 20.5256 18.8351ZM20.6986 19.3361C20.6396 19.3801 20.5826 19.4241 20.5256 19.4711C20.4686 19.4251 20.4106 19.3801 20.3516 19.3361C20.4086 19.2911 20.4666 19.2481 20.5256 19.2061C20.5846 19.2481 20.6416 19.2921 20.6986 19.3361ZM18.5556 18.0801C19.1276 18.1031 19.6726 18.2281 20.1756 18.4391C20.1046 18.4761 20.0356 18.5151 19.9666 18.5551C19.4876 18.3541 18.9686 18.2331 18.4236 18.2081C18.4666 18.1641 18.5106 18.1211 18.5556 18.0801ZM20.2396 19.0181C20.1806 19.0591 20.1246 19.1011 20.0676 19.1431C19.9996 19.1011 19.9296 19.0611 19.8596 19.0231C19.9156 18.9801 19.9736 18.9391 20.0306 18.8991C20.1016 18.9361 20.1706 18.9761 20.2396 19.0181ZM18.2576 18.3961C18.7616 18.4281 19.2416 18.5461 19.6866 18.7351C19.6286 18.7741 19.5726 18.8151 19.5176 18.8561C19.0966 18.6731 18.6406 18.5551 18.1636 18.5161C18.1936 18.4751 18.2256 18.4351 18.2576 18.3961ZM17.5796 20.3051C17.5796 19.7111 17.7506 19.1581 18.0446 18.6931C18.4846 18.7431 18.9026 18.8611 19.2896 19.0381C18.5866 19.6321 18.0486 20.4221 17.7556 21.3241C17.6416 21.0061 17.5796 20.6631 17.5796 20.3051ZM18.2676 22.2271C18.1846 22.1261 18.1086 22.0191 18.0386 21.9081C18.2586 20.8351 18.8306 19.8931 19.6256 19.2121C19.6946 19.2521 19.7636 19.2941 19.8306 19.3371C19.0026 20.0601 18.4296 21.0761 18.2676 22.2271ZM18.9086 22.8061C18.8176 22.7451 18.7296 22.6791 18.6456 22.6091C18.7216 21.3921 19.2726 20.3051 20.1126 19.5401C20.1716 19.5861 20.2286 19.6331 20.2856 19.6821C19.4576 20.4651 18.9326 21.5731 18.9076 22.8071L18.9086 22.8061ZM21.7426 23.0291C21.3716 23.2011 20.9596 23.2971 20.5246 23.2971C20.0896 23.2971 19.6776 23.2011 19.3056 23.0291C19.3056 22.9861 19.3036 22.9421 19.3036 22.8981C19.3036 21.7301 19.7696 20.6721 20.5236 19.9061C21.2766 20.6721 21.7426 21.7291 21.7426 22.8981C21.7426 22.9421 21.7426 22.9861 21.7406 23.0291H21.7426ZM22.1406 22.8061C22.1156 21.5731 21.5906 20.4651 20.7636 19.6811C20.8196 19.6331 20.8776 19.5851 20.9356 19.5391C21.7766 20.3051 22.3276 21.3911 22.4026 22.6081C22.3196 22.6791 22.2316 22.7441 22.1396 22.8051L22.1406 22.8061ZM22.7816 22.2261C22.6186 21.0761 22.0466 20.0601 21.2186 19.3371C21.2856 19.2931 21.3546 19.2511 21.4246 19.2121C22.2196 19.8931 22.7906 20.8351 23.0106 21.9081C22.9416 22.0191 22.8646 22.1251 22.7816 22.2261ZM23.2946 21.3231C23.0016 20.4211 22.4636 19.6321 21.7606 19.0371C22.1466 18.8601 22.5666 18.7411 23.0046 18.6921C23.2986 19.1571 23.4686 19.7101 23.4686 20.3041C23.4686 20.6621 23.4076 21.0051 23.2946 21.3231Z" fill="#EA0034"/>
<path d="M34.5 8.5H6.5C4.291 8.5 2.5 10.291 2.5 12.5V28.5C2.5 30.709 4.291 32.5 6.5 32.5H34.5C36.709 32.5 38.5 30.709 38.5 28.5V12.5C38.5 10.291 36.709 8.5 34.5 8.5ZM27.063 21.563C26.395 22.114 25.303 21.316 24.463 21.443C24.46 21.451 24.458 21.459 24.457 21.467C25.263 21.563 25.935 22.516 26.82 22.578C26.072 23.018 25.112 22.049 24.261 22.05C24.257 22.057 24.255 22.064 24.251 22.071C25.038 22.287 25.553 23.341 26.423 23.543C25.612 23.861 24.812 22.743 23.966 22.617C23.962 22.623 23.959 22.628 23.955 22.634C24.705 22.966 25.049 24.096 25.879 24.433C25.025 24.621 24.408 23.381 23.589 23.13C23.585 23.135 23.581 23.139 23.578 23.143C24.272 23.585 24.435 24.762 25.205 25.226C24.33 25.278 23.913 23.948 23.138 23.576C23.134 23.579 23.13 23.582 23.126 23.586C23.75 24.129 23.724 25.323 24.415 25.904C23.54 25.818 23.337 24.433 22.625 23.946C22.621 23.948 22.618 23.95 22.614 23.953C23.149 24.587 22.935 25.765 23.528 26.449C22.677 26.226 22.693 24.821 22.063 24.231C22.059 24.232 22.056 24.234 22.052 24.236C22.485 24.946 22.089 26.079 22.569 26.849C21.762 26.494 21.998 25.107 21.465 24.426C21.461 24.426 21.458 24.428 21.454 24.428C21.773 25.198 21.204 26.255 21.559 27.093C20.816 26.615 21.267 25.28 20.844 24.523C20.841 24.523 20.834 24.523 20.834 24.523C21.031 25.334 20.303 26.29 20.523 27.174C19.863 26.585 20.518 25.336 20.217 24.523C20.214 24.523 20.207 24.523 20.207 24.523C20.276 25.355 19.408 26.186 19.488 27.093C18.928 26.408 19.768 25.278 19.599 24.428C19.595 24.428 19.592 24.426 19.588 24.425C19.527 25.258 18.54 25.941 18.478 26.849C18.032 26.085 19.036 25.102 19.002 24.236C18.999 24.235 18.996 24.233 18.992 24.232C18.8 25.043 17.721 25.563 17.518 26.45C17.197 25.626 18.339 24.814 18.443 23.955C18.439 23.953 18.437 23.951 18.433 23.949C18.116 24.718 16.971 25.063 16.633 25.905C16.445 25.043 17.693 24.42 17.933 23.591C17.93 23.588 17.927 23.585 17.923 23.582C17.489 24.29 16.307 24.45 15.843 25.228C15.791 24.349 17.115 23.93 17.484 23.152C17.481 23.148 17.478 23.144 17.474 23.141C16.933 23.766 15.746 23.742 15.167 24.435C15.252 23.561 16.616 23.354 17.107 22.649C17.104 22.644 17.102 22.639 17.098 22.635C16.465 23.161 15.301 22.952 14.624 23.545C14.843 22.699 16.213 22.705 16.812 22.093C16.809 22.087 16.807 22.082 16.804 22.076C16.096 22.488 14.985 22.105 14.227 22.581C14.575 21.783 15.917 22 16.606 21.497C16.604 21.49 16.602 21.483 16.6 21.476C15.838 21.765 14.805 21.217 13.984 21.567C14.45 20.836 15.734 21.255 16.494 20.874C16.494 20.866 16.494 20.858 16.492 20.85C15.695 21.008 14.764 20.311 13.902 20.527C14.474 19.881 15.67 20.49 16.48 20.241C16.48 20.232 16.48 20.223 16.48 20.214C15.673 20.239 14.864 19.41 13.983 19.487C14.646 18.941 15.726 19.722 16.563 19.611C16.566 19.601 16.567 19.591 16.57 19.581C15.772 19.472 15.105 18.533 14.225 18.472C14.962 18.038 15.904 18.971 16.745 18.999C16.749 18.989 16.753 18.978 16.757 18.969C15.991 18.731 15.479 17.705 14.624 17.508C15.416 17.196 16.199 18.258 17.022 18.424C17.028 18.414 17.034 18.404 17.04 18.393C16.325 18.034 15.978 16.947 15.167 16.618C15.996 16.436 16.601 17.599 17.386 17.897C17.393 17.887 17.401 17.878 17.409 17.868C16.763 17.398 16.589 16.275 15.841 15.825C16.685 15.775 17.103 17.012 17.828 17.432C17.837 17.424 17.847 17.415 17.856 17.406C17.296 16.839 17.296 15.708 16.63 15.147C17.469 15.23 17.69 16.51 18.336 17.042C18.348 17.035 18.359 17.028 18.371 17.021C17.911 16.372 18.085 15.26 17.516 14.602C18.33 14.815 18.351 16.108 18.902 16.737C18.914 16.731 18.928 16.726 18.94 16.72C18.592 16.007 18.934 14.939 18.475 14.202C19.244 14.54 19.066 15.816 19.509 16.525C19.523 16.521 19.537 16.518 19.551 16.515C19.321 15.756 19.823 14.757 19.485 13.959C20.191 14.413 19.818 15.645 20.144 16.414C20.158 16.414 20.172 16.411 20.188 16.411C20.08 15.626 20.73 14.719 20.521 13.878C21.148 14.438 20.588 15.595 20.789 16.406C20.803 16.406 20.818 16.408 20.833 16.408C20.849 15.616 21.632 14.823 21.557 13.96C22.089 14.611 21.355 15.666 21.428 16.499C21.442 16.502 21.456 16.506 21.471 16.51C21.61 15.73 22.507 15.069 22.567 14.204C22.991 14.932 22.1 15.859 22.044 16.694C22.057 16.7 22.072 16.705 22.085 16.711C22.342 15.961 23.333 15.449 23.526 14.604C23.833 15.391 22.804 16.168 22.621 16.986C22.633 16.993 22.645 17.001 22.657 17.008C23.026 16.305 24.088 15.955 24.412 15.149C24.592 15.977 23.448 16.583 23.145 17.365C23.155 17.374 23.166 17.383 23.176 17.392C23.648 16.752 24.755 16.574 25.202 15.827C25.252 16.675 24.021 17.095 23.602 17.823C23.61 17.833 23.619 17.843 23.627 17.853C24.191 17.291 25.317 17.291 25.876 16.621C25.793 17.469 24.506 17.689 23.982 18.346C23.988 18.356 23.994 18.367 24.001 18.378C24.646 17.906 25.762 18.086 26.42 17.511C26.205 18.338 24.891 18.35 24.273 18.922C24.277 18.933 24.282 18.943 24.286 18.954C24.996 18.584 26.075 18.941 26.816 18.475C26.474 19.261 25.168 19.063 24.47 19.536C24.473 19.547 24.475 19.557 24.477 19.568C25.236 19.308 26.252 19.835 27.059 19.49C26.597 20.215 25.329 19.808 24.567 20.174C24.567 20.184 24.569 20.194 24.569 20.204C25.362 20.059 26.286 20.746 27.141 20.531C26.569 21.177 25.373 20.569 24.564 20.817C24.564 20.827 24.562 20.836 24.561 20.845C25.369 20.82 26.178 21.649 27.059 21.571L27.063 21.563Z" fill="#EA0034"/>
<path d="M27.1453 20.5221C26.2903 20.7371 25.3662 20.0501 24.5732 20.1951C24.5732 20.1851 24.5732 20.1751 24.5712 20.1651C25.3332 19.7991 26.6012 20.2071 27.0632 19.4811C26.2562 19.8261 25.2413 19.2991 24.4813 19.5591C24.4793 19.5491 24.4773 19.5381 24.4743 19.5271C25.1723 19.0541 26.4792 19.2521 26.8202 18.4661C26.0782 18.9321 24.9993 18.5751 24.2903 18.9451C24.2863 18.9341 24.2813 18.9241 24.2773 18.9131C24.8953 18.3411 26.2092 18.3291 26.4242 17.5021C25.7662 18.0771 24.6502 17.8971 24.0052 18.3691C23.9992 18.3581 23.9932 18.3481 23.9862 18.3371C24.5102 17.6801 25.7982 17.4601 25.8802 16.6121C25.3212 17.2821 24.1953 17.2821 23.6313 17.8441C23.6233 17.8341 23.6143 17.8241 23.6063 17.8141C24.0243 17.0861 25.2552 16.6671 25.2062 15.8181C24.7592 16.5651 23.6523 16.7431 23.1803 17.3831C23.1693 17.3741 23.1593 17.3651 23.1493 17.3561C23.4533 16.5741 24.5973 15.9681 24.4163 15.1401C24.0923 15.9461 23.0302 16.2961 22.6612 16.9991C22.6492 16.9911 22.6372 16.9841 22.6252 16.9771C22.8082 16.1591 23.8373 15.3821 23.5303 14.5951C23.3363 15.4401 22.3453 15.9531 22.0893 16.7021C22.0763 16.6971 22.0613 16.6911 22.0483 16.6851C22.1043 15.8501 22.9962 14.9231 22.5712 14.1951C22.5112 15.0601 21.6143 15.7211 21.4753 16.5011C21.4613 16.4971 21.4472 16.4941 21.4322 16.4901C21.3592 15.6571 22.0933 14.6031 21.5613 13.9511C21.6373 14.8141 20.8532 15.6071 20.8372 16.3991C20.8232 16.3991 20.8082 16.3971 20.7932 16.3971C20.5912 15.5861 21.1522 14.4291 20.5252 13.8691C20.7342 14.7101 20.0842 15.6181 20.1922 16.4021C20.1772 16.4021 20.1633 16.4051 20.1483 16.4051C19.8223 15.6361 20.1953 14.4051 19.4893 13.9501C19.8273 14.7481 19.3253 15.7471 19.5553 16.5061C19.5413 16.5101 19.5273 16.5131 19.5133 16.5161C19.0703 15.8081 19.2482 14.5311 18.4792 14.1931C18.9372 14.9291 18.5953 15.9981 18.9443 16.7111C18.9323 16.7161 18.9183 16.7221 18.9062 16.7281C18.3543 16.0991 18.3343 14.8061 17.5203 14.5931C18.0893 15.2501 17.9152 16.3631 18.3752 17.0121C18.3632 17.0191 18.3523 17.0261 18.3403 17.0331C17.6942 16.5011 17.4733 15.2211 16.6343 15.1381C17.3003 15.6991 17.3003 16.8311 17.8603 17.3971C17.8503 17.4061 17.8403 17.4151 17.8323 17.4231C17.1073 17.0021 16.6893 15.7661 15.8453 15.8161C16.5933 16.2671 16.7672 17.3901 17.4132 17.8591C17.4052 17.8681 17.3972 17.8781 17.3902 17.8881C16.6052 17.5901 15.9992 16.4271 15.1712 16.6091C15.9822 16.9381 16.3293 18.0251 17.0443 18.3841C17.0393 18.3941 17.0322 18.4041 17.0262 18.4151C16.2032 18.2491 15.4203 17.1881 14.6283 17.4991C15.4833 17.6971 15.9962 18.7221 16.7612 18.9601C16.7582 18.9701 16.7543 18.9811 16.7493 18.9901C15.9083 18.9611 14.9672 18.0291 14.2292 18.4631C15.1082 18.5241 15.7752 19.4631 16.5742 19.5721C16.5712 19.5821 16.5702 19.5921 16.5672 19.6021C15.7302 19.7131 14.6503 18.9321 13.9873 19.4781C14.8683 19.4001 15.6773 20.2301 16.4843 20.2051C16.4843 20.2151 16.4843 20.2241 16.4843 20.2321C15.6743 20.4821 14.4783 19.8721 13.9062 20.5181C14.7682 20.3021 15.6993 21.0001 16.4963 20.8411C16.4963 20.8491 16.4963 20.8581 16.4983 20.8651C15.7393 21.2461 14.4542 20.8271 13.9882 21.5581C14.8092 21.2081 15.8422 21.7561 16.6042 21.4671C16.6062 21.4741 16.6083 21.4811 16.6103 21.4881C15.9213 21.9911 14.5792 21.7741 14.2312 22.5721C14.9892 22.0951 16.1013 22.4791 16.8083 22.0671C16.8113 22.0731 16.8132 22.0781 16.8162 22.0841C16.2172 22.6971 14.8483 22.6901 14.6283 23.5361C15.3053 22.9431 16.4682 23.1521 17.1022 22.6261C17.1062 22.6301 17.1082 22.6351 17.1112 22.6401C16.6212 23.3451 15.2572 23.5521 15.1712 24.4261C15.7492 23.7331 16.9373 23.7581 17.4783 23.1321C17.4823 23.1351 17.4853 23.1391 17.4883 23.1431C17.1193 23.9221 15.7942 24.3401 15.8472 25.2191C16.3112 24.4411 17.4932 24.2811 17.9272 23.5731C17.9312 23.5761 17.9343 23.5791 17.9373 23.5821C17.6973 24.4121 16.4482 25.0341 16.6372 25.8961C16.9752 25.0541 18.1203 24.7091 18.4373 23.9401C18.4413 23.9421 18.4433 23.9441 18.4473 23.9461C18.3433 24.8051 17.2022 25.6171 17.5222 26.4411C17.7252 25.5541 18.8053 25.0351 18.9963 24.2231C19.0003 24.2241 19.0033 24.2261 19.0063 24.2271C19.0403 25.0931 18.0363 26.0761 18.4823 26.8401C18.5443 25.9321 19.5312 25.2481 19.5922 24.4161C19.5962 24.4161 19.5993 24.4181 19.6033 24.4191C19.7723 25.2691 18.9323 26.3991 19.4923 27.0841C19.4123 26.1771 20.2813 25.3471 20.2113 24.5141C20.2113 24.5141 20.2183 24.5141 20.2213 24.5141C20.5223 25.3271 19.8673 26.5761 20.5273 27.1651C20.3073 26.2821 21.0352 25.3251 20.8382 24.5141C20.8382 24.5141 20.8452 24.5141 20.8482 24.5141C21.2712 25.2701 20.8202 26.6061 21.5632 27.0841C21.2092 26.2471 21.7773 25.1891 21.4583 24.4191C21.4623 24.4191 21.4652 24.4171 21.4692 24.4171C22.0022 25.0981 21.7662 26.4851 22.5732 26.8401C22.0932 26.0701 22.4892 24.9381 22.0562 24.2271C22.0602 24.2261 22.0632 24.2241 22.0672 24.2221C22.6982 24.8121 22.6822 26.2171 23.5322 26.4401C22.9402 25.7561 23.1532 24.5781 22.6182 23.9441C22.6222 23.9421 22.6252 23.9401 22.6292 23.9371C23.3402 24.4231 23.5443 25.8081 24.4193 25.8951C23.7283 25.3141 23.7542 24.1201 23.1302 23.5771C23.1342 23.5741 23.1373 23.5711 23.1423 23.5671C23.9163 23.9391 24.3342 25.2691 25.2092 25.2171C24.4392 24.7531 24.2763 23.5761 23.5823 23.1341C23.5863 23.1301 23.5893 23.1261 23.5933 23.1211C24.4123 23.3721 25.0292 24.6121 25.8832 24.4241C25.0532 24.0881 24.7092 22.9571 23.9592 22.6251C23.9632 22.6191 23.9662 22.6141 23.9702 22.6081C24.8162 22.7341 25.6162 23.8521 26.4272 23.5341C25.5572 23.3331 25.0422 22.2781 24.2552 22.0621C24.2592 22.0551 24.2612 22.0481 24.2652 22.0411C25.1162 22.0411 26.0762 23.0101 26.8242 22.5691C25.9392 22.5071 25.2673 21.5541 24.4613 21.4581C24.4633 21.4501 24.4652 21.4421 24.4672 21.4341C25.3062 21.3071 26.3992 22.1051 27.0672 21.5541C26.1862 21.6321 25.3773 20.8021 24.5693 20.8281C24.5693 20.8191 24.5713 20.8101 24.5723 20.8001C25.3813 20.5511 26.5773 21.1601 27.1493 20.5141L27.1453 20.5221ZM24.1322 20.5221C24.1322 20.6521 24.1252 20.7801 24.1122 20.9071C24.1352 20.9091 24.1603 20.9091 24.1873 20.9071C24.1603 20.9171 24.1342 20.9281 24.1092 20.9391C24.0892 21.1191 24.0553 21.2941 24.0103 21.4651C24.0323 21.4701 24.0563 21.4741 24.0833 21.4771C24.0553 21.4821 24.0272 21.4881 24.0012 21.4961C23.9532 21.6701 23.8932 21.8381 23.8202 22.0011C23.8412 22.0101 23.8642 22.0171 23.8902 22.0241C23.8622 22.0251 23.8332 22.0271 23.8072 22.0301C23.7322 22.1941 23.6462 22.3501 23.5492 22.5001C23.5692 22.5121 23.5912 22.5241 23.6162 22.5341C23.5882 22.5311 23.5592 22.5281 23.5322 22.5271C23.4332 22.6761 23.3243 22.8181 23.2043 22.9501C23.2223 22.9651 23.2422 22.9801 23.2642 22.9941C23.2362 22.9861 23.2082 22.9791 23.1812 22.9741C23.0612 23.1051 22.9312 23.2281 22.7922 23.3401C22.8072 23.3581 22.8252 23.3761 22.8452 23.3931C22.8182 23.3811 22.7923 23.3691 22.7673 23.3601C22.6283 23.4711 22.4803 23.5721 22.3263 23.6611C22.3383 23.6811 22.3533 23.7011 22.3703 23.7221C22.3463 23.7061 22.3223 23.6911 22.2983 23.6771C22.1433 23.7651 21.9833 23.8411 21.8153 23.9061C21.8243 23.9271 21.8353 23.9501 21.8493 23.9721C21.8283 23.9521 21.8062 23.9341 21.7852 23.9171C21.6202 23.9791 21.4483 24.0291 21.2733 24.0661C21.2783 24.0881 21.2852 24.1121 21.2952 24.1371C21.2772 24.1141 21.2592 24.0921 21.2412 24.0721C21.0692 24.1071 20.8922 24.1291 20.7122 24.1391C20.7142 24.1621 20.7172 24.1871 20.7232 24.2131C20.7092 24.1871 20.6953 24.1621 20.6793 24.1401C20.6293 24.1421 20.5792 24.1431 20.5292 24.1431C20.3992 24.1431 20.2712 24.1361 20.1462 24.1231C20.1442 24.1461 20.1432 24.1711 20.1462 24.1981C20.1362 24.1701 20.1263 24.1441 20.1143 24.1191C19.9353 24.0981 19.7603 24.0651 19.5903 24.0191C19.5853 24.0421 19.5802 24.0661 19.5782 24.0921C19.5732 24.0641 19.5662 24.0361 19.5592 24.0101C19.3862 23.9621 19.2182 23.9011 19.0562 23.8281C19.0482 23.8491 19.0403 23.8731 19.0333 23.8991C19.0333 23.8701 19.0303 23.8411 19.0273 23.8151C18.8643 23.7401 18.7082 23.6531 18.5602 23.5561C18.5482 23.5761 18.5372 23.5981 18.5252 23.6221C18.5292 23.5931 18.5312 23.5641 18.5322 23.5381C18.3842 23.4381 18.2432 23.3281 18.1112 23.2091C18.0962 23.2271 18.0812 23.2471 18.0672 23.2701C18.0752 23.2411 18.0822 23.2141 18.0872 23.1871C17.9562 23.0661 17.8342 22.9351 17.7222 22.7961C17.7042 22.8111 17.6863 22.8281 17.6693 22.8481C17.6813 22.8221 17.6932 22.7961 17.7022 22.7701C17.5922 22.6301 17.4922 22.4831 17.4032 22.3271C17.3832 22.3391 17.3633 22.3531 17.3433 22.3701C17.3593 22.3461 17.3742 22.3221 17.3872 22.2981C17.3002 22.1431 17.2242 21.9811 17.1602 21.8131C17.1392 21.8221 17.1173 21.8331 17.0933 21.8461C17.1133 21.8251 17.1313 21.8041 17.1483 21.7831C17.0873 21.6171 17.0372 21.4451 17.0002 21.2681C16.9782 21.2731 16.9543 21.2811 16.9293 21.2901C16.9523 21.2721 16.9742 21.2541 16.9942 21.2361C16.9592 21.0631 16.9372 20.8851 16.9272 20.7041C16.9042 20.7061 16.8803 20.7091 16.8533 20.7161C16.8793 20.7021 16.9043 20.6871 16.9263 20.6711C16.9243 20.6211 16.9223 20.5711 16.9223 20.5201C16.9223 20.3901 16.9292 20.2621 16.9422 20.1351C16.9192 20.1331 16.8943 20.1331 16.8673 20.1351C16.8943 20.1251 16.9212 20.1141 16.9452 20.1031C16.9652 19.9231 16.9992 19.7481 17.0452 19.5771C17.0222 19.5721 16.9983 19.5681 16.9713 19.5651C16.9993 19.5601 17.0272 19.5541 17.0532 19.5461C17.1012 19.3721 17.1622 19.2041 17.2342 19.0411C17.2132 19.0321 17.1902 19.0241 17.1642 19.0181C17.1932 19.0171 17.2212 19.0151 17.2472 19.0121C17.3222 18.8481 17.4092 18.6921 17.5052 18.5421C17.4862 18.5301 17.4632 18.5181 17.4382 18.5081C17.4672 18.5111 17.4962 18.5141 17.5222 18.5151C17.6212 18.3661 17.7313 18.2241 17.8503 18.0921C17.8323 18.0771 17.8133 18.0621 17.7903 18.0481C17.8183 18.0561 17.8462 18.0631 17.8732 18.0681C17.9942 17.9361 18.1232 17.8141 18.2622 17.7021C18.2472 17.6841 18.2292 17.6661 18.2102 17.6491C18.2372 17.6611 18.2622 17.6721 18.2882 17.6821C18.4272 17.5711 18.5742 17.4701 18.7292 17.3801C18.7172 17.3601 18.7033 17.3401 18.6863 17.3191C18.7103 17.3361 18.7342 17.3511 18.7572 17.3631C18.9112 17.2761 19.0732 17.1991 19.2402 17.1351C19.2312 17.1141 19.2203 17.0921 19.2073 17.0681C19.2273 17.0881 19.2493 17.1071 19.2703 17.1231C19.4353 17.0611 19.6073 17.0111 19.7833 16.9741C19.7773 16.9511 19.7703 16.9281 19.7603 16.9031C19.7783 16.9261 19.7962 16.9481 19.8142 16.9671C19.9862 16.9321 20.1642 16.9101 20.3442 16.9011C20.3422 16.8781 20.3393 16.8531 20.3323 16.8271C20.3463 16.8521 20.3612 16.8771 20.3762 16.9001C20.4262 16.8981 20.4762 16.8971 20.5262 16.8971C20.6552 16.8971 20.7833 16.9041 20.9093 16.9171C20.9113 16.8941 20.9113 16.8691 20.9093 16.8421C20.9203 16.8701 20.9292 16.8961 20.9412 16.9211C21.1202 16.9421 21.2953 16.9751 21.4653 17.0211C21.4703 16.9991 21.4752 16.9741 21.4772 16.9471C21.4822 16.9761 21.4892 17.0031 21.4972 17.0301C21.6692 17.0781 21.8373 17.1391 21.9993 17.2121C22.0083 17.1911 22.0162 17.1671 22.0222 17.1411C22.0222 17.1701 22.0252 17.1991 22.0282 17.2251C22.1912 17.3001 22.3473 17.3861 22.4953 17.4841C22.5073 17.4641 22.5193 17.4421 22.5303 17.4171C22.5263 17.4461 22.5243 17.4741 22.5233 17.5011C22.6713 17.6001 22.8133 17.7101 22.9443 17.8301C22.9593 17.8121 22.9743 17.7921 22.9883 17.7691C22.9803 17.7971 22.9733 17.8251 22.9683 17.8521C23.0993 17.9731 23.2213 18.1041 23.3333 18.2431C23.3513 18.2281 23.3692 18.2101 23.3862 18.1901C23.3732 18.2171 23.3633 18.2431 23.3533 18.2691C23.4633 18.4091 23.5632 18.5571 23.6532 18.7121C23.6732 18.7001 23.6932 18.6851 23.7132 18.6681C23.6962 18.6921 23.6813 18.7161 23.6693 18.7401C23.7563 18.8951 23.8322 19.0571 23.8962 19.2251C23.9172 19.2161 23.9402 19.2051 23.9632 19.1911C23.9432 19.2121 23.9253 19.2341 23.9083 19.2551C23.9703 19.4211 24.0202 19.5941 24.0562 19.7701C24.0792 19.7651 24.1023 19.7571 24.1273 19.7481C24.1043 19.7661 24.0832 19.7841 24.0632 19.8021C24.0982 19.9751 24.1202 20.1531 24.1292 20.3341C24.1522 20.3321 24.1772 20.3291 24.2032 20.3231C24.1772 20.3371 24.1532 20.3521 24.1302 20.3671C24.1332 20.4171 24.1343 20.4671 24.1343 20.5181L24.1322 20.5221Z" fill="#F5EC00"/>
<path d="M20.1748 18.4391C19.6718 18.2281 19.1268 18.1031 18.5548 18.0801C18.5098 18.1221 18.4658 18.1641 18.4238 18.2081C18.9678 18.2331 19.4878 18.3541 19.9668 18.5551C20.0348 18.5141 20.1048 18.4751 20.1758 18.4391H20.1748Z" fill="#F5EC00"/>
<path d="M22.2528 17.8815C21.7678 17.5245 21.1708 17.3125 20.5258 17.3125C19.8808 17.3125 19.2838 17.5245 18.7988 17.8815C19.4098 17.9065 19.9918 18.0425 20.5258 18.2725C21.0598 18.0425 21.6418 17.9065 22.2528 17.8815Z" fill="#F5EC00"/>
<path d="M19.6871 18.7355C19.2421 18.5465 18.7621 18.4285 18.2581 18.3965C18.2261 18.4355 18.1941 18.4755 18.1641 18.5165C18.6421 18.5555 19.0971 18.6725 19.5181 18.8565C19.5731 18.8145 19.6291 18.7745 19.6871 18.7355Z" fill="#F5EC00"/>
<path d="M20.7637 19.681C21.5907 20.464 22.1157 21.572 22.1407 22.806C22.2317 22.745 22.3197 22.679 22.4037 22.609C22.3277 21.392 21.7777 20.305 20.9367 19.54C20.8777 19.586 20.8207 19.634 20.7647 19.682L20.7637 19.681Z" fill="#F5EC00"/>
<path d="M21.084 18.5561C21.564 18.3551 22.083 18.2341 22.628 18.2091C22.585 18.1651 22.541 18.1221 22.496 18.0811C21.924 18.1041 21.379 18.2291 20.877 18.4401C20.947 18.4771 21.015 18.5161 21.084 18.5561Z" fill="#F5EC00"/>
<path d="M21.2188 19.3369C22.0468 20.0599 22.6197 21.0759 22.7817 22.2259C22.8647 22.1259 22.9417 22.0179 23.0107 21.9069C22.7907 20.8339 22.2197 19.8919 21.4247 19.2109C21.3547 19.2509 21.2858 19.2939 21.2188 19.3369Z" fill="#F5EC00"/>
<path d="M19.2901 19.0384C18.9031 18.8614 18.4841 18.7424 18.0451 18.6934C17.7521 19.1584 17.5801 19.7114 17.5801 20.3054C17.5801 20.6634 17.6421 21.0054 17.7561 21.3244C18.0491 20.4224 18.5861 19.6334 19.2901 19.0384Z" fill="#F5EC00"/>
<path d="M21.5313 18.8565C21.9523 18.6735 22.4083 18.5555 22.8853 18.5165C22.8553 18.4755 22.8243 18.4355 22.7923 18.3965C22.2873 18.4285 21.8073 18.5465 21.3633 18.7355C21.4203 18.7745 21.4763 18.8155 21.5313 18.8565Z" fill="#F5EC00"/>
<path d="M19.3047 22.8973C19.3047 22.9413 19.3047 22.9853 19.3067 23.0283C19.6777 23.2003 20.0897 23.2963 20.5257 23.2963C20.9617 23.2963 21.3717 23.2003 21.7437 23.0283C21.7437 22.9853 21.7457 22.9413 21.7457 22.8973C21.7457 21.7293 21.2797 20.6713 20.5267 19.9053C19.7727 20.6713 19.3067 21.7283 19.3067 22.8973H19.3047Z" fill="#F5EC00"/>
<path d="M20.5245 18.6035C20.4535 18.6405 20.3835 18.6785 20.3145 18.7195C20.3855 18.7565 20.4545 18.7955 20.5245 18.8355C20.5925 18.7945 20.6635 18.7555 20.7345 18.7195C20.6655 18.6785 20.5955 18.6405 20.5245 18.6035Z" fill="#F5EC00"/>
<path d="M21.7617 19.0384C22.4647 19.6324 23.0027 20.4224 23.2957 21.3244C23.4087 21.0064 23.4707 20.6634 23.4707 20.3054C23.4707 19.7114 23.3007 19.1584 23.0067 18.6934C22.5677 18.7434 22.1487 18.8614 21.7627 19.0384H21.7617Z" fill="#F5EC00"/>
<path d="M20.1135 19.5391C19.2735 20.3051 18.7215 21.3911 18.6465 22.6081C18.7295 22.6791 18.8175 22.7441 18.9095 22.8051C18.9345 21.5721 19.4595 20.4641 20.2875 19.6801C20.2305 19.6311 20.1725 19.5841 20.1145 19.5381L20.1135 19.5391Z" fill="#F5EC00"/>
<path d="M20.3516 19.3361C20.4116 19.3801 20.4686 19.4241 20.5256 19.4711C20.5826 19.4251 20.6406 19.3801 20.6986 19.3361C20.6416 19.2911 20.5836 19.2481 20.5256 19.2061C20.4656 19.2481 20.4086 19.2921 20.3516 19.3361Z" fill="#F5EC00"/>
<path d="M19.6261 19.2109C18.8311 19.8919 18.2591 20.8339 18.0391 21.9069C18.1091 22.0179 18.1861 22.1249 18.2681 22.2259C18.4301 21.0749 19.0031 20.0589 19.8311 19.3359C19.7631 19.2919 19.6951 19.2499 19.6261 19.2109Z" fill="#F5EC00"/>
<path d="M20.8105 19.0184C20.8695 19.0594 20.9265 19.1014 20.9825 19.1434C21.0505 19.1014 21.1205 19.0614 21.1905 19.0234C21.1345 18.9814 21.0775 18.9394 21.0195 18.8994C20.9495 18.9364 20.8795 18.9764 20.8105 19.0184Z" fill="#F5EC00"/>
<path d="M19.8594 19.0234C19.9294 19.0614 19.9984 19.1024 20.0674 19.1434C20.1244 19.1004 20.1814 19.0584 20.2394 19.0184C20.1714 18.9764 20.1014 18.9374 20.0304 18.8994C19.9724 18.9394 19.9154 18.9804 19.8594 19.0234Z" fill="#F5EC00"/>
</svg>
