<svg width="41" height="41" viewBox="0 0 41 41" fill="none" xmlns="http://www.w3.org/2000/svg">
<path d="M34.5 8.5H6.5C4.291 8.5 2.5 10.291 2.5 12.5V14.492H38.5V12.5C38.5 10.291 36.709 8.5 34.5 8.5Z" fill="#30298A"/>
<path d="M2.5 28.5002C2.5 30.7092 4.291 32.5002 6.5 32.5002H34.5C36.709 32.5002 38.5 30.7092 38.5 28.5002V26.4922H2.5V28.5002Z" fill="#30298A"/>
<path d="M2.5 26.4922H38.5V14.4922H2.5V26.4922ZM24.528 25.9782H21.33V22.5082H24.528V25.9782ZM27.613 22.9762V23.4972H28.054V24.2982H28.536V25.0992H28.977L28.937 25.9802H26.219V22.5102H26.977L27.024 22.5772H27.413V22.9782H27.614L27.613 22.9762ZM13.907 19.2882L14.107 19.4682V19.0472H14.268V19.2482H14.589V18.6062L14.969 18.9472L14.849 18.5162L15.069 17.5252H15.189C15.189 17.5252 15.288 17.1042 15.489 17.1042C15.489 17.1042 15.409 16.8452 15.569 16.8452C15.73 16.8452 15.69 17.0452 15.69 17.0452C15.69 17.0452 15.97 17.1662 15.97 17.4652L16.131 17.4452L16.372 18.6062L16.202 18.9472L16.593 18.6062V19.4882H18.72V18.6872L18.841 18.8072V19.0882H19.121V18.8072L18.92 18.6272V18.2472L19.081 18.4172L19.321 18.0862V17.8052L19.461 17.9442L19.5 17.7042L19.299 17.3842L19.33 17.1242L19.56 17.4042V17.1642L19.46 16.9442L19.92 15.7812L20.031 15.4592L20.201 15.4392V15.2782C20.201 15.2782 20.321 14.9982 20.481 14.9982C20.641 14.9982 20.762 15.2782 20.762 15.2782V15.4392L20.932 15.4592L21.042 15.7812L21.503 16.9442L21.403 17.1642V17.4042L21.632 17.1242L21.662 17.3842L21.461 17.7042L21.502 17.9442L21.642 17.8052V18.0862L21.883 18.4172L22.045 18.2472V18.6272L21.844 18.8072V19.0882H22.124V18.8072L22.245 18.6872V19.4882H24.368V18.6062L24.759 18.9472L24.589 18.6062L24.83 17.4452L24.99 17.4652C24.99 17.1662 25.27 17.0452 25.27 17.0452C25.27 17.0452 25.23 16.8452 25.391 16.8452C25.552 16.8452 25.472 17.1042 25.472 17.1042C25.673 17.1042 25.771 17.5252 25.771 17.5252H25.892L26.113 18.5162L25.992 18.9472L26.373 18.6062V19.2492H26.692V19.0482H26.853V19.4692L27.054 19.2892V20.6112L26.813 20.8522V22.1732H26.219V20.6312H25.919V25.9782H24.909V20.6312H24.53V22.1732H21.332V20.6312H21.022V25.9782H20.04V20.6312H19.726V22.1732H16.446V20.6232H16.153V25.9722H16.446V22.5102H19.726V25.9802H15.135V20.6332H14.831V22.1752H14.148V20.8532L13.908 20.6122V19.2902L13.907 19.2882ZM12.063 25.0982H12.505V24.2962H12.945V23.4962H13.347V22.9752H13.626V22.5742H13.935L13.981 22.5082H14.83V25.9782H12.023L12.063 25.0982Z" fill="#CC001C"/>
<path d="M14.1473 22.1731H14.8302V20.6311H15.1342V25.9781H19.7253V22.5081H16.4452V25.9701H16.1523V20.6211H16.4452V22.1711H19.7253V20.6291H20.0392V25.9761H21.0212V20.6291H21.3312V22.1711H24.5292V20.6291H24.9083V25.9761H25.9182V20.6291H26.2183V22.1711H26.8123V20.8501L27.0532 20.6091V19.2871L26.8522 19.4671V19.0461H26.6912V19.2471H26.3722V18.6041L25.9912 18.9451L26.1122 18.5141L25.8913 17.5231H25.7703C25.7703 17.5231 25.6713 17.1021 25.4713 17.1021C25.4713 17.1021 25.5512 16.8431 25.3902 16.8431C25.2292 16.8431 25.2692 17.0431 25.2692 17.0431C25.2692 17.0431 24.9893 17.1641 24.9893 17.4631L24.8293 17.4431L24.5882 18.6041L24.7582 18.9451L24.3673 18.6041V19.4861H22.2442V18.6851L22.1232 18.8051V19.0861H21.8433V18.8051L22.0443 18.6251V18.2451L21.8822 18.4151L21.6413 18.0841V17.8031L21.5012 17.9421L21.4602 17.7021L21.6612 17.3821L21.6313 17.1221L21.4023 17.4021V17.1621L21.5023 16.9421L21.0413 15.7791L20.9312 15.4571L20.7612 15.4371V15.2761C20.7612 15.2761 20.6402 14.9961 20.4802 14.9961C20.3202 14.9961 20.2003 15.2761 20.2003 15.2761V15.4371L20.0303 15.4571L19.9193 15.7791L19.4592 16.9421L19.5592 17.1621V17.4021L19.3293 17.1221L19.2983 17.3821L19.4993 17.7021L19.4602 17.9421L19.3202 17.8031V18.0841L19.0802 18.4151L18.9193 18.2451V18.6251L19.1203 18.8051V19.0861H18.8403V18.8051L18.7192 18.6851V19.4861H16.5922V18.6041L16.2013 18.9451L16.3713 18.6041L16.1302 17.4431L15.9692 17.4631C15.9692 17.1641 15.6892 17.0431 15.6892 17.0431C15.6892 17.0431 15.7292 16.8431 15.5682 16.8431C15.4082 16.8431 15.4882 17.1021 15.4882 17.1021C15.2872 17.1021 15.1882 17.5231 15.1882 17.5231H15.0682L14.8482 18.5141L14.9683 18.9451L14.5883 18.6041V19.2461H14.2673V19.0451H14.1062V19.4661L13.9062 19.2861V20.6081L14.1462 20.8491V22.1711L14.1473 22.1731Z" fill="white"/>
<path d="M24.5281 22.5088H21.3301V25.9788H24.5281V22.5088Z" fill="white"/>
<path d="M27.0218 22.5748L26.9758 22.5088H26.2168V25.9788H28.9348L28.9748 25.0978H28.5348V24.2968H28.0528V23.4968H27.6118V22.9758H27.4108V22.5748H27.0218Z" fill="white"/>
<path d="M14.8304 22.5088H13.9804L13.9344 22.5748H13.6254V22.9748H13.3464V23.4958H12.9444V24.2958H12.5044V25.0978H12.0634L12.0234 25.9788H14.8304V22.5088Z" fill="white"/>
</svg>
