<svg width="41" height="41" viewBox="0 0 41 41" fill="none" xmlns="http://www.w3.org/2000/svg">
<path d="M34.5 8.5H6.5C4.29086 8.5 2.5 10.2909 2.5 12.5V28.5C2.5 30.7091 4.29086 32.5 6.5 32.5H34.5C36.7091 32.5 38.5 30.7091 38.5 28.5V12.5C38.5 10.2909 36.7091 8.5 34.5 8.5Z" fill="#CF002E"/>
<path d="M23.8301 21.6172C24.4211 21.7782 25.3141 21.7382 25.7151 22.2142C25.1251 22.0532 24.3971 23.0232 23.8301 22.8112C24.3311 23.1672 16.5481 22.8112 17.1721 22.8112C16.5811 22.6502 15.6881 22.6902 15.2871 22.2142C15.8771 22.3742 16.6051 21.4042 17.1721 21.6172C16.6711 21.2612 15.8031 20.9842 15.6011 20.4002C16.1021 20.7562 17.1201 20.0952 17.5731 20.4952C17.2231 19.9852 16.4901 19.4272 16.5071 18.8042C16.8571 19.3142 18.0371 19.0412 18.3281 19.5792C18.1701 18.9792 17.6931 18.2042 17.8941 17.6202C18.0531 18.2202 19.2411 18.3702 19.3451 18.9822C19.3981 18.3622 19.1841 17.4662 19.5961 16.9902C19.5431 17.6102 20.6161 18.1632 20.5021 18.7752C20.7601 18.2112 20.9031 17.3012 21.4071 16.9902C21.1491 17.5542 21.9911 18.4442 21.6581 18.9822C22.0911 18.5422 22.5071 17.7282 23.1091 17.6202C22.6771 18.0602 23.1381 19.1802 22.6751 19.5792C23.2291 19.3162 23.8831 18.6962 24.4961 18.8042C23.9421 19.0672 23.9971 20.2822 23.4301 20.4952C24.0391 20.4402 24.8571 20.0892 25.4021 20.4002C24.7931 20.4542 24.4551 21.6172 23.8301 21.6172Z" fill="#F9CF00"/>
<path d="M22.1878 23.0101C20.9798 23.0101 17.6948 22.9151 17.1728 22.8491V22.8511L17.1688 22.8481C17.1668 22.8481 17.1648 22.8481 17.1628 22.8481V22.8511C17.1538 22.8491 17.1448 22.8461 17.1368 22.8441C17.1208 22.8411 17.1108 22.8391 17.1058 22.8361C16.9478 22.7971 16.7708 22.7711 16.5848 22.7431C16.0758 22.6671 15.5488 22.5881 15.2568 22.2411L15.1738 22.1421L15.2978 22.1751C15.5568 22.2461 15.8908 22.0581 16.2008 21.8721C16.4648 21.7141 16.7378 21.5491 16.9908 21.5461C16.8828 21.4801 16.7638 21.4161 16.6408 21.3481C16.1838 21.0981 15.7108 20.8401 15.5638 20.4131L15.5228 20.2951L15.6238 20.3671C15.8238 20.5091 16.2058 20.4661 16.5768 20.3951C16.8848 20.3371 17.2108 20.2881 17.4238 20.3631C17.3438 20.2641 17.2538 20.1621 17.1598 20.0561C16.8128 19.6631 16.4538 19.2581 16.4658 18.8041L16.4688 18.6821L16.5378 18.7821C16.6998 19.0181 17.0668 19.0791 17.4218 19.1381C17.7248 19.1891 18.0368 19.2401 18.2318 19.4041C18.1918 19.2841 18.1428 19.1591 18.0928 19.0301C17.9038 18.5411 17.7078 18.0351 17.8548 17.6081L17.8978 17.4851L17.9308 17.6111C18.0038 17.8891 18.3268 18.0731 18.6378 18.2511C18.9058 18.4051 19.1818 18.5631 19.3128 18.7871C19.3148 18.6591 19.3098 18.5211 19.3038 18.3791C19.2848 17.8541 19.2638 17.3121 19.5648 16.9641L19.6448 16.8721L19.6338 16.9941C19.6098 17.2801 19.8508 17.5641 20.0838 17.8401C20.2858 18.0781 20.4928 18.3231 20.5398 18.5801C20.5858 18.4621 20.6288 18.3341 20.6718 18.2041C20.8408 17.7031 21.0158 17.1841 21.3848 16.9571L21.4968 16.8881L21.4418 17.0081C21.3238 17.2651 21.4558 17.6121 21.5828 17.9471C21.6948 18.2421 21.8098 18.5441 21.7648 18.8041C21.8448 18.7101 21.9248 18.6061 22.0088 18.4991C22.3298 18.0861 22.6618 17.6601 23.1008 17.5811L23.2248 17.5591L23.1358 17.6491C22.9348 17.8531 22.9388 18.2311 22.9418 18.5951C22.9448 18.9081 22.9478 19.2301 22.8228 19.4561C22.9338 19.3941 23.0478 19.3211 23.1668 19.2461C23.6018 18.9721 24.0578 18.6831 24.5018 18.7641L24.6268 18.7861L24.5118 18.8411C24.2538 18.9631 24.1298 19.3201 24.0098 19.6641C23.9068 19.9591 23.8018 20.2611 23.6098 20.4311C23.7338 20.4111 23.8648 20.3831 24.0008 20.3541C24.5188 20.2451 25.0768 20.1701 25.4208 20.3651L25.5328 20.4291L25.4048 20.4401C25.1238 20.4651 24.8928 20.7531 24.6698 21.0321C24.4738 21.2771 24.2718 21.5291 24.0268 21.6201C24.1488 21.6441 24.2808 21.6641 24.4158 21.6841C24.9258 21.7601 25.4528 21.8391 25.7458 22.1871L25.8288 22.2861L25.7048 22.2521C25.4438 22.1811 25.1118 22.3691 24.8008 22.5551C24.4918 22.7411 24.1638 22.9291 23.8868 22.8681C23.8648 22.9221 23.7478 23.0081 22.1878 23.0081V23.0101ZM17.1818 22.7781C17.5308 22.8061 20.2708 22.9301 22.1878 22.9301C23.5748 22.9301 23.7898 22.8611 23.8178 22.8311L23.8448 22.7731C24.1008 22.8681 24.4418 22.6791 24.7618 22.4861C25.0428 22.3171 25.3378 22.1471 25.6038 22.1561C25.3178 21.9011 24.8548 21.8321 24.4048 21.7641C24.1948 21.7331 23.9968 21.7031 23.8208 21.6551L23.8308 21.5761C24.1318 21.5761 24.3738 21.2731 24.6088 20.9801C24.8118 20.7271 25.0198 20.4671 25.2768 20.3831C24.9588 20.2581 24.4678 20.3361 24.0178 20.4321C23.8108 20.4761 23.6148 20.5171 23.4338 20.5331L23.4168 20.4551C23.6878 20.3531 23.8088 20.0041 23.9378 19.6351C24.0468 19.3221 24.1598 18.9981 24.3758 18.8301C23.9878 18.8391 23.5948 19.0711 23.2098 19.3131C23.0288 19.4271 22.8578 19.5351 22.6928 19.6141L22.6498 19.5461C22.8708 19.3551 22.8678 18.9851 22.8638 18.5931C22.8608 18.2611 22.8578 17.9201 23.0048 17.6861C22.6468 17.8071 22.3558 18.1821 22.0728 18.5461C21.9398 18.7161 21.8158 18.8771 21.6858 19.0081L21.6248 18.9581C21.7868 18.6971 21.6528 18.3451 21.5108 17.9721C21.3958 17.6691 21.2768 17.3571 21.3318 17.0921C21.0498 17.3331 20.8968 17.7861 20.7488 18.2261C20.6808 18.4281 20.6148 18.6241 20.5388 18.7891L20.4638 18.7641C20.5188 18.4701 20.2798 18.1871 20.0258 17.8881C19.8128 17.6361 19.5928 17.3771 19.5598 17.1031C19.3508 17.4291 19.3688 17.9071 19.3858 18.3711C19.3938 18.5901 19.4018 18.7961 19.3858 18.9821L19.3068 18.9851C19.2568 18.6911 18.9388 18.5091 18.6008 18.3161C18.3188 18.1551 18.0278 17.9881 17.9018 17.7441C17.8318 18.1201 18.0028 18.5641 18.1698 18.9951C18.2478 19.1961 18.3208 19.3861 18.3678 19.5651L18.2948 19.5951C18.1558 19.3381 17.7938 19.2771 17.4118 19.2131C17.0868 19.1591 16.7528 19.1031 16.5538 18.9141C16.5998 19.2941 16.9158 19.6511 17.2228 19.9981C17.3668 20.1611 17.5028 20.3151 17.6078 20.4681L17.5498 20.5221C17.3638 20.3581 16.9818 20.3981 16.5948 20.4711C16.2628 20.5341 15.9088 20.5831 15.6868 20.4881C15.8618 20.8261 16.2778 21.0531 16.6808 21.2731C16.8688 21.3761 17.0478 21.4731 17.1968 21.5801L17.1598 21.6511C16.9048 21.5561 16.5638 21.7451 16.2428 21.9381C15.9618 22.1071 15.6758 22.2831 15.4008 22.2681C15.6868 22.5231 16.1498 22.5921 16.5978 22.6591C16.8088 22.6901 17.0078 22.7201 17.1838 22.7681V22.7731L17.1818 22.7781Z" fill="#B69A00"/>
<path d="M17.6935 22.2152L15.5645 21.3292L17.8625 21.2382L16.1595 19.6652L18.3505 20.3792L17.2785 18.3092L19.0975 19.7422L18.7865 17.4232L20.0135 19.4032L20.5005 17.1162L20.9875 19.4032L22.2145 17.4232L21.9035 19.7422L23.7215 18.3092L22.6505 20.3792L24.8405 19.6652L23.1375 21.2382L25.4365 21.3292L23.3065 22.2152L25.4365 23.1002H15.5645L17.6935 22.2152Z" fill="#F9CF00"/>
<path d="M25.4378 23.1395H15.5658L15.5508 23.0625L17.5898 22.2145L15.5508 21.3655L15.5648 21.2885L17.7658 21.2015L16.1348 19.6945L16.1738 19.6265L18.2718 20.3095L17.2448 18.3265L17.3038 18.2755L19.0458 19.6475L18.7478 17.4265L18.8208 17.3995L19.9958 19.2955L20.4628 17.1055H20.5398L21.0068 19.2955L22.1818 17.3995L22.2548 17.4265L21.9568 19.6475L23.6978 18.2755L23.7568 18.3265L22.7298 20.3095L24.8278 19.6265L24.8668 19.6945L23.2358 21.2015L25.4368 21.2885L25.4508 21.3655L23.4108 22.2145L25.4508 23.0625L25.4358 23.1395H25.4378ZM15.7678 23.0595H25.2358L23.2038 22.2145L25.2538 21.3615L23.0408 21.2745L24.6808 19.7605L22.5718 20.4475L23.6038 18.4545L21.8538 19.8335L22.1528 17.6015L20.9718 19.5075L20.5028 17.3065L20.0338 19.5075L18.8528 17.6015L19.1518 19.8335L17.4008 18.4545L18.4328 20.4475L16.3238 19.7605L17.9638 21.2745L15.7518 21.3615L17.8018 22.2145L15.7698 23.0595H15.7678Z" fill="#B69A00"/>
<path d="M23.2889 22.2149C23.2889 23.7809 22.0409 25.0509 20.5009 25.0509C18.9609 25.0509 17.7129 23.7809 17.7129 22.2149C17.7129 20.6489 18.9609 19.3789 20.5009 19.3789C22.0409 19.3789 23.2889 20.6489 23.2889 22.2149Z" fill="#F9CF00"/>
<path d="M20.4999 25.0909C18.9409 25.0909 17.6719 23.8009 17.6719 22.2149C17.6719 20.6289 18.9399 19.3389 20.4999 19.3389C22.0599 19.3389 23.3269 20.6289 23.3269 22.2149C23.3269 23.8009 22.0589 25.0909 20.4999 25.0909ZM20.4999 19.4189C18.9839 19.4189 17.7519 20.6729 17.7519 22.2149C17.7519 23.7569 18.9849 25.0109 20.4999 25.0109C22.0149 25.0109 23.2479 23.7569 23.2479 22.2149C23.2479 20.6729 22.0149 19.4189 20.4999 19.4189Z" fill="#B69A00"/>
<path d="M21.417 15.3482L22.912 15.3582C22.922 15.2942 22.783 15.1662 22.666 15.1472C22.288 15.0872 22.004 15.2112 21.544 15.2162L21.417 15.3482Z" fill="#F9CF00"/>
<path d="M22.9472 15.398L21.3242 15.387L21.5172 15.187C21.7362 15.173 21.8952 15.15 22.0482 15.129C22.2592 15.098 22.4492 15.071 22.6732 15.107C22.7982 15.127 22.9662 15.265 22.9522 15.363L22.9472 15.398ZM21.5032 15.308L22.8592 15.317C22.8262 15.27 22.7432 15.2 22.6612 15.186C22.4452 15.152 22.2632 15.178 22.0592 15.208C21.9032 15.23 21.7422 15.253 21.5462 15.255L21.5032 15.308Z" fill="#B69A00"/>
<path d="M18.4404 14.9895C18.7914 15.4405 19.4724 15.7545 20.1224 15.7585C20.9984 15.7645 21.9704 15.0425 23.1454 14.8215L19.3094 14.7415C18.8124 14.3955 18.4364 14.4395 18.1794 14.6545L17.4454 14.6775C17.3424 14.7345 17.5314 14.9745 17.6844 14.9835L18.4404 14.9905V14.9895Z" fill="#F9CF00"/>
<path d="M20.1328 15.799H20.1218C19.4588 15.795 18.7708 15.48 18.4088 15.015L17.6838 15.023C17.5508 15.016 17.4038 14.87 17.3788 14.761C17.3668 14.708 17.3838 14.664 17.4258 14.641L18.1768 14.613C18.4328 14.375 18.8758 14.391 19.3308 14.707L23.1458 14.78L23.1518 14.86C22.6158 14.961 22.1288 15.164 21.6578 15.361C21.1198 15.586 20.6108 15.799 20.1328 15.799ZM18.6318 14.527C18.4728 14.527 18.3288 14.58 18.2038 14.685L17.4458 14.716C17.4738 14.82 17.5958 14.937 17.6858 14.942L18.4398 14.949C18.8178 15.411 19.4818 15.714 20.1218 15.718L20.1318 15.758V15.718C20.5948 15.718 21.0958 15.508 21.6268 15.287C22.0068 15.129 22.3968 14.966 22.8158 14.854L19.3068 14.781C19.0498 14.61 18.8298 14.527 18.6308 14.527H18.6318Z" fill="#B69A00"/>
<path d="M20.1743 14.7312C20.0343 14.0782 19.5203 13.7972 18.9013 13.7142C18.1863 13.6172 16.5403 13.5192 15.4473 13.1992C15.9203 13.6722 16.9103 13.9092 17.5983 14.0152C18.3273 14.1292 19.0363 14.2932 19.5983 14.7252L20.1743 14.7312Z" fill="#F9CF00"/>
<path d="M20.2239 14.7722L19.5989 14.7652C19.0109 14.3232 18.2889 14.1632 17.5929 14.0552C16.9979 13.9632 15.9249 13.7332 15.4199 13.2272L15.4589 13.1602C16.2739 13.3982 17.3949 13.5132 18.2129 13.5972C18.4869 13.6252 18.7259 13.6502 18.9069 13.6742C19.6469 13.7742 20.0859 14.1272 20.2139 14.7232L20.2249 14.7732L20.2239 14.7722ZM15.6049 13.2842C16.1329 13.6962 17.0669 13.8932 17.6049 13.9752C18.3109 14.0852 19.0439 14.2482 19.6229 14.6932L20.1239 14.6912C19.9909 14.1612 19.5779 13.8462 18.8949 13.7542C18.7159 13.7302 18.4769 13.7052 18.2039 13.6772C17.4369 13.5992 16.4059 13.4932 15.6039 13.2842H15.6049Z" fill="#B69A00"/>
<path d="M19.709 15.167C19.938 15.465 20.293 15.449 20.674 15.188C21.054 14.928 21.467 14.197 21.666 14.185C23.061 14.103 24.748 13.504 25.553 13.041C24.533 13.188 23.521 13.354 22.492 13.359C20.736 13.366 20.528 14.18 19.813 14.75L19.709 15.167Z" fill="#F9CF00"/>
<path d="M20.137 15.426C19.956 15.426 19.798 15.348 19.678 15.191C19.665 15.174 19.668 15.149 19.685 15.134C19.703 15.121 19.727 15.124 19.741 15.141C20.018 15.502 20.431 15.305 20.652 15.154C20.832 15.031 21.023 14.795 21.192 14.586C21.389 14.344 21.544 14.152 21.664 14.145C22.997 14.066 24.526 13.528 25.335 13.114L25.213 13.132C24.326 13.262 23.408 13.396 22.493 13.4C21.179 13.406 20.753 13.858 20.301 14.337C20.16 14.487 20.013 14.643 19.838 14.783C19.82 14.797 19.796 14.793 19.782 14.776C19.769 14.759 19.771 14.734 19.789 14.719C19.96 14.583 20.104 14.43 20.244 14.281C20.687 13.811 21.145 13.325 22.492 13.32C23.402 13.316 24.316 13.182 25.201 13.053L25.548 13.002L25.573 13.077C24.698 13.58 22.998 14.147 21.669 14.226C21.584 14.231 21.416 14.439 21.254 14.638C21.081 14.851 20.886 15.092 20.697 15.221C20.497 15.358 20.307 15.426 20.138 15.426H20.137Z" fill="#B69A00"/>
<path d="M19.9836 14.8555C19.9706 14.8555 19.9576 14.8495 19.9496 14.8375C19.9376 14.8185 19.9436 14.7935 19.9616 14.7815C20.1816 14.6395 20.3806 14.4675 20.5726 14.3015C20.7086 14.1845 20.8436 14.0675 20.9876 13.9595C21.5836 13.5095 22.2616 13.5015 22.9806 13.4925C23.5926 13.4845 24.6426 13.2345 25.2696 13.0845L25.3336 13.0695C25.3556 13.0615 25.3766 13.0775 25.3816 13.0995C25.3866 13.1215 25.3736 13.1425 25.3516 13.1475L25.2876 13.1635C24.6566 13.3135 23.6006 13.5655 22.9806 13.5725C22.2756 13.5815 21.6096 13.5905 21.0336 14.0245C20.8916 14.1315 20.7576 14.2475 20.6226 14.3635C20.4276 14.5315 20.2266 14.7045 20.0026 14.8495C19.9956 14.8535 19.9886 14.8555 19.9816 14.8555H19.9836Z" fill="#B69A00"/>
<path d="M19.5531 14.7091C19.4511 14.1691 18.9621 13.9861 18.2601 13.8781C18.0651 13.8481 17.8681 13.8211 17.6721 13.7941C17.1311 13.7211 16.5721 13.6451 16.0291 13.4921C15.9051 13.4581 15.7871 13.4051 15.6691 13.3521C15.6121 13.3261 15.5541 13.3011 15.4961 13.2781L15.5251 13.2031C15.5841 13.2271 15.6431 13.2531 15.7011 13.2791C15.8161 13.3301 15.9301 13.3811 16.0501 13.4151C16.5891 13.5661 17.1451 13.6421 17.6831 13.7151C17.8801 13.7421 18.0771 13.7691 18.2731 13.7991C19.0081 13.9131 19.5211 14.1091 19.6321 14.6951L19.5541 14.7101L19.5531 14.7091Z" fill="#B69A00"/>
<path d="M20.0282 15.6089C19.9622 15.6089 19.8942 15.6069 19.8242 15.6009C19.8022 15.5999 19.7862 15.5799 19.7872 15.5579C19.7892 15.5359 19.8072 15.5179 19.8302 15.5209C20.5382 15.5739 21.0542 15.3459 21.6072 15.0649C21.6272 15.0549 21.6512 15.0629 21.6602 15.0829C21.6702 15.1029 21.6622 15.1269 21.6422 15.1369C21.1512 15.3859 20.6562 15.6079 20.0272 15.6079L20.0282 15.6089Z" fill="#B69A00"/>
<path d="M18.3163 14.8368H17.4423C17.4203 14.8368 17.4023 14.8188 17.4023 14.7968C17.4023 14.7748 17.4203 14.7568 17.4423 14.7568H18.3163C18.3383 14.7568 18.3563 14.7748 18.3563 14.7968C18.3563 14.8188 18.3383 14.8368 18.3163 14.8368Z" fill="#B69A00"/>
<path d="M18.7063 14.7008C18.7063 14.7618 18.6573 14.8118 18.5973 14.8118C18.5373 14.8118 18.4883 14.7618 18.4883 14.7008C18.4883 14.6398 18.5373 14.5898 18.5973 14.5898C18.6573 14.5898 18.7063 14.6398 18.7063 14.7008Z" fill="#B69A00"/>
<path d="M18.5963 14.8528C18.5143 14.8528 18.4473 14.7848 18.4473 14.7018C18.4473 14.6188 18.5143 14.5508 18.5963 14.5508C18.6783 14.5508 18.7453 14.6188 18.7453 14.7018C18.7453 14.7848 18.6783 14.8528 18.5963 14.8528ZM18.5963 14.6308C18.5583 14.6308 18.5263 14.6628 18.5263 14.7018C18.5263 14.7798 18.6653 14.7798 18.6653 14.7018C18.6653 14.6628 18.6343 14.6308 18.5953 14.6308H18.5963Z" fill="#B69A00"/>
<path d="M32.633 26.623C31.285 26.623 29.937 27.505 28.589 27.505C27.241 27.505 25.893 26.623 24.545 26.623C23.197 26.623 21.849 27.505 20.501 27.505C19.153 27.505 17.805 26.623 16.457 26.623C15.109 26.623 13.761 27.505 12.413 27.505C11.065 27.505 9.71695 26.623 8.36895 26.623C7.02095 26.623 5.67295 27.505 4.32495 27.505C3.71695 27.505 3.10995 27.325 2.50195 27.128V28.505C2.50195 28.538 2.51095 28.568 2.51195 28.6C3.11595 28.796 3.72095 28.974 4.32495 28.974C5.67295 28.974 7.02095 28.092 8.36895 28.092C9.71695 28.092 11.065 28.974 12.413 28.974C13.761 28.974 15.109 28.092 16.457 28.092C17.805 28.092 19.153 28.974 20.501 28.974C21.849 28.974 23.197 28.092 24.545 28.092C25.893 28.092 27.241 28.974 28.589 28.974C29.937 28.974 31.285 28.092 32.633 28.092C33.981 28.092 35.329 28.974 36.677 28.974C37.281 28.974 37.886 28.796 38.49 28.6C38.49 28.568 38.5 28.538 38.5 28.505V27.128C37.892 27.325 37.285 27.505 36.677 27.505C35.329 27.505 33.981 26.623 32.633 26.623Z" fill="#183F86"/>
<path d="M32.633 23.6836C31.285 23.6836 29.937 24.5656 28.589 24.5656C27.241 24.5656 25.893 23.6836 24.545 23.6836C23.197 23.6836 21.849 24.5656 20.501 24.5656C19.153 24.5656 17.805 23.6836 16.457 23.6836C15.109 23.6836 13.761 24.5656 12.413 24.5656C11.065 24.5656 9.71695 23.6836 8.36895 23.6836C7.02095 23.6836 5.67295 24.5656 4.32495 24.5656C3.71695 24.5656 3.10995 24.3856 2.50195 24.1886V25.6576C3.10995 25.8546 3.71695 26.0346 4.32495 26.0346C5.67295 26.0346 7.02095 25.1526 8.36895 25.1526C9.71695 25.1526 11.065 26.0346 12.413 26.0346C13.761 26.0346 15.109 25.1526 16.457 25.1526C17.805 25.1526 19.153 26.0346 20.501 26.0346C21.849 26.0346 23.197 25.1526 24.545 25.1526C25.893 25.1526 27.241 26.0346 28.589 26.0346C29.937 26.0346 31.285 25.1526 32.633 25.1526C33.981 25.1526 35.329 26.0346 36.677 26.0346C37.285 26.0346 37.892 25.8546 38.5 25.6576V24.1886C37.892 24.3856 37.285 24.5656 36.677 24.5656C35.329 24.5656 33.981 23.6836 32.633 23.6836Z" fill="#183F86"/>
<path d="M38.1188 30.1845C37.6388 30.3285 37.1578 30.4425 36.6778 30.4425C35.3298 30.4425 33.9818 29.5605 32.6338 29.5605C31.2858 29.5605 29.9378 30.4425 28.5898 30.4425C27.2418 30.4425 25.8938 29.5605 24.5458 29.5605C23.1978 29.5605 21.8498 30.4425 20.5018 30.4425C19.1538 30.4425 17.8058 29.5605 16.4578 29.5605C15.1098 29.5605 13.7618 30.4425 12.4138 30.4425C11.0658 30.4425 9.71777 29.5605 8.36977 29.5605C7.02177 29.5605 5.67377 30.4425 4.32577 30.4425C3.84577 30.4425 3.36477 30.3285 2.88477 30.1845C3.52077 31.5485 4.89377 32.4995 6.49777 32.4995H34.5068C36.1108 32.4995 37.4838 31.5485 38.1188 30.1845Z" fill="#183F86"/>
<path d="M32.633 22.2148C31.285 22.2148 29.937 23.0958 28.589 23.0958C27.241 23.0958 25.893 22.2148 24.545 22.2148C23.197 22.2148 21.849 23.0958 20.501 23.0958C19.153 23.0958 17.805 22.2148 16.457 22.2148C15.109 22.2148 13.761 23.0958 12.413 23.0958C11.065 23.0958 9.71695 22.2148 8.36895 22.2148C7.02095 22.2148 5.67295 23.0958 4.32495 23.0958C3.71695 23.0958 3.10995 22.9158 2.50195 22.7188V23.1548H38.502V22.7188C37.894 22.9158 37.287 23.0958 36.679 23.0958C35.331 23.0958 33.983 22.2148 32.635 22.2148H32.633Z" fill="#E3E7EA"/>
<path d="M2.5 24.1883C3.108 24.3853 3.715 24.5653 4.323 24.5653C5.671 24.5653 7.019 23.6833 8.367 23.6833C9.715 23.6833 11.063 24.5653 12.411 24.5653C13.759 24.5653 15.107 23.6833 16.455 23.6833C17.803 23.6833 19.151 24.5653 20.499 24.5653C21.847 24.5653 23.195 23.6833 24.543 23.6833C25.891 23.6833 27.239 24.5653 28.587 24.5653C29.935 24.5653 31.283 23.6833 32.631 23.6833C33.979 23.6833 35.327 24.5653 36.675 24.5653C37.283 24.5653 37.89 24.3853 38.498 24.1883V23.1543H2.5V24.1883Z" fill="#E3E7EA"/>
<path d="M32.633 25.1533C31.285 25.1533 29.937 26.0353 28.589 26.0353C27.241 26.0353 25.893 25.1533 24.545 25.1533C23.197 25.1533 21.849 26.0353 20.501 26.0353C19.153 26.0353 17.805 25.1533 16.457 25.1533C15.109 25.1533 13.761 26.0353 12.413 26.0353C11.065 26.0353 9.71695 25.1533 8.36895 25.1533C7.02095 25.1533 5.67295 26.0353 4.32495 26.0353C3.71695 26.0353 3.10995 25.8553 2.50195 25.6583V27.1273C3.10995 27.3243 3.71695 27.5043 4.32495 27.5043C5.67295 27.5043 7.02095 26.6223 8.36895 26.6223C9.71695 26.6223 11.065 27.5043 12.413 27.5043C13.761 27.5043 15.109 26.6223 16.457 26.6223C17.805 26.6223 19.153 27.5043 20.501 27.5043C21.849 27.5043 23.197 26.6223 24.545 26.6223C25.893 26.6223 27.241 27.5043 28.589 27.5043C29.937 27.5043 31.285 26.6223 32.633 26.6223C33.981 26.6223 35.329 27.5043 36.677 27.5043C37.285 27.5043 37.892 27.3243 38.5 27.1273V25.6583C37.892 25.8553 37.285 26.0353 36.677 26.0353C35.329 26.0353 33.981 25.1533 32.633 25.1533Z" fill="#E3E7EA"/>
<path d="M32.6327 28.0918C31.2847 28.0918 29.9367 28.9738 28.5887 28.9738C27.2407 28.9738 25.8927 28.0918 24.5447 28.0918C23.1967 28.0918 21.8487 28.9738 20.5007 28.9738C19.1527 28.9738 17.8047 28.0918 16.4567 28.0918C15.1087 28.0918 13.7607 28.9738 12.4127 28.9738C11.0647 28.9738 9.71672 28.0918 8.36872 28.0918C7.02072 28.0918 5.67272 28.9738 4.32472 28.9738C3.72072 28.9738 3.11572 28.7958 2.51172 28.5998C2.52572 29.1668 2.65772 29.7008 2.88372 30.1848C3.36372 30.3288 3.84472 30.4428 4.32472 30.4428C5.67272 30.4428 7.02072 29.5608 8.36872 29.5608C9.71672 29.5608 11.0647 30.4428 12.4127 30.4428C13.7607 30.4428 15.1087 29.5608 16.4567 29.5608C17.8047 29.5608 19.1527 30.4428 20.5007 30.4428C21.8487 30.4428 23.1967 29.5608 24.5447 29.5608C25.8927 29.5608 27.2407 30.4428 28.5887 30.4428C29.9367 30.4428 31.2847 29.5608 32.6327 29.5608C33.9807 29.5608 35.3287 30.4428 36.6767 30.4428C37.1567 30.4428 37.6377 30.3288 38.1177 30.1848C38.3437 29.6998 38.4767 29.1658 38.4897 28.5998C37.8857 28.7958 37.2807 28.9738 36.6767 28.9738C35.3287 28.9738 33.9807 28.0918 32.6327 28.0918Z" fill="#E3E7EA"/>
</svg>
