<svg width="41" height="41" viewBox="0 0 41 41" fill="none" xmlns="http://www.w3.org/2000/svg">
<path d="M34.5 8.5H6.5C4.29086 8.5 2.5 10.2909 2.5 12.5V28.5C2.5 30.7091 4.29086 32.5 6.5 32.5H34.5C36.7091 32.5 38.5 30.7091 38.5 28.5V12.5C38.5 10.2909 36.7091 8.5 34.5 8.5Z" fill="#328F34"/>
<path d="M12.5919 14.5H38.5009V12.495C38.5009 10.289 36.7129 8.5 34.5059 8.5H6.49586C5.54886 8.5 4.68986 8.844 4.00586 9.395L12.5929 14.5H12.5919Z" fill="#FCC200"/>
<path d="M22.6838 20.5H38.5008V14.5H12.5918L22.6838 20.5Z" fill="#E3E7EA"/>
<path d="M12.5918 26.5H38.5008V20.5H22.6838L12.5918 26.5Z" fill="#CF002E"/>
<path d="M4.00391 31.605C4.68891 32.156 5.54791 32.5 6.49491 32.5H34.5039C36.7109 32.5 38.4989 30.711 38.4989 28.504V26.5H12.5909L4.00391 31.605Z" fill="#4772BB"/>
<path d="M6.33411 20.5026V20.4996C6.33411 17.9296 8.14611 15.7826 10.5721 15.2366C10.1821 15.1486 9.77711 15.0986 9.36011 15.0986C6.35011 15.0986 3.91011 17.5176 3.91211 20.5006V20.5036C3.91211 23.4856 6.35411 25.9026 9.36311 25.9016C9.77911 25.9016 10.1831 25.8506 10.5721 25.7636C8.14711 25.2176 6.33511 23.0716 6.33411 20.5026Z" fill="#E3E7EA"/>
<path d="M9.61328 24.0562H10.3463L10.5723 23.3652L10.7993 24.0562H11.5323L10.9383 24.4832L11.1663 25.1742L10.5723 24.7472L9.97928 25.1742L10.2053 24.4832L9.61328 24.0562Z" fill="#E3E7EA"/>
<path d="M9.61328 16.3258H10.3463L10.5723 15.6348L10.7993 16.3258H11.5323L10.9383 16.7528L11.1663 17.4438L10.5723 17.0168L9.97928 17.4438L10.2053 16.7528L9.61328 16.3258Z" fill="#E3E7EA"/>
<path d="M9.61328 18.9029H10.3463L10.5723 18.2119L10.7993 18.9029H11.5323L10.9383 19.3299L11.1663 20.0209L10.5723 19.5939L9.97928 20.0209L10.2053 19.3299L9.61328 18.9029Z" fill="#E3E7EA"/>
<path d="M9.61328 21.4801H10.3463L10.5723 20.7881L10.7993 21.4801H11.5323L10.9383 21.9071L11.1663 22.5971L10.5723 22.1701L9.97928 22.5971L10.2053 21.9071L9.61328 21.4801Z" fill="#E3E7EA"/>
</svg>
