<svg width="41" height="41" viewBox="0 0 41 41" fill="none" xmlns="http://www.w3.org/2000/svg">
<path d="M34.5 8.5H6.5C4.29086 8.5 2.5 10.2909 2.5 12.5V28.5C2.5 30.7091 4.29086 32.5 6.5 32.5H34.5C36.7091 32.5 38.5 30.7091 38.5 28.5V12.5C38.5 10.2909 36.7091 8.5 34.5 8.5Z" fill="#00A03E"/>
<path d="M28.8991 15.4549L29.1561 14.7639L29.7801 13.0869L27.6671 14.4869L25.6731 12.9219L26.3601 15.3529L24.2461 16.7539L26.0441 16.8259L26.7851 16.8549L27.4721 19.2869L28.3541 16.9179L30.8921 17.0209L28.8991 15.4549Z" fill="#E3E7EA"/>
<path d="M14.6628 24.8885L14.9208 24.1985L15.5448 22.5205L13.4308 23.9215L11.4368 22.3555L12.1238 24.7865L10.0098 26.1875L11.8078 26.2595L12.5488 26.2895L13.2358 28.7205L14.1178 26.3525L16.6558 26.4545L14.6628 24.8885Z" fill="#E3E7EA"/>
<path d="M34.5049 32.5001C36.7119 32.5001 38.4999 30.7111 38.4999 28.5041V15.4951L12.8379 32.5001H34.5049Z" fill="#CF002E"/>
<path d="M28.162 8.5L2.5 25.505V27.482L31.147 8.5H28.162Z" fill="#F9CF00"/>
<path d="M12.8376 32.4996L38.4996 15.4946V13.5176L9.85156 32.4996H12.8376Z" fill="#F9CF00"/>
<path d="M2.5 27.482V28.504C2.5 30.711 4.289 32.5 6.495 32.5H9.852L38.5 13.518V12.496C38.5 10.29 36.712 8.50098 34.505 8.50098H31.148L2.5 27.482ZM14.118 26.351L13.236 28.719L12.549 26.288L11.808 26.258L10.01 26.186L12.124 24.785L11.437 22.354L13.43 23.919L15.544 22.518L14.92 24.195L14.662 24.886L16.655 26.451L14.116 26.349L14.118 26.351ZM28.355 16.918L27.473 19.286L26.786 16.855L26.045 16.825L24.247 16.753L26.361 15.352L25.674 12.921L27.667 14.486L29.781 13.085L29.156 14.762L28.899 15.453L30.892 17.019L28.353 16.917L28.355 16.918Z" fill="black"/>
</svg>
