<svg width="41" height="41" viewBox="0 0 41 41" fill="none" xmlns="http://www.w3.org/2000/svg">
<path d="M34.5 8.5H6.5C4.29086 8.5 2.5 10.2909 2.5 12.5V28.5C2.5 30.7091 4.29086 32.5 6.5 32.5H34.5C36.7091 32.5 38.5 30.7091 38.5 28.5V12.5C38.5 10.2909 36.7091 8.5 34.5 8.5Z" fill="#224AA1"/>
<path d="M2.5 27.833H38.5V13.166H2.5V27.833Z" fill="#EF002B"/>
<path d="M38.5 12.5H2.5V13.167H38.5V12.5Z" fill="#E3E7EA"/>
<path d="M38.5 27.833H2.5V28.5H38.5V27.833Z" fill="#E3E7EA"/>
<path d="M15.9887 25.833C18.9207 25.833 21.2977 23.445 21.2977 20.5C21.2977 17.555 18.9207 15.167 15.9887 15.167C13.0567 15.167 10.6797 17.555 10.6797 20.5C10.6797 23.445 13.0567 25.833 15.9887 25.833ZM14.8337 18.903L15.9887 15.333L17.1437 18.903H20.8797L17.8577 21.11L19.0117 24.68L15.9897 22.473L12.9667 24.68L14.1217 21.11L11.0987 18.903H14.8357H14.8337Z" fill="#E3E7EA"/>
</svg>
