<svg width="41" height="41" viewBox="0 0 41 41" fill="none" xmlns="http://www.w3.org/2000/svg">
<path d="M38.5 28.504V12.496C38.5 10.289 36.711 8.5 34.505 8.5H6.495C4.288 8.5 2.5 10.289 2.5 12.496V28.505C2.5 30.712 4.289 32.501 6.495 32.501H34.504C36.711 32.501 38.499 30.712 38.499 28.505L38.5 28.504ZM25.608 23.828C23.728 26.585 19.915 27.33 17.094 25.492C14.273 23.654 13.511 19.929 15.392 17.172C15.369 17.204 15.348 17.237 15.327 17.269C15.348 17.236 15.37 17.204 15.392 17.172C17.272 14.415 21.085 13.67 23.906 15.507C26.727 17.345 27.489 21.07 25.608 23.828Z" fill="#E3E7EA"/>
<path d="M27.3119 12.457L28.8729 14.745L28.0219 15.3L26.4609 13.011L27.3119 12.457Z" fill="black"/>
<path d="M29.1557 15.1611L30.7167 17.4491L29.8657 18.0041L28.3047 15.7161L29.1557 15.1611Z" fill="black"/>
<path d="M28.5873 11.625L31.9923 16.618L31.1413 17.172L27.7363 12.18L28.5873 11.625Z" fill="black"/>
<path d="M29.8647 10.793L31.4257 13.081L30.5747 13.635L29.0137 11.348L29.8647 10.793Z" fill="black"/>
<path d="M31.7104 13.4971L33.2704 15.7851L32.4194 16.3401L30.8594 14.0521L31.7104 13.4971Z" fill="black"/>
<path d="M11.1342 22.9961L14.5392 27.9891L13.6882 28.5431L10.2832 23.5511L11.1342 22.9961Z" fill="black"/>
<path d="M9.85881 23.8281L11.4188 26.1171L10.5678 26.6711L9.00781 24.3831L9.85881 23.8281Z" fill="black"/>
<path d="M11.7026 26.5322L13.2636 28.8202L12.4126 29.3752L10.8516 27.0872L11.7026 26.5322Z" fill="black"/>
<path d="M8.58147 24.6602L11.9865 29.6532L11.1355 30.2082L7.73047 25.2152L8.58147 24.6602Z" fill="black"/>
<path d="M10.2832 17.449L13.6882 12.457L14.5392 13.012L11.1342 18.004L10.2832 17.449Z" fill="black"/>
<path d="M9.00781 16.618L12.4128 11.625L13.2638 12.18L9.85881 17.172L9.00781 16.618Z" fill="black"/>
<path d="M7.73047 15.785L11.1355 10.793L11.9865 11.348L8.58147 16.34L7.73047 15.785Z" fill="black"/>
<path d="M26.4609 27.9892L28.0219 25.7012L28.8729 26.2552L27.3119 28.5432L26.4609 27.9892Z" fill="black"/>
<path d="M28.3047 25.2851L29.8657 22.9961L30.7167 23.5511L29.1557 25.8391L28.3047 25.2851Z" fill="black"/>
<path d="M27.7363 28.8202L29.2973 26.5322L30.1483 27.0872L28.5873 29.3752L27.7363 28.8202Z" fill="black"/>
<path d="M29.5801 26.1171L31.1411 23.8281L31.9921 24.3831L30.4321 26.6711L29.5801 26.1171Z" fill="black"/>
<path d="M29.0137 29.6532L30.5747 27.3652L31.4257 27.9192L29.8647 30.2082L29.0137 29.6532Z" fill="black"/>
<path d="M30.8594 26.9482L32.4194 24.6602L33.2704 25.2152L31.7104 27.5032L30.8594 26.9482Z" fill="black"/>
<path d="M23.9051 15.5082C21.0841 13.6702 17.2711 14.4152 15.3911 17.1732C14.4501 18.5512 14.8321 20.4142 16.2421 21.3332C17.6531 22.2522 19.5581 21.8792 20.4991 20.5012C21.4391 19.1232 23.3451 18.7502 24.7551 19.6692C26.1661 20.5882 26.5471 22.4502 25.6061 23.8292C27.4871 21.0712 26.7261 17.3472 23.9051 15.5082Z" fill="#C60038"/>
<path d="M24.7573 19.6679C23.3463 18.7489 21.4413 19.1209 20.5013 20.4999C19.5603 21.8779 17.6543 22.2509 16.2443 21.3319C14.8333 20.4129 14.4523 18.5499 15.3933 17.1719C13.5123 19.9289 14.2743 23.6539 17.0953 25.4919C19.9163 27.3299 23.7293 26.5849 25.6093 23.8279C26.5503 22.4489 26.1683 20.5869 24.7573 19.6679Z" fill="#243679"/>
</svg>
