<svg width="41" height="41" viewBox="0 0 41 41" fill="none" xmlns="http://www.w3.org/2000/svg">
<path d="M34.5 8.5H6.5C4.29086 8.5 2.5 10.2909 2.5 12.5V28.5C2.5 30.7091 4.29086 32.5 6.5 32.5H34.5C36.7091 32.5 38.5 30.7091 38.5 28.5V12.5C38.5 10.2909 36.7091 8.5 34.5 8.5Z" fill="#E3E7EA"/>
<path d="M14.5759 16.461H38.5009V12.495C38.5009 10.288 36.7119 8.49902 34.5059 8.49902H6.49589C5.52889 8.49902 4.65389 8.85602 3.96289 9.42802L14.5759 16.46V16.461Z" fill="#009A73"/>
<path d="M38.4992 28.5039V24.4619H14.5742L3.91016 31.5279C4.52016 32.0499 5.28416 32.3849 6.13016 32.4629H34.8692C36.9022 32.2759 38.4992 30.5859 38.4992 28.5039Z" fill="#CF002E"/>
<path d="M3.962 9.42871C3.076 10.1617 2.5 11.2557 2.5 12.4947V28.5037C2.5 29.7197 3.054 30.7947 3.911 31.5277L14.575 24.4617V16.4607L3.962 9.42871Z" fill="black"/>
</svg>
