<svg width="41" height="41" viewBox="0 0 41 41" fill="none" xmlns="http://www.w3.org/2000/svg">
<path d="M6.5 8.5H23.002V19.806H2.5V12.5C2.5 10.291 4.291 8.5 6.5 8.5Z" fill="#E3E7EA"/>
<path d="M11.0424 8.5H6.50037C6.05537 8.5 5.63438 8.59 5.23438 8.724L11.0424 11.668V8.5Z" fill="#261B64"/>
<path d="M3.33269 10.083C2.92169 10.621 2.64969 11.261 2.55469 11.964H7.04269L3.33269 10.083Z" fill="#261B64"/>
<path d="M32.5466 24.5329L32.5446 24.5339C32.5296 24.5419 32.5146 24.5509 32.4996 24.5579C32.2766 24.6869 31.9666 24.7859 31.5636 25.0839C31.5586 25.0869 31.5536 25.0889 31.5486 25.0919C31.4326 25.1979 31.3216 25.3239 31.2266 25.4949C31.4106 25.4539 31.6306 25.3979 31.8926 25.3009C32.5356 25.0639 33.3356 24.5569 33.3356 24.5569C33.2426 24.4089 33.1516 24.2089 33.0756 24.0039C33.0166 24.0859 32.9576 24.1829 32.9006 24.2519C32.8006 24.3739 32.6786 24.4599 32.5456 24.5329H32.5466Z" fill="#261B64"/>
<path d="M29.8929 24.9616C29.5559 24.7456 29.2869 24.6536 29.0959 24.5326C29.0339 24.4836 28.7309 24.0666 28.5639 23.7256C28.4799 24.0196 28.3469 24.3426 28.2129 24.5586C28.2129 24.5586 28.8239 25.0656 29.4669 25.3026C29.7909 25.4216 30.1229 25.4896 30.3729 25.5276C30.3669 25.5246 30.3599 25.5206 30.3599 25.5206C30.2239 25.2816 30.0589 25.1026 29.8939 24.9626L29.8929 24.9616Z" fill="#261B64"/>
<path d="M30.5226 16.873C30.4436 16.861 30.3686 16.848 30.3056 16.832C30.2296 16.871 30.1486 16.902 30.0586 16.923C30.0606 16.925 30.0616 16.928 30.0636 16.931C30.2126 16.908 30.3686 16.887 30.5226 16.873Z" fill="#261B64"/>
<path d="M20.71 8.5H14.459V11.668L20.71 8.5Z" fill="#261B64"/>
<path d="M31.9096 16.7627C31.7786 16.8197 31.6196 16.8657 31.4316 16.8917C31.6446 16.9127 31.8506 16.9417 32.0436 16.9727C31.9996 16.8997 31.9556 16.8297 31.9096 16.7627Z" fill="#261B64"/>
<path d="M2.5 15.4287V17.7307L7.041 15.4287H2.5Z" fill="#261B64"/>
<path d="M34.501 8.5H23.003V9.662L18.46 11.964H23.003V15.429H18.461L23.003 17.731V18.893H20.711L14.461 15.724V18.893H11.043V15.725L4.79295 18.893H2.50195V28.499C2.50195 30.708 4.29295 32.499 6.50195 32.499H34.502C36.711 32.499 38.502 30.708 38.502 28.499V12.5C38.502 10.291 36.71 8.5 34.501 8.5ZM28.808 15.326C29.161 15.326 29.105 15.499 29.329 15.585C29.337 15.578 29.336 15.571 29.348 15.564C29.39 15.539 29.485 15.494 29.602 15.444C29.602 15.444 29.602 15.443 29.602 15.442C29.636 15.428 29.678 15.413 29.716 15.398C29.457 15.13 29.044 14.854 29.044 14.854L29.619 15.023C29.619 15.023 29.348 14.651 29.044 14.584C29.111 14.584 29.653 14.652 29.821 14.787C29.821 14.787 29.348 14.246 29.111 14.145C29.111 14.145 29.687 14.314 29.889 14.517L29.652 14.01C29.652 14.01 30.092 14.213 30.227 14.483C30.227 14.483 30.092 13.942 29.821 13.671C29.821 13.671 30.227 13.909 30.364 14.111L30.464 13.628L30.762 13.897L30.966 13.522L31.204 13.91L31.614 13.485C31.614 13.485 31.513 13.815 31.479 14.12C31.479 14.12 31.648 13.845 32.02 13.71C32.02 13.71 31.547 14.435 31.479 14.706C31.479 14.706 32.155 14.037 32.595 13.867C32.595 13.867 31.986 14.581 31.817 14.852C31.817 14.852 32.324 14.414 32.797 14.279C32.797 14.279 32.188 14.922 32.087 15.058C32.087 15.058 32.425 14.923 32.865 14.957C32.865 14.957 32.294 15.28 31.909 15.528C31.935 15.541 31.96 15.552 31.985 15.567C32.077 15.617 32.141 15.664 32.194 15.709C32.208 15.721 32.215 15.73 32.227 15.742C32.277 15.79 32.317 15.833 32.349 15.872C32.363 15.889 32.377 15.905 32.391 15.919C32.406 15.934 32.425 15.945 32.442 15.958C32.467 15.976 32.49 15.994 32.526 16.006C32.631 16.041 32.653 16.085 32.637 16.133C32.739 16.13 32.833 16.12 32.897 16.107C33.066 16.072 32.932 16.276 32.763 16.378C32.662 16.439 32.508 16.438 32.394 16.428C32.377 16.446 32.354 16.467 32.333 16.487C32.447 16.599 32.656 16.817 32.729 16.987C32.768 17.079 32.77 17.143 32.756 17.19C32.889 17.346 32.984 17.629 32.729 17.73C32.606 17.779 32.431 17.785 32.257 17.73C32.257 17.73 32.257 17.728 32.256 17.727C31.946 17.666 31.633 17.525 31.633 17.525C31.632 17.525 31.631 17.525 31.63 17.525C31.63 17.526 31.632 17.533 31.632 17.534C31.347 17.678 31.012 17.529 30.96 17.497C30.96 17.496 30.959 17.494 30.958 17.493C30.757 17.554 30.404 17.491 30.404 17.491C30.404 17.491 30.386 17.496 30.376 17.499C30.369 17.528 29.97 17.645 29.919 17.614C29.904 17.617 29.887 17.621 29.872 17.624C29.779 17.641 29.672 17.69 29.439 17.79C29.207 17.89 28.974 17.724 28.941 17.524C28.908 17.325 29.008 17.125 29.373 17.058C29.373 17.058 29.368 17.052 29.366 17.048C29.432 17.034 29.686 16.982 29.989 16.934C29.818 16.966 29.623 16.975 29.381 16.951C29.044 16.917 28.84 16.748 28.908 16.545C28.976 16.342 29.144 16.275 29.144 16.275C29.144 16.275 29.11 15.869 28.976 15.971C28.841 16.073 28.536 16.005 28.502 15.937C28.467 15.87 28.265 15.701 28.265 15.701C28.265 15.701 28.366 15.328 28.806 15.328L28.808 15.326ZM36.032 24.153C35.998 24.389 35.817 24.829 35.716 25.099C35.615 25.37 35.39 25.403 35.018 25.471C34.645 25.539 33.993 25.235 33.993 25.235C32.674 26.519 30.591 26.485 30.591 26.485C30.591 26.485 28.693 26.519 27.372 25.235C27.372 25.235 26.812 25.538 26.44 25.471C26.067 25.403 25.889 25.37 25.787 25.099C25.686 24.829 25.53 24.389 25.496 24.153C25.469 23.961 25.473 23.778 25.598 23.729C25.683 23.681 25.806 23.689 25.914 23.779C26.004 23.855 26.113 24.09 26.208 24.328C26.299 24.385 26.491 24.48 26.756 24.456C26.756 24.456 26.589 24.185 26.42 23.914C26.251 23.643 26.353 23.306 26.589 23.272C26.815 23.239 26.863 23.112 27.127 22.869C27.238 22.673 27.48 22.503 27.674 22.527C27.774 22.54 27.859 22.581 27.931 22.633C28.015 22.657 28.084 22.697 28.112 22.764C28.141 22.833 28.204 22.896 28.274 22.959C28.195 22.665 28.153 22.419 28.153 22.419C28.16 22.422 28.166 22.428 28.173 22.431C28.138 22.242 28.108 22.045 28.089 21.835C28.086 21.833 28.083 21.829 28.08 21.827C28.08 21.827 28.034 21.363 28.055 20.895V19.905V17.893H31.918C31.977 17.875 32.021 17.88 32.06 17.893H33.972V21.173C33.972 21.181 33.97 21.188 33.97 21.196C33.967 21.441 33.956 21.676 33.932 21.833C33.928 21.831 33.914 21.83 33.908 21.828C33.884 22.012 33.861 22.192 33.821 22.359C33.826 22.359 33.831 22.359 33.836 22.359C33.819 22.43 33.797 22.489 33.778 22.556C33.812 22.545 33.843 22.531 33.881 22.526C34.079 22.502 34.327 22.676 34.435 22.876C34.69 23.113 34.742 23.238 34.963 23.27C35.2 23.303 35.3 23.642 35.131 23.912C34.963 24.183 34.792 24.454 34.792 24.454C35.064 24.479 35.261 24.378 35.348 24.321C35.442 24.084 35.551 23.852 35.64 23.777C35.749 23.686 35.873 23.679 35.958 23.729C35.975 23.738 35.985 23.754 35.997 23.769C36.019 23.794 36.033 23.823 36.04 23.861C36.055 23.943 36.049 24.045 36.033 24.151L36.032 24.153Z" fill="#261B64"/>
<path d="M13.775 12.657V12.015V8.5H11.726V12.015V12.657H8.408H2.5V14.736H8.408H11.726V15.378V18.894H13.775V15.378V14.736H17.093H23.002V12.657H17.093H13.775Z" fill="#CF1B2B"/>
<path d="M9.33269 11.9655L4.10269 9.31348C4.09269 9.32148 4.08469 9.33148 4.07369 9.33948C3.89069 9.47948 3.71969 9.63148 3.56469 9.80048C3.56169 9.80348 3.55769 9.80648 3.55469 9.80948L7.80469 11.9645H9.33269V11.9655Z" fill="#CF1B2B"/>
<path d="M14.6406 11.965H16.1686L23.0026 8.5H21.4746L14.6406 11.965Z" fill="#CF1B2B"/>
<path d="M2.5 18.8937H4.027L10.862 15.4287H9.333L2.5 18.8937Z" fill="#CF1B2B"/>
<path d="M16.168 15.4287L23.002 18.8937V18.1187L17.696 15.4287H16.168Z" fill="#CF1B2B"/>
<path d="M27.6732 22.5286C27.4792 22.5046 27.2372 22.6736 27.1262 22.8706C27.0822 22.9476 27.0552 23.0276 27.0642 23.1036C27.0982 23.3736 27.4702 23.8146 27.4702 23.8146C27.4702 23.8146 27.5042 23.6456 27.6402 23.6456C27.7742 23.6456 27.7742 23.7136 27.7742 23.7136C27.7742 23.7136 28.0112 23.2396 28.0782 23.0026C28.1212 22.8536 28.0502 22.7236 27.9292 22.6356C27.8572 22.5836 27.7732 22.5416 27.6722 22.5296L27.6732 22.5286Z" fill="#CF1B2B"/>
<path d="M25.9134 23.7797C25.8054 23.6897 25.6824 23.6807 25.5974 23.7297C25.5224 23.7717 25.4764 23.8567 25.5084 23.9827C25.5764 24.2537 25.8474 25.0647 25.8474 25.0647C25.8474 25.0647 25.9144 24.7947 26.1184 24.7607C26.3214 24.7277 26.4224 24.9307 26.4224 24.9307C26.4224 24.9307 26.3274 24.6277 26.2084 24.3297C26.1134 24.0917 26.0044 23.8557 25.9144 23.7807L25.9134 23.7797Z" fill="#CF1B2B"/>
<path d="M33.878 22.5288C33.841 22.5338 33.809 22.5488 33.775 22.5588C33.728 22.7288 33.675 22.8888 33.616 23.0358C33.612 23.0458 33.607 23.0548 33.603 23.0648C33.584 23.1108 33.564 23.1558 33.543 23.1988C33.638 23.4358 33.776 23.7138 33.776 23.7138C33.776 23.7138 33.776 23.6458 33.912 23.6458C34.047 23.6458 34.081 23.8148 34.081 23.8148C34.081 23.8148 34.453 23.3748 34.487 23.1038C34.496 23.0308 34.472 22.9538 34.432 22.8788C34.323 22.6788 34.075 22.5038 33.878 22.5288Z" fill="#CF1B2B"/>
<path d="M36.0389 23.8631C36.0319 23.8251 36.0179 23.7961 35.9959 23.7711C35.9829 23.7571 35.9729 23.7411 35.9569 23.7311C35.8719 23.6811 35.7469 23.6881 35.6389 23.7791C35.5499 23.8541 35.4409 24.0871 35.3469 24.3231C35.2269 24.6231 35.1309 24.9291 35.1309 24.9291C35.1309 24.9291 35.2319 24.7261 35.4349 24.7591C35.6389 24.7941 35.7059 25.0631 35.7059 25.0631C35.7059 25.0631 35.9759 24.2521 36.0429 23.9811C36.0549 23.9331 36.0449 23.8981 36.0389 23.8611V23.8631Z" fill="#CF1B2B"/>
<path d="M33.9697 19.9186V17.8956H32.0577C32.0777 17.9026 32.1077 17.8956 32.1187 17.9136C32.2197 18.0826 32.2197 18.2856 31.9157 18.2856C31.6117 18.2856 31.1707 18.2176 31.1707 18.3196C31.1707 18.4216 31.3067 18.4886 31.5097 18.4886C31.7127 18.4886 32.0507 18.3536 32.2867 18.3536C32.5227 18.3536 32.8627 18.0826 33.0647 18.2526C33.2677 18.4216 33.4367 18.6586 33.2677 18.7596C33.0997 18.8606 32.4897 18.8946 32.2867 18.8606C32.2867 18.8606 32.5237 18.9956 32.7267 19.0296C32.9297 19.0646 33.3357 19.1306 33.3027 19.3336C33.2677 19.5366 33.3697 19.8066 33.0997 19.7736C32.8287 19.7396 32.8627 19.6046 32.9307 19.5026C32.9987 19.4006 32.8297 19.2996 32.5247 19.3336C32.2217 19.3676 31.8487 19.1986 31.8487 19.1986C31.8487 19.1986 31.7477 19.4696 31.8827 19.5366C31.8827 19.5366 31.4767 19.7056 31.2407 19.7396C31.0037 19.7736 30.7677 19.8746 30.7677 19.7396C30.7677 19.6046 30.9367 19.4016 31.0717 19.4686C31.2067 19.5366 31.4427 19.4336 31.5117 19.4336C31.5787 19.4336 31.2737 19.2306 31.4437 19.1636C31.6127 19.0956 31.3097 19.0616 31.1407 19.1636C30.9717 19.2646 29.9577 19.5356 29.6187 19.6706C29.2817 19.8056 28.9767 19.7716 28.8407 19.8396C28.7047 19.9076 28.4357 19.7386 28.5697 19.5686C28.7047 19.3996 28.7727 19.2976 28.8737 19.3996C28.9747 19.5006 29.1437 19.4676 29.3807 19.3996C29.6177 19.3316 29.2467 19.2646 29.1787 19.1966C29.1107 19.1286 28.8407 18.7236 28.8407 18.6216C28.8367 18.5196 28.2277 18.4186 28.5997 18.1146C28.8107 17.9416 29.0057 18.2166 29.0397 18.3856C29.0737 18.5546 29.2767 18.7916 29.4797 18.7916C29.4797 18.7916 29.6147 18.3856 29.7167 18.1826C29.8187 17.9796 30.0887 17.9116 30.2587 17.9796C30.4277 18.0476 30.7317 18.0136 30.6987 18.3176C30.6647 18.6216 30.5637 18.7576 30.5637 18.7576C30.5637 18.7576 31.1727 18.7916 31.4427 18.7576C31.7137 18.7236 32.0187 18.5546 32.2217 18.6556C32.4237 18.7576 32.7287 18.7906 32.8307 18.7236C32.9327 18.6566 32.9997 18.4526 32.7627 18.4866C32.5257 18.5216 32.3227 18.5216 32.1207 18.5546C31.9177 18.5876 31.0387 18.6226 31.0387 18.3516C31.0387 18.0806 31.3757 18.0476 31.4437 18.0806C31.4897 18.1036 31.7317 17.9496 31.9177 17.8936H28.0547V19.9056C28.3007 19.9866 28.4777 20.3276 28.7457 20.3276C29.0497 20.3276 29.4247 19.8886 29.7627 19.8886C30.1007 19.8886 30.4097 20.3276 30.7817 20.3276C31.2217 20.3276 31.3647 19.8886 31.8057 19.8886C32.1507 19.8886 32.3037 20.1526 32.5637 20.2686L32.5687 20.2506L32.5747 20.2716C32.6437 20.3006 32.7137 20.3276 32.8037 20.3276C33.1827 20.3276 33.2347 20.0006 33.5467 19.9106C33.5957 19.8966 33.7907 19.9136 33.9717 19.9166L33.9697 19.9186Z" fill="#CF1B2B"/>
<path d="M28.4944 23.5833C28.5714 23.6163 28.6744 23.6443 28.7724 23.6443C29.1704 23.6443 29.6634 23.2903 29.9384 23.2773L29.6474 23.0783L30.7114 23.0993L30.8064 22.7743C30.5794 22.7293 30.3734 22.5593 30.1674 22.4473L30.3114 22.8513L29.7214 22.4043C29.4314 22.5043 29.1284 22.7993 28.8744 22.7993C28.8304 22.7993 28.7844 22.7833 28.7394 22.7673L28.6214 22.8583L28.6634 22.7383C28.5004 22.6583 28.3334 22.5213 28.1704 22.4333C28.1634 22.4303 28.1574 22.4243 28.1504 22.4213C28.1504 22.4213 28.1924 22.6673 28.2714 22.9613C28.3264 23.1673 28.4004 23.3953 28.4924 23.5833H28.4944Z" fill="#0B50A0"/>
<path d="M29.2035 21.1143C29.0975 21.1813 28.9955 21.2333 28.8965 21.2693L29.1565 21.2743L29.2035 21.1143Z" fill="#0B50A0"/>
<path d="M30.7025 22.157C30.7995 22.157 30.9025 22.131 31.0075 22.094L31.0125 22.079L31.0165 22.091C31.3115 21.985 31.6115 21.787 31.7855 21.787C31.8655 21.787 31.9645 21.834 32.0705 21.89L32.0825 21.854L31.2045 21.253L32.2685 21.274L32.3185 21.104C32.1735 20.99 32.0305 20.873 31.8025 20.873C31.3625 20.873 31.2185 21.312 30.7785 21.312C30.7655 21.312 30.7525 21.303 30.7395 21.302L29.9805 21.831C30.1915 21.925 30.4035 22.156 30.7015 22.156L30.7025 22.157Z" fill="#0B50A0"/>
<path d="M33.326 22.5784L33.424 22.8514L33.205 22.6854C33.129 22.7474 33.041 22.7994 32.899 22.7994C32.594 22.7994 32.449 22.5934 32.245 22.4644L31.734 22.8594L31.906 22.3644C31.596 22.3714 31.435 22.5934 31.207 22.7184L31.322 23.0984L32.385 23.0684L32.039 23.3094C32.272 23.3894 32.583 23.6454 32.898 23.6454C33.126 23.6454 33.285 23.5014 33.439 23.3924C33.448 23.3864 33.457 23.3794 33.466 23.3734C33.495 23.3194 33.517 23.2564 33.543 23.1994C33.564 23.1554 33.584 23.1114 33.603 23.0654C33.607 23.0554 33.612 23.0464 33.616 23.0364C33.675 22.8904 33.728 22.7304 33.775 22.5594C33.793 22.4924 33.816 22.4344 33.833 22.3624C33.829 22.3624 33.823 22.3624 33.818 22.3624C33.804 22.3624 33.79 22.3604 33.776 22.3604C33.541 22.3604 33.43 22.4694 33.326 22.5784Z" fill="#0B50A0"/>
<path d="M31.3937 24.3183C31.2247 24.4403 31.0707 24.5843 30.8207 24.5893C30.6757 24.5863 30.5667 24.5303 30.4647 24.4633L30.1767 24.6843L30.2937 24.3483C30.1597 24.2473 30.0217 24.1523 29.8187 24.1523C29.5247 24.1523 29.2917 24.4013 29.0967 24.5323C29.2877 24.6543 29.5557 24.7463 29.8927 24.9623C29.9537 25.0013 30.0127 25.0363 30.0787 25.0853C30.3847 25.3133 30.8207 25.3363 30.8207 25.3363C30.8207 25.3363 31.2427 25.3103 31.5487 25.0933C31.5537 25.0903 31.5587 25.0883 31.5637 25.0853C31.9667 24.7863 32.2767 24.6883 32.4997 24.5593C32.5137 24.5513 32.5307 24.5433 32.5447 24.5353C32.5447 24.5353 32.5467 24.5353 32.5467 24.5343C32.3527 24.4043 32.1177 24.1543 31.8237 24.1543C31.7737 24.1543 31.7377 24.1753 31.6937 24.1853L31.8697 24.6783L31.3947 24.3193L31.3937 24.3183Z" fill="#0B50A0"/>
<path d="M28.881 22.1134L28.971 21.8534L28.094 21.2524L28.572 21.2624C28.444 21.1934 28.332 21.0674 28.211 20.9764C28.133 20.9184 28.057 20.8984 28.055 20.8984C28.035 21.3664 28.079 21.8304 28.079 21.8304C28.082 21.8324 28.085 21.8364 28.088 21.8384C28.248 21.9384 28.33 22.1584 28.642 22.1584C28.718 22.1584 28.8 22.1364 28.882 22.1144L28.881 22.1134Z" fill="#0B50A0"/>
<path d="M33.6628 20.8932C33.6228 20.8932 33.5728 20.8852 33.5168 20.9052C33.2948 20.9832 33.2048 21.1812 33.0078 21.2682L33.9418 21.2412L33.0688 21.8502L33.1298 22.0192C33.2788 21.9132 33.4108 21.7862 33.6108 21.7862C33.6728 21.7862 33.8388 21.8092 33.9078 21.8312C33.9138 21.8332 33.9278 21.8342 33.9318 21.8362C33.9568 21.6792 33.9678 21.4432 33.9698 21.1992C33.9708 21.0992 33.9748 21.0012 33.9708 20.9012C33.8298 20.8982 33.7308 20.8932 33.6628 20.8932Z" fill="#0B50A0"/>
<path d="M30.5303 21.249C30.2633 21.129 30.0193 20.873 29.7593 20.873C29.7243 20.873 29.6883 20.893 29.6523 20.901L29.7643 21.271L30.5303 21.249Z" fill="#0B50A0"/>
<path d="M36.0419 23.9837C35.9739 24.2547 35.7049 25.0657 35.7049 25.0657C35.7049 25.0657 35.6369 24.7957 35.4339 24.7617C35.2309 24.7287 35.1299 24.9317 35.1299 24.9317C35.1299 24.9317 35.2259 24.6257 35.3459 24.3257C35.2579 24.3827 35.0619 24.4827 34.7899 24.4587C34.7899 24.4587 34.9609 24.1877 35.1289 23.9167C35.2979 23.6467 35.1969 23.3087 34.9609 23.2747C34.7399 23.2427 34.6889 23.1167 34.4329 22.8807C34.4729 22.9547 34.4969 23.0327 34.4879 23.1057C34.4539 23.3757 34.0819 23.8167 34.0819 23.8167C34.0819 23.8167 34.0479 23.6477 33.9129 23.6477C33.7769 23.6477 33.7769 23.7157 33.7769 23.7157C33.7769 23.7157 33.6389 23.4377 33.5439 23.2007C33.5169 23.2577 33.4959 23.3207 33.4669 23.3747C33.4579 23.3807 33.4489 23.3877 33.4399 23.3937C33.3219 23.6277 33.2019 23.8317 33.0769 24.0067C33.1529 24.2127 33.2439 24.4117 33.3369 24.5597C33.3369 24.5597 32.5369 25.0667 31.8939 25.3037C31.6319 25.3997 31.4119 25.4567 31.2279 25.4977C31.2269 25.4997 31.2249 25.5017 31.2239 25.5037C31.2239 25.5037 31.1469 25.5817 30.7949 25.5817C30.5059 25.5817 30.4029 25.5427 30.3739 25.5287C30.1239 25.4907 29.7919 25.4237 29.4679 25.3037C28.8249 25.0667 28.2139 24.5597 28.2139 24.5597C28.3489 24.3437 28.4809 24.0207 28.5649 23.7267C28.5439 23.6837 28.5169 23.6377 28.5009 23.5977C28.4989 23.5937 28.4979 23.5887 28.4959 23.5847C28.4029 23.3967 28.3289 23.1687 28.2739 22.9627C28.2039 22.8997 28.1419 22.8367 28.1119 22.7677C28.0829 22.7007 28.0149 22.6607 27.9309 22.6367C28.0519 22.7247 28.1229 22.8547 28.0799 23.0037C28.0119 23.2407 27.7759 23.7147 27.7759 23.7147C27.7759 23.7147 27.7759 23.6467 27.6419 23.6467C27.5059 23.6467 27.4719 23.8157 27.4719 23.8157C27.4719 23.8157 27.0999 23.3757 27.0659 23.1047C27.0559 23.0287 27.0839 22.9487 27.1279 22.8717C26.8639 23.1147 26.8159 23.2417 26.5899 23.2747C26.3539 23.3077 26.2519 23.6457 26.4209 23.9167C26.5899 24.1877 26.7569 24.4587 26.7569 24.4587C26.4919 24.4827 26.3009 24.3877 26.2089 24.3307C26.3279 24.6287 26.4229 24.9317 26.4229 24.9317C26.4229 24.9317 26.3219 24.7287 26.1189 24.7617C25.9149 24.7967 25.8479 25.0657 25.8479 25.0657C25.8479 25.0657 25.5779 24.2547 25.5089 23.9837C25.4779 23.8577 25.5239 23.7727 25.5979 23.7307C25.4729 23.7797 25.4689 23.9627 25.4959 24.1547C25.5299 24.3907 25.6859 24.8307 25.7869 25.1007C25.8879 25.3717 26.0669 25.4047 26.4399 25.4727C26.8119 25.5407 27.3719 25.2367 27.3719 25.2367C28.6919 26.5207 30.5909 26.4867 30.5909 26.4867C30.5909 26.4867 32.6749 26.5207 33.9929 25.2367C33.9929 25.2367 34.6459 25.5397 35.0179 25.4727C35.3899 25.4047 35.6159 25.3717 35.7159 25.1007C35.8169 24.8307 35.9979 24.3907 36.0319 24.1547C36.0479 24.0487 36.0539 23.9457 36.0389 23.8647C36.0459 23.9017 36.0549 23.9367 36.0429 23.9847L36.0419 23.9837Z" fill="#F9D050"/>
<path d="M29.937 15.3214C30.035 15.2904 30.137 15.2634 30.243 15.2414C30.278 15.2334 30.311 15.2274 30.346 15.2214C30.477 15.1994 30.609 15.1854 30.732 15.1924C31.235 15.2244 31.563 15.3464 31.906 15.5254C32.291 15.2784 32.862 14.9544 32.862 14.9544C32.422 14.9204 32.084 15.0554 32.084 15.0554C32.185 14.9204 32.794 14.2764 32.794 14.2764C32.322 14.4114 31.814 14.8494 31.814 14.8494C31.982 14.5784 32.592 13.8644 32.592 13.8644C32.152 14.0334 31.476 14.7034 31.476 14.7034C31.544 14.4324 32.017 13.7074 32.017 13.7074C31.645 13.8424 31.476 14.1174 31.476 14.1174C31.51 13.8124 31.611 13.4824 31.611 13.4824L31.201 13.9074L30.963 13.5194L30.759 13.8944L30.461 13.6254L30.361 14.1084C30.224 13.9064 29.818 13.6684 29.818 13.6684C30.089 13.9394 30.224 14.4804 30.224 14.4804C30.089 14.2094 29.649 14.0074 29.649 14.0074L29.886 14.5144C29.683 14.3114 29.108 14.1424 29.108 14.1424C29.345 14.2434 29.818 14.7844 29.818 14.7844C29.65 14.6494 29.108 14.5814 29.041 14.5814C29.345 14.6494 29.616 15.0204 29.616 15.0204L29.041 14.8514C29.041 14.8514 29.454 15.1284 29.713 15.3954C29.763 15.3754 29.812 15.3564 29.868 15.3374C29.89 15.3304 29.912 15.3244 29.935 15.3174L29.937 15.3214Z" fill="#F9D050"/>
<path d="M31.0378 18.3534C31.0378 18.6244 31.9168 18.5894 32.1198 18.5564C32.3228 18.5224 32.5258 18.5224 32.7618 18.4884C32.9988 18.4544 32.9308 18.6574 32.8298 18.7254C32.7288 18.7934 32.4228 18.7594 32.2208 18.6574C32.0178 18.5554 31.7128 18.7254 31.4418 18.7594C31.1718 18.7934 30.5628 18.7594 30.5628 18.7594C30.5628 18.7594 30.6638 18.6244 30.6978 18.3194C30.7318 18.0154 30.4278 18.0484 30.2578 17.9814C30.0878 17.9134 29.8178 17.9814 29.7158 18.1844C29.6138 18.3874 29.4788 18.7934 29.4788 18.7934C29.2758 18.7934 29.0728 18.5564 29.0388 18.3874C29.0038 18.2184 28.8098 17.9434 28.5988 18.1164C28.2268 18.4204 28.8358 18.5224 28.8398 18.6234C28.8398 18.7244 29.1098 19.1304 29.1778 19.1984C29.2458 19.2664 29.6168 19.3334 29.3798 19.4014C29.1428 19.4694 28.9738 19.5024 28.8728 19.4014C28.7718 19.2994 28.7038 19.4014 28.5688 19.5704C28.4348 19.7394 28.7038 19.9084 28.8398 19.8414C28.9758 19.7744 29.2798 19.8074 29.6178 19.6724C29.9568 19.5374 30.9708 19.2664 31.1398 19.1654C31.3088 19.0634 31.6128 19.0974 31.4428 19.1654C31.2738 19.2324 31.5778 19.4354 31.5108 19.4354C31.4418 19.4354 31.2058 19.5374 31.0708 19.4704C30.9358 19.4024 30.7668 19.6054 30.7668 19.7414C30.7668 19.8774 31.0038 19.7754 31.2398 19.7414C31.4768 19.7074 31.8818 19.5384 31.8818 19.5384C31.7468 19.4704 31.8478 19.2004 31.8478 19.2004C31.8478 19.2004 32.2208 19.3694 32.5238 19.3354C32.8278 19.3014 32.9968 19.4034 32.9298 19.5044C32.8618 19.6054 32.8288 19.7414 33.0988 19.7754C33.3688 19.8094 33.2668 19.5384 33.3018 19.3354C33.3348 19.1324 32.9288 19.0654 32.7258 19.0314C32.5218 18.9974 32.2858 18.8624 32.2858 18.8624C32.4888 18.8964 33.0978 18.8624 33.2668 18.7614C33.4358 18.6604 33.2668 18.4234 33.0638 18.2544C32.8618 18.0854 32.5228 18.3554 32.2858 18.3554C32.0488 18.3554 31.7108 18.4904 31.5088 18.4904C31.3068 18.4904 31.1698 18.4224 31.1698 18.3214C31.1698 18.2204 31.6098 18.2874 31.9148 18.2874C32.2198 18.2874 32.2188 18.0844 32.1178 17.9154C32.1068 17.8964 32.0768 17.9044 32.0568 17.8974C32.0178 17.8844 31.9748 17.8794 31.9148 17.8974C31.7288 17.9534 31.4868 18.1074 31.4408 18.0844C31.3728 18.0504 31.0358 18.0844 31.0358 18.3554L31.0378 18.3534Z" fill="#F9D050"/>
<path d="M30.703 22.157C30.405 22.157 30.193 21.926 29.982 21.832L29.957 21.85L30.17 22.448C30.376 22.56 30.582 22.73 30.809 22.775L31.009 22.094C30.904 22.131 30.801 22.157 30.704 22.157H30.703Z" fill="white"/>
<path d="M29.0961 24.5323C29.2911 24.4023 29.5251 24.1523 29.8181 24.1523C30.0211 24.1523 30.1591 24.2473 30.2931 24.3483L30.5251 23.6803L29.9381 23.2783C29.6631 23.2913 29.1711 23.6453 28.7721 23.6453C28.6741 23.6453 28.5701 23.6173 28.4941 23.5843C28.4961 23.5883 28.4971 23.5933 28.4991 23.5973C28.5151 23.6373 28.5421 23.6833 28.5631 23.7263C28.7301 24.0673 29.0341 24.4843 29.0961 24.5333V24.5323Z" fill="white"/>
<path d="M31.3938 24.3181L31.0208 24.0371L30.4648 24.4641C30.5668 24.5301 30.6748 24.5871 30.8208 24.5901C31.0708 24.5851 31.2248 24.4401 31.3938 24.3181Z" fill="white"/>
<path d="M31.5486 25.0929C31.2436 25.3099 30.8206 25.3359 30.8206 25.3359C30.8206 25.3359 30.3846 25.3129 30.0786 25.0849C30.0126 25.0359 29.9536 25.0009 29.8926 24.9619C30.0576 25.1019 30.2226 25.2809 30.3586 25.5199C30.3586 25.5199 30.3656 25.5239 30.3716 25.5269C30.4006 25.5409 30.5046 25.5799 30.7926 25.5799C31.1446 25.5799 31.2216 25.5019 31.2216 25.5019C31.2226 25.4999 31.2246 25.4979 31.2256 25.4959C31.3206 25.3249 31.4316 25.1989 31.5486 25.0929Z" fill="white"/>
<path d="M31.7846 21.7861C31.6116 21.7861 31.3106 21.9841 31.0156 22.0901L31.2056 22.7171C31.4336 22.5921 31.5946 22.3701 31.9046 22.3631L32.0686 21.8891C31.9626 21.8331 31.8646 21.7861 31.7846 21.7861Z" fill="white"/>
<path d="M28.5707 21.2616L28.8967 21.2686C28.9957 21.2326 29.0977 21.1806 29.2037 21.1136L29.4567 20.2536L29.6527 20.9016C29.6887 20.8936 29.7247 20.8736 29.7597 20.8736C30.0197 20.8736 30.2637 21.1296 30.5307 21.2496L30.8277 21.2406L30.7387 21.3026C30.7517 21.3026 30.7637 21.3126 30.7777 21.3126C31.2177 21.3126 31.3607 20.8736 31.8017 20.8736C32.0297 20.8736 32.1727 20.9906 32.3177 21.1046L32.5617 20.2716C32.3017 20.1556 32.1487 19.8916 31.8037 19.8916C31.3637 19.8916 31.2197 20.3306 30.7797 20.3306C30.4087 20.3306 30.0997 19.8916 29.7607 19.8916C29.4217 19.8916 29.0477 20.3306 28.7437 20.3306C28.4757 20.3306 28.2977 19.9896 28.0527 19.9086V20.8986C28.0527 20.8986 28.1327 20.9186 28.2097 20.9766C28.3307 21.0676 28.4427 21.1936 28.5707 21.2626V21.2616Z" fill="white"/>
<path d="M28.7402 22.767C28.7862 22.783 28.8312 22.799 28.8752 22.799C29.1302 22.799 29.4322 22.503 29.7222 22.404L29.4642 22.208L28.7402 22.767Z" fill="white"/>
<path d="M32.543 24.5342C32.53 24.5432 32.512 24.5502 32.498 24.5582C32.513 24.5502 32.528 24.5422 32.543 24.5342Z" fill="white"/>
<path d="M32.2451 22.464C32.4491 22.594 32.5951 22.799 32.8991 22.799C33.0421 22.799 33.1291 22.748 33.2051 22.685L32.5751 22.208L32.2441 22.463L32.2451 22.464Z" fill="white"/>
<path d="M32.8977 23.6446C32.5827 23.6446 32.2717 23.3886 32.0387 23.3086L31.5117 23.6756L31.6937 24.1846C31.7367 24.1746 31.7727 24.1536 31.8237 24.1536C32.1177 24.1536 32.3527 24.4036 32.5467 24.5336C32.6797 24.4606 32.8017 24.3746 32.9017 24.2526C32.9577 24.1836 33.0177 24.0866 33.0767 24.0046C33.2017 23.8296 33.3217 23.6256 33.4397 23.3916C33.2857 23.5006 33.1257 23.6446 32.8977 23.6446Z" fill="white"/>
<path d="M33.126 22.0191L33.325 22.5781C33.43 22.4691 33.539 22.3601 33.774 22.3601C33.788 22.3601 33.802 22.3601 33.816 22.3621C33.857 22.1951 33.879 22.0141 33.903 21.8311C33.834 21.8091 33.669 21.7861 33.606 21.7861C33.406 21.7861 33.275 21.9131 33.126 22.0191Z" fill="white"/>
<path d="M28.8799 22.1129C28.7989 22.1339 28.7169 22.1569 28.6399 22.1569C28.3279 22.1569 28.2469 21.9379 28.0859 21.8369C28.1059 22.0469 28.1349 22.2439 28.1699 22.4329C28.3329 22.5199 28.4999 22.6579 28.6629 22.7379L28.8799 22.1129Z" fill="white"/>
<path d="M33.6035 23.0642C33.6075 23.0542 33.6125 23.0462 33.6165 23.0352C33.6125 23.0452 33.6075 23.0542 33.6035 23.0642Z" fill="white"/>
<path d="M33.5443 19.9137C33.2323 20.0037 33.1803 20.3307 32.8013 20.3307C32.7113 20.3307 32.6413 20.3037 32.5723 20.2747L32.8753 21.2717L33.0053 21.2677C33.2023 21.1797 33.2923 20.9817 33.5143 20.9047C33.5713 20.8847 33.6203 20.8927 33.6603 20.8927C33.7283 20.8927 33.8273 20.8977 33.9683 20.9007C33.9713 21.0007 33.9683 21.0987 33.9673 21.1987C33.9673 21.1907 33.9693 21.1837 33.9693 21.1757V19.9197C33.7883 19.9167 33.5933 19.8997 33.5443 19.9137Z" fill="white"/>
<path d="M32.0963 17.0656C32.0793 17.0346 32.0643 17.0066 32.0423 16.9716C31.8493 16.9406 31.6433 16.9126 31.4303 16.8906C31.4203 16.8916 31.4123 16.8946 31.4023 16.8956C31.4243 16.9446 31.6483 17.4486 31.6293 17.5206C31.6303 17.5206 31.6313 17.5206 31.6323 17.5206C31.6323 17.5206 31.9453 17.6616 32.2553 17.7226C32.1833 17.6376 32.1753 17.4896 32.1523 17.3546C32.1333 17.2436 32.1133 17.1396 32.0963 17.0656Z" fill="white"/>
<path d="M29.3735 17.0557C29.0085 17.1227 28.9085 17.3217 28.9415 17.5217C28.9745 17.7217 29.2075 17.8867 29.4395 17.7877C29.6715 17.6877 29.7795 17.6387 29.8725 17.6217C29.8875 17.6187 29.9035 17.6147 29.9195 17.6117C29.6695 17.4617 29.5135 17.2917 29.3735 17.0557Z" fill="white"/>
<path d="M30.5235 16.873C30.3705 16.887 30.2135 16.908 30.0645 16.931C30.1385 17.01 30.2085 17.104 30.2615 17.22C30.3285 17.369 30.3735 17.442 30.3785 17.496L30.3765 17.497C30.3865 17.494 30.4045 17.489 30.4045 17.489C30.4045 17.489 30.7565 17.551 30.9585 17.491C30.8265 17.307 30.7605 17.032 30.6705 16.894C30.6165 16.888 30.5715 16.881 30.5235 16.873Z" fill="white"/>
<path d="M31.0039 16.9166C30.8789 16.9126 30.7709 16.9046 30.6699 16.8936C30.7599 17.0316 30.8259 17.3066 30.9579 17.4906C30.9579 17.4916 30.9589 17.4936 30.9599 17.4946C31.0119 17.5266 31.3469 17.6756 31.6319 17.5316C31.6319 17.5316 31.6299 17.5236 31.6299 17.5226C31.6489 17.4506 31.4249 16.9466 31.4029 16.8976C31.2819 16.9126 31.1519 16.9206 31.0039 16.9166Z" fill="#073163"/>
<path d="M30.2612 17.2199C30.2082 17.1039 30.1382 17.0099 30.0642 16.9309C30.0622 16.9289 30.0612 16.9249 30.0592 16.9229C30.0382 16.9279 30.0122 16.9279 29.9902 16.9319C29.6872 16.9799 29.4332 17.0319 29.3672 17.0459C29.3692 17.0499 29.3722 17.0519 29.3742 17.0549C29.5142 17.2909 29.6692 17.4609 29.9192 17.6109C29.9702 17.6419 30.3682 17.5249 30.3762 17.4959C30.3762 17.4959 30.3782 17.4959 30.3782 17.4949C30.3732 17.4419 30.3272 17.3689 30.2612 17.2199Z" fill="#073163"/>
<path d="M32.5597 17.2194C32.3907 17.1184 32.1877 17.3214 32.1527 17.1854C32.1457 17.1584 32.1207 17.1124 32.0957 17.0654C32.1117 17.1394 32.1337 17.2424 32.1527 17.3544C32.1757 17.4894 32.1837 17.6374 32.2557 17.7224C32.2557 17.7224 32.2557 17.7244 32.2567 17.7254C32.4297 17.7804 32.6057 17.7744 32.7287 17.7254C32.9837 17.6244 32.8887 17.3414 32.7557 17.1854C32.7337 17.2594 32.6627 17.2814 32.5597 17.2194Z" fill="#073163"/>
<path d="M29.9818 21.8319L30.7407 21.3029L30.8298 21.2409L30.5317 21.2489L29.7657 21.2709L29.6537 20.9009L29.4578 20.2529L29.2048 21.1139L29.1577 21.2739L28.8977 21.2689L28.5717 21.2619L28.0938 21.2519L28.9718 21.8539L28.8818 22.1129L28.6647 22.7379L28.6227 22.8589L28.7417 22.7669L29.4657 22.2079L29.7237 22.4039L30.3137 22.8509L30.1698 22.4479L29.9567 21.8489L29.9818 21.8319Z" fill="#059334"/>
<path d="M31.2051 21.2519L32.0831 21.8539L32.0711 21.8889L31.9071 22.3629L31.7351 22.8589L32.2461 22.4639L32.5771 22.2079L33.2071 22.6859L33.4251 22.8509L33.3281 22.5779L33.1281 22.0189L33.0681 21.8489L33.9411 21.2409L33.0071 21.2679L32.8781 21.2709L32.5751 20.2739L32.5681 20.2529L32.5631 20.2709L32.3191 21.1039L32.2691 21.2739L31.2051 21.2519Z" fill="#059334"/>
<path d="M30.2954 24.3491L30.1794 24.6841L30.4664 24.4631L31.0224 24.0361L31.3954 24.3181L31.8704 24.6771L31.6944 24.1841L31.5134 23.6751L32.0394 23.3081L32.3864 23.0671L31.3224 23.0971L31.2074 22.7171L31.0174 22.0901L31.0134 22.0781L31.0084 22.0941L30.8094 22.7751L30.7144 23.1001L29.6504 23.0781L29.9414 23.2781L30.5284 23.6801L30.2954 24.3491Z" fill="#059334"/>
<path d="M28.5046 15.9352C28.5386 16.0032 28.8436 16.0702 28.9786 15.9692C29.1126 15.8682 29.1466 16.2732 29.1466 16.2732C29.1466 16.2732 28.9786 16.3412 28.9106 16.5432C28.8426 16.7462 29.0456 16.9152 29.3836 16.9492C29.6256 16.9732 29.8206 16.9642 29.9916 16.9322C30.0136 16.9282 30.0396 16.9282 30.0606 16.9232C30.1506 16.9022 30.2316 16.8712 30.3076 16.8322C29.8666 16.7232 29.7746 16.5402 29.6526 16.4432C29.4836 16.3082 29.3816 15.9702 29.3816 15.8682C29.3816 15.7742 29.2186 15.6792 29.3296 15.5852C29.1046 15.4992 29.1606 15.3262 28.8086 15.3262C28.3686 15.3262 28.2676 15.6992 28.2676 15.6992C28.2676 15.6992 28.4706 15.8682 28.5046 15.9352Z" fill="#059334"/>
<path d="M32.3945 16.4254C32.5085 16.4354 32.6625 16.4354 32.7635 16.3754C32.9325 16.2744 33.0665 16.0704 32.8975 16.1044C32.8325 16.1174 32.7385 16.1274 32.6375 16.1304C32.6225 16.1754 32.5755 16.2244 32.5265 16.2744C32.5005 16.3004 32.4595 16.3564 32.3945 16.4254Z" fill="#059334"/>
<path d="M32.0451 16.9734C32.0661 17.0084 32.0821 17.0364 32.0991 17.0674C32.1241 17.1144 32.1491 17.1604 32.1561 17.1874C32.1911 17.3224 32.3941 17.1194 32.5631 17.2214C32.6661 17.2834 32.7371 17.2624 32.7591 17.1884C32.7731 17.1414 32.7711 17.0774 32.7321 16.9854C32.6591 16.8154 32.4501 16.5984 32.3361 16.4854C32.2391 16.5784 32.1051 16.6814 31.9121 16.7654C31.9571 16.8324 32.0011 16.9024 32.0461 16.9744L32.0451 16.9734Z" fill="#059334"/>
<path d="M32.3916 15.9161C32.3776 15.9021 32.3626 15.8851 32.3496 15.8691C32.3636 15.8851 32.3786 15.9021 32.3916 15.9161Z" fill="#059334"/>
<path d="M29.9381 15.3213C29.9151 15.3283 29.8931 15.3343 29.8711 15.3413C29.8921 15.3343 29.9161 15.3283 29.9381 15.3213Z" fill="#059334"/>
<path d="M30.3471 15.2217C30.3121 15.2277 30.2791 15.2337 30.2441 15.2417C30.2781 15.2347 30.3131 15.2277 30.3471 15.2217Z" fill="#059334"/>
<path d="M29.3823 15.8683C29.3823 15.9703 29.4833 16.3073 29.6533 16.4433C29.7753 16.5403 29.8673 16.7243 30.3083 16.8323C30.3713 16.8483 30.4463 16.8613 30.5253 16.8733C30.5733 16.8803 30.6183 16.8883 30.6723 16.8943C30.7723 16.9043 30.8813 16.9133 31.0063 16.9173C31.1543 16.9213 31.2853 16.9133 31.4063 16.8983C31.4163 16.8973 31.4243 16.8943 31.4343 16.8933C31.6223 16.8673 31.7813 16.8213 31.9123 16.7643C32.1043 16.6803 32.2393 16.5773 32.3363 16.4843C32.3573 16.4643 32.3803 16.4433 32.3973 16.4253C32.4613 16.3563 32.5033 16.3003 32.5293 16.2743C32.5783 16.2253 32.6263 16.1763 32.6403 16.1303C32.6553 16.0823 32.6333 16.0383 32.5293 16.0033C32.4933 15.9913 32.4703 15.9723 32.4453 15.9553C32.4583 15.9653 32.4683 15.9773 32.4853 15.9853C32.2433 16.3453 31.7463 16.4783 31.3793 16.5783C31.0063 16.6803 30.3653 16.5443 30.1293 16.3413C29.8923 16.1383 29.5883 15.9693 29.5883 15.9693C29.5883 15.9693 29.5883 15.6823 29.6043 15.4443C29.4873 15.4943 29.3923 15.5383 29.3503 15.5643C29.3383 15.5713 29.3403 15.5783 29.3313 15.5853C29.2213 15.6793 29.3823 15.7733 29.3823 15.8683Z" fill="#059334"/>
<path d="M29.5859 15.9696C29.5859 15.9696 29.8899 16.1386 30.1269 16.3416C30.3629 16.5446 31.0039 16.6796 31.3769 16.5786C31.7439 16.4776 32.2409 16.3456 32.4829 15.9856C32.4669 15.9776 32.4569 15.9656 32.4429 15.9556C32.4259 15.9426 32.4069 15.9316 32.3919 15.9166C32.3779 15.9026 32.3629 15.8856 32.3499 15.8696C32.3179 15.8306 32.2779 15.7876 32.2279 15.7396C32.2159 15.7286 32.2089 15.7186 32.1949 15.7066C32.1429 15.6616 32.0779 15.6146 31.9859 15.5646C31.9599 15.5506 31.9349 15.5396 31.9099 15.5256C31.5679 15.3456 31.2389 15.2236 30.7359 15.1926H30.7349C30.6119 15.1846 30.4809 15.1996 30.3489 15.2216C30.3139 15.2276 30.2799 15.2346 30.2459 15.2416C30.1399 15.2636 30.0379 15.2906 29.9399 15.3216C29.9179 15.3286 29.8939 15.3346 29.8729 15.3416C29.8169 15.3606 29.7679 15.3796 29.7179 15.3996C29.6799 15.4146 29.6379 15.4296 29.6039 15.4436V15.4456C29.5879 15.6846 29.5879 15.9706 29.5879 15.9706L29.5859 15.9696Z" fill="#00493D"/>
</svg>
