<svg width="41" height="41" viewBox="0 0 41 41" fill="none" xmlns="http://www.w3.org/2000/svg">
<path d="M34.5 8.5H6.5C4.29086 8.5 2.5 10.2909 2.5 12.5V28.5C2.5 30.7091 4.29086 32.5 6.5 32.5H34.5C36.7091 32.5 38.5 30.7091 38.5 28.5V12.5C38.5 10.2909 36.7091 8.5 34.5 8.5Z" fill="#00AEC5"/>
<path d="M4.25617 30.8515C4.33417 30.9475 4.56317 30.7565 4.56317 30.7565C4.56317 30.7565 4.79217 30.9475 4.87017 30.8515C4.96417 30.7355 4.70017 30.2745 4.56317 29.9365C4.42517 30.2745 4.16217 30.7355 4.25617 30.8515Z" fill="#00AEC5"/>
<path d="M16.2769 20.7692C16.2699 20.7632 16.2629 20.7502 16.2559 20.7422C16.2609 20.7512 16.2699 20.7712 16.2729 20.7762C16.2749 20.7792 16.2749 20.7702 16.2769 20.7692Z" fill="#00AEC5"/>
<path d="M23.1619 26.249C23.1619 26.249 23.1379 26.249 23.1289 26.249C23.1349 26.252 23.1449 26.252 23.1499 26.256C23.1529 26.253 23.1589 26.252 23.1619 26.249Z" fill="#00AEC5"/>
<path d="M27.7246 20.3725C27.7596 20.2165 27.7866 20.0585 27.8056 19.8975C27.7876 20.0585 27.7586 20.2165 27.7246 20.3725Z" fill="#00AEC5"/>
<path d="M21.579 25.8008L21.5 25.8168H21.565C21.571 25.8098 21.572 25.8078 21.579 25.8008Z" fill="#00AEC5"/>
<path d="M27.4551 21.2106C27.4821 21.1476 27.5071 21.0826 27.5321 21.0176C27.5081 21.0826 27.4821 21.1466 27.4551 21.2106Z" fill="#00AEC5"/>
<path d="M20.0911 25.377L20.0801 25.379L20.0851 25.381L20.0911 25.377Z" fill="#00AEC5"/>
<path d="M29.3535 19.84L29.3575 19.837V19.835L29.3535 19.84Z" fill="#00AEC5"/>
<path d="M21.6573 25.2502L21.6632 25.2432L21.6562 25.2472L21.6573 25.2502Z" fill="#00AEC5"/>
<path d="M5.95758 24.7032C5.68058 24.7172 5.37058 24.8922 5.26758 25.2132C5.28858 25.2802 5.31658 25.3432 5.31658 25.4222L5.26758 27.2942C5.36358 27.2352 5.51158 27.0362 5.51158 26.8562C5.51158 26.7232 5.43258 26.6542 5.35858 26.6242C5.66258 26.6552 5.79358 26.5352 5.85858 26.3142C5.68958 26.3712 5.42158 26.3762 5.42958 26.1852C5.42958 26.1852 5.44258 25.6752 5.44658 25.5452C5.51558 25.6422 5.63458 25.6682 5.78458 25.6682C5.99058 25.6682 5.96858 25.8062 5.93358 25.9262C6.04258 25.8882 6.15358 25.8192 6.11258 25.6552C6.20458 25.6532 6.26558 25.6072 6.31458 25.5452C6.25158 25.4752 6.18458 25.4412 6.11258 25.4322C6.13258 25.3272 6.05958 25.2272 5.93358 25.1712C5.97458 25.2782 5.98658 25.4492 5.78458 25.4492C5.69958 25.4492 5.64058 25.3852 5.64058 25.2772C5.64058 25.1092 5.82358 24.9742 6.00258 24.9742C6.15158 24.9742 6.41458 25.0742 6.41458 25.3592C6.41458 25.4722 6.38658 25.5772 6.33958 25.6752C6.12058 26.1402 5.41758 27.6192 5.26758 27.9292C5.40358 28.2122 5.31458 28.5272 5.26758 28.6142C5.31458 28.7012 5.47058 28.8722 5.69658 28.8982C5.71258 28.9042 5.73558 28.9072 5.75458 28.9122C5.78958 28.9042 5.82158 28.8932 5.85858 28.8872C6.10658 28.8452 6.50958 28.9052 6.50958 28.9052C6.46958 28.8332 6.40058 28.7812 6.29358 28.7512C6.29158 28.7522 6.29158 28.7542 6.28958 28.7562V28.7492C6.28958 28.7492 6.29258 28.7502 6.29358 28.7512C6.45558 28.6322 6.53958 28.4602 6.53958 28.3002C6.53958 27.9132 6.38358 27.8202 6.38358 27.2632C6.38358 27.0912 6.45058 26.9192 6.58758 26.7592C6.21258 26.8352 6.06458 27.1582 6.18558 27.3922C6.10858 27.4242 6.05358 27.3742 5.99458 27.3472C5.99158 27.4762 6.04458 27.5342 6.08258 27.5992C6.08258 27.5992 6.01758 27.5962 5.95958 27.5732C5.96758 27.6562 6.00658 27.7312 6.08258 27.7672C5.75958 27.7152 5.58858 27.9222 5.58858 28.1682C5.58858 28.4152 5.80958 28.4802 5.95358 28.4392C5.95958 28.4732 5.95858 28.5102 5.93958 28.5502C6.03158 28.5292 6.07358 28.4782 6.04258 28.3742C6.09558 28.3652 6.13758 28.3382 6.17358 28.3032C6.13758 28.2622 6.09058 28.2362 6.04258 28.2252C6.07358 28.1402 6.01858 28.0722 5.95158 28.0572C5.95158 28.0572 5.98958 28.2382 5.85458 28.2382C5.80158 28.2382 5.76358 28.2052 5.76358 28.1282C5.76358 28.0182 5.82658 27.9542 5.98558 27.9542C6.11358 27.9542 6.23858 28.0602 6.23858 28.2992C6.23858 28.4962 6.04058 28.6682 5.85858 28.6642C5.65958 28.6592 5.46858 28.5002 5.46858 28.3052C5.46858 28.1802 5.48058 28.0942 5.51758 28.0182C5.81258 27.4122 6.57258 25.8472 6.57258 25.8472C6.66658 25.6532 6.70358 25.5262 6.70358 25.3242C6.70358 24.9792 6.47058 24.7182 6.03958 24.7012C6.02458 24.7012 6.01358 24.7082 5.99858 24.7082C5.98658 24.7082 5.97358 24.7022 5.96158 24.7012L5.95758 24.7032Z" fill="#FCC600"/>
<path d="M6.28711 28.757L6.29111 28.752L6.28711 28.75V28.757Z" fill="#FCC600"/>
<path d="M4.24719 28.75L4.24219 28.752L4.24719 28.757V28.75Z" fill="#FCC600"/>
<path d="M4.67798 28.8881C4.71498 28.8941 4.74698 28.9051 4.78198 28.9131C4.79998 28.9081 4.82298 28.9051 4.83998 28.8991C5.06498 28.8731 5.22198 28.7021 5.26898 28.6151C5.22198 28.5281 5.13298 28.2131 5.26898 27.9301C5.11898 27.6201 4.41598 26.1411 4.19698 25.6761C4.14998 25.5771 4.12198 25.4731 4.12198 25.3601C4.12198 25.0751 4.38498 24.9751 4.53398 24.9751C4.71298 24.9751 4.89598 25.1101 4.89598 25.2781C4.89598 25.3851 4.83698 25.4501 4.75198 25.4501C4.55098 25.4501 4.56198 25.2791 4.60298 25.1721C4.47698 25.2281 4.40398 25.3281 4.42398 25.4331C4.35298 25.4431 4.28498 25.4761 4.22198 25.5461C4.27198 25.6081 4.33198 25.6541 4.42398 25.6561C4.38298 25.8201 4.49398 25.8891 4.60298 25.9271C4.56798 25.8071 4.54598 25.6691 4.75198 25.6691C4.90298 25.6691 5.02098 25.6431 5.08998 25.5461C5.09398 25.6751 5.10598 26.1861 5.10598 26.1861C5.11498 26.3771 4.84698 26.3721 4.67698 26.3151C4.74098 26.5361 4.87198 26.6561 5.17698 26.6251C5.10298 26.6561 5.02398 26.7251 5.02398 26.8571C5.02398 27.0371 5.17198 27.2361 5.26798 27.2951L5.21898 25.4231C5.21898 25.3431 5.24598 25.2801 5.26798 25.2141C5.16498 24.8931 4.85498 24.7171 4.57698 24.7041C4.56498 24.7041 4.55198 24.7111 4.53898 24.7111C4.52298 24.7111 4.51298 24.7051 4.49798 24.7041C4.06798 24.7221 3.83398 24.9831 3.83398 25.3271C3.83398 25.5301 3.87098 25.6571 3.96498 25.8501C3.96498 25.8501 4.72398 27.4151 5.01998 28.0211C5.05698 28.0961 5.06898 28.1821 5.06898 28.3081C5.06898 28.5031 4.87898 28.6621 4.67898 28.6671C4.49698 28.6711 4.29898 28.4991 4.29898 28.3021C4.29898 28.0631 4.42298 27.9571 4.55198 27.9571C4.70998 27.9571 4.77398 28.0211 4.77398 28.1311C4.77398 28.2081 4.73598 28.2411 4.68298 28.2411C4.54798 28.2411 4.58598 28.0601 4.58598 28.0601C4.51898 28.0751 4.46398 28.1431 4.49498 28.2281C4.44598 28.2391 4.39998 28.2651 4.36398 28.3061C4.39998 28.3411 4.44198 28.3681 4.49498 28.3771C4.46398 28.4811 4.50598 28.5321 4.59798 28.5531C4.57998 28.5131 4.57898 28.4761 4.58398 28.4421C4.72898 28.4831 4.94898 28.4181 4.94898 28.1711C4.94898 27.9251 4.77798 27.7191 4.45498 27.7701C4.53198 27.7341 4.57098 27.6591 4.57798 27.5761C4.51998 27.5991 4.45498 27.6021 4.45498 27.6021C4.49298 27.5361 4.54498 27.4791 4.54198 27.3501C4.48298 27.3771 4.42698 27.4271 4.35098 27.3951C4.47098 27.1611 4.32398 26.8391 3.94898 26.7621C4.08598 26.9211 4.15298 27.0941 4.15298 27.2661C4.15298 27.8221 3.99798 27.9161 3.99798 28.3031C3.99798 28.4631 4.08098 28.6351 4.24398 28.7541C4.24598 28.7541 4.24698 28.7531 4.24798 28.7521V28.7591C4.24798 28.7591 4.24598 28.7561 4.24398 28.7541C4.13698 28.7841 4.06798 28.8361 4.02798 28.9081C4.02798 28.9081 4.43098 28.8481 4.67898 28.8901L4.67798 28.8881Z" fill="#FCC600"/>
<path d="M5.26761 28.6147C5.31461 28.5277 5.40361 28.2127 5.26761 27.9297C5.13161 28.2127 5.22061 28.5277 5.26761 28.6147Z" fill="#FCC600"/>
<path d="M5.26775 27.2949L5.31675 25.4229C5.31675 25.3429 5.28975 25.2799 5.26775 25.2139C5.24675 25.2809 5.21875 25.3439 5.21875 25.4229L5.26775 27.2949Z" fill="#FCC600"/>
<path d="M5.75358 28.9132C5.53958 28.9602 5.36158 29.0402 5.26758 29.2082C5.31358 29.2902 5.34558 29.3862 5.34558 29.5172C5.34558 29.5852 5.31358 29.6842 5.26758 29.7962C5.40558 30.1342 5.66858 30.5952 5.57458 30.7112C5.49658 30.8072 5.26758 30.6162 5.26758 30.6162L5.39758 30.7772C5.39758 30.7772 5.34658 30.8352 5.26758 30.8912C5.34058 30.9432 5.43858 30.9942 5.54458 30.9942C5.71558 30.9942 5.88958 30.8872 5.88958 30.6952C5.88958 30.4392 5.47158 29.7852 5.47158 29.4972C5.47158 29.2812 5.63058 29.1682 5.84158 29.1742C6.07458 29.1812 6.25258 29.2892 6.25258 29.5082C6.25258 29.7452 6.13158 29.8402 5.98258 29.8462C5.83258 29.8522 5.76758 29.7512 5.76758 29.6782C5.76758 29.5942 5.81958 29.5762 5.87858 29.5762C6.00558 29.5762 5.95658 29.7762 5.95658 29.7762C6.03558 29.7312 6.08958 29.6752 6.04158 29.5762C6.10458 29.5782 6.16158 29.5512 6.19758 29.5042C6.16158 29.4622 6.10858 29.4392 6.04158 29.4332C6.08058 29.3272 6.02458 29.2762 5.93858 29.2532C5.96158 29.3002 5.97358 29.3632 5.95158 29.4102C5.91958 29.3872 5.86358 29.3712 5.82458 29.3712C5.70658 29.3712 5.58558 29.4942 5.58558 29.6662C5.58558 29.8942 5.77858 30.1102 6.09258 30.0302C5.98358 30.1032 5.93958 30.1812 5.93358 30.2542C6.00258 30.2402 6.03458 30.2262 6.07858 30.2492C6.02458 30.3202 5.98458 30.4022 6.00958 30.4732C6.05358 30.4322 6.10358 30.4202 6.15958 30.4282C6.06158 30.6852 6.23458 31.0052 6.58358 31.0402C6.58358 31.0402 6.38658 30.7362 6.38658 30.4972C6.38658 30.0672 6.54458 29.9092 6.54458 29.5272C6.54458 29.2792 6.39958 29.1202 6.25658 29.0462C6.38458 29.0382 6.43458 29.0082 6.51058 28.9072C6.28058 28.9722 5.95958 28.9732 5.75558 28.9142L5.75358 28.9132Z" fill="#FCC600"/>
<path d="M5.85791 28.888C5.82091 28.894 5.78891 28.905 5.75391 28.913C5.95791 28.972 6.27891 28.971 6.50891 28.906C6.50891 28.906 6.10591 28.846 5.85791 28.888Z" fill="#FCC600"/>
<path d="M5.13713 30.7763L5.26713 30.6153C5.26713 30.6153 5.03812 30.8063 4.96012 30.7103C4.86612 30.5943 5.12913 30.1333 5.26713 29.7953C5.22113 29.6833 5.18913 29.5843 5.18913 29.5163C5.18913 29.3853 5.22113 29.2893 5.26713 29.2073C5.17313 29.0393 4.99513 28.9593 4.78113 28.9123C4.57713 28.9713 4.25612 28.9703 4.02612 28.9053C4.10212 29.0063 4.15112 29.0363 4.28012 29.0443C4.13712 29.1173 3.99213 29.2763 3.99213 29.5253C3.99213 29.9073 4.15013 30.0653 4.15013 30.4953C4.15013 30.7353 3.95312 31.0383 3.95312 31.0383C4.30213 31.0043 4.47513 30.6833 4.37713 30.4263C4.43213 30.4183 4.48312 30.4303 4.52712 30.4713C4.55212 30.4003 4.51213 30.3183 4.45813 30.2473C4.50213 30.2243 4.53413 30.2373 4.60313 30.2523C4.59613 30.1793 4.55212 30.1013 4.44412 30.0283C4.75812 30.1093 4.95113 29.8923 4.95113 29.6643C4.95113 29.4923 4.83012 29.3693 4.71212 29.3693C4.67312 29.3693 4.61712 29.3853 4.58512 29.4083C4.56312 29.3613 4.57412 29.2983 4.59812 29.2513C4.51212 29.2743 4.45613 29.3253 4.49513 29.4313C4.42913 29.4373 4.37512 29.4603 4.33912 29.5023C4.37512 29.5493 4.43113 29.5753 4.49513 29.5743C4.44613 29.6733 4.50112 29.7293 4.58012 29.7743C4.58012 29.7743 4.53012 29.5743 4.65812 29.5743C4.71612 29.5743 4.76912 29.5923 4.76912 29.6763C4.76912 29.7493 4.70412 29.8513 4.55412 29.8443C4.40512 29.8383 4.28413 29.7423 4.28413 29.5063C4.28413 29.2883 4.46213 29.1793 4.69513 29.1723C4.90613 29.1653 5.06512 29.2793 5.06512 29.4953C5.06512 29.7833 4.64712 30.4373 4.64712 30.6933C4.64712 30.8853 4.82113 30.9923 4.99213 30.9923C5.09813 30.9923 5.19612 30.9413 5.26912 30.8893C5.19012 30.8333 5.13912 30.7753 5.13912 30.7753L5.13713 30.7763Z" fill="#FCC600"/>
<path d="M4.78039 28.913C4.74539 28.905 4.71339 28.894 4.67639 28.888C4.42839 28.846 4.02539 28.906 4.02539 28.906C4.25539 28.971 4.57639 28.972 4.78039 28.913Z" fill="#FCC600"/>
<path d="M5.26745 29.795C5.31345 29.683 5.34545 29.584 5.34545 29.516C5.34545 29.385 5.31345 29.289 5.26745 29.207C5.22145 29.289 5.18945 29.385 5.18945 29.516C5.18945 29.584 5.22145 29.683 5.26745 29.795Z" fill="#FCC600"/>
<path d="M6.28711 20.3517L6.29111 20.3467L6.28711 20.3447V20.3517Z" fill="#FCC600"/>
<path d="M5.95658 16.2989C5.67958 16.3129 5.37158 16.4879 5.26758 16.8089C5.28858 16.8759 5.31658 16.9389 5.31658 17.0179L5.26758 18.8899C5.36358 18.8309 5.51158 18.6319 5.51158 18.4519C5.51158 18.3189 5.43258 18.2499 5.35858 18.2189C5.66258 18.2489 5.79358 18.1299 5.85858 17.9089C5.68958 17.9659 5.42158 17.9719 5.42958 17.7799C5.42958 17.7799 5.44258 17.2699 5.44658 17.1399C5.51558 17.2369 5.63458 17.2629 5.78458 17.2629C5.99058 17.2629 5.96858 17.4009 5.93358 17.5219C6.04258 17.4829 6.15358 17.4139 6.11258 17.2509C6.20458 17.2489 6.26558 17.2029 6.31458 17.1409C6.25158 17.0709 6.18458 17.0379 6.11258 17.0279C6.13258 16.9219 6.05958 16.8219 5.93358 16.7659C5.97458 16.8729 5.98658 17.0439 5.78458 17.0439C5.69958 17.0439 5.64058 16.9799 5.64058 16.8729C5.64058 16.7039 5.82358 16.5689 6.00258 16.5689C6.15158 16.5689 6.41458 16.6679 6.41458 16.9529C6.41458 17.0659 6.38658 17.1709 6.33958 17.2689C6.12058 17.7339 5.41758 19.2139 5.26758 19.5239C5.40358 19.8069 5.31458 20.1209 5.26758 20.2079C5.31458 20.2949 5.47058 20.4669 5.69658 20.4919C5.70458 20.4949 5.71658 20.4959 5.72558 20.4989C5.92658 20.4319 6.26858 20.4309 6.50858 20.4989C6.46858 20.4269 6.39858 20.3739 6.29158 20.3449C6.28958 20.3459 6.28958 20.3479 6.28758 20.3489V20.3429C6.28758 20.3429 6.28958 20.3439 6.29158 20.3449C6.45458 20.2259 6.53758 20.0549 6.53758 19.8939C6.53758 19.5079 6.38158 19.4139 6.38158 18.8569C6.38158 18.6849 6.44858 18.5129 6.58558 18.3529C6.21058 18.4289 6.06258 18.7509 6.18358 18.9859C6.10658 19.0169 6.05158 18.9669 5.99258 18.9409C5.98958 19.0699 6.04258 19.1269 6.08058 19.1929C6.08058 19.1929 6.01558 19.1899 5.95758 19.1669C5.96558 19.2499 6.00458 19.3239 6.08058 19.3609C5.75758 19.3089 5.58658 19.5159 5.58658 19.7609C5.58658 20.0079 5.80758 20.0729 5.95158 20.0319C5.95758 20.0669 5.95658 20.1039 5.93758 20.1429C6.02958 20.1219 6.07158 20.0709 6.04058 19.9669C6.09358 19.9579 6.13558 19.9309 6.17158 19.8959C6.13558 19.8549 6.08858 19.8289 6.04058 19.8179C6.07158 19.7329 6.01658 19.6649 5.94958 19.6509C5.94958 19.6509 5.98758 19.8319 5.85258 19.8319C5.79958 19.8319 5.76158 19.7989 5.76158 19.7219C5.76158 19.6119 5.82458 19.5479 5.98358 19.5479C6.11158 19.5479 6.23658 19.6549 6.23658 19.8929C6.23658 20.0899 6.03858 20.2619 5.85658 20.2579C5.65758 20.2529 5.46658 20.0939 5.46658 19.8999C5.46658 19.7739 5.47858 19.6879 5.51558 19.6119C5.81058 19.0069 6.57058 17.4419 6.57058 17.4419C6.66458 17.2479 6.70158 17.1209 6.70158 16.9189C6.70158 16.5749 6.46858 16.3139 6.03958 16.2959C6.02358 16.2959 6.01258 16.3029 5.99658 16.3029C5.98358 16.3029 5.97058 16.2969 5.95758 16.2959L5.95658 16.2989Z" fill="#FCC600"/>
<path d="M4.80998 20.5008C4.81898 20.4978 4.83098 20.4968 4.83898 20.4938C5.06398 20.4688 5.22098 20.2968 5.26798 20.2098C5.22098 20.1228 5.13198 19.8088 5.26798 19.5258C5.11798 19.2158 4.41498 17.7358 4.19598 17.2708C4.14898 17.1728 4.12098 17.0678 4.12098 16.9548C4.12098 16.6698 4.38398 16.5708 4.53298 16.5708C4.71198 16.5708 4.89498 16.7058 4.89498 16.8748C4.89498 16.9818 4.83598 17.0458 4.75098 17.0458C4.54998 17.0458 4.56098 16.8758 4.60198 16.7678C4.47598 16.8238 4.40298 16.9238 4.42298 17.0298C4.35198 17.0398 4.28398 17.0728 4.22098 17.1428C4.27098 17.2048 4.33098 17.2508 4.42298 17.2528C4.38198 17.4168 4.49298 17.4858 4.60198 17.5238C4.56698 17.4038 4.54498 17.2648 4.75098 17.2648C4.90198 17.2648 5.01998 17.2388 5.08898 17.1418C5.09298 17.2708 5.10498 17.7818 5.10498 17.7818C5.11398 17.9738 4.84598 17.9678 4.67598 17.9108C4.73998 18.1318 4.87098 18.2508 5.17598 18.2208C5.10198 18.2518 5.02298 18.3198 5.02298 18.4538C5.02298 18.6338 5.17098 18.8328 5.26698 18.8918L5.21798 17.0198C5.21798 16.9398 5.24498 16.8768 5.26698 16.8108C5.16398 16.4898 4.85598 16.3148 4.57798 16.3008C4.56498 16.3008 4.55198 16.3078 4.53898 16.3078C4.52298 16.3078 4.51198 16.3018 4.49598 16.3008C4.06698 16.3188 3.83398 16.5798 3.83398 16.9238C3.83398 17.1258 3.87098 17.2528 3.96498 17.4468C3.96498 17.4468 4.72398 19.0118 5.01998 19.6168C5.05698 19.6928 5.06898 19.7788 5.06898 19.9048C5.06898 20.0988 4.87898 20.2588 4.67898 20.2628C4.49698 20.2668 4.29898 20.0948 4.29898 19.8978C4.29898 19.6588 4.42298 19.5528 4.55198 19.5528C4.70998 19.5528 4.77398 19.6168 4.77398 19.7268C4.77398 19.8038 4.73598 19.8368 4.68298 19.8368C4.54798 19.8368 4.58598 19.6558 4.58598 19.6558C4.51898 19.6698 4.46398 19.7388 4.49498 19.8228C4.44598 19.8338 4.39998 19.8598 4.36398 19.9008C4.39998 19.9358 4.44198 19.9628 4.49498 19.9718C4.46398 20.0758 4.50598 20.1268 4.59798 20.1478C4.57998 20.1078 4.57898 20.0718 4.58398 20.0368C4.72898 20.0778 4.94898 20.0128 4.94898 19.7658C4.94898 19.5208 4.77798 19.3138 4.45498 19.3658C4.53198 19.3298 4.57098 19.2548 4.57798 19.1718C4.51998 19.1938 4.45498 19.1978 4.45498 19.1978C4.49298 19.1318 4.54498 19.0748 4.54198 18.9458C4.48298 18.9728 4.42698 19.0228 4.35098 18.9908C4.47098 18.7558 4.32398 18.4338 3.94898 18.3578C4.08598 18.5178 4.15298 18.6898 4.15298 18.8618C4.15298 19.4178 3.99798 19.5118 3.99798 19.8988C3.99798 20.0598 4.08098 20.2308 4.24398 20.3498C4.24598 20.3498 4.24598 20.3488 4.24798 20.3478V20.3538C4.24798 20.3538 4.24598 20.3508 4.24398 20.3498C4.13698 20.3788 4.06698 20.4318 4.02698 20.5038C4.26698 20.4358 4.60898 20.4368 4.80998 20.5038V20.5008Z" fill="#FCC600"/>
<path d="M4.24619 20.3447L4.24219 20.3467L4.24619 20.3517V20.3447Z" fill="#FCC600"/>
<path d="M5.26761 20.2104C5.31461 20.1234 5.40361 19.8094 5.26761 19.5264C5.13161 19.8094 5.22061 20.1234 5.26761 20.2104Z" fill="#FCC600"/>
<path d="M5.26775 18.8906L5.31675 17.0186C5.31675 16.9386 5.28975 16.8756 5.26775 16.8096C5.24675 16.8766 5.21875 16.9396 5.21875 17.0186L5.26775 18.8906Z" fill="#FCC600"/>
<path d="M4.57803 16.2989C4.85603 16.2839 5.16403 16.1089 5.26703 15.7879C5.24603 15.7209 5.21803 15.6579 5.21803 15.5789L5.26703 13.7069C5.17103 13.7659 5.02303 13.9649 5.02303 14.1449C5.02303 14.2779 5.10203 14.3469 5.17603 14.3779C4.87203 14.3469 4.74103 14.4669 4.67603 14.6879C4.84503 14.6309 5.11303 14.6249 5.10503 14.8169C5.10503 14.8169 5.09203 15.3269 5.08903 15.4559C5.02003 15.3589 4.90103 15.3329 4.75103 15.3329C4.54503 15.3329 4.56703 15.1949 4.60203 15.0739C4.49303 15.1129 4.38203 15.1819 4.42303 15.3449C4.33103 15.3459 4.27003 15.3929 4.22103 15.4549C4.28403 15.5249 4.35203 15.5589 4.42303 15.5679C4.40303 15.6739 4.47503 15.7739 4.60203 15.8299C4.56103 15.7219 4.55003 15.5519 4.75103 15.5519C4.83603 15.5519 4.89503 15.6159 4.89503 15.7229C4.89503 15.8919 4.71203 16.0259 4.53303 16.0259C4.38403 16.0259 4.12103 15.9269 4.12103 15.6419C4.12103 15.5279 4.14903 15.4239 4.19603 15.3259C4.41503 14.8609 5.11803 13.3809 5.26803 13.0709C5.13203 12.7879 5.22103 12.4729 5.26803 12.3859C5.22103 12.2989 5.06503 12.1279 4.83903 12.1019C4.82303 12.0959 4.80003 12.0929 4.78103 12.0879C4.74603 12.0959 4.71403 12.1069 4.67703 12.1129C4.42903 12.1559 4.02603 12.0959 4.02603 12.0959C4.06603 12.1669 4.13503 12.2199 4.24203 12.2489C4.24403 12.2479 4.24403 12.2459 4.24603 12.2439V12.2509C4.24603 12.2509 4.24303 12.2499 4.24203 12.2489C4.08003 12.3679 3.99603 12.5399 3.99603 12.6999C3.99603 13.0859 4.15103 13.1799 4.15103 13.7369C4.15103 13.9079 4.08403 14.0809 3.94703 14.2409C4.32203 14.1649 4.47003 13.8419 4.34903 13.6079C4.42603 13.5769 4.48103 13.6259 4.54003 13.6529C4.54303 13.5239 4.49003 13.4669 4.45303 13.4009C4.45303 13.4009 4.51803 13.4039 4.57603 13.4269C4.56803 13.3439 4.52903 13.2699 4.45303 13.2329C4.77603 13.2849 4.94703 13.0789 4.94703 12.8329C4.94703 12.5859 4.72603 12.5209 4.58203 12.5619C4.57603 12.5269 4.57703 12.4909 4.59603 12.4509C4.50403 12.4719 4.46203 12.5229 4.49303 12.6269C4.44003 12.6359 4.39803 12.6629 4.36203 12.6979C4.39803 12.7389 4.44503 12.7639 4.49303 12.7749C4.46203 12.8599 4.51703 12.9279 4.58403 12.9429C4.58403 12.9429 4.54603 12.7619 4.68103 12.7619C4.73403 12.7619 4.77203 12.7949 4.77203 12.8719C4.77203 12.9819 4.70903 13.0469 4.55003 13.0469C4.42203 13.0469 4.29703 12.9399 4.29703 12.7019C4.29703 12.5049 4.49503 12.3319 4.67703 12.3369C4.87603 12.3419 5.06703 12.5009 5.06703 12.6949C5.06703 12.8209 5.05503 12.9069 5.01803 12.9819C4.72303 13.5869 3.96303 15.1529 3.96303 15.1529C3.86903 15.3469 3.83203 15.4739 3.83203 15.6759C3.83203 16.0199 4.06503 16.2809 4.49403 16.2989C4.51003 16.2989 4.52103 16.2919 4.53703 16.2919C4.55003 16.2919 4.56303 16.2979 4.57603 16.2989H4.57803Z" fill="#FCC600"/>
<path d="M4.24719 12.2451L4.24219 12.2501L4.24719 12.2521V12.2451Z" fill="#FCC600"/>
<path d="M4.57809 16.299C4.56509 16.299 4.55209 16.292 4.53909 16.292C4.52309 16.292 4.51209 16.298 4.49609 16.299C4.51209 16.299 4.52309 16.306 4.53909 16.306C4.55209 16.306 4.56509 16.3 4.57809 16.299Z" fill="#FCC600"/>
<path d="M6.69967 15.6759C6.69967 15.4729 6.66267 15.3459 6.56867 15.1529C6.56867 15.1529 5.80967 13.5879 5.51367 12.9819C5.47667 12.9069 5.46467 12.8209 5.46467 12.6949C5.46467 12.4999 5.65567 12.3409 5.85467 12.3369C6.03667 12.3319 6.23467 12.5049 6.23467 12.7019C6.23467 12.9409 6.11067 13.0469 5.98167 13.0469C5.82367 13.0469 5.75967 12.9829 5.75967 12.8719C5.75967 12.7949 5.79767 12.7619 5.85067 12.7619C5.98567 12.7619 5.94767 12.9429 5.94767 12.9429C6.01467 12.9279 6.06967 12.8599 6.03867 12.7749C6.08767 12.7639 6.13367 12.7389 6.16967 12.6979C6.13367 12.6629 6.09167 12.6359 6.03867 12.6269C6.06967 12.5229 6.02767 12.4719 5.93567 12.4509C5.95367 12.4909 5.95467 12.5279 5.94967 12.5619C5.80467 12.5209 5.58467 12.5859 5.58467 12.8329C5.58467 13.0789 5.75567 13.2849 6.07867 13.2329C6.00167 13.2699 5.96267 13.3439 5.95567 13.4269C6.01367 13.4039 6.07867 13.4009 6.07867 13.4009C6.04067 13.4669 5.98867 13.5239 5.99067 13.6529C6.04967 13.6259 6.10567 13.5759 6.18167 13.6079C6.06067 13.8429 6.20867 14.1649 6.58367 14.2409C6.44667 14.0809 6.37967 13.9079 6.37967 13.7369C6.37967 13.1809 6.53567 13.0869 6.53567 12.6999C6.53567 12.5399 6.45267 12.3679 6.28967 12.2489C6.28767 12.2489 6.28667 12.2499 6.28567 12.2509V12.2439C6.28567 12.2439 6.28767 12.2469 6.28967 12.2489C6.39667 12.2199 6.46567 12.1669 6.50567 12.0959C6.50567 12.0959 6.10267 12.1559 5.85467 12.1129C5.81767 12.1069 5.78567 12.0959 5.75067 12.0879C5.73267 12.0929 5.70967 12.0959 5.69267 12.1019C5.46667 12.1279 5.31067 12.2999 5.26367 12.3859C5.31067 12.4729 5.39967 12.7869 5.26367 13.0709C5.41367 13.3809 6.11667 14.8609 6.33567 15.3259C6.38267 15.4249 6.41067 15.5289 6.41067 15.6419C6.41067 15.9269 6.14767 16.0259 5.99867 16.0259C5.81967 16.0259 5.63667 15.8909 5.63667 15.7229C5.63667 15.6159 5.69567 15.5519 5.78067 15.5519C5.98167 15.5519 5.97067 15.7219 5.92967 15.8299C6.05567 15.7739 6.12867 15.6739 6.10867 15.5679C6.18067 15.5579 6.24767 15.5249 6.31067 15.4549C6.26067 15.3939 6.20067 15.3469 6.10867 15.3449C6.14967 15.1809 6.03867 15.1119 5.92967 15.0739C5.96467 15.1939 5.98667 15.3329 5.78067 15.3329C5.62967 15.3329 5.51167 15.3589 5.44267 15.4559C5.43867 15.3269 5.42567 14.8169 5.42567 14.8169C5.41667 14.6249 5.68567 14.6309 5.85467 14.6879C5.79067 14.4669 5.65967 14.3469 5.35467 14.3779C5.42867 14.3469 5.50767 14.2779 5.50767 14.1449C5.50767 13.9649 5.35967 13.7659 5.26367 13.7069L5.31267 15.5789C5.31267 15.6589 5.28567 15.7219 5.26367 15.7879C5.36767 16.1089 5.67567 16.2839 5.95267 16.2989C5.96567 16.2989 5.97867 16.2919 5.99167 16.2919C6.00767 16.2919 6.01867 16.2979 6.03467 16.2989C6.46367 16.2809 6.69667 16.0199 6.69667 15.6759H6.69967Z" fill="#FCC600"/>
<path d="M6.28711 12.2521L6.29111 12.2501L6.28711 12.2451V12.2521Z" fill="#FCC600"/>
<path d="M5.95508 16.299C5.96808 16.299 5.98108 16.306 5.99408 16.306C6.01008 16.306 6.02108 16.3 6.03708 16.299C6.02108 16.299 6.01008 16.292 5.99408 16.292C5.98108 16.292 5.96808 16.298 5.95508 16.299Z" fill="#FCC600"/>
<path d="M5.26775 15.788C5.28875 15.721 5.31675 15.658 5.31675 15.579L5.26775 13.707L5.21875 15.579C5.21875 15.659 5.24575 15.722 5.26775 15.788Z" fill="#FCC600"/>
<path d="M5.26761 13.0717C5.40361 12.7887 5.31461 12.4737 5.26761 12.3867C5.22061 12.4737 5.13161 12.7877 5.26761 13.0717Z" fill="#FCC600"/>
<path d="M4.24719 20.6494L4.24219 20.6544L4.24719 20.6564V20.6494Z" fill="#FCC600"/>
<path d="M4.57705 24.7033C4.56505 24.7033 4.55205 24.6963 4.53905 24.6963C4.52305 24.6963 4.51305 24.7023 4.49805 24.7033C4.51305 24.7033 4.52405 24.7103 4.53905 24.7103C4.55105 24.7103 4.56405 24.7043 4.57705 24.7033Z" fill="#FCC600"/>
<path d="M4.80839 20.5008C4.60739 20.4338 4.26539 20.4328 4.02539 20.5008C4.26539 20.5688 4.60739 20.5688 4.80839 20.5008Z" fill="#FCC600"/>
<path d="M6.28711 20.6564L6.29111 20.6544L6.28711 20.6494V20.6564Z" fill="#FCC600"/>
<path d="M5.72558 20.501C5.71658 20.504 5.70458 20.505 5.69658 20.508C5.47058 20.533 5.31458 20.706 5.26758 20.792C5.31458 20.879 5.40358 21.193 5.26758 21.476C5.41758 21.786 6.12058 23.266 6.33958 23.73C6.38658 23.828 6.41458 23.933 6.41458 24.047C6.41458 24.332 6.15158 24.431 6.00258 24.431C5.82358 24.431 5.64058 24.296 5.64058 24.128C5.64058 24.021 5.69958 23.957 5.78458 23.957C5.98558 23.957 5.97458 24.127 5.93358 24.235C6.05958 24.179 6.13258 24.079 6.11258 23.973C6.18458 23.963 6.25158 23.93 6.31458 23.86C6.26458 23.798 6.20458 23.752 6.11258 23.75C6.15358 23.587 6.04258 23.517 5.93358 23.479C5.96858 23.599 5.99058 23.738 5.78458 23.738C5.63358 23.738 5.51558 23.763 5.44658 23.861C5.44258 23.732 5.42958 23.221 5.42958 23.221C5.42058 23.029 5.68958 23.035 5.85858 23.092C5.79458 22.871 5.66358 22.752 5.35858 22.782C5.43258 22.752 5.51158 22.682 5.51158 22.55C5.51158 22.37 5.36358 22.171 5.26758 22.112L5.31658 23.984C5.31658 24.064 5.28958 24.127 5.26758 24.193C5.37158 24.515 5.68058 24.69 5.95758 24.703C5.96958 24.703 5.98258 24.696 5.99458 24.696C6.01058 24.696 6.02058 24.702 6.03558 24.703C6.46558 24.686 6.69958 24.425 6.69958 24.08C6.69958 23.878 6.66258 23.751 6.56858 23.557C6.56858 23.557 5.80958 21.992 5.51358 21.387C5.47658 21.312 5.46458 21.226 5.46458 21.1C5.46458 20.905 5.65558 20.746 5.85458 20.741C6.03658 20.737 6.23458 20.91 6.23458 21.106C6.23458 21.345 6.11058 21.452 5.98158 21.452C5.82358 21.452 5.75958 21.387 5.75958 21.277C5.75958 21.201 5.79758 21.167 5.85058 21.167C5.98558 21.167 5.94758 21.348 5.94758 21.348C6.01458 21.333 6.06958 21.265 6.03858 21.18C6.08758 21.169 6.13358 21.143 6.16958 21.103C6.13358 21.068 6.09158 21.041 6.03858 21.031C6.06958 20.927 6.02758 20.876 5.93558 20.855C5.95358 20.895 5.95458 20.932 5.94958 20.967C5.80458 20.926 5.58458 20.991 5.58458 21.238C5.58458 21.483 5.75558 21.69 6.07858 21.639C6.00158 21.675 5.96258 21.749 5.95558 21.832C6.01358 21.81 6.07858 21.807 6.07858 21.807C6.04058 21.873 5.98858 21.93 5.99058 22.059C6.04958 22.032 6.10558 21.982 6.18158 22.014C6.06058 22.248 6.20858 22.571 6.58358 22.647C6.44658 22.487 6.37958 22.315 6.37958 22.143C6.37958 21.587 6.53558 21.494 6.53558 21.107C6.53558 20.947 6.45258 20.775 6.28958 20.656C6.28758 20.656 6.28658 20.657 6.28558 20.658V20.651C6.28558 20.651 6.28758 20.655 6.28958 20.656C6.39658 20.626 6.46558 20.574 6.50558 20.502C6.26558 20.57 5.92358 20.57 5.72258 20.502L5.72558 20.501Z" fill="#FCC600"/>
<path d="M5.95898 24.7033C5.97098 24.7033 5.98398 24.7103 5.99598 24.7103C6.01198 24.7103 6.02198 24.7043 6.03698 24.7033C6.02198 24.7033 6.01098 24.6963 5.99598 24.6963C5.98398 24.6963 5.97098 24.7023 5.95898 24.7033Z" fill="#FCC600"/>
<path d="M5.72461 20.5008C5.92561 20.5688 6.26761 20.5688 6.50761 20.5008C6.26761 20.4328 5.92561 20.4338 5.72461 20.5008Z" fill="#FCC600"/>
<path d="M5.26775 24.1933C5.28875 24.1273 5.31675 24.0633 5.31675 23.9843L5.26775 22.1123L5.21875 23.9843C5.21875 24.0643 5.24575 24.1273 5.26775 24.1933Z" fill="#FCC600"/>
<path d="M5.26761 21.477C5.40361 21.194 5.31461 20.88 5.26761 20.793C5.22061 20.88 5.13161 21.194 5.26761 21.477Z" fill="#FCC600"/>
<path d="M5.39762 10.2259L5.26763 10.3869C5.26763 10.3869 5.49663 10.1959 5.57463 10.2909C5.66863 10.4069 5.40463 10.8679 5.26763 11.2059C5.31363 11.3189 5.34563 11.4169 5.34563 11.4849C5.34563 11.6159 5.31363 11.7129 5.26763 11.7939C5.36163 11.9619 5.53963 12.0419 5.75363 12.0879C5.95763 12.0289 6.27863 12.0299 6.50863 12.0959C6.43263 11.9939 6.38363 11.9639 6.25463 11.9569C6.39763 11.8839 6.54263 11.7239 6.54263 11.4759C6.54263 11.0939 6.38463 10.9359 6.38463 10.5059C6.38463 10.2669 6.58162 9.96289 6.58162 9.96289C6.23262 9.99789 6.05963 10.3189 6.15763 10.5749C6.10263 10.5829 6.05163 10.5699 6.00763 10.5299C5.98263 10.6009 6.02263 10.6839 6.07663 10.7549C6.03263 10.7779 6.00063 10.7639 5.93163 10.7499C5.93863 10.8229 5.98263 10.9009 6.09063 10.9739C5.77663 10.8929 5.58363 11.1099 5.58363 11.3369C5.58363 11.5089 5.70463 11.6309 5.82263 11.6309C5.86163 11.6309 5.91763 11.6159 5.94963 11.5919C5.97163 11.6389 5.96063 11.7029 5.93663 11.7499C6.02263 11.7269 6.07863 11.6759 6.03963 11.5689C6.10563 11.5629 6.15963 11.5399 6.19563 11.4979C6.15963 11.4519 6.10363 11.4249 6.03963 11.4269C6.08863 11.3279 6.03363 11.2719 5.95463 11.2269C5.95463 11.2269 6.00463 11.4269 5.87663 11.4269C5.81863 11.4269 5.76562 11.4079 5.76562 11.3239C5.76562 11.2509 5.83063 11.1489 5.98063 11.1549C6.12963 11.1609 6.25063 11.2579 6.25063 11.4939C6.25063 11.7119 6.07263 11.8209 5.83963 11.8279C5.62863 11.8339 5.46962 11.7209 5.46962 11.5049C5.46962 11.2169 5.88763 10.5629 5.88763 10.3069C5.88763 10.1149 5.71363 10.0069 5.54263 10.0069C5.43663 10.0069 5.33862 10.0579 5.26562 10.1109C5.34463 10.1669 5.39563 10.2249 5.39563 10.2249L5.39762 10.2259Z" fill="#FCC600"/>
<path d="M5.75391 12.0891C5.78891 12.0971 5.82091 12.1081 5.85791 12.1141C6.10591 12.1571 6.50891 12.0971 6.50891 12.0971C6.27891 12.0321 5.95791 12.0311 5.75391 12.0891Z" fill="#FCC600"/>
<path d="M4.78117 12.0888C4.99517 12.0418 5.17317 11.9618 5.26717 11.7948C5.22117 11.7128 5.18917 11.6168 5.18917 11.4858C5.18917 11.4188 5.22117 11.3198 5.26717 11.2068C5.12917 10.8698 4.86617 10.4078 4.96017 10.2918C5.03817 10.1958 5.26717 10.3878 5.26717 10.3878L5.13717 10.2268C5.13717 10.2268 5.18817 10.1688 5.26717 10.1128C5.19417 10.0608 5.09617 10.0088 4.99017 10.0088C4.81917 10.0088 4.64517 10.1158 4.64517 10.3088C4.64517 10.5648 5.06317 11.2188 5.06317 11.5068C5.06317 11.7218 4.90417 11.8358 4.69317 11.8298C4.46017 11.8228 4.28217 11.7138 4.28217 11.4958C4.28217 11.2598 4.40317 11.1638 4.55217 11.1568C4.70217 11.1508 4.76717 11.2518 4.76717 11.3258C4.76717 11.4098 4.71417 11.4288 4.65617 11.4288C4.52917 11.4288 4.57817 11.2288 4.57817 11.2288C4.49917 11.2738 4.44517 11.3298 4.49317 11.4288C4.43017 11.4268 4.37317 11.4538 4.33717 11.4998C4.37317 11.5418 4.42617 11.5648 4.49317 11.5708C4.45417 11.6778 4.51017 11.7288 4.59617 11.7518C4.57317 11.7048 4.56117 11.6408 4.58317 11.5938C4.61517 11.6178 4.67117 11.6328 4.71017 11.6328C4.82917 11.6328 4.94917 11.5098 4.94917 11.3388C4.94917 11.1118 4.75617 10.8948 4.44217 10.9758C4.55117 10.9028 4.59517 10.8248 4.60117 10.7518C4.53217 10.7658 4.50017 10.7798 4.45617 10.7568C4.51017 10.6858 4.55017 10.6028 4.52517 10.5318C4.48117 10.5728 4.43117 10.5848 4.37517 10.5768C4.47317 10.3208 4.30017 9.99984 3.95117 9.96484C3.95117 9.96484 4.14817 10.2688 4.14817 10.5078C4.14817 10.9388 3.99017 11.0958 3.99017 11.4778C3.99017 11.7258 4.13517 11.8848 4.27817 11.9588C4.15017 11.9668 4.10017 11.9968 4.02417 12.0978C4.25417 12.0328 4.57517 12.0318 4.77917 12.0898L4.78117 12.0888Z" fill="#FCC600"/>
<path d="M4.67639 12.1138C4.71339 12.1078 4.74539 12.0968 4.78039 12.0888C4.57639 12.0298 4.25539 12.0308 4.02539 12.0968C4.02539 12.0968 4.42839 12.1568 4.67639 12.1138Z" fill="#FCC600"/>
<path d="M5.13672 10.2263L5.26672 10.3873L5.39672 10.2263C5.39672 10.2263 5.34572 10.1683 5.26672 10.1123C5.18772 10.1683 5.13672 10.2263 5.13672 10.2263Z" fill="#FCC600"/>
<path d="M5.26745 11.207C5.22145 11.32 5.18945 11.418 5.18945 11.486C5.18945 11.617 5.22145 11.714 5.26745 11.795C5.31345 11.713 5.34545 11.617 5.34545 11.486C5.34545 11.419 5.31345 11.32 5.26745 11.207Z" fill="#FCC600"/>
<path d="M5.21998 23.983L5.26898 22.111C5.17298 22.17 5.02498 22.369 5.02498 22.549C5.02498 22.682 5.10398 22.751 5.17798 22.781C4.87398 22.751 4.74298 22.87 4.67798 23.091C4.84698 23.034 5.11498 23.029 5.10698 23.22C5.10698 23.22 5.09398 23.73 5.09098 23.86C5.02198 23.763 4.90298 23.737 4.75298 23.737C4.54698 23.737 4.56898 23.599 4.60398 23.478C4.49498 23.516 4.38398 23.586 4.42498 23.749C4.33298 23.751 4.27198 23.797 4.22298 23.859C4.28598 23.929 4.35398 23.962 4.42498 23.972C4.40498 24.077 4.47698 24.178 4.60398 24.234C4.58498 24.185 4.57598 24.123 4.58698 24.07C4.58898 24.058 4.59498 24.049 4.59998 24.038C4.62198 23.992 4.66398 23.956 4.75298 23.956C4.77298 23.956 4.78498 23.971 4.80198 23.977C4.80898 23.98 4.81698 23.982 4.82298 23.987C4.86498 24.014 4.89598 24.057 4.89598 24.127C4.89598 24.295 4.71298 24.43 4.53398 24.43C4.38498 24.43 4.12198 24.331 4.12198 24.046C4.12198 23.932 4.14998 23.827 4.19698 23.729C4.41598 23.264 5.11898 21.785 5.26898 21.475C5.13298 21.192 5.22198 20.878 5.26898 20.791C5.22198 20.704 5.06598 20.532 4.83998 20.507C4.83198 20.504 4.81998 20.503 4.81098 20.5C4.60998 20.568 4.26798 20.568 4.02798 20.5C4.06798 20.572 4.13698 20.624 4.24398 20.654C4.24598 20.653 4.24598 20.651 4.24798 20.649V20.656C4.24798 20.656 4.24498 20.655 4.24398 20.654C4.08198 20.773 3.99798 20.945 3.99798 21.105C3.99798 21.492 4.15298 21.585 4.15298 22.141C4.15298 22.313 4.08598 22.485 3.94898 22.645C4.32398 22.569 4.47198 22.246 4.35098 22.012C4.42798 21.981 4.48298 22.031 4.54198 22.057C4.54498 21.928 4.49198 21.871 4.45498 21.805C4.45498 21.805 4.51998 21.808 4.57798 21.83C4.56998 21.747 4.53098 21.673 4.45498 21.637C4.77798 21.688 4.94898 21.481 4.94898 21.236C4.94898 20.989 4.72798 20.924 4.58398 20.965C4.57798 20.93 4.57898 20.893 4.59798 20.853C4.50598 20.874 4.46398 20.925 4.49498 21.029C4.44198 21.038 4.39998 21.065 4.36398 21.101C4.39998 21.142 4.44698 21.168 4.49498 21.178C4.46398 21.263 4.51898 21.331 4.58598 21.346C4.58598 21.346 4.54798 21.165 4.68298 21.165C4.73598 21.165 4.77398 21.198 4.77398 21.275C4.77398 21.385 4.71098 21.45 4.55198 21.45C4.42398 21.45 4.29898 21.343 4.29898 21.104C4.29898 20.907 4.49698 20.735 4.67898 20.739C4.87798 20.744 5.06898 20.903 5.06898 21.098C5.06898 21.224 5.05698 21.31 5.01998 21.385C4.72498 21.99 3.96498 23.555 3.96498 23.555C3.87098 23.749 3.83398 23.876 3.83398 24.078C3.83398 24.423 4.06698 24.684 4.49798 24.701C4.51298 24.701 4.52398 24.694 4.53898 24.694C4.55098 24.694 4.56398 24.7 4.57698 24.701C4.85498 24.687 5.16398 24.512 5.26798 24.191C5.24698 24.125 5.21898 24.061 5.21898 23.982L5.21998 23.983Z" fill="#FCC600"/>
<path d="M16.3926 23.964C16.3926 23.964 16.3966 23.96 16.3986 23.959C16.3956 23.96 16.3946 23.962 16.3926 23.964Z" fill="#FCC600"/>
<path d="M22.1133 24.8106L22.1113 24.8076V24.8086L22.1133 24.8106Z" fill="#FCC600"/>
<path d="M16.584 21.9122L16.586 21.9102L16.585 21.9092L16.584 21.9122Z" fill="#FCC600"/>
<path d="M16.127 22.7217L16.129 22.7257L16.136 22.7287L16.127 22.7217Z" fill="#FCC600"/>
<path d="M19.7919 25.4042C19.6039 25.4042 19.4289 25.3892 19.2579 25.3582C18.7299 25.2622 18.0339 24.9282 17.7809 24.7812C17.7539 24.7083 17.7979 24.6802 17.8569 24.6432C17.9039 24.6132 17.9689 24.5722 17.9749 24.5422C17.9419 24.4892 17.8689 24.4882 17.7899 24.4872C17.6839 24.4852 17.5629 24.4833 17.4949 24.3983L17.4759 24.3342C17.4849 24.2982 17.5269 24.2802 17.5679 24.2642C17.5849 24.2572 17.6169 24.2433 17.6209 24.2353C17.6109 24.2223 17.5179 24.1872 17.4509 24.1612C17.3269 24.1132 17.1989 24.0643 17.1569 24.0063L17.1429 23.9433C17.1559 23.9053 17.2059 23.8912 17.2589 23.8762C17.2849 23.8692 17.3379 23.8532 17.3399 23.8412C17.3339 23.8302 17.2729 23.7972 17.2329 23.7752C17.1449 23.7282 17.0869 23.6942 17.0759 23.6542C17.0969 23.5922 17.1429 23.5812 17.1919 23.5712C17.2159 23.5662 17.2519 23.5583 17.2589 23.5513C17.1829 23.5173 17.1089 23.4882 17.0269 23.4562C16.8449 23.3852 16.6389 23.3052 16.5829 23.1992L16.5769 23.1873V23.1313C16.6049 23.0863 16.6699 23.1002 16.7249 23.1042L16.7809 23.1073C16.7749 23.0563 16.7139 23.0162 16.6429 22.9702C16.4999 22.8752 16.3219 22.7582 16.2679 22.6092C16.2569 22.5782 16.2579 22.5532 16.2709 22.5352C16.2919 22.5042 16.3389 22.5002 16.3799 22.5002L16.4739 22.5023C16.5019 22.5023 16.5359 22.5002 16.5359 22.4872C16.5379 22.4422 16.5189 22.4282 16.4819 22.4002C16.4189 22.3542 16.3239 22.2833 16.2849 22.0133C16.2809 21.9843 16.2859 21.9602 16.3019 21.9422C16.3549 21.8842 16.5619 21.9392 16.5669 21.9412L16.5739 21.8792C16.6249 21.8792 16.9379 22.0572 17.3449 22.5262C17.5299 22.7392 17.6529 22.9432 17.7719 23.1402C17.9129 23.3742 18.0469 23.5942 18.2589 23.7712C18.3149 23.8182 18.3519 23.8282 18.3939 23.8282L18.4759 23.8253C18.5549 23.8253 18.6629 23.8423 18.8669 23.9683C19.1999 24.1743 19.3799 24.3313 19.6529 24.5693L19.9049 24.7873C19.9179 24.7983 19.9679 24.7983 19.9919 24.7983H20.1459C20.3269 24.7973 20.6209 24.8082 21.0919 24.9042C21.5479 24.9982 21.6509 25.2332 21.6569 25.2502C21.6599 25.2492 21.6609 25.2483 21.6649 25.2463C21.6829 25.2133 21.8879 25.0682 21.9919 24.9132C22.0109 24.8832 22.0349 24.8692 22.0609 24.8692L22.1109 24.8843L22.1139 24.8123L22.0929 24.8363C18.7689 24.8363 16.5729 22.2133 16.3639 19.6733C16.3559 19.6733 16.3439 19.6723 16.3289 19.6723C16.2909 19.6723 16.2719 19.6892 16.2659 19.7272C16.2439 19.8772 16.2699 20.2122 16.2899 20.4562C16.3119 20.7402 16.3129 20.7822 16.2969 20.7992C16.2909 20.7962 16.2839 20.7793 16.2779 20.7743C16.2769 20.7753 16.2769 20.7843 16.2739 20.7812C16.2709 20.7772 16.2619 20.7562 16.2569 20.7472C16.2039 20.6852 16.1509 20.5762 16.0679 20.3822C15.9169 20.0272 15.6019 19.2862 15.5159 19.2812C15.4289 19.4223 15.7549 20.2772 15.9499 20.7882C16.1319 21.2652 16.1539 21.3352 16.1319 21.3612L16.0849 21.3832C15.9599 21.3832 15.7209 20.9903 15.3719 20.3913C15.2019 20.1003 15.0089 19.7702 14.9589 19.7552C14.7619 20.1532 15.5409 21.2742 15.9149 21.8132C16.0799 22.0512 16.1119 22.0993 16.1079 22.1243L16.1049 22.1453L16.0519 22.1763C15.9609 22.1763 15.7649 22.0042 15.4519 21.7222C15.2399 21.5312 14.9989 21.3132 14.9329 21.3132C14.7809 21.5302 15.6949 22.3112 15.9949 22.5672C16.0709 22.6322 16.1229 22.6763 16.1359 22.6903C16.1639 22.7223 16.1779 22.7452 16.1689 22.7652C16.1059 22.7802 16.0379 22.7482 15.9079 22.6822C15.7479 22.6002 15.5289 22.4883 15.4259 22.4883C15.3849 22.4883 15.3829 22.5062 15.3809 22.5152C15.3609 22.6772 15.7979 23.0383 16.1089 23.2143C16.2289 23.2833 16.3149 23.3132 16.3789 23.3352C16.4669 23.3662 16.5249 23.3873 16.5759 23.4743C16.5529 23.6183 16.4479 23.5462 16.3389 23.5352C16.2769 23.5292 16.2109 23.5222 16.1569 23.5222C16.0849 23.5222 16.0669 23.5342 16.0619 23.5392C16.0779 23.6882 16.3169 23.7283 16.5079 23.7603C16.6499 23.7843 16.7619 23.8022 16.8039 23.8542L16.8129 23.8662L16.8159 23.9123C16.7969 23.9543 16.7179 23.9582 16.5919 23.9632C16.5299 23.9652 16.4159 23.9693 16.4039 23.9883C16.4229 24.0743 16.6209 24.1233 16.7659 24.1593C16.9049 24.1933 16.9719 24.2112 16.9759 24.2552C16.9829 24.3102 16.9089 24.3213 16.8329 24.3323C16.7709 24.3423 16.6949 24.3533 16.6719 24.3843C16.6739 24.4633 16.8589 24.4863 16.9939 24.5033C17.1299 24.5203 17.2579 24.5363 17.3179 24.5753L17.3459 24.6222C17.3399 24.6522 17.3019 24.6592 17.2439 24.6702C17.2169 24.6752 17.1519 24.6873 17.1459 24.7013C17.1459 24.7013 17.1479 24.7322 17.3109 24.8132C17.7149 25.0142 18.2679 25.2893 19.0069 25.4333C19.1989 25.4703 19.3809 25.4893 19.5479 25.4893C19.8869 25.4893 20.0589 25.4113 20.0859 25.3853C20.0839 25.3853 20.0829 25.3843 20.0809 25.3843L19.9799 25.4053C19.9299 25.4073 19.8659 25.4093 19.7929 25.4093L19.7919 25.4042Z" fill="#FCC600"/>
<path d="M15.502 19.265C15.525 19.269 15.548 19.275 15.575 19.303C15.544 19.265 15.518 19.249 15.502 19.265Z" fill="#FCC600"/>
<path d="M16.2637 19.6763C16.2707 19.6683 16.2777 19.6603 16.2877 19.6553C16.2787 19.6593 16.2717 19.6673 16.2637 19.6763Z" fill="#FCC600"/>
<path d="M16.3842 19.6541C16.5892 22.2371 18.8682 24.8191 22.1102 24.8081C22.1002 24.8021 22.1012 24.7871 22.0902 24.7841C18.7882 24.7841 16.6092 22.1751 16.3932 19.6321C16.3932 19.6321 16.3612 19.6201 16.3262 19.6201C16.3032 19.6201 16.3012 19.6471 16.2852 19.6561C16.3282 19.6361 16.3842 19.6551 16.3842 19.6551V19.6541Z" fill="#FCC600"/>
<path d="M22.1199 24.9067C22.1059 24.9187 22.0589 24.8507 22.0109 24.9227C21.9099 25.0737 21.7269 25.2057 21.6639 25.2427L21.6579 25.2497L21.6569 25.2467C21.6499 25.2507 21.6359 25.2577 21.6359 25.2577C21.6359 25.2577 21.5419 25.0177 21.0869 24.9247C20.2379 24.7507 19.9519 24.8547 19.8909 24.8027C19.4529 24.4277 19.2779 24.2467 18.8559 23.9857C18.4339 23.7247 18.4309 23.9417 18.2459 23.7877C17.8569 23.4647 17.7409 23.0147 17.3279 22.5397C16.9159 22.0647 16.5969 21.8877 16.5969 21.8877L16.5859 21.9087C16.5919 21.9117 16.9069 22.0907 17.3089 22.5547C17.4909 22.7647 17.6139 22.9677 17.7319 23.1627C17.8749 23.3997 18.0109 23.6237 18.2299 23.8057C18.2979 23.8617 18.3449 23.8737 18.3959 23.8737L18.4779 23.8707C18.5459 23.8707 18.6489 23.8857 18.8429 24.0067C19.1719 24.2107 19.3509 24.3667 19.6229 24.6037L19.8749 24.8217C19.8969 24.8407 19.9319 24.8437 19.9929 24.8437H20.1469C20.3249 24.8427 20.6169 24.8537 21.0829 24.9487C21.4979 25.0347 21.6039 25.2437 21.6379 25.2827C21.6679 25.2827 21.9139 25.1147 22.0619 24.9147L22.0999 24.9027L22.1369 24.9267L22.1659 24.8807V24.8707C22.1679 24.8427 22.1399 24.8287 22.1169 24.8117C22.1209 24.8167 22.1689 24.8677 22.1219 24.9077L22.1199 24.9067Z" fill="#FCC600"/>
<path d="M16.2753 20.7687C16.3023 20.7447 16.2013 19.9797 16.2393 19.7197C16.2423 19.6987 16.2523 19.6877 16.2613 19.6767C16.2473 19.6927 16.2193 19.6907 16.2153 19.7167C16.1923 19.8727 16.2183 20.1957 16.2383 20.4557C16.2463 20.5647 16.2563 20.6757 16.2723 20.7297C16.2393 20.6647 16.1783 20.5197 16.1093 20.3577C15.8643 19.7817 15.6943 19.4267 15.5723 19.3027C15.7583 19.5287 16.1573 20.5617 16.2543 20.7417C16.2613 20.7497 16.2683 20.7627 16.2753 20.7687Z" fill="#FCC600"/>
<path d="M16.783 23.8645C16.689 23.7485 16.066 23.8035 16.034 23.5455C16.017 23.4135 16.614 23.5865 16.553 23.4815C16.471 23.3425 16.379 23.3925 16.094 23.2305C15.809 23.0685 15.331 22.6935 15.354 22.5075C15.381 22.2945 16.191 22.8485 16.128 22.7265C16.102 22.7225 16.01 22.6765 15.926 22.6335C15.753 22.5455 15.537 22.4355 15.423 22.4355C15.35 22.4355 15.334 22.4785 15.331 22.5045C15.305 22.7115 15.816 23.0995 16.082 23.2515C16.206 23.3225 16.294 23.3525 16.361 23.3765C16.447 23.4065 16.49 23.4215 16.49 23.4935C16.451 23.4935 16.397 23.4885 16.342 23.4835C16.197 23.4695 16.071 23.4275 16.011 23.5495C16.033 23.7255 16.28 23.7675 16.499 23.8035C16.615 23.8235 16.735 23.8425 16.772 23.8885C16.759 23.9055 16.653 23.9095 16.59 23.9115C16.5 23.9145 16.442 23.9285 16.4 23.9595C16.49 23.9135 16.865 23.9655 16.784 23.8655L16.783 23.8645Z" fill="#FCC600"/>
<path d="M20.0606 25.3501L19.9766 25.3521C19.9266 25.3531 19.8646 25.3561 19.7916 25.3561C19.6066 25.3561 19.4346 25.3411 19.2666 25.3111C18.7446 25.2171 18.0566 24.8851 17.8026 24.7441C17.8066 24.7321 17.8526 24.7031 17.8826 24.6841C17.9466 24.6431 18.0136 24.6021 18.0226 24.5501L18.0076 24.4961C17.9666 24.4421 17.8806 24.4411 17.7906 24.4391C17.6896 24.4381 17.5866 24.4361 17.5226 24.3471C17.5256 24.3341 17.5626 24.3191 17.5866 24.3091C17.6266 24.2921 17.6726 24.2731 17.6696 24.2331C17.6656 24.1941 17.6056 24.1701 17.4686 24.1171C17.3626 24.0761 17.2296 24.0251 17.1886 23.9591C17.1936 23.9441 17.2406 23.9311 17.2726 23.9221C17.3266 23.9071 17.3816 23.8911 17.3876 23.8471C17.3936 23.8071 17.3386 23.7781 17.2556 23.7331C17.2046 23.7051 17.1286 23.6641 17.1216 23.6451C17.1286 23.6351 17.1766 23.6241 17.2026 23.6181C17.2566 23.6061 17.2986 23.5961 17.3036 23.5631C17.3076 23.5351 17.2786 23.5161 17.2536 23.5021C17.2046 23.4741 17.1276 23.4441 17.0436 23.4121C16.8786 23.3481 16.6726 23.2671 16.6596 23.1481L16.7796 23.1541C16.8066 23.1541 16.8386 23.1511 16.8506 23.1261L16.8416 23.0681L16.8326 23.0561C16.8066 23.0201 16.7456 22.9801 16.6676 22.9291C16.5376 22.8431 16.3606 22.7261 16.3086 22.5611C16.3136 22.5541 16.3286 22.5471 16.3786 22.5471L16.4726 22.5491C16.5046 22.5491 16.5796 22.5491 16.5836 22.4891C16.5866 22.4191 16.5496 22.3911 16.5096 22.3621C16.4496 22.3181 16.3676 22.2561 16.3376 21.9741C16.3476 21.9641 16.3686 21.9581 16.3976 21.9581C16.4646 21.9581 16.5486 21.9871 16.5806 21.9751L16.5836 21.9141L16.5586 21.9651C16.5586 21.9651 16.2876 21.8721 16.3076 22.0111C16.3696 22.4361 16.5676 22.3421 16.5596 22.4891C16.5546 22.5821 16.2346 22.4531 16.2896 22.6011C16.3686 22.8181 16.7456 22.9791 16.8136 23.0711C16.9156 23.2091 16.5266 23.0441 16.6026 23.1881C16.6796 23.3341 17.0896 23.4381 17.2416 23.5231C17.3836 23.6021 17.0806 23.5831 17.0986 23.6491C17.1166 23.7131 17.3706 23.7981 17.3636 23.8451C17.3546 23.9121 17.1056 23.8961 17.1766 23.9941C17.2466 24.0921 17.6406 24.1821 17.6456 24.2361C17.6506 24.2931 17.4426 24.2951 17.5146 24.3851C17.6266 24.5251 17.9136 24.4141 17.9896 24.5111C18.0646 24.6091 17.7056 24.7111 17.7936 24.7621C18.0716 24.9231 18.7526 25.2431 19.2636 25.3361C19.6906 25.4131 20.0026 25.3711 20.0806 25.3811L20.0916 25.3791L20.0856 25.3831C20.0956 25.3851 20.1166 25.3851 20.1126 25.3911C20.0866 25.4371 19.7206 25.5941 19.0016 25.4541C18.2836 25.3141 17.7586 25.0601 17.2996 24.8321C16.8396 24.6041 17.4296 24.6771 17.3036 24.5931C17.1776 24.5091 16.6606 24.5341 16.6416 24.4161C16.6196 24.2791 16.9606 24.3311 16.9516 24.2551C16.9436 24.1841 16.4156 24.1591 16.3796 23.9901C16.3776 23.9801 16.3836 23.9721 16.3926 23.9661C16.3806 23.9761 16.3636 23.9791 16.3556 23.9951C16.3806 24.1111 16.5866 24.1621 16.7526 24.2031C16.8216 24.2201 16.9166 24.2441 16.9266 24.2561C16.9196 24.2681 16.8586 24.2771 16.8236 24.2821C16.7496 24.2931 16.6656 24.3061 16.6316 24.3541L16.6156 24.4101V24.4201C16.6306 24.5041 16.7956 24.5251 16.9866 24.5491C17.1106 24.5641 17.2386 24.5801 17.3006 24.6051C17.2926 24.6111 17.2576 24.6171 17.2336 24.6221C17.1696 24.6341 17.1026 24.6471 17.0966 24.6931C17.0906 24.7371 17.1456 24.7841 17.2876 24.8541C17.6936 25.0561 18.2496 25.3331 18.9956 25.4791C19.1906 25.5171 19.3766 25.5361 19.5466 25.5361C19.9086 25.5361 20.1066 25.4501 20.1336 25.3731C20.1236 25.3561 20.1016 25.3531 20.0606 25.3531V25.3501Z" fill="#FCC600"/>
<path d="M14.9087 21.2922C14.9967 21.1652 16.0497 22.3492 16.0817 22.1142C16.0927 22.0402 14.6657 20.2762 14.9477 19.7322C15.0227 19.5882 15.9477 21.5312 16.1107 21.3392C16.1567 21.2862 15.3497 19.4932 15.4937 19.2642C15.4947 19.2622 15.4987 19.2672 15.5007 19.2652C15.4927 19.2642 15.4817 19.2492 15.4737 19.2512C15.3807 19.3982 15.6137 20.0392 15.9027 20.7992C15.9957 21.0432 16.0927 21.2962 16.0827 21.3282C15.9767 21.3282 15.6357 20.7452 15.4107 20.3602C15.1317 19.8812 15.0227 19.6982 14.9257 19.7212C14.7027 20.1502 15.4927 21.2872 15.8727 21.8342C15.9647 21.9672 16.0527 22.0942 16.0487 22.1212C15.9697 22.1212 15.6987 21.8762 15.4807 21.6802C15.1897 21.4182 15.0067 21.2552 14.8877 21.2782C14.7327 21.5012 15.3427 22.0702 15.9597 22.5972C16.0297 22.6572 16.0767 22.6962 16.1257 22.7222C16.1207 22.7142 16.1257 22.7132 16.1137 22.7002C16.0437 22.6202 14.7107 21.5772 14.9087 21.2922Z" fill="#FCC600"/>
<path d="M16.9507 24.2531C16.9597 24.3281 16.6187 24.2761 16.6407 24.4141C16.6587 24.5321 17.1767 24.5071 17.3027 24.5911C17.4287 24.6751 16.8387 24.6021 17.2987 24.8301C17.7577 25.0591 18.2827 25.3131 19.0007 25.4521C19.7197 25.5911 20.0857 25.4351 20.1117 25.3891C20.1157 25.3831 20.0947 25.3831 20.0847 25.3811C20.0577 25.4071 19.8857 25.4851 19.5467 25.4851C19.3797 25.4851 19.1977 25.4661 19.0057 25.4291C18.2667 25.2851 17.7137 25.0101 17.3097 24.8091C17.1477 24.7281 17.1447 24.6981 17.1447 24.6971C17.1507 24.6841 17.2157 24.6721 17.2427 24.6661C17.2997 24.6551 17.3377 24.6481 17.3447 24.6181L17.3167 24.5711C17.2567 24.5311 17.1287 24.5161 16.9927 24.4991C16.8577 24.4821 16.6727 24.4591 16.6707 24.3801C16.6937 24.3491 16.7697 24.3381 16.8317 24.3281C16.9087 24.3171 16.9817 24.3051 16.9747 24.2511C16.9707 24.2081 16.9037 24.1891 16.7647 24.1551C16.6197 24.1191 16.4217 24.0701 16.4027 23.9841C16.4147 23.9651 16.5287 23.9611 16.5907 23.9591C16.7167 23.9541 16.7947 23.9491 16.8147 23.9081L16.8117 23.8621L16.8027 23.8501C16.7607 23.7981 16.6477 23.7801 16.5067 23.7561C16.3157 23.7241 16.0757 23.6841 16.0607 23.5351C16.0657 23.5301 16.0837 23.5181 16.1557 23.5181C16.2097 23.5181 16.2757 23.5241 16.3377 23.5311C16.4467 23.5421 16.5517 23.6141 16.5747 23.4701C16.5237 23.3831 16.4657 23.3621 16.3777 23.3311C16.3127 23.3081 16.2277 23.2781 16.1077 23.2101C15.7977 23.0331 15.3597 22.6731 15.3797 22.5111C15.3807 22.5011 15.3837 22.4841 15.4247 22.4841C15.5277 22.4841 15.7467 22.5961 15.9067 22.6781C16.0367 22.7441 16.1047 22.7761 16.1677 22.7611C16.1767 22.7411 16.1627 22.7191 16.1347 22.6861C16.1217 22.6721 16.0697 22.6281 15.9937 22.5631C15.6937 22.3061 14.7797 21.5251 14.9317 21.3091C14.9987 21.3091 15.2387 21.5261 15.4507 21.7181C15.7637 22.0001 15.9597 22.1721 16.0507 22.1721L16.1037 22.1411L16.1067 22.1201C16.1097 22.0951 16.0787 22.0471 15.9137 21.8091C15.5397 21.2701 14.7617 20.1491 14.9577 19.7511C15.0077 19.7661 15.2007 20.0961 15.3707 20.3871C15.7197 20.9861 15.9597 21.3791 16.0837 21.3791L16.1307 21.3571C16.1527 21.3311 16.1307 21.2621 15.9487 20.7841C15.7537 20.2731 15.4277 19.4181 15.5147 19.2771C15.6017 19.2831 15.9157 20.0231 16.0667 20.3781C16.1497 20.5721 16.2027 20.6811 16.2557 20.7431C16.1587 20.5631 15.7607 19.5301 15.5737 19.3041C15.5467 19.2771 15.5237 19.2701 15.5007 19.2661C15.4987 19.2681 15.4957 19.2631 15.4937 19.2651C15.3497 19.4941 16.1567 21.2871 16.1107 21.3401C15.9477 21.5321 15.0217 19.5901 14.9477 19.7331C14.6657 20.2771 16.0927 22.0411 16.0817 22.1151C16.0497 22.3501 14.9967 21.1661 14.9087 21.2931C14.7107 21.5781 16.0437 22.6211 16.1137 22.7011C16.1247 22.7141 16.1207 22.7151 16.1257 22.7231C16.1277 22.7241 16.1317 22.7281 16.1337 22.7291C16.1337 22.7291 16.1287 22.7271 16.1277 22.7271C16.1907 22.8481 15.3807 22.2951 15.3537 22.5081C15.3307 22.6941 15.8087 23.0691 16.0937 23.2311C16.3787 23.3931 16.4707 23.3431 16.5527 23.4821C16.6137 23.5871 16.0167 23.4141 16.0337 23.5461C16.0657 23.8041 16.6887 23.7491 16.7827 23.8651C16.8637 23.9661 16.4887 23.9131 16.3987 23.9591C16.3967 23.9601 16.3947 23.9621 16.3927 23.9641C16.3837 23.9711 16.3777 23.9781 16.3797 23.9881C16.4157 24.1561 16.9427 24.1811 16.9507 24.2531Z" fill="#FCC600"/>
<path d="M16.2761 20.7692C16.2821 20.7742 16.2891 20.7912 16.2951 20.7942C16.3111 20.7772 16.3101 20.7352 16.2881 20.4512C16.2691 20.2072 16.2421 19.8732 16.2641 19.7222C16.2701 19.6842 16.2891 19.6672 16.3271 19.6672C16.3421 19.6672 16.3541 19.6672 16.3621 19.6682C16.5701 22.2082 18.7671 24.8312 22.0911 24.8312L22.1121 24.8072C18.8701 24.8182 16.5911 22.2362 16.3861 19.6532C16.3861 19.6532 16.3301 19.6352 16.2871 19.6542C16.2771 19.6592 16.2701 19.6672 16.2631 19.6752C16.2541 19.6862 16.2441 19.6972 16.2411 19.7182C16.2031 19.9782 16.3041 20.7432 16.2771 20.7672L16.2761 20.7692Z" fill="#FCC600"/>
<path d="M22.1081 24.8806L22.0581 24.8656C22.0321 24.8656 22.0081 24.8806 21.9891 24.9096C21.8861 25.0646 21.6801 25.2086 21.6621 25.2426C21.7241 25.2056 21.9081 25.0746 22.0091 24.9226C22.0571 24.8506 22.1041 24.9196 22.1181 24.9066C22.1651 24.8656 22.1181 24.8146 22.1131 24.8106C22.1131 24.8106 22.1121 24.8086 22.1111 24.8086L22.1081 24.8806Z" fill="#FCC600"/>
<path d="M17.3261 22.54C17.7381 23.015 17.8551 23.465 18.2441 23.788C18.4301 23.942 18.4331 23.726 18.8541 23.986C19.2761 24.247 19.4511 24.429 19.8891 24.803C19.9501 24.855 20.2371 24.751 21.0851 24.925C21.5401 25.019 21.6341 25.258 21.6341 25.258C21.6341 25.258 21.6481 25.25 21.6551 25.247C21.6481 25.23 21.5461 24.996 21.0901 24.901C20.6201 24.805 20.3251 24.794 20.1441 24.794H19.9901C19.9661 24.795 19.9171 24.795 19.9031 24.784L19.6511 24.566C19.3781 24.328 19.1981 24.17 18.8651 23.965C18.6611 23.839 18.5531 23.822 18.4741 23.822L18.3921 23.825C18.3511 23.825 18.3141 23.815 18.2571 23.768C18.0451 23.591 17.9111 23.371 17.7701 23.137C17.6511 22.94 17.5281 22.736 17.3431 22.523C16.9361 22.054 16.6241 21.876 16.5731 21.876L16.5651 21.938C16.5591 21.936 16.3531 21.881 16.3001 21.939C16.2841 21.957 16.2791 21.981 16.2831 22.01C16.3221 22.28 16.4171 22.351 16.4801 22.397C16.5171 22.425 16.5361 22.439 16.5341 22.484C16.5341 22.496 16.5001 22.499 16.4721 22.499L16.3781 22.497C16.3361 22.497 16.2901 22.501 16.2691 22.532C16.2551 22.551 16.2541 22.576 16.2661 22.606C16.3201 22.755 16.4981 22.872 16.6411 22.967C16.7111 23.013 16.7721 23.053 16.7791 23.104L16.7231 23.101C16.6681 23.097 16.6031 23.083 16.5751 23.128V23.184L16.5811 23.196C16.6371 23.302 16.8431 23.383 17.0251 23.453C17.1071 23.485 17.1811 23.514 17.2571 23.548C17.2501 23.555 17.2141 23.563 17.1901 23.568C17.1411 23.579 17.0951 23.59 17.0741 23.651C17.0851 23.691 17.1441 23.724 17.2311 23.772C17.2711 23.794 17.3321 23.827 17.3381 23.838C17.3361 23.85 17.2831 23.866 17.2571 23.873C17.2051 23.888 17.1541 23.903 17.1411 23.94L17.1551 24.003C17.1971 24.061 17.3261 24.111 17.4491 24.158C17.5171 24.184 17.6091 24.22 17.6191 24.232C17.6161 24.24 17.5831 24.253 17.5661 24.261C17.5251 24.277 17.4831 24.295 17.4741 24.331L17.4931 24.395C17.5611 24.48 17.6821 24.482 17.7881 24.484C17.8661 24.484 17.9401 24.486 17.9731 24.539C17.9671 24.569 17.9021 24.61 17.8551 24.64C17.7951 24.678 17.7521 24.705 17.7791 24.778C18.0331 24.925 18.7281 25.259 19.2561 25.355C19.4281 25.386 19.6021 25.401 19.7901 25.401C19.8631 25.401 19.9271 25.399 19.9771 25.397L20.0781 25.376C20.0001 25.366 19.6881 25.408 19.2611 25.331C18.7511 25.239 18.0691 24.918 17.7911 24.757C17.7041 24.707 18.0621 24.604 17.9871 24.506C17.9111 24.408 17.6241 24.519 17.5121 24.38C17.4401 24.29 17.6481 24.288 17.6431 24.231C17.6381 24.177 17.2441 24.087 17.1741 23.989C17.1031 23.891 17.3521 23.907 17.3611 23.84C17.3681 23.793 17.1141 23.708 17.0961 23.644C17.0781 23.578 17.3811 23.597 17.2391 23.518C17.0871 23.433 16.6771 23.329 16.6001 23.183C16.5241 23.039 16.9131 23.204 16.8111 23.066C16.7431 22.973 16.3661 22.813 16.2871 22.596C16.2331 22.448 16.5521 22.577 16.5571 22.484C16.5651 22.337 16.3671 22.431 16.3051 22.006C16.2851 21.867 16.5561 21.96 16.5561 21.96L16.5811 21.909V21.906L16.5931 21.885C16.5931 21.885 16.9121 22.062 17.3241 22.537L17.3261 22.54Z" fill="#FCC600"/>
<path d="M23.2693 27C23.3043 27.003 23.3863 27.097 23.4903 27.097C23.6283 27.081 23.7783 26.939 23.7803 26.938C23.8033 26.938 23.8933 26.969 23.9953 26.969C24.0313 26.969 24.0653 26.965 24.0973 26.956C24.2373 26.915 24.3773 26.767 24.3773 26.767C24.3953 26.772 24.4993 26.839 24.5913 26.839C24.7473 26.797 24.8223 26.64 24.8223 26.64C24.8573 26.628 25.0143 26.69 25.1783 26.69C25.2513 26.69 25.3153 26.678 25.3663 26.653C25.4983 26.59 25.4633 26.376 25.4623 26.374C25.4903 26.345 25.5713 26.357 25.6833 26.357C25.8583 26.357 26.0933 26.329 26.2183 26.196C26.2833 26.127 26.3113 26.037 26.3043 25.925C26.2783 25.919 25.9743 25.907 25.6803 25.896C25.2143 25.878 24.6353 25.855 24.2873 25.791L24.2213 25.801C24.2233 25.962 24.1343 26.098 24.0233 26.127C23.9923 26.135 23.9903 26.146 23.9893 26.177C23.9883 26.196 23.9863 26.218 23.9753 26.24L23.6383 26.238C23.1523 26.506 22.5143 26.601 21.7583 26.519C21.7593 26.525 21.6113 26.638 21.4773 26.755C21.4273 26.798 21.3833 26.83 21.3463 26.856C21.2763 26.906 21.2343 26.936 21.2173 26.994C21.2093 27.019 21.2123 27.04 21.2253 27.058C21.2513 27.094 21.3163 27.116 21.3993 27.119C21.5243 27.119 21.6833 27.007 21.6833 27.007C21.7213 27.024 21.7413 27.103 21.8403 27.111H21.8423C21.9783 27.111 22.1663 27.043 22.1683 27.042C22.1873 27.043 22.3323 27.107 22.4583 27.107C22.6273 27.088 22.7423 27.004 22.7423 27.004C22.7813 27.024 22.8153 27.16 22.9323 27.165L22.9373 27.188V27.166C23.0653 27.166 23.2673 27.001 23.2683 26.999L23.2693 27Z" fill="#FCC600"/>
<path d="M25.6811 25.8492C25.2171 25.8312 24.6391 25.8082 24.2581 25.7402C24.2251 25.7402 24.2011 25.7502 24.1841 25.7692C24.1591 25.7992 24.1641 25.8372 24.1651 25.8402C24.1731 25.9422 24.0991 26.0572 24.0101 26.0802C23.9441 26.0972 23.9411 26.1412 23.9541 26.2052L23.6271 26.1922C23.2501 26.3962 22.7931 26.5002 22.2681 26.5002C22.1061 26.5002 21.9371 26.4902 21.7441 26.4752C21.7441 26.4752 21.5861 26.5952 21.4441 26.7182C21.3961 26.7602 21.3531 26.7912 21.3171 26.8172C21.2441 26.8692 21.1911 26.9072 21.1701 26.9802C21.1581 27.0192 21.1641 27.0562 21.1861 27.0862C21.2211 27.1352 21.2981 27.1642 21.4041 27.1672C21.5231 27.1672 21.6651 27.0772 21.6771 27.0422C21.6911 27.0842 21.7391 27.1512 21.8601 27.1602C21.9841 27.1602 22.1751 27.0922 22.1671 27.0872C22.1761 27.0912 22.3341 27.1472 22.5021 27.1532C22.6211 27.1382 22.7241 27.0752 22.7371 27.0442C22.7511 27.0872 22.8001 27.2092 22.9291 27.2142H22.9371C23.0761 27.2142 23.2731 27.0582 23.2671 27.0362C23.2821 27.0522 23.3711 27.1432 23.5121 27.1432H23.5151C23.6451 27.1282 23.7951 26.9872 23.7871 26.9782C23.8041 26.9852 23.9801 27.0392 24.1091 27.0022C24.2521 26.9602 24.3871 26.8252 24.3811 26.8042C24.4031 26.8222 24.5421 26.9122 24.6531 26.8772C24.7711 26.8382 24.8501 26.6912 24.8391 26.6742C24.8811 26.6902 25.2141 26.7792 25.3861 26.6972C25.5371 26.6252 25.5171 26.4172 25.4901 26.3952C25.5131 26.3982 25.5881 26.4062 25.6831 26.4062C25.8681 26.4062 26.1161 26.3752 26.2531 26.2292C26.3271 26.1512 26.3601 26.0472 26.3521 25.9232C26.3491 25.8812 26.3071 25.8732 25.6821 25.8492H25.6811ZM25.4851 26.3702C25.4851 26.3702 25.5261 26.6032 25.3751 26.6752C25.1631 26.7762 24.8421 26.6502 24.8421 26.6502C24.8421 26.6502 24.7631 26.8162 24.6441 26.8552C24.5241 26.8942 24.3921 26.7842 24.3921 26.7842C24.3921 26.7842 24.2501 26.9372 24.1011 26.9802C23.9511 27.0232 23.7941 26.9572 23.7941 26.9572C23.7941 26.9572 23.6391 27.1062 23.5111 27.1212C23.3841 27.1372 23.2831 27.0202 23.2831 27.0202C23.2831 27.0202 23.0741 27.1912 22.9361 27.1902C22.9341 27.1902 22.9301 27.1912 22.9301 27.1912C22.7931 27.1852 22.7561 27.0252 22.7561 27.0252C22.7561 27.0252 22.6371 27.1132 22.4981 27.1302C22.3581 27.1472 22.1751 27.0662 22.1751 27.0662C22.1751 27.0662 21.9561 27.1462 21.8371 27.1362C21.7171 27.1262 21.6961 27.0272 21.6961 27.0272C21.6961 27.0272 21.5271 27.1482 21.3971 27.1442C21.2681 27.1402 21.1631 27.0872 21.1931 26.9882C21.2221 26.8892 21.3181 26.8612 21.4601 26.7382C21.6011 26.6152 21.7581 26.4962 21.7581 26.4962C22.5101 26.5792 23.1371 26.4862 23.6381 26.2152L23.9521 26.2312C23.9771 26.1802 23.9401 26.1252 24.0151 26.1062C24.1111 26.0812 24.1971 25.9582 24.1881 25.8412C24.1881 25.8412 24.1721 25.7492 24.2901 25.7702C24.9131 25.8862 26.3221 25.8672 26.3261 25.9262C26.3651 26.4982 25.4841 26.3712 25.4841 26.3712L25.4851 26.3702Z" fill="#FCC600"/>
<path d="M24.1896 25.839C24.1986 25.956 24.1126 26.079 24.0166 26.104C23.9416 26.123 23.9786 26.178 23.9536 26.229L23.6396 26.213C23.1386 26.484 22.5116 26.578 21.7596 26.494C21.7596 26.494 21.6026 26.613 21.4616 26.736C21.3196 26.859 21.2236 26.887 21.1946 26.986C21.1646 27.086 21.2696 27.138 21.3986 27.142C21.5286 27.146 21.6976 27.025 21.6976 27.025C21.6976 27.025 21.7186 27.125 21.8386 27.134C21.9586 27.144 22.1766 27.064 22.1766 27.064C22.1766 27.064 22.3596 27.146 22.4996 27.128C22.6386 27.11 22.7576 27.023 22.7576 27.023C22.7576 27.023 22.7946 27.183 22.9316 27.189C22.9336 27.189 22.9356 27.188 22.9376 27.188L22.9326 27.165C22.8156 27.16 22.7826 27.024 22.7426 27.004C22.7426 27.004 22.6276 27.088 22.4586 27.107C22.3336 27.107 22.1886 27.043 22.1686 27.042C22.1666 27.042 21.9786 27.111 21.8426 27.111H21.8406C21.7416 27.103 21.7216 27.024 21.6836 27.007C21.6836 27.007 21.5246 27.119 21.3996 27.119C21.3166 27.117 21.2526 27.094 21.2256 27.058C21.2126 27.04 21.2096 27.019 21.2176 26.994C21.2346 26.936 21.2766 26.907 21.3466 26.856C21.3836 26.829 21.4286 26.797 21.4776 26.755C21.6116 26.638 21.7596 26.526 21.7586 26.519C22.5146 26.6 23.1526 26.506 23.6386 26.238L23.9756 26.24C23.9866 26.217 23.9876 26.195 23.9896 26.177C23.9906 26.147 23.9916 26.135 24.0236 26.127C24.1346 26.098 24.2236 25.962 24.2216 25.801L24.2876 25.791C24.6346 25.856 25.2146 25.878 25.6806 25.896C25.9746 25.907 26.2776 25.919 26.3046 25.925C26.3126 26.037 26.2836 26.127 26.2186 26.196C26.0936 26.329 25.8586 26.357 25.6836 26.357C25.5716 26.357 25.4906 26.345 25.4626 26.374C25.4626 26.376 25.4986 26.59 25.3666 26.653C25.3146 26.678 25.2516 26.69 25.1786 26.69C25.0146 26.69 24.8576 26.628 24.8226 26.64C24.8226 26.64 24.7466 26.797 24.5916 26.839C24.4996 26.839 24.3946 26.773 24.3776 26.767C24.3776 26.767 24.2386 26.915 24.0976 26.956C24.0666 26.965 24.0326 26.969 23.9956 26.969C23.8936 26.969 23.8036 26.938 23.7806 26.938C23.7786 26.939 23.6296 27.082 23.4906 27.097C23.3866 27.097 23.3046 27.003 23.2696 27C23.2676 27.001 23.0656 27.167 22.9386 27.167V27.189C23.0766 27.189 23.2856 27.019 23.2856 27.019C23.2856 27.019 23.3866 27.136 23.5136 27.12C23.6406 27.105 23.7966 26.956 23.7966 26.956C23.7966 26.956 23.9536 27.023 24.1036 26.979C24.2526 26.936 24.3946 26.783 24.3946 26.783C24.3946 26.783 24.5266 26.893 24.6466 26.854C24.7666 26.815 24.8446 26.649 24.8446 26.649C24.8446 26.649 25.1656 26.775 25.3776 26.674C25.5286 26.603 25.4876 26.369 25.4876 26.369C25.4876 26.369 26.3686 26.496 26.3296 25.924C26.3256 25.864 24.9166 25.884 24.2936 25.768C24.1756 25.746 24.1916 25.839 24.1916 25.839H24.1896Z" fill="#FCC600"/>
<path d="M29.378 19.8242C29.378 19.8242 29.376 19.8262 29.375 19.8262C29.378 19.8332 29.378 19.8412 29.38 19.8482C29.377 19.8412 29.381 19.8312 29.378 19.8242Z" fill="#FCC600"/>
<path d="M27.9007 24.1309C27.9007 24.1309 27.8977 24.1299 27.8977 24.1279C27.8947 24.1359 27.8907 24.1429 27.8867 24.1499C27.8907 24.1429 27.8987 24.1379 27.9007 24.1309Z" fill="#FCC600"/>
<path d="M28.0032 20.7734C27.9982 20.7824 27.9932 20.7924 27.9902 20.7984C27.9902 20.8014 27.9902 20.8154 27.9902 20.8174C27.9902 20.8114 27.9992 20.7884 28.0032 20.7734Z" fill="#FCC600"/>
<path d="M28.004 21.6982L28.002 21.6992L28.004 21.6982Z" fill="#FCC600"/>
<path d="M21.5964 25.8164H21.5794C21.5614 25.8454 21.5444 25.8674 21.5254 25.8934C21.5644 25.8514 21.5964 25.8164 21.5964 25.8164Z" fill="#FCC600"/>
<path d="M28.8621 20.5854C28.4291 21.2834 28.1351 21.7414 28.0031 21.7414C27.9381 21.6964 27.9531 21.6464 28.1951 21.0754C28.4531 20.4674 28.8851 19.4484 28.7851 19.3174C28.7041 19.3134 28.5301 19.6834 28.4061 19.9564L28.3501 20.0814C28.1851 20.4464 28.0301 20.7914 27.9921 20.8414C27.9331 20.8274 27.9331 20.7764 27.9481 20.4504C27.9601 20.1904 27.9751 19.8674 27.9541 19.7214C27.9481 19.6834 27.9291 19.6664 27.8911 19.6664C27.8651 19.6664 27.8411 19.6754 27.8411 19.6754C27.8371 19.7514 27.8111 19.8214 27.8031 19.8974C27.7841 20.0584 27.7571 20.2164 27.7221 20.3724C27.6731 20.5934 27.6081 20.8064 27.5291 21.0174C27.5041 21.0824 27.4801 21.1474 27.4521 21.2104C26.6371 23.1324 24.6531 24.5664 22.8261 24.8254C22.4541 24.8784 22.2531 25.0134 21.9751 25.2004C21.8411 25.2904 21.6901 25.3924 21.4931 25.5024C21.3951 25.5584 21.2721 25.5994 21.1431 25.6434C20.9961 25.6934 20.8431 25.7454 20.7011 25.8234C20.4501 25.9634 20.2531 26.1804 20.1531 26.3374C20.1361 26.3644 20.1401 26.4314 20.1621 26.4984C20.1801 26.5554 20.2041 26.5904 20.2191 26.5964C20.2271 26.5894 20.2381 26.5564 20.2441 26.5354C20.2591 26.4884 20.2761 26.4354 20.3161 26.4164C20.3811 26.4084 20.3981 26.4274 20.4121 26.4434C20.4291 26.4624 20.4401 26.4734 20.4611 26.4734C20.5301 26.4694 20.6111 26.4044 20.6111 26.4044C20.6271 26.3984 22.1371 26.3964 22.7851 26.3774C22.8861 26.3744 23.0651 26.3324 23.1481 26.2544C23.1431 26.2504 23.1341 26.2504 23.1271 26.2474C23.1111 26.2474 23.1011 26.2474 23.0681 26.2474C23.0321 26.2474 22.9911 26.2514 22.9511 26.2564L22.8681 26.2634C22.4061 26.2304 21.8111 26.2594 21.3841 26.2334C21.3801 26.2334 21.3411 26.2294 21.3161 26.2004C21.3011 26.1834 21.2951 26.1604 21.2981 26.1344C21.3001 26.1104 21.3921 26.0014 21.5621 25.8184H21.4971L21.3801 25.8424C21.3861 25.8424 21.2591 25.9144 21.1901 25.9214C21.1371 25.9264 21.1021 25.9054 21.0931 25.8784L21.0871 25.8624L21.1081 25.8264C21.4341 25.5814 22.3701 25.1604 22.4101 25.1434C22.4131 25.1424 22.6701 25.0434 23.1211 24.9514C23.6411 24.8444 23.9481 24.8244 24.1321 24.8134C24.2311 24.8064 24.2961 24.8024 24.3141 24.7874C24.8701 24.1744 25.3001 24.0264 25.7161 23.8834C25.8031 23.8534 25.8891 23.8244 25.9751 23.7904C26.1811 23.6174 26.3171 23.3934 26.4611 23.1554C26.5821 22.9554 26.7071 22.7494 26.8921 22.5364C27.3051 22.0604 27.5501 22.0164 27.5611 22.0154L27.6381 22.1294C27.6331 22.1054 27.7281 22.0394 27.7901 22.0394L27.8371 22.0584C27.8501 22.0724 27.8561 22.0934 27.8541 22.1214C27.8451 22.2324 27.7931 22.3414 27.7481 22.4364C27.7061 22.5254 27.6651 22.6104 27.6691 22.6764C27.7331 22.6884 27.7671 22.6834 27.7991 22.6784C27.8311 22.6734 27.8611 22.6684 27.8841 22.6684L27.9381 22.6884C27.8931 22.8884 27.7601 23.0034 27.6631 23.0884C27.6201 23.1254 27.5831 23.1584 27.5631 23.1844C27.5751 23.2004 27.5981 23.1974 27.6231 23.1924C27.6521 23.1884 27.6811 23.1834 27.7041 23.1834H27.7181L27.7661 23.2094C27.7821 23.2354 27.7661 23.2664 27.7601 23.2774C27.7021 23.3874 27.5021 23.4884 27.3261 23.5774C27.2571 23.6124 27.1951 23.6434 27.1521 23.6704C27.2051 23.7154 27.2561 23.7434 27.2421 23.7914C27.2311 23.8304 27.1601 23.8694 27.0121 23.9444C26.9441 23.9784 26.8511 24.0254 26.8401 24.0444C26.8441 24.0574 26.8601 24.0704 26.8771 24.0844L26.9131 24.1354C26.8451 24.2334 26.7311 24.2594 26.6311 24.2814C26.5771 24.2944 26.5031 24.3114 26.4921 24.3244C26.5191 24.4094 26.5401 24.4654 26.4831 24.5364C26.4291 24.6044 26.3781 24.6134 26.3401 24.6134L26.2841 24.6104C26.2661 24.6104 26.2531 24.6124 26.2401 24.6444C26.2351 24.6584 26.2631 24.6964 26.2831 24.7224C26.3151 24.7644 26.3451 24.8044 26.3301 24.8414C26.3221 24.8634 26.3001 24.8764 26.2641 24.8834C26.0671 24.9194 25.9211 25.0044 25.7641 25.1024C25.7171 25.1314 25.5741 25.1634 25.4231 25.1974C25.3581 25.2124 25.2951 25.2264 25.2431 25.2394C25.2091 25.2484 25.1271 25.2614 25.0321 25.2774C24.9001 25.2984 24.6681 25.3364 24.5941 25.3634C24.6481 25.3654 24.8071 25.4094 25.7541 25.2464C26.0991 25.1874 26.2941 25.1454 26.8381 24.9754C27.0611 24.9054 27.0631 24.8694 27.0631 24.8674C27.0631 24.8474 26.9561 24.8154 26.9151 24.8044C26.8271 24.7784 26.7801 24.7634 26.7751 24.7304L26.7731 24.7154L26.8001 24.6864C26.8611 24.6464 26.9961 24.6334 27.1381 24.6204C27.2691 24.6084 27.4661 24.5894 27.4741 24.5414C27.4821 24.4894 27.4151 24.4714 27.3181 24.4524C27.2461 24.4384 27.1771 24.4244 27.1841 24.3704C27.1891 24.3264 27.2611 24.3124 27.4361 24.2844C27.6031 24.2574 27.8551 24.2164 27.8741 24.1294C27.8621 24.1094 27.7921 24.1014 27.7461 24.0964C27.6701 24.0874 27.6041 24.0804 27.5871 24.0404L27.5821 24.0274L27.6041 23.9754C27.6451 23.9244 27.7451 23.8924 27.8621 23.8564C28.0281 23.8044 28.2161 23.7454 28.2251 23.6264C28.2101 23.5924 28.1271 23.5954 28.0341 23.6054C27.9601 23.6134 27.8891 23.6304 27.8621 23.5864C27.8791 23.5094 27.9231 23.4884 27.9961 23.4534C28.0641 23.4214 28.1521 23.3794 28.2411 23.3184C28.8401 22.9034 28.9151 22.7184 28.9051 22.6454C28.8031 22.6264 28.6391 22.7204 28.4951 22.8064C28.3431 22.8964 28.2131 22.9734 28.1431 22.9744L28.0951 22.9534C28.0811 22.9364 28.0791 22.9114 28.0881 22.8774C28.0961 22.8434 28.1721 22.7714 28.3861 22.5734C28.7471 22.2384 29.4191 21.6154 29.2731 21.4464C29.1421 21.4474 28.8611 21.6814 28.6401 21.8794C28.3901 22.1034 28.2321 22.2404 28.1531 22.2404H28.1321L28.0981 22.1884C28.0951 22.1624 28.1271 22.1174 28.3111 21.8774C28.7171 21.3474 29.5591 20.2454 29.3541 19.8414C29.3541 19.8414 29.3511 19.8444 29.3491 19.8444C29.3021 19.8784 29.0681 20.2544 28.8601 20.5904L28.8621 20.5854ZM20.8421 26.1694C20.8071 26.1774 20.7741 26.1854 20.7481 26.1854H20.7261L20.6901 26.1434C20.6861 26.0984 20.7241 26.0624 20.7911 26.0474C20.8381 26.0374 20.8681 26.0304 20.8921 26.0304H20.9151L20.9481 26.0714C20.9521 26.1154 20.9111 26.1544 20.8441 26.1694H20.8421Z" fill="#FCC600"/>
<path d="M26.3439 24.583H26.3379L26.3439 24.586V24.583Z" fill="#FCC600"/>
<path d="M21.3878 26.2086L21.3468 26.1416C21.3548 26.1226 21.4388 26.0176 21.5248 25.8936C21.4448 25.9816 21.3248 26.1156 21.3228 26.1356C21.3158 26.2036 21.3878 26.2086 21.3878 26.2086Z" fill="#FCC600"/>
<path d="M27.2102 24.3694C27.2012 24.4444 27.5212 24.4034 27.5002 24.5414C27.4822 24.6594 26.9432 24.6194 26.8162 24.7024C26.6902 24.7854 27.4662 24.7994 26.8482 24.9944C26.3082 25.1644 26.1072 25.2074 25.7602 25.2664C24.9612 25.4044 24.5802 25.4094 24.5562 25.3624C24.5312 25.3154 25.1312 25.2404 25.2402 25.2124C25.4052 25.1704 25.6912 25.1174 25.7542 25.0774C25.9212 24.9724 26.0672 24.8904 26.2622 24.8544C26.4052 24.8284 26.1942 24.6954 26.2202 24.6304C26.2462 24.5664 26.2872 24.5804 26.3372 24.5814L26.2862 24.5574C26.2432 24.5574 26.2162 24.5764 26.1982 24.6214C26.1822 24.6604 26.2152 24.7044 26.2472 24.7464C26.2642 24.7684 26.2932 24.8074 26.2582 24.8304C26.0522 24.8684 25.9022 24.9554 25.7412 25.0564C25.7022 25.0814 25.5502 25.1154 25.4152 25.1454C25.3502 25.1604 25.2862 25.1744 25.2342 25.1874C25.2002 25.1964 25.1202 25.2084 25.0272 25.2244C24.6532 25.2854 24.5522 25.3094 24.5352 25.3714C24.5462 25.3914 24.5752 25.4104 24.7182 25.4104C24.8432 25.4104 25.1442 25.3944 25.7652 25.2874C26.1122 25.2274 26.3082 25.1854 26.8562 25.0144C27.0842 24.9434 27.1152 24.8984 27.1152 24.8604C27.1152 24.8044 27.0262 24.7784 26.9322 24.7514C26.8932 24.7394 26.8342 24.7224 26.8302 24.7194C26.8812 24.6864 27.0162 24.6734 27.1462 24.6614C27.3422 24.6424 27.5122 24.6264 27.5252 24.5424C27.5412 24.4404 27.4202 24.4164 27.3322 24.3994C27.2982 24.3924 27.2422 24.3814 27.2342 24.3754C27.2492 24.3584 27.3592 24.3404 27.4482 24.3254C27.6302 24.2954 27.8232 24.2584 27.8882 24.1484C27.8042 24.2964 27.2202 24.2994 27.2122 24.3674L27.2102 24.3694Z" fill="#FCC600"/>
<path d="M29.3809 19.8467C29.4059 19.9067 29.4139 19.9777 29.4039 20.0587C29.4119 19.9787 29.4039 19.9087 29.3809 19.8467Z" fill="#FCC600"/>
<path d="M26.4733 24.3151C26.4783 24.2611 26.7993 24.2481 26.8803 24.1601C26.9273 24.1091 26.8303 24.1031 26.8213 24.0361C26.8153 23.9891 27.2043 23.8461 27.2223 23.7811C27.2403 23.7161 27.0533 23.7041 27.1423 23.6471C27.2893 23.5541 27.6653 23.4091 27.7423 23.2631C27.8183 23.1201 27.4463 23.3061 27.5483 23.1681C27.6163 23.0761 27.8543 22.9401 27.9233 22.7201C27.9503 22.6341 27.6533 22.7691 27.6483 22.6751C27.6403 22.5281 27.8153 22.3261 27.8333 22.1161C27.8443 21.9761 27.6233 22.1421 27.6233 22.1421L27.5683 22.0361C27.5683 22.0361 27.3263 22.0741 26.9143 22.5491C26.5023 23.0241 26.3763 23.4871 25.9873 23.8101C25.4983 24.0011 25.0053 24.0611 24.3333 24.8031C24.2723 24.8551 23.9783 24.7991 23.1303 24.9731C22.6753 25.0661 22.4233 25.1631 22.4233 25.1631C22.4233 25.1631 21.4533 25.5971 21.1263 25.8431C21.1023 25.8621 21.1263 25.9031 21.1903 25.8961C21.2543 25.8891 21.3823 25.8161 21.3823 25.8161H21.4993L21.5783 25.8001C21.5713 25.8071 21.5703 25.8101 21.5633 25.8161H21.5793C21.5853 25.8071 21.5903 25.8011 21.5963 25.7921L21.3703 25.7951C21.3363 25.8151 21.2363 25.8641 21.1403 25.8621C21.4613 25.6201 22.4223 25.1881 22.4313 25.1851C22.4343 25.1851 22.6873 25.0871 23.1343 24.9961C23.6513 24.8901 23.9563 24.8701 24.1383 24.8581C24.2623 24.8501 24.3183 24.8471 24.3503 24.8181C24.9003 24.2121 25.3243 24.0661 25.7353 23.9251C25.8223 23.8951 25.9093 23.8651 26.0023 23.8271C26.2213 23.6451 26.3593 23.4171 26.5053 23.1761C26.6253 22.9781 26.7493 22.7731 26.9323 22.5631C27.3133 22.1241 27.5483 22.0631 27.5483 22.0481L27.6383 22.1611C27.6783 22.1311 27.7563 22.0841 27.8093 22.1141C27.8013 22.2161 27.7543 22.3161 27.7083 22.4131C27.6633 22.5081 27.6203 22.5981 27.6243 22.6771C27.6263 22.7141 27.6953 22.7431 27.8103 22.7231C27.8393 22.7191 27.8673 22.7141 27.9013 22.7131C27.8553 22.8591 27.7333 22.9651 27.6363 23.0501C27.5913 23.0901 27.5523 23.1231 27.5303 23.1541C27.5153 23.1741 27.5003 23.1991 27.5123 23.2221L27.5643 23.2461C27.5843 23.2461 27.6103 23.2421 27.6373 23.2371C27.6623 23.2341 27.6893 23.2291 27.7233 23.2511C27.6723 23.3471 27.4713 23.4491 27.3093 23.5311C27.2393 23.5661 27.1753 23.5991 27.1313 23.6261L27.0953 23.6631V23.6771C27.0973 23.7061 27.1263 23.7211 27.1553 23.7361C27.1743 23.7471 27.2043 23.7631 27.2013 23.7741C27.1923 23.7981 27.0693 23.8601 26.9963 23.8981C26.8433 23.9741 26.7943 24.0021 26.7993 24.0401C26.8053 24.0791 26.8323 24.1011 26.8643 24.1441C26.8263 24.1861 26.7153 24.2111 26.6253 24.2321C26.5183 24.2561 26.4543 24.2711 26.4513 24.3141C26.4483 24.3381 26.4563 24.3611 26.4643 24.3831C26.4783 24.4221 26.4903 24.4551 26.4513 24.5041C26.4103 24.5561 26.3743 24.5631 26.3463 24.5631V24.5841C26.3833 24.5841 26.4243 24.5771 26.4703 24.5191C26.5423 24.4291 26.4703 24.3731 26.4753 24.3171L26.4733 24.3151Z" fill="#FCC600"/>
<path d="M23.1297 26.2478C23.1387 26.2478 23.1577 26.2508 23.1627 26.2478C23.1597 26.2508 23.1537 26.2518 23.1507 26.2538C23.1577 26.2598 23.1767 26.2558 23.1797 26.2638C23.0967 26.3508 22.9037 26.3968 22.7877 26.4008C22.1407 26.4198 20.6287 26.4218 20.6287 26.4218C20.6287 26.4218 20.5427 26.4918 20.4687 26.4958C20.3937 26.4998 20.3937 26.4068 20.3297 26.4378C20.2657 26.4688 20.2697 26.6428 20.2117 26.6188C20.1547 26.5948 20.0917 26.3938 20.1347 26.3248C20.2247 26.1828 20.4197 25.9538 20.6917 25.8028C20.9637 25.6518 21.2787 25.5978 21.4837 25.4818C22.0897 25.1408 22.2677 24.8808 22.8247 24.8018C24.5427 24.5578 26.6097 23.1798 27.4547 21.2098C27.4817 21.1458 27.5067 21.0818 27.5317 21.0168C27.6107 20.8088 27.6747 20.5928 27.7247 20.3718C27.7597 20.2158 27.7877 20.0578 27.8057 19.8968C27.8157 19.8148 27.8297 19.7348 27.8357 19.6528C27.8357 19.6528 27.9637 19.6048 27.9807 19.7188C28.0207 19.9918 27.9327 20.8838 27.9747 20.8268C27.9777 20.8228 27.9857 20.8058 27.9897 20.7978C27.9847 20.7558 27.9907 20.6078 27.9977 20.4528C28.0097 20.1908 28.0257 19.8648 28.0037 19.7148C27.9897 19.6188 27.8577 19.5928 27.8107 19.6508C27.6387 22.3178 25.0927 24.4548 22.8217 24.7778C22.4387 24.8318 22.2337 24.9698 21.9497 25.1608C21.8167 25.2498 21.6667 25.3508 21.4717 25.4608C21.3767 25.5138 21.2567 25.5548 21.1296 25.5978C20.9806 25.6488 20.8257 25.7008 20.6797 25.7818C20.4197 25.9258 20.2177 26.1498 20.1137 26.3118C20.0837 26.3598 20.0957 26.4478 20.1177 26.5138C20.1277 26.5458 20.1567 26.6218 20.2017 26.6408L20.2207 26.6448C20.2617 26.6448 20.2757 26.5988 20.2917 26.5498C20.3027 26.5148 20.3247 26.4678 20.3777 26.4758C20.3947 26.4948 20.4187 26.5208 20.4677 26.5208C20.5467 26.5168 20.6327 26.4478 20.6277 26.4468C20.6677 26.4468 22.1477 26.4438 22.7857 26.4258C22.9017 26.4228 23.1057 26.3748 23.1997 26.2568C23.1667 26.1618 23.0397 26.1968 22.9457 26.2068L22.8687 26.2138C22.4117 26.1818 21.8136 26.2108 21.3866 26.1838V26.2078C21.8116 26.2338 22.4097 26.2048 22.8667 26.2378C22.9537 26.2338 23.0647 26.2218 23.1267 26.2468L23.1297 26.2478Z" fill="#FCC600"/>
<path d="M29.2952 21.4244C29.5212 21.6884 28.1402 22.7744 28.1142 22.8774C28.0402 23.1674 28.9022 22.4094 28.9312 22.6374C28.9542 22.8234 28.5262 23.1474 28.2572 23.3334C28.0842 23.4534 27.9102 23.5004 27.8882 23.5434C27.8322 23.6504 28.2622 23.4914 28.2522 23.6234C28.2352 23.8444 27.7192 23.8694 27.6262 23.9854C27.5332 24.1004 27.9082 24.0374 27.8982 24.1274C27.9032 24.1154 27.9142 24.1064 27.9162 24.0934C27.8922 24.0594 27.8282 24.0524 27.7552 24.0444C27.7162 24.0404 27.6432 24.0314 27.6452 24.0014C27.6772 23.9614 27.7752 23.9304 27.8802 23.8974C28.0602 23.8414 28.2652 23.7774 28.2772 23.6264L28.2612 23.5754C28.2282 23.5404 28.1342 23.5434 28.0332 23.5534C27.9992 23.5574 27.9662 23.5594 27.9122 23.5554C27.9192 23.5414 27.9742 23.5154 28.0222 23.4924C28.0922 23.4594 28.1832 23.4164 28.2732 23.3534C28.7462 23.0264 28.9772 22.7844 28.9582 22.6344C28.9432 22.5104 28.7212 22.6134 28.4752 22.7594C28.3412 22.8384 28.2012 22.9194 28.1402 22.8834C28.1502 22.8564 28.2902 22.7264 28.4252 22.6014C28.9652 22.1014 29.4792 21.5974 29.3162 21.4084L29.2642 21.3814H29.2532C29.1252 21.3814 28.8662 21.6124 28.6152 21.8364C28.4322 21.9994 28.2232 22.1684 28.1522 22.1804C28.1582 22.1574 28.2542 22.0324 28.3562 21.8994C28.6922 21.4604 29.3132 20.6414 29.3982 20.1074C29.2652 20.8134 28.1202 22.1134 28.1282 22.1774C28.1602 22.4124 29.1452 21.2444 29.2982 21.4224L29.2952 21.4244Z" fill="#FCC600"/>
<path d="M29.3539 19.84L29.3579 19.835V19.837C29.3629 19.837 29.3739 19.822 29.3759 19.825C29.3719 19.815 29.3739 19.802 29.3679 19.793C29.3049 19.793 29.1679 20.003 28.8219 20.56C28.5269 21.035 28.1239 21.684 28.0039 21.697C28.2099 21.742 29.2009 19.887 29.3519 19.839L29.3539 19.84Z" fill="#FCC600"/>
<path d="M28.807 19.3028C28.971 19.5178 27.934 21.6518 27.98 21.7048C27.985 21.7098 27.997 21.6958 28.003 21.6978C28.003 21.6588 28.119 21.3848 28.242 21.0938C28.625 20.1898 28.934 19.4288 28.826 19.2878L28.786 19.2598H28.774C28.68 19.2598 28.572 19.4768 28.364 19.9368L28.308 20.0618C28.171 20.3658 28.036 20.6678 28.004 20.7738C28.071 20.6488 28.231 20.2908 28.386 19.9468C28.564 19.5528 28.727 19.1988 28.807 19.3028Z" fill="#FCC600"/>
<path d="M20.6125 26.4049C20.6125 26.4049 20.5325 26.4699 20.4625 26.4739C20.4415 26.4739 20.4305 26.4629 20.4135 26.4439C20.3985 26.4279 20.3825 26.4089 20.3175 26.4169C20.2775 26.4359 20.2605 26.4889 20.2455 26.5359C20.2395 26.5569 20.2285 26.5899 20.2205 26.5969C20.2055 26.5909 20.1825 26.5559 20.1635 26.4989C20.1415 26.4309 20.1375 26.3649 20.1545 26.3379C20.2545 26.1809 20.4515 25.9639 20.7025 25.8239C20.8445 25.7449 20.9975 25.6939 21.1445 25.6439C21.2735 25.6009 21.3965 25.5589 21.4945 25.5029C21.6905 25.3929 21.8425 25.2909 21.9765 25.2009C22.2545 25.0139 22.4565 24.8789 22.8275 24.8259C24.6555 24.5659 26.6385 23.1319 27.4535 21.2109C26.6085 23.1809 24.5415 24.5589 22.8235 24.8029C22.2665 24.8819 22.0885 25.1419 21.4825 25.4829C21.2775 25.5979 20.9625 25.6529 20.6905 25.8039C20.4185 25.9549 20.2245 26.1849 20.1335 26.3259C20.0905 26.3949 20.1525 26.5969 20.2105 26.6199C20.2675 26.6439 20.2635 26.4699 20.3285 26.4389C20.3925 26.4079 20.3925 26.5019 20.4675 26.4969C20.5425 26.4929 20.6275 26.4229 20.6275 26.4229C20.6275 26.4229 22.1385 26.4209 22.7865 26.4019C22.9025 26.3989 23.0955 26.3519 23.1785 26.2649C23.1755 26.2569 23.1555 26.2609 23.1495 26.2549C23.0665 26.3329 22.8875 26.3749 22.7865 26.3779C22.1395 26.3969 20.6285 26.3989 20.6125 26.4049Z" fill="#FCC600"/>
<path d="M27.5312 21.018C27.6103 20.808 27.6752 20.594 27.7242 20.373C27.6742 20.594 27.6103 20.809 27.5312 21.018Z" fill="#FCC600"/>
<path d="M27.9816 19.7186C27.9646 19.6046 27.8366 19.6526 27.8366 19.6526C27.8316 19.7356 27.8166 19.8156 27.8066 19.8966C27.8146 19.8216 27.8406 19.7506 27.8446 19.6746C27.8446 19.6746 27.8686 19.6656 27.8946 19.6656C27.9326 19.6656 27.9516 19.6826 27.9576 19.7206C27.9786 19.8656 27.9636 20.1896 27.9516 20.4496C27.9356 20.7756 27.9356 20.8266 27.9956 20.8406C28.0326 20.7906 28.1886 20.4456 28.3536 20.0806L28.4096 19.9556C28.5336 19.6826 28.7076 19.3126 28.7886 19.3166C28.8886 19.4476 28.4566 20.4666 28.1986 21.0746C27.9566 21.6456 27.9406 21.6956 28.0066 21.7406C28.1386 21.7406 28.4326 21.2826 28.8656 20.5846C29.0746 20.2486 29.3076 19.8726 29.3546 19.8386C29.2026 19.8866 28.2126 21.7416 28.0066 21.6966L28.0036 21.6976C27.9976 21.6956 27.9846 21.7096 27.9806 21.7036C27.9346 21.6506 28.9716 19.5166 28.8076 19.3016C28.7276 19.1976 28.5656 19.5516 28.3876 19.9456C28.2326 20.2896 28.0716 20.6466 28.0056 20.7726C28.0016 20.7876 27.9926 20.8106 27.9926 20.8166C27.9926 20.8146 27.9926 20.8006 27.9926 20.7976C27.9886 20.8046 27.9796 20.8226 27.9776 20.8266C27.9356 20.8836 28.0236 19.9916 27.9836 19.7186H27.9816Z" fill="#FCC600"/>
<path d="M29.3768 19.8252C29.3768 19.8252 29.3628 19.8362 29.3588 19.8372C29.5648 20.2412 28.7218 21.3432 28.3158 21.8732C28.1318 22.1132 28.0998 22.1582 28.1028 22.1842L28.1368 22.2362H28.1578C28.2368 22.2362 28.3948 22.0992 28.6448 21.8752C28.8658 21.6772 29.1468 21.4432 29.2778 21.4422C29.4238 21.6122 28.7518 22.2342 28.3908 22.5692C28.1768 22.7672 28.1008 22.8402 28.0928 22.8732C28.0838 22.9072 28.0858 22.9332 28.0998 22.9492L28.1478 22.9702C28.2168 22.9702 28.3478 22.8922 28.4998 22.8022C28.6438 22.7172 28.8078 22.6222 28.9098 22.6412C28.9188 22.7142 28.8448 22.9002 28.2458 23.3142C28.1578 23.3762 28.0688 23.4172 28.0008 23.4492C27.9278 23.4842 27.8828 23.5052 27.8668 23.5822C27.8938 23.6252 27.9638 23.6092 28.0388 23.6012C28.1318 23.5922 28.2148 23.5882 28.2298 23.6222C28.2208 23.7412 28.0328 23.8002 27.8668 23.8522C27.7498 23.8882 27.6498 23.9202 27.6088 23.9712L27.5868 24.0232L27.5918 24.0362C27.6088 24.0762 27.6748 24.0832 27.7508 24.0922C27.7968 24.0972 27.8668 24.1052 27.8788 24.1252C27.8608 24.2112 27.6078 24.2522 27.4408 24.2802C27.2658 24.3092 27.1938 24.3222 27.1888 24.3662C27.1828 24.4202 27.2508 24.4342 27.3228 24.4482C27.4188 24.4672 27.4868 24.4852 27.4788 24.5372C27.4708 24.5852 27.2738 24.6042 27.1428 24.6162C27.0008 24.6292 26.8658 24.6422 26.8048 24.6822L26.7778 24.7112L26.7798 24.7262C26.7848 24.7602 26.8318 24.7752 26.9198 24.8002C26.9598 24.8122 27.0678 24.8432 27.0678 24.8632C27.0678 24.8642 27.0658 24.9002 26.8428 24.9712C26.2988 25.1422 26.1038 25.1832 25.7588 25.2422C24.8118 25.4052 24.6538 25.3612 24.5988 25.3592C24.6728 25.3322 24.9048 25.2942 25.0368 25.2732C25.1328 25.2582 25.2138 25.2442 25.2478 25.2352C25.2998 25.2222 25.3638 25.2082 25.4278 25.1932C25.5788 25.1592 25.7218 25.1272 25.7688 25.0982C25.9248 24.9992 26.0708 24.9152 26.2688 24.8792C26.3048 24.8722 26.3268 24.8592 26.3348 24.8372C26.3498 24.8002 26.3188 24.7602 26.2878 24.7182C26.2688 24.6922 26.2398 24.6542 26.2448 24.6402C26.2578 24.6082 26.2708 24.6062 26.2888 24.6062L26.3448 24.6092C26.3828 24.6092 26.4338 24.6002 26.4878 24.5322C26.5438 24.4612 26.5238 24.4062 26.4968 24.3202C26.5078 24.3072 26.5818 24.2902 26.6358 24.2772C26.7368 24.2542 26.8498 24.2282 26.9178 24.1312L26.8818 24.0802C26.8648 24.0662 26.8488 24.0532 26.8448 24.0402C26.8558 24.0212 26.9488 23.9752 27.0168 23.9402C27.1648 23.8662 27.2358 23.8272 27.2468 23.7872C27.2608 23.7392 27.2108 23.7122 27.1568 23.6662C27.1988 23.6392 27.2618 23.6082 27.3308 23.5732C27.5068 23.4842 27.7078 23.3832 27.7648 23.2732C27.7698 23.2632 27.7868 23.2312 27.7708 23.2052L27.7228 23.1792H27.7088C27.6858 23.1792 27.6568 23.1842 27.6278 23.1882C27.6028 23.1932 27.5798 23.1962 27.5678 23.1802C27.5878 23.1542 27.6248 23.1212 27.6678 23.0842C27.7648 23.0002 27.8978 22.8842 27.9428 22.6842L27.8888 22.6642C27.8658 22.6642 27.8348 22.6692 27.8038 22.6742C27.7718 22.6792 27.7378 22.6842 27.6738 22.6722C27.6698 22.6052 27.7098 22.5212 27.7528 22.4322C27.7978 22.3362 27.8498 22.2282 27.8588 22.1172C27.8608 22.0892 27.8548 22.0682 27.8418 22.0542L27.7948 22.0352C27.7328 22.0352 27.6378 22.1012 27.6428 22.1252L27.5658 22.0112C27.5558 22.0122 27.3098 22.0562 26.8968 22.5322C26.7118 22.7452 26.5868 22.9512 26.4658 23.1512C26.3218 23.3892 26.1848 23.6142 25.9798 23.7862C25.8938 23.8192 25.8078 23.8492 25.7208 23.8792C25.3048 24.0222 24.8748 24.1702 24.3188 24.7832C24.3008 24.7982 24.2358 24.8032 24.1368 24.8092C23.9528 24.8202 23.6458 24.8412 23.1258 24.9472C22.6748 25.0402 22.4178 25.1382 22.4148 25.1392C22.3748 25.1562 21.4388 25.5772 21.1128 25.8222L21.0918 25.8582L21.0978 25.8742C21.1068 25.9012 21.1418 25.9222 21.1948 25.9172C21.2638 25.9102 21.3908 25.8382 21.3848 25.8382L21.5018 25.8142H21.3848C21.3848 25.8142 21.2568 25.8872 21.1928 25.8942C21.1288 25.9012 21.1038 25.8602 21.1288 25.8412C21.4558 25.5952 22.4258 25.1612 22.4258 25.1612C22.4258 25.1612 22.6778 25.0642 23.1328 24.9712C23.9818 24.7972 24.2748 24.8532 24.3358 24.8012C25.0088 24.0592 25.5008 23.9992 25.9898 23.8082C26.3788 23.4842 26.5048 23.0222 26.9168 22.5472C27.3288 22.0722 27.5708 22.0342 27.5708 22.0342L27.6258 22.1402C27.6258 22.1402 27.8468 21.9742 27.8358 22.1142C27.8178 22.3242 27.6438 22.5262 27.6508 22.6732C27.6558 22.7672 27.9528 22.6322 27.9258 22.7182C27.8568 22.9382 27.6188 23.0732 27.5508 23.1662C27.4488 23.3042 27.8208 23.1182 27.7448 23.2612C27.6678 23.4072 27.2918 23.5532 27.1448 23.6452C27.0558 23.7022 27.2428 23.7142 27.2248 23.7792C27.2068 23.8442 26.8178 23.9872 26.8238 24.0342C26.8338 24.1012 26.9298 24.1072 26.8828 24.1582C26.8008 24.2462 26.4808 24.2592 26.4758 24.3132C26.4698 24.3692 26.5428 24.4252 26.4708 24.5152C26.4248 24.5732 26.3838 24.5802 26.3468 24.5802V24.5832L26.3408 24.5802C26.2908 24.5792 26.2498 24.5642 26.2238 24.6292C26.1978 24.6942 26.4088 24.8272 26.2658 24.8532C26.0708 24.8892 25.9248 24.9702 25.7578 25.0762C25.6948 25.1162 25.4088 25.1682 25.2438 25.2112C25.1348 25.2392 24.5338 25.3132 24.5598 25.3612C24.5838 25.4072 24.9648 25.4032 25.7638 25.2652C26.1108 25.2052 26.3108 25.1622 26.8518 24.9932C27.4698 24.7982 26.6938 24.7852 26.8198 24.7012C26.9468 24.6182 27.4858 24.6582 27.5038 24.5402C27.5248 24.4022 27.2058 24.4442 27.2138 24.3682C27.2218 24.3002 27.8068 24.2972 27.8898 24.1492C27.8938 24.1422 27.8978 24.1352 27.9008 24.1272C27.9098 24.0372 27.5358 24.1002 27.6288 23.9852C27.7218 23.8692 28.2378 23.8442 28.2548 23.6232C28.2658 23.4912 27.8348 23.6502 27.8908 23.5432C27.9128 23.5002 28.0868 23.4522 28.2598 23.3332C28.5288 23.1462 28.9578 22.8232 28.9338 22.6372C28.9048 22.4102 28.0428 23.1672 28.1168 22.8772C28.1428 22.7742 29.5238 21.6882 29.2978 21.4242C29.1438 21.2462 28.1598 22.4132 28.1278 22.1792C28.1198 22.1152 29.2638 20.8152 29.3978 20.1092C29.4008 20.0922 29.4048 20.0752 29.4058 20.0592C29.4158 19.9772 29.4088 19.9062 29.3828 19.8472C29.3798 19.8402 29.3798 19.8322 29.3768 19.8252Z" fill="#FCC600"/>
<path d="M21.2996 26.1334C21.2966 26.1594 21.3026 26.1824 21.3176 26.1994C21.3426 26.2284 21.3816 26.2324 21.3856 26.2324C21.8126 26.2584 22.4076 26.2284 22.8696 26.2624L22.9526 26.2554C22.9926 26.2514 23.0336 26.2464 23.0696 26.2464C23.1026 26.2464 23.1126 26.2464 23.1286 26.2464C23.0666 26.2204 22.9566 26.2324 22.8686 26.2374C22.4116 26.2054 21.8136 26.2344 21.3876 26.2074C21.3876 26.2074 21.3166 26.2024 21.3236 26.1344C21.3256 26.1144 21.4456 25.9804 21.5256 25.8924C21.5436 25.8654 21.5616 25.8434 21.5796 25.8154H21.5636C21.3936 25.9984 21.3026 26.1074 21.2996 26.1314V26.1334Z" fill="#FCC600"/>
<path d="M20.8916 26.0312C20.8676 26.0312 20.8376 26.0383 20.7906 26.0483C20.7236 26.0633 20.6866 26.0992 20.6896 26.1442L20.7256 26.1863H20.7476C20.7736 26.1863 20.8066 26.1782 20.8416 26.1702C20.9086 26.1552 20.9486 26.1163 20.9456 26.0723L20.9126 26.0312H20.8896H20.8916ZM20.8386 26.1472C20.7856 26.1592 20.7176 26.1763 20.7156 26.1423C20.7126 26.1093 20.7436 26.0842 20.7976 26.0712C20.8506 26.0602 20.9216 26.0392 20.9236 26.0732C20.9266 26.1062 20.8926 26.1352 20.8386 26.1472Z" fill="#00AEC5"/>
<path d="M20.7951 26.0712C20.7421 26.0832 20.7101 26.1092 20.7131 26.1422C20.7161 26.1752 20.7831 26.1592 20.8361 26.1472C20.8891 26.1352 20.9231 26.1062 20.9211 26.0742C20.9191 26.0402 20.8481 26.0612 20.7951 26.0722V26.0712Z" fill="#00AEC5"/>
<path d="M22.8586 15.1729C23.0416 15.2069 23.1316 15.1069 23.1586 14.9719C23.1956 14.7909 23.1166 13.8789 23.1166 13.8789C23.1166 13.8789 22.6936 14.6909 22.6576 14.8729C22.6306 15.0079 22.6756 15.1379 22.8576 15.1729H22.8586Z" fill="#FCC600"/>
<path d="M23.5245 15.3743C23.6965 15.4433 23.8055 15.3633 23.8585 15.2343C23.9295 15.0643 24.0325 14.1553 24.0325 14.1553C24.0325 14.1553 23.4585 14.8703 23.3875 15.0403C23.3345 15.1683 23.3535 15.3033 23.5245 15.3743Z" fill="#FCC600"/>
<path d="M24.1386 15.6995C24.2946 15.8005 24.4166 15.7425 24.4946 15.6275C24.5976 15.4735 24.8766 14.6025 24.8766 14.6025C24.8766 14.6025 24.1726 15.1925 24.0696 15.3455C23.9926 15.4605 23.9836 15.5975 24.1386 15.6995Z" fill="#FCC600"/>
<path d="M24.677 16.1381C24.809 16.2671 24.94 16.2341 25.039 16.1361C25.17 16.0061 25.615 15.2051 25.615 15.2051C25.615 15.2051 24.808 15.6471 24.677 15.7781C24.579 15.8751 24.544 16.0081 24.677 16.1381Z" fill="#FCC600"/>
<path d="M25.1161 16.6725C25.2211 16.8255 25.3561 16.8185 25.4721 16.7415C25.6271 16.6385 26.2191 15.9395 26.2191 15.9395C26.2191 15.9395 25.3421 16.2165 25.1881 16.3195C25.0721 16.3965 25.0121 16.5195 25.1161 16.6725Z" fill="#FCC600"/>
<path d="M25.445 17.2833C25.518 17.4523 25.652 17.4723 25.781 17.4203C25.952 17.3493 26.671 16.7783 26.671 16.7783C26.671 16.7783 25.756 16.8803 25.585 16.9503C25.456 17.0033 25.374 17.1123 25.445 17.2833Z" fill="#FCC600"/>
<path d="M25.8509 17.6458C25.7139 17.6728 25.6119 17.7638 25.6479 17.9448C25.6859 18.1258 25.8139 18.1708 25.9499 18.1438C26.1319 18.1078 26.9499 17.6878 26.9499 17.6878C26.9499 17.6878 26.0319 17.6108 25.8509 17.6458Z" fill="#FCC600"/>
<path d="M25.9728 18.3789C25.8338 18.3789 25.7148 18.4489 25.7148 18.6329C25.7168 18.8179 25.8338 18.8869 25.9728 18.8869C26.1588 18.8869 27.0428 18.6329 27.0428 18.6329C27.0428 18.6329 26.1588 18.3789 25.9728 18.3789Z" fill="#FCC600"/>
<path d="M25.9493 19.1215C25.8133 19.0945 25.6833 19.1395 25.6473 19.3205C25.6133 19.5015 25.7133 19.5925 25.8503 19.6195C26.0323 19.6555 26.9493 19.5785 26.9493 19.5785C26.9493 19.5785 26.1313 19.1575 25.9493 19.1215Z" fill="#FCC600"/>
<path d="M25.7811 19.8455C25.6521 19.7925 25.5161 19.8115 25.4451 19.9815C25.3761 20.1535 25.4571 20.2615 25.5861 20.3145C25.7571 20.3855 26.6721 20.4865 26.6721 20.4865C26.6721 20.4865 25.9531 19.9155 25.7821 19.8455H25.7811Z" fill="#FCC600"/>
<path d="M25.4732 20.5227C25.3572 20.4467 25.2202 20.4387 25.1172 20.5917C25.0152 20.7467 25.0732 20.8677 25.1892 20.9447C25.3442 21.0477 26.2202 21.3247 26.2202 21.3247C26.2202 21.3247 25.6272 20.6257 25.4732 20.5227Z" fill="#FCC600"/>
<path d="M25.0394 21.1279C24.9404 21.0299 24.8084 20.9959 24.6774 21.1269C24.5474 21.2589 24.5804 21.3889 24.6774 21.4869C24.8084 21.6169 25.6154 22.0589 25.6154 22.0589C25.6154 22.0589 25.1704 21.2579 25.0394 21.1279Z" fill="#FCC600"/>
<path d="M24.876 22.6631C24.876 22.6631 24.597 21.7911 24.494 21.6381C24.416 21.5231 24.293 21.4641 24.138 21.5661C23.985 21.6701 23.992 21.8051 24.069 21.9201C24.172 22.0741 24.876 22.6631 24.876 22.6631Z" fill="#FCC600"/>
<path d="M24.0325 23.1095C24.0325 23.1095 23.9295 22.2005 23.8585 22.0295C23.8055 21.9015 23.6955 21.8195 23.5245 21.8905C23.3535 21.9635 23.3345 22.0965 23.3875 22.2245C23.4585 22.3945 24.0325 23.1095 24.0325 23.1095Z" fill="#FCC600"/>
<path d="M20.2621 21.9192C20.3401 21.8042 20.3481 21.6682 20.1931 21.5652C20.0371 21.4652 19.9151 21.5222 19.8371 21.6372C19.7341 21.7902 19.4551 22.6623 19.4551 22.6623C19.4551 22.6623 20.1591 22.0722 20.2621 21.9192Z" fill="#FCC600"/>
<path d="M19.6578 21.1271C19.5248 20.9981 19.3938 21.0301 19.2948 21.1281C19.1628 21.2581 18.7188 22.0591 18.7188 22.0591C18.7188 22.0591 19.5248 21.6171 19.6558 21.4871C19.7538 21.3891 19.7888 21.2571 19.6578 21.1271Z" fill="#FCC600"/>
<path d="M19.2153 20.5918C19.1093 20.4398 18.9743 20.4458 18.8583 20.5228C18.7033 20.6258 18.1113 21.3248 18.1113 21.3248C18.1113 21.3248 18.9883 21.0468 19.1423 20.9448C19.2583 20.8678 19.3183 20.7448 19.2153 20.5918Z" fill="#FCC600"/>
<path d="M18.8862 19.9823C18.8132 19.8133 18.6792 19.7933 18.5512 19.8463C18.3792 19.9173 17.6602 20.4873 17.6602 20.4873C17.6602 20.4873 18.5752 20.3853 18.7472 20.3153C18.8752 20.2623 18.9572 20.1533 18.8862 19.9823Z" fill="#FCC600"/>
<path d="M18.6858 19.3205C18.6478 19.1395 18.5208 19.0945 18.3838 19.1215C18.2018 19.1575 17.3848 19.5785 17.3848 19.5785C17.3848 19.5785 18.3018 19.6555 18.4838 19.6195C18.6198 19.5925 18.7228 19.5015 18.6858 19.3205Z" fill="#FCC600"/>
<path d="M18.6171 18.6329C18.6151 18.4489 18.4981 18.3789 18.3591 18.3789C18.1731 18.3789 17.2891 18.6329 17.2891 18.6329C17.2891 18.6329 18.1731 18.8869 18.3591 18.8869C18.4981 18.8869 18.6171 18.8179 18.6171 18.6329Z" fill="#FCC600"/>
<path d="M18.6858 17.9442C18.7198 17.7622 18.6198 17.6722 18.4838 17.6452C18.3008 17.6092 17.3848 17.6872 17.3848 17.6872C17.3848 17.6872 18.2018 18.1072 18.3838 18.1432C18.5208 18.1702 18.6498 18.1252 18.6858 17.9442Z" fill="#FCC600"/>
<path d="M18.8872 17.2833C18.9562 17.1123 18.8752 17.0033 18.7472 16.9503C18.5752 16.8793 17.6602 16.7783 17.6602 16.7783C17.6602 16.7783 18.3792 17.3493 18.5512 17.4203C18.6792 17.4723 18.8152 17.4543 18.8862 17.2833H18.8872Z" fill="#FCC600"/>
<path d="M18.8583 16.7415C18.9743 16.8185 19.1113 16.8255 19.2153 16.6725C19.3163 16.5175 19.2583 16.3965 19.1423 16.3195C18.9873 16.2165 18.1113 15.9395 18.1113 15.9395C18.1113 15.9395 18.7043 16.6385 18.8583 16.7415Z" fill="#FCC600"/>
<path d="M19.6578 16.1381C19.7868 16.0061 19.7538 15.8751 19.6558 15.7781C19.5248 15.6471 18.7188 15.2051 18.7188 15.2051C18.7188 15.2051 19.1628 16.0061 19.2948 16.1361C19.3928 16.2341 19.5258 16.2681 19.6578 16.1381Z" fill="#FCC600"/>
<path d="M25.2861 18.6363C25.2861 16.9213 23.8871 15.5303 22.1621 15.5303C20.4371 15.5303 19.0371 16.9213 19.0371 18.6363C19.0371 20.3513 20.4361 21.7413 22.1621 21.7413C23.8881 21.7413 25.2861 20.3513 25.2861 18.6363Z" fill="#FCC600"/>
<path d="M22.1662 15.1051C22.3522 15.1031 22.4212 14.9881 22.4212 14.8491C22.4212 14.6651 22.1662 13.7861 22.1662 13.7861C22.1662 13.7861 21.9102 14.6651 21.9102 14.8491C21.9102 14.9881 21.9802 15.1051 22.1662 15.1051Z" fill="#FCC600"/>
<path d="M22.8596 22.0923C22.6776 22.1313 22.6326 22.2573 22.6596 22.3933C22.6956 22.5743 23.1186 23.3863 23.1186 23.3863C23.1186 23.3863 23.1976 22.4743 23.1606 22.2933C23.1336 22.1573 23.0416 22.0553 22.8606 22.0913L22.8596 22.0923Z" fill="#FCC600"/>
<path d="M21.9102 22.4162C21.9102 22.6012 22.1662 23.4792 22.1662 23.4792C22.1662 23.4792 22.4212 22.6002 22.4212 22.4162C22.4212 22.2782 22.3522 22.1602 22.1662 22.1602C21.9802 22.1622 21.9102 22.2782 21.9102 22.4162Z" fill="#FCC600"/>
<path d="M21.1736 22.2936C21.1376 22.4746 21.2156 23.3866 21.2156 23.3866C21.2156 23.3866 21.6386 22.5746 21.6746 22.3936C21.7016 22.2576 21.6566 22.1286 21.4746 22.0926C21.2916 22.0586 21.2016 22.1586 21.1746 22.2946L21.1736 22.2936Z" fill="#FCC600"/>
<path d="M20.8078 21.8916C20.6358 21.8226 20.5268 21.9026 20.4738 22.0306C20.4028 22.2006 20.3008 23.1106 20.3008 23.1106C20.3008 23.1106 20.8738 22.3956 20.9458 22.2256C20.9978 22.0976 20.9798 21.9626 20.8078 21.8916Z" fill="#FCC600"/>
<path d="M20.1931 15.6995C20.3471 15.5955 20.3401 15.4605 20.2621 15.3455C20.1591 15.1915 19.4551 14.6025 19.4551 14.6025C19.4551 14.6025 19.7341 15.4745 19.8371 15.6275C19.9151 15.7425 20.0381 15.8015 20.1931 15.6995Z" fill="#FCC600"/>
<path d="M20.8078 15.3743C20.9788 15.3013 20.9978 15.1683 20.9458 15.0403C20.8738 14.8693 20.3008 14.1553 20.3008 14.1553C20.3008 14.1553 20.4028 15.0643 20.4738 15.2343C20.5268 15.3623 20.6368 15.4443 20.8078 15.3743Z" fill="#FCC600"/>
<path d="M21.4726 15.1729C21.6546 15.1349 21.6996 15.0079 21.6726 14.8729C21.6366 14.6919 21.2136 13.8789 21.2136 13.8789C21.2136 13.8789 21.1356 14.7899 21.1716 14.9719C21.1986 15.1079 21.2906 15.2099 21.4716 15.1729H21.4726Z" fill="#FCC600"/>
</svg>
