<svg width="41" height="41" viewBox="0 0 41 41" fill="none" xmlns="http://www.w3.org/2000/svg">
<path d="M34.5 8.5H6.5C4.29086 8.5 2.5 10.2909 2.5 12.5V28.5C2.5 30.7091 4.29086 32.5 6.5 32.5H34.5C36.7091 32.5 38.5 30.7091 38.5 28.5V12.5C38.5 10.2909 36.7091 8.5 34.5 8.5Z" fill="#CF002E"/>
<path d="M2.5 26.5H38.5V14.5H2.5V26.5ZM20.5 15.7C23.128 15.7 25.258 17.849 25.258 20.5C25.258 23.151 23.128 25.3 20.5 25.3C17.872 25.3 15.741 23.151 15.741 20.5C15.741 17.849 17.871 15.7 20.5 15.7Z" fill="#262B69"/>
<path d="M20.4992 25.3002C23.1272 25.3002 25.2572 23.1512 25.2572 20.5002C25.2572 17.8492 23.1272 15.7002 20.4992 15.7002C17.8712 15.7002 15.7402 17.8492 15.7402 20.5002C15.7402 23.1512 17.8702 25.3002 20.4992 25.3002Z" fill="#E3E7EA"/>
</svg>
