<svg width="41" height="41" viewBox="0 0 41 41" fill="none" xmlns="http://www.w3.org/2000/svg">
<path d="M23.02 26.5H2.5V28.5C2.5 30.709 4.291 32.5 6.5 32.5H34.5C36.709 32.5 38.5 30.709 38.5 28.5V26.5H23.02Z" fill="#FC0726"/>
<path d="M34.5 8.5H6.5C4.291 8.5 2.5 10.291 2.5 12.5V14.5H38.5V12.5C38.5 10.291 36.709 8.5 34.5 8.5Z" fill="#FC0726"/>
<path d="M23.1703 19.6467C23.1923 19.4797 23.0383 19.3757 22.8873 19.3877C22.8083 19.3937 22.7303 19.4307 22.6783 19.5077C22.5873 19.6407 22.5923 19.6757 22.7093 19.7677C22.9043 19.9217 23.1413 19.8597 23.1703 19.6477V19.6467Z" fill="#E3E7EA"/>
<path d="M22.3892 21.7894C22.5782 21.9384 22.8842 21.9324 23.0932 21.7754C23.4172 21.5314 23.2552 21.3344 22.9572 21.3484C22.8242 21.3544 22.6652 21.4014 22.5082 21.5044C22.2602 21.6674 22.2532 21.6824 22.3892 21.7894Z" fill="#E3E7EA"/>
<path d="M23.7313 22.1682C23.8663 22.1862 23.9973 22.2062 24.0213 22.2132H24.0233H24.0263C24.0593 22.2062 24.1553 22.1232 24.2483 22.0162C24.4273 21.8102 24.4283 21.8032 24.2843 21.6902C24.2043 21.6262 24.1023 21.5752 24.0583 21.5762C24.0533 21.5762 24.0473 21.5762 24.0423 21.5762C23.8843 21.5952 23.5113 21.8842 23.4883 22.0052C23.4883 22.0082 23.4863 22.0132 23.4863 22.0162C23.4863 22.0892 23.5813 22.1472 23.7313 22.1682Z" fill="#E3E7EA"/>
<path d="M17.8735 18.6211C17.8645 18.6211 17.8545 18.6231 17.8455 18.6241C17.7255 18.6341 17.6475 18.6551 17.6085 18.6931C17.6085 18.6941 17.6055 18.6961 17.6045 18.6981C17.6025 18.6991 17.6005 18.7011 17.5995 18.7021C17.5955 18.7071 17.5925 18.7141 17.5895 18.7201C17.5595 18.7831 17.6015 18.8811 17.7105 19.0311C17.8815 19.2671 17.9175 19.2821 18.1255 19.2041L18.3535 19.1181L18.2015 18.8621C18.0935 18.6811 18.0095 18.6171 17.8735 18.6211Z" fill="#E3E7EA"/>
<path d="M21.5994 18.6454C21.5304 18.7834 21.5524 18.8154 21.7674 18.8824C22.2044 19.0184 22.3334 18.9924 22.3744 18.7644C22.4044 18.5954 22.3734 18.5394 22.2164 18.4754C22.1294 18.4394 22.0404 18.4244 21.9584 18.4284C21.8014 18.4364 21.6644 18.5134 21.5994 18.6454Z" fill="#E3E7EA"/>
<path d="M22.6729 26.2001C22.3889 25.8791 22.3309 25.8511 21.8509 25.7971C21.5779 25.7661 21.3279 25.7571 21.2809 25.7751L21.2779 25.7771H21.2759L21.2729 25.7801V25.7821L21.2699 25.7861L21.2679 25.7871V25.7891V25.7921C21.2679 25.7941 21.2679 25.7961 21.2659 25.7981C21.2589 25.8371 21.2849 25.9131 21.3339 25.9901C21.4189 26.1211 21.4559 26.2141 21.4519 26.2601V26.2661V26.2701L21.4499 26.2731L21.4489 26.2761C21.4489 26.2761 21.4489 26.2781 21.4469 26.2791V26.2801L21.4449 26.2811L21.4439 26.2831C21.4439 26.2831 21.4439 26.2831 21.4419 26.2841C21.4419 26.2841 21.4379 26.2861 21.4359 26.2871L21.4339 26.2881C21.4339 26.2881 21.4309 26.2891 21.4289 26.2901C21.4289 26.2901 21.4269 26.2901 21.4249 26.2901H21.4199C21.3769 26.2901 21.2959 26.2421 21.1859 26.1371C21.0399 25.9991 20.8179 25.8301 20.6939 25.7611C20.5639 25.6881 20.4689 25.5701 20.4689 25.4821C20.4689 25.2851 20.3349 25.2371 20.0649 25.3371C19.9139 25.3931 19.7999 25.3861 19.6739 25.3131C19.4469 25.1821 19.1469 25.2641 18.8489 25.5351C18.5089 25.8441 18.0559 26.0421 17.6869 26.0441C17.3469 26.0461 17.0099 26.1901 16.8439 26.4061C16.8139 26.4451 16.7839 26.4751 16.7539 26.4961H23.0239C22.9309 26.4541 22.8159 26.3551 22.6769 26.1961L22.6729 26.2001Z" fill="#E3E7EA"/>
<path d="M18.2977 20.7212C18.2637 20.6862 18.1937 20.6562 18.0877 20.6352C18.0237 20.6222 17.9257 20.6162 17.8147 20.6162C17.4887 20.6162 17.0457 20.6672 16.9927 20.7212C16.9927 20.7212 16.9907 20.7242 16.9907 20.7252C16.9897 20.7252 16.9907 20.7292 16.9907 20.7292C16.9907 20.7542 17.0427 20.8802 17.1067 21.0112C17.2137 21.2332 17.2477 21.2512 17.5037 21.2032C17.6577 21.1742 17.9007 21.0892 18.0437 21.0162C18.2157 20.9272 18.3087 20.8502 18.3217 20.7862C18.3237 20.7772 18.3237 20.7672 18.3217 20.7582C18.3217 20.7542 18.3187 20.7482 18.3177 20.7442C18.3137 20.7362 18.3067 20.7272 18.2997 20.7192L18.2977 20.7212Z" fill="#E3E7EA"/>
<path d="M20.4921 20.1015C20.3641 20.2975 20.4181 20.4715 20.6381 20.5805C20.8431 20.6825 20.9481 20.5885 20.8811 20.3635C20.8531 20.2695 20.7771 20.1365 20.7131 20.0665C20.6621 20.0115 20.6311 19.9835 20.6011 19.9855C20.5691 19.9885 20.5401 20.0265 20.4911 20.1005L20.4921 20.1015Z" fill="#E3E7EA"/>
<path d="M20.9971 18.3289C20.8911 18.4659 20.8441 18.5509 20.8551 18.5959C20.8551 18.5969 20.8551 18.5999 20.8561 18.6019C20.8561 18.6019 20.8561 18.6019 20.8581 18.6029C20.8581 18.6029 20.8581 18.605 20.8581 18.606C20.8581 18.606 20.8601 18.6089 20.8611 18.6099C20.8851 18.6369 20.9461 18.6419 21.0461 18.6299C21.1761 18.6139 21.2631 18.5479 21.2791 18.4529C21.3101 18.2829 21.2541 18.1899 21.1681 18.1999C21.1181 18.2059 21.0561 18.2469 20.9951 18.3269L20.9971 18.3289Z" fill="#E3E7EA"/>
<path d="M20.9912 17.2645C21.1772 17.2645 21.2252 17.2335 21.2052 17.1225C21.1892 17.0325 21.1092 16.9785 20.9912 16.9785H20.9872C20.8722 16.9805 20.7952 17.0345 20.7792 17.1225C20.7712 17.1705 20.7752 17.2035 20.7972 17.2255C20.8272 17.2545 20.8872 17.2645 20.9912 17.2645Z" fill="#E3E7EA"/>
<path d="M21.6201 17.4266C21.7231 17.4266 21.8281 17.3696 21.8531 17.2986C21.9261 17.0926 21.9071 17.0236 21.7571 17.0286C21.7371 17.0286 21.7151 17.0316 21.6911 17.0346C21.5421 17.0526 21.4761 17.1126 21.4581 17.2436C21.4391 17.3906 21.4711 17.4266 21.6201 17.4266Z" fill="#E3E7EA"/>
<path d="M21.1304 20.292C21.0954 20.296 21.0684 20.336 21.0684 20.417C21.0684 20.586 21.1294 20.681 21.2374 20.681H21.2444L21.2474 20.679L21.2504 20.678H21.2534C21.2534 20.678 21.2534 20.675 21.2554 20.675C21.2814 20.654 21.2924 20.585 21.2814 20.505C21.2624 20.367 21.1864 20.286 21.1314 20.293L21.1304 20.292Z" fill="#E3E7EA"/>
<path d="M20.48 14.823C20.65 15.192 21.067 15.617 21.315 15.674C21.408 15.695 21.673 15.753 21.906 15.8C22.215 15.864 22.486 16.007 22.925 16.337L23.524 16.788L23.108 16.765C22.9 16.753 22.728 16.763 22.697 16.785H22.696L22.694 16.788C22.694 16.788 22.694 16.789 22.694 16.79V16.795C22.694 16.797 22.694 16.801 22.697 16.803C22.754 16.921 23.504 17.44 23.779 17.55L24.054 17.659L23.638 17.662C23.409 17.664 23.137 17.612 23.033 17.548C22.777 17.391 22.382 17.392 22.324 17.551C22.292 17.642 22.373 17.72 22.625 17.836C22.815 17.924 23.164 18.181 23.399 18.408C23.636 18.636 24.157 18.997 24.57 19.22C25.023 19.464 25.228 19.609 25.183 19.668C25.138 19.719 24.895 19.702 24.451 19.629C24.054 19.564 23.821 19.558 23.772 19.611C23.744 19.64 23.728 19.667 23.725 19.694C23.725 19.701 23.725 19.709 23.725 19.716C23.726 19.725 23.729 19.735 23.734 19.744C23.774 19.821 23.935 19.888 24.225 19.949C24.464 19.999 24.892 20.113 25.178 20.203C25.894 20.429 25.752 20.547 24.713 20.588C23.942 20.618 23.665 20.693 23.757 20.853C23.757 20.853 23.757 20.855 23.757 20.856C23.758 20.856 23.759 20.857 23.759 20.857C23.76 20.857 23.762 20.86 23.763 20.861C23.803 20.897 23.945 20.925 24.098 20.925C24.425 20.925 24.756 21.074 24.927 21.299C24.986 21.377 25.299 21.652 25.622 21.91L26.21 22.38L25.943 22.435C25.734 22.477 25.586 22.439 25.26 22.262C24.853 22.041 24.836 22.038 24.579 22.17C24.129 22.401 24.231 22.544 25.209 23.052C26.192 23.563 26.715 23.987 26.637 24.205C26.572 24.39 26.292 24.376 26.017 24.174C25.892 24.082 25.587 23.89 25.338 23.747C24.893 23.492 24.867 23.487 23.982 23.506C23.158 23.523 23.045 23.508 22.682 23.323C22.202 23.079 22.095 23.073 21.899 23.284C21.773 23.419 21.748 23.554 21.75 24.077C21.753 24.953 21.872 25.184 22.648 25.816C22.989 26.094 23.274 26.358 23.29 26.412V26.415C23.29 26.415 23.29 26.417 23.29 26.418C23.29 26.418 23.291 26.42 23.29 26.421C23.29 26.421 23.291 26.424 23.29 26.425C23.29 26.425 23.29 26.427 23.29 26.428C23.283 26.454 23.254 26.48 23.213 26.498H38.5V14.498H20.332L20.48 14.821V14.823Z" fill="#E3E7EA"/>
<path d="M20.6115 22.1278C20.6115 22.1278 20.6115 22.1268 20.6095 22.1258C20.5695 22.0798 20.2725 22.0118 20.1485 22.0158C20.1305 22.0158 20.1165 22.0178 20.1065 22.0218C20.1065 22.0218 20.1065 22.0218 20.1045 22.0228H20.1025L20.1015 22.0238C20.1015 22.0238 20.1015 22.0248 20.0995 22.0258C20.0995 22.0258 20.0995 22.0258 20.0995 22.0268C20.0995 22.0268 20.0985 22.0268 20.0985 22.0278C20.0985 22.0278 20.0965 22.0298 20.0965 22.0308V22.0328C20.0905 22.0668 20.1195 22.2018 20.1645 22.3508L20.2575 22.6508L20.4345 22.4178C20.5305 22.2918 20.6095 22.1648 20.6135 22.1338V22.1318V22.1288V22.1258L20.6115 22.1278Z" fill="#E3E7EA"/>
<path d="M16.609 26.4668C16.609 26.3338 17.011 25.9638 17.207 25.9178C17.735 25.7918 18.026 25.6128 18.354 25.2118C19.107 24.2918 19.164 23.7318 18.538 23.4118C18.269 23.2738 18.266 23.2728 17.496 23.6148C17.07 23.8028 16.553 24.0068 16.345 24.0678C15.826 24.2178 15.218 24.2098 15.096 24.0538C15.047 23.9888 15.022 23.9188 15.039 23.8918V23.8898C15.039 23.8898 15.04 23.8898 15.04 23.8888H15.042C15.042 23.8888 15.044 23.8868 15.045 23.8858C15.093 23.8558 15.462 23.7358 15.887 23.6108C17.046 23.2738 17.66 22.8468 17.292 22.6348C17.055 22.4978 16.768 22.5398 16.473 22.7568C16.155 22.9908 15.124 23.3658 14.798 23.3658C14.679 23.3658 14.527 23.3078 14.462 23.2388C14.394 23.1648 14.355 23.1208 14.355 23.0998C14.355 23.0978 14.355 23.0948 14.355 23.0938C14.356 23.0938 14.357 23.0928 14.357 23.0928C14.357 23.0928 14.357 23.0918 14.359 23.0908C14.359 23.0908 14.361 23.0908 14.361 23.0898C14.382 23.0788 14.445 23.0858 14.56 23.1038C14.741 23.1328 14.862 23.0558 15.288 22.6398C15.605 22.3308 16.01 22.0358 16.356 21.8638C16.822 21.6318 16.912 21.5568 16.912 21.3928C16.912 21.2848 16.845 21.1308 16.763 21.0508C16.619 20.9108 16.603 20.9148 16.247 21.1598C16.044 21.2998 15.794 21.4148 15.691 21.4148C15.55 21.4148 15.301 21.2798 15.263 21.2118L15.261 21.2088C15.261 21.2088 15.26 21.2068 15.26 21.2058C15.26 21.2048 15.26 21.2028 15.258 21.2008C15.258 21.2008 15.258 21.1978 15.258 21.1968V21.1938V21.1918L15.259 21.1888L15.261 21.1868C15.268 21.1808 15.282 21.1768 15.302 21.1768C15.353 21.1748 15.581 20.9928 15.807 20.7718C16.28 20.3118 16.394 20.2388 16.757 20.1648C16.94 20.1278 17.108 20.0038 17.3 19.7628C17.574 19.4178 17.576 19.4108 17.457 19.1488C17.362 18.9378 17.307 18.8948 17.18 18.9368C16.618 19.1258 16.229 19.1378 16.229 18.9668C16.229 18.9638 16.229 18.9598 16.231 18.9558C16.272 18.8348 16.867 18.4428 17.329 18.2358C17.611 18.1108 17.743 18.0008 17.774 17.8678C17.821 17.6688 18.164 17.4318 18.404 17.4318C18.604 17.4318 18.653 17.3528 18.567 17.1788C18.51 17.0658 18.439 17.0418 18.268 17.0798C18.17 17.1008 18.085 17.0978 18.054 17.0768C18.054 17.0768 18.051 17.0748 18.05 17.0738C18.05 17.0738 18.049 17.0728 18.048 17.0728C18.048 17.0728 18.047 17.0728 18.047 17.0708C18.047 17.0708 18.047 17.0708 18.045 17.0698C18.045 17.0698 18.045 17.0678 18.045 17.0668C18.045 17.0658 18.045 17.0638 18.045 17.0628V17.0598V17.0568C18.045 17.0568 18.045 17.0538 18.045 17.0518C18.045 17.0518 18.045 17.0488 18.045 17.0468C18.045 17.0448 18.047 17.0408 18.048 17.0378C18.098 16.9268 18.488 16.6498 18.752 16.5428C19.026 16.4318 19.372 16.1668 19.401 16.0508C19.402 16.0488 19.403 16.0448 19.403 16.0418V16.0378C19.403 15.9908 19.349 15.9758 19.282 16.0028C19.216 16.0308 19.072 16.0758 18.961 16.1048L18.76 16.1568L18.95 15.9338C19.054 15.8108 19.314 15.5878 19.531 15.4368C19.748 15.2868 20.017 15.0158 20.128 14.8358L20.329 14.5078H2.5V26.5078H16.615C16.612 26.4988 16.609 26.4888 16.609 26.4748V26.4668Z" fill="#E3E7EA"/>
<path d="M19.8203 17.5211H19.8223L19.8243 17.5241C19.8593 17.5401 20.0213 17.52 20.1993 17.476C20.4803 17.406 20.5393 17.359 20.5393 17.206C20.5393 17.08 20.4973 17.0201 20.3963 17.0281C20.3193 17.0341 20.2073 17.077 20.0513 17.157C19.8093 17.282 19.7233 17.4161 19.8203 17.5211Z" fill="#E3E7EA"/>
<path d="M20.4907 18.2402C20.4277 18.2452 20.2957 18.2842 20.1857 18.3322L19.9727 18.4262L20.1617 18.4882C20.2657 18.5222 20.3617 18.5522 20.3747 18.5572H20.3777H20.3807C20.4047 18.5542 20.4747 18.5222 20.5467 18.4812C20.7037 18.3902 20.6767 18.2412 20.5017 18.2412C20.4977 18.2412 20.4947 18.2412 20.4897 18.2412L20.4907 18.2402Z" fill="#E3E7EA"/>
<path d="M18.8247 17.1544L18.8277 17.1564C18.8297 17.1564 18.8317 17.1564 18.8337 17.1574C18.8577 17.1604 18.8987 17.1334 18.9687 17.0844C19.0597 17.0194 19.1467 16.9244 19.1637 16.8724V16.8674C19.1647 16.8654 19.1647 16.8614 19.1657 16.8594V16.8484C19.1657 16.8484 19.1637 16.8454 19.1637 16.8434C19.1637 16.8394 19.1607 16.8334 19.1577 16.8294V16.8264L19.1547 16.8234C19.1307 16.7944 19.0757 16.7764 18.9987 16.7764H18.9687C18.8327 16.7814 18.8027 16.8264 18.8027 16.9904C18.8027 17.0804 18.8057 17.1314 18.8217 17.1504L18.8257 17.1544H18.8247Z" fill="#E3E7EA"/>
<path d="M19.4403 20.2791C19.4403 20.2791 19.4463 20.2731 19.4493 20.2701L19.4523 20.2671V20.2641C19.4543 20.2621 19.4563 20.2591 19.4573 20.2561C19.4573 20.2561 19.4593 20.2521 19.4603 20.2501C19.4603 20.2481 19.4603 20.2441 19.4603 20.2421C19.4603 20.2391 19.4603 20.2341 19.4623 20.2301C19.4623 20.1881 19.4333 20.1321 19.3613 20.0741C19.2563 19.9891 19.1513 19.9471 19.0873 19.9551C19.0493 19.9601 19.0273 19.9831 19.0273 20.0261V20.0321C19.0343 20.0761 19.1063 20.1631 19.1933 20.2291C19.2993 20.3091 19.3923 20.3171 19.4353 20.2841L19.4383 20.2811L19.4403 20.2791Z" fill="#E3E7EA"/>
<path d="M18.7254 18.4844H18.7114C18.5634 18.4854 18.4744 18.5114 18.4384 18.5684C18.3984 18.6324 18.4244 18.7394 18.5054 18.9024C18.5724 19.0384 18.6054 19.0484 18.7124 18.9614C18.7824 18.9044 18.8814 18.8034 18.9334 18.7364C19.0884 18.5374 19.0444 18.4844 18.7254 18.4844Z" fill="#E3E7EA"/>
<path d="M18.6342 21.9014C18.6162 21.9014 18.5992 21.9014 18.5862 21.9014C18.4742 21.9074 18.4842 21.9554 18.5862 22.3184C18.7022 22.7344 18.9532 22.7674 18.9532 22.3654C18.9532 22.0664 18.8392 21.9014 18.6342 21.9014Z" fill="#E3E7EA"/>
<path d="M20.1261 19.8152C20.1261 19.8152 20.1241 19.8132 20.1231 19.8122C20.1231 19.8122 20.1211 19.8102 20.1201 19.8092C20.1201 19.8092 20.1181 19.8072 20.1181 19.8062C20.1161 19.8052 20.1131 19.8022 20.1121 19.8012C20.1061 19.7972 20.0991 19.7942 20.0931 19.7912C20.0821 19.7882 20.0701 19.7852 20.0571 19.7852C20.0521 19.7852 20.0461 19.7852 20.0401 19.7852C19.9031 19.7932 19.8481 19.9062 19.9051 20.0662C19.9681 20.2452 20.1171 20.1812 20.1471 19.9622C20.1571 19.8942 20.1501 19.8442 20.1261 19.8152Z" fill="#E3E7EA"/>
<path d="M18.8018 18.0168C18.8018 18.0168 18.8028 18.0238 18.8038 18.0258C18.8038 18.0258 18.8038 18.0288 18.8038 18.0308L18.8048 18.0338V18.0388L18.8068 18.0418C18.8088 18.0468 18.8128 18.0518 18.8168 18.0548C18.8168 18.0548 18.8168 18.0558 18.8188 18.0568C18.8808 18.1098 19.1018 18.0518 19.3108 17.9148C19.5448 17.7608 19.6578 17.4258 19.4758 17.4258C19.4708 17.4258 19.4648 17.4258 19.4598 17.4258C19.2438 17.4438 18.8058 17.8328 18.8008 18.0158L18.8018 18.0168Z" fill="#E3E7EA"/>
<path d="M19.4936 22.1589C19.4456 22.1519 19.4106 22.1459 19.3876 22.1479C19.3776 22.1479 19.3696 22.1518 19.3646 22.1568C19.3626 22.1578 19.3606 22.1609 19.3596 22.1629C19.3486 22.1889 19.3786 22.2539 19.4446 22.3909C19.5006 22.5089 19.5666 22.5699 19.6166 22.5759C19.6206 22.5759 19.6266 22.5759 19.6316 22.5759C19.6336 22.5759 19.6376 22.5759 19.6396 22.5749C19.6456 22.5739 19.6526 22.5708 19.6576 22.5668C19.6576 22.5668 19.6606 22.5648 19.6616 22.5638C19.6646 22.5618 19.6686 22.5588 19.6706 22.5558C19.6726 22.5538 19.6756 22.5499 19.6776 22.5469C19.7036 22.5099 19.7136 22.4379 19.6956 22.3369C19.6806 22.2529 19.5906 22.1739 19.4936 22.1589Z" fill="#E3E7EA"/>
<path d="M19.5334 15.429C19.3164 15.579 19.0564 15.803 18.9524 15.926L18.7624 16.149L18.9634 16.097C19.0744 16.069 19.2174 16.023 19.2844 15.995C19.3504 15.968 19.4054 15.983 19.4054 16.03V16.034C19.4054 16.034 19.4054 16.041 19.4034 16.043C19.3744 16.159 19.0284 16.424 18.7544 16.535C18.4914 16.641 18.1014 16.919 18.0504 17.03C18.0504 17.033 18.0484 17.037 18.0474 17.039C18.0474 17.04 18.0474 17.043 18.0474 17.044C18.0474 17.045 18.0474 17.048 18.0474 17.049V17.054C18.0474 17.054 18.0474 17.059 18.0474 17.06C18.0474 17.061 18.0474 17.063 18.0474 17.063C18.0484 17.063 18.0494 17.064 18.0494 17.064C18.0494 17.065 18.0504 17.065 18.0504 17.066C18.0504 17.066 18.0524 17.066 18.0524 17.067C18.0524 17.067 18.0554 17.069 18.0564 17.07C18.0874 17.091 18.1724 17.094 18.2704 17.073C18.4414 17.036 18.5114 17.059 18.5694 17.172C18.6554 17.347 18.6064 17.425 18.4064 17.425C18.1664 17.425 17.8224 17.662 17.7764 17.861C17.7444 17.994 17.6134 18.103 17.3314 18.229C16.8704 18.435 16.2744 18.828 16.2334 18.949C16.2314 18.953 16.2314 18.957 16.2314 18.96C16.2314 19.131 16.6204 19.119 17.1824 18.93C17.3094 18.888 17.3644 18.93 17.4594 19.142C17.5784 19.404 17.5764 19.411 17.3024 19.756C17.1104 19.997 16.9424 20.121 16.7594 20.158C16.3964 20.232 16.2824 20.305 15.8094 20.765C15.5834 20.986 15.3564 21.168 15.3044 21.17C15.2844 21.17 15.2704 21.173 15.2634 21.179C15.2634 21.179 15.2634 21.181 15.2614 21.182H15.2604V21.185C15.2604 21.185 15.2604 21.185 15.2604 21.186V21.189V21.193C15.2604 21.194 15.2624 21.198 15.2624 21.199C15.2624 21.2 15.2634 21.201 15.2634 21.202C15.2634 21.202 15.2634 21.204 15.2654 21.205C15.3034 21.273 15.5524 21.408 15.6934 21.408C15.7964 21.408 16.0464 21.293 16.2494 21.153C16.6044 20.908 16.6214 20.904 16.7654 21.044C16.8474 21.124 16.9144 21.278 16.9144 21.386C16.9144 21.55 16.8244 21.626 16.3584 21.857C16.0134 22.029 15.6074 22.324 15.2904 22.633C14.8634 23.049 14.7434 23.126 14.5624 23.097C14.4474 23.079 14.3844 23.071 14.3634 23.083L14.3614 23.084C14.3614 23.084 14.3594 23.085 14.3594 23.086C14.3594 23.086 14.3594 23.086 14.3574 23.087C14.3574 23.088 14.3574 23.091 14.3574 23.093C14.3574 23.114 14.3964 23.158 14.4644 23.232C14.5294 23.302 14.6824 23.359 14.8004 23.359C15.1274 23.359 16.1584 22.984 16.4754 22.75C16.7704 22.533 17.0574 22.491 17.2944 22.628C17.6624 22.84 17.0484 23.267 15.8894 23.604C15.4634 23.728 15.0944 23.849 15.0474 23.879C15.0474 23.879 15.0444 23.88 15.0444 23.881H15.0424L15.0414 23.884V23.886C15.0244 23.913 15.0494 23.983 15.0984 24.048C15.2204 24.204 15.8284 24.212 16.3474 24.062C16.5554 24.001 17.0724 23.797 17.4984 23.609C18.2684 23.267 18.2714 23.268 18.5404 23.406C19.1664 23.726 19.1094 24.285 18.3564 25.206C18.0284 25.607 17.7374 25.786 17.2094 25.912C17.0134 25.958 16.6114 26.328 16.6114 26.461C16.6114 26.474 16.6144 26.484 16.6174 26.494H16.7524C16.7824 26.473 16.8124 26.443 16.8424 26.404C17.0084 26.188 17.3454 26.044 17.6854 26.042C18.0544 26.04 18.5064 25.842 18.8474 25.533C19.1454 25.262 19.4464 25.181 19.6724 25.311C19.7984 25.384 19.9124 25.391 20.0634 25.335C20.3334 25.235 20.4674 25.283 20.4674 25.48C20.4674 25.568 20.5624 25.687 20.6924 25.759C20.8164 25.828 21.0374 25.997 21.1844 26.135C21.2954 26.24 21.3764 26.288 21.4184 26.288H21.4234H21.4274C21.4294 26.288 21.4314 26.287 21.4324 26.286C21.4324 26.286 21.4344 26.286 21.4344 26.285C21.4364 26.285 21.4394 26.283 21.4404 26.282L21.4424 26.281C21.4424 26.281 21.4434 26.28 21.4434 26.279C21.4434 26.279 21.4454 26.279 21.4454 26.278C21.4454 26.278 21.4454 26.275 21.4474 26.274C21.4474 26.274 21.4484 26.272 21.4484 26.271C21.4484 26.27 21.4484 26.269 21.4504 26.268C21.4504 26.268 21.4504 26.265 21.4504 26.264V26.258C21.4544 26.212 21.4174 26.119 21.3324 25.988C21.2834 25.911 21.2574 25.834 21.2644 25.796C21.2644 25.794 21.2644 25.792 21.2664 25.79C21.2664 25.79 21.2664 25.788 21.2664 25.787V25.785C21.2664 25.785 21.2684 25.785 21.2684 25.784C21.2694 25.783 21.2704 25.781 21.2714 25.78C21.2714 25.78 21.2714 25.779 21.2714 25.778C21.2724 25.778 21.2734 25.778 21.2744 25.777H21.2764C21.2764 25.777 21.2784 25.774 21.2794 25.774C21.3264 25.757 21.5764 25.765 21.8494 25.796C22.3294 25.849 22.3874 25.878 22.6714 26.199C22.8114 26.357 22.9254 26.457 23.0184 26.499H23.2114C23.2534 26.481 23.2814 26.455 23.2884 26.429C23.2884 26.429 23.2884 26.427 23.2884 26.426C23.2894 26.426 23.2884 26.423 23.2884 26.422C23.2894 26.422 23.2884 26.42 23.2884 26.419C23.2884 26.419 23.2894 26.417 23.2884 26.416V26.414C23.2724 26.36 22.9874 26.095 22.6464 25.817C21.8704 25.185 21.7514 24.953 21.7484 24.078C21.7464 23.555 21.7724 23.42 21.8974 23.285C22.0934 23.074 22.2004 23.08 22.6804 23.324C23.0434 23.509 23.1564 23.524 23.9804 23.507C24.8654 23.488 24.8904 23.493 25.3364 23.748C25.5854 23.891 25.8904 24.083 26.0154 24.175C26.2904 24.377 26.5704 24.391 26.6354 24.206C26.7134 23.988 26.1904 23.564 25.2074 23.053C24.2284 22.544 24.1264 22.402 24.5774 22.171C24.8344 22.039 24.8514 22.042 25.2584 22.263C25.5844 22.44 25.7324 22.479 25.9414 22.436L26.2084 22.381L25.6204 21.911C25.2974 21.653 24.9854 21.379 24.9254 21.3C24.7544 21.075 24.4224 20.926 24.0964 20.926C23.9434 20.926 23.8004 20.897 23.7614 20.862C23.7614 20.862 23.7584 20.859 23.7574 20.858C23.7574 20.858 23.7574 20.857 23.7554 20.857V20.854C23.6634 20.694 23.9404 20.618 24.7114 20.589C25.7504 20.549 25.8934 20.431 25.1764 20.204C24.8904 20.114 24.4624 20 24.2234 19.95C23.9334 19.889 23.7724 19.823 23.7324 19.745C23.7274 19.736 23.7244 19.726 23.7234 19.717C23.7234 19.71 23.7234 19.702 23.7234 19.695C23.7264 19.669 23.7424 19.641 23.7704 19.612C23.8194 19.559 24.0524 19.565 24.4494 19.63C24.8934 19.703 25.1374 19.72 25.1814 19.669C25.2264 19.611 25.0224 19.466 24.5684 19.221C24.1554 18.998 23.6354 18.638 23.3974 18.409C23.1624 18.183 22.8134 17.925 22.6234 17.837C22.3724 17.721 22.2904 17.642 22.3224 17.552C22.3794 17.393 22.7744 17.391 23.0314 17.549C23.1354 17.613 23.4074 17.665 23.6364 17.663L24.0524 17.66L23.7774 17.551C23.5024 17.442 22.7534 16.922 22.6954 16.804C22.6934 16.802 22.6924 16.798 22.6924 16.796C22.6924 16.796 22.6924 16.794 22.6924 16.793V16.79C22.6924 16.79 22.6924 16.789 22.6924 16.788C22.6924 16.788 22.6934 16.788 22.6944 16.787C22.7254 16.763 22.8984 16.754 23.1064 16.765L23.5224 16.788L22.9234 16.337C22.4844 16.006 22.2124 15.864 21.9044 15.8C21.6714 15.752 21.4064 15.695 21.3134 15.674C21.0654 15.617 20.6484 15.193 20.4784 14.823L20.3304 14.5L20.1294 14.828C20.0184 15.008 19.7504 15.279 19.5334 15.429ZM18.3184 20.788C18.3054 20.852 18.2124 20.929 18.0404 21.018C17.8974 21.091 17.6544 21.176 17.5004 21.205C17.2454 21.252 17.2104 21.235 17.1034 21.013C17.0404 20.882 16.9884 20.756 16.9874 20.732C16.9874 20.732 16.9864 20.728 16.9874 20.727C16.9874 20.726 16.9884 20.724 16.9894 20.723C17.0424 20.669 17.4864 20.618 17.8114 20.617C17.9224 20.617 18.0204 20.623 18.0844 20.636C18.1904 20.657 18.2604 20.687 18.2944 20.722C18.3014 20.729 18.3084 20.738 18.3124 20.747C18.3124 20.751 18.3154 20.757 18.3164 20.761C18.3184 20.77 18.3184 20.781 18.3164 20.789L18.3184 20.788ZM18.1244 19.204C17.9164 19.282 17.8814 19.267 17.7094 19.031C17.6004 18.881 17.5594 18.783 17.5884 18.72C17.5914 18.715 17.5944 18.708 17.5984 18.702C17.5984 18.702 17.6014 18.699 17.6034 18.698C17.6034 18.697 17.6064 18.695 17.6074 18.693C17.6464 18.655 17.7244 18.634 17.8444 18.624C17.8534 18.624 17.8634 18.621 17.8724 18.621C18.0074 18.618 18.0924 18.68 18.2004 18.861L18.3524 19.117L18.1244 19.203V19.204ZM23.4884 22.006C23.5124 21.884 23.8844 21.596 24.0424 21.577C24.0474 21.577 24.0534 21.577 24.0584 21.577C24.1024 21.577 24.2044 21.627 24.2844 21.691C24.4284 21.804 24.4274 21.811 24.2484 22.017C24.1554 22.123 24.0604 22.207 24.0274 22.214H24.0234H24.0214C23.9974 22.207 23.8664 22.187 23.7314 22.169C23.5814 22.148 23.4864 22.09 23.4864 22.017C23.4864 22.014 23.4874 22.01 23.4884 22.006ZM22.6784 19.508C22.7294 19.432 22.8084 19.394 22.8874 19.388C23.0384 19.376 23.1924 19.48 23.1704 19.647C23.1414 19.859 22.9044 19.921 22.7094 19.767C22.5924 19.675 22.5874 19.642 22.6784 19.508ZM22.9564 21.347C23.2544 21.334 23.4154 21.531 23.0924 21.774C22.8834 21.931 22.5774 21.937 22.3884 21.788C22.2514 21.681 22.2584 21.665 22.5074 21.503C22.6644 21.4 22.8244 21.353 22.9564 21.347ZM21.9554 18.428C22.0374 18.424 22.1264 18.439 22.2134 18.475C22.3704 18.539 22.4014 18.595 22.3714 18.764C22.3304 18.992 22.2024 19.018 21.7644 18.882C21.5494 18.815 21.5274 18.783 21.5964 18.645C21.6614 18.513 21.7984 18.436 21.9554 18.428ZM21.6904 17.036C21.7154 17.033 21.7374 17.03 21.7564 17.03C21.9064 17.025 21.9254 17.094 21.8524 17.3C21.8274 17.371 21.7224 17.428 21.6194 17.428C21.4704 17.428 21.4384 17.393 21.4574 17.246C21.4754 17.115 21.5404 17.055 21.6904 17.037V17.036ZM19.4594 17.428C19.4594 17.428 19.4704 17.428 19.4754 17.428C19.6574 17.428 19.5434 17.763 19.3104 17.917C19.1014 18.054 18.8804 18.112 18.8184 18.059C18.8174 18.059 18.8174 18.058 18.8164 18.057C18.8124 18.053 18.8084 18.048 18.8064 18.044C18.8064 18.044 18.8054 18.041 18.8044 18.041C18.8044 18.041 18.8044 18.038 18.8044 18.036C18.8044 18.036 18.8034 18.034 18.8034 18.033C18.8034 18.032 18.8034 18.03 18.8034 18.028C18.8034 18.026 18.8014 18.023 18.8014 18.02C18.8064 17.835 19.2444 17.447 19.4604 17.428H19.4594ZM18.9654 16.777H18.9954C19.0724 16.777 19.1284 16.795 19.1514 16.824C19.1514 16.824 19.1534 16.826 19.1544 16.827C19.1544 16.827 19.1544 16.829 19.1544 16.83C19.1574 16.834 19.1594 16.84 19.1604 16.844C19.1604 16.845 19.1614 16.847 19.1624 16.849V16.86C19.1624 16.86 19.1624 16.866 19.1604 16.868C19.1604 16.868 19.1604 16.871 19.1604 16.873C19.1434 16.925 19.0564 17.02 18.9654 17.085C18.8964 17.135 18.8544 17.162 18.8304 17.158C18.8284 17.158 18.8264 17.158 18.8244 17.157C18.8234 17.157 18.8224 17.157 18.8214 17.155C18.8204 17.153 18.8184 17.152 18.8174 17.151C18.8014 17.132 18.7984 17.081 18.7984 16.991C18.7984 16.827 18.8304 16.782 18.9654 16.777ZM18.5844 22.319C18.4834 21.956 18.4734 21.908 18.5844 21.902C18.5984 21.902 18.6154 21.902 18.6324 21.902C18.8374 21.902 18.9504 22.067 18.9504 22.366C18.9504 22.768 18.7004 22.736 18.5844 22.319ZM18.9304 18.738C18.8794 18.805 18.7804 18.906 18.7094 18.963C18.6024 19.049 18.5694 19.04 18.5024 18.904C18.4214 18.741 18.3954 18.634 18.4354 18.57C18.4724 18.513 18.5614 18.487 18.7084 18.486H18.7224C19.0414 18.486 19.0854 18.539 18.9304 18.738ZM19.1924 20.228C19.1054 20.162 19.0334 20.076 19.0264 20.031V20.025C19.0264 19.983 19.0494 19.96 19.0864 19.954C19.1504 19.946 19.2554 19.987 19.3604 20.073C19.4324 20.131 19.4624 20.188 19.4614 20.229C19.4604 20.233 19.4604 20.238 19.4594 20.241C19.4594 20.243 19.4594 20.247 19.4594 20.249C19.4594 20.25 19.4564 20.253 19.4564 20.255C19.4554 20.257 19.4534 20.261 19.4514 20.263V20.266C19.4514 20.266 19.4484 20.268 19.4484 20.269C19.4454 20.272 19.4424 20.276 19.4394 20.278C19.4394 20.278 19.4374 20.28 19.4364 20.281C19.3924 20.314 19.2994 20.307 19.1944 20.226L19.1924 20.228ZM19.6754 22.548C19.6754 22.548 19.6704 22.555 19.6684 22.557C19.6664 22.56 19.6624 22.563 19.6594 22.565C19.6594 22.565 19.6564 22.567 19.6554 22.568C19.6504 22.571 19.6434 22.574 19.6374 22.576C19.6354 22.576 19.6314 22.577 19.6294 22.577C19.6244 22.577 19.6184 22.577 19.6144 22.577C19.5644 22.571 19.4984 22.51 19.4424 22.392C19.3764 22.255 19.3464 22.19 19.3574 22.164C19.3584 22.162 19.3604 22.159 19.3624 22.158C19.3674 22.153 19.3754 22.15 19.3854 22.149C19.4084 22.147 19.4424 22.152 19.4914 22.16C19.5884 22.175 19.6784 22.254 19.6934 22.338C19.7114 22.44 19.7014 22.511 19.6754 22.548ZM19.9044 20.067C19.8474 19.908 19.9024 19.795 20.0394 19.786C20.0454 19.786 20.0514 19.786 20.0564 19.786C20.0694 19.786 20.0814 19.788 20.0924 19.792C20.0984 19.795 20.1054 19.798 20.1114 19.802C20.1114 19.802 20.1154 19.805 20.1174 19.807C20.1174 19.807 20.1194 19.809 20.1194 19.81C20.1194 19.81 20.1224 19.812 20.1224 19.813L20.1254 19.816C20.1494 19.845 20.1574 19.895 20.1474 19.963C20.1174 20.182 19.9684 20.246 19.9044 20.067ZM20.6104 22.132V22.135C20.6064 22.166 20.5274 22.292 20.4314 22.419L20.2544 22.652L20.1614 22.352C20.1154 22.203 20.0874 22.068 20.0934 22.034V22.032C20.0934 22.032 20.0944 22.032 20.0954 22.031L20.0964 22.028C20.0964 22.028 20.0984 22.026 20.0984 22.025H20.1014L20.1034 22.022C20.1134 22.018 20.1274 22.016 20.1454 22.016C20.2694 22.012 20.5674 22.079 20.6064 22.125C20.6074 22.125 20.6084 22.127 20.6084 22.128V22.131L20.6104 22.132ZM21.2534 20.676L21.2514 20.677H21.2484L21.2454 20.68C21.2454 20.68 21.2434 20.682 21.2424 20.682H21.2354C21.1274 20.682 21.0664 20.587 21.0664 20.418C21.0664 20.337 21.0944 20.298 21.1284 20.293C21.1834 20.286 21.2604 20.367 21.2784 20.505C21.2894 20.586 21.2784 20.654 21.2524 20.675L21.2534 20.676ZM21.2804 18.457C21.2644 18.552 21.1774 18.617 21.0474 18.634C20.9474 18.646 20.8864 18.642 20.8624 18.615C20.8614 18.614 20.8604 18.611 20.8594 18.61V18.607C20.8584 18.607 20.8574 18.606 20.8574 18.606C20.8564 18.604 20.8564 18.601 20.8564 18.6C20.8444 18.555 20.8924 18.47 20.9984 18.333C21.0594 18.254 21.1214 18.213 21.1714 18.206C21.2574 18.196 21.3134 18.289 21.2824 18.459L21.2804 18.457ZM20.9864 16.98H20.9904C21.1084 16.98 21.1884 17.034 21.2044 17.124C21.2244 17.235 21.1764 17.266 20.9904 17.266C20.8864 17.266 20.8264 17.256 20.7964 17.227C20.7744 17.205 20.7704 17.172 20.7784 17.124C20.7944 17.036 20.8714 16.982 20.9864 16.98ZM20.8804 20.365C20.9464 20.59 20.8414 20.684 20.6374 20.582C20.4164 20.472 20.3634 20.299 20.4914 20.103C20.5394 20.029 20.5694 19.99 20.6014 19.988C20.6314 19.986 20.6614 20.014 20.7134 20.069C20.7774 20.139 20.8544 20.272 20.8814 20.366L20.8804 20.365ZM20.5444 18.482C20.4724 18.524 20.4024 18.555 20.3784 18.558C20.3784 18.558 20.3764 18.559 20.3754 18.559H20.3724C20.3594 18.553 20.2634 18.523 20.1594 18.489L19.9704 18.427L20.1834 18.333C20.2934 18.285 20.4244 18.246 20.4884 18.241C20.4934 18.241 20.4964 18.241 20.5004 18.241C20.6744 18.241 20.7024 18.391 20.5454 18.481L20.5444 18.482ZM20.3944 17.029C20.4964 17.021 20.5374 17.08 20.5374 17.207C20.5374 17.36 20.4784 17.407 20.1974 17.477C20.0194 17.521 19.8574 17.542 19.8224 17.525C19.8224 17.525 19.8204 17.525 19.8204 17.524H19.8184C19.7214 17.418 19.8064 17.284 20.0494 17.159C20.2054 17.079 20.3174 17.035 20.3944 17.03V17.029Z" fill="#00A139"/>
</svg>
