<svg width="41" height="41" viewBox="0 0 41 41" fill="none" xmlns="http://www.w3.org/2000/svg">
<path d="M2.5 28.5C2.5 30.709 4.291 32.5 6.5 32.5H34.5C36.709 32.5 38.5 30.709 38.5 28.5V20.5H2.5V28.5Z" fill="#CF002E"/>
<path d="M34.505 8.5H6.495C4.288 8.5 2.5 10.289 2.5 12.496V20.5H38.5V12.496C38.5 10.289 36.711 8.5 34.505 8.5ZM9.851 11.289L10.119 11.46C10.136 11.403 10.178 11.362 10.237 11.353L10.054 11.01L10.259 10.625L10.465 11.01L10.281 11.353C10.341 11.363 10.383 11.404 10.399 11.461L10.667 11.29L10.991 11.496L10.667 11.701L10.401 11.532C10.387 11.591 10.344 11.634 10.284 11.645L10.464 11.981L10.398 12.105C10.559 12.163 10.676 12.313 10.676 12.494C10.676 12.723 10.49 12.909 10.259 12.909C10.028 12.909 9.843 12.723 9.843 12.494C9.843 12.313 9.959 12.163 10.12 12.105L10.054 11.981L10.234 11.645C10.174 11.634 10.131 11.592 10.117 11.532L9.852 11.701L9.528 11.496L9.852 11.29L9.851 11.289ZM13.28 17.233C13.273 17.32 13.178 17.371 13.025 17.428C12.871 17.484 12.65 17.535 12.378 17.58C11.835 17.669 11.085 17.73 10.257 17.73C9.015 17.73 7.952 17.593 7.49 17.428C7.338 17.37 7.242 17.321 7.235 17.233C7.235 17.226 7.244 17.224 7.246 17.218C6.863 16.722 6.655 15.616 6.196 15.238C6.367 15.103 6.556 15.045 6.745 15.025C6.625 14.919 6.498 14.726 6.451 14.529C6.303 13.9 6.296 13.258 7.09 12.712C7.884 12.166 9.207 12.627 9.573 12.717C9.897 12.798 9.868 13.156 9.55 13.165C9.673 13.196 9.792 13.225 9.907 13.252C9.944 13.257 10.352 13.311 10.611 13.252C10.717 13.227 10.826 13.201 10.938 13.172C10.599 13.193 10.609 12.838 10.943 12.754C11.309 12.662 12.633 12.201 13.426 12.748C14.22 13.294 14.213 13.936 14.065 14.565C14.019 14.758 13.907 14.93 13.8 15.026C13.98 15.051 14.159 15.109 14.321 15.238C13.861 15.617 13.653 16.726 13.269 17.22C13.27 17.225 13.278 17.228 13.278 17.233H13.28Z" fill="#2B317D"/>
<path d="M12.3843 13.1777C11.7763 13.1777 11.1343 13.4137 10.6523 13.5047C10.6903 13.8067 10.7573 14.2997 10.8183 14.5327C10.8183 14.5327 10.4963 14.4417 10.2693 14.4417C10.0423 14.4417 9.69631 14.5327 9.69631 14.5327C9.69631 14.5327 9.76131 14.1117 9.81031 13.8307C9.83031 13.7167 9.84731 13.6037 9.86031 13.5047C9.37831 13.4127 8.73831 13.1787 8.13131 13.1787C7.53431 13.1787 7.07031 13.4177 7.07031 14.0207C7.07031 14.4357 7.19731 14.8227 7.38531 15.2067C7.50731 15.3117 7.61231 15.4507 7.67831 15.6417C7.63331 15.1727 7.89531 14.7637 8.18931 14.7077C8.68631 14.6147 9.21731 15.3107 9.34331 15.5317C9.36631 14.9147 9.74331 14.6717 10.2583 14.6717C10.7733 14.6717 11.1513 14.9137 11.1743 15.5317C11.3003 15.3107 11.8313 14.6147 12.3273 14.7077C12.6233 14.7627 12.8843 15.1717 12.8413 15.6417C12.9073 15.4527 13.0103 15.3137 13.1313 15.2087C13.3193 14.8247 13.4463 14.4367 13.4463 14.0217C13.4463 13.4187 12.9833 13.1797 12.3853 13.1797L12.3843 13.1777Z" fill="#B28914"/>
<path d="M10.1154 11.531C10.1294 11.59 10.1724 11.633 10.2324 11.644L10.0524 11.98L10.1184 12.104C9.95739 12.162 9.84139 12.312 9.84139 12.493C9.84139 12.722 10.0274 12.908 10.2574 12.908C10.4874 12.908 10.6744 12.722 10.6744 12.493C10.6744 12.312 10.5574 12.162 10.3964 12.104L10.4624 11.98L10.2824 11.644C10.3424 11.633 10.3854 11.59 10.3994 11.531L10.6654 11.7L10.9894 11.495L10.6654 11.289L10.3974 11.46C10.3814 11.403 10.3394 11.362 10.2794 11.352L10.4634 11.009L10.2574 10.624L10.0524 11.009L10.2354 11.352C10.1764 11.362 10.1344 11.403 10.1174 11.459L9.84939 11.288L9.52539 11.494L9.84939 11.699L10.1144 11.53L10.1154 11.531Z" fill="#FFD83D"/>
<path d="M13.8013 15.0254C13.9083 14.9294 14.0203 14.7574 14.0663 14.5644C14.2143 13.9354 14.2213 13.2934 13.4273 12.7474C12.6333 12.2004 11.3103 12.6624 10.9443 12.7534C10.6103 12.8374 10.5993 13.1924 10.9393 13.1714C10.8263 13.2004 10.7183 13.2264 10.6123 13.2514C10.3523 13.3104 9.94427 13.2564 9.90827 13.2514C9.79327 13.2244 9.67427 13.1954 9.55127 13.1644C9.86927 13.1554 9.89827 12.7974 9.57427 12.7164C9.20827 12.6254 7.88427 12.1644 7.09127 12.7114C6.29827 13.2584 6.30427 13.8994 6.45227 14.5284C6.49827 14.7254 6.62627 14.9184 6.74627 15.0244C6.55727 15.0444 6.36827 15.1014 6.19727 15.2374C6.65627 15.6154 6.86427 16.7224 7.24727 17.2174C7.26627 17.1424 7.35327 17.0994 7.49327 17.0574C7.64827 17.0144 7.86827 16.9784 8.14027 16.9504C8.68327 16.8934 9.43327 16.8644 10.2593 16.8644C11.5003 16.8644 12.5633 16.9294 13.0253 17.0574C13.1673 17.0994 13.2553 17.1414 13.2713 17.2194C13.6553 16.7244 13.8633 15.6154 14.3233 15.2374C14.1613 15.1084 13.9813 15.0494 13.8023 15.0254H13.8013ZM13.1313 15.2074C13.0103 15.3124 12.9073 15.4514 12.8413 15.6404C12.8843 15.1714 12.6233 14.7614 12.3273 14.7064C11.8313 14.6134 11.3003 15.3094 11.1743 15.5304C11.1513 14.9124 10.7723 14.6704 10.2583 14.6704C9.74427 14.6704 9.36627 14.9134 9.34327 15.5304C9.21727 15.3094 8.68527 14.6134 8.18927 14.7064C7.89527 14.7614 7.63427 15.1704 7.67827 15.6404C7.61227 15.4504 7.50727 15.3114 7.38527 15.2054C7.19727 14.8224 7.07027 14.4344 7.07027 14.0194C7.07027 13.4164 7.53427 13.1774 8.13127 13.1774C8.73827 13.1774 9.37827 13.4124 9.86027 13.5034C9.84627 13.6024 9.83027 13.7154 9.81027 13.8294C9.76127 14.1104 9.69627 14.5314 9.69627 14.5314C9.69627 14.5314 10.0423 14.4404 10.2693 14.4404C10.4963 14.4404 10.8183 14.5314 10.8183 14.5314C10.7573 14.2984 10.6903 13.8064 10.6523 13.5034C11.1343 13.4124 11.7773 13.1764 12.3843 13.1764C12.9823 13.1764 13.4453 13.4154 13.4453 14.0184C13.4453 14.4334 13.3183 14.8214 13.1303 15.2054L13.1313 15.2074Z" fill="#FFD83D"/>
<path d="M13.0234 17.0582C12.5614 16.9302 11.4984 16.8662 10.2574 16.8652C9.43138 16.8652 8.68137 16.8942 8.13837 16.9512C7.86637 16.9792 7.64637 17.0152 7.49137 17.0582C7.35037 17.1002 7.26437 17.1422 7.24537 17.2182C7.24337 17.2242 7.23538 17.2272 7.23438 17.2332C7.24138 17.3202 7.33737 17.3702 7.48937 17.4282C7.95137 17.5932 9.01537 17.7302 10.2564 17.7302C11.0834 17.7302 11.8334 17.6692 12.3774 17.5802C12.6494 17.5352 12.8704 17.4842 13.0244 17.4282C13.1764 17.3712 13.2724 17.3212 13.2794 17.2332C13.2794 17.2272 13.2714 17.2252 13.2704 17.2202C13.2534 17.1422 13.1654 17.1002 13.0234 17.0582Z" fill="black"/>
</svg>
