<svg width="41" height="41" viewBox="0 0 41 41" fill="none" xmlns="http://www.w3.org/2000/svg">
<g clip-path="url(#clip0_74_3688)">
<path d="M16.0195 10.8135H10.0645V30.1865H16.0195V10.8135Z" fill="#FF6700"/>
<path d="M4.17188 10.8135V30.1895H10.0659V30.1875V10.8135H4.17188Z" fill="#007831"/>
<path d="M30.1047 25.3038L30.0977 25.3018L30.1047 25.3048V25.3038Z" fill="#9C0041"/>
<path d="M31.3996 23.9978L31.4036 23.9648C31.4006 23.9748 31.3936 23.9928 31.3906 24.0018C31.3936 24.0018 31.3976 23.9988 31.3996 23.9978Z" fill="#9C0041"/>
<path d="M34.2555 27.3918C34.2495 27.3878 34.2365 27.3868 34.2305 27.3828C34.2625 27.4188 34.2925 27.4768 34.3225 27.5268C34.2985 27.4778 34.2775 27.4328 34.2555 27.3918Z" fill="#9C0041"/>
<path d="M30.6035 22.2307C30.7115 22.2027 30.8185 22.1857 30.9205 22.1807C30.8215 22.1807 30.7155 22.1967 30.6035 22.2307Z" fill="#9C0041"/>
<path d="M21.7363 21.4502L21.7373 21.4512V21.4502H21.7363Z" fill="#9C0041"/>
<path d="M32.1241 23.8232C32.1101 23.8262 32.0931 23.8232 32.0781 23.8252C32.0941 23.8272 32.1051 23.8252 32.1221 23.8272C32.1221 23.8262 32.1241 23.8252 32.1241 23.8232Z" fill="#9C0041"/>
<path d="M29.3789 25.8743L29.5529 25.8613H29.3879L29.3789 25.8743Z" fill="#9C0041"/>
<path d="M20.2873 27.3141C20.2913 27.3081 20.2923 27.2951 20.2963 27.2891C20.2603 27.3211 20.2023 27.3511 20.1523 27.3831C20.2013 27.3591 20.2463 27.3361 20.2873 27.3141Z" fill="#9C0041"/>
<path d="M24.4242 18.5771C24.3892 18.5821 24.3592 18.5821 24.3262 18.5851C24.3602 18.5841 24.3902 18.5811 24.4242 18.5771Z" fill="#9C0041"/>
<path d="M24.7384 18.5869C24.7324 18.6479 24.7324 18.7009 24.7324 18.7419V18.7389C24.7374 18.6989 24.7404 18.6379 24.7384 18.5869Z" fill="#9C0041"/>
<path d="M22.5254 14.9442C22.5304 14.9342 22.5344 14.9172 22.5394 14.9102C22.4434 14.9522 22.3554 15.0692 22.2734 15.2332C22.3504 15.0882 22.4344 14.9912 22.5254 14.9442Z" fill="#9C0041"/>
<path d="M22.1895 15.4265C22.2055 15.3885 22.2205 15.3495 22.2365 15.3145C22.2205 15.3505 22.2045 15.3865 22.1895 15.4265Z" fill="#9C0041"/>
<path d="M24.0244 18.5743C24.0114 18.5723 23.9974 18.5723 23.9844 18.5693C23.9984 18.5713 24.0104 18.5723 24.0244 18.5743Z" fill="#9C0041"/>
<path d="M24.7344 18.791C24.7344 18.797 24.7344 18.808 24.7344 18.808C24.7504 18.805 24.7594 18.804 24.7744 18.801C24.7654 18.801 24.7544 18.803 24.7514 18.801C24.7474 18.798 24.7384 18.796 24.7324 18.792L24.7344 18.791Z" fill="#9C0041"/>
<path d="M17.6895 30.1895H37.0015V10.8135H17.6895V30.1895ZM20.1855 28.0015C20.1415 28.5135 20.0865 29.1505 19.6525 29.4105C19.5655 29.4405 19.4725 29.4545 19.3735 29.4545C19.1655 29.4545 18.9445 29.3895 18.8095 29.2875C18.6335 29.3555 18.5365 29.4685 18.4425 29.5785C18.4045 29.6235 18.3655 29.6675 18.3225 29.7075L18.3115 29.7175L18.2985 29.7085C18.2985 29.7085 18.2145 29.6535 18.1845 29.5655C18.2935 29.4095 18.6305 29.0805 18.6445 29.0665C18.5495 29.0225 18.4835 28.8745 18.4665 28.6915C18.4455 28.4765 18.4955 28.2715 18.5965 28.1585C18.7595 28.0065 19.2565 27.7775 19.6955 27.5745C19.9305 27.4665 20.1515 27.3645 20.3015 27.2835C20.2985 27.2905 20.2975 27.3025 20.2955 27.3095C20.3005 27.3075 20.3065 27.3035 20.3115 27.3015C20.2985 27.3185 20.2915 27.3485 20.2805 27.3715C20.2335 27.5265 20.2085 27.7415 20.1855 28.0015ZM21.9895 24.0625C21.9935 24.1145 21.9965 24.1655 21.9995 24.2165C22.1565 24.2455 22.2645 24.2845 22.3165 24.4485C22.2495 24.5385 22.1445 24.5515 21.9805 24.4865C21.9805 24.4865 22.0765 24.7565 21.9035 24.8335C21.7595 24.7465 21.7405 24.5355 21.7405 24.5355C21.6605 24.6345 21.5415 24.5695 21.4425 24.4865C21.5325 24.2655 21.7845 24.3715 21.7685 24.0535C21.7685 24.0535 20.5395 24.2265 21.0575 23.4945C21.4995 23.3005 21.4905 23.7545 21.3265 23.9085C21.5285 23.9305 21.6625 23.7995 21.6915 23.6005C21.4415 23.2635 21.7975 23.0405 21.7785 23.0405C20.9245 23.2335 20.8085 22.6455 21.1255 22.5495C21.5255 22.5715 21.3985 22.7005 21.5575 22.8195C21.8455 22.5525 22.0185 22.5265 22.1915 22.7995C22.3645 22.5295 22.6135 22.5585 22.6235 22.5875C22.9025 23.0595 22.2875 23.0885 22.0375 23.0305C22.2485 23.2625 22.1625 23.4835 22.0945 23.6475C22.1015 23.8085 22.2225 23.8345 22.4205 23.8975C21.9985 22.7275 23.9085 24.2095 21.9885 24.0615L21.9895 24.0625ZM21.7775 21.8335H21.7185C21.4175 21.8225 21.0715 21.7915 21.0665 21.6395C21.1005 21.5735 21.1635 21.5675 21.2085 21.5675C21.2655 21.5675 21.3365 21.5805 21.4135 21.5945C21.5035 21.6105 21.6025 21.6285 21.6985 21.6285C21.8025 21.6255 21.8925 21.6115 21.9775 21.5985C22.0625 21.5855 22.1435 21.5725 22.2095 21.5725C22.2715 21.5725 22.3565 21.5815 22.3835 21.6595C22.3205 21.7845 22.0255 21.8325 21.7765 21.8325L21.7775 21.8335ZM22.3985 21.9495C22.3965 22.0845 21.9915 22.1835 21.7295 22.1835H21.7225C21.5085 22.1825 21.2455 22.1345 21.1775 22.0485C21.1615 22.0285 21.1565 22.0075 21.1615 21.9865C21.1615 21.9325 21.2345 21.9325 21.2585 21.9325C21.3015 21.9325 21.3595 21.9405 21.4255 21.9485C21.5085 21.9595 21.6045 21.9725 21.6965 21.9725C21.8245 21.9695 21.9385 21.9505 22.0435 21.9335C22.1425 21.9175 22.2345 21.9035 22.2965 21.9035C22.3215 21.9035 22.3885 21.9035 22.3975 21.9505L22.3985 21.9495ZM21.3515 22.2825L21.6585 22.2875C21.7015 22.2875 21.7435 22.2875 21.7845 22.2855C21.9035 22.2795 22.0335 22.2545 22.1435 22.2335C22.2355 22.2155 22.3145 22.2005 22.3635 22.2005C22.3795 22.2005 22.4265 22.2005 22.4345 22.2375C22.4045 22.3685 22.0855 22.4575 21.8005 22.4785C21.7415 22.4825 21.6815 22.4855 21.6225 22.4855C21.5135 22.4855 21.1575 22.4765 21.1295 22.3545C21.1645 22.2935 21.2235 22.2835 21.3505 22.2835L21.3515 22.2825ZM21.7365 21.4715H21.7205C21.5955 21.4715 21.1795 21.4585 21.0665 21.3285C21.0445 21.3025 21.0345 21.2745 21.0385 21.2435C21.1005 21.1545 21.2265 21.1735 21.4155 21.2055C21.5245 21.2245 21.6505 21.2455 21.7855 21.2475C21.9165 21.2475 22.0335 21.2285 22.1325 21.2125C22.2825 21.1885 22.3845 21.1785 22.4275 21.2225C22.4445 21.2405 22.4525 21.2655 22.4515 21.2965C22.4295 21.4345 21.9725 21.4705 21.7345 21.4705L21.7365 21.4715ZM36.4985 29.5025L36.4885 29.5065L36.4805 29.4995C36.3435 29.3935 36.0155 29.0545 36.0015 29.0405C35.8985 29.2465 35.3075 29.2785 35.0975 29.0895C34.9455 28.9245 34.7165 28.4245 34.5145 27.9835C34.4075 27.7485 34.3055 27.5285 34.2265 27.3785C34.2325 27.3815 34.2455 27.3815 34.2525 27.3845C34.2495 27.3795 34.2465 27.3735 34.2445 27.3685C34.2615 27.3815 34.2915 27.3885 34.3135 27.3995C34.4675 27.4475 34.6815 27.4725 34.9405 27.4945C35.4505 27.5385 36.0855 27.5935 36.3445 28.0295C36.4435 28.3265 36.3595 28.6915 36.2215 28.8755C36.2895 29.0525 36.4025 29.1505 36.5125 29.2455C36.5565 29.2835 36.6005 29.3215 36.6395 29.3645C36.6395 29.3925 36.5875 29.4735 36.5005 29.5035L36.4985 29.5025ZM34.5505 12.9895C34.7525 12.5485 34.9815 12.0495 35.1315 11.8865C35.3415 11.6975 35.9055 11.7275 36.0645 11.9335C36.0665 11.9315 36.0725 11.9255 36.0755 11.9225C36.0945 11.8755 36.3855 11.5745 36.5155 11.4745C36.6205 11.5005 36.6735 11.5815 36.6755 11.5855C36.6335 11.6535 36.5905 11.6915 36.5455 11.7295C36.4365 11.8245 36.3235 11.9225 36.2585 12.1175C36.3935 12.2835 36.4775 12.6485 36.3795 12.9415C36.1195 13.3805 35.4845 13.4345 34.9755 13.4795C34.6715 13.5055 34.4095 13.5285 34.2905 13.6215L34.2605 13.5965C34.3405 13.4465 34.4425 13.2245 34.5495 12.9885L34.5505 12.9895ZM24.4575 20.3855C24.8285 20.1075 25.0285 19.9615 25.4915 19.7775C25.3985 19.4985 25.6225 19.2925 25.2955 19.2065C25.1975 19.3785 25.1005 19.5665 24.9135 19.5505L25.0135 19.0865C25.0135 19.0865 24.6805 19.1075 24.7455 19.7055C24.3615 19.5205 24.5505 19.0865 24.5505 19.0865H24.3655C24.3655 19.0865 24.3655 19.6385 24.0625 19.7505C24.1435 19.4915 24.1795 19.0865 24.1795 19.0865C24.1795 19.0865 23.6845 19.6805 23.3965 19.4875C23.5655 19.2945 23.6975 19.2635 23.6745 19.0305C23.6525 18.7985 23.5325 18.5005 23.5105 18.4525C23.5535 18.4735 23.7065 18.5175 23.8885 18.5515C23.6475 18.4785 23.4845 18.3125 23.4075 18.0505C23.4055 18.0465 23.4035 18.0395 23.4035 18.0325C23.4145 18.0585 23.4325 18.0735 23.4445 18.0975C23.4375 18.0755 23.4305 18.0595 23.4265 18.0455C23.4205 18.0405 23.4085 18.0375 23.4035 18.0325C23.4035 18.0245 23.4055 18.0155 23.4095 18.0125C23.4175 18.0065 23.4265 17.9965 23.4325 18.0035C23.5585 18.1465 24.3355 18.1975 24.9635 18.1975C24.9795 18.1955 25.0715 18.1405 25.1965 18.1405C25.2235 18.1405 25.2515 18.1435 25.2785 18.1485C25.3615 18.1935 25.4295 18.2405 25.4855 18.2895C25.3275 18.1015 25.1265 17.9515 24.9205 17.6935V18.0645C24.5505 17.9725 24.4575 17.8785 24.2725 17.5075L23.9955 17.6935C23.5075 17.4035 23.1465 16.7175 23.8395 16.7575C24.2525 16.8095 23.9025 17.1365 23.9025 17.1365C23.9025 17.1365 24.9625 16.8015 25.3835 16.7655C25.3835 16.7655 25.2605 16.5055 24.8705 16.4605C25.1945 16.2165 25.5215 16.1375 25.7545 16.6525C25.9875 16.6655 26.2035 16.3845 26.0655 16.0205C26.4095 16.0145 26.5795 16.2325 26.7355 16.4625C26.8635 16.4855 26.9925 16.3515 26.9615 15.8895C27.2855 16.1675 27.4445 16.2535 27.4665 16.4875C27.7425 16.5495 27.9295 16.4875 28.3455 16.3005C28.2535 16.6725 28.2535 16.7655 27.8835 16.9505C28.1445 17.2745 28.1725 17.6665 28.1175 17.8085C28.0265 17.7815 28.0045 17.7755 27.9395 17.7575C27.9595 17.9015 27.9895 18.2955 27.9765 18.5275H27.7915L28.0695 19.3635L27.9385 19.5605L28.2895 19.5175C28.8025 19.3975 29.3155 19.4175 29.8285 19.2705C30.5685 19.1775 31.3095 18.8985 32.1425 18.8985C32.6975 18.8985 32.6975 19.1775 33.4385 19.1775V18.7135C33.4385 18.3425 33.1605 17.9705 32.6975 17.8775C32.4205 17.8775 31.9575 18.0635 31.6795 18.1555C31.3095 18.2485 30.7535 18.2485 30.3835 18.2485C29.1815 18.0625 29.3725 17.9455 28.9535 17.7195C28.7035 17.7875 28.5615 18.0005 28.4365 18.3785C28.2035 18.0355 28.2555 17.5985 28.5325 17.4135C28.2555 16.3925 28.9955 15.9275 29.9205 15.7425C30.9385 15.6495 32.5125 16.4845 33.3455 17.0425C33.3455 16.8555 33.3455 16.6715 33.5295 16.5775C33.7145 16.4845 33.9935 16.6705 33.9005 16.9485C33.6225 17.5975 32.5115 16.8555 32.1415 16.6705L32.3265 17.0415C31.7705 16.9485 31.6785 16.8545 31.3085 16.3915C31.2165 16.7625 31.2165 16.8555 30.7525 16.8555C30.9265 16.5805 30.9855 16.4885 30.7525 16.2065L30.6605 16.7635L30.1985 16.1145V16.7635C30.1055 16.6705 29.7345 16.3925 29.5495 16.3925C29.2725 16.2995 29.0875 16.8565 28.9945 17.1345C29.2725 16.8555 29.3635 16.6705 29.8275 16.8555C29.5765 17.0935 29.6495 17.3795 29.9195 17.5975C29.9195 17.5975 29.9675 17.2115 29.9975 17.1235C30.1445 17.2345 30.4575 17.6505 30.8455 17.6915C31.1235 17.6915 31.4015 17.5975 31.6785 17.5055C32.6045 17.4135 34.6405 17.5975 34.1785 18.9905C34.0865 19.2695 33.9935 19.4555 33.8075 19.6405C35.1035 20.1055 33.9935 21.7755 33.7155 22.6105C33.5305 23.3535 33.6585 23.9445 34.5715 23.8485C34.3875 24.2195 34.0865 24.2805 33.7155 24.2805C33.7155 24.2805 33.7615 24.5045 33.9995 24.6095C33.6045 24.9655 34.1365 25.4995 33.9005 25.7665C33.5015 25.9585 32.9745 25.6735 32.9745 25.6735L32.9485 25.9365C32.9485 25.9365 32.2495 25.8885 32.2345 25.8585C32.2345 25.8585 32.4335 25.4845 32.4195 25.4775C32.2345 25.7555 32.0575 25.9185 31.6795 25.8585C31.6795 25.8585 31.7095 25.6845 31.9155 25.4625C31.6345 25.7445 31.6045 25.8665 31.3095 25.8585C31.3095 25.3945 31.5865 24.8385 32.1425 25.0235C32.2355 25.0235 32.5275 25.2545 32.6645 25.1055C32.7755 24.9455 32.7095 24.4035 32.7095 24.2185C32.7675 23.3975 32.6055 23.4465 32.1425 22.9825C31.9535 22.8405 31.7905 22.6615 31.6155 22.5065C31.6485 22.5645 31.6795 22.6265 31.6995 22.6985C31.7815 22.9455 31.5795 23.5265 31.4585 23.8735L31.4195 23.9875C31.4275 23.9845 31.4375 23.9795 31.4455 23.9755C31.4635 23.9575 31.4775 23.9405 31.5055 23.9245C31.6285 23.8525 31.8085 23.7475 32.1505 23.8065C32.1495 23.8135 32.1425 23.8185 32.1415 23.8265C32.1435 23.8265 32.1445 23.8265 32.1475 23.8265C32.1405 23.8555 32.1165 23.8805 32.1035 23.9085C31.9675 24.2445 31.5375 24.4795 31.5165 24.4905C31.5845 24.7185 31.1625 25.8205 31.1445 25.8675L29.9225 25.8805L29.9305 25.8605H29.9225L29.9745 25.7575L30.0585 25.5565L29.9685 25.6765L29.8465 25.8725L29.3675 25.8805L29.3815 25.8605H29.3675L29.5035 25.6895L29.6075 25.5445C29.4605 25.7005 29.1955 25.9115 28.9485 25.9115H28.9255C28.9255 25.9025 28.9295 25.8985 28.9305 25.8905C28.9295 25.8905 28.9275 25.8905 28.9265 25.8905C28.9435 25.7575 28.9745 25.6505 29.0135 25.5555C29.0385 25.4895 29.0705 25.4355 29.1065 25.3865C29.1365 25.3465 29.1685 25.3105 29.2055 25.2825C29.2685 25.2315 29.3435 25.2015 29.4265 25.1835C29.4515 25.1785 29.4775 25.1735 29.5045 25.1715C29.6765 25.1565 29.8715 25.1805 30.1155 25.2845C30.1175 25.2785 30.1195 25.2715 30.1205 25.2645C30.1155 25.2205 30.1245 25.1695 30.1405 25.1135C30.2325 24.7845 30.3355 24.4115 30.1845 24.1065C30.1385 24.0375 30.0605 23.9535 29.9735 23.8615C29.7145 23.5845 29.3925 23.2385 29.5345 22.8825C29.5955 22.7795 29.7245 22.6725 29.8745 22.5685C29.7155 22.6575 29.5705 22.7425 29.4605 22.7975C28.5355 23.3545 27.7015 23.7255 26.6835 23.9115C26.6835 23.9115 26.7035 23.8645 26.7035 23.7715C26.7035 23.7095 27.7025 22.9285 27.8775 21.5575C27.6045 22.9105 26.6325 23.6255 26.5955 23.8775C26.5595 24.1285 26.3605 24.5575 26.3365 24.5865C26.4565 24.5135 26.8425 24.3235 27.3305 24.2835C27.2255 24.8655 26.6825 24.7485 26.5905 25.0265C26.5905 25.3055 26.9605 25.6765 26.5905 25.8615H25.1095C25.1095 25.8615 25.3375 25.5455 25.3485 25.4585C25.1495 25.5795 25.0225 25.8985 24.5865 25.8655C24.6025 25.7465 24.8115 25.5585 24.7765 25.4845C24.5265 25.7175 24.4095 25.9135 24.0905 25.8615C24.1825 25.5835 24.1825 25.2125 24.5545 25.2125C24.8325 25.1205 25.1105 25.3055 25.2945 25.0265C25.6655 24.5615 25.2275 23.5465 25.1355 22.9895C25.1355 22.5255 25.1365 22.4375 25.0175 21.8705L25.1095 23.5415C24.8585 23.3525 24.6105 23.2035 24.3885 23.0135C24.5115 23.1815 24.6125 23.3585 24.6125 23.4965C24.6125 23.7295 24.4245 23.9125 24.1835 23.9125C24.1325 23.9125 24.0815 23.9035 24.0315 23.8875C23.7555 23.8185 23.4675 23.5575 23.1545 23.0905C23.1545 23.0955 23.1535 23.0995 23.1525 23.1045C23.1655 23.1695 23.1475 23.3115 23.0725 23.3535C23.0545 23.3705 23.0225 23.3805 22.9805 23.3805C22.8345 23.3805 22.5855 23.2535 22.5205 23.1635C22.5965 23.0305 22.6505 22.9635 22.6895 22.9155C22.7375 22.8555 22.7605 22.8285 22.7705 22.7845C22.7435 22.6715 22.6795 22.3785 22.4655 22.1695C22.4725 22.1635 22.4745 22.1615 22.4805 22.1565C22.4855 22.1545 22.4855 22.1515 22.4905 22.1485C22.5525 22.0945 22.5895 22.0625 22.5945 22.0375C22.5995 22.0085 22.5705 21.9745 22.5335 21.9315C22.5155 21.9105 22.4965 21.8885 22.4775 21.8625C22.5495 21.8075 22.5855 21.7775 22.5925 21.7445C22.6005 21.7035 22.5695 21.6485 22.4965 21.5765C22.5055 21.5695 22.5035 21.5685 22.5115 21.5635C22.5135 21.5635 22.5135 21.5615 22.5155 21.5615C22.5575 21.5295 22.5925 21.5055 22.6025 21.4815C22.6235 21.4355 22.5975 21.3675 22.5515 21.2805C22.6065 21.2405 22.6425 21.1975 22.6705 21.1225C22.7465 21.0935 22.7995 21.0885 22.8495 21.0885C23.3225 21.0885 23.4865 21.4905 23.6605 21.9165C23.7245 22.0735 23.7975 22.2285 23.8805 22.3735C23.5065 21.6335 23.7395 20.8705 24.4625 20.3865L24.4575 20.3855ZM21.1945 20.5525C21.2395 20.6255 21.3165 20.6675 21.3905 20.7115C21.3925 20.6185 21.4095 20.4155 21.4325 20.1255C21.5545 18.6415 21.8395 15.1665 22.5505 14.9025C22.5465 14.9095 22.5425 14.9255 22.5385 14.9345C22.5445 14.9315 22.5505 14.9235 22.5565 14.9205C22.5225 14.9695 22.4925 15.0815 22.4655 15.2375C22.2935 16.3825 22.2755 19.8475 22.3555 20.6745C22.1985 20.7905 21.9935 20.8105 21.8465 20.8105C21.6855 20.8105 21.5415 20.7855 21.4455 20.7575C21.7755 20.9065 22.2615 20.8355 22.4795 20.6665C22.2395 20.2075 22.8925 20.3065 22.8635 20.6565C22.7835 21.2765 20.6295 21.1935 20.7125 20.4835C20.7855 20.1485 21.5605 20.1905 21.1925 20.5515L21.1945 20.5525ZM18.1945 11.4715C18.3495 11.5805 18.6775 11.9185 18.6915 11.9335C18.7935 11.7285 19.3875 11.6975 19.5955 11.8855C19.7475 12.0495 19.9755 12.5485 20.1775 12.9895C20.2855 13.2255 20.3865 13.4475 20.4675 13.5975L20.4375 13.6225C20.3185 13.5295 20.0565 13.5075 19.7535 13.4805C19.2435 13.4365 18.6085 13.3815 18.3495 12.9465C18.2505 12.6495 18.3345 12.2835 18.4715 12.0995C18.4035 11.9225 18.2905 11.8245 18.1815 11.7295C18.1375 11.6915 18.0935 11.6535 18.0535 11.6095C18.0535 11.5815 18.1075 11.5005 18.1945 11.4715Z" fill="#9C0041"/>
<path d="M29.9355 25.8703L30.3085 25.8613H29.9395L29.9355 25.8703Z" fill="#9C0041"/>
<path d="M24.7676 18.7905C24.7806 18.7825 24.8086 18.7765 24.8266 18.7695C24.8036 18.7755 24.7796 18.7815 24.7686 18.7845V18.7915L24.7676 18.7905Z" fill="#9C0041"/>
<path d="M25.7301 18.8844C25.7301 18.8844 25.7221 18.8844 25.7181 18.8804C25.5871 18.7834 25.4191 18.7344 25.2211 18.7344C25.0521 18.7344 24.9111 18.7684 24.8281 18.7904C25.2031 18.7194 25.3271 18.7284 25.7531 18.8984C25.7511 18.8874 25.7471 18.8824 25.7451 18.8714C25.7431 18.8744 25.7441 18.8794 25.7401 18.8814C25.7371 18.8834 25.7331 18.8844 25.7301 18.8844Z" fill="#9C0041"/>
<path d="M30.0617 25.5472L30.0137 25.6722L30.1047 25.4912L30.0617 25.5472Z" fill="#9C0041"/>
<path d="M22.5674 21.2891C22.5734 21.2941 22.5754 21.3031 22.5804 21.3091C22.5764 21.3011 22.5734 21.2941 22.5694 21.2861C22.5694 21.2861 22.5684 21.2891 22.5664 21.2891H22.5674Z" fill="#9C0041"/>
<path d="M22.5098 21.5821C22.5298 21.5921 22.5358 21.6051 22.5508 21.6171C22.5398 21.6041 22.5308 21.5911 22.5168 21.5771C22.5128 21.5771 22.5138 21.5811 22.5098 21.5821Z" fill="#9C0041"/>
<path d="M22.6618 21.1748C22.6548 21.1898 22.6438 21.1958 22.6348 21.2068C22.6448 21.1928 22.6548 21.1878 22.6618 21.1748Z" fill="#9C0041"/>
<path d="M22.4941 21.8683C22.5011 21.8673 22.5041 21.8753 22.5101 21.8773C22.5061 21.8723 22.5031 21.8683 22.4991 21.8643C22.4961 21.8653 22.4971 21.8673 22.4941 21.8683Z" fill="#9C0041"/>
<path d="M23.1514 23.0576C23.1514 23.0576 23.1514 23.0706 23.1504 23.0796C23.1964 23.1396 23.2394 23.1896 23.2824 23.2426C23.2344 23.1776 23.1884 23.1136 23.1514 23.0576Z" fill="#9C0041"/>
<path d="M22.4844 22.1719C22.4974 22.1829 22.5054 22.1959 22.5174 22.2079C22.5064 22.1959 22.4994 22.1819 22.4884 22.1699L22.4854 22.1719H22.4844Z" fill="#9C0041"/>
<path d="M22.5823 21.792C22.5823 21.792 22.5753 21.798 22.5723 21.801C22.5753 21.798 22.5793 21.795 22.5823 21.792Z" fill="#9C0041"/>
<path d="M29.6658 25.4715C29.6508 25.4905 29.6378 25.5085 29.6168 25.5315L29.5488 25.6295L29.7338 25.3975C29.7338 25.3975 29.7058 25.4295 29.6658 25.4705V25.4715Z" fill="#9C0041"/>
<path d="M30.9739 22.1729C30.9569 22.1729 30.9379 22.1809 30.9209 22.1809C30.8189 22.1849 30.7129 22.2029 30.6039 22.2309C30.3369 22.2989 30.0779 22.4249 29.8689 22.5689C29.7189 22.6729 29.5909 22.7799 29.5289 22.8829C29.3869 23.2389 29.7089 23.5849 29.9679 23.8619C30.0539 23.9549 30.1319 24.0379 30.1789 24.1069C30.3299 24.4119 30.2259 24.7849 30.1349 25.1139C30.1189 25.1699 30.1099 25.2209 30.1149 25.2649C30.1149 25.2709 30.1109 25.2799 30.1119 25.2859H30.1089C29.8649 25.1819 29.6699 25.1589 29.4979 25.1729C29.4709 25.1749 29.4459 25.1799 29.4199 25.1849C29.3369 25.2029 29.2619 25.2329 29.1989 25.2839C29.1629 25.3129 29.1299 25.3479 29.0999 25.3879C29.0639 25.4369 29.0319 25.4909 29.0069 25.5569C28.9699 25.6539 28.9369 25.7569 28.9249 25.8909C28.9249 25.8989 28.9209 25.9029 28.9199 25.9119H28.9429C29.1899 25.9119 29.4549 25.7009 29.6019 25.5449L29.4979 25.6899L29.3759 25.8609L29.3619 25.8809L29.8409 25.8729L29.9629 25.6769L30.0849 25.4819L30.0539 25.5569L29.9699 25.7579L29.9269 25.8609L29.9189 25.8809L31.1409 25.8679C31.1589 25.8209 31.5809 24.7189 31.5129 24.4909C31.5339 24.4799 31.9649 24.2449 32.0999 23.9089C32.1109 23.8809 32.1309 23.8559 32.1379 23.8269C32.1399 23.8199 32.1459 23.8149 32.1469 23.8069C31.8059 23.7479 31.6249 23.8529 31.5019 23.9249C31.4739 23.9409 31.4599 23.9589 31.4419 23.9759C31.4329 23.9849 31.4149 23.9919 31.4109 24.0029L31.4159 23.9889L31.4549 23.8749C31.5759 23.5279 31.7779 22.9459 31.6959 22.6999C31.6759 22.6269 31.6459 22.5659 31.6119 22.5079C31.4869 22.2899 31.2719 22.1729 30.9729 22.1729H30.9739ZM31.5229 23.9609C31.6219 23.9029 31.7449 23.8309 31.9559 23.8309C31.9959 23.8309 32.0379 23.8289 32.0789 23.8249C32.0939 23.8239 32.1109 23.8259 32.1249 23.8229C32.1249 23.8229 32.1229 23.8249 32.1229 23.8269C32.0379 24.1759 31.5009 24.4529 31.4849 24.4779C31.5389 24.7159 31.1089 25.8399 31.1229 25.8409L30.3099 25.8609L29.9369 25.8699L29.9409 25.8609L30.0139 25.6719L30.0619 25.5469L30.0889 25.4779L29.8269 25.8409L29.5529 25.8609L29.3789 25.8739L29.3879 25.8609L29.5489 25.6289L29.6169 25.5309C29.6379 25.5079 29.6509 25.4899 29.6659 25.4709C29.6989 25.4289 29.7209 25.3949 29.7189 25.3849C29.7189 25.3849 29.2999 25.8719 28.9449 25.8729C29.0079 25.4129 29.2059 25.1879 29.5519 25.1879C29.6979 25.1879 29.8759 25.2319 30.0979 25.3019C30.1009 25.3019 30.1029 25.3029 30.1049 25.3039C30.1119 25.3059 30.1169 25.3069 30.1239 25.3089C30.1389 25.2499 30.1559 25.1879 30.1739 25.1249C30.2679 24.7889 30.3739 24.4079 30.2149 24.0869C30.1669 24.0139 30.0869 23.9289 29.9989 23.8349C29.7479 23.5659 29.4349 23.2309 29.5659 22.9009C29.7289 22.6299 30.4069 22.2129 30.9749 22.2129C31.2249 22.2129 31.5469 22.2999 31.6589 22.7119C31.7369 22.9469 31.5299 23.5419 31.4189 23.8619L31.4049 23.9639L31.4009 23.9969L31.3979 24.0199C31.4379 24.0099 31.4779 23.9859 31.5239 23.9589L31.5229 23.9609Z" fill="#9C0041"/>
<path d="M25.2285 17.0899C25.1525 17.1369 25.1505 17.3009 25.1875 17.4319C25.2235 17.5609 25.2905 17.6379 25.3645 17.6379L25.4155 17.6259C25.4985 17.5889 25.5315 17.5089 25.5085 17.4009C25.4765 17.2519 25.3525 17.0859 25.2285 17.0899ZM25.3645 17.5969C25.2995 17.5959 25.2505 17.5059 25.2265 17.4199C25.1895 17.2899 25.2005 17.1539 25.2585 17.1209C25.3125 17.1209 25.4385 17.2659 25.4695 17.4089C25.4825 17.4709 25.4815 17.5519 25.3995 17.5889L25.3845 17.6019L25.3655 17.6179V17.5979C25.3655 17.5979 25.3655 17.5969 25.3645 17.5969Z" fill="#9C0041"/>
<path d="M26.3383 17.5042C26.3533 17.5042 26.3683 17.5022 26.3843 17.5002C26.3933 17.5002 26.4013 17.5002 26.4103 17.4982C26.1413 17.2762 26.1373 17.1042 26.1233 17.0572C26.2843 17.2342 26.6993 17.3832 26.9563 17.3632C26.9993 17.3602 27.0433 17.3562 27.0743 17.3422C27.0813 17.3392 27.0953 17.3422 27.1013 17.3372L27.0353 17.2882C26.8853 17.1782 26.8413 17.1382 26.7883 17.0552C26.7813 17.0442 26.7733 17.0382 26.7663 17.0252H26.7773L26.8413 17.0352C27.0543 17.0632 27.2883 17.0882 27.4953 17.0222C27.5303 17.0112 27.5643 16.9972 27.5963 16.9792C27.6103 16.9722 27.6253 16.9702 27.6383 16.9612C27.6093 16.9742 27.5743 16.9692 27.5433 16.9782C27.3213 17.0422 27.0733 17.0252 26.8463 16.9952L26.7783 17.0062H26.7703L26.7503 17.0112C26.7973 17.1612 26.8393 17.1922 27.0123 17.3202L27.0583 17.3292L27.0813 17.3342C27.0813 17.3342 27.0703 17.3342 27.0663 17.3352C26.8873 17.3992 26.4403 17.2552 26.1993 17.0852C26.1753 17.0682 26.1453 17.0532 26.1263 17.0352C26.1213 17.0312 26.1123 17.0272 26.1083 17.0232C26.1063 17.0312 26.0753 17.1792 26.2623 17.3712C26.3013 17.4112 26.3353 17.4502 26.3963 17.4932C26.3893 17.4932 26.3833 17.4902 26.3753 17.4912C26.0443 17.4992 25.7583 17.2552 25.5473 17.0742C25.4893 17.0242 25.4383 16.9822 25.3903 16.9472C25.3843 16.9422 25.3753 16.9352 25.3693 16.9302C25.3603 16.9242 25.3483 16.9262 25.3413 16.9352C25.3353 16.9442 25.3373 16.9562 25.3463 16.9632C25.3973 16.9992 25.4563 17.0492 25.5203 17.1052C25.7203 17.2772 25.9873 17.5062 26.3073 17.5062C26.3173 17.5062 26.3283 17.5042 26.3383 17.5042Z" fill="#9C0041"/>
<path d="M26.1804 19.231C26.1784 19.225 26.1774 19.209 26.1744 19.208C26.1744 19.208 26.1724 19.23 26.1714 19.244C26.1644 19.319 26.1544 19.567 26.2384 19.873C26.2474 19.906 26.2514 19.936 26.2624 19.97C26.2604 19.97 26.2584 19.967 26.2564 19.967C26.1594 19.956 26.0334 19.762 25.9284 19.589C25.9124 19.563 25.8974 19.54 25.8824 19.516C25.8594 19.478 25.8384 19.444 25.8194 19.415C25.8144 19.407 25.8064 19.393 25.8014 19.386L25.7754 19.776C25.7754 19.787 25.7834 19.797 25.7944 19.797C25.8034 19.795 25.8154 19.789 25.8154 19.778V19.749L25.8084 19.574L25.8024 19.394C25.8024 19.394 25.8144 19.419 25.8184 19.428C25.8344 19.465 25.8674 19.529 25.9114 19.611C25.9844 19.745 26.0814 19.879 26.1864 19.94C26.2104 19.954 26.2344 19.975 26.2574 19.978C26.2614 19.978 26.2654 19.985 26.2694 19.985C26.2724 19.985 26.2754 19.985 26.2784 19.985C26.1874 19.653 26.1974 19.376 26.1864 19.264C26.1844 19.246 26.1814 19.239 26.1774 19.23L26.1804 19.231Z" fill="#9C0041"/>
<path d="M27.9725 19.6313C27.9725 19.6313 28.0185 19.8023 27.9085 19.9543C27.8025 19.9453 27.6295 19.7273 27.4785 19.5233C27.4445 19.4763 27.4145 19.4373 27.3835 19.3953C27.3585 19.3603 27.3305 19.3223 27.3085 19.2933C27.3085 19.2933 27.3085 19.2923 27.3075 19.2913C27.2895 19.2593 27.2745 19.2393 27.2655 19.2383C27.2655 19.2383 27.2655 19.2373 27.2645 19.2363C27.2645 19.2383 27.3135 19.3543 27.3645 19.5003C27.4115 19.6363 27.4515 19.7913 27.4695 19.9353C27.4745 19.9763 27.4855 20.0213 27.4845 20.0573C27.4815 20.0563 27.4795 20.0533 27.4765 20.0523C27.0985 19.9123 26.9175 19.5463 26.8375 19.3953C26.8375 19.3953 26.8375 19.3953 26.8375 19.3943C26.8255 19.3723 26.8185 19.3623 26.8105 19.3523C26.8055 19.3443 26.7945 19.3213 26.7905 19.3213C26.7905 19.3213 26.7895 19.3513 26.7905 19.3873C26.7935 19.5093 26.8395 19.7923 27.0895 20.0233C27.1055 20.0383 27.1115 20.0543 27.1295 20.0693C27.1295 20.0693 27.1275 20.0693 27.1265 20.0693C27.1035 20.0823 27.0775 20.0863 27.0475 20.0783C26.8115 20.0153 26.4575 19.3883 26.4145 19.3113C26.4115 19.3073 26.4065 19.2973 26.4065 19.2963C26.4015 19.2863 26.3885 19.2833 26.3795 19.2883C26.3695 19.2933 26.3665 19.3053 26.3715 19.3153C26.3875 19.3453 26.7705 20.0453 27.0375 20.1163C27.0495 20.1193 27.0605 20.1213 27.0715 20.1213C27.0915 20.1213 27.1095 20.1023 27.1275 20.0873C27.1305 20.0843 27.1335 20.0843 27.1375 20.0813C27.1425 20.0753 27.1495 20.0783 27.1545 20.0713C26.8775 19.8243 26.8365 19.5193 26.8135 19.3913C26.8135 19.3893 26.8125 19.3863 26.8125 19.3843C26.8125 19.3863 26.8155 19.3903 26.8165 19.3923C26.8575 19.4973 26.9675 19.7113 27.1635 19.8823C27.1645 19.8833 27.1665 19.8843 27.1675 19.8863C27.2335 19.9443 27.3135 19.9893 27.4015 20.0293C27.4285 20.0413 27.4505 20.0593 27.4795 20.0693C27.4875 20.0723 27.4925 20.0773 27.4995 20.0793C27.5175 19.9023 27.4585 19.6833 27.3945 19.5073C27.3795 19.4663 27.3675 19.4153 27.3525 19.3823C27.3775 19.4213 27.4095 19.4703 27.4415 19.5173C27.5845 19.7283 27.7835 19.9823 27.9245 19.9883C28.0335 19.8503 28.0265 19.7123 27.9995 19.6593C27.9925 19.6453 27.9835 19.6333 27.9755 19.6333L27.9725 19.6313Z" fill="#9C0041"/>
<path d="M27.8853 19.0588C27.8723 19.0758 27.8513 19.0858 27.8223 19.0878C27.8023 19.0898 27.7593 19.0218 27.7073 18.9308C27.6323 18.7968 27.5353 18.5958 27.4313 18.3678C27.3953 18.2898 27.3603 18.2118 27.3243 18.1318C27.3183 18.1178 27.3113 18.1038 27.3053 18.0898C27.2973 18.4148 27.2793 18.7798 27.2783 18.8088C27.2443 18.7898 27.0553 18.5188 26.8723 18.2818C26.8343 18.2318 26.7973 18.1848 26.7613 18.1408C26.7513 18.1288 26.7403 18.1148 26.7313 18.1028C26.8053 18.3968 26.8673 18.7228 26.8493 18.7568C26.8173 18.7528 26.6593 18.6528 26.4843 18.5458C26.4633 18.5328 26.4423 18.5198 26.4203 18.5068C26.4143 18.5028 26.4073 18.4988 26.4013 18.4948L26.3923 18.7218L26.3873 18.8568L26.3773 19.1198L26.3643 19.1028L26.0193 18.6618L26.0063 18.6448C25.9993 18.6358 25.9873 18.6348 25.9783 18.6418C25.9693 18.6488 25.9683 18.6618 25.9753 18.6698L26.2103 18.9378L26.3643 19.1138L26.3823 19.1348L26.3993 18.7318V18.7228L26.4083 18.5128C26.4103 18.5148 26.4163 18.5188 26.4183 18.5208C26.5123 18.5958 26.7853 18.8038 26.8763 18.7828C26.9123 18.7298 26.8473 18.4238 26.7823 18.2338C26.7653 18.1838 26.7483 18.1368 26.7333 18.1098C26.7453 18.1278 26.7533 18.1398 26.7643 18.1558C27.2333 18.8668 27.2653 18.8548 27.2823 18.8458C27.2923 18.8408 27.3143 18.8228 27.3123 18.4418C27.3123 18.3488 27.3103 18.2398 27.3053 18.0968C27.3103 18.1088 27.3173 18.1288 27.3223 18.1438C27.3903 18.3288 27.5293 18.6898 27.6533 18.9218C27.7173 19.0408 27.7783 19.1278 27.8203 19.1278H27.8223C27.8643 19.1248 27.8953 19.1098 27.9153 19.0818C27.9403 19.0478 27.9333 19.0108 27.9173 18.9888C27.9103 18.9788 27.9053 18.9648 27.8943 18.9678C27.8943 18.9678 27.9073 19.0228 27.8823 19.0578L27.8853 19.0588Z" fill="#9C0041"/>
<path d="M26.3549 18.337C26.3949 18.314 26.3489 18.166 26.2099 17.919C26.1919 17.887 26.1699 17.851 26.1479 17.815C26.1289 17.784 26.1159 17.758 26.0939 17.724C26.0959 17.726 26.1169 17.745 26.1329 17.76C26.1489 17.775 26.1669 17.79 26.1929 17.813C26.3019 17.909 26.4709 18.05 26.5599 18.068C26.5659 18.068 26.6119 18.056 26.6169 18.051C26.6589 18.009 26.6559 17.895 26.6399 17.799C26.6329 17.759 26.6259 17.727 26.6159 17.701C26.6109 17.688 26.6059 17.67 26.6009 17.663C26.6029 17.665 26.6079 17.669 26.6109 17.671C26.6469 17.702 26.7029 17.747 26.7639 17.795C26.8849 17.89 27.0239 17.989 27.0669 17.974C27.1149 17.962 27.1239 17.87 27.1139 17.784C27.1109 17.758 27.1069 17.735 27.1009 17.712C27.0949 17.691 27.0899 17.669 27.0819 17.655C27.0889 17.662 27.0919 17.665 27.0989 17.672C27.1439 17.717 27.1799 17.752 27.2099 17.781C27.3419 17.909 27.3609 17.914 27.3819 17.908C27.3859 17.904 27.3909 17.893 27.3789 17.776C27.3729 17.715 27.3619 17.622 27.3439 17.486C27.3329 17.401 27.3189 17.304 27.3009 17.179C27.3079 17.186 27.3119 17.191 27.3189 17.198C27.7829 17.69 27.8879 17.768 27.9159 17.754C27.9209 17.751 27.9249 17.746 27.9259 17.739C27.8889 17.727 27.6569 17.495 27.4419 17.297C27.3999 17.258 27.3579 17.22 27.3179 17.186C27.3109 17.18 27.3029 17.172 27.2959 17.166C27.3139 17.355 27.3369 17.63 27.3559 17.775C27.3609 17.816 27.3649 17.837 27.3689 17.852C27.3699 17.857 27.3719 17.873 27.3729 17.875L27.3679 17.871C27.3549 17.863 27.3139 17.827 27.2559 17.778C27.2319 17.758 27.1999 17.736 27.1709 17.714C27.1459 17.695 27.1249 17.677 27.0979 17.658C27.0899 17.653 27.0849 17.647 27.0759 17.642C27.0819 17.694 27.0809 17.739 27.0809 17.784C27.0809 17.864 27.0739 17.93 27.0579 17.934C27.0269 17.936 26.9299 17.872 26.8119 17.793C26.7789 17.771 26.7469 17.749 26.7109 17.726C26.6779 17.704 26.6439 17.682 26.6099 17.66C26.6019 17.655 26.5949 17.65 26.5869 17.645C26.5959 17.689 26.6029 17.745 26.6069 17.8C26.6139 17.898 26.6099 17.997 26.5689 18.028C26.4999 18.014 26.3559 17.901 26.2329 17.811C26.2159 17.799 26.2009 17.789 26.1859 17.778C26.1629 17.762 26.1429 17.75 26.1239 17.738C26.1139 17.732 26.0999 17.721 26.0909 17.717C26.1069 17.749 26.1229 17.781 26.1389 17.814C26.2499 18.039 26.3479 18.269 26.3389 18.3C26.2909 18.3 26.0019 18.062 25.7429 17.826C25.7379 17.821 25.7329 17.817 25.7269 17.812C25.7189 17.804 25.7059 17.805 25.6989 17.813C25.6909 17.821 25.6919 17.834 25.6999 17.842C25.9519 18.072 26.2609 18.339 26.3439 18.339C26.3489 18.339 26.3529 18.339 26.3559 18.336L26.3549 18.337Z" fill="#9C0041"/>
<path d="M24.0243 18.574C24.0793 18.582 24.1323 18.595 24.1943 18.595C24.2353 18.595 24.2833 18.588 24.3273 18.585C24.3603 18.582 24.3893 18.582 24.4253 18.577C24.5163 18.564 24.6153 18.545 24.7283 18.518C24.7373 18.528 24.7373 18.559 24.7393 18.588C24.7413 18.639 24.7393 18.7 24.7343 18.74V18.743L24.7293 18.789C24.7293 18.789 24.7333 18.791 24.7353 18.792C24.7413 18.795 24.7503 18.798 24.7543 18.801C24.7573 18.804 24.7673 18.802 24.7773 18.801C24.7823 18.801 24.7873 18.801 24.7893 18.801C24.7983 18.799 24.8193 18.794 24.8303 18.791C24.9133 18.769 25.0533 18.735 25.2233 18.735C25.4223 18.735 25.5893 18.784 25.7203 18.881C25.7243 18.884 25.7283 18.885 25.7323 18.885C25.7363 18.885 25.7393 18.885 25.7423 18.882C25.7453 18.88 25.7453 18.876 25.7473 18.872C25.7493 18.868 25.7523 18.866 25.7523 18.862C25.7173 18.619 25.6583 18.441 25.4873 18.289C25.4313 18.24 25.3633 18.193 25.2803 18.148C25.2533 18.142 25.2253 18.14 25.1983 18.14C25.0733 18.14 24.9813 18.195 24.9653 18.197C24.3373 18.197 23.5593 18.146 23.4343 18.003C23.4283 17.995 23.4193 18.005 23.4113 18.012C23.4073 18.015 23.4053 18.023 23.4053 18.031C23.4103 18.036 23.4223 18.04 23.4283 18.045C23.6433 18.222 24.6553 18.237 25.0103 18.234C25.0103 18.234 25.0883 18.181 25.1993 18.181C25.2243 18.181 25.2483 18.184 25.2673 18.187C25.5703 18.351 25.6613 18.54 25.7073 18.824C25.5753 18.74 25.4133 18.697 25.2243 18.697C25.0583 18.697 24.9223 18.732 24.8303 18.772C24.8123 18.78 24.7843 18.786 24.7713 18.793V18.786L24.7763 18.745C24.7883 18.634 24.7963 18.532 24.7603 18.492L24.6893 18.484C24.0513 18.652 23.6543 18.516 23.4453 18.097C23.4333 18.073 23.4153 18.058 23.4043 18.032C23.4043 18.039 23.4063 18.046 23.4083 18.05C23.4853 18.313 23.6483 18.478 23.8893 18.551C23.9193 18.56 23.9533 18.564 23.9863 18.57C23.9993 18.572 24.0133 18.573 24.0263 18.575L24.0243 18.574Z" fill="#9C0041"/>
<path d="M22.8449 21.086C22.7949 21.086 22.7419 21.091 22.6659 21.12C22.6379 21.195 22.6019 21.239 22.5469 21.278C22.5929 21.365 22.6189 21.433 22.5979 21.479C22.5869 21.503 22.5529 21.526 22.5109 21.559C22.5089 21.56 22.5079 21.562 22.5079 21.562C22.5009 21.568 22.5019 21.569 22.4929 21.575C22.5659 21.647 22.5979 21.702 22.5889 21.743C22.5819 21.776 22.5459 21.805 22.4739 21.861C22.4929 21.886 22.5119 21.909 22.5299 21.93C22.5669 21.973 22.5969 22.007 22.5909 22.036C22.5859 22.061 22.5489 22.093 22.4869 22.147C22.4829 22.15 22.4809 22.152 22.4779 22.155C22.4719 22.16 22.4699 22.162 22.4629 22.168C22.6769 22.377 22.7409 22.671 22.7679 22.783C22.7579 22.827 22.7359 22.854 22.6869 22.914C22.6479 22.962 22.5939 23.029 22.5179 23.162C22.5829 23.252 22.8319 23.379 22.9779 23.379C23.0199 23.379 23.0519 23.369 23.0699 23.352C23.1449 23.31 23.1629 23.168 23.1499 23.103C23.1499 23.099 23.1509 23.091 23.1499 23.087L23.1509 23.088C23.4639 23.554 23.7519 23.815 24.0279 23.885C24.0779 23.902 24.1289 23.91 24.1799 23.91C24.4209 23.91 24.6089 23.728 24.6089 23.494C24.6089 23.356 24.5079 23.179 24.3849 23.011C24.2529 22.831 24.0959 22.663 24.0009 22.569C23.9519 22.51 23.9149 22.438 23.8759 22.369C23.7929 22.224 23.7199 22.07 23.6559 21.912C23.4819 21.486 23.3179 21.084 22.8449 21.084V21.086ZM23.1329 23.057C23.1309 23.118 23.1129 23.283 23.0459 23.321C22.9719 23.387 22.6219 23.234 22.5499 23.163C22.6249 23.054 22.6789 22.988 22.7169 22.941C22.7679 22.878 22.7929 22.847 22.7999 22.76C22.7789 22.666 22.7139 22.395 22.5179 22.208C22.5059 22.197 22.4979 22.183 22.4849 22.172C22.4869 22.172 22.4879 22.17 22.4879 22.17C22.5779 22.124 22.6209 22.087 22.6299 22.044C22.6399 21.996 22.6039 21.956 22.5599 21.904C22.5469 21.889 22.5299 21.882 22.5129 21.878C22.5069 21.876 22.5039 21.868 22.4969 21.869C22.4999 21.868 22.4989 21.866 22.5019 21.865C22.5439 21.848 22.5529 21.823 22.5739 21.801C22.5769 21.798 22.5809 21.795 22.5839 21.792C22.5949 21.778 22.6249 21.769 22.6289 21.752C22.6379 21.708 22.6079 21.66 22.5529 21.616C22.5379 21.605 22.5319 21.592 22.5119 21.581C22.5159 21.581 22.5159 21.577 22.5189 21.576C22.5769 21.559 22.6179 21.534 22.6349 21.496C22.6619 21.435 22.6289 21.36 22.5829 21.309C22.5779 21.303 22.5749 21.294 22.5699 21.289C22.5699 21.289 22.5709 21.286 22.5729 21.286C22.6019 21.278 22.6159 21.235 22.6379 21.207C22.6469 21.195 22.6579 21.189 22.6649 21.175C22.6719 21.159 22.6879 21.16 22.6929 21.141C23.2589 21.047 23.4339 21.474 23.6209 21.931C23.7169 22.166 23.8159 22.409 23.9739 22.599C24.1539 22.779 24.5709 23.226 24.5709 23.497C24.5709 23.752 24.3099 23.939 24.0409 23.849C23.8099 23.791 23.5669 23.584 23.2859 23.243C23.2419 23.19 23.1989 23.14 23.1539 23.08C23.1479 23.072 23.1419 23.066 23.1349 23.057H23.1329Z" fill="#9C0041"/>
<path d="M21.4466 20.7593C21.5426 20.7873 21.6866 20.8123 21.8476 20.8123C21.9936 20.8123 22.1986 20.7923 22.3566 20.6763C22.2766 19.8493 22.2946 16.3843 22.4666 15.2393C22.4886 15.0953 22.5126 14.9973 22.5386 14.9363C22.5426 14.9273 22.5466 14.9103 22.5506 14.9043C21.8396 15.1683 21.5536 18.6433 21.4326 20.1273C21.4086 20.4173 21.3926 20.6193 21.3906 20.7133C21.4126 20.7263 21.4246 20.7503 21.4486 20.7603L21.4466 20.7593ZM22.5406 14.9113C22.5356 14.9183 22.5316 14.9353 22.5266 14.9453C22.2506 15.4933 22.2396 19.8853 22.3246 20.6623C22.1846 20.7543 21.9876 20.7733 21.8466 20.7733C21.6636 20.7733 21.4806 20.7403 21.4136 20.7313C21.4256 20.6723 21.4436 20.4573 21.4706 20.1303C21.5596 19.0473 21.7676 16.5283 22.1886 15.4273C22.2036 15.3873 22.2196 15.3513 22.2356 15.3153C22.2476 15.2873 22.2606 15.2603 22.2736 15.2343C22.3546 15.0703 22.4426 14.9533 22.5396 14.9113H22.5406Z" fill="#9C0041"/>
<path d="M36.2196 28.874C36.3576 28.69 36.4416 28.324 36.3426 28.028C36.0836 27.592 35.4486 27.537 34.9386 27.493C34.6796 27.471 34.4656 27.446 34.3116 27.398C34.2936 27.392 34.2666 27.389 34.2506 27.383C34.2436 27.38 34.2316 27.379 34.2246 27.377C34.3046 27.527 34.4056 27.747 34.5126 27.982C34.7146 28.424 34.9436 28.924 35.0956 29.088C35.3056 29.277 35.8966 29.245 35.9996 29.039C36.0136 29.054 36.3406 29.392 36.4786 29.498L36.4866 29.505L36.4966 29.501C36.5836 29.471 36.6356 29.39 36.6356 29.362C36.5966 29.319 36.5526 29.281 36.5086 29.243C36.3996 29.148 36.2856 29.05 36.2176 28.873L36.2196 28.874ZM34.2546 27.392C34.3886 27.482 34.6386 27.508 34.9346 27.533C35.4356 27.576 36.0596 27.63 36.3066 28.044C36.3996 28.324 36.3196 28.674 36.1846 28.868C36.2536 29.074 36.3706 29.175 36.4846 29.274C36.5276 29.311 36.5696 29.348 36.6056 29.365C36.6056 29.365 36.5626 29.431 36.4946 29.459C36.3626 29.353 36.0756 29.06 36.0146 29.025C36.0106 29.023 36.0006 29.013 35.9986 29.013C35.8556 29.202 35.3126 29.228 35.1236 29.06C34.9776 28.902 34.7496 28.404 34.5486 27.965C34.4716 27.797 34.3976 27.65 34.3216 27.526C34.2906 27.476 34.2606 27.418 34.2296 27.382C34.2356 27.386 34.2486 27.388 34.2546 27.392Z" fill="#9C0041"/>
<path d="M18.4697 12.0987C18.3317 12.2827 18.2477 12.6487 18.3477 12.9457C18.6067 13.3807 19.2417 13.4357 19.7517 13.4797C20.0547 13.5057 20.3167 13.5287 20.4357 13.6217L20.4657 13.5967C20.3857 13.4467 20.2837 13.2247 20.1757 12.9887C19.9737 12.5477 19.7447 12.0487 19.5937 11.8847C19.3847 11.6967 18.7907 11.7277 18.6897 11.9327C18.6757 11.9187 18.3487 11.5797 18.1927 11.4707C18.1057 11.5007 18.0527 11.5807 18.0527 11.6087C18.0927 11.6517 18.1357 11.6897 18.1807 11.7287C18.2897 11.8237 18.4027 11.9217 18.4707 12.0987H18.4697ZM18.1867 11.5057C18.3137 11.6037 18.6127 11.9107 18.6747 11.9457C18.6747 11.9457 18.6887 11.9577 18.6907 11.9577C18.8337 11.7687 19.3767 11.7427 19.5657 11.9127C19.7117 12.0707 19.9387 12.5667 20.1397 13.0047C20.2337 13.2097 20.3227 13.4047 20.3967 13.5507C20.2547 13.4817 20.0197 13.4617 19.7547 13.4387C19.2537 13.3957 18.6297 13.3417 18.3837 12.9277C18.2907 12.6467 18.3707 12.2977 18.5047 12.1037C18.4367 11.8977 18.3197 11.7957 18.2057 11.6977C18.1627 11.6607 18.1197 11.6237 18.0837 11.6057C18.0837 11.6057 18.1317 11.5337 18.1867 11.5057Z" fill="#9C0041"/>
<path d="M20.3025 27.2842C20.1525 27.3652 19.9315 27.4672 19.6965 27.5752C19.2575 27.7772 18.7615 28.0072 18.5975 28.1592C18.4965 28.2732 18.4465 28.4772 18.4675 28.6922C18.4855 28.8762 18.5505 29.0242 18.6455 29.0672C18.6315 29.0812 18.2935 29.4102 18.1855 29.5662C18.2155 29.6532 18.2955 29.7072 18.2995 29.7092L18.3125 29.7182L18.3235 29.7082C18.3665 29.6682 18.4045 29.6242 18.4435 29.5792C18.5375 29.4692 18.6355 29.3562 18.8105 29.2882C18.9455 29.3892 19.1665 29.4552 19.3745 29.4552C19.4735 29.4552 19.5665 29.4412 19.6535 29.4112C20.0875 29.1512 20.1425 28.5142 20.1865 28.0022C20.2085 27.7422 20.2335 27.5272 20.2815 27.3722C20.2875 27.3532 20.2905 27.3272 20.2965 27.3102C20.2995 27.3032 20.2995 27.2912 20.3025 27.2842ZM20.2875 27.3142C20.1975 27.4492 20.1725 27.7002 20.1465 27.9982C20.1035 28.5012 20.0495 29.1272 19.6375 29.3742C19.3925 29.4562 19.0335 29.3992 18.8175 29.2522C18.6135 29.3212 18.5125 29.4382 18.4145 29.5522C18.3805 29.5922 18.3465 29.6302 18.3095 29.6662C18.2875 29.6502 18.2425 29.6132 18.2215 29.5722C18.3195 29.4452 18.6245 29.1442 18.6605 29.0822C18.6625 29.0792 18.6725 29.0682 18.6725 29.0662C18.5855 29.0002 18.5245 28.8592 18.5075 28.6882C18.4885 28.4872 18.5355 28.2892 18.6265 28.1872C18.7835 28.0412 19.2775 27.8132 19.7135 27.6122C19.8815 27.5342 20.0285 27.4592 20.1525 27.3832C20.2025 27.3522 20.2605 27.3222 20.2965 27.2892C20.2925 27.2952 20.2915 27.3082 20.2875 27.3142Z" fill="#9C0041"/>
<path d="M34.9757 13.4786C35.4857 13.4346 36.1197 13.3796 36.3797 12.9406C36.4767 12.6476 36.3927 12.2816 36.2587 12.1166C36.3237 11.9206 36.4367 11.8236 36.5457 11.7286C36.5897 11.6906 36.6337 11.6526 36.6757 11.5846C36.6737 11.5806 36.6207 11.5006 36.5157 11.4736C36.3857 11.5736 36.0947 11.8736 36.0757 11.9216C36.0757 11.9236 36.0667 11.9336 36.0667 11.9346C36.0667 11.9346 36.0647 11.9346 36.0647 11.9336C35.9057 11.7266 35.3417 11.6966 35.1317 11.8866C34.9817 12.0496 34.7527 12.5486 34.5507 12.9896C34.4427 13.2256 34.3417 13.4476 34.2617 13.5976L34.2917 13.6226C34.4107 13.5296 34.6727 13.5066 34.9767 13.4806L34.9757 13.4786ZM36.5207 11.5086C36.5827 11.5296 36.6257 11.5846 36.6397 11.5866C36.6027 11.6266 36.5617 11.6616 36.5197 11.6986C36.4067 11.7966 36.2887 11.8986 36.2237 12.1226C36.3547 12.2986 36.4347 12.6486 36.3437 12.9246C36.0957 13.3416 35.4727 13.3956 34.9717 13.4386C34.7057 13.4616 34.4707 13.4816 34.3287 13.5506C34.4027 13.4046 34.4917 13.2096 34.5857 13.0046C34.7867 12.5666 35.0137 12.0696 35.1587 11.9136C35.2457 11.8356 35.3997 11.7886 35.5707 11.7886C35.7747 11.7886 35.9567 11.8556 36.0647 11.9596C36.0677 11.9556 36.4047 11.6096 36.5207 11.5086Z" fill="#9C0041"/>
<path d="M34.5 8.5H6.5C4.291 8.5 2.5 10.291 2.5 12.5V28.5C2.5 30.709 4.291 32.5 6.5 32.5H34.5C36.709 32.5 38.5 30.709 38.5 28.5V12.5C38.5 10.291 36.709 8.5 34.5 8.5ZM16.02 30.187H10.065V30.19H4.171V10.813H16.02V30.187ZM37.002 30.19H17.69V10.813H37.002V30.189V30.19Z" fill="#FBCB00"/>
<path d="M27.9583 19.6186C28.0683 19.5766 28.1773 19.5436 28.2873 19.5176L27.9363 19.5606L27.9043 19.6076L27.9583 19.6186Z" fill="#FBCB00"/>
<path d="M26.4094 18.5137L26.4004 18.7237L26.4194 18.5217L26.4094 18.5137Z" fill="#FBCB00"/>
<path d="M26.3782 19.1224L26.3882 18.8594L26.3652 19.1054L26.3782 19.1224Z" fill="#FBCB00"/>
<path d="M26.7344 18.1113C26.7494 18.1383 26.7664 18.1853 26.7834 18.2353C26.7764 18.2043 26.7704 18.1793 26.7654 18.1573C26.7544 18.1403 26.7464 18.1283 26.7344 18.1113Z" fill="#FBCB00"/>
<path d="M25.8047 19.3965L25.8107 19.5765L25.8207 19.4305C25.8167 19.4215 25.8067 19.4015 25.8047 19.3965Z" fill="#FBCB00"/>
<path d="M24.3836 23.0135C24.6056 23.2035 24.8546 23.3525 25.1046 23.5415L25.0126 21.8705C25.1316 22.4375 25.1306 22.5255 25.1306 22.9895C25.2226 23.5465 25.6606 24.5615 25.2896 25.0265C25.1046 25.3055 24.8276 25.1195 24.5496 25.2125C24.1786 25.2125 24.1786 25.5835 24.0856 25.8615C24.4046 25.9135 24.5216 25.7165 24.7716 25.4845C24.8066 25.5585 24.5976 25.7465 24.5816 25.8655C25.0176 25.8985 25.1446 25.5795 25.3436 25.4585C25.3326 25.5455 25.1046 25.8615 25.1046 25.8615H26.5856C26.9556 25.6765 26.5856 25.3055 26.5856 25.0265C26.6776 24.7485 27.2196 24.8655 27.3256 24.2835C26.8376 24.3235 26.4516 24.5135 26.3316 24.5865C26.3556 24.5585 26.5546 24.1285 26.5906 23.8775C26.6276 23.6255 27.5986 22.9105 27.8726 21.5575C27.6976 22.9285 26.6986 23.7095 26.6986 23.7715C26.6986 23.8645 26.6786 23.9115 26.6786 23.9115C27.6966 23.7255 28.5306 23.3545 29.4556 22.7975C29.5656 22.7425 29.7106 22.6575 29.8696 22.5685C30.0786 22.4235 30.3386 22.2975 30.6046 22.2305C30.7166 22.1965 30.8226 22.1805 30.9216 22.1805C30.9386 22.1805 30.9576 22.1725 30.9746 22.1725C31.2736 22.1725 31.4886 22.2905 31.6136 22.5075C31.7886 22.6625 31.9526 22.8415 32.1406 22.9835C32.6036 23.4475 32.7656 23.3995 32.7076 24.2195C32.7076 24.4055 32.7736 24.9475 32.6626 25.1065C32.5256 25.2555 32.2336 25.0245 32.1406 25.0245C31.5846 24.8395 31.3076 25.3955 31.3076 25.8595C31.6026 25.8675 31.6326 25.7445 31.9136 25.4635C31.7066 25.6855 31.6776 25.8595 31.6776 25.8595C32.0556 25.9195 32.2326 25.7565 32.4176 25.4785C32.4326 25.4855 32.2326 25.8595 32.2326 25.8595C32.2476 25.8895 32.9466 25.9375 32.9466 25.9375L32.9726 25.6745C32.9726 25.6745 33.4996 25.9595 33.8986 25.7675C34.1346 25.5005 33.6026 24.9665 33.9976 24.6105C33.7596 24.5055 33.7136 24.2815 33.7136 24.2815C34.0846 24.2815 34.3856 24.2205 34.5696 23.8495C33.6576 23.9455 33.5286 23.3535 33.7136 22.6115C33.9916 21.7765 35.1026 20.1055 33.8056 19.6415C33.9916 19.4555 34.0836 19.2705 34.1766 18.9915C34.6396 17.5985 32.6026 17.4145 31.6766 17.5065C31.3996 17.5985 31.1216 17.6925 30.8436 17.6925C30.4556 17.6515 30.1426 17.2355 29.9956 17.1245C29.9656 17.2125 29.9176 17.5985 29.9176 17.5985C29.6476 17.3795 29.5736 17.0945 29.8256 16.8565C29.3616 16.6715 29.2706 16.8565 28.9926 17.1355C29.0846 16.8565 29.2706 16.2995 29.5476 16.3935C29.7326 16.3935 30.1036 16.6725 30.1966 16.7645V16.1155L30.6586 16.7645L30.7506 16.2075C30.9836 16.4895 30.9246 16.5815 30.7506 16.8565C31.2146 16.8565 31.2146 16.7645 31.3066 16.3925C31.6766 16.8565 31.7686 16.9495 32.3246 17.0425L32.1396 16.6715C32.5096 16.8565 33.6206 17.5985 33.8986 16.9495C33.9916 16.6715 33.7136 16.4845 33.5276 16.5785C33.3436 16.6715 33.3436 16.8565 33.3436 17.0435C32.5096 16.4855 30.9366 15.6505 29.9186 15.7435C28.9936 15.9285 28.2526 16.3925 28.5306 17.4145C28.2536 17.5995 28.2016 18.0365 28.4346 18.3795C28.5596 18.0015 28.7006 17.7875 28.9516 17.7205C29.3716 17.9475 29.1796 18.0645 30.3816 18.2495C30.7526 18.2495 31.3086 18.2495 31.6776 18.1565C31.9556 18.0645 32.4186 17.8785 32.6956 17.8785C33.1586 17.9715 33.4366 18.3435 33.4366 18.7145V19.1785C32.6956 19.1785 32.6956 18.8995 32.1406 18.8995C31.3076 18.8995 30.5666 19.1785 29.8266 19.2715C29.3136 19.4185 28.8006 19.3975 28.2876 19.5185C28.1776 19.5445 28.0686 19.5775 27.9586 19.6195L27.9926 19.6265C27.9926 19.6265 27.9956 19.6385 27.9986 19.6575C28.0266 19.7105 28.0336 19.8495 27.9236 19.9865C27.7816 19.9805 27.5836 19.7265 27.4406 19.5155L27.3926 19.5055C27.4556 19.6815 27.5156 19.9005 27.4976 20.0775C27.4896 20.0755 27.4846 20.0695 27.4776 20.0675C27.4776 20.0705 27.4776 20.0735 27.4776 20.0755C27.4466 20.0645 27.4276 20.0415 27.3986 20.0275C27.3106 19.9875 27.2306 19.9415 27.1646 19.8845C27.1636 19.8835 27.1616 19.8815 27.1606 19.8805C26.9656 19.7095 26.8556 19.4955 26.8136 19.3905H26.8116C26.8346 19.5185 26.8756 19.8235 27.1526 20.0695C27.1476 20.0775 27.1416 20.0745 27.1356 20.0795C27.1376 20.0805 27.1376 20.0825 27.1396 20.0845C27.1356 20.0865 27.1306 20.0845 27.1266 20.0855C27.1086 20.1015 27.0906 20.1195 27.0706 20.1195C27.0596 20.1195 27.0476 20.1175 27.0366 20.1145C26.7706 20.0435 26.3866 19.3435 26.3706 19.3135C26.3656 19.3035 26.3686 19.2915 26.3786 19.2865C26.3876 19.2815 26.4006 19.2855 26.4056 19.2945C26.4056 19.2945 26.4116 19.3045 26.4136 19.3095L26.7896 19.3845C26.7896 19.3485 26.7896 19.3195 26.7896 19.3185C26.7926 19.3185 26.8036 19.3415 26.8096 19.3495C26.8096 19.3415 26.8096 19.3205 26.8096 19.3205C26.8096 19.3205 26.8226 19.3565 26.8356 19.3925L27.3626 19.4985C27.3126 19.3525 27.2636 19.2375 27.2626 19.2345C27.2626 19.2345 27.2636 19.2355 27.2636 19.2365C27.2726 19.2385 27.2876 19.2575 27.3056 19.2895C27.3056 19.2895 27.3056 19.2905 27.3066 19.2915C27.2936 19.2595 27.2806 19.2265 27.2806 19.2265C27.2806 19.2265 27.3216 19.2985 27.3816 19.3935C27.4126 19.4355 27.4426 19.4745 27.4766 19.5215L27.9016 19.6065L27.9336 19.5595L28.0646 19.3625L27.7866 18.5265H27.9716C27.9846 18.2945 27.9556 17.9005 27.9346 17.7565C27.9996 17.7745 28.0216 17.7805 28.1126 17.8075C28.1676 17.6655 28.1396 17.2735 27.8786 16.9495C28.2496 16.7635 28.2496 16.6715 28.3406 16.2995C27.9246 16.4855 27.7376 16.5485 27.4616 16.4865C27.4396 16.2525 27.2806 16.1665 26.9566 15.8885C26.9876 16.3505 26.8586 16.4845 26.7306 16.4615C26.5736 16.2315 26.4046 16.0135 26.0606 16.0195C26.1996 16.3835 25.9826 16.6655 25.7496 16.6515C25.5156 16.1365 25.1896 16.2155 24.8656 16.4595C25.2566 16.5035 25.3786 16.7645 25.3786 16.7645C24.9576 16.8005 23.8976 17.1355 23.8976 17.1355C23.8976 17.1355 24.2476 16.8085 23.8346 16.7565C23.1416 16.7165 23.5016 17.4025 23.9906 17.6925L24.2676 17.5065C24.4526 17.8775 24.5456 17.9715 24.9156 18.0635V17.6925C25.1216 17.9505 25.3226 18.0995 25.4806 18.2885C25.6526 18.4405 25.7116 18.6185 25.7456 18.8615C25.7456 18.8655 25.7426 18.8685 25.7406 18.8715C25.7426 18.8825 25.7466 18.8875 25.7486 18.8985C25.3226 18.7285 25.1986 18.7195 24.8236 18.7905C24.8126 18.7935 24.7916 18.7975 24.7826 18.8005C24.7806 18.8005 24.7756 18.8005 24.7706 18.8005C24.7556 18.8035 24.7466 18.8045 24.7306 18.8075C24.7306 18.8075 24.7306 18.7975 24.7306 18.7905C24.7286 18.7905 24.7246 18.7895 24.7246 18.7875L24.7286 18.7415C24.7286 18.7005 24.7286 18.6475 24.7346 18.5865C24.7336 18.5585 24.7336 18.5275 24.7236 18.5165C24.6106 18.5445 24.5116 18.5635 24.4206 18.5755C24.3876 18.5795 24.3566 18.5815 24.3226 18.5835C24.2776 18.5875 24.2306 18.5935 24.1896 18.5935C24.1276 18.5935 24.0756 18.5815 24.0196 18.5725C24.0056 18.5705 23.9936 18.5695 23.9796 18.5675C23.9476 18.5615 23.9126 18.5575 23.8826 18.5485C23.7006 18.5145 23.5476 18.4705 23.5046 18.4495C23.5266 18.4975 23.6466 18.7965 23.6686 19.0275C23.6916 19.2605 23.5606 19.2915 23.3906 19.4845C23.6786 19.6775 24.1736 19.0835 24.1736 19.0835C24.1736 19.0835 24.1376 19.4875 24.0566 19.7475C24.3586 19.6365 24.3596 19.0835 24.3596 19.0835H24.5446C24.5446 19.0835 24.3566 19.5185 24.7396 19.7025C24.6736 19.1035 25.0076 19.0835 25.0076 19.0835L24.9076 19.5475C25.0946 19.5635 25.1916 19.3755 25.2896 19.2035C25.6176 19.2895 25.3936 19.4955 25.4856 19.7745C25.0216 19.9595 24.8226 20.1045 24.4516 20.3825C23.7286 20.8665 23.4956 21.6295 23.8696 22.3695C23.9096 22.4385 23.9456 22.5105 23.9946 22.5695C24.0886 22.6635 24.2466 22.8315 24.3786 23.0115L24.3836 23.0135ZM26.2806 19.9855C26.2806 19.9855 26.2746 19.9855 26.2716 19.9855C26.2676 19.9855 26.2636 19.9795 26.2596 19.9785C26.2606 19.9825 26.2606 19.9855 26.2616 19.9895C26.2386 19.9885 26.2126 19.9575 26.1876 19.9405C26.0826 19.8795 25.9856 19.7455 25.9126 19.6115L25.8156 19.7495V19.7785C25.8156 19.7895 25.8046 19.7945 25.7956 19.7975C25.7846 19.7975 25.7766 19.7875 25.7766 19.7765L25.8026 19.3865C25.8076 19.3935 25.8156 19.4075 25.8206 19.4155L25.8226 19.3875C25.8226 19.3875 25.8486 19.4435 25.8836 19.5155C25.8986 19.5395 25.9136 19.5625 25.9296 19.5885L26.1716 19.2425C26.1726 19.2285 26.1746 19.2075 26.1746 19.2065C26.1776 19.2065 26.1786 19.2235 26.1806 19.2295L26.1946 19.2095C26.1946 19.2095 26.1916 19.2325 26.1896 19.2635C26.1996 19.3745 26.1906 19.6525 26.2816 19.9845L26.2806 19.9855ZM27.9166 18.9645C27.9166 18.9645 27.9186 18.9755 27.9196 18.9895C27.9356 19.0105 27.9426 19.0475 27.9176 19.0825C27.8976 19.1105 27.8666 19.1255 27.8246 19.1285H27.8226C27.7796 19.1285 27.7196 19.0425 27.6556 18.9225L26.4006 18.7235V18.7325L26.3826 19.1355L26.3646 19.1145L26.3626 19.1335L26.2106 18.9385L25.9756 18.6705C25.9686 18.6615 25.9706 18.6495 25.9786 18.6425C25.9876 18.6355 25.9996 18.6365 26.0066 18.6455L26.0196 18.6625L26.3926 18.7215L26.4016 18.4945C26.4076 18.4985 26.4146 18.5025 26.4206 18.5065V18.4965C26.4206 18.4965 26.4466 18.5165 26.4846 18.5455C26.6606 18.6525 26.8176 18.7525 26.8496 18.7565C26.8676 18.7235 26.8056 18.3965 26.7316 18.1025C26.7406 18.1135 26.7516 18.1285 26.7616 18.1405C26.7556 18.1155 26.7516 18.0985 26.7516 18.0985C26.7516 18.0985 26.8036 18.1785 26.8736 18.2815C27.0566 18.5195 27.2456 18.7905 27.2796 18.8085C27.2796 18.7795 27.2986 18.4145 27.3066 18.0895C27.3126 18.1035 27.3196 18.1175 27.3256 18.1315C27.3256 18.1075 27.3266 18.0905 27.3266 18.0905C27.3266 18.0905 27.3706 18.2115 27.4326 18.3675C27.5366 18.5955 27.6336 18.7965 27.7086 18.9305L27.9176 18.9635L27.9166 18.9645ZM25.4166 17.6265L25.3656 17.6385C25.2906 17.6385 25.2246 17.5615 25.1886 17.4325C25.1516 17.3015 25.1536 17.1375 25.2296 17.0905C25.3536 17.0855 25.4776 17.2525 25.5096 17.4025C25.5326 17.5095 25.4996 17.5895 25.4166 17.6275V17.6265ZM25.3466 16.9635C25.3376 16.9565 25.3356 16.9445 25.3416 16.9355C25.3486 16.9265 25.3606 16.9245 25.3696 16.9305C25.3756 16.9345 25.3836 16.9425 25.3906 16.9475L27.5436 16.9795C27.5746 16.9705 27.6086 16.9755 27.6386 16.9625C27.6256 16.9705 27.6106 16.9725 27.5966 16.9805H27.6466C27.5986 17.0025 27.5466 17.0125 27.4956 17.0235C27.2886 17.0905 27.0546 17.0645 26.8416 17.0365L26.7776 17.0285C26.7816 17.0385 26.7856 17.0475 26.7886 17.0565C26.8416 17.1395 26.8856 17.1795 27.0356 17.2895L27.1016 17.3385C27.0946 17.3425 27.0816 17.3405 27.0746 17.3435C27.0806 17.3475 27.0836 17.3505 27.0896 17.3545C27.0586 17.3685 27.0046 17.3645 26.9556 17.3645C26.6986 17.3845 26.2846 17.2345 26.1226 17.0585C26.1366 17.1065 26.1406 17.2775 26.4096 17.4995C26.4006 17.5005 26.3926 17.4995 26.3836 17.5015C26.3896 17.5065 26.3906 17.5105 26.3966 17.5155C26.3756 17.5165 26.3586 17.5065 26.3376 17.5055C26.3276 17.5055 26.3176 17.5075 26.3076 17.5075C25.9876 17.5075 25.7206 17.2785 25.5206 17.1065C25.4556 17.0505 25.3976 17.0005 25.3466 16.9645V16.9635ZM25.6996 17.8435C25.6916 17.8355 25.6906 17.8235 25.6986 17.8145C25.7056 17.8065 25.7186 17.8055 25.7266 17.8135C25.7316 17.8185 25.7366 17.8225 25.7426 17.8275L26.1396 17.8155C26.1236 17.7835 26.1086 17.7505 26.0916 17.7185C26.1006 17.7225 26.1146 17.7335 26.1246 17.7395C26.1206 17.7325 26.1096 17.7095 26.1096 17.7095C26.1096 17.7095 26.1426 17.7405 26.1866 17.7795C26.2026 17.7905 26.2176 17.8005 26.2336 17.8125L26.6076 17.8015C26.6036 17.7465 26.5966 17.6905 26.5876 17.6465C26.5956 17.6515 26.6026 17.6565 26.6106 17.6615C26.6106 17.6575 26.6076 17.6425 26.6076 17.6425C26.6076 17.6425 26.6546 17.6815 26.7116 17.7275C26.7476 17.7515 26.7796 17.7725 26.8126 17.7945L27.0816 17.7865C27.0816 17.7415 27.0826 17.6965 27.0766 17.6445C27.0846 17.6495 27.0906 17.6555 27.0986 17.6605C27.0986 17.6555 27.0966 17.6415 27.0966 17.6415C27.0966 17.6415 27.1306 17.6755 27.1716 17.7155C27.2006 17.7375 27.2326 17.7595 27.2566 17.7795L27.3556 17.7765C27.3376 17.6305 27.3136 17.3565 27.2956 17.1675C27.3026 17.1735 27.3106 17.1805 27.3176 17.1875C27.3176 17.1775 27.3156 17.1665 27.3156 17.1665C27.3156 17.1665 27.3686 17.2225 27.4416 17.2985C27.6566 17.4955 27.8896 17.7285 27.9256 17.7405C27.9236 17.7475 27.9206 17.7525 27.9156 17.7555C27.9176 17.7555 27.9226 17.7605 27.9246 17.7605L27.3796 17.7775C27.3916 17.8955 27.3866 17.9055 27.3826 17.9095C27.3626 17.9145 27.3436 17.9095 27.2106 17.7825L27.1146 17.7855C27.1236 17.8715 27.1146 17.9635 27.0676 17.9755C27.0246 17.9905 26.8856 17.8915 26.7646 17.7965L26.6416 17.8005C26.6576 17.8965 26.6596 18.0105 26.6186 18.0525C26.6136 18.0575 26.5676 18.0685 26.5616 18.0695C26.4726 18.0515 26.3036 17.9105 26.1946 17.8145H26.1616C26.1756 17.8455 26.1936 17.8835 26.2106 17.9205C26.3496 18.1675 26.3956 18.3155 26.3556 18.3385C26.3526 18.3405 26.3476 18.3415 26.3436 18.3415C26.2606 18.3415 25.9516 18.0745 25.6996 17.8435Z" fill="#FBCB00"/>
<path d="M26.125 17.0372C26.144 17.0542 26.174 17.0702 26.198 17.0872C26.176 17.0682 26.142 17.0512 26.126 17.0322V17.0382L26.125 17.0372Z" fill="#FBCB00"/>
<path d="M27.0806 17.3351L27.0566 17.3301L27.0646 17.3361L27.0806 17.3351Z" fill="#FBCB00"/>
<path d="M26.6016 17.6641C26.6066 17.6701 26.6116 17.6891 26.6166 17.7021C26.6136 17.6861 26.6136 17.6821 26.6116 17.6731C26.6086 17.6711 26.6036 17.6671 26.6016 17.6651V17.6641Z" fill="#FBCB00"/>
<path d="M26.3957 17.4941C26.3347 17.4511 26.3007 17.4121 26.2617 17.3721C26.2937 17.4101 26.3267 17.4491 26.3757 17.4911C26.3827 17.4911 26.3887 17.4941 26.3967 17.4931L26.3957 17.4941Z" fill="#FBCB00"/>
<path d="M27.3066 18.0977C27.3106 18.2407 27.3126 18.3487 27.3136 18.4427C27.3186 18.3227 27.3226 18.2097 27.3246 18.1447C27.3186 18.1297 27.3106 18.1097 27.3066 18.0977Z" fill="#FBCB00"/>
<path d="M27.3691 17.8745L27.3741 17.8785C27.3741 17.8785 27.3711 17.8605 27.3701 17.8555C27.3701 17.8645 27.3701 17.8685 27.3701 17.8745H27.3691Z" fill="#FBCB00"/>
<path d="M27.3027 17.1807C27.3207 17.3057 27.3337 17.4017 27.3457 17.4877C27.3357 17.3677 27.3257 17.2527 27.3207 17.1997C27.3147 17.1927 27.3097 17.1887 27.3027 17.1807Z" fill="#FBCB00"/>
<path d="M27.082 17.6562C27.09 17.6703 27.096 17.6922 27.101 17.7132C27.1 17.6952 27.1 17.6853 27.099 17.6733C27.092 17.6663 27.089 17.6643 27.082 17.6562Z" fill="#FBCB00"/>
<path d="M25.3833 17.6027C25.3753 17.6037 25.3703 17.5977 25.3633 17.5977L25.3643 17.6177L25.3833 17.6017V17.6027Z" fill="#FBCB00"/>
<path d="M26.7686 17.0089L26.7766 17.0069L26.7676 17.0059L26.7686 17.0089Z" fill="#FBCB00"/>
<path d="M26.0957 17.7236C26.1167 17.7576 26.1307 17.7836 26.1497 17.8146H26.1617C26.1477 17.7846 26.1437 17.7776 26.1347 17.7596C26.1187 17.7446 26.0977 17.7256 26.0957 17.7236Z" fill="#FBCB00"/>
<path d="M27.4837 20.0556C27.4837 20.0196 27.4737 19.9746 27.4688 19.9336C27.4718 19.9736 27.4777 20.0146 27.4757 20.0506C27.4787 20.0506 27.4807 20.0546 27.4837 20.0556Z" fill="#FBCB00"/>
<path d="M27.1298 20.0675C27.1118 20.0535 27.1058 20.0365 27.0898 20.0215C27.1038 20.0365 27.1108 20.0525 27.1268 20.0675H27.1298Z" fill="#FBCB00"/>
<path d="M26.2623 19.971C26.2503 19.937 26.2473 19.907 26.2383 19.874C26.2453 19.906 26.2483 19.935 26.2573 19.968C26.2593 19.968 26.2613 19.971 26.2633 19.971H26.2623Z" fill="#FBCB00"/>
<path d="M30.1144 25.2656C30.1124 25.2726 30.1104 25.2796 30.1094 25.2856H30.1124C30.1104 25.2796 30.1154 25.2706 30.1154 25.2646L30.1144 25.2656Z" fill="#FBCB00"/>
<path d="M32.1436 23.8281C32.1436 23.8281 32.1406 23.8281 32.1376 23.8281C32.1306 23.8571 32.1106 23.8821 32.0996 23.9101C32.1116 23.8821 32.1366 23.8581 32.1436 23.8281Z" fill="#FBCB00"/>
<path d="M31.3904 24.0019C31.3934 23.9929 31.3994 23.9749 31.4034 23.9649L31.4174 23.8629C31.5284 23.5429 31.7354 22.9469 31.6574 22.7129C31.5454 22.2999 31.2234 22.2139 30.9734 22.2139C30.4054 22.2139 29.7274 22.6309 29.5644 22.9019C29.4334 23.2319 29.7454 23.5669 29.9974 23.8359C30.0854 23.9299 30.1654 24.0159 30.2134 24.0879C30.3724 24.4089 30.2664 24.7899 30.1724 25.1259C30.1554 25.1889 30.1374 25.2509 30.1224 25.3099C30.1154 25.3079 30.1104 25.3069 30.1034 25.3049C30.1034 25.3049 30.0984 25.3049 30.0964 25.3029C29.8744 25.2329 29.6974 25.1889 29.5504 25.1889C29.2054 25.1889 29.0064 25.4129 28.9434 25.8739C29.2984 25.8739 29.7124 25.3909 29.7174 25.3859C29.7204 25.3969 29.6974 25.4309 29.6644 25.4729C29.7044 25.4309 29.7324 25.3999 29.7324 25.3999L29.5474 25.6319L29.3864 25.8639H29.5514L29.8254 25.8439L30.0874 25.4809L30.0604 25.5499L30.1034 25.4929L30.0124 25.6739L29.9394 25.8629H30.3084L31.1214 25.8429C31.1084 25.8429 31.5384 24.7179 31.4834 24.4799C31.4994 24.4549 32.0364 24.1779 32.1214 23.8289C32.1044 23.8269 32.0934 23.8289 32.0774 23.8269C32.0364 23.8299 31.9944 23.8329 31.9544 23.8329C31.7434 23.8329 31.6204 23.9049 31.5214 23.9629C31.4754 23.9899 31.4354 24.0129 31.3954 24.0239L31.3984 24.0009C31.3984 24.0009 31.3924 24.0039 31.3904 24.0049V24.0019Z" fill="#FBCB00"/>
<path d="M29.9648 25.6774L30.0558 25.5564L30.0868 25.4814L29.9648 25.6774Z" fill="#FBCB00"/>
<path d="M31.4431 23.9776C31.4341 23.9816 31.4251 23.9866 31.4171 23.9896L31.4121 24.0036C31.4161 23.9926 31.4341 23.9856 31.4431 23.9766V23.9776Z" fill="#FBCB00"/>
<path d="M29.918 25.8608H29.927L29.97 25.7578L29.918 25.8608Z" fill="#FBCB00"/>
<path d="M28.9209 25.8916H28.9249C28.9379 25.7576 28.9709 25.6546 29.0069 25.5576C28.9689 25.6516 28.9369 25.7586 28.9199 25.8926L28.9209 25.8916Z" fill="#FBCB00"/>
<path d="M29.1016 25.3882C29.1306 25.3482 29.1636 25.3132 29.2006 25.2842C29.1646 25.3122 29.1316 25.3482 29.1016 25.3882Z" fill="#FBCB00"/>
<path d="M29.4219 25.1849C29.4469 25.1799 29.4729 25.1749 29.4999 25.1729C29.4729 25.1749 29.4479 25.1799 29.4219 25.1849Z" fill="#FBCB00"/>
<path d="M29.3613 25.8614H29.3763L29.4983 25.6904L29.3613 25.8614Z" fill="#FBCB00"/>
<path d="M25.3995 17.5901C25.4815 17.5531 25.4825 17.4721 25.4695 17.4101C25.4385 17.2671 25.3115 17.1221 25.2585 17.1221C25.2005 17.1551 25.1895 17.2901 25.2265 17.4211C25.2505 17.5061 25.2995 17.5961 25.3645 17.5981C25.3715 17.5981 25.3775 17.6041 25.3845 17.6031L25.3995 17.5901Z" fill="#FBCB00"/>
<path d="M26.7876 17.0563C26.7836 17.0473 26.7796 17.0383 26.7766 17.0283H26.7656C26.7736 17.0393 26.7806 17.0453 26.7876 17.0563Z" fill="#FBCB00"/>
<path d="M26.3747 17.4923C26.3267 17.4503 26.2927 17.4113 26.2607 17.3733C26.0737 17.1813 26.1047 17.0323 26.1067 17.0253C26.1107 17.0293 26.1197 17.0333 26.1247 17.0373V17.0313C26.1407 17.0503 26.1747 17.0673 26.1967 17.0863C26.4387 17.2563 26.8857 17.4003 27.0637 17.3363L27.0557 17.3303L27.0097 17.3213C26.8357 17.1933 26.7947 17.1633 26.7477 17.0123L26.7677 17.0093C26.7677 17.0093 26.7677 17.0083 26.7667 17.0063C26.7697 17.0063 26.7727 17.0063 26.7767 17.0073L26.8447 16.9963C27.0717 17.0263 27.3207 17.0433 27.5417 16.9793L25.3887 16.9473C25.4367 16.9823 25.4877 17.0243 25.5457 17.0743C25.7567 17.2553 26.0427 17.4993 26.3737 17.4913L26.3747 17.4923Z" fill="#FBCB00"/>
<path d="M27.6451 16.9805H27.5951C27.5621 16.9965 27.5281 17.0115 27.4941 17.0225C27.5451 17.0115 27.5971 17.0015 27.6451 16.9805Z" fill="#FBCB00"/>
<path d="M26.3969 17.514C26.3909 17.509 26.3899 17.505 26.3839 17.5C26.3689 17.502 26.3539 17.503 26.3379 17.504C26.3579 17.504 26.3759 17.515 26.3969 17.514Z" fill="#FBCB00"/>
<path d="M27.0881 17.3538C27.0821 17.3488 27.0791 17.3468 27.0731 17.3428C27.0411 17.3568 26.9981 17.3608 26.9551 17.3638C27.0031 17.3638 27.0561 17.3678 27.0881 17.3538Z" fill="#FBCB00"/>
<path d="M26.1937 19.2109L26.1797 19.2309C26.1827 19.2389 26.1867 19.2469 26.1887 19.2649C26.1917 19.2339 26.1937 19.2109 26.1937 19.2109Z" fill="#FBCB00"/>
<path d="M25.8223 19.3877L25.8203 19.4157C25.8393 19.4447 25.8603 19.4777 25.8833 19.5167C25.8483 19.4447 25.8223 19.3877 25.8223 19.3877Z" fill="#FBCB00"/>
<path d="M25.8105 19.5767L25.8165 19.7517L25.9135 19.6137C25.8695 19.5317 25.8365 19.4677 25.8205 19.4307L25.8105 19.5767Z" fill="#FBCB00"/>
<path d="M26.2605 19.9914C26.2605 19.9914 26.2595 19.9844 26.2585 19.9804C26.2345 19.9784 26.2105 19.9564 26.1875 19.9424C26.2125 19.9594 26.2365 19.9904 26.2605 19.9914Z" fill="#FBCB00"/>
<path d="M26.2557 19.9671C26.2467 19.9341 26.2437 19.9051 26.2367 19.8731C26.1527 19.5671 26.1617 19.3191 26.1697 19.2441L25.9277 19.5901C26.0327 19.7631 26.1587 19.9561 26.2557 19.9681V19.9671Z" fill="#FBCB00"/>
<path d="M26.8105 19.3213C26.8105 19.3213 26.8105 19.3423 26.8105 19.3503C26.8175 19.3603 26.8255 19.3713 26.8375 19.3923C26.8235 19.3563 26.8115 19.3203 26.8115 19.3203L26.8105 19.3213Z" fill="#FBCB00"/>
<path d="M27.3926 19.5049L27.4406 19.5149C27.4086 19.4679 27.3756 19.4189 27.3516 19.3799C27.3656 19.4129 27.3776 19.4649 27.3926 19.5049Z" fill="#FBCB00"/>
<path d="M27.2832 19.2275C27.2832 19.2275 27.2972 19.2605 27.3092 19.2925C27.3312 19.3215 27.3592 19.3595 27.3842 19.3945C27.3242 19.2995 27.2832 19.2275 27.2832 19.2275Z" fill="#FBCB00"/>
<path d="M26.8125 19.3888H26.8145L26.8105 19.3818L26.8125 19.3888Z" fill="#FBCB00"/>
<path d="M27.4764 20.0753C27.4764 20.0753 27.4764 20.0693 27.4764 20.0673C27.4474 20.0573 27.4254 20.0393 27.3984 20.0273C27.4274 20.0413 27.4464 20.0643 27.4774 20.0753H27.4764Z" fill="#FBCB00"/>
<path d="M27.1642 19.8829L27.1602 19.8789C27.1602 19.8789 27.1622 19.8809 27.1642 19.8829Z" fill="#FBCB00"/>
<path d="M27.139 20.0841C27.139 20.0841 27.137 20.0811 27.135 20.0791C27.132 20.0821 27.129 20.0821 27.125 20.0851C27.129 20.0831 27.135 20.0861 27.139 20.0841Z" fill="#FBCB00"/>
<path d="M27.4785 19.5234C27.6295 19.7274 27.8025 19.9464 27.9085 19.9544C28.0175 19.8024 27.9725 19.6334 27.9725 19.6314C27.9725 19.6314 27.9725 19.6314 27.9735 19.6314C27.9815 19.6314 27.9905 19.6434 27.9975 19.6574C27.9945 19.6374 27.9915 19.6264 27.9915 19.6264L27.9575 19.6194L27.9035 19.6084L27.4785 19.5234Z" fill="#FBCB00"/>
<path d="M27.0471 20.0756C27.0781 20.0836 27.1031 20.0796 27.1261 20.0666C27.1101 20.0516 27.1031 20.0356 27.0891 20.0206C26.8381 19.7886 26.7931 19.5066 26.7901 19.3846L26.4141 19.3096C26.4571 19.3866 26.8111 20.0126 27.0471 20.0756Z" fill="#FBCB00"/>
<path d="M27.4769 20.0506C27.4789 20.0146 27.4729 19.9736 27.4699 19.9336C27.4519 19.7896 27.4119 19.6346 27.3649 19.4986L26.8379 19.3936C26.9179 19.5446 27.0989 19.9106 27.4769 20.0506Z" fill="#FBCB00"/>
<path d="M26.751 18.0996C26.751 18.0996 26.755 18.1176 26.761 18.1416C26.797 18.1856 26.834 18.2326 26.872 18.2826C26.803 18.1786 26.751 18.0996 26.751 18.0996Z" fill="#FBCB00"/>
<path d="M26.3629 19.1344L26.3649 19.1154L26.2109 18.9404L26.3629 19.1344Z" fill="#FBCB00"/>
<path d="M27.3252 18.0918C27.3252 18.0918 27.3252 18.1088 27.3242 18.1328C27.3592 18.2118 27.3952 18.2898 27.4312 18.3688C27.3702 18.2138 27.3252 18.0918 27.3252 18.0918Z" fill="#FBCB00"/>
<path d="M27.821 19.0886C27.85 19.0866 27.871 19.0766 27.884 19.0596C27.909 19.0256 27.896 18.9696 27.896 18.9696C27.907 18.9666 27.912 18.9806 27.919 18.9906C27.918 18.9756 27.916 18.9656 27.916 18.9656L27.707 18.9326C27.758 19.0236 27.802 19.0916 27.822 19.0896L27.821 19.0886Z" fill="#FBCB00"/>
<path d="M26.3875 18.8591L26.3925 18.7231L26.0195 18.6641L26.3645 19.1051L26.3875 18.8591Z" fill="#FBCB00"/>
<path d="M27.3134 18.4425C27.3164 18.8235 27.2934 18.8415 27.2834 18.8465C27.2664 18.8565 27.2334 18.8675 26.7654 18.1565C26.7704 18.1785 26.7764 18.2035 26.7834 18.2345C26.8484 18.4255 26.9134 18.7305 26.8774 18.7835C26.7864 18.8045 26.5144 18.5965 26.4194 18.5215L26.4004 18.7235L27.6554 18.9225C27.5304 18.6915 27.3914 18.3295 27.3244 18.1445C27.3224 18.2085 27.3194 18.3215 27.3134 18.4425Z" fill="#FBCB00"/>
<path d="M26.4219 18.499V18.509C26.4429 18.522 26.4639 18.535 26.4849 18.548C26.4479 18.519 26.4219 18.499 26.4219 18.499Z" fill="#FBCB00"/>
<path d="M27.0977 17.6416C27.0977 17.6416 27.0987 17.6546 27.0997 17.6606C27.1267 17.6796 27.1477 17.6976 27.1727 17.7166C27.1317 17.6766 27.0977 17.6416 27.0977 17.6416Z" fill="#FBCB00"/>
<path d="M27.1016 17.7129C27.1076 17.7359 27.1116 17.7589 27.1146 17.7849L27.2106 17.7819C27.1796 17.7529 27.1446 17.7179 27.0996 17.6729C27.1006 17.6849 27.1006 17.6949 27.1016 17.7129Z" fill="#FBCB00"/>
<path d="M26.6064 17.8008L26.2324 17.8118C26.3554 17.9008 26.4994 18.0148 26.5684 18.0288C26.6094 17.9968 26.6144 17.8988 26.6064 17.8008Z" fill="#FBCB00"/>
<path d="M27.0815 17.7862L26.8125 17.7942C26.9305 17.8742 27.0275 17.9382 27.0585 17.9352C27.0755 17.9312 27.0815 17.8672 27.0815 17.7862Z" fill="#FBCB00"/>
<path d="M27.3698 17.8543C27.3658 17.8393 27.3618 17.8183 27.3568 17.7773L27.2578 17.7803C27.3158 17.8283 27.3578 17.8653 27.3698 17.8733C27.3698 17.8673 27.3698 17.8633 27.3698 17.8543Z" fill="#FBCB00"/>
<path d="M27.3194 17.1992C27.3244 17.2522 27.3344 17.3672 27.3444 17.4872C27.3624 17.6232 27.3734 17.7162 27.3794 17.7772L27.9244 17.7602C27.9244 17.7602 27.9174 17.7562 27.9154 17.7552C27.8884 17.7692 27.7844 17.6912 27.3194 17.1992Z" fill="#FBCB00"/>
<path d="M26.6173 17.7019C26.6273 17.7279 26.6353 17.7599 26.6413 17.7999L26.7643 17.7959C26.7033 17.7479 26.6473 17.7029 26.6113 17.6719C26.6133 17.6819 26.6133 17.6849 26.6163 17.7009L26.6173 17.7019Z" fill="#FBCB00"/>
<path d="M26.1094 17.709C26.1094 17.709 26.1204 17.732 26.1244 17.739C26.1434 17.751 26.1634 17.763 26.1864 17.779C26.1424 17.74 26.1094 17.709 26.1094 17.709Z" fill="#FBCB00"/>
<path d="M27.3164 17.167C27.3164 17.167 27.3174 17.178 27.3184 17.188C27.3574 17.222 27.3994 17.26 27.4424 17.299C27.3704 17.224 27.3164 17.167 27.3164 17.167Z" fill="#FBCB00"/>
<path d="M26.6074 17.6416C26.6074 17.6416 26.6094 17.6566 26.6104 17.6606C26.6444 17.6826 26.6784 17.7046 26.7114 17.7266C26.6534 17.6796 26.6074 17.6416 26.6074 17.6416Z" fill="#FBCB00"/>
<path d="M26.1618 17.8147H26.1948C26.1688 17.7907 26.1508 17.7757 26.1348 17.7607C26.1438 17.7787 26.1468 17.7857 26.1618 17.8147Z" fill="#FBCB00"/>
<path d="M26.2114 17.9195C26.1944 17.8825 26.1764 17.8445 26.1624 17.8145H26.1504C26.1724 17.8505 26.1924 17.8875 26.2114 17.9195Z" fill="#FBCB00"/>
<path d="M26.3392 18.3014C26.3482 18.2704 26.2502 18.0414 26.1392 17.8154L25.7422 17.8274C26.0012 18.0634 26.2902 18.3014 26.3382 18.3014H26.3392Z" fill="#FBCB00"/>
<path d="M24.6868 18.482L24.7578 18.49C24.7928 18.529 24.7848 18.632 24.7738 18.743L24.7698 18.784C24.7808 18.781 24.8048 18.775 24.8278 18.769C24.9198 18.729 25.0558 18.694 25.2218 18.694C25.4108 18.694 25.5728 18.737 25.7048 18.821C25.6588 18.537 25.5678 18.348 25.2648 18.184C25.2458 18.181 25.2208 18.178 25.1968 18.178C25.0858 18.178 25.0078 18.231 25.0078 18.231C24.6528 18.234 23.6408 18.219 23.4258 18.042C23.4298 18.055 23.4358 18.072 23.4438 18.094C23.6528 18.513 24.0498 18.649 24.6878 18.481L24.6868 18.482Z" fill="#FBCB00"/>
<path d="M23.1484 23.1039C23.1484 23.0979 23.1494 23.0949 23.1504 23.0899L23.1494 23.0889C23.1494 23.0919 23.1484 23.1009 23.1494 23.1049L23.1484 23.1039Z" fill="#FBCB00"/>
<path d="M23.2814 23.2431C23.5634 23.5841 23.8054 23.7911 24.0364 23.8491C24.3054 23.9401 24.5664 23.7531 24.5664 23.4971C24.5664 23.2261 24.1484 22.7791 23.9694 22.5991C23.8114 22.4091 23.7124 22.1661 23.6164 21.9311C23.4304 21.4731 23.2554 21.0471 22.6884 21.1411C22.6834 21.1601 22.6674 21.1601 22.6604 21.1751C22.6534 21.1891 22.6444 21.1931 22.6334 21.2071C22.6124 21.2361 22.5984 21.2781 22.5684 21.2861C22.5724 21.2941 22.5754 21.3011 22.5794 21.3091C22.6244 21.3611 22.6584 21.4361 22.6314 21.4961C22.6144 21.5341 22.5734 21.5591 22.5154 21.5761C22.5284 21.5901 22.5384 21.6031 22.5494 21.6161C22.6044 21.6591 22.6344 21.7081 22.6254 21.7521C22.6224 21.7691 22.5914 21.7781 22.5804 21.7921C22.5774 21.7951 22.5734 21.7981 22.5704 21.8011C22.5494 21.8231 22.5404 21.8481 22.4984 21.8651C22.5024 21.8701 22.5054 21.8741 22.5094 21.8781C22.5264 21.8821 22.5444 21.8901 22.5564 21.9041C22.6014 21.9561 22.6364 21.9961 22.6264 22.0441C22.6184 22.0871 22.5744 22.1251 22.4844 22.1701C22.4964 22.1821 22.5034 22.1961 22.5134 22.2081C22.7104 22.3941 22.7754 22.6661 22.7954 22.7601C22.7894 22.8461 22.7634 22.8781 22.7124 22.9411C22.6744 22.9881 22.6204 23.0541 22.5454 23.1631C22.6174 23.2341 22.9674 23.3881 23.0414 23.3211C23.1084 23.2841 23.1264 23.1181 23.1284 23.0571C23.1344 23.0651 23.1404 23.0711 23.1474 23.0801C23.1474 23.0711 23.1484 23.0581 23.1484 23.0581C23.1854 23.1141 23.2314 23.1781 23.2794 23.2431H23.2814Z" fill="#FBCB00"/>
<path d="M22.5059 21.5616L22.5069 21.5626L22.5099 21.5596L22.5059 21.5616Z" fill="#FBCB00"/>
<path d="M22.4756 22.1545C22.4756 22.1545 22.4756 22.1545 22.4756 22.1555C22.4796 22.1525 22.4816 22.1505 22.4846 22.1475C22.4796 22.1495 22.4806 22.1515 22.4756 22.1545Z" fill="#FBCB00"/>
<path d="M22.2741 15.2333C22.2611 15.2593 22.2481 15.2863 22.2361 15.3143C22.2201 15.3483 22.2041 15.3873 22.1891 15.4263C21.7671 16.5283 21.5601 19.0473 21.4711 20.1293C21.4441 20.4553 21.4271 20.6703 21.4141 20.7303C21.4811 20.7393 21.6631 20.7723 21.8471 20.7723C21.9881 20.7723 22.1851 20.7533 22.3251 20.6613C22.2401 19.8843 22.2511 15.4933 22.5271 14.9443C22.4361 14.9913 22.3511 15.0883 22.2741 15.2333Z" fill="#FBCB00"/>
<path d="M22.5568 14.9209C22.5508 14.9229 22.5448 14.9319 22.5388 14.9349C22.5128 14.9959 22.4878 15.0949 22.4668 15.2379C22.4938 15.0819 22.5228 14.9699 22.5568 14.9209Z" fill="#FBCB00"/>
<path d="M22.422 23.8968C22.224 23.8328 22.102 23.8068 22.096 23.6468C22.163 23.4828 22.25 23.2618 22.039 23.0298C22.288 23.0878 22.903 23.0588 22.625 22.5868C22.615 22.5578 22.366 22.5288 22.193 22.7988C22.021 22.5258 21.848 22.5508 21.559 22.8188C21.399 22.6998 21.527 22.5708 21.127 22.5488C20.81 22.6448 20.926 23.2328 21.78 23.0398C21.799 23.0398 21.444 23.2618 21.693 23.5998C21.664 23.7988 21.53 23.9308 21.328 23.9078C21.492 23.7538 21.501 23.2998 21.059 23.4938C20.541 24.2258 21.77 24.0528 21.77 24.0528C21.786 24.3708 21.533 24.2648 21.444 24.4858C21.543 24.5688 21.662 24.6338 21.742 24.5348C21.742 24.5348 21.761 24.7458 21.905 24.8328C22.078 24.7558 21.982 24.4858 21.982 24.4858C22.145 24.5508 22.25 24.5378 22.318 24.4478C22.267 24.2838 22.158 24.2448 22.001 24.2158C21.998 24.1648 21.995 24.1138 21.991 24.0618C23.912 24.2088 22.001 22.7278 22.423 23.8978L22.422 23.8968Z" fill="#FBCB00"/>
<path d="M22.8633 20.6581C22.8923 20.3081 22.2393 20.2091 22.4793 20.6681C22.2623 20.8371 21.7763 20.9081 21.4453 20.7591C21.4223 20.7491 21.4093 20.7251 21.3873 20.7121C21.3133 20.6681 21.2373 20.6261 21.1913 20.5531C21.5593 20.1921 20.7843 20.1511 20.7113 20.4851C20.6283 21.1951 22.7833 21.2781 22.8633 20.6581Z" fill="#FBCB00"/>
<path d="M34.2422 27.3672C34.2422 27.3672 34.2472 27.3782 34.2502 27.3832C34.2662 27.3892 34.2932 27.3922 34.3112 27.3982C34.2892 27.3872 34.2592 27.3802 34.2422 27.3672Z" fill="#FBCB00"/>
<path d="M34.5499 27.9646C34.7509 28.4036 34.9789 28.9006 35.1249 29.0596C35.3139 29.2276 35.8569 29.2026 35.9999 29.0126C36.0019 29.0126 36.0119 29.0226 36.0159 29.0246C36.0759 29.0596 36.3629 29.3536 36.4959 29.4596C36.5639 29.4316 36.6069 29.3656 36.6069 29.3656C36.5709 29.3486 36.5289 29.3116 36.4859 29.2746C36.3719 29.1756 36.2549 29.0746 36.1859 28.8686C36.3199 28.6746 36.4009 28.3246 36.3079 28.0446C36.0609 27.6306 35.4379 27.5766 34.9359 27.5336C34.6399 27.5086 34.3899 27.4816 34.2559 27.3926C34.2769 27.4336 34.2999 27.4786 34.3239 27.5276C34.3999 27.6516 34.4739 27.7986 34.5509 27.9666L34.5499 27.9646Z" fill="#FBCB00"/>
<path d="M18.206 11.6988C18.319 11.7968 18.437 11.8988 18.505 12.1048C18.371 12.2988 18.291 12.6488 18.384 12.9288C18.63 13.3418 19.254 13.3958 19.755 13.4398C20.02 13.4628 20.255 13.4828 20.397 13.5518C20.322 13.4058 20.233 13.2108 20.14 13.0058C19.939 12.5678 19.712 12.0708 19.566 11.9138C19.377 11.7448 18.834 11.7698 18.691 11.9588C18.689 11.9588 18.679 11.9488 18.675 11.9468C18.614 11.9108 18.314 11.6038 18.187 11.5068C18.132 11.5348 18.085 11.6068 18.084 11.6078C18.12 11.6258 18.163 11.6608 18.206 11.6988Z" fill="#FBCB00"/>
<path d="M19.7127 27.6125C19.2767 27.8135 18.7827 28.0415 18.6257 28.1875C18.5347 28.2905 18.4877 28.4875 18.5067 28.6885C18.5227 28.8585 18.5847 28.9995 18.6717 29.0665C18.6717 29.0685 18.6617 29.0785 18.6597 29.0825C18.6237 29.1445 18.3187 29.4455 18.2207 29.5725C18.2417 29.6135 18.2867 29.6505 18.3087 29.6665C18.3457 29.6305 18.3797 29.5915 18.4137 29.5525C18.5117 29.4385 18.6127 29.3215 18.8167 29.2525C19.0337 29.3995 19.3927 29.4565 19.6367 29.3745C20.0487 29.1275 20.1027 28.5015 20.1457 27.9985C20.1717 27.7015 20.1977 27.4495 20.2867 27.3145C20.2457 27.3355 20.2007 27.3585 20.1517 27.3835C20.0277 27.4595 19.8807 27.5345 19.7127 27.6125Z" fill="#FBCB00"/>
<path d="M20.2943 27.3098C20.2873 27.3258 20.2853 27.3528 20.2793 27.3718C20.2903 27.3498 20.2973 27.3198 20.3103 27.3018C20.3053 27.3038 20.2993 27.3078 20.2943 27.3098Z" fill="#FBCB00"/>
<path d="M35.1581 11.9148C35.0131 12.0718 34.7861 12.5678 34.5851 13.0058C34.4911 13.2108 34.4021 13.4048 34.3281 13.5518C34.4701 13.4828 34.7051 13.4628 34.9711 13.4398C35.4721 13.3968 36.0951 13.3428 36.3431 12.9258C36.4341 12.6488 36.3541 12.2998 36.2231 12.1238C36.2881 11.8998 36.4051 11.7978 36.5191 11.6998C36.5611 11.6638 36.6021 11.6288 36.6391 11.5878C36.6261 11.5858 36.5821 11.5308 36.5201 11.5098C36.4041 11.6108 36.0671 11.9578 36.0641 11.9618C35.9561 11.8568 35.7741 11.7908 35.5701 11.7908C35.3991 11.7908 35.2451 11.8378 35.1581 11.9158V11.9148Z" fill="#FBCB00"/>
<path d="M36.0755 11.9219L36.0645 11.9329L36.0665 11.9349L36.0755 11.9219Z" fill="#FBCB00"/>
<path d="M21.7362 21.4307C22.1282 21.4307 22.4032 21.3597 22.4132 21.2927C22.4132 21.2747 22.4092 21.2607 22.4002 21.2507C22.3712 21.2207 22.2692 21.2328 22.1402 21.2528C22.0392 21.2688 21.9202 21.2878 21.7952 21.2878C21.6482 21.2868 21.5202 21.2648 21.4092 21.2458C21.3252 21.2318 21.2512 21.2188 21.1912 21.2188C21.1332 21.2188 21.0952 21.2318 21.0742 21.2588C21.0762 21.2678 21.0812 21.2858 21.0962 21.3018C21.1642 21.3798 21.4032 21.4287 21.7202 21.4307L21.7352 21.4508V21.4317L21.7362 21.4307Z" fill="#FBCB00"/>
<path d="M22.4309 21.2233C22.3879 21.1793 22.2859 21.1903 22.1359 21.2133C22.0369 21.2293 21.9199 21.2483 21.7889 21.2483C21.6539 21.2463 21.5279 21.2253 21.4189 21.2063C21.2309 21.1743 21.1039 21.1553 21.0419 21.2443C21.0379 21.2753 21.0469 21.3033 21.0699 21.3293C21.1829 21.4593 21.5989 21.4713 21.7239 21.4713H21.7399C21.9779 21.4713 22.4349 21.4353 22.4569 21.2973C22.4569 21.2663 22.4499 21.2413 22.4329 21.2233H22.4309ZM21.7379 21.4513L21.7229 21.4313C21.4059 21.4293 21.1669 21.3803 21.0989 21.3023C21.0839 21.2853 21.0789 21.2683 21.0769 21.2593C21.0979 21.2323 21.1349 21.2193 21.1939 21.2193C21.2529 21.2193 21.3269 21.2323 21.4119 21.2463C21.5229 21.2653 21.6509 21.2873 21.7979 21.2883C21.9229 21.2883 22.0419 21.2693 22.1429 21.2533C22.2719 21.2333 22.3739 21.2213 22.4029 21.2513C22.4119 21.2613 22.4169 21.2753 22.4159 21.2933C22.4049 21.3593 22.1309 21.4313 21.7389 21.4313V21.4503L21.7379 21.4513Z" fill="#FBCB00"/>
<path d="M21.9845 21.6374C21.8975 21.6514 21.8055 21.6654 21.7195 21.6674C21.6165 21.6824 21.4985 21.6494 21.4065 21.6334C21.3325 21.6204 21.2635 21.6074 21.2085 21.6074C21.1525 21.6074 21.1195 21.6204 21.1035 21.6484C21.1095 21.7264 21.3155 21.7784 21.7195 21.7914H21.7775C22.0535 21.7914 22.3045 21.7324 22.3485 21.6554C22.3195 21.6104 22.1705 21.6084 21.9845 21.6374Z" fill="#FBCB00"/>
<path d="M21.9774 21.5974C21.8924 21.6104 21.8024 21.6244 21.6984 21.6274C21.6024 21.6274 21.5034 21.6094 21.4134 21.5934C21.3364 21.5794 21.2654 21.5664 21.2084 21.5664C21.1634 21.5664 21.0994 21.5724 21.0664 21.6384C21.0714 21.7904 21.4174 21.8214 21.7184 21.8314H21.7774C22.0254 21.8314 22.3214 21.7834 22.3844 21.6594C22.3574 21.5814 22.2724 21.5724 22.2104 21.5724C22.1444 21.5724 22.0634 21.5844 21.9784 21.5984L21.9774 21.5974ZM21.7774 21.7924H21.7194C21.3154 21.7784 21.1084 21.7264 21.1034 21.6484C21.1194 21.6204 21.1524 21.6074 21.2084 21.6074C21.2634 21.6074 21.3314 21.6194 21.4064 21.6334C21.4984 21.6504 21.6164 21.6824 21.7194 21.6674C21.8054 21.6654 21.8964 21.6514 21.9844 21.6374C22.1714 21.6084 22.3194 21.6104 22.3484 21.6564C22.3044 21.7334 22.0534 21.7924 21.7774 21.7924Z" fill="#FBCB00"/>
<path d="M21.7302 22.1418C22.0052 22.1418 22.3572 22.0358 22.3592 21.9518C22.3572 21.9458 22.2162 21.9448 22.0502 21.9708C21.9432 21.9878 21.8282 22.0058 21.7302 22.0088C21.5912 22.0038 21.5052 21.9968 21.4202 21.9858C21.3562 21.9768 21.3002 21.9698 21.2582 21.9698C21.2202 21.9698 21.2012 21.9758 21.2012 21.9888C21.2602 22.0868 21.4902 22.1408 21.7232 22.1418L21.7292 22.1618L21.7302 22.1418Z" fill="#FBCB00"/>
<path d="M21.697 21.9704C21.605 21.9704 21.509 21.9584 21.426 21.9464C21.36 21.9374 21.302 21.9304 21.259 21.9304C21.235 21.9304 21.162 21.9304 21.162 21.9844C21.157 22.0054 21.162 22.0274 21.178 22.0464C21.245 22.1324 21.509 22.1804 21.723 22.1814H21.73C21.991 22.1814 22.396 22.0824 22.399 21.9474C22.39 21.9004 22.323 21.9004 22.298 21.9004C22.235 21.9004 22.144 21.9144 22.045 21.9304C21.94 21.9474 21.826 21.9654 21.698 21.9694L21.697 21.9704ZM21.73 22.1614L21.724 22.1414C21.491 22.1404 21.261 22.0864 21.202 21.9884C21.202 21.9764 21.221 21.9694 21.259 21.9694C21.301 21.9694 21.357 21.9774 21.421 21.9854C21.506 21.9964 21.591 22.0044 21.731 22.0084C21.829 22.0054 21.944 21.9874 22.051 21.9704C22.217 21.9444 22.358 21.9444 22.36 21.9514C22.358 22.0344 22.006 22.1414 21.731 22.1414V22.1614H21.73Z" fill="#FBCB00"/>
<path d="M21.7989 22.4374C22.1019 22.4144 22.3759 22.3214 22.3969 22.2354C22.3179 22.2404 22.2419 22.2554 22.1529 22.2724C22.0409 22.2934 21.9089 22.3194 21.7879 22.3254C21.7469 22.3274 21.7039 22.3284 21.6599 22.3284L21.3529 22.3234C21.2469 22.3234 21.1859 22.3314 21.1719 22.3464C21.1819 22.3944 21.3409 22.4444 21.6239 22.4444C21.6819 22.4444 21.7409 22.4424 21.7989 22.4374Z" fill="#FBCB00"/>
<path d="M21.8009 22.4772C22.0859 22.4562 22.4059 22.3662 22.4349 22.2362C22.4269 22.1992 22.3799 22.1992 22.3639 22.1992C22.3149 22.1992 22.2359 22.2142 22.1439 22.2322C22.0339 22.2532 21.9039 22.2782 21.7849 22.2842C21.7449 22.2862 21.7019 22.2862 21.6589 22.2862L21.3519 22.2812C21.2249 22.2812 21.1659 22.2912 21.1309 22.3522C21.1589 22.4732 21.5149 22.4832 21.6239 22.4832C21.6829 22.4832 21.7429 22.4812 21.8019 22.4762L21.8009 22.4772ZM21.3519 22.3222L21.6589 22.3272C21.7029 22.3272 21.7459 22.3272 21.7869 22.3242C21.9079 22.3182 22.0399 22.2932 22.1519 22.2712C22.2409 22.2542 22.3169 22.2392 22.3959 22.2342C22.3749 22.3212 22.1009 22.4132 21.7979 22.4362C21.7409 22.4402 21.6809 22.4432 21.6229 22.4432C21.3399 22.4432 21.1809 22.3932 21.1709 22.3452C21.1849 22.3302 21.2459 22.3222 21.3519 22.3222Z" fill="#FBCB00"/>
</g>
<defs>
<clipPath id="clip0_74_3688">
<rect width="40" height="40" fill="white" transform="translate(0.5 0.5)"/>
</clipPath>
</defs>
</svg>
