<svg width="41" height="41" viewBox="0 0 41 41" fill="none" xmlns="http://www.w3.org/2000/svg">
<path d="M38.5 21.5908H2.5V23.7728H38.5V21.5908Z" fill="#BE0037"/>
<path d="M2.95508 30.3193C2.96108 30.3303 2.96808 30.3393 2.97408 30.3503C3.20308 30.7863 3.51108 31.1733 3.87508 31.4963C3.94008 31.5533 4.00608 31.6073 4.07408 31.6613C4.16708 31.7343 4.26108 31.8063 4.36008 31.8703C4.53008 31.9793 4.70708 32.0773 4.89308 32.1603C4.95308 32.1873 5.01808 32.2063 5.08008 32.2293C5.24208 32.2923 5.40908 32.3443 5.58108 32.3853C5.64808 32.4013 5.71408 32.4163 5.78208 32.4293C6.01408 32.4713 6.25008 32.5013 6.49508 32.5013H34.5041C34.7491 32.5013 34.9851 32.4713 35.2171 32.4293C35.2851 32.4173 35.3511 32.4013 35.4181 32.3853C35.5901 32.3443 35.7571 32.2923 35.9191 32.2293C35.9811 32.2053 36.0451 32.1873 36.1061 32.1603C36.2921 32.0773 36.4701 31.9803 36.6391 31.8703C36.7391 31.8063 36.8321 31.7343 36.9251 31.6613C36.9931 31.6083 37.0601 31.5543 37.1241 31.4963C37.4891 31.1723 37.7961 30.7863 38.0251 30.3503C38.0311 30.3393 38.0381 30.3303 38.0441 30.3193H2.95508Z" fill="#BE0037"/>
<path d="M38.4997 17.2266H13.2617V19.4086H38.4997V17.2266Z" fill="#BE0037"/>
<path d="M38.4997 12.8643H13.2617V15.0463H38.4997V12.8643Z" fill="#BE0037"/>
<path d="M13.2617 10.682H38.0457C38.0397 10.67 38.0307 10.659 38.0247 10.647C37.7967 10.213 37.4907 9.829 37.1277 9.506C37.0617 9.447 36.9937 9.392 36.9247 9.339C36.8327 9.267 36.7397 9.195 36.6407 9.131C36.4707 9.021 36.2927 8.924 36.1067 8.841C36.0467 8.814 35.9817 8.796 35.9197 8.772C35.7577 8.709 35.5907 8.657 35.4187 8.616C35.3527 8.6 35.2857 8.585 35.2187 8.572C34.9877 8.53 34.7527 8.5 34.5087 8.5H13.2617V10.682Z" fill="#BE0037"/>
<path d="M38.5 25.9551H2.5V28.1371H38.5V25.9551Z" fill="#BE0037"/>
<path d="M13.261 19.409V8.5H6.49005C6.28205 8.5 6.08305 8.531 5.88405 8.562C5.82105 8.572 5.75405 8.569 5.69105 8.582C3.86905 8.954 2.49805 10.564 2.49805 12.496V19.41H13.26L13.261 19.409ZM7.88005 10.682L8.60505 12.943H10.951L9.05305 14.341L9.77805 16.602L7.88005 15.204L5.98205 16.602L6.70705 14.341L4.80905 12.943H7.15505L7.88005 10.682Z" fill="#262B69"/>
<path d="M5.69336 8.58152C5.75536 8.56852 5.82236 8.57152 5.88636 8.56152C5.82336 8.57152 5.75636 8.56852 5.69336 8.58152Z" fill="#E3E7EA"/>
<path d="M38.4997 15.0459H13.2617V17.2269H38.4997V15.0459Z" fill="#E3E7EA"/>
<path d="M35.9199 8.77246C35.9819 8.79646 36.0459 8.81446 36.1069 8.84146C36.0459 8.81446 35.9819 8.79546 35.9199 8.77246Z" fill="#E3E7EA"/>
<path d="M35.2188 8.57324C35.2868 8.58524 35.3527 8.60124 35.4187 8.61724C35.3517 8.60124 35.2868 8.58624 35.2188 8.57324Z" fill="#E3E7EA"/>
<path d="M4.294 19.4092H2.5V21.5912H38.5V19.4092H13.262H4.294Z" fill="#E3E7EA"/>
<path d="M36.6406 9.13086C36.7396 9.19486 36.8326 9.26586 36.9246 9.33886C36.8316 9.26686 36.7396 9.19486 36.6406 9.13086Z" fill="#E3E7EA"/>
<path d="M2.5 28.4997C2.5 29.1587 2.674 29.7707 2.956 30.3187H38.043C38.325 29.7707 38.499 29.1587 38.499 28.4997V28.1367H2.5V28.4997Z" fill="#E3E7EA"/>
<path d="M38.0259 10.6469C37.7969 10.2119 37.4949 9.82786 37.1289 9.50586C37.4919 9.82886 37.7979 10.2129 38.0259 10.6469Z" fill="#E3E7EA"/>
<path d="M38.5 23.7734H2.5V25.9554H38.5V23.7734Z" fill="#E3E7EA"/>
<path d="M4.36022 31.8692C4.26022 31.8052 4.16722 31.7332 4.07422 31.6602C4.16822 31.7322 4.26022 31.8052 4.36022 31.8692Z" fill="#E3E7EA"/>
<path d="M5.08153 32.2282C5.01953 32.2042 4.95553 32.1862 4.89453 32.1592C4.95553 32.1862 5.01853 32.2052 5.08153 32.2282Z" fill="#E3E7EA"/>
<path d="M2.97266 30.3496C3.20266 30.7866 3.50566 31.1726 3.87366 31.4956C3.50866 31.1716 3.20166 30.7856 2.97266 30.3496Z" fill="#E3E7EA"/>
<path d="M37.125 31.4956C37.493 31.1726 37.797 30.7866 38.026 30.3496C37.797 30.7856 37.489 31.1726 37.125 31.4956Z" fill="#E3E7EA"/>
<path d="M5.78108 32.4278C5.71308 32.4158 5.64708 32.3998 5.58008 32.3838C5.64708 32.3998 5.71308 32.4148 5.78108 32.4278Z" fill="#E3E7EA"/>
<path d="M36.9266 31.6602C36.8336 31.7332 36.7396 31.8052 36.6406 31.8692C36.7406 31.8052 36.8326 31.7322 36.9266 31.6602Z" fill="#E3E7EA"/>
<path d="M38.0437 10.6816H13.2617V12.8636H38.4997V12.4996C38.4997 11.8416 38.3257 11.2286 38.0437 10.6816Z" fill="#E3E7EA"/>
<path d="M35.4198 32.3838C35.3528 32.3998 35.2868 32.4148 35.2188 32.4278C35.2868 32.4158 35.3528 32.3998 35.4198 32.3838Z" fill="#E3E7EA"/>
<path d="M36.1069 32.1592C36.0469 32.1862 35.9819 32.2052 35.9199 32.2282C35.9819 32.2042 36.0459 32.1852 36.1069 32.1592Z" fill="#E3E7EA"/>
<path d="M6.70855 14.3406L5.98355 16.6016L7.88155 15.2046L9.77855 16.6016L9.05455 14.3406L10.9525 12.9426H8.60655L7.88155 10.6816L7.15655 12.9426H4.81055L6.70855 14.3406Z" fill="#E3E7EA"/>
</svg>
