<svg width="41" height="41" viewBox="0 0 41 41" fill="none" xmlns="http://www.w3.org/2000/svg">
<path d="M2.5 28.4998V28.5038C2.5 30.7108 4.289 32.4998 6.495 32.4998H34.504C36.711 32.4998 38.499 30.7108 38.499 28.5038V25.2998H2.5V28.4998Z" fill="#00973A"/>
<path d="M34.505 8.5H6.495C4.288 8.5 2.5 10.289 2.5 12.496V15.7H38.5V12.496C38.5 10.289 36.711 8.5 34.505 8.5Z" fill="#2F2D91"/>
<path d="M19.796 18.4539H19.936L20.155 18.4359L20.167 19.3819L19.791 19.9329H21.215C21.215 19.9329 21.221 19.9189 21.223 19.9129L20.861 19.3959L20.855 18.4289L21.235 18.4119L21.028 18.2009L20.722 17.9129V16.5819C20.642 16.5689 20.572 16.5439 20.482 16.5439C20.395 16.5449 20.325 16.5739 20.247 16.5899L20.259 17.9179L19.795 18.4529L19.796 18.4539Z" fill="black"/>
<path d="M20.7221 16.2891C20.7161 16.2891 20.5991 16.1641 20.4871 16.1641C20.3661 16.1671 20.2481 16.3111 20.2461 16.3121V16.4121C20.3191 16.4001 20.3811 16.3701 20.4581 16.3691C20.5581 16.3691 20.6341 16.3971 20.7221 16.4111V16.2891Z" fill="black"/>
<path d="M19.672 20.1092L17.912 22.6882L17.56 22.5702L16.998 23.9102C17.025 23.9102 18.426 24.8382 20.427 24.8382H20.512C22.774 24.8082 24.031 23.8532 24.043 23.8432L23.436 22.5332L23.163 22.6812L21.335 20.0732L21.318 20.1102H19.672V20.1092ZM17.759 23.1062L17.869 23.4742L17.546 23.5482C17.546 23.5482 17.733 23.1422 17.759 23.1062ZM17.606 23.7512L17.946 23.6312L18.014 23.9262L17.606 23.7512ZM18.099 23.1152L18.574 23.2712L18.684 23.5302L18.269 23.6592L18.099 23.1152ZM18.421 24.0742L18.362 23.8532L18.752 23.7152L18.973 24.2222L18.421 24.0742ZM18.973 23.3922L19.448 23.5032L19.584 23.7242L19.168 23.8992L18.973 23.3922ZM19.313 24.2772L19.245 24.0832L19.687 23.9172L19.958 24.3782L19.313 24.2772ZM19.864 23.5392L20.637 23.5762L20.705 23.7512L20.102 23.9912L19.864 23.5392ZM20.34 24.3972L20.212 24.1572L20.807 23.9172L21.087 24.3692L20.34 24.3972ZM23.532 23.6872L23.209 23.8072L23.183 23.6412L23.37 23.3372L23.532 23.6872ZM23.192 22.9682L23.285 23.1162L23.022 23.5402L22.75 23.1622L23.192 22.9682ZM22.912 23.9822L22.386 24.1302L22.284 23.9362L22.666 23.6232L22.912 23.9822ZM22.445 23.2812L22.581 23.4382L22.182 23.7792L21.936 23.4472L22.445 23.2812ZM22.071 24.2132L21.434 24.3242L21.307 24.1022L21.782 23.8442L22.071 24.2132ZM21.681 23.6872L21.205 23.9362L21.001 23.5582L21.553 23.4852L21.681 23.6872Z" fill="black"/>
<path d="M19.7894 18.4543L19.9644 18.2393L19.7754 18.4543H19.7894Z" fill="black"/>
<path d="M21.2426 18.4189L21.0996 18.4299H21.2536L21.2426 18.4189Z" fill="black"/>
<path d="M20.5136 24.872C22.7876 24.843 24.0506 23.881 24.0686 23.849L23.4456 22.509L23.1706 22.654L21.3496 20.042C21.3496 20.042 21.3426 20.058 21.3416 20.06L21.3356 20.072L23.1636 22.68L23.4366 22.532L24.0436 23.842C24.0316 23.852 22.7746 24.807 20.5126 24.836H20.4276C18.4266 24.836 17.0256 23.909 16.9986 23.909L17.5606 22.569L17.9126 22.687L19.6726 20.108H19.6596L19.6516 20.09L17.9056 22.66L17.5516 22.545L16.9766 23.916C16.9906 23.926 18.4046 24.872 20.4286 24.872H20.5136Z" fill="black"/>
<path d="M19.7928 19.9328L20.1688 19.3818L20.1568 18.4358L19.9378 18.4538L19.7868 18.4658L19.7968 18.4538L20.2608 17.9188L20.2488 16.5908C20.2398 16.5928 20.2298 16.5938 20.2208 16.5958L20.2328 17.9068L19.9628 18.2388L19.7878 18.4538L19.7738 18.4718L20.1388 18.4538V19.3718L19.7598 19.9288C19.7598 19.9288 19.7608 19.9318 19.7618 19.9328H19.7928Z" fill="black"/>
<path d="M20.2477 16.4119V16.3119C20.2477 16.3119 20.3667 16.1659 20.4877 16.1639C20.5997 16.1639 20.7167 16.2889 20.7227 16.2889V16.4109C20.7317 16.4119 20.7407 16.4139 20.7507 16.4149V16.2759C20.7457 16.2699 20.6177 16.1279 20.4837 16.1279C20.3517 16.1309 20.2277 16.2819 20.2188 16.2999V16.4169C20.2287 16.4149 20.2387 16.4139 20.2477 16.4119Z" fill="black"/>
<path d="M21.0297 18.202L21.2537 18.412H21.2367L20.8567 18.43L20.8627 19.397L21.2247 19.914C21.2277 19.906 21.2337 19.893 21.2377 19.883L20.8917 19.387L20.8727 18.451V18.448L21.0997 18.43L21.2427 18.419L21.2647 18.417L20.7507 17.901V16.588C20.7407 16.586 20.7317 16.585 20.7227 16.584V17.915L21.0297 18.202Z" fill="black"/>
<path d="M19.659 20.1091H21.319L21.336 20.0721L21.342 20.0601C21.342 20.0601 21.348 20.0461 21.35 20.0421C21.404 19.9201 21.941 18.6761 21.823 17.7731C21.715 16.9451 21.365 16.5211 20.751 16.4151C20.742 16.4141 20.733 16.4121 20.724 16.4111C20.636 16.3981 20.56 16.3691 20.46 16.3691C20.382 16.3691 20.32 16.4001 20.249 16.4121C20.24 16.4131 20.231 16.4161 20.221 16.4181C19.63 16.5331 19.24 17.0131 19.159 17.8131C19.066 18.7321 19.616 20.0051 19.639 20.0591L19.653 20.0911L19.661 20.1091H19.659ZM19.318 17.8321C19.389 17.1291 19.71 16.7131 20.221 16.5961C20.23 16.5941 20.24 16.5931 20.249 16.5911C20.327 16.5751 20.397 16.5461 20.484 16.5451C20.574 16.5451 20.644 16.5701 20.723 16.5831C20.732 16.5851 20.741 16.5861 20.75 16.5871C21.269 16.6841 21.564 17.0551 21.661 17.7971C21.757 18.5381 21.365 19.5701 21.237 19.8821C21.233 19.8921 21.228 19.9051 21.224 19.9131C21.222 19.9181 21.218 19.9281 21.216 19.9331H19.762L19.76 19.9291C19.657 19.6791 19.239 18.5991 19.317 17.8321H19.318Z" fill="black"/>
<path d="M19.7852 18.4661L19.9362 18.4541H19.7962L19.7852 18.4661Z" fill="#E3E7EA"/>
<path d="M21.264 18.4169L21.242 18.4189L21.253 18.4299H21.099L20.872 18.4479V18.4509L20.891 19.3869L21.237 19.8829C21.365 19.5709 21.757 18.5389 21.661 17.7979C21.564 17.0559 21.268 16.6849 20.75 16.5879V17.9009L21.264 18.4169Z" fill="#E3E7EA"/>
<path d="M21.0293 18.2021L21.2363 18.4131L21.2533 18.4121L21.0293 18.2021Z" fill="#E3E7EA"/>
<path d="M20.1392 18.4547L19.7742 18.4727L19.7882 18.4547H19.7742L19.9632 18.2397L20.2332 17.9077L20.2212 16.5967C19.7092 16.7127 19.3892 17.1287 19.3182 17.8327C19.2402 18.6007 19.6592 19.6797 19.7612 19.9297L20.1402 19.3727L20.1392 18.4547Z" fill="#E3E7EA"/>
<path d="M2.5 25.3002H38.5V15.6992H2.5V25.3002ZM17.551 22.5452L17.905 22.6602L19.651 20.0902L19.637 20.0582C19.614 20.0042 19.064 18.7312 19.157 17.8122C19.238 17.0122 19.629 16.5322 20.219 16.4172V16.3002C20.227 16.2822 20.351 16.1312 20.482 16.1282C20.617 16.1282 20.744 16.2702 20.749 16.2762V16.4152C21.362 16.5202 21.712 16.9452 21.821 17.7732C21.939 18.6762 21.402 19.9202 21.348 20.0422L23.169 22.6542L23.444 22.5092L24.067 23.8492C24.049 23.8812 22.786 24.8432 20.512 24.8722H20.427C18.403 24.8722 16.988 23.9262 16.975 23.9172L17.55 22.5462L17.551 22.5452Z" fill="#E3E7EA"/>
<path d="M17.7599 23.1064C17.7339 23.1434 17.5469 23.5484 17.5469 23.5484L17.8699 23.4744L17.7599 23.1064Z" fill="#E3E7EA"/>
<path d="M17.6074 23.7509L18.0144 23.9269L17.9464 23.6309L17.6074 23.7509Z" fill="#E3E7EA"/>
<path d="M18.5746 23.2712L18.0996 23.1152L18.2696 23.6592L18.6846 23.5302L18.5746 23.2712Z" fill="#E3E7EA"/>
<path d="M18.3633 23.8529L18.4213 24.0739L18.9743 24.2219L18.7533 23.7139L18.3633 23.8529Z" fill="#E3E7EA"/>
<path d="M19.4486 23.5026L18.9746 23.3916L19.1686 23.8986L19.5846 23.7246L19.4486 23.5026Z" fill="#E3E7EA"/>
<path d="M19.2441 24.083L19.3121 24.277L19.9571 24.378L19.6861 23.917L19.2441 24.083Z" fill="#E3E7EA"/>
<path d="M20.6372 23.5761L19.8652 23.5391L20.1022 23.9911L20.7052 23.7511L20.6372 23.5761Z" fill="#E3E7EA"/>
<path d="M20.2129 24.157L20.3409 24.397L21.0879 24.369L20.8079 23.917L20.2129 24.157Z" fill="#E3E7EA"/>
<path d="M21.206 23.9364L21.681 23.6874L21.554 23.4844L21.002 23.5584L21.206 23.9364Z" fill="#E3E7EA"/>
<path d="M21.4356 24.3228L22.0726 24.2118L21.7836 23.8438L21.3086 24.1007L21.4356 24.3228Z" fill="#E3E7EA"/>
<path d="M22.5805 23.4382L22.4445 23.2812L21.9355 23.4473L22.1815 23.7792L22.5805 23.4382Z" fill="#E3E7EA"/>
<path d="M22.3852 24.1291L22.9112 23.9811L22.6652 23.6221L22.2832 23.9361L22.3852 24.1291Z" fill="#E3E7EA"/>
<path d="M23.286 23.1148L23.192 22.9668L22.75 23.1608L23.023 23.5388L23.286 23.1148Z" fill="#E3E7EA"/>
<path d="M23.2086 23.8069L23.5316 23.6869L23.3696 23.3359L23.1836 23.6409L23.2086 23.8069Z" fill="#E3E7EA"/>
</svg>
