<svg width="41" height="41" viewBox="0 0 41 41" fill="none" xmlns="http://www.w3.org/2000/svg">
<path d="M34.5 8.5H6.5C4.29086 8.5 2.5 10.2909 2.5 12.5V28.5C2.5 30.7091 4.29086 32.5 6.5 32.5H34.5C36.7091 32.5 38.5 30.7091 38.5 28.5V12.5C38.5 10.2909 36.7091 8.5 34.5 8.5Z" fill="#00A037"/>
<path d="M2.5 12.496V15.415H38.5V12.496C38.5 10.289 36.711 8.5 34.505 8.5H6.495C4.288 8.5 2.5 10.289 2.5 12.496Z" fill="#FD0000"/>
<path d="M38.5 15.415H2.5V25.671H38.5V15.415Z" fill="#161515"/>
<path d="M20.4999 23.9129C21.4359 23.9129 22.2819 23.5319 22.8929 22.9159C22.4119 23.2639 21.8209 23.4709 21.1829 23.4709C19.5649 23.4709 18.2539 22.1599 18.2539 20.5419C18.2539 18.9239 19.5649 17.6139 21.1829 17.6139C21.8229 17.6139 22.4119 17.8209 22.8929 18.1679C22.2819 17.5529 21.4359 17.1719 20.4999 17.1719C18.6389 17.1719 17.1309 18.6809 17.1309 20.5409C17.1309 22.4009 18.6399 23.9109 20.4999 23.9109V23.9129Z" fill="#E3E7EA"/>
<path d="M23.8697 21.1051V22.9261L24.9407 21.4531L26.6717 22.0161L25.6017 20.5431L26.6717 19.0711L24.9407 19.6331L23.8697 18.1611V19.9811L22.1387 20.5441L23.8697 21.1071V21.1051Z" fill="#E3E7EA"/>
</svg>
