<svg width="41" height="41" viewBox="0 0 41 41" fill="none" xmlns="http://www.w3.org/2000/svg">
<path d="M34.5 8.5H6.5C4.29086 8.5 2.5 10.2909 2.5 12.5V28.5C2.5 30.7091 4.29086 32.5 6.5 32.5H34.5C36.7091 32.5 38.5 30.7091 38.5 28.5V12.5C38.5 10.2909 36.7091 8.5 34.5 8.5Z" fill="#D30024"/>
<path d="M17.7007 24.451L18.7707 21.16L15.9707 19.126H19.4307L20.5007 15.832L21.5717 19.126H25.0317L22.2317 21.16L23.3007 24.451L20.5007 22.417L17.7007 24.451ZM21.0987 21.983L21.9667 22.613L21.6347 21.592L21.0987 21.983ZM19.3667 21.592L19.0347 22.613L19.9027 21.983L19.3667 21.592ZM19.5947 20.89L20.4997 21.548L21.4057 20.89L21.0597 19.826H19.9387L19.5947 20.89ZM18.1297 19.826L18.9977 20.457L19.2027 19.826H18.1297ZM21.7987 19.826L22.0037 20.457L22.8717 19.826H21.7987ZM20.8317 19.124L20.4997 18.102L20.1677 19.125L20.8317 19.124Z" fill="#00652C"/>
</svg>
