<svg width="41" height="41" viewBox="0 0 41 41" fill="none" xmlns="http://www.w3.org/2000/svg">
<path d="M14.1367 8.5V32.5H26.8647V8.5H14.1367ZM18.6477 14.014H21.4277V16.794H19.5747V14.941H18.6477V14.014ZM22.3537 17.72V22.353L20.5007 23.28L18.6477 22.353V17.72H22.3537ZM18.4367 24.822L18.3107 24.894C18.2317 24.94 18.1297 24.891 18.0477 24.805L17.7207 25.133V24.287L17.3517 23.649L15.8677 25.134V15.868L16.7947 14.941L17.7217 15.868L18.6487 16.795H17.7217V23.171L18.1007 23.828L18.6477 23.281V24.208L18.4397 24.416L18.4707 24.47C18.5517 24.608 18.5357 24.767 18.4377 24.824L18.4367 24.822ZM20.4997 26.986L18.6467 26.059L19.5737 23.279L20.5007 23.858L21.4277 23.279L22.3547 26.059L20.5017 26.986H20.4997ZM25.1327 25.133L23.6147 23.614L23.2757 24.202L23.2797 24.206V25.133L22.9227 24.776C22.8407 24.872 22.7317 24.924 22.6467 24.876L22.5217 24.804C22.4237 24.747 22.4067 24.591 22.4857 24.454L22.5277 24.381L22.3537 24.206V23.279L22.8677 23.793L23.2807 23.077V16.793H22.3537L23.2807 15.866L24.2077 14.939L25.1347 15.866V25.132L25.1327 25.133Z" fill="#F2D900"/>
<path d="M6.5 8.5H6.495C4.288 8.5 2.5 10.289 2.5 12.496V28.505C2.5 30.712 4.289 32.501 6.495 32.501H14.136V8.5H6.5Z" fill="#383399"/>
<path d="M34.5043 8.5H26.8633V32.5H34.5043C36.7113 32.5 38.4993 30.711 38.4993 28.504V12.496C38.4993 10.289 36.7103 8.5 34.5043 8.5Z" fill="#E4001C"/>
<path d="M21.6425 20.5H21.4265V21.388L20.4995 22.353L19.5735 21.388V20.5H19.3555H18.8635H18.6465V22.353L20.4995 23.28L22.3525 22.353V20.5H22.1345H21.6425Z" fill="#226699"/>
<path d="M23.2805 15.8665L22.3535 16.7935H23.2805V23.0775L24.5175 20.9345C24.5965 20.7995 24.7395 20.7335 24.8385 20.7915L24.9635 20.8635C25.0625 20.9195 25.0795 21.0765 24.9995 21.2125L23.6145 23.6135L25.1325 25.1325V15.8665L24.2055 14.9395L23.2785 15.8665H23.2805Z" fill="#A0724A"/>
<path d="M19.5735 16.7937H21.4265V14.0137H18.6465V14.9407H19.5735V16.7937Z" fill="#A0724A"/>
<path d="M15.9526 20.8095L16.0786 20.7375C16.1766 20.6805 16.3226 20.7465 16.4016 20.8845L17.7196 23.1685V16.7925H18.6466L17.7196 15.8655L16.7926 14.9385L15.8656 15.8655V25.1315L17.3496 23.6465L15.9166 21.1635C15.8366 21.0245 15.8516 20.8655 15.9506 20.8085L15.9526 20.8095Z" fill="#A0724A"/>
<path d="M20.4995 23.8583L19.5735 23.2793L18.6465 26.0583L20.4995 26.9853L22.3525 26.0583L21.4265 23.2793L20.4995 23.8583Z" fill="#A0724A"/>
<path d="M18.1005 23.8267L17.7215 23.1697L16.4035 20.8857C16.3235 20.7477 16.1785 20.6807 16.0805 20.7387L15.9545 20.8107C15.8555 20.8677 15.8405 21.0267 15.9205 21.1657L17.3535 23.6487L17.7225 24.2867V24.2057L18.1005 23.8267Z" fill="#77B255"/>
<path d="M18.4398 24.4141L18.0488 24.8051C18.1308 24.8921 18.2328 24.9401 18.3118 24.8941L18.4378 24.8221C18.5358 24.7651 18.5518 24.6061 18.4708 24.4681L18.4398 24.4141Z" fill="#77B255"/>
<path d="M18.6465 20.4997H18.8635V20.1237H19.3555V20.4997H19.5735V18.6467L20.4995 19.5727L21.4265 18.6467V20.4997H21.6425V20.1237H22.1345V20.4997H22.3525V17.7197H18.6465V20.4997Z" fill="#DD2E44"/>
<path d="M22.3535 23.2793V24.2053L22.5285 24.3803L22.9235 24.7753L23.2805 25.1323V24.2053L23.2755 24.2013L22.8675 23.7923L22.3535 23.2793Z" fill="#DD2E44"/>
<path d="M18.6467 24.2053V23.2793L18.0997 23.8263L17.7207 24.2053V24.2863V25.1323L18.0477 24.8043L18.4387 24.4133L18.6467 24.2053Z" fill="#DD2E44"/>
<path d="M22.1346 20.124H21.6426V20.5H22.1346V20.124Z" fill="#FFCC4D"/>
<path d="M19.3553 20.124H18.8633V20.5H19.3553V20.124Z" fill="#FFCC4D"/>
<path d="M22.4854 24.4548C22.4064 24.5918 22.4234 24.7478 22.5214 24.8048L22.6464 24.8768C22.7314 24.9248 22.8404 24.8728 22.9224 24.7768L22.5274 24.3818L22.4854 24.4548Z" fill="#FFCC4D"/>
<path d="M24.9632 20.8642L24.8382 20.7922C24.7392 20.7332 24.5952 20.7992 24.5172 20.9352L23.2802 23.0782L22.8672 23.7942L23.2762 24.2032L23.6152 23.6152L25.0002 21.2142C25.0802 21.0782 25.0632 20.9212 24.9642 20.8652L24.9632 20.8642Z" fill="#FFCC4D"/>
<path d="M20.5002 22.3535L21.4272 21.3885V20.5005V18.6475L20.5002 19.5735L19.5742 18.6475V20.5005V21.3885L20.5002 22.3535Z" fill="#FFCC4D"/>
</svg>
