<svg width="41" height="41" viewBox="0 0 41 41" fill="none" xmlns="http://www.w3.org/2000/svg">
<path d="M20.1911 14.5453C20.2781 14.5723 20.6031 14.4283 20.6031 14.4283C20.6031 14.4283 20.4421 14.2153 20.4031 14.0143C20.3631 13.8143 20.5031 13.4053 20.5031 13.4053C20.5031 13.4053 20.0021 13.5733 19.9621 13.7743C19.9221 13.9763 19.9831 14.0953 20.0381 14.2583C20.0931 14.4213 20.1041 14.5173 20.1911 14.5453Z" fill="#C6002D"/>
<path d="M19.3601 14.5612C19.6021 14.6662 19.7021 14.4772 19.5051 14.2682C19.3081 14.0602 19.5411 13.5732 19.5411 13.5732C19.5411 13.5732 19.1991 13.7732 19.1591 13.9742C19.1181 14.1762 19.1191 14.4562 19.3601 14.5612Z" fill="#C6002D"/>
<path d="M20.8672 14.4302C20.8672 14.4302 21.1932 14.5722 21.2812 14.5452C21.3682 14.5182 21.3792 14.4212 21.4342 14.2582C21.4892 14.0962 21.5502 13.9752 21.5092 13.7762C21.4692 13.5742 20.9682 13.4072 20.9682 13.4072C20.9682 13.4072 21.1082 13.8162 21.0682 14.0162C21.0282 14.2162 20.8672 14.4302 20.8672 14.4302Z" fill="#C6002D"/>
<path d="M22.1116 14.5612C22.3516 14.4572 22.3516 14.1762 22.3116 13.9742C22.2716 13.7742 21.9296 13.5732 21.9296 13.5732C21.9296 13.5732 22.1626 14.0602 21.9656 14.2682C21.7686 14.4762 21.8706 14.6662 22.1116 14.5612Z" fill="#C6002D"/>
<path d="M34.2889 9.7002H6.71094C5.05394 9.7002 3.71094 11.0432 3.71094 12.7002V28.3012C3.71094 29.9582 5.05394 31.3012 6.71094 31.3012H34.2889C35.9459 31.3012 37.2889 29.9582 37.2889 28.3012V12.7002C37.2889 11.0432 35.9459 9.7002 34.2889 9.7002ZM20.7459 12.9512C21.8329 12.9512 22.7129 13.4592 22.7129 14.0862C22.7129 14.4662 22.3869 14.8002 21.8909 15.0062C21.9739 15.0742 22.0309 15.1492 22.0309 15.2302C22.0309 15.5132 21.4689 15.7412 20.7759 15.7412C20.0829 15.7412 19.5209 15.5122 19.5209 15.2302C19.5209 15.1552 19.5639 15.0862 19.6349 15.0222C19.1189 14.8172 18.7799 14.4752 18.7799 14.0862C18.7799 13.4592 19.6589 12.9512 20.7459 12.9512ZM27.2269 24.5252C27.2229 24.5402 27.2079 24.5452 27.2019 24.5592C27.1369 25.0012 26.8009 25.3392 26.3599 25.4082L26.4539 26.0022L25.3339 26.5252L24.3559 25.4412L21.9919 24.5662V24.6462L23.3659 26.5842L20.7069 28.0502L17.9569 26.5832L19.3629 24.5352L16.8989 25.4382L16.4139 25.9692L16.9359 27.2952C17.0259 27.5232 16.8449 27.8062 16.7679 27.8382L16.6409 27.8882C16.5639 27.9182 16.4279 27.7572 16.3389 27.5312L15.9319 26.4972L15.9099 26.5212L14.7839 25.9982L14.9959 24.6332L15.1919 24.6172L13.8399 21.1812C13.7499 20.9532 13.7399 20.7442 13.8169 20.7132L13.9439 20.6632C14.0219 20.6332 14.3469 20.7182 14.4369 20.9442L15.8609 24.5622L16.2379 24.5312L18.3609 23.0962C18.3609 23.0962 15.0239 22.6632 14.2479 19.5662C13.4729 16.4702 15.9879 13.7302 15.9879 13.7302L16.6469 16.9442L18.0009 18.7302L17.4379 19.7312L18.1069 20.1032L19.3309 18.1972L18.7339 16.9702L17.2399 15.9732L19.0229 15.5672L20.2669 16.9072L20.7059 18.3892L21.0559 16.9072L22.2069 15.5672L24.1069 16.1952L22.3899 17.0802L21.8969 18.1962L22.3279 18.7942L22.3349 18.7912L22.4219 18.9242L23.2289 20.0422L23.7909 19.7312L23.2279 18.7302L24.5839 16.9442L25.2429 13.7312C25.2429 13.7312 27.7589 16.4712 26.9829 19.5672C26.2069 22.6622 22.8699 23.0972 22.8699 23.0992L24.9929 24.5342L25.2109 24.5522C25.2039 24.5042 25.1829 24.4622 25.1829 24.4122C25.1829 23.8452 25.6399 23.3882 26.2069 23.3882C26.2119 23.3882 26.2169 23.3912 26.2219 23.3912L26.3529 22.7892C26.3839 22.6672 26.5079 22.5922 26.6339 22.6242C26.7589 22.6562 26.8309 22.7822 26.7979 22.9052L26.6659 23.5092C26.9969 23.6782 27.2299 24.0132 27.2299 24.4122C27.2299 24.4322 27.2199 24.4482 27.2189 24.4682C27.2189 24.4872 27.2319 24.5032 27.2259 24.5232L27.2269 24.5252Z" fill="#C6002D"/>
<path d="M34.5 8.5H6.5C4.291 8.5 2.5 10.291 2.5 12.5V28.5C2.5 30.709 4.291 32.5 6.5 32.5H34.5C36.709 32.5 38.5 30.709 38.5 28.5V12.5C38.5 10.291 36.709 8.5 34.5 8.5ZM37.289 28.3C37.289 29.957 35.946 31.3 34.289 31.3H6.711C5.054 31.3 3.711 29.957 3.711 28.3V12.699C3.711 11.042 5.054 9.699 6.711 9.699H34.289C35.946 9.699 37.289 11.042 37.289 12.699V28.3Z" fill="#D2AD22"/>
<path d="M25.2104 24.5554L24.9924 24.5374L22.8694 23.1024C22.8694 23.1024 26.2064 22.6654 26.9824 19.5704C27.7584 16.4744 25.2424 13.7344 25.2424 13.7344L24.5834 16.9474L23.2274 18.7334L23.7904 19.7344L23.2284 20.0454L22.4214 18.9274L22.7554 19.4374C22.7554 19.4374 22.4184 19.9044 22.5944 20.4804C22.8744 21.4044 22.7944 22.1074 22.7944 22.1074H18.6154C18.6154 22.1074 18.5354 21.4044 18.8154 20.4804C18.9914 19.9034 18.6544 19.4374 18.6544 19.4374L19.0764 18.7944C19.0764 18.7944 20.0194 19.1764 20.7034 18.8344L20.7064 18.8414V18.8344C21.3754 19.1694 22.2884 18.8124 22.3264 18.7974L21.8954 18.1994L22.3884 17.0834L24.1054 16.1984L22.2054 15.5704L21.0544 16.9104L20.7044 18.3924L20.2654 16.9104L19.0214 15.5704L17.2384 15.9764L18.7324 16.9734L19.3294 18.2004L18.1054 20.1064L17.4364 19.7344L17.9994 18.7334L16.6454 16.9474L15.9864 13.7334C15.9864 13.7334 13.4714 16.4734 14.2464 19.5694C15.0224 22.6654 18.3594 23.0994 18.3594 23.0994L16.2364 24.5344L15.8594 24.5654L14.4354 20.9474C14.3454 20.7214 14.0204 20.6364 13.9424 20.6664L13.8154 20.7164C13.7384 20.7474 13.7484 20.9564 13.8384 21.1844L15.1904 24.6204L14.9944 24.6364L14.7824 26.0014L15.9084 26.5244L15.9304 26.5004L16.3374 27.5344C16.4264 27.7604 16.5624 27.9204 16.6394 27.8914L16.7664 27.8414C16.8434 27.8094 17.0244 27.5254 16.9344 27.2984L16.4124 25.9724L16.8974 25.4414L19.3614 24.5384L17.9554 26.5864L20.7054 28.0534L23.3644 26.5874L21.9904 24.6494V24.5694L24.3544 25.4444L25.3324 26.5284L26.4524 26.0054L26.3584 25.4114C26.3064 25.4194 26.2594 25.4424 26.2054 25.4424C25.6884 25.4424 25.2804 25.0554 25.2094 24.5584L25.2104 24.5554ZM21.6724 23.3714C20.9414 23.5864 20.7084 23.9344 20.7084 23.9344L20.7054 23.9314V23.9344C20.7054 23.9344 20.4724 23.5864 19.7414 23.3714C18.7774 23.0904 18.6174 22.2674 18.6174 22.2674H22.7964C22.7964 22.2674 22.6354 23.0904 21.6724 23.3714Z" fill="#D2AD22"/>
<path d="M27.2262 24.5267C27.2312 24.5067 27.2182 24.4917 27.2192 24.4717C27.2172 24.5027 27.2062 24.5297 27.2012 24.5607C27.2072 24.5467 27.2232 24.5417 27.2262 24.5267Z" fill="#D2AD22"/>
<path d="M26.7987 22.9095C26.8307 22.7865 26.7587 22.6605 26.6347 22.6285C26.5087 22.5965 26.3837 22.6705 26.3537 22.7935L26.2227 23.3955C26.3847 23.3975 26.5327 23.4445 26.6677 23.5145L26.7997 22.9105L26.7987 22.9095Z" fill="#D2AD22"/>
<path d="M19.6333 15.0212C19.5633 15.0852 19.5193 15.1542 19.5193 15.2292C19.5193 15.5122 20.0813 15.7402 20.7743 15.7402C21.4673 15.7402 22.0293 15.5112 22.0293 15.2292C22.0293 15.1482 21.9723 15.0732 21.8893 15.0052C22.3853 14.7992 22.7113 14.4652 22.7113 14.0852C22.7113 13.4582 21.8313 12.9502 20.7443 12.9502C19.6573 12.9502 18.7773 13.4582 18.7773 14.0852C18.7773 14.4742 19.1163 14.8162 19.6323 15.0212H19.6333ZM21.9303 13.5732C21.9303 13.5732 22.2723 13.7732 22.3123 13.9742C22.3523 14.1762 22.3523 14.4572 22.1123 14.5612C21.8703 14.6662 21.7703 14.4762 21.9673 14.2682C22.1643 14.0602 21.9303 13.5732 21.9303 13.5732ZM20.9663 13.4072C20.9663 13.4072 21.4673 13.5742 21.5073 13.7762C21.5483 13.9752 21.4883 14.0962 21.4323 14.2582C21.3773 14.4212 21.3673 14.5172 21.2793 14.5452C21.1923 14.5722 20.8653 14.4302 20.8653 14.4302C20.8653 14.4302 21.0263 14.2172 21.0653 14.0162C21.1043 13.8152 20.9663 13.4072 20.9663 13.4072ZM20.5023 13.4052C20.5023 13.4052 20.3623 13.8142 20.4023 14.0142C20.4423 14.2142 20.6023 14.4282 20.6023 14.4282C20.6023 14.4282 20.2773 14.5722 20.1903 14.5452C20.1033 14.5182 20.0923 14.4212 20.0373 14.2582C19.9823 14.0952 19.9213 13.9752 19.9613 13.7742C20.0013 13.5742 20.5023 13.4052 20.5023 13.4052ZM19.1593 13.9742C19.1993 13.7742 19.5413 13.5732 19.5413 13.5732C19.5413 13.5732 19.3083 14.0602 19.5053 14.2682C19.7023 14.4772 19.6013 14.6662 19.3603 14.5612C19.1183 14.4562 19.1173 14.1762 19.1593 13.9742Z" fill="#D2AD22"/>
<path d="M19.4232 22.2666H18.6172C18.6172 22.2666 18.7782 23.0896 19.7412 23.3706C20.4722 23.5856 20.7052 23.9336 20.7052 23.9336V23.9306L20.7082 23.9336C20.7082 23.9336 20.9402 23.5856 21.6722 23.3706C22.6362 23.0896 22.7962 22.2666 22.7962 22.2666H19.4232Z" fill="#5C913B"/>
<path d="M26.6676 23.5126C26.5326 23.4436 26.3846 23.3966 26.2226 23.3936C26.2176 23.3936 26.2126 23.3906 26.2076 23.3906C25.6406 23.3906 25.1836 23.8476 25.1836 24.4146C25.1836 24.4646 25.2046 24.5066 25.2116 24.5546C25.2826 25.0516 25.6906 25.4386 26.2076 25.4386C26.2616 25.4386 26.3086 25.4156 26.3606 25.4076C26.8026 25.3386 27.1376 25.0006 27.2026 24.5586C27.2066 24.5286 27.2186 24.5006 27.2206 24.4696C27.2216 24.4496 27.2316 24.4336 27.2316 24.4136C27.2316 24.0156 26.9986 23.6806 26.6676 23.5106V23.5126Z" fill="#226699"/>
<path d="M20.709 18.833V18.84L20.706 18.833C20.022 19.175 19.079 18.793 19.079 18.793L18.657 19.436C18.657 19.436 18.994 19.903 18.818 20.479C18.538 21.403 18.618 22.106 18.618 22.106H22.797C22.797 22.106 22.877 21.403 22.597 20.479C22.421 19.902 22.758 19.436 22.758 19.436L22.424 18.926L22.337 18.793C22.337 18.793 22.331 18.795 22.33 18.796C22.293 18.811 21.379 19.168 20.709 18.833Z" fill="#226699"/>
</svg>
