<svg width="41" height="41" viewBox="0 0 41 41" fill="none" xmlns="http://www.w3.org/2000/svg">
<path d="M2.5 12.496V28.505C2.5 29.225 2.705 29.89 3.038 30.474L37.587 9.982C36.854 9.085 35.753 8.5 34.505 8.5H6.495C4.288 8.5 2.5 10.289 2.5 12.496Z" fill="#233990"/>
<path d="M38.5005 28.5038V18.6338L3.68555 31.3418C4.40755 32.0568 5.39955 32.4998 6.49655 32.4998H34.5055C36.7125 32.4998 38.5005 30.7108 38.5005 28.5038Z" fill="#233990"/>
<path d="M3.68455 31.3421L38.4995 18.6341V14.0371L3.31055 30.8941C3.42755 31.0501 3.54655 31.2051 3.68455 31.3421Z" fill="#E3E7EA"/>
<path d="M3.31011 30.8944L38.4991 14.0374V12.4954C38.4991 11.5374 38.1481 10.6694 37.5861 9.98145L3.03711 30.4734C3.12011 30.6194 3.20911 30.7604 3.31011 30.8944Z" fill="#DC6E00"/>
<path d="M9.6283 23.1267L9.3453 18.4667L8.3593 21.0347L8.7993 18.3227L7.1763 20.5497L8.3103 18.0417L6.1593 19.7767L7.9103 17.6467L5.3803 18.7697L7.6283 17.1607L4.8903 17.5977L7.4813 16.6197L2.7793 16.3397L7.4813 16.0597L4.8903 15.0817L7.6283 15.5187L5.3803 13.9097L7.9103 15.0337L6.1593 12.9037L8.3103 14.6377L7.1763 12.1307L8.7993 14.3577L8.3593 11.6447L9.3453 14.2127L9.6283 9.55273L9.9103 14.2127L10.8983 11.6447L10.4563 14.3577L12.0803 12.1307L10.9463 14.6377L13.0963 12.9037L11.3463 15.0337L13.8763 13.9097L11.6293 15.5187L14.3663 15.0817L11.7743 16.0597L16.4773 16.3397L11.7743 16.6197L14.3663 17.5977L11.6293 17.1607L13.8763 18.7697L11.3463 17.6467L13.0963 19.7767L10.9463 18.0417L12.0803 20.5497L10.4563 18.3227L10.8983 21.0347L9.9103 18.4667L9.6283 23.1267Z" fill="#E3E7EA"/>
</svg>
