<svg width="41" height="41" viewBox="0 0 41 41" fill="none" xmlns="http://www.w3.org/2000/svg">
<path d="M34.5 8.5H6.5C4.29086 8.5 2.5 10.2909 2.5 12.5V28.5C2.5 30.7091 4.29086 32.5 6.5 32.5H34.5C36.7091 32.5 38.5 30.7091 38.5 28.5V12.5C38.5 10.2909 36.7091 8.5 34.5 8.5Z" fill="#CF002E"/>
<path d="M17.1929 17.7679L6.02589 8.54785C4.77689 8.69585 3.71089 9.40785 3.08789 10.4349L16.7789 18.3489C16.9009 18.1429 17.0389 17.9509 17.1919 17.7679H17.1929Z" fill="#FAE600"/>
<path d="M23.8086 23.2314L34.9756 32.4534C36.2246 32.3054 37.2906 31.5924 37.9126 30.5654L24.2216 22.6514C24.0996 22.8574 23.9616 23.0494 23.8086 23.2314Z" fill="#FAE600"/>
<path d="M19.7728 16.287C20.0108 16.247 20.2518 16.214 20.5018 16.214C20.7518 16.214 20.9928 16.246 21.2308 16.287L22.5778 8.5H18.4258L19.7728 16.287Z" fill="#FAE600"/>
<path d="M20.4998 24.7859C20.2498 24.7859 20.0088 24.7539 19.7708 24.7129L18.4238 32.4999H22.5758L21.2288 24.7129C20.9908 24.7529 20.7498 24.7859 20.4998 24.7859Z" fill="#FAE600"/>
<path d="M3.08789 30.5654C3.70989 31.5924 4.77589 32.3054 6.02489 32.4534L17.1919 23.2324C17.0379 23.0504 16.8999 22.8584 16.7789 22.6514L3.08789 30.5654Z" fill="#FAE600"/>
<path d="M37.9116 10.4349C37.2886 9.40785 36.2226 8.69585 34.9736 8.54785L23.8066 17.7689C23.9606 17.9509 24.0986 18.1429 24.2196 18.3489L37.9116 10.4349Z" fill="#FAE600"/>
<path d="M24.7754 20.0059C24.7944 20.1699 24.8254 20.3309 24.8254 20.4999C24.8254 20.6689 24.7944 20.8299 24.7754 20.9939L38.5004 22.5809V18.4189L24.7754 20.0049V20.0059Z" fill="#FAE600"/>
<path d="M16.175 20.4999C16.175 20.3309 16.206 20.1699 16.225 20.0059L2.5 18.4199V22.5819L16.225 20.9949C16.206 20.8309 16.175 20.6689 16.175 20.4999Z" fill="#FAE600"/>
<path d="M23.9591 20.5002C23.9591 20.3652 23.9341 20.2362 23.9191 20.1052C23.8631 19.6252 23.7111 19.1782 23.4761 18.7802C23.3791 18.6152 23.2681 18.4622 23.1451 18.3162C22.6291 17.7032 21.9101 17.2712 21.0821 17.1312C20.8921 17.0992 20.6991 17.0732 20.4991 17.0732C20.2991 17.0732 20.1061 17.0992 19.9161 17.1312C19.0881 17.2712 18.3691 17.7032 17.8531 18.3162C17.7301 18.4622 17.6201 18.6152 17.5221 18.7802C17.2871 19.1782 17.1351 19.6252 17.0791 20.1052C17.0641 20.2362 17.0391 20.3652 17.0391 20.5012C17.0391 20.6372 17.0641 20.7652 17.0791 20.8972C17.1351 21.3772 17.2871 21.8242 17.5221 22.2222C17.6191 22.3872 17.7301 22.5402 17.8531 22.6862C18.3691 23.2992 19.0881 23.7312 19.9161 23.8712C20.1061 23.9032 20.2991 23.9292 20.4991 23.9292C20.6991 23.9292 20.8911 23.9032 21.0821 23.8712C21.9101 23.7312 22.6291 23.2982 23.1451 22.6862C23.2681 22.5402 23.3781 22.3872 23.4761 22.2222C23.7111 21.8242 23.8631 21.3772 23.9191 20.8972C23.9341 20.7662 23.9591 20.6362 23.9591 20.5002Z" fill="#FAE600"/>
</svg>
