<svg width="41" height="41" viewBox="0 0 41 41" fill="none" xmlns="http://www.w3.org/2000/svg">
<path d="M34.5 8.5H6.5C4.29086 8.5 2.5 10.2909 2.5 12.5V28.5C2.5 30.7091 4.29086 32.5 6.5 32.5H34.5C36.7091 32.5 38.5 30.7091 38.5 28.5V12.5C38.5 10.2909 36.7091 8.5 34.5 8.5Z" fill="#DC0023"/>
<path d="M14.0918 29.9104V32.4744H26.9098V8.52637H14.0918V11.1434V29.9104Z" fill="#41ACCF"/>
<path d="M7.68192 15.834C8.65492 15.834 9.44392 16.604 9.44392 17.554C9.44392 18.504 8.65492 19.274 7.68192 19.274C6.70892 19.274 5.91992 18.504 5.91992 17.554C5.91992 16.604 6.70892 15.834 7.68192 15.834Z" fill="#F3EB00"/>
<path d="M7.68177 14.8965C8.74377 14.8965 9.60476 15.7365 9.60476 16.7725C9.60476 17.8085 8.74377 18.6495 7.68177 18.6495C6.61977 18.6495 5.75977 17.8095 5.75977 16.7725C5.75977 15.7355 6.61977 14.8965 7.68177 14.8965Z" fill="#DC0023"/>
<path d="M7.68139 15.834C8.38939 15.834 8.96339 16.394 8.96339 17.085C8.96339 17.776 8.38939 18.337 7.68139 18.337C6.97339 18.337 6.40039 17.776 6.40039 17.085C6.40039 16.394 6.97339 15.834 7.68139 15.834Z" fill="#F3EB00"/>
<path d="M7.65181 13.0342C7.40781 13.2072 7.59081 13.4852 7.57281 13.6332C7.55381 13.7932 7.47181 13.8262 7.43581 13.9562C7.38881 14.1222 7.41181 14.2932 7.44681 14.3612C7.47881 14.4232 7.50181 14.4762 7.51281 14.5242C7.51281 14.5282 7.51581 14.5312 7.51681 14.5352V14.5412C7.51681 14.5412 7.51881 14.5432 7.51881 14.5452C7.51881 14.5472 7.52081 14.5492 7.52081 14.5522V14.5572C7.52281 14.5652 7.52481 14.5732 7.52481 14.5822C7.52481 14.6682 7.45181 14.7402 7.36281 14.7402C7.27381 14.7402 7.20281 14.6692 7.20281 14.5822V14.5752C7.20281 14.5752 7.20481 14.5732 7.20481 14.5712V14.5582C7.20481 14.5582 7.20681 14.5532 7.20681 14.5512V14.5462C7.20681 14.5462 7.20881 14.5462 7.20881 14.5442V14.5422C7.20881 14.5422 7.21081 14.5382 7.21081 14.5362V14.5342C7.21081 14.5342 7.21281 14.5322 7.21281 14.5302C7.21281 14.5302 7.21281 14.5262 7.21281 14.5252C7.23881 14.4442 7.31481 14.3712 7.31381 14.2652C7.31381 14.1242 7.21581 14.0542 7.19481 14.0102C7.17981 13.9792 7.15381 13.8932 7.19081 13.8062C7.12281 13.8882 7.04681 13.9502 7.04681 14.0392C7.04681 14.1062 7.08581 14.1732 7.08181 14.2702C7.07681 14.3832 6.89081 14.4552 6.88281 14.7382C6.88281 15.1702 7.24081 15.5202 7.68381 15.5202C8.12681 15.5202 8.48581 15.1702 8.48581 14.7382C8.47881 14.4562 8.29181 14.3832 8.28681 14.2702C8.28281 14.1732 8.32081 14.1062 8.32181 14.0392C8.32181 13.9502 8.24581 13.8872 8.17781 13.8062C8.21481 13.8932 8.18981 13.9802 8.17381 14.0102C8.15081 14.0542 8.05481 14.1242 8.05381 14.2652C8.05381 14.3712 8.12981 14.4442 8.15481 14.5252C8.15481 14.5252 8.15481 14.5262 8.15481 14.5272C8.15481 14.5272 8.15481 14.5282 8.15481 14.5292C8.15481 14.5292 8.15481 14.5302 8.15481 14.5312C8.15481 14.5322 8.15681 14.5342 8.15681 14.5352C8.15681 14.5382 8.15881 14.5402 8.15881 14.5422C8.15881 14.5452 8.16081 14.5482 8.16081 14.5512C8.16081 14.5532 8.16281 14.5552 8.16381 14.5562C8.16381 14.5592 8.16381 14.5622 8.16381 14.5652C8.16381 14.5672 8.16381 14.5692 8.16381 14.5702C8.16381 14.5712 8.16381 14.5722 8.16581 14.5742V14.5812C8.16581 14.6672 8.09481 14.7392 8.00481 14.7392C7.93581 14.7392 7.87681 14.6952 7.85481 14.6352C7.85481 14.6352 7.85481 14.6352 7.85481 14.6332C7.84881 14.6172 7.84281 14.6002 7.84281 14.5812C7.84281 14.5722 7.84581 14.5632 7.84681 14.5542C7.84681 14.5532 7.84681 14.5522 7.84681 14.5512C7.84681 14.5492 7.84881 14.5482 7.84981 14.5462C7.84981 14.5442 7.84981 14.5422 7.85181 14.5412C7.85181 14.5402 7.85181 14.5372 7.85181 14.5352C7.85181 14.5342 7.85181 14.5332 7.85381 14.5312C7.85381 14.5292 7.85381 14.5272 7.85581 14.5262C7.85581 14.5262 7.85581 14.5252 7.85581 14.5242C7.87081 14.4682 7.90381 14.4172 7.91781 14.3792C7.94381 14.3112 7.99681 14.1992 7.99681 14.0562C7.99681 13.9482 7.97081 13.7072 7.83481 13.5202C7.72681 13.3702 7.65681 13.3062 7.61981 13.2102C7.60081 13.1612 7.61481 13.0972 7.65181 13.0342Z" fill="#F3EB00"/>
<path d="M5.75925 19.5879H4.15625V27.0949H5.75925V19.5879Z" fill="#F3EB00"/>
<path d="M11.2075 19.5879H9.60547V27.0949H11.2075V19.5879Z" fill="#F3EB00"/>
<path d="M6.08008 19.5879H9.28508L7.68208 20.5259" fill="#F3EB00"/>
<path d="M9.28408 20.8389H6.08008V21.4649H9.28408V20.8389Z" fill="#F3EB00"/>
<path d="M9.28408 25.2178H6.08008V25.8428H9.28408V25.2178Z" fill="#F3EB00"/>
<path d="M6.08008 26.1562H9.28508L7.68208 27.0952" fill="#F3EB00"/>
<path d="M7.68208 21.7783C8.56708 21.7783 9.28508 22.4783 9.28508 23.3423C9.28508 24.2063 8.56708 24.9063 7.68208 24.9063C6.79708 24.9063 6.08008 24.2063 6.08008 23.3423C6.08008 22.4783 6.79708 21.7783 7.68208 21.7783Z" fill="#F3EB00"/>
</svg>
