<svg width="41" height="41" viewBox="0 0 41 41" fill="none" xmlns="http://www.w3.org/2000/svg">
<path d="M6.495 8.6416H34.504C36.709 8.6416 38.5 10.4316 38.5 12.6376V28.6466C38.5 30.8516 36.71 32.6416 34.505 32.6416H6.496C4.291 32.6416 2.5 30.8516 2.5 28.6456V12.6366C2.5 10.4316 4.29 8.6416 6.495 8.6416Z" fill="#007D5D"/>
<path d="M20.5009 22.2758C19.8779 22.6938 19.2219 23.6018 17.7059 23.6018C15.5619 23.6018 14.7669 22.9888 14.1299 22.5238C14.1069 22.4548 14.6749 22.2048 14.6749 22.2048C15.5349 22.7898 16.4899 23.3068 18.2739 23.2308C16.0719 23.0418 14.5799 21.8698 14.1289 20.7898C15.3219 19.9838 17.2949 19.9998 18.9129 21.1098C18.4069 20.5008 16.7189 19.8248 15.4549 20.0138C15.2739 19.8308 15.1159 19.6028 14.9339 19.4208C16.3869 19.1098 18.4069 20.0068 19.1489 20.7438C18.3669 19.5348 17.7989 18.1658 18.7219 16.4998C18.9039 16.6678 19.1089 16.8348 19.2909 17.0018C18.5959 18.2258 18.8489 19.6558 19.4089 20.6528C18.4379 18.7208 19.2199 16.8118 20.4989 15.8848C21.7779 16.8118 22.5589 18.7208 21.5889 20.6528C22.1489 19.6558 22.4019 18.2258 21.7069 17.0018C21.8889 16.8348 22.0939 16.6678 22.2749 16.4998C23.1989 18.1648 22.6299 19.5348 21.8489 20.7438C22.5899 20.0068 24.6109 19.1088 26.0639 19.4208C25.8819 19.6038 25.7249 19.8318 25.5419 20.0138C24.2789 19.8248 22.5899 20.5008 22.0849 21.1098C23.7029 19.9998 25.6759 19.9848 26.8679 20.7898C26.4189 21.8698 24.9259 23.0418 22.7239 23.2308C24.5079 23.3068 25.4629 22.7898 26.3229 22.2048C26.3229 22.2048 26.8909 22.4548 26.8669 22.5238C26.2309 22.9888 25.4359 23.6018 23.2919 23.6018C21.7759 23.6018 21.1209 22.6938 20.4969 22.2758" fill="#E3E7EA"/>
<path d="M20.5003 22.6797C19.6073 23.4017 19.0703 23.8577 17.8873 23.8577L14.3223 23.8527C14.4133 24.0177 14.5103 24.1797 14.6143 24.3377L17.9903 24.3437C19.6113 24.3437 20.5003 23.3417 20.5003 23.3417C20.5003 23.3417 21.3893 24.3437 23.0103 24.3437L26.3863 24.3387C26.4893 24.1827 26.5863 24.0187 26.6763 23.8537L23.1133 23.8577C21.9303 23.8577 21.3933 23.4017 20.5003 22.6797Z" fill="#E3E7EA"/>
<path d="M20.4992 12.5781L20.8252 13.5441L21.8802 13.5451L21.0262 14.1421L21.3522 15.1091L20.4992 14.5111L19.6452 15.1091L19.9722 14.1421L19.1172 13.5451L20.1722 13.5441L20.4992 12.5781Z" fill="#F7CF00"/>
<path d="M14.1582 16.9004L14.8002 17.0324L15.1282 16.4854L15.1972 17.1134L15.8392 17.2444L15.2392 17.5024L15.3072 18.1304L14.8692 17.6614L14.2692 17.9174L14.5972 17.3714L14.1582 16.9004Z" fill="#F7CF00"/>
<path d="M16.3841 14.0859L16.8721 14.5089L17.4401 14.1929L17.1741 14.7709L17.6611 15.1939L17.0081 15.1279L16.7411 15.7049L16.6061 15.0869L15.9531 15.0209L16.5211 14.7039L16.3841 14.0859Z" fill="#F7CF00"/>
<path d="M26.8412 16.9004L26.1992 17.0324L25.8712 16.4854L25.8022 17.1134L25.1602 17.2444L25.7602 17.5024L25.6922 18.1304L26.1302 17.6614L26.7302 17.9174L26.4012 17.3714L26.8412 16.9004Z" fill="#F7CF00"/>
<path d="M24.6139 14.0859L24.1269 14.5089L23.5589 14.1929L23.8249 14.7709L23.3379 15.1939L23.9899 15.1279L24.2569 15.7049L24.3929 15.0869L25.0459 15.0209L24.4779 14.7039L24.6139 14.0859Z" fill="#F7CF00"/>
<path d="M14.9277 24.7725C14.9717 24.8295 15.0167 24.8855 15.0627 24.9405H25.9387C25.9847 24.8855 26.0297 24.8295 26.0737 24.7725H14.9287H14.9277ZM15.5257 25.4435C15.6437 25.5595 15.7667 25.6715 15.8927 25.7795H25.1087C25.2357 25.6715 25.3577 25.5595 25.4757 25.4435H15.5257ZM16.3217 26.1145C16.5767 26.2995 16.8457 26.4685 17.1277 26.6175H23.8747C24.1557 26.4675 24.4247 26.2995 24.6807 26.1145H16.3217ZM17.4607 26.7855C18.3547 27.2035 19.3547 27.4445 20.4107 27.4565H20.5907C21.6467 27.4435 22.6467 27.2035 23.5407 26.7855H17.4607Z" fill="#E3E7EA"/>
</svg>
