<svg width="41" height="41" viewBox="0 0 41 41" fill="none" xmlns="http://www.w3.org/2000/svg">
<path d="M24.1914 25.7627C24.1914 25.7627 24.1914 25.3667 24.5484 25.0697C24.9054 24.7707 25.1424 24.8297 25.1424 24.8297C25.1424 24.8297 25.1424 24.3347 25.4784 24.0587C25.8154 23.7827 26.0524 23.7637 26.0524 23.7637C26.0524 23.7637 26.0524 23.3877 26.2294 23.1907C26.4094 22.9917 26.6854 22.7737 26.6854 22.7737C26.6854 22.7737 26.5254 22.3177 26.7644 21.9827C27.0004 21.6457 27.1794 21.6837 27.1594 21.6247C27.1394 21.5657 27.0004 21.2677 26.9814 20.9167C26.9624 20.5597 27.2794 20.3817 27.2794 20.3817C27.2794 20.3817 26.9624 19.6887 26.9814 19.4317C27.0014 19.1737 27.1404 18.8767 27.1404 18.8767C27.1404 18.8767 26.9214 18.6587 26.8424 18.3627C26.7644 18.0657 26.8814 17.8477 26.8814 17.8477C26.8814 17.8477 26.4274 17.7097 26.3684 17.3927C26.3074 17.0767 26.4274 16.8977 26.4274 16.8977C26.4274 16.8977 26.0704 16.7787 25.9314 16.5017C25.7934 16.2247 25.7544 15.9467 25.7544 15.9467C25.7544 15.9467 25.5354 15.9467 25.1614 15.8277C24.7834 15.7087 24.8624 15.3727 24.8624 15.3727C24.8624 15.3727 24.6264 15.3327 24.3874 15.2137C24.1504 15.0957 24.1694 14.9367 24.1694 14.9367C24.1694 14.9367 23.6154 15.0367 23.2794 14.8577C22.9414 14.6797 22.9014 14.3627 22.9014 14.3627C22.9014 14.3627 22.7454 14.5197 22.5264 14.4807C22.3074 14.4407 22.2694 14.2227 22.2694 14.2227C22.2694 14.2227 21.9714 14.3417 21.6554 14.2637C21.3384 14.1837 21.3774 13.8877 21.3774 13.8877C21.3774 13.8877 21.1994 14.0267 20.7644 14.1067C20.3294 14.1857 20.2684 13.9087 20.2684 13.9087C20.2684 13.9087 19.9524 14.1657 19.5564 14.2447C19.1604 14.3247 19.0014 14.0877 19.0014 14.0877C19.0014 14.0877 18.8424 14.2257 18.4264 14.3647C18.0104 14.5037 17.9124 14.3647 17.9124 14.3647C17.9124 14.3647 17.7744 14.6807 17.4964 14.8597C17.2194 15.0367 16.8834 14.9387 16.8834 14.9387C16.8834 14.9387 16.9244 15.1757 16.5674 15.4337C16.2104 15.6907 15.9334 15.6517 15.9334 15.6517C15.9334 15.6517 15.9124 15.9477 15.6944 16.1867C15.4764 16.4247 15.0214 16.4047 15.0214 16.4047C15.0214 16.4047 15.1194 16.6227 14.9214 16.8597C14.7234 17.0957 14.5054 17.1557 14.5054 17.1557C14.5054 17.1557 14.5464 17.4517 14.4464 17.7287C14.3484 18.0067 14.0894 18.1657 14.0894 18.1657C14.0894 18.1657 14.2084 18.3037 14.1304 18.5617C14.0504 18.8187 13.8524 18.9777 13.8524 18.9777C13.8524 18.9777 14.0704 19.3347 14.0304 19.6707C13.9894 20.0067 13.6934 20.1457 13.6934 20.1457C13.6934 20.1457 13.9324 20.2457 13.9324 20.6407C13.9324 21.0377 13.8524 21.2747 13.8524 21.2747C13.8524 21.2747 14.2484 21.4517 14.3074 21.8087C14.3674 22.1667 14.1104 22.2057 14.1104 22.2057C14.1104 22.2057 14.4264 22.2647 14.5054 22.5637C14.5854 22.8587 14.5054 23.1567 14.5054 23.1567C14.5054 23.1567 14.9214 23.0957 15.0994 23.4337C15.2774 23.7707 15.0204 23.9287 15.0204 23.9287C15.0204 23.9287 15.5944 23.8897 15.6934 24.2447C15.7914 24.6017 15.6344 24.6607 15.6344 24.6607C15.6344 24.6607 15.9114 24.6397 16.0094 24.8367C16.1094 25.0367 15.8914 25.1557 15.8914 25.1557C15.8914 25.1557 16.2674 25.0367 16.6644 25.2937C17.0594 25.5487 16.9804 25.8097 16.9804 25.8097C16.9804 25.8097 17.5914 25.6577 17.9414 25.9137C18.0054 25.3857 18.0764 24.7957 18.1504 24.1747L17.2774 24.8197L18.5164 21.1037C18.5164 21.0957 18.5184 21.0877 18.5194 21.0797L15.3184 18.7917L18.7924 18.7837C18.8114 18.6267 18.8264 18.4997 18.8334 18.4477C18.9144 17.8417 19.0074 17.4857 19.4424 17.4857H19.6734L19.6784 17.4707C19.5484 17.4707 19.4414 17.4727 19.3774 17.4727C19.1144 17.4727 18.8654 17.4087 18.6914 16.8127C18.1764 15.0447 18.5974 14.7417 19.1394 14.7417C20.1554 14.7417 20.9084 14.7677 21.4354 14.7677C21.9624 14.7677 22.4914 14.9387 22.4914 15.4277C22.4914 15.9167 22.2284 16.0877 22.2284 16.0877C22.2284 16.0877 22.3334 16.4557 22.1624 16.8537C21.9974 17.2307 21.7064 17.4357 21.2094 17.4537L21.2194 17.4857H21.4344C21.6594 17.4857 21.8584 17.4857 21.8824 18.1197C21.8864 18.2047 21.9104 18.4447 21.9474 18.7837L25.5734 18.7927L22.3684 21.0837L23.6144 24.8217L22.5774 24.0557C22.6704 24.8127 22.7584 25.5337 22.8364 26.1677C23.0004 26.0507 23.1874 25.9277 23.3924 25.8287C23.9274 25.5707 24.1854 25.7697 24.1854 25.7697L24.1914 25.7627Z" fill="#206FBA"/>
<path d="M34.505 8.5H6.495C4.288 8.5 2.5 10.289 2.5 12.496V28.505C2.5 30.712 4.289 32.501 6.495 32.501H34.504C36.711 32.501 38.499 30.712 38.499 28.505V12.496C38.499 10.289 36.711 8.5 34.505 8.5ZM29.695 20.872C29.715 21.248 29.478 21.603 29.478 21.603C29.478 21.603 29.635 22.08 29.458 22.535C29.288 22.967 29.017 23.181 28.991 23.2C28.989 23.203 28.986 23.21 28.984 23.213C28.991 23.229 29.116 23.532 28.904 23.88C28.686 24.235 28.428 24.196 28.428 24.196C28.428 24.196 28.47 24.711 28.112 25.029C27.755 25.345 27.558 25.247 27.558 25.247C27.558 25.247 27.697 25.445 27.537 25.644C27.379 25.841 26.945 26.059 26.945 26.059C26.945 26.059 27.043 26.219 26.767 26.475C26.489 26.731 25.994 26.731 25.994 26.731C25.994 26.731 26.092 27.286 25.559 27.545C25.024 27.8 24.747 27.623 24.747 27.623C24.747 27.623 24.786 27.88 24.272 28.158C23.932 28.341 23.408 28.308 23.088 28.264C23.125 28.882 22.6 28.961 22.6 28.961C22.6 28.961 22.442 29.266 21.716 29.475C20.99 29.686 20.726 29.607 20.476 29.541C20.226 29.475 19.948 29.396 19.592 29.541C19.235 29.686 18.918 29.648 18.614 29.489C18.311 29.332 18.284 29.092 18.284 29.092C18.284 29.092 18.086 29.039 17.849 28.856C17.741 28.773 17.69 28.632 17.667 28.477C17.092 28.489 16.599 28.312 16.354 27.919C16.354 27.919 15.82 28.041 15.483 27.683C15.146 27.326 15.364 27.03 15.364 27.03C15.364 27.03 14.85 27.189 14.711 26.516C14.711 26.516 13.9 26.694 13.86 25.961C13.86 25.961 13.464 25.822 13.603 25.406C13.603 25.406 13.286 25.544 12.969 25.171C12.653 24.792 12.831 24.674 12.831 24.674C12.831 24.674 12.435 24.555 12.553 24.218C12.553 24.218 12.137 24.218 12.019 23.764C11.9 23.308 12.098 23.128 12.098 23.128C12.098 23.128 11.623 22.972 11.623 22.616C11.623 22.258 11.86 22.12 11.86 22.12C11.86 22.12 11.207 21.9 11.226 21.526C11.246 21.15 11.542 20.971 11.542 20.971C11.542 20.971 11.244 20.794 11.284 20.338C11.305 20.104 11.403 19.946 11.494 19.845C11.534 19.787 11.572 19.733 11.605 19.676C11.5 19.615 11.275 19.433 11.244 18.992C11.205 18.429 11.618 18.23 11.635 18.223C11.635 18.215 11.635 18.207 11.635 18.198C11.618 18.142 11.497 17.713 11.719 17.269C11.958 16.794 12.274 16.655 12.274 16.655C12.274 16.655 12.056 16.378 12.274 15.823C12.492 15.268 12.868 15.249 12.868 15.249C12.868 15.249 12.808 15.051 13.165 14.576C13.498 14.133 13.768 14.171 13.804 14.179C13.809 14.175 13.814 14.172 13.819 14.168C13.819 14.133 13.838 13.754 14.273 13.527C14.718 13.295 14.989 13.495 15.001 13.505C15.002 13.505 15.003 13.503 15.004 13.502C14.999 13.487 14.917 13.242 15.282 12.993C15.551 12.808 15.816 12.839 15.947 12.87C15.985 12.861 16.017 12.853 16.043 12.848C16.064 12.74 16.162 12.384 16.567 12.3C16.587 12.296 16.601 12.298 16.62 12.295C17.061 12.219 17.339 12.359 17.339 12.359C17.339 12.359 17.378 12.043 17.853 11.825C18.329 11.606 18.744 11.845 18.744 11.845C18.744 11.845 18.962 11.588 19.358 11.568C19.397 11.566 19.442 11.57 19.487 11.575C19.708 11.378 20.048 11.305 20.302 11.437C20.476 11.526 20.702 11.622 20.939 11.701C21.167 11.577 21.448 11.448 21.633 11.448C21.989 11.448 22.148 11.805 22.148 11.805C22.148 11.805 22.366 11.666 22.662 11.686C22.96 11.706 23.296 12.102 23.296 12.102C23.296 12.102 23.652 11.924 24.008 12.043C24.365 12.162 24.602 12.439 24.543 12.657C24.543 12.657 25.373 12.579 25.671 12.776C25.968 12.973 26.146 13.408 26.047 13.647C26.047 13.647 26.66 13.469 26.938 13.745C27.212 14.023 27.115 14.675 27.115 14.675C27.115 14.675 27.67 14.635 27.986 14.953C28.21 15.177 28.234 15.455 28.23 15.602C28.279 15.65 28.32 15.703 28.35 15.761C28.459 15.818 28.611 15.925 28.719 16.141C28.899 16.498 28.64 16.755 28.64 16.755C28.64 16.755 28.918 16.735 29.096 16.933C29.274 17.131 29.155 17.448 29.155 17.448C29.155 17.448 29.472 17.586 29.453 17.962C29.435 18.338 29.275 18.517 29.275 18.517C29.275 18.517 29.75 18.872 29.771 19.367C29.79 19.826 29.496 20.137 29.451 20.181C29.487 20.241 29.523 20.301 29.543 20.371C29.609 20.494 29.682 20.669 29.692 20.871L29.695 20.872Z" fill="#206FBA"/>
<path d="M20.1458 12.6484C20.1458 12.6484 20.0358 12.7414 19.8828 12.7954C19.9428 12.8054 19.9988 12.8224 20.0658 12.8224C20.1668 12.8224 20.2778 12.8084 20.3908 12.7904C20.2238 12.7524 20.1458 12.6484 20.1458 12.6484Z" fill="#B58FE5"/>
<path d="M19.2617 12.0568C19.2617 12.1738 19.2837 12.2748 19.3157 12.3648C19.3977 12.2818 19.5627 12.1438 19.7587 12.1618C20.0367 12.1878 20.0887 12.2798 20.0887 12.2798C20.0887 12.2798 20.2207 12.1098 20.5237 12.1348C20.8267 12.1618 20.9067 12.2938 20.9067 12.2938C20.9067 12.2938 21.0647 12.1618 21.3287 12.1888C21.4557 12.2018 21.5627 12.2538 21.6417 12.3048C22.0147 12.0568 22.6647 12.1618 22.6647 12.1618C22.6647 12.1618 22.4147 11.7798 21.9007 11.8458C21.6047 11.8838 21.2607 11.8088 20.9407 11.7018C20.7037 11.6228 20.4787 11.5268 20.3037 11.4378C20.0497 11.3058 19.7097 11.3788 19.4887 11.5758C19.3537 11.6958 19.2617 11.8618 19.2617 12.0568Z" fill="#B58FE5"/>
<path d="M27.1504 15.7148C27.1654 15.7358 27.1844 15.7498 27.1944 15.7768C27.2854 16.0128 27.2854 16.2248 27.2854 16.2248C27.2854 16.2248 27.5634 16.2918 27.6684 16.5548C27.7734 16.8198 27.7074 16.9918 27.7074 16.9918C27.7074 16.9918 27.9074 17.0678 27.9894 17.3318C28.3874 17.5868 28.7864 18.0888 28.9614 18.3508C29.1464 18.6288 29.1724 18.4178 29.1464 18.2058C29.1194 17.9948 28.9214 17.4938 28.7494 17.2828C28.5794 17.0718 28.4724 16.5448 28.4594 16.2938C28.4514 16.1678 28.4444 15.9488 28.3514 15.7618C28.3224 15.7038 28.2804 15.6508 28.2314 15.6028C28.1254 15.4978 27.9714 15.4238 27.7334 15.4238C27.5364 15.4238 27.3034 15.5238 27.1484 15.7158L27.1504 15.7148Z" fill="#B58FE5"/>
<path d="M28.8948 19.8828C28.7788 19.8828 28.6418 19.9418 28.5118 20.0228C28.5058 20.2018 28.4318 20.3178 28.2598 20.3288C28.2398 20.3298 28.2198 20.3198 28.1998 20.3158C28.1358 20.4148 28.0898 20.5208 28.0898 20.6338C28.0898 20.7458 28.1148 20.8598 28.1508 20.9738C28.1608 21.0048 28.1748 21.0358 28.1868 21.0668C28.2168 21.1478 28.2488 21.2278 28.2878 21.3068C28.3258 20.8158 28.2878 20.4758 28.2878 20.4758C28.2878 20.4758 28.3248 20.5458 28.3698 20.6368C28.3598 20.5798 28.3528 20.5408 28.3528 20.5408C28.3528 20.5408 28.8018 21.1208 28.7758 21.5718C28.7658 21.7358 28.7208 21.9058 28.6748 22.0748C28.7528 22.3568 28.7428 22.6558 28.7638 22.8648C28.7918 23.1438 28.9088 23.3138 28.9088 23.3138C28.9088 23.3138 28.9418 23.2748 28.9838 23.2128C28.9858 23.2098 28.9888 23.2028 28.9908 23.1998C29.0238 23.1498 29.0598 23.0928 29.0928 23.0098C29.1728 22.8118 29.1338 22.2318 29.2388 21.8218C29.3438 21.4138 29.5828 21.0708 29.5828 20.6608C29.5828 20.5608 29.5698 20.4628 29.5448 20.3718C29.5248 20.3018 29.4898 20.2408 29.4528 20.1818C29.3448 20.0068 29.1698 19.8828 28.8948 19.8828Z" fill="#B58FE5"/>
<path d="M12.1553 21.2358C12.1613 21.2358 12.1663 21.2378 12.1723 21.2388C12.2063 21.0358 12.2533 20.8648 12.2853 20.7588C12.2563 20.8528 12.2143 20.9858 12.1743 21.0958C12.1623 21.1288 12.1603 21.1838 12.1553 21.2358Z" fill="#B58FE5"/>
<path d="M11.9845 21.2014C12.0945 20.9064 12.3195 20.6454 12.3195 20.6454C12.3195 20.6454 12.3135 20.6654 12.3045 20.6964C12.3115 20.6754 12.3215 20.6464 12.3215 20.6464C12.3215 20.6464 12.3215 20.9794 12.3315 21.2654C12.4565 21.2634 12.5615 21.2324 12.6535 21.1844C12.6715 21.1754 12.6845 21.1614 12.7015 21.1504C12.9025 21.0224 13.0205 20.8064 13.0205 20.5814C13.0205 20.4314 12.9225 20.1894 12.8015 19.9444C12.7605 19.9594 12.7335 19.9874 12.6765 19.9874C12.5715 19.9874 12.3895 19.8714 12.3865 19.6844C12.3845 19.5864 12.4315 19.4704 12.4765 19.3794C12.4205 19.2954 12.3635 19.2104 12.3205 19.1574C12.0955 18.8794 12.0425 18.4444 11.9375 18.1934C11.8325 17.9424 11.6345 17.7314 11.6345 17.7314C11.6345 17.7314 11.6345 17.9564 11.6355 18.1974C11.6355 18.2054 11.6355 18.2134 11.6355 18.2224C11.6375 18.3964 11.6415 18.5764 11.6485 18.6824C11.6615 18.8804 11.6345 18.9324 11.6755 19.3164C11.6925 19.4854 11.6575 19.5874 11.6055 19.6764C11.5725 19.7334 11.5335 19.7874 11.4945 19.8454C11.4085 19.9714 11.3275 20.1304 11.3465 20.4654C11.3635 20.7824 11.6525 21.0764 11.9855 21.2034L11.9845 21.2014Z" fill="#B58FE5"/>
<path d="M14.9766 15.0308C14.9816 15.0308 14.9876 15.0288 14.9926 15.0288C15.0226 14.9818 15.0526 14.9348 15.0786 14.8828C15.0326 14.8918 14.9996 14.8928 14.9996 14.8928C14.9996 14.8928 14.9946 14.9538 14.9766 15.0308Z" fill="#B58FE5"/>
<path d="M13.4941 14.683C13.4941 14.937 13.6091 15.305 13.9601 15.446C14.0761 15.384 14.1881 15.367 14.1881 15.367C14.1881 15.367 14.1631 15.116 14.3071 14.892C14.4531 14.666 14.7691 14.68 14.7691 14.68C14.7691 14.68 14.6901 14.442 14.9541 14.244C15.1491 14.098 15.3141 14.11 15.3881 14.127C15.4061 14.076 15.4241 14.028 15.4411 13.98C15.4441 13.966 15.4521 13.952 15.4561 13.938C15.4611 13.923 15.4671 13.906 15.4731 13.892C15.7101 13.257 16.1711 12.85 16.1711 12.85L16.1191 12.835C16.1191 12.835 16.0871 12.84 16.0421 12.849C16.0151 12.854 15.9831 12.862 15.9461 12.871C15.7391 12.923 15.3941 13.045 15.1831 13.31C15.1281 13.379 15.0681 13.443 15.0031 13.502C15.0021 13.502 15.0011 13.504 15.0001 13.505C14.8251 13.666 14.6091 13.795 14.3121 13.891C14.1341 13.948 13.9621 14.05 13.8181 14.168C13.8131 14.172 13.8081 14.175 13.8031 14.179C13.6231 14.33 13.4941 14.509 13.4941 14.683Z" fill="#B58FE5"/>
<path d="M19.6779 17.4814H19.4469C19.0119 17.4814 18.9189 17.8384 18.8379 18.4434C18.8309 18.4954 18.8159 18.6224 18.7969 18.7794H19.2629L19.6779 17.4814Z" fill="#8C8A8C"/>
<path d="M21.2129 17.4483C21.71 17.4303 22.0009 17.2263 22.1659 16.8483C22.3369 16.4513 22.2319 16.0823 22.2319 16.0823C22.2319 16.0823 22.4949 15.9093 22.4949 15.4223C22.4949 14.9353 21.9679 14.7623 21.4389 14.7623C20.9099 14.7623 20.1589 14.7363 19.1429 14.7363C18.6009 14.7363 18.1789 15.0393 18.6949 16.8073C18.8689 17.4033 19.1179 17.4673 19.3809 17.4673C19.4449 17.4673 19.5519 17.4673 19.6819 17.4653L20.4509 15.0603L21.2139 17.4473L21.2129 17.4483Z" fill="#8C8A8C"/>
<path d="M21.9526 18.7794C21.9156 18.4404 21.8906 18.2004 21.8876 18.1154C21.8636 17.4814 21.6636 17.4814 21.4396 17.4814H21.2246L21.6386 18.7784L21.9526 18.7794Z" fill="#8C8A8C"/>
<path d="M18.5225 21.0752C18.5225 21.0832 18.5205 21.0912 18.5195 21.0992L18.5265 21.0782L18.5225 21.0752Z" fill="#8C8A8C"/>
<path d="M23.0562 27.9406C23.0372 27.7786 23.0102 27.5546 22.9782 27.2876C22.9392 26.9686 22.8932 26.5896 22.8412 26.1616C22.7632 25.5276 22.6752 24.8076 22.5822 24.0496L20.4502 22.4746L18.1532 24.1706C18.0792 24.7916 18.0082 25.3806 17.9442 25.9096C17.8782 26.4516 17.8212 26.9126 17.7772 27.2616C17.7322 27.6156 17.7012 27.8546 17.6902 27.9086L17.6882 27.9186C17.6522 28.0846 17.6372 28.2916 17.6642 28.4776C17.6872 28.6326 17.7382 28.7736 17.8462 28.8566C18.0832 29.0396 18.2812 29.0926 18.2812 29.0926C18.2812 29.0926 18.3082 29.3326 18.6112 29.4896C18.9142 29.6486 19.2322 29.6866 19.5892 29.5416C19.9452 29.3966 20.2232 29.4756 20.4732 29.5416C20.7232 29.6076 20.9872 29.6866 21.7132 29.4756C22.4392 29.2666 22.5972 28.9616 22.5972 28.9616C22.5972 28.9616 23.1222 28.8826 23.0852 28.2646C23.0852 28.2496 23.0872 28.2386 23.0852 28.2226C23.0802 28.1736 23.0682 28.0696 23.0532 27.9396L23.0562 27.9406Z" fill="#8C8A8C"/>
<path d="M27.8643 19.8813C27.8783 19.6433 28.0093 19.4993 28.0093 19.4993C28.0093 19.4993 27.9973 19.4903 27.9853 19.4813C27.9753 19.4883 27.9693 19.4953 27.9583 19.5023C27.8253 19.5813 27.5883 19.5153 27.4963 19.6873C27.4053 19.8583 27.2463 19.9773 27.2463 19.9773C27.2463 19.9773 27.1933 19.4493 27.4293 19.1853C27.6173 18.9773 27.7233 18.9183 27.8363 18.9153C27.8463 18.8183 27.8583 18.7483 27.8693 18.7043C27.7123 18.4073 27.4193 17.8653 27.4113 17.5483C27.4053 17.5343 27.3953 17.5223 27.3913 17.5083C27.3383 17.3103 27.4573 17.0983 27.4573 17.0983C27.4573 17.0983 27.3283 17.0453 27.2173 16.9583C27.3053 17.3943 27.3013 17.9173 26.9023 18.1683C26.9023 18.1683 26.9813 17.6933 26.9693 17.3113C26.9563 16.9493 26.7483 16.5643 26.7143 16.2333C26.6883 16.2063 26.6603 16.1803 26.6393 16.1483C26.5203 15.9633 26.5593 15.7383 26.5593 15.7383C26.5593 15.7383 26.5413 15.7303 26.5233 15.7213C26.5273 15.7313 26.5303 15.7443 26.5343 15.7533C26.5993 15.8983 26.4543 16.3473 26.3083 16.5053C26.3083 16.5053 26.2173 16.4533 26.2433 16.2943C26.2673 16.1353 25.9383 15.8063 25.9263 15.6613C25.9143 15.5363 26.0203 15.4353 26.1093 15.3913C26.0213 15.2313 26.0863 15.0533 26.0863 15.0533C26.0863 15.0533 25.8743 15.0143 25.6763 14.8553C25.4783 14.6973 25.4783 14.4593 25.4783 14.4593C25.4783 14.4593 25.4333 14.4593 25.3703 14.4513C25.3763 14.5193 25.3803 14.5903 25.3713 14.6723C25.3303 15.0693 25.1613 15.3193 25.1613 15.3193C25.1613 15.3193 25.0533 15.1883 25.0673 15.0163C25.0803 14.8453 25.1063 14.7783 24.8833 14.6593C24.6973 14.5613 24.7563 14.3333 24.9123 14.2023C24.8273 14.0893 24.8183 13.9833 24.8183 13.9833C24.8183 13.9833 24.6333 14.0103 24.3813 13.8903C24.3383 13.8703 24.3073 13.8443 24.2743 13.8183C24.1703 14.3953 23.6173 14.5403 23.6173 14.5403C23.6043 14.3803 23.8013 14.2093 23.8013 14.0373C23.8013 13.9113 23.7663 13.7213 23.7943 13.5713C23.7293 13.5693 23.6583 13.5603 23.5773 13.5333C23.2993 13.4403 23.3133 13.2173 23.3133 13.2173C23.3163 13.3433 23.2673 13.5073 23.1423 13.6943C22.9303 14.0113 22.6003 14.1173 22.6003 14.1173L22.6393 13.9723C22.6803 13.8273 22.8383 13.6813 22.7713 13.5623C22.7303 13.4883 22.7393 13.3173 22.7773 13.1823C22.5943 13.0823 22.5343 12.9263 22.5343 12.9263C22.5343 12.9263 22.2833 13.0193 22.0863 12.9653C22.0613 12.9583 22.0413 12.9443 22.0183 12.9343C22.0733 13.0293 22.1123 13.1323 22.1123 13.2463C22.1123 13.8273 21.7423 13.9323 21.7423 13.9323C21.7423 13.9323 21.9013 13.6413 21.8223 13.2733C21.7663 13.0143 21.5063 12.8353 21.2653 12.8183C21.2993 12.9023 21.3203 12.9863 21.3203 13.0613C21.3203 13.3383 21.2273 13.9583 20.6203 13.9583C20.6203 13.9583 20.9633 13.7213 20.9633 13.2593C20.9633 13.0183 20.8863 12.8493 20.7903 12.7393C20.7143 12.7753 20.6173 12.8093 20.5033 12.8093C20.4603 12.8093 20.4263 12.8003 20.3913 12.7923C20.2783 12.8103 20.1673 12.8243 20.0663 12.8243C19.9993 12.8243 19.9433 12.8073 19.8833 12.7973C19.8793 12.7983 19.8763 12.8003 19.8723 12.8023C19.9583 12.9023 20.0053 13.0693 19.9593 13.2993C19.8803 13.7093 19.6033 13.8543 19.6033 13.8543C19.6033 13.8543 19.5383 13.6953 19.5903 13.5633C19.6433 13.4313 19.6563 13.3393 19.4453 13.1683C19.2823 13.0343 19.3293 12.8683 19.4713 12.7723C19.3613 12.7053 19.2993 12.6113 19.2993 12.6113C19.2993 12.6113 19.2063 12.8623 18.8893 12.9413C18.5733 13.0203 18.4803 12.8223 18.4803 12.8223C18.4803 12.8223 18.3913 13.0133 18.1523 13.1113C18.3303 13.0863 18.4463 13.2163 18.4813 13.4193C18.5203 13.6433 18.1903 14.3033 18.1903 14.3033C18.1903 14.3033 18.0453 14.1713 18.1103 13.9733C18.1773 13.7763 18.0453 13.6433 17.9263 13.5253C17.8183 13.4163 17.8823 13.2243 18.0543 13.1413C17.8403 13.1923 17.7273 13.1133 17.7273 13.1133C17.7273 13.1133 17.7093 13.2473 17.4513 13.3983C17.5223 13.5193 17.6113 13.7183 17.5953 13.9743C17.5683 14.3833 17.2793 14.5543 17.2793 14.5543C17.2793 14.5543 17.3593 14.1063 17.1613 13.9603C17.0183 13.8543 16.9953 13.6463 17.0373 13.4833C16.9933 13.4713 16.9633 13.4563 16.9633 13.4563C16.9633 13.4563 16.9773 13.6683 16.6863 13.8273C16.6413 13.8523 16.6053 13.8613 16.5663 13.8753C16.6053 13.9833 16.6293 14.1263 16.6063 14.3163C16.5543 14.7523 16.3163 14.8043 16.3163 14.8043C16.3163 14.8043 16.3823 14.4363 16.2643 14.3433C16.2013 14.2953 16.1563 14.2443 16.1293 14.1803C16.0963 14.2233 16.0563 14.2663 16.0003 14.3033C15.9433 14.3423 15.8873 14.3663 15.8353 14.3823C15.8663 14.4173 15.8933 14.4563 15.9083 14.5013C15.9733 14.6993 15.8283 15.4253 15.7103 15.5833L15.6313 15.3193C15.6053 15.2263 15.6443 14.8713 15.3403 14.7913C15.3273 14.7883 15.3213 14.7813 15.3103 14.7773C15.2143 14.8463 15.1323 14.8773 15.0753 14.8883C15.0483 14.9393 15.0183 14.9863 14.9893 15.0343C15.1123 15.0493 15.2203 15.1273 15.2333 15.2943C15.2603 15.6243 14.9833 16.2313 14.9833 16.2313C14.9833 16.2313 14.9033 16.0193 14.8903 15.9283C14.8773 15.8353 14.7973 15.5453 14.6263 15.4803C14.6203 15.4783 14.6223 15.4723 14.6173 15.4703C14.5693 15.4913 14.5283 15.5043 14.4993 15.5103C14.5533 15.6053 14.6023 15.7683 14.5333 16.0483C14.4153 16.5363 14.2693 17.1423 14.3623 17.5523C14.3623 17.5523 14.0323 17.1563 14.0713 16.7603C14.1023 16.4533 14.2793 16.2183 14.3153 15.9863C14.1333 16.2163 13.9783 16.1923 13.9783 16.1923C13.9783 16.1923 14.0443 16.4153 13.8993 16.6533C13.8943 16.6623 13.8873 16.6653 13.8823 16.6733C13.9383 17.0193 13.9813 17.4273 13.9523 17.6713C13.9133 18.0013 13.5833 18.2643 13.5833 18.2643C13.5833 18.2643 13.7813 17.8423 13.7283 17.3413C13.7103 17.1723 13.7233 16.9883 13.7433 16.8193C13.6383 16.8923 13.5433 16.9043 13.5433 16.9043C13.5433 16.9043 13.6613 17.1153 13.5563 17.3923C13.5083 17.5193 13.4323 17.5923 13.3643 17.6393C13.5133 17.6553 13.6313 17.8013 13.6103 18.0143C13.5833 18.2783 13.3073 18.8063 13.3073 18.8063C13.3073 18.8063 13.2543 18.7013 13.2143 18.5693C13.1813 18.4573 13.2983 18.3883 13.2653 18.2403C13.1843 18.5013 12.9363 18.5013 12.9363 18.5013C12.9363 18.5013 13.1473 18.6853 13.0943 18.9233C13.0843 18.9703 13.0633 18.9913 13.0483 19.0283C13.4813 19.0653 13.6773 19.6763 13.6773 19.6763C13.6773 19.6763 13.4923 19.6763 13.3993 19.5833C13.3063 19.4903 13.1223 19.4783 13.0033 19.5563C12.9983 19.5593 12.9963 19.5593 12.9913 19.5613C13.0143 19.7303 12.9643 19.8873 12.7973 19.9503C12.9193 20.1953 13.0163 20.4363 13.0163 20.5873C13.0163 20.8123 12.8983 21.0283 12.6973 21.1563C13.0993 24.0433 15.0983 26.3413 17.7753 27.2663C17.8193 26.9173 17.8763 26.4563 17.9423 25.9143C17.5923 25.6573 16.9813 25.8103 16.9813 25.8103C16.9813 25.8103 17.0603 25.5493 16.6653 25.2943C16.2693 25.0373 15.8923 25.1563 15.8923 25.1563C15.8923 25.1563 16.1103 25.0383 16.0103 24.8373C15.9123 24.6403 15.6353 24.6613 15.6353 24.6613C15.6353 24.6613 15.7923 24.6023 15.6943 24.2453C15.5963 23.8903 15.0213 23.9293 15.0213 23.9293C15.0213 23.9293 15.2783 23.7723 15.1003 23.4343C14.9223 23.0963 14.5063 23.1573 14.5063 23.1573C14.5063 23.1573 14.5863 22.8593 14.5063 22.5643C14.4273 22.2653 14.1113 22.2063 14.1113 22.2063C14.1113 22.2063 14.3683 22.1663 14.3083 21.8093C14.2493 21.4523 13.8533 21.2753 13.8533 21.2753C13.8533 21.2753 13.9333 21.0393 13.9333 20.6413C13.9333 20.2463 13.6943 20.1463 13.6943 20.1463C13.6943 20.1463 13.9913 20.0073 14.0313 19.6713C14.0703 19.3353 13.8533 18.9783 13.8533 18.9783C13.8533 18.9783 14.0513 18.8193 14.1313 18.5623C14.2103 18.3043 14.0903 18.1663 14.0903 18.1663C14.0903 18.1663 14.3483 18.0073 14.4473 17.7293C14.5473 17.4523 14.5063 17.1563 14.5063 17.1563C14.5063 17.1563 14.7243 17.0963 14.9223 16.8603C15.1203 16.6223 15.0223 16.4053 15.0223 16.4053C15.0223 16.4053 15.4773 16.4253 15.6953 16.1873C15.9133 15.9483 15.9343 15.6523 15.9343 15.6523C15.9343 15.6523 16.2113 15.6913 16.5683 15.4343C16.9253 15.1773 16.8843 14.9393 16.8843 14.9393C16.8843 14.9393 17.2203 15.0373 17.4973 14.8603C17.7753 14.6823 17.9133 14.3653 17.9133 14.3653C17.9133 14.3653 18.0113 14.5043 18.4273 14.3653C18.8433 14.2263 19.0023 14.0883 19.0023 14.0883C19.0023 14.0883 19.1613 14.3253 19.5573 14.2453C19.9533 14.1663 20.2693 13.9093 20.2693 13.9093C20.2693 13.9093 20.3293 14.1863 20.7653 14.1073C21.1993 14.0273 21.3783 13.8883 21.3783 13.8883C21.3783 13.8883 21.3393 14.1843 21.6563 14.2643C21.9723 14.3433 22.2703 14.2233 22.2703 14.2233C22.2703 14.2233 22.3083 14.4423 22.5273 14.4813C22.7463 14.5203 22.9023 14.3633 22.9023 14.3633C22.9023 14.3633 22.9413 14.6793 23.2803 14.8583C23.6163 15.0363 24.1703 14.9373 24.1703 14.9373C24.1703 14.9373 24.1503 15.0963 24.3883 15.2143C24.6273 15.3333 24.8633 15.3733 24.8633 15.3733C24.8633 15.3733 24.7843 15.7093 25.1623 15.8283C25.5363 15.9473 25.7553 15.9473 25.7553 15.9473C25.7553 15.9473 25.7943 16.2253 25.9323 16.5023C26.0713 16.7793 26.4283 16.8983 26.4283 16.8983C26.4283 16.8983 26.3083 17.0763 26.3693 17.3933C26.4283 17.7103 26.8823 17.8483 26.8823 17.8483C26.8823 17.8483 26.7653 18.0673 26.8433 18.3633C26.9223 18.6603 27.1413 18.8773 27.1413 18.8773C27.1413 18.8773 27.0023 19.1743 26.9823 19.4323C26.9623 19.6893 27.2803 20.3823 27.2803 20.3823C27.2803 20.3823 26.9643 20.5603 26.9823 20.9173C27.0023 21.2683 27.1413 21.5653 27.1603 21.6253C27.1803 21.6843 27.0013 21.6463 26.7653 21.9833C26.5263 22.3183 26.6863 22.7743 26.6863 22.7743C26.6863 22.7743 26.4093 22.9923 26.2303 23.1913C26.0533 23.3883 26.0533 23.7643 26.0533 23.7643C26.0533 23.7643 25.8163 23.7843 25.4793 24.0593C25.1433 24.3363 25.1433 24.8303 25.1433 24.8303C25.1433 24.8303 24.9063 24.7713 24.5493 25.0703C24.1923 25.3663 24.1923 25.7633 24.1923 25.7633C24.1923 25.7633 23.9343 25.5643 23.3993 25.8223C23.1933 25.9213 23.0073 26.0443 22.8433 26.1613C22.8953 26.5893 22.9423 26.9693 22.9803 27.2873C25.7503 26.3613 27.8063 23.9703 28.1533 20.9753C28.1173 20.8603 28.0923 20.7463 28.0923 20.6353C28.0923 20.5223 28.1383 20.4163 28.2023 20.3173C28.0243 20.2883 27.8553 20.0963 27.8663 19.8813H27.8643Z" fill="white"/>
<path d="M15.4436 13.9805C15.4256 14.0285 15.4086 14.0765 15.3906 14.1275C15.4166 14.1335 15.4316 14.1395 15.4316 14.1395C15.4316 14.1395 15.4246 14.0685 15.4436 13.9805Z" fill="white"/>
<path d="M17.69 27.9197L17.692 27.9097C14.905 26.8667 12.878 24.2797 12.653 21.1867C12.561 21.2337 12.455 21.2657 12.331 21.2677C12.335 21.3797 12.34 21.4857 12.348 21.5607C12.375 21.8237 12.942 22.6967 13.021 23.1287C13.1 23.5657 12.77 24.0277 12.77 24.0277C12.77 24.0277 12.809 23.5247 12.77 23.2617C12.748 23.1137 12.548 22.7577 12.378 22.3897C12.48 22.6727 12.575 22.9667 12.586 23.1837C12.599 23.4597 12.401 23.6307 12.401 23.6307C12.401 23.6307 12.442 23.2227 12.176 22.7337C11.971 22.3547 11.885 21.7827 11.926 21.4147C11.934 21.3437 11.96 21.2737 11.986 21.2037C11.653 21.0767 11.364 20.7827 11.347 20.4657C11.328 20.1307 11.409 19.9727 11.495 19.8457C11.404 19.9467 11.306 20.1057 11.285 20.3387C11.246 20.7947 11.543 20.9717 11.543 20.9717C11.543 20.9717 11.246 21.1497 11.227 21.5267C11.207 21.9007 11.861 22.1207 11.861 22.1207C11.861 22.1207 11.624 22.2587 11.624 22.6167C11.624 22.9727 12.099 23.1287 12.099 23.1287C12.099 23.1287 11.901 23.3077 12.02 23.7647C12.138 24.2187 12.554 24.2187 12.554 24.2187C12.436 24.5557 12.832 24.6747 12.832 24.6747C12.832 24.6747 12.654 24.7927 12.97 25.1717C13.286 25.5447 13.604 25.4067 13.604 25.4067C13.465 25.8227 13.861 25.9617 13.861 25.9617C13.902 26.6947 14.712 26.5167 14.712 26.5167C14.851 27.1897 15.365 27.0307 15.365 27.0307C15.365 27.0307 15.147 27.3267 15.484 27.6837C15.821 28.0417 16.355 27.9197 16.355 27.9197C16.6 28.3127 17.092 28.4897 17.668 28.4777C17.64 28.2917 17.656 28.0847 17.692 27.9187L17.69 27.9197Z" fill="white"/>
<path d="M15.1859 13.3092C15.3979 13.0442 15.7419 12.9232 15.9489 12.8702C15.8179 12.8392 15.5529 12.8082 15.2839 12.9932C14.9189 13.2422 14.9999 13.4862 15.0059 13.5022C15.0709 13.4422 15.1309 13.3792 15.1859 13.3102V13.3092Z" fill="white"/>
<path d="M11.6335 17.7326C11.6335 17.7326 11.8315 17.9436 11.9365 18.1946C12.0415 18.4446 12.0955 18.8806 12.3195 19.1586C12.3625 19.2116 12.4195 19.2966 12.4755 19.3806C12.5165 19.2976 12.5575 19.2356 12.5575 19.2356C12.5575 19.2356 12.3865 19.0646 12.4355 18.7966C12.4545 18.7026 12.4885 18.6356 12.5235 18.5786C12.4565 18.5586 12.3825 18.5226 12.2935 18.4426C11.9225 18.1136 12.0155 17.5716 12.0155 17.5716C12.0155 17.5716 12.0945 17.6516 12.1865 17.8106C12.2505 17.9196 12.4395 17.9876 12.5985 18.0036C12.6015 17.9816 12.5995 17.9616 12.6055 17.9386C12.6705 17.6746 12.9615 17.5956 12.9615 17.5956C12.9615 17.5956 12.8565 17.4106 12.9475 17.1336C13.0415 16.8566 13.2915 16.7906 13.2915 16.7906C13.2915 16.7906 13.2725 16.7356 13.2685 16.6496C13.0275 16.5246 12.9085 16.3486 12.8325 16.1856C12.7415 15.9876 12.6875 15.7376 12.6875 15.7376C12.6875 15.7376 12.9645 16.0016 13.1215 16.0546C13.2445 16.0946 13.4595 16.0286 13.5945 16.0936C13.6675 16.0666 13.7255 16.0656 13.7255 16.0656C13.7255 16.0656 13.6465 15.8146 13.7785 15.6036C13.8265 15.5276 13.8925 15.4806 13.9585 15.4456C13.6065 15.3036 13.4925 14.9356 13.4925 14.6826C13.4925 14.5086 13.6215 14.3296 13.8015 14.1786C13.7655 14.1716 13.4945 14.1336 13.1625 14.5756C12.8055 15.0506 12.8655 15.2486 12.8655 15.2486C12.8655 15.2486 12.4895 15.2686 12.2715 15.8226C12.0535 16.3776 12.2715 16.6546 12.2715 16.6546C12.2715 16.6546 11.9555 16.7936 11.7165 17.2686C11.4945 17.7136 11.6145 18.1416 11.6325 18.1976C11.6305 17.9566 11.6315 17.7316 11.6315 17.7316L11.6335 17.7326Z" fill="white"/>
<path d="M15.0023 13.5042C14.9903 13.4942 14.7183 13.2952 14.2743 13.5262C13.8393 13.7532 13.8213 14.1322 13.8203 14.1672C13.9643 14.0492 14.1373 13.9472 14.3143 13.8902C14.6113 13.7942 14.8273 13.6652 15.0023 13.5042Z" fill="white"/>
<path d="M12.1541 21.4173C12.1601 21.3573 12.1631 21.2963 12.1731 21.2403C12.1671 21.2403 12.1621 21.2383 12.1561 21.2373C12.1521 21.2913 12.1511 21.3493 12.1541 21.4173Z" fill="white"/>
<path d="M27.7083 17.8749C27.7083 17.8749 27.6862 17.8599 27.6562 17.8369C27.6672 17.8609 27.6772 17.8849 27.6892 17.9099C27.6962 17.8999 27.7083 17.8749 27.7083 17.8749Z" fill="white"/>
<path d="M11.6488 18.6836C11.6408 18.5776 11.6378 18.3976 11.6358 18.2236C11.6198 18.2316 11.2058 18.4296 11.2448 18.9926C11.2748 19.4336 11.5008 19.6156 11.6058 19.6766C11.6578 19.5886 11.6938 19.4866 11.6758 19.3166C11.6348 18.9336 11.6618 18.8816 11.6488 18.6826V18.6836Z" fill="white"/>
<path d="M16.6238 12.5849C16.5708 12.7029 16.5708 12.8619 16.6628 13.0069C16.7078 13.0779 16.7208 13.1159 16.7288 13.1559C16.8028 13.1649 16.8448 13.1909 16.8448 13.1909C16.8448 13.1909 16.9108 12.9129 17.1748 12.8079C17.4388 12.7029 17.5578 12.7679 17.5578 12.7679C17.5578 12.7679 17.5868 12.7179 17.6468 12.6599C17.6268 12.2639 18.0498 11.8859 18.0498 11.8859C18.0498 11.8859 18.1028 12.0569 18.0228 12.2689C17.9908 12.3549 18.0108 12.4209 18.0468 12.4799C18.2598 12.4569 18.3758 12.5309 18.3758 12.5309C18.3758 12.5309 18.5218 12.3199 18.7718 12.2809C19.0218 12.2419 19.2608 12.4269 19.2608 12.4269C19.2608 12.4269 19.2838 12.3999 19.3178 12.3649C19.2858 12.2749 19.2638 12.1749 19.2638 12.0569C19.2638 11.8619 19.3548 11.6959 19.4898 11.5759C19.4448 11.5709 19.3998 11.5669 19.3608 11.5689C18.9648 11.5889 18.7468 11.8459 18.7468 11.8459C18.7468 11.8459 18.3318 11.6069 17.8558 11.8259C17.3808 12.0439 17.3418 12.3599 17.3418 12.3599C17.3418 12.3599 17.0638 12.2199 16.6228 12.2959C16.6228 12.2959 16.6758 12.4669 16.6228 12.5859L16.6238 12.5849Z" fill="white"/>
<path d="M16.174 12.849C16.174 12.849 15.713 13.257 15.476 13.891C15.471 13.906 15.465 13.922 15.459 13.937C15.486 13.85 15.539 13.755 15.656 13.69C15.92 13.545 16.052 13.597 16.052 13.597C16.052 13.597 16.055 13.484 16.239 13.339C16.02 12.851 16.62 12.295 16.622 12.293C16.603 12.296 16.589 12.294 16.569 12.298C16.164 12.382 16.066 12.738 16.045 12.846C16.091 12.837 16.122 12.832 16.122 12.832L16.174 12.847V12.849Z" fill="white"/>
<path d="M28.7494 17.2837C28.9224 17.4947 29.1204 17.9957 29.1464 18.2067C29.1714 18.4187 29.1464 18.6297 28.9614 18.3517C28.7864 18.0897 28.3874 17.5887 27.9894 17.3327C27.9954 17.3527 28.0064 17.3657 28.0104 17.3877C28.0764 17.7047 27.9844 17.7837 27.9844 17.7837C27.9844 17.7837 28.2474 17.8887 28.2614 18.1927C28.2744 18.4947 28.1564 18.5607 28.1564 18.5607C28.1564 18.5607 28.3014 18.7027 28.3914 18.8657C28.4334 18.8527 28.4624 18.8307 28.5134 18.8277C28.7354 18.8137 28.9474 19.0387 29.0814 19.2097C29.2114 19.3807 29.2784 19.6187 29.2784 19.6187C29.2784 19.6187 29.0944 19.6187 29.0274 19.5137C28.9744 19.4287 28.6324 19.4577 28.3684 19.3767C28.3334 19.4327 28.3004 19.4707 28.3004 19.4707C28.3004 19.4707 28.4994 19.7097 28.5264 19.9467C28.5294 19.9797 28.5134 19.9937 28.5134 20.0227C28.6434 19.9417 28.7804 19.8827 28.8964 19.8827C29.1714 19.8827 29.3454 20.0057 29.4534 20.1817C29.4984 20.1377 29.7924 19.8277 29.7734 19.3677C29.7524 18.8727 29.2774 18.5177 29.2774 18.5177C29.2774 18.5177 29.4374 18.3397 29.4554 17.9627C29.4754 17.5867 29.1574 17.4487 29.1574 17.4487C29.1574 17.4487 29.2764 17.1317 29.0984 16.9337C28.9204 16.7357 28.6424 16.7557 28.6424 16.7557C28.6424 16.7557 28.9004 16.4987 28.7214 16.1417C28.6134 15.9257 28.4614 15.8187 28.3524 15.7617C28.4464 15.9487 28.4534 16.1677 28.4604 16.2937C28.4734 16.5447 28.5794 17.0717 28.7504 17.2827L28.7494 17.2837Z" fill="white"/>
<path d="M13.2178 17.7052C13.2178 17.7052 13.2248 17.7212 13.2288 17.7322C13.2318 17.7222 13.2338 17.7082 13.2368 17.7002C13.2298 17.7012 13.2168 17.7052 13.2168 17.7052H13.2178Z" fill="white"/>
<path d="M22.6654 12.1622C22.6654 12.1622 22.0154 12.0572 21.6424 12.3052C21.7274 12.3602 21.7794 12.4132 21.7794 12.4132C21.7794 12.4132 22.0564 12.2672 22.2934 12.3602C22.5324 12.4532 22.6094 12.5982 22.6094 12.5982C22.6094 12.5982 22.6864 12.5722 22.8114 12.5732C22.7214 12.2582 22.8634 11.9112 22.8634 11.9112C22.8634 11.9112 22.9854 12.0302 22.9564 12.1502C22.9314 12.2682 22.9974 12.2682 23.1154 12.3472C23.2334 12.4262 23.4184 12.4652 23.4314 12.6632C23.4354 12.7222 23.4134 12.7852 23.3754 12.8382C23.3994 12.8882 23.4044 12.9272 23.4044 12.9272C23.4044 12.9272 23.4424 12.9172 23.4944 12.9092C23.5724 12.5072 24.0144 12.1362 24.0144 12.1362C24.0274 12.1362 24.0664 12.2552 24.0274 12.3612C23.9864 12.4662 23.9354 12.5452 23.9624 12.6772C23.9804 12.7772 24.0664 12.9052 24.0754 13.0572C24.1894 13.1632 24.1984 13.2842 24.1984 13.2842C24.1984 13.2842 24.3804 13.2592 24.5984 13.3482C24.6244 13.2602 24.6654 13.1772 24.7274 13.1262C24.9764 12.9282 25.4144 12.9552 25.7444 13.0742C25.7444 13.0742 25.6504 13.2852 25.4674 13.2722C25.2944 13.2592 25.3454 13.5832 24.9804 13.6812C25.0434 13.6692 25.1724 13.6672 25.3574 13.7972C25.6224 13.9812 25.6224 14.2852 25.6224 14.2852C25.6224 14.2852 25.7144 14.2542 25.8404 14.2872C25.9484 14.0972 26.2034 13.9442 26.4554 13.9442C26.7714 13.9442 26.9704 14.0622 26.9704 14.0622C26.9704 14.0622 26.9564 14.1812 26.7194 14.1942C26.5184 14.2062 26.4644 14.5242 26.2154 14.6432C26.2544 14.7642 26.2304 14.8532 26.2304 14.8532C26.2304 14.8532 26.4674 14.8672 26.6654 15.0512C26.8634 15.2352 26.8244 15.5522 26.8244 15.5522C26.8244 15.5522 26.8994 15.5502 26.9834 15.5802C26.9924 15.5712 27.0094 15.5542 27.0094 15.5542C27.0094 15.5542 27.0044 15.5792 27.0024 15.5902C27.0564 15.6122 27.1074 15.6542 27.1494 15.7152C27.3044 15.5222 27.5374 15.4232 27.7344 15.4232C27.9724 15.4232 28.1264 15.4982 28.2324 15.6022C28.2364 15.4562 28.2134 15.1782 27.9884 14.9532C27.6724 14.6362 27.1174 14.6752 27.1174 14.6752C27.1174 14.6752 27.2144 14.0232 26.9404 13.7452C26.6624 13.4682 26.0494 13.6472 26.0494 13.6472C26.1474 13.4082 25.9694 12.9732 25.6734 12.7762C25.3754 12.5792 24.5454 12.6572 24.5454 12.6572C24.6044 12.4392 24.3674 12.1622 24.0104 12.0432C23.6534 11.9242 23.2984 12.1022 23.2984 12.1022C23.2984 12.1022 22.9624 11.7062 22.6644 11.6862C22.3684 11.6662 22.1504 11.8052 22.1504 11.8052C22.1504 11.8052 21.9904 11.4482 21.6354 11.4482C21.4504 11.4482 21.1694 11.5772 20.9414 11.7012C21.2614 11.8082 21.6054 11.8832 21.9014 11.8452C22.4154 11.7792 22.6654 12.1622 22.6654 12.1622Z" fill="white"/>
<path d="M28.7646 22.8654C28.7446 22.6564 28.7546 22.3574 28.6756 22.0754C28.5946 22.3694 28.5086 22.6604 28.5916 22.9044C28.5916 22.9044 28.4016 22.6444 28.3966 22.2014C28.2936 22.4724 28.1776 22.7184 28.1176 22.9044C27.9986 23.2744 27.9476 23.9344 27.9476 23.9344C27.9476 23.9344 27.8156 23.5244 27.8426 23.1674C27.8686 22.8124 28.2126 22.0474 28.2776 21.4664C28.2836 21.4084 28.2846 21.3624 28.2886 21.3084C28.2496 21.2294 28.2176 21.1494 28.1876 21.0684C28.0046 24.2454 25.9246 26.9064 23.0566 27.9404C23.0716 28.0704 23.0836 28.1744 23.0886 28.2234C23.0906 28.2394 23.0876 28.2504 23.0886 28.2654C23.4086 28.3084 23.9326 28.3414 24.2726 28.1594C24.7866 27.8814 24.7476 27.6244 24.7476 27.6244C24.7476 27.6244 25.0246 27.8014 25.5596 27.5464C26.0936 27.2864 25.9946 26.7324 25.9946 26.7324C25.9946 26.7324 26.4896 26.7324 26.7676 26.4764C27.0446 26.2204 26.9456 26.0604 26.9456 26.0604C26.9456 26.0604 27.3796 25.8424 27.5376 25.6454C27.6976 25.4464 27.5586 25.2484 27.5586 25.2484C27.5586 25.2484 27.7556 25.3464 28.1126 25.0304C28.4706 24.7134 28.4286 24.1974 28.4286 24.1974C28.4286 24.1974 28.6866 24.2364 28.9046 23.8814C29.1166 23.5324 28.9906 23.2304 28.9846 23.2144C28.9426 23.2764 28.9096 23.3154 28.9096 23.3154C28.9096 23.3154 28.7926 23.1444 28.7646 22.8654Z" fill="white"/>
<path d="M29.2382 21.8221C29.1332 22.2321 29.1722 22.8121 29.0922 23.0101C29.0592 23.0931 29.0232 23.1511 28.9902 23.2001C29.0162 23.1801 29.2872 22.9661 29.4572 22.5351C29.6342 22.0801 29.4772 21.6031 29.4772 21.6031C29.4772 21.6031 29.7132 21.2491 29.6942 20.8721C29.6832 20.6701 29.6112 20.4951 29.5452 20.3721C29.5702 20.4631 29.5832 20.5611 29.5832 20.6611C29.5832 21.0711 29.3432 21.4141 29.2382 21.8221Z" fill="white"/>
<path d="M22.3733 21.0785L25.5783 18.7875L21.9523 18.7795L21.6383 18.7785L21.2243 17.4815L21.2133 17.4485L20.4513 15.0625L19.6823 17.4665L19.6773 17.4815L19.2623 18.7785L18.7963 18.7795L15.3223 18.7875L18.5233 21.0755L18.5273 21.0785L18.5203 21.1005L17.2813 24.8165L18.1543 24.1715L20.4513 22.4755L22.5823 24.0505L23.6203 24.8165L22.3733 21.0785Z" fill="white"/>
<path d="M12.9946 19.5573C12.9796 19.4513 12.9496 19.3463 12.9016 19.2753C12.9016 19.2753 12.9886 19.1773 13.0526 19.0243C13.0686 18.9863 13.0886 18.9663 13.0986 18.9193C13.1516 18.6823 12.9406 18.4973 12.9406 18.4973C12.9406 18.4973 13.1886 18.4973 13.2696 18.2363C13.2696 18.2353 13.2706 18.2353 13.2706 18.2343C13.3376 18.0093 13.2556 17.7943 13.2286 17.7333C13.2236 17.7233 13.2176 17.7063 13.2176 17.7063C13.2176 17.7063 13.2306 17.7023 13.2376 17.7013C13.2596 17.6953 13.3076 17.6783 13.3696 17.6363C13.4376 17.5903 13.5126 17.5163 13.5616 17.3893C13.6666 17.1123 13.5486 16.9013 13.5486 16.9013C13.5486 16.9013 13.6436 16.8893 13.7486 16.8163C13.7966 16.7833 13.8436 16.7373 13.8886 16.6703C13.8936 16.6623 13.9006 16.6583 13.9056 16.6503C14.0506 16.4123 13.9846 16.1893 13.9846 16.1893C13.9846 16.1893 14.1396 16.2133 14.3216 15.9833C14.3236 15.9803 14.3256 15.9803 14.3276 15.9773C14.5126 15.7393 14.4596 15.5153 14.4596 15.5153C14.4596 15.5153 14.4786 15.5123 14.5056 15.5073C14.5346 15.5013 14.5756 15.4873 14.6236 15.4673C14.6826 15.4423 14.7496 15.4063 14.8166 15.3443C14.9126 15.2553 14.9566 15.1303 14.9786 15.0333C14.9966 14.9563 15.0016 14.8953 15.0016 14.8953C15.0016 14.8953 15.0346 14.8953 15.0806 14.8853C15.1376 14.8743 15.2196 14.8423 15.3156 14.7743C15.3346 14.7613 15.3516 14.7533 15.3706 14.7363C15.5686 14.5633 15.5556 14.3933 15.5556 14.3933C15.5556 14.3933 15.6776 14.4303 15.8396 14.3793C15.8916 14.3633 15.9466 14.3383 16.0046 14.3003C16.0606 14.2633 16.1006 14.2203 16.1336 14.1773C16.2406 14.0373 16.2426 13.8903 16.2426 13.8903C16.2426 13.8903 16.3616 13.9473 16.5706 13.8733C16.6096 13.8593 16.6456 13.8503 16.6906 13.8253C16.9816 13.6663 16.9676 13.4543 16.9676 13.4543C16.9676 13.4543 16.9976 13.4693 17.0416 13.4813C17.1166 13.5033 17.2456 13.5153 17.4286 13.4153C17.4406 13.4093 17.4446 13.4033 17.4556 13.3963C17.7136 13.2453 17.7316 13.1113 17.7316 13.1113C17.7316 13.1113 17.8446 13.1893 18.0586 13.1393C18.0826 13.1333 18.1016 13.1333 18.1276 13.1243C18.1386 13.1203 18.1456 13.1143 18.1566 13.1093C18.3956 13.0113 18.4846 12.8203 18.4846 12.8203C18.4846 12.8203 18.5776 13.0183 18.8936 12.9393C19.2106 12.8603 19.3036 12.6093 19.3036 12.6093C19.3036 12.6093 19.3656 12.7033 19.4756 12.7703C19.5336 12.8053 19.6006 12.8343 19.6866 12.8343C19.7536 12.8343 19.8166 12.8203 19.8756 12.8003C19.8796 12.7993 19.8826 12.7973 19.8866 12.7953C20.0396 12.7413 20.1496 12.6483 20.1496 12.6483C20.1496 12.6483 20.2276 12.7523 20.3946 12.7903C20.4296 12.7983 20.4626 12.8073 20.5066 12.8073C20.6206 12.8073 20.7186 12.7733 20.7936 12.7373C20.7046 12.6363 20.5996 12.5843 20.5176 12.5843C20.3466 12.5843 20.0696 12.6363 20.0696 12.6363C20.0696 12.6363 20.1566 12.5623 20.2886 12.4913C20.2826 12.4213 20.3906 12.3103 20.6086 12.3133C20.6066 12.3163 20.6036 12.3503 20.6026 12.3913C20.6416 12.3853 20.6776 12.3723 20.7186 12.3723C20.8236 12.3723 20.9156 12.4143 20.9986 12.4713C21.0446 12.4613 21.0926 12.4593 21.1416 12.4583C21.2116 12.3533 21.4386 12.3463 21.5236 12.3933C21.5236 12.3933 21.5026 12.4533 21.4906 12.5163C21.7116 12.5933 21.9116 12.7403 22.0226 12.9333C22.0456 12.9443 22.0656 12.9583 22.0906 12.9643C22.2876 13.0173 22.5386 12.9253 22.5386 12.9253C22.5386 12.9253 22.5986 13.0813 22.7816 13.1813C22.8026 13.1923 22.8186 13.2063 22.8426 13.2163C23.0776 13.3083 23.3136 13.2173 23.3166 13.2163H23.3176C23.3176 13.2163 23.3036 13.4393 23.5816 13.5323C23.6626 13.5593 23.7336 13.5683 23.7986 13.5703C23.9546 13.5763 24.0566 13.5323 24.0566 13.5323C24.0566 13.5323 24.1166 13.6933 24.2786 13.8173C24.3116 13.8423 24.3436 13.8693 24.3856 13.8893C24.6366 14.0083 24.8226 13.9823 24.8226 13.9823C24.8226 13.9823 24.8316 14.0883 24.9166 14.2013C24.9476 14.2433 24.9886 14.2863 25.0446 14.3253C25.1666 14.4093 25.2886 14.4383 25.3736 14.4493C25.4356 14.4573 25.4816 14.4573 25.4816 14.4573C25.4816 14.4573 25.4816 14.6963 25.6796 14.8533C25.8776 15.0123 26.0896 15.0513 26.0896 15.0513C26.0896 15.0513 26.0246 15.2293 26.1126 15.3893C26.1266 15.3823 26.1416 15.3733 26.1546 15.3693C26.2066 15.3543 26.2406 15.3643 26.2776 15.3703C26.2776 15.3683 26.2756 15.3683 26.2746 15.3663C26.2276 15.2763 26.1986 15.1583 26.2756 15.0813C26.3626 14.9993 26.5046 15.0783 26.5436 15.1273C26.5996 15.1993 26.6156 15.3053 26.6156 15.3053C26.6156 15.3053 26.5406 15.3183 26.4926 15.3513C26.4626 15.3733 26.4376 15.4203 26.4206 15.4543C26.4726 15.5343 26.4986 15.6383 26.5286 15.7173C26.5476 15.7263 26.5646 15.7343 26.5646 15.7343C26.5646 15.7343 26.5256 15.9593 26.6446 16.1443C26.6656 16.1763 26.6926 16.2033 26.7196 16.2293C26.7176 16.2103 26.7106 16.1903 26.7096 16.1723C26.6996 15.8743 26.9256 15.6383 26.9886 15.5783C26.9036 15.5483 26.8296 15.5503 26.8296 15.5503C26.8296 15.5503 26.8686 15.2333 26.6706 15.0493C26.4726 14.8653 26.2356 14.8513 26.2356 14.8513C26.2356 14.8513 26.2596 14.7613 26.2206 14.6413C26.1986 14.5733 26.1626 14.4973 26.0766 14.4163C25.9916 14.3363 25.9146 14.3043 25.8446 14.2863C25.7186 14.2543 25.6266 14.2843 25.6266 14.2843C25.6266 14.2843 25.6266 13.9813 25.3616 13.7963C25.1766 13.6663 25.0476 13.6683 24.9846 13.6803C24.9576 13.6853 24.9396 13.6913 24.9396 13.6913C24.9396 13.6913 24.9266 13.5063 24.6756 13.3753C24.6496 13.3623 24.6266 13.3563 24.6026 13.3463C24.3836 13.2573 24.2026 13.2823 24.2026 13.2823C24.2026 13.2823 24.1936 13.1613 24.0796 13.0553C24.0386 13.0173 23.9856 12.9803 23.9116 12.9523C23.7356 12.8863 23.5886 12.8943 23.4986 12.9083C23.4466 12.9163 23.4086 12.9263 23.4086 12.9263C23.4086 12.9263 23.4036 12.8863 23.3796 12.8373C23.3476 12.7713 23.2776 12.6843 23.1046 12.6233C22.9876 12.5823 22.8946 12.5733 22.8166 12.5723C22.6916 12.5723 22.6146 12.5973 22.6146 12.5973C22.6146 12.5973 22.5366 12.4523 22.2986 12.3593C22.0616 12.2663 21.7846 12.4123 21.7846 12.4123C21.7846 12.4123 21.7326 12.3593 21.6476 12.3043C21.5686 12.2533 21.4616 12.2003 21.3346 12.1883C21.0706 12.1613 20.9126 12.2933 20.9126 12.2933C20.9126 12.2933 20.8326 12.1613 20.5296 12.1343C20.2266 12.1093 20.0946 12.2793 20.0946 12.2793C20.0946 12.2793 20.0426 12.1863 19.7646 12.1613C19.5686 12.1423 19.4036 12.2803 19.3216 12.3643C19.2876 12.3983 19.2646 12.4263 19.2646 12.4263C19.2646 12.4263 19.0256 12.2413 18.7756 12.2803C18.5256 12.3193 18.3796 12.5303 18.3796 12.5303C18.3796 12.5303 18.2626 12.4563 18.0506 12.4793C18.0196 12.4823 17.9926 12.4823 17.9576 12.4903C17.8136 12.5253 17.7146 12.5973 17.6516 12.6593C17.5916 12.7173 17.5626 12.7673 17.5626 12.7673C17.5626 12.7673 17.4436 12.7013 17.1796 12.8073C16.9156 12.9123 16.8496 13.1903 16.8496 13.1903C16.8496 13.1903 16.8086 13.1643 16.7336 13.1553C16.6516 13.1463 16.5276 13.1583 16.3616 13.2553C16.3106 13.2853 16.2796 13.3123 16.2446 13.3403C16.0616 13.4853 16.0576 13.5983 16.0576 13.5983C16.0576 13.5983 15.9256 13.5463 15.6616 13.6913C15.5436 13.7563 15.4916 13.8513 15.4646 13.9383C15.4596 13.9533 15.4526 13.9663 15.4496 13.9803C15.4306 14.0683 15.4376 14.1393 15.4376 14.1393C15.4376 14.1393 15.4216 14.1333 15.3966 14.1273C15.3236 14.1113 15.1586 14.0983 14.9626 14.2443C14.6986 14.4423 14.7776 14.6803 14.7776 14.6803C14.7776 14.6803 14.4616 14.6663 14.3156 14.8923C14.1706 15.1153 14.1966 15.3673 14.1966 15.3673C14.1966 15.3673 14.0836 15.3843 13.9686 15.4463C13.9026 15.4823 13.8366 15.5283 13.7886 15.6043C13.6566 15.8153 13.7356 16.0663 13.7356 16.0663C13.7356 16.0663 13.6776 16.0683 13.6046 16.0943C13.5236 16.1233 13.4226 16.1843 13.3536 16.3163C13.2866 16.4433 13.2746 16.5633 13.2786 16.6503C13.2826 16.7363 13.3016 16.7913 13.3016 16.7913C13.3016 16.7913 13.0516 16.8573 12.9576 17.1343C12.8666 17.4113 12.9716 17.5963 12.9716 17.5963C12.9716 17.5963 12.6806 17.6753 12.6156 17.9393C12.6096 17.9623 12.6116 17.9823 12.6086 18.0043C12.5756 18.2383 12.6676 18.4273 12.6676 18.4273C12.6676 18.4273 12.5966 18.4773 12.5326 18.5793C12.4966 18.6353 12.4626 18.7033 12.4446 18.7973C12.3946 19.0653 12.5666 19.2363 12.5666 19.2363C12.5666 19.2363 12.5266 19.2983 12.4846 19.3813C12.4396 19.4723 12.3926 19.5883 12.3946 19.6863C12.3966 19.8743 12.5786 19.9893 12.6846 19.9893C12.7416 19.9893 12.7686 19.9623 12.8096 19.9463C12.9756 19.8843 13.0266 19.7273 13.0036 19.5573H12.9946ZM25.6616 14.4823C25.7396 14.3943 25.8586 14.4333 25.9176 14.4913C25.9766 14.5513 26.0366 14.6923 26.0366 14.6923C26.0366 14.6923 25.9276 14.6993 25.8886 14.7443C25.8496 14.7903 25.8226 14.9033 25.8226 14.9033C25.8226 14.9033 25.7556 14.8643 25.6896 14.7643C25.6236 14.6663 25.6006 14.5543 25.6616 14.4823ZM25.0296 13.9343C25.0996 13.8483 25.2026 13.8683 25.2776 13.9273C25.3526 13.9863 25.4016 14.1003 25.4016 14.1003C25.4016 14.1003 25.3236 14.1203 25.2816 14.1723C25.2386 14.2243 25.2386 14.3293 25.2386 14.3293C25.2386 14.3293 25.1406 14.3003 25.0606 14.2073C24.9816 14.1153 24.9776 13.9993 25.0296 13.9343ZM24.3106 13.5083C24.3666 13.3903 24.5186 13.4123 24.5946 13.4623C24.6706 13.5123 24.7186 13.5843 24.7186 13.5843C24.7186 13.5843 24.6406 13.6073 24.6036 13.6773C24.5676 13.7463 24.5646 13.8683 24.5646 13.8683C24.5646 13.8683 24.4486 13.8323 24.3696 13.7593C24.2916 13.6873 24.2716 13.5953 24.3106 13.5083ZM23.5586 13.0963C23.6106 13.0033 23.8266 13.0473 23.8886 13.0963C23.9516 13.1463 23.9676 13.1893 23.9676 13.1893C23.9676 13.1893 23.8956 13.2053 23.8606 13.2823C23.8286 13.3583 23.8516 13.4673 23.8516 13.4673C23.8516 13.4673 23.7536 13.4393 23.6666 13.3843C23.5806 13.3283 23.4856 13.2303 23.5586 13.0973V13.0963ZM22.7806 12.8043C22.8196 12.7193 22.9186 12.7213 23.0056 12.7343C23.0906 12.7493 23.1806 12.8353 23.1806 12.8353C23.1806 12.8353 23.1276 12.8553 23.0956 12.9533C23.0616 13.0533 23.0876 13.1473 23.0876 13.1473C22.9876 13.1273 22.9136 13.1013 22.8296 13.0313C22.7506 12.9643 22.7416 12.8893 22.7806 12.8043ZM22.1506 12.4713C22.2416 12.4693 22.3776 12.5543 22.3776 12.5543C22.3776 12.5543 22.2846 12.6203 22.2726 12.6953C22.2586 12.7703 22.2976 12.8843 22.2976 12.8843C22.2976 12.8843 22.1666 12.8743 22.0696 12.8363C21.9746 12.8003 21.9106 12.7023 21.9356 12.5933C21.9556 12.5043 22.0576 12.4753 22.1506 12.4713ZM19.5956 12.3413C19.6756 12.3243 19.7806 12.3473 19.7806 12.3473C19.7806 12.3473 19.7546 12.4433 19.7576 12.4993C19.7636 12.6183 19.8296 12.6813 19.8296 12.6813C19.8296 12.6813 19.7146 12.7413 19.5796 12.7083C19.4446 12.6743 19.3976 12.6333 19.4016 12.5193C19.4046 12.4083 19.5176 12.3573 19.5966 12.3423L19.5956 12.3413ZM18.9396 12.4223C18.9396 12.4223 18.9036 12.5583 18.9366 12.6363C18.9706 12.7153 19.0346 12.7653 19.0346 12.7653C19.0346 12.7653 18.9166 12.8313 18.7836 12.8313C18.6526 12.8313 18.5586 12.7393 18.5866 12.6063C18.6256 12.4163 18.9396 12.4223 18.9396 12.4223ZM18.0756 12.6343C18.0756 12.6343 18.0726 12.7433 18.1256 12.8383C18.1606 12.9003 18.2236 12.9613 18.2236 12.9613C18.2236 12.9613 18.1286 13.0503 17.9626 13.0403C17.8016 13.0313 17.7726 12.8993 17.7986 12.8083C17.8376 12.6673 18.0756 12.6343 18.0756 12.6343ZM17.1246 13.0423C17.1686 13.0133 17.2976 12.9793 17.2976 12.9793C17.2976 12.9793 17.2916 13.0983 17.3276 13.1543C17.3636 13.2093 17.4626 13.2763 17.4626 13.2763C17.4626 13.2763 17.3406 13.3623 17.2416 13.3763C17.1446 13.3893 17.0576 13.3733 17.0286 13.2603C16.9996 13.1483 17.0786 13.0723 17.1246 13.0423ZM16.3806 13.4293C16.4276 13.3933 16.5276 13.3613 16.5276 13.3613C16.5276 13.3613 16.5366 13.4723 16.5906 13.5433C16.6276 13.5913 16.7326 13.6383 16.7326 13.6383C16.7326 13.6383 16.6096 13.7893 16.4596 13.7893C16.3076 13.7893 16.2616 13.7143 16.2616 13.6233C16.2616 13.5343 16.3306 13.4653 16.3806 13.4293ZM12.9496 18.8563C12.9496 18.8563 12.9566 18.9563 12.9176 19.0483C12.8786 19.1413 12.8156 19.2423 12.6976 19.2033C12.5786 19.1643 12.5886 19.0083 12.6016 18.9433C12.6156 18.8763 12.6376 18.8203 12.6376 18.8203C12.6376 18.8203 12.6966 18.8753 12.7856 18.8823C12.8746 18.8893 12.9496 18.8553 12.9496 18.8553V18.8563ZM15.6596 13.9203C15.7016 13.8903 15.7976 13.8383 15.7976 13.8383C15.7976 13.8383 15.8216 13.9383 15.8736 13.9833C15.9266 14.0293 16.0276 14.0813 16.0276 14.0813C16.0276 14.0813 15.9026 14.2563 15.7546 14.2563C15.6066 14.2563 15.5596 14.1943 15.5596 14.1113C15.5596 14.0283 15.6166 13.9493 15.6596 13.9203ZM15.1276 14.3863C15.1276 14.3863 15.1736 14.4873 15.2166 14.5213C15.2736 14.5673 15.3656 14.6033 15.3656 14.6033C15.3656 14.6033 15.2476 14.7673 15.1106 14.7923C14.9786 14.8153 14.8896 14.7223 14.8966 14.6213C14.9046 14.4893 15.1266 14.3863 15.1266 14.3863H15.1276ZM14.3786 15.1253C14.4196 15.0563 14.5206 14.9683 14.5206 14.9683C14.5206 14.9683 14.5466 15.0643 14.6156 15.1063C14.6846 15.1503 14.7846 15.1653 14.7846 15.1653C14.7846 15.1653 14.6766 15.4333 14.4836 15.4043C14.2886 15.3743 14.3386 15.1963 14.3786 15.1263V15.1253ZM13.8896 15.7723C13.9266 15.7263 14.0096 15.6633 14.0096 15.6633C14.0096 15.6633 14.0456 15.7433 14.1076 15.7853C14.1866 15.8373 14.2786 15.8443 14.2786 15.8443C14.2786 15.8443 14.1696 15.9833 14.1196 16.0223C14.0706 16.0633 13.9246 16.1313 13.8516 16.0093C13.7956 15.9153 13.8516 15.8183 13.8876 15.7713L13.8896 15.7723ZM13.4446 16.5433C13.4716 16.4673 13.5376 16.3953 13.5376 16.3953C13.5376 16.3953 13.5866 16.4753 13.6696 16.4973C13.7516 16.5193 13.8406 16.5193 13.8406 16.5193C13.8406 16.5193 13.8046 16.6153 13.7516 16.6923C13.6986 16.7693 13.6026 16.8113 13.5036 16.7743C13.4236 16.7453 13.4176 16.6193 13.4446 16.5443V16.5433ZM13.0696 17.3273C13.0896 17.2283 13.1456 17.1643 13.1456 17.1643C13.1456 17.1643 13.1976 17.2323 13.2676 17.2533C13.3376 17.2733 13.4426 17.2763 13.4426 17.2763C13.4426 17.2763 13.4156 17.4013 13.3726 17.4653C13.3296 17.5273 13.2376 17.6103 13.1476 17.5703C13.0586 17.5313 13.0506 17.4223 13.0696 17.3273ZM13.0006 18.0383C13.0756 18.0443 13.1686 18.0243 13.1686 18.0243C13.1686 18.0243 13.1596 18.1333 13.1116 18.2293C13.0656 18.3243 12.9796 18.3863 12.8846 18.3643C12.7886 18.3413 12.7886 18.2123 12.7916 18.1363C12.7946 18.0613 12.8446 17.9653 12.8446 17.9653C12.8446 17.9653 12.9236 18.0313 12.9996 18.0383H13.0006ZM12.6776 19.8693C12.4366 19.8273 12.5586 19.5393 12.5586 19.5393C12.5586 19.5393 12.6936 19.6503 12.8496 19.5393C12.8496 19.5393 12.9536 19.9153 12.6776 19.8693Z" fill="#DE200F"/>
<path d="M28.3006 19.4718C28.3006 19.4718 28.3336 19.4338 28.3686 19.3778C28.4156 19.3028 28.4686 19.1918 28.4616 19.0638C28.4566 18.9998 28.4286 18.9318 28.3926 18.8668C28.3026 18.7038 28.1576 18.5618 28.1576 18.5618C28.1576 18.5618 28.2756 18.4958 28.2626 18.1938C28.2486 17.8908 27.9856 17.7848 27.9856 17.7848C27.9856 17.7848 28.0776 17.7058 28.0116 17.3888C28.0066 17.3668 27.9966 17.3538 27.9906 17.3338C27.9086 17.0708 27.7086 16.9938 27.7086 16.9938C27.7086 16.9938 27.7746 16.8228 27.6696 16.5568C27.5646 16.2938 27.2866 16.2268 27.2866 16.2268C27.2866 16.2268 27.2866 16.0148 27.1956 15.7788C27.1846 15.7518 27.1666 15.7378 27.1516 15.7168C27.1096 15.6558 27.0586 15.6138 27.0046 15.5918C26.9966 15.6278 26.9836 15.7018 26.9746 15.8178C27.1176 15.8538 27.1966 16.0208 27.1966 16.0208C27.1966 16.0208 27.0596 16.0238 26.9806 16.1228C26.9926 16.2158 27.0126 16.3118 27.0516 16.4008C27.1056 16.5268 27.1746 16.7308 27.2206 16.9578C27.3316 17.0448 27.4606 17.0978 27.4606 17.0978C27.4606 17.0978 27.3416 17.3098 27.3946 17.5078C27.3986 17.5218 27.4096 17.5338 27.4146 17.5478C27.4146 17.5368 27.4076 17.5198 27.4086 17.5098C27.4216 17.1928 27.5926 16.8358 27.5926 16.8358C27.5926 16.8358 27.5766 17.0498 27.5746 17.2888C27.5856 17.2708 27.5906 17.2468 27.6086 17.2358C27.7166 17.1708 27.8066 17.2628 27.8526 17.3158C27.8986 17.3678 27.9286 17.5108 27.9286 17.5108C27.9286 17.5108 27.8086 17.5128 27.7556 17.5468C27.7036 17.5788 27.6356 17.6848 27.6356 17.6848C27.6356 17.6848 27.6066 17.6288 27.5786 17.5668C27.5836 17.6528 27.6166 17.7448 27.6576 17.8408C27.6876 17.8638 27.7096 17.8788 27.7096 17.8788C27.7096 17.8788 27.6976 17.9038 27.6906 17.9138C27.7246 17.9828 27.7626 18.0548 27.8046 18.1278C27.8166 18.0728 27.8446 18.0248 27.9186 17.9928C28.0346 17.9438 28.1246 18.0558 28.1396 18.1388C28.1526 18.2208 28.1616 18.3438 28.1616 18.3438C28.1616 18.3438 28.1056 18.3168 28.0066 18.3438C27.9766 18.3518 27.9626 18.3618 27.9426 18.3718C28.0256 18.5218 28.0996 18.6778 28.1496 18.8408C28.2716 18.8368 28.3186 18.9428 28.3216 19.0388C28.3236 19.1508 28.3186 19.2048 28.3186 19.2048C28.3186 19.2048 28.2676 19.1958 28.2066 19.2018C28.2036 19.2888 28.1906 19.3768 28.1606 19.4658C28.1606 19.4658 28.1336 19.3708 28.0926 19.2458C28.0576 19.2718 28.0326 19.2978 28.0326 19.2978C28.0326 19.2978 27.9866 19.1908 27.9686 19.0898C27.9616 19.0428 27.9666 18.9928 27.9836 18.9498C27.9526 18.8728 27.9196 18.7958 27.8836 18.7268C27.8806 18.7218 27.8766 18.7128 27.8736 18.7078C27.8626 18.7528 27.8506 18.8218 27.8406 18.9188C27.8356 18.9648 27.8306 19.0098 27.8276 19.0688C27.8176 19.3238 27.9396 19.4458 27.9886 19.4858C28.0006 19.4958 28.0126 19.5038 28.0126 19.5038C28.0126 19.5038 27.8816 19.6488 27.8676 19.8858C27.8566 20.0998 28.0256 20.2918 28.2036 20.3218C28.2236 20.3248 28.2436 20.3358 28.2636 20.3348C28.4356 20.3238 28.5086 20.2078 28.5156 20.0288C28.5156 19.9998 28.5326 19.9858 28.5286 19.9528C28.5016 19.7158 28.3026 19.4768 28.3026 19.4768L28.3006 19.4718ZM27.3856 16.7928C27.3156 16.8318 27.2606 16.9158 27.2606 16.9158C27.2606 16.9158 27.2036 16.8438 27.1606 16.7178C27.1176 16.5918 27.1696 16.5208 27.2186 16.4828C27.3276 16.3958 27.4406 16.4598 27.4836 16.5288C27.5266 16.5978 27.5656 16.7438 27.5656 16.7438C27.5656 16.7438 27.4546 16.7528 27.3856 16.7928ZM28.0386 19.9198C28.0256 19.8288 28.0326 19.6918 28.1586 19.6598C28.2756 19.6298 28.3876 19.7458 28.3936 19.8378C28.4006 19.9298 28.3966 20.0348 28.3966 20.0348C28.3966 20.0348 28.3176 20.0058 28.2446 20.0188C28.1726 20.0328 28.0806 20.1088 28.0806 20.1088C28.0806 20.1088 28.0516 20.0128 28.0386 19.9198Z" fill="#DE200F"/>
<path d="M19.5776 12.7082C19.7126 12.7412 19.8276 12.6812 19.8276 12.6812C19.8276 12.6812 19.7616 12.6192 19.7556 12.4992C19.7536 12.4432 19.7786 12.3472 19.7786 12.3472C19.7786 12.3472 19.6736 12.3242 19.5936 12.3412C19.5146 12.3562 19.4026 12.4072 19.3986 12.5182C19.3956 12.6322 19.4416 12.6732 19.5766 12.7072L19.5776 12.7082Z" fill="#FFE301"/>
<path d="M12.5582 19.54C12.5582 19.54 12.4362 19.828 12.6772 19.87C12.9542 19.916 12.8482 19.54 12.8482 19.54C12.6932 19.651 12.5582 19.54 12.5582 19.54Z" fill="#FFE301"/>
<path d="M22.0688 12.8387C22.1658 12.8757 22.2968 12.8867 22.2968 12.8867C22.2968 12.8867 22.2578 12.7727 22.2718 12.6977C22.2848 12.6227 22.3768 12.5567 22.3768 12.5567C22.3768 12.5567 22.2418 12.4707 22.1498 12.4737C22.0558 12.4767 21.9538 12.5077 21.9348 12.5967C21.9108 12.7057 21.9738 12.8027 22.0688 12.8387Z" fill="#FFE301"/>
<path d="M13.5051 16.7745C13.6031 16.8115 13.7001 16.7685 13.7531 16.6925C13.8061 16.6165 13.8421 16.5195 13.8421 16.5195C13.8421 16.5195 13.7531 16.5195 13.6711 16.4975C13.5881 16.4755 13.5391 16.3955 13.5391 16.3955C13.5391 16.3955 13.4731 16.4675 13.4461 16.5435C13.4191 16.6185 13.4251 16.7465 13.5051 16.7745Z" fill="#FFE301"/>
<path d="M13.3742 17.466C13.4172 17.402 13.4442 17.277 13.4442 17.277C13.4442 17.277 13.3392 17.274 13.2692 17.254C13.2002 17.233 13.1472 17.165 13.1472 17.165C13.1472 17.165 13.0902 17.23 13.0712 17.328C13.0512 17.423 13.0612 17.532 13.1502 17.571C13.2392 17.61 13.3322 17.528 13.3752 17.466H13.3742Z" fill="#FFE301"/>
<path d="M18.784 12.8328C18.917 12.8328 19.035 12.7668 19.035 12.7668C19.035 12.7668 18.97 12.7168 18.937 12.6378C18.905 12.5588 18.94 12.4238 18.94 12.4238C18.94 12.4238 18.626 12.4178 18.587 12.6078C18.559 12.7408 18.653 12.8328 18.784 12.8328Z" fill="#FFE301"/>
<path d="M14.1213 16.0231C14.1713 15.9841 14.2803 15.8451 14.2803 15.8451C14.2803 15.8451 14.1873 15.8381 14.1093 15.7861C14.0463 15.7441 14.0113 15.6641 14.0113 15.6641C14.0113 15.6641 13.9283 15.7271 13.8913 15.7731C13.8553 15.8191 13.8003 15.9171 13.8553 16.0111C13.9283 16.1331 14.0743 16.0641 14.1233 16.0241L14.1213 16.0231Z" fill="#FFE301"/>
<path d="M15.7555 14.2569C15.9035 14.2569 16.0285 14.0819 16.0285 14.0819C16.0285 14.0819 15.9275 14.0299 15.8745 13.9839C15.8225 13.9389 15.7985 13.8389 15.7985 13.8389C15.7985 13.8389 15.7025 13.8909 15.6605 13.9209C15.6175 13.9499 15.5605 14.0299 15.5605 14.1119C15.5605 14.1939 15.6065 14.2569 15.7555 14.2569Z" fill="#FFE301"/>
<path d="M16.2617 13.6233C16.2617 13.7133 16.3077 13.7893 16.4597 13.7893C16.6107 13.7893 16.7327 13.6383 16.7327 13.6383C16.7327 13.6383 16.6277 13.5913 16.5907 13.5433C16.5377 13.4723 16.5277 13.3613 16.5277 13.3613C16.5277 13.3613 16.4277 13.3933 16.3807 13.4293C16.3307 13.4653 16.2617 13.5333 16.2617 13.6233Z" fill="#FFE301"/>
<path d="M12.6372 18.8213C12.6372 18.8213 12.6152 18.8763 12.6012 18.9443C12.5882 19.0103 12.5782 19.1653 12.6972 19.2043C12.8152 19.2433 12.8782 19.1423 12.9172 19.0493C12.9562 18.9563 12.9492 18.8573 12.9492 18.8573C12.9492 18.8573 12.8742 18.8913 12.7852 18.8843C12.6962 18.8773 12.6372 18.8223 12.6372 18.8223V18.8213Z" fill="#FFE301"/>
<path d="M28.3978 20.0342C28.3978 20.0342 28.4008 19.9292 28.3948 19.8372C28.3888 19.7442 28.2768 19.6292 28.1598 19.6592C28.0338 19.6912 28.0268 19.8282 28.0398 19.9192C28.0528 20.0122 28.0828 20.1082 28.0828 20.1082C28.0828 20.1082 28.1758 20.0312 28.2468 20.0182C28.3198 20.0052 28.3978 20.0342 28.3978 20.0342Z" fill="#FFE301"/>
<path d="M23.0873 13.1482C23.0873 13.1482 23.0613 13.0532 23.0953 12.9542C23.1263 12.8552 23.1803 12.8362 23.1803 12.8362C23.1803 12.8362 23.0903 12.7502 23.0053 12.7352C22.9183 12.7222 22.8203 12.7202 22.7803 12.8052C22.7413 12.8902 22.7503 12.9662 22.8293 13.0332C22.9143 13.1032 22.9883 13.1292 23.0873 13.1492V13.1482Z" fill="#FFE301"/>
<path d="M27.5763 17.5603V17.5633C27.6043 17.6253 27.6333 17.6813 27.6333 17.6813C27.6333 17.6813 27.7013 17.5763 27.7533 17.5433C27.8053 17.5093 27.9263 17.5073 27.9263 17.5073C27.9263 17.5073 27.8963 17.3653 27.8503 17.3123C27.8043 17.2593 27.7133 17.1673 27.6063 17.2323C27.5873 17.2433 27.5833 17.2673 27.5723 17.2853C27.5723 17.3763 27.5723 17.4703 27.5763 17.5583V17.5603Z" fill="#FFE301"/>
<path d="M28.0047 18.3405C28.1047 18.3135 28.1597 18.3405 28.1597 18.3405C28.1597 18.3405 28.1507 18.2175 28.1377 18.1355C28.1227 18.0525 28.0327 17.9405 27.9167 17.9895C27.8427 18.0205 27.8157 18.0685 27.8027 18.1245C27.8477 18.2035 27.8937 18.2845 27.9407 18.3685C27.9607 18.3585 27.9747 18.3485 28.0047 18.3405Z" fill="#FFE301"/>
<path d="M26.9778 16.1214C27.0568 16.0224 27.1938 16.0194 27.1938 16.0194C27.1938 16.0194 27.1148 15.8524 26.9718 15.8164C26.9648 15.9084 26.9638 16.0114 26.9778 16.1214Z" fill="#FFE301"/>
<path d="M26.488 15.3531C26.535 15.3201 26.611 15.3071 26.611 15.3071C26.611 15.3071 26.595 15.2011 26.539 15.1291C26.501 15.0791 26.358 15.0001 26.271 15.0831C26.193 15.1591 26.222 15.2781 26.27 15.3681C26.27 15.3701 26.272 15.3701 26.273 15.3721C26.335 15.3821 26.384 15.4101 26.415 15.4571C26.432 15.4221 26.457 15.3761 26.487 15.3541L26.488 15.3531Z" fill="#FFE301"/>
<path d="M23.6653 13.3835C23.7523 13.4385 23.8503 13.4665 23.8503 13.4665C23.8503 13.4665 23.8273 13.3575 23.8593 13.2815C23.8943 13.2055 23.9663 13.1885 23.9663 13.1885C23.9663 13.1885 23.9503 13.1455 23.8873 13.0955C23.8253 13.0465 23.6093 13.0025 23.5573 13.0955C23.4843 13.2285 23.5793 13.3275 23.6653 13.3825V13.3835Z" fill="#FFE301"/>
<path d="M25.8215 14.9043C25.8215 14.9043 25.8485 14.7923 25.8875 14.7453C25.9265 14.7003 26.0355 14.6933 26.0355 14.6933C26.0355 14.6933 25.9755 14.5523 25.9165 14.4923C25.8575 14.4343 25.7385 14.3953 25.6605 14.4833C25.5995 14.5563 25.6225 14.6673 25.6885 14.7653C25.7545 14.8653 25.8215 14.9043 25.8215 14.9043Z" fill="#FFE301"/>
<path d="M24.5624 13.8672C24.5624 13.8672 24.5654 13.7452 24.6014 13.6762C24.6384 13.6062 24.7164 13.5832 24.7164 13.5832C24.7164 13.5832 24.6674 13.5112 24.5924 13.4612C24.5174 13.4112 24.3644 13.3892 24.3084 13.5072C24.2694 13.5942 24.2894 13.6852 24.3674 13.7572C24.4464 13.8302 24.5624 13.8672 24.5624 13.8672Z" fill="#FFE301"/>
<path d="M21.4877 12.518C21.4987 12.455 21.5207 12.395 21.5207 12.395C21.4357 12.348 21.2087 12.355 21.1387 12.46C21.2527 12.459 21.3717 12.478 21.4877 12.518Z" fill="#FFE301"/>
<path d="M20.6054 12.3145C20.3874 12.3125 20.2794 12.4235 20.2854 12.4925C20.3714 12.4465 20.4794 12.4115 20.5984 12.3925C20.5984 12.3515 20.6034 12.3175 20.6054 12.3145Z" fill="#FFE301"/>
<path d="M27.2185 16.4818C27.1695 16.5198 27.1175 16.5908 27.1605 16.7168C27.2035 16.8428 27.2605 16.9148 27.2605 16.9148C27.2605 16.9148 27.3165 16.8318 27.3855 16.7918C27.4535 16.7528 27.5665 16.7428 27.5665 16.7428C27.5665 16.7428 27.5275 16.5968 27.4845 16.5278C27.4415 16.4578 27.3275 16.3948 27.2185 16.4818Z" fill="#FFE301"/>
<path d="M15.1118 14.7937C15.2488 14.7697 15.3668 14.6047 15.3668 14.6047C15.3668 14.6047 15.2738 14.5687 15.2178 14.5227C15.1748 14.4877 15.1288 14.3877 15.1288 14.3877C15.1288 14.3877 14.9068 14.4907 14.8988 14.6227C14.8918 14.7247 14.9798 14.8177 15.1118 14.7937Z" fill="#FFE301"/>
<path d="M14.4849 15.4038C14.6779 15.4328 14.7859 15.1648 14.7859 15.1648C14.7859 15.1648 14.6859 15.1498 14.6169 15.1058C14.5469 15.0638 14.5219 14.9678 14.5219 14.9678C14.5219 14.9678 14.4199 15.0558 14.3799 15.1248C14.3409 15.1948 14.2909 15.3738 14.4849 15.4038Z" fill="#FFE301"/>
<path d="M12.7918 18.1388C12.7888 18.2148 12.7888 18.3438 12.8848 18.3668C12.9798 18.3888 13.0658 18.3258 13.1118 18.2318C13.1588 18.1358 13.1688 18.0268 13.1688 18.0268C13.1688 18.0268 13.0758 18.0468 13.0008 18.0408C12.9248 18.0338 12.8458 17.9678 12.8458 17.9678C12.8458 17.9678 12.7958 18.0638 12.7928 18.1388H12.7918Z" fill="#FFE301"/>
<path d="M17.2407 13.3765C17.3407 13.3625 17.4617 13.2765 17.4617 13.2765C17.4617 13.2765 17.3617 13.2105 17.3267 13.1545C17.2907 13.0985 17.2967 12.9795 17.2967 12.9795C17.2967 12.9795 17.1677 13.0135 17.1237 13.0425C17.0777 13.0725 16.9987 13.1475 17.0277 13.2605C17.0567 13.3735 17.1437 13.3895 17.2407 13.3765Z" fill="#FFE301"/>
<path d="M17.963 13.0408C18.129 13.0508 18.224 12.9618 18.224 12.9618C18.224 12.9618 18.16 12.9018 18.126 12.8388C18.073 12.7438 18.076 12.6348 18.076 12.6348C18.076 12.6348 17.839 12.6668 17.799 12.8088C17.774 12.8988 17.802 13.0308 17.963 13.0408Z" fill="#FFE301"/>
<path d="M28.2035 19.1961C28.2655 19.1901 28.3155 19.1991 28.3155 19.1991C28.3155 19.1991 28.3215 19.1461 28.3185 19.0331C28.3155 18.9371 28.2685 18.8311 28.1465 18.8351C28.1825 18.9521 28.2065 19.0721 28.2025 19.1951L28.2035 19.1961Z" fill="#FFE301"/>
<path d="M25.0601 14.2089C25.1401 14.3019 25.238 14.3309 25.238 14.3309C25.238 14.3309 25.2381 14.2259 25.2811 14.1739C25.3241 14.1219 25.401 14.1019 25.401 14.1019C25.401 14.1019 25.352 13.9879 25.277 13.9289C25.202 13.8699 25.0991 13.8499 25.0291 13.9359C24.9771 14.0009 24.9811 14.1179 25.0601 14.2089Z" fill="#FFE301"/>
<path d="M27.965 19.0843C27.982 19.1863 28.029 19.2923 28.029 19.2923C28.029 19.2923 28.054 19.2663 28.089 19.2403C28.06 19.1513 28.024 19.0513 27.981 18.9443C27.964 18.9873 27.958 19.0363 27.965 19.0843Z" fill="#FFE301"/>
<path d="M22.9785 27.2876C23.0105 27.5546 23.0375 27.7776 23.0565 27.9406C25.9235 26.9066 28.0035 24.2456 28.1875 21.0686C28.1755 21.0376 28.1615 21.0066 28.1515 20.9756C27.8045 23.9716 25.7485 26.3616 22.9785 27.2876Z" fill="#FFB636"/>
<path d="M12.7003 21.1504C12.6833 21.1614 12.6703 21.1754 12.6523 21.1844C12.8773 24.2784 14.9043 26.8654 17.6913 27.9074C17.7023 27.8534 17.7343 27.6134 17.7783 27.2604C15.1013 26.3344 13.1023 24.0364 12.7003 21.1504Z" fill="#FFB636"/>
<path d="M12.9944 19.5564C12.9944 19.5564 13.0014 19.5544 13.0064 19.5514C13.1254 19.4724 13.3094 19.4854 13.4024 19.5784C13.4954 19.6714 13.6804 19.6714 13.6804 19.6714C13.6804 19.6714 13.4854 19.0604 13.0514 19.0234C12.9884 19.1774 12.9004 19.2744 12.9004 19.2744C12.9494 19.3454 12.9804 19.4504 12.9944 19.5564Z" fill="#FFB636"/>
<path d="M13.2288 17.7308C13.2558 17.7918 13.3378 18.0068 13.2708 18.2318L13.2698 18.2338C13.3028 18.3808 13.1858 18.4508 13.2188 18.5628C13.2578 18.6948 13.3118 18.7998 13.3118 18.7998C13.3118 18.7998 13.5888 18.2718 13.6148 18.0078C13.6358 17.7948 13.5178 17.6488 13.3688 17.6328C13.3068 17.6748 13.2598 17.6928 13.2368 17.6978C13.2338 17.7058 13.2318 17.7198 13.2288 17.7298V17.7308Z" fill="#FFB636"/>
<path d="M12.6602 18.4263C12.6602 18.4263 12.5682 18.2373 12.6012 18.0033C12.4422 17.9873 12.2532 17.9193 12.1892 17.8103C12.0962 17.6513 12.0182 17.5713 12.0182 17.5713C12.0182 17.5713 11.9252 18.1133 12.2962 18.4423C12.3852 18.5223 12.4582 18.5583 12.5262 18.5783C12.5912 18.4763 12.6612 18.4263 12.6612 18.4263H12.6602Z" fill="#FFB636"/>
<path d="M16.2385 13.3409C16.2735 13.3129 16.3045 13.2859 16.3555 13.2559C16.5215 13.1589 16.6445 13.1469 16.7275 13.1559C16.7195 13.1159 16.7065 13.0769 16.6615 13.0069C16.5685 12.8619 16.5685 12.7039 16.6225 12.5849C16.6755 12.4659 16.6225 12.2959 16.6225 12.2949C16.6205 12.2969 16.0195 12.8529 16.2385 13.3409Z" fill="#FFB636"/>
<path d="M13.3455 16.3163C13.4155 16.1843 13.5155 16.1243 13.5965 16.0943C13.4615 16.0303 13.2465 16.0953 13.1235 16.0553C12.9655 16.0023 12.6895 15.7383 12.6895 15.7383C12.6895 15.7383 12.7425 15.9883 12.8345 16.1863C12.9105 16.3483 13.0295 16.5253 13.2705 16.6503C13.2665 16.5633 13.2785 16.4433 13.3455 16.3163Z" fill="#FFB636"/>
<path d="M15.5545 14.3919C15.5545 14.3919 15.5675 14.5619 15.3695 14.7349C15.3505 14.7519 15.3335 14.7589 15.3145 14.7729C15.3255 14.7769 15.3315 14.7839 15.3445 14.7869C15.6475 14.8669 15.6095 15.2229 15.6355 15.3149L15.7145 15.5789C15.8325 15.4219 15.9775 14.6949 15.9125 14.4969C15.8975 14.4529 15.8705 14.4129 15.8395 14.3779C15.6775 14.4289 15.5545 14.3919 15.5545 14.3919Z" fill="#FFB636"/>
<path d="M14.816 15.3413C14.749 15.4033 14.682 15.4383 14.623 15.4643C14.628 15.4673 14.626 15.4723 14.632 15.4743C14.803 15.5393 14.883 15.8303 14.896 15.9223C14.909 16.0143 14.989 16.2253 14.989 16.2253C14.989 16.2253 15.266 15.6183 15.239 15.2883C15.226 15.1213 15.118 15.0433 14.995 15.0283C14.99 15.0283 14.984 15.0303 14.979 15.0303C14.956 15.1273 14.912 15.2523 14.817 15.3413H14.816Z" fill="#FFB636"/>
<path d="M16.2399 13.8891C16.2399 13.8891 16.2379 14.0361 16.1309 14.1761C16.1589 14.2401 16.2039 14.2911 16.2659 14.3391C16.3839 14.4321 16.3179 14.8001 16.3179 14.8001C16.3179 14.8001 16.5549 14.7481 16.6079 14.3121C16.6309 14.1221 16.6079 13.9791 16.5679 13.8711C16.3589 13.9451 16.2399 13.8881 16.2399 13.8881V13.8891Z" fill="#FFB636"/>
<path d="M17.0383 13.4805C16.9963 13.6435 17.0193 13.8515 17.1623 13.9575C17.3603 14.1035 17.2803 14.5515 17.2803 14.5515C17.2803 14.5515 17.5703 14.3805 17.5963 13.9715C17.6123 13.7155 17.5233 13.5165 17.4523 13.3955C17.4413 13.4015 17.4363 13.4075 17.4253 13.4145C17.2423 13.5145 17.1133 13.5025 17.0383 13.4805Z" fill="#FFB636"/>
<path d="M17.9522 12.4907C17.9872 12.4827 18.0142 12.4827 18.0452 12.4797C18.0092 12.4207 17.9892 12.3547 18.0212 12.2687C18.1012 12.0567 18.0482 11.8857 18.0482 11.8857C18.0482 11.8857 17.6262 12.2637 17.6452 12.6597C17.7092 12.5977 17.8092 12.5257 17.9522 12.4907Z" fill="#FFB636"/>
<path d="M23.9071 12.9537C23.9801 12.9817 24.0331 13.0187 24.0751 13.0567C24.0651 12.9047 23.9801 12.7767 23.9621 12.6767C23.9351 12.5447 23.9861 12.4657 24.0271 12.3607C24.0661 12.2557 24.0271 12.1357 24.0141 12.1357C24.0141 12.1357 23.5721 12.5067 23.4941 12.9087C23.5841 12.8947 23.7311 12.8867 23.9071 12.9527V12.9537Z" fill="#FFB636"/>
<path d="M22.8396 13.2157C22.8146 13.2057 22.7996 13.1927 22.7786 13.1807C22.7406 13.3157 22.7316 13.4867 22.7726 13.5607C22.8396 13.6797 22.6816 13.8257 22.6406 13.9707L22.6016 14.1157C22.6016 14.1157 22.9316 14.0107 23.1436 13.6927C23.2686 13.5057 23.3166 13.3417 23.3136 13.2157C23.3106 13.2157 23.0746 13.3077 22.8396 13.2157Z" fill="#FFB636"/>
<path d="M23.3751 12.8372C23.4131 12.7842 23.4351 12.7212 23.4311 12.6622C23.4181 12.4642 23.2331 12.4242 23.1151 12.3462C22.9971 12.2672 22.9311 12.2672 22.9561 12.1492C22.9851 12.0302 22.8631 11.9102 22.8631 11.9102C22.8631 11.9102 22.7211 12.2572 22.8111 12.5722C22.8891 12.5722 22.9821 12.5822 23.0991 12.6232C23.2721 12.6842 23.3431 12.7712 23.3751 12.8372Z" fill="#FFB636"/>
<path d="M18.0563 13.1376C17.8833 13.2206 17.8203 13.4116 17.9283 13.5216C18.0473 13.6396 18.1793 13.7726 18.1123 13.9696C18.0473 14.1676 18.1923 14.2996 18.1923 14.2996C18.1923 14.2996 18.5223 13.6396 18.4833 13.4156C18.4473 13.2126 18.3323 13.0826 18.1543 13.1076C18.1433 13.1116 18.1373 13.1186 18.1253 13.1226C18.0993 13.1316 18.0803 13.1316 18.0563 13.1376Z" fill="#FFB636"/>
<path d="M19.475 12.7695C19.332 12.8655 19.286 13.0325 19.449 13.1655C19.66 13.3365 19.647 13.4285 19.594 13.5605C19.542 13.6925 19.607 13.8515 19.607 13.8515C19.607 13.8515 19.884 13.7065 19.963 13.2965C20.008 13.0675 19.962 12.9005 19.876 12.7995C19.818 12.8195 19.755 12.8335 19.687 12.8335C19.6 12.8335 19.533 12.8045 19.475 12.7695Z" fill="#FFB636"/>
<path d="M24.9347 13.6915C24.9347 13.6915 24.9527 13.6855 24.9797 13.6805C25.3447 13.5825 25.2937 13.2585 25.4667 13.2715C25.6497 13.2845 25.7437 13.0735 25.7437 13.0735C25.4137 12.9545 24.9757 12.9275 24.7267 13.1255C24.6637 13.1755 24.6227 13.2595 24.5977 13.3475C24.6227 13.3575 24.6457 13.3625 24.6707 13.3765C24.9217 13.5075 24.9347 13.6915 24.9347 13.6915Z" fill="#FFB636"/>
<path d="M24.9128 14.2012C24.7568 14.3312 24.6968 14.5602 24.8838 14.6582C25.1078 14.7772 25.0808 14.8432 25.0678 15.0152C25.0538 15.1882 25.1618 15.3182 25.1618 15.3182C25.1618 15.3182 25.3308 15.0682 25.3718 14.6712C25.3798 14.5892 25.3768 14.5172 25.3708 14.4502C25.2858 14.4392 25.1638 14.4102 25.0418 14.3262C24.9848 14.2872 24.9448 14.2442 24.9138 14.2022L24.9128 14.2012Z" fill="#FFB636"/>
<path d="M24.0548 13.5332C24.0548 13.5332 23.9528 13.5772 23.7968 13.5712C23.7678 13.7212 23.8038 13.9112 23.8038 14.0372C23.8038 14.2082 23.6068 14.3802 23.6198 14.5402C23.6198 14.5402 24.1728 14.3952 24.2768 13.8182C24.1148 13.6942 24.0548 13.5332 24.0548 13.5332Z" fill="#FFB636"/>
<path d="M27.4303 19.1841C27.1943 19.4481 27.2473 19.9761 27.2473 19.9761C27.2473 19.9761 27.4063 19.8581 27.4973 19.6861C27.5903 19.5131 27.8263 19.5791 27.9593 19.5011C27.9703 19.4951 27.9763 19.4871 27.9863 19.4801C27.9363 19.4401 27.8143 19.3171 27.8253 19.0631C27.8283 19.0041 27.8333 18.9591 27.8383 18.9131C27.7243 18.9171 27.6183 18.9751 27.4313 19.1831L27.4303 19.1841Z" fill="#FFB636"/>
<path d="M28.3701 19.3758C28.6331 19.4568 28.9751 19.4278 29.0291 19.5128C29.0961 19.6178 29.2801 19.6178 29.2801 19.6178C29.2801 19.6178 29.2131 19.3798 29.0831 19.2088C28.9501 19.0378 28.7381 18.8128 28.5151 18.8268C28.4641 18.8298 28.4351 18.8508 28.3931 18.8648C28.4291 18.9298 28.4581 18.9968 28.4621 19.0618C28.4691 19.1908 28.4171 19.3008 28.3701 19.3758Z" fill="#FFB636"/>
<path d="M26.2148 14.6424C26.4628 14.5234 26.5168 14.2054 26.7188 14.1934C26.9558 14.1804 26.9698 14.0614 26.9698 14.0614C26.9698 14.0614 26.7708 13.9434 26.4548 13.9434C26.2028 13.9434 25.9478 14.0974 25.8398 14.2864C25.9098 14.3044 25.9868 14.3364 26.0718 14.4164C26.1568 14.4974 26.1938 14.5734 26.2158 14.6414L26.2148 14.6424Z" fill="#FFB636"/>
<path d="M26.4167 15.4566C26.3857 15.4086 26.3367 15.3816 26.2747 15.3716C26.2377 15.3656 26.2047 15.3546 26.1517 15.3706C26.1387 15.3736 26.1237 15.3836 26.1097 15.3906C26.0207 15.4346 25.9147 15.5356 25.9267 15.6606C25.9397 15.8066 26.2687 16.1356 26.2437 16.2936C26.2167 16.4526 26.3087 16.5046 26.3087 16.5046C26.4547 16.3476 26.5997 15.8976 26.5347 15.7526C26.5307 15.7436 26.5277 15.7306 26.5237 15.7206C26.4937 15.6416 26.4687 15.5376 26.4157 15.4576L26.4167 15.4566Z" fill="#FFB636"/>
<path d="M14.3255 15.9749C14.3255 15.9749 14.3215 15.9779 14.3195 15.9809C14.2825 16.2119 14.1065 16.4479 14.0755 16.7549C14.0365 17.1509 14.3665 17.5469 14.3665 17.5469C14.2735 17.1369 14.4195 16.5299 14.5375 16.0429C14.6055 15.7639 14.5575 15.6009 14.5035 15.5049C14.4765 15.5109 14.4575 15.5129 14.4575 15.5129C14.4575 15.5129 14.5105 15.7379 14.3255 15.9749Z" fill="#207900"/>
<path d="M13.7479 16.814C13.7289 16.983 13.7159 17.167 13.7329 17.336C13.7859 17.837 13.5879 18.259 13.5879 18.259C13.5879 18.259 13.9179 17.996 13.9569 17.666C13.9859 17.422 13.9429 17.014 13.8869 16.668C13.8419 16.735 13.7959 16.781 13.7479 16.814Z" fill="#207900"/>
<path d="M21.4861 12.5171C21.3691 12.4761 21.2511 12.4571 21.1371 12.4591C21.0881 12.4591 21.0401 12.4621 20.9941 12.4721C21.1161 12.5561 21.2121 12.6821 21.2661 12.8161C21.5071 12.8341 21.7671 13.0131 21.8231 13.2711C21.9021 13.6391 21.7431 13.9301 21.7431 13.9301C21.7431 13.9301 22.1131 13.8261 22.1131 13.2441C22.1131 13.1301 22.0741 13.0271 22.0191 12.9321C21.9081 12.7391 21.7081 12.5931 21.4871 12.5151L21.4861 12.5171Z" fill="#207900"/>
<path d="M20.9944 12.472C20.9114 12.415 20.8204 12.373 20.7144 12.373C20.6734 12.373 20.6374 12.386 20.5984 12.392C20.4804 12.411 20.3724 12.446 20.2854 12.492C20.1534 12.562 20.0664 12.637 20.0664 12.637C20.0664 12.637 20.3434 12.585 20.5144 12.585C20.5964 12.585 20.7014 12.637 20.7904 12.738C20.8874 12.848 20.9634 13.018 20.9634 13.258C20.9634 13.72 20.6204 13.957 20.6204 13.957C21.2274 13.957 21.3204 13.336 21.3204 13.06C21.3204 12.985 21.2994 12.901 21.2654 12.817C21.2114 12.683 21.1154 12.557 20.9934 12.473L20.9944 12.472Z" fill="#207900"/>
<path d="M26.7044 16.1747C26.7044 16.1927 26.7124 16.2137 26.7144 16.2317C26.7494 16.5627 26.9564 16.9477 26.9694 17.3097C26.9814 17.6917 26.9024 18.1667 26.9024 18.1667C27.3014 17.9157 27.3054 17.3917 27.2174 16.9567C27.1714 16.7297 27.1024 16.5257 27.0484 16.3997C27.0094 16.3107 26.9884 16.2147 26.9774 16.1217C26.9634 16.0107 26.9644 15.9077 26.9714 15.8167C26.9804 15.7017 26.9934 15.6267 27.0014 15.5907C27.0034 15.5797 27.0084 15.5547 27.0084 15.5547C27.0084 15.5547 26.9924 15.5717 26.9824 15.5807C26.9194 15.6407 26.6944 15.8767 26.7044 16.1747Z" fill="#207900"/>
<path d="M27.8813 18.721C27.9173 18.79 27.9503 18.867 27.9813 18.944C28.0243 19.051 28.0603 19.151 28.0893 19.24C28.1303 19.365 28.1572 19.46 28.1572 19.46C28.1872 19.371 28.2012 19.283 28.2032 19.196C28.2072 19.073 28.1822 18.954 28.1472 18.836C28.0982 18.674 28.0243 18.517 27.9403 18.367C27.8933 18.283 27.8482 18.202 27.8022 18.123C27.7602 18.05 27.7222 17.978 27.6882 17.909C27.6762 17.884 27.6663 17.86 27.6553 17.836C27.6133 17.741 27.5813 17.648 27.5763 17.562V17.559C27.5723 17.471 27.5713 17.377 27.5723 17.286C27.5753 17.047 27.5903 16.833 27.5903 16.833C27.5903 16.833 27.4193 17.19 27.4062 17.507C27.4062 17.518 27.4123 17.534 27.4123 17.545C27.4203 17.862 27.7133 18.404 27.8703 18.701C27.8733 18.706 27.8772 18.715 27.8802 18.72L27.8813 18.721Z" fill="#207900"/>
<path d="M28.3965 22.202C28.4015 22.644 28.5915 22.905 28.5915 22.905C28.5085 22.661 28.5945 22.37 28.6755 22.076C28.7225 21.907 28.7675 21.737 28.7765 21.573C28.8035 21.122 28.3535 20.542 28.3535 20.542C28.3535 20.542 28.3615 20.581 28.3705 20.638C28.4625 20.823 28.5975 21.131 28.5915 21.362C28.5855 21.643 28.4975 21.935 28.3965 22.202Z" fill="#207900"/>
<path d="M27.8415 23.1676C27.8145 23.5246 27.9465 23.9346 27.9465 23.9346C27.9465 23.9346 27.9975 23.2746 28.1165 22.9046C28.1765 22.7186 28.2925 22.4726 28.3955 22.2016C28.4975 21.9346 28.5855 21.6426 28.5915 21.3616C28.5965 21.1306 28.4625 20.8226 28.3705 20.6376C28.3255 20.5466 28.2885 20.4766 28.2885 20.4766C28.2885 20.4766 28.3265 20.8166 28.2885 21.3076C28.2845 21.3616 28.2835 21.4086 28.2775 21.4656C28.2115 22.0476 27.8675 22.8116 27.8425 23.1666L27.8415 23.1676Z" fill="#207900"/>
<path d="M12.3053 20.6985C12.3003 20.7145 12.2933 20.7385 12.2863 20.7595C12.2543 20.8655 12.2063 21.0375 12.1733 21.2395C12.1643 21.2965 12.1603 21.3565 12.1543 21.4165C12.1643 21.6475 12.2113 21.9335 12.2953 22.1525C12.3243 22.2275 12.3503 22.3095 12.3783 22.3885C12.5483 22.7565 12.7483 23.1125 12.7703 23.2605C12.8093 23.5235 12.7703 24.0265 12.7703 24.0265C12.7703 24.0265 13.1003 23.5645 13.0213 23.1275C12.9423 22.6955 12.3753 21.8225 12.3483 21.5595C12.3403 21.4845 12.3353 21.3795 12.3313 21.2665C12.3213 20.9805 12.3213 20.6475 12.3213 20.6475C12.3213 20.6475 12.3113 20.6775 12.3043 20.6975L12.3053 20.6985Z" fill="#207900"/>
<path d="M12.154 21.4175C12.151 21.3495 12.151 21.2905 12.156 21.2365C12.16 21.1845 12.164 21.1295 12.176 21.0965C12.216 20.9865 12.258 20.8535 12.287 20.7595C12.294 20.7385 12.301 20.7145 12.306 20.6985C12.315 20.6675 12.321 20.6475 12.321 20.6475C12.321 20.6475 12.095 20.9075 11.986 21.2035C11.96 21.2735 11.934 21.3435 11.926 21.4145C11.885 21.7825 11.971 22.3545 12.176 22.7335C12.441 23.2235 12.401 23.6305 12.401 23.6305C12.401 23.6305 12.599 23.4595 12.586 23.1835C12.575 22.9665 12.481 22.6725 12.378 22.3895C12.349 22.3105 12.324 22.2285 12.295 22.1535C12.211 21.9345 12.164 21.6495 12.154 21.4175Z" fill="#207900"/>
</svg>
