<svg width="41" height="41" viewBox="0 0 41 41" fill="none" xmlns="http://www.w3.org/2000/svg">
<path d="M34.5 8.5H6.5C4.29086 8.5 2.5 10.2909 2.5 12.5V28.5C2.5 30.7091 4.29086 32.5 6.5 32.5H34.5C36.7091 32.5 38.5 30.7091 38.5 28.5V12.5C38.5 10.2909 36.7091 8.5 34.5 8.5Z" fill="#134291"/>
<path d="M38.5 18.485H22.552V8.5H18.448V18.485H2.5V22.639H18.448V32.5H22.552V22.639H38.5V18.485Z" fill="#E3E7EA"/>
<path d="M14.4167 16.2077C14.0707 15.5927 11.0117 15.3417 9.89666 15.8997C10.8977 15.0337 13.8977 15.6687 13.9937 14.2457C14.0697 13.1117 11.9357 13.2067 11.1077 12.9957C10.2817 12.7847 11.0117 12.5537 11.6467 12.2837C12.2817 12.0147 12.9747 11.7657 12.8197 10.8487C12.6657 9.93269 11.1077 9.99569 10.3957 9.95669C9.68366 9.91869 8.77966 10.1877 8.99066 10.6297C8.43366 10.8607 7.77966 10.8217 7.39466 10.6297C7.39066 10.7847 7.63466 10.8417 7.63466 10.8417L7.22166 10.9387C7.70266 11.1697 8.70266 11.0537 9.12566 10.8427C9.20166 10.9387 9.47166 10.9967 10.5107 10.9387C11.5497 10.8807 11.6647 10.6887 11.9147 10.9187C12.3357 11.3057 11.4527 11.4577 10.3387 11.8617C9.22266 12.2657 9.70366 13.2467 10.2997 13.5537C10.8967 13.8617 11.4927 13.8347 12.4927 13.9977C13.4937 14.1597 12.7807 14.3617 12.2047 14.4007C11.9927 14.4157 10.2997 14.4767 9.39666 14.9577C8.34066 15.5187 8.55066 16.2267 8.45466 16.3427C8.35866 16.4577 7.43466 16.4187 6.72366 16.2077C6.97366 16.8997 8.16666 16.8997 8.58866 16.9197C9.01166 16.9387 9.39666 17.9387 11.9547 17.8997C14.5127 17.8617 14.7607 16.8237 14.4167 16.2077ZM10.1027 10.4097C9.98766 10.5247 9.88666 10.4817 10.0017 10.3377C10.1167 10.1937 10.2177 10.2937 10.1027 10.4097ZM9.99966 16.5527C10.2497 16.2657 13.6937 16.1347 13.5067 16.6057C13.2657 17.2117 9.69866 16.8997 9.99966 16.5527ZM33.6467 16.2077C33.3007 15.5927 30.2417 15.3417 29.1267 15.8997C30.1267 15.0337 33.1267 15.6687 33.2237 14.2457C33.3007 13.1117 31.1657 13.2067 30.3397 12.9957C29.5127 12.7847 30.2427 12.5537 30.8777 12.2837C31.5127 12.0147 32.2057 11.7657 32.0517 10.8487C31.8987 9.93269 30.3407 9.99569 29.6287 9.95769C28.9167 9.91969 28.0127 10.1887 28.2247 10.6307C27.6667 10.8617 27.0137 10.8227 26.6277 10.6307C26.6237 10.7857 26.8687 10.8427 26.8687 10.8427L26.4547 10.9387C26.9357 11.1697 27.9357 11.0537 28.3587 10.8427C28.4367 10.9387 28.7047 10.9967 29.7437 10.9387C30.7827 10.8807 30.8977 10.6887 31.1487 10.9187C31.5687 11.3057 30.6867 11.4577 29.5707 11.8617C28.4557 12.2657 28.9357 13.2467 29.5327 13.5537C30.1297 13.8617 30.7247 13.8347 31.7257 13.9977C32.7257 14.1597 32.0127 14.3617 31.4377 14.4007C31.2257 14.4157 29.5337 14.4767 28.6297 14.9577C27.5737 15.5187 27.7827 16.2267 27.6867 16.3427C27.5907 16.4587 26.6677 16.4187 25.9557 16.2077C26.2057 16.8997 27.3977 16.8997 27.8207 16.9197C28.2427 16.9387 28.6277 17.9387 31.1867 17.8997C33.7447 17.8617 33.9947 16.8237 33.6487 16.2077H33.6467ZM29.3337 10.4097C29.2177 10.5247 29.1177 10.4817 29.2327 10.3377C29.3477 10.1937 29.4487 10.2937 29.3337 10.4097ZM29.2307 16.5527C29.4787 16.2657 32.9237 16.1347 32.7367 16.6057C32.4957 17.2117 28.9297 16.8997 29.2307 16.5527ZM14.4147 29.6327C14.0687 29.0167 11.0097 28.7667 9.89466 29.3247C10.8957 28.4587 13.8957 29.0937 13.9917 27.6707C14.0687 26.5377 11.9337 26.6317 11.1067 26.4207C10.2797 26.2087 11.0107 25.9777 11.6457 25.7087C12.2797 25.4397 12.9737 25.1897 12.8187 24.2727C12.6647 23.3567 11.1067 23.4197 10.3957 23.3817C9.68366 23.3437 8.77966 23.6127 8.99066 24.0547C8.43366 24.2857 7.77966 24.2477 7.39466 24.0547C7.39066 24.2087 7.63466 24.2657 7.63466 24.2657L7.22066 24.3627C7.70166 24.5937 8.70166 24.4777 9.12466 24.2657C9.20066 24.3627 9.47066 24.4207 10.5097 24.3627C11.5487 24.3047 11.6637 24.1127 11.9137 24.3427C12.3347 24.7297 11.4517 24.8817 10.3377 25.2857C9.22166 25.6887 9.70266 26.6697 10.2987 26.9777C10.8957 27.2857 11.4917 27.2577 12.4917 27.4197C13.4927 27.5817 12.7797 27.7857 12.2037 27.8237C11.9917 27.8397 10.2987 27.9017 9.39566 28.3827C8.33966 28.9447 8.54966 29.6517 8.45366 29.7667C8.35766 29.8817 7.43366 29.8447 6.72266 29.6327C6.97266 30.3247 8.16466 30.3247 8.58766 30.3437C9.01066 30.3637 9.39566 31.3627 11.9537 31.3247C14.5117 31.2867 14.7597 30.2487 14.4157 29.6327H14.4147ZM10.1007 23.8347C9.98566 23.9497 9.88566 23.9067 10.0007 23.7627C10.1157 23.6177 10.2157 23.7187 10.1007 23.8347ZM9.99766 29.9757C10.2477 29.6897 13.6917 29.5577 13.5047 30.0307C13.2637 30.6367 9.69666 30.3247 9.99766 29.9757ZM33.6447 29.6327C33.2987 29.0167 30.2397 28.7667 29.1247 29.3247C30.1247 28.4587 33.1247 29.0937 33.2217 27.6707C33.2987 26.5377 31.1637 26.6317 30.3377 26.4207C29.5107 26.2087 30.2407 25.9777 30.8757 25.7087C31.5097 25.4397 32.2037 25.1897 32.0497 24.2727C31.8967 23.3567 30.3387 23.4197 29.6267 23.3817C28.9147 23.3437 28.0107 23.6127 28.2227 24.0547C27.6647 24.2857 27.0117 24.2477 26.6257 24.0547C26.6217 24.2087 26.8667 24.2657 26.8667 24.2657L26.4527 24.3627C26.9337 24.5937 27.9337 24.4777 28.3567 24.2657C28.4347 24.3627 28.7027 24.4207 29.7417 24.3627C30.7807 24.3047 30.8957 24.1127 31.1467 24.3427C31.5667 24.7297 30.6847 24.8817 29.5687 25.2857C28.4537 25.6887 28.9337 26.6697 29.5307 26.9777C30.1277 27.2857 30.7227 27.2577 31.7237 27.4197C32.7237 27.5817 32.0107 27.7857 31.4357 27.8237C31.2237 27.8387 29.5317 27.9007 28.6277 28.3807C27.5717 28.9427 27.7807 29.6497 27.6847 29.7657C27.5887 29.8817 26.6657 29.8437 25.9537 29.6317C26.2037 30.3237 27.3957 30.3237 27.8197 30.3427C28.2417 30.3627 28.6277 31.3617 31.1857 31.3237C33.7427 31.2867 33.9927 30.2487 33.6467 29.6327H33.6447ZM29.3317 23.8347C29.2157 23.9497 29.1157 23.9067 29.2307 23.7627C29.3457 23.6177 29.4467 23.7187 29.3317 23.8347ZM29.2287 29.9757C29.4767 29.6897 32.9217 29.5577 32.7347 30.0307C32.4937 30.6367 28.9277 30.3247 29.2287 29.9757Z" fill="#E3E7EA"/>
</svg>
