<svg width="41" height="41" viewBox="0 0 41 41" fill="none" xmlns="http://www.w3.org/2000/svg">
<path d="M34.5 8.5H6.5C4.29086 8.5 2.5 10.2909 2.5 12.5V28.5C2.5 30.7091 4.29086 32.5 6.5 32.5H34.5C36.7091 32.5 38.5 30.7091 38.5 28.5V12.5C38.5 10.2909 36.7091 8.5 34.5 8.5Z" fill="#009939"/>
<path d="M20.4992 23.0444C16.3532 23.0444 12.9922 19.7214 12.9562 15.6084C12.7952 16.2284 12.7012 16.8744 12.7012 17.5444C12.7012 21.8244 16.1922 25.2944 20.4992 25.2944C24.8062 25.2944 28.2962 21.8244 28.2962 17.5444C28.2962 16.8754 28.2022 16.2294 28.0412 15.6094C28.0052 19.7214 24.6442 23.0444 20.4992 23.0444Z" fill="#FCC100"/>
<path d="M23.3709 14.6169H21.1779L20.4999 12.5439L19.8229 14.6169H17.6289L19.4039 15.8979L18.7259 17.9709L20.4999 16.6899L22.2739 17.9709L21.5959 15.8979L23.3709 14.6169Z" fill="#FCC100"/>
</svg>
