<svg width="41" height="41" viewBox="0 0 41 41" fill="none" xmlns="http://www.w3.org/2000/svg">
<path d="M7.08764 11.921L3.37664 10.04C3.45064 9.94602 3.52264 9.85102 3.60464 9.76302C3.77764 9.57902 3.96664 9.41402 4.17164 9.26502C4.52664 9.00802 4.92564 8.81702 5.35464 8.68802L11.1396 11.62V8.49902H6.49864C4.48764 8.49902 2.83964 9.98802 2.55664 11.92H7.08664L7.08764 11.921Z" fill="#261B64"/>
<path d="M7.088 15.4297H2.513H2.5V17.7557L2.513 17.7487L7.088 15.4297Z" fill="#261B64"/>
<path d="M20.7625 8.5H14.6035V11.622L20.7625 8.5Z" fill="#261B64"/>
<path d="M34.5 8.5H23.257V9.589L18.656 11.921H23.257V15.43H18.656L23.257 17.762V18.939H20.935L14.603 15.73V18.939H11.141V15.73L4.81 18.939H2.5V28.5C2.5 30.709 4.291 32.5 6.5 32.5H34.5C36.709 32.5 38.5 30.709 38.5 28.5V12.5C38.5 10.291 36.709 8.5 34.5 8.5ZM34.859 22.071C34.854 22.146 34.855 22.226 34.847 22.299C34.719 23.414 34.255 24.241 33.501 24.913C32.198 26.078 30.333 26.332 30.333 26.611C30.333 26.334 28.468 26.078 27.164 24.913C26.41 24.241 25.948 23.415 25.818 22.299C25.81 22.226 25.812 22.146 25.806 22.071V15.219H34.859V22.071Z" fill="#261B64"/>
<path d="M13.9102 11.972V12.623H14.6032H17.2722H23.2572V11.921H18.6562L23.2572 9.589V8.5H23.0842L16.3342 11.921H14.7862L21.5362 8.5H20.7622L14.6032 11.622V8.5H13.9102V11.921V11.972Z" fill="#E3E7EA"/>
<path d="M2.51233 12.623H11.8333V8.5H11.1403V11.621L5.35533 8.689C4.92633 8.819 4.52633 9.009 4.17233 9.266L9.40933 11.921H7.86133L3.60433 9.764C3.52233 9.851 3.45033 9.946 3.37633 10.041L7.08733 11.922H2.48633V12.624L2.51233 12.623Z" fill="#E3E7EA"/>
<path d="M2.51233 18.9255L9.40933 15.4295H10.9573L4.03433 18.9385H4.80933L11.1403 15.7295V18.9385H11.8333V15.4295V15.3785V14.7285H11.1403H8.47233H2.51233H2.48633V15.4295H2.49933H2.51233H7.08733L2.51233 17.7485L2.49933 17.7555L2.48633 17.7615V18.9385L2.51233 18.9255Z" fill="#E3E7EA"/>
<path d="M14.6032 14.7285H13.9102V15.3785V15.4295V18.9385H14.6032V15.7295L20.9352 18.9385H23.2572L16.3342 15.4295H17.8822L23.2572 18.1535V17.7615L18.6562 15.4295H23.2572V14.7285H17.2722H14.6032Z" fill="#E3E7EA"/>
<path d="M2.51233 14.729H8.47233H11.1403H11.8333V15.379V15.43V18.939H13.9093V15.43V15.379V14.729H14.6023H17.2713H23.2563V12.623H17.2713H14.6023H13.9093V11.972V11.921V8.5H11.8333V11.921V11.972V12.623H11.1403H8.47233H2.51233H2.48633V14.729H2.51233Z" fill="#CC001C"/>
<path d="M4.03433 18.9387L10.9573 15.4297H9.40933L2.51233 18.9257L2.48633 18.9387H2.49933H2.51233H4.03433Z" fill="#CC001C"/>
<path d="M16.334 15.4297L23.257 18.9387V18.1537L17.882 15.4297H16.334Z" fill="#CC001C"/>
<path d="M7.86147 11.9206H9.40947L4.17247 9.26562C3.96747 9.41363 3.77847 9.57963 3.60547 9.76363L7.86147 11.9206Z" fill="#CC001C"/>
<path d="M16.3332 11.921L23.0832 8.5H21.5352L14.7852 11.921H16.3332Z" fill="#CC001C"/>
<path d="M25.8067 22.0707H27.9707C28.0187 22.0177 28.0797 21.9667 28.1707 21.9277C28.5807 21.7497 29.0207 21.5668 29.1027 21.2008C29.1727 20.8978 29.2677 20.7307 29.4377 20.6667C29.4337 20.6317 29.4397 20.5968 29.4667 20.5678C29.4967 20.5348 29.5277 20.4817 29.5627 20.4097C29.5987 20.3377 29.6267 20.3277 29.7837 20.2397C29.8567 20.1987 29.9487 20.1447 30.0447 20.0837V18.7397C29.9077 18.7737 29.6867 18.7148 29.5167 18.7348C29.4437 18.7428 29.3847 18.7048 29.3937 18.6318C29.4037 18.5568 29.4137 18.4438 29.3987 18.3398C29.3767 18.1788 29.4537 17.9557 29.5617 17.7087C29.6527 17.5027 29.6967 17.3797 29.7117 17.2747H28.2887V16.7027H30.0447V15.9348H30.6487V16.7027H32.3737V17.2747H31.8287C31.8707 17.3037 31.9007 17.3497 31.8517 17.4097C31.9267 17.4547 31.9827 17.5677 31.9437 17.6437C31.9047 17.7197 31.7847 17.7318 31.7367 17.6628C31.6807 17.6868 31.5937 17.6917 31.5377 17.6357C31.5147 17.6627 31.4747 17.6657 31.4397 17.6597C31.4267 17.8297 31.5277 17.9017 31.5987 17.9627C31.6427 17.9687 31.7017 17.9917 31.7927 18.0697C31.8857 18.1467 32.0187 18.2797 31.9727 18.6497C31.9267 19.0197 31.9427 19.1788 31.9237 19.3848C31.8897 19.7498 31.8067 20.0518 31.6627 20.0268C31.8607 20.3708 31.8787 20.6688 32.0067 20.9048C32.1287 21.1288 32.2047 21.5787 32.1677 22.0707H34.8557V15.2188H25.8027V22.0707H25.8067Z" fill="#00A0BA"/>
<path d="M30.0451 21.741C29.9241 21.509 29.7771 21.275 29.5861 21.043C29.4431 21.572 29.0741 21.916 28.4961 22.04C28.4621 22.047 28.4421 22.061 28.4141 22.071H30.0451V21.742V21.741Z" fill="#00A0BA"/>
<path d="M29.91 20.5415C29.854 20.5825 29.822 20.6575 29.793 20.7145C29.776 20.7505 29.764 20.7985 29.75 20.8445C29.854 20.9515 29.958 21.0595 30.046 21.1685V20.3965C29.955 20.4535 29.967 20.4995 29.91 20.5415Z" fill="#00A0BA"/>
<path d="M31.0154 17.9814C31.0324 17.9024 31.0274 17.8214 31.0064 17.7554C30.9514 17.7624 30.8464 17.7394 30.8234 17.7264C30.7444 17.6824 30.7744 17.6364 30.7944 17.5984C30.8204 17.5544 30.7834 17.5474 30.8024 17.4884C30.7864 17.4764 30.7824 17.4624 30.7944 17.4474C30.8074 17.4314 30.8204 17.4094 30.8304 17.3864C30.8114 17.3804 30.7944 17.3774 30.7844 17.3664C30.7604 17.3394 30.7754 17.3154 30.7974 17.3004C30.8084 17.2924 30.8144 17.2834 30.8244 17.2754H30.6504V18.1284C30.7544 18.0384 30.8094 17.9844 30.8724 17.9934C30.9154 18.0004 30.9664 17.9904 31.0154 17.9834V17.9814Z" fill="#00A0BA"/>
<path d="M29.9053 17.3865C29.9053 18.1465 29.8133 18.0855 29.8133 18.2675C29.8133 18.3165 29.8033 18.3615 29.8523 18.3455C29.9033 18.3305 29.9743 18.3085 30.0463 18.3085V17.2725H29.9513C29.9083 17.2925 29.9053 17.3185 29.9053 17.3865Z" fill="#00A0BA"/>
<path d="M32.1706 22.0713C32.1686 22.0973 32.1706 22.1223 32.1676 22.1483C32.1176 22.6713 31.9796 23.8463 32.3946 24.6363C32.3256 24.6853 32.1606 24.6363 32.0126 24.4803C32.0176 24.4853 32.0236 24.4903 32.0286 24.4953C32.0496 24.5813 32.0766 24.5763 32.0916 24.6363C32.1096 24.7013 32.0686 24.7683 32.0456 24.8063C32.0216 24.8453 32.0046 24.8993 32.0056 24.9263C32.0066 24.9533 32.0016 24.9853 31.9936 25.0023C31.9836 25.0173 31.9746 25.0413 31.9746 25.0543C31.9746 25.1223 31.9366 25.1433 31.9026 25.1253C31.8906 25.1463 31.8576 25.1753 31.8356 25.1603C31.8106 25.1963 31.7736 25.2133 31.7516 25.1893C31.7326 25.2263 31.6876 25.2363 31.6626 25.2133C31.6566 25.2473 31.5876 25.2683 31.5666 25.2523C31.5216 25.2183 31.5156 25.1893 31.5346 25.1553C31.5516 25.1253 31.5886 25.0723 31.5946 25.0183C31.6026 24.9243 31.6576 24.7513 31.7096 24.6443C31.7196 24.6223 31.7386 24.6103 31.7276 24.5733C31.7166 24.5383 31.6916 24.4763 31.6746 24.4223C31.6796 24.4193 31.6886 24.4123 31.6936 24.4073C31.6866 24.4123 31.6806 24.4143 31.6736 24.4203C31.2996 24.7043 30.9486 25.0523 30.4296 24.7043L30.4286 24.7033C30.4196 24.7153 30.4126 24.7343 30.4026 24.7453C30.4146 24.7333 30.4266 24.7233 30.4376 24.7113C30.4766 24.7443 30.5646 24.7833 30.6046 24.8003C30.4946 24.9163 30.3396 24.9143 30.2716 24.8443C30.3106 24.8313 30.3566 24.7903 30.4006 24.7463C30.2746 24.8873 30.1256 24.8973 30.0146 24.7573C29.8666 24.5683 28.8326 23.3463 28.2996 22.7433C28.3156 22.7433 28.3246 22.7333 28.3386 22.7303C28.1936 22.7633 28.0046 22.7553 27.9236 22.6133C27.8546 22.4953 27.8016 22.2563 27.9706 22.0723H25.8066C25.8116 22.1473 25.8106 22.2273 25.8186 22.3003C25.9476 23.4163 26.4106 24.2423 27.1646 24.9143C28.4686 26.0793 30.3336 26.3343 30.3336 26.6123C30.3336 26.3343 32.1986 26.0793 33.5016 24.9143C34.2556 24.2423 34.7196 23.4153 34.8476 22.3003C34.8556 22.2273 34.8546 22.1473 34.8596 22.0733H32.1716L32.1706 22.0713Z" fill="#9F1D22"/>
<path d="M28.2064 22.3653C28.2864 22.2233 28.4634 22.2173 28.5484 22.3803C28.5834 22.4503 28.5744 22.5293 28.5374 22.5953C28.8534 22.9203 29.8404 23.9643 29.9674 24.0833C30.0024 24.1153 30.0214 24.1143 30.0474 24.1283V22.0703H28.4164C28.2044 22.1493 28.1594 22.3013 28.2064 22.3653Z" fill="#9F1D22"/>
<path d="M30.6479 20.1973C30.5079 20.2313 30.2829 20.2713 30.0759 20.3763C30.0619 20.3833 30.0559 20.3893 30.0449 20.3963V21.1683C30.3269 21.5193 30.5229 21.8773 30.6479 22.2383V20.1973Z" fill="black"/>
<path d="M30.6481 19.6766V18.1256V17.2726H30.8221C30.8441 17.2536 30.8671 17.2346 30.8831 17.2146C30.9191 17.1706 30.9011 17.0976 30.9151 17.0656C30.9241 17.0456 30.9531 17.0206 30.9761 16.9956C30.9741 16.9986 30.9701 16.9916 30.9681 16.9956C30.9941 16.8196 31.1181 16.8246 31.1981 16.8426C31.2301 16.8496 31.3081 16.8576 31.3821 16.8376C31.5281 16.7986 31.6391 16.8506 31.6251 16.9906C31.6641 17.0196 31.7051 17.0896 31.6981 17.1486C31.6921 17.2076 31.7031 17.2326 31.7561 17.2406C31.7761 17.2436 31.8031 17.2566 31.8271 17.2736H32.3721V16.7016H30.6471V15.9336H30.0431V16.7016H28.2871V17.2736H29.7101C29.7131 17.2526 29.7241 17.2266 29.7241 17.2066C29.7241 17.1296 29.7301 17.0436 29.8001 16.9986C29.8521 16.9656 29.8611 16.9336 29.8801 16.9076C29.9211 16.8456 29.9611 16.8316 29.9651 16.8676C29.9701 16.8906 29.9611 16.9106 29.9421 16.9406C29.9871 16.9046 30.0601 16.8606 30.0801 16.8476C30.0961 16.8356 30.1831 16.7736 30.1871 16.8326C30.2231 16.8156 30.2471 16.8166 30.2541 16.8346C30.2641 16.8556 30.2581 16.8636 30.2411 16.8786C30.2651 16.8726 30.2951 16.9166 30.2461 16.9546C30.2711 16.9456 30.2971 16.9886 30.2511 17.0286C30.2041 17.0696 30.1491 17.0976 30.1311 17.1306C30.1151 17.1626 29.9971 17.2516 29.9511 17.2716C29.9511 17.2716 29.9511 17.2726 29.9491 17.2736H30.0441V18.3096V18.7386V20.0826C30.1571 20.0116 30.2781 19.9316 30.3961 19.8436C30.5001 19.7656 30.5701 19.7156 30.6471 19.6766H30.6481Z" fill="black"/>
<path d="M30.0449 24.1282C30.1149 24.1652 30.1669 24.1602 30.2039 24.0732C30.4839 23.4002 30.4819 22.5812 30.0449 21.7402V24.1282Z" fill="black"/>
<path d="M31.4077 18.1739C31.3097 18.2729 31.1427 18.2389 31.0227 18.4059C30.9477 18.2629 30.9567 18.1449 31.0027 18.0449C31.0127 18.0239 31.0107 18.0019 31.0147 17.9809C30.9657 17.9879 30.9147 17.9969 30.8717 17.9909C30.8087 17.9819 30.7537 18.0359 30.6497 18.1259V19.6769C30.7327 19.6349 30.8247 19.6059 30.9747 19.5719C31.0427 19.5569 31.0987 19.5569 31.1127 19.5039C31.1287 19.4479 31.1857 19.3899 31.2557 19.1129C31.3017 18.9309 31.4737 18.6799 31.6297 18.5499C31.7967 18.4129 31.8417 18.6049 31.8417 18.7779C31.8417 19.0389 31.7387 19.3399 31.5457 19.7149C31.5097 19.7889 31.4417 19.8299 31.3827 19.8489C31.3237 19.8689 31.2397 19.9429 31.1367 19.9969C31.0337 20.0519 30.8207 20.1549 30.6877 20.1889C30.6777 20.1909 30.6597 20.1959 30.6487 20.1979V22.2389C30.9217 23.0229 30.8537 23.8159 30.5187 24.5569C30.4917 24.6159 30.4607 24.6589 30.4297 24.7009C30.4297 24.7009 30.4297 24.7009 30.4307 24.7019C30.9487 25.0489 31.3007 24.7019 31.6747 24.4179C31.6817 24.4119 31.6877 24.4099 31.6947 24.4049C31.7077 24.3949 31.7227 24.3859 31.7427 24.3749C31.8047 24.3429 31.8587 24.3469 31.9277 24.4009C31.9597 24.4249 31.9877 24.4519 32.0137 24.4789C32.1617 24.6349 32.3267 24.6839 32.3957 24.6349C31.9807 23.8449 32.1187 22.6709 32.1687 22.1469C32.1717 22.1209 32.1697 22.0959 32.1717 22.0699C32.2077 21.5779 32.1317 21.1279 32.0107 20.9039C31.8827 20.6669 31.8637 20.3699 31.6667 20.0259C31.8117 20.0509 31.8947 19.7479 31.9277 19.3839C31.9467 19.1769 31.9317 19.0189 31.9767 18.6489C32.0227 18.2789 31.8897 18.1449 31.7967 18.0689C31.7057 17.9919 31.6467 17.9679 31.6027 17.9619C31.5277 17.9819 31.5067 18.0759 31.4077 18.1739Z" fill="#77B253"/>
<path d="M27.9228 22.612C28.0048 22.754 28.1928 22.762 28.3378 22.729C28.3238 22.732 28.3148 22.741 28.2988 22.742C28.8318 23.344 29.8658 24.567 30.0138 24.756C30.1248 24.895 30.2738 24.885 30.3998 24.745C30.3998 24.745 30.4018 24.744 30.4018 24.743C30.4108 24.732 30.4188 24.713 30.4278 24.701C30.4588 24.659 30.4908 24.616 30.5168 24.557C30.8518 23.816 30.9198 23.023 30.6468 22.239C30.5218 21.878 30.3258 21.52 30.0438 21.169C29.9558 21.06 29.8518 20.952 29.7478 20.845C29.7468 20.85 29.7448 20.853 29.7438 20.858C29.7388 20.878 29.6738 20.906 29.6738 20.865C29.6688 20.924 29.5818 20.961 29.5848 20.898C29.5798 20.942 29.4968 20.963 29.5078 20.903C29.4978 20.962 29.4708 20.971 29.4508 20.969C29.4308 20.967 29.4188 20.955 29.4208 20.905C29.4248 20.855 29.4388 20.707 29.4338 20.675C29.4338 20.672 29.4368 20.669 29.4368 20.665C29.2668 20.729 29.1718 20.896 29.1018 21.199C29.0198 21.565 28.5798 21.748 28.1698 21.926C28.0778 21.965 28.0178 22.016 27.9698 22.069C27.8018 22.253 27.8538 22.492 27.9228 22.61V22.612ZM28.4218 22.702C28.4358 22.695 28.4498 22.689 28.4618 22.68C28.4498 22.689 28.4358 22.694 28.4218 22.702ZM28.4958 22.04C29.0738 21.916 29.4428 21.573 29.5858 21.043C29.7768 21.276 29.9248 21.509 30.0448 21.741C30.4818 22.582 30.4838 23.401 30.2038 24.074C30.1668 24.161 30.1148 24.166 30.0448 24.129C30.0188 24.115 29.9988 24.115 29.9648 24.084C29.8378 23.965 28.8518 22.921 28.5348 22.596C28.5718 22.53 28.5808 22.451 28.5458 22.381C28.4608 22.218 28.2838 22.223 28.2038 22.366C28.1558 22.302 28.2008 22.15 28.4138 22.072C28.4418 22.062 28.4618 22.047 28.4958 22.04Z" fill="#FAAA34"/>
<path d="M31.3092 17.562C31.2702 17.549 31.2662 17.441 31.3262 17.429C31.3172 17.397 31.3212 17.36 31.3362 17.343C31.3502 17.325 31.3392 17.293 31.3032 17.267C31.2692 17.24 31.2392 17.136 31.2732 17.079C31.2162 17.099 31.0832 17.043 31.0562 17.003C31.0342 16.968 31.0012 16.972 30.9762 16.997C30.9532 17.022 30.9252 17.047 30.9152 17.067C30.9012 17.099 30.9202 17.172 30.8832 17.216C30.8672 17.237 30.8442 17.255 30.8222 17.274C30.8122 17.282 30.8062 17.292 30.7952 17.299C30.7732 17.315 30.7592 17.338 30.7822 17.365C30.7912 17.376 30.8082 17.379 30.8282 17.385C30.8182 17.408 30.8052 17.43 30.7922 17.446C30.7802 17.461 30.7852 17.475 30.8002 17.487C30.7812 17.546 30.8172 17.554 30.7922 17.597C30.7722 17.635 30.7422 17.681 30.8212 17.725C30.8442 17.738 30.9492 17.762 31.0042 17.754C31.0252 17.82 31.0302 17.901 31.0132 17.98C31.0082 18.001 31.0102 18.023 31.0012 18.044C30.9552 18.143 30.9462 18.262 31.0212 18.405C31.1402 18.238 31.3072 18.271 31.4062 18.173C31.5052 18.075 31.5252 17.981 31.6002 17.961C31.5282 17.9 31.4272 17.828 31.4412 17.658C31.4192 17.654 31.3962 17.649 31.3892 17.634C31.3732 17.594 31.3442 17.574 31.3092 17.562Z" fill="#F6DDCD"/>
<path d="M30.2695 24.842C30.3375 24.911 30.4925 24.914 30.6025 24.798C30.5625 24.781 30.4745 24.741 30.4355 24.709C30.4245 24.72 30.4125 24.731 30.4005 24.743L30.3985 24.745C30.3545 24.788 30.3085 24.83 30.2695 24.843V24.842Z" fill="#F6DDCD"/>
<path d="M31.8226 24.3547C31.7886 24.3527 31.7636 24.3637 31.7406 24.3757C31.7206 24.3857 31.7056 24.3947 31.6926 24.4057C31.6866 24.4107 31.6776 24.4167 31.6736 24.4207C31.6896 24.4747 31.7156 24.5367 31.7266 24.5717C31.7376 24.6087 31.7186 24.6207 31.7086 24.6427C31.6566 24.7487 31.6016 24.9227 31.5936 25.0167C31.5876 25.0717 31.5506 25.1237 31.5336 25.1537C31.5146 25.1887 31.5206 25.2177 31.5656 25.2507C31.5866 25.2667 31.6546 25.2457 31.6616 25.2117C31.6876 25.2357 31.7316 25.2257 31.7506 25.1877C31.7726 25.2117 31.8096 25.1947 31.8346 25.1587C31.8576 25.1737 31.8906 25.1447 31.9016 25.1237C31.9356 25.1417 31.9726 25.1197 31.9736 25.0527C31.9736 25.0397 31.9826 25.0157 31.9926 25.0007C32.0006 24.9847 32.0056 24.9527 32.0046 24.9247C32.0036 24.8967 32.0206 24.8437 32.0446 24.8047C32.0676 24.7667 32.1086 24.6997 32.0906 24.6347C32.0756 24.5747 32.0486 24.5797 32.0276 24.4937C32.0226 24.4887 32.0166 24.4837 32.0116 24.4787C31.9856 24.4517 31.9576 24.4247 31.9256 24.4007C31.8926 24.3757 31.8586 24.3557 31.8226 24.3547Z" fill="#F6DDCD"/>
<path d="M30.0455 18.3091C29.9735 18.3091 29.9025 18.3311 29.8515 18.3461C29.8025 18.3621 29.8125 18.3171 29.8125 18.2681C29.8125 18.0861 29.9045 18.1471 29.9045 17.3871C29.9045 17.3191 29.9085 17.2931 29.9505 17.2731C29.9515 17.2731 29.9505 17.2721 29.9525 17.2711C29.9985 17.2511 30.1165 17.1621 30.1325 17.1301C30.1505 17.0971 30.2055 17.0691 30.2525 17.0281C30.2985 16.9881 30.2715 16.9451 30.2475 16.9541C30.2965 16.9161 30.2665 16.8721 30.2425 16.8781C30.2585 16.8631 30.2655 16.8551 30.2555 16.8341C30.2495 16.8161 30.2245 16.8151 30.1885 16.8321C30.1835 16.7741 30.0975 16.8361 30.0815 16.8471C30.0625 16.8601 29.9885 16.9041 29.9435 16.9401C29.9625 16.9101 29.9705 16.8901 29.9665 16.8671C29.9625 16.8311 29.9225 16.8451 29.8815 16.9071C29.8625 16.9331 29.8535 16.9651 29.8015 16.9981C29.7325 17.0431 29.7255 17.1281 29.7255 17.2061C29.7255 17.2251 29.7145 17.2521 29.7115 17.2731C29.6965 17.3771 29.6525 17.5011 29.5615 17.7071C29.4535 17.9541 29.3765 18.1771 29.3985 18.3381C29.4135 18.4421 29.4035 18.5561 29.3935 18.6301C29.3845 18.7031 29.4435 18.7411 29.5165 18.7331C29.6865 18.7131 29.9085 18.7721 30.0445 18.7381L30.0455 18.3091Z" fill="#F6DDCD"/>
<path d="M29.4221 20.9055C29.4201 20.9545 29.4321 20.9675 29.4521 20.9695C29.4711 20.9715 29.4981 20.9625 29.5091 20.9035C29.4981 20.9635 29.5811 20.9425 29.5861 20.8985C29.5831 20.9625 29.6701 20.9245 29.6751 20.8655C29.6751 20.9065 29.7401 20.8785 29.7451 20.8585C29.7461 20.8535 29.7481 20.8505 29.7491 20.8455C29.7631 20.7995 29.7751 20.7515 29.7921 20.7155C29.8201 20.6585 29.8521 20.5835 29.9091 20.5425C29.9661 20.5005 29.9541 20.4545 30.0461 20.3975C30.0571 20.3905 30.0631 20.3845 30.0771 20.3775C30.2841 20.2725 30.5101 20.2325 30.6491 20.1985C30.6601 20.1955 30.6791 20.1915 30.6881 20.1895C30.8211 20.1555 31.0341 20.0515 31.1371 19.9975C31.2401 19.9435 31.3241 19.8705 31.3831 19.8495C31.4421 19.8305 31.5101 19.7895 31.5461 19.7155C31.7391 19.3405 31.8421 19.0395 31.8421 18.7785C31.8421 18.6055 31.7961 18.4135 31.6301 18.5505C31.4731 18.6805 31.3021 18.9315 31.2561 19.1135C31.1861 19.3905 31.1281 19.4485 31.1131 19.5045C31.0981 19.5585 31.0431 19.5585 30.9751 19.5725C30.8241 19.6065 30.7331 19.6345 30.6501 19.6775C30.5731 19.7165 30.5031 19.7665 30.3991 19.8445C30.2811 19.9325 30.1611 20.0125 30.0471 20.0835C29.9511 20.1435 29.8591 20.1985 29.7861 20.2395C29.6281 20.3275 29.6001 20.3375 29.5651 20.4095C29.5301 20.4815 29.4991 20.5355 29.4691 20.5675C29.4421 20.5965 29.4361 20.6305 29.4401 20.6665C29.4401 20.6695 29.4361 20.6725 29.4371 20.6765C29.4421 20.7085 29.4281 20.8555 29.4241 20.9065L29.4221 20.9055Z" fill="#F6DDCD"/>
<path d="M31.6987 17.1478C31.7057 17.0888 31.6647 17.0198 31.6257 16.9898C31.6397 16.8498 31.5277 16.7978 31.3827 16.8368C31.3087 16.8568 31.2307 16.8498 31.1987 16.8418C31.1197 16.8238 30.9958 16.8188 30.9688 16.9948C30.9708 16.9918 30.9737 16.9978 30.9767 16.9948C31.0017 16.9698 31.0337 16.9658 31.0567 17.0008C31.0837 17.0408 31.2158 17.0978 31.2738 17.0768C31.2398 17.1338 31.2698 17.2378 31.3038 17.2648C31.3398 17.2908 31.3498 17.3228 31.3368 17.3408C31.3218 17.3568 31.3177 17.3948 31.3267 17.4268C31.2667 17.4388 31.2707 17.5468 31.3097 17.5598C31.3457 17.5718 31.3737 17.5918 31.3897 17.6318C31.3967 17.6468 31.4197 17.6518 31.4417 17.6558C31.4767 17.6618 31.5168 17.6588 31.5398 17.6318C31.5958 17.6878 31.6828 17.6838 31.7388 17.6588C31.7858 17.7278 31.9067 17.7148 31.9457 17.6398C31.9847 17.5638 31.9288 17.4508 31.8538 17.4058C31.9018 17.3468 31.8717 17.3008 31.8307 17.2708C31.8067 17.2538 31.7798 17.2408 31.7598 17.2378C31.7068 17.2298 31.6947 17.2048 31.7017 17.1458L31.6987 17.1478Z" fill="#955C0F"/>
</svg>
