<svg width="41" height="41" viewBox="0 0 41 41" fill="none" xmlns="http://www.w3.org/2000/svg">
<path d="M6.5 8.5C4.291 8.5 2.5 10.291 2.5 12.5V28.5C2.5 30.709 4.291 32.5 6.5 32.5H20.5V8.5H6.5ZM9.844 14.277H8.402C8.375 14.604 8.109 14.864 7.775 14.864C7.772 14.864 7.77 14.863 7.767 14.863V16.355H5.907V14.857C5.591 14.837 5.343 14.592 5.317 14.277H3.829V12.417H5.33C5.384 12.135 5.614 11.921 5.907 11.903V10.339H7.767V11.897C7.767 11.897 7.772 11.896 7.775 11.896C8.086 11.896 8.333 12.123 8.389 12.417H9.844V14.277Z" fill="#E3E7EA"/>
<path d="M34.504 8.5H20.5V32.5H34.504C36.711 32.5 38.499 30.711 38.499 28.504V12.496C38.499 10.289 36.71 8.5 34.504 8.5Z" fill="#D00032"/>
<path d="M7.77413 11.8959C7.77413 11.8959 7.76913 11.8969 7.76613 11.8969V10.3389H5.90613V11.9029C5.61313 11.9209 5.38312 12.1349 5.32912 12.4169H3.82812V14.2769H5.31612C5.34212 14.5909 5.59013 14.8369 5.90613 14.8569V16.3549H7.76613V14.8629C7.76613 14.8629 7.77113 14.8639 7.77413 14.8639C8.10813 14.8639 8.37412 14.6039 8.40112 14.2769H9.84312V12.4169H8.38812C8.33212 12.1229 8.08513 11.8959 7.77413 11.8959ZM9.60512 14.0399H8.22713C8.25113 14.0979 8.26512 14.1609 8.26512 14.2279C8.26512 14.4989 8.04613 14.7179 7.77513 14.7179C7.68413 14.7179 7.60313 14.6859 7.52913 14.6429V16.1169H6.14512V14.6719C6.08312 14.6999 6.01512 14.7179 5.94312 14.7179C5.67212 14.7179 5.45312 14.4989 5.45312 14.2279C5.45312 14.1619 5.46713 14.0979 5.49113 14.0399H4.06912V12.6559H5.47813C5.46813 12.6159 5.45312 12.5769 5.45312 12.5339C5.45312 12.2629 5.67212 12.0439 5.94312 12.0439C6.01612 12.0439 6.08312 12.0619 6.14512 12.0899V10.5799H7.52913V12.1199C7.60213 12.0759 7.68313 12.0449 7.77513 12.0449C8.04613 12.0449 8.26512 12.2639 8.26512 12.5349C8.26512 12.5779 8.25113 12.6169 8.24013 12.6569H9.60512V14.0409V14.0399Z" fill="#CF142B"/>
<path d="M7.86731 12.6551C7.77531 12.5251 7.66331 12.4191 7.53031 12.3321V10.5791H6.14631V12.3621C6.03131 12.4441 5.93531 12.5401 5.85331 12.6551H4.07031V14.0391H5.82331C5.91031 14.1731 6.01631 14.2841 6.14631 14.3761V16.1151H7.53031V14.4061C7.67931 14.3101 7.80131 14.1881 7.89731 14.0391H9.60631V12.6551H7.86731ZM6.86031 14.2381C6.40031 14.2381 6.02731 13.8651 6.02731 13.4051C6.02731 12.9451 6.40031 12.5721 6.86031 12.5721C7.32031 12.5721 7.69331 12.9451 7.69331 13.4051C7.69331 13.8651 7.32031 14.2381 6.86031 14.2381Z" fill="#CCD6DD"/>
<path d="M7.69334 13.4053C7.69334 12.9453 7.32034 12.5723 6.86034 12.5723C6.40034 12.5723 6.02734 12.9453 6.02734 13.4053C6.02734 13.8653 6.40034 14.2383 6.86034 14.2383C7.32034 14.2383 7.69334 13.8653 7.69334 13.4053ZM7.12134 13.4883C6.98934 13.5483 6.83834 13.5643 6.71534 13.6393C6.70134 13.6473 6.68634 13.6543 6.67034 13.6603C6.67134 13.6693 6.67034 13.6803 6.66534 13.6923C6.65234 13.7253 6.64634 13.7613 6.64134 13.7963C6.71434 13.8213 6.77934 13.8603 6.84034 13.9063C6.92734 13.9733 6.76034 14.0673 6.69334 14.0163C6.62834 13.9663 6.56434 13.9283 6.48334 13.9093C6.45834 13.9033 6.43934 13.8783 6.44134 13.8523C6.44934 13.7903 6.45834 13.7293 6.48234 13.6703C6.48634 13.6583 6.49534 13.6493 6.50534 13.6413C6.48034 13.6443 6.45734 13.6433 6.44534 13.6323C6.39434 13.5853 6.34034 13.5233 6.32734 13.4523C6.31634 13.4523 6.30534 13.4493 6.29434 13.4453C6.29734 13.4983 6.32334 13.5433 6.34734 13.5903C6.35034 13.5953 6.34434 13.6003 6.33634 13.6073C6.35734 13.6303 6.33334 13.6653 6.30934 13.6823C6.29934 13.6893 6.29834 13.7003 6.29634 13.7113C6.28134 13.7843 6.08834 13.8133 6.10434 13.7313C6.11234 13.6933 6.13034 13.6653 6.15534 13.6403C6.12734 13.5863 6.09534 13.5343 6.10134 13.4703C6.10434 13.4343 6.18134 13.4163 6.22234 13.4103C6.23634 13.4073 6.25534 13.4033 6.27234 13.4023C6.28434 13.3623 6.34334 13.3453 6.37834 13.3403L6.44434 13.3323C6.44734 13.3083 6.48634 13.2863 6.50334 13.2783C6.54934 13.2573 6.59634 13.2443 6.64534 13.2353C6.62434 13.2143 6.65134 13.1823 6.67434 13.1693C6.69134 13.1593 6.71334 13.1493 6.73634 13.1463C6.72934 13.1393 6.72334 13.1313 6.72034 13.1203C6.70934 13.0803 6.70334 13.0373 6.70134 12.9933C6.68434 13.0053 6.66634 13.0183 6.65434 13.0353C6.68534 13.0563 6.65834 13.0973 6.63334 13.1123C6.59634 13.1373 6.54034 13.1493 6.49734 13.1283C6.45734 13.1083 6.41734 13.0763 6.39034 13.0413C6.38734 13.0373 6.38734 13.0333 6.38634 13.0283C6.35634 13.0373 6.32234 13.0413 6.29534 13.0333C6.25134 13.0193 6.29934 12.9863 6.31634 12.9763C6.42034 12.9143 6.53834 12.8793 6.65034 12.8313C6.67034 12.8233 6.70334 12.8143 6.73234 12.8143L6.73434 12.8083C6.74434 12.7893 6.76234 12.7743 6.78134 12.7633C6.74534 12.7663 6.71134 12.7583 6.70334 12.7313C6.69134 12.6923 6.69534 12.6603 6.71534 12.6253C6.74834 12.5693 6.93934 12.5513 6.89334 12.6313C6.88334 12.6483 6.88834 12.6623 6.89334 12.6793C6.90334 12.7073 6.87134 12.7323 6.83334 12.7473C6.84034 12.7473 6.84234 12.7463 6.84934 12.7473C6.85934 12.7483 6.85934 12.7523 6.86834 12.7573C6.90034 12.7453 6.94034 12.7283 6.96934 12.7523C6.98834 12.7673 6.92734 12.7853 6.90734 12.7983C6.91334 12.8043 6.83434 12.8113 6.83434 12.8213V12.8413C6.83434 12.8763 6.86734 13.0493 6.81634 13.0593C6.81134 13.1073 6.89734 13.3463 6.90934 13.3463H6.92234C6.95734 12.6543 7.00834 13.0893 7.03934 13.0233C7.04134 13.0183 7.04634 12.8703 7.05034 12.8663C7.01334 12.8483 7.04934 12.8153 7.07134 12.8033C7.10634 12.7833 7.16534 12.7653 7.20534 12.7833C7.26634 12.8093 7.32634 12.8433 7.39134 12.8563C7.42834 12.8633 7.43834 12.8883 7.40634 12.9133C7.37234 12.9403 7.31534 12.9583 7.27134 12.9493C7.24534 12.9433 7.22034 12.9363 7.19634 12.9283C7.19034 12.9373 7.18634 12.9453 7.17934 12.9533C7.19434 12.9613 7.20334 12.9733 7.19634 12.9913C7.18234 13.0283 7.16034 13.0723 7.16834 13.1123C7.17134 13.1313 7.16434 13.1463 7.15134 13.1603C7.16134 13.2023 7.16634 13.2443 7.17134 13.2873C7.21934 13.2463 7.27334 13.2143 7.33634 13.2033C7.42034 13.1883 7.48934 13.2383 7.55734 13.2803C7.63734 13.3293 7.46134 13.4093 7.40534 13.3753C7.37734 13.3583 7.34934 13.3403 7.32034 13.3253L7.31434 13.3303C7.30334 13.3403 7.29134 13.3513 7.28134 13.3623C7.25834 13.3903 7.22334 13.3813 7.18734 13.3793C7.18734 13.3853 7.18934 13.3933 7.18834 13.3953C7.21434 13.3873 7.24234 13.4193 7.26734 13.4253C7.33934 13.4423 7.46734 13.4483 7.50734 13.5233C7.52634 13.5603 7.52834 13.6033 7.53034 13.6443C7.53134 13.6703 7.52934 13.7143 7.54534 13.7363C7.59134 13.8003 7.40734 13.8653 7.36834 13.8113C7.32634 13.7533 7.34834 13.6743 7.32934 13.6083C7.31034 13.5433 7.20734 13.5443 7.15034 13.5313C7.12234 13.5253 7.11134 13.5063 7.11634 13.4873L7.12134 13.4883Z" fill="#B2C0C9"/>
<path d="M5.82212 14.04H5.49113C5.46713 14.098 5.45312 14.161 5.45312 14.228C5.45312 14.499 5.67212 14.718 5.94312 14.718C6.01612 14.718 6.08312 14.7 6.14512 14.672V14.378C6.01512 14.286 5.90912 14.174 5.82212 14.041V14.04Z" fill="#99AAB5"/>
<path d="M7.5293 14.4061V14.6411C7.6023 14.6841 7.6833 14.7161 7.7753 14.7161C8.0463 14.7161 8.2653 14.4971 8.2653 14.2261C8.2653 14.1601 8.2513 14.0961 8.2273 14.0381H7.8963C7.8003 14.1871 7.6783 14.3091 7.5293 14.4051V14.4061Z" fill="#99AAB5"/>
<path d="M6.14512 12.362V12.089C6.08312 12.061 6.01512 12.043 5.94312 12.043C5.67212 12.043 5.45312 12.262 5.45312 12.533C5.45312 12.576 5.46713 12.615 5.47813 12.655H5.85313C5.93513 12.54 6.03012 12.444 6.14512 12.362Z" fill="#99AAB5"/>
<path d="M7.8663 12.655H8.2403C8.2503 12.615 8.2653 12.576 8.2653 12.533C8.2653 12.262 8.0463 12.043 7.7753 12.043C7.6843 12.043 7.6033 12.075 7.5293 12.118V12.332C7.6633 12.419 7.7743 12.525 7.8663 12.655Z" fill="#99AAB5"/>
<path d="M7.373 13.8122C7.412 13.8662 7.597 13.8012 7.55 13.7372C7.534 13.7152 7.537 13.6712 7.535 13.6452C7.533 13.6042 7.531 13.5612 7.512 13.5242C7.473 13.4492 7.345 13.4442 7.272 13.4262C7.247 13.4202 7.219 13.3882 7.193 13.3962C7.193 13.3962 7.193 13.3862 7.192 13.3802C7.228 13.3812 7.262 13.3912 7.286 13.3632C7.296 13.3512 7.308 13.3412 7.319 13.3312L7.325 13.3262C7.354 13.3402 7.382 13.3582 7.41 13.3762C7.465 13.4102 7.641 13.3302 7.562 13.2812C7.493 13.2392 7.425 13.1902 7.341 13.2042C7.278 13.2152 7.224 13.2472 7.176 13.2882C7.171 13.2452 7.166 13.2032 7.156 13.1612C7.169 13.1472 7.177 13.1322 7.173 13.1132C7.165 13.0732 7.188 13.0292 7.201 12.9922C7.208 12.9742 7.198 12.9622 7.184 12.9542C7.19 12.9462 7.195 12.9372 7.201 12.9292C7.225 12.9372 7.25 12.9452 7.276 12.9502C7.32 12.9592 7.377 12.9412 7.411 12.9142C7.443 12.8892 7.432 12.8632 7.396 12.8572C7.331 12.8442 7.271 12.8112 7.21 12.7842C7.17 12.7672 7.111 12.7842 7.076 12.8042C7.053 12.8162 7.018 12.8492 7.055 12.8672C7.051 12.8712 7.046 13.0192 7.044 13.0242C7.014 13.0902 6.962 12.6542 6.927 13.3472H6.914C6.902 13.3472 6.816 13.1082 6.821 13.0602C6.872 13.0502 6.839 12.8772 6.839 12.8422V12.8222C6.839 12.8122 6.917 12.8052 6.912 12.7992C6.933 12.7862 6.993 12.7682 6.974 12.7532C6.945 12.7292 6.905 12.7452 6.873 12.7582C6.863 12.7532 6.863 12.7502 6.854 12.7482C6.847 12.7472 6.845 12.7482 6.838 12.7482C6.875 12.7332 6.907 12.7082 6.898 12.6802C6.893 12.6632 6.888 12.6492 6.898 12.6322C6.944 12.5522 6.753 12.5702 6.72 12.6262C6.7 12.6612 6.696 12.6932 6.708 12.7322C6.716 12.7582 6.75 12.7672 6.786 12.7642C6.767 12.7742 6.749 12.7902 6.739 12.8092L6.737 12.8152C6.708 12.8152 6.675 12.8242 6.655 12.8322C6.544 12.8802 6.426 12.9142 6.321 12.9772C6.304 12.9872 6.256 13.0212 6.3 13.0342C6.326 13.0422 6.36 13.0382 6.391 13.0292C6.392 13.0342 6.392 13.0382 6.395 13.0422C6.422 13.0772 6.461 13.1102 6.502 13.1292C6.544 13.1502 6.6 13.1382 6.638 13.1132C6.663 13.0972 6.69 13.0572 6.659 13.0362C6.671 13.0192 6.689 13.0062 6.706 12.9942C6.708 13.0382 6.714 13.0822 6.725 13.1212C6.728 13.1322 6.734 13.1402 6.741 13.1472C6.718 13.1512 6.696 13.1602 6.679 13.1702C6.656 13.1842 6.629 13.2152 6.65 13.2362C6.602 13.2452 6.554 13.2572 6.508 13.2792C6.491 13.2872 6.453 13.3092 6.449 13.3332L6.383 13.3412C6.348 13.3472 6.29 13.3632 6.277 13.4032C6.26 13.4032 6.241 13.4072 6.227 13.4112C6.186 13.4172 6.109 13.4352 6.106 13.4712C6.101 13.5352 6.132 13.5862 6.16 13.6412C6.134 13.6662 6.116 13.6952 6.109 13.7322C6.092 13.8142 6.286 13.7852 6.301 13.7122C6.303 13.7012 6.304 13.6902 6.314 13.6832C6.338 13.6662 6.362 13.6322 6.341 13.6082C6.349 13.6012 6.355 13.5962 6.352 13.5912C6.328 13.5442 6.302 13.4982 6.299 13.4462C6.309 13.4502 6.32 13.4522 6.332 13.4532C6.345 13.5242 6.399 13.5862 6.45 13.6332C6.462 13.6442 6.485 13.6452 6.51 13.6422C6.5 13.6502 6.491 13.6592 6.487 13.6712C6.463 13.7302 6.454 13.7912 6.446 13.8532C6.443 13.8792 6.463 13.9042 6.488 13.9102C6.568 13.9292 6.633 13.9672 6.698 14.0172C6.765 14.0682 6.933 13.9742 6.845 13.9072C6.784 13.8612 6.718 13.8222 6.646 13.7972C6.651 13.7622 6.657 13.7262 6.67 13.6932C6.675 13.6812 6.676 13.6702 6.675 13.6612C6.691 13.6552 6.706 13.6482 6.72 13.6402C6.843 13.5652 6.994 13.5492 7.126 13.4892C7.12 13.5092 7.132 13.5272 7.16 13.5332C7.217 13.5462 7.32 13.5452 7.339 13.6102C7.358 13.6762 7.336 13.7552 7.378 13.8132L7.373 13.8122Z" fill="#99AAB5"/>
</svg>
