<svg width="41" height="41" viewBox="0 0 41 41" fill="none" xmlns="http://www.w3.org/2000/svg">
<path d="M34.5 8.5H6.5C4.29086 8.5 2.5 10.2909 2.5 12.5V28.5C2.5 30.7091 4.29086 32.5 6.5 32.5H34.5C36.7091 32.5 38.5 30.7091 38.5 28.5V12.5C38.5 10.2909 36.7091 8.5 34.5 8.5Z" fill="#DC0024"/>
<path d="M38.5 14.5H2.5V20.5H38.5V14.5Z" fill="#2E2F83"/>
<path d="M38.5 20.5H2.5V26.5H38.5V20.5Z" fill="#F3EB00"/>
<path d="M38.5 28.505V26.5H2.5V28.505C2.5 30.711 4.288 32.5 6.494 32.5H34.505C36.711 32.5 38.5 30.711 38.5 28.505Z" fill="#00944D"/>
</svg>
