<svg width="41" height="41" viewBox="0 0 41 41" fill="none" xmlns="http://www.w3.org/2000/svg">
<path d="M34.5 8.5H6.5C4.29086 8.5 2.5 10.2909 2.5 12.5V28.5C2.5 30.7091 4.29086 32.5 6.5 32.5H34.5C36.7091 32.5 38.5 30.7091 38.5 28.5V12.5C38.5 10.2909 36.7091 8.5 34.5 8.5Z" fill="#D3003B"/>
<path d="M22.0261 24.5C22.2881 24.5 22.5421 24.471 22.7891 24.424C20.9061 24.072 19.4811 22.452 19.4811 20.499C19.4811 18.546 20.9061 16.926 22.7891 16.575C22.5411 16.529 22.2871 16.499 22.0261 16.499C19.7771 16.499 17.9551 18.29 17.9551 20.499C17.9551 22.708 19.7781 24.5 22.0261 24.5Z" fill="#E3E7EA"/>
<path d="M26.0971 20.5C26.0971 22.452 24.6721 24.073 22.7891 24.425C23.0371 24.471 23.2911 24.501 23.5531 24.501C25.8011 24.501 27.6241 22.71 27.6241 20.501C27.6241 18.292 25.8011 16.501 23.5531 16.501C23.2911 16.501 23.0371 16.53 22.7891 16.577C24.6721 16.929 26.0971 18.548 26.0971 20.5Z" fill="#008235"/>
<path d="M6.66797 14.5V26.5H34.331V14.5H6.66797ZM23.554 24.5C23.292 24.5 23.038 24.471 22.79 24.424C22.542 24.47 22.288 24.5 22.027 24.5C19.778 24.5 17.956 22.709 17.956 20.5C17.956 18.291 19.779 16.5 22.027 16.5C22.289 16.5 22.543 16.529 22.79 16.576C23.038 16.53 23.292 16.5 23.554 16.5C25.802 16.5 27.625 18.291 27.625 20.5C27.625 22.709 25.802 24.5 23.554 24.5Z" fill="#008235"/>
<path d="M26.0984 20.5002C26.0984 18.5482 24.6734 16.9272 22.7904 16.5762C20.9074 16.9282 19.4824 18.5482 19.4824 20.5002C19.4824 22.4522 20.9074 24.0732 22.7904 24.4252C24.6734 24.0732 26.0984 22.4532 26.0984 20.5002Z" fill="#008235"/>
</svg>
