<svg width="41" height="41" viewBox="0 0 41 41" fill="none" xmlns="http://www.w3.org/2000/svg">
<path d="M2.5 28.5C2.5 30.709 4.291 32.5 6.5 32.5H34.5C36.709 32.5 38.5 30.709 38.5 28.5V24.5H2.5V28.5Z" fill="#06A237"/>
<path d="M34.505 8.5H6.495C4.288 8.5 2.5 10.289 2.5 12.495V16.5H38.5V12.495C38.5 10.288 36.711 8.5 34.505 8.5ZM27.281 12.94C27.382 13.082 27.203 13.286 26.986 13.436C26.466 13.795 26.149 13.919 25.285 14.316C25.959 13.651 26.186 13.403 26.708 13.044C26.843 12.95 26.993 12.877 27.111 12.871C27.183 12.867 27.243 12.888 27.281 12.941V12.94ZM26.839 12.376C26.953 12.508 26.795 12.726 26.593 12.893C26.106 13.296 25.801 13.448 24.975 13.918C25.588 13.198 25.792 12.929 26.278 12.526C26.417 12.411 26.577 12.321 26.699 12.318C26.755 12.318 26.803 12.334 26.838 12.376H26.839ZM26.352 11.85C26.476 11.973 26.338 12.204 26.152 12.387C25.702 12.83 25.411 13.008 24.63 13.547C25.177 12.777 25.357 12.49 25.807 12.048C25.947 11.91 26.114 11.798 26.241 11.803C26.283 11.805 26.321 11.82 26.352 11.85ZM25.82 11.37C25.954 11.482 25.838 11.724 25.668 11.922C25.259 12.402 24.986 12.603 24.255 13.207C24.732 12.394 24.886 12.092 25.295 11.612C25.422 11.463 25.579 11.339 25.707 11.332C25.749 11.33 25.786 11.342 25.82 11.37ZM25.161 10.907C25.191 10.907 25.22 10.917 25.247 10.935C25.391 11.035 25.294 11.287 25.143 11.5C24.779 12.013 24.527 12.238 23.853 12.903C24.256 12.051 24.38 11.739 24.746 11.225C24.868 11.052 25.029 10.903 25.161 10.907ZM24.55 10.532C24.581 10.532 24.611 10.536 24.639 10.552C24.791 10.639 24.717 10.897 24.586 11.122C24.268 11.665 24.034 11.912 23.422 12.632C23.747 11.749 23.847 11.424 24.165 10.882C24.272 10.699 24.418 10.54 24.55 10.532ZM23.94 10.209C23.96 10.209 23.978 10.216 23.998 10.224C24.158 10.297 24.11 10.561 23.998 10.797C23.73 11.365 23.518 11.629 22.971 12.399C23.218 11.492 23.288 11.162 23.557 10.594C23.654 10.388 23.798 10.203 23.94 10.209ZM23.271 9.942C23.291 9.942 23.311 9.944 23.332 9.952C23.497 10.011 23.47 10.277 23.38 10.522C23.162 11.111 22.976 11.393 22.5 12.207C22.666 11.282 22.706 10.947 22.923 10.357C23.002 10.143 23.129 9.947 23.271 9.942ZM22.612 9.731C22.622 9.731 22.634 9.733 22.644 9.736C22.814 9.781 22.812 10.05 22.743 10.301C22.578 10.907 22.416 11.204 22.013 12.056C22.096 11.12 22.107 10.781 22.272 10.176C22.336 9.94 22.457 9.72 22.612 9.731ZM21.608 10.054C21.651 9.814 21.752 9.585 21.907 9.582C21.918 9.582 21.929 9.582 21.94 9.584C22.113 9.615 22.133 9.881 22.087 10.137C21.976 10.754 21.842 11.064 21.517 11.947C21.517 11.007 21.497 10.672 21.608 10.054ZM20.936 9.987C20.959 9.728 21.048 9.475 21.222 9.489C21.397 9.504 21.443 9.77 21.42 10.029C21.365 10.653 21.259 10.974 21.012 11.882C20.929 10.945 20.88 10.611 20.936 9.987ZM20.503 9.459C20.678 9.459 20.746 9.719 20.746 9.979C20.746 10.606 20.669 10.933 20.503 11.859C20.336 10.933 20.259 10.606 20.259 9.979C20.259 9.719 20.327 9.459 20.503 9.459ZM19.783 9.489C19.957 9.474 20.047 9.728 20.069 9.987C20.124 10.611 20.076 10.945 19.993 11.882C19.747 10.974 19.64 10.653 19.585 10.029C19.561 9.77 19.608 9.505 19.783 9.489ZM19.065 9.583C19.076 9.583 19.088 9.581 19.098 9.581C19.253 9.584 19.354 9.814 19.397 10.053C19.508 10.67 19.488 11.006 19.488 11.946C19.162 11.063 19.028 10.753 18.918 10.136C18.872 9.88 18.892 9.614 19.065 9.583ZM18.361 9.736C18.372 9.733 18.384 9.732 18.393 9.731C18.548 9.72 18.669 9.941 18.733 10.176C18.898 10.781 18.908 11.12 18.992 12.056C18.589 11.204 18.427 10.906 18.262 10.301C18.193 10.05 18.19 9.781 18.361 9.736ZM17.673 9.952C17.694 9.944 17.714 9.942 17.735 9.942C17.876 9.948 18.003 10.143 18.082 10.356C18.3 10.945 18.34 11.281 18.505 12.206C18.029 11.393 17.843 11.111 17.625 10.521C17.535 10.276 17.508 10.011 17.673 9.952ZM17.007 10.224C17.027 10.215 17.045 10.21 17.065 10.209C17.207 10.203 17.351 10.389 17.448 10.594C17.716 11.162 17.787 11.491 18.034 12.399C17.487 11.629 17.276 11.365 17.007 10.797C16.895 10.561 16.847 10.298 17.007 10.224ZM16.365 10.551C16.384 10.541 16.403 10.534 16.424 10.531C16.564 10.513 16.724 10.685 16.839 10.882C17.157 11.424 17.255 11.749 17.582 12.632C16.97 11.912 16.736 11.665 16.418 11.122C16.287 10.897 16.213 10.639 16.365 10.552V10.551ZM15.756 10.934C15.782 10.916 15.812 10.907 15.842 10.906C15.974 10.902 16.135 11.051 16.257 11.224C16.622 11.738 16.747 12.05 17.15 12.902C16.476 12.237 16.224 12.012 15.86 11.499C15.709 11.286 15.612 11.033 15.756 10.934ZM15.183 11.369C15.208 11.348 15.236 11.335 15.266 11.331C15.398 11.317 15.57 11.45 15.708 11.611C16.117 12.091 16.27 12.392 16.748 13.206C16.017 12.602 15.744 12.401 15.335 11.921C15.165 11.722 15.049 11.48 15.183 11.369ZM14.651 11.849C14.681 11.818 14.72 11.804 14.762 11.802C14.889 11.797 15.056 11.909 15.196 12.047C15.646 12.49 15.826 12.776 16.373 13.546C15.592 13.007 15.301 12.829 14.851 12.386C14.665 12.202 14.527 11.972 14.651 11.849ZM14.164 12.375C14.199 12.333 14.247 12.316 14.303 12.317C14.425 12.32 14.585 12.41 14.724 12.525C15.211 12.928 15.414 13.197 16.027 13.917C15.201 13.448 14.896 13.295 14.409 12.892C14.207 12.725 14.05 12.507 14.164 12.375ZM13.722 12.939C13.754 12.896 13.801 12.873 13.857 12.869C13.979 12.861 14.147 12.939 14.295 13.042C14.816 13.401 15.044 13.65 15.718 14.314C14.854 13.917 14.537 13.793 14.017 13.434C13.801 13.284 13.622 13.08 13.722 12.938V12.939ZM13.058 15.9C13.024 15.891 12.99 15.884 12.954 15.875C12.699 15.808 12.462 15.675 12.508 15.507C12.536 15.403 12.653 15.365 12.799 15.367C12.887 15.369 12.985 15.384 13.081 15.409C13.557 15.536 13.852 15.664 14.362 15.9H13.058ZM13.137 15.232C12.889 15.143 12.666 14.992 12.726 14.829C12.756 14.748 12.839 14.711 12.945 14.709C13.051 14.706 13.181 14.737 13.305 14.782C13.903 14.997 14.189 15.179 15.015 15.649C14.075 15.486 13.735 15.445 13.139 15.232H13.137ZM13.377 14.607C13.139 14.497 12.928 14.329 13.002 14.171C13.039 14.093 13.124 14.065 13.23 14.072C13.337 14.078 13.463 14.116 13.583 14.171C14.159 14.436 14.428 14.645 15.209 15.183C14.288 14.941 13.954 14.871 13.378 14.606L13.377 14.607ZM13.669 14.007C13.441 13.877 13.247 13.689 13.334 13.539C13.367 13.482 13.426 13.459 13.497 13.456C13.616 13.452 13.77 13.51 13.913 13.591C14.463 13.904 14.714 14.134 15.445 14.739C14.548 14.417 14.22 14.32 13.669 14.007ZM15.568 15.9C16.287 13.895 18.224 12.46 20.503 12.46C22.782 12.46 24.718 13.896 25.438 15.9H15.568ZM27.094 13.592C27.236 13.511 27.391 13.453 27.509 13.457C27.579 13.46 27.638 13.483 27.672 13.54C27.759 13.69 27.565 13.877 27.337 14.008C26.786 14.321 26.458 14.419 25.562 14.74C26.293 14.135 26.544 13.905 27.094 13.592ZM27.423 14.172C27.543 14.117 27.669 14.078 27.776 14.073C27.882 14.066 27.967 14.094 28.004 14.172C28.077 14.33 27.867 14.498 27.629 14.608C27.053 14.873 26.719 14.942 25.798 15.185C26.579 14.646 26.847 14.437 27.424 14.173L27.423 14.172ZM27.702 14.783C27.825 14.739 27.956 14.708 28.062 14.71C28.169 14.712 28.25 14.749 28.281 14.83C28.341 14.993 28.117 15.144 27.869 15.233C27.272 15.447 26.932 15.487 25.993 15.65C26.819 15.18 27.104 14.997 27.702 14.783ZM28.052 15.876C28.016 15.886 27.982 15.893 27.948 15.901H26.644C27.154 15.665 27.448 15.537 27.925 15.41C28.021 15.385 28.119 15.369 28.207 15.368C28.353 15.366 28.47 15.404 28.498 15.508C28.544 15.676 28.307 15.809 28.052 15.876Z" fill="black"/>
<path d="M2.5 20.5V24.5H38.5V20.5V16.5H2.5V20.5Z" fill="#CF002E"/>
<path d="M20.4995 12.4609C18.2205 12.4609 16.2835 13.8969 15.5645 15.9009H25.4345C24.7155 13.8959 22.7785 12.4609 20.4995 12.4609Z" fill="#CF002E"/>
<path d="M19.4858 11.948C19.4858 11.008 19.5058 10.673 19.3948 10.055C19.3518 9.81501 19.2508 9.58601 19.0958 9.58301C19.0848 9.58301 19.0728 9.58301 19.0628 9.58501C18.8898 9.61601 18.8698 9.88201 18.9158 10.138C19.0268 10.755 19.1598 11.065 19.4858 11.948Z" fill="#CF002E"/>
<path d="M16.3709 13.5469C15.8239 12.7769 15.6439 12.4899 15.1939 12.0479C15.0539 11.9099 14.8869 11.7979 14.7599 11.8029C14.7179 11.8049 14.6799 11.8199 14.6489 11.8499C14.5249 11.9729 14.6629 12.2039 14.8489 12.3869C15.2989 12.8299 15.5899 13.0079 16.3709 13.5469Z" fill="#CF002E"/>
<path d="M12.7968 15.3673C12.6508 15.3653 12.5338 15.4033 12.5058 15.5073C12.4598 15.6753 12.6968 15.8083 12.9518 15.8753C12.9878 15.8853 13.0218 15.8923 13.0558 15.9003H14.3598C13.8508 15.6643 13.5558 15.5363 13.0788 15.4093C12.9828 15.3843 12.8848 15.3683 12.7968 15.3673Z" fill="#CF002E"/>
<path d="M14.015 13.4357C14.535 13.7947 14.852 13.9187 15.716 14.3157C15.042 13.6507 14.815 13.4027 14.293 13.0437C14.145 12.9407 13.978 12.8627 13.855 12.8707C13.799 12.8747 13.752 12.8967 13.72 12.9407C13.62 13.0827 13.798 13.2867 14.015 13.4367V13.4357Z" fill="#CF002E"/>
<path d="M14.4063 12.8934C14.8933 13.2964 15.1983 13.4484 16.0243 13.9184C15.4113 13.1984 15.2083 12.9294 14.7213 12.5264C14.5823 12.4114 14.4223 12.3214 14.3003 12.3184C14.2443 12.3184 14.1963 12.3344 14.1613 12.3764C14.0473 12.5084 14.2053 12.7264 14.4073 12.8934H14.4063Z" fill="#CF002E"/>
<path d="M16.7445 13.2082C16.2675 12.3952 16.1135 12.0932 15.7045 11.6132C15.5665 11.4522 15.3945 11.3182 15.2625 11.3332C15.2325 11.3372 15.2045 11.3502 15.1795 11.3712C15.0455 11.4832 15.1615 11.7252 15.3315 11.9232C15.7405 12.4032 16.0135 12.6042 16.7445 13.2082Z" fill="#CF002E"/>
<path d="M17.5791 12.6326C17.2531 11.7496 17.1541 11.4246 16.8361 10.8826C16.7201 10.6856 16.5611 10.5136 16.4211 10.5316C16.4001 10.5346 16.3811 10.5416 16.3621 10.5516C16.2101 10.6386 16.2841 10.8966 16.4151 11.1216C16.7331 11.6646 16.9671 11.9116 17.5791 12.6316V12.6326Z" fill="#CF002E"/>
<path d="M17.1463 12.9033C16.7433 12.0513 16.6183 11.7393 16.2533 11.2253C16.1313 11.0523 15.9703 10.9033 15.8383 10.9073C15.8083 10.9073 15.7783 10.9173 15.7523 10.9353C15.6083 11.0353 15.7053 11.2873 15.8563 11.5003C16.2203 12.0133 16.4723 12.2383 17.1463 12.9033Z" fill="#CF002E"/>
<path d="M27.6686 13.5412C27.6356 13.4842 27.5766 13.4612 27.5056 13.4582C27.3866 13.4542 27.2326 13.5122 27.0906 13.5932C26.5396 13.9062 26.2886 14.1362 25.5586 14.7412C26.4556 14.4192 26.7836 14.3222 27.3336 14.0092C27.5616 13.8792 27.7556 13.6912 27.6686 13.5412Z" fill="#CF002E"/>
<path d="M28.0019 14.1723C27.9649 14.0943 27.8799 14.0663 27.7739 14.0733C27.6669 14.0793 27.5409 14.1173 27.4209 14.1723C26.8449 14.4373 26.5759 14.6463 25.7949 15.1843C26.7159 14.9423 27.0499 14.8723 27.6259 14.6073C27.8639 14.4973 28.0749 14.3293 28.0009 14.1713L28.0019 14.1723Z" fill="#CF002E"/>
<path d="M28.2773 14.8302C28.2473 14.7492 28.1653 14.7122 28.0583 14.7102C27.9523 14.7072 27.8223 14.7382 27.6983 14.7832C27.1003 14.9982 26.8143 15.1802 25.9883 15.6502C26.9283 15.4872 27.2683 15.4462 27.8643 15.2332C28.1123 15.1442 28.3363 14.9932 28.2773 14.8302Z" fill="#CF002E"/>
<path d="M25.2852 14.3154C26.1492 13.9184 26.4662 13.7944 26.9862 13.4354C27.2032 13.2854 27.3822 13.0814 27.2812 12.9394C27.2432 12.8864 27.1822 12.8664 27.1112 12.8694C26.9932 12.8754 26.8432 12.9484 26.7082 13.0424C26.1872 13.4014 25.9592 13.6514 25.2852 14.3154Z" fill="#CF002E"/>
<path d="M28.2036 15.3673C28.1156 15.3693 28.0176 15.3843 27.9216 15.4093C27.4456 15.5363 27.1506 15.6643 26.6406 15.9003H27.9446C27.9786 15.8913 28.0126 15.8843 28.0486 15.8753C28.3036 15.8083 28.5406 15.6753 28.4946 15.5073C28.4666 15.4033 28.3496 15.3653 28.2036 15.3673Z" fill="#CF002E"/>
<path d="M18.0302 12.4001C17.7832 11.4931 17.7122 11.1631 17.4442 10.5951C17.3472 10.3891 17.2032 10.2041 17.0612 10.2101C17.0412 10.2101 17.0232 10.2171 17.0032 10.2251C16.8432 10.2981 16.8912 10.5621 17.0032 10.7981C17.2712 11.3661 17.4832 11.6301 18.0302 12.4001Z" fill="#CF002E"/>
<path d="M13.2271 14.0733C13.1211 14.0663 13.0361 14.0943 12.9991 14.1723C12.9261 14.3303 13.1361 14.4983 13.3741 14.6083C13.9501 14.8733 14.2841 14.9423 15.2051 15.1853C14.4241 14.6463 14.1561 14.4373 13.5791 14.1733C13.4591 14.1183 13.3331 14.0793 13.2261 14.0743L13.2271 14.0733Z" fill="#CF002E"/>
<path d="M13.4948 13.4582C13.4238 13.4612 13.3658 13.4842 13.3318 13.5412C13.2448 13.6912 13.4388 13.8782 13.6668 14.0092C14.2178 14.3222 14.5458 14.4202 15.4428 14.7412C14.7118 14.1362 14.4608 13.9062 13.9108 13.5932C13.7678 13.5122 13.6128 13.4542 13.4948 13.4582Z" fill="#CF002E"/>
<path d="M12.9417 14.7101C12.8357 14.7121 12.7537 14.7491 12.7227 14.8301C12.6627 14.9931 12.8867 15.1441 13.1337 15.2331C13.7307 15.4471 14.0707 15.4871 15.0097 15.6501C14.1837 15.1801 13.8977 14.9971 13.2997 14.7831C13.1767 14.7391 13.0457 14.7081 12.9397 14.7101H12.9417Z" fill="#CF002E"/>
<path d="M25.1435 11.5003C25.2945 11.2873 25.3915 11.0343 25.2475 10.9353C25.2205 10.9173 25.1915 10.9083 25.1615 10.9073C25.0295 10.9033 24.8685 11.0523 24.7465 11.2253C24.3815 11.7393 24.2565 12.0513 23.8535 12.9033C24.5275 12.2383 24.7795 12.0133 25.1435 11.5003Z" fill="#CF002E"/>
<path d="M23.378 10.5234C23.468 10.2784 23.495 10.0124 23.33 9.95336C23.309 9.94536 23.289 9.94336 23.269 9.94336C23.127 9.94936 23.001 10.1444 22.921 10.3574C22.703 10.9464 22.663 11.2824 22.498 12.2074C22.974 11.3944 23.16 11.1134 23.378 10.5234Z" fill="#CF002E"/>
<path d="M23.9977 10.7981C24.1097 10.5621 24.1577 10.2991 23.9977 10.2251C23.9777 10.2161 23.9597 10.2111 23.9397 10.2101C23.7977 10.2041 23.6537 10.3901 23.5567 10.5951C23.2887 11.1631 23.2177 11.4921 22.9707 12.4001C23.5177 11.6301 23.7287 11.3661 23.9977 10.7981Z" fill="#CF002E"/>
<path d="M24.5859 11.1233C24.7169 10.8983 24.7909 10.6403 24.6389 10.5533C24.6099 10.5373 24.5809 10.5323 24.5499 10.5333C24.4179 10.5413 24.2719 10.7003 24.1649 10.8843C23.8479 11.4263 23.7479 11.7513 23.4219 12.6343C24.0339 11.9143 24.2679 11.6663 24.5859 11.1233Z" fill="#CF002E"/>
<path d="M24.9746 13.9174C25.8006 13.4484 26.1056 13.2954 26.5926 12.8924C26.7946 12.7254 26.9526 12.5074 26.8386 12.3754C26.8036 12.3334 26.7556 12.3164 26.6996 12.3174C26.5766 12.3204 26.4176 12.4104 26.2786 12.5254C25.7926 12.9284 25.5876 13.1974 24.9746 13.9174Z" fill="#CF002E"/>
<path d="M24.2549 13.2082C24.9859 12.6042 25.2589 12.4032 25.6679 11.9232C25.8379 11.7242 25.9539 11.4822 25.8199 11.3712C25.7869 11.3432 25.7479 11.3312 25.7059 11.3332C25.5789 11.3402 25.4219 11.4652 25.2939 11.6132C24.8849 12.0932 24.7329 12.3942 24.2549 13.2082Z" fill="#CF002E"/>
<path d="M24.6309 13.5469C25.4119 13.0079 25.7029 12.8299 26.1529 12.3869C26.3389 12.2029 26.4769 11.9729 26.3529 11.8499C26.3229 11.8189 26.2839 11.8049 26.2419 11.8029C26.1149 11.7979 25.9479 11.9099 25.8079 12.0479C25.3579 12.4909 25.1779 12.7769 24.6309 13.5469Z" fill="#CF002E"/>
<path d="M18.5026 12.2083C18.3366 11.2833 18.2966 10.9483 18.0796 10.3583C18.0016 10.1443 17.8736 9.94934 17.7326 9.94434C17.7116 9.94434 17.6916 9.94634 17.6706 9.95434C17.5056 10.0133 17.5326 10.2793 17.6226 10.5243C17.8406 11.1133 18.0266 11.3943 18.5026 12.2083Z" fill="#CF002E"/>
<path d="M19.9897 11.8828C20.0727 10.9458 20.1207 10.6118 20.0657 9.98781C20.0427 9.72881 19.9537 9.47581 19.7797 9.48981C19.6047 9.50481 19.5587 9.77081 19.5817 10.0298C19.6367 10.6538 19.7437 10.9748 19.9897 11.8828Z" fill="#CF002E"/>
<path d="M22.7417 10.3018C22.8107 10.0508 22.8137 9.78184 22.6427 9.73684C22.6317 9.73384 22.6197 9.73284 22.6107 9.73184C22.4557 9.72084 22.3347 9.94184 22.2707 10.1768C22.1057 10.7818 22.0957 11.1208 22.0117 12.0568C22.4147 11.2048 22.5767 10.9068 22.7417 10.3018Z" fill="#CF002E"/>
<path d="M20.7429 9.97996C20.7429 9.71996 20.6749 9.45996 20.4999 9.45996C20.3239 9.45996 20.2559 9.71996 20.2559 9.97996C20.2559 10.607 20.3329 10.934 20.4999 11.86C20.6659 10.934 20.7429 10.607 20.7429 9.97996Z" fill="#CF002E"/>
<path d="M18.9891 12.0578C18.9061 11.1218 18.8951 10.7828 18.7301 10.1778C18.6661 9.94182 18.5451 9.72182 18.3901 9.73282C18.3801 9.73282 18.3681 9.73482 18.3581 9.73782C18.1871 9.78282 18.1901 10.0518 18.2591 10.3028C18.4241 10.9088 18.5861 11.2058 18.9891 12.0578Z" fill="#CF002E"/>
<path d="M22.0851 10.137C22.1311 9.88103 22.1111 9.61503 21.9381 9.58403C21.9271 9.58403 21.9151 9.58203 21.9051 9.58203C21.7501 9.58503 21.6491 9.81503 21.6061 10.054C21.4951 10.671 21.5151 11.007 21.5151 11.947C21.8401 11.064 21.9741 10.754 22.0851 10.137Z" fill="#CF002E"/>
<path d="M21.4181 10.0299C21.4411 9.77089 21.3951 9.50589 21.2201 9.48989C21.0461 9.47489 20.9571 9.72889 20.9341 9.98789C20.8781 10.6119 20.9271 10.9459 21.0101 11.8829C21.2571 10.9749 21.3631 10.6539 21.4181 10.0299Z" fill="#CF002E"/>
</svg>
