<svg width="41" height="41" viewBox="0 0 41 41" fill="none" xmlns="http://www.w3.org/2000/svg">
<path d="M19.6477 19.9264C19.6177 19.8824 19.5947 19.8364 19.5927 19.7894L19.8097 19.7874C19.7067 19.5844 19.5377 19.4294 19.4797 19.1734C19.4097 19.1824 19.4027 19.2744 19.3477 19.1844C19.3837 18.9764 19.0607 18.5884 19.3947 18.2274L19.3597 18.2314C19.3747 18.1584 19.2997 18.2044 19.3167 18.1644C19.3167 18.1534 19.4157 17.9664 19.5617 17.8234C19.4207 17.8674 19.5257 17.8194 19.4907 17.8194C19.4627 17.7874 19.5497 17.6184 19.6367 17.5454C19.4487 17.1824 19.2087 17.4134 19.0167 17.3594C18.9867 17.3504 18.9787 17.3454 18.9707 17.3384C18.9247 17.3644 18.8737 17.3854 18.8177 17.4034C18.8907 17.4724 18.9537 17.5484 18.9877 17.6404C19.0497 17.8084 19.0187 17.9894 18.8987 18.1484C18.8267 18.2454 18.7117 18.3574 18.5917 18.4764C18.4117 18.6534 18.0767 18.9824 18.0987 19.1244C18.1027 19.1534 18.1407 19.1794 18.1737 19.1954C18.6967 19.4694 19.0447 19.6684 19.1157 19.9114C19.1247 19.9424 19.1057 19.9714 19.1057 20.0014C19.2017 19.9404 19.3297 19.9014 19.4727 19.9014C19.5357 19.9014 19.5947 19.9124 19.6507 19.9254L19.6477 19.9264Z" fill="#E3E7EA"/>
<path d="M14.1875 8.5V32.5H26.8685V8.5H14.1875ZM16.3965 18.32C16.5055 18.084 16.7485 17.979 17.0175 18.047C17.2665 18.112 17.5055 18.336 17.4825 18.639C17.4575 18.961 17.6395 19.411 17.9355 19.76C18.0905 19.944 18.3615 20.018 18.5445 20.025C18.6945 20.033 18.7705 19.998 18.7865 19.984C18.7475 19.891 18.2315 19.62 18.0115 19.504C17.8245 19.406 17.7685 19.271 17.7545 19.175C17.7075 18.858 18.0335 18.537 18.3475 18.228C18.4585 18.119 18.5635 18.016 18.6205 17.94C18.6855 17.854 18.6745 17.797 18.6625 17.762C18.6145 17.632 18.4065 17.503 18.1555 17.447C17.9235 17.395 17.7665 17.283 17.6905 17.114C17.5895 16.89 17.6435 16.598 17.8535 16.219C17.9005 16.134 18.0065 16.105 18.0905 16.152C18.1745 16.199 18.2045 16.304 18.1585 16.389C17.9605 16.745 17.9795 16.907 18.0085 16.972C18.0375 17.036 18.1125 17.081 18.2315 17.108C18.2365 17.108 18.2425 17.112 18.2485 17.113C18.3195 17.019 18.4525 16.934 18.6245 16.893C18.7375 16.867 18.8425 16.867 18.9345 16.882C18.9905 16.811 19.0305 16.734 19.0295 16.638L19.0875 16.819C19.1095 16.655 19.1745 16.609 19.2285 16.513C19.2285 16.614 19.2385 16.622 19.2465 16.707C19.2615 16.776 19.3215 16.775 19.3505 16.75C19.3775 16.643 19.3555 16.531 19.4315 16.428C19.4535 16.501 19.4855 16.59 19.5085 16.663C19.5205 16.562 19.6045 16.568 19.6425 16.46L19.6845 16.634C19.8995 16.601 20.1675 16.726 20.1675 16.726C20.1675 16.726 20.2905 16.693 20.3605 16.734L20.3155 16.827C20.3895 16.854 20.5235 17.026 20.5235 17.026L20.4965 16.809C20.3945 16.599 20.2715 16.633 20.1215 16.589C20.0115 16.589 19.9625 16.489 19.9625 16.435C19.9625 16.209 20.1375 16.17 20.3095 16.156C20.3625 16.029 20.4605 16.017 20.6675 15.997C21.5895 15.943 22.2135 16.669 22.6145 16.468C22.5655 16.529 22.5265 16.591 22.5015 16.656C22.8285 16.89 23.1405 17.114 23.3925 17.5C23.6525 17.884 23.7155 18.553 23.9855 18.453C23.9775 18.524 23.9065 18.543 23.8485 18.548C23.9225 18.723 23.9195 19.388 23.8715 19.477C23.7935 19.74 23.8135 20.109 23.8135 20.121C23.8295 20.294 23.7225 20.851 23.6605 20.802C23.6215 20.81 23.6135 20.365 23.6055 20.18C23.5925 19.951 23.5735 19.819 23.5465 19.64C23.5405 19.483 23.5405 19.359 23.5315 19.201C23.4935 19.127 23.4325 19.115 23.4345 19.18V19.364L23.5035 20.008C23.4855 20.188 23.4645 20.367 23.4475 20.549L23.3555 20.456V20.237C23.2935 19.939 23.2285 19.615 23.1665 19.316C23.1665 19.316 23.1335 19.46 23.1455 19.548C23.1945 19.713 23.1945 20.433 23.1945 20.433C23.1945 20.506 23.1545 20.383 23.1175 20.338C23.1215 20.293 23.0935 20.215 23.0935 20.145C23.0145 19.702 22.9545 19.333 22.7875 19.236L22.8265 19.429L22.8935 19.955C22.8685 19.982 22.8395 19.867 22.7815 19.78C22.7125 19.609 22.7155 19.329 22.4885 19.15C22.4885 19.173 22.6315 19.494 22.6445 19.697C22.6525 19.805 22.5955 19.675 22.5395 19.639C22.4625 19.463 22.4385 19.352 22.3545 19.212C22.2275 19.101 22.0385 18.949 21.9245 18.892C22.1455 19.134 22.2375 19.314 22.3105 19.5L22.2045 19.48C22.0865 19.35 22.0455 19.207 21.9265 19.113C21.8155 19.082 21.7405 19.101 21.5325 18.907L21.4605 19.028C21.5495 19.137 21.6325 19.533 21.6325 19.643C21.9385 19.791 22.7305 20.407 23.2645 20.779C23.3365 20.835 23.2605 20.911 23.2305 20.914C23.2305 20.924 22.9815 20.968 22.8205 20.904C22.8305 20.988 22.6245 21.073 22.4485 20.998C22.4125 21.083 22.1985 21.05 22.1205 20.998L21.9015 20.985L21.8855 20.97C21.8705 21.116 21.8375 21.247 21.7845 21.344C21.8435 21.362 21.8975 21.391 21.9385 21.435C21.9485 21.427 21.9585 21.42 21.9685 21.414C22.0385 21.368 22.1025 21.331 22.1635 21.302C22.2045 21.27 22.2545 21.247 22.3105 21.237L22.3355 21.232C22.4665 21.19 22.5585 21.184 22.5955 21.184C22.7065 21.184 22.8105 21.236 22.8755 21.325C22.9405 21.414 22.9605 21.528 22.9275 21.634C22.8705 21.819 22.7425 21.861 22.5195 21.906C22.4775 21.922 22.4205 21.95 22.3535 21.995C22.2225 22.081 22.0525 22.067 21.9365 21.971C22.0315 22.094 22.0365 22.271 21.9355 22.398C21.9315 22.403 21.9285 22.41 21.9245 22.415C22.3355 22.542 22.5955 22.722 22.5955 22.924C22.5955 23.243 21.9465 23.51 21.0665 23.592C20.9955 23.602 20.9295 23.621 20.8545 23.621C20.8295 23.621 20.8095 23.613 20.7845 23.611C20.6925 23.615 20.6015 23.621 20.5055 23.621C19.3515 23.621 18.4165 23.309 18.4165 22.924C18.4165 22.539 19.3515 22.228 20.5055 22.228C20.6005 22.228 20.6925 22.233 20.7845 22.237C20.8085 22.237 20.8295 22.228 20.8545 22.228C20.9295 22.228 20.9965 22.246 21.0665 22.257C21.1075 22.261 21.1475 22.265 21.1865 22.269C21.2335 22.196 21.2785 22.112 21.3265 22.047C21.2295 22.051 21.1295 22.053 21.0275 22.053C20.8355 22.053 20.6595 21.896 20.6595 21.704C20.6595 21.512 20.7955 21.356 20.9885 21.356H21.0455C21.1375 21.356 21.2245 21.348 21.3155 21.343C21.2515 21.226 21.2125 21.062 21.2065 20.879L21.1565 20.913L21.1235 20.854C21.1005 20.937 21.0645 20.942 21.0215 20.957L20.9485 20.929C20.8835 20.825 20.7935 20.722 20.7275 20.618L20.6555 20.628C20.5785 20.536 20.5065 20.389 20.4295 20.298C20.4585 20.42 20.3965 20.579 20.3565 20.579L20.2375 20.513L20.1845 20.554C20.1845 20.566 19.9405 20.628 19.7295 20.608V20.581C19.6535 20.61 19.5695 20.631 19.4745 20.631C19.1935 20.631 18.9685 20.483 18.9465 20.297C18.8755 20.337 18.7885 20.365 18.6815 20.375C18.6515 20.378 18.6185 20.379 18.5865 20.379C18.2895 20.379 17.9065 20.264 17.6735 19.99C17.3165 19.569 17.1075 19.03 17.1395 18.616C17.1475 18.505 17.0395 18.416 16.9345 18.388C16.8735 18.372 16.7675 18.362 16.7175 18.47C16.6765 18.558 16.5735 18.595 16.4865 18.555C16.3995 18.514 16.3615 18.411 16.4015 18.324L16.3965 18.32ZM19.2705 21.416C19.1765 21.584 18.9645 21.645 18.7965 21.55C18.5595 21.418 18.3475 21.258 18.1645 21.076C18.0285 20.94 18.0285 20.72 18.1645 20.584C18.3005 20.448 18.5215 20.448 18.6565 20.584C18.7935 20.721 18.9545 20.842 19.1355 20.943C19.2845 21.026 19.3485 21.203 19.2945 21.359C19.3675 21.211 19.5415 21.132 19.7055 21.181C19.8975 21.238 20.1085 21.282 20.3325 21.312C20.5235 21.337 20.6575 21.512 20.6325 21.703C20.6125 21.879 20.4615 22.006 20.2895 22.006C20.2745 22.006 20.2585 22.006 20.2435 22.003C19.9835 21.968 19.7355 21.917 19.5085 21.849C19.3235 21.794 19.2185 21.6 19.2735 21.416L19.2775 21.402L19.2695 21.418L19.2705 21.416ZM24.6805 20.846C24.6805 20.962 24.6745 21.077 24.6655 21.191L24.6645 21.194V21.207C24.6645 21.207 24.6645 21.208 24.6635 21.209V21.214V21.219V21.222V21.224L24.6625 21.232V21.235V21.237C24.6535 21.329 24.6405 21.419 24.6265 21.509V21.513C24.6265 21.513 24.6265 21.515 24.6255 21.516V21.522V21.525V21.528V21.531V21.534V21.537C24.6235 21.547 24.6135 21.552 24.6115 21.562C24.5335 22.002 24.3785 22.41 24.1745 22.791C24.1685 22.807 24.1775 22.825 24.1695 22.841L24.1525 22.874H24.1515L24.1485 22.88L24.1465 22.885L24.1425 22.888L24.1415 22.893H24.1405L24.1385 22.899L24.1355 22.903L24.1325 22.908V22.913L24.1295 22.914V22.917L24.1265 22.918V22.921H24.1235V22.925L24.1205 22.926V22.929C24.1205 22.929 24.1175 22.929 24.1175 22.93C24.1165 22.93 24.1175 22.932 24.1165 22.933V22.935L24.1135 22.938L24.1115 22.941V22.943C24.1115 22.943 24.1095 22.944 24.1095 22.945L24.1065 22.948L24.1055 22.951L24.1035 22.954V22.956L24.1005 22.957C24.1005 22.958 24.1005 22.959 24.0985 22.96V22.962L24.0955 22.965V22.967L24.0935 22.969L24.0915 22.972V22.974L24.0905 22.976L24.0885 22.979L24.0865 22.982V22.984C24.0865 22.984 24.0855 22.986 24.0835 22.987C24.0835 22.987 24.0835 22.988 24.0825 22.989V22.991L24.0795 22.993V22.995L24.0765 22.998C24.0755 22.998 24.0755 22.999 24.0755 23C24.0745 23 24.0745 23.001 24.0745 23.002V23.004L24.0715 23.007L24.0685 23.013L24.0665 23.018H24.0645V23.022C24.0645 23.022 24.0635 23.023 24.0635 23.024L24.0605 23.026V23.028C24.0605 23.028 24.0585 23.03 24.0575 23.032L24.0545 23.036L24.0535 23.042L24.0525 23.045L24.0495 23.046V23.049L24.0475 23.05L24.0445 23.054C24.0445 23.054 24.0445 23.057 24.0425 23.058L24.0395 23.063C24.0395 23.063 24.0385 23.067 24.0365 23.069L24.0335 23.074C24.0335 23.074 24.0325 23.076 24.0305 23.077L24.0275 23.082L24.0245 23.087C24.0245 23.087 24.0185 23.097 24.0165 23.102C24.0075 23.115 23.9975 23.127 23.9885 23.14C23.9765 23.157 23.9635 23.173 23.9525 23.19C23.8985 23.267 23.8455 23.345 23.7865 23.419C23.7675 23.443 23.7415 23.457 23.7175 23.475C23.4495 23.798 23.1465 24.087 22.7945 24.318C22.7845 24.326 22.7785 24.337 22.7675 24.344C22.7245 24.372 22.6795 24.399 22.6355 24.426C22.6295 24.428 22.6255 24.431 22.6215 24.434L22.6155 24.437L22.6075 24.441L22.6025 24.444L22.5965 24.448H22.5935C22.5935 24.448 22.5925 24.449 22.5935 24.45C22.5925 24.451 22.5895 24.451 22.5875 24.452L22.5835 24.455H22.5805L22.5785 24.458H22.5765L22.5735 24.461C22.5735 24.461 22.5705 24.464 22.5695 24.463H22.5675L22.5645 24.466H22.5615L22.5605 24.468L22.5575 24.47H22.5545L22.5535 24.473H22.5505L22.5475 24.474L22.5455 24.476H22.5435L22.5415 24.479H22.5385L22.5365 24.482H22.5335L22.5315 24.484C22.5305 24.484 22.5285 24.484 22.5285 24.486L22.5235 24.489H22.5225L22.5195 24.492L22.5145 24.495H22.5105L22.5095 24.497L22.5065 24.499H22.5055L22.5025 24.502H22.5005L22.4975 24.505L22.4925 24.507L22.4885 24.51L22.4835 24.513L22.4795 24.516L22.4745 24.518L22.4695 24.521L22.4665 24.523L22.4615 24.526L22.4515 24.53L22.4475 24.533L22.4415 24.536C22.4415 24.536 22.4385 24.537 22.4375 24.54C22.4345 24.54 22.4335 24.54 22.4325 24.541L22.4275 24.544L22.4175 24.549H22.4125L22.3975 24.559H22.3925V24.561L22.3825 24.567L22.3785 24.569L22.3725 24.571L22.3625 24.577L22.3575 24.579L22.3475 24.583L22.3425 24.586L22.3385 24.589H22.3325L22.3285 24.593L22.3245 24.595L22.3185 24.598H22.3135V24.599L22.3095 24.601L22.3055 24.604L22.3005 24.607L22.2965 24.609L22.2915 24.611C22.2915 24.611 22.2895 24.612 22.2875 24.614H22.2865L22.2835 24.616H22.2825L22.2795 24.618H22.2775L22.2745 24.62H22.2725L22.2715 24.623H22.2675L22.2665 24.625H22.2635L22.2605 24.626H22.2575L22.2565 24.628L22.2525 24.631H22.2515L22.1585 24.673C22.1585 24.673 22.1515 24.674 22.1475 24.675C21.7625 24.836 21.3435 24.922 20.9105 24.962C20.8785 24.975 20.8465 24.987 20.8115 24.99C20.7825 24.991 20.7525 24.994 20.7235 24.995H20.7175H20.7145H20.7115H20.7085H20.7025H20.6885H20.6855H20.6805H20.6765H20.6685H20.6625H20.6595H20.6555H20.6525H20.6485H20.6355H20.6325H20.6225H20.6185H20.6135H20.5865C20.5755 24.995 20.5655 24.995 20.5545 24.995C20.5495 24.995 20.5445 24.996 20.5385 24.996C20.5295 24.996 20.5215 24.993 20.5125 24.993C20.4305 24.993 20.3485 24.993 20.2665 24.987H20.2535H20.2445H20.2415L20.2375 24.986H20.2315H20.2275H20.2245H20.2205H20.2165H20.2135H20.2095L20.1225 24.978C20.0855 24.974 20.0535 24.961 20.0215 24.947C19.6005 24.894 19.1965 24.791 18.8245 24.622C18.8115 24.618 18.7975 24.62 18.7845 24.614C18.5795 24.519 18.3835 24.409 18.1985 24.283L18.1945 24.279L18.1905 24.276L18.1865 24.272L18.1825 24.27C18.1825 24.27 18.1805 24.263 18.1775 24.261C17.8235 24.017 17.5195 23.711 17.2555 23.372C17.2295 23.352 17.2005 23.338 17.1805 23.311C17.1415 23.259 17.1045 23.207 17.0685 23.154L17.0655 23.148L17.0605 23.14L17.0585 23.135L17.0565 23.129V23.127H17.0545L17.0525 23.124V23.122L17.0505 23.12V23.118L17.0475 23.115L17.0455 23.11L17.0435 23.105L17.0415 23.1L17.0385 23.096L17.0365 23.09L17.0305 23.082L17.0275 23.077C16.9525 22.961 16.8845 22.84 16.8215 22.717C16.8075 22.69 16.8045 22.662 16.7985 22.634C16.6195 22.264 16.4955 21.868 16.4315 21.447C16.4255 21.428 16.4065 21.417 16.4035 21.397C16.3885 21.287 16.3775 21.176 16.3715 21.065V21.051L16.3705 21.038V21.028V21.008V21.005V21.002V20.979V20.916C16.3705 20.885 16.3705 20.854 16.3705 20.823C16.3705 20.823 16.3705 20.821 16.3705 20.82C16.3705 20.78 16.3705 20.739 16.3705 20.699C16.3755 20.515 16.5225 20.369 16.7035 20.361H16.7285C16.9205 20.366 17.0715 20.527 17.0665 20.718C17.0665 20.755 17.0665 20.792 17.0665 20.829C17.0685 21.511 17.2725 22.142 17.6125 22.678C17.6355 22.716 17.6575 22.755 17.6815 22.792C17.9275 23.148 18.2365 23.458 18.5945 23.701C18.6185 23.717 18.6455 23.728 18.6705 23.744C19.1865 24.076 19.7945 24.272 20.4485 24.291C20.4995 24.292 20.5505 24.296 20.6025 24.296C21.7355 24.278 22.7315 23.718 23.3545 22.865C23.4065 22.794 23.4545 22.72 23.5015 22.645C23.8315 22.113 24.0305 21.491 24.0305 20.819H24.0365C24.0465 20.64 24.1845 20.495 24.3635 20.487H24.3805C24.5675 20.487 24.7155 20.636 24.7245 20.819H24.7275C24.7275 20.819 24.7265 20.826 24.7265 20.829C24.7265 20.831 24.7275 20.832 24.7275 20.834L24.6805 20.846Z" fill="#E3E7EA"/>
<path d="M6.5 8.5H6.495C4.288 8.5 2.5 10.289 2.5 12.496V28.505C2.5 30.712 4.289 32.5 6.495 32.5H14.187V8.5H6.5Z" fill="#006C47"/>
<path d="M34.5042 8.5H26.8672V32.5H34.5042C36.7112 32.5 38.4992 30.711 38.4992 28.505V12.496C38.4992 10.289 36.7102 8.5 34.5042 8.5Z" fill="#CF002E"/>
<path d="M24.6777 20.8301L24.6797 20.8401L24.6807 20.8301H24.6777Z" fill="#A6D388"/>
<path d="M24.2901 21.8301C24.2661 21.8301 24.2411 21.8291 24.2161 21.8241C24.0271 21.7921 23.8991 21.6111 23.9321 21.4221C23.9651 21.2331 23.9821 21.0371 23.9821 20.8451C23.9821 20.8391 23.9881 20.8351 23.9881 20.8301H23.9821C23.9821 21.5021 23.7831 22.1241 23.4531 22.6561C23.4831 22.6071 23.5211 22.5621 23.5491 22.5121C23.6101 22.4021 23.7221 22.3371 23.8391 22.3331C23.9001 22.3301 23.9641 22.3441 24.0221 22.3761C24.1741 22.4601 24.2221 22.6401 24.1661 22.7941C24.3701 22.4131 24.5251 22.0051 24.6031 21.5651C24.5641 21.7151 24.4381 21.8241 24.2881 21.8301H24.2901Z" fill="#A6D388"/>
<path d="M23.2837 23.483C23.1337 23.364 23.1087 23.145 23.2277 22.994C23.2577 22.957 23.2787 22.914 23.3067 22.876C22.6837 23.729 21.6877 24.29 20.5547 24.307C20.5857 24.307 20.6157 24.311 20.6467 24.31L20.7327 24.304H20.7367C20.9257 24.296 21.0897 24.443 21.0947 24.633C21.1047 24.786 21.0127 24.917 20.8787 24.971C21.3117 24.931 21.7307 24.846 22.1157 24.684C22.0797 24.697 22.0437 24.707 22.0057 24.708C21.8657 24.713 21.7297 24.633 21.6717 24.496C21.5967 24.318 21.6797 24.114 21.8577 24.04C22.0337 23.965 22.2067 23.873 22.3687 23.77C22.4227 23.735 22.4827 23.717 22.5417 23.714C22.6617 23.709 22.7797 23.767 22.8597 23.871C22.9567 24.022 22.9167 24.215 22.7807 24.326C23.1327 24.096 23.4367 23.806 23.7037 23.483C23.6467 23.525 23.5837 23.555 23.5147 23.558C23.4337 23.561 23.3527 23.538 23.2827 23.483H23.2837Z" fill="#A6D388"/>
<path d="M18.0498 23.7957C18.1148 23.7007 18.2178 23.6487 18.3238 23.6447C18.3958 23.6417 18.4708 23.6607 18.5348 23.7057C18.5388 23.7087 18.5438 23.7097 18.5478 23.7127C18.1898 23.4697 17.8808 23.1597 17.6348 22.8037C17.6568 22.8367 17.6738 22.8737 17.6968 22.9057C17.8118 23.0597 17.7798 23.2787 17.6248 23.3927C17.5668 23.4367 17.4998 23.4587 17.4328 23.4617C17.3538 23.4647 17.2798 23.4317 17.2148 23.3837C17.4788 23.7227 17.7818 24.0287 18.1368 24.2727C17.9848 24.1627 17.9458 23.9527 18.0518 23.7977L18.0498 23.7957Z" fill="#A6D388"/>
<path d="M16.9288 22.2588C16.9738 22.2358 17.0238 22.2238 17.0718 22.2218C17.2038 22.2158 17.3338 22.2848 17.3978 22.4108C17.4468 22.5068 17.5088 22.5968 17.5658 22.6888C17.2258 22.1528 17.0218 21.5218 17.0198 20.8398C17.0198 20.8858 17.0198 20.9308 17.0208 20.9768C17.0258 21.0898 17.0358 21.2008 17.0508 21.3088C17.0768 21.4998 16.9448 21.6758 16.7488 21.7038C16.7388 21.7058 16.7268 21.7068 16.7158 21.7068C16.5588 21.7128 16.4318 21.6038 16.3848 21.4568C16.4488 21.8768 16.5728 22.2738 16.7518 22.6438C16.7178 22.4928 16.7828 22.3318 16.9288 22.2588Z" fill="#A6D388"/>
<path d="M19.772 24.6069C19.789 24.4329 19.933 24.3009 20.103 24.2939C20.12 24.2939 20.136 24.2939 20.152 24.2949C20.234 24.3029 20.318 24.2999 20.401 24.3019C19.747 24.2829 19.139 24.0869 18.623 23.7549C18.757 23.8409 18.895 23.9239 19.039 23.9909C19.213 24.0719 19.289 24.2789 19.206 24.4539C19.15 24.5769 19.031 24.6499 18.904 24.6549C18.864 24.6559 18.824 24.6439 18.784 24.6309C19.157 24.7989 19.56 24.9029 19.981 24.9559C19.846 24.8969 19.756 24.7609 19.771 24.6059L19.772 24.6069Z" fill="#A6D388"/>
<path d="M21.8925 22.9182C21.8925 23.2522 21.5315 23.5192 21.0605 23.5862C21.9405 23.5042 22.5895 23.2372 22.5895 22.9182C22.5895 22.7172 22.3285 22.5362 21.9185 22.4092C21.8725 22.4692 21.8285 22.5502 21.7835 22.6192C21.8495 22.7102 21.8925 22.8102 21.8925 22.9182Z" fill="#55ACEE"/>
<path d="M19.8032 22.9187C19.8032 22.5507 20.2352 22.2567 20.7782 22.2317C20.6862 22.2277 20.5952 22.2227 20.4992 22.2227C19.3452 22.2227 18.4102 22.5347 18.4102 22.9187C18.4102 23.3027 19.3452 23.6157 20.4992 23.6157C20.5942 23.6157 20.6862 23.6107 20.7782 23.6057C20.2352 23.5807 19.8032 23.2867 19.8032 22.9187Z" fill="#55ACEE"/>
<path d="M24.3329 20.498H24.3159C24.1369 20.506 23.9979 20.651 23.9889 20.83C23.9889 20.836 23.9829 20.839 23.9829 20.845C23.9829 21.038 23.9659 21.233 23.9329 21.422C23.8999 21.611 24.0279 21.792 24.2169 21.824C24.2419 21.828 24.2659 21.83 24.2909 21.83C24.4409 21.823 24.5669 21.715 24.6059 21.565C24.6089 21.555 24.6179 21.55 24.6199 21.54V21.537V21.534V21.531V21.528V21.526V21.518C24.6199 21.518 24.6209 21.516 24.6209 21.515V21.511C24.6359 21.421 24.6479 21.331 24.6569 21.239V21.236V21.233V21.223L24.6579 21.221V21.22V21.218V21.215H24.6589L24.6579 21.212V21.209C24.6579 21.209 24.6589 21.208 24.6589 21.207V21.192C24.6679 21.078 24.6749 20.964 24.6749 20.847C24.6749 20.845 24.6739 20.844 24.6739 20.842C24.6739 20.838 24.6719 20.835 24.6719 20.832C24.6639 20.649 24.5149 20.5 24.3279 20.5L24.3329 20.498Z" fill="#5C913B"/>
<path d="M16.7162 21.7071C16.7272 21.7071 16.7382 21.7061 16.7492 21.7041C16.9452 21.6761 17.0772 21.5001 17.0512 21.3091C17.0362 21.2001 17.0262 21.0901 17.0212 20.9771C17.0192 20.9311 17.0202 20.8861 17.0202 20.8401C17.0202 20.8031 17.0182 20.7661 17.0202 20.7291C17.0262 20.5381 16.8742 20.3761 16.6822 20.3711H16.6572C16.4762 20.3791 16.3292 20.5261 16.3242 20.7091C16.3242 20.7501 16.3242 20.7901 16.3242 20.8301V20.8331C16.3242 20.8641 16.3242 20.8951 16.3242 20.9261V20.9921V21.0121V21.0141V21.0171V21.0411V21.0491V21.0621L16.3252 21.0681V21.0761C16.3312 21.1881 16.3422 21.2981 16.3572 21.4081C16.3602 21.4281 16.3792 21.4391 16.3852 21.4581C16.4322 21.6051 16.5592 21.7131 16.7162 21.7071Z" fill="#5C913B"/>
<path d="M17.625 23.392C17.78 23.278 17.812 23.059 17.697 22.905C17.674 22.873 17.657 22.836 17.635 22.803C17.61 22.766 17.589 22.727 17.566 22.689C17.509 22.597 17.447 22.507 17.398 22.411C17.334 22.286 17.204 22.216 17.072 22.222C17.024 22.223 16.974 22.236 16.929 22.259C16.784 22.332 16.719 22.493 16.753 22.644C16.759 22.672 16.763 22.701 16.776 22.727C16.839 22.85 16.908 22.971 16.982 23.086L16.985 23.091L16.991 23.099L16.993 23.104L16.996 23.109L16.998 23.113L17 23.118L17.002 23.123L17.004 23.127V23.129L17.007 23.131V23.133L17.01 23.136L17.011 23.139L17.013 23.143L17.015 23.148L17.02 23.156L17.023 23.161C17.059 23.215 17.096 23.267 17.135 23.319C17.155 23.346 17.184 23.361 17.21 23.38C17.275 23.429 17.349 23.461 17.428 23.458C17.495 23.455 17.562 23.433 17.62 23.389L17.625 23.392Z" fill="#5C913B"/>
<path d="M22.8601 23.8712C22.7801 23.7672 22.6621 23.7092 22.5421 23.7142C22.4831 23.7172 22.4231 23.7352 22.3691 23.7702C22.2071 23.8732 22.0341 23.9642 21.8581 24.0402C21.6801 24.1142 21.5971 24.3182 21.6721 24.4962C21.7301 24.6332 21.8661 24.7132 22.0061 24.7082C22.0431 24.7072 22.0791 24.6972 22.1161 24.6842C22.1201 24.6832 22.1231 24.6842 22.1271 24.6822L22.2201 24.6402H22.2211L22.2251 24.6372L22.2291 24.6352H22.2351L22.2361 24.6322H22.2401L22.2411 24.6302H22.2431L22.2461 24.6272H22.2481L22.2511 24.6252H22.2521L22.2551 24.6232H22.2561C22.2561 24.6232 22.2581 24.6202 22.2591 24.6202L22.2641 24.6172L22.2691 24.6152L22.2731 24.6132L22.2771 24.6102L22.2821 24.6072L22.2871 24.6062L22.2921 24.6032L22.2961 24.6002H22.2971L22.3011 24.5972H22.3071L22.3111 24.5932L22.3161 24.5902L22.3261 24.5852L22.3311 24.5832L22.3411 24.5772L22.3471 24.5752L22.3511 24.5732L22.3611 24.5672L22.3651 24.5652L22.3801 24.5572H22.3851L22.3951 24.5502L22.4001 24.5472C22.4001 24.5472 22.4021 24.5462 22.4051 24.5462C22.4061 24.5442 22.4081 24.5432 22.4091 24.5422L22.4151 24.5392L22.4191 24.5372L22.4291 24.5322L22.4341 24.5292L22.4371 24.5262L22.4421 24.5232L22.4461 24.5212H22.4471L22.4511 24.5182L22.4561 24.5152L22.4601 24.5122L22.4641 24.5102L22.4681 24.5072H22.4701L22.4731 24.5042H22.4741L22.4771 24.5012H22.4781L22.4821 24.4992L22.4861 24.4972L22.4901 24.4942L22.4951 24.4912C22.4951 24.4912 22.4971 24.4892 22.4991 24.4882H22.5011L22.5041 24.4862H22.5061L22.5091 24.4832H22.5111L22.5131 24.4802L22.5151 24.4782H22.5181L22.5211 24.4772L22.5251 24.4742L22.5281 24.4722L22.5321 24.4702L22.5351 24.4682H22.5371C22.5371 24.4682 22.5391 24.4672 22.5401 24.4662L22.5441 24.4632H22.5461L22.5481 24.4602H22.5511L22.5541 24.4572C22.5541 24.4572 22.5591 24.4562 22.5611 24.4542H22.5641L22.5691 24.4492L22.5751 24.4462L22.5831 24.4412L22.5891 24.4382C22.5891 24.4382 22.5971 24.4332 22.6031 24.4302C22.6471 24.4032 22.6921 24.3762 22.7351 24.3482C22.7461 24.3412 22.7521 24.3302 22.7621 24.3222C22.8981 24.2112 22.9381 24.0192 22.8411 23.8672L22.8601 23.8712Z" fill="#5C913B"/>
<path d="M24.0249 22.3754C23.9659 22.3434 23.9029 22.3294 23.8419 22.3324C23.7239 22.3374 23.6129 22.4024 23.5519 22.5114C23.5239 22.5614 23.4859 22.6064 23.4559 22.6554C23.4089 22.7304 23.3609 22.8044 23.3089 22.8754C23.2809 22.9144 23.2599 22.9574 23.2299 22.9934C23.1099 23.1444 23.1359 23.3634 23.2859 23.4824C23.3559 23.5374 23.4369 23.5614 23.5179 23.5574C23.5869 23.5544 23.6499 23.5244 23.7069 23.4824C23.7309 23.4644 23.7559 23.4514 23.7759 23.4264C23.8339 23.3534 23.8879 23.2754 23.9419 23.1974C23.9539 23.1804 23.9669 23.1644 23.9779 23.1474C23.9869 23.1344 23.9969 23.1224 24.0059 23.1094C24.0069 23.1044 24.0109 23.0994 24.0139 23.0954L24.0169 23.0904L24.0199 23.0844C24.0209 23.0834 24.0229 23.0814 24.0229 23.0804L24.0259 23.0764C24.0259 23.0764 24.0279 23.0724 24.0279 23.0714L24.0319 23.0664C24.0319 23.0664 24.0329 23.0634 24.0339 23.0624L24.0369 23.0574L24.0379 23.0524H24.0399L24.0409 23.0474L24.0419 23.0434L24.0439 23.0424L24.0469 23.0394C24.0469 23.0394 24.0469 23.0354 24.0489 23.0344V23.0324L24.0519 23.0304C24.0519 23.0304 24.0519 23.0294 24.0529 23.0284V23.0254H24.0549L24.0569 23.0204L24.0589 23.0144L24.0609 23.0104V23.0084C24.0609 23.0084 24.0619 23.0074 24.0639 23.0064C24.0639 23.0064 24.0639 23.0054 24.0649 23.0044L24.0669 23.0014V22.9994L24.0689 22.9974V22.9954C24.0689 22.9954 24.0719 22.9944 24.0719 22.9934C24.0729 22.9934 24.0729 22.9924 24.0729 22.9904V22.9884L24.0759 22.9854L24.0779 22.9824V22.9784L24.0809 22.9754L24.0829 22.9734V22.9714L24.0859 22.9684V22.9664C24.0859 22.9664 24.0879 22.9654 24.0879 22.9634L24.0899 22.9594L24.0919 22.9564V22.9544L24.0929 22.9534L24.0959 22.9504C24.0959 22.9504 24.0959 22.9494 24.0969 22.9484V22.9464L24.0999 22.9434V22.9404L24.1029 22.9384C24.1029 22.9384 24.1029 22.9364 24.1039 22.9354C24.1039 22.9354 24.1039 22.9344 24.1049 22.9344V22.9314L24.1079 22.9304V22.9264H24.1109V22.9234L24.1139 22.9224V22.9194L24.1169 22.9184V22.9144L24.1179 22.9134L24.1209 22.9104L24.1239 22.9054L24.1259 22.9004L24.1279 22.8944L24.1319 22.8904L24.1339 22.8864L24.1369 22.8804L24.1549 22.8474C24.1639 22.8324 24.1549 22.8144 24.1599 22.7974C24.2159 22.6424 24.1689 22.4634 24.0159 22.3794L24.0249 22.3754Z" fill="#5C913B"/>
<path d="M21.0961 24.6336C21.0911 24.4446 20.9271 24.2976 20.7381 24.3036H20.7341L20.6481 24.3096C20.6171 24.3106 20.5871 24.3066 20.5561 24.3066C20.5051 24.3066 20.4541 24.3036 20.4021 24.3016C20.3191 24.2996 20.2351 24.3016 20.1531 24.2946C20.1361 24.2926 20.1201 24.2926 20.1041 24.2936C19.9331 24.3006 19.7901 24.4326 19.7731 24.6066C19.7581 24.7606 19.8481 24.8976 19.9831 24.9566C20.0151 24.9706 20.0481 24.9846 20.0841 24.9876L20.1711 24.9956H20.1741H20.1771H20.1821H20.1861H20.1881H20.1921H20.1941H20.2021L20.2051 24.9966H20.2181H20.2271C20.3081 25.0016 20.3911 25.0026 20.4731 25.0026C20.4871 25.0026 20.5011 25.0036 20.5151 25.0036C20.5261 25.0036 20.5361 25.0036 20.5471 25.0036H20.5791H20.5831H20.5971H20.6101H20.6141H20.6171H20.6211H20.6241H20.6301H20.6341H20.6381H20.6421H20.6501H20.6641H20.6671H20.6701H20.6731H20.6761H20.6821H20.6851C20.7141 25.0036 20.7441 25.0006 20.7731 24.9986C20.8091 24.9956 20.8411 24.9826 20.8721 24.9706C21.0061 24.9166 21.0981 24.7856 21.0881 24.6326L21.0961 24.6336Z" fill="#5C913B"/>
<path d="M19.2067 24.4547C19.2897 24.2797 19.2137 24.0727 19.0397 23.9917C18.8957 23.9257 18.7587 23.8417 18.6237 23.7557C18.5987 23.7397 18.5717 23.7287 18.5477 23.7127C18.5437 23.7097 18.5387 23.7087 18.5347 23.7057C18.4707 23.6607 18.3957 23.6427 18.3237 23.6447C18.2177 23.6487 18.1147 23.7007 18.0497 23.7957C17.9437 23.9507 17.9837 24.1607 18.1347 24.2707C18.1377 24.2727 18.1367 24.2767 18.1397 24.2787L18.1437 24.2817L18.1477 24.2857L18.1517 24.2887L18.1557 24.2927C18.3407 24.4187 18.5377 24.5297 18.7417 24.6237C18.7547 24.6297 18.7687 24.6277 18.7817 24.6317C18.8217 24.6447 18.8617 24.6567 18.9017 24.6557C19.0287 24.6497 19.1467 24.5767 19.2037 24.4547H19.2067Z" fill="#5C913B"/>
<path d="M16.7119 18.4663C16.7619 18.3583 16.8689 18.3683 16.9289 18.3843C17.0349 18.4123 17.1429 18.5013 17.1339 18.6123C17.1019 19.0263 17.3119 19.5653 17.6679 19.9863C17.9009 20.2603 18.2839 20.3753 18.5809 20.3753C18.6139 20.3753 18.6459 20.3743 18.6759 20.3713C18.7829 20.3613 18.8699 20.3333 18.9409 20.2933C18.9399 20.2833 18.9329 20.2753 18.9329 20.2653C18.9329 20.1613 18.9989 20.0693 19.1029 20.0033C19.1029 19.9723 19.1229 19.9443 19.1129 19.9133C19.0419 19.6703 18.6939 19.4723 18.1709 19.1973C18.1389 19.1813 18.1009 19.1553 18.0959 19.1263C18.0739 18.9843 18.4089 18.6553 18.5889 18.4783C18.7089 18.3593 18.8239 18.2473 18.8959 18.1503C19.0159 17.9903 19.0469 17.8093 18.9849 17.6423C18.9509 17.5503 18.8879 17.4743 18.8149 17.4053C18.7919 17.4123 18.7719 17.4233 18.7469 17.4293C18.4739 17.4943 18.2249 17.4263 18.1889 17.2793C18.1759 17.2253 18.2019 17.1683 18.2429 17.1133C18.2379 17.1123 18.2319 17.1093 18.2259 17.1083C18.1069 17.0813 18.0319 17.0363 18.0029 16.9723C17.9739 16.9073 17.9539 16.7463 18.1529 16.3893C18.1999 16.3053 18.1699 16.1993 18.0849 16.1523C18.0009 16.1053 17.8949 16.1343 17.8479 16.2193C17.6379 16.5983 17.5839 16.8903 17.6849 17.1143C17.7619 17.2843 17.9179 17.3963 18.1499 17.4473C18.4009 17.5033 18.6089 17.6323 18.6569 17.7623C18.6699 17.7973 18.6799 17.8553 18.6149 17.9403C18.5579 18.0163 18.4529 18.1193 18.3419 18.2283C18.0269 18.5373 17.7019 18.8583 17.7489 19.1753C17.7629 19.2703 17.8189 19.4063 18.0059 19.5043C18.2259 19.6193 18.7419 19.8913 18.7809 19.9843C18.7649 19.9993 18.6889 20.0333 18.5389 20.0253C18.3549 20.0183 18.0849 19.9433 17.9299 19.7603C17.6349 19.4113 17.4519 18.9603 17.4769 18.6393C17.5009 18.3363 17.2619 18.1123 17.0119 18.0473C16.7429 17.9793 16.4989 18.0843 16.3909 18.3203C16.3509 18.4073 16.3889 18.5113 16.4759 18.5513C16.5629 18.5913 16.6659 18.5543 16.7069 18.4663H16.7119Z" fill="#5C913B"/>
<path d="M19.5081 21.8475C19.7361 21.9155 19.9831 21.9665 20.2431 22.0015C20.2581 22.0035 20.2741 22.0045 20.2891 22.0045C20.4611 22.0045 20.6111 21.8775 20.6321 21.7015C20.6571 21.5105 20.5231 21.3355 20.3321 21.3105C20.1081 21.2805 19.8971 21.2365 19.7051 21.1795C19.5411 21.1305 19.3671 21.2095 19.2941 21.3575C19.3481 21.2025 19.2841 21.0255 19.1351 20.9415C18.9541 20.8405 18.7931 20.7205 18.6561 20.5825C18.5201 20.4465 18.2991 20.4465 18.1641 20.5825C18.0291 20.7185 18.0281 20.9385 18.1641 21.0745C18.3461 21.2575 18.5591 21.4165 18.7961 21.5485C18.9641 21.6435 19.1761 21.5825 19.2701 21.4145L19.2781 21.3985L19.2741 21.4125C19.2191 21.5975 19.3241 21.7905 19.5091 21.8455L19.5081 21.8475Z" fill="#5C913B"/>
<path d="M21.5443 21.5277C21.4533 21.5277 21.3723 21.4537 21.3103 21.3397C21.2183 21.3437 21.1313 21.3527 21.0403 21.3527H20.9833C20.7903 21.3527 20.6543 21.5077 20.6543 21.6997C20.6543 21.8917 20.8293 22.0487 21.0223 22.0487C21.1243 22.0487 21.2253 22.0467 21.3213 22.0427C21.2723 22.1077 21.2283 22.1917 21.1813 22.2647L21.1793 22.2677C21.1093 22.3747 21.0383 22.4747 20.9723 22.5957C20.8803 22.7637 20.9433 22.9757 21.1123 23.0677C21.1653 23.0967 21.2223 23.1097 21.2783 23.1097C21.4013 23.1097 21.5213 23.0447 21.5843 22.9277C21.6483 22.8107 21.7163 22.7207 21.7833 22.6197C21.8283 22.5507 21.8723 22.4697 21.9183 22.4097C21.9223 22.4047 21.9253 22.3977 21.9293 22.3927C22.0303 22.2657 22.0263 22.0887 21.9303 21.9657C22.0463 22.0617 22.2163 22.0747 22.3473 21.9897C22.4143 21.9447 22.4713 21.9167 22.5133 21.9007C22.7373 21.8557 22.8643 21.8147 22.9213 21.6287C22.9543 21.5227 22.9343 21.4087 22.8693 21.3197C22.8043 21.2307 22.7003 21.1787 22.5893 21.1787C22.5523 21.1787 22.4603 21.1847 22.3293 21.2267L22.3043 21.2317C22.2483 21.2417 22.1983 21.2647 22.1573 21.2967C22.0963 21.3257 22.0323 21.3627 21.9623 21.4087C21.9523 21.4147 21.9423 21.4227 21.9323 21.4297C21.8913 21.3857 21.8373 21.3567 21.7783 21.3387C21.7163 21.4527 21.6353 21.5257 21.5443 21.5257V21.5277Z" fill="#5C913B"/>
<path d="M21.8937 22.9196C21.8937 22.8116 21.8497 22.7116 21.7837 22.6206C21.7167 22.7216 21.6487 22.8106 21.5847 22.9286C21.5217 23.0446 21.4027 23.1106 21.2787 23.1106C21.2227 23.1106 21.1647 23.0966 21.1127 23.0686C20.9437 22.9766 20.8807 22.7646 20.9727 22.5966C21.0387 22.4756 21.1107 22.3756 21.1797 22.2686C21.1417 22.2596 21.1007 22.2586 21.0617 22.2526C20.9907 22.2426 20.9247 22.2236 20.8497 22.2236C20.8247 22.2236 20.8047 22.2316 20.7797 22.2326C20.2367 22.2576 19.8047 22.5516 19.8047 22.9196C19.8047 23.2876 20.2367 23.5816 20.7797 23.6066C20.8037 23.6076 20.8247 23.6166 20.8497 23.6166C20.9247 23.6166 20.9917 23.5976 21.0617 23.5876C21.5327 23.5206 21.8937 23.2546 21.8937 22.9196Z" fill="#FFCC4D"/>
<path d="M21.5532 20.824C21.5272 20.805 21.5172 20.811 21.4812 20.739C21.4792 20.821 21.4442 20.898 21.4092 20.912L21.3482 20.813L21.2672 20.829L21.2012 20.874C21.2072 21.058 21.2472 21.221 21.3102 21.338C21.3722 21.453 21.4532 21.526 21.5442 21.526C21.6352 21.526 21.7162 21.453 21.7782 21.339C21.8312 21.242 21.8642 21.111 21.8792 20.965L21.6062 20.71L21.5522 20.823L21.5532 20.824Z" fill="#FFCC4D"/>
<path d="M19.3636 20.2974C19.4366 20.2154 19.5046 20.1594 19.6086 20.1064L19.7546 20.0604C19.7196 20.0174 19.6806 19.9724 19.6486 19.9254C19.5926 19.9124 19.5336 19.9014 19.4706 19.9014C19.3276 19.9014 19.1996 19.9404 19.1036 20.0014C18.9996 20.0674 18.9336 20.1594 18.9336 20.2634C18.9336 20.2734 18.9406 20.2824 18.9416 20.2914C18.9646 20.4784 19.1886 20.6254 19.4696 20.6254C19.5636 20.6254 19.6486 20.6044 19.7256 20.5754L19.7296 20.4604C19.5946 20.4394 19.3146 20.4114 19.3626 20.2944L19.3636 20.2974Z" fill="#FFCC4D"/>
<path d="M18.7508 17.4273C18.7758 17.4213 18.7948 17.4103 18.8188 17.4033C18.8748 17.3853 18.9258 17.3643 18.9718 17.3383C18.9608 17.3293 18.9568 17.3203 18.9408 17.3003L18.7758 17.3123L18.6838 17.2663C18.6798 17.2193 18.6228 17.2193 18.6718 17.1283C18.7678 17.0453 18.8638 16.9673 18.9328 16.8793C18.8408 16.8643 18.7358 16.8643 18.6228 16.8903C18.4508 16.9313 18.3178 17.0163 18.2468 17.1103C18.2058 17.1653 18.1798 17.2213 18.1928 17.2763C18.2288 17.4243 18.4778 17.4923 18.7508 17.4273Z" fill="#FFCC4D"/>
<path d="M18.6702 17.1291C18.6212 17.2201 18.6782 17.2201 18.6822 17.2671L18.7742 17.3131L18.9392 17.3011C18.9552 17.3211 18.9592 17.3311 18.9702 17.3391C18.9782 17.3451 18.9862 17.3501 19.0162 17.3601C19.2082 17.4131 19.4482 17.1831 19.6362 17.5461C19.5502 17.6191 19.4632 17.7881 19.4902 17.8201C19.5252 17.8201 19.4202 17.8691 19.5612 17.8241C19.4152 17.9661 19.3162 18.1531 19.3162 18.1651C19.2992 18.2051 19.3742 18.1591 19.3592 18.2321L19.3942 18.2281C19.0602 18.5891 19.3832 18.9771 19.3472 19.1851C19.4032 19.2751 19.4102 19.1831 19.4792 19.1741C19.5372 19.4301 19.7062 19.5861 19.8092 19.7881L19.5922 19.7901C19.5942 19.8371 19.6172 19.8831 19.6472 19.9271C19.6782 19.9741 19.7172 20.0191 19.7532 20.0621L19.6072 20.1081C19.5032 20.1611 19.4352 20.2171 19.3622 20.2991C19.3142 20.4161 19.5942 20.4441 19.7292 20.4651L19.7252 20.5801V20.6071C19.9352 20.6271 20.1792 20.5651 20.1792 20.5531L20.2322 20.5121L20.3512 20.5781C20.3912 20.5781 20.4532 20.4191 20.4242 20.2971C20.5012 20.3881 20.5732 20.5351 20.6502 20.6271L20.7222 20.6171C20.7872 20.7211 20.8772 20.8241 20.9432 20.9281L21.0162 20.9561C21.0582 20.9411 21.0952 20.9361 21.1182 20.8531L21.1512 20.9121L21.2012 20.8781L21.2672 20.8331L21.3482 20.8171L21.4092 20.9161C21.4452 20.9031 21.4792 20.8251 21.4812 20.7431C21.5172 20.8151 21.5272 20.8091 21.5532 20.8281L21.6072 20.7151L21.8802 20.9701L21.8962 20.9851L22.1152 20.9981C22.1932 21.0511 22.4072 21.0841 22.4432 20.9981C22.6182 21.0731 22.8252 20.9881 22.8152 20.9041C22.9772 20.9681 23.2252 20.9251 23.2252 20.9141C23.2552 20.9111 23.3322 20.8351 23.2592 20.7791C22.7252 20.4071 21.9332 19.7911 21.6272 19.6431C21.6272 19.5331 21.5442 19.1371 21.4552 19.0281L21.5272 18.9071C21.7352 19.1011 21.8102 19.0831 21.9212 19.1131C22.0392 19.2071 22.0802 19.3501 22.1992 19.4801L22.3052 19.5001C22.2322 19.3141 22.1412 19.1341 21.9192 18.8921C22.0332 18.9491 22.2232 19.1021 22.3492 19.2121C22.4332 19.3521 22.4572 19.4631 22.5342 19.6391C22.5902 19.6741 22.6472 19.8051 22.6392 19.6971C22.6262 19.4941 22.4832 19.1731 22.4832 19.1501C22.7102 19.3301 22.7072 19.6101 22.7762 19.7801C22.8342 19.8661 22.8632 19.9821 22.8882 19.9551L22.8212 19.4291L22.7822 19.2361C22.9502 19.3331 23.0102 19.7021 23.0882 20.1451C23.0882 20.2151 23.1172 20.2931 23.1122 20.3381C23.1482 20.3831 23.1892 20.5061 23.1892 20.4331C23.1892 20.4331 23.1892 19.7131 23.1402 19.5481C23.1272 19.4601 23.1612 19.3161 23.1612 19.3161C23.2222 19.6151 23.2882 19.9391 23.3502 20.2371V20.4561L23.4422 20.5491C23.4592 20.3681 23.4802 20.1881 23.4982 20.0081L23.4292 19.3641V19.1801C23.4282 19.1151 23.4882 19.1271 23.5262 19.2011C23.5352 19.3591 23.5352 19.4821 23.5412 19.6401C23.5682 19.8201 23.5872 19.9511 23.6002 20.1801C23.6082 20.3651 23.6162 20.8101 23.6552 20.8021C23.7182 20.8511 23.8242 20.2941 23.8082 20.1211C23.8082 20.1091 23.7882 19.7411 23.8662 19.4771C23.9142 19.3881 23.9172 18.7231 23.8432 18.5481C23.9022 18.5431 23.9722 18.5241 23.9802 18.4531C23.7102 18.5531 23.6462 17.8841 23.3872 17.5001C23.1352 17.1151 22.8222 16.8911 22.4962 16.6561C22.5202 16.5911 22.5592 16.5291 22.6092 16.4681C22.2092 16.6681 21.5852 15.9421 20.6622 15.9971C20.4552 16.0171 20.3572 16.0301 20.3042 16.1561C20.1322 16.1701 19.9572 16.2091 19.9572 16.4351C19.9572 16.4891 20.0062 16.5881 20.1162 16.5891C20.2662 16.6331 20.3892 16.5991 20.4912 16.8091L20.5182 17.0261C20.5182 17.0261 20.3842 16.8541 20.3102 16.8271L20.3552 16.7341C20.2852 16.6931 20.1622 16.7261 20.1622 16.7261C20.1622 16.7261 19.8942 16.6011 19.6792 16.6341L19.6372 16.4601C19.5992 16.5671 19.5152 16.5621 19.5032 16.6631C19.4792 16.5901 19.4482 16.5011 19.4262 16.4281C19.3502 16.5311 19.3722 16.6431 19.3452 16.7501C19.3162 16.7751 19.2562 16.7761 19.2412 16.7071C19.2332 16.6221 19.2232 16.6141 19.2232 16.5131C19.1692 16.6081 19.1032 16.6551 19.0822 16.8191L19.0242 16.6381C19.0242 16.7341 18.9852 16.8111 18.9292 16.8821C18.8602 16.9701 18.7642 17.0471 18.6682 17.1311L18.6702 17.1291Z" fill="#C1694F"/>
</svg>
