<svg width="41" height="41" viewBox="0 0 41 41" fill="none" xmlns="http://www.w3.org/2000/svg">
<path d="M34.5 8.5H6.5C4.29086 8.5 2.5 10.2909 2.5 12.5V28.5C2.5 30.7091 4.29086 32.5 6.5 32.5H34.5C36.7091 32.5 38.5 30.7091 38.5 28.5V12.5C38.5 10.2909 36.7091 8.5 34.5 8.5Z" fill="#E3E7EA"/>
<path d="M34.5049 8.5H26.7949V10.215H37.7799C37.0579 9.18 35.8619 8.5 34.5049 8.5Z" fill="#ED002C"/>
<path d="M38.4429 11.9277H26.7949V13.6427H38.5009V12.4957C38.5009 12.3017 38.4709 12.1157 38.4439 11.9287L38.4429 11.9277Z" fill="#ED002C"/>
<path d="M38.5009 15.3584H26.7949V17.0724H38.5009V15.3584Z" fill="#ED002C"/>
<path d="M38.5009 18.7861H26.7949V20.5001H38.5009V18.7861Z" fill="#ED002C"/>
<path d="M2.5 22.2148V23.9278H38.5V22.2148H26.794H2.5Z" fill="#ED002C"/>
<path d="M38.5 25.6426H2.5V27.3576H38.5V25.6426Z" fill="#ED002C"/>
<path d="M3.22164 30.7863H37.7776C38.1266 30.2863 38.3516 29.7023 38.4426 29.0713H2.55664C2.64664 29.7023 2.87264 30.2863 3.22164 30.7863Z" fill="#ED002C"/>
<path d="M6.495 8.5C5.138 8.5 3.943 9.18 3.221 10.215C2.872 10.714 2.648 11.298 2.557 11.929H2.5V22.215H26.794V8.5H6.495Z" fill="#303C9D"/>
<path d="M9.00648 15.3578C9.00648 12.8728 11.0475 10.8568 13.5625 10.8568C14.4345 10.8568 15.2505 11.0998 15.9435 11.5218C15.0225 10.7098 13.8075 10.2148 12.4765 10.2148C9.60348 10.2148 7.27148 12.5188 7.27148 15.3578C7.27148 18.1968 9.60348 20.4998 12.4765 20.4998C13.8075 20.4998 15.0215 20.0058 15.9435 19.1928C15.2505 19.6138 14.4345 19.8578 13.5625 19.8578C11.0475 19.8578 9.00648 17.8418 9.00648 15.3578Z" fill="#FBCE00"/>
<path d="M19.4181 15.3583L21.9121 14.4033L19.2461 14.6143L21.0751 12.6863L18.7641 14.0173L19.5651 11.4963L18.0691 13.6863L17.6821 11.0723L17.4061 12.9453L17.3271 13.4853L17.2961 13.6863L15.8001 11.4963L16.6011 14.0173L14.2911 12.6863L16.1191 14.6143L13.4531 14.4033L15.9481 15.3583L13.4531 16.3113L16.1191 16.1023L14.2911 18.0303L16.6011 16.6983L15.8001 19.2193L17.2961 17.0293L17.3271 17.2303L17.4061 17.7703L17.6821 19.6433L18.0691 17.0293L19.5651 19.2193L18.7641 16.6983L21.0751 18.0303L19.2461 16.1023L21.9121 16.3113L19.4181 15.3583Z" fill="#FBCE00"/>
</svg>
