<svg width="41" height="41" viewBox="0 0 41 41" fill="none" xmlns="http://www.w3.org/2000/svg">
<path d="M34.5054 8.50002H6.49537C6.23337 8.50002 5.97837 8.52802 5.73137 8.57802C5.58437 8.60702 5.44537 8.65702 5.30537 8.70302C5.21637 8.73202 5.12338 8.75102 5.03738 8.78602C4.84538 8.86302 4.66338 8.95802 4.48738 9.06302C4.46338 9.07702 4.43738 9.08802 4.41338 9.10302C4.22838 9.21902 4.05438 9.35002 3.89038 9.49302C3.88038 9.50102 3.86937 9.50802 3.85938 9.51602L12.5224 16H38.5024V12.495C38.5024 10.288 36.7134 8.49902 34.5074 8.49902L34.5054 8.50002Z" fill="#007568"/>
<path d="M6.27539 18.395L6.38539 18.495L6.27739 18.376L6.27539 18.395Z" fill="#D3003B"/>
<path d="M9.1592 19.2616L9.2482 19.1846L9.1582 19.2596L9.1592 19.2616Z" fill="#D3003B"/>
<path d="M5.501 21.4584L5.5 21.4814L5.517 21.4674L5.522 21.4414L5.501 21.4584Z" fill="#D3003B"/>
<path d="M9.53711 17.9297L9.55211 18.0517L9.55811 17.9527C9.55211 17.9447 9.54111 17.9377 9.53711 17.9297Z" fill="#D3003B"/>
<path d="M13.535 24.2396L18.532 20.4996L13.522 16.7496L12.52 15.9996L3.857 9.51562C3.857 9.51562 3.851 9.52263 3.847 9.52563C3.653 9.69863 3.477 9.89063 3.32 10.0966C3.31 10.1096 3.299 10.1206 3.29 10.1336C3.146 10.3256 3.025 10.5356 2.918 10.7526C2.9 10.7886 2.878 10.8206 2.861 10.8566C2.771 11.0536 2.707 11.2626 2.649 11.4746C2.633 11.5356 2.607 11.5916 2.593 11.6536C2.537 11.9106 2.508 12.1766 2.505 12.4496C2.505 12.4646 2.5 12.4786 2.5 12.4936V28.5026C2.5 28.5176 2.505 28.5316 2.505 28.5466C2.508 28.8196 2.537 29.0866 2.593 29.3426C2.607 29.4046 2.632 29.4616 2.649 29.5226C2.706 29.7346 2.77 29.9446 2.861 30.1406C2.878 30.1766 2.9 30.2096 2.918 30.2456C3.026 30.4626 3.146 30.6716 3.29 30.8636C3.3 30.8766 3.311 30.8876 3.32 30.9006C3.478 31.1066 3.654 31.2986 3.847 31.4716C3.851 31.4746 3.853 31.4786 3.857 31.4816H3.859L12.52 24.9976L13.534 24.2386L13.535 24.2396ZM11.019 23.3696L10.329 22.6026L10.319 22.6136C10.308 22.6216 10.178 22.5906 10 22.5566L10.82 24.9996L7.842 22.8566L4.867 25.0006L5.664 22.6206L5.257 22.6226L5.263 22.5976H5.258L4.553 23.4366C4.515 23.4616 4.484 23.4706 4.452 23.4706C4.42 23.4706 4.388 23.4606 4.356 23.4416L3.845 22.8556L4.651 22.1226C4.754 22.0536 4.852 22.0406 4.98 22.0286L5.413 21.5956L5.49 21.5916L5.515 21.4826L5.493 21.5006V21.4696L5.477 21.4816L5.488 21.3526L5.482 21.1736L3.029 19.4386L4.44 19.4436L5.396 18.0876L5.621 18.0326C5.633 18.0326 5.783 18.0636 5.904 18.0636C6.013 18.0636 6.034 18.0396 6.037 18.0326C6.105 17.5676 6.472 17.6506 6.607 17.6966L7.117 18.2376L7.845 16.0016L8.699 18.6166L8.764 18.5536L9.112 18.5616L9.527 18.1716L9.536 17.9176C9.542 17.9236 9.553 17.9286 9.56 17.9336V17.9196C9.568 17.9336 9.584 17.9456 9.597 17.9586C9.699 18.0206 9.842 18.0746 9.861 18.0776C9.895 18.0306 9.942 17.9816 9.994 17.9816C10.001 17.9816 10.052 18.0066 10.057 18.0126C10.104 18.0786 10.092 18.1136 10.073 18.1466L10.112 18.1986L11.786 17.0166C11.796 17.0086 11.811 17.0106 11.82 17.0206C11.828 17.0306 11.828 17.0456 11.818 17.0546L10.255 18.5286C10.187 18.5686 10.104 18.5446 10.067 18.5066L9.156 19.2956C9.121 19.2626 9.092 19.2406 9.063 19.2166C9.05 19.2036 9.034 19.1936 9.02 19.1826C8.984 19.1576 8.948 19.1386 8.907 19.1246L8.874 19.1546L8.972 19.4546L12.661 19.4386L10.222 21.1656L10.583 22.3236L10.581 22.3256C10.957 22.7486 11.231 23.0576 11.239 23.0656C11.233 23.2606 11.187 23.3036 11.02 23.3706L11.019 23.3696Z" fill="#D3003B"/>
<path d="M5.28781 22.5508L5.28711 22.5537L5.66638 22.6446L5.66708 22.6417L5.28781 22.5508Z" fill="#D3003B"/>
<path d="M6.93016 18.8002L6.80916 18.6732C6.77516 18.7212 6.66216 18.7252 6.55516 18.7102L6.27316 18.4092L6.25916 18.5792L6.26216 18.8512L5.78516 19.4472L6.71816 19.4502L6.93016 18.7992V18.8002Z" fill="#D3003B"/>
<path d="M3.88867 9.49352C4.05267 9.35052 4.22667 9.21952 4.41167 9.10352C4.22467 9.21852 4.05267 9.35052 3.88867 9.49352Z" fill="#F7E000"/>
<path d="M3.32031 10.0974C3.47831 9.89137 3.65431 9.69937 3.84731 9.52637C3.65331 9.69937 3.47731 9.88937 3.32031 10.0974Z" fill="#F7E000"/>
<path d="M5.30664 8.70215C5.44764 8.65715 5.58564 8.60715 5.73264 8.57715C5.58564 8.60615 5.44764 8.65715 5.30664 8.70215Z" fill="#F7E000"/>
<path d="M4.48633 9.06216C4.66233 8.95716 4.84533 8.86216 5.03633 8.78516C4.84333 8.86116 4.66333 8.95816 4.48633 9.06216Z" fill="#F7E000"/>
<path d="M2.86239 30.1424C2.77239 29.9454 2.70839 29.7364 2.65039 29.5244C2.70739 29.7374 2.77239 29.9454 2.86239 30.1424Z" fill="#F7E000"/>
<path d="M2.59386 29.3439C2.53786 29.0869 2.50886 28.8209 2.50586 28.5479C2.50886 28.8209 2.53886 29.0869 2.59386 29.3439Z" fill="#F7E000"/>
<path d="M2.91797 10.7528C3.02597 10.5358 3.14697 10.3258 3.28997 10.1338C3.14697 10.3278 3.02397 10.5348 2.91797 10.7528Z" fill="#F7E000"/>
<path d="M3.28997 30.866C3.14597 30.674 3.02597 30.464 2.91797 30.248C3.02497 30.466 3.14697 30.673 3.28997 30.866Z" fill="#F7E000"/>
<path d="M3.85938 31.483C4.56537 32.108 5.48338 32.5 6.50038 32.5H34.5004C36.7094 32.5 38.5004 30.709 38.5004 28.5V25H12.5204L3.85938 31.483Z" fill="#F7E000"/>
<path d="M2.65039 11.4764C2.70739 11.2644 2.77139 11.0544 2.86239 10.8584C2.77339 11.0564 2.70739 11.2644 2.65039 11.4764Z" fill="#F7E000"/>
<path d="M2.50586 12.4522C2.50886 12.1792 2.53786 11.9123 2.59386 11.6562C2.53886 11.9132 2.50886 12.1792 2.50586 12.4522Z" fill="#F7E000"/>
<path d="M3.84731 31.4743C3.65331 31.3013 3.47831 31.1093 3.32031 30.9033C3.47731 31.1113 3.65331 31.3013 3.84731 31.4743Z" fill="#F7E000"/>
<path d="M8.30039 19.3325L8.25639 19.2695L8.25139 19.2975L8.02539 19.5035C8.06239 19.5175 8.07439 19.5305 8.08039 19.5445C8.08639 19.5405 8.08839 19.5405 8.09839 19.5325C8.11839 19.4895 8.20939 19.4105 8.29939 19.3325H8.30039Z" fill="#F7E000"/>
<path d="M7.39547 19.5986L7.23047 19.7556L7.40147 19.6166C7.40147 19.6096 7.39547 19.6066 7.39547 19.5996V19.5986Z" fill="#F7E000"/>
<path d="M8.53164 19.5583L8.30664 19.7943C8.30664 19.7943 8.33764 19.8243 8.37764 19.8663C9.24464 19.7933 9.70664 20.0503 9.72264 20.0603L9.95264 20.3003L10.2216 21.1653L12.6606 19.4383L8.97164 19.4543L8.87364 19.1543L8.58764 19.4133C8.59664 19.4783 8.57964 19.5053 8.53164 19.5583Z" fill="#F7E000"/>
<path d="M4.9122 20.5088L5.1392 20.2178L4.9082 20.5048L4.9122 20.5088Z" fill="#F7E000"/>
<path d="M8.34019 22.617C8.18319 22.733 8.00719 22.795 7.83219 22.795C7.82919 22.795 7.82719 22.794 7.82519 22.794C7.82319 22.794 7.82019 22.795 7.81819 22.795C7.73819 22.795 7.65919 22.777 7.58119 22.747C7.57919 22.747 7.57819 22.745 7.57619 22.745C7.50819 22.718 7.44019 22.683 7.37119 22.633C7.37319 22.629 7.38319 22.621 7.38619 22.616C7.38619 22.616 7.38419 22.616 7.38319 22.614L5.66419 22.621L4.86719 25.001L7.84219 22.857L10.8202 25L10.0002 22.557C9.77219 22.512 9.45919 22.46 9.13419 22.46C8.80019 22.46 8.53319 22.513 8.33919 22.618L8.34019 22.617Z" fill="#F7E000"/>
<path d="M5.5973 21.1098L5.7773 20.3108C5.7843 20.2998 6.0173 20.0658 6.0423 20.0448C6.2733 19.9308 7.0483 19.8398 7.0813 19.8358C7.0813 19.8358 7.0923 19.8388 7.0943 19.8388L7.4043 19.5798C7.4063 19.5898 7.4133 19.5938 7.4163 19.6028L7.4203 19.5988C7.4203 19.6128 7.4303 19.6198 7.4323 19.6328C7.4763 19.7378 7.5493 19.8118 7.6373 19.8678C7.6433 19.8498 7.6713 19.8288 7.6983 19.8088C7.7273 19.7878 7.7563 19.7668 7.7893 19.7488C7.7893 19.7488 7.7883 19.7478 7.7873 19.7468L7.7513 19.7398L7.6303 19.8078L7.4763 19.6738L7.6103 19.5118L6.9323 18.7998L6.7203 19.4508L5.7873 19.4478L4.9133 20.5398L4.8963 20.5208L4.8933 20.5248L4.7943 20.4078L4.2153 19.7618L4.4403 19.4428L3.0293 19.4378L5.4823 21.1728V21.1408L5.5973 21.1098Z" fill="#F7E000"/>
<path d="M7.08594 18.43C7.10094 18.43 7.86294 19.277 7.88694 19.304C7.89794 19.288 8.04194 19.149 8.10294 19.089C8.13694 19.055 8.16294 19.031 8.16994 19.026L8.24794 19.11L8.27894 19.018L8.69894 18.615L7.84494 16L7.11694 18.236L7.12594 18.246L7.08694 18.431L7.08594 18.43Z" fill="#F7E000"/>
<path d="M13.5235 16.75H38.5015V16H12.5215L13.5235 16.75Z" fill="#E3E7EA"/>
<path d="M12.5215 25.0002H38.5015V24.2402H13.5365L12.5215 25.0002Z" fill="#E3E7EA"/>
<path d="M5.25781 22.5969H5.26381L5.26581 22.5879L5.25781 22.5969Z" fill="#E3E7EA"/>
<path d="M5.56555 21.4066L5.56055 21.4296L5.83855 21.1846L5.56555 21.4066Z" fill="#E3E7EA"/>
<path d="M5.6732 22.5974H5.6802L7.4032 22.5724C7.4032 22.5724 7.4132 22.5774 7.4172 22.5814C7.4802 22.4954 7.6072 22.3764 7.8452 22.2614C7.4332 22.1014 6.8932 22.0624 6.4562 22.0634L6.5462 22.3554L6.2822 22.5584L6.2722 22.5354L6.2672 22.5384L6.2302 22.4394L6.0722 22.0744C5.8502 22.0864 5.6972 22.1024 5.6912 22.1034C5.6742 22.1124 5.6642 22.0954 5.6622 22.0824C5.6602 22.0684 5.6702 22.0564 5.6842 22.0544C5.7052 22.0514 5.8482 22.0364 6.0502 22.0244L6.0352 21.9914L5.9052 21.8824L5.9232 21.8644L5.9392 21.8484L6.2192 21.5654L6.4002 21.5584C6.4042 21.5514 6.4802 21.4594 6.5452 21.3774L6.4402 21.2764L6.3412 21.3834C6.3352 21.4214 6.3432 21.4334 6.3872 21.4444C6.4002 21.4474 6.4082 21.4594 6.4062 21.4724C6.4042 21.4844 6.3902 21.4904 6.3802 21.4934L6.2532 21.4814L5.6712 21.9984C5.6832 22.0274 5.6752 22.1004 5.6132 22.1724L5.2932 22.5534L5.2832 22.5964H5.6722L5.6732 22.5974Z" fill="#E3E7EA"/>
<path d="M5.55139 21.5884L6.34239 20.8894L6.43439 20.9314L6.51439 20.7984C6.96839 20.3824 7.08439 20.2834 7.12039 20.2584C7.10739 20.2584 7.09839 20.2444 7.08839 20.2324L7.06639 20.2494L6.45139 20.7644L6.34639 20.7014V20.7244L6.37139 20.7754L5.55939 21.4464L5.52539 21.5894H5.55239L5.55139 21.5884Z" fill="#E3E7EA"/>
<path d="M9.81663 22.0327L7.99963 20.0127L7.90462 20.0987L7.89862 20.9977C8.08162 21.0307 8.26863 21.0577 8.42563 21.0737C8.43163 21.6717 8.42563 21.6717 8.39463 21.6717C8.34763 21.6937 8.27763 21.7067 8.19663 21.7067C8.10463 21.7067 8.00063 21.6867 7.89463 21.6607L7.89062 22.2407C8.28662 22.0597 8.91962 21.9217 9.81862 22.0327H9.81663Z" fill="#E3E7EA"/>
<path d="M7.52635 20.4418L7.27735 20.1718L7.27135 20.1938L7.28035 20.2528L7.41135 20.4238C7.41135 20.4238 7.39435 20.4318 7.38935 20.4358L7.39135 20.4378L7.38235 20.4388C7.33735 20.4678 7.23335 20.4908 7.17135 20.5658C7.13835 20.6058 7.12635 20.6548 7.13235 20.7128C7.14535 20.8248 7.49735 20.9238 7.87535 20.9938L7.86535 20.1348L7.52735 20.4408L7.52635 20.4418Z" fill="#E3E7EA"/>
<path d="M7.94141 22.2684C8.10041 22.3444 8.23541 22.4434 8.33641 22.5674C8.53841 22.4644 8.80441 22.4104 9.13541 22.4104C9.70641 22.4104 10.2724 22.5644 10.3004 22.5714L9.86441 22.0864C8.94341 21.9634 8.32641 22.1014 7.94141 22.2684Z" fill="#E3E7EA"/>
<path d="M7.885 22.2425H7.887L7.88 21.6585C7.341 21.5225 6.69 21.1265 6.657 21.1055L6.601 21.2175L6.737 21.3945L6.375 21.8065L6.439 22.0145C6.891 22.0145 7.455 22.0575 7.884 22.2435L7.885 22.2425Z" fill="#E3E7EA"/>
<path d="M5.94141 21.8809L5.95441 21.8889L5.94341 21.8799L5.94141 21.8809Z" fill="#E3E7EA"/>
<path d="M7.4375 22.5942C7.5465 22.6882 7.6835 22.7452 7.8325 22.7452C7.9955 22.7452 8.1615 22.6862 8.3125 22.5752C8.3125 22.5752 8.3145 22.5752 8.3155 22.5752C8.2145 22.4522 8.0715 22.3582 7.9035 22.2852C7.6395 22.4062 7.4935 22.5362 7.4375 22.5942Z" fill="#E3E7EA"/>
<path d="M6.34375 20.6829L6.36975 20.6929L6.34375 20.6719V20.6829Z" fill="#E3E7EA"/>
<path d="M7.28125 20.1566L7.35925 20.2356L7.28525 20.1436L7.28125 20.1566Z" fill="#E3E7EA"/>
<path d="M7.5293 20.4066H7.5303L7.5483 20.3906L7.5293 20.4066Z" fill="#E3E7EA"/>
<path d="M6.29106 22.5302L6.33506 22.4912L6.28906 22.5232L6.29106 22.5302Z" fill="#E3E7EA"/>
<path d="M7.38694 20.4123L7.33594 20.3623L7.37294 20.4143L7.38694 20.4123Z" fill="#E3E7EA"/>
<path d="M9.68888 20.101H9.69188L9.68987 20.098C9.68787 20.098 9.23488 19.858 8.42188 19.915C8.69987 20.217 9.44087 21.046 10.0959 21.781L9.68888 20.101Z" fill="#E3E7EA"/>
<path d="M9.90919 20.3244L9.74219 20.1514L10.0982 21.7834C10.2462 21.9504 10.3902 22.1114 10.5232 22.2614L9.90919 20.3244Z" fill="#E3E7EA"/>
<path d="M5.82058 20.3343L5.64258 21.0873L5.85658 20.9113L6.04458 20.1113C5.98458 20.1693 5.82158 20.3333 5.82158 20.3333L5.82058 20.3343Z" fill="#E3E7EA"/>
<path d="M6.10392 20.0736L5.91992 20.8576L6.93992 20.0206L6.94592 19.9616L7.03192 19.8896C6.87792 19.9106 6.31992 19.9866 6.10392 20.0736Z" fill="#E3E7EA"/>
<path d="M18.5315 20.5L13.5345 24.24H38.4995V16.75H13.5215L18.5315 20.5Z" fill="black"/>
<path d="M9.72195 20.0596C9.70495 20.0496 9.24395 19.7926 8.37695 19.8656C8.39095 19.8806 8.40495 19.8946 8.42195 19.9146C9.23495 19.8586 9.68795 20.0976 9.68995 20.0976L9.69195 20.0996L9.72795 20.0916L9.74095 20.1506L9.90795 20.3236L10.522 22.2606C10.541 22.2826 10.56 22.3036 10.579 22.3246L10.581 22.3226L10.22 21.1646L9.95095 20.2996L9.72095 20.0596H9.72195Z" fill="black"/>
<path d="M6.0407 20.0449C6.0157 20.0659 5.7827 20.2989 5.7757 20.3109L5.5957 21.1099L5.6197 21.1039L5.6397 21.0879L5.8177 20.3349C5.8177 20.3349 5.9807 20.1709 6.0407 20.1129L6.0527 20.0639C6.0557 20.0499 6.0697 20.0409 6.0837 20.0449C6.0977 20.0479 6.1057 20.0609 6.1027 20.0749C6.3187 19.9879 6.8767 19.9119 7.0307 19.8909L7.0917 19.8399L7.0787 19.8369C7.0457 19.8409 6.2717 19.9319 6.0397 20.0459L6.0407 20.0449Z" fill="black"/>
<path d="M7.38681 22.6157C7.39181 22.6067 7.40881 22.5927 7.41681 22.5817C7.41281 22.5777 7.40681 22.5767 7.40281 22.5727L5.67981 22.5977H5.67281L5.28281 22.6037V22.5977L5.29481 22.5547L5.26581 22.5887L5.26381 22.5977L5.25781 22.6227L5.66481 22.6207L7.38381 22.6137C7.38381 22.6137 7.38581 22.6147 7.38681 22.6157Z" fill="black"/>
<path d="M7.58117 22.7471C7.58117 22.7471 7.57817 22.7451 7.57617 22.7451C7.57817 22.7451 7.57917 22.7471 7.58117 22.7471Z" fill="black"/>
<path d="M10.2992 22.5712C10.2712 22.5632 9.70522 22.4102 9.13422 22.4102C8.80322 22.4102 8.53822 22.4642 8.33522 22.5672C8.34022 22.5732 8.34622 22.5772 8.35122 22.5822C8.16522 22.7242 7.99222 22.7912 7.82422 22.7932C7.82722 22.7932 7.82922 22.7942 7.83122 22.7942C8.00522 22.7942 8.18222 22.7322 8.33922 22.6162C8.53322 22.5122 8.80022 22.4582 9.13422 22.4582C9.45822 22.4582 9.77222 22.5112 10.0002 22.5552C10.1782 22.5902 10.3082 22.6202 10.3192 22.6122L10.3292 22.6012L10.3002 22.5692L10.2992 22.5712Z" fill="black"/>
<path d="M5.52128 21.5893L5.55528 21.4463L5.51328 21.4813L5.48828 21.5913L5.52128 21.5893Z" fill="black"/>
<path d="M5.52258 21.4422L5.51758 21.4682L5.56058 21.4302L5.56558 21.4072L5.52258 21.4422Z" fill="black"/>
<path d="M7.8312 22.7452C7.6822 22.7452 7.5452 22.6882 7.4362 22.5942C7.4182 22.6122 7.4082 22.6252 7.4082 22.6252C7.6982 22.8052 7.9802 22.8022 8.3162 22.5762L8.3142 22.5742H8.3112C8.1602 22.6852 7.9942 22.7442 7.8312 22.7442V22.7452Z" fill="black"/>
<path d="M5.68632 22.0544C5.67232 22.0564 5.66232 22.0684 5.66432 22.0824C5.66632 22.0964 5.67632 22.1134 5.69332 22.1034C5.69832 22.1034 5.85232 22.0864 6.07432 22.0744L6.05332 22.0244C5.85232 22.0354 5.70732 22.0514 5.68632 22.0544Z" fill="black"/>
<path d="M7.84441 22.2609C7.60641 22.3759 7.47941 22.4949 7.41641 22.5809C7.40841 22.5919 7.39141 22.6059 7.38641 22.6149C7.38341 22.6199 7.37341 22.6279 7.37141 22.6319C7.43941 22.6809 7.50741 22.7169 7.57641 22.7439C7.57841 22.7439 7.57941 22.7459 7.58141 22.7459C7.65941 22.7759 7.73841 22.7939 7.81841 22.7939C7.82041 22.7939 7.82241 22.7929 7.82541 22.7929C7.99341 22.7909 8.16641 22.7229 8.35241 22.5819C8.34841 22.5759 8.34141 22.5719 8.33641 22.5669C8.23541 22.4429 8.10041 22.3439 7.94141 22.2679C8.32641 22.1009 8.94341 21.9639 9.86441 22.0869L9.81641 22.0339C8.91741 21.9229 8.28441 22.0609 7.88841 22.2419H7.88641C7.45841 22.0569 6.89341 22.0129 6.44141 22.0129L6.45641 22.0629C6.89341 22.0629 7.43341 22.1009 7.84541 22.2609H7.84441ZM7.90241 22.2839C8.07041 22.3569 8.21441 22.4509 8.31441 22.5739C8.31441 22.5739 8.31541 22.5739 8.31641 22.5759C7.98041 22.8019 7.69841 22.8049 7.40841 22.6249C7.40841 22.6249 7.41841 22.6119 7.43641 22.5939C7.49241 22.5359 7.63841 22.4049 7.90241 22.2839Z" fill="black"/>
<path d="M7.86328 20.1346L7.87328 20.9936C7.88128 20.9946 7.88928 20.9966 7.89728 20.9976L7.90328 20.0986L7.86328 20.1346Z" fill="black"/>
<path d="M7.88786 22.2822V22.2412L7.89186 21.6612L7.88086 21.6582L7.88686 22.2412L7.88786 22.2822Z" fill="black"/>
<path d="M9.74145 20.1508L9.72945 20.0918L9.69245 20.0998L9.68945 20.1008L10.0955 21.7808L10.0985 21.7828L9.74145 20.1508Z" fill="black"/>
<path d="M6.10352 20.0739C6.10652 20.0609 6.09852 20.0469 6.08452 20.0439C6.07152 20.0399 6.05652 20.0489 6.05352 20.0629L6.04152 20.1119L5.85352 20.9119L5.91852 20.8589L6.10252 20.0749L6.10352 20.0739Z" fill="black"/>
<path d="M5.47461 21.4796L5.48961 21.4676L5.48561 21.3516L5.47461 21.4796Z" fill="black"/>
<path d="M9.06253 19.2156C9.04853 19.2046 9.03253 19.1906 9.01953 19.1816C9.03353 19.1926 9.05053 19.2026 9.06253 19.2156Z" fill="black"/>
<path d="M9.56055 17.919V17.933C9.57055 17.941 9.58355 17.949 9.59655 17.957C9.58355 17.944 9.56755 17.932 9.56055 17.918V17.919Z" fill="black"/>
<path d="M6.25977 18.3926L6.26177 18.5796L6.27577 18.4096L6.25977 18.3926Z" fill="black"/>
<path d="M4.89497 20.5212L4.79297 20.4082L4.89197 20.5252L4.89497 20.5212Z" fill="black"/>
<path d="M8.10003 19.5312C8.09003 19.5393 8.08803 19.5392 8.08203 19.5432C8.08203 19.5442 8.08703 19.5463 8.08803 19.5473C8.08803 19.5443 8.09803 19.5353 8.10003 19.5312Z" fill="black"/>
<path d="M7.78916 19.7481L7.78516 19.7471L7.78716 19.7501L7.78916 19.7481Z" fill="black"/>
<path d="M7.41406 19.6026C7.41806 19.6146 7.42506 19.6216 7.43006 19.6326C7.42906 19.6206 7.41806 19.6126 7.41806 19.5986L7.41406 19.6026Z" fill="black"/>
<path d="M6.27147 22.5355L6.23047 22.4395L6.26747 22.5385L6.27147 22.5355Z" fill="black"/>
<path d="M7.38786 20.4346L7.38086 20.4386L7.38986 20.4366L7.38786 20.4346Z" fill="black"/>
<path d="M7.26562 20.1592L7.27063 20.1932L7.27763 20.1722L7.26562 20.1592Z" fill="black"/>
<path d="M6.32617 20.6914L6.34217 20.7244V20.7014L6.32617 20.6914Z" fill="black"/>
<path d="M7.08545 20.2324L7.06445 20.2504L7.08645 20.2324H7.08545Z" fill="black"/>
<path d="M8.00177 19.9777L11.0288 23.3307C11.1568 23.2607 11.1828 23.2287 11.1938 23.0827C11.1798 23.0767 10.9558 22.8237 8.26877 19.7927L8.49377 19.5237C8.53477 19.4787 8.54677 19.4627 8.54677 19.3937L8.89977 19.0817C9.02277 19.1097 9.09477 19.1667 9.15977 19.2597L9.25077 19.1847L10.0698 18.4697C10.1148 18.4827 10.1488 18.4977 10.1848 18.4977L11.5208 17.2617L10.1128 18.2387L10.0238 18.1957C10.0138 18.1877 10.0238 18.1337 10.0308 18.1227C10.0428 18.1017 10.0508 18.0877 10.0188 18.0437C9.96377 18.0307 9.92477 18.0747 9.90277 18.0977C9.89777 18.1027 9.86677 18.1277 9.85977 18.1277C9.83577 18.1277 9.63477 18.0537 9.55977 17.9537L9.55377 18.0527L9.57077 18.1917L9.12877 18.6057L8.78077 18.5967L8.32177 19.0457L8.27277 19.2167L8.34177 19.3407C8.09177 19.5817 8.07677 19.5817 8.06577 19.5817C8.03677 19.5527 8.01677 19.5297 8.00777 19.5207C8.00477 19.5107 7.98677 19.4737 7.99477 19.4657L8.21277 19.2737L8.22377 19.2047L8.17577 19.0867C8.16977 19.0977 8.15677 19.1107 8.14077 19.1257C7.96177 19.3007 7.90377 19.3487 7.87477 19.3487C7.82677 19.3107 7.04377 18.4417 7.04377 18.4417L7.08277 18.2567L6.58077 17.7367C6.54877 17.7287 6.48377 17.7117 6.41377 17.7117C6.22977 17.7117 6.11977 17.8247 6.08677 18.0467C6.06477 18.0937 6.00577 18.1127 5.90577 18.1127C5.77977 18.1127 5.62877 18.0827 5.62277 18.0817L5.42377 18.1257L4.25777 19.7607L4.91177 20.5047L5.14277 20.2177L6.22177 18.8347L6.25577 18.3737L6.27977 18.3947L6.28177 18.3747L6.38977 18.4937L6.58277 18.6687C6.60077 18.6647 6.63277 18.6687 6.66477 18.6687C6.72577 18.6687 6.77577 18.6577 6.82177 18.6347L7.64977 19.5147L7.51577 19.6767L7.57677 19.7067L7.63677 19.7717L7.67077 19.7197L7.73577 19.6727C7.74577 19.6667 7.78677 19.7017 7.79477 19.7127L7.82577 19.7547C7.78577 19.8097 7.75777 19.8297 7.73077 19.8497C7.70177 19.8717 7.67177 19.8927 7.63677 19.9117C7.50677 19.8427 7.40577 19.7527 7.40377 19.6157L7.23277 19.7547L6.98977 19.9857L6.98377 20.0447L5.64377 21.1467L5.51077 21.1667L5.50377 21.4587L5.52477 21.4407L5.56777 21.4057L5.84077 21.1837L6.32877 20.7547L6.31977 20.6707L6.34577 20.6817V20.6707L6.37177 20.6917L6.45177 20.7247L7.09277 20.1967C7.17577 20.2617 7.16877 20.2747 7.16377 20.2847C7.11977 20.3147 6.77977 20.6207 6.55777 20.8217L6.54977 20.8687L6.43777 20.9687L6.34677 20.9267L5.57077 21.6307L5.43477 21.6367L5.00377 22.0697C4.86777 22.0877 4.77577 22.0997 4.68577 22.1607L3.88477 22.8567L4.39177 23.4027C4.42777 23.4227 4.47677 23.4277 4.52377 23.3977L5.57877 22.1397C5.62977 22.0807 5.63577 22.0207 5.63377 21.9807L6.24277 21.4367H6.29377L6.29177 21.4317C6.28277 21.4067 6.28977 21.3787 6.31177 21.3477L6.45177 21.2397L6.59177 21.3767C6.43477 21.6077 6.42077 21.6077 6.40677 21.6077H6.24277L5.94777 21.8787L5.95877 21.8877L6.08277 21.9617L6.29377 22.5217L6.33977 22.4897L6.51177 22.3407L6.33777 21.7937L6.70277 21.3887L6.56577 21.2137L6.65677 21.0677C6.70077 21.0677 7.65777 21.6557 8.19977 21.6557C8.27377 21.6557 8.33677 21.6447 8.38777 21.6227C8.38477 21.6047 8.39577 21.2897 8.40177 21.0967C8.29577 21.1097 7.11677 20.9807 7.08577 20.7177C7.07677 20.6457 7.09377 20.5837 7.13577 20.5327C7.21277 20.4387 7.34477 20.4167 7.37877 20.4117L7.34177 20.3597L7.23977 20.2577L7.26677 20.1347L7.28677 20.1557L7.29077 20.1417L7.36577 20.2347L7.53477 20.4047L7.55277 20.3887L8.00777 19.9757L8.00177 19.9777Z" fill="black"/>
<path d="M5.92483 21.8637L5.94083 21.8477L5.92383 21.8627L5.92483 21.8637Z" fill="black"/>
<path d="M10.5218 22.2611C10.3888 22.1121 10.2458 21.9501 10.0968 21.7831C10.0968 21.7831 10.0948 21.7821 10.0948 21.7811C9.4408 21.0461 8.6998 20.2171 8.4208 19.9151C8.4028 19.8951 8.3888 19.8811 8.3758 19.8661C8.3368 19.8241 8.3078 19.7941 8.3048 19.7941L8.5298 19.5581C8.5778 19.5051 8.5958 19.4781 8.5868 19.4131L8.8728 19.1541L8.9058 19.1241C8.9468 19.1381 8.9818 19.1571 9.0188 19.1821C9.0318 19.1911 9.0478 19.2051 9.0618 19.2161C9.0908 19.2391 9.1198 19.2621 9.1548 19.2951L10.0658 18.5061C10.1028 18.5441 10.1858 18.5671 10.2538 18.5281L11.8168 17.0541C11.8268 17.0451 11.8268 17.0301 11.8188 17.0201C11.8098 17.0101 11.7948 17.0071 11.7848 17.0161L10.1108 18.1981L10.0718 18.1461C10.0898 18.1131 10.1028 18.0781 10.0558 18.0121C10.0508 18.0061 9.9998 17.9811 9.9928 17.9811C9.9408 17.9811 9.8938 18.0301 9.8598 18.0771C9.8408 18.0741 9.6978 18.0201 9.5958 17.9581C9.5828 17.9501 9.5708 17.9421 9.5588 17.9341C9.5508 17.9291 9.5408 17.9241 9.5348 17.9181L9.5258 18.1721L9.1108 18.5621L8.7628 18.5541L8.6978 18.6171L8.2778 19.0201L8.2468 19.1121L8.1688 19.0281C8.1628 19.0321 8.1368 19.0571 8.1018 19.0911C8.0408 19.1501 7.8968 19.2901 7.8858 19.3061C7.8618 19.2791 7.0988 18.4321 7.0848 18.4321L7.1238 18.2471L7.1148 18.2371L6.6048 17.6961C6.4708 17.6511 6.1028 17.5681 6.0348 18.0321C6.0308 18.0391 6.0108 18.0631 5.9018 18.0631C5.7808 18.0631 5.6308 18.0331 5.6188 18.0321L5.3938 18.0871L4.4378 19.4431L4.2128 19.7621L4.7918 20.4081L4.8938 20.5211L4.9108 20.5401L5.7848 19.4481L6.2618 18.8521L6.2588 18.5801L6.2568 18.3931L6.2728 18.4101L6.5548 18.7111C6.6618 18.7261 6.7748 18.7221 6.8088 18.6741L6.9298 18.8011L7.6078 19.5131L7.4738 19.6751L7.6278 19.8091L7.7488 19.7411L7.7848 19.7481H7.7888L7.7868 19.7501C7.7528 19.7681 7.7248 19.7891 7.6958 19.8101C7.6678 19.8301 7.6408 19.8511 7.6348 19.8691C7.5478 19.8131 7.4738 19.7391 7.4298 19.6341C7.4248 19.6231 7.4178 19.6161 7.4138 19.6041C7.4108 19.5951 7.4038 19.5911 7.4018 19.5811L7.0918 19.8401L7.0308 19.8911L6.9448 19.9631L6.9388 20.0221L5.9188 20.8591L5.8538 20.9121L5.6398 21.0881L5.6198 21.1041L5.5958 21.1101L5.4788 21.1411V21.1731L5.4858 21.3521L5.4898 21.4691V21.5001L5.5128 21.4821L5.5558 21.4471L6.3678 20.7761L6.3428 20.7251L6.3268 20.6921L6.3428 20.7021L6.4478 20.7651L7.0628 20.2501L7.0838 20.2321C7.0928 20.2441 7.1028 20.2581 7.1158 20.2581C7.0808 20.2821 6.9638 20.3821 6.5098 20.7981L6.4298 20.9311L6.3378 20.8891L5.5468 21.5881H5.5198L5.4868 21.5911L5.4098 21.5951L4.9768 22.0281C4.8488 22.0401 4.7508 22.0531 4.6478 22.1221L3.8418 22.8551L4.3528 23.4411C4.3848 23.4601 4.4168 23.4701 4.4488 23.4701C4.4808 23.4701 4.5118 23.4601 4.5498 23.4361L5.2548 22.5971L5.2628 22.5881L5.2918 22.5541L5.6118 22.1731C5.6728 22.1011 5.6818 22.0271 5.6698 21.9991L6.2518 21.4821L6.3788 21.4941C6.3888 21.4911 6.4028 21.4851 6.4048 21.4731C6.4068 21.4601 6.3988 21.4481 6.3858 21.4451C6.3418 21.4341 6.3338 21.4211 6.3398 21.3841L6.4388 21.2771L6.5438 21.3781C6.4798 21.4601 6.4038 21.5511 6.3988 21.5591L6.2178 21.5661L5.9378 21.8491L5.9218 21.8651L5.9038 21.8831L6.0338 21.9921L6.0488 22.0251L6.0698 22.0751L6.2278 22.4401L6.2688 22.5361L6.2788 22.5591L6.5428 22.3561L6.4528 22.0641L6.4378 22.0141L6.3738 21.8061L6.7358 21.3941L6.5998 21.2171L6.6558 21.1051C6.6888 21.1261 7.3388 21.5221 7.8788 21.6581C7.8828 21.6581 7.8868 21.6601 7.8898 21.6611C7.9968 21.6871 8.1008 21.7071 8.1918 21.7071C8.2728 21.7071 8.3428 21.6951 8.3898 21.6721C8.4208 21.6721 8.4278 21.6721 8.4208 21.0741C8.2638 21.0581 8.0768 21.0311 7.8938 20.9981C7.8858 20.9971 7.8778 20.9951 7.8698 20.9941C7.4918 20.9241 7.1408 20.8251 7.1268 20.7131C7.1198 20.6551 7.1328 20.6051 7.1658 20.5661C7.2278 20.4901 7.3318 20.4681 7.3768 20.4391C7.3788 20.4381 7.3828 20.4371 7.3838 20.4351C7.3888 20.4311 7.4038 20.4281 7.4058 20.4231L7.2748 20.2521L7.2658 20.1931L7.2608 20.1591L7.2728 20.1711L7.5218 20.4411L7.8598 20.1351L7.8998 20.0991L7.9948 20.0131L9.8118 22.0331L9.8598 22.0861L10.2958 22.5711L10.3248 22.6031L11.0148 23.3701C11.1808 23.3031 11.2278 23.2601 11.2338 23.0651C11.2258 23.0561 10.9518 22.7481 10.5758 22.3251C10.5568 22.3041 10.5378 22.2831 10.5188 22.2611H10.5218ZM8.0258 19.5031L8.2518 19.2971L8.2568 19.2691L8.3008 19.3321C8.2108 19.4101 8.1198 19.4891 8.0998 19.5321C8.0978 19.5361 8.0878 19.5451 8.0868 19.5481C8.0868 19.5471 8.0818 19.5451 8.0808 19.5441C8.0748 19.5311 8.0618 19.5171 8.0258 19.5031ZM7.5278 20.4071L7.3588 20.2371L7.2798 20.1581L7.2598 20.1371L7.2328 20.2601L7.3348 20.3621L7.3858 20.4121C7.3858 20.4121 7.3768 20.4131 7.3718 20.4141C7.3368 20.4191 7.2058 20.4411 7.1288 20.5351C7.0868 20.5851 7.0708 20.6481 7.0788 20.7201C7.1098 20.9831 8.2898 21.1121 8.3948 21.0991C8.3888 21.2911 8.3778 21.6071 8.3808 21.6251C8.3298 21.6471 8.2668 21.6581 8.1928 21.6581C7.6508 21.6581 6.6928 21.0701 6.6498 21.0701L6.5588 21.2161L6.6958 21.3911L6.3308 21.7961L6.5048 22.3431L6.3328 22.4921L6.2888 22.5301L6.2868 22.5241L6.0758 21.9641L5.9518 21.8901L5.9388 21.8821L5.9408 21.8801L6.2358 21.6091H6.3998C6.4128 21.6091 6.4278 21.6091 6.5848 21.3781L6.4448 21.2411L6.3048 21.3491C6.2818 21.3801 6.2758 21.4081 6.2848 21.4331C6.2848 21.4341 6.2858 21.4361 6.2868 21.4381H6.2358L5.6268 21.9821C5.6298 22.0221 5.6228 22.0821 5.5718 22.1411L4.5168 23.3991C4.4698 23.4291 4.4208 23.4241 4.3848 23.4041L3.8778 22.8581L4.6788 22.1621C4.7688 22.1011 4.8608 22.0891 4.9968 22.0711L5.4278 21.6381L5.5638 21.6321L6.3398 20.9281L6.4308 20.9701L6.5428 20.8701L6.5508 20.8231C6.7728 20.6221 7.1138 20.3161 7.1568 20.2861C7.1618 20.2761 7.1688 20.2641 7.0858 20.1981L6.4448 20.7261L6.3648 20.6931L6.3388 20.6831L6.3128 20.6721L6.3218 20.7561L5.8338 21.1851L5.5558 21.4301L5.5128 21.4681L5.4968 21.4821V21.4591L5.5048 21.1671L5.6378 21.1471L6.9778 20.0451L6.9838 19.9861L7.2268 19.7551L7.3918 19.5981C7.3918 19.6051 7.3978 19.6091 7.3978 19.6151C7.3998 19.7521 7.5008 19.8421 7.6308 19.9111C7.6658 19.8931 7.6948 19.8711 7.7248 19.8491C7.7528 19.8291 7.7798 19.8081 7.8198 19.7541L7.7888 19.7121C7.7808 19.7011 7.7408 19.6661 7.7298 19.6721L7.6648 19.7191L7.6308 19.7711L7.5708 19.7061L7.5098 19.6761L7.6438 19.5141L6.8158 18.6341C6.7698 18.6571 6.7198 18.6681 6.6588 18.6681C6.6268 18.6681 6.5948 18.6651 6.5768 18.6681L6.3838 18.4931L6.2738 18.3931L6.2498 18.3721L6.2158 18.8331L5.1368 20.2161L4.9098 20.5081L4.9058 20.5041L4.2518 19.7601L5.4178 18.1251L5.6168 18.0811C5.6228 18.0811 5.7738 18.1121 5.8998 18.1121C5.9998 18.1121 6.0588 18.0921 6.0808 18.0461C6.1138 17.8231 6.2238 17.7111 6.4078 17.7111C6.4778 17.7111 6.5428 17.7281 6.5748 17.7361L7.0768 18.2561L7.0378 18.4411C7.0378 18.4411 7.8208 19.3101 7.8688 19.3481C7.8988 19.3481 7.9558 19.3001 8.1348 19.1251C8.1508 19.1101 8.1638 19.0971 8.1698 19.0861L8.2178 19.2041L8.2068 19.2731L7.9888 19.4651C7.9808 19.4721 7.9988 19.5101 8.0018 19.5201C8.0108 19.5301 8.0308 19.5531 8.0598 19.5811C8.0708 19.5811 8.0858 19.5811 8.3358 19.3401L8.2668 19.2161L8.3158 19.0451L8.7748 18.5961L9.1228 18.6051L9.5648 18.1911L9.5478 18.0521L9.5328 17.9301C9.5368 17.9381 9.5478 17.9451 9.5538 17.9531C9.6288 18.0521 9.8298 18.1271 9.8538 18.1271C9.8608 18.1271 9.8918 18.1021 9.8968 18.0971C9.9188 18.0741 9.9578 18.0301 10.0128 18.0431C10.0448 18.0871 10.0368 18.1011 10.0248 18.1221C10.0188 18.1331 10.0078 18.1881 10.0178 18.1951L10.1068 18.2381L11.5148 17.2611L10.1788 18.4971C10.1438 18.4971 10.1098 18.4821 10.0638 18.4691L9.2448 19.1841L9.1558 19.2611C9.1558 19.2611 9.1548 19.2601 9.1538 19.2591C9.0888 19.1651 9.0158 19.1091 8.8938 19.0811L8.5408 19.3931C8.5408 19.4621 8.5288 19.4781 8.4878 19.5231L8.2628 19.7921C10.9498 22.8231 11.1748 23.0751 11.1878 23.0821C11.1768 23.2281 11.1518 23.2601 11.0228 23.3301L7.9958 19.9771L7.5408 20.3901L7.5228 20.4061L7.5278 20.4071Z" fill="black"/>
</svg>
