<svg width="41" height="41" viewBox="0 0 41 41" fill="none" xmlns="http://www.w3.org/2000/svg">
<path d="M34.4991 32.5002C36.7081 32.5002 38.4991 30.7092 38.4991 28.5002V15.2012L8.11914 32.5002H34.4991Z" fill="#00973A"/>
<path d="M6.498 8.5H6.493C6.244 8.5 6.003 8.53 5.767 8.574C5.743 8.578 5.718 8.576 5.694 8.581C3.872 8.952 2.5 10.563 2.5 12.495V25.799L32.88 8.5H6.498ZM10.37 18.564L8.957 17.418L8.321 19.1L7.685 17.418L6.273 18.564L6.584 16.797L4.773 17.1L5.948 15.72L4.225 15.099L5.948 14.478L4.773 13.1L6.583 13.403L6.272 11.636L7.684 12.783L8.32 11.101L8.956 12.783L10.369 11.636L10.058 13.403L11.868 13.1L10.694 14.478L12.417 15.099L10.694 15.72L11.868 17.1L10.058 16.797L10.37 18.564Z" fill="#253680"/>
<path d="M34.972 8.547C34.818 8.529 34.667 8.5 34.508 8.5H32.881L2.5 25.799V27.037L34.972 8.547Z" fill="#E3E7EA"/>
<path d="M6.0293 32.4529C6.1843 32.4709 6.3363 32.4999 6.4963 32.4999H8.1213L38.5013 15.2009V13.9629L6.0293 32.4529Z" fill="#E3E7EA"/>
<path d="M37.974 10.5499C37.97 10.5439 37.966 10.5379 37.962 10.5309C37.738 10.1369 37.45 9.78587 37.111 9.49187C37.096 9.47887 37.079 9.46588 37.064 9.45288C36.846 9.26888 36.608 9.10888 36.354 8.97488C36.342 8.96888 36.33 8.96187 36.318 8.95487C35.908 8.74487 35.457 8.60388 34.978 8.54688C34.976 8.54688 34.974 8.54688 34.972 8.54688L2.5 27.0369V28.5049C2.5 28.7369 2.528 28.9609 2.568 29.1809C2.584 29.2689 2.601 29.3569 2.623 29.4419C2.65 29.5489 2.685 29.6519 2.72 29.7559C2.799 29.9849 2.893 30.2079 3.009 30.4179C3.015 30.4279 3.019 30.4399 3.025 30.4509L37.974 10.5499Z" fill="#D3003B"/>
<path d="M38.4304 11.8198C38.4144 11.7328 38.3974 11.6448 38.3764 11.5598C38.3484 11.4518 38.3144 11.3478 38.2784 11.2428C38.1994 11.0148 38.1064 10.7938 37.9904 10.5848C37.9844 10.5738 37.9794 10.5618 37.9734 10.5508L3.02539 30.4498C3.02839 30.4558 3.03339 30.4608 3.03639 30.4678C3.26139 30.8628 3.54939 31.2138 3.88939 31.5088C3.90339 31.5208 3.91839 31.5328 3.93339 31.5448C4.15339 31.7298 4.39239 31.8918 4.64939 32.0258C4.66039 32.0308 4.67039 32.0378 4.68139 32.0428C5.09239 32.2528 5.54439 32.3948 6.02439 32.4518C6.02639 32.4518 6.02739 32.4518 6.02939 32.4518L38.4994 13.9638V12.4958C38.4994 12.2638 38.4714 12.0398 38.4304 11.8198Z" fill="#D3003B"/>
<path d="M10.7783 15.1002C10.7783 14.4382 10.5033 13.8382 10.0583 13.4042C9.61333 12.9702 8.99833 12.7012 8.31933 12.7012C7.64033 12.7012 7.02633 12.9702 6.58133 13.4042C6.13633 13.8382 5.86133 14.4382 5.86133 15.1002C5.86133 15.7622 6.13633 16.3632 6.58133 16.7972C7.02633 17.2312 7.64033 17.5002 8.31933 17.5002C9.67733 17.5002 10.7783 16.4252 10.7783 15.0992V15.1002ZM6.27033 15.1002C6.27033 13.9962 7.18733 13.1002 8.31933 13.1002C9.45133 13.1002 10.3693 13.9962 10.3693 15.1002C10.3693 16.2042 9.45233 17.1012 8.31933 17.1012C7.18633 17.1012 6.27033 16.2052 6.27033 15.1002Z" fill="#253680"/>
<path d="M10.0594 13.4026L10.3704 11.6356L8.95744 12.7826L8.32144 11.1006L7.68544 12.7826L6.27344 11.6356L6.58444 13.4026C7.02944 12.9686 7.64344 12.6996 8.32244 12.6996C9.00144 12.6996 9.61644 12.9686 10.0614 13.4026H10.0594Z" fill="#FBCB00"/>
<path d="M10.6955 15.7206L12.4185 15.0996L10.6955 14.4786L11.8695 13.1006L10.0595 13.4036C10.5045 13.8376 10.7795 14.4376 10.7795 15.0996C10.7795 16.4246 9.67748 17.5006 8.32048 17.5006C7.64148 17.5006 7.02748 17.2316 6.58248 16.7976L6.27148 18.5646L7.68348 17.4186L8.31948 19.1006L8.95548 17.4186L10.3685 18.5646L10.0575 16.7976L11.8675 17.1006L10.6935 15.7206H10.6955Z" fill="#FBCB00"/>
<path d="M5.86261 15.0996C5.86261 14.4366 6.13761 13.8376 6.58261 13.4036L4.77261 13.1006L5.94761 14.4786L4.22461 15.0996L5.94761 15.7206L4.77261 17.1006L6.58361 16.7976C6.13861 16.3636 5.86361 15.7636 5.86361 15.1006L5.86261 15.0996Z" fill="#FBCB00"/>
<path d="M10.3705 15.0996C10.3705 13.9956 9.45348 13.0996 8.32048 13.0996C7.18748 13.0996 6.27148 13.9956 6.27148 15.0996C6.27148 16.2036 7.18848 17.1006 8.32048 17.1006C9.45248 17.1006 10.3705 16.2046 10.3705 15.0996Z" fill="#FBCB00"/>
<path d="M2.35078 32.6407C2.19078 32.6407 2.03878 32.6117 1.88378 32.5938L1.80078 32.6407H3.97478H2.34978H2.35078Z" fill="#E3E7EA"/>
</svg>
