<svg width="41" height="41" viewBox="0 0 41 41" fill="none" xmlns="http://www.w3.org/2000/svg">
<path d="M12.525 29.292C9.798 28.648 7.656 26.831 6.504 24.501H2.5V28.501C2.5 30.71 4.291 32.501 6.5 32.501H34.5C36.709 32.501 38.5 30.71 38.5 28.501V24.501H22.692C20.873 28.189 16.699 30.277 12.525 29.292Z" fill="#009737"/>
<path d="M23.3904 22.578C23.2294 23.259 22.9884 23.899 22.6914 24.501H38.4994V16.501H22.6964C23.5964 18.319 23.8934 20.449 23.3904 22.578Z" fill="#FD292A"/>
<path d="M5.811 18.427C5.972 17.745 6.214 17.104 6.511 16.501H2.5V24.501H6.504C5.605 22.683 5.308 20.554 5.811 18.427Z" fill="#FD292A"/>
<path d="M35.305 8.581C35.281 8.576 35.256 8.578 35.232 8.574C34.996 8.53 34.755 8.501 34.506 8.5H6.49105C6.24205 8.5 6.00105 8.53 5.76505 8.574C5.74105 8.578 5.71605 8.576 5.69205 8.581C3.87005 8.952 2.49805 10.563 2.49805 12.495V16.5H6.51005C8.33005 12.814 12.503 10.727 16.675 11.712C19.401 12.356 21.543 14.172 22.695 16.5H38.498V12.495C38.498 10.563 37.128 8.952 35.305 8.581Z" fill="#11409B"/>
<path d="M11.1801 28.4394C11.3981 28.2224 12.4141 27.2134 12.8891 26.8054C13.3941 26.3724 14.1791 26.2874 14.4751 26.2704V25.9434C14.0191 25.8374 13.6691 25.2784 13.6691 24.5994C13.6691 23.9204 14.0191 23.3624 14.4751 23.2564V22.8164C13.9081 22.8864 13.4661 23.3814 13.3541 23.8014C13.2341 24.2504 12.6041 25.3054 12.6041 25.3054C12.6041 25.3054 12.7691 23.8654 12.7691 23.5644C12.7691 23.2634 12.8891 22.4244 13.3401 22.2434C13.6821 22.1064 14.2311 22.0334 14.4751 22.0064V21.4594C13.9051 21.4114 13.4591 21.1294 13.4591 20.7724C13.4591 20.4154 13.9051 20.1334 14.4751 20.0854V19.6324C14.2311 19.6414 13.6821 19.6424 13.3401 19.5064C12.8891 19.3254 12.7691 18.4864 12.7691 18.1854C12.7691 17.8844 12.6041 17.4054 12.6041 17.4054C12.6041 17.4054 13.0681 17.7054 13.1881 18.1554C13.3021 18.5854 13.6151 19.0364 14.4741 19.0784V18.4904C13.9041 18.4114 13.4581 17.9424 13.4581 17.3504C13.4581 16.7584 13.9041 16.2904 14.4741 16.2114V15.0814C13.8601 15.4804 13.3391 15.6994 13.3391 15.6994C13.3391 15.6994 13.2191 14.8584 13.4591 14.4984C13.6441 14.2214 14.0591 13.9644 14.4741 13.8044V11.8644H14.7581C14.7051 11.8644 14.6531 11.8564 14.6001 11.8564C9.82508 11.8564 5.95508 15.7274 5.95508 20.5014C5.95508 24.0604 8.10708 27.1134 11.1801 28.4394Z" fill="#FDE600"/>
<path d="M14.8403 13.6873C15.3493 13.5673 16.0402 12.8163 16.0402 12.8163C16.0402 12.8163 15.9493 13.9273 15.1093 14.6173C15.0013 14.7063 14.8922 14.7893 14.7832 14.8673V16.2093C15.3532 16.2883 15.8003 16.7563 15.8003 17.3483C15.8003 17.9403 15.3532 18.4093 14.7832 18.4883V19.0743C15.6202 19.0233 15.9272 18.5773 16.0402 18.1533C16.1602 17.7033 16.6242 17.4033 16.6242 17.4033C16.6242 17.4033 16.4593 17.8823 16.4593 18.1833C16.4593 18.4843 16.3402 19.3233 15.8892 19.5043C15.5602 19.6363 15.0402 19.6393 14.7832 19.6313V20.0833C15.3532 20.1303 15.8003 20.4123 15.8003 20.7703C15.8003 21.1283 15.3532 21.4093 14.7832 21.4573V22.0113C15.0512 22.0423 15.5552 22.1133 15.8752 22.2413C16.3242 22.4213 16.4602 23.2623 16.4602 23.5623C16.4602 23.8623 16.6172 25.3033 16.6172 25.3033C16.6172 25.3033 15.9933 24.2283 15.8733 23.7773C15.7653 23.3723 15.3343 22.9163 14.7823 22.8243V23.2543C15.2383 23.3593 15.5883 23.9173 15.5883 24.5973C15.5883 25.2773 15.2383 25.8363 14.7823 25.9413V26.2723C15.1183 26.2983 15.8383 26.4003 16.3083 26.8043C16.7833 27.2123 17.8002 28.2223 18.0172 28.4383C21.0902 27.1133 23.2422 24.0583 23.2422 20.4993C23.2422 15.7873 19.4693 11.9623 14.7812 11.8633V13.7033C14.8002 13.6983 14.8203 13.6893 14.8383 13.6853L14.8403 13.6873Z" fill="#FDE600"/>
<path d="M22.6996 16.5005C21.5396 14.1705 19.3996 12.3605 16.6796 11.7105C12.4996 10.7305 8.32957 12.8105 6.50957 16.5005C6.20957 17.1005 5.96957 17.7405 5.80957 18.4305C5.30957 20.5505 5.60957 22.6805 6.49957 24.5005C7.65957 26.8305 9.79957 28.6505 12.5296 29.2905C16.6996 30.2805 20.8696 28.1905 22.6896 24.5005C22.9896 23.9005 23.2296 23.2605 23.3896 22.5805C23.8896 20.4505 23.5996 18.3205 22.6996 16.5005ZM5.95957 20.5005C5.95957 15.7305 9.82957 11.8505 14.5996 11.8505C14.6496 11.8505 14.7096 11.8605 14.7596 11.8605H14.4796V13.8005C14.0596 13.9605 13.6496 14.2205 13.4596 14.5005C13.2196 14.8605 13.3396 15.7005 13.3396 15.7005C13.3396 15.7005 13.8596 15.4805 14.4796 15.0805V16.2105C13.9096 16.2905 13.4596 16.7605 13.4596 17.3505C13.4596 17.9405 13.9096 18.4105 14.4796 18.4905V19.0805C13.6196 19.0305 13.2996 18.5805 13.1896 18.1505C13.0696 17.7005 12.6096 17.4005 12.6096 17.4005C12.6096 17.4005 12.7696 17.8805 12.7696 18.1805C12.7696 18.4805 12.8896 19.3205 13.3396 19.5005C13.6796 19.6405 14.2296 19.6405 14.4796 19.6305V20.0805C13.9096 20.1305 13.4596 20.4105 13.4596 20.7705C13.4596 21.1305 13.9096 21.4105 14.4796 21.4605V22.0005C14.2296 22.0305 13.6796 22.1005 13.3396 22.2405C12.8896 22.4205 12.7696 23.2605 12.7696 23.5605C12.7696 23.8605 12.6096 25.3005 12.6096 25.3005C12.6096 25.3005 13.2396 24.2505 13.3596 23.8005C13.4696 23.3805 13.9096 22.8805 14.4796 22.8105V23.2505C14.0196 23.3605 13.6696 23.9205 13.6696 24.6005C13.6696 25.2805 14.0196 25.8405 14.4796 25.9405V26.2705C14.1796 26.2905 13.3996 26.3705 12.8896 26.8005C12.4096 27.2105 11.3996 28.2205 11.1796 28.4405C8.10957 27.1105 5.95957 24.0605 5.95957 20.5005ZM18.0196 28.4405C17.7996 28.2205 16.7896 27.2105 16.3096 26.8005C15.8396 26.4005 15.1196 26.3005 14.7896 26.2705V25.9405C15.2396 25.8405 15.5896 25.2805 15.5896 24.6005C15.5896 23.9205 15.2396 23.3605 14.7896 23.2505V22.8205C15.3396 22.9205 15.7696 23.3705 15.8796 23.7805C15.9996 24.2305 16.6196 25.3005 16.6196 25.3005C16.6196 25.3005 16.4596 23.8605 16.4596 23.5605C16.4596 23.2605 16.3296 22.4205 15.8796 22.2405C15.5596 22.1105 15.0496 22.0405 14.7896 22.0105V21.4605C15.3596 21.4105 15.7996 21.1305 15.7996 20.7705C15.7996 20.4105 15.3596 20.1305 14.7896 20.0805V19.6305C15.0396 19.6405 15.5596 19.6405 15.8896 19.5005C16.3396 19.3205 16.4596 18.4805 16.4596 18.1805C16.4596 17.8805 16.6296 17.4005 16.6296 17.4005C16.6296 17.4005 16.1596 17.7005 16.0396 18.1505C15.9296 18.5805 15.6196 19.0205 14.7896 19.0705V18.4905C15.3596 18.4105 15.7996 17.9405 15.7996 17.3505C15.7996 16.7605 15.3596 16.2905 14.7896 16.2105V14.8705C14.8896 14.7905 14.9996 14.7105 15.1096 14.6205C15.9496 13.9305 16.0396 12.8205 16.0396 12.8205C16.0396 12.8205 15.3496 13.5705 14.8396 13.6905C14.8196 13.6905 14.7996 13.7005 14.7896 13.7005V11.8605C17.1296 11.9105 19.2396 12.8905 20.7796 14.4505C22.2996 16.0105 23.2496 18.1405 23.2496 20.5005C23.2496 24.0605 21.0896 27.1105 18.0196 28.4405Z" fill="#161515"/>
</svg>
