<svg width="41" height="41" viewBox="0 0 41 41" fill="none" xmlns="http://www.w3.org/2000/svg">
<path d="M34.5 8.5H6.5C4.29086 8.5 2.5 10.2909 2.5 12.5V28.5C2.5 30.7091 4.29086 32.5 6.5 32.5H34.5C36.7091 32.5 38.5 30.7091 38.5 28.5V12.5C38.5 10.2909 36.7091 8.5 34.5 8.5Z" fill="#E3E7EA"/>
<path d="M2.5 12.495V16.501H38.5V12.495C38.5 10.289 36.713 8.502 34.508 8.5H6.492C4.287 8.502 2.5 10.29 2.5 12.495Z" fill="#E14110"/>
<path d="M20.4995 23.9006C22.3515 23.9006 23.8535 22.3786 23.8535 20.5006C23.8535 18.6226 22.3515 17.1016 20.4995 17.1016C18.6475 17.1016 17.1465 18.6226 17.1465 20.5006C17.1465 22.3786 18.6485 23.9006 20.4995 23.9006Z" fill="#E14110"/>
<path d="M2.5 28.504C2.5 30.711 4.289 32.5 6.495 32.5H34.504C36.711 32.5 38.499 30.711 38.499 28.504V24.5H2.5V28.504Z" fill="#00B335"/>
</svg>
