<svg width="41" height="41" viewBox="0 0 41 41" fill="none" xmlns="http://www.w3.org/2000/svg">
<g clip-path="url(#clip0_74_4419)">
<path d="M21.1861 20.6681C21.1611 20.6571 21.0571 20.6391 20.8761 20.6271L20.8691 20.6211C20.8771 20.6781 20.8871 20.7751 20.8871 20.7751C20.9801 20.7421 21.1601 20.7101 21.1861 20.6681Z" fill="#E3E7EA"/>
<path d="M21.5562 21.0225C21.3602 21.0275 21.0422 21.0895 20.9062 21.1165L20.8672 21.1245V21.3245C20.8882 21.2985 21.3812 21.2525 21.6092 21.0635C21.6402 21.0355 21.6282 21.0225 21.5562 21.0225Z" fill="#E3E7EA"/>
<path d="M21.0588 24.8551C20.9868 24.8551 20.9258 24.8631 20.8828 24.8761L20.9008 24.9881C20.9008 24.9881 20.9108 24.9841 20.9218 24.9841C20.9798 24.9841 21.1418 25.0101 21.2798 25.0101C21.4238 25.0101 21.4688 24.9821 21.4828 24.9651C21.4648 24.9081 21.2718 24.8551 21.0648 24.8551V24.8301L21.0588 24.8551Z" fill="#E3E7EA"/>
<path d="M21.5084 22.0487C21.5084 22.0487 21.4824 22.0367 21.4024 22.0367V22.0127H21.3994L21.3574 22.0377C21.2694 22.0407 21.1614 22.0527 21.0634 22.0627C20.9804 22.0717 20.9054 22.0797 20.8574 22.0807L20.8824 22.1957C20.8824 22.1957 20.8904 22.1957 20.8934 22.1957C21.0264 22.1657 21.4214 22.1337 21.5094 22.0487H21.5084Z" fill="#E3E7EA"/>
<path d="M21.9106 22.2715C21.7626 22.2765 21.2816 22.4005 21.0496 22.4605C20.9166 22.4945 20.8986 22.4995 20.8906 22.4995C20.9076 22.5045 20.9026 22.5855 20.9016 22.6075C20.9086 22.6065 20.9116 22.6055 20.9216 22.6035C21.0246 22.5575 21.7066 22.4125 21.9116 22.2715H21.9106Z" fill="#E3E7EA"/>
<path d="M21.5281 20.1353C21.3671 20.1413 21.0701 20.1833 20.9191 20.2053C20.8751 20.2113 20.8421 20.2163 20.8281 20.2173C20.8511 20.2273 20.8661 20.3573 20.8671 20.3613C20.8751 20.3593 20.8851 20.3573 20.8971 20.3543C21.1251 20.2813 21.4801 20.1903 21.5881 20.1353C21.5791 20.1353 21.5681 20.1353 21.5541 20.1353V20.1133C21.5541 20.1133 21.5521 20.1133 21.5511 20.1133L21.5281 20.1353Z" fill="#E3E7EA"/>
<path d="M16.762 25.9998C16.693 25.9838 16.643 25.9768 16.582 25.9648C16.647 25.9838 16.707 25.9958 16.775 26.0208C16.769 26.0128 16.768 26.0078 16.763 25.9998H16.762Z" fill="#E3E7EA"/>
<path d="M21.6358 20.1319L21.6368 20.1309L21.6328 20.1359L21.6358 20.1319Z" fill="#E3E7EA"/>
<path d="M21.5938 19.6001C21.3518 19.6121 20.8258 19.6911 20.7988 19.6971L20.8218 19.8371C20.8358 19.8341 20.8558 19.8301 20.8838 19.8241C21.1478 19.7471 21.5228 19.6561 21.6538 19.5991H21.6328V19.5771C21.6328 19.5771 21.6308 19.5771 21.6288 19.5771L21.5938 19.6001Z" fill="#E3E7EA"/>
<path d="M21.5176 18.291C21.3386 18.3 21.0706 18.363 20.9096 18.401C20.8656 18.411 20.8306 18.419 20.8086 18.424V18.571C20.8196 18.569 20.8366 18.565 20.8536 18.561C21.0276 18.496 21.4326 18.388 21.5176 18.291Z" fill="#E3E7EA"/>
<path d="M21.4569 24.2144C21.3949 24.2174 21.3039 24.2394 21.2079 24.2614C21.0919 24.2884 20.9729 24.3164 20.8809 24.3194L20.8959 24.4404C20.8959 24.4404 20.9049 24.4384 20.9129 24.4384C20.9439 24.4384 21.0099 24.4474 21.0849 24.4474C21.2169 24.4474 21.3949 24.4194 21.4869 24.2874C21.5219 24.2384 21.5149 24.2244 21.5149 24.2244L21.4789 24.1954C21.4789 24.1954 21.4739 24.1934 21.4689 24.1934L21.4569 24.2144Z" fill="#E3E7EA"/>
<path d="M21.8648 19.0601C21.6958 19.0671 21.3148 19.1421 21.0628 19.1911C20.9258 19.2181 20.8218 19.2381 20.8008 19.2381C20.8058 19.2941 20.8038 19.3351 20.8048 19.3551C20.9098 19.3371 21.7858 19.1781 21.9228 19.0521L21.8958 19.0381C21.8958 19.0381 21.8888 19.0361 21.8838 19.0361L21.8648 19.0601Z" fill="#E3E7EA"/>
<path d="M22.2227 21.232C22.0137 21.24 21.5647 21.349 20.8887 21.557C20.9017 21.566 20.9117 21.814 20.9117 21.834C20.9327 21.827 20.9757 21.813 21.0417 21.792C21.5437 21.602 22.2357 21.365 22.2887 21.314C22.3267 21.277 22.3317 21.258 22.3317 21.253C22.3297 21.249 22.3177 21.232 22.2407 21.232V21.209H22.2387L22.2207 21.233L22.2227 21.232Z" fill="#E3E7EA"/>
<path d="M20.7832 18.5774H20.7842L20.7832 18.5684V18.5774Z" fill="#E3E7EA"/>
<path d="M16.5782 24.8887H16.5792V24.8877H16.5742L16.5762 24.8887H16.5782Z" fill="#E3E7EA"/>
<path d="M21.2774 23.7498C21.2754 23.7258 21.2614 23.7188 21.2254 23.7188C21.1304 23.7228 21.0244 23.7467 20.9544 23.7617C20.9304 23.7667 20.9134 23.7708 20.9004 23.7728V23.8417C20.9144 23.8347 20.9604 23.8398 21.0144 23.8398C21.0944 23.8398 21.2354 23.8288 21.2774 23.7498Z" fill="#E3E7EA"/>
<path d="M22.2864 23.1656C22.2344 23.1676 22.1624 23.1976 22.1074 23.2246H22.1134C22.1284 23.2246 22.1454 23.2246 22.1624 23.2246C22.2964 23.2246 22.3294 23.1946 22.3374 23.1826V23.1516L22.2904 23.1656V23.1416L22.2854 23.1656H22.2864Z" fill="#E3E7EA"/>
<path d="M22.3801 22.4479C22.0031 22.4509 21.2751 22.6779 20.8801 22.9169C20.8861 22.9229 20.8741 23.0119 20.8751 23.0339C20.8961 23.0279 20.9371 23.0159 20.9981 22.9989C21.6461 22.7899 22.1041 22.6849 22.2801 22.6849C22.5051 22.6289 22.5681 22.4979 22.5721 22.4679C22.5461 22.4609 22.4791 22.4469 22.3891 22.4469V22.4229L22.3811 22.4469L22.3801 22.4479Z" fill="#E3E7EA"/>
<path d="M20.8867 21.842H20.8887L20.8867 21.834V21.842Z" fill="#E3E7EA"/>
<path d="M23.8223 22.0714L23.8203 22.0684L23.8213 22.0714H23.8223Z" fill="#E3E7EA"/>
<path d="M21.6457 17.2066C21.6457 17.2066 21.6257 17.1836 21.4657 17.1836H21.4157C21.1167 17.1896 20.6817 17.2476 20.6777 17.2486L20.7137 17.4836C20.7217 17.4826 20.7277 17.4816 20.7407 17.4796C20.9647 17.4216 21.5517 17.3166 21.6447 17.2066H21.6457Z" fill="#E3E7EA"/>
<path d="M22.7734 23.3707V23.3747H22.7754H22.7784C22.7784 23.3747 22.7864 23.3747 22.7884 23.3747C22.7994 23.3547 22.8184 23.3327 22.8484 23.3047C22.8104 23.3327 22.7804 23.3557 22.7744 23.3657V23.3687L22.7734 23.3707Z" fill="#E3E7EA"/>
<path d="M24.0057 20.6886C23.9947 20.6546 23.9827 20.6236 23.9707 20.5996C23.9807 20.6306 23.9947 20.6536 23.9977 20.6966C23.9977 20.6966 24.0037 20.6906 24.0057 20.6886Z" fill="#E3E7EA"/>
<path d="M22.0433 16.2316L22.0293 16.2266L22.0423 16.2326L22.0433 16.2316Z" fill="#E3E7EA"/>
<path d="M22.6107 18.5195L22.6857 18.4785C22.6567 18.4895 22.6267 18.5005 22.5977 18.5115C22.5977 18.5115 22.6087 18.5175 22.6107 18.5185V18.5195Z" fill="#E3E7EA"/>
<path d="M20.6339 12.8876L20.6289 12.8496V12.8896L20.6339 12.8876Z" fill="#E3E7EA"/>
<path d="M18.1758 16.4758C18.1818 16.4728 18.2118 16.4768 18.2408 16.4808C18.2068 16.4718 18.1958 16.4688 18.1828 16.4658C18.1808 16.4688 18.1778 16.4738 18.1758 16.4758Z" fill="#E3E7EA"/>
<path d="M17.6797 22.1084L17.6887 22.1204L17.6867 22.1104L17.6797 22.1084Z" fill="#E3E7EA"/>
<path d="M20 12.8213C20.009 12.8243 20.024 12.8363 20.036 12.8423C20.024 12.8313 20.022 12.8293 20.013 12.8213C20.01 12.8213 20.003 12.8213 20 12.8213Z" fill="#E3E7EA"/>
<path d="M19.9004 13.2959C19.9114 13.2969 19.9354 13.3119 19.9544 13.3219C19.9344 13.3059 19.9304 13.3029 19.9194 13.2939C19.9144 13.2939 19.9044 13.2959 19.9004 13.2959Z" fill="#E3E7EA"/>
<path d="M17.7521 22.3928C17.7421 22.3928 17.7241 22.3878 17.7051 22.3828C17.7351 22.3958 17.7551 22.4048 17.7551 22.4048L17.7521 22.3928Z" fill="#E3E7EA"/>
<path d="M18.5924 21.1849C18.5834 21.1799 18.5754 21.1749 18.5664 21.1699C18.5754 21.1759 18.5834 21.1809 18.5924 21.1869V21.1849Z" fill="#E3E7EA"/>
<path d="M19.4175 21.3566C19.3805 21.3406 19.3475 21.3246 19.3125 21.3086C19.3475 21.3286 19.3815 21.3446 19.4165 21.3656L19.4175 21.3566Z" fill="#E3E7EA"/>
<path d="M20.289 13.9282C20.28 13.9242 20.264 13.9152 20.25 13.9072C20.271 13.9242 20.284 13.9352 20.288 13.9382C20.288 13.9382 20.288 13.9302 20.289 13.9282Z" fill="#E3E7EA"/>
<path d="M18.3695 22.4602C18.3695 22.4602 18.3585 22.4532 18.3535 22.4512C18.3565 22.4532 18.3665 22.4632 18.3675 22.4642C18.3675 22.4632 18.3685 22.4622 18.3695 22.4602Z" fill="#E3E7EA"/>
<path d="M16.9071 23.4465L16.8691 23.4395C16.8811 23.4445 16.8961 23.4505 16.9061 23.4555C16.9061 23.4515 16.9071 23.4505 16.9061 23.4465H16.9071Z" fill="#E3E7EA"/>
<path d="M17.6389 21.0147L17.6289 21.0107L17.6379 21.0197L17.6389 21.0147Z" fill="#E3E7EA"/>
<path d="M17.6102 19.4979C17.5832 19.4849 17.5592 19.4759 17.5332 19.4639C17.5602 19.4819 17.5882 19.4939 17.6132 19.5159C17.6132 19.5159 17.6112 19.5029 17.6102 19.4979Z" fill="#E3E7EA"/>
<path d="M20.3069 14.4395L20.2969 14.4425C20.2969 14.4425 20.3069 14.4425 20.3119 14.4425L20.3069 14.4395Z" fill="#E3E7EA"/>
<path d="M20.1089 15.0791C20.1019 15.0831 20.0949 15.0861 20.0879 15.0891C20.0979 15.0871 20.1139 15.0881 20.1239 15.0851C20.1199 15.0821 20.1139 15.0811 20.1099 15.0781L20.1089 15.0791Z" fill="#E3E7EA"/>
<path d="M18.129 17.0557C18.129 17.0607 18.128 17.0647 18.127 17.0697C18.13 17.0647 18.128 17.0607 18.132 17.0557H18.129Z" fill="#E3E7EA"/>
<path d="M17.5547 19.2305C17.5547 19.2305 17.5597 19.2405 17.5617 19.2435C17.5617 19.2395 17.5607 19.2365 17.5597 19.2335L17.5547 19.2315V19.2305Z" fill="#E3E7EA"/>
<path d="M19.3594 23.1414C19.3654 23.1994 19.8114 23.4494 20.0424 23.4494C20.0744 23.4494 20.1164 23.4434 20.1324 23.4174C20.0924 23.3864 19.9184 23.1894 19.4074 23.1334L19.4024 23.1074V23.1334C19.3684 23.1344 19.3594 23.1414 19.3594 23.1414Z" fill="#E3E7EA"/>
<path d="M20.2631 19.0216H20.2651C20.2651 19.0216 20.2521 19.0166 20.2461 19.0156C20.2491 19.0156 20.2631 19.0216 20.2631 19.0216Z" fill="#E3E7EA"/>
<path d="M20.2735 15.2593L20.2775 15.2643V15.2393L20.2765 15.2403L20.2745 15.2413H20.2735L20.2695 15.2423L20.2735 15.2593Z" fill="#E3E7EA"/>
<path d="M18.7067 18.315V18.293C18.7067 18.293 18.7047 18.293 18.7037 18.293L18.6807 18.316C18.6227 18.319 18.5837 18.334 18.5667 18.357C18.5427 18.383 20.1047 18.939 20.2607 18.994C20.2407 18.976 20.2367 18.899 20.2357 18.863C19.2997 18.41 18.8867 18.315 18.7067 18.315Z" fill="#E3E7EA"/>
<path d="M18.9175 18.0978C18.9645 18.1438 19.7075 18.3848 20.1875 18.5338L20.1835 18.3788C19.4415 18.0768 19.1255 18.0078 18.9945 18.0078C18.9365 18.0108 18.9105 18.0208 18.9035 18.0358C18.8945 18.0528 18.9065 18.0798 18.9185 18.0978H18.9175Z" fill="#E3E7EA"/>
<path d="M20.2774 15.2806V15.2656L20.2754 15.2666L20.2774 15.2806Z" fill="#E3E7EA"/>
<path d="M20.1852 16.633H20.1873V16.63C20.1793 16.63 20.1683 16.627 20.1562 16.625C20.1662 16.628 20.1842 16.634 20.1842 16.634L20.1852 16.633Z" fill="#E3E7EA"/>
<path d="M20.2593 15.2695C20.2493 15.2695 20.2373 15.2715 20.2223 15.2735C20.1573 15.2805 20.0483 15.2915 19.9883 15.3335C20.0113 15.3525 20.1723 15.3715 20.2783 15.3775V15.3705L20.2583 15.2695H20.2593Z" fill="#E3E7EA"/>
<path d="M20.1889 16.6072C20.1889 16.6072 20.1889 16.6042 20.1889 16.6032C20.1659 16.5842 20.1599 16.4982 20.1579 16.4622C19.5599 16.2772 19.2469 16.2402 19.0929 16.2402C18.9519 16.2472 18.9259 16.2692 18.9219 16.2732L18.9409 16.2762C19.0649 16.2762 20.0939 16.5782 20.1889 16.6072Z" fill="#E3E7EA"/>
<path d="M19.6361 16.7301C19.6041 16.7301 19.5861 16.7371 19.5801 16.7411C19.6091 16.7931 20.1671 16.9861 20.2651 17.0131C20.2601 16.9971 20.2531 16.8861 20.2501 16.8431C20.2561 16.8241 20.2031 16.8141 20.1331 16.8001C19.9901 16.7721 19.7751 16.7301 19.6531 16.7301V16.7061L19.6371 16.7301H19.6361Z" fill="#E3E7EA"/>
<path d="M20.2157 20.0619H20.2177V20.0589V20.0569C20.2067 20.0539 20.1957 20.0519 20.1777 20.0459C20.1937 20.0529 20.2137 20.0609 20.2157 20.0619Z" fill="#E3E7EA"/>
<path d="M19.7395 24.7311C19.6425 24.7361 19.5685 24.7641 19.5215 24.8141C19.5565 24.9681 20.0395 25.0611 20.1195 25.0191C20.1785 24.9751 20.1355 24.8481 20.1045 24.7851C20.0965 24.7871 19.9335 24.7301 19.7685 24.7301V24.7061H19.7665L19.7395 24.7301V24.7311Z" fill="#E3E7EA"/>
<path d="M21.2253 15.5472C21.2253 15.5472 21.2253 15.5442 21.2273 15.5432V15.5362C21.2273 15.5362 21.2273 15.5362 21.2273 15.5342C21.2203 15.5442 21.2083 15.5532 21.1973 15.5632C21.2043 15.5572 21.2233 15.5532 21.2253 15.5472Z" fill="#E3E7EA"/>
<path d="M18.6122 20.1777C18.5212 20.1817 18.5002 20.1967 18.4922 20.2057C18.5192 20.2107 19.9402 20.6747 20.1972 20.7587L20.1692 20.5967C19.2032 20.2537 18.7882 20.1777 18.6122 20.1777Z" fill="#E3E7EA"/>
<path d="M20.6887 15.6814C20.6887 15.6814 20.6997 15.6804 20.7067 15.6794C20.9207 15.6314 21.1837 15.5804 21.2027 15.5374C21.1747 15.5064 20.8617 15.4864 20.6797 15.4844L20.6887 15.6814Z" fill="#E3E7EA"/>
<path d="M19.1732 24.1157C19.1422 24.1177 19.1092 24.1278 19.0762 24.1458C19.1052 24.1898 19.3612 24.3328 19.4492 24.3328C19.5522 24.3938 19.9462 24.4237 20.0942 24.4237L20.1042 24.2528C20.0892 24.2658 19.8382 24.2248 19.6342 24.2248C19.5742 24.2248 19.5182 24.2288 19.4722 24.2378L19.4042 24.2048C19.3292 24.1598 19.2582 24.1168 19.1812 24.1168V24.0938L19.1722 24.1168L19.1732 24.1157Z" fill="#E3E7EA"/>
<path d="M18.1933 25.0727C18.1763 25.0427 18.1813 24.9167 18.1813 24.9097C18.0553 24.8617 17.9413 24.8287 17.8463 24.8287V24.8057H17.8443L17.8253 24.8297C17.8093 24.8307 17.7933 24.8347 17.7773 24.8377C17.7933 24.8617 17.8143 24.8827 17.8363 24.9037C17.9583 24.9947 18.1413 25.0577 18.1923 25.0737L18.1933 25.0727Z" fill="#E3E7EA"/>
<path d="M20.1973 19.8811C20.1873 19.8871 20.1593 19.8741 20.1213 19.8581C19.8903 19.7581 19.2783 19.4941 19.0353 19.4941C18.9883 19.4961 18.9663 19.5041 18.9593 19.5171C18.9523 19.5271 18.9553 19.5441 18.9593 19.5591C19.1093 19.5701 20.0313 19.9561 20.1993 20.0281C20.1923 20.0151 20.1933 19.9941 20.1943 19.9711C20.1943 19.9251 20.1963 19.8961 20.1973 19.8791V19.8811Z" fill="#E3E7EA"/>
<path d="M19.0645 24.123V24.124L19.0655 24.123H19.0645Z" fill="#E3E7EA"/>
<path d="M20.6523 15.8135C20.6563 15.8575 20.6613 15.9005 20.6653 15.9105C20.6763 15.8975 20.8443 15.8795 20.8773 15.8385C20.8603 15.8345 20.7353 15.8225 20.6893 15.8175C20.6763 15.8175 20.6633 15.8155 20.6533 15.8145L20.6523 15.8135Z" fill="#E3E7EA"/>
<path d="M12.5605 8.5V32.5H28.4405V8.5H12.5605ZM22.6005 24.81C22.7505 24.82 22.9605 24.83 23.1605 24.83C23.5905 24.84 24.0005 24.85 24.0605 25.01C24.2005 24.86 24.5805 24.89 24.8105 25.03C24.8505 24.98 25.0605 24.95 25.2205 24.95C25.3505 24.95 25.5705 24.97 25.6105 25.08C25.6405 25.13 25.6105 25.19 25.5505 25.25C25.5205 25.27 25.4505 25.29 25.1305 25.29C24.8705 25.29 24.5205 25.28 24.1705 25.27C23.8205 25.26 23.4705 25.25 23.2205 25.25C22.9805 25.25 22.9005 25.26 22.8605 25.27C23.0105 25.27 23.9205 25.38 24.1405 25.55C24.2405 25.41 24.6205 25.46 24.8205 25.52C24.8705 25.53 24.9205 25.54 24.9405 25.54C24.9605 25.54 25.0105 25.52 25.0605 25.5C25.1605 25.45 25.2905 25.4 25.4105 25.4C25.5305 25.4 25.6205 25.45 25.6605 25.57C25.5105 25.78 25.2005 25.87 24.7405 25.87C24.1305 25.87 23.4005 25.72 23.0105 25.63C22.8805 25.6 22.7805 25.58 22.7505 25.58C22.7105 25.6 22.7005 25.65 22.6905 25.69C22.6805 25.76 22.6605 25.84 22.5805 25.87H22.5005C22.3005 25.87 22.2805 25.95 22.2505 26.03C22.2405 26.06 22.2305 26.09 22.2105 26.1C22.2105 26.11 22.1605 26.12 22.1605 26.12C21.9905 26.12 21.3805 25.94 21.3505 25.93C21.2805 25.93 21.1405 25.95 20.9905 26.2C20.8005 26.52 21.1605 28.99 21.1605 29.01C21.1605 29.02 21.1605 29.03 21.1505 29.04H21.1305L19.9905 29.03L19.9705 26.14L19.9105 26.17C19.9105 26.17 19.6105 26.3 19.5905 26.31L19.5505 26.27C19.5205 26.13 19.4405 26 19.2305 26.19C19.1505 26.26 19.0605 26.3 18.9705 26.3C18.7605 26.3 18.6305 26.07 18.6205 26.05C18.6105 26.07 17.7405 26.45 16.3805 26.41C15.8505 26.32 15.5405 26.18 15.5505 26.02C15.5605 25.91 15.7405 25.84 16.0005 25.84C16.1605 25.84 16.4205 25.87 16.7605 25.99C16.7305 25.95 16.7105 25.92 16.7005 25.89C16.6405 25.81 16.6105 25.74 16.6405 25.68C16.7105 25.55 17.0605 25.59 17.5805 25.7C17.7305 25.5 17.9205 25.39 18.1305 25.39C18.3405 25.39 18.5105 25.5 18.6405 25.57C18.7105 25.61 18.7605 25.65 18.7905 25.65C18.8205 25.59 18.8105 25.56 18.7905 25.53C18.7205 25.42 18.4605 25.34 17.9605 25.28C17.7505 25.26 17.5205 25.32 17.2705 25.39C16.9905 25.46 16.6605 25.51 16.3105 25.5H16.2605C16.0205 25.48 15.7605 25.44 15.5105 25.33C15.1305 25.16 14.9505 24.99 14.9805 24.83C15.0305 24.6 15.4705 24.48 15.6405 24.48C15.8405 24.5 16.2505 24.7 16.4605 24.81C16.5205 24.84 16.5605 24.86 16.5805 24.86V24.85C16.5505 24.82 16.4905 24.65 16.4705 24.63L16.5105 24.59L16.5805 24.6L16.5605 24.59C16.5605 24.57 16.5105 24.49 15.9305 24.17C15.5705 23.98 15.5305 23.91 15.5405 23.86C15.5505 23.82 15.6205 23.81 15.6705 23.81C15.8205 23.81 16.0905 23.87 16.2005 23.9L16.2205 23.91C16.2205 23.89 16.2205 23.87 16.2305 23.85C16.2505 23.81 16.2905 23.77 16.3905 23.77C16.5605 23.77 16.8305 23.88 17.1905 24.11C17.1905 24.1 17.2005 24.08 17.2105 24.07C17.2905 23.96 17.6005 23.9 17.8005 23.88C17.3505 23.78 16.1305 23.51 16.0505 23.29C16.0305 23.25 16.0305 23.22 16.0505 23.19C16.1205 23.09 16.5005 23.25 16.7805 23.37L16.9105 23.43V23.42C16.8805 23.4 16.8805 23.36 16.9005 23.34C16.9905 23.23 17.3505 23.43 17.5005 23.52C17.5105 23.52 17.5205 23.53 17.5305 23.53C17.5205 23.52 17.5205 23.51 17.5105 23.5C17.4605 23.42 17.5405 23.29 17.5505 23.29C17.5705 23.3 18.2805 23.5 18.5805 23.5C18.6705 23.5 18.6905 23.48 18.6905 23.48C18.6505 23.28 17.3605 23.09 16.5605 23.02C16.5405 23.01 16.4105 22.89 16.4005 22.69C16.4005 22.69 16.4105 22.65 16.4205 22.64C16.4705 22.58 16.7005 22.63 16.9605 22.69C17.2005 22.75 17.4505 22.78 17.4605 22.75C17.5005 22.67 17.7205 22.71 17.9305 22.76C18.0205 22.79 18.1205 22.81 18.1605 22.81C18.0805 22.69 17.6305 22.61 17.2305 22.54C16.6605 22.45 16.3105 22.38 16.3005 22.28C16.2905 22.22 16.3605 22.19 16.3805 22.18C16.4705 22.13 16.5905 22.11 16.7205 22.11C17.1605 22.11 17.6705 22.34 17.7505 22.37C17.7405 22.37 17.7405 22.36 17.7405 22.35C17.7005 22.28 17.6605 22.12 17.6605 22.09H17.6805V22.08C17.7305 22.09 17.7705 22.11 17.8105 22.12C18.1205 22.2 18.3505 22.41 18.3805 22.44C18.3905 22.41 18.3905 22.39 18.4005 22.36L18.4405 22.18C18.7905 22.26 19.1305 22.41 19.4305 22.54C19.7205 22.67 19.9705 22.78 20.0705 22.78L20.1105 22.73C20.0505 22.45 18.7305 22.16 17.7605 21.94C16.9005 21.75 16.5705 21.67 16.5505 21.59C16.5505 21.58 16.5705 21.54 16.5705 21.54C16.6605 21.47 16.8105 21.44 17.0405 21.44C17.3405 21.44 17.6605 21.5 17.6705 21.5L18.3705 21.76C18.3705 21.76 18.4105 21.74 18.4205 21.7C18.4305 21.67 18.4305 21.6 18.2905 21.44C18.1605 21.3 17.6505 21.26 17.2405 21.23C16.8305 21.2 16.6105 21.18 16.5905 21.1C16.5705 21.05 16.6305 21.01 16.6405 21C16.8405 20.87 17.0305 20.81 17.2005 20.81C17.4705 20.81 17.6105 20.95 17.6405 20.99C17.6472 20.9833 17.6505 20.9767 17.6505 20.97L17.6405 20.92L17.6605 20.82C18.0905 20.82 18.3405 20.97 18.5905 21.15C18.5805 21.14 18.5805 21.12 18.5905 21.1C18.5905 21.07 18.6005 21.04 18.6105 21.01C18.9405 21.06 19.1905 21.2 19.4205 21.34V21.33C19.4005 21.29 19.4105 21.15 19.4305 21.1C19.4405 21.1 19.4505 21.11 19.4605 21.11H19.4705C19.5405 21.11 19.6105 21.15 19.7405 21.23C19.9005 21.34 20.1305 21.48 20.1905 21.48C20.1905 21.47 20.1805 21.44 20.1005 21.33C19.8005 20.93 18.6905 20.81 17.9505 20.73C17.7605 20.71 17.6005 20.69 17.4805 20.68C17.2305 20.64 17.0505 20.53 17.0605 20.42C17.0705 20.29 17.2905 20.24 17.6005 20.29C17.4705 20.23 17.3605 20.2 17.2705 20.16C17.1105 20.11 17.0105 20.08 16.9805 20C16.9605 19.95 16.9705 19.88 17.0105 19.79C16.7005 19.69 16.7205 19.46 16.7205 19.45C17.0105 19.21 17.3205 19.25 17.6105 19.48C17.6105 19.47 17.6005 19.46 17.6005 19.45C17.5605 19.37 17.5305 19.23 17.5305 19.2C17.5405 19.2 17.5505 19.21 17.5605 19.21V19.2C17.5605 19.21 17.5705 19.21 17.5805 19.21C17.6405 19.22 17.7405 19.25 17.8905 19.33C17.9105 19.34 17.9305 19.35 17.9505 19.36C17.8405 19.26 17.8605 19.19 17.9105 19.06L17.9305 19.02H17.9005C17.7305 19.02 17.1305 18.92 17.0605 18.76C17.0505 18.73 17.0505 18.7 17.0805 18.66C17.2505 18.56 17.4205 18.51 17.5805 18.51C17.8905 18.51 18.1205 18.68 18.2705 18.79C18.3405 18.84 18.4005 18.88 18.4305 18.88C18.4505 18.87 18.4605 18.86 18.4705 18.85C18.4805 18.8 18.4405 18.72 18.4205 18.69C18.4105 18.69 18.4105 18.67 18.4205 18.66C18.4305 18.65 18.4405 18.65 18.4505 18.66C18.4705 18.66 19.9905 19.38 20.2305 19.38C20.2305 19.38 20.2105 19.35 20.1505 19.3C19.7705 18.97 18.7205 18.67 18.0205 18.46C17.4305 18.29 17.3505 18.26 17.3505 18.21C17.3705 18.15 17.4605 18.12 17.6205 18.08C17.7105 18.05 17.8405 18.02 17.8605 17.98C17.8505 17.93 17.7005 17.87 17.6105 17.84C17.5205 17.8 17.4605 17.78 17.4405 17.75C17.4405 17.75 17.4305 17.71 17.4305 17.7C17.4805 17.63 17.9905 17.49 18.3305 17.49C18.4605 17.49 18.5605 17.51 18.6305 17.55C18.8905 17.68 19.8005 18.05 20.0505 18.05L20.0905 18.01C19.9505 17.79 18.7905 17.49 18.1905 17.37C18.1605 17.35 18.0905 17.3 18.0705 17.21C18.0605 17.16 18.0705 17.11 18.1105 17.05H17.9905C17.7005 17.05 17.6305 17 17.6305 16.95C17.6105 16.82 17.9605 16.68 18.0605 16.64C18.1005 16.64 19.8105 17.28 20.1505 17.28C19.8005 16.89 18.1705 16.49 18.1505 16.48C18.1505 16.4733 18.1539 16.4667 18.1605 16.46V16.45C18.1905 16.38 18.2105 16.33 18.2105 16.32L18.1605 16.35C18.0405 16.35 17.9405 16.16 17.9305 16.14C17.9505 16.1 18.1405 15.91 18.3205 15.83C18.3605 15.81 18.4305 15.8 18.5405 15.8C18.9305 15.8 19.6805 15.91 19.6905 15.91C19.7005 15.91 20.0905 16.04 20.2505 16.04C20.2805 16.04 20.2805 16.02 20.2305 15.98C20.1005 15.85 19.6005 15.82 19.1905 15.79C18.7605 15.76 18.6005 15.75 18.5905 15.68C18.5805 15.64 18.6305 15.61 18.6705 15.59C18.9205 15.47 19.5205 15.54 19.9005 15.6C20.0405 15.63 20.1605 15.65 20.2205 15.65C20.2005 15.56 19.4005 15.4 19.0005 15.4H18.9305C18.5205 15.4 18.3005 15.05 18.3005 15.05C18.3005 14.98 18.3905 14.97 18.4805 14.97C18.6205 14.97 18.8405 14.99 19.0805 15.02C19.4505 15.06 19.8805 15.09 20.0805 15.06C20.0605 15.05 20.0405 15.04 20.0105 15.03C19.8005 14.97 19.4705 14.95 19.2405 14.93C19.0805 14.92 19.0005 14.91 18.9705 14.89C18.9405 14.79 19.0005 14.71 19.2505 14.71C19.5305 14.71 19.9405 14.81 20.1705 14.92C20.2305 14.91 20.2805 14.89 20.2905 14.86C20.3105 14.82 20.2905 14.77 20.2305 14.71C20.0705 14.66 19.8005 14.64 19.5505 14.63C19.2405 14.62 19.0605 14.6 19.0305 14.54C19.0205 14.53 19.0305 14.48 19.0305 14.48C19.0705 14.41 19.1705 14.39 19.3605 14.39C19.4905 14.39 19.6405 14.4 19.7905 14.4C19.9405 14.41 20.0905 14.42 20.2205 14.42H20.2805C20.2705 14.41 20.2605 14.4 20.2405 14.39C20.1005 14.34 19.7305 14.26 19.4705 14.2C19.1305 14.13 19.0505 14.1 19.0305 14.07C19.0405 13.96 19.1905 13.96 19.2405 13.96C19.4005 13.96 19.6405 14.01 19.8305 14.04C19.9705 14.07 20.0905 14.1 20.1505 14.1C19.9405 13.92 19.6405 13.81 19.4405 13.73C19.2805 13.67 19.2105 13.64 19.2005 13.6C19.2105 13.55 19.2305 13.54 19.2505 13.52C19.6205 13.38 20.2205 13.85 20.2905 13.91C20.2905 13.9 20.2905 13.89 20.3005 13.87C20.2805 13.83 20.2705 13.77 20.2605 13.7C20.2405 13.59 19.9805 13.37 19.8705 13.29C19.8805 13.29 19.8905 13.29 19.9005 13.28L19.8905 13.27H19.9605C20.0905 13.23 20.2405 13.2 20.2805 13.17C20.2705 13.1 20.0805 12.91 19.9605 12.81C19.9705 12.8 19.9805 12.8 19.9905 12.8L19.9805 12.79H19.9905C20.0205 12.78 20.0505 12.77 20.1005 12.77C20.1905 12.77 20.2505 12.76 20.2705 12.74C20.2405 12.55 19.9805 12.4 19.9805 12.4L20.0105 12.39C20.0105 12.38 19.9905 12.38 19.9905 12.38C20.0205 12.37 20.0405 12.37 20.0705 12.36L20.1805 12.32L20.3805 12.29L20.4605 11.14C20.4605 11.13 20.4705 11.12 20.4905 11.12C20.5005 11.12 20.5105 11.13 20.5105 11.14L20.6305 12.4C20.6305 12.38 20.8305 12.39 20.8905 12.46C20.8905 12.46 20.9005 12.52 20.9005 12.53C20.8805 12.65 20.6605 12.67 20.6305 12.68L20.6505 12.88C20.6705 12.85 20.8305 12.8 20.9105 12.8L20.9605 12.81L20.9905 12.85C20.9705 12.94 20.7605 13.1 20.7105 13.14C20.7205 13.23 20.7105 13.36 20.7205 13.38C20.7405 13.37 20.9505 13.44 20.9905 13.47C20.9905 13.48 20.9805 13.49 20.9805 13.5L20.9705 13.51C20.9205 13.58 20.7605 13.66 20.6605 13.7C20.6605 13.72 20.6405 13.83 20.6805 13.88C20.7305 13.93 20.8105 13.89 20.9805 13.84C21.2505 13.76 21.6105 13.67 21.7105 13.79C21.7405 13.82 21.7605 13.87 21.7505 13.93C21.7205 13.96 21.6605 13.97 21.5705 13.98C21.0005 14.04 20.7005 14.11 20.6905 14.16C20.7405 14.16 20.8205 14.16 20.9005 14.15C21.0705 14.14 21.2805 14.12 21.4505 14.12C21.6805 14.12 21.7905 14.15 21.8005 14.22C21.7905 14.24 21.7605 14.24 21.7405 14.25C21.7305 14.26 21.7205 14.27 21.6905 14.27C21.6005 14.31 21.4505 14.34 21.2305 14.35C21.0005 14.37 20.6705 14.39 20.6505 14.44C20.6705 14.44 20.9805 14.46 21.1205 14.43C21.2305 14.4 21.4305 14.35 21.6005 14.35C21.7605 14.35 21.8605 14.4 21.8805 14.5C21.8905 14.54 21.8805 14.57 21.8605 14.6C21.7805 14.7 21.4705 14.7 21.1805 14.71C21.0405 14.71 20.9105 14.71 20.8105 14.72C20.7505 14.75 20.7205 14.81 20.7205 14.85C20.7305 14.89 20.7905 14.93 20.8805 14.94C21.6205 14.78 21.9705 14.75 22.0205 14.86C22.0405 14.9 22.0305 14.94 21.9905 14.98C21.9405 15.01 21.8305 15.03 21.6305 15.06C21.3105 15.11 20.7705 15.19 20.7005 15.33H20.7705C20.8705 15.3 20.9605 15.29 21.0705 15.27C21.3805 15.23 21.7805 15.2 22.0705 15.25C22.1005 15.38 22.1005 15.5 22.1005 15.62V15.97C21.9705 16 21.8505 16.01 21.7405 16.01L21.2105 16C21.1005 16 21.0005 16 20.8905 16.01C20.8205 16.04 20.7705 16.07 20.7705 16.11C20.7705 16.15 20.8205 16.19 20.8905 16.22C21.0105 16.22 21.1705 16.2 21.3305 16.17C21.6905 16.12 22.0205 16.1 22.0905 16.23C22.0505 16.32 21.8605 16.35 21.5605 16.4C21.3705 16.43 21.0505 16.48 21.0405 16.52C21.1105 16.51 21.1905 16.49 21.2905 16.47C21.4805 16.42 21.7105 16.36 22.1305 16.42C22.3105 16.45 22.3905 16.49 22.4005 16.55C22.4105 16.66 22.1005 16.77 22.0005 16.79C21.9805 16.79 21.2505 16.63 20.9105 16.75C20.7705 16.79 20.7505 16.84 20.7505 16.86C20.7405 16.92 20.8805 16.98 20.9405 17.01C20.9405 17 21.3705 16.76 22.0805 16.83C22.5705 16.88 22.8405 17.16 22.8905 17.33C22.9105 17.38 22.9105 17.42 22.8805 17.44L22.8105 17.43L22.8005 17.45C22.7905 17.45 22.7605 17.44 22.7005 17.44C22.3305 17.44 21.2605 17.66 20.9105 17.75C20.7705 17.78 20.7605 17.81 20.7605 17.82C20.7805 17.87 20.9105 17.91 20.9305 17.91C20.9505 17.91 21.9005 17.76 22.3905 17.69C22.3905 17.69 22.4805 17.68 23.2105 17.58C23.4705 17.55 23.5905 17.57 23.6205 17.65C23.6605 17.76 23.4605 17.93 23.4405 17.95L23.5005 18.17L22.6305 18.53C22.7105 18.54 22.9605 18.67 23.3905 18.67C23.7205 18.67 23.9705 18.83 23.9705 18.97C23.9705 19.01 23.9405 19.05 23.8905 19.07C23.8405 19.1 23.7705 19.11 23.6805 19.11H23.6205C23.2305 19.11 22.8405 19.23 22.6505 19.29C22.8605 19.31 23.3005 19.35 23.7005 19.35H23.8105C24.0105 19.35 24.1105 19.38 24.1405 19.46C24.1905 19.57 24.0705 19.7 24.0505 19.73C24.0805 19.73 24.1905 19.8 24.2205 19.89C24.2305 19.94 24.2305 19.98 24.2105 20.02C24.1705 20.08 24.0805 20.07 23.9605 20.03C23.7805 19.97 23.5905 19.95 23.5205 20.14C23.3805 20.53 23.1005 20.56 22.8605 20.58L22.7705 20.59C22.6605 20.61 22.6005 20.65 22.6005 20.69C22.6005 20.73 22.7005 20.78 22.8905 20.76C23.0105 20.74 23.1705 20.67 23.3205 20.59C23.5005 20.51 23.6605 20.43 23.7905 20.43C23.9305 20.43 24.0005 20.51 24.0205 20.68C24.0305 20.67 24.0505 20.65 24.0705 20.62C24.1605 20.51 24.3905 20.31 24.5405 20.3H24.6205C24.6405 20.33 24.6505 20.38 24.6505 20.45C24.4205 20.76 23.9705 21.14 23.0105 21.25C22.8905 21.33 22.7005 21.56 22.7405 21.61C22.7405 21.62 22.7705 21.63 22.7805 21.63C22.9405 21.55 23.6505 21.25 24.1105 21.25C24.3505 21.25 24.4905 21.32 24.5405 21.47C24.5305 21.49 24.4905 21.5 24.4705 21.52C24.4605 21.53 24.4605 21.54 24.4405 21.55C24.2405 21.69 23.7605 21.7 23.7005 21.7C23.6405 21.75 23.4705 21.78 23.2705 21.81C23.1605 21.83 23.0505 21.85 22.9605 21.87C22.9105 21.89 22.8205 21.94 22.8105 21.98C22.8105 22.01 22.8305 22.03 22.8605 22.05C22.8605 22.04 22.8805 22.04 22.9005 22.03C23.1005 21.97 23.6705 21.82 23.8005 21.96C23.8305 21.99 23.8405 22.02 23.8505 22.07C23.8605 22.06 23.8805 22.06 23.9205 22.05C24.0905 22 24.2405 21.99 24.3305 21.99C24.5705 21.99 24.7305 22.04 24.8105 22.13C24.8605 22.18 24.8905 22.25 24.8805 22.33C24.7905 22.42 23.7905 22.52 23.5905 22.54C23.4505 22.55 23.2205 22.58 23.1705 22.61C23.1905 22.61 23.2605 22.64 23.5105 22.67C23.5405 22.66 23.5905 22.66 23.6505 22.66H23.7905C23.9205 22.66 24.0805 22.66 24.2905 22.64C24.5505 22.57 24.7305 22.54 24.8205 22.54C24.8405 22.54 24.9105 22.54 24.9105 22.59C24.9105 22.68 24.5205 22.85 24.4405 22.86C24.2705 22.88 23.4805 22.94 23.4505 22.94C23.2205 23.09 22.8405 23.33 22.8005 23.38H22.8205C22.9805 23.35 23.3005 23.3 23.4805 23.24C23.5405 23.22 23.6005 23.19 23.6605 23.16C23.8705 23.06 24.1005 22.99 24.2905 23.14C24.4605 22.99 24.7305 22.92 24.9005 22.92C25.0205 22.92 25.0905 22.95 25.1105 23.01C25.1305 23.1 25.0105 23.21 24.7405 23.36C24.5105 23.42 24.2005 23.51 23.6805 23.52C23.0305 23.62 22.4705 23.77 22.4705 23.84C22.6205 23.81 23.4305 23.66 23.7005 23.82L23.7905 23.78C24.0505 23.69 24.4605 23.58 24.6305 23.75C24.9805 23.62 25.3105 23.66 25.3805 23.8C25.4005 23.85 25.3905 23.91 25.3505 23.97C25.2105 24.16 24.5005 24.25 24.1105 24.19C23.9005 24.15 23.7605 24.26 23.7505 24.37C23.7505 24.43 23.8005 24.48 23.8905 24.49C24.0305 24.5 24.1305 24.47 24.2405 24.43C24.5005 24.36 24.7705 24.34 24.9005 24.55C25.1005 24.32 25.6005 24.32 25.6905 24.51C25.7105 24.56 25.7205 24.65 25.6305 24.77C25.4705 24.79 25.3205 24.79 25.1705 24.79C24.6405 24.79 24.0905 24.75 23.5705 24.72C23.2305 24.69 22.9005 24.67 22.5605 24.65C22.5305 24.67 22.5005 24.7 22.5005 24.71C22.5005 24.73 22.5105 24.76 22.6005 24.81Z" fill="#E3E7EA"/>
<path d="M34.5 8.5H6.5C4.291 8.5 2.5 10.291 2.5 12.5V28.5C2.5 30.709 4.291 32.5 6.5 32.5H12.559V8.5H28.442V32.5H34.5C36.709 32.5 38.5 30.709 38.5 28.5V12.5C38.5 10.291 36.709 8.5 34.5 8.5Z" fill="#018434"/>
<path d="M23.5712 24.7152C24.0942 24.7532 24.6362 24.7932 25.1712 24.7932C25.3182 24.7932 25.4652 24.7902 25.6322 24.7732C25.7242 24.6522 25.7132 24.5652 25.6882 24.5122C25.5962 24.3212 25.0962 24.3242 24.9032 24.5522C24.7732 24.3362 24.5052 24.3602 24.2422 24.4352C24.1322 24.4662 24.0262 24.4962 23.8942 24.4932C23.8012 24.4822 23.7472 24.4352 23.7512 24.3682C23.7572 24.2652 23.8992 24.1522 24.1122 24.1862C24.5032 24.2452 25.2102 24.1652 25.3502 23.9722C25.3942 23.9112 25.4032 23.8492 25.3772 23.7972C25.3072 23.6572 24.9792 23.6252 24.6282 23.7482C24.4622 23.5822 24.0492 23.6862 23.7912 23.7772L23.7052 23.8162C23.4342 23.6612 22.6232 23.8122 22.4682 23.8412C22.4722 23.7732 23.0292 23.6252 23.6812 23.5172C24.2032 23.5082 24.5122 23.4222 24.7412 23.3592C25.0072 23.2152 25.1312 23.0972 25.1092 23.0102C25.0952 22.9532 25.0222 22.9222 24.9062 22.9222C24.7362 22.9222 24.4612 22.9912 24.2912 23.1432C24.0992 22.9922 23.8672 23.0662 23.6622 23.1642C23.6022 23.1932 23.5432 23.2212 23.4852 23.2412C23.2972 23.3042 22.9822 23.3532 22.8212 23.3792C22.8152 23.3792 22.8072 23.3792 22.8032 23.3792C22.8422 23.3332 23.2222 23.0892 23.4482 22.9452C23.4822 22.9432 24.2752 22.8842 24.4392 22.8612C24.5232 22.8492 24.9142 22.6812 24.9142 22.5872C24.9112 22.5412 24.8462 22.5412 24.8242 22.5412C24.7332 22.5412 24.5522 22.5752 24.2912 22.6422C24.0832 22.6602 23.9192 22.6632 23.7892 22.6632H23.6542C23.5962 22.6632 23.5472 22.6632 23.5092 22.6672C23.2372 22.6382 23.1702 22.6012 23.1582 22.6142C23.2052 22.5832 23.4472 22.5512 23.5922 22.5372C23.7922 22.5192 24.7932 22.4232 24.8872 22.3342C24.8912 22.2512 24.8682 22.1812 24.8172 22.1272C24.7312 22.0362 24.5692 21.9892 24.3352 21.9892C24.2462 21.9892 24.0982 22.0032 23.9222 22.0532C23.8872 22.0592 23.8642 22.0632 23.8492 22.0652C23.8492 22.0212 23.8362 21.9842 23.8082 21.9562C23.6742 21.8192 23.1052 21.9662 22.9052 22.0272C22.8742 22.0372 22.8532 22.0432 22.8602 22.0482C22.8312 22.0302 22.8142 22.0122 22.8132 21.9782C22.8272 21.9352 22.9122 21.8872 22.9602 21.8682C23.0552 21.8442 23.1682 21.8272 23.2782 21.8102C23.4772 21.7802 23.6492 21.7532 23.7022 21.7012C23.7672 21.7012 24.2432 21.6842 24.4472 21.5442C24.4582 21.5362 24.4672 21.5282 24.4762 21.5202C24.4972 21.5012 24.5332 21.4882 24.5432 21.4642C24.4912 21.3202 24.3492 21.2472 24.1172 21.2472C23.6492 21.2472 22.9412 21.5472 22.7882 21.6252C22.7702 21.6252 22.7472 21.6222 22.7392 21.6112C22.7032 21.5582 22.8952 21.3332 23.0122 21.2522C23.9682 21.1382 24.4282 20.7582 24.6502 20.4472C24.6562 20.3772 24.6462 20.3292 24.6202 20.3002C24.6042 20.2832 24.5722 20.2982 24.5472 20.2982C24.5452 20.2982 24.5432 20.2982 24.5402 20.2982C24.3972 20.3072 24.1652 20.5062 24.0752 20.6232C24.0512 20.6462 24.0332 20.6642 24.0222 20.6752C24.0022 20.5122 23.9302 20.4242 23.7992 20.4242C23.6682 20.4242 23.5002 20.5052 23.3232 20.5902C23.1712 20.6632 23.0152 20.7382 22.8932 20.7532C22.7022 20.7752 22.6092 20.7302 22.6072 20.6872C22.6052 20.6512 22.6612 20.6042 22.7712 20.5902L22.8692 20.5792C23.1092 20.5542 23.3812 20.5262 23.5212 20.1422C23.5932 19.9472 23.7882 19.9672 23.9612 20.0242C24.0832 20.0642 24.1792 20.0822 24.2142 20.0152C24.2352 19.9752 24.2392 19.9332 24.2272 19.8912C24.1972 19.7892 24.0782 19.7222 24.0512 19.7282C24.0782 19.6982 24.1912 19.5632 24.1462 19.4582C24.1142 19.3822 24.0152 19.3442 23.8172 19.3442H23.7042C23.3082 19.3442 22.8622 19.3052 22.6592 19.2852C22.8432 19.2242 23.2382 19.1082 23.6212 19.1082H23.6872C23.7792 19.1082 23.8502 19.0972 23.9002 19.0722C23.9502 19.0472 23.9772 19.0092 23.9772 18.9642C23.9772 18.8252 23.7212 18.6642 23.3912 18.6642C22.9682 18.6642 22.7142 18.5432 22.6382 18.5302C22.6352 18.5282 22.6342 18.5282 22.6322 18.5272L23.5102 18.1712L23.4432 17.9472C23.4662 17.9292 23.6642 17.7642 23.6252 17.6512C23.5962 17.5682 23.4802 17.5442 23.2112 17.5782C22.4802 17.6742 22.3982 17.6862 22.3982 17.6862C21.9022 17.7632 20.9572 17.9092 20.9322 17.9122C20.9112 17.9082 20.7882 17.8652 20.7672 17.8172C20.7682 17.8122 20.7802 17.7822 20.9112 17.7482C21.2662 17.6582 22.3332 17.4382 22.7062 17.4382C22.7652 17.4382 22.7932 17.4442 22.8062 17.4482L22.8152 17.4242L22.8882 17.4412C22.9122 17.4192 22.9162 17.3792 22.8992 17.3292C22.8452 17.1612 22.5752 16.8762 22.0862 16.8262C21.3802 16.7542 20.9422 16.9992 20.9512 17.0062C20.8862 16.9822 20.7512 16.9142 20.7522 16.8562C20.7522 16.8352 20.7742 16.7912 20.9142 16.7442C21.2592 16.6272 21.9842 16.7912 22.0092 16.7922C22.1042 16.7642 22.4112 16.6622 22.4042 16.5492C22.4002 16.4872 22.3172 16.4472 22.1362 16.4192C21.7162 16.3552 21.4862 16.4152 21.2952 16.4652C21.2002 16.4902 21.1172 16.5112 21.0422 16.5202C21.0542 16.4732 21.3742 16.4252 21.5642 16.3952C21.8702 16.3482 22.0602 16.3162 22.0952 16.2302C22.0222 16.0922 21.6942 16.1162 21.3392 16.1682C21.1792 16.1922 21.0142 16.2162 20.8932 16.2182C20.8212 16.1872 20.7782 16.1462 20.7792 16.1092C20.7792 16.0712 20.8252 16.0322 20.8952 16.0032C21.0032 15.9992 21.1092 15.9982 21.2152 15.9982L21.7492 16.0022C21.8602 16.0022 21.9722 16.0012 22.1092 15.9692C22.1032 15.8582 22.1032 15.7372 22.1032 15.6152C22.1032 15.4982 22.1032 15.3802 22.0772 15.2492C21.7862 15.1942 21.3912 15.2302 21.0802 15.2702C20.9662 15.2842 20.8722 15.3022 20.7782 15.3222C20.7552 15.3232 20.7272 15.3262 20.7062 15.3262C20.7782 15.1842 21.3132 15.1022 21.6402 15.0532C21.8362 15.0242 21.9482 15.0072 21.9972 14.9792C22.0332 14.9332 22.0442 14.8942 22.0282 14.8612C21.9752 14.7472 21.6212 14.7722 20.8872 14.9382C20.7962 14.9252 20.7392 14.8922 20.7302 14.8472C20.7212 14.8052 20.7592 14.7522 20.8142 14.7152C20.9122 14.7042 21.0452 14.7032 21.1822 14.7022C21.4792 14.7002 21.7862 14.6992 21.8672 14.5932C21.8882 14.5662 21.8942 14.5352 21.8852 14.5002C21.8652 14.4012 21.7702 14.3502 21.6022 14.3502C21.4372 14.3502 21.2332 14.3992 21.1232 14.4262C20.9812 14.4592 20.6722 14.4412 20.6512 14.4392C20.6742 14.3882 21.0102 14.3652 21.2322 14.3502C21.4602 14.3352 21.6012 14.3122 21.6972 14.2722C21.7162 14.2642 21.7362 14.2572 21.7502 14.2472C21.7632 14.2372 21.7942 14.2352 21.8022 14.2222C21.7942 14.1492 21.6862 14.1162 21.4522 14.1162C21.2822 14.1162 21.0772 14.1332 20.9102 14.1472C20.8232 14.1542 20.7472 14.1602 20.6952 14.1552C20.7072 14.1032 21.0032 14.0422 21.5742 13.9742C21.6632 13.9642 21.7262 13.9562 21.7562 13.9282C21.7632 13.8682 21.7512 13.8202 21.7202 13.7862C21.6172 13.6692 21.2552 13.7572 20.9822 13.8392C20.8182 13.8882 20.7382 13.9252 20.6852 13.8782C20.6472 13.8332 20.6712 13.7222 20.6702 13.6982C20.7702 13.6532 20.9232 13.5772 20.9762 13.5082C20.9792 13.5062 20.9882 13.5012 20.9892 13.4992V13.4972V13.4952H20.9872C20.9872 13.4952 20.9862 13.4932 20.9852 13.4922C20.9892 13.4852 20.9982 13.4772 20.9992 13.4702C20.9572 13.4372 20.7422 13.3642 20.7242 13.3732C20.7162 13.3532 20.7212 13.2232 20.7202 13.1332C20.7622 13.1012 20.9732 12.9362 20.9902 12.8452L20.9632 12.8032C20.9632 12.8032 20.9192 12.7942 20.9152 12.7942C20.8302 12.7942 20.6742 12.8452 20.6582 12.8752L20.6372 12.6732C20.6622 12.6702 20.8812 12.6422 20.9062 12.5222C20.9062 12.5202 20.8912 12.4592 20.8912 12.4572C20.8352 12.3822 20.6352 12.3722 20.6362 12.3942L20.5182 11.1402C20.5172 11.1272 20.5062 11.1172 20.4932 11.1172C20.4802 11.1172 20.4692 11.1272 20.4682 11.1402L20.3842 12.2882L20.1902 12.3172L20.0762 12.3602L20.0002 12.3722C20.0002 12.3722 20.0122 12.3802 20.0182 12.3832L19.9882 12.3942C19.9882 12.3942 20.2502 12.5462 20.2822 12.7372C20.2542 12.7582 20.1922 12.7702 20.1092 12.7702C20.0612 12.7702 20.0252 12.7732 19.9992 12.7902C19.9972 12.7902 19.9892 12.7902 19.9892 12.7902C19.9892 12.7902 19.9942 12.7942 19.9942 12.7952C19.9872 12.8002 19.9772 12.8012 19.9732 12.8102C20.0892 12.9102 20.2782 13.0922 20.2902 13.1642C20.2512 13.2002 20.0992 13.2262 19.9672 13.2632C19.9262 13.2672 19.8952 13.2692 19.8952 13.2692C19.8952 13.2692 19.9072 13.2782 19.9102 13.2802C19.9002 13.2832 19.8892 13.2862 19.8802 13.2892C19.9822 13.3642 20.2522 13.5832 20.2702 13.7012C20.2802 13.7682 20.2882 13.8232 20.3032 13.8712C20.3022 13.8882 20.3002 13.8952 20.2992 13.9052C20.2252 13.8442 19.6322 13.3752 19.2592 13.5202C19.2352 13.5322 19.2192 13.5462 19.2092 13.5962C19.2232 13.6392 19.2932 13.6682 19.4502 13.7272C19.6492 13.8022 19.9502 13.9162 20.1612 14.0922C20.1022 14.0922 19.9822 14.0682 19.8432 14.0412C19.6512 14.0032 19.4112 13.9562 19.2482 13.9562C19.1992 13.9562 19.0522 13.9562 19.0372 14.0692C19.0542 14.1012 19.1402 14.1232 19.4742 14.1972C19.7402 14.2562 20.1072 14.3392 20.2522 14.3892C20.2672 14.3972 20.2752 14.4052 20.2852 14.4142H20.2262C20.1012 14.4142 19.9502 14.4082 19.8002 14.4012C19.6492 14.3942 19.4982 14.3872 19.3722 14.3872C19.1762 14.3872 19.0782 14.4042 19.0382 14.4732C19.0342 14.4812 19.0322 14.5262 19.0362 14.5342C19.0722 14.6002 19.2492 14.6122 19.5602 14.6282C19.8052 14.6402 20.0842 14.6552 20.2412 14.7062C20.2932 14.7672 20.3162 14.8212 20.3022 14.8552C20.2892 14.8872 20.2402 14.9082 20.1782 14.9162C19.9442 14.8022 19.5342 14.7102 19.2632 14.7102C19.0072 14.7102 18.9522 14.7902 18.9752 14.8882C19.0082 14.9052 19.0922 14.9122 19.2502 14.9242C19.4812 14.9422 19.8052 14.9702 20.0202 15.0272C20.0452 15.0372 20.0672 15.0492 20.0882 15.0612C19.8932 15.0922 19.4612 15.0542 19.0882 15.0162C18.8492 14.9902 18.6272 14.9672 18.4862 14.9672C18.3942 14.9672 18.3082 14.9752 18.3092 15.0452C18.3112 15.0482 18.5252 15.3962 18.9432 15.3962H19.0042C19.4112 15.3962 20.2032 15.5612 20.2262 15.6432C20.1652 15.6432 20.0512 15.6242 19.9092 15.6012C19.5242 15.5392 18.9262 15.4692 18.6832 15.5852C18.6362 15.6082 18.5882 15.6362 18.5962 15.6772C18.6082 15.7442 18.7632 15.7602 19.2012 15.7892C19.6052 15.8152 20.1082 15.8482 20.2432 15.9742C20.2922 16.0202 20.2932 16.0362 20.2532 16.0402C20.1002 16.0402 19.7062 15.9082 19.6982 15.9052C19.6912 15.9052 18.9402 15.7982 18.5512 15.7982C18.4392 15.7982 18.3672 15.8062 18.3302 15.8242C18.1512 15.9082 17.9542 16.0952 17.9412 16.1332C17.9522 16.1552 18.0492 16.3442 18.1672 16.3442L18.2182 16.3182C18.2182 16.3302 18.1932 16.3792 18.1692 16.4462L18.1632 16.4552H18.1662C18.1632 16.4642 18.1602 16.4692 18.1572 16.4792C18.1742 16.4832 19.8042 16.8872 20.1542 17.2752C19.8152 17.2752 18.1072 16.6392 18.0732 16.6332C17.9652 16.6742 17.6142 16.8152 17.6352 16.9432C17.6432 16.9932 17.7102 17.0472 17.9982 17.0402C18.0382 17.0432 18.0682 17.0482 18.1172 17.0492C18.0842 17.1032 18.0672 17.1562 18.0782 17.2082C18.0952 17.2932 18.1662 17.3452 18.1952 17.3622C18.7942 17.4892 19.9632 17.7892 20.0992 18.0072L20.1202 17.9932L20.0632 18.0482C19.8062 18.0482 18.8932 17.6712 18.6352 17.5402C18.5662 17.5052 18.4672 17.4882 18.3412 17.4882C17.9982 17.4882 17.4852 17.6282 17.4382 17.6982C17.4352 17.7022 17.4442 17.7422 17.4442 17.7472C17.4672 17.7722 17.5242 17.7952 17.6152 17.8302C17.7082 17.8662 17.8632 17.9262 17.8682 17.9772C17.8502 18.0122 17.7202 18.0472 17.6252 18.0732C17.4702 18.1152 17.3752 18.1432 17.3612 18.2092C17.3612 18.2552 17.4422 18.2852 18.0262 18.4562C18.7262 18.6602 19.7842 18.9692 20.1632 19.2922C20.2432 19.3602 20.2532 19.3842 20.2402 19.3772C19.9962 19.3772 18.4752 18.6582 18.4602 18.6502C18.4482 18.6442 18.4362 18.6482 18.4292 18.6572C18.4212 18.6662 18.4212 18.6792 18.4292 18.6882C18.4472 18.7122 18.4932 18.7932 18.4792 18.8402C18.4742 18.8562 18.4612 18.8682 18.4362 18.8772C18.4072 18.8772 18.3502 18.8352 18.2842 18.7862C18.1312 18.6732 17.9002 18.5042 17.5932 18.5042C17.4292 18.5042 17.2612 18.5542 17.0862 18.6592C17.0582 18.6962 17.0632 18.7302 17.0722 18.7522C17.1422 18.9142 17.7372 19.0162 17.9062 19.0132C17.9182 19.0152 17.9302 19.0162 17.9402 19.0182L17.9242 19.0582C17.8742 19.1802 17.8522 19.2542 17.9652 19.3582C17.9412 19.3462 17.9182 19.3352 17.8952 19.3242C17.7452 19.2512 17.6522 19.2112 17.5862 19.2082C17.5832 19.2072 17.5722 19.2012 17.5702 19.2012H17.5662C17.5662 19.2012 17.5662 19.2042 17.5662 19.2052C17.5592 19.2052 17.5462 19.1992 17.5402 19.2012C17.5402 19.2212 17.5702 19.3672 17.6112 19.4462C17.6142 19.4592 17.6152 19.4672 17.6172 19.4772C17.3292 19.2502 17.0182 19.2082 16.7272 19.4502C16.7272 19.4522 16.7132 19.6842 17.0232 19.7862C16.9792 19.8782 16.9692 19.9432 16.9902 19.9942C17.0232 20.0742 17.1232 20.1082 17.2752 20.1592C17.3672 20.1902 17.4822 20.2302 17.6132 20.2902C17.3022 20.2362 17.0822 20.2872 17.0732 20.4102C17.0642 20.5232 17.2362 20.6302 17.4902 20.6702C17.6112 20.6892 17.7742 20.7072 17.9612 20.7262C18.6972 20.8062 19.8082 20.9262 20.1132 21.3282C20.1942 21.4362 20.2002 21.4692 20.2022 21.4722C20.1382 21.4722 19.9142 21.3302 19.7502 21.2272C19.6252 21.1482 19.5472 21.1082 19.4832 21.1032C19.4812 21.1032 19.4742 21.0982 19.4732 21.0982C19.4732 21.0982 19.4732 21.0982 19.4732 21.1002C19.4652 21.1002 19.4542 21.0932 19.4462 21.0952C19.4272 21.1392 19.4122 21.2872 19.4322 21.3252C19.4322 21.3292 19.4322 21.3292 19.4322 21.3322C19.1992 21.1962 18.9572 21.0572 18.6242 21.0062C18.6102 21.0342 18.6052 21.0662 18.6002 21.0962C18.5972 21.1162 18.5942 21.1352 18.6032 21.1482C18.3522 20.9662 18.1072 20.8172 17.6732 20.8162L17.6502 20.9112L17.6632 20.9642C17.6612 20.9702 17.6602 20.9772 17.6582 20.9832C17.6262 20.9472 17.4832 20.8012 17.2142 20.8012C17.0412 20.8012 16.8542 20.8652 16.6582 20.9912C16.6402 21.0032 16.5872 21.0432 16.6002 21.0902C16.6232 21.1732 16.8402 21.1932 17.2522 21.2222C17.6602 21.2512 18.1682 21.2872 18.3032 21.4352C18.4422 21.5872 18.4462 21.6642 18.4362 21.6972C18.4252 21.7352 18.3872 21.7472 18.3872 21.7502L17.6792 21.4882C17.6792 21.4882 17.3522 21.4282 17.0532 21.4282C16.8262 21.4282 16.6682 21.4622 16.5862 21.5292C16.5782 21.5352 16.5652 21.5682 16.5662 21.5782C16.5862 21.6642 16.9142 21.7452 17.7762 21.9352C18.7412 22.1482 20.0632 22.4392 20.1212 22.7252C20.1212 22.7252 20.0862 22.7682 20.0862 22.7692C19.9812 22.7692 19.7292 22.6592 19.4372 22.5322C19.1402 22.4032 18.8042 22.2562 18.4502 22.1752L18.4142 22.3582L18.3892 22.4312C18.3602 22.4032 18.1302 22.1962 17.8262 22.1172C17.7832 22.1032 17.7422 22.0832 17.6972 22.0762C17.6972 22.0762 17.6972 22.0762 17.6972 22.0782V22.0802C17.6972 22.0802 17.6982 22.0852 17.6982 22.0872C17.6892 22.0872 17.6812 22.0812 17.6722 22.0812C17.6722 22.1152 17.7142 22.2772 17.7552 22.3442C17.7582 22.3562 17.7592 22.3602 17.7612 22.3682C17.6812 22.3312 17.1752 22.1052 16.7382 22.1052C16.6012 22.1052 16.4852 22.1282 16.3932 22.1742C16.3712 22.1852 16.3052 22.2172 16.3122 22.2702C16.3272 22.3772 16.6742 22.4422 17.2402 22.5402C17.6422 22.6092 18.0982 22.6882 18.1782 22.8032C18.1292 22.8032 18.0372 22.7812 17.9402 22.7582C17.7372 22.7092 17.5152 22.6672 17.4752 22.7462C17.4632 22.7742 17.2132 22.7422 16.9742 22.6872C16.7132 22.6272 16.4872 22.5782 16.4292 22.6402C16.4242 22.6452 16.4122 22.6822 16.4132 22.6892C16.4252 22.8882 16.5592 23.0012 16.5782 23.0112C17.3772 23.0892 18.6632 23.2762 18.7092 23.4712C18.7032 23.4792 18.6812 23.4972 18.5962 23.4972C18.2952 23.4972 17.5852 23.2912 17.5612 23.2822C17.5562 23.2892 17.4802 23.4162 17.5292 23.4972C17.5312 23.5082 17.5382 23.5182 17.5442 23.5282C17.5362 23.5232 17.5292 23.5192 17.5182 23.5132C17.3632 23.4232 17.0032 23.2282 16.9152 23.3342C16.8952 23.3592 16.8942 23.3932 16.9252 23.4182C16.9252 23.4202 16.9252 23.4222 16.9252 23.4242L16.7932 23.3682C16.5182 23.2502 16.1322 23.0882 16.0642 23.1882C16.0482 23.2112 16.0482 23.2422 16.0632 23.2812C16.1462 23.5022 17.3682 23.7792 17.8142 23.8732C17.6132 23.9002 17.3082 23.9562 17.2262 24.0652C17.2162 24.0782 17.2092 24.0922 17.2102 24.1042C16.8442 23.8812 16.5742 23.7672 16.4072 23.7672C16.3052 23.7672 16.2622 23.8102 16.2442 23.8462C16.2342 23.8652 16.2302 23.8852 16.2302 23.9032L16.2202 23.8942C16.1042 23.8682 15.8332 23.8072 15.6822 23.8072C15.6342 23.8072 15.5702 23.8122 15.5592 23.8572C15.5482 23.9022 15.5872 23.9712 15.9452 24.1682C16.5242 24.4862 16.5782 24.5682 16.5792 24.5832L16.5972 24.6022L16.5252 24.5842L16.4912 24.6262C16.5052 24.6492 16.5652 24.8202 16.5932 24.8522C16.5932 24.8542 16.5932 24.8572 16.5942 24.8592C16.5812 24.8542 16.5402 24.8342 16.4782 24.8032C16.2632 24.6962 15.8612 24.4962 15.6612 24.4762C15.4902 24.4762 15.0472 24.5982 15.0002 24.8252C14.9662 24.9882 15.1422 25.1572 15.5242 25.3262C15.7772 25.4392 16.0322 25.4802 16.2802 25.4932C16.2942 25.4932 16.3092 25.4962 16.3232 25.4962C16.6742 25.5092 17.0082 25.4562 17.2882 25.3822C17.5352 25.3162 17.7642 25.2552 17.9802 25.2802C18.4722 25.3362 18.7342 25.4132 18.8062 25.5232C18.8272 25.5542 18.8312 25.5902 18.8062 25.6432C18.7782 25.6432 18.7242 25.6102 18.6602 25.5712C18.5302 25.4922 18.3532 25.3842 18.1442 25.3842C17.9402 25.3842 17.7482 25.4922 17.5992 25.6962C17.0712 25.5902 16.7272 25.5422 16.6552 25.6802C16.6292 25.7322 16.6552 25.8052 16.7132 25.8862C16.7282 25.9162 16.7472 25.9492 16.7712 25.9862C16.4392 25.8652 16.1782 25.8352 16.0192 25.8352C15.7522 25.8352 15.5742 25.9082 15.5652 26.0202C15.5532 26.1752 15.8612 26.3182 16.3912 26.4022C17.7582 26.4472 18.6292 26.0702 18.6322 26.0432C18.6432 26.0632 18.7762 26.2992 18.9892 26.2992C19.0762 26.2992 19.1632 26.2602 19.2492 26.1822C19.4512 25.9982 19.5382 26.1222 19.5652 26.2622L19.6032 26.3072C19.6292 26.3002 19.9312 26.1642 19.9262 26.1642L19.9842 26.1382L20.0092 29.0292L21.1512 29.0402C21.1582 29.0402 21.1652 29.0372 21.1702 29.0312C21.1752 29.0252 21.1772 29.0182 21.1762 29.0102C21.1722 28.9862 20.8142 26.5202 21.0072 26.1982C21.1582 25.9482 21.2962 25.9262 21.3672 25.9232C21.3932 25.9312 22.0102 26.1182 22.1702 26.1182C22.1722 26.1182 22.2262 26.1002 22.2282 26.0992C22.2482 26.0812 22.2572 26.0522 22.2672 26.0212C22.2902 25.9452 22.3172 25.8602 22.5142 25.8602C22.5352 25.8602 22.5592 25.8602 22.5962 25.8622C22.6752 25.8332 22.6922 25.7512 22.7062 25.6852C22.7152 25.6402 22.7242 25.5982 22.7692 25.5782C22.7942 25.5782 22.8962 25.6002 23.0242 25.6282C23.4152 25.7122 24.1422 25.8692 24.7512 25.8692C25.2152 25.8692 25.5242 25.7762 25.6752 25.5672C25.6312 25.4502 25.5482 25.3912 25.4282 25.3912C25.3102 25.3912 25.1752 25.4502 25.0772 25.4932C25.0232 25.5172 24.9772 25.5372 24.9552 25.5392C24.9332 25.5392 24.8862 25.5262 24.8332 25.5112C24.6332 25.4562 24.2612 25.4052 24.1582 25.5442C23.9202 25.3622 22.8812 25.2442 22.8522 25.2672C22.8622 25.2592 22.9202 25.2412 23.2322 25.2412C23.4882 25.2412 23.8362 25.2522 24.1852 25.2642C24.5362 25.2762 24.8862 25.2872 25.1452 25.2872C25.4662 25.2872 25.5352 25.2692 25.5642 25.2482C25.6292 25.1812 25.6522 25.1222 25.6312 25.0712C25.5872 24.9642 25.3682 24.9482 25.2412 24.9482C25.0762 24.9482 24.8712 24.9762 24.8302 25.0292C24.5962 24.8842 24.2152 24.8582 24.0802 25.0042C24.0122 24.8402 23.6062 24.8332 23.1762 24.8262C22.9722 24.8232 22.7662 24.8192 22.6142 24.8012C22.5292 24.7502 22.5162 24.7212 22.5172 24.7082C22.5172 24.6902 22.5422 24.6682 22.5772 24.6452C22.9142 24.6602 23.2512 24.6852 23.5882 24.7092L23.5712 24.7152ZM17.7792 24.8382C17.7952 24.8352 17.8112 24.8312 17.8272 24.8302L17.8462 24.8062H17.8482V24.8292C17.9422 24.8292 18.0562 24.8622 18.1832 24.9102C18.1832 24.9172 18.1782 25.0442 18.1952 25.0732C18.1442 25.0572 17.9612 24.9942 17.8392 24.9032C17.8172 24.8822 17.7962 24.8612 17.7802 24.8372L17.7792 24.8382ZM18.1292 17.0562C18.1292 17.0562 18.1312 17.0562 18.1322 17.0562C18.1282 17.0612 18.1302 17.0652 18.1272 17.0702C18.1272 17.0652 18.1282 17.0612 18.1292 17.0562ZM20.3112 14.4422C20.3112 14.4422 20.3012 14.4422 20.2962 14.4422L20.3062 14.4392C20.3062 14.4392 20.3102 14.4412 20.3112 14.4422ZM20.2592 15.2702L20.2792 15.3712V15.3782C20.1732 15.3732 20.0122 15.3532 19.9892 15.3342C20.0492 15.2922 20.1582 15.2812 20.2232 15.2742C20.2372 15.2732 20.2492 15.2712 20.2592 15.2702ZM20.2792 15.2812L20.2762 15.2672C20.2762 15.2672 20.2782 15.2672 20.2792 15.2672V15.2812ZM20.2792 15.2632C20.2792 15.2632 20.2772 15.2612 20.2742 15.2582L20.2702 15.2412C20.2702 15.2412 20.2732 15.2412 20.2742 15.2412H20.2762V15.2642L20.2792 15.2632ZM20.1242 15.0852C20.1152 15.0872 20.0992 15.0872 20.0882 15.0892C20.0952 15.0852 20.1032 15.0832 20.1092 15.0792C20.1132 15.0812 20.1192 15.0832 20.1232 15.0862L20.1242 15.0852ZM18.7042 18.2922C18.7042 18.2922 18.7062 18.2922 18.7072 18.2922V18.3142C18.8872 18.3142 19.3002 18.4102 20.2362 18.8622C20.2372 18.8982 20.2412 18.9752 20.2612 18.9932C20.1052 18.9382 18.5432 18.3822 18.5672 18.3562C18.5842 18.3322 18.6242 18.3182 18.6812 18.3152L18.7042 18.2922ZM20.1892 16.6072C20.0942 16.5782 19.0652 16.2772 18.9412 16.2772L18.9222 16.2742C18.9222 16.2742 18.9522 16.2472 19.0932 16.2412C19.2472 16.2412 19.5592 16.2772 20.1582 16.4632C20.1602 16.4992 20.1672 16.5852 20.1892 16.6042C20.1892 16.6062 20.1892 16.6062 20.1892 16.6072ZM20.1892 16.6292C20.1892 16.6292 20.1892 16.6292 20.1892 16.6312C20.1892 16.6312 20.1892 16.6332 20.1872 16.6332C20.1872 16.6332 20.1692 16.6272 20.1592 16.6242C20.1712 16.6262 20.1822 16.6282 20.1902 16.6292H20.1892ZM19.6382 16.7302L19.6532 16.7062L19.6542 16.7302C19.7762 16.7302 19.9912 16.7722 20.1342 16.8002C20.2052 16.8142 20.2572 16.8242 20.2512 16.8432C20.2542 16.8852 20.2612 16.9972 20.2662 17.0132C20.1672 16.9862 19.6102 16.7942 19.5812 16.7412C19.5872 16.7372 19.6052 16.7312 19.6372 16.7302H19.6382ZM18.9192 18.0972C18.9072 18.0792 18.8962 18.0522 18.9042 18.0352C18.9112 18.0202 18.9372 18.0102 18.9952 18.0072C19.1262 18.0072 19.4422 18.0762 20.1842 18.3782L20.1882 18.5332C19.7082 18.3852 18.9652 18.1442 18.9182 18.0972H18.9192ZM20.2662 19.0202L20.2642 19.0212C20.2632 19.0212 20.2502 19.0162 20.2472 19.0152C20.2532 19.0162 20.2622 19.0192 20.2662 19.0202ZM18.6132 20.1772C18.7892 20.1772 19.2052 20.2532 20.1712 20.5962L20.1992 20.7582C19.9412 20.6742 18.5202 20.2102 18.4942 20.2052C18.5022 20.1962 18.5222 20.1812 18.6132 20.1772ZM20.2012 20.0282C20.0332 19.9562 19.1112 19.5702 18.9612 19.5592C18.9562 19.5442 18.9542 19.5272 18.9612 19.5172C18.9692 19.5042 18.9902 19.4962 19.0372 19.4942C19.2802 19.4942 19.8932 19.7582 20.1232 19.8582C20.1612 19.8742 20.1892 19.8872 20.1992 19.8812C20.1982 19.8982 20.1972 19.9262 20.1962 19.9732C20.1962 19.9952 20.1952 20.0162 20.2012 20.0302V20.0282ZM20.2182 20.0572V20.0592C20.2182 20.0592 20.2182 20.0612 20.2182 20.0622H20.2162C20.2162 20.0622 20.1942 20.0522 20.1782 20.0462C20.1962 20.0522 20.2072 20.0542 20.2182 20.0572ZM20.0442 23.4492C19.8122 23.4492 19.3662 23.2002 19.3612 23.1412C19.3612 23.1412 19.3702 23.1332 19.4052 23.1322V23.1062L19.4092 23.1322C19.9202 23.1882 20.0942 23.3852 20.1342 23.4162C20.1192 23.4432 20.0772 23.4492 20.0442 23.4492ZM19.1752 24.1162L19.1842 24.0932V24.1162C19.2612 24.1162 19.3322 24.1592 19.4072 24.2042L19.4752 24.2372C19.5202 24.2282 19.5772 24.2242 19.6372 24.2242C19.8412 24.2242 20.0922 24.2662 20.1072 24.2522L20.0972 24.4232C19.9492 24.4232 19.5552 24.3932 19.4522 24.3322C19.3642 24.3322 19.1072 24.1902 19.0792 24.1452C19.1122 24.1272 19.1452 24.1172 19.1762 24.1152L19.1752 24.1162ZM19.7412 24.7312L19.7682 24.7072H19.7702V24.7312C19.9352 24.7312 20.0982 24.7882 20.1062 24.7862C20.1372 24.8482 20.1802 24.9752 20.1212 25.0202C20.0412 25.0622 19.5582 24.9692 19.5232 24.8152C19.5712 24.7652 19.6452 24.7362 19.7412 24.7312ZM21.0162 23.8412C20.9622 23.8412 20.9162 23.8362 20.9022 23.8432V23.7742C20.9142 23.7722 20.9322 23.7682 20.9562 23.7632C21.0262 23.7482 21.1322 23.7242 21.2272 23.7202C21.2622 23.7202 21.2772 23.7272 21.2792 23.7512C21.2372 23.8302 21.0972 23.8412 21.0162 23.8412ZM21.4872 24.2862C21.3952 24.4192 21.2172 24.4462 21.0852 24.4462C21.0102 24.4462 20.9442 24.4372 20.9132 24.4372C20.9042 24.4372 20.8992 24.4372 20.8962 24.4392L20.8812 24.3182C20.9732 24.3152 21.0932 24.2872 21.2082 24.2602C21.3042 24.2382 21.3952 24.2162 21.4572 24.2132L21.4692 24.1912C21.4692 24.1912 21.4752 24.1932 21.4792 24.1932L21.5152 24.2222C21.5152 24.2222 21.5222 24.2372 21.4872 24.2862ZM20.8772 23.0342C20.8772 23.0122 20.8882 22.9222 20.8822 22.9172C21.2772 22.6782 22.0052 22.4512 22.3822 22.4482L22.3902 22.4242V22.4482C22.4802 22.4482 22.5472 22.4622 22.5732 22.4692C22.5692 22.4992 22.5062 22.6302 22.2812 22.6862C22.1042 22.6862 21.6472 22.7912 20.9992 23.0002C20.9382 23.0172 20.8972 23.0292 20.8762 23.0352L20.8772 23.0342ZM21.8982 19.0392L21.9252 19.0532C21.7882 19.1782 20.9122 19.3372 20.8072 19.3562C20.8072 19.3352 20.8072 19.2952 20.8032 19.2392C20.8242 19.2392 20.9282 19.2192 21.0652 19.1922C21.3172 19.1432 21.6982 19.0672 21.8672 19.0612L21.8862 19.0382C21.8922 19.0382 21.8932 19.0392 21.8982 19.0402V19.0392ZM21.6382 20.1312C21.6382 20.1312 21.6362 20.1352 21.6352 20.1362L21.6382 20.1312ZM21.5952 19.6002L21.6292 19.5772C21.6292 19.5772 21.6322 19.5772 21.6332 19.5772V19.5992H21.6542C21.5232 19.6562 21.1482 19.7472 20.8842 19.8242C20.8572 19.8302 20.8362 19.8342 20.8222 19.8372L20.7992 19.6972C20.8272 19.6912 21.3532 19.6122 21.5952 19.6002ZM20.9202 20.2052C21.0722 20.1832 21.3682 20.1412 21.5292 20.1352L21.5522 20.1122C21.5522 20.1122 21.5542 20.1122 21.5552 20.1122V20.1342C21.5692 20.1342 21.5812 20.1342 21.5892 20.1342C21.4812 20.1892 21.1262 20.2802 20.8982 20.3532C20.8862 20.3552 20.8762 20.3582 20.8682 20.3602C20.8682 20.3552 20.8522 20.2252 20.8292 20.2162C20.8422 20.2152 20.8752 20.2112 20.9202 20.2052ZM20.8782 20.6272C21.0592 20.6392 21.1632 20.6572 21.1882 20.6682C21.1622 20.7102 20.9812 20.7422 20.8892 20.7752C20.8892 20.7752 20.8792 20.6782 20.8712 20.6212L20.8782 20.6272ZM20.8692 21.1242L20.9082 21.1162C21.0442 21.0892 21.3622 21.0272 21.5582 21.0222C21.6302 21.0222 21.6422 21.0352 21.6112 21.0632C21.3832 21.2522 20.8902 21.2982 20.8692 21.3242V21.1242ZM22.2442 21.2082V21.2312C22.3212 21.2312 22.3332 21.2492 22.3352 21.2522C22.3352 21.2572 22.3302 21.2762 22.2922 21.3132C22.2382 21.3642 21.5462 21.6012 21.0452 21.7912C20.9792 21.8122 20.9352 21.8272 20.9152 21.8332C20.9152 21.8122 20.9042 21.5642 20.8922 21.5562C21.5682 21.3492 22.0172 21.2402 22.2262 21.2312L22.2442 21.2082ZM21.3602 22.0392L21.4022 22.0142C21.4022 22.0142 21.4042 22.0142 21.4052 22.0142V22.0382C21.4852 22.0382 21.5072 22.0502 21.5112 22.0502C21.4242 22.1362 21.0292 22.1682 20.8952 22.1972C20.8922 22.1972 20.8862 22.1972 20.8842 22.1972L20.8592 22.0822C20.9072 22.0812 20.9822 22.0732 21.0652 22.0642C21.1632 22.0542 21.2712 22.0422 21.3592 22.0392H21.3602ZM20.9052 22.6072C20.9072 22.5852 20.9122 22.5032 20.8942 22.4992C20.9022 22.4992 20.9202 22.4952 21.0532 22.4602C21.2852 22.4002 21.7662 22.2762 21.9142 22.2712C21.7102 22.4122 21.0272 22.5572 20.9242 22.6032C20.9142 22.6052 20.9112 22.6062 20.9042 22.6072H20.9052ZM20.8892 21.8352C20.8892 21.8352 20.8902 21.8402 20.8912 21.8422H20.8902C20.8902 21.8422 20.8892 21.8362 20.8892 21.8352ZM20.8562 18.5612C20.8392 18.5652 20.8222 18.5692 20.8112 18.5712V18.4242C20.8332 18.4192 20.8692 18.4112 20.9122 18.4012C21.0732 18.3632 21.3412 18.2992 21.5202 18.2912C21.4342 18.3892 21.0302 18.4972 20.8562 18.5612ZM21.0642 24.8562L21.0702 24.8312V24.8562C21.2772 24.8562 21.4702 24.9082 21.4882 24.9662C21.4742 24.9832 21.4302 25.0112 21.2852 25.0112C21.1472 25.0112 20.9852 24.9852 20.9272 24.9852C20.9152 24.9852 20.9072 24.9852 20.9062 24.9892L20.8882 24.8772C20.9302 24.8642 20.9912 24.8572 21.0642 24.8562ZM22.2972 23.1422V23.1662L22.3422 23.1522V23.1832C22.3352 23.1952 22.3032 23.2252 22.1692 23.2252C22.1522 23.2252 22.1352 23.2252 22.1202 23.2252H22.1142C22.1692 23.1982 22.2412 23.1682 22.2932 23.1662L22.2972 23.1422ZM21.4712 17.1842C21.6312 17.1842 21.6532 17.2052 21.6512 17.2072C21.5582 17.3172 20.9702 17.4222 20.7472 17.4802C20.7342 17.4822 20.7282 17.4832 20.7202 17.4842L20.6842 17.2492C20.6842 17.2492 21.1232 17.1892 21.4222 17.1842H21.4712ZM20.6942 15.6802L20.6852 15.4832C20.8672 15.4852 21.1802 15.5052 21.2082 15.5362C21.1882 15.5792 20.9262 15.6302 20.7122 15.6782C20.7062 15.6782 20.6982 15.6802 20.6942 15.6802ZM20.8822 15.8372C20.8502 15.8782 20.6812 15.8962 20.6702 15.9092C20.6662 15.9002 20.6612 15.8562 20.6572 15.8122C20.6672 15.8122 20.6802 15.8142 20.6932 15.8152C20.7402 15.8202 20.8652 15.8322 20.8812 15.8362L20.8822 15.8372ZM21.2322 15.5342C21.2322 15.5342 21.2322 15.5352 21.2322 15.5362V15.5432C21.2322 15.5432 21.2312 15.5462 21.2302 15.5472C21.2272 15.5532 21.2082 15.5572 21.2012 15.5632C21.2122 15.5542 21.2262 15.5452 21.2322 15.5342ZM22.7942 23.3772C22.7942 23.3772 22.7852 23.3772 22.7842 23.3772C22.7842 23.3772 22.7822 23.3772 22.7812 23.3772L22.7802 23.3742V23.3722C22.7802 23.3722 22.7802 23.3702 22.7802 23.3692C22.7862 23.3592 22.8162 23.3362 22.8542 23.3082C22.8242 23.3352 22.8052 23.3572 22.7942 23.3772ZM23.8282 22.0702C23.8282 22.0692 23.8272 22.0682 23.8272 22.0672C23.8272 22.0682 23.8282 22.0682 23.8292 22.0702H23.8282ZM24.0112 20.6882L24.0032 20.6962C23.9992 20.6532 23.9862 20.6292 23.9762 20.5992C23.9892 20.6232 24.0002 20.6542 24.0112 20.6882ZM22.6152 18.5182L22.6022 18.5112C22.6312 18.5002 22.6612 18.4892 22.6902 18.4782L22.6152 18.5182ZM22.0492 16.2302H22.0472C22.0442 16.2272 22.0382 16.2272 22.0352 16.2242C22.0382 16.2262 22.0472 16.2282 22.0492 16.2302ZM20.6392 12.8862L20.6342 12.8882V12.8482L20.6392 12.8862ZM20.0052 12.8192C20.0052 12.8192 20.0152 12.8192 20.0182 12.8192C20.0262 12.8272 20.0292 12.8292 20.0412 12.8402C20.0292 12.8332 20.0142 12.8222 20.0052 12.8192ZM19.9042 13.2942C19.9042 13.2942 19.9182 13.2942 19.9232 13.2932C19.9342 13.3022 19.9392 13.3052 19.9582 13.3212C19.9392 13.3112 19.9152 13.2962 19.9042 13.2952V13.2942ZM20.2942 13.9262C20.2942 13.9262 20.2932 13.9352 20.2932 13.9362C20.2902 13.9332 20.2762 13.9222 20.2552 13.9052C20.2692 13.9132 20.2852 13.9232 20.2942 13.9262ZM18.1792 16.4742C18.1792 16.4742 18.1842 16.4672 18.1862 16.4642C18.1992 16.4672 18.2102 16.4702 18.2442 16.4792C18.2152 16.4752 18.1852 16.4712 18.1792 16.4742ZM17.5592 19.2282L17.5642 19.2302C17.5642 19.2332 17.5642 19.2362 17.5662 19.2402C17.5642 19.2372 17.5612 19.2282 17.5592 19.2272V19.2282ZM17.6152 19.4962C17.6162 19.5012 17.6192 19.5142 17.6192 19.5142C17.5932 19.4932 17.5652 19.4812 17.5392 19.4622C17.5652 19.4742 17.5882 19.4822 17.6152 19.4962ZM19.4212 21.3552V21.3642C19.3852 21.3432 19.3502 21.3272 19.3162 21.3072C19.3512 21.3232 19.3852 21.3392 19.4212 21.3552ZM18.5962 21.1832C18.5962 21.1832 18.5962 21.1842 18.5962 21.1852C18.5872 21.1792 18.5792 21.1742 18.5702 21.1682C18.5792 21.1732 18.5872 21.1782 18.5962 21.1832ZM17.6432 21.0132C17.6432 21.0132 17.6432 21.0162 17.6422 21.0182C17.6422 21.0182 17.6372 21.0122 17.6342 21.0092C17.6372 21.0112 17.6402 21.0122 17.6432 21.0132ZM18.3732 22.4582C18.3732 22.4582 18.3732 22.4602 18.3722 22.4622C18.3712 22.4622 18.3602 22.4522 18.3582 22.4492C18.3632 22.4522 18.3702 22.4562 18.3742 22.4582H18.3732ZM17.6852 22.1062C17.6852 22.1062 17.6902 22.1082 17.6922 22.1082C17.6922 22.1112 17.6932 22.1142 17.6942 22.1182C17.6912 22.1152 17.6882 22.1072 17.6852 22.1062ZM17.7562 22.3912L17.7592 22.4032C17.7592 22.4032 17.7392 22.3942 17.7092 22.3812C17.7272 22.3862 17.7462 22.3912 17.7562 22.3912ZM16.9132 23.4442C16.9132 23.4442 16.9112 23.4492 16.9132 23.4532C16.9022 23.4492 16.8882 23.4422 16.8762 23.4372L16.9132 23.4442ZM16.5832 24.8852L16.5812 24.8862H16.5792C16.5812 24.8862 16.5822 24.8862 16.5842 24.8862L16.5832 24.8852ZM16.7662 25.9982C16.7712 26.0062 16.7732 26.0112 16.7782 26.0192C16.7102 25.9932 16.6502 25.9822 16.5852 25.9632C16.6462 25.9752 16.6972 25.9822 16.7652 25.9982H16.7662Z" fill="#018434"/>
</g>
<defs>
<clipPath id="clip0_74_4419">
<rect width="40" height="40" fill="white" transform="translate(0.5 0.5)"/>
</clipPath>
</defs>
</svg>
