<svg width="41" height="41" viewBox="0 0 41 41" fill="none" xmlns="http://www.w3.org/2000/svg">
<path d="M2.5 28.4998C2.5 30.7088 4.291 32.4998 6.5 32.4998H34.5C36.709 32.4998 38.5 30.7088 38.5 28.4998V24.5068H2.5V28.4998Z" fill="#0E5EAE"/>
<path d="M34.5 8.5H6.5C4.291 8.5 2.5 10.291 2.5 12.5V16.494H38.5V12.5C38.5 10.291 36.709 8.5 34.5 8.5Z" fill="#0E5EAE"/>
<path d="M20.9297 23.7173V24.1763C21.9337 24.0473 22.8057 23.5293 23.4007 22.7703L22.9717 22.5703C22.4637 23.1773 21.7497 23.5963 20.9297 23.7173Z" fill="#A0C033"/>
<path d="M23.3633 21.9861L23.8113 22.1211C23.8653 22.0111 23.9173 21.9011 23.9603 21.7851L23.5193 21.6611C23.4753 21.7741 23.4193 21.8791 23.3633 21.9861Z" fill="#A0C033"/>
<path d="M20.4496 17.1612C20.6446 17.1612 20.8326 17.1862 21.0176 17.2182L21.1106 16.7672C20.8946 16.7282 20.6756 16.7002 20.4496 16.7002C20.2016 16.7002 19.9606 16.7272 19.7266 16.7732L19.8926 17.2172C20.0746 17.1862 20.2586 17.1612 20.4496 17.1612Z" fill="#A0C033"/>
<path d="M23.7508 20.4631C23.7508 20.6511 23.7258 20.8331 23.6958 21.0131L24.1628 20.9481C24.1838 20.7881 24.2118 20.6291 24.2118 20.4631C24.2118 18.8531 23.1958 17.4901 21.7738 16.9531L21.5488 17.3631C22.8288 17.8181 23.7518 19.0271 23.7518 20.4631H23.7508Z" fill="#A0C033"/>
<path d="M17.4786 21.8818L17.0156 21.9878C17.0646 22.0988 17.1286 22.2008 17.1886 22.3058L17.6296 22.1588C17.5756 22.0688 17.5236 21.9768 17.4786 21.8818Z" fill="#A0C033"/>
<path d="M18.0025 22.665L17.5605 22.848C18.1815 23.599 19.0815 24.098 20.1075 24.191V23.732C19.2725 23.645 18.5345 23.256 18.0025 22.665Z" fill="#A0C033"/>
<path d="M17.1465 20.4635C17.1465 19.0265 18.0705 17.8165 19.3525 17.3625L19.1785 16.9375C17.7295 17.4605 16.6875 18.8345 16.6875 20.4635C16.6875 20.7385 16.7205 21.0055 16.7765 21.2635L17.2355 21.1975C17.1815 20.9605 17.1465 20.7165 17.1465 20.4635Z" fill="#A0C033"/>
<path d="M17.8105 22.176L17.8485 22.243H23.0655L23.0835 22.211L20.4375 17.627L17.8105 22.176ZM22.8055 22.063H18.0665L19.5155 19.555L19.5455 19.495L19.5525 19.49L20.4365 17.96L21.2855 19.43H21.2865L21.3165 19.485L22.8055 22.063Z" fill="#0E5EAE"/>
<path d="M21.2733 19.6964L20.6953 20.0994L21.4633 20.1534L20.6953 20.2084L21.3243 20.6474L20.6393 20.3184L20.9693 21.0044L20.5313 20.3744L20.4863 20.9894L20.6953 20.7604L21.0043 21.0444H21.0303L21.3143 20.7474L21.5683 21.0374H21.6033L21.8433 20.7724L22.0513 21.0314L22.2093 21.0294L22.8073 22.0634L21.3193 19.4854L21.5203 19.8444C21.5203 19.8444 21.4323 19.7714 21.2733 19.6964Z" fill="#3AA9E1"/>
<path d="M20.2952 19.9608L20.1202 19.5908C20.1052 19.5938 20.0882 19.5928 20.0732 19.5968C19.9502 19.6288 19.8422 19.6728 19.7422 19.7158L20.2992 19.9838C20.2972 19.9738 20.2952 19.9608 20.2952 19.9608Z" fill="#3AA9E1"/>
<path d="M21.2857 19.4309L20.4367 17.9609L19.5527 19.4909C19.5737 19.4759 20.0457 19.1469 20.4747 19.1469C20.9107 19.1469 21.2817 19.4279 21.2857 19.4309Z" fill="#3AA9E1"/>
<path d="M20.559 19.8942L20.788 19.5642C20.704 19.5522 20.625 19.5342 20.527 19.5342C20.518 19.5342 20.511 19.5372 20.502 19.5372L20.526 19.8662L20.558 19.8932L20.559 19.8942Z" fill="#3AA9E1"/>
<path d="M18.9574 21.0687L19.4174 20.6947L19.7384 21.0587L19.8744 21.0567L20.0434 20.8747L20.3104 20.3167L19.6254 20.6457L20.2564 20.2067L19.4884 20.1517L20.2564 20.0977L19.7184 19.7227C19.4834 19.8257 19.3274 19.9327 19.3274 19.9327L19.4174 19.7527L19.4824 19.6237L19.5174 19.5537L18.0684 22.0617L18.6414 21.0717L18.9574 21.0687Z" fill="#3AA9E1"/>
<path d="M21.2607 19.6903C21.1537 19.6413 21.0067 19.6003 20.8397 19.5713L20.6387 19.9903L21.2607 19.6903Z" fill="#3AA9E1"/>
<path d="M20.1426 20.7735L20.4186 21.0505H20.4286L20.4656 21.0095L20.4246 20.4265C20.4186 20.4185 20.4116 20.4065 20.4046 20.3965L20.1426 20.7735Z" fill="#3AA9E1"/>
<path d="M20.4278 19.8269L20.4478 19.5459C20.3538 19.5509 20.2638 19.5649 20.1758 19.5829L20.3788 19.8749L20.4278 19.8269Z" fill="#3AA9E1"/>
<path d="M20.4735 21.1403L20.4645 21.0103L20.4275 21.0513L20.4225 21.0563L20.4175 21.0513L20.1415 20.7743L19.9815 21.0033L20.0425 20.8753L19.8735 21.0573L19.8035 21.1333L19.7385 21.0593L19.4175 20.6953L18.9575 21.0693L18.5275 21.4183L18.4375 21.5863C18.4375 21.5863 19.3145 21.7153 19.8045 21.6503C20.2945 21.5853 20.6565 21.4433 21.2755 21.4953C21.8945 21.5463 22.3455 21.4573 22.3455 21.4573L22.2685 21.3023L22.0505 21.0313L21.8425 20.7723L21.6025 21.0363L21.5845 21.0563L21.5675 21.0363L21.3135 20.7463L21.0295 21.0433L21.0175 21.0563L21.0035 21.0443L20.6945 20.7603L20.4855 20.9893L20.4745 21.1413L20.4735 21.1403ZM19.6995 21.5213L19.3645 21.0313L19.4025 20.8513L19.9955 21.4963L19.6985 21.5223L19.6995 21.5213ZM20.3705 21.3673L20.1385 21.0443L20.1125 20.9023L20.5905 21.3283L20.3705 21.3673ZM21.7765 20.8903L21.7905 20.9793L21.6485 21.2503L21.5845 21.1333L21.7775 20.8893L21.7765 20.8903ZM21.0935 21.0313L21.2605 20.8763L21.1715 21.1213L21.0935 21.0313ZM20.7195 20.8763L21.1325 21.2633L21.0295 21.3273L20.6945 20.9653L20.7195 20.8763Z" fill="#45922B"/>
<path d="M20.4489 19.8047L20.4279 19.8257L20.3799 19.8737L20.2959 19.9577C20.2959 19.9577 20.2969 19.9727 20.2989 19.9827C20.3069 20.0347 20.3319 20.1977 20.3209 20.2307C20.3129 20.2547 20.3649 20.3367 20.4049 20.3967C20.4119 20.4067 20.4189 20.4187 20.4249 20.4267C20.4399 20.4477 20.4499 20.4617 20.4499 20.4617L20.6429 20.2307L20.5919 19.9207L20.5579 19.8937L20.5259 19.8667L20.4499 19.8047H20.4489Z" fill="#F2003E"/>
<path d="M21.2855 19.4314C21.2855 19.4314 20.9105 19.1484 20.4745 19.1484C20.0465 19.1484 19.5735 19.4774 19.5525 19.4924L19.5455 19.4974L19.5155 19.5574L19.4805 19.6264C19.4805 19.6264 20.0235 19.2794 20.4605 19.2794C20.8975 19.2794 21.3505 19.5504 21.3505 19.5504L21.5175 19.8474L21.3165 19.4884L21.2865 19.4344H21.2855V19.4314Z" fill="#00679B"/>
<path d="M19.416 19.7544C19.416 19.7544 20.023 19.4314 20.461 19.4314C21.054 19.4054 21.403 19.6504 21.403 19.6504L21.519 19.8434L21.352 19.5464C21.352 19.5464 20.901 19.2754 20.462 19.2754C20.023 19.2754 19.482 19.6224 19.482 19.6224L19.417 19.7514L19.416 19.7544Z" fill="#FFC829"/>
<path d="M20.4612 19.4316C20.0232 19.4316 19.4182 19.7536 19.4162 19.7546L19.3262 19.9346C19.3262 19.9346 19.4822 19.8276 19.7172 19.7246C19.7242 19.7216 19.7332 19.7186 19.7412 19.7156C19.8412 19.6726 19.9492 19.6296 20.0722 19.5966C20.0872 19.5926 20.1042 19.5936 20.1192 19.5906C20.1372 19.5866 20.1572 19.5866 20.1762 19.5826C20.2642 19.5636 20.3542 19.5506 20.4482 19.5456C20.4672 19.5456 20.4832 19.5386 20.5022 19.5386C20.5112 19.5386 20.5182 19.5356 20.5272 19.5356C20.6252 19.5356 20.7032 19.5526 20.7882 19.5656C20.8052 19.5686 20.8242 19.5686 20.8412 19.5716C21.0082 19.6016 21.1562 19.6426 21.2622 19.6906C21.2672 19.6926 21.2682 19.6946 21.2732 19.6966C21.4322 19.7716 21.5202 19.8446 21.5202 19.8446L21.4042 19.6516C21.4042 19.6516 21.0552 19.4066 20.4622 19.4326L20.4612 19.4316Z" fill="#F2003E"/>
<path d="M22.0504 21.0313L22.2684 21.3023L22.3454 21.4573C22.3454 21.4573 21.8944 21.5473 21.2754 21.4953C20.6564 21.4443 20.2944 21.5853 19.8044 21.6503C19.3144 21.7153 18.4374 21.5863 18.4374 21.5863L18.5274 21.4183L18.9574 21.0693L18.6414 21.0733L18.0684 22.0633H22.8074L22.2094 21.0293L22.0514 21.0313H22.0504Z" fill="#E3E7EA"/>
<path d="M21.6014 21.0361L21.5664 21.0371L21.5834 21.0561L21.6014 21.0361Z" fill="#E3E7EA"/>
<path d="M21.0299 21.043L21.0039 21.044L21.0179 21.056L21.0299 21.043Z" fill="#E3E7EA"/>
<path d="M19.8743 21.0586L19.7383 21.0606L19.8043 21.1346L19.8743 21.0586Z" fill="#E3E7EA"/>
<path d="M20.423 21.0558L20.428 21.0508H20.418L20.423 21.0558Z" fill="#E3E7EA"/>
<path d="M19.4032 20.8516L19.3652 21.0316L19.7002 21.5216L19.9962 21.4956L19.4032 20.8516Z" fill="#E3E7EA"/>
<path d="M20.1133 20.9023L20.1393 21.0443L20.3713 21.3673L20.5913 21.3283L20.1133 20.9023Z" fill="#E3E7EA"/>
<path d="M21.2607 20.876L21.0938 21.031L21.1718 21.121L21.2607 20.876Z" fill="#E3E7EA"/>
<path d="M21.791 20.9796L21.777 20.8906L21.584 21.1346L21.649 21.2506L21.791 20.9796Z" fill="#E3E7EA"/>
<path d="M21.0284 21.328L21.1324 21.263L20.7194 20.876L20.6934 20.966L21.0284 21.328Z" fill="#E3E7EA"/>
<path d="M20.3791 19.875L20.1761 19.583C20.1581 19.587 20.1371 19.586 20.1191 19.591L20.2951 19.959L20.3791 19.875Z" fill="#E3E7EA"/>
<path d="M20.6398 19.9904L20.8408 19.5714C20.8238 19.5684 20.8048 19.5684 20.7878 19.5654L20.5588 19.8954L20.5928 19.9224L20.6438 20.2324L20.4508 20.4634C20.4508 20.4634 20.4398 20.4494 20.4258 20.4284L20.4668 21.0114L20.4758 21.1414L20.4868 20.9894L20.5318 20.3744L20.9698 21.0044L20.6398 20.3184L21.3248 20.6474L20.6958 20.2084L21.4638 20.1534L20.6958 20.0994L21.2738 19.6964C21.2738 19.6964 21.2678 19.6924 21.2628 19.6904L20.6398 19.9904Z" fill="#E3E7EA"/>
<path d="M20.4497 19.8051L20.5257 19.8671L20.5017 19.5381C20.4827 19.5381 20.4667 19.5441 20.4477 19.5451L20.4277 19.8261L20.4497 19.8051Z" fill="#E3E7EA"/>
<path d="M20.1413 20.7738L20.4033 20.3978C20.3623 20.3378 20.3113 20.2558 20.3193 20.2318C20.3313 20.1988 20.3063 20.0368 20.2973 19.9838L19.7403 19.7158C19.7333 19.7188 19.7233 19.7208 19.7163 19.7248L20.2543 20.0998L19.4863 20.1538L20.2543 20.2088L19.6233 20.6478L20.3083 20.3188L20.0413 20.8768L19.9803 21.0048L20.1403 20.7758L20.1413 20.7738Z" fill="#E3E7EA"/>
<path d="M2.5 16.4902V24.5102H38.5V16.4902H2.5ZM20.45 16.7002C20.68 16.7002 20.89 16.7302 21.11 16.7702L21.02 17.2202C20.83 17.1902 20.64 17.1602 20.45 17.1602C20.26 17.1602 20.07 17.1902 19.89 17.2202L19.73 16.7702C19.96 16.7302 20.2 16.7002 20.45 16.7002ZM20.44 17.6302L23.08 22.2102L23.07 22.2402H17.85L17.81 22.1802L20.44 17.6302ZM16.69 20.4602C16.69 18.8302 17.73 17.4602 19.18 16.9402L19.35 17.3602C18.07 17.8202 17.15 19.0302 17.15 20.4602C17.15 20.7202 17.18 20.9602 17.23 21.2002L16.78 21.2602C16.72 21.0002 16.69 20.7402 16.69 20.4602ZM17.02 21.9902L17.48 21.8802C17.52 21.9802 17.57 22.0702 17.63 22.1602L17.19 22.3102C17.13 22.2002 17.06 22.1002 17.02 21.9902ZM20.11 24.1902C19.08 24.1002 18.18 23.6002 17.56 22.8502L18 22.6602C18.54 23.2602 19.27 23.6402 20.11 23.7302V24.1902ZM20.93 24.1802V23.7202C21.75 23.6002 22.46 23.1802 22.97 22.5702L23.4 22.7702C22.81 23.5302 21.93 24.0502 20.93 24.1802ZM23.81 22.1202L23.36 21.9902C23.42 21.8802 23.47 21.7702 23.52 21.6602L23.96 21.7902C23.92 21.9002 23.86 22.0102 23.81 22.1202ZM24.16 20.9502L23.7 21.0102C23.73 20.8302 23.75 20.6502 23.75 20.4602C23.75 19.0302 22.83 17.8202 21.55 17.3602L21.77 16.9502C23.2 17.4902 24.21 18.8502 24.21 20.4602C24.21 20.6302 24.18 20.7902 24.16 20.9502Z" fill="#E3E7EA"/>
</svg>
