<svg width="41" height="41" viewBox="0 0 41 41" fill="none" xmlns="http://www.w3.org/2000/svg">
<path d="M34.5 8.5H6.5C4.29086 8.5 2.5 10.2909 2.5 12.5V28.5C2.5 30.7091 4.29086 32.5 6.5 32.5H34.5C36.7091 32.5 38.5 30.7091 38.5 28.5V12.5C38.5 10.2909 36.7091 8.5 34.5 8.5Z" fill="#E3E7EA"/>
<path d="M38.5 28.5152V24.4902H2.5V28.5152C2.5 30.6502 4.179 32.3792 6.287 32.4892H34.714C36.822 32.3782 38.5 30.6502 38.5 28.5152Z" fill="#2C458C"/>
<path d="M38.5 12.5058C38.5 10.2988 36.711 8.50977 34.505 8.50977H6.495C4.288 8.50977 2.5 10.2988 2.5 12.5058V16.4898H38.5V12.5058Z" fill="#AE002F"/>
</svg>
