<svg width="41" height="41" viewBox="0 0 41 41" fill="none" xmlns="http://www.w3.org/2000/svg">
<path d="M34.5 8.5H6.5C4.29086 8.5 2.5 10.2909 2.5 12.5V28.5C2.5 30.7091 4.29086 32.5 6.5 32.5H34.5C36.7091 32.5 38.5 30.7091 38.5 28.5V12.5C38.5 10.2909 36.7091 8.5 34.5 8.5Z" fill="#F10030"/>
<path d="M11.597 8.521V17.5H2.5V19H11.597H13.112V17.5V8.521V8.5H11.597V8.521Z" fill="#E3E7EA"/>
<path d="M2.5 22V23.5H11.597V32.5H13.112V23.5V22H11.597H2.5Z" fill="#E3E7EA"/>
<path d="M17.6605 17.5V8.521V8.5H16.1445V8.521V17.5V19H17.6605H38.4995V17.5H17.6605Z" fill="#E3E7EA"/>
<path d="M16.1445 22V23.5V32.5H17.6605V23.5H38.4995V22H17.6605H16.1445Z" fill="#E3E7EA"/>
<path d="M17.661 19H16.145V17.5V8.521V8.5H13.112V8.521V17.5V19H11.597H2.5V22H11.597H13.112V23.5V32.5H16.145V23.5V22H17.661H38.5V19H17.661Z" fill="#262B69"/>
</svg>
