<svg width="41" height="41" viewBox="0 0 41 41" fill="none" xmlns="http://www.w3.org/2000/svg">
<path d="M29.0239 20.4526L11.7969 9.51758V31.4816H28.5859L17.7039 20.4526H29.0239Z" fill="#CF002E"/>
<path d="M29.0239 20.4526L11.7969 9.51758V31.4826H28.5859L17.7039 20.4536H29.0239V20.4526ZM27.5949 31.0666H12.2059V10.2686L27.5949 20.0366H16.7139L27.5949 31.0666Z" fill="#233990"/>
<path d="M12.9883 16.3756C12.9883 18.0906 14.3613 19.4796 16.0533 19.4796C17.7453 19.4796 19.1163 18.0906 19.1183 16.3756C18.8493 17.0656 18.3623 17.6416 17.7423 18.0186L17.4793 17.8186L17.9953 17.4266L17.3703 17.2656L17.6993 16.7036L17.0613 16.7966L17.1533 16.1496L16.5993 16.4836L16.4403 15.8496L16.0543 16.3726L15.6683 15.8496L15.5083 16.4836L14.9533 16.1496L15.0453 16.7966L14.4073 16.7036L14.7363 17.2646L14.1113 17.4266L14.6283 17.8186L14.3653 18.0186C13.7453 17.6416 13.2573 17.0656 12.9903 16.3756H12.9883Z" fill="#E3E7EA"/>
<path d="M18.0708 25.0039L18.9058 23.8829L17.5308 24.0549L17.7008 22.6609L16.5948 23.5069H16.5938L16.0538 22.2129L15.5128 23.5069L14.4068 22.6609L14.5768 24.0549L13.2018 23.8829L14.0358 25.0039L12.7598 25.5519L14.0358 26.0999L13.2018 27.2209L14.5768 27.0489L14.4068 28.4429L15.5128 27.5969L16.0538 28.8899L16.5938 27.5969H16.5948L17.7008 28.4429L17.5308 27.0489L18.9058 27.2209L18.0708 26.0999L19.3458 25.5519L18.0708 25.0039Z" fill="#E3E7EA"/>
</svg>
