<svg width="41" height="41" viewBox="0 0 41 41" fill="none" xmlns="http://www.w3.org/2000/svg">
<path d="M34.5 8.5H6.5C4.29086 8.5 2.5 10.2909 2.5 12.5V28.5C2.5 30.7091 4.29086 32.5 6.5 32.5H34.5C36.7091 32.5 38.5 30.7091 38.5 28.5V12.5C38.5 10.2909 36.7091 8.5 34.5 8.5Z" fill="#2B317D"/>
<path d="M38.5 19.5H2.5V21.5H38.5V19.5Z" fill="#FCC200"/>
<path d="M10.3241 29.501L9.80111 27.432L8.30511 28.964L8.89711 26.914L6.82811 27.5L8.37411 26.018L6.28711 25.5L8.37411 24.982L6.82811 23.5L8.89711 24.086L8.30511 22.036L9.80111 23.568L10.3241 21.5L10.8461 23.568L12.3421 22.036L11.7511 24.086L13.8201 23.5L12.2731 24.982L14.3601 25.5L12.2731 26.018L13.8201 27.5L11.7511 26.914L12.3421 28.964L10.8461 27.432L10.3241 29.501Z" fill="#E3E7EA"/>
</svg>
