<svg width="41" height="41" viewBox="0 0 41 41" fill="none" xmlns="http://www.w3.org/2000/svg">
<path d="M13.9844 11.929V12.231C14.1134 12.327 14.2274 12.44 14.3244 12.568H23.3794V11.878H18.7554L23.3794 9.58702V8.49902H23.2394L16.4194 11.878H14.8634L21.6834 8.49902H20.9054L14.6804 11.583V8.49902H13.9844V11.929Z" fill="#E3E7EA"/>
<path d="M11.199 12.569H11.555C11.652 12.442 11.766 12.329 11.895 12.232V8.5H11.199V11.584L5.35 8.686C5.345 8.688 5.34 8.69 5.335 8.692C5.135 8.753 4.941 8.828 4.755 8.916C4.722 8.931 4.693 8.951 4.66 8.967C4.493 9.051 4.331 9.143 4.179 9.251C4.176 9.253 4.172 9.255 4.169 9.257L9.459 11.878H7.903L3.604 9.749C3.522 9.835 3.452 9.93 3.378 10.023L7.123 11.879H2.5V12.569H11.199Z" fill="#E3E7EA"/>
<path d="M14.6804 14.6377H14.3244C14.2274 14.7657 14.1134 14.8777 13.9844 14.9747V18.7757H14.6804V15.6217L21.0454 18.7757H23.3794L16.4194 15.3277H17.9754L23.3794 18.0047V17.6187L18.7554 15.3277H23.3794V14.6377H14.6804Z" fill="#E3E7EA"/>
<path d="M11.016 15.3277L4.056 18.7757H4.834L11.199 15.6217V18.7757H11.895V14.9747C11.766 14.8787 11.652 14.7657 11.555 14.6377H2.5V15.3277H7.124L2.5 17.6187V18.7757L9.46 15.3277H11.016Z" fill="#E3E7EA"/>
<path d="M14.6793 12.5693H14.3233C14.4383 12.7203 14.5253 12.8883 14.5863 13.0713H14.5943L14.5873 13.0763C14.6103 13.1483 14.6343 13.2193 14.6473 13.2943C14.6663 13.3953 14.6793 13.4983 14.6793 13.6043C14.6793 13.7103 14.6663 13.8133 14.6473 13.9143C14.5973 14.1843 14.4833 14.4283 14.3223 14.6393H23.3773V12.5693H14.6783H14.6793ZM18.7943 13.3833L19.0283 12.6683L19.2623 13.3833H20.0213L19.4073 13.8243L19.6413 14.5393L19.0273 14.0973L18.4133 14.5393L18.6473 13.8243L18.0333 13.3833H18.7923H18.7943Z" fill="#CF002E"/>
<path d="M11.199 14.6384H11.555C11.395 14.4284 11.28 14.1834 11.23 13.9134C11.211 13.8124 11.198 13.7094 11.198 13.6034C11.198 13.4974 11.211 13.3944 11.23 13.2934C11.244 13.2184 11.267 13.1474 11.29 13.0754L11.283 13.0704H11.291C11.351 12.8874 11.439 12.7184 11.554 12.5684H2.5V14.6384H11.199ZM7.463 14.5394L6.849 14.0974L6.235 14.5394L6.469 13.8244L5.855 13.3834H6.614L6.848 12.6684L7.082 13.3834H7.841L7.227 13.8244L7.461 14.5394H7.463Z" fill="#CF002E"/>
<path d="M11.8945 11.929V12.231C11.9795 12.167 12.0715 12.112 12.1675 12.064C12.4005 11.949 12.6605 11.878 12.9385 11.878C13.2165 11.878 13.4765 11.949 13.7095 12.064C13.8065 12.112 13.8975 12.167 13.9825 12.231V8.49902H11.8945V11.929ZM12.7045 9.93402L12.9385 9.21902L13.1725 9.93402H13.9315L13.3175 10.376L13.5515 11.09L12.9375 10.649L12.3235 11.09L12.5575 10.376L11.9435 9.93402H12.7025H12.7045Z" fill="#CF002E"/>
<path d="M13.9845 15.2776V14.9756C13.9765 14.9816 13.9695 14.9886 13.9615 14.9946L13.9635 14.9996L13.9595 14.9966C13.8815 15.0526 13.7985 15.0996 13.7115 15.1426C13.4785 15.2576 13.2185 15.3286 12.9405 15.3286C12.6625 15.3286 12.4025 15.2576 12.1695 15.1426C12.0825 15.0996 11.9995 15.0526 11.9215 14.9966L11.9175 14.9996L11.9195 14.9946C11.9115 14.9886 11.9045 14.9816 11.8965 14.9756V18.7766H13.9845V15.2776ZM13.5545 17.9886L12.9405 17.5466L12.3265 17.9886L12.5605 17.2736L11.9465 16.8316H12.7055L12.9395 16.1166L13.1735 16.8316H13.9325L13.3185 17.2736L13.5525 17.9886H13.5545Z" fill="#CF002E"/>
<path d="M11.016 15.3281H9.46L2.5 18.7761H4.056L11.016 15.3281Z" fill="#CF002E"/>
<path d="M16.4193 11.879L23.2393 8.5H21.6833L14.8633 11.879H16.4193Z" fill="#CF002E"/>
<path d="M16.4199 15.3281L23.3799 18.7761V18.0051L17.9759 15.3281H16.4199Z" fill="#CF002E"/>
<path d="M7.90252 11.8788H9.45852L4.16852 9.25781C4.14952 9.27181 4.13452 9.28981 4.11552 9.30381C3.93652 9.43681 3.76552 9.58081 3.61152 9.74181C3.60852 9.74481 3.60552 9.74681 3.60352 9.74881L7.90252 11.8788Z" fill="#CF002E"/>
<path d="M23.3799 11.8789V9.58789L18.7559 11.8789H23.3799Z" fill="#262B69"/>
<path d="M4.83398 18.776H11.199V15.623L4.83398 18.776Z" fill="#262B69"/>
<path d="M14.6797 18.776H21.0447L14.6797 15.623V18.776Z" fill="#262B69"/>
<path d="M11.1996 11.584V8.5H6.49656C6.27756 8.5 6.06556 8.526 5.85856 8.565C5.69256 8.596 5.52856 8.635 5.36756 8.683C5.36256 8.685 5.35656 8.685 5.35156 8.687L11.2006 11.585L11.1996 11.584Z" fill="#262B69"/>
<path d="M20.9047 8.5H14.6797V11.584L20.9047 8.5Z" fill="#262B69"/>
<path d="M2.5 15.3281V17.6191L7.124 15.3281H2.5Z" fill="#262B69"/>
<path d="M23.3799 17.6191V15.3281H18.7559L23.3799 17.6191Z" fill="#262B69"/>
<path d="M7.12445 11.8794L3.37945 10.0234C3.37445 10.0294 3.37045 10.0364 3.36645 10.0424C3.07945 10.4084 2.85845 10.8244 2.71245 11.2754C2.69545 11.3274 2.67845 11.3794 2.66345 11.4324C2.62345 11.5774 2.58745 11.7244 2.56445 11.8754C2.56445 11.8754 2.56445 11.8774 2.56445 11.8794H7.12645H7.12445Z" fill="#262B69"/>
<path d="M11.896 13.0709H12.55L12.714 12.5689L12.718 12.5569L12.78 12.3679L12.94 11.8789C12.662 11.8789 12.402 11.9499 12.169 12.0649C12.072 12.1129 11.981 12.1679 11.896 12.2319C11.767 12.3279 11.653 12.4409 11.556 12.5689C11.441 12.7199 11.354 12.8879 11.293 13.0709H11.896Z" fill="#262B69"/>
<path d="M13.9843 13.5102L13.5723 13.8062L13.7523 14.3572L13.8443 14.6382L13.9603 14.9942C13.9683 14.9882 13.9753 14.9812 13.9833 14.9752C14.1123 14.8792 14.2263 14.7662 14.3233 14.6382C14.4833 14.4282 14.5983 14.1832 14.6483 13.9132C14.6673 13.8122 14.6803 13.7092 14.6803 13.6032C14.6803 13.4972 14.6673 13.3942 14.6483 13.2932C14.6343 13.2182 14.6113 13.1472 14.5883 13.0752L14.4333 13.1862L13.9833 13.5092L13.9843 13.5102Z" fill="#262B69"/>
<path d="M13.1615 12.5569L13.1655 12.5689L13.3295 13.0709H14.5865C14.5265 12.8879 14.4385 12.7189 14.3235 12.5689C14.2265 12.4419 14.1125 12.3289 13.9835 12.2319C13.8985 12.1679 13.8065 12.1129 13.7105 12.0649C13.4775 11.9499 13.2175 11.8789 12.9395 11.8789L13.0995 12.3679L13.1615 12.5569Z" fill="#262B69"/>
<path d="M12.0343 14.6382L12.1263 14.3572L12.3063 13.8062L11.8943 13.5102L11.4443 13.1872L11.2893 13.0762C11.2663 13.1482 11.2423 13.2192 11.2293 13.2942C11.2103 13.3952 11.1973 13.4982 11.1973 13.6042C11.1973 13.7102 11.2103 13.8132 11.2293 13.9142C11.2793 14.1842 11.3933 14.4282 11.5543 14.6392C11.6513 14.7672 11.7653 14.8792 11.8943 14.9762C11.9023 14.9822 11.9093 14.9892 11.9173 14.9952L12.0333 14.6392L12.0343 14.6382Z" fill="#262B69"/>
<path d="M13.3499 14.5567L12.9399 14.2617L12.5299 14.5567L12.4169 14.6377L11.9199 14.9957C11.9979 15.0517 12.0809 15.0997 12.1679 15.1417C12.4009 15.2567 12.6609 15.3277 12.9389 15.3277C13.2169 15.3277 13.4769 15.2567 13.7099 15.1417C13.7969 15.0987 13.8799 15.0517 13.9579 14.9957L13.4609 14.6377L13.3479 14.5567H13.3499Z" fill="#262B69"/>
<path d="M2.5625 11.8746C2.5865 11.7236 2.6215 11.5766 2.6615 11.4316C2.6215 11.5766 2.5865 11.7226 2.5625 11.8746Z" fill="#F9CF00"/>
<path d="M5.36523 8.68343C5.52523 8.63543 5.68923 8.59643 5.85623 8.56543C5.68723 8.59243 5.52623 8.63543 5.36523 8.68343Z" fill="#F9CF00"/>
<path d="M34.5 8.5H23.379V18.776H2.5V28.5C2.5 30.709 4.291 32.5 6.5 32.5H34.5C36.709 32.5 38.5 30.709 38.5 28.5V12.5C38.5 10.291 36.709 8.5 34.5 8.5Z" fill="#F9CF00"/>
<path d="M4.75586 8.91736C4.94186 8.82936 5.13586 8.75436 5.33586 8.69336C5.13486 8.75436 4.94086 8.82636 4.75586 8.91736Z" fill="#F9CF00"/>
<path d="M2.71094 11.275C2.85694 10.824 3.07794 10.409 3.36494 10.042C3.07794 10.408 2.85694 10.822 2.71094 11.275Z" fill="#F9CF00"/>
<path d="M3.61328 9.74171C3.76728 9.58071 3.93828 9.43671 4.11728 9.30371C3.93828 9.43771 3.76728 9.58071 3.61328 9.74171Z" fill="#F9CF00"/>
<path d="M4.17969 9.25177C4.33069 9.14377 4.49369 9.05177 4.66069 8.96777C4.49469 9.05477 4.33169 9.14377 4.17969 9.25177Z" fill="#F9CF00"/>
<path d="M11.8942 13.5099L12.3062 13.8069L12.1262 14.3569L12.0342 14.6379L11.9172 14.9939L11.9162 14.9989L11.9192 14.9959L12.4162 14.6379L12.5292 14.5569L12.9382 14.2619L13.3482 14.5569L13.4602 14.6379L13.9572 14.9959L13.9612 14.9989L13.9592 14.9939L13.8432 14.6379L13.7512 14.3569L13.5712 13.8069L13.9832 13.5099L14.4322 13.1869L14.5872 13.0759L14.5932 13.0709H14.5852H14.1982H13.9832H13.3292L13.1642 12.5689L13.1602 12.5569L13.0982 12.3679L12.9382 11.8789L12.7782 12.3679L12.7162 12.5569L12.7132 12.5689L12.5482 13.0709H11.8942H11.6782H11.2912H11.2832L11.2902 13.0759L11.4442 13.1869L11.8942 13.5099Z" fill="#F9CF00"/>
<path d="M13.1733 16.8312L12.9383 16.1162L12.7043 16.8312H11.9453L12.5593 17.2732L12.3253 17.9882L12.9383 17.5462L13.5523 17.9882L13.3183 17.2732L13.9323 16.8312H13.1733Z" fill="#F9CF00"/>
<path d="M12.3253 11.0907L12.9383 10.6497L13.5523 11.0907L13.3183 10.3767L13.9323 9.93475H13.1733L12.9383 9.21875L12.7043 9.93475H11.9453L12.5593 10.3767L12.3253 11.0907Z" fill="#F9CF00"/>
<path d="M7.08347 13.383L6.84847 12.668L6.61447 13.383H5.85547L6.46947 13.824L6.23547 14.539L6.84847 14.097L7.46247 14.539L7.22847 13.824L7.84247 13.383H7.08347Z" fill="#F9CF00"/>
<path d="M18.4142 14.539L19.0282 14.097L19.6422 14.539L19.4082 13.824L20.0212 13.383H19.2632L19.0282 12.668L18.7942 13.383H18.0352L18.6492 13.824L18.4142 14.539Z" fill="#F9CF00"/>
</svg>
