<svg width="41" height="41" viewBox="0 0 41 41" fill="none" xmlns="http://www.w3.org/2000/svg">
<path d="M34.5 8.5H6.5C4.29086 8.5 2.5 10.2909 2.5 12.5V28.5C2.5 30.7091 4.29086 32.5 6.5 32.5H34.5C36.7091 32.5 38.5 30.7091 38.5 28.5V12.5C38.5 10.2909 36.7091 8.5 34.5 8.5Z" fill="#2E2C7B"/>
<path d="M2.5 11.8789V12.4949C2.5 12.2839 2.531 12.0809 2.562 11.8789H2.5Z" fill="#E3E7EA"/>
<path d="M16.4645 11.879H14.9035L21.7835 8.5H21.0025L14.7195 11.586V8.5H14.0215V11.929V12.313V12.565H15.0675H16.6305H17.1635H17.4105H23.4575V11.879H18.8075L23.4575 9.595V9.474V9.212V8.5H23.3445L16.4645 11.879Z" fill="#E3E7EA"/>
<path d="M9.317 12.565H11.926V8.5H11.228V11.586L5.335 8.691C4.91 8.821 4.513 9.01 4.162 9.264L9.484 11.878H7.923L3.601 9.755C3.52 9.841 3.449 9.935 3.376 10.028L7.143 11.878H2.562C2.53 12.08 2.5 12.283 2.5 12.494V12.564L9.317 12.565Z" fill="#E3E7EA"/>
<path d="M16.6305 14.624H15.0675H14.0215V14.876V15.138V15.26V18.808H14.7195V15.603L21.2445 18.808H21.4915H22.0255H23.4575V18.745L16.4645 15.309H18.0265L23.4575 17.978V17.594L18.8075 15.309H23.4575V14.624H17.4105H16.6305Z" fill="#E3E7EA"/>
<path d="M11.044 15.309L11.042 15.31H11.044L3.922 18.808H4.703L11.228 15.603V18.808H11.926V15.26V14.876V14.624H10.879H9.317H8.784H8.537H2.5V15.309H7.14L7.138 15.31H7.14L2.5 17.589V18.74L9.483 15.309H11.044Z" fill="#E3E7EA"/>
<path d="M7.139 15.3086H2.5V15.3106H7.139V15.3086Z" fill="#E3E7EA"/>
<path d="M11.042 15.3096H9.483L2.5 18.7396V18.8076H3.922L11.042 15.3096Z" fill="#D00032"/>
<path d="M11.042 15.3096L11.044 15.3086H9.483L2.5 18.7396L9.483 15.3096H11.042Z" fill="#D00032"/>
<path d="M3.59866 9.75565L7.92066 11.8786H9.48166L4.15966 9.26465C3.95666 9.41165 3.76966 9.57465 3.59866 9.75565Z" fill="#D00032"/>
<path d="M16.4653 11.879L23.3453 8.5H21.7843L14.9043 11.879H16.4653Z" fill="#D00032"/>
<path d="M16.4648 15.3086L23.4578 18.7446V17.9776L18.0268 15.3086H16.4648Z" fill="#D00032"/>
<path d="M8.784 14.624H9.317H10.879H11.926V14.876V15.26V18.808H12.974H14.022V15.26V15.138V14.876V14.624H15.068H16.631H17.411H23.458V13.595V12.565H17.411H17.164H16.631H15.068H14.022V12.313V11.929V8.5H11.926V11.929V12.051V12.313V12.565H10.879H9.317H8.537H2.5V14.624H8.537H8.784Z" fill="#D00032"/>
<path d="M29.8145 15.4556H30.9525L31.3045 14.3916L31.6555 15.4556H32.7955L31.8745 16.1126L32.2255 17.1766L31.3045 16.5196L30.3825 17.1766L30.7355 16.1126L29.8145 15.4556Z" fill="#E3E7EA"/>
<path d="M30.3184 15.618H31.0714L31.3044 14.915L31.5364 15.618H32.2894L31.6804 16.053L31.9134 16.757L31.3044 16.322L30.6954 16.757L30.9274 16.053L30.3184 15.618Z" fill="#D00032"/>
<path d="M25.2598 19.9566H26.3978L26.7498 18.8926L27.1018 19.9566H28.2408L27.3198 20.6136L27.6708 21.6776L26.7498 21.0206L25.8298 21.6776L26.1808 20.6136L25.2598 19.9566Z" fill="#E3E7EA"/>
<path d="M25.7656 20.119H26.5176L26.7506 19.416L26.9836 20.119H27.7366L27.1276 20.554L27.3596 21.258L26.7506 20.823L26.1416 21.258L26.3746 20.554L25.7656 20.119Z" fill="#D00032"/>
<path d="M33.8809 18.8405H34.8939L35.2069 17.8945L35.5209 18.8405H36.5339L35.7129 19.4245L36.0269 20.3725L35.2069 19.7865L34.3869 20.3725L34.6999 19.4245L33.8809 18.8405Z" fill="#E3E7EA"/>
<path d="M34.3301 18.9844H35.0001L35.2071 18.3584L35.4141 18.9844H36.0841L35.5421 19.3714L35.7491 19.9974L35.2071 19.6104L34.6661 19.9974L34.8721 19.3714L34.3301 18.9844Z" fill="#D00032"/>
<path d="M29.6504 27.0219H30.9144L31.3044 25.8389L31.6954 27.0219H32.9604L31.9374 27.7529L32.3274 28.9359L31.3044 28.2049L30.2824 28.9359L30.6734 27.7529L29.6504 27.0219Z" fill="#E3E7EA"/>
<path d="M30.209 27.2019H31.045L31.303 26.4199L31.562 27.2019H32.397L31.721 27.6859L31.98 28.4689L31.303 27.9839L30.627 28.4689L30.886 27.6859L30.209 27.2019Z" fill="#D00032"/>
</svg>
