<svg width="41" height="41" viewBox="0 0 41 41" fill="none" xmlns="http://www.w3.org/2000/svg">
<path d="M34.5 8.5H6.5C4.29086 8.5 2.5 10.2909 2.5 12.5V28.5C2.5 30.7091 4.29086 32.5 6.5 32.5H34.5C36.7091 32.5 38.5 30.7091 38.5 28.5V12.5C38.5 10.2909 36.7091 8.5 34.5 8.5Z" fill="#FF0034"/>
<path d="M38.5009 28.504V24.5H14.2969V32.5H34.5059C36.7129 32.5 38.5009 30.711 38.5009 28.504Z" fill="#00973A"/>
<path d="M38.5009 16.5V12.496C38.5009 10.289 36.7119 8.5 34.5059 8.5H14.2969V16.5H38.5009Z" fill="#E3E7EA"/>
<path d="M7.26797 11.6792C7.70397 12.4692 7.70397 12.7782 7.57697 12.8482C7.45197 12.9182 7.24497 12.7232 6.81097 11.9332C6.37497 11.1432 5.87497 10.0592 5.99997 9.99019C6.12697 9.91919 6.83197 10.8912 7.26797 11.6802V11.6792ZM9.90197 11.1932C9.46597 11.9832 9.21497 12.6792 9.34197 12.7492C9.46697 12.8192 9.92297 12.2352 10.359 11.4462C10.794 10.6562 11.046 9.96019 10.919 9.89019C10.792 9.82019 10.337 10.4042 9.90197 11.1932ZM9.11797 12.4642L8.70397 10.4832L8.66497 10.4752C8.80797 10.4072 8.92097 10.2992 8.92097 10.1452C8.92097 9.92219 8.71597 9.74219 8.46397 9.74219C8.21197 9.74219 8.00697 9.92319 8.00697 10.1462C8.00697 10.2962 8.11097 10.4152 8.25097 10.4852L7.85497 12.4862L9.11697 12.4652L9.11797 12.4642Z" fill="#EEEEEE"/>
<path d="M11.5565 16.2943C11.1785 15.9793 9.67749 14.6793 8.96349 13.9033C9.02749 13.6803 9.06549 13.4403 9.04949 13.1843H9.07349V13.1953H10.3145V13.4353H11.8385V12.6953H10.3145V12.9353H9.07449V12.9463H9.03149V12.5713H7.89849V12.9463H7.44149V12.9683H6.54849V12.6623H5.11249V13.4673H6.54849V13.1633H7.44149V13.1853H7.82649L7.77649 13.7063C7.77649 13.7063 6.32949 13.7703 5.94049 13.8333C4.98249 13.9853 5.28749 14.2683 6.07149 14.5303C6.43249 14.6503 6.79149 14.6973 7.13149 14.7153C6.57849 15.3063 5.44949 16.1823 5.17849 16.3373C4.87349 16.5113 4.87349 16.7283 5.46149 16.5993C6.03149 16.4723 7.34949 15.3093 7.80749 14.7213L8.20449 14.7043C8.41349 14.6963 8.57949 14.5653 8.71849 14.3923C9.31349 15.0963 10.4795 16.1393 10.9475 16.4233C11.4475 16.7283 11.6815 16.7213 11.8585 16.6923C12.0355 16.6633 11.9475 16.6203 11.5565 16.2943Z" fill="#EEEEEE"/>
</svg>
