<svg width="41" height="41" viewBox="0 0 41 41" fill="none" xmlns="http://www.w3.org/2000/svg">
<path d="M34.5 8.5H6.5C4.29086 8.5 2.5 10.2909 2.5 12.5V28.5C2.5 30.7091 4.29086 32.5 6.5 32.5H34.5C36.7091 32.5 38.5 30.7091 38.5 28.5V12.5C38.5 10.2909 36.7091 8.5 34.5 8.5Z" fill="#E3E7EA"/>
<path d="M2.5 20.5V28.504C2.5 30.711 4.289 32.5 6.495 32.5H20.499V20.5H2.5Z" fill="#3664B3"/>
<path d="M38.5 20.5V12.496C38.5 10.289 36.711 8.5 34.505 8.5H20.5V20.5H38.5Z" fill="#D3003B"/>
<path d="M12.5567 14.854L14.3267 13.573H12.1387L11.4627 11.5L10.7857 13.573H8.59766L10.3677 14.854L9.69166 16.927L11.4627 15.646L13.2327 16.927L12.5567 14.854Z" fill="#3664B3"/>
<path d="M30.6328 26.854L32.4028 25.573H30.2148L29.5378 23.5L28.8618 25.573H26.6738L28.4438 26.854L27.7678 28.927L29.5378 27.646L31.3088 28.927L30.6328 26.854Z" fill="#D3003B"/>
</svg>
