<svg width="41" height="41" viewBox="0 0 41 41" fill="none" xmlns="http://www.w3.org/2000/svg">
<path d="M16.9485 24.4827C17.1455 24.4017 17.9425 24.0797 18.1955 24.0657C18.3525 24.0657 18.5245 24.1437 18.7055 24.2267C18.9065 24.3177 19.1135 24.4127 19.2945 24.4127C19.4745 24.4057 19.6225 24.3417 19.7785 24.2747C19.9655 24.1947 20.1765 24.1037 20.4465 24.0957H20.4485C20.7035 24.0957 20.8565 24.1747 21.0045 24.2517C21.1705 24.3387 21.3275 24.4197 21.5915 24.3977C21.8155 24.3797 21.8995 24.3147 21.9895 24.2447C22.1025 24.1567 22.2195 24.0657 22.5795 24.0657C23.1405 24.0777 23.6085 24.4207 23.8195 24.6037C24.0425 24.4177 24.2405 24.2137 24.4225 23.9997L16.4785 23.9727C16.6225 24.1527 16.7795 24.3227 16.9485 24.4827Z" fill="white"/>
<path d="M18.3206 25.3966L18.3286 25.3906C18.5196 25.2446 18.8956 24.9966 19.2786 24.9746H19.3306C19.6436 24.9746 19.8316 25.1106 19.9966 25.2316C20.1226 25.3236 20.2316 25.4026 20.3786 25.4156H20.3836C20.5706 25.4156 20.7206 25.3256 20.8796 25.2296C21.0596 25.1216 21.2626 24.9986 21.5046 24.9896H21.5056C21.9966 24.9896 22.5416 25.3436 22.5646 25.3576L22.6246 25.3966C22.8006 25.3086 22.9746 25.2056 23.1486 25.0816C23.2956 24.9936 23.4246 24.8906 23.5586 24.7916L17.2656 24.7646C17.5816 25.0156 17.9366 25.2246 18.3216 25.3956L18.3206 25.3966Z" fill="white"/>
<path d="M19.1317 15.4318L19.2887 15.7148C19.0927 15.8298 19.0787 17.9848 19.0787 17.9848C19.0787 17.9848 18.3137 16.4598 18.0267 15.8818C17.9017 15.9478 17.7737 16.0048 17.6537 16.0818L19.1257 18.3428L19.1217 19.1888L18.2877 18.3968C18.2877 18.3968 18.1687 18.3928 18.1687 18.3098C18.1697 18.2098 18.2827 18.2368 18.2827 18.1068C18.2827 17.9768 18.1267 17.9858 18.1267 17.8848C18.1267 17.7838 18.2307 17.8038 18.2307 17.6608C18.2307 17.5178 18.0667 17.5448 17.8607 17.5308C17.6547 17.5158 17.4527 17.5308 17.4287 17.6208C17.4287 17.6208 16.9927 17.1468 16.7307 16.8628C16.6347 16.9638 16.5337 17.0608 16.4477 17.1668L17.3307 17.9198C17.3307 17.9198 17.1977 18.0218 17.2087 18.1168C17.2107 18.2038 17.3687 18.2148 17.3667 18.3028C17.3637 18.3978 17.2267 18.4108 17.2237 18.4988C17.2167 18.5848 17.3567 18.6788 17.3567 18.6788L17.1407 18.8998L15.7807 18.2528C15.7317 18.3588 15.6867 18.4658 15.6447 18.5748L17.1847 19.1728L17.1997 19.9798L15.3277 19.8018C15.3127 19.9178 15.3117 20.0338 15.3047 20.1498L17.1717 20.2388V21.3768L15.3527 21.3628C15.3727 21.4978 15.3977 21.6308 15.4277 21.7638C15.4997 21.8348 15.7687 22.0808 16.0357 22.0808C16.1747 22.0748 16.3107 21.9958 16.4547 21.9118C16.6877 21.7748 16.9807 21.6278 17.2617 21.7218L17.2917 21.7318L17.2937 21.7628C17.3077 22.0528 17.4197 22.2908 17.4207 22.2928L17.4527 22.3598L15.5957 22.3448C15.6347 22.4588 15.6727 22.5718 15.7187 22.6828C15.8377 22.5908 15.9647 22.5148 16.0847 22.5088C16.2677 22.5088 16.4277 22.6008 16.5807 22.6898C16.7297 22.7748 16.8827 22.8638 17.0307 22.8638C17.2577 22.8538 17.2997 22.8168 17.3587 22.7648C17.3887 22.7378 17.4227 22.7078 17.4797 22.6778L17.5217 22.6558L17.5437 22.6978C17.6257 22.8598 17.9437 23.0448 17.9467 23.0468L18.0957 23.1328H15.9277C16.0197 23.3088 16.1257 23.4768 16.2367 23.6408C16.2847 23.6138 16.3347 23.5828 16.3857 23.5508C16.6227 23.4018 16.9187 23.2168 17.1427 23.2168C17.3367 23.2168 17.5197 23.3358 17.6967 23.4518C17.8567 23.5568 18.0237 23.6648 18.1907 23.6778H18.1937C18.3677 23.6778 18.4897 23.5938 18.6317 23.4948C18.8007 23.3778 18.9927 23.2448 19.2607 23.2448C19.5307 23.2448 19.7417 23.3698 19.9287 23.4788C20.0887 23.5728 20.2407 23.6628 20.4077 23.6628C20.5917 23.6628 20.7887 23.5628 20.9797 23.4658C21.1717 23.3688 21.3707 23.2678 21.5677 23.2598H21.5687C21.7917 23.2598 21.9877 23.3698 22.1767 23.4768C22.3477 23.5728 22.5087 23.6638 22.6557 23.6638C22.8177 23.6568 22.9627 23.5668 23.1157 23.4708C23.2977 23.3568 23.4857 23.2388 23.7157 23.2308C24.0947 23.2628 24.4877 23.5138 24.6297 23.7308C24.7727 23.5388 24.9007 23.3388 25.0137 23.1318H22.7207L22.8707 23.0458C22.8707 23.0458 23.1907 22.8588 23.2747 22.6968L23.2967 22.6548L23.3387 22.6768C23.3957 22.7078 23.4297 22.7378 23.4597 22.7648C23.5177 22.8168 23.5597 22.8538 23.7707 22.8628C23.9347 22.8628 24.0887 22.7748 24.2367 22.6888C24.3907 22.5998 24.5497 22.5078 24.7137 22.5078C24.8847 22.5158 25.0617 22.6388 25.2057 22.7678C25.3467 22.4518 25.4477 22.1218 25.5247 21.7878L25.3247 22.3438L23.3947 22.3588L23.4267 22.2918C23.4267 22.2918 23.5397 22.0508 23.5537 21.7618V21.7308L23.5857 21.7208C23.8677 21.6268 24.1597 21.7738 24.3937 21.9108C24.5377 21.9938 24.6737 22.0738 24.7947 22.0788C25.1197 22.0788 25.4457 21.7368 25.4497 21.7328L25.5267 21.7798C25.6137 21.4018 25.6687 21.0188 25.6747 20.6328L25.5707 21.3768H23.6137L23.5987 20.2678L25.6537 20.1168C25.6447 20.0018 25.6317 19.8888 25.6167 19.7748L23.6297 20.0088L23.6137 19.1878L25.2867 18.4948C25.2937 18.5108 25.3037 18.5268 25.3087 18.5438C25.3927 18.7608 25.4607 18.9838 25.5167 19.2108C25.4277 18.8478 25.2937 18.4998 25.1327 18.1628L23.6457 18.9298C23.6207 18.8368 23.5997 18.7448 23.4847 18.6698C23.4957 18.6628 23.5837 18.6068 23.5837 18.5128C23.5837 18.4258 23.4867 18.4018 23.4587 18.3608C23.4587 18.3588 23.4557 18.3548 23.4547 18.3518C23.4547 18.3518 23.4547 18.3488 23.4527 18.3478C23.4527 18.3478 23.4527 18.3448 23.4527 18.3438V18.3348C23.4527 18.3348 23.4527 18.3318 23.4527 18.3308C23.4527 18.3298 23.4547 18.3268 23.4547 18.3248C23.4727 18.2728 23.5757 18.2208 23.5817 18.1018C23.5687 18.0238 23.4817 17.9188 23.4727 17.8748V17.8638C23.4727 17.8638 23.4727 17.8608 23.4747 17.8608L24.4657 17.1178C24.3847 17.0198 24.3017 16.9238 24.2127 16.8328C23.9787 17.0718 23.4457 17.5998 23.4417 17.6038C23.3987 17.5048 23.1397 17.5518 22.8927 17.5518C22.7557 17.5518 22.6837 17.5768 22.6487 17.6078C22.6467 17.6088 22.6437 17.6118 22.6427 17.6128C22.6367 17.6188 22.6317 17.6258 22.6287 17.6318C22.6287 17.6338 22.6257 17.6368 22.6247 17.6398C22.6237 17.6428 22.6217 17.6468 22.6207 17.6488C22.6167 17.6638 22.6177 17.6788 22.6207 17.6938C22.6267 17.7308 22.6367 17.7538 22.6457 17.7688C22.6477 17.7718 22.6507 17.7758 22.6527 17.7788C22.6547 17.7798 22.6577 17.7828 22.6587 17.7848C22.6587 17.7848 22.6617 17.7848 22.6627 17.7858C22.6797 17.7978 22.6967 17.7998 22.7107 17.8108C22.7107 17.8108 22.7107 17.8118 22.7127 17.8128C22.7127 17.8128 22.7127 17.8138 22.7127 17.8148C22.7147 17.8168 22.7177 17.8198 22.7187 17.8218C22.7187 17.8228 22.7187 17.8258 22.7207 17.8278C22.7267 17.8408 22.7307 17.8618 22.7307 17.8928C22.7307 17.9368 22.7207 17.9648 22.7067 17.9828C22.6787 18.0168 22.6337 18.0238 22.6117 18.0618C22.6057 18.0718 22.6017 18.0868 22.5997 18.1028C22.6077 18.1878 22.6877 18.2038 22.7117 18.2328C22.7117 18.2348 22.7137 18.2368 22.7147 18.2388C22.7157 18.2388 22.7167 18.2418 22.7167 18.2428V18.2458C22.7167 18.2458 22.7167 18.2488 22.7167 18.2498C22.7167 18.2508 22.7167 18.2528 22.7167 18.2538C22.7167 18.2548 22.7167 18.2578 22.7147 18.2598C22.7147 18.2618 22.7127 18.2658 22.7117 18.2688C22.7057 18.2768 22.6967 18.2868 22.6847 18.2988L21.6847 19.2398L21.6867 18.3468L23.1997 16.0418C23.1037 15.9848 23.0117 15.9218 22.9107 15.8698L21.6837 18.0188L21.6857 17.0588C21.6857 17.0588 21.7137 17.0138 21.7177 16.9728C21.7177 16.9658 21.7177 16.9568 21.7157 16.9498C21.7157 16.9468 21.7127 16.9428 21.7117 16.9408C21.7097 16.9378 21.7067 16.9328 21.7037 16.9298C21.6897 16.9168 21.6647 16.9078 21.6227 16.9108C21.4517 16.9238 21.2417 16.8978 21.2417 16.8978L21.6757 15.4138C21.0917 15.2668 20.5427 15.2588 19.9347 15.2588C19.6567 15.3048 19.3907 15.3638 19.1337 15.4358L19.1317 15.4318ZM19.2397 20.2528C19.2637 20.2348 19.2977 20.2398 19.3167 20.2638L19.5027 20.5078L19.5117 20.2508C19.5117 20.2208 19.5317 20.1858 19.5687 20.1988C19.5987 20.1988 19.6227 20.2248 19.6217 20.2548L19.6137 20.4848L19.7907 20.2758C19.8097 20.2538 19.8447 20.2488 19.8677 20.2688C19.8907 20.2888 19.8937 20.3218 19.8747 20.3448L19.6147 20.6528L19.8327 20.9398C19.8507 20.9638 19.8457 20.9978 19.8217 21.0158C19.8117 21.0228 19.8007 21.0258 19.7887 21.0258C19.7717 21.0258 19.7557 21.0188 19.7447 21.0048L19.5417 20.7388L19.3157 21.0068C19.3047 21.0188 19.2897 21.0258 19.2737 21.0258C19.2617 21.0258 19.2487 21.0218 19.2387 21.0138C19.2157 20.9948 19.2127 20.9608 19.2317 20.9378L19.4737 20.6498L19.2297 20.3288C19.2117 20.3048 19.2157 20.2708 19.2397 20.2528ZM19.1297 19.3988L19.1217 19.8598L18.2437 19.4168V18.8408C18.2437 18.8408 18.1407 18.8548 18.1547 18.7398C18.1597 18.4998 18.8007 19.1778 19.1297 19.3988ZM19.0077 20.9398C19.0257 20.9638 19.0207 20.9978 18.9967 21.0158C18.9867 21.0228 18.9757 21.0258 18.9637 21.0258C18.9467 21.0258 18.9307 21.0188 18.9197 21.0048L18.7167 20.7388L18.4907 21.0068C18.4797 21.0188 18.4647 21.0258 18.4487 21.0258C18.4367 21.0258 18.4237 21.0218 18.4137 21.0138C18.3907 20.9948 18.3877 20.9608 18.4067 20.9378L18.6497 20.6498L18.4057 20.3288C18.3877 20.3048 18.3927 20.2708 18.4167 20.2528C18.4407 20.2348 18.4757 20.2398 18.4937 20.2638L18.6797 20.5078L18.6887 20.2508C18.6897 20.2208 18.7147 20.1858 18.7457 20.1988C18.7757 20.1988 18.7997 20.2248 18.7987 20.2548L18.7907 20.4848L18.9677 20.2758C18.9867 20.2538 19.0217 20.2488 19.0447 20.2688C19.0677 20.2888 19.0707 20.3218 19.0517 20.3448L18.7917 20.6528L19.0097 20.9398H19.0077ZM18.2437 19.9358V19.5898L19.1257 19.9608L18.2437 19.9358ZM18.6747 23.1688C18.0787 23.1688 17.5587 22.6448 17.4107 21.8948C17.4107 21.8548 17.3897 19.0138 17.3837 18.8988C17.3837 18.8318 17.4447 18.7998 17.4987 18.7708C17.5207 18.7588 17.5617 18.7368 17.5677 18.7248C17.5677 18.7198 17.5457 18.6988 17.5287 18.6838C17.4877 18.6458 17.4307 18.5948 17.4227 18.5028C17.4167 18.4268 17.4847 18.3918 17.5307 18.3688C17.5467 18.3608 17.5767 18.3448 17.5817 18.3368C17.5817 18.3188 17.5427 18.2868 17.5137 18.2648C17.4667 18.2258 17.4127 18.1818 17.4167 18.1168C17.4237 18.0608 17.4597 18.0208 17.4917 17.9858C17.5167 17.9578 17.5427 17.9288 17.5427 17.9048C17.5427 17.8738 17.5127 17.8448 17.4877 17.8218C17.4697 17.8048 17.4367 17.7438 17.4457 17.7208C17.4657 17.6698 17.5307 17.6698 17.6007 17.6698L17.9217 17.6638C17.9217 17.6638 17.9257 17.6638 17.9277 17.6638C17.9477 17.6638 18.0847 17.6458 18.1067 17.7028C18.1147 17.7258 18.1217 17.7508 18.1037 17.7668C18.1017 17.7688 18.0527 17.8038 18.0507 17.8058C18.0147 17.8298 17.9327 17.8858 17.9347 17.9168C17.9347 17.9338 17.9657 17.9478 18.0067 17.9668C18.0667 17.9928 18.1477 18.0288 18.1567 18.1218C18.1647 18.2128 18.0887 18.2498 18.0377 18.2748C17.9897 18.2978 17.9737 18.3088 17.9737 18.3258C17.9737 18.3388 17.9797 18.3458 18.0297 18.3648C18.0777 18.3828 18.1577 18.4148 18.1577 18.5118C18.1577 18.6038 18.0847 18.6508 18.0367 18.6808C18.0177 18.6928 17.9867 18.7128 17.9867 18.7218C17.9897 18.7628 18.0537 18.8048 18.0837 18.8178C18.1047 18.8278 18.1187 18.8488 18.1177 18.8718C18.1007 19.9248 18.0917 21.6428 18.1387 21.7688C18.2717 22.0048 18.6427 22.1748 19.0247 22.1748C19.3837 22.1748 19.6817 22.0248 19.8417 21.7648C19.8567 21.7398 19.8867 21.7308 19.9137 21.7408C19.9407 21.7518 19.9547 21.7808 19.9487 21.8078C19.7397 22.6608 19.2627 23.1688 18.6747 23.1688ZM18.5547 22.0068L18.6607 21.8718C18.8167 21.6748 19.1137 21.4988 19.1267 21.4918L19.9417 21.4618L19.8777 21.5868C19.7657 21.8048 19.6087 21.9018 19.4297 21.9978L19.4117 22.0078H18.5557L18.5547 22.0068ZM20.9217 22.2858L20.9197 22.3278L19.8567 22.3608L19.9077 22.2918C19.9507 22.0188 20.2017 21.9618 20.4047 21.9618C20.6077 21.9618 20.7567 22.0078 20.8447 22.0998C20.9267 22.1858 20.9227 22.2808 20.9227 22.2848L20.9217 22.2858ZM20.8827 21.4618L21.6567 21.4798C21.7107 21.4988 22.0077 21.6748 22.1617 21.8718L22.2677 22.0068H21.4347C21.2157 21.9018 21.0587 21.8048 20.9467 21.5868L20.8827 21.4618ZM21.3877 23.1628L19.4837 23.1768H19.4377L19.4357 23.1288C19.4357 23.0558 19.8417 22.5078 20.4187 22.4938L20.4727 22.4918C20.9857 22.4918 21.3777 23.0538 21.3987 23.1068L21.4107 23.1358L21.3897 23.1638L21.3877 23.1628ZM22.7367 21.7698C22.7877 21.6408 22.7787 19.9238 22.7617 18.8708C22.7617 18.8478 22.7747 18.8268 22.7957 18.8168C22.8267 18.8028 22.8907 18.7618 22.8917 18.7208C22.8927 18.7098 22.8677 18.6928 22.8457 18.6778C22.8007 18.6478 22.7327 18.6008 22.7327 18.5098C22.7327 18.4128 22.8087 18.3818 22.8537 18.3638C22.9007 18.3448 22.9047 18.3388 22.9057 18.3218C22.9057 18.3048 22.8917 18.2928 22.8467 18.2678C22.8007 18.2408 22.7297 18.2008 22.7377 18.1128C22.7447 18.0268 22.8027 17.9878 22.8447 17.9608C22.8807 17.9368 22.8927 17.9278 22.8937 17.9048C22.8967 17.8628 22.8597 17.8288 22.8117 17.7898C22.7917 17.7738 22.7727 17.7368 22.7817 17.7128C22.7907 17.6898 22.8037 17.6538 22.8267 17.6658C22.8897 17.6658 22.9447 17.6648 22.9537 17.6638L23.2807 17.6698C23.3487 17.6698 23.4137 17.6698 23.4347 17.7208C23.4437 17.7428 23.4107 17.8048 23.3937 17.8218C23.3687 17.8438 23.3377 17.8738 23.3387 17.9038C23.3387 17.9288 23.3647 17.9578 23.3907 17.9858C23.4217 18.0208 23.4567 18.0598 23.4647 18.1108C23.4687 18.1818 23.4147 18.2258 23.3677 18.2648C23.3397 18.2878 23.3007 18.3188 23.3007 18.3388C23.3047 18.3458 23.3347 18.3608 23.3507 18.3698C23.3957 18.3928 23.4637 18.4278 23.4577 18.5028C23.4507 18.5948 23.3937 18.6468 23.3517 18.6848C23.3357 18.6988 23.3127 18.7198 23.3127 18.7278C23.3177 18.7368 23.3597 18.7588 23.3817 18.7708C23.4357 18.7998 23.4967 18.8318 23.4967 18.8958C23.4907 19.0138 23.4717 21.8558 23.4717 21.8848C23.3227 22.6458 22.8027 23.1688 22.2067 23.1688C21.6177 23.1688 21.1417 22.6598 20.9327 21.8078C20.9257 21.7798 20.9407 21.7518 20.9677 21.7408C20.9947 21.7308 21.0247 21.7408 21.0397 21.7638C21.2007 22.0248 21.4987 22.1738 21.8577 22.1738C22.2407 22.1738 22.6117 22.0038 22.7407 21.7698H22.7367ZM22.6437 18.5988C22.6437 18.7428 22.5507 18.8548 22.5507 18.8548V19.4028L21.6827 19.8058L21.6787 19.4308C21.6787 19.4308 22.4737 18.7288 22.6437 18.5988ZM22.3747 20.9388C22.3927 20.9628 22.3877 20.9968 22.3637 21.0148C22.3537 21.0218 22.3427 21.0248 22.3307 21.0248C22.3137 21.0248 22.2977 21.0178 22.2867 21.0038L22.0837 20.7378L21.8577 21.0058C21.8467 21.0178 21.8317 21.0248 21.8157 21.0248C21.8037 21.0248 21.7907 21.0208 21.7807 21.0128C21.7577 20.9938 21.7547 20.9598 21.7737 20.9368L22.0157 20.6488L21.7717 20.3278C21.7537 20.3038 21.7587 20.2698 21.7827 20.2518C21.8067 20.2338 21.8417 20.2388 21.8597 20.2628L22.0457 20.5078L22.0557 20.2498C22.0557 20.2198 22.0727 20.1848 22.1127 20.1978C22.1427 20.1978 22.1667 20.2238 22.1657 20.2538L22.1567 20.4838L22.3327 20.2748C22.3517 20.2528 22.3867 20.2478 22.4097 20.2678C22.4327 20.2878 22.4357 20.3208 22.4167 20.3438L22.1567 20.6518L22.3747 20.9388ZM21.6837 19.9848L22.5367 19.6178L22.5217 19.9488L21.6837 19.9848ZM22.5967 21.2478C22.6427 21.2478 22.6807 21.2858 22.6807 21.3318C22.6807 21.3778 22.6427 21.4148 22.5967 21.4148L18.2427 21.4008C18.1967 21.4008 18.1587 21.3628 18.1587 21.3168C18.1587 21.2708 18.1967 21.2338 18.2427 21.2338L22.5967 21.2478ZM20.6267 20.2738C20.6457 20.2518 20.6807 20.2468 20.7037 20.2668C20.7267 20.2868 20.7297 20.3198 20.7107 20.3428L20.4507 20.6508L20.6687 20.9378C20.6867 20.9618 20.6817 20.9958 20.6577 21.0138C20.6477 21.0208 20.6367 21.0238 20.6247 21.0238C20.6077 21.0238 20.5917 21.0168 20.5807 21.0028L20.3777 20.7368L20.1517 21.0048C20.1407 21.0168 20.1257 21.0238 20.1097 21.0238C20.0977 21.0238 20.0847 21.0198 20.0747 21.0118C20.0517 20.9928 20.0487 20.9588 20.0677 20.9358L20.3097 20.6478L20.0657 20.3268C20.0477 20.3028 20.0527 20.2688 20.0767 20.2508C20.1007 20.2328 20.1347 20.2378 20.1537 20.2618L20.3397 20.5058L20.3487 20.2488C20.3497 20.2188 20.3777 20.1838 20.4057 20.1968C20.4357 20.1968 20.4597 20.2228 20.4587 20.2528L20.4507 20.4828L20.6277 20.2728L20.6267 20.2738ZM21.4947 20.2738C21.5137 20.2518 21.5487 20.2468 21.5717 20.2668C21.5947 20.2868 21.5977 20.3198 21.5787 20.3428L21.3187 20.6508L21.5367 20.9378C21.5547 20.9618 21.5497 20.9958 21.5257 21.0138C21.5157 21.0208 21.5047 21.0238 21.4927 21.0238C21.4757 21.0238 21.4597 21.0168 21.4487 21.0028L21.2457 20.7368L21.0197 21.0048C21.0087 21.0168 20.9937 21.0238 20.9777 21.0238C20.9657 21.0238 20.9527 21.0198 20.9427 21.0118C20.9197 20.9928 20.9167 20.9588 20.9357 20.9358L21.1777 20.6478L20.9337 20.3268C20.9157 20.3028 20.9207 20.2688 20.9447 20.2508C20.9687 20.2328 21.0037 20.2378 21.0217 20.2618L21.2087 20.5078L21.2177 20.2498C21.2177 20.2198 21.2407 20.1848 21.2737 20.1978C21.3037 20.1978 21.3277 20.2238 21.3267 20.2538L21.3187 20.4828L21.4947 20.2738ZM21.3397 15.3538C21.3697 15.3578 21.3907 15.3838 21.3897 15.4128C21.3897 15.4428 21.3657 15.4658 21.3357 15.4688C20.7767 15.5098 20.4657 15.7698 20.4817 16.1808C20.4977 16.6018 20.8907 17.1108 21.3567 17.1108C21.3727 17.1108 21.4037 17.1158 21.4147 17.1268C21.4257 17.1378 21.4487 17.1518 21.4487 17.1678V19.8618C21.4487 19.8798 21.4407 19.8968 21.4257 19.9078C21.4157 19.9158 21.4027 19.9198 21.3897 19.9198C21.3847 19.9198 21.3797 19.9198 21.3747 19.9178L19.4487 19.4138C19.4237 19.4068 19.4057 19.3848 19.4057 19.3588L19.3907 16.0028C19.5377 15.6418 19.6857 15.2918 20.5757 15.2918C20.7907 15.2918 21.0467 15.3128 21.3397 15.3538Z" fill="white"/>
<path d="M17.1673 20.2394L15.3003 20.1504C15.2733 20.5564 15.2873 20.9624 15.3473 21.3624L17.1663 21.3764V20.2384L17.1673 20.2394Z" fill="#FF9300"/>
<path d="M17.1822 19.1732L15.6422 18.5752C15.4892 18.9742 15.3782 19.3852 15.3242 19.8032L17.1962 19.9812L17.1812 19.1742L17.1822 19.1732Z" fill="#FF9300"/>
<path d="M17.3543 18.678C17.3543 18.678 17.2153 18.584 17.2213 18.498C17.2243 18.41 17.3613 18.397 17.3643 18.302C17.3663 18.215 17.2083 18.204 17.2063 18.116C17.1953 18.021 17.3283 17.919 17.3283 17.919L16.4453 17.166C16.1703 17.505 15.9533 17.872 15.7773 18.252L17.1373 18.899L17.3533 18.678H17.3543Z" fill="#FF9300"/>
<path d="M23.6097 21.3772H25.5667L25.6707 20.6332C25.6737 20.4602 25.6637 20.2882 25.6507 20.1162L23.5957 20.2672L23.6107 21.3762L23.6097 21.3772Z" fill="#FF9300"/>
<path d="M25.2824 18.4942L23.6094 19.1872L23.6254 20.0082L25.6124 19.7742C25.5864 19.5842 25.5574 19.3952 25.5124 19.2092C25.4574 18.9822 25.3894 18.7592 25.3044 18.5422C25.2984 18.5252 25.2884 18.5112 25.2824 18.4942Z" fill="#FF9300"/>
<path d="M23.4692 17.8622V17.8732C23.4782 17.9162 23.5652 18.0222 23.5782 18.1002C23.5722 18.2192 23.4692 18.2712 23.4512 18.3232C23.4512 18.3242 23.4512 18.3272 23.4492 18.3292C23.4492 18.3292 23.4492 18.3322 23.4492 18.3332V18.3422C23.4492 18.3422 23.4492 18.3452 23.4492 18.3462C23.4492 18.3462 23.4512 18.3492 23.4512 18.3502C23.4512 18.3532 23.4542 18.3572 23.4552 18.3592C23.4822 18.4012 23.5802 18.4242 23.5802 18.5112C23.5802 18.6052 23.4912 18.6622 23.4812 18.6682C23.5962 18.7432 23.6162 18.8352 23.6422 18.9282L25.1292 18.1612C25.1032 18.1072 25.0812 18.0522 25.0532 17.9992C25.0132 17.9232 24.9722 17.8482 24.9282 17.7742C24.8522 17.6452 24.7702 17.5202 24.6832 17.3982C24.6382 17.3352 24.5942 17.2702 24.5462 17.2092C24.5202 17.1762 24.4892 17.1472 24.4622 17.1152L23.4712 17.8582L23.4692 17.8622Z" fill="#FF9300"/>
<path d="M22.5366 19.6191L21.6836 19.9871L22.5216 19.9511L22.5366 19.6191Z" fill="#FF9300"/>
<path d="M18.2422 19.5898V19.9358L19.1242 19.9608L18.2422 19.5898Z" fill="#FF9300"/>
<path d="M18.2428 18.8421V19.4181L19.1208 19.8611L19.1288 19.4001C18.8008 19.1791 18.1588 18.5011 18.1538 18.7411C18.1388 18.8561 18.2428 18.8421 18.2428 18.8421Z" fill="#FF9300"/>
<path d="M22.5507 19.4046V18.8566C22.5507 18.8566 22.6437 18.7446 22.6437 18.6006C22.4737 18.7306 21.6797 19.4326 21.6797 19.4326L21.6837 19.8076L22.5507 19.4046Z" fill="#FF9300"/>
<path d="M17.8585 17.531C18.0655 17.545 18.2285 17.517 18.2285 17.661C18.2285 17.805 18.1245 17.785 18.1245 17.885C18.1245 17.985 18.2805 17.978 18.2805 18.107C18.2805 18.236 18.1675 18.21 18.1665 18.31C18.1665 18.393 18.2855 18.397 18.2855 18.397L19.1195 19.189L19.1235 18.343L17.6515 16.082C17.4265 16.226 17.2095 16.39 16.9985 16.578C16.8995 16.668 16.8185 16.767 16.7285 16.861C16.9905 17.145 17.4265 17.619 17.4265 17.619C17.4505 17.528 17.6525 17.515 17.8585 17.529V17.531Z" fill="#FF9300"/>
<path d="M19.2874 15.7156L19.1304 15.4326C18.7394 15.5416 18.3754 15.6976 18.0254 15.8826C18.3114 16.4606 19.0774 17.9856 19.0774 17.9856C19.0774 17.9856 19.0914 15.8306 19.2874 15.7156Z" fill="#FF9300"/>
<path d="M21.6212 16.9072C21.6632 16.9042 21.6882 16.9132 21.7022 16.9262C21.7052 16.9292 21.7082 16.9342 21.7102 16.9372C21.7112 16.9392 21.7132 16.9432 21.7142 16.9462C21.7142 16.9532 21.7162 16.9622 21.7162 16.9692C21.7122 17.0102 21.6842 17.0552 21.6842 17.0552L21.6822 18.0152L22.9092 15.8662C22.9012 15.8622 22.8942 15.8562 22.8852 15.8522C22.6722 15.7462 22.4442 15.6572 22.2072 15.5782C22.1732 15.5672 22.1432 15.5502 22.1092 15.5392C21.9602 15.4832 21.8172 15.4462 21.6742 15.4102L21.2402 16.8942C21.2402 16.8942 21.4512 16.9202 21.6212 16.9072Z" fill="#FF9300"/>
<path d="M21.6816 19.2361L22.6816 18.2951C22.6946 18.2841 22.7026 18.2731 22.7086 18.2651C22.7086 18.2621 22.7106 18.2581 22.7116 18.2561C22.7116 18.2561 22.7136 18.2521 22.7136 18.2501V18.2461V18.2421V18.2391C22.7136 18.2391 22.7136 18.2361 22.7116 18.2351C22.7116 18.2331 22.7096 18.2311 22.7086 18.2291C22.6846 18.2011 22.6046 18.1841 22.5966 18.0991C22.5986 18.0831 22.6026 18.0681 22.6086 18.0581C22.6296 18.0201 22.6746 18.0141 22.7036 17.9791C22.7186 17.9611 22.7276 17.9341 22.7276 17.8891C22.7276 17.8581 22.7236 17.8371 22.7176 17.8241C22.7176 17.8241 22.7166 17.8201 22.7156 17.8181C22.7146 17.8161 22.7116 17.8131 22.7096 17.8111V17.8091L22.7076 17.8071C22.6936 17.7961 22.6766 17.7941 22.6596 17.7821L22.6556 17.7811C22.6556 17.7811 22.6516 17.7771 22.6496 17.7751C22.6476 17.7731 22.6446 17.7691 22.6426 17.7651C22.6326 17.7511 22.6226 17.7271 22.6176 17.6901C22.6146 17.6751 22.6136 17.6601 22.6176 17.6451C22.6176 17.6431 22.6206 17.6381 22.6216 17.6361C22.6226 17.6341 22.6246 17.6301 22.6256 17.6281C22.6286 17.6221 22.6336 17.6151 22.6396 17.6091C22.6396 17.6091 22.6436 17.6051 22.6456 17.6041C22.6806 17.5721 22.7526 17.5481 22.8896 17.5481C23.1366 17.5481 23.3956 17.5011 23.4386 17.6001C23.4426 17.5961 23.9756 17.0681 24.2096 16.8291C24.1886 16.8071 24.1716 16.7831 24.1496 16.7621C24.0966 16.7091 24.0386 16.6611 23.9826 16.6111C23.8676 16.5061 23.7476 16.4051 23.6206 16.3101C23.5466 16.2551 23.4686 16.2031 23.3906 16.1521C23.3286 16.1111 23.2616 16.0761 23.1976 16.0371L21.6846 18.3421L21.6826 19.2351L21.6816 19.2361Z" fill="#FF9300"/>
<path d="M34.5 8.5H6.5C4.291 8.5 2.5 10.291 2.5 12.5V14.5H38.5V12.5C38.5 10.291 36.709 8.5 34.5 8.5Z" fill="#CF002E"/>
<path d="M2.5 28.5C2.5 30.709 4.291 32.5 6.5 32.5H34.5C36.709 32.5 38.5 30.709 38.5 28.5V26.5H2.5V28.5Z" fill="#CF002E"/>
<path d="M19.5039 16.0262L19.5219 19.3152L21.3319 19.7892V17.2272C20.7889 17.1902 20.3819 16.6522 20.3649 16.1882C20.3509 15.8212 20.5619 15.5532 20.9449 15.4272C20.8099 15.4162 20.6869 15.4102 20.5759 15.4102C19.7639 15.4102 19.6379 15.7102 19.5039 16.0272V16.0262Z" fill="#CF002E"/>
<path d="M19.0221 22.2913C18.5931 22.2913 18.1881 22.1003 18.0371 21.8263C18.0121 21.8393 17.9501 21.8333 17.9971 18.9053C17.9491 18.8773 17.8721 18.8182 17.8661 18.7292C17.8611 18.6522 17.9231 18.6123 17.9691 18.5833C18.0151 18.5543 18.0361 18.5372 18.0361 18.5112C18.0361 18.4972 18.0331 18.4922 17.9831 18.4722C17.9361 18.4542 17.8561 18.4232 17.8531 18.3272C17.8531 18.2332 17.9311 18.1952 17.9821 18.1702C18.0201 18.1522 18.0371 18.1413 18.0361 18.1313C18.0341 18.1103 18.0111 18.0963 17.9551 18.0723C17.8981 18.0473 17.8201 18.0123 17.8131 17.9263C17.8091 17.8693 17.8431 17.8212 17.8861 17.7812L17.6091 17.7862C17.6361 17.8202 17.6561 17.8593 17.6551 17.9083C17.6541 17.9743 17.6101 18.0232 17.5741 18.0632C17.5541 18.0862 17.5311 18.1113 17.5291 18.1283C17.5321 18.1333 17.5651 18.1603 17.5851 18.1763C17.6331 18.2163 17.6931 18.2642 17.6951 18.3372C17.6971 18.4142 17.6281 18.4502 17.5821 18.4732C17.5661 18.4812 17.5411 18.4953 17.5351 18.5023C17.5411 18.5423 17.5711 18.5693 17.6051 18.6003C17.6401 18.6323 17.6821 18.6713 17.6811 18.7323C17.6791 18.8063 17.6081 18.8443 17.5511 18.8743C17.5331 18.8843 17.5011 18.9013 17.4941 18.9093C17.5041 19.0113 17.5231 21.7673 17.5241 21.8843C17.6601 22.5683 18.1321 23.0532 18.6721 23.0532C19.1431 23.0532 19.5371 22.6782 19.7571 22.0382C19.5691 22.2002 19.3131 22.2903 19.0211 22.2903L19.0221 22.2913Z" fill="#CF002E"/>
<path d="M21.8551 22.2913C21.5641 22.2913 21.3081 22.2013 21.1191 22.0383C21.3381 22.6793 21.7331 23.0533 22.2041 23.0533C22.7431 23.0533 23.2161 22.5683 23.3531 21.8733C23.3531 21.7663 23.3711 19.0113 23.3771 18.8933C23.3751 18.8993 23.3431 18.8833 23.3241 18.8723C23.2671 18.8423 23.1971 18.8043 23.1941 18.7313C23.1931 18.6693 23.2351 18.6303 23.2711 18.5983C23.3061 18.5673 23.3351 18.5403 23.3391 18.4933C23.3361 18.4933 23.3101 18.4793 23.2951 18.4713C23.2501 18.4483 23.1801 18.4123 23.1821 18.3353C23.1841 18.2623 23.2431 18.2133 23.2921 18.1743C23.3111 18.1583 23.3441 18.1323 23.3471 18.1203C23.3451 18.1103 23.3221 18.0853 23.3021 18.0623C23.2661 18.0223 23.2231 17.9733 23.2211 17.9073C23.2191 17.8563 23.2411 17.8173 23.2651 17.7853L22.9671 17.7793C22.9961 17.8173 23.0151 17.8603 23.0111 17.9133C23.0051 17.9943 22.9501 18.0303 22.9101 18.0573C22.8711 18.0833 22.8571 18.0943 22.8551 18.1233C22.8551 18.1353 22.8631 18.1433 22.9061 18.1673C22.9531 18.1943 23.0231 18.2343 23.0241 18.3233C23.0211 18.4213 22.9461 18.4523 22.9011 18.4703C22.8541 18.4903 22.8521 18.4953 22.8521 18.5103C22.8521 18.5383 22.8711 18.5533 22.9141 18.5833C22.9571 18.6123 23.0151 18.6523 23.0101 18.7283C23.0051 18.8163 22.9281 18.8763 22.8801 18.9043C22.9261 21.8203 22.8591 21.8393 22.8041 21.8543C22.6891 22.0993 22.2841 22.2903 21.8541 22.2903L21.8551 22.2913Z" fill="#CF002E"/>
<path d="M21.536 25.0882C21.293 25.0962 21.109 25.2072 20.932 25.3142C20.759 25.4182 20.597 25.5162 20.414 25.5162C20.195 25.4992 20.07 25.4082 19.938 25.3112C19.778 25.1942 19.611 25.0732 19.331 25.0732C18.975 25.0912 18.654 25.2782 18.459 25.4172C18.75 25.5372 19.058 25.6302 19.375 25.6952C19.934 25.7882 20.501 25.7882 21.05 25.7882V25.8372L21.059 25.7882C21.154 25.7772 21.244 25.7642 21.333 25.7492L22.42 25.3862C22.248 25.2872 21.86 25.0872 21.535 25.0872L21.536 25.0882Z" fill="#243B99"/>
<path d="M21.5053 24.9906H21.5043C21.2623 24.9996 21.0593 25.1216 20.8793 25.2306C20.7213 25.3256 20.5703 25.4166 20.3833 25.4166H20.3783C20.2313 25.4036 20.1223 25.3246 19.9963 25.2326C19.8313 25.1126 19.6433 24.9756 19.3303 24.9756H19.2783C18.8963 24.9976 18.5193 25.2456 18.3283 25.3916L18.3203 25.3976C18.6473 25.5436 18.9893 25.6686 19.3633 25.7446C19.9303 25.8396 20.4983 25.8396 21.0663 25.8396C21.3253 25.8076 21.5703 25.7566 21.8113 25.6946L22.3513 25.5146C22.4423 25.4776 22.5343 25.4436 22.6243 25.3986L22.5643 25.3596C22.5413 25.3446 21.9963 24.9906 21.5053 24.9906ZM21.0583 25.7896L21.0493 25.8386V25.7896C20.5003 25.7896 19.9323 25.7896 19.3743 25.6966C19.0573 25.6316 18.7493 25.5386 18.4583 25.4186C18.6533 25.2796 18.9743 25.0926 19.3303 25.0746C19.6113 25.0746 19.7773 25.1956 19.9373 25.3126C20.0693 25.4096 20.1943 25.5006 20.4133 25.5176C20.5953 25.5176 20.7583 25.4196 20.9313 25.3156C21.1083 25.2086 21.2923 25.0986 21.5353 25.0896C21.8613 25.0896 22.2483 25.2886 22.4203 25.3886L21.3333 25.7516C21.2443 25.7666 21.1533 25.7796 21.0593 25.7906L21.0583 25.7896Z" fill="#243B99"/>
<path d="M22.6204 24.1602C22.2504 24.1602 22.1524 24.2372 22.0474 24.3192C21.9514 24.3942 21.8514 24.4712 21.5994 24.4922C21.3044 24.5142 21.1314 24.4242 20.9614 24.3352C20.8164 24.2602 20.6804 24.1892 20.4764 24.1892C20.1974 24.1972 20.0034 24.2802 19.8164 24.3612C19.6514 24.4322 19.4954 24.4992 19.3174 24.5062H19.3164C19.0934 24.5062 18.8764 24.4082 18.6674 24.3122C18.4954 24.2332 18.3324 24.1592 18.2134 24.1592C17.9814 24.1712 17.2704 24.4532 17.0254 24.5522C17.0744 24.5972 17.1234 24.6412 17.1744 24.6842L23.6894 24.7002C23.7064 24.6872 23.7254 24.6762 23.7424 24.6622C23.5394 24.4862 23.1094 24.1692 22.6254 24.1592H22.6224L22.6204 24.1602Z" fill="#243B99"/>
<path d="M21.9902 24.2454C21.9012 24.3154 21.8172 24.3804 21.5922 24.3984C21.3282 24.4204 21.1712 24.3384 21.0052 24.2524C20.8572 24.1754 20.7052 24.0964 20.4492 24.0964H20.4472C20.1772 24.1044 19.9662 24.1954 19.7792 24.2754C19.6232 24.3434 19.4752 24.4074 19.2952 24.4134C19.1152 24.4134 18.9072 24.3194 18.7062 24.2274C18.5252 24.1444 18.3542 24.0664 18.1972 24.0664H18.1962C17.9422 24.0804 17.1452 24.4024 16.9492 24.4834C16.9742 24.5074 17.0012 24.5294 17.0272 24.5524C17.2712 24.4534 17.9822 24.1714 18.2152 24.1594C18.3342 24.1594 18.4972 24.2334 18.6692 24.3124C18.8792 24.4074 19.0952 24.5064 19.3182 24.5064C19.4962 24.4994 19.6532 24.4324 19.8182 24.3614C20.0052 24.2804 20.1992 24.1974 20.4782 24.1894C20.6822 24.1894 20.8182 24.2604 20.9632 24.3354C21.1332 24.4244 21.3062 24.5144 21.6012 24.4924C21.8532 24.4714 21.9522 24.3944 22.0492 24.3194C22.1542 24.2374 22.2532 24.1604 22.6222 24.1604H22.6252C23.1092 24.1704 23.5392 24.4884 23.7422 24.6634C23.7672 24.6434 23.7952 24.6254 23.8202 24.6044C23.6102 24.4214 23.1412 24.0784 22.5802 24.0664C22.2202 24.0664 22.1032 24.1574 21.9902 24.2454Z" fill="#243B99"/>
<path d="M17.2658 24.7665L23.5588 24.7935C23.6008 24.7625 23.6478 24.7335 23.6888 24.7015L17.1738 24.6855C17.2048 24.7115 17.2328 24.7415 17.2648 24.7665H17.2658Z" fill="#243B99"/>
<path d="M23.7092 23.3255C23.5112 23.3325 23.3342 23.4435 23.1622 23.5505C22.9982 23.6525 22.8432 23.7495 22.6712 23.7575C22.4812 23.7575 22.3092 23.6615 22.1282 23.5595C21.9492 23.4585 21.7642 23.3535 21.5862 23.3535C21.3922 23.3605 21.2022 23.4575 21.0202 23.5505C20.8192 23.6525 20.6122 23.7575 20.4052 23.7575C20.2122 23.7575 20.0502 23.6625 19.8792 23.5605C19.6942 23.4515 19.5032 23.3395 19.2592 23.3395C19.0212 23.3395 18.8502 23.4575 18.6842 23.5725C18.5352 23.6755 18.3932 23.7735 18.2182 23.7735C17.9892 23.7565 17.8132 23.6415 17.6432 23.5305C17.4702 23.4175 17.3072 23.3115 17.1412 23.3115C16.9452 23.3115 16.6492 23.4965 16.4342 23.6305C16.3722 23.6695 16.3292 23.6945 16.2852 23.7205C16.3252 23.7775 16.3652 23.8325 16.4072 23.8875L24.4952 23.9095C24.5222 23.8765 24.5452 23.8425 24.5712 23.8095C24.4632 23.6115 24.0702 23.3565 23.7122 23.3265L23.7092 23.3255Z" fill="#243B99"/>
<path d="M23.7114 23.2318C23.4824 23.2398 23.2944 23.3568 23.1114 23.4718C22.9584 23.5678 22.8144 23.6578 22.6514 23.6648C22.5044 23.6648 22.3424 23.5738 22.1724 23.4778C21.9834 23.3708 21.7874 23.2608 21.5644 23.2608H21.5634C21.3664 23.2688 21.1674 23.3698 20.9754 23.4668C20.7844 23.5638 20.5874 23.6638 20.4034 23.6638C20.2364 23.6638 20.0854 23.5738 19.9244 23.4798C19.7374 23.3698 19.5264 23.2458 19.2564 23.2458C18.9884 23.2458 18.7964 23.3788 18.6274 23.4958C18.4854 23.5938 18.3624 23.6788 18.1894 23.6788H18.1864C18.0184 23.6658 17.8524 23.5578 17.6924 23.4528C17.5154 23.3378 17.3334 23.2178 17.1384 23.2178C16.9144 23.2178 16.6184 23.4028 16.3814 23.5518C16.3314 23.5828 16.2804 23.6138 16.2324 23.6418C16.2494 23.6668 16.2644 23.6948 16.2824 23.7198C16.3264 23.6938 16.3694 23.6688 16.4314 23.6298C16.6474 23.4948 16.9424 23.3108 17.1384 23.3108C17.3044 23.3108 17.4674 23.4168 17.6404 23.5298C17.8114 23.6408 17.9874 23.7558 18.2154 23.7728C18.3904 23.7728 18.5324 23.6748 18.6814 23.5718C18.8474 23.4568 19.0184 23.3388 19.2564 23.3388C19.5004 23.3388 19.6914 23.4518 19.8764 23.5598C20.0484 23.6608 20.2104 23.7568 20.4024 23.7568C20.6094 23.7568 20.8164 23.6518 21.0174 23.5498C21.2004 23.4568 21.3894 23.3608 21.5834 23.3528C21.7614 23.3528 21.9474 23.4568 22.1254 23.5588C22.3064 23.6608 22.4784 23.7568 22.6684 23.7568C22.8414 23.7498 22.9964 23.6528 23.1594 23.5498C23.3314 23.4428 23.5084 23.3318 23.7064 23.3248C24.0644 23.3558 24.4584 23.6098 24.5654 23.8078C24.5844 23.7828 24.6034 23.7578 24.6224 23.7318C24.4794 23.5148 24.0874 23.2638 23.7084 23.2318H23.7114Z" fill="#243B99"/>
<path d="M16.4783 23.9737L24.4223 24.0007C24.4473 23.9707 24.4683 23.9387 24.4923 23.9077L16.4043 23.8857C16.4273 23.9157 16.4543 23.9437 16.4783 23.9727V23.9737Z" fill="#243B99"/>
<path d="M20.4715 22.585L20.4205 22.587C19.9865 22.598 19.6655 22.945 19.5625 23.085H21.2725C21.1645 22.939 20.8435 22.585 20.4715 22.585Z" fill="#243B99"/>
<path d="M20.4725 22.4922L20.4185 22.4942C19.8415 22.5092 19.4345 23.0562 19.4355 23.1292L19.4375 23.1772H19.4835L21.3875 23.1632L21.4086 23.1352L21.3965 23.1062C21.3755 23.0542 20.9835 22.4912 20.4705 22.4912L20.4725 22.4922ZM19.5635 23.0852C19.6665 22.9462 19.9875 22.5982 20.4215 22.5872L20.4725 22.5852C20.8445 22.5852 21.1655 22.9392 21.2735 23.0842L19.5635 23.0852Z" fill="#243B99"/>
<path d="M24.7229 22.6035C24.5699 22.6035 24.4289 22.6855 24.2779 22.7705C24.1189 22.8625 23.9539 22.9575 23.7809 22.9575C23.5159 22.9465 23.4579 22.8945 23.3909 22.8345C23.3719 22.8175 23.3519 22.8005 23.3259 22.7825C23.2589 22.8805 23.1389 22.9755 23.0449 23.0405H25.0589C25.0889 22.9815 25.1269 22.9265 25.1549 22.8665C24.9859 22.7135 24.8359 22.6075 24.7239 22.6025L24.7229 22.6035Z" fill="#243B99"/>
<path d="M24.2328 22.6898C24.0848 22.7748 23.9308 22.8638 23.7678 22.8638C23.5568 22.8538 23.5138 22.8168 23.4558 22.7658C23.4258 22.7388 23.3918 22.7088 23.3348 22.6778L23.2928 22.6558L23.2708 22.6978C23.1878 22.8598 22.8698 23.0448 22.8668 23.0468L22.7168 23.1328H25.0098C25.0268 23.1018 25.0448 23.0718 25.0608 23.0398H23.0468C23.1408 22.9748 23.2608 22.8788 23.3278 22.7818C23.3538 22.7988 23.3728 22.8168 23.3928 22.8338C23.4598 22.8938 23.5178 22.9458 23.7828 22.9568C23.9558 22.9568 24.1208 22.8618 24.2798 22.7698C24.4298 22.6838 24.5708 22.6028 24.7248 22.6028C24.8368 22.6078 24.9888 22.7138 25.1568 22.8668C25.1718 22.8348 25.1868 22.8018 25.2018 22.7688C25.0578 22.6408 24.8808 22.5168 24.7098 22.5088C24.5468 22.5088 24.3868 22.6008 24.2328 22.6898Z" fill="#243B99"/>
<path d="M17.4819 22.7825C17.4559 22.7995 17.4359 22.8175 17.4169 22.8345C17.3499 22.8945 17.2919 22.9465 17.0469 22.9575C16.8539 22.9575 16.6889 22.8625 16.5299 22.7705C16.3799 22.6845 16.2379 22.6025 16.0999 22.6025C16.0009 22.6065 15.8839 22.6735 15.7559 22.7735C15.7949 22.8635 15.8369 22.9535 15.8809 23.0415H17.7619C17.6679 22.9765 17.5489 22.8805 17.4819 22.7835V22.7825Z" fill="#243B99"/>
<path d="M18.0938 23.1328L17.9448 23.0468C17.9448 23.0468 17.6248 22.8598 17.5418 22.6978L17.5198 22.6558L17.4778 22.6778C17.4208 22.7088 17.3868 22.7388 17.3568 22.7648C17.2978 22.8168 17.2568 22.8538 17.0288 22.8638C16.8808 22.8638 16.7268 22.7758 16.5788 22.6898C16.4248 22.6008 16.2658 22.5088 16.0828 22.5088C15.9628 22.5148 15.8358 22.5908 15.7168 22.6828C15.7298 22.7138 15.7458 22.7418 15.7588 22.7728C15.8868 22.6728 16.0048 22.6058 16.1028 22.6018C16.2408 22.6018 16.3828 22.6838 16.5328 22.7698C16.6918 22.8618 16.8558 22.9568 17.0488 22.9568C17.2928 22.9458 17.3518 22.8938 17.4198 22.8338C17.4388 22.8168 17.4588 22.7998 17.4848 22.7818C17.5518 22.8798 17.6708 22.9748 17.7648 23.0398H15.8838C15.8988 23.0708 15.9108 23.1018 15.9268 23.1328H18.0938Z" fill="#243B99"/>
<path d="M17.3048 22.2665C17.2698 22.1765 17.2128 22.0035 17.1988 21.8005C16.9618 21.7335 16.7198 21.8625 16.4988 21.9915C16.3448 22.0815 16.1988 22.1665 16.0538 22.1725C15.8238 22.1725 15.6038 22.0335 15.4668 21.9245L15.5848 22.2535L17.3048 22.2665Z" fill="#243B99"/>
<path d="M17.4168 22.2931C17.4168 22.2931 17.3038 22.0531 17.2898 21.7631L17.2878 21.7321L17.2578 21.7221C16.9768 21.6281 16.6838 21.7751 16.4508 21.9121C16.3068 21.9951 16.1708 22.0751 16.0318 22.0811C15.7648 22.0811 15.4958 21.8351 15.4238 21.7641C15.4678 21.9621 15.5258 22.1551 15.5908 22.3461L17.4478 22.3611L17.4158 22.2941L17.4168 22.2931ZM16.0528 22.1721C16.1978 22.1661 16.3428 22.0811 16.4978 21.9911C16.7188 21.8621 16.9608 21.7341 17.1978 21.8001C17.2128 22.0031 17.2688 22.1761 17.3038 22.2661L15.5838 22.2531L15.4658 21.9241C15.6028 22.0331 15.8228 22.1721 16.0528 22.1721Z" fill="#243B99"/>
<path d="M24.8072 22.1732C24.6412 22.1662 24.4962 22.0812 24.3412 21.9912C24.1202 21.8622 23.8762 21.7342 23.6412 21.8002C23.6262 22.0032 23.5702 22.1762 23.5352 22.2662L25.2552 22.2532L25.3732 21.9252C25.2382 22.0342 25.0242 22.1722 24.8082 22.1722L24.8072 22.1732Z" fill="#243B99"/>
<path d="M24.7906 22.0791C24.6696 22.0741 24.5336 21.9951 24.3896 21.9111C24.1556 21.7741 23.8636 21.6271 23.5816 21.7211L23.5516 21.7311V21.7621C23.5356 22.0511 23.4246 22.2901 23.4226 22.2921L23.3906 22.3591L25.3206 22.3441L25.5206 21.7881C25.5206 21.7881 25.5216 21.7831 25.5226 21.7801L25.4456 21.7331C25.4456 21.7331 25.1156 22.0791 24.7906 22.0791ZM23.5346 22.2661C23.5696 22.1761 23.6266 22.0031 23.6406 21.8001C23.8766 21.7331 24.1206 21.8621 24.3406 21.9911C24.4956 22.0811 24.6406 22.1661 24.8066 22.1731C25.0226 22.1731 25.2366 22.0351 25.3716 21.9261L25.2536 22.2541L23.5336 22.2671L23.5346 22.2661Z" fill="#243B99"/>
<path d="M20.1298 22.2406C20.1298 22.1896 20.2238 22.1896 20.2238 22.2406C20.2238 22.2466 20.2238 22.2526 20.2208 22.2576L20.8208 22.2386C20.8138 22.2176 20.7998 22.1896 20.7738 22.1636C20.7048 22.0936 20.5778 22.0566 20.4048 22.0566C20.0978 22.0566 20.0278 22.1866 20.0078 22.2646L20.1358 22.2606C20.1328 22.2546 20.1308 22.2486 20.1308 22.2406H20.1298Z" fill="#243B99"/>
<path d="M20.4035 21.9639C20.2005 21.9639 19.9495 22.0199 19.9065 22.2939L19.8555 22.3629L20.9185 22.3299L20.9205 22.2879C20.9205 22.2879 20.9245 22.1889 20.8425 22.1029C20.7545 22.0109 20.6065 21.9649 20.4025 21.9649L20.4035 21.9639ZM20.4035 22.0569C20.5765 22.0569 20.7045 22.0939 20.7725 22.1639C20.7985 22.1899 20.8125 22.2179 20.8195 22.2389L20.2195 22.2579C20.2215 22.2529 20.2225 22.2469 20.2225 22.2409C20.2225 22.1899 20.1285 22.1899 20.1285 22.2409C20.1285 22.2479 20.1305 22.2549 20.1335 22.2609L20.0055 22.2649C20.0255 22.1859 20.0965 22.0569 20.4035 22.0569Z" fill="#243B99"/>
<path d="M19.3916 16.0049L19.4066 19.3609C19.4066 19.3869 19.4246 19.4099 19.4496 19.4159L21.3756 19.9199C21.3756 19.9199 21.3856 19.9219 21.3906 19.9219C21.4036 19.9219 21.4156 19.9179 21.4266 19.9099C21.4416 19.8989 21.4496 19.8819 21.4496 19.8639V17.1699C21.4496 17.1549 21.4266 17.1409 21.4156 17.1289C21.4046 17.1179 21.3736 17.1129 21.3576 17.1129C20.8916 17.1129 20.4986 16.6039 20.4826 16.1829C20.4666 15.7719 20.7786 15.5119 21.3366 15.4709C21.3666 15.4689 21.3896 15.4449 21.3906 15.4149C21.3916 15.3849 21.3706 15.3599 21.3406 15.3559C21.0486 15.3149 20.7906 15.2939 20.5756 15.2939C19.6856 15.2939 19.5396 15.6439 19.3916 16.0049ZM20.9456 15.4269C20.5626 15.5519 20.3516 15.8209 20.3656 16.1879C20.3836 16.6519 20.7896 17.1899 21.3326 17.2269V19.7889L19.5226 19.3149L19.5046 16.0259C19.6386 15.7089 19.7646 15.4089 20.5766 15.4089C20.6886 15.4089 20.8116 15.4149 20.9456 15.4259V15.4269Z" fill="#63001D"/>
<path d="M18.2442 21.2363C18.1982 21.2363 18.1602 21.2733 18.1602 21.3193C18.1602 21.3653 18.1982 21.4033 18.2442 21.4033L22.5982 21.4173C22.6442 21.4173 22.6822 21.3803 22.6822 21.3343C22.6822 21.2883 22.6442 21.2503 22.5982 21.2503L18.2442 21.2363Z" fill="#63001D"/>
<path d="M18.6793 20.508L18.4933 20.264C18.4753 20.24 18.4404 20.235 18.4164 20.253C18.3924 20.271 18.3873 20.305 18.4053 20.329L18.6494 20.65L18.6743 20.62L18.6783 20.507L18.6793 20.508Z" fill="#63001D"/>
<path d="M18.7838 20.6733C18.7838 20.6983 18.7608 20.7123 18.7378 20.7173L18.7188 20.7403L18.9218 21.0063C18.9328 21.0203 18.9488 21.0273 18.9658 21.0273C18.9778 21.0273 18.9888 21.0243 18.9988 21.0173C19.0228 20.9993 19.0278 20.9653 19.0098 20.9413L18.7918 20.6543L18.7848 20.6623V20.6733H18.7838Z" fill="#63001D"/>
<path d="M19.0432 20.2694C19.0202 20.2494 18.9852 20.2544 18.9662 20.2764L18.7892 20.4854L18.7832 20.6624L18.7902 20.6544L19.0502 20.3464C19.0702 20.3234 19.0662 20.2894 19.0432 20.2704V20.2694Z" fill="#63001D"/>
<path d="M18.728 20.7251H18.726C18.696 20.7251 18.672 20.6991 18.673 20.6691L18.675 20.6211L18.65 20.6511L18.407 20.9391C18.388 20.9621 18.391 20.9961 18.414 21.0151C18.424 21.0241 18.437 21.0271 18.449 21.0271C18.465 21.0271 18.48 21.0201 18.491 21.0081L18.717 20.7401L18.736 20.7171C18.736 20.7171 18.732 20.7251 18.728 20.7251Z" fill="#63001D"/>
<path d="M18.6739 20.621L18.6719 20.669C18.6719 20.699 18.6949 20.724 18.7249 20.725H18.7269C18.7269 20.725 18.7309 20.718 18.7349 20.717C18.7579 20.711 18.7799 20.697 18.7809 20.673V20.662L18.7879 20.485L18.7959 20.255C18.7959 20.225 18.7739 20.2 18.7429 20.199C18.7129 20.186 18.6869 20.222 18.6859 20.251L18.6769 20.508L18.6739 20.621Z" fill="#63001D"/>
<path d="M19.606 20.6733C19.606 20.6983 19.583 20.7123 19.56 20.7173L19.541 20.7393L19.744 21.0053C19.755 21.0193 19.771 21.0263 19.788 21.0263C19.8 21.0263 19.811 21.0233 19.821 21.0163C19.845 20.9983 19.85 20.9643 19.832 20.9403L19.614 20.6533L19.607 20.6613V20.6723L19.606 20.6733Z" fill="#63001D"/>
<path d="M19.4996 20.621L19.5036 20.508L19.3176 20.264C19.2986 20.24 19.2646 20.235 19.2406 20.253C19.2166 20.271 19.2116 20.305 19.2296 20.329L19.4736 20.65L19.4986 20.62L19.4996 20.621Z" fill="#63001D"/>
<path d="M19.6074 20.6624L19.6144 20.6544L19.8744 20.3464C19.8944 20.3234 19.8904 20.2894 19.8674 20.2704C19.8444 20.2504 19.8094 20.2554 19.7904 20.2774L19.6134 20.4864L19.6074 20.6624Z" fill="#63001D"/>
<path d="M19.5522 20.7251H19.5512C19.5202 20.7251 19.4972 20.6991 19.4982 20.6691L19.5002 20.6211L19.4752 20.6511L19.2332 20.9391C19.2142 20.9621 19.2172 20.9961 19.2402 21.0151C19.2502 21.0241 19.2632 21.0271 19.2752 21.0271C19.2912 21.0271 19.3062 21.0201 19.3172 21.0081L19.5432 20.7401L19.5622 20.7181C19.5622 20.7181 19.5582 20.7261 19.5542 20.7261L19.5522 20.7251Z" fill="#63001D"/>
<path d="M19.4981 20.621L19.4961 20.669C19.4961 20.699 19.5181 20.724 19.5491 20.725C19.5491 20.725 19.5541 20.718 19.5581 20.717C19.5811 20.711 19.6031 20.697 19.6041 20.673V20.662L19.6111 20.486L19.6191 20.256C19.6191 20.226 19.5971 20.201 19.5661 20.2C19.5301 20.187 19.5101 20.223 19.5091 20.252L19.5001 20.509L19.4961 20.622L19.4981 20.621Z" fill="#63001D"/>
<path d="M20.3415 20.508L20.1555 20.264C20.1365 20.24 20.1025 20.235 20.0785 20.253C20.0545 20.271 20.0495 20.305 20.0675 20.329L20.3115 20.65L20.3365 20.62L20.3405 20.507L20.3415 20.508Z" fill="#63001D"/>
<path d="M20.4439 20.6733C20.4439 20.6983 20.4209 20.7123 20.3979 20.7173L20.3789 20.7403L20.5819 21.0063C20.5929 21.0203 20.6089 21.0273 20.6259 21.0273C20.6379 21.0273 20.6489 21.0243 20.6589 21.0173C20.6829 20.9993 20.6879 20.9653 20.6699 20.9413L20.4519 20.6543L20.4449 20.6623L20.4439 20.6733Z" fill="#63001D"/>
<path d="M20.4453 20.6624L20.4523 20.6544L20.7123 20.3464C20.7313 20.3234 20.7283 20.2894 20.7053 20.2704C20.6823 20.2504 20.6473 20.2554 20.6283 20.2774L20.4513 20.4874L20.4453 20.6624Z" fill="#63001D"/>
<path d="M20.3891 20.7251H20.3871C20.3571 20.7251 20.3331 20.6991 20.3341 20.6691L20.3361 20.6211L20.3111 20.6511L20.0691 20.9391C20.0501 20.9621 20.0531 20.9961 20.0761 21.0151C20.0861 21.0241 20.0991 21.0271 20.1111 21.0271C20.1271 21.0271 20.1421 21.0201 20.1531 21.0081L20.3791 20.7401L20.3981 20.7171C20.3981 20.7171 20.3931 20.7251 20.3891 20.7251Z" fill="#63001D"/>
<path d="M20.406 20.199C20.379 20.186 20.351 20.222 20.349 20.251L20.34 20.508L20.336 20.621L20.334 20.669C20.334 20.699 20.356 20.724 20.387 20.725H20.389C20.389 20.725 20.393 20.718 20.397 20.717C20.42 20.711 20.442 20.697 20.443 20.673V20.662L20.45 20.486L20.458 20.256C20.458 20.226 20.436 20.201 20.405 20.2L20.406 20.199Z" fill="#63001D"/>
<path d="M21.3121 20.6733C21.3121 20.7003 21.2881 20.7193 21.2611 20.7223L21.2461 20.7403L21.4491 21.0063C21.4601 21.0203 21.4761 21.0273 21.4931 21.0273C21.5051 21.0273 21.5161 21.0243 21.5261 21.0173C21.5501 20.9993 21.5551 20.9653 21.5371 20.9413L21.3191 20.6543L21.3131 20.6613L21.3121 20.6733Z" fill="#63001D"/>
<path d="M21.2096 20.51L21.0226 20.264C21.0046 20.24 20.9696 20.235 20.9456 20.253C20.9216 20.271 20.9166 20.305 20.9346 20.329L21.1786 20.65L21.2046 20.619L21.2086 20.509L21.2096 20.51Z" fill="#63001D"/>
<path d="M21.3145 20.6614L21.3205 20.6544L21.5805 20.3464C21.6005 20.3234 21.5965 20.2894 21.5735 20.2704C21.5505 20.2504 21.5155 20.2554 21.4965 20.2774L21.3205 20.4854L21.3145 20.6614Z" fill="#63001D"/>
<path d="M21.2597 20.7251H21.2577C21.2277 20.7251 21.2037 20.6991 21.2047 20.6691L21.2067 20.6201L21.1807 20.6511L20.9387 20.9391C20.9187 20.9621 20.9227 20.9961 20.9457 21.0151C20.9557 21.0241 20.9687 21.0271 20.9807 21.0271C20.9967 21.0271 21.0117 21.0201 21.0227 21.0081L21.2487 20.7401L21.2637 20.7221L21.2607 20.7251H21.2597Z" fill="#63001D"/>
<path d="M21.2051 20.62L21.2031 20.669C21.2031 20.699 21.2251 20.724 21.2561 20.725H21.2581C21.2581 20.725 21.2601 20.722 21.2611 20.722C21.2881 20.72 21.3111 20.701 21.3121 20.673V20.661L21.3191 20.485L21.3271 20.256C21.3281 20.226 21.3051 20.201 21.2741 20.2C21.2401 20.187 21.2181 20.223 21.2181 20.252L21.2091 20.51L21.2051 20.62Z" fill="#63001D"/>
<path d="M22.1509 20.6733C22.1509 20.6983 22.1279 20.7123 22.1049 20.7173L22.0859 20.7393L22.2889 21.0053C22.2999 21.0193 22.3159 21.0263 22.3329 21.0263C22.3449 21.0263 22.3559 21.0233 22.3659 21.0163C22.3899 20.9983 22.3949 20.9643 22.3769 20.9403L22.1589 20.6533L22.1519 20.6613V20.6723L22.1509 20.6733Z" fill="#63001D"/>
<path d="M22.0485 20.509L21.8625 20.264C21.8445 20.24 21.8095 20.235 21.7855 20.253C21.7615 20.271 21.7565 20.305 21.7745 20.329L22.0185 20.65L22.0445 20.62L22.0485 20.508V20.509Z" fill="#63001D"/>
<path d="M22.4104 20.2694C22.3874 20.2494 22.3524 20.2544 22.3334 20.2764L22.1574 20.4854L22.1504 20.6624L22.1574 20.6544L22.4174 20.3464C22.4374 20.3234 22.4334 20.2894 22.4104 20.2704V20.2694Z" fill="#63001D"/>
<path d="M22.0952 20.7251H22.0932C22.0632 20.7251 22.0392 20.6991 22.0402 20.6691L22.0422 20.6211L22.0162 20.6511L21.7742 20.9391C21.7552 20.9621 21.7582 20.9961 21.7812 21.0151C21.7912 21.0241 21.8042 21.0271 21.8162 21.0271C21.8322 21.0271 21.8472 21.0201 21.8582 21.0081L22.0842 20.7401L22.1032 20.7181C22.1032 20.7181 22.0992 20.7251 22.0952 20.7251Z" fill="#63001D"/>
<path d="M22.043 20.6211L22.041 20.6691C22.04 20.6991 22.063 20.7241 22.094 20.7251H22.096C22.096 20.7251 22.1 20.7181 22.104 20.7171C22.127 20.7111 22.149 20.6981 22.15 20.6731V20.6621L22.157 20.4851L22.166 20.2551C22.166 20.2251 22.144 20.2001 22.113 20.1991C22.074 20.1861 22.057 20.2211 22.056 20.2511L22.046 20.5091L22.043 20.6211Z" fill="#63001D"/>
<path d="M19.9478 21.8093C19.9548 21.7813 19.9398 21.7533 19.9128 21.7423C19.8858 21.7323 19.8548 21.7423 19.8408 21.7663C19.6808 22.0263 19.3828 22.1763 19.0238 22.1763C18.6418 22.1763 18.2708 22.0063 18.1378 21.7703C18.0908 21.6443 18.0988 19.9263 18.1168 18.8733C18.1168 18.8503 18.1038 18.8293 18.0828 18.8193C18.0518 18.8053 17.9878 18.7633 17.9858 18.7233C17.9858 18.7143 18.0168 18.6943 18.0358 18.6823C18.0838 18.6513 18.1568 18.6053 18.1568 18.5133C18.1568 18.4163 18.0768 18.3843 18.0288 18.3663C17.9788 18.3473 17.9738 18.3403 17.9728 18.3273C17.9728 18.3103 17.9888 18.2993 18.0368 18.2763C18.0878 18.2513 18.1638 18.2143 18.1558 18.1233C18.1478 18.0303 18.0658 17.9953 18.0058 17.9683C17.9638 17.9493 17.9348 17.9353 17.9338 17.9183C17.9318 17.8883 18.0138 17.8323 18.0498 17.8073C18.0518 17.8063 18.1008 17.7703 18.1028 17.7683C18.1208 17.7523 18.1148 17.7273 18.1058 17.7043C18.0838 17.6473 17.9468 17.6663 17.9268 17.6653C17.9248 17.6653 17.9228 17.6653 17.9208 17.6653L17.5998 17.6713C17.5308 17.6713 17.4658 17.6713 17.4448 17.7223C17.4358 17.7443 17.4688 17.8063 17.4868 17.8233C17.5118 17.8463 17.5428 17.8753 17.5418 17.9063C17.5418 17.9303 17.5158 17.9593 17.4908 17.9873C17.4588 18.0223 17.4238 18.0623 17.4158 18.1183C17.4128 18.1843 17.4658 18.2283 17.5128 18.2663C17.5408 18.2893 17.5798 18.3203 17.5808 18.3383C17.5768 18.3463 17.5458 18.3623 17.5298 18.3703C17.4848 18.3943 17.4158 18.4283 17.4218 18.5043C17.4298 18.5963 17.4868 18.6483 17.5278 18.6853C17.5448 18.7003 17.5658 18.7203 17.5668 18.7263C17.5608 18.7383 17.5198 18.7603 17.4978 18.7723C17.4448 18.8013 17.3838 18.8333 17.3828 18.9003C17.3898 19.0153 17.4088 21.8573 17.4098 21.8963C17.5578 22.6463 18.0778 23.1703 18.6738 23.1703C19.2618 23.1703 19.7388 22.6613 19.9468 21.8093H19.9478ZM18.6748 23.0543C18.1348 23.0543 17.6628 22.5693 17.5268 21.8853C17.5268 21.7683 17.5068 19.0113 17.4968 18.9103C17.5038 18.9013 17.5348 18.8853 17.5538 18.8753C17.6108 18.8443 17.6818 18.8073 17.6838 18.7333C17.6848 18.6723 17.6428 18.6333 17.6078 18.6013C17.5728 18.5703 17.5438 18.5433 17.5378 18.5033C17.5428 18.4963 17.5688 18.4823 17.5848 18.4743C17.6308 18.4513 17.6998 18.4153 17.6978 18.3383C17.6968 18.2653 17.6368 18.2163 17.5878 18.1773C17.5688 18.1613 17.5358 18.1353 17.5318 18.1293C17.5338 18.1123 17.5568 18.0873 17.5768 18.0643C17.6128 18.0243 17.6558 17.9763 17.6578 17.9093C17.6578 17.8603 17.6388 17.8213 17.6118 17.7873L17.8888 17.7823C17.8458 17.8223 17.8118 17.8703 17.8158 17.9273C17.8218 18.0133 17.9008 18.0483 17.9578 18.0733C18.0128 18.0973 18.0368 18.1113 18.0388 18.1323C18.0388 18.1423 18.0228 18.1523 17.9848 18.1713C17.9338 18.1963 17.8568 18.2343 17.8558 18.3283C17.8588 18.4243 17.9388 18.4553 17.9858 18.4733C18.0368 18.4933 18.0388 18.4983 18.0388 18.5123C18.0388 18.5383 18.0178 18.5553 17.9718 18.5843C17.9258 18.6133 17.8638 18.6533 17.8688 18.7303C17.8748 18.8183 17.9518 18.8783 17.9998 18.9063C17.9528 21.8343 18.0148 21.8403 18.0398 21.8273C18.1908 22.1013 18.5958 22.2923 19.0248 22.2923C19.3168 22.2923 19.5718 22.2023 19.7608 22.0403C19.5418 22.6803 19.1468 23.0553 18.6758 23.0553L18.6748 23.0543Z" fill="#63001D"/>
<path d="M21.8561 22.1754C21.4971 22.1754 21.1991 22.0254 21.0381 21.7654C21.0231 21.7414 20.9931 21.7314 20.9661 21.7424C20.9391 21.7534 20.9251 21.7824 20.9311 21.8094C21.1401 22.6624 21.6161 23.1704 22.2051 23.1704C22.8011 23.1704 23.3211 22.6464 23.4701 21.8864C23.4701 21.8574 23.4891 19.0154 23.4951 18.8974C23.4951 18.8334 23.4341 18.8014 23.3801 18.7724C23.3581 18.7604 23.3171 18.7384 23.3111 18.7294C23.3111 18.7214 23.3341 18.6994 23.3501 18.6864C23.3911 18.6484 23.4481 18.5974 23.4561 18.5044C23.4621 18.4294 23.3941 18.3944 23.3491 18.3714C23.3331 18.3624 23.3031 18.3474 23.2991 18.3404C23.2991 18.3204 23.3381 18.2884 23.3661 18.2664C23.4131 18.2274 23.4671 18.1834 23.4631 18.1124C23.4551 18.0614 23.4201 18.0224 23.3891 17.9874C23.3641 17.9594 23.3381 17.9304 23.3371 17.9054C23.3371 17.8744 23.3671 17.8454 23.3921 17.8234C23.4091 17.8064 23.4421 17.7454 23.4331 17.7224C23.4131 17.6714 23.3481 17.6714 23.2791 17.6714L22.9521 17.6654C22.9441 17.6654 22.8881 17.6684 22.8251 17.6674C22.8031 17.6554 22.7891 17.6914 22.7801 17.7144C22.7711 17.7384 22.7901 17.7754 22.8101 17.7914C22.8581 17.8304 22.8951 17.8644 22.8921 17.9064C22.8901 17.9294 22.8791 17.9384 22.8431 17.9624C22.8011 17.9904 22.7441 18.0284 22.7361 18.1144C22.7291 18.2024 22.7991 18.2424 22.8451 18.2694C22.8901 18.2944 22.9041 18.3064 22.9041 18.3234C22.9041 18.3404 22.8991 18.3464 22.8521 18.3654C22.8071 18.3844 22.7311 18.4154 22.7311 18.5114C22.7311 18.6024 22.7991 18.6494 22.8441 18.6794C22.8661 18.6944 22.8911 18.7114 22.8901 18.7224C22.8881 18.7624 22.8241 18.8044 22.7941 18.8184C22.7731 18.8284 22.7591 18.8494 22.7601 18.8724C22.7771 19.9254 22.7861 21.6434 22.7351 21.7714C22.6061 22.0054 22.2351 22.1754 21.8521 22.1754H21.8561ZM22.8811 18.9054C22.9291 18.8774 23.0061 18.8174 23.0111 18.7294C23.0161 18.6534 22.9571 18.6134 22.9151 18.5844C22.8721 18.5544 22.8531 18.5394 22.8531 18.5114C22.8531 18.4964 22.8551 18.4914 22.9021 18.4714C22.9471 18.4534 23.0221 18.4214 23.0251 18.3244C23.0251 18.2354 22.9541 18.1954 22.9071 18.1684C22.8651 18.1444 22.8551 18.1354 22.8561 18.1244C22.8581 18.0964 22.8721 18.0844 22.9111 18.0584C22.9511 18.0314 23.0071 17.9954 23.0121 17.9144C23.0161 17.8614 22.9971 17.8184 22.9681 17.7804L23.2661 17.7864C23.2421 17.8174 23.2201 17.8574 23.2221 17.9084C23.2231 17.9744 23.2671 18.0234 23.3031 18.0634C23.3231 18.0864 23.3461 18.1114 23.3481 18.1214C23.3451 18.1334 23.3121 18.1594 23.2931 18.1754C23.2451 18.2154 23.1851 18.2634 23.1831 18.3364C23.1811 18.4134 23.2501 18.4484 23.2961 18.4724C23.3121 18.4804 23.3371 18.4934 23.3401 18.4944C23.3371 18.5404 23.3071 18.5674 23.2721 18.5994C23.2371 18.6314 23.1941 18.6704 23.1951 18.7324C23.1981 18.8054 23.2691 18.8434 23.3251 18.8734C23.3441 18.8844 23.3761 18.8994 23.3781 18.8944C23.3721 19.0124 23.3541 21.7674 23.3541 21.8744C23.2171 22.5694 22.7441 23.0544 22.2051 23.0544C21.7341 23.0544 21.3391 22.6794 21.1201 22.0394C21.3081 22.2024 21.5651 22.2924 21.8561 22.2924C22.2851 22.2924 22.6911 22.1014 22.8061 21.8564C22.8611 21.8414 22.9281 21.8224 22.8821 18.9064L22.8811 18.9054Z" fill="#63001D"/>
<path d="M19.1757 21.6477C19.1787 21.6537 19.0497 21.7347 18.9277 21.8407H19.3687C19.4787 21.7807 19.5697 21.7257 19.6447 21.6377L19.1757 21.6477Z" fill="#63001D"/>
<path d="M19.4297 21.9979C19.6087 21.9029 19.7657 21.8049 19.8777 21.5869L19.9417 21.4619L19.1267 21.4919C19.1137 21.4989 18.8167 21.6749 18.6607 21.8719L18.5547 22.0069H19.4107L19.4287 21.9969L19.4297 21.9979ZM18.9267 21.8409C19.0477 21.7359 19.1777 21.6539 19.1747 21.6479L19.6437 21.6369C19.5687 21.7249 19.4777 21.7809 19.3677 21.8399L18.9267 21.8409Z" fill="#63001D"/>
<path d="M21.8997 21.8428C21.7657 21.7268 21.6137 21.6368 21.6117 21.6358L21.1777 21.6338C21.2567 21.7278 21.3547 21.7858 21.4747 21.8498L21.8997 21.8428Z" fill="#63001D"/>
<path d="M21.4348 22.0069H22.2678L22.1618 21.8719C22.0068 21.6739 21.7098 21.4979 21.6568 21.4799L20.8828 21.4619L20.9468 21.5869C21.0588 21.8049 21.2158 21.9019 21.4348 22.0069ZM21.6118 21.6359C21.6118 21.6359 21.7658 21.7269 21.8998 21.8429L21.4748 21.8499C21.3548 21.7859 21.2568 21.7289 21.1778 21.6339L21.6118 21.6359Z" fill="#63001D"/>
<path d="M2.5 26.5H38.5V14.5H2.5V26.5ZM22.108 15.54C22.143 15.551 22.172 15.568 22.206 15.579C22.443 15.658 22.671 15.746 22.884 15.853C22.892 15.857 22.9 15.863 22.908 15.867C23.01 15.919 23.101 15.982 23.197 16.039C23.261 16.078 23.328 16.113 23.39 16.154C23.468 16.206 23.546 16.257 23.62 16.312C23.747 16.406 23.867 16.508 23.982 16.613C24.038 16.664 24.096 16.711 24.149 16.764C24.17 16.785 24.188 16.809 24.209 16.831C24.298 16.923 24.381 17.019 24.462 17.116C24.489 17.148 24.52 17.178 24.546 17.21C24.594 17.272 24.638 17.336 24.683 17.399C24.77 17.521 24.852 17.646 24.928 17.775C24.972 17.849 25.013 17.924 25.053 18C25.081 18.053 25.103 18.108 25.129 18.162C25.29 18.498 25.425 18.847 25.513 19.21C25.558 19.396 25.587 19.585 25.613 19.775C25.629 19.889 25.642 20.002 25.65 20.117C25.663 20.289 25.673 20.461 25.67 20.634C25.664 21.02 25.608 21.404 25.522 21.781C25.522 21.784 25.521 21.787 25.52 21.789C25.443 22.124 25.342 22.453 25.201 22.769C25.186 22.802 25.172 22.834 25.156 22.867C25.128 22.927 25.091 22.982 25.06 23.041C25.044 23.072 25.026 23.103 25.009 23.134C24.896 23.342 24.768 23.541 24.625 23.733C24.606 23.758 24.587 23.784 24.568 23.809C24.542 23.842 24.518 23.876 24.492 23.909C24.468 23.939 24.447 23.972 24.422 24.002C24.24 24.216 24.042 24.419 23.819 24.606C23.794 24.627 23.766 24.644 23.741 24.665C23.724 24.678 23.705 24.689 23.688 24.703C23.647 24.735 23.601 24.764 23.558 24.795C23.424 24.894 23.295 24.997 23.148 25.085C22.974 25.209 22.8 25.312 22.624 25.4C22.534 25.445 22.442 25.479 22.351 25.516C22.175 25.588 21.995 25.649 21.811 25.696C21.57 25.758 21.325 25.809 21.066 25.841C20.498 25.841 19.93 25.841 19.363 25.746C18.989 25.67 18.647 25.544 18.32 25.399C17.936 25.228 17.58 25.019 17.264 24.768C17.232 24.743 17.204 24.713 17.173 24.687C17.122 24.644 17.073 24.599 17.024 24.555C16.998 24.532 16.972 24.51 16.946 24.486C16.777 24.326 16.621 24.156 16.477 23.976C16.453 23.946 16.426 23.919 16.403 23.889C16.361 23.834 16.321 23.778 16.281 23.722C16.263 23.697 16.249 23.67 16.231 23.644C16.12 23.48 16.014 23.312 15.922 23.136C15.906 23.106 15.894 23.074 15.879 23.043C15.835 22.955 15.794 22.866 15.754 22.775C15.741 22.745 15.725 22.716 15.712 22.685C15.666 22.574 15.627 22.461 15.589 22.347C15.524 22.156 15.466 21.962 15.422 21.765C15.392 21.632 15.368 21.499 15.347 21.364C15.287 20.964 15.273 20.558 15.3 20.152C15.308 20.036 15.308 19.919 15.323 19.804C15.377 19.386 15.488 18.975 15.641 18.576C15.683 18.468 15.728 18.361 15.777 18.254C15.953 17.873 16.17 17.507 16.445 17.168C16.531 17.062 16.632 16.965 16.728 16.864C16.818 16.769 16.899 16.67 16.998 16.581C17.209 16.393 17.427 16.229 17.651 16.085C17.771 16.008 17.9 15.95 18.024 15.885C18.374 15.7 18.737 15.544 19.129 15.435C19.386 15.363 19.652 15.305 19.93 15.258C20.538 15.258 21.087 15.266 21.671 15.413C21.814 15.449 21.957 15.486 22.106 15.542L22.108 15.54Z" fill="#E3E7EA"/>
</svg>
