<svg width="41" height="41" viewBox="0 0 41 41" fill="none" xmlns="http://www.w3.org/2000/svg">
<path d="M34.5 8.5H6.5C4.29086 8.5 2.5 10.2909 2.5 12.5V28.5C2.5 30.7091 4.29086 32.5 6.5 32.5H34.5C36.7091 32.5 38.5 30.7091 38.5 28.5V12.5C38.5 10.2909 36.7091 8.5 34.5 8.5Z" fill="#CF002E"/>
<path d="M3.101 10.4121C2.727 11.0201 2.5 11.7291 2.5 12.4951V28.5041C2.5 30.4461 3.886 32.0611 5.722 32.4211C5.973 32.4701 6.231 32.4991 6.496 32.4991H34.505C34.77 32.4991 35.028 32.4701 35.279 32.4211C36.39 32.2031 37.326 31.5201 37.9 30.5871L3.101 10.4121Z" fill="black"/>
<path d="M26.6074 15.5063C26.3714 15.8093 25.8124 15.2013 25.1424 15.1873C24.4724 15.1733 23.9984 15.8253 23.8034 16.0473C23.6084 16.2693 22.9794 17.4343 22.9944 17.5593C23.0084 17.6843 23.3844 17.2123 23.5244 17.1293C23.5384 17.2953 23.3704 17.4893 23.4124 17.5453C23.4544 17.6003 23.9014 17.2123 24.0544 17.1983C24.0964 17.3093 23.9704 17.4203 24.0124 17.5873C24.0674 17.6423 24.3194 17.3103 24.4864 17.2403C24.5144 17.3653 24.3324 17.6003 24.4304 17.7533C24.5004 17.7673 24.9194 17.2823 25.0584 17.2263C25.1984 17.1703 24.9884 17.6843 25.0584 17.7253C25.1844 17.6423 25.5754 17.1983 25.7004 17.1433C25.8264 17.0873 25.6864 17.7123 25.7424 17.7123C25.8954 17.6013 26.2874 17.0743 26.3284 16.9913C26.3704 16.9083 26.2864 17.7953 26.7194 18.2673C27.1524 18.7383 27.8074 19.2793 27.8774 19.2793C27.9614 19.1263 27.8494 18.8073 27.9194 18.8223C28.1154 19.0303 28.4774 19.3353 28.5614 19.3353C28.6454 19.3353 28.5054 19.0023 28.6174 19.0023C28.8404 19.2103 29.4824 20.0283 30.7384 20.4033C30.6544 20.1673 30.4734 19.9593 30.4594 19.8483C30.5434 19.8623 30.8364 20.0013 30.8924 19.9873C30.9484 19.9733 30.2784 19.1553 30.3204 19.0443C30.4734 19.0303 30.5434 19.1273 30.5994 19.0583C30.5294 18.9473 29.9424 18.2953 29.9424 18.1423C29.9424 17.9893 30.1244 18.1703 30.1804 18.1423C30.2364 18.1153 29.9574 17.5323 30.0134 17.4633C30.0694 17.3933 30.6824 17.8373 30.8364 17.8373C30.9904 17.8373 30.8784 17.2963 30.9484 17.2683C31.0184 17.2403 31.5344 17.5593 31.6454 17.5593C31.7574 17.5593 31.7434 17.3233 31.7854 17.3513C31.8274 17.3793 33.0404 18.5853 32.6224 20.0003C32.2034 21.0123 31.3664 21.5533 30.1384 21.1093C30.2084 21.2203 30.8634 21.7613 31.5754 21.5673C32.2874 21.3733 33.1524 20.8183 33.0544 19.4313C32.9574 18.0443 32.4964 17.8503 32.4254 17.6423C32.3554 17.4343 32.5374 17.6983 32.6914 17.7533C32.8454 17.8093 32.6634 17.4623 32.6214 17.3103C32.5794 17.1573 33.0824 17.6293 33.2074 17.6703C33.3334 17.7123 32.9134 16.5333 32.7884 16.4503C32.6624 16.3673 32.9144 16.4783 32.9984 16.5063C33.0824 16.5333 32.2304 15.2163 32.0494 15.2163C31.8684 15.2163 32.2034 15.1463 32.3004 15.1463C32.3994 15.1463 31.3244 14.2863 31.1424 14.2863C30.9604 14.2863 31.5334 14.0643 31.5894 14.0503C31.6874 14.0643 30.3474 13.3433 29.1474 14.0643C29.0784 14.0093 29.7124 13.5723 29.7334 13.3853C29.7404 13.3373 29.5234 13.2323 29.5104 13.1773C29.4954 13.1213 29.8444 12.9553 29.8594 12.8303C29.7754 12.7193 29.6224 12.7613 29.5384 12.7333C29.5184 12.6293 29.8324 12.3733 29.8044 12.2613C29.7834 12.1993 29.5534 12.1783 29.4974 12.2203C29.4414 12.2613 29.6444 11.9293 29.6094 11.8323C29.5814 11.7903 29.4694 11.8183 29.3584 11.8463C29.2874 11.8323 29.7204 11.2363 29.6374 11.1533C29.5534 11.0703 28.3814 11.7633 27.9484 12.5393C27.5154 13.3163 27.8504 13.9403 27.7944 14.2033C27.7394 14.4663 27.6684 14.7303 27.4874 14.7303C27.3064 14.7303 26.8874 14.4533 26.7484 14.3143C26.6084 14.1753 26.5804 14.0783 26.3854 14.0233C26.1904 13.9673 25.7434 14.1343 25.5764 14.1483C25.4094 14.1623 24.7524 14.0233 24.7114 14.0643C24.6694 14.1063 25.3534 14.3553 25.5074 14.4393C25.6604 14.5223 25.6744 14.6333 25.7864 14.7023C25.8974 14.7723 26.9444 15.0773 26.6094 15.5073" fill="#F9CF00"/>
<path d="M30.6956 17.4615C31.0306 17.7945 33.2906 19.2915 33.2906 21.1215C33.2906 22.9515 31.6446 22.8975 31.1696 22.8415C31.6996 23.2855 33.7096 23.2015 33.7096 21.1215C33.7096 19.2915 31.1136 17.4615 30.7796 17.2945C30.4446 17.1285 30.3606 17.1285 30.6956 17.4615Z" fill="#F9CF00"/>
<path d="M10.5258 15.9668L10.8758 17.1608H12.0838L11.1298 17.8898L11.4798 19.0508L10.5258 18.3208L9.5718 19.0178L9.9218 17.8898L8.9668 17.1608H10.1438L10.5258 15.9668Z" fill="#E3E7EA"/>
<path d="M6.86073 20.624L7.21073 21.818H8.41973L7.46473 22.548L7.81473 23.708L6.86073 22.979L5.90673 23.675L6.25673 22.548L5.30273 21.818H6.47873L6.86073 20.624Z" fill="#E3E7EA"/>
<path d="M14.1742 20.293L14.5232 21.487H15.7322L14.7782 22.217L15.1282 23.377L14.1742 22.648L13.2202 23.344L13.5692 22.217L12.6152 21.487H13.7922L14.1742 20.293Z" fill="#E3E7EA"/>
<path d="M10.5258 26.916L10.8758 28.11H12.0838L11.1298 28.84L11.4798 30.001L10.5258 29.271L9.5718 29.967L9.9218 28.84L8.9668 28.11H10.1438L10.5258 26.916Z" fill="#E3E7EA"/>
<path d="M12.1618 24.3809L12.3368 24.9779H12.9418L12.4648 25.3429L12.6388 25.9229L12.1618 25.5579L11.6848 25.9059L11.8598 25.3429L11.3828 24.9779H11.9708L12.1618 24.3809Z" fill="#E3E7EA"/>
</svg>
