<svg width="41" height="41" viewBox="0 0 41 41" fill="none" xmlns="http://www.w3.org/2000/svg">
<path d="M34.5 8.5H6.5C4.29086 8.5 2.5 10.2909 2.5 12.5V28.5C2.5 30.7091 4.29086 32.5 6.5 32.5H34.5C36.7091 32.5 38.5 30.7091 38.5 28.5V12.5C38.5 10.2909 36.7091 8.5 34.5 8.5Z" fill="#E3E7EA"/>
<path d="M23.0346 20.5H38.5006V12.496C38.5006 10.289 36.7116 8.5 34.5056 8.5H6.49562C5.55362 8.5 4.69863 8.84 4.01562 9.385L23.0346 20.5Z" fill="#2D3B9D"/>
<path d="M38.5006 28.504V20.5H23.0346L4.01562 31.615C4.69863 32.161 5.55362 32.5 6.49562 32.5H34.5046C36.7116 32.5 38.5006 30.711 38.5006 28.504Z" fill="#CF002E"/>
<path d="M5.27372 30.1909L4.36072 29.6489L3.58072 30.3739L3.80472 29.3239L2.88672 28.7919L3.93772 28.6839L4.14972 27.6309L4.57572 28.6159L5.62572 28.4959L4.83772 29.2119L5.27372 30.1909Z" fill="#F9CF00"/>
<path d="M8.04148 18.3279L7.27248 16.9849L6.83048 16.9339L7.88248 18.4549L8.04148 18.3279ZM7.44448 18.9419L5.82948 17.6779L5.77148 16.9419L6.42448 16.9189L7.76048 18.5819L7.44448 18.9429V18.9419ZM7.19948 19.2319L5.86948 18.4679L5.81348 18.0199L7.32248 19.0699L7.19948 19.2319Z" fill="#F9CF00"/>
<path d="M9.94231 18.0526L10.3443 16.5536L10.0703 16.1976L9.74331 18.0276L9.94231 18.0526ZM9.09331 18.0526L8.84531 15.9936L9.32031 15.4346L9.79531 15.8926L9.56831 18.0276L9.09331 18.0526ZM8.71831 18.0776L8.32031 16.5776L8.59531 16.2216L8.91831 18.0526L8.71831 18.0776Z" fill="#F9CF00"/>
<path d="M11.4832 19.2613L12.8232 18.5143L12.8852 18.0673L11.3632 19.0973L11.4842 19.2613H11.4832ZM10.8942 18.6383L12.1802 17.0293L12.9052 16.9893L12.9112 17.6543L11.2432 18.9693L10.8952 18.6393L10.8942 18.6383ZM10.6172 18.3813L11.4022 17.0493L11.8452 17.0043L10.7742 18.5113L10.6172 18.3813Z" fill="#F9CF00"/>
<path d="M11.7222 21.1393L13.1962 21.5483L13.5462 21.2693L11.7472 20.9363L11.7212 21.1403L11.7222 21.1393ZM11.7242 20.2743L13.7482 20.0243L14.2972 20.5073L13.8472 20.9893L11.7482 20.7573L11.7242 20.2743ZM11.6992 19.8933L13.1742 19.4883L13.5232 19.7683L11.7242 20.0953L11.6992 19.8933Z" fill="#F9CF00"/>
<path d="M10.5996 22.6678L11.3736 24.0068L11.8166 24.0558L10.7576 22.5398L10.5996 22.6678ZM11.1926 22.0508L12.8146 23.3078L12.8756 24.0438L12.2226 24.0698L10.8796 22.4128L11.1926 22.0508ZM11.4366 21.7598L12.7696 22.5168L12.8276 22.9658L11.3146 21.9228L11.4366 21.7598Z" fill="#F9CF00"/>
<path d="M8.70445 22.9529L8.31445 24.4549L8.59045 24.8099L8.90445 22.9769L8.70445 22.9529ZM9.55445 22.9479L9.81545 25.0049L9.34445 25.5669L8.86645 25.1129L9.07945 22.9759L9.55445 22.9479ZM9.92845 22.9199L10.3365 24.4169L10.0645 24.7739L9.72945 22.9459L9.92845 22.9199Z" fill="#F9CF00"/>
<path d="M7.16663 21.7754L5.83863 22.5434L5.78463 22.9924L7.28963 21.9374L7.16663 21.7754ZM7.76463 22.3884L6.50563 24.0194L5.78063 24.0704L5.76562 23.4054L7.41263 22.0634L7.76463 22.3884ZM8.04663 22.6404L7.28263 23.9864L6.84063 24.0384L7.88763 22.5144L8.04663 22.6414V22.6404Z" fill="#F9CF00"/>
<path d="M6.90398 19.8794L5.42798 19.4814L5.07998 19.7624L6.87998 20.0824L6.90398 19.8794ZM6.90898 20.7434L4.88698 21.0094L4.33398 20.5304L4.78098 20.0444L6.88098 20.2614L6.90898 20.7434ZM6.93698 21.1254L5.46498 21.5394L5.11398 21.2624L6.91098 20.9214L6.93798 21.1254H6.93698Z" fill="#F9CF00"/>
<path d="M9.31417 17.9697C10.6882 17.9697 11.8032 19.1027 11.8032 20.5007C11.8032 21.8987 10.6882 23.0327 9.31417 23.0327C7.94017 23.0327 6.82617 21.8987 6.82617 20.5007C6.82617 19.1027 7.94017 17.9697 9.31417 17.9697Z" fill="#F9CF00"/>
<path d="M17.877 21.3686L18.502 20.5016L17.875 19.6356L18.878 19.9736L19.494 19.0986L19.489 20.1736L20.496 20.4996L19.489 20.8276L19.497 21.9026L18.88 21.0296L17.877 21.3686Z" fill="#F9CF00"/>
<path d="M5.27372 10.5463L4.36072 11.0883L3.58072 10.3633L3.80472 11.4143L2.88672 11.9463L3.93772 12.0533L4.14972 13.1063L4.57572 12.1223L5.62572 12.2413L4.83772 11.5263L5.27372 10.5463Z" fill="#F9CF00"/>
</svg>
