<svg width="41" height="41" viewBox="0 0 41 41" fill="none" xmlns="http://www.w3.org/2000/svg">
<path d="M34.5 8.5H6.5C4.29086 8.5 2.5 10.2909 2.5 12.5V28.5C2.5 30.7091 4.29086 32.5 6.5 32.5H34.5C36.7091 32.5 38.5 30.7091 38.5 28.5V12.5C38.5 10.2909 36.7091 8.5 34.5 8.5Z" fill="#006D2D"/>
<path d="M6.495 8.5C4.288 8.5 2.5 10.289 2.5 12.496V28.505C2.5 30.712 4.289 32.501 6.495 32.501H9.372V8.5H6.495Z" fill="#E3E7EA"/>
<path d="M21.0205 23.2487C18.6135 20.5247 18.8565 16.3527 21.5655 13.9307C21.6825 13.8257 21.8065 13.7327 21.9285 13.6377C19.0355 14.5617 16.9375 17.2837 16.9375 20.4997C16.9375 24.4767 20.1425 27.6997 24.0945 27.6997C26.9895 27.6997 29.4785 25.9667 30.6055 23.4777C30.5005 23.5857 30.3975 23.6947 30.2835 23.7967C27.5755 26.2187 23.4275 25.9737 21.0205 23.2487Z" fill="#E3E7EA"/>
<path d="M28.5652 17.2213L29.4382 15.7243L29.4422 15.7173L29.4342 15.7203L27.8542 16.4163L26.7032 15.1123L26.8732 16.8483L25.2852 17.5473L26.9782 17.9203L27.1482 19.6563L28.0242 18.1513L29.7172 18.5243L28.5652 17.2213Z" fill="#E3E7EA"/>
</svg>
