<svg width="41" height="41" viewBox="0 0 41 41" fill="none" xmlns="http://www.w3.org/2000/svg">
<path d="M23.7581 21.4609L23.2461 23.0979C23.9341 23.2889 24.7551 23.4129 25.7501 23.4129C26.3411 23.4129 26.8731 23.3789 27.3581 23.3209H27.3561L27.3551 23.3189C27.3281 23.2969 25.6441 21.9109 24.0631 21.5099C23.9531 21.4819 23.8591 21.4769 23.7581 21.4609Z" fill="#098FC8"/>
<path d="M34.5 8.50005H12.5V25.058C12.5 25.058 13.062 26.01 13.657 25.634C14.251 25.258 14.875 24.539 16.063 25.389C17.251 26.239 17.688 25.713 18.063 25.356C18.424 25.012 18.992 24.987 19.704 25.382C18.803 24.724 18.156 24.097 17.812 23.788C16.406 22.519 15.718 22.98 15.406 22.519C15.266 22.313 15.397 22.11 15.66 21.984L14.312 21.356C14.312 21.356 13.5 21.25 13.75 20.788C14 20.326 14.5 20.99 14.5 20.99L16.853 21.961L16.847 21.967C16.908 21.987 16.969 22.003 17.031 22.031C17.969 22.463 18.531 22.607 18.281 21.857C18.031 21.107 18.125 20.501 18.125 20.501C18.125 20.501 17.719 20.472 17.719 20.126C17.719 19.831 17.838 19.642 18.586 19.592L18.906 18.567C18.834 18.554 18.761 18.54 18.687 18.54C17.906 18.54 17.656 19.52 17.656 19.52C17.656 19.52 16.843 18.395 17.312 17.01C17.781 15.625 18.187 15.049 18.187 15.049L20.166 14.535L20.54 13.341C20.258 13.344 19.83 13.374 19.369 13.507C18.572 13.738 17.385 13.103 17.385 13.103C17.385 13.103 18.354 13.19 18.854 12.959C18.385 12.844 17.76 12.196 17.76 12.196C17.76 12.196 19.353 12.613 20.041 12.324C20.358 12.191 20.659 12.182 20.894 12.209C20.894 12.209 20.813 11.413 21.313 11.557C21.813 11.701 21.354 12.324 21.354 12.324L20.727 14.388C22.229 13.997 23.832 13.576 23.782 13.576C23.688 13.576 21.563 14.874 20.657 16.374C19.75 17.874 20.188 19.374 20.188 19.374C20.188 19.374 19.856 18.995 19.401 18.747L19.149 19.578C20.19 19.591 20.344 19.762 20.344 20.095C20.344 20.441 20 20.498 20 20.498C20 20.498 20.435 21.966 22.442 22.817L22.927 21.46C22.127 21.611 21.749 22.141 21.749 22.141C21.749 22.141 20.468 19.746 21.374 18.074C22.28 16.4 22.718 15.824 22.718 15.824L25.248 14.976L26.078 12.657C25.813 12.654 25.351 12.676 24.837 12.825C24.041 13.056 22.853 12.421 22.853 12.421C22.853 12.421 23.822 12.508 24.322 12.277C23.853 12.162 23.228 11.515 23.228 11.515C23.228 11.515 24.821 11.932 25.509 11.643C25.881 11.487 26.231 11.501 26.477 11.545C26.477 11.545 26.375 10.806 26.904 11.037C27.435 11.268 26.82 11.642 26.82 11.642L25.842 14.777L28.623 13.844C28.623 13.844 26.498 16.143 26.279 18.393C26.062 20.625 27.335 23.275 27.355 23.317L27.358 23.319C27.706 23.277 28.022 23.22 28.32 23.156L29.026 20.95C27.951 21.536 28.092 22.721 28.092 22.721C28.092 22.721 26.748 20.903 27.123 18.452C27.498 16.001 28.623 15.164 28.623 15.164L31.101 14.487L31.684 12.668C31.347 12.66 30.762 12.673 30.233 12.826C29.437 13.057 28.249 12.422 28.249 12.422C28.249 12.422 29.218 12.509 29.718 12.278C29.249 12.163 28.624 11.516 28.624 11.516C28.624 11.516 30.217 11.932 30.905 11.644C31.352 11.456 31.77 11.513 32.009 11.576C32.065 11.361 32.181 11.08 32.405 11.211C32.749 11.413 32.405 12.106 32.405 12.106L31.711 14.32L34.437 13.576C34.437 13.576 32 15.191 31.345 17.357C30.689 19.521 31.22 20.962 31.22 20.962C31.22 20.962 30.525 20.584 29.712 20.709L28.999 22.982C31.171 22.322 31.751 21.134 31.751 21.134C31.751 21.134 31.282 20.874 31.751 20.239C32.22 19.604 32.657 19.373 33.782 19.373C34.058 19.373 34.29 19.403 34.479 19.457C34.848 18.902 35.438 17.999 35.438 17.898C35.438 17.75 32.844 17.7 32.844 17.7L33.719 16.113C33.719 16.113 35.062 16.171 36.25 16.546C36.875 15.363 37.25 15.651 36.874 16.258C36.577 16.738 35.402 18.84 34.924 19.696C35.124 19.898 35.14 20.179 34.968 20.497C34.624 21.132 34.218 21.132 34.218 21.132C34.218 21.132 34.124 22.574 32.624 23.814C33.091 23.985 33.468 24.494 33.733 24.969C33.781 24.997 33.826 25.021 33.876 25.054C34.657 25.574 35.376 25.801 35.532 25.298C35.688 24.795 36.407 24.622 37.188 25.141C37.969 25.661 38.5 25.43 38.5 25.43V12.19C38.5 10.151 36.709 8.49805 34.5 8.49805V8.50005Z" fill="#098FC8"/>
<path d="M37.187 26.3274C36.406 25.8084 35.687 25.9814 35.531 26.4844C35.375 26.9874 34.656 26.7604 33.875 26.2404C33.094 25.7204 32.562 25.8074 32.406 26.3844C32.25 26.9614 31.374 26.9044 30.562 26.3554C29.749 25.8074 28.936 26.2114 28.624 26.6234C28.312 27.0354 28.062 27.0764 27.058 26.4994C26.054 25.9224 25.343 26.2684 25.062 26.7584C24.781 27.2484 24.375 27.1334 23.531 26.6014C22.688 26.0694 21.906 26.2684 21.5 26.6014C21.093 26.9344 20.531 27.0464 19.781 26.6014C19.031 26.1564 18.437 26.1814 18.062 26.5384C17.687 26.8954 17.249 27.4224 16.062 26.5714C14.875 25.7214 14.25 26.4414 13.656 26.8154C13.062 27.1904 12.5 26.2384 12.5 26.2384V32.4974H34.5C36.709 32.4974 38.5 30.8444 38.5 28.8054V26.6134C38.5 26.6134 37.968 26.8444 37.187 26.3254V26.3274ZM21.625 27.9664C22.196 28.1454 22.969 28.2014 23.656 27.7974C24.343 27.3934 24.844 27.5824 25.594 28.1374C26.344 28.6924 26.906 28.5054 27.594 28.1374C28.282 27.7694 28.844 27.3074 29.813 27.7104C30.782 28.1144 31.251 28.1554 31.625 28.0194C32 27.8834 31.625 28.4894 30.687 28.3444C29.749 28.2004 29.093 27.6524 28.249 28.1704C27.405 28.6884 26.311 29.1744 25.437 28.4854C24.562 27.7964 24.093 27.8914 23.562 28.1904C23.031 28.4884 22.437 28.5174 22.124 28.3734C21.812 28.2304 21.165 27.8224 21.625 27.9664ZM14.656 27.8554C15.186 27.3004 16 27.3654 16.625 27.8554C17.25 28.3454 17.531 27.9744 18.125 27.6554C18.719 27.3364 19.562 27.3164 19.75 27.7734C19.938 28.2304 18.969 27.6084 18.375 28.0924C17.781 28.5764 16.819 28.7204 16.125 28.0924C15.431 27.4644 14.187 28.3454 14.656 27.8554ZM18.406 30.7184C18.031 30.5674 17.671 30.4804 17.163 30.8844C16.656 31.2884 15.749 31.3744 15.312 30.8844C14.874 30.3944 14.624 30.1054 14.281 30.2204C13.937 30.3354 13.5 30.3474 14 29.9234C14.373 29.6054 14.875 29.7294 15.5 30.3064C16.125 30.8834 16.406 30.7684 16.969 30.4804C17.532 30.1924 18.281 30.1344 18.594 30.4514C18.906 30.7684 18.782 30.8694 18.406 30.7184ZM21.031 29.5564C20.5 30.0464 19.812 30.1934 19.312 29.7314C18.812 29.2694 18.656 29.2314 18.156 29.4664C17.656 29.7014 17.048 29.5784 17.562 29.3274C18.076 29.0764 18.906 28.7214 19.499 29.3274C20.093 29.9324 20.374 29.6154 20.843 29.3274C21.312 29.0394 21.718 28.6924 22.437 29.1254C23.156 29.5584 23.499 29.4394 23.781 29.2964C24.062 29.1544 24.312 29.2414 23.781 29.5294C23.25 29.8174 22.719 29.7894 22.312 29.5004C21.906 29.2124 21.562 29.0664 21.031 29.5564ZM32.998 31.0274C32.56 31.3624 31.767 31.4894 31.217 30.9984C30.528 30.3844 30.092 30.5654 29.529 30.9414C28.967 31.3164 28.091 31.4024 27.591 30.9124C27.091 30.4224 26.747 30.5664 26.279 30.9124C25.81 31.2584 25.004 31.6124 24.435 30.8834C23.866 30.1554 23.31 30.4794 23.029 30.6244C22.75 30.7674 22.125 31.0114 22.656 30.4854C23.02 30.1244 23.75 29.8284 24.468 30.4854C25.187 31.1424 25.312 31.0554 25.874 30.7094C26.436 30.3634 27.093 29.9664 27.78 30.5544C28.468 31.1424 28.749 31.0274 29.342 30.7094C29.936 30.3924 30.467 30.1114 31.123 30.5544C31.779 30.9974 32.279 31.1134 32.842 30.7964C33.404 30.4784 33.528 30.6204 32.998 31.0274ZM34.312 29.5934C33.812 29.7014 33.124 29.7014 32.656 29.3264C32.187 28.9514 31.75 28.9714 31.25 29.4654C30.75 29.9604 29.5 30.0984 29.031 29.6544C28.562 29.2104 27.969 29.4694 27.531 29.6424C27.093 29.8154 26.497 29.7714 27.125 29.4654C27.754 29.1584 28.594 28.6334 29.281 29.2394C29.969 29.8444 30.375 29.5604 30.937 29.2124C31.499 28.8644 32.031 28.3614 32.843 28.9594C33.655 29.5564 34.187 29.4994 34.593 29.3254C34.999 29.1514 34.812 29.4844 34.312 29.5924V29.5934ZM36 28.5104C35.438 28.3454 35.219 27.9784 34.781 28.2054C34.343 28.4324 33.875 28.4974 33.656 28.2054C33.437 27.9124 33.385 27.8154 33.656 27.9664C34.018 28.1684 34.406 28.2214 34.781 27.9664C35.156 27.7114 35.531 27.9184 36 28.1614C36.469 28.4044 36.562 28.6754 36 28.5104Z" fill="#098FC8"/>
<path d="M23.7814 29.529C24.3124 29.241 24.0624 29.154 23.7814 29.296C23.4994 29.439 23.1564 29.558 22.4374 29.125C21.7184 28.692 21.3124 29.039 20.8434 29.327C20.3744 29.615 20.0934 29.932 19.4994 29.327C18.9064 28.721 18.0764 29.076 17.5624 29.327C17.0484 29.578 17.6564 29.702 18.1564 29.466C18.6564 29.23 18.8124 29.268 19.3124 29.731C19.8124 30.194 20.5004 30.047 21.0314 29.556C21.5624 29.066 21.9064 29.211 22.3124 29.499C22.7194 29.787 23.2504 29.817 23.7814 29.529Z" fill="#BBDDF5"/>
<path d="M36.0009 28.1615C35.5319 27.9185 35.1569 27.7115 34.7819 27.9665C34.4069 28.2215 34.0189 28.1685 33.6569 27.9665C33.3859 27.8155 33.4379 27.9125 33.6569 28.2055C33.8759 28.4975 34.3439 28.4325 34.7819 28.2055C35.2199 27.9785 35.4389 28.3455 36.0009 28.5105C36.5629 28.6755 36.4699 28.4035 36.0009 28.1605V28.1615Z" fill="#BBDDF5"/>
<path d="M34.5938 29.3271C34.1878 29.5011 33.6558 29.5581 32.8438 28.9611C32.0318 28.3631 31.4999 28.8661 30.9379 29.2141C30.3759 29.5621 29.9699 29.8461 29.2819 29.2411C28.5949 28.6351 27.7549 29.1601 27.1259 29.4671C26.4979 29.7731 27.0939 29.8171 27.5319 29.6441C27.9699 29.4711 28.5629 29.2121 29.0319 29.6561C29.5009 30.1001 30.7509 29.9611 31.2509 29.4671C31.7509 28.9721 32.1878 28.9531 32.6568 29.3281C33.1248 29.7031 33.8129 29.7031 34.3129 29.5951C34.8129 29.4871 34.9998 29.1541 34.5938 29.3271Z" fill="#BBDDF5"/>
<path d="M16.9684 30.481C16.4054 30.769 16.1244 30.884 15.4994 30.307C14.8744 29.73 14.3724 29.606 13.9994 29.924C13.4994 30.349 13.9364 30.336 14.2804 30.221C14.6234 30.106 14.8734 30.395 15.3114 30.885C15.7484 31.375 16.6554 31.289 17.1624 30.885C17.6704 30.481 18.0304 30.567 18.4054 30.719C18.7814 30.87 18.9054 30.77 18.5934 30.452C18.2804 30.134 17.5314 30.193 16.9684 30.481Z" fill="#BBDDF5"/>
<path d="M38.137 26.0889C37.907 26.0819 37.579 26.0099 37.188 25.7509C36.895 25.5559 36.61 25.4589 36.361 25.4399C35.946 25.4089 35.629 25.5939 35.532 25.9079C35.473 26.0969 35.335 26.1829 35.145 26.1889C34.828 26.1989 34.364 25.9889 33.876 25.6639C33.485 25.4039 33.157 25.2959 32.907 25.3249C32.683 25.3509 32.525 25.4929 32.438 25.7289C32.428 25.7559 32.415 25.7789 32.407 25.8079C32.348 26.0249 32.188 26.1519 31.969 26.1969C31.603 26.2719 31.071 26.1219 30.563 25.7799C30.258 25.5739 29.954 25.5029 29.675 25.5149C29.282 25.5329 28.945 25.7189 28.732 25.9309C28.694 25.9689 28.655 26.0079 28.625 26.0469C28.469 26.2529 28.328 26.3659 28.101 26.3559C27.874 26.3459 27.561 26.2119 27.059 25.9239C26.682 25.7069 26.347 25.6209 26.06 25.6229C25.64 25.6259 25.329 25.8219 25.139 26.0759C25.113 26.1109 25.084 26.1459 25.063 26.1829C24.957 26.3669 24.834 26.4659 24.677 26.4889C24.415 26.5279 24.059 26.3579 23.532 26.0259C23.11 25.7599 22.704 25.6769 22.352 25.7019C22 25.7269 21.704 25.8599 21.501 26.0259C21.434 26.0809 21.356 26.1189 21.28 26.1599C21.126 26.2439 20.961 26.3079 20.77 26.3169C20.485 26.3309 20.157 26.2479 19.782 26.0249C19.407 25.8029 19.071 25.6979 18.781 25.6929C18.492 25.6889 18.25 25.7839 18.063 25.9629C17.829 26.1859 17.57 26.4749 17.119 26.4529C16.848 26.4399 16.509 26.3149 16.063 25.9959C15.29 25.4419 14.757 25.5559 14.314 25.8049C14.077 25.9389 13.864 26.1089 13.657 26.2409C13.582 26.2879 13.508 26.3139 13.436 26.3239C13.075 26.3729 12.752 26.0159 12.597 25.8069C12.535 25.7239 12.5 25.6639 12.5 25.6639V26.2409C12.5 26.2409 13.062 27.1929 13.656 26.8179C14.25 26.4429 14.875 25.7229 16.062 26.5739C17.249 27.4239 17.687 26.8979 18.062 26.5409C18.437 26.1839 19.031 26.1589 19.781 26.6039C20.531 27.0489 21.093 26.9369 21.5 26.6039C21.906 26.2709 22.688 26.0719 23.531 26.6039C24.375 27.1359 24.781 27.2509 25.062 26.7609C25.343 26.2709 26.054 25.9249 27.058 26.5019C28.062 27.0789 28.312 27.0369 28.624 26.6259C28.936 26.2139 29.749 25.8099 30.562 26.3579C31.374 26.9059 32.25 26.9629 32.406 26.3869C32.562 25.8109 33.094 25.7229 33.875 26.2429C34.656 26.7629 35.375 26.9899 35.531 26.4869C35.687 25.9839 36.406 25.8109 37.187 26.3299C37.968 26.8489 38.5 26.6179 38.5 26.6179V26.0409C38.5 26.0409 38.367 26.0989 38.137 26.0909V26.0889Z" fill="#BBDDF5"/>
<path d="M32.8423 30.7982C32.2793 31.1152 31.7793 30.9992 31.1233 30.5562C30.4673 30.1132 29.9363 30.3942 29.3423 30.7112C28.7493 31.0292 28.4683 31.1442 27.7803 30.5562C27.0933 29.9682 26.4363 30.3652 25.8743 30.7112C25.3123 31.0572 25.1873 31.1442 24.4683 30.4872C23.7503 29.8302 23.0203 30.1262 22.6563 30.4872C22.1253 31.0132 22.7503 30.7692 23.0293 30.6262C23.3103 30.4812 23.8663 30.1572 24.4353 30.8852C25.0043 31.6132 25.8103 31.2602 26.2793 30.9142C26.7473 30.5682 27.0913 30.4242 27.5913 30.9142C28.0913 31.4042 28.9673 31.3172 29.5293 30.9432C30.0923 30.5672 30.5283 30.3862 31.2173 31.0002C31.7673 31.4902 32.5603 31.3642 32.9983 31.0292C33.5283 30.6222 33.4043 30.4812 32.8423 30.7982Z" fill="#BBDDF5"/>
<path d="M16.1248 28.0924C16.8188 28.7204 17.7808 28.5764 18.3748 28.0924C18.9688 27.6074 19.9378 28.2294 19.7498 27.7734C19.5618 27.3164 18.7188 27.3354 18.1248 27.6554C17.5308 27.9754 17.2498 28.3454 16.6248 27.8554C15.9998 27.3654 15.1858 27.3004 14.6558 27.8554C14.1868 28.3454 15.4308 27.4654 16.1248 28.0924Z" fill="#BBDDF5"/>
<path d="M22.1238 28.374C22.4368 28.518 23.0308 28.489 23.5618 28.191C24.0928 27.892 24.5618 27.797 25.4368 28.486C26.3108 29.176 27.4048 28.69 28.2488 28.171C29.0928 27.652 29.7488 28.201 30.6868 28.345C31.6248 28.49 31.9998 27.884 31.6248 28.02C31.2508 28.156 30.7818 28.115 29.8128 27.711C28.8438 27.308 28.2818 27.769 27.5938 28.138C26.9058 28.506 26.3438 28.693 25.5938 28.138C24.8438 27.583 24.3428 27.394 23.6558 27.798C22.9688 28.202 22.1958 28.146 21.6248 27.967C21.1648 27.823 21.8118 28.231 22.1238 28.374Z" fill="#BBDDF5"/>
<path d="M12.5 25.6644V24.1934H2.5V28.8084C2.5 30.8474 4.291 32.5004 6.5 32.5004H12.5V25.6644ZM10.952 30.7564C10.264 31.0154 9.999 30.5544 10.108 30.3664C10.217 30.1794 9.311 30.5824 8.983 30.3664C9.061 30.6984 8.904 30.9434 8.561 30.9434C8.218 30.9434 7.773 31.0414 7.53 30.7994C7.414 30.6834 7.343 30.4384 7.468 30.3374C6.968 30.3084 6.546 30.4244 6.546 30.4244C6.546 30.4244 6.499 30.9434 5.593 30.9434C4.687 30.9434 4.046 31.1014 4.046 30.5394C4.046 29.9774 4.369 30.0284 4.812 30.1214C5.109 30.1844 5.296 30.1364 5.296 30.1364C5.296 30.1364 5.28 29.9404 5.234 29.8624C4.203 29.9774 4.031 29.1704 4.031 29.1704C3.859 29.0264 3.578 29.1134 3.578 28.6514C3.578 28.1894 3.673 28.2114 4.055 28.2114C4.437 28.2114 4.875 28.1824 4.875 28.6914C4.875 29.2004 5.266 29.0264 5.266 29.0264C5.266 29.0264 5.281 28.3774 6.047 28.3774C6.923 28.3774 6.985 29.0844 6.985 29.0844C6.985 29.0844 7.362 29.2204 7.688 29.1854C7.876 29.1644 8.108 29.1194 8.35 29.1064C8.649 28.7344 9.505 28.6364 10.016 28.7664C10.641 28.9244 10.875 29.0984 10.875 29.0984C10.875 29.0984 10.36 29.4444 9.844 29.4014C9.583 29.3804 9.275 29.2754 9.034 29.2214C9.148 29.2744 9.259 29.3454 9.36 29.4514C9.86 29.9784 10.235 30.0224 10.641 29.8784C11.047 29.7344 11.641 30.4984 10.952 30.7594V30.7564ZM10.952 27.5114C10.264 27.7704 9.999 27.3094 10.108 27.1214C10.217 26.9344 9.311 27.3374 8.983 27.1214C9.061 27.4534 8.904 27.6984 8.561 27.6984C8.218 27.6984 7.773 27.7964 7.53 27.5544C7.414 27.4384 7.343 27.1934 7.468 27.0924C6.968 27.0634 6.546 27.1794 6.546 27.1794C6.546 27.1794 6.499 27.6984 5.593 27.6984C4.687 27.6984 4.046 27.8564 4.046 27.2944C4.046 26.7324 4.369 26.7834 4.812 26.8764C5.109 26.9394 5.296 26.8914 5.296 26.8914C5.296 26.8914 5.28 26.6954 5.234 26.6174C4.203 26.7324 4.031 25.9254 4.031 25.9254C3.859 25.7814 3.578 25.8684 3.578 25.4064C3.578 24.9444 3.673 24.9664 4.055 24.9664C4.437 24.9664 4.875 24.9374 4.875 25.4464C4.875 25.9554 5.266 25.7814 5.266 25.7814C5.266 25.7814 5.281 25.1324 6.047 25.1324C6.923 25.1324 6.985 25.8394 6.985 25.8394C6.985 25.8394 7.362 25.9754 7.688 25.9404C7.876 25.9194 8.108 25.8744 8.35 25.8614C8.648 25.4884 9.505 25.3914 10.016 25.5214C10.641 25.6794 10.875 25.8534 10.875 25.8534C10.875 25.8534 10.36 26.1994 9.844 26.1564C9.583 26.1354 9.275 26.0294 9.034 25.9764C9.148 26.0294 9.259 26.1004 9.36 26.2064C9.86 26.7334 10.235 26.7774 10.641 26.6334C11.047 26.4884 11.641 27.2524 10.952 27.5144V27.5114Z" fill="#CA0000"/>
<path d="M29.6755 25.5137C29.2815 25.5307 28.9445 25.7167 28.7305 25.9307H28.7315C28.9455 25.7177 29.2815 25.5327 29.6745 25.5147L29.6755 25.5137Z" fill="#FFCC4D"/>
<path d="M27.3585 23.3204L27.3555 23.3174L27.3565 23.3204H27.3585Z" fill="#FFCC4D"/>
<path d="M21.5013 26.0252C21.7043 25.8582 22.0013 25.7262 22.3523 25.7012C22.0003 25.7262 21.7043 25.8592 21.5013 26.0252C21.4343 26.0802 21.3553 26.1182 21.2793 26.1592H21.2803C21.3563 26.1182 21.4343 26.0802 21.5013 26.0252Z" fill="#FFCC4D"/>
<path d="M21.5019 25.4188C21.9079 25.0858 22.6889 24.8878 23.5329 25.4188C24.3759 25.9508 24.7829 26.0658 25.0639 25.5758C25.3449 25.0858 26.0559 24.7398 27.0599 25.3168C28.0639 25.8938 28.3139 25.8518 28.6259 25.4408C28.9389 25.0288 29.7519 24.6248 30.5639 25.1728C31.3769 25.7198 32.2509 25.7778 32.4079 25.2018C32.5549 24.6618 33.0329 24.5578 33.7339 24.9728C33.4689 24.4988 33.0919 23.9888 32.6249 23.8178C34.1249 22.5778 34.2189 21.1358 34.2189 21.1358C34.2189 21.1358 34.6249 21.1358 34.9689 20.5008C35.1409 20.1828 35.1249 19.9018 34.9249 19.6998C35.4029 18.8438 36.5779 16.7418 36.8749 16.2618C37.2509 15.6558 36.8749 15.3668 36.2509 16.5498C35.0629 16.1748 33.7199 16.1168 33.7199 16.1168L32.8449 17.7038C32.8449 17.7038 35.4389 17.7548 35.4389 17.9018C35.4389 18.0038 34.8489 18.9058 34.4799 19.4608C34.2909 19.4068 34.0589 19.3768 33.7829 19.3768C32.6579 19.3768 32.2209 19.6078 31.7519 20.2428C31.2829 20.8778 31.7519 21.1378 31.7519 21.1378C31.7519 21.1378 31.1719 22.3258 28.9999 22.9858L29.7129 20.7128C30.5259 20.5878 31.2209 20.9658 31.2209 20.9658C31.2209 20.9658 30.6899 19.5238 31.3459 17.3608C32.0009 15.1948 34.4379 13.5798 34.4379 13.5798L31.7119 14.3238L32.4059 12.1098C32.4059 12.1098 32.7499 11.4178 32.4059 11.2148C32.1819 11.0838 32.0659 11.3648 32.0099 11.5798C31.7709 11.5168 31.3529 11.4608 30.9059 11.6478C30.2179 11.9358 28.6249 11.5198 28.6249 11.5198C28.6249 11.5198 29.2499 12.1668 29.7189 12.2818C29.2189 12.5128 28.2499 12.4258 28.2499 12.4258C28.2499 12.4258 29.4379 13.0608 30.2339 12.8298C30.7629 12.6768 31.3479 12.6638 31.6849 12.6718L31.1019 14.4908L28.6239 15.1678C28.6239 15.1678 27.4989 16.0038 27.1239 18.4558C26.7489 20.9078 28.0929 22.7248 28.0929 22.7248C28.0929 22.7248 27.9519 21.5408 29.0269 20.9538L28.3209 23.1598C28.0219 23.2248 27.7069 23.2818 27.3589 23.3228C26.8739 23.3808 26.3419 23.4148 25.7509 23.4148C24.7559 23.4148 23.9349 23.2908 23.2469 23.0998L23.7589 21.4628C23.8599 21.4788 23.9539 21.4838 24.0639 21.5118C25.6449 21.9118 27.3289 23.2988 27.3559 23.3208C27.3359 23.2788 26.0629 20.6298 26.2799 18.3968C26.4989 16.1468 28.6239 13.8478 28.6239 13.8478L25.8429 14.7808L26.8209 11.6458C26.8209 11.6458 27.4359 11.2708 26.9049 11.0408C26.3759 10.8098 26.4779 11.5488 26.4779 11.5488C26.2319 11.5048 25.8819 11.4908 25.5099 11.6468C24.8219 11.9348 23.2289 11.5188 23.2289 11.5188C23.2289 11.5188 23.8539 12.1658 24.3229 12.2808C23.8229 12.5118 22.8539 12.4248 22.8539 12.4248C22.8539 12.4248 24.0419 13.0598 24.8379 12.8288C25.3519 12.6798 25.8139 12.6578 26.0789 12.6608L25.2489 14.9798L22.7189 15.8278C22.7189 15.8278 22.2809 16.4048 21.3749 18.0778C20.4689 19.7508 21.7499 22.1448 21.7499 22.1448C21.7499 22.1448 22.1279 21.6148 22.9279 21.4638L22.4429 22.8208C20.4359 21.9698 20.0009 20.5018 20.0009 20.5018C20.0009 20.5018 20.3449 20.4448 20.3449 20.0988C20.3449 19.7658 20.1909 19.5948 19.1499 19.5818L19.4019 18.7508C19.8569 18.9978 20.1889 19.3778 20.1889 19.3778C20.1889 19.3778 19.7509 17.8778 20.6579 16.3778C21.5639 14.8778 23.6889 13.5798 23.7829 13.5798C23.8329 13.5798 22.2299 14.0008 20.7279 14.3918L21.3549 12.3278C21.3549 12.3278 21.8139 11.7048 21.3139 11.5608C20.8139 11.4168 20.8949 12.2128 20.8949 12.2128C20.6599 12.1848 20.3589 12.1948 20.0419 12.3278C19.3539 12.6158 17.7609 12.1998 17.7609 12.1998C17.7609 12.1998 18.3859 12.8468 18.8549 12.9628C18.3549 13.1938 17.3859 13.1068 17.3859 13.1068C17.3859 13.1068 18.5729 13.7418 19.3699 13.5108C19.8309 13.3778 20.2589 13.3468 20.5409 13.3448L20.1669 14.5388L18.1879 15.0528C18.1879 15.0528 17.7819 15.6298 17.3129 17.0138C16.8439 18.3988 17.6569 19.5238 17.6569 19.5238C17.6569 19.5238 17.9069 18.5438 18.6879 18.5438C18.7619 18.5438 18.8349 18.5578 18.9069 18.5708L18.5869 19.5958C17.8389 19.6458 17.7199 19.8348 17.7199 20.1298C17.7199 20.4758 18.1259 20.5048 18.1259 20.5048C18.1259 20.5048 18.0319 21.1098 18.2819 21.8608C18.5319 22.6108 17.9699 22.4658 17.0319 22.0348C16.9699 22.0068 16.9089 21.9918 16.8479 21.9708L16.8539 21.9648L14.5009 20.9938C14.5009 20.9938 14.0009 20.3298 13.7509 20.7918C13.5009 21.2528 14.3129 21.3598 14.3129 21.3598L15.6609 21.9878C15.3979 22.1138 15.2669 22.3178 15.4069 22.5228C15.7189 22.9838 16.4069 22.5228 17.8129 23.7918C18.1559 24.1018 18.8029 24.7278 19.7049 25.3858C19.7319 25.4008 19.7559 25.4058 19.7829 25.4218C20.5329 25.8668 21.0959 25.7548 21.5019 25.4218V25.4188Z" fill="#FFCC4D"/>
<path d="M10.6411 26.6302C10.2351 26.7742 9.86012 26.7312 9.36012 26.2032C9.25912 26.0972 9.14813 26.0272 9.03413 25.9732C9.27513 26.0252 9.58312 26.1322 9.84412 26.1532C10.3601 26.1962 10.8751 25.8502 10.8751 25.8502C10.8751 25.8502 10.6411 25.6762 10.0161 25.5182C9.50512 25.3882 8.64812 25.4852 8.35012 25.8582C8.10812 25.8712 7.87613 25.9162 7.68813 25.9372C7.36213 25.9732 6.98513 25.8362 6.98513 25.8362C6.98513 25.8362 6.92312 25.1292 6.04712 25.1292C5.28112 25.1292 5.26612 25.7782 5.26612 25.7782C5.26612 25.7782 4.87512 25.9522 4.87512 25.4432C4.87512 24.9342 4.43712 24.9632 4.05512 24.9632C3.67312 24.9632 3.57812 24.9422 3.57812 25.4032C3.57812 25.8642 3.85912 25.7782 4.03112 25.9222C4.03112 25.9222 4.20313 26.7302 5.23413 26.6142C5.28013 26.6932 5.29612 26.8882 5.29612 26.8882C5.29612 26.8882 5.10912 26.9362 4.81212 26.8732C4.36912 26.7802 4.04612 26.7292 4.04612 27.2912C4.04612 27.8532 4.68712 27.6952 5.59312 27.6952C6.49912 27.6952 6.54612 27.1762 6.54612 27.1762C6.54612 27.1762 6.96812 27.0612 7.46812 27.0892C7.34312 27.1902 7.41413 27.4342 7.53013 27.5512C7.77313 27.7932 8.21812 27.6952 8.56112 27.6952C8.90412 27.6952 9.06112 27.4492 8.98312 27.1182C9.31112 27.3342 10.2171 26.9312 10.1081 27.1182C9.99912 27.3062 10.2641 27.7672 10.9521 27.5082C11.6411 27.2472 11.0471 26.4832 10.6411 26.6272V26.6302ZM5.42112 25.7572C5.42112 25.6902 5.52112 25.6342 5.64412 25.6342C5.76812 25.6342 5.86713 25.6892 5.86713 25.7572C5.86713 25.8252 5.76712 25.8802 5.64412 25.8802C5.52112 25.8802 5.42112 25.8262 5.42112 25.7572ZM5.86713 26.5442C5.70713 26.5442 5.57812 26.4212 5.57812 26.2702C5.57812 26.1192 5.70713 25.9962 5.86713 25.9962C6.02713 25.9962 6.15613 26.1192 6.15613 26.2702C6.15613 26.4212 6.02713 26.5442 5.86713 26.5442ZM6.15613 25.8802C6.03313 25.8802 5.93313 25.8252 5.93313 25.7572C5.93313 25.6892 6.03313 25.6342 6.15613 25.6342C6.27913 25.6342 6.37913 25.6892 6.37913 25.7572C6.37913 25.8252 6.27913 25.8802 6.15613 25.8802Z" fill="#FFCC4D"/>
<path d="M10.6411 29.8743C10.2351 30.0183 9.86012 29.9753 9.36012 29.4473C9.25912 29.3413 9.14813 29.2713 9.03413 29.2173C9.27513 29.2703 9.58312 29.3763 9.84412 29.3973C10.3601 29.4403 10.8751 29.0943 10.8751 29.0943C10.8751 29.0943 10.6411 28.9203 10.0161 28.7623C9.50512 28.6323 8.64912 28.7303 8.35012 29.1023C8.10812 29.1153 7.87613 29.1603 7.68813 29.1813C7.36213 29.2173 6.98513 29.0803 6.98513 29.0803C6.98513 29.0803 6.92312 28.3733 6.04712 28.3733C5.28112 28.3733 5.26612 29.0223 5.26612 29.0223C5.26612 29.0223 4.87512 29.1963 4.87512 28.6873C4.87512 28.1783 4.43712 28.2073 4.05512 28.2073C3.67312 28.2073 3.57812 28.1863 3.57812 28.6473C3.57812 29.1083 3.85912 29.0223 4.03112 29.1663C4.03112 29.1663 4.20313 29.9743 5.23413 29.8583C5.28013 29.9373 5.29612 30.1323 5.29612 30.1323C5.29612 30.1323 5.10912 30.1803 4.81212 30.1173C4.36912 30.0243 4.04612 29.9733 4.04612 30.5353C4.04612 31.0973 4.68712 30.9393 5.59312 30.9393C6.49912 30.9393 6.54612 30.4203 6.54612 30.4203C6.54612 30.4203 6.96812 30.3053 7.46812 30.3333C7.34312 30.4343 7.41413 30.6783 7.53013 30.7953C7.77313 31.0373 8.21812 30.9393 8.56112 30.9393C8.90412 30.9393 9.06112 30.6933 8.98312 30.3623C9.31112 30.5783 10.2171 30.1753 10.1081 30.3623C9.99912 30.5503 10.2641 31.0113 10.9521 30.7523C11.6411 30.4923 11.0471 29.7273 10.6411 29.8713V29.8743ZM5.42112 29.0023C5.42112 28.9353 5.52112 28.8793 5.64412 28.8793C5.76812 28.8793 5.86713 28.9343 5.86713 29.0023C5.86713 29.0703 5.76712 29.1253 5.64412 29.1253C5.52112 29.1253 5.42112 29.0703 5.42112 29.0023ZM5.86713 29.7883C5.70713 29.7883 5.57812 29.6653 5.57812 29.5143C5.57812 29.3633 5.70713 29.2403 5.86713 29.2403C6.02713 29.2403 6.15613 29.3633 6.15613 29.5143C6.15613 29.6653 6.02713 29.7883 5.86713 29.7883ZM6.15613 29.1243C6.03313 29.1243 5.93313 29.0693 5.93313 29.0013C5.93313 28.9333 6.03313 28.8783 6.15613 28.8783C6.27913 28.8783 6.37913 28.9333 6.37913 29.0013C6.37913 29.0693 6.27913 29.1243 6.15613 29.1243Z" fill="#FFCC4D"/>
<path d="M37.188 25.1442C36.407 24.6252 35.688 24.7982 35.532 25.3012C35.376 25.8042 34.657 25.5772 33.876 25.0572C33.826 25.0242 33.781 25.0002 33.733 24.9722C33.032 24.5572 32.554 24.6612 32.407 25.2012C32.25 25.7782 31.376 25.7202 30.563 25.1722C29.751 24.6242 28.938 25.0282 28.625 25.4402C28.313 25.8522 28.063 25.8932 27.059 25.3162C26.055 24.7392 25.344 25.0852 25.063 25.5752C24.782 26.0652 24.375 25.9502 23.532 25.4182C22.688 24.8872 21.907 25.0852 21.501 25.4182C21.095 25.7512 20.532 25.8632 19.782 25.4182C19.754 25.4022 19.731 25.3972 19.704 25.3822C18.993 24.9862 18.424 25.0122 18.063 25.3562C17.688 25.7132 17.251 26.2402 16.063 25.3892C14.875 24.5392 14.251 25.2582 13.657 25.6342C13.062 26.0092 12.5 25.0582 12.5 25.0582V25.6632C12.5 25.6632 12.535 25.7232 12.597 25.8062C12.752 26.0142 13.075 26.3712 13.436 26.3232C13.508 26.3132 13.582 26.2872 13.656 26.2402C13.864 26.1092 14.076 25.9382 14.314 25.8042C14.757 25.5552 15.29 25.4412 16.063 25.9952C16.508 26.3142 16.848 26.4392 17.119 26.4522C17.569 26.4732 17.828 26.1852 18.062 25.9622C18.25 25.7832 18.492 25.6882 18.781 25.6922C19.07 25.6972 19.406 25.8022 19.782 26.0242C20.157 26.2462 20.485 26.3302 20.77 26.3162C20.961 26.3072 21.126 26.2432 21.279 26.1592C21.355 26.1182 21.433 26.0802 21.5 26.0252C21.703 25.8582 22 25.7252 22.352 25.7012C22.704 25.6762 23.11 25.7602 23.532 26.0252C24.058 26.3572 24.415 26.5272 24.677 26.4882C24.834 26.4652 24.957 26.3662 25.062 26.1822C25.083 26.1452 25.112 26.1102 25.138 26.0752C25.328 25.8202 25.639 25.6252 26.06 25.6222C26.347 25.6202 26.682 25.7062 27.059 25.9232C27.561 26.2112 27.874 26.3452 28.101 26.3552C28.328 26.3652 28.468 26.2522 28.624 26.0462C28.654 26.0072 28.692 25.9682 28.73 25.9302C28.944 25.7172 29.281 25.5312 29.675 25.5132C29.954 25.5002 30.258 25.5722 30.563 25.7782C31.071 26.1202 31.603 26.2712 31.969 26.1952C32.188 26.1492 32.348 26.0222 32.406 25.8062C32.414 25.7772 32.427 25.7542 32.437 25.7272C32.524 25.4902 32.682 25.3482 32.907 25.3232C33.157 25.2942 33.485 25.4022 33.876 25.6622C34.364 25.9872 34.827 26.1972 35.145 26.1872C35.335 26.1812 35.473 26.0952 35.531 25.9062C35.629 25.5922 35.946 25.4062 36.361 25.4382C36.61 25.4572 36.895 25.5542 37.188 25.7492C37.578 26.0082 37.906 26.0802 38.137 26.0872C38.367 26.0942 38.5 26.0372 38.5 26.0372V25.4312C38.5 25.4312 37.969 25.6622 37.188 25.1422V25.1442Z" fill="black"/>
<path d="M5.86713 26.5431C6.02674 26.5431 6.15613 26.4204 6.15613 26.2691C6.15613 26.1178 6.02674 25.9951 5.86713 25.9951C5.70751 25.9951 5.57812 26.1178 5.57812 26.2691C5.57812 26.4204 5.70751 26.5431 5.86713 26.5431Z" fill="black"/>
<path d="M5.86788 25.7568C5.86788 25.6898 5.76888 25.6348 5.64488 25.6338C5.52188 25.6338 5.42188 25.6888 5.42188 25.7568C5.42188 25.8248 5.52188 25.8798 5.64488 25.8798C5.76788 25.8798 5.86788 25.8248 5.86788 25.7568Z" fill="black"/>
<path d="M6.15659 25.6338C6.03359 25.6338 5.93359 25.6888 5.93359 25.7568C5.93359 25.8248 6.03359 25.8798 6.15659 25.8798C6.27959 25.8798 6.37959 25.8248 6.37959 25.7568C6.37959 25.6888 6.27959 25.6338 6.15659 25.6338Z" fill="black"/>
<path d="M5.86788 29.0019C5.86788 28.9349 5.76888 28.8789 5.64488 28.8789C5.52188 28.8789 5.42188 28.9339 5.42188 29.0019C5.42188 29.0699 5.52188 29.1249 5.64488 29.1249C5.76788 29.1249 5.86788 29.0699 5.86788 29.0019Z" fill="black"/>
<path d="M6.15659 29.1249C6.27975 29.1249 6.37959 29.0698 6.37959 29.0019C6.37959 28.934 6.27975 28.8789 6.15659 28.8789C6.03343 28.8789 5.93359 28.934 5.93359 29.0019C5.93359 29.0698 6.03343 29.1249 6.15659 29.1249Z" fill="black"/>
<path d="M5.86713 29.2412C5.70713 29.2412 5.57812 29.3642 5.57812 29.5152C5.57812 29.6662 5.70713 29.7892 5.86713 29.7892C6.02713 29.7892 6.15613 29.6662 6.15613 29.5152C6.15613 29.3642 6.02713 29.2412 5.86713 29.2412Z" fill="black"/>
<path d="M4.13495 22.9658C4.06195 22.9658 4.00195 23.1428 4.00195 23.3608C4.00195 23.5808 4.06195 23.5588 4.13495 23.5588C4.20795 23.5588 4.26795 23.5798 4.26795 23.3608C4.26795 23.1418 4.20795 22.9658 4.13495 22.9658Z" fill="#292F33"/>
<path d="M5.89432 21.8629C5.88432 21.5419 5.83132 21.2939 5.76532 21.2939C5.69932 21.2939 5.64732 21.5419 5.63632 21.8629L5.36032 22.2519C5.29832 22.3399 5.34932 22.4119 5.47632 22.4119H5.66732C5.69132 22.5549 5.72632 22.6499 5.76632 22.6499C5.80632 22.6499 5.84132 22.5549 5.86532 22.4119H6.05632C6.18432 22.4119 6.23532 22.3389 6.17232 22.2519L5.89432 21.8629Z" fill="#292F33"/>
<path d="M2.719 22.649C2.759 22.649 2.794 22.554 2.818 22.411H3.01C3.137 22.411 3.188 22.339 3.126 22.251L2.848 21.862C2.838 21.541 2.785 21.293 2.719 21.293C2.653 21.293 2.601 21.541 2.59 21.862L2.5 21.989V22.41H2.62C2.644 22.553 2.679 22.649 2.719 22.649Z" fill="#292F33"/>
<path d="M2.719 17.8496C2.759 17.8496 2.794 17.7546 2.818 17.6126H3.01C3.137 17.6126 3.188 17.5406 3.126 17.4526L2.848 17.0636C2.845 16.9686 2.837 16.8846 2.827 16.8066H2.611C2.601 16.8846 2.594 16.9686 2.591 17.0626L2.5 17.1896V17.6116H2.62C2.645 17.7536 2.679 17.8496 2.719 17.8496Z" fill="#292F33"/>
<path d="M4.4607 23.5586C4.2237 23.5586 4.2467 23.6136 4.2467 23.6816C4.2467 23.7496 4.2237 23.8046 4.4607 23.8046C4.6977 23.8046 4.8887 23.7496 4.8887 23.6816C4.8887 23.6136 4.6967 23.5586 4.4607 23.5586Z" fill="#292F33"/>
<path d="M2.607 21.2146C2.607 21.1606 2.616 21.1156 2.5 21.0996V21.3296C2.615 21.3126 2.607 21.2686 2.607 21.2146Z" fill="#292F33"/>
<path d="M4.26961 20.0311H4.46061C4.58961 20.0311 4.64062 19.9601 4.57862 19.8711L4.30062 19.4821C4.28962 19.1621 4.23761 18.9121 4.17161 18.9121C4.10561 18.9121 4.05361 19.1611 4.04261 19.4821L3.76462 19.8711C3.70262 19.9591 3.75362 20.0311 3.88062 20.0311H4.07162C4.09562 20.1741 4.13061 20.2681 4.17061 20.2681C4.21061 20.2681 4.24561 20.1731 4.26961 20.0311Z" fill="#292F33"/>
<path d="M7.31659 18.7131C7.38959 18.7131 7.44959 18.7341 7.44959 18.5151C7.44959 18.2961 7.39059 18.1201 7.31659 18.1201C7.24359 18.1201 7.18359 18.2971 7.18359 18.5151C7.18359 18.7331 7.24359 18.7131 7.31659 18.7131Z" fill="#292F33"/>
<path d="M7.67555 23.5586C7.43855 23.5586 7.46155 23.6136 7.46155 23.6816C7.46155 23.7496 7.43855 23.8046 7.67555 23.8046C7.91255 23.8046 8.10355 23.7496 8.10355 23.6816C8.10355 23.6136 7.91155 23.5586 7.67555 23.5586Z" fill="#292F33"/>
<path d="M4.17206 18.7131C4.24506 18.7131 4.30506 18.7341 4.30506 18.5151C4.30506 18.2961 4.24606 18.1201 4.17206 18.1201C4.09906 18.1201 4.03906 18.2971 4.03906 18.5151C4.03906 18.7331 4.09906 18.7131 4.17206 18.7131Z" fill="#292F33"/>
<path d="M5.43972 21.3378C5.67672 21.3378 5.65372 21.2828 5.65372 21.2148C5.65372 21.1468 5.67672 21.0918 5.43972 21.0918C5.20272 21.0918 5.01172 21.1458 5.01172 21.2148C5.01172 21.2838 5.20372 21.3378 5.43972 21.3378Z" fill="#292F33"/>
<path d="M12.2381 17.0626C12.2351 16.9686 12.2281 16.8846 12.2181 16.8066H12.0021C11.9921 16.8846 11.9851 16.9686 11.9821 17.0626L11.7041 17.4506C11.6421 17.5386 11.6931 17.6106 11.8201 17.6106H12.0111C12.0351 17.7536 12.0701 17.8476 12.1101 17.8476C12.1501 17.8476 12.1851 17.7526 12.2091 17.6106H12.4001C12.4491 17.6106 12.4751 17.5916 12.5001 17.5746V17.4286L12.2381 17.0626Z" fill="#292F33"/>
<path d="M5.87756 21.2148C5.87756 21.2818 5.85456 21.3378 6.09156 21.3378C6.32856 21.3378 6.51956 21.2838 6.51956 21.2148C6.51956 21.1458 6.32756 21.0918 6.09156 21.0918C5.85556 21.0918 5.87756 21.1468 5.87756 21.2148Z" fill="#292F33"/>
<path d="M5.76581 21.093C5.83881 21.093 5.89881 21.114 5.89881 20.895C5.89881 20.676 5.83881 20.5 5.76581 20.5C5.69281 20.5 5.63281 20.677 5.63281 20.895C5.63281 21.113 5.69281 21.093 5.76581 21.093Z" fill="#292F33"/>
<path d="M7.42834 18.8359C7.42834 18.9029 7.40534 18.9589 7.64234 18.9589C7.87934 18.9589 8.07034 18.9049 8.07034 18.8359C8.07034 18.7669 7.87834 18.7129 7.64234 18.7129C7.40634 18.7129 7.42834 18.7679 7.42834 18.8359Z" fill="#292F33"/>
<path d="M6.9905 18.9579C7.2275 18.9579 7.2045 18.9029 7.2045 18.8349C7.2045 18.7669 7.2275 18.7119 6.9905 18.7119C6.7535 18.7119 6.5625 18.7659 6.5625 18.8349C6.5625 18.9039 6.7545 18.9579 6.9905 18.9579Z" fill="#292F33"/>
<path d="M3.84597 18.9579C4.08297 18.9579 4.05997 18.9029 4.05997 18.8349C4.05997 18.7669 4.08297 18.7119 3.84597 18.7119C3.60897 18.7119 3.41797 18.7659 3.41797 18.8349C3.41797 18.9039 3.60997 18.9579 3.84597 18.9579Z" fill="#292F33"/>
<path d="M4.28576 18.8359C4.28576 18.9029 4.26276 18.9589 4.49976 18.9589C4.73676 18.9589 4.92776 18.9049 4.92776 18.8359C4.92776 18.7669 4.73576 18.7129 4.49976 18.7129C4.26376 18.7129 4.28576 18.7679 4.28576 18.8359Z" fill="#292F33"/>
<path d="M2.71894 20.5C2.64594 20.5 2.58594 20.677 2.58594 20.895C2.58594 21.113 2.64594 21.093 2.71894 21.093C2.79194 21.093 2.85194 21.114 2.85194 20.895C2.85194 20.676 2.79194 20.5 2.71894 20.5Z" fill="#292F33"/>
<path d="M3.47269 21.2148C3.47269 21.1468 3.28069 21.0918 3.04469 21.0918C2.80869 21.0918 2.83069 21.1468 2.83069 21.2148C2.83069 21.2828 2.80769 21.3378 3.04469 21.3378C3.28169 21.3378 3.47369 21.2838 3.47269 21.2148Z" fill="#292F33"/>
<path d="M4.13462 23.7588C4.07962 23.7588 4.03462 23.9418 4.01562 24.1918H4.25362C4.23462 23.9418 4.18962 23.7588 4.13462 23.7588Z" fill="#292F33"/>
<path d="M3.80886 23.5586C3.57286 23.5586 3.38086 23.6126 3.38086 23.6816C3.38086 23.7496 3.57186 23.8046 3.80886 23.8046C4.04586 23.8046 4.02286 23.7496 4.02286 23.6816C4.02286 23.6136 4.04586 23.5586 3.80886 23.5586Z" fill="#292F33"/>
<path d="M7.34947 23.7588C7.29447 23.7588 7.24947 23.9418 7.23047 24.1918H7.46847C7.44947 23.9418 7.40447 23.7588 7.34947 23.7588Z" fill="#292F33"/>
<path d="M5.62269 17.0626L5.34469 17.4506C5.28269 17.5386 5.33369 17.6106 5.46069 17.6106H5.65169C5.67569 17.7536 5.71069 17.8476 5.75069 17.8476C5.79069 17.8476 5.82569 17.7526 5.84969 17.6106H6.04069C6.16769 17.6106 6.21869 17.5386 6.15669 17.4506L5.87869 17.0626C5.87669 16.9686 5.86869 16.8846 5.85969 16.8066H5.64269C5.63269 16.8846 5.62569 16.9686 5.62269 17.0626Z" fill="#292F33"/>
<path d="M10.5526 23.7588C10.4976 23.7588 10.4526 23.9418 10.4336 24.1918H10.6716C10.6526 23.9418 10.6076 23.7588 10.5526 23.7588Z" fill="#292F33"/>
<path d="M8.76332 17.0626L8.48532 17.4506C8.42332 17.5386 8.47432 17.6106 8.60132 17.6106H8.79232C8.81632 17.7536 8.85132 17.8476 8.89132 17.8476C8.93132 17.8476 8.96632 17.7526 8.99032 17.6106H9.18132C9.30832 17.6106 9.35932 17.5386 9.29732 17.4506L9.02032 17.0626C9.01732 16.9686 9.00932 16.8846 8.99932 16.8066H8.78332C8.77332 16.8846 8.76632 16.9686 8.76332 17.0626Z" fill="#292F33"/>
<path d="M10.4349 20.0311C10.4589 20.1741 10.4939 20.2681 10.5339 20.2681C10.5739 20.2681 10.6089 20.1731 10.6329 20.0311H10.8239C10.9539 20.0311 11.0049 19.9601 10.9419 19.8711L10.6639 19.4821C10.6529 19.1621 10.6009 18.9121 10.5349 18.9121C10.4689 18.9121 10.4169 19.1611 10.4059 19.4821L10.1279 19.8711C10.0659 19.9591 10.1169 20.0311 10.2439 20.0311H10.4349Z" fill="#292F33"/>
<path d="M12.1613 21.093C12.2343 21.093 12.2943 21.114 12.2943 20.895C12.2943 20.676 12.2363 20.5 12.1623 20.5C12.0883 20.5 12.0293 20.677 12.0293 20.895C12.0293 21.115 12.0883 21.093 12.1613 21.093Z" fill="#292F33"/>
<path d="M10.2268 23.5586C9.99083 23.5586 9.79883 23.6126 9.79883 23.6816C9.79883 23.7506 9.99083 23.8046 10.2268 23.8046C10.4628 23.8046 10.4408 23.7496 10.4408 23.6816C10.4408 23.6136 10.4638 23.5586 10.2268 23.5586Z" fill="#292F33"/>
<path d="M7.0237 23.5586C6.7877 23.5586 6.5957 23.6126 6.5957 23.6816C6.5957 23.7506 6.7877 23.8046 7.0237 23.8046C7.2597 23.8046 7.2377 23.7496 7.2377 23.6816C7.2377 23.6136 7.2607 23.5586 7.0237 23.5586Z" fill="#292F33"/>
<path d="M12.1638 21.293C12.0978 21.293 12.0458 21.541 12.0348 21.862L11.7568 22.251C11.6948 22.339 11.7458 22.411 11.8728 22.411H12.0638C12.0878 22.554 12.1228 22.649 12.1628 22.649C12.2028 22.649 12.2378 22.554 12.2618 22.411H12.4528C12.4758 22.411 12.4818 22.398 12.4998 22.394V22.155L12.2908 21.863C12.2818 21.542 12.2288 21.293 12.1638 21.293Z" fill="#292F33"/>
<path d="M10.5529 22.9658C10.4799 22.9658 10.4199 23.1428 10.4199 23.3608C10.4199 23.5808 10.4799 23.5588 10.5529 23.5588C10.6259 23.5588 10.6859 23.5798 10.6859 23.3608C10.6859 23.1418 10.6259 22.9658 10.5529 22.9658Z" fill="#292F33"/>
<path d="M7.21615 20.0311C7.24015 20.1741 7.27515 20.2681 7.31515 20.2681C7.35515 20.2681 7.39015 20.1731 7.41415 20.0311H7.60515C7.73315 20.0311 7.78415 19.9601 7.72215 19.8711L7.44415 19.4821C7.43315 19.1621 7.38115 18.9121 7.31515 18.9121C7.24915 18.9121 7.19715 19.1611 7.18615 19.4821L6.90915 19.8711C6.84715 19.9591 6.89815 20.0311 7.02515 20.0311H7.21615Z" fill="#292F33"/>
<path d="M9.05061 21.8629C9.04061 21.5419 8.98761 21.2939 8.92161 21.2939C8.85561 21.2939 8.80362 21.5419 8.79262 21.8629L8.51462 22.2519C8.45262 22.3399 8.50361 22.4119 8.63061 22.4119H8.82161C8.84561 22.5549 8.88061 22.6499 8.92061 22.6499C8.96061 22.6499 8.99562 22.5549 9.01962 22.4119H9.21062C9.33962 22.4119 9.39062 22.3389 9.32862 22.2519L9.05061 21.8629Z" fill="#292F33"/>
<path d="M8.59597 21.3378C8.83297 21.3378 8.80997 21.2828 8.80997 21.2148C8.80997 21.1468 8.83297 21.0918 8.59597 21.0918C8.35897 21.0918 8.16797 21.1458 8.16797 21.2148C8.16797 21.2838 8.35997 21.3378 8.59597 21.3378Z" fill="#292F33"/>
<path d="M7.3498 22.9658C7.2768 22.9658 7.2168 23.1428 7.2168 23.3608C7.2168 23.5808 7.2768 23.5588 7.3498 23.5588C7.4228 23.5588 7.4828 23.5798 7.4828 23.3608C7.4828 23.1418 7.4228 22.9658 7.3498 22.9658Z" fill="#292F33"/>
<path d="M10.5353 18.7131C10.6083 18.7131 10.6683 18.7341 10.6683 18.5151C10.6683 18.2961 10.6083 18.1201 10.5353 18.1201C10.4623 18.1201 10.4023 18.2971 10.4023 18.5151C10.4023 18.7331 10.4623 18.7131 10.5353 18.7131Z" fill="#292F33"/>
<path d="M10.2092 18.9579C10.4462 18.9579 10.4233 18.9029 10.4233 18.8349C10.4233 18.7669 10.4462 18.7119 10.2092 18.7119C9.97225 18.7119 9.78125 18.7659 9.78125 18.8349C9.78125 18.9039 9.97325 18.9579 10.2092 18.9579Z" fill="#292F33"/>
<path d="M9.03576 21.2148C9.03576 21.2818 9.01276 21.3378 9.24976 21.3378C9.48676 21.3378 9.67776 21.2838 9.67776 21.2148C9.67776 21.1458 9.48576 21.0918 9.24976 21.0918C9.01376 21.0918 9.03576 21.1468 9.03576 21.2148Z" fill="#292F33"/>
<path d="M8.92206 21.093C8.99506 21.093 9.05506 21.114 9.05506 20.895C9.05506 20.676 8.99606 20.5 8.92206 20.5C8.84906 20.5 8.79006 20.677 8.78906 20.895C8.78906 21.114 8.84906 21.093 8.92206 21.093Z" fill="#292F33"/>
<path d="M10.6471 18.8359C10.6471 18.9029 10.6241 18.9589 10.8611 18.9589C11.0981 18.9589 11.2901 18.9049 11.2891 18.8359C11.2891 18.7679 11.0971 18.7129 10.8611 18.7129C10.6251 18.7129 10.6471 18.7679 10.6471 18.8359Z" fill="#292F33"/>
<path d="M11.8362 21.3378C12.0732 21.3378 12.0502 21.2828 12.0502 21.2148C12.0502 21.1468 12.0732 21.0918 11.8362 21.0918C11.5992 21.0918 11.4082 21.1458 11.4082 21.2148C11.4082 21.2838 11.6002 21.3378 11.8362 21.3378Z" fill="#292F33"/>
<path d="M10.8787 23.5586C10.6417 23.5586 10.6647 23.6136 10.6647 23.6816C10.6647 23.7496 10.6417 23.8046 10.8787 23.8046C11.1157 23.8046 11.3077 23.7496 11.3067 23.6816C11.3067 23.6136 11.1147 23.5586 10.8787 23.5586Z" fill="#292F33"/>
<path d="M12.2741 21.2148C12.2741 21.2818 12.2511 21.3378 12.4881 21.3378H12.4991V21.0928H12.4881C12.2501 21.0928 12.2741 21.1468 12.2741 21.2148Z" fill="#292F33"/>
<path d="M9.73438 12.173H12.4994V9.875L9.73438 12.173Z" fill="#DC241F"/>
<path d="M9.73438 14.0391L12.5004 16.3371V14.0391H9.73438Z" fill="#DC241F"/>
<path d="M3.05895 10.3389C2.71595 10.8799 2.50595 11.5009 2.50195 12.1719H5.26495L3.05895 10.3389Z" fill="#DC241F"/>
<path d="M6.49916 8.5C5.56416 8.5 4.71616 8.808 4.03516 9.304L6.49916 11.352V8.5Z" fill="#DC241F"/>
<path d="M8.5 16.8084H8.783H8.999H10.845L8.5 14.8604V16.8084Z" fill="#DC241F"/>
<path d="M4.1543 16.8084H5.6413H5.8583H6.4993V14.8604L4.1543 16.8084Z" fill="#DC241F"/>
<path d="M11.933 8.5H8.5V11.352L11.933 8.5Z" fill="#DC241F"/>
<path d="M2.5 14.0391V16.3371L5.266 14.0391H2.5Z" fill="#DC241F"/>
<path d="M8.5 12.173H9.735L12.5 9.875V8.5H12.25H11.933L8.5 11.352V12.173Z" fill="#009543"/>
<path d="M9.734 14.0391H8.5V14.8601L10.845 16.8081H12.002H12.218H12.5V16.3371L9.734 14.0391Z" fill="#009543"/>
<path d="M2.827 16.8081H4.155L6.5 14.8601V14.0391H5.266L2.5 16.3371V16.8081H2.611H2.827Z" fill="#009543"/>
<path d="M6.50087 12.1729V11.3519L4.03688 9.30395L4.02487 9.29395H4.02288C3.95988 9.33995 3.90888 9.39795 3.84888 9.44695C3.75888 9.52095 3.66888 9.59595 3.58588 9.67795C3.49588 9.76695 3.41588 9.86195 3.33488 9.95795C3.26188 10.0459 3.18888 10.1339 3.12488 10.2269C3.10088 10.2619 3.06988 10.2909 3.04688 10.3269L3.04988 10.3299L3.05988 10.3379L5.26587 12.1709H6.50087V12.1729Z" fill="#009543"/>
<path d="M12.2188 16.8076C12.2287 16.8856 12.2357 16.9696 12.2387 17.0636L12.5007 17.4296V16.8076H12.2188Z" fill="#EEEEEE"/>
<path d="M2.611 16.8076H2.5V17.1906L2.591 17.0636C2.594 16.9696 2.601 16.8856 2.611 16.8076Z" fill="#EEEEEE"/>
<path d="M4.135 23.7586C4.19 23.7586 4.235 23.9416 4.254 24.1916H7.231C7.25 23.9416 7.295 23.7586 7.35 23.7586C7.405 23.7586 7.45 23.9416 7.469 24.1916H10.434C10.453 23.9416 10.498 23.7586 10.553 23.7586C10.608 23.7586 10.653 23.9416 10.672 24.1916H12.5V21.3366H12.489C12.252 21.3366 12.275 21.2826 12.275 21.2146C12.275 21.1466 12.251 21.0926 12.489 21.0916H12.5V17.5746C12.475 17.5926 12.449 17.6106 12.4 17.6106H12.209C12.185 17.7526 12.15 17.8476 12.11 17.8476C12.07 17.8476 12.035 17.7536 12.011 17.6106H11.82C11.693 17.6106 11.642 17.5386 11.704 17.4506L11.982 17.0626C11.985 16.9686 11.992 16.8846 12.002 16.8066H8.999C9.009 16.8846 9.017 16.9686 9.02 17.0626L9.297 17.4506C9.359 17.5386 9.308 17.6106 9.181 17.6106H8.99C8.966 17.7526 8.931 17.8476 8.891 17.8476C8.851 17.8476 8.816 17.7536 8.792 17.6106H8.601C8.474 17.6106 8.423 17.5386 8.485 17.4506L8.763 17.0626C8.766 16.9686 8.773 16.8846 8.783 16.8066H5.859C5.868 16.8846 5.876 16.9686 5.878 17.0626L6.156 17.4506C6.218 17.5386 6.167 17.6106 6.04 17.6106H5.849C5.825 17.7526 5.79 17.8476 5.75 17.8476C5.71 17.8476 5.675 17.7536 5.651 17.6106H5.46C5.333 17.6106 5.282 17.5386 5.344 17.4506L5.622 17.0626C5.625 16.9686 5.632 16.8846 5.642 16.8066H2.827C2.837 16.8846 2.845 16.9686 2.848 17.0636L3.126 17.4526C3.188 17.5406 3.137 17.6126 3.01 17.6126H2.818C2.794 17.7546 2.759 17.8496 2.719 17.8496C2.679 17.8496 2.645 17.7546 2.62 17.6126H2.5V21.1006C2.616 21.1166 2.607 21.1606 2.607 21.2156C2.607 21.2706 2.615 21.3146 2.5 21.3306V21.9896L2.59 21.8626C2.601 21.5416 2.653 21.2936 2.719 21.2936C2.785 21.2936 2.838 21.5416 2.848 21.8626L3.126 22.2516C3.188 22.3396 3.137 22.4116 3.01 22.4116H2.818C2.794 22.5546 2.759 22.6496 2.719 22.6496C2.679 22.6496 2.644 22.5546 2.62 22.4116H2.5V24.1936H4.016C4.035 23.9436 4.08 23.7606 4.135 23.7606V23.7586ZM4.135 23.5596C4.062 23.5596 4.002 23.5806 4.002 23.3616C4.002 23.1436 4.062 22.9666 4.135 22.9666C4.208 22.9666 4.268 23.1436 4.268 23.3616C4.268 23.5796 4.208 23.5596 4.135 23.5596ZM3.881 20.0306C3.754 20.0306 3.703 19.9586 3.765 19.8706L4.043 19.4816C4.054 19.1606 4.106 18.9116 4.172 18.9116C4.238 18.9116 4.29 19.1616 4.301 19.4816L4.579 19.8706C4.641 19.9596 4.59 20.0316 4.461 20.0306H4.27C4.246 20.1726 4.211 20.2676 4.171 20.2676C4.131 20.2676 4.096 20.1736 4.072 20.0306H3.881ZM4.461 23.8046C4.224 23.8046 4.247 23.7496 4.247 23.6816C4.247 23.6136 4.224 23.5586 4.461 23.5586C4.698 23.5586 4.889 23.6126 4.889 23.6816C4.889 23.7506 4.697 23.8046 4.461 23.8046ZM6.056 22.4116H5.865C5.841 22.5546 5.806 22.6496 5.766 22.6496C5.726 22.6496 5.691 22.5546 5.667 22.4116H5.476C5.349 22.4116 5.298 22.3396 5.36 22.2516L5.636 21.8626C5.647 21.5416 5.699 21.2936 5.765 21.2936C5.831 21.2936 5.884 21.5416 5.894 21.8626L6.172 22.2516C6.235 22.3386 6.184 22.4106 6.056 22.4116ZM7.024 23.8046C6.788 23.8046 6.596 23.7496 6.596 23.6816C6.596 23.6136 6.788 23.5586 7.024 23.5586C7.26 23.5586 7.238 23.6136 7.238 23.6816C7.238 23.7496 7.261 23.8046 7.024 23.8046ZM6.91 19.8716L7.187 19.4826C7.198 19.1616 7.25 18.9126 7.316 18.9126C7.382 18.9126 7.434 19.1626 7.445 19.4826L7.723 19.8716C7.785 19.9606 7.734 20.0326 7.606 20.0316H7.415C7.391 20.1736 7.356 20.2686 7.316 20.2686C7.276 20.2686 7.241 20.1746 7.217 20.0316H7.026C6.899 20.0316 6.848 19.9596 6.91 19.8716ZM7.35 23.5606C7.277 23.5606 7.217 23.5816 7.217 23.3626C7.217 23.1446 7.277 22.9676 7.35 22.9676C7.423 22.9676 7.483 23.1446 7.483 23.3626C7.483 23.5806 7.423 23.5606 7.35 23.5606ZM9.211 22.4126H9.02C8.996 22.5556 8.961 22.6506 8.921 22.6506C8.881 22.6506 8.846 22.5556 8.822 22.4126H8.631C8.504 22.4126 8.453 22.3406 8.515 22.2526L8.793 21.8636C8.804 21.5426 8.856 21.2946 8.922 21.2946C8.988 21.2946 9.041 21.5426 9.051 21.8636L9.329 22.2526C9.391 22.3396 9.34 22.4116 9.211 22.4126ZM10.227 23.8056C9.991 23.8056 9.799 23.7506 9.799 23.6826C9.799 23.6146 9.991 23.5596 10.227 23.5596C10.463 23.5596 10.441 23.6146 10.441 23.6826C10.441 23.7506 10.464 23.8056 10.227 23.8056ZM10.127 19.8726L10.405 19.4836C10.416 19.1626 10.468 18.9136 10.534 18.9136C10.6 18.9136 10.652 19.1636 10.663 19.4836L10.941 19.8726C11.004 19.9616 10.953 20.0336 10.823 20.0326H10.632C10.608 20.1746 10.573 20.2696 10.533 20.2696C10.493 20.2696 10.458 20.1756 10.434 20.0326H10.243C10.116 20.0326 10.065 19.9606 10.127 19.8726ZM10.553 23.5616C10.48 23.5616 10.42 23.5826 10.42 23.3636C10.42 23.1456 10.48 22.9686 10.553 22.9686C10.626 22.9686 10.686 23.1456 10.686 23.3636C10.686 23.5816 10.626 23.5616 10.553 23.5616ZM12.29 21.8646L12.499 22.1566V22.3956C12.481 22.3996 12.475 22.4126 12.452 22.4126H12.261C12.237 22.5556 12.202 22.6506 12.162 22.6506C12.122 22.6506 12.087 22.5556 12.063 22.4126H11.872C11.745 22.4126 11.694 22.3406 11.756 22.2526L12.034 21.8636C12.045 21.5426 12.097 21.2946 12.163 21.2946C12.228 21.2946 12.281 21.5436 12.29 21.8646ZM12.163 20.5016C12.237 20.5016 12.295 20.6786 12.295 20.8966C12.295 21.1146 12.235 21.0946 12.162 21.0946C12.089 21.0946 12.03 21.1166 12.03 20.8966C12.03 20.6786 12.089 20.5016 12.163 20.5016ZM11.836 21.0946C12.073 21.0946 12.05 21.1496 12.05 21.2176C12.05 21.2856 12.073 21.3406 11.836 21.3406C11.599 21.3406 11.408 21.2866 11.408 21.2176C11.408 21.1486 11.6 21.0946 11.836 21.0946ZM10.879 23.8066C10.642 23.8066 10.665 23.7516 10.665 23.6836C10.665 23.6156 10.642 23.5606 10.879 23.5606C11.116 23.5606 11.307 23.6146 11.307 23.6836C11.307 23.7516 11.116 23.8066 10.879 23.8066ZM10.861 18.7146C11.097 18.7146 11.289 18.7686 11.289 18.8376C11.289 18.9056 11.098 18.9606 10.861 18.9606C10.624 18.9606 10.647 18.9056 10.647 18.8376C10.647 18.7696 10.624 18.7146 10.861 18.7146ZM10.535 18.1216C10.608 18.1216 10.668 18.2986 10.668 18.5166C10.668 18.7346 10.608 18.7146 10.535 18.7146C10.462 18.7146 10.402 18.7356 10.402 18.5166C10.402 18.2976 10.462 18.1216 10.535 18.1216ZM10.209 18.7146C10.446 18.7146 10.423 18.7696 10.423 18.8376C10.423 18.9056 10.446 18.9606 10.209 18.9606C9.972 18.9606 9.781 18.9066 9.781 18.8376C9.781 18.7686 9.973 18.7146 10.209 18.7146ZM9.249 21.0946C9.485 21.0946 9.677 21.1486 9.677 21.2176C9.677 21.2866 9.485 21.3406 9.249 21.3406C9.013 21.3406 9.035 21.2856 9.035 21.2176C9.035 21.1496 9.012 21.0946 9.249 21.0946ZM8.922 20.5016C8.996 20.5016 9.055 20.6786 9.055 20.8966C9.055 21.1146 8.995 21.0946 8.922 21.0946C8.849 21.0946 8.789 21.1156 8.789 20.8966C8.789 20.6786 8.849 20.5016 8.922 20.5016ZM8.596 21.0946C8.833 21.0946 8.81 21.1496 8.81 21.2176C8.81 21.2856 8.833 21.3406 8.596 21.3406C8.359 21.3406 8.168 21.2866 8.168 21.2176C8.168 21.1486 8.36 21.0946 8.596 21.0946ZM7.676 23.8066C7.439 23.8066 7.462 23.7516 7.462 23.6836C7.462 23.6156 7.439 23.5606 7.676 23.5606C7.913 23.5606 8.104 23.6146 8.104 23.6836C8.104 23.7526 7.913 23.8066 7.676 23.8066ZM8.071 18.8376C8.071 18.9056 7.879 18.9606 7.643 18.9606C7.407 18.9606 7.429 18.9056 7.429 18.8376C7.429 18.7696 7.406 18.7146 7.643 18.7146C7.88 18.7146 8.071 18.7686 8.071 18.8376ZM7.316 18.1226C7.39 18.1226 7.449 18.2996 7.449 18.5176C7.449 18.7356 7.389 18.7156 7.316 18.7156C7.243 18.7156 7.183 18.7366 7.183 18.5176C7.183 18.2986 7.243 18.1226 7.316 18.1226ZM6.99 18.7156C7.227 18.7156 7.204 18.7706 7.204 18.8386C7.204 18.9066 7.227 18.9616 6.99 18.9616C6.753 18.9616 6.562 18.9076 6.562 18.8386C6.562 18.7696 6.754 18.7156 6.99 18.7156ZM6.092 21.0956C6.328 21.0956 6.52 21.1496 6.52 21.2186C6.52 21.2876 6.329 21.3416 6.092 21.3416C5.855 21.3416 5.878 21.2866 5.878 21.2186C5.878 21.1506 5.855 21.0956 6.092 21.0956ZM5.766 20.5026C5.839 20.5026 5.899 20.6796 5.899 20.8976C5.899 21.1156 5.839 21.0956 5.766 21.0956C5.693 21.0956 5.633 21.1166 5.633 20.8976C5.633 20.6786 5.693 20.5026 5.766 20.5026ZM5.44 21.0956C5.677 21.0956 5.654 21.1506 5.654 21.2186C5.654 21.2866 5.677 21.3416 5.44 21.3416C5.203 21.3416 5.012 21.2876 5.012 21.2186C5.012 21.1496 5.204 21.0956 5.44 21.0956ZM4.927 18.8386C4.927 18.9066 4.735 18.9616 4.499 18.9616C4.263 18.9616 4.285 18.9066 4.285 18.8386C4.285 18.7706 4.262 18.7156 4.499 18.7156C4.736 18.7156 4.927 18.7696 4.927 18.8386ZM4.172 18.1236C4.246 18.1236 4.305 18.3006 4.305 18.5186C4.305 18.7366 4.245 18.7166 4.172 18.7166C4.099 18.7166 4.039 18.7376 4.039 18.5186C4.039 18.2996 4.099 18.1236 4.172 18.1236ZM3.846 18.7166C4.083 18.7166 4.06 18.7716 4.06 18.8396C4.06 18.9076 4.083 18.9626 3.846 18.9626C3.609 18.9626 3.418 18.9086 3.418 18.8396C3.418 18.7706 3.61 18.7166 3.846 18.7166ZM2.719 21.0966C2.646 21.0966 2.586 21.1176 2.586 20.8986C2.586 20.6796 2.646 20.5036 2.719 20.5036C2.792 20.5036 2.852 20.6806 2.852 20.8986C2.852 21.1166 2.792 21.0966 2.719 21.0966ZM3.045 21.3426C2.808 21.3426 2.831 21.2876 2.831 21.2196C2.831 21.1516 2.808 21.0966 3.045 21.0966C3.282 21.0966 3.473 21.1506 3.473 21.2196C3.473 21.2876 3.282 21.3426 3.045 21.3426ZM3.809 23.8096C3.572 23.8096 3.38 23.7546 3.381 23.6866C3.381 23.6186 3.573 23.5636 3.809 23.5636C4.045 23.5636 4.023 23.6186 4.023 23.6866C4.023 23.7546 4.046 23.8096 3.809 23.8096Z" fill="#EEEEEE"/>
<path d="M6.5 14.039V14.86V16.808H8.5V14.86V14.039H9.734H12.5V12.173H9.735H8.5V11.352V8.5H6.5V11.352V12.173H5.265H2.502H2.501L2.5 12.192V14.039H5.266H6.5Z" fill="#EEEEEE"/>
</svg>
