<svg width="41" height="41" viewBox="0 0 41 41" fill="none" xmlns="http://www.w3.org/2000/svg">
<path d="M4.10262 9.31543C3.83562 9.51643 3.59963 9.75043 3.39062 10.0104C3.45763 9.92743 3.52162 9.84143 3.59462 9.76343C3.74962 9.59843 3.92162 9.45143 4.10262 9.31543Z" fill="#2E2C7B"/>
<path d="M2.92188 10.7457C3.05387 10.4857 3.20887 10.2397 3.38987 10.0127C3.20887 10.2397 3.05087 10.4827 2.92188 10.7457Z" fill="#2E2C7B"/>
<path d="M5.06828 8.77539C4.95428 8.81939 4.84728 8.87139 4.73828 8.92539C4.81728 8.88539 4.89128 8.83839 4.97428 8.80439C5.00428 8.79239 5.03628 8.78439 5.06828 8.77539Z" fill="#2E2C7B"/>
<path d="M2.59375 11.6519C2.65875 11.3509 2.76175 11.0659 2.89275 10.7969C2.76475 11.0679 2.65875 11.3509 2.59375 11.6519Z" fill="#2E2C7B"/>
<path d="M5.11328 8.76224C5.32728 8.68224 5.54828 8.61824 5.77628 8.57324C5.54628 8.61524 5.32728 8.68224 5.11328 8.76224Z" fill="#2E2C7B"/>
<path d="M2.52148 12.2813C2.53348 12.0673 2.54948 11.8553 2.59348 11.6523C2.54948 11.8553 2.53348 12.0683 2.52148 12.2813Z" fill="#2E2C7B"/>
<path d="M6.6567 11.6517L3.3907 10.0127C3.2097 10.2387 3.0537 10.4847 2.9227 10.7457C2.9137 10.7637 2.9037 10.7797 2.8947 10.7977C2.7637 11.0667 2.6607 11.3517 2.5957 11.6527H6.6577L6.6567 11.6517Z" fill="#2E2C7B"/>
<path d="M19.2167 8.5H13.4727V11.383L19.2167 8.5Z" fill="#2E2C7B"/>
<path d="M6.656 14.8057H2.5V16.8917L6.657 14.8057H6.656Z" fill="#2E2C7B"/>
<path d="M25.2885 22.0176C25.2785 22.0326 25.2585 22.0466 25.2305 22.0576C25.3415 22.0776 25.4545 22.1006 25.5735 22.1386C25.7995 22.2116 25.9825 22.3056 26.1345 22.4056C26.2465 22.1816 26.3735 21.9646 26.5285 21.7656C26.6565 21.6576 26.7765 21.5396 26.9015 21.4286V21.2686C26.8935 21.2726 26.8875 21.2786 26.8795 21.2826C26.3255 21.4736 25.7915 21.7206 25.2875 22.0186L25.2885 22.0176Z" fill="#2E2C7B"/>
<path d="M32.964 21.4905C32.568 21.4245 32.2 21.2745 31.877 21.0615V21.4025C32.239 21.7935 32.772 21.7565 33.008 22.6215C33.042 22.7455 33.069 22.8695 33.09 22.9925C33.25 22.8115 33.475 22.6145 33.755 22.4245C33.899 22.3265 34.042 22.2495 34.179 22.1865C34.007 21.9295 33.589 21.6335 32.964 21.4905Z" fill="#2E2C7B"/>
<path d="M37.817 10.264C37.529 9.838 37.162 9.471 36.737 9.183C36.099 8.752 35.329 8.5 34.501 8.5H21.323V9.558L17.149 11.652H21.323V14.805H17.149L21.323 16.899V18.193H19.687L13.473 15.073V18.193H10.333V15.073L4.118 18.193H2.5V28.499C2.5 29.88 3.2 31.097 4.264 31.816C4.902 32.247 5.672 32.499 6.5 32.499H34.5C35.328 32.499 36.098 32.247 36.736 31.816C37.8 31.097 38.5 29.88 38.5 28.499V12.5C38.5 11.672 38.248 10.902 37.817 10.264ZM27.188 27.498C27.093 27.542 26.949 27.426 26.805 27.234L26.386 27.443L26.505 26.68C26.389 26.373 26.369 26.113 26.485 26.059C26.615 25.999 26.836 26.212 27.024 26.567L27.484 26.894L27.217 27.028C27.284 27.265 27.284 27.454 27.188 27.498ZM34.226 23.227C33.962 23.406 33.708 23.514 33.484 23.576C33.486 23.72 33.477 23.892 33.453 24.087C34.002 24.202 34.421 24.402 34.39 24.567C34.39 24.737 33.876 24.79 33.346 24.705C33.225 25.264 33.051 25.722 32.898 25.916C32.901 25.917 32.905 25.916 32.907 25.918C33.105 26.05 32.973 26.5 32.731 26.917C32.627 27.065 32.509 27.178 32.391 27.271L32.412 27.587L32.136 27.419C32.029 27.457 31.93 27.47 31.863 27.423C31.802 27.38 31.779 27.296 31.772 27.197L31.314 26.917L31.925 26.635C31.96 26.568 31.992 26.501 32.039 26.434C32.23 26.162 32.463 25.976 32.657 25.914C32.573 25.698 32.594 25.156 32.737 24.545C32.429 24.433 32.193 24.296 32.193 24.183C32.193 24.055 32.489 23.993 32.882 24.011C32.891 23.983 32.899 23.957 32.908 23.93C32.889 23.889 32.872 23.859 32.851 23.799C32.592 23.041 32.49 22.602 31.874 22.363V24.622C31.874 26.236 29.392 27.916 29.392 27.916C29.392 27.916 29.111 27.726 28.739 27.414C28.719 27.396 28.698 27.38 28.678 27.362C27.941 26.732 26.899 25.647 26.899 24.545V22.715C26.599 23.082 26.35 23.489 26.167 23.93C26.182 23.979 26.197 24.031 26.211 24.083C26.567 24.138 26.844 24.259 26.844 24.381C26.844 24.475 26.661 24.556 26.397 24.609C26.533 25.372 26.508 26.007 26.328 26.039C26.142 26.072 25.879 25.46 25.725 24.662C25.197 24.649 24.779 24.527 24.779 24.381C24.779 24.245 25.181 24.098 25.639 24.065C25.589 23.541 25.626 23.154 25.724 23.129C25.754 23.121 25.794 23.152 25.839 23.208C25.85 23.16 25.857 23.111 25.87 23.063C25.698 23.053 25.51 23.026 25.307 22.964C24.736 22.788 24.33 22.448 24.396 22.217C24.421 22.13 24.526 22.081 24.66 22.051C24.587 22.02 24.544 21.975 24.572 21.909C24.974 21.263 25.634 20.819 26.384 20.69C26.466 20.668 26.538 20.621 26.617 20.592C26.605 20.592 26.594 20.592 26.582 20.592C25.99 20.619 25.467 20.256 25.251 19.716C25.178 19.764 25.097 19.801 25.004 19.81C24.696 19.84 24.422 19.615 24.392 19.308C24.362 19 24.587 18.726 24.894 18.696C24.911 18.695 24.929 18.694 24.946 18.694V17.567L24.66 17.684C24.378 17.756 24.091 17.586 24.019 17.303C23.961 17.075 24.061 16.836 24.265 16.717L25.286 16.366C25.526 16.286 25.788 16.387 25.912 16.607C25.924 16.636 25.922 16.666 25.928 16.696C25.964 16.749 25.989 16.807 25.989 16.871V17.994L26.11 17.903C26.347 17.794 26.627 17.897 26.736 18.134C26.913 18.314 26.913 18.602 26.736 18.782L25.954 19.341C25.918 19.415 25.854 19.475 25.772 19.521C26.026 19.893 27.126 20.145 28.044 19.077C28.008 19.035 27.983 18.986 27.944 18.946L27.494 18.88C27.852 18.567 28.235 18.285 28.621 18.006C28.42 17.93 28.296 17.833 28.296 17.727C28.296 17.552 28.625 17.407 29.097 17.34L28.867 17.321L28.417 17.002L28.197 16.475L28.636 16.146C28.915 16.321 29.257 16.361 29.569 16.256C29.942 16.102 30.667 15.367 30.843 15.476C31.019 15.586 29.943 16.212 30.393 16.31C30.843 16.408 30.986 16.036 31.26 15.893C31.534 15.75 31.974 15.739 31.556 16.025C31.165 16.428 30.845 16.891 30.597 17.394C30.898 17.468 31.095 17.582 31.095 17.727C31.095 17.823 30.993 17.911 30.825 17.984C31.143 18.754 31.91 20.066 32.643 20.066C33.412 20.066 33.51 19.747 33.51 19.747C33.505 20.118 33.211 20.422 32.84 20.439C32.509 20.473 32.175 20.432 31.863 20.318C32.172 20.599 32.552 20.793 32.961 20.878C33.62 21.054 34.729 21.251 34.696 21.877C34.693 21.94 34.671 21.981 34.661 22.037C34.875 22.004 35.042 22.029 35.103 22.13C35.235 22.339 34.84 22.811 34.225 23.228L34.226 23.227ZM35.17 17.517C35.052 17.785 34.503 17.797 33.925 17.532L34.31 18.927C34.59 18.943 34.813 19.168 34.819 19.45C34.813 19.737 34.579 19.966 34.292 19.966C34.178 19.966 34.078 19.922 33.992 19.859C33.807 19.897 33.626 19.834 33.504 19.703L32.216 18.869C32.01 18.654 32.018 18.314 32.232 18.108C32.38 17.967 32.595 17.921 32.787 17.99L33.013 18.138L32.831 17.463C32.764 17.227 32.878 16.99 33.085 16.877C33.025 16.769 32.992 16.665 33.028 16.574C33.138 16.3 33.709 16.3 34.302 16.574C34.895 16.849 35.312 17.255 35.169 17.518L35.17 17.517Z" fill="#2E2C7B"/>
<path d="M30.7337 19.5284C30.7247 19.4974 30.7107 19.4694 30.7027 19.4384C30.2747 18.0434 30.6257 19.3064 30.6257 19.3064C30.6257 19.3064 30.6027 19.3144 30.5697 19.3254C30.5857 19.3954 30.6097 19.4644 30.6247 19.5344C30.6327 19.5264 30.6377 19.5074 30.6477 19.5034C30.6707 19.4944 30.7027 19.5114 30.7337 19.5284Z" fill="#2E2C7B"/>
<path d="M10.3323 11.383V8.5H6.49933C6.25133 8.5 6.00933 8.527 5.77533 8.573C5.54733 8.618 5.32633 8.682 5.11233 8.762L10.3323 11.383Z" fill="#2E2C7B"/>
<path d="M21.3198 14.8097H17.1498L21.3198 16.8997V17.2497L16.4498 14.8097H15.0398L21.3198 17.9597V18.1897H19.6898L13.4698 15.0697V18.1897H12.8398V14.1797H21.3198V14.8097Z" fill="#E3E7EA"/>
<path d="M21.3198 9.56L17.1498 11.65H21.3198V12.28H12.8398V8.5H13.4698V11.38L19.2198 8.5H19.9198L13.6398 11.65H15.0398L21.3198 8.5V9.56Z" fill="#E3E7EA"/>
<path d="M10.96 14.1797V18.1897H10.33V15.0697L4.12 18.1897H3.42L10.17 14.8097H8.76L2.5 17.9497V16.8897L6.66 14.8097H2.5V14.1797H10.96Z" fill="#E3E7EA"/>
<path d="M10.9595 8.5V12.28H2.51953C2.52953 12.07 2.54953 11.86 2.58953 11.65H6.65953L3.38953 10.01C3.45953 9.93 3.51953 9.84 3.59953 9.76L7.35953 11.65H8.75953L4.10953 9.31C4.29953 9.17 4.50953 9.04 4.73953 8.93C4.81953 8.89 4.88953 8.84 4.96953 8.8C4.99953 8.79 5.03953 8.78 5.06953 8.78C5.07953 8.77 5.09953 8.77 5.10953 8.76L10.3295 11.38V8.5H10.9595Z" fill="#E3E7EA"/>
<path d="M10.167 14.8057H8.763L2.5 17.9497V18.1937H3.417L10.167 14.8057Z" fill="#D00032"/>
<path d="M15.043 14.8057L21.322 17.9577V17.2527L16.447 14.8057H15.043Z" fill="#D00032"/>
<path d="M7.3587 11.6525H8.7627L4.1047 9.31445L4.1037 9.31545C3.9227 9.45245 3.7507 9.59845 3.5957 9.76345L7.3587 11.6525Z" fill="#D00032"/>
<path d="M15.0437 11.652L21.3227 8.5H19.9187L13.6387 11.652H15.0437Z" fill="#D00032"/>
<path d="M21.32 12.28V14.18H12.84V18.19H10.96V14.18H2.5V12.5C2.5 12.43 2.52 12.36 2.52 12.28H10.96V8.5H12.84V12.28H21.32Z" fill="#D00032"/>
<path d="M31.2012 20.4336C31.2322 20.5906 31.2432 20.7306 31.2362 20.8436H31.5902C31.4472 20.7206 31.3172 20.5836 31.2012 20.4336Z" fill="#DC2E44"/>
<path d="M30.6037 20.186C30.3757 20.068 30.1037 20.499 29.7127 20.8C29.6887 20.816 29.6627 20.828 29.6387 20.844H30.8677C30.7847 20.719 30.7037 20.561 30.6467 20.372C30.6277 20.307 30.6167 20.248 30.6037 20.186Z" fill="#DC2E44"/>
<path d="M30.5992 17.392C30.8472 16.889 31.1672 16.425 31.5582 16.023C31.9752 15.738 31.5362 15.749 31.2622 15.891C30.9872 16.034 30.8452 16.407 30.3952 16.308C29.9452 16.209 31.0212 15.583 30.8452 15.474C30.6692 15.364 29.9452 16.1 29.5712 16.254C29.2592 16.359 28.9172 16.319 28.6382 16.144L28.1992 16.473L28.4192 17L28.8692 17.319L29.0992 17.338C29.2802 17.312 29.4792 17.297 29.6922 17.297C30.0382 17.297 30.3532 17.332 30.5992 17.392Z" fill="#D2D3D4"/>
<path d="M28.5101 19.8529C28.5331 19.8269 28.5591 19.8039 28.5821 19.7779C28.7051 20.0679 28.7131 20.3939 28.6041 20.6889C28.5721 20.7419 28.5321 20.7899 28.4991 20.8429H29.6391C29.6631 20.8269 29.6901 20.8149 29.7131 20.7989C30.1041 20.4979 30.3751 20.0669 30.6041 20.1849C30.5341 19.8639 30.5451 19.6089 30.6241 19.5339C30.6091 19.4629 30.5851 19.3949 30.5691 19.3249C30.3711 19.3899 29.6811 19.5879 29.6811 19.1739C29.6811 18.6909 30.3291 18.9759 30.1971 18.4379C30.1711 18.3309 30.1371 18.2329 30.1021 18.1419C29.9721 18.1539 29.8361 18.1629 29.6921 18.1629C29.2561 18.1629 28.8771 18.0999 28.6231 18.0029C28.2371 18.2809 27.8551 18.5639 27.4961 18.8769L27.9461 18.9429C27.9841 18.9829 28.0101 19.0319 28.0461 19.0739C28.2061 19.2599 28.3341 19.4659 28.4381 19.6869C28.4851 19.7339 28.5141 19.7869 28.5111 19.8519L28.5101 19.8529Z" fill="#D2D3D4"/>
<path d="M31.7553 21.2388V21.2498C31.7923 21.3098 31.8333 21.3577 31.8763 21.4037V20.8438H26.9023V24.5438C26.9023 25.6458 27.9443 26.7298 28.6813 27.3608C28.0473 26.8068 27.5143 26.1447 27.1113 25.4007L27.1663 25.3057L27.1003 25.1478L29.5273 20.8547L31.7233 25.0818L31.5473 25.5098L30.5933 23.7418L31.5583 25.6518C30.9933 26.5418 30.2533 27.3077 29.3843 27.9028C29.1603 27.7518 28.9473 27.5858 28.7423 27.4118C29.1133 27.7238 29.3953 27.9137 29.3953 27.9137C29.3953 27.9137 31.8773 26.2338 31.8773 24.6198V22.3608C31.8153 22.3368 31.7533 22.3117 31.6793 22.2917C30.8773 22.0717 31.7563 21.2378 31.7563 21.2378L31.7553 21.2388Z" fill="#4E8ECB"/>
<path d="M28.4394 19.6894C28.3794 19.6294 28.2994 19.5694 28.2094 19.4994C27.9794 19.3294 28.0894 19.5894 27.6094 19.9694C27.5494 20.0194 27.4794 20.0594 27.4194 20.1094C27.3094 20.0294 27.0594 19.9694 26.7694 19.9694C26.3794 19.9694 26.0494 20.0694 26.0494 20.2094C26.0494 20.3394 26.3794 20.4494 26.7694 20.4494C26.8494 20.4494 26.9194 20.4394 26.9994 20.4294C26.8794 20.4994 26.7494 20.5394 26.6194 20.5894H26.5794C25.9894 20.6194 25.4694 20.2594 25.2494 19.7094C25.1794 19.7594 25.0994 19.7994 25.0094 19.8094C24.6994 19.8394 24.4194 19.6094 24.3894 19.3094C24.3594 18.9994 24.5894 18.7194 24.8994 18.6894H24.9494V16.8694C24.9894 16.6194 25.2094 16.4494 25.4594 16.4694C25.6694 16.4694 25.8394 16.5594 25.9294 16.6894C25.9694 16.7494 25.9894 16.7994 25.9894 16.8694V17.9894L26.1094 17.8994C26.3494 17.7894 26.6294 17.8994 26.7394 18.1294C26.9194 18.3094 26.9194 18.5994 26.7394 18.7794L25.9594 19.3394L25.6194 19.5794C25.6794 19.5694 25.7294 19.5394 25.7694 19.5194C26.0294 19.8894 27.1294 20.1394 28.0494 19.0694C28.2094 19.2594 28.3294 19.4694 28.4394 19.6894Z" fill="#039A67"/>
<path d="M25.9591 19.3398C25.9191 19.4098 25.8591 19.4698 25.7691 19.5198C25.7291 19.5398 25.6791 19.5698 25.6191 19.5798L25.9591 19.3398Z" fill="#039A67"/>
<path d="M34.3028 16.5717C33.7098 16.2977 33.1388 16.2977 33.0288 16.5717C32.9928 16.6627 33.0248 16.7677 33.0858 16.8747C33.2068 17.0917 33.4898 17.3247 33.8858 17.5157C33.8998 17.5227 33.9118 17.5247 33.9258 17.5307C34.5038 17.7967 35.0528 17.7847 35.1708 17.5157C35.3138 17.2527 34.8948 16.8457 34.3028 16.5717Z" fill="#039A67"/>
<path d="M34.3892 24.5701C34.3892 24.7401 33.8792 24.7901 33.3492 24.7001C33.2292 25.2601 33.0492 25.7201 32.8992 25.9101C32.8392 25.8801 32.7492 25.8801 32.6592 25.9101C32.5792 25.7001 32.5992 25.1501 32.7392 24.5401C32.4292 24.4301 32.1992 24.2901 32.1992 24.1801C32.1992 24.0501 32.4892 23.9901 32.8792 24.0101C32.8892 23.9801 32.8992 23.9501 32.9092 23.9301C33.0592 24.2501 33.1492 24.0501 33.1492 23.6201C33.2492 23.6301 33.3592 23.6101 33.4792 23.5801C33.4892 23.7201 33.4792 23.8901 33.4492 24.0901C33.9992 24.2001 34.4192 24.4001 34.3892 24.5701Z" fill="#039A67"/>
<path d="M26.8984 21.4297V22.7097C26.5984 23.0797 26.3484 23.4897 26.1684 23.9297C26.0584 23.5897 25.9384 23.3297 25.8384 23.2097C25.8484 23.1597 25.8584 23.1097 25.8684 23.0597C25.6984 23.0497 25.5084 23.0297 25.3084 22.9597C24.7384 22.7897 24.3284 22.4497 24.3984 22.2197C24.4184 22.1297 24.5284 22.0797 24.6584 22.0497C24.8084 22.1097 25.0984 22.1097 25.2284 22.0597C25.3384 22.0797 25.4584 22.0997 25.5684 22.1397C25.7984 22.2097 25.9784 22.3097 26.1384 22.4097C26.2484 22.1797 26.3684 21.9597 26.5284 21.7697C26.6584 21.6597 26.7784 21.5397 26.8984 21.4297Z" fill="#039A67"/>
<path d="M28.582 19.7773C28.559 19.8033 28.533 19.8263 28.51 19.8523C28.507 19.9123 28.484 19.9813 28.417 20.0733C28.174 20.3673 27.888 20.6173 27.582 20.8423H28.498C28.531 20.7893 28.572 20.7423 28.603 20.6883C28.712 20.3923 28.705 20.0673 28.582 19.7773Z" fill="#039A67"/>
<path d="M34.6988 21.8798C34.6988 21.9398 34.6688 21.9798 34.6588 22.0398C34.5188 22.0598 34.3588 22.0998 34.1788 22.1898C34.0088 21.9298 33.5888 21.6298 32.9588 21.4898C32.5688 21.4298 32.1988 21.2798 31.8788 21.0598V20.8398H31.5888C31.4488 20.7198 31.3188 20.5798 31.1988 20.4298C31.1888 20.3598 31.1788 20.2898 31.1488 20.2198C31.0488 19.8598 30.8588 19.5998 30.7288 19.5298C30.7188 19.4998 30.7088 19.4698 30.6988 19.4398C30.5888 19.0598 30.5288 18.8798 30.4988 18.8098C30.5188 18.9298 30.6288 19.3098 30.6288 19.3098C30.6288 19.3098 30.5988 19.3098 30.5688 19.3298C30.3688 19.3898 29.6788 19.5898 29.6788 19.1698C29.6788 18.6898 30.3288 18.9798 30.1988 18.4398C30.1688 18.3298 30.1388 18.2298 30.0988 18.1398C29.9688 18.1598 29.8388 18.1598 29.6888 18.1598C29.2588 18.1598 28.8788 18.0998 28.6188 17.9998C28.4188 17.9298 28.2988 17.8298 28.2988 17.7298C28.2988 17.5498 28.6288 17.4098 29.0988 17.3398C29.2788 17.3098 29.4788 17.2998 29.6888 17.2998C30.0388 17.2998 30.3488 17.3298 30.5988 17.3898C30.8988 17.4698 31.0988 17.5798 31.0988 17.7298C31.0988 17.8198 30.9988 17.9098 30.8288 17.9798C31.1388 18.7498 31.9088 20.0598 32.6488 20.0598C33.4088 20.0598 33.5088 19.7498 33.5088 19.7498C33.5088 20.1198 33.2088 20.4198 32.8388 20.4398C32.5088 20.4698 32.1788 20.4298 31.8688 20.3198C32.1788 20.5998 32.5488 20.7898 32.9588 20.8798C33.6188 21.0498 34.7288 21.2498 34.6988 21.8798Z" fill="#039A67"/>
<path d="M31.5564 25.6525L30.5914 23.7425L29.4594 21.6455L27.2634 25.5435L27.1644 25.3065L27.1094 25.4015C27.5124 26.1455 28.0464 26.8075 28.6794 27.3615C28.6994 27.3795 28.7204 27.3955 28.7404 27.4135C28.9444 27.5885 29.1574 27.7535 29.3824 27.9045C30.2524 27.3095 30.9914 26.5425 31.5564 25.6525ZM28.1634 26.5415L28.1194 25.6745L28.7234 26.3005L28.6244 26.4325L29.3054 26.8935C29.3054 26.8935 29.2174 26.7615 29.2174 26.6195V24.8075H28.7014C28.5924 24.8075 28.5034 24.7185 28.5034 24.6095C28.5034 24.5065 28.5864 24.4225 28.6894 24.4225C28.6934 24.4225 28.6974 24.4225 28.7004 24.4225H29.2164V24.0495C29.2164 23.8955 29.2164 23.7745 29.3044 23.7745H29.4694C29.4694 23.7745 29.5574 23.8955 29.5574 24.0495V24.4225H30.2164C30.3214 24.4225 30.4084 24.5045 30.4144 24.6095C30.4144 24.7185 30.3254 24.8075 30.2164 24.8075H29.5574V26.6195C29.5574 26.6775 29.5544 26.7285 29.5484 26.7755L30.2494 26.4335L30.0404 26.3125L30.7214 25.7965L30.6224 26.6635L30.3804 26.5975L29.3924 27.4205L28.3604 26.5425H28.1624L28.1634 26.5415Z" fill="#039A67"/>
<path d="M25.4642 16.4731C25.6672 16.4731 25.8432 16.5641 25.9312 16.6941C25.9252 16.6641 25.9262 16.6341 25.9152 16.6051C25.7912 16.3851 25.5292 16.2841 25.2892 16.3641L24.2682 16.7151C24.0642 16.8331 23.9642 17.0721 24.0222 17.3011C24.0942 17.5831 24.3812 17.7531 24.6632 17.6821L24.9492 17.5651V16.8691C24.9882 16.6211 25.2142 16.4471 25.4642 16.4731Z" fill="#F9E923"/>
<path d="M34.8209 19.4499C34.8109 19.7399 34.581 19.9699 34.291 19.9699C34.181 19.9699 34.081 19.9199 33.991 19.8599C33.811 19.8999 33.6309 19.8299 33.5009 19.6999L32.2209 18.8699C32.0109 18.6499 32.0209 18.3099 32.2309 18.1099C32.3809 17.9599 32.601 17.9199 32.791 17.9899L33.0109 18.1399L32.831 17.4599C32.761 17.2299 32.8809 16.9899 33.0909 16.8799C33.2109 17.0899 33.4909 17.3299 33.8909 17.5199C33.9009 17.5199 33.9109 17.5199 33.9309 17.5299L34.311 18.9299C34.591 18.9399 34.8109 19.1699 34.8209 19.4499Z" fill="#F9E923"/>
<path d="M26.3993 24.6098C26.5393 25.3698 26.5093 26.0098 26.3293 26.0398C26.1493 26.0698 25.8793 25.4598 25.7293 24.6598C25.1993 24.6498 24.7793 24.5198 24.7793 24.3798C24.7793 24.2398 25.1893 24.0998 25.6393 24.0598C25.5893 23.5398 25.6293 23.1498 25.7293 23.1298C25.7593 23.1198 25.7993 23.1498 25.8393 23.2098C25.9393 23.3298 26.0593 23.5898 26.1693 23.9298C26.1893 23.9798 26.1993 24.0298 26.2193 24.0798C26.5693 24.1398 26.8493 24.2598 26.8493 24.3798C26.8493 24.4698 26.6593 24.5498 26.3993 24.6098Z" fill="#F9E923"/>
<path d="M31.2027 20.4345C31.1887 20.3635 31.1757 20.2925 31.1527 20.2185C31.0467 19.8645 30.8647 19.5995 30.7337 19.5295C30.7027 19.5125 30.6707 19.4965 30.6477 19.5055C30.6377 19.5095 30.6337 19.5275 30.6247 19.5365C30.5457 19.6115 30.5357 19.8665 30.6047 20.1875C30.6177 20.2495 30.6277 20.3085 30.6477 20.3735C30.7047 20.5625 30.7857 20.7205 30.8687 20.8455H31.2367C31.2447 20.7325 31.2327 20.5935 31.2017 20.4355L31.2027 20.4345Z" fill="#F9E923"/>
<path d="M34.2297 23.23C33.9597 23.41 33.7097 23.51 33.4797 23.58C33.3597 23.61 33.2497 23.63 33.1497 23.62C33.1497 24.05 33.0597 24.25 32.9097 23.93C32.8897 23.89 32.8697 23.86 32.8497 23.8C32.5897 23.04 32.4897 22.6 31.8797 22.36C31.8097 22.34 31.7497 22.31 31.6797 22.29C30.8797 22.07 31.7597 21.25 31.7597 21.25C31.7897 21.31 31.8297 21.36 31.8797 21.4C32.2397 21.79 32.7697 21.76 33.0097 22.62C33.0397 22.75 33.0697 22.87 33.0897 22.99C33.2497 22.81 33.4697 22.61 33.7497 22.42C33.8997 22.33 34.0397 22.25 34.1797 22.19C34.3597 22.1 34.5197 22.06 34.6597 22.04C34.8797 22 35.0397 22.03 35.1097 22.13C35.2397 22.34 34.8397 22.81 34.2297 23.23Z" fill="#F9E923"/>
<path d="M28.5096 19.8504C28.5096 19.9104 28.4796 19.9804 28.4196 20.0704C28.1796 20.3704 27.8896 20.6204 27.5796 20.8404H26.8996V21.2704C26.8896 21.2704 26.8896 21.2804 26.8796 21.2804C26.3296 21.4704 25.7896 21.7204 25.2896 22.0204C25.2796 22.0304 25.2596 22.0504 25.2296 22.0604C25.0996 22.1104 24.8096 22.1104 24.6596 22.0504C24.5896 22.0204 24.5496 21.9704 24.5696 21.9104C24.9796 21.2604 25.6396 20.8204 26.3896 20.6904C26.4696 20.6704 26.5396 20.6204 26.6196 20.5904C26.7496 20.5404 26.8796 20.5004 26.9996 20.4304C26.9196 20.4404 26.8496 20.4504 26.7696 20.4504C26.3796 20.4504 26.0496 20.3404 26.0496 20.2104C26.0496 20.0704 26.3796 19.9704 26.7696 19.9704C27.0596 19.9704 27.3096 20.0304 27.4196 20.1104C27.4796 20.0604 27.5496 20.0204 27.6096 19.9704C28.0896 19.5904 27.9796 19.3304 28.2096 19.5004C28.2996 19.5704 28.3796 19.6304 28.4396 19.6904C28.4796 19.7304 28.5096 19.7904 28.5096 19.8504Z" fill="#F9E923"/>
<path d="M32.7303 26.9202C32.6303 27.0602 32.5103 27.1802 32.3903 27.2702L32.4103 27.5902L32.1403 27.4202C32.0303 27.4602 31.9303 27.4702 31.8703 27.4202C31.8003 27.3802 31.7803 27.2902 31.7803 27.2002L31.3203 26.9202L31.9303 26.6302C31.9603 26.5702 31.9903 26.5002 32.0403 26.4302C32.2303 26.1602 32.4703 25.9702 32.6603 25.9102C32.7503 25.8802 32.8403 25.8802 32.9003 25.9102C32.9003 25.9202 32.9103 25.9102 32.9103 25.9202C33.1103 26.0502 32.9703 26.5002 32.7303 26.9202Z" fill="#F9E923"/>
<path d="M27.2206 27.03C27.2806 27.26 27.2806 27.45 27.1906 27.5C27.0906 27.54 26.9506 27.43 26.8106 27.23L26.3906 27.44L26.5106 26.68C26.3906 26.37 26.3706 26.11 26.4906 26.06C26.6206 26 26.8406 26.21 27.0206 26.57L27.4806 26.89L27.2206 27.03Z" fill="#F9E923"/>
<path d="M29.4606 21.6455L30.5926 23.7425L31.5466 25.5105L31.7226 25.0825L29.5266 20.8545L27.0996 25.1485L27.1656 25.3065L27.2646 25.5435L29.4606 21.6455Z" fill="#F9E923"/>
<path d="M30.7211 25.8003L30.6311 26.6603L30.3811 26.6003L29.4011 27.4203L28.3611 26.5403H28.1711L28.1211 25.6703L28.7311 26.3003L28.6311 26.4303L29.3111 26.8903C29.3111 26.8903 29.2211 26.7603 29.2211 26.6203V24.8103H28.7011C28.5911 24.8103 28.5111 24.7203 28.5111 24.6103C28.5111 24.5103 28.5911 24.4203 28.6911 24.4203H29.2211V24.0503C29.2211 23.9003 29.2211 23.7803 29.3111 23.7803H29.4711C29.4711 23.7803 29.5611 23.9003 29.5611 24.0503V24.4203H30.2211C30.3211 24.4203 30.4111 24.5003 30.4211 24.6103C30.4211 24.7203 30.3311 24.8103 30.2211 24.8103H29.5611V26.6203C29.5611 26.6803 29.5611 26.7303 29.5511 26.7703L30.2511 26.4303L30.0411 26.3103L30.7211 25.8003Z" fill="#F9E923"/>
</svg>
