<svg width="41" height="41" viewBox="0 0 41 41" fill="none" xmlns="http://www.w3.org/2000/svg">
<path d="M34.5004 8.5H6.50039C5.56039 8.5 4.70839 8.837 4.02539 9.38L10.8074 13.293H38.5004V12.501C38.5004 10.292 36.7094 8.501 34.5004 8.501V8.5Z" fill="#ED002C"/>
<path d="M4.02734 31.622C4.70934 32.163 5.56134 32.5 6.50034 32.5H34.5003C36.7093 32.5 38.5003 30.709 38.5003 28.5V27.708H10.8333L4.02834 31.621L4.02734 31.622Z" fill="#ED002C"/>
<path d="M23.3352 20.519L19.1672 22.916H38.5002V18.085H19.1152L23.3352 20.519Z" fill="#ED002C"/>
<path d="M14.9991 25.3119L19.1651 22.9159L23.3331 20.5189L19.1131 18.0849L14.9581 15.6879L10.8051 13.2919L4.02309 9.37891H4.02109C4.01609 9.38191 4.01209 9.38791 4.00609 9.39191C3.79509 9.56091 3.60409 9.75191 3.43009 9.95891C3.40909 9.98391 3.38809 10.0089 3.36809 10.0339C3.21809 10.2209 3.09009 10.4249 2.97609 10.6379C2.94809 10.6899 2.91709 10.7399 2.89109 10.7939C2.79609 10.9899 2.72609 11.1989 2.66509 11.4109C2.64409 11.4829 2.61609 11.5499 2.59909 11.6229C2.53709 11.8949 2.50109 12.1769 2.49909 12.4689C2.49909 12.4779 2.49609 12.4859 2.49609 12.4949V28.5039C2.49609 28.5129 2.49909 28.5209 2.49909 28.5289C2.50109 28.8209 2.53709 29.1029 2.59909 29.3749C2.61609 29.4479 2.64409 29.5159 2.66509 29.5869C2.72609 29.7999 2.79709 30.0079 2.89109 30.2039C2.91709 30.2579 2.94809 30.3079 2.97609 30.3599C3.09109 30.5719 3.21809 30.7759 3.36809 30.9629C3.38909 30.9889 3.41009 31.0139 3.43109 31.0389C3.60409 31.2459 3.79609 31.4359 4.00609 31.6049C4.01209 31.6089 4.01609 31.6149 4.02109 31.6199H4.02309L10.8281 27.7059L14.9961 25.3089L14.9991 25.3119ZM7.08509 23.7279L7.98909 20.9739L5.60809 19.2829H8.54309L9.45709 16.5009L10.3431 19.2829H13.2671L10.8861 20.9739L11.7911 23.7269L9.43909 22.0079L7.08709 23.7269L7.08509 23.7279Z" fill="#2C3B88"/>
<path d="M15.001 25.312L10.834 27.708H38.501V22.916H19.168L15.001 25.312Z" fill="#E3E7EA"/>
<path d="M14.9596 15.688L19.1146 18.085H38.4996V13.292H10.8066L14.9596 15.688Z" fill="#E3E7EA"/>
<path d="M10.8854 20.974L13.2674 19.283H10.3434L9.45737 16.5L8.54437 19.283H5.60938L7.99037 20.974L7.08637 23.728L9.43837 22.009L11.7904 23.728L10.8854 20.974Z" fill="#E3E7EA"/>
</svg>
