<svg width="41" height="41" viewBox="0 0 41 41" fill="none" xmlns="http://www.w3.org/2000/svg">
<path d="M34.5 8.5H6.5C4.29086 8.5 2.5 10.2909 2.5 12.5V28.5C2.5 30.7091 4.29086 32.5 6.5 32.5H34.5C36.7091 32.5 38.5 30.7091 38.5 28.5V12.5C38.5 10.2909 36.7091 8.5 34.5 8.5Z" fill="#E3E7EA"/>
<path d="M34.5041 8.50002H6.49411C4.66111 8.50002 3.13211 9.74202 2.66211 11.425L7.85511 16.5H38.4981V12.495C38.4981 10.288 36.7091 8.49902 34.5031 8.49902L34.5041 8.50002Z" fill="black"/>
<path d="M2.66311 29.575C3.13311 31.258 4.66211 32.5 6.49511 32.5H34.5041C36.7111 32.5 38.4991 30.711 38.4991 28.504V24.5H7.85511L2.66311 29.575Z" fill="#007F38"/>
<path d="M13.522 16.7496L12.52 15.9996L3.857 9.51562C3.031 10.2476 2.5 11.3046 2.5 12.4956V28.5046C2.5 29.6956 3.031 30.7526 3.857 31.4846L12.52 25.0006L13.534 24.2416L18.531 20.5016L13.521 16.7516L13.522 16.7496Z" fill="#CF002E"/>
</svg>
