<svg width="41" height="41" viewBox="0 0 41 41" fill="none" xmlns="http://www.w3.org/2000/svg">
<path d="M10.2227 18.0098C9.8757 18.6318 9.6567 19.3328 9.5957 20.0798L11.3937 19.1808L10.2227 18.0098Z" fill="#006D2D"/>
<path d="M13.9595 25.5568V24.8848H12.0645C12.6335 25.2258 13.2745 25.4588 13.9595 25.5568Z" fill="#006D2D"/>
<path d="M9.5957 20.918C9.6867 22.043 10.1427 23.063 10.8437 23.865L10.8337 23.85L11.9907 23.079C11.8537 22.749 11.7787 22.388 11.7717 22.01L9.5957 20.918Z" fill="#006D2D"/>
<path d="M8.843 20.499C8.843 17.295 11.42 14.697 14.614 14.655V8.49902H6.495C4.288 8.49902 2.5 10.288 2.5 12.495V28.504C2.5 30.711 4.289 32.5 6.495 32.5H14.614V26.343C11.419 26.302 8.843 23.703 8.843 20.499Z" fill="#006D2D"/>
<path d="M11.7667 16.8444H13.9597V15.4414C12.6577 15.6274 11.5127 16.3004 10.7207 17.2744L11.7677 17.4424L11.7667 16.8444Z" fill="#006D2D"/>
<path d="M10.3906 20.4985L11.7666 21.1865V19.8105L10.3906 20.4985Z" fill="#006D2D"/>
<path d="M11.3691 18.124L11.7661 18.521V18.19L11.3691 18.124Z" fill="#006D2D"/>
<path d="M12.3594 23.709L11.6934 24.153H12.7744C12.6214 24.019 12.4824 23.872 12.3594 23.709Z" fill="#006D2D"/>
<path d="M8.84375 20.4993C8.84375 23.7033 11.4207 26.3013 14.6147 26.3433C14.6407 26.3433 14.6647 26.3473 14.6907 26.3473C17.9197 26.3473 20.5378 23.7293 20.5378 20.5003C20.5378 17.2713 17.9197 14.6533 14.6907 14.6533C14.6647 14.6533 14.6407 14.6563 14.6147 14.6573C11.4197 14.6983 8.84375 17.2963 8.84375 20.5013V20.4993ZM10.2227 18.0093L11.3937 19.1803L9.59575 20.0793C9.65675 19.3323 9.87575 18.6313 10.2227 18.0093ZM13.9597 25.5563C13.2747 25.4583 12.6347 25.2253 12.0647 24.8843H13.9597V25.5563ZM15.4217 25.5563V24.8843H17.3167C16.7477 25.2253 16.1067 25.4583 15.4217 25.5563ZM19.1588 18.0093C19.5058 18.6313 19.7247 19.3323 19.7857 20.0803L17.9877 19.1813L19.1588 18.0093ZM13.9597 15.4413V16.8443H15.4217V15.4413C16.7237 15.6283 17.8687 16.3003 18.6607 17.2743L17.6138 17.4423V18.1883L18.0107 18.1223L17.6138 18.5193V19.8113L18.9897 20.4993L17.6138 21.1873V21.9613C17.6138 21.9783 17.6087 21.9933 17.6087 22.0103L19.7857 20.9183C19.6937 22.0433 19.2388 23.0633 18.5378 23.8653L18.5478 23.8503L17.3907 23.0783C17.2957 23.3073 17.1668 23.5153 17.0208 23.7103L17.6868 24.1543H16.6057C16.0917 24.6033 15.4267 24.8853 14.6907 24.8853C13.9547 24.8853 13.2897 24.6043 12.7757 24.1543H11.6947L12.3607 23.7103C12.2137 23.5153 12.0857 23.3073 11.9907 23.0793L10.8337 23.8503L10.8438 23.8653C10.1417 23.0633 9.68675 22.0443 9.59575 20.9183L11.7717 22.0103C11.7717 21.9933 11.7667 21.9783 11.7667 21.9613V21.1873L10.3907 20.4993L11.7667 19.8113V18.5203L11.3698 18.1233L11.7667 18.1893V17.4423L10.7197 17.2743C11.5117 16.3003 12.6577 15.6273 13.9597 15.4413Z" fill="#F3EB00"/>
<path d="M18.5476 23.85L18.5376 23.865C19.2386 23.063 19.6936 22.044 19.7856 20.918L17.6086 22.01C17.6026 22.388 17.5266 22.748 17.3906 23.078L18.5476 23.85Z" fill="#FF0010"/>
<path d="M17.6139 17.4434L18.6609 17.2754C17.8689 16.3014 16.7239 15.6294 15.4219 15.4424V16.8454H17.6149L17.6139 17.4434Z" fill="#FF0010"/>
<path d="M16.6074 24.154H17.6884L17.0224 23.71C16.9004 23.873 16.7604 24.02 16.6074 24.154Z" fill="#FF0010"/>
<path d="M18.9912 20.4985L17.6152 19.8115V21.1865L18.9912 20.4985Z" fill="#FF0010"/>
<path d="M19.7863 20.0798C19.7253 19.3318 19.5063 18.6318 19.1593 18.0088L17.9883 19.1808L19.7863 20.0798Z" fill="#FF0010"/>
<path d="M18.0122 18.123L17.6152 18.189V18.52L18.0122 18.123Z" fill="#FF0010"/>
<path d="M15.4219 25.5568C16.1069 25.4588 16.7469 25.2258 17.3169 24.8848H15.4219V25.5568Z" fill="#FF0010"/>
<path d="M34.5002 8.5H14.6152V14.656C14.6412 14.656 14.6652 14.652 14.6912 14.652C17.9202 14.652 20.5382 17.269 20.5382 20.499C20.5382 23.729 17.9202 26.346 14.6912 26.346C14.6652 26.346 14.6412 26.343 14.6152 26.342V32.499H34.5002C36.7092 32.499 38.5002 30.708 38.5002 28.499V12.5C38.5002 10.291 36.7092 8.5 34.5002 8.5Z" fill="#FF0010"/>
<path d="M11.7676 17.4427V21.9607C11.7676 21.9777 11.7726 21.9927 11.7726 22.0097C11.7786 22.3877 11.8546 22.7487 11.9916 23.0787C12.0866 23.3067 12.2156 23.5147 12.3616 23.7097C12.4836 23.8727 12.6236 24.0197 12.7766 24.1537C13.2906 24.6027 13.9556 24.8847 14.6916 24.8847C15.4276 24.8847 16.0926 24.6037 16.6066 24.1537C16.7596 24.0197 16.8986 23.8727 17.0216 23.7097C17.1686 23.5147 17.2976 23.3067 17.3916 23.0777C17.5286 22.7477 17.6036 22.3877 17.6096 22.0097C17.6096 21.9927 17.6146 21.9777 17.6146 21.9607V16.8447H11.7676V17.4427ZM15.4226 17.5757H16.8846V21.9607C16.8846 23.1707 15.9026 24.1537 14.6916 24.1537C13.4806 24.1537 12.4986 23.1717 12.4986 21.9607V17.5757H15.4226Z" fill="#FD0032"/>
<path d="M15.4201 21.2305V23.4235H13.9581V21.2305H12.4961V21.9615C12.4961 23.1715 13.4781 24.1545 14.6891 24.1545C15.9001 24.1545 16.8821 23.1725 16.8821 21.9615V21.2305H15.4201Z" fill="white"/>
<path d="M15.4199 18.5552V19.0372V19.7682H16.1509H16.8819V17.5752H15.4199V17.7952V18.5552Z" fill="white"/>
<path d="M12.498 17.5752V19.7682H13.229H13.959V19.0372V18.5552V17.7952V17.5752H12.498Z" fill="white"/>
<path d="M15.4199 21.2306H16.1509V19.7686H15.4199V20.7136V21.2306Z" fill="#829ACD"/>
<path d="M13.2285 21.2306H13.9585V20.7136V19.7686H13.2285V21.2306Z" fill="#829ACD"/>
<path d="M15.421 19.0371H13.959V19.7681H15.421V19.0371Z" fill="#829ACD"/>
<path d="M13.959 21.2305V21.7475V21.7655V21.9615H15.421V21.7655V21.7475V21.2305H13.959Z" fill="#829ACD"/>
<path d="M16.8833 19.7686H16.1523V21.2306H16.8833V19.7686Z" fill="#003399"/>
<path d="M13.229 19.7686H12.498V21.2306H13.229V19.7686Z" fill="#003399"/>
<path d="M13.959 18.5552V19.0372H15.421V18.5552V17.7952V17.5752H13.959V17.7952V18.5552Z" fill="#003399"/>
<path d="M13.959 21.9609V22.6439V23.4229H15.421V22.6439V21.9609H13.959Z" fill="#003399"/>
<path d="M13.959 21.2306H15.421V20.7136V19.7686H13.959V20.7136V21.2306Z" fill="#003399"/>
</svg>
