<svg width="41" height="41" viewBox="0 0 41 41" fill="none" xmlns="http://www.w3.org/2000/svg">
<path d="M2.5 24.5H38.5V16.5H2.5V24.5ZM20.5 17.452C22.183 17.452 23.548 18.817 23.548 20.5C23.548 22.183 22.183 23.548 20.5 23.548C18.817 23.548 17.452 22.183 17.452 20.5C17.452 18.817 18.817 17.452 20.5 17.452Z" fill="#E3E7EA"/>
<path d="M2.5 28.5V28.504C2.5 30.71 4.288 32.499 6.494 32.5H34.507C36.713 32.5 38.501 30.71 38.501 28.504V24.5H2.5V28.5Z" fill="#2D3B9D"/>
<path d="M34.505 8.5H6.495C4.288 8.5 2.5 10.289 2.5 12.496V16.5H38.5V12.496C38.5 10.289 36.711 8.5 34.505 8.5Z" fill="#CF002E"/>
<path d="M18.2452 21.2277C18.2882 21.3577 18.3392 21.4847 18.4032 21.6027C18.4162 21.6277 18.4222 21.6577 18.4362 21.6827L18.4442 21.6787L18.8592 21.4507C18.6962 21.1697 18.5962 20.8477 18.5962 20.4997C18.5962 19.4477 19.4492 18.5947 20.5012 18.5947C21.5532 18.5947 22.4062 19.4477 22.4062 20.4997C22.4062 20.8477 22.3062 21.1697 22.1432 21.4497L22.5592 21.6787L22.5662 21.6827C22.5792 21.6597 22.5852 21.6317 22.5972 21.6077C22.6642 21.4827 22.7172 21.3517 22.7612 21.2157C22.7792 21.1617 22.7982 21.1097 22.8112 21.0537C22.8492 20.9007 22.8682 20.7407 22.8752 20.5767C22.8762 20.5447 22.8872 20.5157 22.8872 20.4837C22.8872 19.1657 21.8192 18.0977 20.5012 18.0977C19.1832 18.0977 18.1152 19.1657 18.1152 20.4837C18.1152 20.5317 18.1312 20.5757 18.1342 20.6227C18.1432 20.7667 18.1572 20.9087 18.1902 21.0447C18.2052 21.1077 18.2262 21.1657 18.2462 21.2267L18.2452 21.2277Z" fill="#99AAB5"/>
<path d="M20.4992 23.5481C22.1822 23.5481 23.5472 22.1831 23.5472 20.5001C23.5472 18.8171 22.1822 17.4521 20.4992 17.4521C18.8162 17.4521 17.4512 18.8171 17.4512 20.5001C17.4512 22.1831 18.8162 23.5481 20.4992 23.5481ZM20.4992 17.6431C22.0772 17.6431 23.3562 18.9221 23.3562 20.5001C23.3562 22.0781 22.0762 23.3571 20.4992 23.3571C18.9222 23.3571 17.6422 22.0771 17.6422 20.5001C17.6422 18.9231 18.9212 17.6431 20.4992 17.6431Z" fill="black"/>
<path d="M20.4994 22.9764C21.8674 22.9764 22.9754 21.8674 22.9754 20.5004C22.9754 19.1334 21.8664 18.0244 20.4994 18.0244C19.1324 18.0244 18.0234 19.1334 18.0234 20.5004C18.0234 21.8674 19.1324 22.9764 20.4994 22.9764ZM18.1134 20.4854C18.1134 19.1674 19.1814 18.0994 20.4994 18.0994C21.8174 18.0994 22.8854 19.1674 22.8854 20.4854C22.8854 20.5174 22.8744 20.5464 22.8734 20.5784C22.8684 20.7424 22.8464 20.9014 22.8094 21.0554C22.7954 21.1114 22.7764 21.1634 22.7594 21.2174C22.7164 21.3544 22.6614 21.4844 22.5954 21.6094C22.5824 21.6334 22.5774 21.6614 22.5644 21.6844L22.5574 21.6804C22.1464 22.3954 21.3834 22.8834 20.4994 22.8834C19.6154 22.8834 18.8534 22.3964 18.4424 21.6804L18.4344 21.6844C18.4204 21.6594 18.4144 21.6304 18.4014 21.6044C18.3384 21.4844 18.2864 21.3594 18.2434 21.2294C18.2234 21.1684 18.2024 21.1104 18.1874 21.0474C18.1554 20.9114 18.1384 20.7694 18.1314 20.6254C18.1284 20.5784 18.1124 20.5344 18.1124 20.4864L18.1134 20.4854Z" fill="black"/>
<path d="M20.4988 22.4047C21.2028 22.4047 21.8108 22.0187 22.1408 21.4497C22.3038 21.1687 22.4038 20.8477 22.4038 20.4997C22.4038 19.4477 21.5508 18.5947 20.4988 18.5947C19.4468 18.5947 18.5938 19.4477 18.5938 20.4997C18.5938 20.8477 18.6938 21.1697 18.8568 21.4507C19.1868 22.0187 19.7948 22.4047 20.4988 22.4047ZM18.6698 20.4997C18.6698 19.4897 19.4888 18.6707 20.4988 18.6707C21.5088 18.6707 22.3278 19.4897 22.3278 20.4997C22.3278 21.5097 21.5088 22.3287 20.4988 22.3287C19.4888 22.3287 18.6698 21.5097 18.6698 20.4997Z" fill="black"/>
<path d="M20.4996 23.3566C22.0766 23.3566 23.3566 22.0776 23.3566 20.4996C23.3566 18.9216 22.0776 17.6426 20.4996 17.6426C18.9216 17.6426 17.6426 18.9226 17.6426 20.4996C17.6426 22.0766 18.9226 23.3566 20.4996 23.3566ZM20.4996 18.0226C21.8676 18.0226 22.9756 19.1316 22.9756 20.4986C22.9756 21.8656 21.8666 22.9746 20.4996 22.9746C19.1326 22.9746 18.0236 21.8656 18.0236 20.4986C18.0236 19.1316 19.1326 18.0226 20.4996 18.0226Z" fill="#EEEEEE"/>
<path d="M22.7597 21.2158C22.7157 21.3518 22.6627 21.4838 22.5957 21.6078C22.6617 21.4828 22.7157 21.3528 22.7597 21.2158Z" fill="#EEEEEE"/>
<path d="M22.8745 20.5771C22.8685 20.7401 22.8485 20.9001 22.8105 21.0541C22.8475 20.9001 22.8685 20.7411 22.8745 20.5771Z" fill="#EEEEEE"/>
<path d="M18.1309 20.624C18.1389 20.769 18.1549 20.91 18.1869 21.046C18.1539 20.91 18.1389 20.768 18.1309 20.624Z" fill="#EEEEEE"/>
<path d="M20.5004 22.4042C19.7964 22.4042 19.1884 22.0182 18.8584 21.4502L18.4434 21.6782C18.8544 22.3932 19.6164 22.8812 20.5004 22.8812C21.3844 22.8812 22.1474 22.3942 22.5584 21.6782L22.1424 21.4492C21.8124 22.0172 21.2044 22.4042 20.5004 22.4042Z" fill="#EEEEEE"/>
<path d="M18.4021 21.6035C18.3381 21.4845 18.2871 21.3585 18.2441 21.2285C18.2861 21.3595 18.3381 21.4845 18.4021 21.6035Z" fill="#EEEEEE"/>
<path d="M20.4989 22.3289C21.5089 22.3289 22.3279 21.5099 22.3279 20.4999C22.3279 19.4899 21.5089 18.6709 20.4989 18.6709C19.4889 18.6709 18.6699 19.4899 18.6699 20.4999C18.6699 21.5099 19.4889 22.3289 20.4989 22.3289ZM20.6769 22.1219L20.4759 21.9609L20.2609 22.1089L20.0459 21.9879L20.0599 21.9209L20.2339 22.0419L20.4619 21.8809L20.6769 22.0289L20.9589 21.9219L20.6769 22.1239V22.1219ZM20.4989 19.8769L20.6389 20.3069H21.0919L20.7259 20.5739L20.8649 21.0039L20.4989 20.7379L20.1329 21.0039L20.2719 20.5739L19.9059 20.3069H20.3589L20.4989 19.8769ZM18.9769 20.9799C18.9499 20.8179 18.9459 20.7789 18.9459 20.5639C18.9459 20.3489 18.9189 20.3089 18.9859 20.1209C19.0519 19.9329 19.0779 19.6659 19.2409 19.6109C19.4019 19.5579 19.5089 19.0739 20.0459 19.1419C20.1789 19.1589 20.0459 19.4509 20.0459 19.4509C20.0459 19.4509 19.8179 19.5719 19.7379 19.6659C19.6579 19.7599 19.5229 19.9339 19.4699 20.0679C19.4159 20.2019 19.3629 20.3229 19.3359 20.4699C19.3089 20.6179 19.2729 20.6449 19.3399 20.7519C19.4069 20.8589 19.4209 21.0069 19.5409 21.1149C19.6619 21.2209 19.6479 21.3019 19.8229 21.3559C19.9969 21.4099 20.0099 21.4769 20.1989 21.5569C20.3629 21.6269 20.4479 21.7529 20.4679 21.7849C20.4799 21.7459 20.5479 21.5509 20.7179 21.4779C20.9059 21.3979 20.9859 21.4109 21.1609 21.3579C21.3349 21.3039 21.3219 21.2229 21.4429 21.1169C21.5629 21.0099 21.5769 20.8619 21.6439 20.7539C21.7119 20.6469 21.7249 20.5659 21.6979 20.4179C21.6709 20.2699 21.6159 20.1089 21.5629 19.9739C21.5099 19.8399 21.3889 19.6789 21.3079 19.5849C21.2279 19.4909 20.8789 19.3709 20.8789 19.3709C20.8789 19.3709 21.1079 19.3179 21.2419 19.3039C21.3759 19.2899 21.4959 19.5999 21.6569 19.6529C21.8199 19.7079 21.8179 19.8679 21.8859 20.0559C21.9529 20.2439 21.9129 20.2839 21.9129 20.4989C21.9129 20.7139 22.0329 20.8219 22.0069 20.9819C21.9799 21.1429 21.8459 21.1829 21.7659 21.2909C21.6859 21.3989 21.7519 21.5319 21.6719 21.6139C21.5919 21.6939 21.3229 21.6809 21.2289 21.7619C21.1349 21.8419 20.9609 21.9629 20.8399 21.8959C20.7209 21.8299 20.4719 21.8029 20.4659 21.8019C20.4349 21.8059 20.2569 21.8329 20.1459 21.8939C20.0249 21.9609 19.7389 21.9339 19.6449 21.8529C19.5509 21.7729 19.3939 21.6919 19.3139 21.6119C19.2329 21.5319 19.2029 21.4789 19.1219 21.3709C19.0419 21.2639 19.0049 21.1419 18.9789 20.9819L18.9769 20.9799Z" fill="#EEEEEE"/>
<path d="M20.2733 20.574L20.1333 21.004L20.4993 20.739L20.8652 21.004L20.7253 20.574L21.0923 20.307H20.6392L20.4993 19.877L20.3593 20.307H19.9062L20.2733 20.574Z" fill="#FFAC33"/>
<path d="M20.4658 21.8002C20.4718 21.8002 20.7208 21.8272 20.8398 21.8942C20.9608 21.9612 21.1358 21.8402 21.2288 21.7602C21.3228 21.6792 21.5918 21.6922 21.6718 21.6122C21.7528 21.5312 21.6858 21.3982 21.7658 21.2892C21.8458 21.1822 21.9798 21.1412 22.0068 20.9802C22.0338 20.8192 21.9128 20.7122 21.9128 20.4972C21.9128 20.2822 21.9528 20.2432 21.8858 20.0542C21.8188 19.8662 21.8198 19.7062 21.6568 19.6512C21.4958 19.5982 21.3758 19.2882 21.2418 19.3022C21.1078 19.3162 20.8788 19.3692 20.8788 19.3692C20.8788 19.3692 21.2278 19.4892 21.3078 19.5832C21.3888 19.6782 21.5098 19.8382 21.5628 19.9722C21.6158 20.1072 21.6698 20.2682 21.6978 20.4162C21.7248 20.5642 21.7118 20.6452 21.6438 20.7522C21.5768 20.8592 21.5628 21.0072 21.4428 21.1152C21.3218 21.2222 21.3358 21.3032 21.1608 21.3562C20.9868 21.4092 20.9068 21.3962 20.7178 21.4762C20.5478 21.5492 20.4798 21.7452 20.4678 21.7832C20.4708 21.7882 20.4768 21.7962 20.4768 21.7962C20.4768 21.7962 20.4678 21.7972 20.4648 21.7982L20.4658 21.8002Z" fill="#007127"/>
<path d="M19.6448 21.8521C19.7388 21.9321 20.0238 21.9591 20.1458 21.8931C20.2558 21.8311 20.4348 21.8051 20.4658 21.8011C20.4688 21.8011 20.4778 21.7991 20.4778 21.7991C20.4778 21.7991 20.4718 21.7901 20.4688 21.7861C20.4488 21.7541 20.3638 21.6281 20.1998 21.5581C20.0118 21.4781 19.9988 21.4111 19.8238 21.3571C19.6498 21.3031 19.6628 21.2221 19.5418 21.1161C19.4218 21.0091 19.4078 20.8611 19.3408 20.7531C19.2738 20.6461 19.3098 20.6191 19.3368 20.4711C19.3638 20.3231 19.4168 20.2031 19.4708 20.0691C19.5238 19.9351 19.6588 19.7601 19.7388 19.6671C19.8188 19.5731 20.0468 19.4521 20.0468 19.4521C20.0468 19.4521 20.1798 19.1601 20.0468 19.1431C19.5098 19.0761 19.4018 19.5591 19.2418 19.6121C19.0798 19.6671 19.0538 19.9341 18.9868 20.1221C18.9198 20.3101 18.9468 20.3501 18.9468 20.5651C18.9468 20.7801 18.9508 20.8191 18.9778 20.9811C19.0048 21.1421 19.0408 21.2631 19.1208 21.3701C19.2018 21.4771 19.2318 21.5311 19.3128 21.6111C19.3928 21.6911 19.5518 21.7731 19.6448 21.8521Z" fill="#007127"/>
<path d="M20.4629 21.8789L20.2349 22.0399L20.0599 21.9189L20.0469 21.9869L20.2619 22.1079L20.4759 21.9599L20.6779 22.1209L20.9589 21.9189L20.6779 22.0269L20.4629 21.8789Z" fill="#007127"/>
</svg>
