<svg width="41" height="41" viewBox="0 0 41 41" fill="none" xmlns="http://www.w3.org/2000/svg">
<path d="M34.5 8.5H6.5C4.29086 8.5 2.5 10.2909 2.5 12.5V28.5C2.5 30.7091 4.29086 32.5 6.5 32.5H34.5C36.7091 32.5 38.5 30.7091 38.5 28.5V12.5C38.5 10.2909 36.7091 8.5 34.5 8.5Z" fill="#E3E7EA"/>
<path d="M17.6441 9.834L13.2461 11.167L17.6441 12.5L13.2461 13.834L17.6441 15.167L13.2461 16.499L17.6441 17.833L13.2461 19.166L17.6441 20.499L13.2461 21.833L17.6441 23.166L13.2461 24.499L17.6441 25.832L13.2461 27.165L17.6441 28.498L13.2461 29.832L17.6441 31.165L13.2471 32.498H34.5041C36.7111 32.498 38.4991 30.709 38.4991 28.503V12.495C38.4991 10.289 36.7111 8.501 34.5061 8.5H13.2461L17.6441 9.834Z" fill="#750641"/>
</svg>
