<svg width="41" height="41" viewBox="0 0 41 41" fill="none" xmlns="http://www.w3.org/2000/svg">
<path d="M34.5 8.5H6.5C4.29086 8.5 2.5 10.2909 2.5 12.5V28.5C2.5 30.7091 4.29086 32.5 6.5 32.5H34.5C36.7091 32.5 38.5 30.7091 38.5 28.5V12.5C38.5 10.2909 36.7091 8.5 34.5 8.5Z" fill="#3050E9"/>
<path d="M3.13477 30.6495C3.84477 31.7595 5.08077 32.4995 6.49577 32.4995H34.5048C35.9198 32.4995 37.1558 31.7595 37.8658 30.6505L20.5008 20.5615L3.13477 30.6495Z" fill="#FD0003"/>
<path d="M2.5 19.3213V21.7143L20.5 20.5183L2.5 19.3213Z" fill="#F5E600"/>
<path d="M20.5 20.5002L38.419 11.6922C38.249 10.8612 37.814 10.1322 37.215 9.57617L20.5 20.5002Z" fill="#F5E600"/>
<path d="M38.5 21.7143V19.3213L20.5 20.5183L38.5 21.7143Z" fill="#F5E600"/>
<path d="M18.7871 8.5L20.5001 20.5L22.2121 8.5H18.7871Z" fill="#F5E600"/>
<path d="M3.78408 9.57617C3.18508 10.1322 2.75008 10.8612 2.58008 11.6922L20.4991 20.5002L3.78408 9.57617Z" fill="#F5E600"/>
</svg>
