<svg width="41" height="41" viewBox="0 0 41 41" fill="none" xmlns="http://www.w3.org/2000/svg">
<path d="M34.5 8.5H6.5C4.29086 8.5 2.5 10.2909 2.5 12.5V28.5C2.5 30.7091 4.29086 32.5 6.5 32.5H34.5C36.7091 32.5 38.5 30.7091 38.5 28.5V12.5C38.5 10.2909 36.7091 8.5 34.5 8.5Z" fill="#F9CF00"/>
<path d="M2.49905 12.495V28.504C2.49905 30.711 4.28805 32.5 6.49405 32.5H13.568V8.5H6.49205C4.28605 8.5 2.49805 10.289 2.49805 12.495H2.49905Z" fill="#2B317D"/>
<path d="M27.4287 32.5H34.5027C36.7097 32.5 38.4977 30.711 38.4977 28.504V12.495C38.4977 10.289 36.7097 8.501 34.5037 8.5H27.4277L27.4287 32.5Z" fill="#CF002E"/>
</svg>
