<svg width="41" height="41" viewBox="0 0 41 41" fill="none" xmlns="http://www.w3.org/2000/svg">
<path d="M12.98 27.426C11.142 27.426 9.609 26.185 9.13 24.501H2.5V28.501C2.5 30.71 4.291 32.501 6.5 32.501H34.5C36.709 32.501 38.5 30.71 38.5 28.501V24.501H16.83C16.351 26.185 14.818 27.426 12.98 27.426Z" fill="#E3E7EA"/>
<path d="M17.0001 23.406C17.0001 23.788 16.9301 24.151 16.8301 24.501H38.5001V16.501H17.0001V23.406Z" fill="#2F3C86"/>
<path d="M8.96 23.406V16.501H2.5V24.501H9.13C9.03 24.151 8.96 23.788 8.96 23.406Z" fill="#2F3C86"/>
<path d="M13.0609 11.0998C13.0609 11.0278 13.0019 10.9678 12.9289 10.9678C12.8559 10.9678 12.7969 11.0268 12.7969 11.0998V11.2888H13.0599V11.0998H13.0609Z" fill="#FFAC33"/>
<path d="M13.0618 11.7103V11.5283H12.7988V11.7063C12.8378 11.6953 12.8768 11.6823 12.9198 11.6823C12.9708 11.6823 13.0168 11.6953 13.0628 11.7113L13.0618 11.7103Z" fill="#FFAC33"/>
<path d="M12.9185 12.5616C13.1545 12.5616 13.3435 12.3746 13.3545 12.1416C13.3545 12.1346 13.3585 12.1286 13.3585 12.1216C13.3585 11.9296 13.2335 11.7706 13.0615 11.7106C13.0165 11.6946 12.9695 11.6816 12.9185 11.6816C12.8755 11.6816 12.8375 11.6946 12.7975 11.7056C12.6145 11.7586 12.4785 11.9216 12.4785 12.1216C12.4785 12.1316 12.4835 12.1396 12.4835 12.1486C12.4985 12.3776 12.6845 12.5616 12.9185 12.5616Z" fill="#0C4076"/>
<path d="M10.8635 15.9323C10.8635 15.8253 10.7395 15.7383 10.5875 15.7383C10.4765 15.7383 10.4005 15.7913 10.3555 15.8563C10.3385 15.8813 10.3105 15.9023 10.3105 15.9323C10.3105 16.0153 10.3945 16.0743 10.4995 16.1013C10.5295 16.1093 10.5525 16.1263 10.5865 16.1263C10.7395 16.1263 10.8635 16.0393 10.8635 15.9323Z" fill="#0C4076"/>
<path d="M15.3073 15.7383C15.1543 15.7383 15.0312 15.8253 15.0312 15.9323C15.0312 16.0393 15.1553 16.1263 15.3073 16.1263C15.3743 16.1263 15.4312 16.1043 15.4792 16.0763C15.5122 16.0573 15.5252 16.0303 15.5422 16.0023C15.5512 15.9873 15.5643 15.9753 15.5673 15.9593C15.5693 15.9493 15.5833 15.9433 15.5833 15.9323C15.5833 15.9293 15.5793 15.9283 15.5793 15.9253C15.5733 15.8213 15.4563 15.7383 15.3073 15.7383Z" fill="#0C4076"/>
<path d="M12.9303 15.6582C12.7773 15.6582 12.6543 15.7442 12.6543 15.8522C12.6543 15.9602 12.7783 16.0472 12.9303 16.0472C13.0823 16.0472 13.2063 15.9602 13.2063 15.8522C13.2063 15.7442 13.0833 15.6582 12.9303 15.6582Z" fill="#0C4076"/>
<path d="M13.3185 23.708C13.3185 23.708 13.3145 23.708 13.3125 23.708C13.2205 23.728 13.1245 23.737 13.0265 23.741C13.0055 23.741 12.9865 23.748 12.9655 23.748C12.9485 23.748 12.9335 23.743 12.9165 23.742C12.8135 23.739 12.7135 23.729 12.6165 23.708H12.6145C12.4615 23.674 12.3195 23.614 12.1865 23.541C12.2965 23.757 12.2875 24.12 12.1695 24.364C12.0215 24.668 12.1695 24.791 12.1695 24.791C12.1695 24.791 11.9535 25.111 11.8435 25.294C11.7335 25.477 11.9005 25.69 11.9005 25.69C11.9005 25.69 11.4825 26.314 11.5985 26.558C11.7115 26.792 12.4075 26.941 12.9165 26.952L12.9205 26.954H12.9495H12.9785L12.9825 26.952C13.4915 26.941 14.1885 26.792 14.3015 26.558C14.4185 26.315 13.9995 25.69 13.9995 25.69C13.9995 25.69 14.1665 25.477 14.0565 25.294C13.9465 25.111 13.7295 24.791 13.7295 24.791C13.7295 24.791 13.8775 24.668 13.7295 24.364C13.6175 24.133 13.5995 23.79 13.6905 23.57C13.5735 23.629 13.4505 23.677 13.3185 23.706V23.708Z" fill="white"/>
<path d="M14.6588 24.0613L14.7148 23.7623L14.7388 23.6353C14.7388 23.6353 14.8868 23.7873 15.1168 23.7723C14.8328 23.3003 15.1168 23.4073 15.1168 23.4073C15.1168 23.4073 15.2248 23.6813 15.3598 23.8033C15.4938 23.9253 15.5348 24.2603 15.7108 24.3063C15.8858 24.3513 15.7918 23.9103 15.7918 23.9103C15.7918 23.9103 15.9668 24.2753 16.2498 24.3513C15.9938 23.8033 16.0888 23.1633 16.2498 22.4483C16.4118 21.7323 16.3308 20.8953 16.3308 20.8953C16.3308 20.8953 16.4818 19.3113 16.3528 18.4283C16.2238 17.5453 15.3928 17.8193 15.0398 18.4283C14.6868 19.0373 14.3818 19.4023 14.0548 18.9763C13.8028 18.6483 13.6208 18.3003 13.7648 17.8943C13.5188 17.8243 13.1358 17.6393 13.3608 17.4223C13.5898 17.2033 14.0568 16.9443 14.4058 16.8293C14.2978 16.6263 14.0488 16.6853 13.7008 16.8293C13.2958 16.9963 13.0398 16.9203 13.0808 17.1033C13.1218 17.2863 13.2698 17.3013 13.2698 17.3013C13.2698 17.3013 13.0148 17.5503 12.9478 18.4073C12.8808 17.5503 12.6258 17.3013 12.6258 17.3013C12.6258 17.3013 12.7738 17.2863 12.8148 17.1033C12.8548 16.9203 12.5988 16.9963 12.1938 16.8293C11.8458 16.6853 11.5978 16.6273 11.4898 16.8293C11.8388 16.9443 12.3068 17.2033 12.5358 17.4223C12.7608 17.6393 12.3778 17.8253 12.1318 17.8943C12.2758 18.3003 12.0938 18.6483 11.8418 18.9763C11.5158 19.4023 11.2108 19.0833 10.8578 18.4733C10.5048 17.8643 9.67276 17.5903 9.54476 18.4733C9.41576 19.3563 9.56476 20.8943 9.56476 20.8943C9.56476 20.8943 9.48376 21.7313 9.64576 22.4473C9.80776 23.1633 9.90276 23.8023 9.64576 24.3503C9.92876 24.2743 10.1038 23.9093 10.1038 23.9093C10.1038 23.9093 10.0098 24.3503 10.1848 24.3053C10.3598 24.2603 10.4008 23.9243 10.5348 23.8023C10.6698 23.6803 10.7778 23.4063 10.7778 23.4063C10.7778 23.4063 11.0618 23.2993 10.7778 23.7713C11.0068 23.7863 11.1558 23.6343 11.1558 23.6343L11.1968 23.8503L11.2368 24.0613L11.3718 23.8333L11.4078 24.0533L11.4388 24.2443L11.6818 23.8483L11.8408 24.0313C11.8408 24.0313 11.8628 23.5273 11.9848 23.4163C11.5898 23.1183 11.3308 22.6493 11.3308 22.1173V19.2963H14.5968V20.9753H14.5978V21.6793H14.5968V22.1173C14.5968 22.6573 14.3308 23.1333 13.9258 23.4303C14.0348 23.5683 14.0538 24.0313 14.0538 24.0313L14.2128 23.8483L14.4558 24.2443L14.4968 23.9923L14.5228 23.8333L14.6578 24.0613H14.6588Z" fill="white"/>
<path d="M13.3525 12.1416C13.3415 12.3746 13.1525 12.5616 12.9165 12.5616C12.6835 12.5616 12.4965 12.3776 12.4815 12.1486C10.0145 12.2856 9.21355 13.3726 9.43855 13.8006C9.67855 14.2576 10.3975 15.4336 10.3975 15.4336C10.3975 15.4336 10.2345 15.5216 10.3545 15.8576C10.3985 15.7926 10.4755 15.7396 10.5865 15.7396C10.7395 15.7396 10.8625 15.8256 10.8625 15.9336C10.8625 16.0416 10.7385 16.1276 10.5865 16.1276C10.5525 16.1276 10.5295 16.1106 10.4995 16.1026C10.8305 16.3726 11.6765 16.1306 12.9785 16.1306C14.3135 16.1306 15.1665 16.3806 15.4785 16.0776C15.4305 16.1056 15.3735 16.1276 15.3065 16.1276C15.1535 16.1276 15.0305 16.0406 15.0305 15.9336C15.0305 15.8266 15.1545 15.7396 15.3065 15.7396C15.4555 15.7396 15.5725 15.8226 15.5785 15.9266C15.7535 15.5266 15.5595 15.4346 15.5595 15.4346C15.5595 15.4346 16.2785 14.2586 16.5195 13.8016C16.7485 13.3666 15.9195 12.2476 13.3525 12.1416ZM10.7415 14.2916C10.6965 14.3366 10.7985 14.3946 10.7865 14.4746C10.7745 14.5546 10.6495 14.2346 10.4665 14.2916C10.3375 14.3316 10.3695 14.5916 10.3935 14.7166C10.3935 14.7166 10.3935 14.7166 10.3935 14.7146C10.3335 14.4886 10.1015 14.3946 10.1015 14.5206C10.1015 14.6466 10.0105 14.5206 10.0325 14.2926C10.0555 14.0636 9.98755 13.9276 9.84955 13.7326C9.71255 13.5376 9.71255 13.3676 9.88455 13.2526C10.0555 13.1386 10.4325 13.0466 10.4325 13.0466C10.4325 13.0466 10.5805 13.6976 10.6605 13.8466C10.7405 13.9946 10.8885 14.0926 10.8885 14.0926C10.8885 14.0926 10.8195 14.2006 10.8885 14.2576C10.9575 14.3146 11.0365 14.4516 11.0365 14.4516C11.0365 14.4516 10.7865 14.2466 10.7415 14.2916ZM11.6985 16.0606C11.5455 16.0606 11.4225 15.9736 11.4225 15.8666C11.4225 15.7596 11.5465 15.6726 11.6985 15.6726C11.8505 15.6726 11.9745 15.7596 11.9745 15.8666C11.9745 15.9736 11.8505 16.0606 11.6985 16.0606ZM12.4195 14.2356C12.4425 14.3276 12.2825 14.3156 12.2825 14.4526C12.2825 14.5896 12.1345 14.5326 12.1345 14.5326C12.1345 14.5326 12.3175 14.0536 12.0085 14.0636C11.8335 14.0706 11.8945 14.4286 12.0085 14.5546C11.9585 14.4776 11.8145 14.4746 11.6945 14.3836C11.5745 14.2926 11.7115 14.1436 11.6195 14.1776C11.5275 14.2116 11.4715 14.3606 11.3795 14.3946C11.2875 14.4286 11.3345 14.2906 11.3795 14.1776C11.4245 14.0636 11.3265 14.0066 11.3265 14.0066C11.3265 14.0066 11.3335 13.9266 11.4025 13.8806C11.4715 13.8356 11.4935 13.7556 11.4025 13.6636C11.3115 13.5726 10.9805 13.0586 11.0835 12.8866C11.1865 12.7156 11.5285 12.5216 12.4885 12.5436C12.6595 13.3316 12.3975 13.7196 12.3975 13.7196C12.3975 13.7196 12.5915 13.8456 12.6485 13.9136C12.5115 13.9716 12.6145 14.0286 12.7055 14.1076C12.7965 14.1886 12.8535 14.2446 12.7965 14.3026C12.7395 14.3596 12.6935 14.2566 12.5795 14.1766C12.4655 14.0966 12.3965 14.1426 12.4195 14.2346V14.2356ZM12.9285 16.0466C12.7755 16.0466 12.6525 15.9596 12.6525 15.8516C12.6525 15.7436 12.7765 15.6576 12.9285 15.6576C13.0805 15.6576 13.2045 15.7436 13.2045 15.8516C13.2045 15.9596 13.0815 16.0466 12.9285 16.0466ZM14.1655 16.0606C14.0125 16.0606 13.8895 15.9736 13.8895 15.8666C13.8895 15.7596 14.0135 15.6726 14.1655 15.6726C14.3175 15.6726 14.4415 15.7596 14.4415 15.8666C14.4415 15.9736 14.3175 16.0606 14.1655 16.0606ZM14.5555 13.8806C14.6245 13.9256 14.6315 14.0066 14.6315 14.0066C14.6315 14.0066 14.5325 14.0636 14.5785 14.1776C14.6235 14.2916 14.6695 14.4286 14.5785 14.3946C14.4875 14.3606 14.4305 14.2116 14.3385 14.1776C14.2475 14.1436 14.3835 14.2926 14.2635 14.3836C14.1435 14.4746 14.0005 14.4776 13.9495 14.5546C14.0635 14.4286 14.1245 14.0696 13.9495 14.0636C13.6415 14.0516 13.8235 14.5326 13.8235 14.5326C13.8235 14.5326 13.6755 14.5896 13.6755 14.4526C13.6755 14.3156 13.5155 14.3266 13.5385 14.2356C13.5615 14.1446 13.4935 14.0986 13.3785 14.1776C13.2645 14.2576 13.2185 14.3606 13.1615 14.3036C13.1045 14.2466 13.1615 14.1896 13.2525 14.1086C13.3445 14.0286 13.4475 13.9726 13.3105 13.9146C13.3675 13.8456 13.5615 13.7206 13.5615 13.7206C13.5615 13.7206 13.2995 13.3326 13.4705 12.5446C14.4295 12.5216 14.7725 12.7156 14.8755 12.8876C14.9785 13.0586 14.6475 13.5736 14.5555 13.6636C14.4635 13.7536 14.4865 13.8346 14.5555 13.8806ZM16.1085 13.7326C15.9715 13.9266 15.9035 14.0636 15.9255 14.2926C15.9485 14.5206 15.8565 14.6466 15.8565 14.5206C15.8565 14.3946 15.6245 14.4896 15.5645 14.7146C15.5645 14.7156 15.5645 14.7146 15.5645 14.7166C15.5895 14.5916 15.6205 14.3316 15.4915 14.2916C15.3885 14.2596 15.2725 14.4156 15.1965 14.5516C15.2265 14.4416 15.2445 14.3186 15.2175 14.2916C15.1725 14.2456 14.9205 14.4516 14.9205 14.4516C14.9205 14.4516 15.0005 14.3146 15.0685 14.2576C15.1375 14.2006 15.0685 14.0926 15.0685 14.0926C15.0685 14.0926 15.2165 13.9956 15.2965 13.8466C15.3765 13.6986 15.5245 13.0466 15.5245 13.0466C15.5245 13.0466 15.9015 13.1386 16.0725 13.2526C16.2435 13.3666 16.2445 13.5386 16.1075 13.7326H16.1085Z" fill="#EDB92E"/>
<path d="M15.56 15.982C15.565 15.973 15.563 15.969 15.568 15.96C15.564 15.976 15.552 15.989 15.543 16.003C15.548 15.995 15.555 15.991 15.56 15.982Z" fill="#EDB92E"/>
<path d="M13.2027 11.5291C13.2697 11.5291 13.3227 11.4761 13.3227 11.4091C13.3227 11.3421 13.2697 11.2891 13.2027 11.2891H12.6317C12.5647 11.2891 12.5117 11.3421 12.5117 11.4091C12.5117 11.4761 12.5647 11.5291 12.6317 11.5291H13.2027Z" fill="#EDB92E"/>
<path d="M15.665 24.3268C15.665 24.2068 15.456 24.2578 15.159 24.2768C14.925 24.2928 14.856 24.1128 14.715 23.7598L14.659 24.0588L14.524 23.8308L14.498 23.9898C14.621 24.1608 14.773 24.3598 14.854 24.4248C15.002 24.5448 15.081 24.5248 15.081 24.5248C15.081 24.5248 15.465 25.0228 15.552 24.8038C15.64 24.5848 15.195 24.3958 15.195 24.3958C15.195 24.3958 15.666 24.4458 15.666 24.3258L15.665 24.3268Z" fill="#EDB92E"/>
<path d="M11.2362 24.061L11.1962 23.85C11.0772 24.145 11.0032 24.292 10.7892 24.278C10.4922 24.258 10.2832 24.208 10.2832 24.328C10.2832 24.447 10.7542 24.398 10.7542 24.398C10.7542 24.398 10.3092 24.588 10.3972 24.806C10.4842 25.025 10.8682 24.527 10.8682 24.527C10.8682 24.527 10.9462 24.547 11.0952 24.427C11.1662 24.37 11.2932 24.207 11.4072 24.053L11.3712 23.833L11.2362 24.061Z" fill="#EDB92E"/>
<path d="M15.1046 25.3778C15.2046 25.1468 15.1346 25.1138 15.0536 25.0338C14.9726 24.9538 14.9326 24.8428 14.9326 24.8428C14.9326 24.8428 14.8926 24.9538 14.8116 25.0338C14.7306 25.1138 14.6606 25.1468 14.7606 25.3778C14.5176 25.2338 14.4766 25.4978 14.5886 25.6578C14.6196 25.5138 14.8116 25.5468 14.8116 25.7218C14.8116 25.8968 14.6526 25.8178 14.6726 25.8888C14.6916 25.9608 14.8366 26.1128 14.9326 26.1128C15.0286 26.1128 15.1736 25.9618 15.1926 25.8888C15.2126 25.8158 15.0536 25.8968 15.0536 25.7218C15.0536 25.5468 15.2446 25.5138 15.2766 25.6578C15.3886 25.4978 15.3486 25.2338 15.1046 25.3778Z" fill="#EDB92E"/>
<path d="M11.129 25.3778C11.229 25.1468 11.159 25.1138 11.079 25.0338C10.998 24.9538 10.958 24.8428 10.958 24.8428C10.958 24.8428 10.918 24.9538 10.837 25.0338C10.756 25.1138 10.686 25.1468 10.786 25.3778C10.543 25.2338 10.502 25.4978 10.614 25.6578C10.645 25.5138 10.837 25.5468 10.837 25.7218C10.837 25.8968 10.678 25.8178 10.697 25.8888C10.717 25.9608 10.861 26.1128 10.957 26.1128C11.053 26.1128 11.198 25.9618 11.217 25.8888C11.237 25.8158 11.078 25.8968 11.078 25.7218C11.078 25.5468 11.269 25.5138 11.301 25.6578C11.414 25.4978 11.373 25.2338 11.129 25.3778Z" fill="#EDB92E"/>
<path d="M13.7652 17.8935C13.8312 17.9125 13.8902 17.9245 13.9212 17.9245C14.0702 17.9245 14.3662 18.0955 14.6012 17.8665C14.9502 17.8325 15.0322 17.5355 15.0322 17.5355C15.0322 17.5355 14.7772 17.7065 14.5252 17.6835C14.2742 17.6605 14.1602 17.6035 14.2972 17.4435C14.4342 17.2835 14.7512 17.5695 14.7512 17.5695C14.7512 17.5695 14.8342 17.5815 15.0322 17.2955C15.2302 17.0095 15.0172 16.8265 14.7512 16.7705C14.6742 16.7535 14.5482 16.7825 14.4062 16.8285C14.0572 16.9435 13.5892 17.2025 13.3612 17.4215C13.1362 17.6385 13.5192 17.8235 13.7652 17.8935Z" fill="#EDB92E"/>
<path d="M12.5337 17.4215C12.3047 17.2025 11.8377 16.9425 11.4877 16.8285C11.3457 16.7825 11.2197 16.7535 11.1437 16.7705C10.8777 16.8285 10.6647 17.0105 10.8627 17.2965C11.0607 17.5825 11.1437 17.5705 11.1437 17.5705C11.1437 17.5705 11.4597 17.2845 11.5977 17.4445C11.7347 17.6045 11.6207 17.6615 11.3697 17.6845C11.1187 17.7075 10.8637 17.5365 10.8637 17.5365C10.8637 17.5365 10.9467 17.8335 11.2947 17.8675C11.5297 18.0955 11.8257 17.9245 11.9747 17.9245C12.0057 17.9245 12.0647 17.9125 12.1307 17.8935C12.3767 17.8235 12.7597 17.6385 12.5347 17.4215H12.5337Z" fill="#EDB92E"/>
<path d="M35.306 8.581C35.285 8.577 35.262 8.578 35.24 8.574C35.002 8.529 34.758 8.5 34.507 8.5H6.493C6.242 8.5 5.998 8.53 5.76 8.574C5.739 8.578 5.715 8.576 5.694 8.581C3.872 8.952 2.5 10.563 2.5 12.495V16.5H8.96V16.461H17V16.5H38.5V12.495C38.5 10.563 37.129 8.952 35.306 8.581ZM16.519 13.801C16.279 14.258 15.559 15.434 15.559 15.434C15.559 15.434 15.753 15.527 15.578 15.926C15.578 15.929 15.582 15.93 15.582 15.933C15.582 15.943 15.569 15.95 15.566 15.96C15.562 15.969 15.563 15.973 15.558 15.982C15.554 15.991 15.545 15.995 15.54 16.003C15.523 16.031 15.51 16.058 15.477 16.077C15.164 16.381 14.312 16.13 12.977 16.13C11.675 16.13 10.829 16.371 10.498 16.102C10.393 16.075 10.309 16.017 10.309 15.933C10.309 15.903 10.337 15.882 10.354 15.857C10.234 15.521 10.397 15.433 10.397 15.433C10.397 15.433 9.678 14.257 9.438 13.8C9.213 13.372 10.014 12.285 12.481 12.148C12.481 12.139 12.476 12.131 12.476 12.121C12.476 11.921 12.612 11.759 12.795 11.705V11.527H12.631C12.564 11.527 12.511 11.474 12.511 11.407C12.511 11.34 12.564 11.287 12.631 11.287H12.795V11.098C12.795 11.026 12.854 10.966 12.927 10.966C13 10.966 13.059 11.025 13.059 11.098V11.287H13.202C13.269 11.287 13.322 11.34 13.322 11.407C13.322 11.474 13.269 11.527 13.202 11.527H13.059V11.709C13.231 11.769 13.356 11.928 13.356 12.12C13.356 12.127 13.352 12.133 13.352 12.14C15.919 12.246 16.748 13.363 16.519 13.799V13.801Z" fill="#DC002D"/>
<path d="M10.8897 14.0929C10.8897 14.0929 10.7417 13.9959 10.6617 13.8469C10.5817 13.6989 10.4337 13.0469 10.4337 13.0469C10.4337 13.0469 10.0567 13.1389 9.8857 13.2529C9.7137 13.3679 9.7137 13.5389 9.8507 13.7329C9.9877 13.9269 10.0557 14.0639 10.0337 14.2929C10.0107 14.5209 10.1027 14.6469 10.1027 14.5209C10.1027 14.3949 10.3347 14.4899 10.3947 14.7149C10.3947 14.7149 10.3947 14.7149 10.3947 14.7169C10.3697 14.5919 10.3387 14.3319 10.4677 14.2919C10.6507 14.2349 10.7757 14.5549 10.7877 14.4749C10.7997 14.3949 10.6967 14.3369 10.7427 14.2919C10.7877 14.2469 11.0387 14.4519 11.0387 14.4519C11.0387 14.4519 10.9587 14.3149 10.8907 14.2579C10.8217 14.2009 10.8897 14.0929 10.8897 14.0929Z" fill="#DC002D"/>
<path d="M14.8755 12.8877C14.7725 12.7157 14.4295 12.5227 13.4705 12.5447C13.2995 13.3327 13.5615 13.7207 13.5615 13.7207C13.5615 13.7207 13.3675 13.8467 13.3105 13.9147C13.4475 13.9717 13.3445 14.0287 13.2525 14.1087C13.1615 14.1897 13.1045 14.2457 13.1615 14.3037C13.2185 14.3607 13.2645 14.2577 13.3785 14.1777C13.4935 14.0977 13.5615 14.1437 13.5385 14.2357C13.5155 14.3277 13.6755 14.3167 13.6755 14.4527C13.6755 14.5887 13.8235 14.5327 13.8235 14.5327C13.8235 14.5327 13.6405 14.0527 13.9495 14.0637C14.1245 14.0707 14.0635 14.4287 13.9495 14.5547C14.0005 14.4777 14.1435 14.4747 14.2635 14.3837C14.3835 14.2927 14.2465 14.1437 14.3385 14.1777C14.4295 14.2117 14.4865 14.3607 14.5785 14.3947C14.6705 14.4287 14.6235 14.2917 14.5785 14.1777C14.5325 14.0637 14.6315 14.0067 14.6315 14.0067C14.6315 14.0067 14.6245 13.9257 14.5555 13.8807C14.4865 13.8347 14.4635 13.7547 14.5555 13.6637C14.6475 13.5727 14.9785 13.0587 14.8755 12.8877Z" fill="#DC002D"/>
<path d="M12.7968 14.3038C12.8538 14.2468 12.7968 14.1898 12.7058 14.1088C12.6148 14.0288 12.5118 13.9728 12.6488 13.9148C12.5918 13.8458 12.3978 13.7208 12.3978 13.7208C12.3978 13.7208 12.6598 13.3328 12.4888 12.5448C11.5288 12.5218 11.1868 12.7168 11.0838 12.8878C10.9818 13.0598 11.3118 13.5738 11.4028 13.6648C11.4938 13.7568 11.4718 13.8368 11.4028 13.8818C11.3338 13.9278 11.3268 14.0078 11.3268 14.0078C11.3268 14.0078 11.4248 14.0648 11.3798 14.1788C11.3348 14.2918 11.2888 14.4298 11.3798 14.3958C11.4708 14.3618 11.5278 14.2128 11.6198 14.1788C11.7118 14.1448 11.5748 14.2938 11.6948 14.3848C11.8148 14.4758 11.9588 14.4788 12.0088 14.5558C11.8948 14.4298 11.8338 14.0708 12.0088 14.0648C12.3168 14.0538 12.1348 14.5338 12.1348 14.5338C12.1348 14.5338 12.2828 14.5918 12.2828 14.4538C12.2828 14.3158 12.4428 14.3278 12.4198 14.2368C12.3968 14.1458 12.4658 14.0998 12.5798 14.1788C12.6938 14.2578 12.7398 14.3618 12.7968 14.3048V14.3038Z" fill="#DC002D"/>
<path d="M16.0739 13.2529C15.9029 13.1389 15.5259 13.0469 15.5259 13.0469C15.5259 13.0469 15.3779 13.6979 15.2979 13.8469C15.2179 13.9949 15.0699 14.0929 15.0699 14.0929C15.0699 14.0929 15.1389 14.2009 15.0699 14.2579C15.0009 14.3149 14.9219 14.4519 14.9219 14.4519C14.9219 14.4519 15.1729 14.2459 15.2189 14.2919C15.2459 14.3189 15.2279 14.4419 15.1979 14.5519C15.2739 14.4159 15.3899 14.2599 15.4929 14.2919C15.6219 14.3329 15.5899 14.5929 15.5659 14.7169C15.5659 14.7159 15.5659 14.7169 15.5659 14.7149C15.6259 14.4899 15.8579 14.3949 15.8579 14.5209C15.8579 14.6469 15.9489 14.5209 15.9269 14.2929C15.9039 14.0639 15.9719 13.9279 16.1099 13.7329C16.2469 13.5379 16.2449 13.3669 16.0739 13.2529Z" fill="#DC002D"/>
<path d="M9.13094 24.4999C9.60994 26.1839 11.1429 27.4249 12.9809 27.4249C14.8189 27.4249 16.3519 26.1839 16.8309 24.4999C16.9309 24.1499 17.0009 23.7869 17.0009 23.4049V16.4609H8.96094V23.4049C8.96094 23.7869 9.03094 24.1499 9.13094 24.4999ZM11.3029 25.6579C11.2709 25.5139 11.0799 25.5469 11.0799 25.7219C11.0799 25.8969 11.2389 25.8169 11.2189 25.8889C11.1999 25.9609 11.0549 26.1129 10.9589 26.1129C10.8629 26.1129 10.7189 25.9619 10.6989 25.8889C10.6799 25.8169 10.8389 25.8969 10.8389 25.7219C10.8389 25.5469 10.6479 25.5139 10.6159 25.6579C10.5039 25.4979 10.5439 25.2339 10.7879 25.3779C10.6879 25.1459 10.7579 25.1129 10.8389 25.0339C10.9199 24.9539 10.9599 24.8429 10.9599 24.8429C10.9599 24.8429 10.9999 24.9549 11.0809 25.0339C11.1609 25.1139 11.2319 25.1469 11.1309 25.3779C11.3749 25.2339 11.4149 25.4979 11.3029 25.6579ZM15.2779 25.6579C15.2459 25.5139 15.0549 25.5469 15.0549 25.7219C15.0549 25.8969 15.2139 25.8169 15.1939 25.8889C15.1749 25.9609 15.0299 26.1129 14.9339 26.1129C14.8379 26.1129 14.6929 25.9619 14.6739 25.8889C14.6539 25.8169 14.8129 25.8969 14.8129 25.7219C14.8129 25.5469 14.6219 25.5139 14.5899 25.6579C14.4779 25.4979 14.5179 25.2339 14.7619 25.3779C14.6619 25.1459 14.7319 25.1129 14.8129 25.0339C14.8939 24.9539 14.9339 24.8429 14.9339 24.8429C14.9339 24.8429 14.9739 24.9549 15.0549 25.0339C15.1359 25.1139 15.2059 25.1469 15.1059 25.3779C15.3499 25.2339 15.3899 25.4979 15.2779 25.6579ZM15.5529 24.8049C15.4659 25.0239 15.0819 24.5259 15.0819 24.5259C15.0819 24.5259 15.0039 24.5459 14.8549 24.4259C14.7729 24.3609 14.6219 24.1609 14.4989 23.9909L14.4579 24.2429L14.2149 23.8469L14.0559 24.0299C14.0559 24.0299 14.0369 23.5659 13.9279 23.4289C13.8539 23.4829 13.7739 23.5299 13.6909 23.5709C13.5999 23.7909 13.6179 24.1339 13.7299 24.3649C13.8779 24.6689 13.7299 24.7919 13.7299 24.7919C13.7299 24.7919 13.9459 25.1119 14.0569 25.2949C14.1669 25.4779 13.9999 25.6909 13.9999 25.6909C13.9999 25.6909 14.4189 26.3159 14.3019 26.5589C14.1889 26.7929 13.4929 26.9419 12.9829 26.9529L12.9789 26.9549H12.9499H12.9209L12.9169 26.9529C12.4079 26.9419 11.7109 26.7929 11.5989 26.5589C11.4829 26.3149 11.9009 25.6909 11.9009 25.6909C11.9009 25.6909 11.7339 25.4779 11.8439 25.2949C11.9539 25.1119 12.1699 24.7919 12.1699 24.7919C12.1699 24.7919 12.0219 24.6689 12.1699 24.3649C12.2879 24.1209 12.2969 23.7579 12.1869 23.5419C12.1169 23.5039 12.0499 23.4619 11.9869 23.4149C11.8639 23.5259 11.8429 24.0299 11.8429 24.0299L11.6839 23.8469L11.4409 24.2429L11.4099 24.0519C11.2969 24.2059 11.1699 24.3689 11.0979 24.4259C10.9499 24.5459 10.8709 24.5259 10.8709 24.5259C10.8709 24.5259 10.4869 25.0239 10.3999 24.8049C10.3119 24.5859 10.7569 24.3969 10.7569 24.3969C10.7569 24.3969 10.2859 24.4469 10.2859 24.3269C10.2859 24.2069 10.4949 24.2579 10.7919 24.2769C11.0059 24.2909 11.0799 24.1439 11.1989 23.8489L11.1579 23.6329C11.1579 23.6329 11.0099 23.7859 10.7799 23.7699C11.0639 23.2979 10.7799 23.4049 10.7799 23.4049C10.7799 23.4049 10.6719 23.6789 10.5369 23.8009C10.4019 23.9229 10.3619 24.2589 10.1869 24.3039C10.0119 24.3489 10.1059 23.9079 10.1059 23.9079C10.1059 23.9079 9.93094 24.2729 9.64794 24.3489C9.90494 23.8009 9.80994 23.1609 9.64794 22.4459C9.48594 21.7299 9.56694 20.8929 9.56694 20.8929C9.56694 20.8929 9.41794 19.3549 9.54694 18.4719C9.67494 17.5889 10.5069 17.8629 10.8599 18.4719C11.2129 19.0819 11.5189 19.4009 11.8439 18.9749C12.0959 18.6469 12.2779 18.2999 12.1339 17.8929C12.0679 17.9119 12.0099 17.9239 11.9779 17.9239C11.8289 17.9239 11.5329 18.0949 11.2979 17.8669C10.9489 17.8329 10.8669 17.5359 10.8669 17.5359C10.8669 17.5359 11.1219 17.7069 11.3729 17.6839C11.6239 17.6609 11.7379 17.6039 11.6009 17.4439C11.4639 17.2839 11.1469 17.5699 11.1469 17.5699C11.1469 17.5699 11.0639 17.5819 10.8659 17.2959C10.6679 17.0099 10.8809 16.8269 11.1469 16.7699C11.2239 16.7529 11.3499 16.7819 11.4909 16.8279C11.5999 16.6249 11.8479 16.6839 12.1949 16.8279C12.5999 16.9949 12.8559 16.9189 12.8159 17.1019C12.7759 17.2849 12.6269 17.2999 12.6269 17.2999C12.6269 17.2999 12.8819 17.5489 12.9489 18.4059C13.0159 17.5489 13.2709 17.2999 13.2709 17.2999C13.2709 17.2999 13.1229 17.2849 13.0819 17.1019C13.0419 16.9189 13.2979 16.9949 13.7019 16.8279C14.0499 16.6839 14.2979 16.6259 14.4069 16.8279C14.5489 16.7809 14.6749 16.7529 14.7519 16.7699C15.0179 16.8269 15.2309 17.0099 15.0329 17.2949C14.8349 17.5809 14.7519 17.5689 14.7519 17.5689C14.7519 17.5689 14.4359 17.2829 14.2979 17.4429C14.1599 17.6029 14.2749 17.6599 14.5259 17.6829C14.7769 17.7059 15.0329 17.5349 15.0329 17.5349C15.0329 17.5349 14.9499 17.8319 14.6019 17.8659C14.3669 18.0949 14.0709 17.9239 13.9219 17.9239C13.8899 17.9239 13.8319 17.9119 13.7659 17.8929C13.6219 18.2989 13.8039 18.6469 14.0559 18.9749C14.3829 19.4009 14.6879 19.0359 15.0409 18.4269C15.3939 17.8179 16.2249 17.5439 16.3539 18.4269C16.4829 19.3099 16.3319 20.8939 16.3319 20.8939C16.3319 20.8939 16.4129 21.7319 16.2509 22.4469C16.0899 23.1619 15.9949 23.8019 16.2509 24.3499C15.9679 24.2739 15.7929 23.9089 15.7929 23.9089C15.7929 23.9089 15.8869 24.3499 15.7119 24.3049C15.5369 24.2589 15.4959 23.9239 15.3609 23.8019C15.2259 23.6799 15.1179 23.4059 15.1179 23.4059C15.1179 23.4059 14.8339 23.2989 15.1179 23.7709C14.8889 23.7859 14.7399 23.6339 14.7399 23.6339L14.7159 23.7609C14.8569 24.1139 14.9259 24.2929 15.1599 24.2779C15.4569 24.2579 15.6659 24.2079 15.6659 24.3279C15.6659 24.4469 15.1949 24.3979 15.1949 24.3979C15.1949 24.3979 15.6399 24.5879 15.5519 24.8059L15.5529 24.8049Z" fill="#DC002D"/>
<path d="M11.6998 15.6729C11.5468 15.6729 11.4238 15.7599 11.4238 15.8669C11.4238 15.9739 11.5478 16.0609 11.6998 16.0609C11.8518 16.0609 11.9758 15.9739 11.9758 15.8669C11.9758 15.7599 11.8518 15.6729 11.6998 15.6729Z" fill="#DC002D"/>
<path d="M14.1647 15.6729C14.0117 15.6729 13.8887 15.7599 13.8887 15.8669C13.8887 15.9739 14.0127 16.0609 14.1647 16.0609C14.3167 16.0609 14.4407 15.9739 14.4407 15.8669C14.4407 15.7599 14.3167 15.6729 14.1647 15.6729Z" fill="#DC002D"/>
<path d="M12.6121 21.6769H11.3311V20.9729H12.6121V19.2939H11.3301V22.1149C11.3301 22.6469 11.5891 23.1159 11.9841 23.4139C12.0471 23.4619 12.1141 23.5029 12.1841 23.5409C12.3181 23.6139 12.4591 23.6739 12.6121 23.7069V21.6769Z" fill="#DC002D"/>
<path d="M14.5964 22.1148V21.6768H13.3164V23.7068C13.4474 23.6778 13.5704 23.6298 13.6884 23.5708C13.7714 23.5288 13.8514 23.4828 13.9254 23.4288C14.3304 23.1318 14.5964 22.6548 14.5964 22.1148Z" fill="#DC002D"/>
<path d="M14.5974 19.2939H13.3164V20.9729H14.5974V19.2939Z" fill="#DC002D"/>
<path d="M11.332 20.9729V21.6769H12.613V23.7079H12.615C12.712 23.7289 12.813 23.7389 12.915 23.7419C12.932 23.7419 12.947 23.7479 12.964 23.7479C12.985 23.7479 13.004 23.7419 13.025 23.7409C13.122 23.7369 13.218 23.7279 13.311 23.7079C13.313 23.7079 13.315 23.7079 13.317 23.7079V21.6769H14.598V20.9729H13.316V19.2939H12.613V20.9729H11.332Z" fill="#EEEEEE"/>
</svg>
