<svg width="41" height="41" viewBox="0 0 41 41" fill="none" xmlns="http://www.w3.org/2000/svg">
<path d="M34.5 8.5H6.5C4.291 8.5 2.5 10.291 2.5 12.5V20.5H38.5V12.5C38.5 10.291 36.709 8.5 34.5 8.5ZM37.384 15.151L35.067 14.845L36.92 16.274L34.761 15.377L36.183 17.239L34.329 15.812L35.223 17.98L33.8 16.119L34.104 18.445L33.209 16.278L32.903 18.604L32.598 16.278L31.703 18.445L32.007 16.119L30.584 17.98L31.477 15.812L29.623 17.239L31.045 15.377L28.886 16.274L30.739 14.845L28.422 15.151L30.581 14.252L28.264 13.945L30.581 13.638L28.422 12.74L30.739 13.045L28.886 11.616L31.045 12.513L29.623 10.651L31.477 12.079L30.584 9.911L32.007 11.772L31.703 9.446L32.598 11.613L32.903 9.287L33.209 11.613L34.104 9.446L33.8 11.772L35.223 9.911L34.329 12.079L36.183 10.651L34.761 12.513L36.92 11.616L35.067 13.045L37.384 12.74L35.226 13.638L37.542 13.945L35.226 14.252L37.384 15.151Z" fill="#1D80C6"/>
<path d="M2.5 28.5V28.504C2.5 30.711 4.289 32.5 6.495 32.5H34.504C36.711 32.5 38.499 30.711 38.499 28.504V26.5H2.5V28.5Z" fill="#008056"/>
<path d="M38.5 20.5H2.5V26.5H38.5V20.5Z" fill="#F4D400"/>
<path d="M35.2257 13.6381L37.3837 12.7401L35.0667 13.0451L36.9197 11.6161L34.7607 12.5131L36.1827 10.6511L34.3287 12.0791L35.2227 9.91111L33.7997 11.7721L34.1037 9.44611L33.2087 11.6131L32.9027 9.28711L32.5977 11.6131L31.7027 9.44611L32.0067 11.7721L30.5837 9.91111L31.4767 12.0791L29.6227 10.6511L31.0447 12.5131L28.8857 11.6161L30.7387 13.0451L28.4217 12.7401L30.5807 13.6381L28.2637 13.9451L30.5807 14.2521L28.4217 15.1511L30.7387 14.8451L28.8857 16.2741L31.0447 15.3771L29.6227 17.2391L31.4767 15.8121L30.5837 17.9801L32.0067 16.1191L31.7027 18.4451L32.5977 16.2781L32.9027 18.6041L33.2087 16.2781L34.1037 18.4451L33.7997 16.1191L35.2227 17.9801L34.3287 15.8121L36.1827 17.2391L34.7607 15.3771L36.9197 16.2741L35.0667 14.8451L37.3837 15.1511L35.2257 14.2521L37.5417 13.9451L35.2257 13.6381ZM32.9027 15.7241C31.9257 15.7241 31.1317 14.9261 31.1317 13.9451C31.1317 12.9641 31.9267 12.1661 32.9027 12.1661C33.8787 12.1661 34.6747 12.9641 34.6747 13.9451C34.6747 14.9261 33.8797 15.7241 32.9027 15.7241Z" fill="#E7AA00"/>
<path d="M32.9048 12.334C32.0208 12.334 31.3008 13.057 31.3008 13.945C31.3008 14.833 32.0198 15.556 32.9048 15.556C33.7898 15.556 34.5098 14.833 34.5098 13.945C34.5098 13.057 33.7898 12.334 32.9048 12.334Z" fill="#E7AA00"/>
<path d="M32.9038 12.166C31.9268 12.166 31.1328 12.964 31.1328 13.945C31.1328 14.926 31.9278 15.724 32.9038 15.724C33.8798 15.724 34.6758 14.926 34.6758 13.945C34.6758 12.964 33.8808 12.166 32.9038 12.166ZM32.9038 15.556C32.0198 15.556 31.2998 14.833 31.2998 13.945C31.2998 13.057 32.0188 12.334 32.9038 12.334C33.7888 12.334 34.5088 13.057 34.5088 13.945C34.5088 14.833 33.7888 15.556 32.9038 15.556Z" fill="#1D80C6"/>
</svg>
