<svg width="41" height="41" viewBox="0 0 41 41" fill="none" xmlns="http://www.w3.org/2000/svg">
<path d="M22.2052 18.3193C22.2052 18.3193 22.2072 18.3193 22.2072 18.3173L22.2102 18.3143V18.3113C22.2102 18.3113 22.2102 18.3033 22.2082 18.2973L22.1202 18.2463L20.3872 18.2383C20.3662 18.2303 20.3492 18.2223 20.3392 18.2143L20.3372 18.2113L20.3352 18.2093H20.3332C20.3332 18.2093 20.3332 18.2053 20.3332 18.2043H20.3312V18.2013H20.3292V18.1983V18.1953V18.1903V18.1873H20.3312V18.1833C20.3402 18.1723 20.3612 18.1613 20.3872 18.1513C20.8012 18.0953 21.5362 17.9763 21.5852 17.2773C21.5772 16.9133 21.4272 16.6733 20.9752 16.6083C20.6432 16.6333 20.4072 16.9523 20.4452 17.3023C20.4292 17.3963 20.4772 17.5803 20.3802 17.6023C19.7432 17.6603 19.0482 18.0543 19.0252 18.3373H19.0222C19.0222 18.3373 19.0192 18.3393 19.0192 18.3403H19.0152H19.0122H18.9952C18.9542 18.3283 18.9012 18.2603 18.9092 18.1653C18.8862 17.6763 18.7242 17.1243 18.4732 16.6993C18.3832 16.6103 18.3442 16.5743 18.3192 16.5713H18.3062C18.3062 16.5713 18.3012 16.5743 18.2982 16.5753L18.2952 16.5783C18.2742 16.5923 18.2502 16.6253 18.1992 16.6623C18.1122 16.7593 18.0972 16.8273 18.1022 17.0233C18.1072 17.0433 18.2662 17.4833 18.4022 17.7923C18.4932 18.1143 18.5792 18.4823 18.5162 18.8293C18.3022 19.2883 17.8722 19.7003 17.4582 19.9243C17.2462 19.9913 17.0652 19.9683 17.0162 19.9223C16.8942 19.8403 16.8912 19.6963 16.8982 19.6723V19.6703H16.9002C17.2502 19.4283 17.6512 19.2323 17.9632 18.5813C18.0562 18.3333 18.0842 18.1833 17.9922 17.7983C17.9562 17.6553 17.9102 17.5373 17.8112 17.4363C17.8112 17.4363 17.8132 17.4363 17.8132 17.4343C17.8732 17.4063 18.0272 17.5193 18.0512 17.4473C18.0142 17.2633 17.8892 17.0173 17.7462 16.8913C17.6222 16.7793 17.4862 16.7663 17.3722 16.8693C17.2432 16.9403 17.2162 17.1943 17.2772 17.4173C17.3452 17.5843 17.5322 17.6133 17.6642 17.9503V17.9523C17.6672 17.9723 17.7092 18.2043 17.6432 18.2983C17.5892 18.4653 16.8942 19.0063 16.8452 19.0393C16.8452 19.0393 16.8422 19.0413 16.8422 19.0423L16.8402 19.0443L16.8382 19.0473H16.8352V19.0453C16.8352 19.0453 16.8342 19.0413 16.8342 19.0403C16.8322 19.0273 16.8362 18.9923 16.8342 18.9363C16.8292 18.8343 16.8712 18.6053 16.8672 18.5663V18.5643V18.5613H16.8652C16.6362 18.7083 16.5602 19.1573 16.5182 19.2903C15.9372 19.6873 15.2782 19.9843 14.8982 20.3853C14.7002 20.6913 16.2612 20.0333 16.4432 19.9543C16.4452 19.9543 16.4472 19.9573 16.4482 19.9593C16.4822 19.9973 16.4852 20.1273 16.5892 20.2453C16.7512 20.4633 17.0962 20.5973 17.4312 20.5143C17.9942 20.3133 18.3202 19.9333 18.6502 19.5123C18.6972 19.4433 18.7712 19.3913 18.8392 19.4433C19.0662 19.9463 19.7202 20.3033 20.5652 20.3393C20.7612 20.1043 20.6672 19.9883 20.5882 19.9393C20.5642 19.9233 20.1682 19.7703 20.1072 19.6183C20.0682 19.4763 20.1612 19.3513 20.3502 19.2573C20.8932 19.1923 21.4272 19.1193 21.9432 18.9553C21.9482 18.7833 22.0502 18.5263 22.1192 18.4153C22.1672 18.3383 22.1982 18.3293 22.2092 18.3183L22.2052 18.3193ZM20.7772 17.2443C20.7772 17.2443 20.7802 17.2333 20.7832 17.2283C20.7832 17.2283 20.7852 17.2243 20.7862 17.2223H20.7882C20.7882 17.2223 20.7932 17.2153 20.7962 17.2133C20.8072 17.2043 20.8222 17.1983 20.8402 17.1973C20.8782 17.1933 20.9272 17.2063 20.9752 17.2333C21.0442 17.2733 21.0852 17.3323 21.0802 17.3753V17.3803C21.0802 17.3803 21.0802 17.3843 21.0782 17.3853C21.0782 17.3853 21.0782 17.3883 21.0782 17.3893L21.0762 17.3923C21.0762 17.3923 21.0752 17.3953 21.0752 17.3963C21.0722 17.3993 21.0682 17.4033 21.0652 17.4073C21.0322 17.4373 20.9562 17.4333 20.8832 17.3923C20.8152 17.3523 20.7722 17.2933 20.7762 17.2503C20.7762 17.2503 20.7782 17.2463 20.7782 17.2453L20.7772 17.2443ZM20.0852 18.9613C19.9002 19.0243 19.7212 19.0733 19.7202 19.3393C19.7442 19.4713 19.7392 19.5403 19.7182 19.5723C19.7182 19.5753 19.7142 19.5783 19.7122 19.5803C19.7122 19.5803 19.7122 19.5803 19.7122 19.5823H19.7102L19.7092 19.5853H19.7072L19.7042 19.5883C19.7012 19.5903 19.6972 19.5923 19.6942 19.5933C19.6922 19.5933 19.6882 19.5933 19.6882 19.5933C19.6412 19.6003 19.5772 19.5573 19.5292 19.5333C19.4152 19.4513 19.0932 19.2553 19.0472 18.8313C19.0402 18.7373 19.1122 18.6533 19.2292 18.6463C19.2352 18.6463 19.2402 18.6463 19.2462 18.6463H19.2492C19.4422 18.6983 19.7262 18.7023 19.9732 18.7273C20.1742 18.7403 20.2752 18.8963 20.0862 18.9623L20.0852 18.9613Z" fill="#E3E7EA"/>
<path d="M15.3857 19.2025C15.5937 18.5185 15.3827 18.0015 15.4517 17.9375H15.4547C15.4547 17.9375 15.4567 17.9375 15.4577 17.9355H15.4607L15.4677 17.9325C15.7267 18.2055 16.0847 17.9685 16.1637 17.8735C16.1977 17.8265 16.2817 17.7965 16.3417 17.8575C16.5407 17.9995 16.8917 17.9325 16.9647 17.6815C17.0067 17.4375 17.0417 17.1845 17.0507 16.9235C16.9197 16.9635 16.8167 16.9925 16.7737 17.0365C16.7637 17.0465 16.7557 17.0595 16.7547 17.0735C16.7437 17.1465 16.7317 17.2185 16.7217 17.2915C16.7207 17.2975 16.7177 17.3025 16.7147 17.3075C16.7097 17.3165 16.6997 17.3245 16.6907 17.3305C16.6447 17.3545 16.5657 17.3405 16.5607 17.2745C16.4987 16.9965 16.2437 16.9585 16.0887 17.3905C15.9847 17.4745 15.7947 17.4895 15.7757 17.3655C15.8007 17.0755 15.6827 17.0375 15.4467 17.1735C15.3717 16.5995 15.2957 16.0515 15.2197 15.4785C15.3187 15.4755 15.4077 15.5475 15.4977 15.4365C15.3997 15.1365 15.1947 14.5255 15.0787 14.4685H15.0757C15.0707 14.4615 15.0637 14.4555 15.0587 14.4505C15.0567 14.4485 15.0527 14.4465 15.0507 14.4445C15.0487 14.4445 15.0447 14.4415 15.0427 14.4395C15.0377 14.4375 15.0317 14.4355 15.0277 14.4335C15.0167 14.4305 15.0067 14.4285 14.9957 14.4305C14.9667 14.4345 14.9347 14.4505 14.8977 14.4595C14.7737 14.4985 14.6577 14.6035 14.6937 14.8105C14.8397 15.6905 14.9357 16.3615 15.0827 17.2415C15.1047 17.3445 15.0187 17.4815 14.9047 17.4675C14.7137 17.3385 14.6667 17.0795 14.3397 17.0905C14.1037 17.0935 13.8327 17.3475 13.7987 17.5925C13.7597 17.7865 13.7447 17.9985 13.7987 18.1685C13.9647 18.3655 14.1657 18.3465 14.3397 18.3015C14.4827 18.2425 14.6017 18.1015 14.6517 18.1345V18.1365C14.6827 18.1905 14.6477 18.6495 13.9747 19.0025C13.5607 19.1865 13.2317 19.2295 13.0547 18.8955C12.9447 18.6855 13.0637 17.8915 12.7927 18.0755C11.9927 20.1135 14.6647 20.3975 14.9627 18.1585C14.9817 18.0955 15.0417 18.0325 15.0837 18.0485C15.1027 18.0565 15.1177 18.0805 15.1237 18.1255C15.0617 20.1535 13.0577 20.2915 12.7167 19.6535C12.6317 19.5035 12.6077 19.1695 12.5987 18.9685C12.5827 18.8475 12.5517 18.7775 12.5167 18.7495C12.4357 18.6895 12.3267 18.8475 12.3027 19.1205C12.2687 19.3405 12.2787 19.4015 12.2787 19.6135C12.3847 21.2155 14.9657 20.5265 15.3847 19.2035L15.3857 19.2025ZM14.3897 17.8175V17.8195C14.3897 17.8195 14.3897 17.8215 14.3877 17.8225C14.3677 17.8485 14.2977 17.8375 14.2467 17.8375C14.1857 17.8345 14.1567 17.8245 14.1207 17.7745C14.1027 17.7205 14.1547 17.6675 14.1787 17.6265C14.1787 17.6265 14.1787 17.6265 14.1807 17.6265C14.1827 17.6225 14.1867 17.6175 14.1907 17.6145C14.2097 17.5985 14.2417 17.5825 14.2757 17.5775C14.3277 17.5715 14.3867 17.5915 14.4177 17.6655C14.4407 17.7255 14.4177 17.7875 14.3907 17.8185L14.3897 17.8175Z" fill="#E3E7EA"/>
<path d="M11.8131 19.8781C11.6871 20.1311 11.6341 19.9581 11.6241 19.8161C11.6051 19.5471 11.6301 19.3011 11.6591 19.1051C11.6901 18.9051 11.6591 18.9661 11.5941 19.0471C11.3091 19.4961 11.2851 20.1681 11.4421 20.3681C11.5261 20.4631 11.6631 20.5041 11.7641 20.4741C11.9441 20.3971 12.0221 20.0381 11.9791 19.9071C11.9191 19.8141 11.8731 19.8001 11.8131 19.8781Z" fill="#E3E7EA"/>
<path d="M26.7098 25.5091C26.5908 25.5271 26.2568 25.5601 26.2568 25.5601C25.8698 25.5151 25.5858 25.5101 25.1518 25.4931C25.1918 25.4431 25.2618 25.2391 25.1758 25.1651C25.1528 25.1461 25.1188 25.1361 25.0728 25.1401H25.0678V25.1381H25.0618C25.0598 25.1361 25.0568 25.1331 25.0538 25.1301L25.0508 25.1271C25.0298 25.0951 25.0168 25.0181 25.0028 24.9981H25.0008V24.9961H24.9958H24.9918C24.7038 25.0701 24.7128 25.3661 24.8978 25.4961C21.8608 25.4961 17.1998 25.4451 16.2018 25.4451C15.6428 25.4451 13.8738 25.3791 13.8398 25.3791C14.2188 25.9281 14.7688 26.0401 15.4868 26.0501C16.8358 26.0501 23.0858 26.0341 24.8638 26.0341C24.7378 26.2561 24.8758 26.6141 24.9748 26.6791C24.9768 26.6791 24.9798 26.6831 24.9818 26.6841C24.9858 26.6861 24.9908 26.6871 24.9948 26.6881H24.9978C25.1168 26.7161 25.1688 26.6311 25.2088 26.5701C25.3988 26.5861 26.4738 26.6021 26.5728 26.5681H26.5748C26.6408 26.6641 26.7078 26.7561 26.8338 26.7391C27.0558 26.6921 27.2298 26.6681 27.2358 26.2231C27.2358 26.2231 27.2138 25.4651 26.7098 25.5121V25.5091ZM26.4928 26.3221C26.4928 26.3221 26.4868 26.3241 26.4848 26.3251H26.4738C26.3288 26.3211 26.2448 26.3171 26.1008 26.3141C26.1008 26.3061 26.1008 26.3001 26.0978 26.2931C26.0638 26.1931 25.8168 26.1991 25.7578 26.2781C25.7578 26.2801 25.7548 26.2831 25.7548 26.2831C25.7538 26.2851 25.7518 26.2891 25.7518 26.2891C25.7518 26.2911 25.7498 26.2951 25.7488 26.2971C25.7478 26.3001 25.7478 26.3051 25.7478 26.3071C25.7478 26.3111 25.7458 26.3161 25.7458 26.3191C25.5518 26.3421 25.3768 26.3131 25.1818 26.3061C25.1248 26.2361 25.1318 26.1091 25.1988 26.0781C25.1988 26.0781 25.1988 26.0781 25.2008 26.0781C25.6438 26.1001 26.0598 26.0831 26.5028 26.1041C26.5728 26.1631 26.5378 26.2981 26.4918 26.3231L26.4928 26.3221Z" fill="#E3E7EA"/>
<path d="M13.6617 14.8507C13.8617 14.9447 14.2367 14.9047 14.2207 14.5857C14.2207 14.5577 14.2127 14.4617 14.2097 14.4367C14.1697 14.3427 14.0587 14.3657 14.0327 14.4627C14.0247 14.4947 14.0467 14.5457 14.0177 14.5617C14.0007 14.5777 13.9367 14.5687 13.9397 14.4807C13.9397 14.4527 13.9187 14.4227 13.9067 14.4047C13.8937 14.3967 13.8857 14.3937 13.8627 14.3937C13.8357 14.3957 13.8357 14.4027 13.8207 14.4257C13.8137 14.4487 13.8047 14.4717 13.8047 14.4987C13.8007 14.5297 13.7887 14.5407 13.7657 14.5457C13.7407 14.5457 13.7457 14.5487 13.7247 14.5347C13.7117 14.5217 13.6967 14.5157 13.6967 14.4927C13.6967 14.4697 13.6917 14.4307 13.6837 14.4147C13.6727 14.3997 13.6557 14.3937 13.6347 14.3887C13.5257 14.3887 13.5187 14.5127 13.5247 14.5587C13.5167 14.5677 13.5117 14.7887 13.6607 14.8497L13.6617 14.8507Z" fill="#E3E7EA"/>
<path d="M12.0611 14.8377C12.0911 14.9127 12.0311 15.1557 12.0941 15.1777C12.1531 15.2027 12.2341 15.0097 12.2651 14.8317C12.2821 14.7337 12.2681 14.3987 12.0381 14.3307C11.9431 14.3097 11.8111 14.3617 11.8541 14.4817C11.8321 14.5387 12.0271 14.7317 12.0611 14.8377Z" fill="#E3E7EA"/>
<path d="M11.8668 16.9524C12.4488 17.0084 12.1278 15.9774 12.3388 15.7904C12.3788 15.6984 12.4518 15.6974 12.4578 15.8144V16.6884C12.4528 16.9724 12.6408 17.0564 12.7888 17.1144C12.9408 17.1034 13.0438 17.1084 13.1028 17.2554C13.1258 17.7594 13.1508 18.2634 13.1738 18.7674C13.1738 18.7674 13.5278 18.8674 13.5448 17.9174C13.5628 17.3594 13.4328 16.8914 13.5088 16.7834C13.5108 16.6764 13.6488 16.6694 13.7438 16.7214C13.8958 16.8274 13.9648 16.9594 14.2008 16.9064C14.5608 16.8084 14.7768 16.6354 14.7828 16.3614C14.7618 16.1014 14.7318 15.8414 14.6188 15.5804C14.6348 15.5344 14.5488 15.4114 14.5648 15.3634C14.6288 15.4644 14.7278 15.4554 14.7498 15.3634C14.6878 15.1634 14.5938 14.9724 14.4398 14.8894C14.3118 14.7784 14.1258 14.8014 14.0568 15.0334C14.0258 15.3004 14.1548 15.6164 14.3508 15.8744C14.3928 15.9764 14.4518 16.1444 14.4248 16.2944C14.3208 16.3534 14.2158 16.3294 14.1288 16.2374C14.1288 16.2374 13.8418 16.0254 13.8418 15.9774C13.9178 15.4954 13.8598 15.4414 13.8168 15.3074C13.7878 15.1224 13.6988 15.0644 13.6278 14.9384C13.5568 14.8634 13.4588 14.8634 13.4128 14.9384C13.2858 15.1554 13.3458 15.6214 13.4358 15.8304C13.5018 16.0224 13.6028 16.1434 13.5558 16.1434C13.5158 16.2524 13.4348 16.2274 13.3758 16.1014C13.2908 15.8424 13.2738 15.4564 13.2738 15.2824C13.2488 15.0664 13.2198 14.6064 13.0768 14.4894C12.9898 14.3714 12.8598 14.4284 12.8138 14.5364C12.8048 14.7504 12.8038 14.9644 12.8288 15.1614C12.9278 15.5084 12.9578 15.8124 13.0058 16.1674C13.0198 16.6414 12.7288 16.3734 12.7418 16.1374C12.8078 15.8324 12.7908 15.3514 12.7308 15.2284C12.6838 15.1064 12.6288 15.0764 12.5128 15.0974C12.4218 15.0914 12.1868 15.3444 12.1208 15.7654C12.1208 15.7654 12.0638 15.9824 12.0408 16.1744C12.0088 16.3924 11.8638 16.5444 11.7628 16.1434C11.6748 15.8514 11.6208 15.1354 11.4748 15.3034C11.4328 15.8634 11.3818 16.8504 11.8648 16.9514L11.8668 16.9524Z" fill="#E3E7EA"/>
<path d="M11.543 18.3243C12.049 18.0843 12.546 17.8523 13.059 17.6043C12.976 17.4813 13.054 17.3703 12.743 17.3613C12.264 17.3703 11.562 17.9843 11.543 18.3243Z" fill="#E3E7EA"/>
<path d="M23.751 19.183C23.876 19.124 23.849 18.425 23.775 18.327C23.5 17.741 23.118 17.16 22.997 16.938C22.953 16.857 22.804 16.633 22.627 16.373C22.654 16.675 22.678 17.011 22.695 17.309C23.056 17.892 23.407 18.504 23.751 19.183Z" fill="#E3E7EA"/>
<path d="M21.2002 15.1283C21.5352 15.5743 21.8532 16.0263 22.1642 16.4903C22.1162 16.1533 22.0502 15.8043 21.9742 15.4493C21.9052 15.3553 21.8472 15.2793 21.8222 15.2513C21.6562 15.0553 21.8242 15.1213 21.9052 15.0983C21.8892 15.0273 21.8742 14.9563 21.8612 14.8833C21.8272 14.8333 21.7862 14.7783 21.7232 14.7033C21.5012 14.5153 21.4892 14.5033 21.3042 14.3493C21.2112 14.2833 20.9842 14.1643 20.9442 14.3613C20.9232 14.5363 20.9352 14.6313 20.9652 14.7763C20.9872 14.8733 21.1302 15.0343 21.2002 15.1283Z" fill="#E3E7EA"/>
<path d="M23.8523 19.3637C23.5313 19.6947 23.0683 20.1027 22.5643 20.2907C22.5093 20.3507 22.6983 20.6087 22.9423 20.6077C23.3513 20.5617 23.7103 20.3347 24.0433 19.7367C24.1323 19.5977 24.2893 19.2987 24.2933 19.0687C24.3243 17.7127 24.2253 16.6577 24.0203 15.6777C24.0063 15.5817 24.0153 15.4697 24.0313 15.4407C24.0573 15.4097 24.1473 15.4407 24.1953 15.3637C24.2643 15.2927 24.0093 14.7087 23.8643 14.4837C23.8123 14.3827 23.7953 14.3167 23.7093 14.4957C23.6193 14.6417 23.5593 14.8957 23.5653 15.1337C23.7603 16.4687 23.8203 17.6367 23.9483 18.9717C23.9583 19.1007 23.9393 19.2887 23.8523 19.3637Z" fill="#E3E7EA"/>
<path d="M29.1896 15.3198C29.2156 15.2528 29.3486 15.3278 29.3966 15.2498C29.4666 15.1798 29.0516 14.6518 28.9066 14.4268C28.8546 14.3268 28.8376 14.2598 28.7516 14.4388C28.6616 14.5838 28.6306 14.8458 28.6666 15.0768C28.8826 16.5268 29.0446 17.9298 29.0776 19.2138C29.0586 19.3368 29.0546 19.4018 28.9966 19.5558C28.8686 19.7178 28.7276 19.9208 28.5946 20.0188C28.4616 20.1158 28.1776 20.2098 28.0856 20.2828C27.7916 20.4508 27.7916 20.6438 28.0286 20.6508C28.4366 20.6038 28.9196 20.5708 29.2526 20.0728C29.3416 19.9328 29.4466 19.5558 29.4516 19.3248C29.4826 17.9688 29.4336 16.6418 29.2276 15.6628C29.2146 15.5668 29.1716 15.3478 29.1886 15.3188L29.1896 15.3198Z" fill="#E3E7EA"/>
<path d="M27.8739 19.5809C27.8589 19.7039 28.3069 19.2159 28.3039 18.9839C28.3019 18.7819 28.3029 18.6019 28.3019 18.4309C28.1379 18.1719 27.9679 17.9219 27.7969 17.6709C27.8589 18.3219 27.8939 18.9659 27.8739 19.5809Z" fill="#E3E7EA"/>
<path d="M28.2526 17.6198C28.2116 17.2568 28.1556 16.8238 28.1306 16.6928C28.0906 16.4878 28.0526 16.1808 27.9926 15.9378C27.9756 15.8428 27.9266 15.5388 27.9416 15.5098C27.9656 15.4408 28.0576 15.5118 28.1026 15.4328C28.1696 15.3608 27.8696 14.5898 27.7156 14.3698C27.6606 14.2698 27.5606 14.3038 27.4386 14.4658C27.3246 14.5708 27.3666 14.8118 27.4106 15.0418C27.5226 15.6228 27.6176 16.2128 27.6976 16.8028C27.8386 17.0098 27.9496 17.1758 27.9846 17.2348C28.0316 17.3138 28.1346 17.4578 28.2516 17.6218L28.2526 17.6198Z" fill="#E3E7EA"/>
<path d="M26.1379 17.1071C26.1409 16.9201 26.1599 16.6741 26.1699 16.5211C26.1739 16.4631 26.1879 16.3991 26.2439 16.3841C26.2999 16.3691 26.3979 16.4411 26.3999 16.3801C26.3889 16.2621 26.3649 16.0871 26.2979 16.0041C26.2049 15.8701 25.9599 15.9021 25.9179 16.1141C25.9179 16.1921 25.9549 16.2351 25.9479 16.3051C25.9369 16.3461 25.8939 16.3731 25.7939 16.3251C25.8099 16.3111 25.7289 16.1991 25.7289 16.1991C25.6509 16.1521 25.5449 16.2011 25.4769 16.2441C25.4399 16.3121 25.4129 16.4271 25.4549 16.5451C25.5679 16.7511 25.9539 17.1031 26.1379 17.1071Z" fill="#E3E7EA"/>
<path d="M22.276 17.4972C22.326 18.2302 22.341 19.1432 22.295 19.9162C22.434 19.9222 22.657 19.6942 22.735 19.3612C22.786 18.9002 22.717 17.9602 22.712 17.6882C22.709 17.5782 22.702 17.4472 22.695 17.3112C22.522 17.0312 22.345 16.7582 22.166 16.4912C22.214 16.8312 22.253 17.1652 22.276 17.4972Z" fill="#E3E7EA"/>
<path d="M21.9059 15.097C21.9149 15.136 21.9239 15.174 21.9299 15.213C21.9489 15.294 21.9579 15.368 21.9749 15.448C22.1429 15.677 22.4039 16.048 22.6259 16.373C22.5929 16.004 22.5589 15.692 22.5359 15.597C22.4779 15.207 22.6979 15.639 22.6679 15.412C22.5969 15.023 22.3779 14.758 22.1209 14.401C22.0379 14.285 22.0409 14.261 21.9129 14.43C21.8359 14.604 21.8389 14.747 21.8619 14.882C21.9669 15.035 21.9539 15.083 21.9059 15.097Z" fill="#E3E7EA"/>
<path d="M21.8613 14.8818C21.8733 14.9548 21.8893 15.0258 21.9053 15.0968C21.9533 15.0828 21.9663 15.0348 21.8613 14.8818Z" fill="#E3E7EA"/>
<path d="M22.1646 16.4902C22.3436 16.7572 22.5206 17.0302 22.6936 17.3102C22.6766 17.0122 22.6526 16.6762 22.6256 16.3742C22.4036 16.0492 22.1426 15.6782 21.9746 15.4492C22.0506 15.8042 22.1166 16.1532 22.1646 16.4902Z" fill="#E3E7EA"/>
<path d="M28.302 18.4321C28.518 18.7731 28.729 19.1191 28.927 19.4711C29.05 19.4071 29.009 18.7191 28.931 18.6231C28.724 18.2791 28.458 17.9091 28.252 17.6211C28.275 17.8261 28.293 18.0091 28.297 18.1001C28.302 18.2031 28.302 18.3161 28.302 18.4321Z" fill="#E3E7EA"/>
<path d="M27.3763 17.0631C27.5193 17.2621 27.6573 17.4661 27.7973 17.6711C27.7703 17.3821 27.7363 17.0921 27.6973 16.8011C27.5503 16.5851 27.3723 16.3271 27.1973 16.0781C27.2473 16.3291 27.3673 16.9221 27.3733 16.9671C27.3733 16.9961 27.3753 17.0321 27.3763 17.0631Z" fill="#E3E7EA"/>
<path d="M26.0085 15.2795C26.2795 15.6085 26.5565 15.9615 26.8345 16.3265C26.8345 16.3175 26.8345 16.3095 26.8325 16.3015C26.7745 15.9775 26.7155 15.6545 26.6575 15.3315C26.6385 15.3075 26.6135 15.2755 26.6035 15.2655C26.1985 14.8445 26.7895 15.1965 26.5265 14.8715C26.3025 14.6305 26.2385 14.5535 26.0475 14.4075C25.9515 14.3465 25.8945 14.2295 25.8625 14.4285C25.8495 14.6035 25.8365 14.8065 25.8485 14.9535C25.8485 15.0355 25.9345 15.1895 26.0085 15.2795Z" fill="#E3E7EA"/>
<path d="M28.3013 18.4318C28.3013 18.3158 28.3013 18.2018 28.2963 18.0998C28.2923 18.0088 28.2743 17.8258 28.2513 17.6208C28.1343 17.4568 28.0313 17.3128 27.9843 17.2338C27.9483 17.1748 27.8383 17.0088 27.6973 16.8018C27.7363 17.0938 27.7703 17.3828 27.7973 17.6718C27.9683 17.9228 28.1373 18.1728 28.3013 18.4318Z" fill="#E3E7EA"/>
<path d="M17.8012 16.5055C18.0332 16.6005 18.1822 16.1625 18.2772 15.6815C18.3422 15.5475 18.3912 15.5325 18.4242 15.6025C18.4162 16.2415 18.4712 16.3825 18.6372 16.5765C19.0072 16.8585 19.3142 16.6125 19.3372 16.5895C19.3612 16.5655 19.6262 16.3035 19.6262 16.3035C19.6892 16.2365 19.7752 16.2335 19.8662 16.2925C19.9542 16.3715 19.9412 16.5085 20.1302 16.6035C20.2892 16.6665 20.6282 16.6175 20.7072 16.4825C20.8122 16.3025 20.8382 16.2415 20.8872 16.1735C20.9632 16.0745 21.0912 16.1185 21.0912 16.1505C21.0792 16.2055 21.0042 16.2605 21.0552 16.3615C21.1452 16.4285 21.1662 16.3845 21.2192 16.3705C21.4072 16.2815 21.5482 15.8775 21.5482 15.8775C21.5562 15.7265 21.4712 15.7395 21.4152 15.7705C21.3442 15.8135 21.3392 15.8275 21.2672 15.8725C21.1752 15.8855 20.9972 15.9455 20.9092 15.8105C20.8192 15.6485 20.8182 15.4225 20.7502 15.2585C20.7502 15.2465 20.6302 15.0005 20.7412 14.9855C20.7972 14.9955 20.9172 15.0275 20.9352 14.9275C20.9952 14.8295 20.8092 14.5545 20.6832 14.4165C20.5742 14.2965 20.4212 14.2825 20.2752 14.4035C20.1722 14.4975 20.1872 14.6015 20.1672 14.7015C20.1412 14.8155 20.1462 14.9545 20.2642 15.1055C20.3672 15.3055 20.5532 15.5635 20.4922 15.9255C20.4922 15.9255 20.3832 16.0965 20.1922 16.0745C20.1132 16.0565 19.9842 16.0245 19.9162 15.5215C19.8642 15.1415 19.9282 14.6085 19.7652 14.3595C19.7062 14.2085 19.6632 14.0635 19.5202 14.3205C19.4812 14.4225 19.3162 14.5755 19.4362 14.8915C19.5342 15.0915 19.5742 15.4175 19.5302 15.7795C19.4622 15.8825 19.4462 15.9175 19.3572 16.0205C19.2322 16.1535 19.0952 16.1195 18.9922 16.0695C18.8942 16.0045 18.8182 15.9705 18.7732 15.7655C18.7812 15.4355 18.7992 14.8975 18.7392 14.7845C18.6502 14.6075 18.5022 14.6715 18.4392 14.7245C18.1352 14.9985 17.9862 15.4615 17.8942 15.8295C17.8102 16.0985 17.7202 16.0215 17.6582 15.9135C17.5052 15.7715 17.4952 14.6615 17.3092 14.8435C17.0132 15.6805 17.4792 16.5965 17.8022 16.5075L17.8012 16.5055Z" fill="#E3E7EA"/>
<path d="M19.7893 16.9313C19.7893 16.9033 19.7683 16.8733 19.7563 16.8553C19.7433 16.8473 19.7353 16.8443 19.7123 16.8443C19.6853 16.8443 19.6853 16.8533 19.6703 16.8763C19.6633 16.8993 19.6543 16.9223 19.6543 16.9493C19.6503 16.9803 19.6383 16.9923 19.6153 16.9953C19.5903 16.9953 19.5953 16.9983 19.5743 16.9853C19.5613 16.9723 19.5463 16.9663 19.5463 16.9433C19.5463 16.9203 19.5413 16.8803 19.5333 16.8653C19.5223 16.8513 19.5053 16.8443 19.4843 16.8393C19.3753 16.8393 19.3683 16.9633 19.3743 17.0093C19.3663 17.0183 19.3613 17.2383 19.5103 17.3003C19.7103 17.3943 20.1853 17.3403 20.0703 17.0353C20.0703 17.0073 20.0623 16.9113 20.0593 16.8863C20.0193 16.7923 19.9083 16.8143 19.8823 16.9123C19.8743 16.9443 19.8973 16.9953 19.8673 17.0123C19.8503 17.0283 19.7863 17.0193 19.7893 16.9313Z" fill="#E3E7EA"/>
<path d="M22.9219 16.2863C23.1209 16.3813 23.4959 16.3403 23.4799 16.0223C23.4799 15.9933 23.4729 15.8983 23.4699 15.8723C23.4289 15.7783 23.3179 15.8013 23.2929 15.8983C23.2849 15.9303 23.3069 15.9823 23.2769 15.9983C23.2599 16.0143 23.1969 16.0053 23.1999 15.9173C23.1999 15.8893 23.1789 15.8593 23.1659 15.8423C23.1539 15.8333 23.1449 15.8313 23.1229 15.8313C23.0949 15.8313 23.0959 15.8393 23.0799 15.8623C23.0739 15.8863 23.0639 15.9093 23.0639 15.9353C23.0609 15.9673 23.0489 15.9773 23.0259 15.9823C22.9999 15.9823 23.0049 15.9853 22.9849 15.9713C22.9719 15.9583 22.9569 15.9533 22.9569 15.9293C22.9569 15.9053 22.9509 15.8663 22.9439 15.8503C22.9319 15.8363 22.9149 15.8293 22.8949 15.8243C22.7859 15.8243 22.7779 15.9483 22.7849 15.9943C22.7759 16.0043 22.7719 16.2243 22.9209 16.2853L22.9219 16.2863Z" fill="#E3E7EA"/>
<path d="M26.9657 18.4972C26.9567 18.8162 26.8577 19.2402 26.7627 19.2792C26.7627 19.2792 26.6197 19.3612 26.5247 19.2702C26.4547 19.2432 26.1757 18.8102 26.1757 18.8102C26.0327 18.6802 25.9387 18.7172 25.8367 18.8102C25.5567 19.0782 25.4307 19.5782 25.2397 19.9242C25.1897 20.0002 25.0517 20.0672 24.8977 19.9182C24.5067 19.3912 24.7357 18.6392 24.6867 18.8322C24.3387 19.2192 24.4927 19.8612 24.5717 20.0002C24.6857 20.2262 24.7787 20.3722 25.0017 20.4842C25.2047 20.6332 25.3627 20.5402 25.4507 20.4362C25.6547 20.2262 25.6577 19.6912 25.7537 19.5852C25.8207 19.3912 25.9907 19.4242 26.0727 19.5112C26.1527 19.6242 26.2467 19.6982 26.3637 19.7592C26.5537 19.9252 26.7817 19.9552 27.0057 19.8032C27.1587 19.7182 27.2597 19.6082 27.3487 19.3912C27.4447 19.1372 27.3977 17.8082 27.3757 17.0632C27.1957 16.8122 27.0137 16.5642 26.8327 16.3262C26.8907 17.0692 26.9067 17.7522 26.9657 18.4972Z" fill="#E3E7EA"/>
<path d="M27.1742 15.9622C27.1742 15.9522 27.1502 15.4842 27.1282 15.3722C27.1242 15.3282 27.1132 15.3142 27.1612 15.3202C27.2122 15.3622 27.2192 15.3652 27.2502 15.3792C27.3022 15.3892 27.3482 15.3022 27.3162 15.2232C27.1582 14.9332 26.9992 14.6432 26.8402 14.3542C26.8022 14.3162 26.7522 14.2762 26.6922 14.3652C26.6342 14.4152 26.5732 14.5062 26.5742 14.6232C26.5892 14.8292 26.6252 15.0392 26.6392 15.2442L26.6552 15.3302C26.7562 15.4562 26.9652 15.7472 27.1962 16.0782C27.1832 16.0132 27.1742 15.9652 27.1742 15.9632V15.9622Z" fill="#E3E7EA"/>
<path d="M26.8333 16.3261C27.0153 16.5651 27.1962 16.8121 27.3762 17.0631C27.3762 17.0321 27.3742 16.9961 27.3732 16.9671C27.3672 16.9221 27.2473 16.3291 27.1973 16.0781C26.9663 15.7481 26.7573 15.4571 26.6562 15.3301C26.7142 15.6531 26.7732 15.9771 26.8312 16.3001C26.8312 16.3081 26.8313 16.3161 26.8333 16.3251V16.3261Z" fill="#E3E7EA"/>
<path d="M23.0551 15.0523C23.1261 15.2493 23.0011 15.4373 23.0761 15.4653C23.1441 15.4953 23.2391 15.2613 23.2751 15.0453C23.3161 14.8703 23.1901 14.5123 23.0111 14.4383C22.9011 14.4123 22.7461 14.4763 22.7971 14.6203C22.7721 14.6893 23.0161 14.9233 23.0551 15.0523Z" fill="#E3E7EA"/>
<path d="M24.8955 19.6725C25.0345 19.6725 25.1955 19.3575 25.2635 19.0455C25.3005 18.6155 25.2375 18.3525 25.2265 18.0995C25.2145 17.8475 24.9375 15.7965 24.8805 15.6055C24.8125 15.2435 25.1505 15.5575 25.1135 15.3465C24.9965 15.0805 24.7055 14.6945 24.6135 14.4645C24.5585 14.3655 24.5825 14.2775 24.4585 14.4385C24.3455 14.8075 24.3055 15.1085 24.3495 15.3385C24.6425 16.8525 24.9435 18.2315 24.8955 19.6725Z" fill="#E3E7EA"/>
<path d="M28.3583 15.6174C28.3903 15.7164 28.3093 16.0344 28.3773 16.0634C28.4393 16.0964 28.5253 15.8434 28.5593 15.6084C28.5773 15.4804 28.4813 15.0314 28.3183 14.9514C28.2183 14.9234 28.0783 14.9924 28.1243 15.1484C28.1013 15.2234 28.3233 15.4774 28.3593 15.6174H28.3583Z" fill="#E3E7EA"/>
<path d="M16.2637 19.0486C16.3227 19.0726 16.4057 18.8866 16.4367 18.7146C16.4547 18.6196 16.3627 18.2906 16.2067 18.2316C16.1107 18.2116 15.9797 18.2366 16.0217 18.3766C16.0167 18.4526 16.2337 18.5446 16.2467 18.7206C16.2777 18.7936 16.1997 19.0266 16.2647 19.0496L16.2637 19.0486Z" fill="#E3E7EA"/>
<path d="M16.5808 15.9084C16.4038 16.0024 16.3358 16.2844 16.4458 16.4484C16.5488 16.5924 16.7108 16.5394 16.7318 16.5394C16.9048 16.5604 17.0068 16.2184 17.0068 16.2184C17.0068 16.2184 17.0128 16.1224 16.8068 16.3034C16.7208 16.3194 16.7098 16.2874 16.6888 16.2394C16.6698 16.1504 16.6738 16.0604 16.7148 15.9714C16.7458 15.8864 16.6788 15.8484 16.5798 15.9074L16.5808 15.9084Z" fill="#E3E7EA"/>
<path d="M17.9104 14.856C17.9754 14.809 17.9974 14.777 18.0194 14.697C18.0464 14.564 17.8764 14.761 17.8554 14.612C17.8174 14.474 17.9264 14.418 18.0294 14.284C18.0324 14.193 18.0294 14.128 17.9044 14.202C17.8154 14.261 17.6384 14.442 17.6344 14.65C17.6284 14.768 17.6064 14.768 17.6844 14.842C17.7414 14.922 17.7974 14.915 17.9114 14.856H17.9104Z" fill="#E3E7EA"/>
<path d="M19.1084 14.9284C19.2224 14.6214 19.2224 14.4914 19.2304 14.3614C19.1954 14.1634 19.0594 14.1704 18.9704 14.3894C18.9324 14.4734 18.8864 14.9104 18.8944 14.9104C18.8634 15.0394 19.0324 15.0954 19.1084 14.9284Z" fill="#E3E7EA"/>
<path d="M26.6414 17.1017C26.6414 17.1017 25.7164 17.7517 25.6934 17.7737C25.6014 17.8547 25.6484 18.1397 25.6934 18.1067C25.7594 18.1317 26.6894 17.5067 26.6714 17.4337C26.7144 17.4367 26.7344 17.0687 26.6414 17.1017Z" fill="#E3E7EA"/>
<path d="M26.5275 18.865C26.5895 18.898 26.7535 18.698 26.7475 18.449C26.7655 18.32 26.7005 17.849 26.5375 17.769C26.4375 17.741 26.3045 17.825 26.3515 17.981C26.3285 18.056 26.4655 18.317 26.5015 18.456C26.5345 18.556 26.4605 18.836 26.5275 18.865Z" fill="#E3E7EA"/>
<path d="M21.2909 20.2313C21.2909 20.2393 21.3689 20.3053 21.4609 20.2523C21.6539 20.1793 21.7759 20.1073 22.0469 20.0493C22.1179 20.0473 22.1139 19.8593 22.0019 19.8523C21.8549 19.8603 21.7189 19.8673 21.5719 19.9813C21.4809 20.0013 21.4669 19.9473 21.4469 19.8993C21.4239 19.7773 21.4969 19.6933 21.4809 19.6023C21.4869 19.6083 21.3969 19.5273 21.3049 19.5723C21.3009 19.5723 21.1019 19.7053 21.0379 19.7993C20.9979 19.8283 21.0019 19.8533 21.0149 19.9043C21.0449 19.9743 21.0989 19.9523 21.1609 19.9203C21.2419 19.9093 21.2809 19.9623 21.2739 20.0583C21.2369 20.1783 21.2909 20.2223 21.2909 20.2303V20.2313Z" fill="#E3E7EA"/>
<path d="M27.9866 20.184C27.9486 20.142 27.8636 20.167 27.8056 20.16C27.7786 20.16 27.6896 20.147 27.7326 20.068C27.7676 20.02 27.7806 19.99 27.8046 19.93C27.8306 19.871 27.8086 19.832 27.7106 19.8C27.6106 19.783 27.5716 19.791 27.4616 19.8C27.4026 19.812 27.3826 19.839 27.3716 19.91C27.3756 20.018 27.4416 20.012 27.5106 20.055C27.5506 20.104 27.5756 20.151 27.5076 20.233C27.4436 20.292 27.3976 20.324 27.3316 20.383C27.3016 20.435 27.2816 20.513 27.3756 20.539C27.5486 20.586 27.9476 20.331 27.9476 20.325C28.0126 20.277 27.9916 20.186 27.9856 20.186L27.9866 20.184Z" fill="#E3E7EA"/>
<path d="M34.5 8.5H6.5C4.291 8.5 2.5 10.291 2.5 12.5V28.5C2.5 30.709 4.291 32.5 6.5 32.5H34.5C36.709 32.5 38.5 30.709 38.5 28.5V12.5C38.5 10.291 36.709 8.5 34.5 8.5ZM28.318 14.951C28.481 15.031 28.577 15.479 28.559 15.608C28.526 15.843 28.44 16.096 28.377 16.063C28.31 16.033 28.391 15.715 28.358 15.617C28.322 15.478 28.099 15.224 28.123 15.148C28.077 14.992 28.218 14.923 28.317 14.951H28.318ZM25.862 14.427C25.893 14.228 25.951 14.345 26.047 14.406C26.238 14.552 26.303 14.628 26.526 14.87C26.79 15.196 26.198 14.843 26.603 15.264C26.613 15.274 26.638 15.306 26.657 15.33L26.641 15.244C26.626 15.038 26.59 14.828 26.576 14.623C26.576 14.506 26.637 14.415 26.694 14.365C26.755 14.276 26.804 14.317 26.842 14.354C27 14.643 27.159 14.933 27.318 15.223C27.349 15.302 27.303 15.389 27.252 15.379C27.221 15.366 27.214 15.363 27.163 15.32C27.115 15.314 27.126 15.328 27.13 15.372C27.152 15.484 27.176 15.952 27.176 15.962C27.176 15.964 27.185 16.012 27.198 16.077C27.372 16.326 27.551 16.585 27.698 16.8C27.618 16.21 27.524 15.619 27.411 15.039C27.367 14.809 27.325 14.569 27.439 14.463C27.561 14.302 27.662 14.268 27.716 14.367C27.869 14.587 28.17 15.358 28.103 15.43C28.058 15.509 27.966 15.439 27.942 15.507C27.926 15.536 27.976 15.84 27.993 15.935C28.053 16.178 28.091 16.486 28.131 16.69C28.156 16.821 28.212 17.254 28.253 17.617C28.459 17.905 28.725 18.275 28.932 18.619C29.01 18.715 29.051 19.403 28.928 19.467C28.73 19.116 28.519 18.77 28.303 18.428C28.303 18.598 28.303 18.779 28.305 18.981C28.308 19.213 27.861 19.701 27.875 19.578C27.895 18.963 27.86 18.319 27.798 17.668C27.658 17.462 27.52 17.259 27.377 17.06C27.399 17.806 27.446 19.134 27.35 19.388C27.261 19.605 27.161 19.715 27.007 19.8C26.782 19.952 26.555 19.922 26.365 19.756C26.248 19.694 26.154 19.621 26.074 19.508C25.992 19.421 25.822 19.388 25.755 19.582C25.659 19.688 25.656 20.223 25.452 20.433C25.364 20.537 25.206 20.63 25.003 20.481C24.78 20.369 24.688 20.223 24.573 19.997C24.494 19.858 24.341 19.216 24.688 18.829C24.737 18.636 24.508 19.388 24.899 19.915C25.052 20.064 25.191 19.997 25.241 19.921C25.431 19.575 25.557 19.075 25.838 18.807C25.94 18.714 26.034 18.677 26.177 18.807C26.177 18.807 26.456 19.24 26.526 19.267C26.622 19.358 26.764 19.276 26.764 19.276C26.859 19.236 26.958 18.812 26.967 18.494C26.908 17.749 26.892 17.067 26.834 16.323C26.556 15.958 26.279 15.605 26.008 15.276C25.934 15.185 25.848 15.032 25.849 14.95C25.836 14.803 25.85 14.6 25.863 14.425L25.862 14.427ZM26.502 18.456C26.466 18.317 26.328 18.056 26.352 17.981C26.305 17.825 26.439 17.741 26.538 17.769C26.701 17.849 26.766 18.321 26.748 18.449C26.754 18.698 26.591 18.898 26.528 18.865C26.461 18.836 26.535 18.556 26.502 18.456ZM26.673 17.433C26.691 17.506 25.761 18.131 25.695 18.106C25.65 18.139 25.603 17.854 25.695 17.773C25.718 17.751 26.643 17.101 26.643 17.101C26.737 17.068 26.716 17.436 26.673 17.433ZM25.477 16.244C25.545 16.201 25.651 16.151 25.729 16.199C25.729 16.199 25.81 16.311 25.794 16.325C25.895 16.372 25.938 16.346 25.948 16.305C25.955 16.234 25.918 16.192 25.918 16.114C25.96 15.902 26.205 15.87 26.298 16.004C26.365 16.087 26.39 16.262 26.4 16.38C26.398 16.441 26.299 16.369 26.244 16.384C26.187 16.399 26.174 16.463 26.17 16.521C26.159 16.675 26.141 16.921 26.138 17.107C25.954 17.103 25.568 16.751 25.455 16.545C25.413 16.426 25.44 16.311 25.477 16.244ZM24.46 14.438C24.584 14.278 24.561 14.365 24.615 14.464C24.707 14.694 24.998 15.08 25.115 15.346C25.152 15.557 24.813 15.243 24.882 15.605C24.939 15.796 25.216 17.847 25.228 18.099C25.239 18.352 25.302 18.615 25.265 19.045C25.197 19.357 25.036 19.673 24.897 19.672C24.945 18.232 24.644 16.852 24.351 15.338C24.307 15.108 24.347 14.807 24.46 14.438ZM23.71 14.496C23.796 14.316 23.814 14.383 23.865 14.484C24.01 14.709 24.265 15.293 24.196 15.364C24.148 15.441 24.058 15.41 24.032 15.441C24.016 15.47 24.008 15.582 24.021 15.678C24.226 16.657 24.326 17.712 24.294 19.069C24.29 19.3 24.133 19.598 24.044 19.737C23.711 20.335 23.352 20.562 22.943 20.608C22.699 20.608 22.51 20.351 22.565 20.291C23.069 20.103 23.532 19.695 23.853 19.364C23.94 19.289 23.958 19.101 23.949 18.972C23.821 17.637 23.762 16.469 23.566 15.134C23.559 14.896 23.62 14.642 23.71 14.496ZM23.012 14.438C23.191 14.511 23.317 14.87 23.276 15.045C23.24 15.261 23.145 15.495 23.077 15.465C23.003 15.437 23.128 15.249 23.056 15.052C23.017 14.924 22.773 14.689 22.798 14.62C22.747 14.475 22.901 14.412 23.012 14.438ZM22.787 15.995C22.78 15.949 22.787 15.826 22.897 15.825C22.916 15.831 22.934 15.837 22.946 15.851C22.953 15.867 22.959 15.906 22.959 15.93C22.959 15.953 22.975 15.958 22.987 15.972C23.007 15.986 23.002 15.983 23.028 15.983C23.051 15.978 23.063 15.967 23.066 15.936C23.066 15.91 23.076 15.887 23.082 15.863C23.098 15.84 23.097 15.833 23.125 15.832C23.147 15.832 23.156 15.834 23.168 15.843C23.181 15.86 23.202 15.89 23.202 15.918C23.199 16.006 23.262 16.016 23.279 15.999C23.308 15.984 23.287 15.931 23.295 15.899C23.319 15.803 23.431 15.779 23.472 15.873C23.475 15.899 23.482 15.994 23.482 16.023C23.498 16.341 23.123 16.381 22.924 16.287C22.776 16.226 22.78 16.006 22.788 15.996L22.787 15.995ZM20.946 14.36C20.986 14.163 21.214 14.282 21.306 14.348C21.491 14.502 21.503 14.513 21.725 14.702C21.788 14.777 21.829 14.833 21.863 14.882C21.84 14.747 21.837 14.604 21.914 14.43C22.042 14.261 22.039 14.285 22.122 14.401C22.379 14.758 22.598 15.023 22.669 15.412C22.699 15.639 22.48 15.206 22.537 15.597C22.56 15.691 22.594 16.004 22.627 16.373C22.804 16.633 22.953 16.857 22.997 16.938C23.118 17.16 23.5 17.741 23.775 18.327C23.848 18.425 23.876 19.124 23.751 19.183C23.407 18.504 23.056 17.893 22.695 17.309C22.703 17.446 22.709 17.577 22.712 17.686C22.717 17.958 22.786 18.898 22.735 19.359C22.657 19.692 22.433 19.92 22.295 19.914C22.341 19.141 22.325 18.228 22.276 17.495C22.253 17.163 22.214 16.828 22.166 16.488C21.855 16.025 21.537 15.572 21.202 15.126C21.132 15.032 20.989 14.87 20.967 14.773C20.938 14.628 20.926 14.533 20.946 14.358V14.36ZM21.162 19.921C21.1 19.954 21.047 19.975 21.016 19.905C21.003 19.854 20.999 19.829 21.039 19.8C21.102 19.706 21.302 19.573 21.306 19.573C21.398 19.528 21.488 19.609 21.482 19.603C21.498 19.694 21.424 19.778 21.448 19.9C21.468 19.948 21.482 20.002 21.573 19.982C21.719 19.868 21.855 19.86 22.003 19.853C22.115 19.86 22.119 20.048 22.048 20.05C21.778 20.108 21.656 20.18 21.462 20.253C21.37 20.306 21.292 20.24 21.292 20.232C21.292 20.224 21.238 20.18 21.275 20.06C21.282 19.963 21.243 19.911 21.162 19.922V19.921ZM21.941 18.955C21.425 19.119 20.89 19.193 20.348 19.257C20.159 19.352 20.066 19.476 20.105 19.618C20.167 19.77 20.562 19.922 20.586 19.939C20.665 19.988 20.759 20.104 20.563 20.339C19.717 20.302 19.063 19.946 18.837 19.443C18.769 19.391 18.694 19.443 18.648 19.512C18.318 19.933 17.993 20.313 17.429 20.514C17.094 20.597 16.749 20.463 16.587 20.245C16.483 20.127 16.481 19.997 16.446 19.959C16.446 19.957 16.443 19.955 16.441 19.954C16.259 20.033 14.698 20.691 14.896 20.385C15.276 19.983 15.935 19.687 16.516 19.29C16.558 19.157 16.633 18.707 16.863 18.561H16.865V18.563V18.566C16.869 18.606 16.827 18.835 16.832 18.936C16.834 18.992 16.83 19.027 16.832 19.04C16.832 19.04 16.833 19.043 16.833 19.044C16.833 19.044 16.833 19.046 16.833 19.047H16.836L16.838 19.045L16.84 19.042C16.84 19.042 16.842 19.039 16.843 19.039C16.892 19.006 17.587 18.465 17.641 18.298C17.707 18.204 17.665 17.973 17.662 17.952V17.95C17.53 17.613 17.344 17.584 17.275 17.417C17.213 17.194 17.241 16.94 17.37 16.869C17.484 16.766 17.62 16.779 17.744 16.891C17.887 17.018 18.012 17.264 18.049 17.447C18.025 17.519 17.87 17.405 17.811 17.434L17.809 17.436C17.908 17.537 17.954 17.655 17.99 17.798C18.082 18.183 18.053 18.333 17.961 18.581C17.649 19.232 17.247 19.427 16.898 19.669H16.896V19.672C16.889 19.696 16.892 19.84 17.014 19.921C17.063 19.968 17.244 19.991 17.456 19.924C17.87 19.7 18.301 19.288 18.514 18.829C18.576 18.481 18.491 18.113 18.4 17.792C18.264 17.483 18.105 17.043 18.1 17.023C18.095 16.827 18.11 16.759 18.197 16.662C18.248 16.625 18.272 16.592 18.293 16.578L18.296 16.575C18.296 16.575 18.302 16.572 18.304 16.571H18.317C18.342 16.575 18.381 16.611 18.471 16.699C18.723 17.124 18.884 17.677 18.907 18.165C18.899 18.26 18.952 18.327 18.993 18.339H18.999H19.002H19.01C19.01 18.339 19.012 18.339 19.013 18.339H19.017L19.02 18.337H19.022C19.045 18.054 19.741 17.66 20.377 17.602C20.475 17.581 20.427 17.397 20.442 17.302C20.404 16.952 20.64 16.634 20.972 16.608C21.424 16.674 21.574 16.913 21.582 17.277C21.533 17.976 20.798 18.095 20.384 18.151C20.359 18.161 20.337 18.171 20.328 18.183C20.328 18.183 20.328 18.185 20.328 18.186H20.326V18.189V18.194V18.197V18.2H20.328V18.203H20.33C20.33 18.203 20.33 18.207 20.33 18.208H20.332C20.332 18.208 20.332 18.21 20.334 18.211C20.334 18.211 20.336 18.213 20.336 18.214C20.346 18.222 20.362 18.23 20.384 18.238L22.117 18.246L22.205 18.297C22.207 18.303 22.207 18.308 22.207 18.311V18.314C22.207 18.314 22.207 18.314 22.205 18.316C22.205 18.316 22.204 18.318 22.202 18.319C22.191 18.33 22.16 18.338 22.112 18.416C22.044 18.527 21.941 18.784 21.936 18.956L21.941 18.955ZM16.245 18.72C16.232 18.544 16.016 18.452 16.02 18.376C15.979 18.236 16.11 18.211 16.205 18.231C16.361 18.29 16.453 18.619 16.435 18.714C16.404 18.886 16.321 19.072 16.262 19.048C16.197 19.026 16.275 18.792 16.244 18.719L16.245 18.72ZM19.883 16.913C19.908 16.815 20.02 16.793 20.06 16.887C20.063 16.912 20.071 17.008 20.071 17.036C20.186 17.34 19.712 17.394 19.511 17.301C19.363 17.239 19.367 17.019 19.375 17.01C19.369 16.964 19.375 16.84 19.485 16.84C19.506 16.845 19.523 16.851 19.534 16.866C19.542 16.882 19.547 16.921 19.547 16.944C19.547 16.967 19.563 16.973 19.575 16.986C19.597 16.998 19.591 16.996 19.616 16.996C19.639 16.992 19.651 16.981 19.655 16.95C19.655 16.923 19.664 16.9 19.671 16.877C19.686 16.854 19.686 16.846 19.713 16.845C19.736 16.845 19.744 16.848 19.757 16.856C19.77 16.874 19.79 16.904 19.79 16.932C19.787 17.02 19.852 17.03 19.868 17.013C19.897 16.996 19.875 16.945 19.883 16.913ZM18.972 14.389C19.061 14.17 19.197 14.163 19.232 14.361C19.224 14.491 19.224 14.621 19.11 14.928C19.034 15.095 18.865 15.039 18.896 14.91C18.888 14.91 18.934 14.473 18.972 14.389ZM17.635 14.65C17.64 14.442 17.817 14.261 17.905 14.202C18.031 14.129 18.033 14.193 18.03 14.284C17.927 14.418 17.818 14.474 17.856 14.612C17.877 14.761 18.047 14.564 18.02 14.697C17.998 14.777 17.976 14.809 17.911 14.856C17.798 14.915 17.741 14.922 17.684 14.842C17.606 14.768 17.629 14.768 17.635 14.65ZM17.309 14.841C17.495 14.659 17.504 15.769 17.658 15.911C17.72 16.019 17.81 16.096 17.894 15.827C17.986 15.459 18.135 14.996 18.439 14.722C18.501 14.669 18.65 14.605 18.739 14.782C18.799 14.896 18.781 15.434 18.773 15.763C18.818 15.969 18.894 16.003 18.992 16.067C19.096 16.116 19.232 16.151 19.357 16.018C19.446 15.915 19.461 15.88 19.53 15.777C19.574 15.415 19.534 15.089 19.436 14.889C19.316 14.573 19.481 14.42 19.52 14.318C19.663 14.06 19.707 14.206 19.765 14.357C19.928 14.606 19.865 15.139 19.916 15.519C19.984 16.021 20.113 16.054 20.192 16.072C20.382 16.094 20.492 15.923 20.492 15.923C20.554 15.561 20.367 15.303 20.264 15.103C20.147 14.952 20.141 14.813 20.167 14.699C20.188 14.6 20.173 14.495 20.275 14.401C20.421 14.279 20.574 14.294 20.683 14.414C20.809 14.552 20.994 14.827 20.935 14.925C20.916 15.024 20.796 14.993 20.741 14.983C20.63 14.999 20.75 15.244 20.75 15.256C20.818 15.419 20.819 15.645 20.909 15.808C20.998 15.943 21.176 15.883 21.267 15.87C21.339 15.826 21.344 15.812 21.415 15.768C21.471 15.737 21.556 15.725 21.548 15.875C21.548 15.875 21.406 16.279 21.219 16.368C21.166 16.383 21.145 16.426 21.055 16.359C21.004 16.258 21.079 16.203 21.091 16.148C21.091 16.116 20.963 16.072 20.887 16.171C20.838 16.24 20.813 16.301 20.707 16.48C20.628 16.615 20.289 16.663 20.13 16.601C19.942 16.506 19.954 16.369 19.866 16.29C19.775 16.231 19.689 16.235 19.626 16.301C19.626 16.301 19.361 16.563 19.337 16.587C19.314 16.61 19.007 16.857 18.637 16.574C18.471 16.38 18.416 16.239 18.424 15.6C18.391 15.531 18.342 15.545 18.277 15.679C18.181 16.16 18.033 16.598 17.801 16.503C17.478 16.592 17.012 15.676 17.308 14.839L17.309 14.841ZM15.616 15.994V15.991V15.988C15.654 15.895 16.4 15.389 16.687 15.086C16.754 15.031 16.653 14.93 16.552 14.882C16.448 14.757 16.479 14.556 16.611 14.431C16.663 14.404 16.724 14.385 16.793 14.382C16.862 14.378 16.939 14.391 17.021 14.426C17.12 14.535 17.179 14.774 16.991 14.882C16.953 14.919 16.949 14.955 16.991 14.99C17.031 15.024 17.067 15.048 17.106 15.082C17.106 15.082 16.345 15.943 16.184 16.002H16.182C16.182 16.002 16.182 16.002 16.182 16.004C16.13 16.027 15.664 16.027 15.625 16.002H15.623V16H15.621L15.619 15.998C15.619 15.998 15.619 15.996 15.619 15.995L15.616 15.994ZM16.808 16.302C17.014 16.12 17.008 16.217 17.008 16.217C17.008 16.217 16.905 16.559 16.733 16.538C16.711 16.538 16.549 16.591 16.447 16.447C16.337 16.283 16.405 16.001 16.582 15.907C16.681 15.848 16.748 15.886 16.717 15.971C16.676 16.06 16.672 16.15 16.691 16.239C16.712 16.287 16.723 16.319 16.809 16.303L16.808 16.302ZM13.525 14.558C13.519 14.512 13.525 14.388 13.635 14.388C13.656 14.393 13.673 14.399 13.684 14.414C13.692 14.43 13.697 14.469 13.697 14.492C13.697 14.515 13.713 14.521 13.725 14.534C13.746 14.548 13.741 14.545 13.766 14.545C13.789 14.54 13.801 14.528 13.805 14.498C13.805 14.471 13.814 14.448 13.821 14.425C13.836 14.402 13.836 14.395 13.863 14.393C13.886 14.393 13.894 14.396 13.907 14.404C13.92 14.422 13.94 14.452 13.94 14.48C13.937 14.568 14.002 14.577 14.018 14.561C14.046 14.545 14.025 14.493 14.033 14.462C14.058 14.365 14.17 14.342 14.21 14.436C14.213 14.461 14.221 14.557 14.221 14.585C14.237 14.904 13.862 14.943 13.662 14.85C13.514 14.789 13.518 14.568 13.526 14.559L13.525 14.558ZM12.039 14.329C12.268 14.397 12.282 14.732 12.266 14.83C12.235 15.008 12.154 15.201 12.095 15.176C12.032 15.154 12.092 14.911 12.062 14.836C12.028 14.73 11.834 14.536 11.856 14.48C11.812 14.36 11.945 14.308 12.04 14.329H12.039ZM11.477 15.302C11.623 15.134 11.677 15.851 11.765 16.142C11.867 16.543 12.011 16.391 12.043 16.173C12.066 15.981 12.123 15.764 12.123 15.764C12.188 15.343 12.424 15.09 12.515 15.096C12.63 15.076 12.686 15.106 12.733 15.227C12.793 15.35 12.81 15.831 12.744 16.136C12.73 16.372 13.021 16.64 13.008 16.166C12.96 15.812 12.93 15.507 12.831 15.16C12.807 14.963 12.808 14.749 12.816 14.535C12.862 14.427 12.992 14.37 13.079 14.488C13.223 14.605 13.251 15.065 13.276 15.281C13.276 15.455 13.293 15.841 13.378 16.1C13.437 16.226 13.518 16.251 13.558 16.142C13.605 16.142 13.504 16.021 13.438 15.829C13.347 15.621 13.288 15.155 13.415 14.937C13.461 14.862 13.558 14.862 13.63 14.937C13.701 15.063 13.79 15.122 13.819 15.306C13.862 15.44 13.921 15.494 13.844 15.976C13.844 16.023 14.131 16.236 14.131 16.236C14.218 16.328 14.322 16.352 14.427 16.293C14.453 16.142 14.395 15.974 14.353 15.873C14.157 15.615 14.028 15.298 14.059 15.032C14.127 14.8 14.314 14.777 14.442 14.888C14.596 14.971 14.691 15.162 14.752 15.362C14.73 15.454 14.631 15.463 14.567 15.362C14.55 15.409 14.636 15.532 14.621 15.579C14.734 15.84 14.764 16.1 14.785 16.36C14.779 16.633 14.563 16.806 14.203 16.905C13.967 16.957 13.898 16.826 13.746 16.72C13.65 16.668 13.513 16.675 13.511 16.782C13.435 16.89 13.565 17.358 13.547 17.916C13.53 18.867 13.176 18.766 13.176 18.766C13.153 18.262 13.128 17.758 13.105 17.254C13.045 17.107 12.943 17.101 12.791 17.113C12.644 17.055 12.455 16.971 12.46 16.687V15.813C12.454 15.696 12.381 15.697 12.341 15.789C12.13 15.977 12.451 17.007 11.869 16.951C11.387 16.85 11.437 15.863 11.479 15.303L11.477 15.302ZM13.06 17.602C12.546 17.85 12.049 18.082 11.544 18.322C11.563 17.982 12.265 17.368 12.744 17.359C13.055 17.368 12.977 17.479 13.06 17.602ZM11.765 20.472C11.663 20.502 11.527 20.461 11.443 20.366C11.286 20.166 11.31 19.495 11.595 19.045C11.66 18.964 11.691 18.903 11.66 19.103C11.631 19.299 11.605 19.545 11.625 19.814C11.636 19.956 11.688 20.129 11.814 19.876C11.874 19.798 11.92 19.812 11.98 19.905C12.023 20.036 11.945 20.395 11.765 20.472ZM12.281 19.609C12.281 19.397 12.271 19.337 12.305 19.116C12.328 18.843 12.438 18.685 12.519 18.745C12.554 18.773 12.585 18.844 12.601 18.964C12.61 19.165 12.634 19.499 12.719 19.649C13.06 20.287 15.063 20.149 15.126 18.121C15.12 18.076 15.105 18.051 15.086 18.044C15.044 18.028 14.984 18.091 14.965 18.154C14.667 20.393 11.996 20.109 12.795 18.071C13.066 17.887 12.946 18.682 13.057 18.891C13.234 19.225 13.563 19.182 13.977 18.998C14.65 18.644 14.685 18.186 14.654 18.132V18.13C14.603 18.097 14.485 18.238 14.342 18.297C14.168 18.341 13.967 18.361 13.801 18.164C13.747 17.994 13.762 17.782 13.801 17.588C13.835 17.343 14.106 17.088 14.342 17.086C14.669 17.075 14.716 17.334 14.907 17.463C15.02 17.476 15.107 17.34 15.085 17.237C14.939 16.357 14.843 15.686 14.696 14.806C14.66 14.599 14.776 14.494 14.9 14.455C14.937 14.446 14.968 14.43 14.998 14.426C15.009 14.424 15.019 14.426 15.03 14.429C15.034 14.431 15.04 14.433 15.045 14.435C15.047 14.437 15.051 14.439 15.053 14.44C15.055 14.442 15.059 14.444 15.061 14.446C15.066 14.451 15.073 14.457 15.078 14.464H15.081C15.197 14.521 15.402 15.131 15.5 15.432C15.41 15.543 15.32 15.472 15.222 15.474C15.298 16.047 15.374 16.595 15.449 17.169C15.685 17.033 15.803 17.071 15.778 17.361C15.797 17.486 15.987 17.47 16.091 17.386C16.245 16.954 16.501 16.992 16.563 17.27C16.568 17.336 16.647 17.35 16.693 17.326C16.703 17.32 16.712 17.311 16.717 17.303C16.72 17.298 16.723 17.292 16.724 17.287C16.735 17.214 16.746 17.142 16.757 17.069C16.759 17.056 16.767 17.043 16.776 17.032C16.819 16.988 16.922 16.959 17.053 16.919C17.044 17.181 17.009 17.433 16.967 17.677C16.894 17.928 16.543 17.995 16.344 17.853C16.284 17.792 16.201 17.822 16.166 17.869C16.087 17.964 15.729 18.201 15.47 17.928C15.47 17.928 15.466 17.928 15.463 17.93H15.46C15.46 17.93 15.457 17.932 15.457 17.933C15.456 17.933 15.454 17.933 15.454 17.933C15.385 17.997 15.596 18.514 15.388 19.198C14.969 20.521 12.389 21.209 12.282 19.608L12.281 19.609ZM26.835 26.733C26.709 26.75 26.643 26.658 26.576 26.561H26.574C26.475 26.596 25.4 26.58 25.21 26.564C25.17 26.625 25.118 26.71 24.999 26.682C24.999 26.682 24.997 26.682 24.996 26.682C24.992 26.682 24.987 26.68 24.983 26.678C24.981 26.678 24.978 26.674 24.976 26.673C24.876 26.607 24.739 26.25 24.865 26.028C23.087 26.028 16.837 26.044 15.488 26.044C14.769 26.033 14.22 25.921 13.841 25.373C13.875 25.373 15.643 25.439 16.203 25.439C17.202 25.439 21.862 25.49 24.899 25.49C24.713 25.361 24.705 25.065 24.993 24.991H24.995H25V24.994C25 24.994 25 24.994 25.002 24.994C25.016 25.014 25.028 25.091 25.05 25.123C25.05 25.123 25.053 25.125 25.053 25.126C25.056 25.129 25.059 25.132 25.061 25.134H25.066V25.136H25.072C25.119 25.132 25.152 25.143 25.175 25.161C25.261 25.235 25.191 25.439 25.151 25.489C25.586 25.505 25.87 25.51 26.256 25.556C26.256 25.556 26.59 25.522 26.709 25.505C27.213 25.458 27.235 26.216 27.235 26.216C27.229 26.661 27.054 26.685 26.833 26.732L26.835 26.733ZM27.333 20.379C27.398 20.32 27.444 20.288 27.509 20.229C27.577 20.147 27.552 20.101 27.512 20.051C27.444 20.008 27.377 20.014 27.373 19.906C27.384 19.835 27.404 19.808 27.463 19.796C27.573 19.787 27.612 19.779 27.712 19.796C27.81 19.828 27.832 19.868 27.806 19.926C27.782 19.986 27.769 20.016 27.734 20.064C27.691 20.142 27.78 20.156 27.807 20.156C27.865 20.163 27.95 20.138 27.988 20.18C27.994 20.18 28.015 20.271 27.95 20.319C27.95 20.325 27.551 20.581 27.378 20.533C27.284 20.508 27.304 20.43 27.334 20.377L27.333 20.379ZM29.453 19.323C29.448 19.554 29.343 19.931 29.254 20.071C28.921 20.569 28.438 20.601 28.03 20.649C27.793 20.642 27.793 20.449 28.087 20.281C28.179 20.208 28.463 20.115 28.596 20.017C28.729 19.919 28.87 19.716 28.998 19.554C29.056 19.4 29.06 19.335 29.079 19.212C29.046 17.927 28.884 16.524 28.668 15.075C28.632 14.844 28.663 14.582 28.753 14.437C28.839 14.257 28.856 14.324 28.908 14.425C29.053 14.65 29.468 15.178 29.398 15.248C29.35 15.325 29.217 15.251 29.191 15.318C29.174 15.347 29.217 15.566 29.23 15.662C29.436 16.641 29.485 17.968 29.454 19.324L29.453 19.323Z" fill="#009939"/>
<path d="M14.2755 17.5762C14.2415 17.5812 14.2095 17.5972 14.1905 17.6132C14.1865 17.6172 14.1825 17.6222 14.1805 17.6252H14.1785C14.1555 17.6662 14.1035 17.7192 14.1205 17.7732C14.1565 17.8222 14.1855 17.8332 14.2465 17.8362C14.2975 17.8362 14.3675 17.8462 14.3875 17.8212L14.3895 17.8182V17.8162C14.4175 17.7852 14.4405 17.7232 14.4165 17.6632C14.3865 17.5892 14.3265 17.5692 14.2745 17.5752L14.2755 17.5762Z" fill="#009939"/>
<path d="M15.6183 15.9996H15.6203C15.6203 15.9996 15.6203 15.9996 15.6203 16.0016C15.6203 16.0016 15.6203 16.0016 15.6223 16.0016C15.6603 16.0276 16.1273 16.0276 16.1793 16.0046V16.0026H16.1813C16.3423 15.9426 17.1033 15.0816 17.1033 15.0816C17.0643 15.0476 17.0283 15.0236 16.9883 14.9896C16.9463 14.9536 16.9503 14.9176 16.9883 14.8816C17.1763 14.7736 17.1173 14.5346 17.0183 14.4256C16.9373 14.3896 16.8603 14.3776 16.7903 14.3816C16.7223 14.3846 16.6603 14.4036 16.6083 14.4306C16.4763 14.5556 16.4453 14.7566 16.5493 14.8816C16.6503 14.9286 16.7513 15.0306 16.6843 15.0856C16.3973 15.3886 15.6513 15.8956 15.6133 15.9876C15.6133 15.9876 15.6133 15.9896 15.6133 15.9906V15.9936V15.9976L15.6153 15.9996H15.6183ZM16.7483 14.6496C16.7483 14.6496 16.7543 14.6476 16.7573 14.6476C16.8043 14.6426 16.8603 14.6856 16.8883 14.7456C16.9173 14.8096 16.9033 14.8706 16.8553 14.8816C16.8063 14.8926 16.7453 14.8506 16.7153 14.7866C16.6863 14.7226 16.7003 14.6606 16.7483 14.6496Z" fill="#009939"/>
<path d="M25.2012 26.0772H25.1992C25.1332 26.1082 25.1262 26.2352 25.1822 26.3052C25.3772 26.3132 25.5522 26.3422 25.7462 26.3182C25.7462 26.3152 25.7462 26.3102 25.7482 26.3062C25.7482 26.3032 25.7482 26.2982 25.7492 26.2962C25.7492 26.2942 25.7512 26.2902 25.7522 26.2882C25.7522 26.2882 25.7542 26.2842 25.7552 26.2822C25.7552 26.2822 25.7582 26.2792 25.7582 26.2772C25.8172 26.1992 26.0642 26.1922 26.0982 26.2922C26.1002 26.2992 26.1012 26.3052 26.1012 26.3132C26.2452 26.3162 26.3292 26.3202 26.4742 26.3242H26.4852C26.4852 26.3242 26.4912 26.3222 26.4932 26.3212C26.5392 26.2962 26.5742 26.1612 26.5042 26.1022C26.0612 26.0812 25.6452 26.0982 25.2022 26.0762L25.2012 26.0772Z" fill="#009939"/>
<path d="M19.9713 18.7255C19.7243 18.7005 19.4403 18.6965 19.2473 18.6445H19.2443C19.2383 18.6445 19.2333 18.6445 19.2273 18.6445C19.1113 18.6525 19.0393 18.7355 19.0453 18.8295C19.0913 19.2535 19.4133 19.4495 19.5273 19.5315C19.5753 19.5555 19.6393 19.5985 19.6863 19.5915C19.6863 19.5915 19.6903 19.5915 19.6923 19.5915C19.6953 19.5915 19.6993 19.5885 19.7023 19.5865C19.7023 19.5865 19.7043 19.5865 19.7053 19.5845H19.7073L19.7083 19.5815H19.7103V19.5785C19.7123 19.5765 19.7153 19.5735 19.7163 19.5705C19.7373 19.5385 19.7423 19.4695 19.7183 19.3375C19.7183 19.0715 19.8983 19.0225 20.0833 18.9595C20.2713 18.8945 20.1713 18.7385 19.9703 18.7245L19.9713 18.7255Z" fill="#009939"/>
<path d="M20.8836 17.39C20.9556 17.432 21.0316 17.435 21.0656 17.405C21.0686 17.401 21.0726 17.397 21.0756 17.394L21.0766 17.39C21.0766 17.39 21.0766 17.388 21.0786 17.387V17.383L21.0806 17.378V17.373C21.0856 17.33 21.0446 17.27 20.9756 17.231C20.9276 17.204 20.8786 17.191 20.8406 17.195C20.8226 17.195 20.8076 17.203 20.7966 17.211C20.7936 17.213 20.7906 17.216 20.7886 17.219H20.7866L20.7836 17.226C20.7806 17.231 20.7786 17.237 20.7776 17.242C20.7776 17.242 20.7776 17.246 20.7756 17.247C20.7716 17.29 20.8146 17.35 20.8826 17.389L20.8836 17.39Z" fill="#009939"/>
<path d="M16.8543 14.8827C16.9023 14.8717 16.9163 14.8097 16.8873 14.7467C16.8593 14.6867 16.8033 14.6447 16.7563 14.6487C16.7533 14.6487 16.7503 14.6487 16.7473 14.6507C16.6993 14.6617 16.6853 14.7237 16.7143 14.7877C16.7433 14.8517 16.8053 14.8937 16.8543 14.8827Z" fill="#009939"/>
<path d="M21.906 15.0967C21.825 15.1197 21.656 15.0537 21.823 15.2497C21.848 15.2777 21.906 15.3537 21.975 15.4477C21.958 15.3677 21.949 15.2937 21.93 15.2127C21.924 15.1727 21.915 15.1347 21.906 15.0967Z" fill="#009939"/>
</svg>
