<svg width="41" height="41" viewBox="0 0 41 41" fill="none" xmlns="http://www.w3.org/2000/svg">
<path d="M34.5 8.5H6.5C4.29086 8.5 2.5 10.2909 2.5 12.5V28.5C2.5 30.7091 4.29086 32.5 6.5 32.5H34.5C36.7091 32.5 38.5 30.7091 38.5 28.5V12.5C38.5 10.2909 36.7091 8.5 34.5 8.5Z" fill="#1C6034"/>
<path d="M2.5 12.4957V28.5047C2.5 28.9307 2.585 29.3337 2.708 29.7187L37.167 9.53569C36.587 9.01369 35.858 8.66569 35.046 8.55469H5.954C4.006 8.82169 2.5 10.4747 2.5 12.4957Z" fill="#3451A7"/>
<path d="M37.856 10.3341C37.663 10.0361 37.429 9.77213 37.166 9.53613L2.70703 29.7191C2.81503 30.0551 2.95403 30.3761 3.14203 30.6661C3.33503 30.9641 3.56903 31.2281 3.83203 31.4641L38.291 11.2811C38.183 10.9451 38.044 10.6241 37.856 10.3341Z" fill="#F9CF00"/>
<path d="M10.5355 16.165L11.7335 15.29H10.2525L9.79447 13.875L9.33647 15.29H7.85547L9.05447 16.165L8.59647 17.58L9.79447 16.705L10.9935 17.58L10.5355 16.165Z" fill="#E3E7EA"/>
<path d="M14.0005 19.0556L13.5435 17.6406L13.0855 19.0556H11.6035L12.8025 19.9296L12.3445 21.3446L13.5435 20.4696L14.7425 21.3446L14.2845 19.9306L15.4835 19.0556H14.0005Z" fill="#E3E7EA"/>
<path d="M6.50247 19.0556L6.04547 17.6406L5.58747 19.0556H4.10547L5.30447 19.9296L4.84647 21.3446L6.04547 20.4696L7.24447 21.3446L6.78647 19.9296L7.98447 19.0556H6.50247Z" fill="#E3E7EA"/>
<path d="M5.30447 12.4003L4.84647 13.8153L6.04547 12.9403L7.24447 13.8153L6.78647 12.4003L7.98447 11.5253H6.50247L6.04547 10.1113L5.58747 11.5253H4.10547L5.30447 12.4003Z" fill="#E3E7EA"/>
<path d="M12.8025 12.4003L12.3445 13.8153L13.5435 12.9403L14.7425 13.8153L14.2845 12.4003L15.4835 11.5253H14.0005L13.5435 10.1113L13.0855 11.5253H11.6035L12.8025 12.4003Z" fill="#E3E7EA"/>
</svg>
