<svg width="41" height="41" viewBox="0 0 41 41" fill="none" xmlns="http://www.w3.org/2000/svg">
<path d="M34.5 8.5H6.5C4.29086 8.5 2.5 10.2909 2.5 12.5V28.5C2.5 30.7091 4.29086 32.5 6.5 32.5H34.5C36.7091 32.5 38.5 30.7091 38.5 28.5V12.5C38.5 10.2909 36.7091 8.5 34.5 8.5Z" fill="#183F86"/>
<path d="M3.79644 31.434L32.7194 8.5H17.5854L3.39844 30.999C3.52244 31.153 3.65144 31.3 3.79744 31.433L3.79644 31.434Z" fill="#F9D63E"/>
<path d="M4.31188 31.844L38.5009 19.796V12.495C38.5009 10.288 36.7119 8.49902 34.5059 8.49902H32.7199L3.79688 31.434C3.95888 31.583 4.12688 31.723 4.31188 31.844Z" fill="#D7002D"/>
<path d="M4.76655 32.0919L38.4995 26.1479V19.7959L4.31055 31.8439C4.45455 31.9379 4.60955 32.0159 4.76655 32.0919Z" fill="#E3E7EA"/>
<path d="M38.5006 28.5044V26.1484L4.76758 32.0924C5.29258 32.3464 5.87358 32.5004 6.49658 32.5004H34.5056C36.7126 32.5004 38.5006 30.7114 38.5006 28.5044Z" fill="#007F38"/>
</svg>
