<svg width="41" height="41" viewBox="0 0 41 41" fill="none" xmlns="http://www.w3.org/2000/svg">
<path d="M37.33 9.67C36.6 8.95 35.6 8.5 34.5 8.5H6.5C5.4 8.5 4.4 8.95 3.67 9.67C2.95 10.4 2.5 11.4 2.5 12.5V20.5H38.5V12.5C38.5 11.4 38.05 10.4 37.33 9.67ZM14.22 17.47L13.61 17L13 17.47L13.24 16.71L12.63 16.24H13.38L13.61 15.48L13.84 16.24H14.6L13.99 16.71L14.22 17.47ZM11.23 17.47L10.62 17L10.01 17.47L10.24 16.71L9.63 16.24H10.38L10.62 15.48L10.85 16.24H11.6L10.99 16.71L11.23 17.47ZM8.73 13.38L9.49 13.39L9.72 12.63L9.95 13.39L10.71 13.38L10.1 13.85L10.33 14.61L9.72 14.14L9.11 14.61L9.35 13.85L8.73 13.38ZM12.12 10.84L12.35 11.6H13.1L12.49 12.07L12.73 12.82L12.12 12.35L11.51 12.82L11.74 12.07L11.13 11.6H11.88L12.12 10.84ZM15.12 14.61L14.51 14.14L13.9 14.61L14.13 13.85L13.52 13.38L14.28 13.39L14.51 12.63L14.74 13.39L15.5 13.38L14.88 13.85L15.12 14.61ZM9.78 19.01C7.29 19.01 5.28 16.99 5.28 14.5C5.28 12.01 7.29 9.99 9.78 9.99C10.29 9.99 10.78 10.09 11.24 10.26C8.99 10.36 7.19 12.21 7.19 14.5C7.19 16.79 8.99 18.64 11.24 18.75C10.78 18.91 10.29 19.01 9.78 19.01Z" fill="#EF003D"/>
<path d="M2.5 28.5C2.5 30.709 4.291 32.5 6.5 32.5H34.5C36.709 32.5 38.5 30.709 38.5 28.5V20.5H2.5V28.5Z" fill="#E3E7EA"/>
<path d="M7.1882 14.5003C7.1882 12.2103 8.9892 10.3573 11.2432 10.2553C10.7812 10.0933 10.2922 9.98828 9.7742 9.98828C7.2932 9.98828 5.2832 12.0093 5.2832 14.5003C5.2832 16.9913 7.2932 19.0133 9.7742 19.0133C10.2912 19.0133 10.7802 18.9073 11.2432 18.7453C8.9892 18.6433 7.1882 16.7893 7.1882 14.4993V14.5003Z" fill="#E3E7EA"/>
<path d="M9.72137 14.139L10.3314 14.609L10.0964 13.851L10.7084 13.383L9.95337 13.385L9.72038 12.626L9.48938 13.385L8.73438 13.383L9.34538 13.851L9.11137 14.609L9.72137 14.139Z" fill="#E3E7EA"/>
<path d="M13.5215 13.383L14.1335 13.851L13.8985 14.609L14.5095 14.139L15.1185 14.609L14.8845 13.851L15.4955 13.383L14.7415 13.385L14.5085 12.626L14.2765 13.385L13.5215 13.383Z" fill="#E3E7EA"/>
<path d="M11.5079 12.8238L12.1189 12.3538L12.7279 12.8238L12.4939 12.0658L13.1049 11.5978L12.3499 11.5998L12.1179 10.8408L11.8859 11.5998L11.1309 11.5988L11.7429 12.0658L11.5079 12.8238Z" fill="#E3E7EA"/>
<path d="M11.6039 16.2404L10.8479 16.2424L10.6169 15.4824L10.3849 16.2424L9.62891 16.2404L10.2419 16.7084L10.0069 17.4664L10.6169 16.9954L11.2269 17.4664L10.9919 16.7084L11.6039 16.2404Z" fill="#E3E7EA"/>
<path d="M13.844 16.2424L13.613 15.4824L13.381 16.2424L12.625 16.2404L13.238 16.7084L13.003 17.4664L13.613 16.9954L14.222 17.4664L13.988 16.7084L14.599 16.2404L13.844 16.2424Z" fill="#E3E7EA"/>
</svg>
