<svg width="41" height="41" viewBox="0 0 41 41" fill="none" xmlns="http://www.w3.org/2000/svg">
<path d="M2.5 28.5V28.504C2.5 30.711 4.289 32.5 6.495 32.5H34.504C36.711 32.5 38.499 30.711 38.499 28.504V24.5H2.5V28.5Z" fill="#FF0010"/>
<path d="M10.3969 19.4763C10.8719 19.9583 11.4519 20.3083 12.0829 20.5003C12.7129 20.3083 13.2939 19.9583 13.7689 19.4763C14.4619 18.7713 14.8749 17.8343 14.9369 16.8443L14.9579 16.4993L15.1619 13.2153C15.0909 13.1793 15.0189 13.1453 14.9459 13.1143L14.7149 16.8293C14.6579 17.7643 14.2669 18.6493 13.6109 19.3163C13.1789 19.7553 12.6539 20.0783 12.0829 20.2643C11.5119 20.0793 10.9869 19.7563 10.5549 19.3163C9.89991 18.6493 9.50891 17.7643 9.45191 16.8293L9.21991 13.1143C9.14691 13.1463 9.07491 13.1793 9.00391 13.2153L9.20791 16.4993L9.22891 16.8443C9.29091 17.8333 9.70391 18.7703 10.3969 19.4763Z" fill="#FF0010"/>
<path d="M14.936 16.844C14.874 17.833 14.461 18.77 13.768 19.476C13.293 19.958 12.713 20.308 12.082 20.5C11.451 20.308 10.871 19.958 10.396 19.476C9.703 18.771 9.29 17.834 9.228 16.844L9.207 16.499H2.5V24.5H38.5V16.499H14.958L14.937 16.844H14.936Z" fill="#435EAE"/>
<path d="M9.4517 16.829C9.5087 17.764 9.8997 18.649 10.5547 19.316C10.9867 19.755 11.5117 20.078 12.0827 20.264C12.6537 20.079 13.1787 19.756 13.6107 19.316C14.2657 18.649 14.6577 17.764 14.7147 16.829L14.9457 13.114C14.0527 12.713 13.0787 12.5 12.0837 12.5C11.0887 12.5 10.1147 12.713 9.2207 13.114L9.4517 16.829ZM13.4537 19.156C13.0657 19.552 12.5957 19.848 12.0837 20.025C11.5717 19.847 11.1017 19.552 10.7127 19.156C10.6087 19.05 10.5117 18.938 10.4217 18.821C10.5277 18.838 10.6377 18.833 10.7437 18.805C10.8097 18.786 10.8707 18.761 10.9287 18.727C11.0447 18.659 11.1777 18.622 11.3137 18.622C11.4477 18.622 11.5807 18.658 11.6997 18.727C11.8767 18.831 12.0857 18.859 12.2837 18.805C12.3497 18.786 12.4117 18.761 12.4687 18.727C12.5847 18.659 12.7167 18.622 12.8537 18.622C12.9887 18.622 13.1207 18.658 13.2387 18.727C13.3927 18.818 13.5717 18.851 13.7457 18.822C13.6567 18.939 13.5587 19.05 13.4537 19.156ZM13.9447 18.533C13.9057 18.551 13.8647 18.567 13.8227 18.578C13.6247 18.632 13.4157 18.604 13.2387 18.5C13.1207 18.43 12.9887 18.395 12.8537 18.395C12.7167 18.395 12.5847 18.432 12.4687 18.5C12.4117 18.534 12.3487 18.561 12.2837 18.578C12.0857 18.632 11.8767 18.604 11.6997 18.5C11.5807 18.43 11.4477 18.395 11.3137 18.395C11.1777 18.395 11.0447 18.432 10.9287 18.5C10.8707 18.534 10.8087 18.561 10.7437 18.578C10.5687 18.625 10.3847 18.609 10.2227 18.533C10.1587 18.431 10.1007 18.327 10.0477 18.22C10.0867 18.235 10.1237 18.253 10.1597 18.274C10.3367 18.378 10.5467 18.407 10.7437 18.352C10.8097 18.334 10.8707 18.308 10.9297 18.274C11.0457 18.206 11.1787 18.169 11.3147 18.169C11.4487 18.169 11.5817 18.205 11.7007 18.274C11.8777 18.378 12.0867 18.407 12.2847 18.352C12.3507 18.334 12.4127 18.308 12.4707 18.274C12.5867 18.207 12.7187 18.169 12.8557 18.169C12.9907 18.169 13.1227 18.205 13.2407 18.274C13.4177 18.378 13.6267 18.407 13.8247 18.352C13.8897 18.334 13.9527 18.308 14.0107 18.274C14.0467 18.253 14.0837 18.235 14.1227 18.22C14.0697 18.327 14.0117 18.431 13.9477 18.533H13.9447ZM12.5917 12.966L12.8057 12.989L12.8917 12.789L12.9777 12.989L13.1917 12.966L13.0647 13.142L13.1917 13.318L12.9777 13.295L12.8917 13.495L12.8057 13.295L12.5917 13.318L12.7187 13.142L12.5917 12.966ZM11.7837 14.062L11.9977 14.086L12.0837 13.886L12.1697 14.086L12.3837 14.062L12.2567 14.239L12.3837 14.415L12.1697 14.392L12.0837 14.592L11.9977 14.392L11.7837 14.415L11.9107 14.239L11.7837 14.062ZM10.9757 12.966L11.1897 12.989L11.2757 12.789L11.3617 12.989L11.5757 12.966L11.4487 13.142L11.5757 13.318L11.3617 13.295L11.2757 13.495L11.1897 13.295L10.9757 13.318L11.1027 13.142L10.9757 12.966ZM11.3907 16.43L12.0837 15.021L12.7757 16.43L13.2377 15.804L14.3927 17.37C14.3927 17.578 14.3107 17.777 14.1667 17.923C14.0227 18.07 13.8267 18.153 13.6227 18.153C13.4867 18.153 13.3537 18.116 13.2367 18.048C13.1787 18.014 13.1157 17.988 13.0507 17.97C12.8537 17.916 12.6437 17.945 12.4667 18.048C12.3487 18.117 12.2157 18.153 12.0817 18.153C11.9477 18.153 11.8147 18.117 11.6967 18.048C11.5187 17.944 11.3097 17.915 11.1127 17.97C11.0467 17.988 10.9847 18.014 10.9267 18.048C10.8107 18.116 10.6777 18.153 10.5417 18.153C10.3377 18.153 10.1417 18.07 9.9977 17.923C9.8537 17.776 9.7717 17.577 9.7717 17.37L10.9267 15.804L11.3887 16.43H11.3907Z" fill="#435EAE"/>
<path d="M11.9962 14.3908L12.0832 14.5908L12.1692 14.3908L12.3832 14.4138L12.2552 14.2378L12.3832 14.0618L12.1692 14.0848L12.0832 13.8848L11.9962 14.0848L11.7832 14.0618L11.9102 14.2378L11.7832 14.4138L11.9962 14.3908Z" fill="#FAE600"/>
<path d="M11.1886 13.2941L11.2756 13.4941L11.3616 13.2941L11.5756 13.3181L11.4476 13.1421L11.5756 12.9661L11.3616 12.9891L11.2756 12.7891L11.1886 12.9891L10.9746 12.9661L11.1026 13.1421L10.9746 13.3181L11.1886 13.2941Z" fill="#FAE600"/>
<path d="M12.8048 13.2941L12.8918 13.4941L12.9778 13.2941L13.1918 13.3181L13.0648 13.1421L13.1918 12.9661L12.9778 12.9891L12.8918 12.7891L12.8048 12.9891L12.5918 12.9661L12.7188 13.1421L12.5918 13.3181L12.8048 13.2941Z" fill="#FAE600"/>
<path d="M34.5 8.5H6.5C4.291 8.5 2.5 10.291 2.5 12.5V16.5H9.208L9.004 13.216C9.075 13.181 9.147 13.147 9.22 13.115C10.114 12.714 11.088 12.501 12.083 12.501C13.078 12.501 14.052 12.714 14.945 13.115C15.018 13.147 15.09 13.181 15.161 13.216L14.957 16.5H38.499V12.5C38.499 10.291 36.709 8.5 34.5 8.5Z" fill="#E3E7EA"/>
<path d="M9.77344 17.3705C9.77344 17.5785 9.85544 17.7775 9.99944 17.9235C10.1434 18.0695 10.3394 18.1535 10.5434 18.1535C10.6794 18.1535 10.8124 18.1165 10.9284 18.0485C10.9864 18.0145 11.0494 17.9885 11.1144 17.9705C11.3114 17.9165 11.5204 17.9455 11.6984 18.0485C11.8164 18.1175 11.9494 18.1535 12.0834 18.1535C12.2174 18.1535 12.3504 18.1175 12.4684 18.0485C12.6454 17.9445 12.8554 17.9155 13.0524 17.9705C13.1174 17.9885 13.1804 18.0145 13.2384 18.0485C13.3554 18.1165 13.4884 18.1535 13.6244 18.1535C13.8284 18.1535 14.0244 18.0705 14.1684 17.9235C14.3124 17.7765 14.3944 17.5775 14.3944 17.3705L13.2394 15.8045L12.7774 16.4305L12.0854 15.0215L11.3924 16.4305L10.9304 15.8045L9.77544 17.3705H9.77344Z" fill="#E3E7EA"/>
<path d="M14.0079 18.2739C13.9499 18.3079 13.8869 18.3349 13.8219 18.3519C13.6239 18.4059 13.4149 18.3779 13.2379 18.2739C13.1199 18.2049 12.9879 18.1689 12.8529 18.1689C12.7159 18.1689 12.5839 18.2069 12.4679 18.2739C12.4099 18.3079 12.3469 18.3349 12.2819 18.3519C12.0839 18.4059 11.8749 18.3779 11.6979 18.2739C11.5789 18.2039 11.4459 18.1689 11.3119 18.1689C11.1759 18.1689 11.0429 18.2069 10.9269 18.2739C10.8679 18.3079 10.8059 18.3349 10.7409 18.3519C10.5429 18.4059 10.3339 18.3779 10.1569 18.2739C10.1209 18.2529 10.0839 18.2349 10.0449 18.2199C10.0979 18.3269 10.1559 18.4309 10.2199 18.5329C10.3819 18.6089 10.5669 18.6259 10.7409 18.5779C10.8069 18.5609 10.8679 18.5339 10.9259 18.4999C11.0419 18.4309 11.1749 18.3949 11.3109 18.3949C11.4449 18.3949 11.5779 18.4309 11.6969 18.4999C11.8739 18.6039 12.0829 18.6319 12.2809 18.5779C12.3469 18.5609 12.4089 18.5339 12.4659 18.4999C12.5819 18.4309 12.7139 18.3949 12.8509 18.3949C12.9859 18.3949 13.1179 18.4309 13.2359 18.4999C13.4129 18.6039 13.6219 18.6319 13.8199 18.5779C13.8629 18.5659 13.9039 18.5509 13.9419 18.5329C14.0059 18.4309 14.0639 18.3269 14.1169 18.2199C14.0779 18.2349 14.0409 18.2529 14.0049 18.2739H14.0079Z" fill="#E3E7EA"/>
<path d="M12.8519 18.6211C12.7149 18.6211 12.5829 18.6591 12.4669 18.7261C12.4099 18.7601 12.3469 18.7861 12.2819 18.8041C12.0839 18.8581 11.8749 18.8301 11.6979 18.7261C11.5789 18.6561 11.4459 18.6211 11.3119 18.6211C11.1759 18.6211 11.0429 18.6591 10.9269 18.7261C10.8689 18.7601 10.8069 18.7861 10.7419 18.8041C10.6359 18.8331 10.5259 18.8381 10.4199 18.8201C10.5089 18.9371 10.6069 19.0491 10.7109 19.1551C11.0999 19.5511 11.5699 19.8471 12.0819 20.0241C12.5939 19.8461 13.0639 19.5511 13.4519 19.1551C13.5559 19.0491 13.6539 18.9371 13.7439 18.8201C13.5699 18.8491 13.3909 18.8161 13.2369 18.7251C13.1189 18.6551 12.9869 18.6211 12.8519 18.6211Z" fill="#E3E7EA"/>
</svg>
