<svg width="41" height="41" viewBox="0 0 41 41" fill="none" xmlns="http://www.w3.org/2000/svg">
<path d="M34.5 8.5H6.5C4.29086 8.5 2.5 10.2909 2.5 12.5V28.5C2.5 30.7091 4.29086 32.5 6.5 32.5H34.5C36.7091 32.5 38.5 30.7091 38.5 28.5V12.5C38.5 10.2909 36.7091 8.5 34.5 8.5Z" fill="#FD0032"/>
<path d="M11.793 17.482H2.5V18.991H11.793H13.308V17.482V8.5H11.793V17.482Z" fill="#E3E7EA"/>
<path d="M17.8578 17.482V8.5H16.3418V17.482V18.991H17.8578H38.5008V17.482H17.8578Z" fill="#E3E7EA"/>
<path d="M2.5 22.0088V23.5178H11.793V32.4998H13.308V23.5178V22.0088H11.793H2.5Z" fill="#E3E7EA"/>
<path d="M16.3418 22.0088V23.5178V32.4998H17.8578V23.5178H38.5008V22.0088H17.8578H16.3418Z" fill="#E3E7EA"/>
<path d="M17.857 18.991H16.341V17.482V8.5H13.308V17.482V18.991H11.793H2.5V22.009H11.793H13.308V23.518V32.5H16.341V23.518V22.009H17.857H38.5V18.991H17.857Z" fill="#1D3386"/>
</svg>
