<svg width="41" height="41" viewBox="0 0 41 41" fill="none" xmlns="http://www.w3.org/2000/svg">
<path d="M15.049 26.211C14.632 26.445 14.225 26.732 13.764 26.86C13.324 26.741 12.935 26.466 12.538 26.246C11.753 25.781 11.038 25.189 10.443 24.5H2.5V28.504C2.5 30.711 4.289 32.5 6.495 32.5H34.504C36.711 32.5 38.499 30.711 38.499 28.504V24.5H17.083C16.503 25.172 15.81 25.752 15.049 26.211Z" fill="#CF002E"/>
<path d="M10.246 23.659C10.24 23.612 10.233 23.565 10.233 23.516C10.233 22.862 10.771 22.332 11.436 22.332C11.78 22.332 12.087 22.478 12.306 22.706C12.447 22.25 12.797 21.886 13.25 21.726V19.977H12.6C12.01 19.977 11.409 20.083 10.83 20.197C11.001 19.641 11.001 19.301 10.83 18.744C11.409 18.858 12.01 18.964 12.6 18.964H13.25V17.791H13.109C12.519 17.791 11.917 17.897 11.339 18.011C11.51 17.455 11.51 17.115 11.339 16.558C11.917 16.672 12.519 16.778 13.109 16.778H13.25V16.703C13.25 16.121 13.142 15.529 13.026 14.959C13.591 15.128 13.936 15.128 14.501 14.959C14.386 15.529 14.277 16.121 14.277 16.703V16.778H14.419C15.009 16.778 15.61 16.672 16.189 16.558C16.018 17.114 16.018 17.454 16.189 18.011C15.61 17.897 15.009 17.791 14.419 17.791H14.277V18.964H14.927C15.518 18.964 16.119 18.858 16.698 18.744C16.526 19.3 16.526 19.64 16.698 20.197C16.119 20.083 15.518 19.977 14.927 19.977H14.277V21.726C14.731 21.887 15.081 22.251 15.221 22.708C15.44 22.479 15.747 22.333 16.092 22.333C16.756 22.333 17.297 22.864 17.297 23.517C17.297 23.566 17.289 23.612 17.283 23.659C19.019 21.119 18.649 17.911 18.389 14.502H9.13897C8.87897 17.913 8.50897 21.12 10.246 23.661V23.659Z" fill="#CF002E"/>
<path d="M38.5 12.5C38.5 10.29 36.71 8.5 34.5 8.5H6.5C4.29 8.5 2.5 10.29 2.5 12.5V16.5H8.62C8.5 18.35 8.46 20.21 9.03 22C9.31 22.92 9.81 23.77 10.44 24.5C11.04 25.19 11.75 25.78 12.54 26.25C12.94 26.47 13.32 26.74 13.76 26.86C14.23 26.73 14.63 26.44 15.05 26.21C15.81 25.75 16.5 25.17 17.08 24.5C17.72 23.77 18.21 22.92 18.5 22C19.07 20.21 19.03 18.35 18.9 16.5H38.5V12.5ZM17.28 23.66C17.27 23.68 17.25 23.7 17.24 23.72C17.19 23.79 17.14 23.85 17.09 23.92V23.93C16.91 24.15 16.72 24.38 16.51 24.6C16.49 24.61 16.48 24.63 16.46 24.64C16.26 24.84 16.05 25.03 15.82 25.22C15.77 25.25 15.74 25.29 15.7 25.32C15.48 25.49 15.24 25.65 15 25.8C14.93 25.85 14.87 25.9 14.79 25.94C14.51 26.11 14.21 26.27 13.89 26.43C13.85 26.45 13.81 26.48 13.76 26.5C13.72 26.48 13.68 26.45 13.64 26.43C13.32 26.27 13.01 26.11 12.74 25.94C12.66 25.9 12.6 25.85 12.52 25.8C12.28 25.65 12.05 25.49 11.84 25.32C11.79 25.29 11.75 25.25 11.7 25.21C11.48 25.03 11.27 24.84 11.07 24.65C11.05 24.63 11.03 24.61 11.01 24.58C10.8 24.37 10.62 24.16 10.45 23.93C10.44 23.93 10.44 23.92 10.44 23.92C10.39 23.86 10.35 23.8 10.31 23.74C10.29 23.71 10.26 23.69 10.25 23.66C9.2 22.12 8.92 20.34 8.92 18.42C8.92 17.16 9.04 15.85 9.14 14.5H18.39C18.65 17.91 19.02 21.12 17.28 23.66Z" fill="#E3E7EA"/>
<path d="M16.7001 20.2C16.1201 20.08 15.5201 19.98 14.9301 19.98H14.2801V21.72C14.1201 21.67 13.9501 21.63 13.7601 21.63C13.5801 21.63 13.4101 21.67 13.2501 21.73V19.98H12.6001C12.0101 19.98 11.4101 20.08 10.8301 20.2C11.0001 19.64 11.0001 19.3 10.8301 18.74C11.4101 18.86 12.0101 18.96 12.6001 18.96H13.2501V17.79H13.1101C12.5201 17.79 11.9201 17.9 11.3401 18.01C11.5101 17.45 11.5101 17.11 11.3401 16.56C11.9201 16.67 12.5201 16.78 13.1101 16.78H13.2501V16.7C13.2501 16.12 13.1401 15.53 13.0301 14.96C13.5901 15.13 13.9401 15.13 14.5001 14.96C14.3901 15.53 14.2801 16.12 14.2801 16.7V16.78H14.4201C15.0101 16.78 15.6101 16.67 16.1901 16.56C16.0201 17.11 16.0201 17.45 16.1901 18.01C15.6101 17.9 15.0101 17.79 14.4201 17.79H14.2801V18.96H14.9301C15.5201 18.96 16.1201 18.86 16.7001 18.74C16.5301 19.3 16.5301 19.64 16.7001 20.2Z" fill="#E3E7EA"/>
<path d="M18.5039 21.995C18.2159 22.924 17.7179 23.767 17.0859 24.5H38.5019V16.499H18.9059C19.0319 18.346 19.0679 20.212 18.5039 21.995Z" fill="#2D3B9D"/>
<path d="M9.026 21.995C8.461 20.213 8.499 18.346 8.625 16.499H2.5V24.5H10.443C9.81 23.767 9.314 22.924 9.026 21.995Z" fill="#2D3B9D"/>
<path d="M12.4584 23.9191C12.3174 23.6911 12.2324 23.4271 12.2324 23.1401C12.2324 22.9881 12.2624 22.8431 12.3054 22.7041C12.0854 22.4761 11.7794 22.3301 11.4354 22.3301C10.7704 22.3301 10.2324 22.8611 10.2324 23.5141C10.2324 23.5631 10.2404 23.6101 10.2454 23.6571V23.6601C10.2634 23.6861 10.2854 23.7111 10.3044 23.7381C10.3474 23.7991 10.3954 23.8581 10.4414 23.9181H12.4584V23.9191Z" fill="#2D3B9D"/>
<path d="M12.4585 23.9189H14.9705C14.9235 23.7919 14.8875 23.6589 14.8875 23.5149C14.8875 23.2009 15.0175 22.9179 15.2205 22.7059C15.0805 22.2489 14.7295 21.8849 14.2765 21.7239C14.1155 21.6669 13.9435 21.6299 13.7625 21.6299C13.5815 21.6299 13.4095 21.6669 13.2475 21.7239C12.7945 21.8849 12.4445 22.2479 12.3035 22.7039C12.2605 22.8429 12.2305 22.9869 12.2305 23.1399C12.2305 23.4259 12.3155 23.6909 12.4565 23.9189H12.4585Z" fill="#2D3B9D"/>
<path d="M16.0927 22.3311C15.7477 22.3311 15.4417 22.4781 15.2217 22.7061C15.0187 22.9181 14.8887 23.2001 14.8887 23.5151C14.8887 23.6581 14.9247 23.7921 14.9717 23.9191H17.0867C17.1367 23.8531 17.1897 23.7881 17.2367 23.7211C17.2517 23.7001 17.2697 23.6801 17.2837 23.6591C17.2837 23.6591 17.2837 23.6581 17.2837 23.6571C17.2907 23.6111 17.2977 23.5641 17.2977 23.5151C17.2977 22.8611 16.7567 22.3311 16.0927 22.3311Z" fill="#2D3B9D"/>
<path d="M14.9715 23.9189H10.4355C10.4355 23.9189 10.4435 23.9279 10.4475 23.9329C10.4585 23.9479 10.4735 23.9619 10.4855 23.9759C10.6425 24.1799 10.8145 24.3789 11.0025 24.5729C11.0055 24.5759 11.0085 24.5799 11.0115 24.5839C11.0325 24.6049 11.0515 24.6269 11.0725 24.6489C11.2645 24.8429 11.4795 25.0299 11.7055 25.2129C11.7505 25.2489 11.7905 25.2869 11.8365 25.3229C12.0475 25.4879 12.2835 25.6459 12.5255 25.8019C12.5975 25.8479 12.6615 25.8969 12.7365 25.9429C13.0145 26.1119 13.3175 26.2729 13.6355 26.4309C13.6815 26.4529 13.7175 26.4789 13.7645 26.5009C13.8105 26.4789 13.8475 26.4539 13.8925 26.4319C14.2115 26.2749 14.5155 26.1129 14.7935 25.9429C14.8665 25.8989 14.9285 25.8509 14.9995 25.8059C15.2445 25.6489 15.4825 25.4889 15.6955 25.3229C15.7375 25.2899 15.7755 25.2549 15.8165 25.2209C16.0475 25.0339 16.2655 24.8429 16.4615 24.6459C16.4775 24.6299 16.4915 24.6129 16.5075 24.5969C16.5145 24.5889 16.5205 24.5819 16.5275 24.5739C16.7165 24.3779 16.8905 24.1769 17.0485 23.9709C17.0605 23.9559 17.0755 23.9419 17.0875 23.9259C17.0895 23.9239 17.0915 23.9219 17.0925 23.9199H14.9725L14.9715 23.9189Z" fill="#2D3B9D"/>
</svg>
