<svg width="41" height="41" viewBox="0 0 41 41" fill="none" xmlns="http://www.w3.org/2000/svg">
<path d="M20.9755 16.1202C21.0555 15.9212 21.3075 15.8422 21.3075 15.8422C21.3075 15.8422 21.4325 15.9232 21.5065 16.1862C21.6785 16.0262 21.8905 16.0002 21.8905 16.0002C21.8905 16.0002 21.9965 16.1592 21.9825 16.3582C22.8445 15.7882 22.1145 15.6292 21.6645 15.5492C21.4465 15.5102 21.1805 15.4153 20.9615 15.2812C20.9655 15.3212 20.9755 15.3573 20.9755 15.3993C20.9755 15.5943 20.9275 15.7712 20.8535 15.9002C20.9005 15.9602 20.9445 16.0322 20.9755 16.1182V16.1202Z" fill="#E3E7EA"/>
<path d="M34.5 8.50005H6.5C4.291 8.50005 2.5 10.291 2.5 12.5V20.5H14.872C14.69 20.113 14.916 19.727 14.916 19.727L15.393 20.131C15.393 20.131 15.419 20.018 15.313 19.501C15.207 18.983 15.631 18.705 15.631 18.705L16.135 19.434C16.135 19.434 16.188 18.255 17.076 17.883C17.354 18.44 17.076 18.957 17.076 18.957C17.076 18.957 17.222 19.581 16.904 20.131C16.969 20.262 16.999 20.386 17.009 20.5H17.25C17.389 18.348 18.476 17.884 18.959 17.884C19.025 17.884 19.085 17.902 19.148 17.911C19.015 17.848 18.939 17.776 18.931 17.704C18.931 17.433 18.496 16.823 18.164 16.756C18.23 16.624 18.414 16.665 18.414 16.665C18.414 16.665 18.002 15.962 18.162 15.631C18.321 15.299 18.944 15.312 19.448 15.259C19.952 15.207 20.044 14.981 20.044 14.981L19.912 14.822C19.912 14.822 20.163 14.769 20.111 14.596C20.058 14.423 20.271 14.436 20.271 14.436C20.271 14.436 20.112 14.277 20.179 14.131C20.245 13.985 20.391 13.945 20.391 13.945C20.391 13.945 20.484 13.733 20.391 13.667C20.299 13.601 20.086 13.853 20.086 13.601C20.086 13.349 20.324 13.561 20.391 13.469C20.458 13.376 20.272 13.137 20.551 13.137C20.83 13.137 20.643 13.376 20.709 13.467C20.775 13.56 21.014 13.347 21.014 13.599C21.014 13.851 20.802 13.599 20.709 13.665C20.616 13.731 20.709 13.943 20.709 13.943C20.709 13.943 20.855 13.983 20.921 14.129C20.988 14.274 20.829 14.433 20.829 14.433C20.829 14.433 21.041 14.42 20.988 14.592C20.935 14.765 21.187 14.818 21.187 14.818L21.055 14.977C21.055 14.977 21.147 15.203 21.651 15.255C22.155 15.308 22.778 15.295 22.937 15.627C23.096 15.959 22.685 16.661 22.685 16.661C22.685 16.661 22.871 16.621 22.937 16.754C22.606 16.82 22.17 17.43 22.17 17.701C22.162 17.773 22.086 17.845 21.952 17.909C22.015 17.899 22.075 17.882 22.141 17.882C22.624 17.882 23.711 18.346 23.85 20.498H23.991C24.002 20.384 24.031 20.261 24.096 20.129C23.778 19.579 23.924 18.955 23.924 18.955C23.924 18.955 23.646 18.438 23.924 17.881C24.812 18.253 24.865 19.432 24.865 19.432L25.369 18.703C25.369 18.703 25.793 18.981 25.687 19.499C25.581 20.016 25.607 20.129 25.607 20.129L26.084 19.725C26.084 19.725 26.31 20.11 26.128 20.498H38.499V12.498C38.499 10.289 36.708 8.49805 34.499 8.49805L34.5 8.50005Z" fill="#E3E7EA"/>
<path d="M19.6152 18.0488C19.8472 18.1568 20.0592 18.2938 20.2582 18.4008C20.3642 18.2678 20.5502 18.2808 20.5502 18.2808C20.5502 18.2808 20.7362 18.2678 20.8422 18.4008C21.0412 18.2948 21.2532 18.1568 21.4852 18.0488C21.2372 18.0938 20.9252 18.1228 20.5502 18.1228C20.1752 18.1228 19.8632 18.0938 19.6152 18.0488Z" fill="#E3E7EA"/>
<path d="M19.2114 16.0012C19.2114 16.0012 19.4234 16.0272 19.5954 16.1872C19.6684 15.9252 19.7944 15.8432 19.7944 15.8432C19.7944 15.8432 20.0464 15.9232 20.1264 16.1212C20.1574 16.0372 20.1994 15.9662 20.2454 15.9062C20.1694 15.7752 20.1214 15.5972 20.1214 15.4002C20.1214 15.3592 20.1304 15.3252 20.1354 15.2852C19.9184 15.4172 19.6534 15.5122 19.4374 15.5502C18.9864 15.6292 18.2574 15.7892 19.1204 16.3592C19.1064 16.1602 19.2114 16.0012 19.2114 16.0012Z" fill="#E3E7EA"/>
<path d="M16.8506 21.132C16.8506 21.132 17.1156 21.41 17.0626 21.824C17.0096 22.238 17.2226 22.125 17.2226 22.125C17.2226 22.125 17.2096 22.457 17.3816 22.722C17.5546 22.988 17.5416 23.398 17.5416 23.398C17.5416 23.398 18.0596 23.69 18.3236 24.127C18.5886 24.564 18.7346 24.684 19.6486 25.108C19.7076 25.135 19.7446 25.172 19.7986 25.201C19.9296 25.225 20.0676 25.235 20.2086 25.249C19.3626 24.871 17.2216 23.648 17.2216 20.945C17.2216 20.78 17.2396 20.647 17.2486 20.499H17.0076C17.0426 20.873 16.8496 21.131 16.8496 21.131L16.8506 21.132Z" fill="#2C7EC4"/>
<path d="M20.8916 25.25C20.9826 25.241 21.0766 25.239 21.1636 25.225C21.2296 25.188 21.2786 25.142 21.3516 25.108C22.2666 24.684 22.4126 24.564 22.6766 24.127C22.9406 23.69 23.4586 23.398 23.4586 23.398C23.4586 23.398 23.4446 22.987 23.6176 22.722C23.7906 22.457 23.7776 22.125 23.7776 22.125C23.7776 22.125 23.9896 22.238 23.9366 21.824C23.8836 21.41 24.1486 21.132 24.1486 21.132C24.1486 21.132 23.9556 20.874 23.9906 20.5H23.8496C23.8596 20.648 23.8776 20.781 23.8776 20.946C23.8776 23.648 21.7366 24.872 20.8906 25.25H20.8916Z" fill="#2C7EC4"/>
<path d="M25.953 20.748C25.476 21.199 25.396 21.332 25.396 21.332C25.396 21.332 25.634 21.2 25.634 21.412C25.634 21.624 25.581 21.717 25.581 21.717L26.205 21.2C26.205 21.2 26.39 21.903 25.952 22.301C25.514 22.699 25.249 22.845 25.249 22.845C25.249 22.845 26.084 22.607 26.071 22.666C26.057 22.725 25.899 23.163 25.475 23.402C25.051 23.641 24.733 23.734 24.733 23.734L25.595 23.89C25.595 23.89 25.383 24.504 24.879 24.504C24.375 24.504 23.898 24.344 23.898 24.344C23.898 24.344 24.256 24.636 24.362 24.861C24.468 25.087 24.773 25.113 24.773 25.113C24.773 25.113 24.495 25.405 23.977 25.311C23.459 25.218 23.393 24.515 22.757 24.741C22.508 24.829 22.181 24.947 21.854 25.091C22.174 25.02 22.439 24.97 22.606 25.044C22.964 25.203 22.898 25.256 22.872 25.388C22.859 25.456 22.842 25.582 22.825 25.716C23.254 25.843 23.485 26.085 24.224 25.76C24.264 25.958 23.946 26.264 23.946 26.264C23.946 26.264 24.423 26.278 24.649 26.198C24.529 26.688 23.973 26.874 23.509 26.834C23.045 26.794 22.753 26.449 22.216 26.569C21.723 26.679 21.362 26.816 21.388 26.096C21.352 26.104 21.32 26.106 21.282 26.117C21.125 26.164 20.993 26.19 20.877 26.208C21.02 26.422 21.151 26.638 21.278 26.847C21.387 27.026 21.057 27.045 20.976 26.849C20.913 26.692 20.81 26.566 20.588 26.241C20.551 26.242 20.531 26.241 20.531 26.241C20.531 26.241 20.485 26.24 20.419 26.235C20.195 26.564 20.091 26.69 20.028 26.849C19.948 27.046 19.617 27.026 19.727 26.847C19.857 26.634 19.99 26.414 20.137 26.195C20.045 26.177 19.942 26.153 19.824 26.117C19.786 26.106 19.754 26.104 19.718 26.096C19.744 26.816 19.383 26.679 18.89 26.569C18.353 26.449 18.061 26.794 17.597 26.834C17.133 26.874 16.576 26.688 16.457 26.198C16.683 26.278 17.16 26.264 17.16 26.264C17.16 26.264 16.842 25.959 16.882 25.76C17.622 26.085 17.852 25.843 18.282 25.716C18.265 25.582 18.248 25.456 18.235 25.388C18.208 25.256 18.142 25.203 18.5 25.044C18.633 24.985 18.839 25.012 19.073 25.057C18.772 24.929 18.476 24.822 18.247 24.741C17.611 24.515 17.544 25.219 17.027 25.311C16.509 25.404 16.231 25.113 16.231 25.113C16.231 25.113 16.536 25.087 16.642 24.861C16.748 24.636 17.106 24.344 17.106 24.344C17.106 24.344 16.629 24.504 16.125 24.504C15.621 24.504 15.409 23.89 15.409 23.89L16.271 23.734C16.271 23.734 15.953 23.64 15.529 23.402C15.105 23.164 14.946 22.726 14.933 22.666C14.92 22.607 15.755 22.845 15.755 22.845C15.755 22.845 15.49 22.699 15.052 22.301C14.615 21.903 14.799 21.2 14.799 21.2L15.424 21.717C15.424 21.717 15.371 21.624 15.371 21.412C15.371 21.2 15.609 21.332 15.609 21.332C15.609 21.332 15.529 21.199 15.052 20.748C14.967 20.668 14.915 20.584 14.876 20.5H2.5V28.504C2.5 30.711 4.289 32.5 6.495 32.5H34.504C36.435 32.5 38.046 31.13 38.418 29.309C38.471 29.049 38.499 28.78 38.499 28.504V20.5H26.128C26.089 20.584 26.038 20.668 25.953 20.748Z" fill="#2C7EC4"/>
<path d="M20.5506 18.1219C20.9266 18.1219 21.2376 18.0939 21.4856 18.0479C21.6306 17.9809 21.7876 17.9349 21.9516 17.9099C22.0856 17.8459 22.1616 17.7749 22.1696 17.7019C21.8636 17.3639 20.5506 17.3369 20.5506 17.3369C20.5506 17.3369 19.2376 17.3639 18.9316 17.7019C18.9396 17.7739 19.0156 17.8459 19.1486 17.9089C19.3136 17.9339 19.4696 17.9789 19.6156 18.0469C19.8636 18.0919 20.1756 18.1199 20.5506 18.1199V18.1219Z" fill="#F4900C"/>
<path d="M20.2096 25.2498C20.3236 25.2608 20.4316 25.2808 20.5506 25.2808C20.6696 25.2808 20.7776 25.2608 20.8916 25.2498C21.7376 24.8718 23.8786 23.6478 23.8786 20.9458C23.8786 20.7808 23.8606 20.6478 23.8506 20.4998C23.7116 18.3468 22.6246 17.8838 22.1416 17.8838C22.0756 17.8838 22.0156 17.9018 21.9526 17.9108C21.7876 17.9358 21.6316 17.9808 21.4866 18.0488C21.2546 18.1568 21.0416 18.2948 20.8436 18.4008C20.7376 18.2678 20.5516 18.2808 20.5516 18.2808C20.5516 18.2808 20.3656 18.2668 20.2596 18.4008C20.0606 18.2948 19.8486 18.1568 19.6166 18.0488C19.4716 17.9808 19.3146 17.9358 19.1496 17.9108C19.0866 17.9008 19.0266 17.8838 18.9606 17.8838C18.4766 17.8838 17.3906 18.3478 17.2516 20.4998C17.2416 20.6478 17.2246 20.7808 17.2246 20.9458C17.2246 23.6488 19.3656 24.8718 20.2116 25.2498H20.2096ZM18.6416 19.0768C18.6416 19.0768 18.9186 19.4078 19.3106 19.2748C19.7026 19.1418 20.2596 18.7048 20.2596 18.7048C20.2596 18.7048 20.3576 18.8298 20.5366 18.8358C20.7156 18.8288 20.8136 18.7048 20.8136 18.7048C20.8136 18.7048 21.3706 19.1428 21.7636 19.2748C22.1566 19.4078 22.4316 19.0768 22.4316 19.0768C22.4316 19.0768 23.0016 19.3028 23.0016 21.2778C23.0016 21.9198 22.7326 22.5428 22.3806 23.0998C22.3826 23.0998 22.3836 23.0998 22.3856 23.1008C22.3736 23.1208 22.3586 23.1388 22.3466 23.1578C22.2916 23.2418 22.2366 23.3218 22.1776 23.4028C22.1166 23.4868 22.0546 23.5688 21.9916 23.6488C21.8896 23.7778 21.7896 23.8978 21.6856 24.0138C21.6276 24.0788 21.5706 24.1438 21.5136 24.2038C21.4446 24.2768 21.3806 24.3428 21.3136 24.4078C21.2576 24.4638 21.2056 24.5138 21.1526 24.5638C21.0636 24.6478 20.9866 24.7198 20.9116 24.7858C20.8606 24.8308 20.8126 24.8738 20.7696 24.9098C20.7256 24.9468 20.6966 24.9718 20.6636 24.9988C20.6366 25.0208 20.6196 25.0348 20.5996 25.0498C20.5856 25.0608 20.5576 25.0848 20.5486 25.0918V25.1098L20.5376 25.1008L20.5266 25.1098V25.0918C20.5006 25.0708 20.4436 25.0258 20.3746 24.9688C20.3606 24.9578 20.3516 24.9488 20.3356 24.9368C20.2606 24.8738 20.1736 24.7988 20.0686 24.7038C20.0426 24.6808 20.0166 24.6548 19.9896 24.6298C19.9086 24.5548 19.8236 24.4728 19.7346 24.3828C19.6846 24.3328 19.6376 24.2848 19.5856 24.2308C19.4846 24.1258 19.3826 24.0138 19.2806 23.8938C19.2256 23.8308 19.1746 23.7648 19.1206 23.6978C19.0396 23.5968 18.9606 23.4928 18.8826 23.3848C18.8336 23.3168 18.7876 23.2508 18.7406 23.1798C18.7266 23.1578 18.7106 23.1378 18.6956 23.1148C18.6976 23.1148 18.6996 23.1148 18.7016 23.1128C18.3456 22.5528 18.0736 21.9248 18.0736 21.2798C18.0736 19.3048 18.6436 19.0788 18.6436 19.0788L18.6416 19.0768Z" fill="#FFAC33"/>
<path d="M20.5509 17.3386C20.5509 17.3386 21.8639 17.3646 22.1699 17.7036C22.1699 17.4326 22.6059 16.8226 22.9369 16.7566C22.8709 16.6246 22.6849 16.6636 22.6849 16.6636C22.6849 16.6636 23.0959 15.9616 22.9369 15.6296C22.7769 15.2976 22.1549 15.3116 21.6509 15.2576C21.1469 15.2056 21.0549 14.9796 21.0549 14.9796L21.1869 14.8206C21.1869 14.8206 20.9349 14.7686 20.9879 14.5946C21.0409 14.4226 20.8289 14.4356 20.8289 14.4356C20.8289 14.4356 20.9879 14.2766 20.9209 14.1316C20.8549 13.9856 20.7089 13.9456 20.7089 13.9456C20.7089 13.9456 20.6159 13.7336 20.7089 13.6676C20.8009 13.6016 21.0139 13.8536 21.0139 13.6016C21.0139 13.3496 20.7759 13.5616 20.7089 13.4696C20.6439 13.3776 20.8289 13.1396 20.5509 13.1396C20.2729 13.1396 20.4579 13.3786 20.3909 13.4716C20.3249 13.5646 20.0859 13.3516 20.0859 13.6036C20.0859 13.8556 20.2979 13.6036 20.3909 13.6696C20.4839 13.7356 20.3909 13.9476 20.3909 13.9476C20.3909 13.9476 20.2449 13.9876 20.1789 14.1336C20.1129 14.2796 20.2709 14.4386 20.2709 14.4386C20.2709 14.4386 20.0589 14.4246 20.1109 14.5986C20.1639 14.7706 19.9119 14.8246 19.9119 14.8246L20.0439 14.9836C20.0439 14.9836 19.9519 15.2096 19.4479 15.2616C18.9439 15.3146 18.3209 15.3016 18.1619 15.6336C18.0019 15.9656 18.4139 16.6676 18.4139 16.6676C18.4139 16.6676 18.2299 16.6256 18.1639 16.7586C18.4959 16.8246 18.9309 17.4346 18.9309 17.7066C19.2369 17.3696 20.5499 17.3416 20.5499 17.3416L20.5509 17.3386ZM20.9609 15.2816C21.1799 15.4156 21.4459 15.5106 21.6639 15.5496C22.1149 15.6296 22.8439 15.7886 21.9819 16.3586C21.9959 16.1596 21.8899 16.0006 21.8899 16.0006C21.8899 16.0006 21.6779 16.0266 21.5059 16.1866C21.4319 15.9236 21.3069 15.8426 21.3069 15.8426C21.3069 15.8426 21.0549 15.9216 20.9749 16.1206C20.9439 16.0346 20.8999 15.9626 20.8529 15.9026C20.9279 15.7726 20.9749 15.5966 20.9749 15.4016C20.9749 15.3596 20.9649 15.3236 20.9609 15.2836V15.2816ZM19.4379 15.5496C19.6539 15.5116 19.9189 15.4176 20.1359 15.2846C20.1319 15.3236 20.1219 15.3586 20.1219 15.3996C20.1219 15.5966 20.1699 15.7746 20.2459 15.9056C20.1999 15.9646 20.1579 16.0366 20.1269 16.1206C20.0469 15.9226 19.7949 15.8426 19.7949 15.8426C19.7949 15.8426 19.6689 15.9246 19.5959 16.1866C19.4239 16.0266 19.2119 16.0006 19.2119 16.0006C19.2119 16.0006 19.1059 16.1596 19.1199 16.3586C18.2569 15.7886 18.9869 15.6286 19.4379 15.5496Z" fill="#FFAC33"/>
<path d="M18.0713 21.2781C18.0713 21.9241 18.3433 22.5521 18.6993 23.1111C18.7103 23.1061 18.7193 23.1061 18.7303 23.1011C18.7303 23.1011 18.7293 23.1011 18.7293 23.1001C18.8003 22.8731 18.8413 22.6981 18.8413 22.5371V21.5701C18.8413 21.5701 18.7213 21.5091 18.6623 21.4291C18.6423 21.4021 18.6293 21.3731 18.6293 21.3431V20.9851L18.8413 20.9051V20.9071V21.1431L19.0523 21.0641V20.8521H19.2123V21.0781L19.3983 21.1181V20.9201L19.6363 20.9861V21.3181C19.6363 21.3181 19.4503 21.5161 19.4503 21.5701V22.5381C19.4503 22.5841 19.5183 22.7951 19.5873 22.9961C19.6843 23.0151 19.7553 23.0351 19.7553 23.0351C19.7553 23.0351 19.8663 22.8881 20.0813 22.7781C20.1033 22.7051 20.1243 22.6321 20.1383 22.5681C20.1423 22.5511 20.1423 22.5361 20.1453 22.5191C20.1593 22.4421 20.1703 22.3691 20.1703 22.3001V21.3321C20.1703 21.3321 19.9583 21.2261 19.9583 21.1061V20.7481L20.1703 20.6681L20.1783 20.6661V20.9031L20.3823 20.8261V20.6141H20.3903V20.6121H20.5503V20.8381L20.7363 20.8781V20.6801L20.9743 20.7461V21.0781C20.9743 21.0781 20.7883 21.2761 20.7883 21.3301V22.2981C20.7883 22.3411 20.8483 22.5291 20.9123 22.7181C21.2273 22.8191 21.3853 23.0211 21.3853 23.0211C21.3853 23.0211 21.3973 23.0171 21.3983 23.0161C21.4193 22.9431 21.4413 22.8711 21.4553 22.8081C21.4603 22.7871 21.4613 22.7671 21.4643 22.7461C21.4773 22.6731 21.4883 22.6031 21.4883 22.5381V21.5701C21.4883 21.5701 21.2763 21.4641 21.2763 21.3441V20.9861L21.4883 20.9061V20.9081L21.4963 20.9051V21.1421L21.7013 21.0651V20.8531L21.7093 20.8551V20.8521H21.8683V21.0781L22.0543 21.1181V20.9201L22.2923 20.9861V21.3181C22.2923 21.3181 22.1063 21.5161 22.1063 21.5701V22.5381C22.1063 22.5891 22.1913 22.8471 22.2683 23.0681C22.3073 23.0811 22.3383 23.0841 22.3793 23.1011C22.7313 22.5441 23.0003 21.9211 23.0003 21.2791C23.0003 19.3041 22.4303 19.0781 22.4303 19.0781C22.4303 19.0781 22.1553 19.4101 21.7623 19.2761C21.3693 19.1431 20.8123 18.7061 20.8123 18.7061C20.8123 18.7061 20.7143 18.8301 20.5353 18.8371C20.3563 18.8311 20.2583 18.7061 20.2583 18.7061C20.2583 18.7061 19.7013 19.1441 19.3093 19.2761C18.9173 19.4081 18.6403 19.0781 18.6403 19.0781C18.6403 19.0781 18.0703 19.3041 18.0703 21.2791L18.0713 21.2781ZM21.8543 19.5941C22.4523 19.5941 22.0543 20.1311 22.0543 20.1311C22.0543 20.1311 21.9223 19.8601 21.8683 19.9391C21.8153 20.0191 22.0073 20.3241 21.9213 20.4961L21.8353 20.6681C21.8353 20.6681 21.7763 20.4161 21.6303 20.2041C21.4843 19.9921 21.5323 19.5951 21.8543 19.5941ZM20.5363 19.3561C21.1343 19.3561 20.7363 19.8931 20.7363 19.8931C20.7363 19.8931 20.6043 19.6221 20.5503 19.7001C20.4973 19.7801 20.6893 20.0851 20.6033 20.2571C20.5163 20.4291 20.5173 20.4301 20.5173 20.4301C20.5173 20.4301 20.4583 20.1781 20.3123 19.9661C20.1663 19.7541 20.2143 19.3571 20.5363 19.3561ZM19.1973 19.5941C19.7953 19.5941 19.3973 20.1311 19.3973 20.1311C19.3973 20.1311 19.2653 19.8601 19.2113 19.9391C19.1583 20.0191 19.3503 20.3241 19.2643 20.4961L19.1783 20.6681C19.1783 20.6681 19.1193 20.4161 18.9733 20.2041C18.8273 19.9921 18.8753 19.5951 19.1973 19.5941Z" fill="#A0CFEB"/>
<path d="M19.1781 20.6678L19.2641 20.4958C19.3501 20.3238 19.1591 20.0188 19.2111 19.9388C19.2641 19.8588 19.3971 20.1308 19.3971 20.1308C19.3971 20.1308 19.7951 19.5928 19.1971 19.5938C18.8751 19.5938 18.8271 19.9918 18.9731 20.2038C19.1191 20.4158 19.1781 20.6678 19.1781 20.6678Z" fill="#CCD6DD"/>
<path d="M20.516 20.4295C20.516 20.4295 20.516 20.4295 20.602 20.2565C20.689 20.0845 20.497 19.7795 20.549 19.6995C20.602 19.6205 20.735 19.8925 20.735 19.8925C20.735 19.8925 21.133 19.3545 20.535 19.3555C20.213 19.3555 20.165 19.7535 20.311 19.9655C20.457 20.1775 20.516 20.4295 20.516 20.4295Z" fill="#CCD6DD"/>
<path d="M21.8344 20.6678L21.9204 20.4958C22.0074 20.3238 21.8154 20.0188 21.8674 19.9388C21.9204 19.8588 22.0534 20.1308 22.0534 20.1308C22.0534 20.1308 22.4514 19.5928 21.8534 19.5938C21.5314 19.5938 21.4834 19.9918 21.6294 20.2038C21.7754 20.4158 21.8344 20.6678 21.8344 20.6678Z" fill="#CCD6DD"/>
<path d="M21.867 22.9746C21.984 22.9846 22.117 23.0146 22.268 23.0676C22.191 22.8466 22.106 22.5886 22.106 22.5376V21.5696C22.106 21.5166 22.292 21.3176 22.292 21.3176V20.9856L22.054 20.9196V21.1176L21.868 21.0776V20.8516H21.709V20.8546L21.868 20.8926L21.867 22.9746Z" fill="#CCD6DD"/>
<path d="M20.5086 22.6693C20.5246 22.6693 20.5336 22.6623 20.5506 22.6623C20.6886 22.6623 20.8096 22.6843 20.9126 22.7173C20.8486 22.5283 20.7886 22.3403 20.7886 22.2973V21.3293C20.7886 21.2763 20.9746 21.0773 20.9746 21.0773V20.7453L20.7366 20.6793V20.8773L20.5506 20.8373V20.6113H20.3906V20.6133H20.5086V22.6683V22.6693Z" fill="#CCD6DD"/>
<path d="M19.0528 21.0656V20.8536H19.1788V22.9826C19.3488 22.9656 19.4858 22.9756 19.5858 22.9956C19.5168 22.7946 19.4488 22.5836 19.4488 22.5376V21.5696C19.4488 21.5166 19.6348 21.3176 19.6348 21.3176V20.9856L19.3968 20.9196V21.1176L19.2108 21.0776V20.8516H19.0508V21.0636L18.8398 21.1426V21.1446L19.0518 21.0646L19.0528 21.0656Z" fill="#CCD6DD"/>
<path d="M21.8664 22.9741C21.5914 22.9521 21.4204 23.0061 21.3974 23.0161C21.3954 23.0161 21.3844 23.0211 21.3844 23.0211C21.3844 23.0211 21.2264 22.8191 20.9114 22.7181C20.8074 22.6851 20.6874 22.6631 20.5494 22.6631C20.5334 22.6631 20.5234 22.6691 20.5074 22.6701C20.3284 22.6771 20.1914 22.7211 20.0794 22.7781C19.8634 22.8871 19.7534 23.0351 19.7534 23.0351C19.7534 23.0351 19.6824 23.0151 19.5854 22.9961C19.4844 22.9761 19.3474 22.9671 19.1784 22.9831C19.0404 22.9971 18.8914 23.0301 18.7284 23.1021C18.7174 23.1071 18.7084 23.1071 18.6974 23.1121C18.6954 23.1121 18.6934 23.1121 18.6914 23.1141C18.7054 23.1361 18.7214 23.1561 18.7364 23.1791C18.7824 23.2491 18.8304 23.3161 18.8784 23.3841C18.9554 23.4921 19.0344 23.5961 19.1164 23.6971C19.1694 23.7631 19.2224 23.8301 19.2764 23.8931C19.3794 24.0131 19.4814 24.1251 19.5814 24.2301C19.6314 24.2831 19.6814 24.3331 19.7304 24.3821C19.8204 24.4721 19.9044 24.5541 19.9854 24.6291C20.0114 24.6531 20.0394 24.6811 20.0644 24.7031C20.1694 24.7981 20.2564 24.8731 20.3314 24.9361C20.3444 24.9471 20.3574 24.9581 20.3704 24.9681C20.4394 25.0251 20.4964 25.0711 20.5224 25.0911V25.1091L20.5334 25.1001L20.5444 25.1091V25.0911C20.5554 25.0831 20.5784 25.0641 20.5964 25.0491C20.6154 25.0341 20.6334 25.0201 20.6604 24.9981C20.6904 24.9731 20.7274 24.9421 20.7664 24.9091C20.8094 24.8731 20.8574 24.8311 20.9084 24.7851C20.9824 24.7201 21.0624 24.6461 21.1494 24.5631C21.2024 24.5131 21.2544 24.4631 21.3104 24.4071C21.3754 24.3431 21.4424 24.2741 21.5104 24.2031C21.5674 24.1431 21.6244 24.0781 21.6824 24.0131C21.7854 23.8981 21.8874 23.7761 21.9884 23.6481C22.0514 23.5681 22.1134 23.4871 22.1744 23.4021C22.2324 23.3221 22.2884 23.2411 22.3434 23.1571C22.3564 23.1371 22.3704 23.1191 22.3824 23.1001C22.3804 23.1001 22.3794 23.1001 22.3774 23.0991C22.3364 23.0821 22.3054 23.0801 22.2664 23.0661C22.1154 23.0141 21.9824 22.9831 21.8654 22.9731L21.8664 22.9741Z" fill="#8BB273"/>
<path d="M20.9739 26.8471C21.0549 27.0441 21.3849 27.0241 21.2759 26.8451C21.1489 26.6371 21.0179 26.4201 20.8749 26.2061C20.7489 26.2261 20.6429 26.2361 20.5859 26.2381C20.8079 26.5631 20.9109 26.6901 20.9739 26.8471Z" fill="#658D5C"/>
<path d="M15.6043 21.3318C15.6043 21.3318 15.3663 21.1998 15.3663 21.4118C15.3663 21.6238 15.4193 21.7168 15.4193 21.7168L14.7943 21.1998C14.7943 21.1998 14.6103 21.9028 15.0473 22.3008C15.4853 22.6988 15.7503 22.8448 15.7503 22.8448C15.7503 22.8448 14.9153 22.6068 14.9283 22.6658C14.9423 22.7248 15.1003 23.1628 15.5243 23.4018C15.9483 23.6408 16.2663 23.7338 16.2663 23.7338L15.4043 23.8898C15.4043 23.8898 15.6163 24.5038 16.1203 24.5038C16.6243 24.5038 17.1013 24.3438 17.1013 24.3438C17.1013 24.3438 16.7433 24.6358 16.6373 24.8608C16.5313 25.0868 16.2263 25.1128 16.2263 25.1128C16.2263 25.1128 16.5043 25.4048 17.0223 25.3108C17.5393 25.2188 17.6063 24.5148 18.2423 24.7408C18.4723 24.8218 18.7673 24.9288 19.0683 25.0568C19.2823 25.0988 19.5243 25.1518 19.7993 25.2028C19.7453 25.1738 19.7073 25.1368 19.6493 25.1098C18.7343 24.6858 18.5883 24.5658 18.3243 24.1288C18.0593 23.6918 17.5423 23.3998 17.5423 23.3998C17.5423 23.3998 17.5563 22.9888 17.3823 22.7238C17.2103 22.4588 17.2233 22.1268 17.2233 22.1268C17.2233 22.1268 17.0113 22.2398 17.0633 21.8258C17.1153 21.4118 16.8513 21.1338 16.8513 21.1338C16.8513 21.1338 17.0443 20.8758 17.0093 20.5018C16.9983 20.3878 16.9693 20.2648 16.9043 20.1328C17.2223 19.5828 17.0763 18.9588 17.0763 18.9588C17.0763 18.9588 17.3543 18.4418 17.0763 17.8848C16.1883 18.2568 16.1353 19.4358 16.1353 19.4358L15.6313 18.7068C15.6313 18.7068 15.2073 18.9848 15.3133 19.5028C15.4193 20.0198 15.3933 20.1328 15.3933 20.1328L14.9163 19.7288C14.9163 19.7288 14.6903 20.1138 14.8723 20.5018C14.9113 20.5858 14.9633 20.6698 15.0483 20.7498C15.5253 21.2008 15.6053 21.3338 15.6053 21.3338L15.6043 21.3318Z" fill="#658D5C"/>
<path d="M19.725 26.8444C19.616 27.0234 19.946 27.0424 20.026 26.8464C20.09 26.6884 20.193 26.5614 20.417 26.2324C20.35 26.2274 20.259 26.2174 20.134 26.1924C19.988 26.4104 19.855 26.6314 19.725 26.8444Z" fill="#658D5C"/>
<path d="M24.151 21.1319C24.151 21.1319 23.886 21.4099 23.939 21.8239C23.992 22.2379 23.78 22.1249 23.78 22.1249C23.78 22.1249 23.794 22.4559 23.62 22.7219C23.446 22.9879 23.461 23.3979 23.461 23.3979C23.461 23.3979 22.943 23.6899 22.679 24.1269C22.415 24.5639 22.268 24.6839 21.354 25.1079C21.281 25.1419 21.232 25.1879 21.166 25.2249C21.419 25.1849 21.649 25.1349 21.857 25.0889C22.185 24.9449 22.511 24.8279 22.76 24.7389C23.396 24.5129 23.463 25.2159 23.98 25.3089C24.498 25.4019 24.776 25.1109 24.776 25.1109C24.776 25.1109 24.471 25.0849 24.365 24.8589C24.259 24.6339 23.901 24.3419 23.901 24.3419C23.901 24.3419 24.378 24.5019 24.882 24.5019C25.386 24.5019 25.598 23.8879 25.598 23.8879L24.736 23.7319C24.736 23.7319 25.054 23.6379 25.478 23.3999C25.902 23.1619 26.061 22.7239 26.074 22.6639C26.087 22.6049 25.252 22.8429 25.252 22.8429C25.252 22.8429 25.517 22.6969 25.955 22.2989C26.393 21.9009 26.208 21.1979 26.208 21.1979L25.584 21.7149C25.584 21.7149 25.637 21.6219 25.637 21.4099C25.637 21.1979 25.399 21.3299 25.399 21.3299C25.399 21.3299 25.479 21.1969 25.956 20.7459C26.041 20.6659 26.093 20.5819 26.132 20.4979C26.314 20.1109 26.088 19.7249 26.088 19.7249L25.611 20.1289C25.611 20.1289 25.585 20.0159 25.691 19.4989C25.797 18.9809 25.373 18.7029 25.373 18.7029L24.869 19.4319C24.869 19.4319 24.816 18.2529 23.928 17.8809C23.65 18.4379 23.928 18.9549 23.928 18.9549C23.928 18.9549 23.782 19.5789 24.1 20.1289C24.035 20.2599 24.005 20.3839 23.995 20.4979C23.96 20.8719 24.153 21.1299 24.153 21.1299L24.151 21.1319Z" fill="#658D5C"/>
<path d="M18.8131 26.2348C18.5611 26.4068 18.3491 26.2738 18.3231 26.0758C18.3101 25.9788 18.2941 25.8428 18.2781 25.7148C17.8481 25.8418 17.6181 26.0838 16.8781 25.7588C16.8381 25.9568 17.1561 26.2628 17.1561 26.2628C17.1561 26.2628 16.6791 26.2768 16.4531 26.1968C16.5731 26.6868 17.1291 26.8728 17.5931 26.8328C18.0571 26.7928 18.3491 26.4478 18.8861 26.5678C19.3791 26.6778 19.7401 26.8148 19.7141 26.0948C19.3331 26.0068 19.0421 26.0788 18.8121 26.2358L18.8131 26.2348Z" fill="#E1E8ED"/>
<path d="M22.2881 26.2349C22.0581 26.0779 21.7671 26.0059 21.3861 26.0939C21.3601 26.8139 21.7211 26.6769 22.2141 26.5669C22.7511 26.4469 23.0431 26.7919 23.5071 26.8319C23.9711 26.8719 24.5281 26.6859 24.6471 26.1959C24.4211 26.2759 23.9441 26.2619 23.9441 26.2619C23.9441 26.2619 24.2621 25.9569 24.2221 25.7579C23.4831 26.0829 23.2521 25.8409 22.8231 25.7139C22.8071 25.8419 22.7911 25.9779 22.7781 26.0749C22.7521 26.2739 22.5401 26.4069 22.2881 26.2339V26.2349Z" fill="#E1E8ED"/>
<path d="M20.8909 25.2504C20.7769 25.2614 20.6689 25.2814 20.5499 25.2814C20.4309 25.2814 20.3229 25.2614 20.2089 25.2504C20.0679 25.2364 19.9299 25.2264 19.7989 25.2024C19.5239 25.1514 19.2819 25.0984 19.0679 25.0564C18.8329 25.0114 18.6279 24.9834 18.4949 25.0434C18.1369 25.2024 18.2029 25.2554 18.2299 25.3874C18.2429 25.4554 18.2599 25.5814 18.2769 25.7154C18.2929 25.8444 18.3089 25.9794 18.3219 26.0764C18.3479 26.2744 18.5599 26.4084 18.8119 26.2354C19.0419 26.0784 19.3319 26.0064 19.7139 26.0944C19.7499 26.1024 19.7819 26.1044 19.8199 26.1154C19.9379 26.1514 20.0409 26.1754 20.1329 26.1934C20.2579 26.2184 20.3489 26.2284 20.4159 26.2334C20.4819 26.2384 20.5279 26.2394 20.5279 26.2394C20.5279 26.2394 20.5479 26.2394 20.5849 26.2394C20.6419 26.2374 20.7479 26.2274 20.8739 26.2074C20.9899 26.1894 21.1219 26.1634 21.2789 26.1164C21.3169 26.1054 21.3489 26.1034 21.3849 26.0954C21.7669 26.0064 22.0569 26.0784 22.2869 26.2364C22.5389 26.4084 22.7509 26.2764 22.7769 26.0774C22.7899 25.9804 22.8059 25.8444 22.8219 25.7164C22.8389 25.5824 22.8559 25.4564 22.8689 25.3884C22.8949 25.2564 22.9619 25.2034 22.6029 25.0444C22.4369 24.9704 22.1719 25.0204 21.8509 25.0914C21.6429 25.1374 21.4129 25.1874 21.1599 25.2274C21.0729 25.2414 20.9789 25.2434 20.8879 25.2524L20.8909 25.2504ZM22.1099 25.3874C22.1099 25.4694 21.9479 25.7944 20.4539 25.7944C18.9599 25.7944 18.8489 25.4674 18.8489 25.3874C18.8489 25.3064 19.0929 25.5674 20.5869 25.5674C22.0809 25.5674 22.1099 25.3074 22.1099 25.3874Z" fill="#F5F8FA"/>
<path d="M21.8674 22.9745V20.8925L21.7084 20.8545L21.7004 20.8525V21.0645L21.4954 21.1415L21.4874 21.1445V20.9055L21.2754 20.9855V21.3435C21.2754 21.4635 21.4874 21.5695 21.4874 21.5695V22.5375C21.4874 22.6025 21.4764 22.6735 21.4634 22.7455C21.4594 22.7665 21.4584 22.7855 21.4544 22.8075C21.4404 22.8705 21.4194 22.9425 21.3974 23.0155C21.4204 23.0055 21.5904 22.9515 21.8664 22.9735L21.8674 22.9745Z" fill="#99AAB5"/>
<path d="M20.509 22.6693V20.6143H20.383V20.8263L20.179 20.9033L20.171 20.9063V20.6693L19.959 20.7473V21.1053C19.959 21.2253 20.171 21.3313 20.171 21.3313V22.2993C20.171 22.3683 20.16 22.4413 20.146 22.5183C20.143 22.5353 20.142 22.5503 20.139 22.5673C20.125 22.6313 20.104 22.7043 20.082 22.7773C20.194 22.7203 20.33 22.6763 20.509 22.6693Z" fill="#99AAB5"/>
<path d="M19.1799 22.9825V20.8535H19.0539V21.0655L18.8419 21.1455V20.9065L18.6309 20.9865V21.3445C18.6309 21.3735 18.6439 21.4025 18.6639 21.4285C18.7229 21.5085 18.8409 21.5685 18.8429 21.5695V22.5385C18.8429 22.6985 18.8019 22.8735 18.7309 23.0995L18.7319 23.1005C18.8939 23.0285 19.0429 22.9955 19.1819 22.9815L19.1799 22.9825Z" fill="#99AAB5"/>
<path d="M20.5876 25.5677C19.0946 25.5677 18.8496 25.3067 18.8496 25.3877C18.8496 25.4687 18.9606 25.7947 20.4546 25.7947C21.9486 25.7947 22.1106 25.4687 22.1106 25.3877C22.1106 25.3067 22.0796 25.5677 20.5866 25.5677H20.5876Z" fill="#99AAB5"/>
</svg>
