<svg width="41" height="41" viewBox="0 0 41 41" fill="none" xmlns="http://www.w3.org/2000/svg">
<path d="M34.5 8.5H6.5C4.29086 8.5 2.5 10.2909 2.5 12.5V28.5C2.5 30.7091 4.29086 32.5 6.5 32.5H34.5C36.7091 32.5 38.5 30.7091 38.5 28.5V12.5C38.5 10.2909 36.7091 8.5 34.5 8.5Z" fill="#F4EC1A"/>
<path d="M6.495 8.5C4.288 8.5 2.5 10.289 2.5 12.496V28.505C2.5 30.712 4.289 32.501 6.495 32.501H13.671V8.5H6.495Z" fill="#008639"/>
<path d="M38.5001 28.504V12.496C38.5001 10.289 36.7111 8.5 34.5051 8.5H27.3301V32.5H34.5051C36.7121 32.5 38.5001 30.711 38.5001 28.504Z" fill="#E4002A"/>
<path d="M20.5002 16.4873L21.3972 19.2603H24.3012L21.9522 20.9743L22.8492 23.7473L20.5002 22.0343L18.1512 23.7473L19.0482 20.9743L16.6992 19.2603H19.6032L20.5002 16.4873Z" fill="#008639"/>
</svg>
