<svg width="41" height="41" viewBox="0 0 41 41" fill="none" xmlns="http://www.w3.org/2000/svg">
<path d="M34.5 8.5H6.5C4.29086 8.5 2.5 10.2909 2.5 12.5V28.5C2.5 30.7091 4.29086 32.5 6.5 32.5H34.5C36.7091 32.5 38.5 30.7091 38.5 28.5V12.5C38.5 10.2909 36.7091 8.5 34.5 8.5Z" fill="#007831"/>
<path d="M38.5 13.2998H2.5V15.6988H38.5V13.2998Z" fill="#E3E7EA"/>
<path d="M38.5 25.2998H2.5V27.6988H38.5V25.2998Z" fill="#E3E7EA"/>
<path d="M38.5 15.7002H2.5V25.3012H38.5V15.7002Z" fill="#D3003B"/>
<path d="M23.4645 24.9342L20.4945 22.8202L17.5185 24.9282L18.6575 21.5142L15.6875 19.4022L19.3615 19.4052L20.4995 15.9912L21.6325 19.4062L25.3065 19.4092L22.3325 21.5172L23.4645 24.9342Z" fill="#FBCB00"/>
</svg>
