<svg width="41" height="41" viewBox="0 0 41 41" fill="none" xmlns="http://www.w3.org/2000/svg">
<path d="M34.5 8.5H6.5C4.29086 8.5 2.5 10.2909 2.5 12.5V28.5C2.5 30.7091 4.29086 32.5 6.5 32.5H34.5C36.7091 32.5 38.5 30.7091 38.5 28.5V12.5C38.5 10.2909 36.7091 8.5 34.5 8.5Z" fill="#0C4BA1"/>
<path d="M11.5127 15.357H38.4997V12.496C38.4997 10.289 36.7107 8.5 34.5047 8.5H6.4947C5.4737 8.5 4.5527 8.895 3.8457 9.525L11.5127 15.357Z" fill="#161515"/>
<path d="M38.5007 28.5036V25.6426H11.5137L3.84766 31.4746C4.55366 32.1046 5.47566 32.4996 6.49666 32.4996H34.5057C36.7127 32.4996 38.5007 30.7106 38.5007 28.5036Z" fill="#008B1C"/>
<path d="M13.3997 16.7924H38.5007V15.3574H11.5137L13.3997 16.7924Z" fill="#E3E7EA"/>
<path d="M11.5137 25.643H38.5007V24.209H13.3987L11.5137 25.643Z" fill="#E3E7EA"/>
<path d="M13.3994 16.792L17.6504 20.026L18.2734 20.5L13.3984 24.209H38.5004V20.026V16.792H13.3994Z" fill="#EF0000"/>
<path d="M7.26953 24.562L7.52553 24.209H7.26953V24.562Z" fill="#FFDB00"/>
<path d="M10.5634 20.0265L12.0424 17.9895L9.09141 18.9485L7.52441 16.7925L7.26841 16.4385V16.7925V19.5415L5.77741 20.0265L4.31641 20.5005L7.26841 21.4595V24.2095H7.52441L9.09141 22.0515L12.0424 23.0105L10.2184 20.5005L10.5634 20.0265Z" fill="#FFDB00"/>
</svg>
