<svg width="41" height="41" viewBox="0 0 41 41" fill="none" xmlns="http://www.w3.org/2000/svg">
<path d="M34.5 8.5H6.5C4.29086 8.5 2.5 10.2909 2.5 12.5V28.5C2.5 30.7091 4.29086 32.5 6.5 32.5H34.5C36.7091 32.5 38.5 30.7091 38.5 28.5V12.5C38.5 10.2909 36.7091 8.5 34.5 8.5Z" fill="#00B136"/>
<path d="M14.5773 20.5004L9.40234 25.6434H38.4993V15.3574H9.40334L14.5773 20.5004Z" fill="#FBCB00"/>
<path d="M9.40495 15.357L3.67795 9.66504C2.96195 10.379 2.51795 11.363 2.50595 12.451C2.50595 12.466 2.50195 12.48 2.50195 12.495V28.504C2.50195 28.519 2.50595 28.533 2.50595 28.548C2.51795 29.636 2.96195 30.621 3.67795 31.334L9.40495 25.642L14.58 20.499L9.40595 15.356L9.40495 15.357Z" fill="#D3003B"/>
<path d="M21.5525 20.9053L23.5795 19.4413H21.0735L20.2995 17.0723L19.5245 19.4413H17.0195L19.0465 20.9053L18.2715 23.2743L20.2995 21.8103L22.3265 23.2743L21.5525 20.9053Z" fill="black"/>
<path d="M32.6248 20.9053L34.6538 19.4413H32.1468L31.3718 17.0723L30.5978 19.4413H28.0918L30.1188 20.9053L29.3448 23.2743L31.3718 21.8103L33.3998 23.2743L32.6248 20.9053Z" fill="black"/>
</svg>
