<svg width="41" height="41" viewBox="0 0 41 41" fill="none" xmlns="http://www.w3.org/2000/svg">
<path d="M2.5 28.5C2.5 30.709 4.291 32.5 6.5 32.5H34.5C36.709 32.5 38.5 30.709 38.5 28.5V24.5H2.5V28.5Z" fill="#3664B3"/>
<path d="M34.5 8.5H6.5C4.291 8.5 2.5 10.291 2.5 12.5V16.5H38.5V12.5C38.5 10.291 36.709 8.5 34.5 8.5Z" fill="#3664B3"/>
<path d="M2.5 24.5H38.5V16.5H2.5V24.5ZM18.927 23.745C17.844 23.217 17.076 22.167 16.939 20.918L17.338 20.873C17.458 21.978 18.136 22.908 19.093 23.377L18.927 23.745ZM18.129 22.413C18.287 22.462 18.474 22.307 18.447 22.02C18.812 22.15 18.889 21.827 18.889 21.827C18.889 21.827 19.45 22.162 19.068 22.629C18.826 22.926 18.291 22.743 18.129 22.413ZM19.072 23.155C19.249 23.142 19.375 22.915 19.236 22.637C19.652 22.625 19.602 22.271 19.602 22.271C19.602 22.271 20.293 22.386 20.094 23.003C19.968 23.394 19.362 23.419 19.071 23.155H19.072ZM20.453 23.33C20.274 23.33 20.13 23.185 20.13 23.007C20.13 22.829 20.275 22.684 20.453 22.684C20.631 22.684 20.776 22.829 20.776 23.007C20.776 23.185 20.631 23.33 20.453 23.33ZM20.839 23.003C20.64 22.385 21.331 22.271 21.331 22.271C21.331 22.271 21.281 22.625 21.697 22.637C21.558 22.915 21.684 23.142 21.861 23.155C21.571 23.419 20.965 23.394 20.838 23.003H20.839ZM22.043 21.827C22.043 21.827 22.121 22.15 22.485 22.02C22.459 22.307 22.646 22.462 22.804 22.413C22.641 22.743 22.107 22.926 21.864 22.629C21.482 22.162 22.043 21.827 22.043 21.827ZM22.002 23.768L21.838 23.399C22.636 23.022 23.243 22.326 23.51 21.474L23.892 21.602C23.589 22.562 22.902 23.345 22.002 23.768ZM23.447 18.508C23.841 19.084 24.072 19.778 24.072 20.528C24.072 20.674 24.046 20.813 24.028 20.956L23.632 20.883C23.646 20.765 23.668 20.649 23.668 20.528C23.668 19.861 23.461 19.242 23.11 18.73L23.447 18.508ZM22.981 20.471C22.54 20.468 22.613 19.997 22.613 19.997C22.613 19.997 22.831 20.104 22.928 19.839C23.077 19.987 23.251 19.954 23.297 19.843C23.406 20.087 23.261 20.472 22.981 20.47V20.471ZM22.975 19.16C23.118 19.348 23.096 19.729 22.876 19.804C22.73 19.854 22.644 19.797 22.584 19.723C22.592 19.864 22.605 20.217 22.563 20.593C22.566 20.584 22.568 20.576 22.568 20.576C22.568 20.576 22.782 20.739 22.946 20.472C23.077 20.665 23.273 20.667 23.347 20.556C23.412 20.845 23.172 21.233 22.868 21.171C22.585 21.113 22.533 20.918 22.537 20.766C22.497 21.013 22.433 21.256 22.32 21.437C22.315 21.445 22.307 21.451 22.302 21.458L22.356 21.551C22.382 21.407 22.466 21.293 22.466 21.293C22.466 21.293 22.633 21.522 22.878 21.301C22.952 21.536 23.15 21.597 23.259 21.507C23.239 21.821 22.877 22.14 22.588 21.986C22.387 21.878 22.343 21.732 22.353 21.601H22.179C21.792 21.937 21.021 21.983 20.648 21.723C21.141 21.866 21.478 21.786 21.714 21.601H21.066C20.942 21.661 20.803 21.705 20.635 21.715C20.589 21.681 20.55 21.643 20.516 21.601H20.387C20.354 21.643 20.314 21.681 20.268 21.715C20.1 21.705 19.961 21.662 19.836 21.601H19.188C19.423 21.786 19.761 21.866 20.255 21.723C19.882 21.983 19.111 21.938 18.724 21.601H18.578C18.588 21.732 18.544 21.879 18.342 21.986C18.053 22.14 17.691 21.821 17.671 21.507C17.78 21.597 17.978 21.536 18.052 21.301C18.298 21.523 18.465 21.293 18.465 21.293C18.465 21.293 18.488 21.325 18.513 21.375L18.535 21.337C18.467 21.2 18.416 21.044 18.383 20.876C18.358 21.001 18.279 21.126 18.062 21.17C17.757 21.232 17.516 20.844 17.583 20.555C17.657 20.666 17.854 20.664 17.985 20.471C18.121 20.695 18.286 20.621 18.339 20.589C18.321 20.431 18.314 20.279 18.312 20.143C18.297 20.282 18.231 20.469 17.95 20.471C17.67 20.473 17.526 20.088 17.634 19.844C17.68 19.955 17.853 19.988 18.003 19.84C18.096 20.092 18.291 20.009 18.311 20C18.311 19.895 18.314 19.81 18.317 19.75C18.257 19.807 18.18 19.847 18.054 19.804C17.835 19.729 17.813 19.347 17.956 19.16C17.966 19.272 18.093 19.348 18.244 19.258C18.257 19.52 18.452 19.484 18.452 19.484C18.452 19.484 18.438 19.594 18.381 19.689L18.682 19.86C18.682 19.866 18.633 20.411 18.777 20.921L19.096 20.372C19.071 20.2 19.068 20.078 19.068 20.078L18.898 19.982C18.78 19.305 18.88 18.544 18.88 18.544L19.258 18.949C19.25 19.025 19.213 19.509 19.315 19.994L19.584 19.531C19.591 19.403 19.601 19.319 19.601 19.319L19.584 19.3L19.666 19.388L20.382 18.153L21.15 19.477L21.313 19.303L21.299 19.319C21.299 19.319 21.325 19.504 21.319 19.769L21.544 20.156C21.689 19.635 21.641 19.062 21.63 18.961L22.019 18.544C22.019 18.544 22.12 19.305 22.001 19.982L21.831 20.078C21.831 20.078 21.829 20.286 21.772 20.551L22.074 21.071C22.278 20.521 22.219 19.861 22.219 19.86L22.541 19.678C22.49 19.586 22.476 19.485 22.476 19.485C22.476 19.485 22.672 19.521 22.684 19.259C22.836 19.35 22.962 19.273 22.972 19.161L22.975 19.16ZM18.363 18.64C18.35 18.744 18.441 18.781 18.573 18.721C18.535 18.966 18.684 19.019 18.684 19.019C18.684 19.019 18.492 19.352 18.32 19.252C18.158 19.158 18.218 18.791 18.363 18.64ZM22.249 19.019C22.249 19.019 22.399 18.966 22.361 18.721C22.493 18.781 22.583 18.744 22.571 18.64C22.714 18.791 22.774 19.158 22.613 19.252C22.441 19.352 22.249 19.019 22.249 19.019ZM21.229 17.02C21.813 17.143 22.335 17.419 22.777 17.789L22.498 18.081C22.109 17.76 21.652 17.521 21.14 17.414L21.229 17.02ZM20.486 16.94C20.516 16.94 20.543 16.948 20.572 16.949L20.547 17.351C20.526 17.351 20.507 17.345 20.486 17.345C19.481 17.345 18.596 17.82 18.013 18.547L17.682 18.316C18.339 17.484 19.344 16.94 20.486 16.94ZM17.297 18.915L17.661 19.088C17.478 19.446 17.364 19.839 17.329 20.26L16.926 20.25C16.963 19.771 17.091 19.322 17.297 18.915Z" fill="#E3E7EA"/>
<path d="M22.9289 19.8398C22.8319 20.1048 22.6139 19.9978 22.6139 19.9978C22.6139 19.9978 22.5409 20.4678 22.9819 20.4718C23.2619 20.4738 23.4069 20.0888 23.2979 19.8448C23.2519 19.9558 23.0779 19.9878 22.9289 19.8398Z" fill="#1F601A"/>
<path d="M22.8037 22.4122C22.6457 22.4612 22.4587 22.3062 22.4847 22.0192C22.1197 22.1492 22.0427 21.8262 22.0427 21.8262C22.0427 21.8262 21.4817 22.1612 21.8637 22.6282C22.1067 22.9252 22.6407 22.7422 22.8037 22.4122Z" fill="#1F601A"/>
<path d="M21.6967 22.6365C21.2807 22.6245 21.3307 22.2705 21.3307 22.2705C21.3307 22.2705 20.6397 22.3855 20.8387 23.0025C20.9647 23.3935 21.5707 23.4185 21.8617 23.1545C21.6847 23.1415 21.5577 22.9145 21.6967 22.6365Z" fill="#1F601A"/>
<path d="M19.6023 22.2705C19.6023 22.2705 19.6523 22.6245 19.2363 22.6365C19.3753 22.9145 19.2493 23.1415 19.0723 23.1545C19.3623 23.4185 19.9683 23.3935 20.0953 23.0025C20.2943 22.3845 19.6023 22.2705 19.6023 22.2705Z" fill="#1F601A"/>
<path d="M18.6834 19.0196C18.6834 19.0196 18.5344 18.9666 18.5724 18.7216C18.4394 18.7816 18.3494 18.7446 18.3624 18.6406C18.2174 18.7916 18.1574 19.1586 18.3194 19.2526C18.4904 19.3526 18.6834 19.0196 18.6834 19.0196Z" fill="#1F601A"/>
<path d="M22.4785 19.4842C22.4785 19.4842 22.4935 19.5852 22.5435 19.6772L22.5795 19.6562C22.5795 19.6562 22.5815 19.6822 22.5835 19.7232C22.6435 19.7972 22.7295 19.8542 22.8755 19.8042C23.0955 19.7292 23.1175 19.3472 22.9745 19.1602C22.9645 19.2722 22.8385 19.3482 22.6865 19.2582C22.6735 19.5202 22.4785 19.4842 22.4785 19.4842Z" fill="#1F601A"/>
<path d="M22.614 19.2526C22.775 19.1586 22.715 18.7916 22.572 18.6406C22.584 18.7446 22.494 18.7816 22.362 18.7216C22.4 18.9666 22.25 19.0196 22.25 19.0196C22.25 19.0196 22.442 19.3526 22.614 19.2526Z" fill="#1F601A"/>
<path d="M19.0679 22.6282C19.4499 22.1612 18.8889 21.8262 18.8889 21.8262C18.8889 21.8262 18.8119 22.1492 18.4469 22.0192C18.4739 22.3062 18.2859 22.4612 18.1289 22.4122C18.2909 22.7422 18.8259 22.9252 19.0679 22.6282Z" fill="#1F601A"/>
<path d="M17.9872 20.4717C17.8562 20.6647 17.6602 20.6667 17.5852 20.5557C17.5192 20.8447 17.7602 21.2327 18.0642 21.1707C18.2812 21.1267 18.3602 21.0017 18.3852 20.8767C18.3662 20.7817 18.3512 20.6857 18.3412 20.5897C18.2882 20.6207 18.1242 20.6947 17.9872 20.4717Z" fill="#1F601A"/>
<path d="M18.3126 20.0008C18.2926 20.0098 18.0976 20.0928 18.0046 19.8408C17.8546 19.9888 17.6816 19.9558 17.6356 19.8448C17.5276 20.0888 17.6716 20.4738 17.9516 20.4718C18.2326 20.4698 18.2986 20.2828 18.3136 20.1438C18.3136 20.0928 18.3116 20.0458 18.3126 20.0008Z" fill="#1F601A"/>
<path d="M18.3827 19.6892C18.4397 19.5942 18.4537 19.4842 18.4537 19.4842C18.4537 19.4842 18.2587 19.5202 18.2457 19.2582C18.0947 19.3492 17.9677 19.2722 17.9577 19.1602C17.8147 19.3482 17.8367 19.7292 18.0557 19.8042C18.1817 19.8472 18.2587 19.8072 18.3187 19.7502C18.3217 19.6952 18.3247 19.6562 18.3247 19.6562L18.3827 19.6892Z" fill="#1F601A"/>
<path d="M22.3548 21.601C22.3448 21.732 22.3888 21.879 22.5898 21.986C22.8788 22.14 23.2408 21.821 23.2608 21.507C23.1528 21.597 22.9548 21.536 22.8798 21.301C22.6348 21.523 22.4678 21.293 22.4678 21.293C22.4678 21.293 22.3838 21.407 22.3578 21.551L22.3858 21.6L22.3548 21.601Z" fill="#1F601A"/>
<path d="M18.5158 21.375C18.4898 21.325 18.4678 21.293 18.4678 21.293C18.4678 21.293 18.3008 21.522 18.0548 21.301C17.9808 21.536 17.7828 21.597 17.6738 21.507C17.6938 21.821 18.0548 22.14 18.3448 21.986C18.5458 21.878 18.5898 21.732 18.5808 21.601H18.3858L18.5158 21.375Z" fill="#1F601A"/>
<path d="M22.8683 21.1707C23.1733 21.2327 23.4133 20.8447 23.3473 20.5557C23.2733 20.6667 23.0773 20.6647 22.9463 20.4717C22.7833 20.7397 22.5683 20.5757 22.5683 20.5757C22.5683 20.5757 22.5653 20.5837 22.5633 20.5927C22.5573 20.6507 22.5463 20.7077 22.5373 20.7657C22.5333 20.9177 22.5853 21.1127 22.8683 21.1707Z" fill="#1F601A"/>
<path d="M20.4539 22.6826C20.2749 22.6826 20.1309 22.8276 20.1309 23.0056C20.1309 23.1836 20.2759 23.3286 20.4539 23.3286C20.6319 23.3286 20.7769 23.1836 20.7769 23.0056C20.7769 22.8276 20.6319 22.6826 20.4539 22.6826Z" fill="#06209F"/>
<path d="M18.6855 19.8612L18.3845 19.6902L18.3265 19.6572C18.3265 19.6572 18.3235 19.6972 18.3205 19.7512C18.3175 19.8102 18.3145 19.8952 18.3145 20.0012C18.3145 20.0462 18.3145 20.0932 18.3155 20.1442C18.3175 20.2802 18.3255 20.4322 18.3425 20.5902C18.3535 20.6862 18.3685 20.7822 18.3865 20.8772C18.4195 21.0452 18.4705 21.2012 18.5385 21.3382L18.7795 20.9222C18.6355 20.4122 18.6855 19.8672 18.6855 19.8612Z" fill="#06209F"/>
<path d="M20.2586 21.7226C19.7646 21.8656 19.4276 21.7856 19.1916 21.6006H18.7266C19.1136 21.9366 19.8856 21.9826 20.2586 21.7226Z" fill="#06209F"/>
<path d="M20.2708 21.7146C20.3168 21.6806 20.3558 21.6426 20.3898 21.6006H19.8398C19.9638 21.6606 20.1028 21.7046 20.2708 21.7146Z" fill="#06209F"/>
<path d="M19.2613 18.9499L18.8833 18.5449C18.8833 18.5449 18.7833 19.3049 18.9013 19.9829L19.0713 20.0789C19.0713 20.0789 19.0743 20.2009 19.0993 20.3729L19.3193 19.9949C19.2173 19.5099 19.2533 19.0259 19.2613 18.9499Z" fill="#06209F"/>
<path d="M21.8358 20.0789L22.0058 19.9829C22.1238 19.3059 22.0238 18.5449 22.0238 18.5449L21.6348 18.9619C21.6448 19.0629 21.6938 19.6349 21.5488 20.1569L21.7778 20.5519C21.8348 20.2869 21.8358 20.0789 21.8358 20.0789Z" fill="#06209F"/>
<path d="M19.5879 19.2998L19.6049 19.3188C19.6049 19.3188 19.5939 19.4028 19.5879 19.5308L19.6709 19.3878L19.5879 19.2998Z" fill="#06209F"/>
<path d="M21.3033 19.3187L21.3173 19.3027L21.1543 19.4767L21.3233 19.7687C21.3283 19.5037 21.3033 19.3187 21.3033 19.3187Z" fill="#06209F"/>
<path d="M20.6366 21.7146C20.8046 21.7046 20.9436 21.6616 21.0676 21.6006H20.5176C20.5506 21.6426 20.5906 21.6806 20.6366 21.7146Z" fill="#06209F"/>
<path d="M20.6504 21.7226C21.0234 21.9826 21.7944 21.9366 22.1814 21.6006H21.7164C21.4814 21.7856 21.1444 21.8656 20.6504 21.7226Z" fill="#06209F"/>
<path d="M22.5451 19.6782L22.2231 19.8603C22.2231 19.8603 22.2821 20.5222 22.0781 21.0712L22.3031 21.4583C22.3081 21.4503 22.3171 21.4453 22.3211 21.4373C22.4341 21.2553 22.4981 21.0133 22.5381 20.7663C22.5471 20.7083 22.5581 20.6513 22.5641 20.5933C22.6061 20.2183 22.5931 19.8642 22.5851 19.7232C22.5831 19.6822 22.5811 19.6562 22.5811 19.6562L22.5451 19.6782Z" fill="#06209F"/>
<path d="M19.7663 20.2236C19.9813 20.2236 20.0823 20.4706 20.0823 20.4706C20.0823 20.4706 20.1663 20.3376 20.2823 20.3376C20.3983 20.3376 20.4533 20.4706 20.4533 20.4706C20.4533 20.4706 20.5363 20.3406 20.5863 20.3646C20.6363 20.3876 20.7993 20.5866 20.8013 20.5896C20.8013 20.5896 20.8523 20.5026 20.9653 20.4706C21.0783 20.4386 21.1523 20.5866 21.1543 20.5896C21.1543 20.5896 21.2653 20.3516 21.2913 20.4706C21.2973 20.4966 21.3272 20.5416 21.3612 20.5896H21.6103L20.3833 18.4746L19.1562 20.5896H19.3232C19.4832 20.4026 19.6643 20.2236 19.7663 20.2236ZM20.4353 19.5676C20.5193 19.5676 20.5883 19.6356 20.5883 19.7206C20.5883 19.8056 20.5203 19.8736 20.4353 19.8736C20.3503 19.8736 20.2823 19.8056 20.2823 19.7206C20.2823 19.6356 20.3503 19.5676 20.4353 19.5676Z" fill="white"/>
<path d="M21.6111 20.5908H21.3621C21.4851 20.7598 21.7301 21.0108 21.7301 21.0108H18.9951C18.9951 21.0108 19.1481 20.7958 19.3231 20.5908H19.1561L18.6641 21.4398H22.1031L21.6111 20.5908Z" fill="#017E93"/>
<path d="M20.4342 19.8744C20.5182 19.8744 20.5872 19.8064 20.5872 19.7214C20.5872 19.6364 20.5192 19.5684 20.4342 19.5684C20.3492 19.5684 20.2812 19.6364 20.2812 19.7214C20.2812 19.8064 20.3492 19.8744 20.4342 19.8744Z" fill="#E60000"/>
<path d="M21.7768 20.5523L21.5478 20.1573L21.3228 19.7703L21.1538 19.4783L20.3858 18.1543L19.6698 19.3893L19.5868 19.5323L19.3178 19.9953L19.0978 20.3733L18.7788 20.9223L18.5378 21.3383L18.5158 21.3763L18.3848 21.6023H22.3848L22.3568 21.5533L22.3028 21.4603L22.0778 21.0733L21.7758 20.5533L21.7768 20.5523ZM18.6658 21.4403L19.1578 20.5913L20.3848 18.4763L21.6118 20.5913L22.1038 21.4403H18.6658Z" fill="#FFCC01"/>
<path d="M21.294 20.4726C21.268 20.3536 21.158 20.5886 21.157 20.5916C21.156 20.5886 21.081 20.4406 20.968 20.4726C20.855 20.5046 20.806 20.5896 20.805 20.5916C20.803 20.5896 20.64 20.3906 20.59 20.3666C20.54 20.3426 20.457 20.4726 20.457 20.4726C20.457 20.4726 20.401 20.3396 20.286 20.3396C20.171 20.3396 20.086 20.4726 20.086 20.4726C20.086 20.4726 19.985 20.2256 19.77 20.2256C19.668 20.2256 19.488 20.4046 19.328 20.5916C19.152 20.7966 19 21.0106 19 21.0106H21.735C21.735 21.0106 21.49 20.7596 21.367 20.5906C21.332 20.5426 21.302 20.4976 21.297 20.4716L21.294 20.4726Z" fill="#FFCC01"/>
<path d="M22.7796 17.7905C22.3376 17.4215 21.8156 17.1445 21.2316 17.0215L21.1426 17.4145C21.6546 17.5215 22.1116 17.7615 22.5006 18.0815L22.7796 17.7895V17.7905Z" fill="#FFCC01"/>
<path d="M17.6627 19.089L17.2987 18.916C17.0927 19.323 16.9647 19.772 16.9277 20.25L17.3307 20.26C17.3667 19.84 17.4807 19.446 17.6627 19.088V19.089Z" fill="#FFCC01"/>
<path d="M21.8389 23.3996L22.0029 23.7686C22.9029 23.3456 23.5889 22.5636 23.8919 21.6026L23.5099 21.4746C23.2429 22.3276 22.6359 23.0236 21.8379 23.3996H21.8389Z" fill="#FFCC01"/>
<path d="M20.4876 17.3454C20.5086 17.3454 20.5276 17.3514 20.5486 17.3514L20.5736 16.9494C20.5446 16.9494 20.5166 16.9404 20.4876 16.9404C19.3456 16.9404 18.3406 17.4834 17.6836 18.3154L18.0146 18.5464C18.5986 17.8194 19.4836 17.3454 20.4876 17.3454Z" fill="#FFCC01"/>
<path d="M23.6333 20.8838L24.0293 20.9568C24.0473 20.8148 24.0733 20.6758 24.0733 20.5288C24.0733 19.7788 23.8423 19.0848 23.4483 18.5088L23.1113 18.7308C23.4623 19.2418 23.6693 19.8608 23.6693 20.5288C23.6693 20.6498 23.6473 20.7658 23.6333 20.8838Z" fill="#FFCC01"/>
<path d="M17.3404 20.873L16.9414 20.918C17.0784 22.168 17.8464 23.218 18.9294 23.745L19.0964 23.377C18.1394 22.908 17.4614 21.978 17.3404 20.873Z" fill="#FFCC01"/>
</svg>
