<svg width="41" height="41" viewBox="0 0 41 41" fill="none" xmlns="http://www.w3.org/2000/svg">
<path d="M3.937 9.45117C3.065 10.1852 2.5 11.2702 2.5 12.4992V28.4992C2.5 29.7282 3.066 30.8132 3.937 31.5472L20.686 20.4992L3.937 9.45117ZM6.621 17.4522C6.621 17.2482 6.685 17.0572 6.79 16.8842C6.591 16.8822 6.396 16.8842 6.236 16.8882C6.382 16.7422 6.676 16.6582 7.005 16.6212C7.324 16.3122 7.81 16.1112 8.361 16.1112C8.93 16.1112 9.431 16.3252 9.748 16.6512C9.776 16.6452 9.803 16.6402 9.831 16.6332C10.27 16.5332 10.775 16.9042 10.81 16.9722C10.837 17.0272 10.322 16.9302 9.969 16.9422C10.053 17.0992 10.101 17.2722 10.101 17.4522C10.101 17.4872 10.091 17.5202 10.088 17.5542C10.754 17.6062 11.341 17.3092 11.341 17.3092C11.341 17.3092 10.779 18.2082 11.113 20.0052C11.455 21.8402 11.354 22.6762 9.906 22.7302C8.682 22.7762 8.341 23.1442 8.341 23.1442C8.341 23.1442 8 22.7762 6.776 22.7302C5.329 22.6762 5.227 21.8402 5.569 20.0052C5.904 18.2082 5.341 17.3092 5.341 17.3092C5.341 17.3092 5.952 17.6152 6.633 17.5492C6.63 17.5172 6.62 17.4862 6.62 17.4532L6.621 17.4522ZM10.571 23.8782C10.571 23.8782 10.558 23.9672 10.533 24.0552C9.811 24.4732 8.344 24.4982 8.344 24.4982C8.344 24.4982 6.876 24.4732 6.155 24.0552C6.13 23.9662 6.117 23.8782 6.117 23.8782C6.117 23.8782 5.015 23.6502 4.522 22.9042C4.029 22.1582 4.016 20.7402 4.016 20.7402L4.257 20.7152L4.383 19.9932L5.054 20.2082L4.852 21.1822L4.7 21.2202C4.7 21.2202 4.688 22.0052 5.282 22.6132C5.877 23.2202 6.927 23.2202 6.927 23.2202C6.927 23.2202 7.471 23.6122 8.344 23.6122C9.217 23.6122 9.762 23.2202 9.762 23.2202C9.762 23.2202 10.812 23.2202 11.407 22.6132C12.002 22.0052 11.989 21.2202 11.989 21.2202L11.837 21.1822L11.634 20.2082L12.305 19.9932L12.431 20.7152L12.673 20.7402C12.673 20.7402 12.66 22.1572 12.167 22.9042C11.673 23.6512 10.571 23.8782 10.571 23.8782Z" fill="#E3E7EA"/>
<path d="M34.5046 8.5H6.49459C6.23759 8.5 5.98759 8.528 5.74459 8.576C5.60859 8.603 5.47959 8.648 5.34859 8.688C5.25559 8.717 5.15959 8.739 5.06959 8.775C4.89159 8.845 4.72159 8.93 4.55659 9.024C4.52659 9.041 4.49559 9.055 4.46659 9.073C4.28759 9.181 4.11759 9.302 3.95659 9.436C3.94959 9.442 3.94059 9.446 3.93359 9.452H3.93559L20.6846 20.501H38.4986V12.497C38.4986 10.29 36.7096 8.501 34.5036 8.501L34.5046 8.5Z" fill="#DC0024"/>
<path d="M3.93755 31.549H3.93555C3.94255 31.556 3.95155 31.56 3.95855 31.566C4.11855 31.699 4.28955 31.821 4.46855 31.929C4.49755 31.947 4.52855 31.961 4.55855 31.978C4.72255 32.072 4.89355 32.156 5.07155 32.227C5.16155 32.262 5.25755 32.285 5.35055 32.314C5.48155 32.355 5.61055 32.399 5.74655 32.426C5.98955 32.474 6.23855 32.502 6.49655 32.502H34.5055C36.7125 32.502 38.5005 30.713 38.5005 28.506V20.502H20.6865L3.93755 31.549Z" fill="#2C2373"/>
<path d="M7.46737 17.1586C7.33237 17.2426 8.16037 17.2266 8.36037 17.2766C8.56037 17.3266 9.07137 17.2596 9.03737 17.1586C9.00337 17.0576 9.45937 17.0746 9.74637 16.9736C9.80237 16.9536 9.88237 16.9466 9.96837 16.9436C10.3214 16.9316 10.8364 17.0286 10.8094 16.9736C10.7754 16.9056 10.2704 16.5346 9.83038 16.6346C9.80338 16.6406 9.77538 16.6456 9.74738 16.6526C9.33238 16.7446 8.89637 16.8146 8.81737 16.7196C8.73337 16.6186 9.00238 16.6696 9.32338 16.6346C9.64438 16.6006 9.50838 16.4486 9.01938 16.4496C8.53038 16.4496 7.90438 16.1596 8.35838 16.7706C8.11038 16.6266 7.51538 16.5646 7.00338 16.6226C6.67538 16.6596 6.38037 16.7436 6.23438 16.8896C6.39437 16.8846 6.58937 16.8846 6.78837 16.8856C7.32537 16.8906 7.88737 16.9146 7.83737 16.9396C7.77037 16.9736 7.60237 17.0746 7.46737 17.1586Z" fill="#BD725F"/>
<path d="M5.3418 17.3096C5.3418 17.3096 5.9038 18.2076 5.5698 20.0056C5.2278 21.8406 5.3288 22.6766 6.7768 22.7306C8.0008 22.7766 8.3418 23.1446 8.3418 23.1446C8.3418 23.1446 8.6828 22.7766 9.9068 22.7306C11.3538 22.6766 11.4558 21.8406 11.1138 20.0056C10.7788 18.2096 11.3418 17.3096 11.3418 17.3096C11.3418 17.3096 10.7538 17.6076 10.0888 17.5546C9.9968 17.5476 9.9038 17.5336 9.8108 17.5116C8.9628 17.3096 8.3428 17.3986 8.3428 17.6256C8.3428 17.3986 7.7228 17.3086 6.8748 17.5116C6.7938 17.5306 6.7138 17.5406 6.6348 17.5486C5.9538 17.6156 5.3428 17.3086 5.3428 17.3086L5.3418 17.3096ZM7.2908 17.8536C8.0378 17.6386 8.3418 18.0056 8.3418 18.0056C8.3418 18.0056 8.6458 17.6376 9.3928 17.8536C10.1398 18.0696 10.8098 17.8666 10.8098 17.8666C10.8098 17.8666 10.3548 19.0816 10.7848 20.5626C11.2148 22.0436 10.1648 22.2586 9.4558 22.2456C8.7468 22.2326 8.3418 22.6376 8.3418 22.6376C8.3418 22.6376 7.9368 22.2326 7.2278 22.2456C6.5188 22.2586 5.4688 22.0426 5.8988 20.5626C6.3288 19.0826 5.8738 17.8666 5.8738 17.8666C5.8738 17.8666 6.5438 18.0686 7.2908 17.8536Z" fill="#DC181E"/>
<path d="M5.89903 20.5637C5.46903 22.0447 6.51903 22.2597 7.22803 22.2467C7.93703 22.2337 8.34203 22.6387 8.34203 22.6387C8.34203 22.6387 8.74703 22.2337 9.45603 22.2467C10.165 22.2597 11.215 22.0437 10.785 20.5637C10.355 19.0837 10.81 17.8677 10.81 17.8677C10.81 17.8677 10.139 18.0697 9.39303 17.8547C8.64603 17.6397 8.34203 18.0067 8.34203 18.0067C8.34203 18.0067 8.03803 17.6397 7.29103 17.8547C6.54403 18.0707 5.87303 17.8677 5.87303 17.8677C5.87303 17.8677 6.32803 19.0827 5.89803 20.5637H5.89903ZM10.171 18.5707C10.171 18.6497 10.166 18.7127 10.158 18.7667C10.381 18.7937 10.551 18.8897 10.551 19.0077H9.52603C9.52603 18.8897 9.69503 18.7947 9.91903 18.7667C9.91103 18.7137 9.90603 18.6497 9.90603 18.5707C9.90603 18.2807 10.039 18.0457 10.039 18.0457C10.039 18.0457 10.172 18.2807 10.172 18.5707H10.171ZM8.34203 18.0837L9.03803 18.5517H8.83503V18.9187L10.189 19.8167H10.025V20.6017H10.202V20.8927H10.038V21.6277H10.24V21.9947H6.44303V21.6277H6.64603V20.8927H6.48203V20.6017H6.65903V19.8167H6.49503L7.84903 18.9187V18.5517H7.64603L8.34203 18.0837ZM6.15303 18.0837C6.26703 18.0457 6.68403 18.0707 6.82403 18.1847C6.96303 18.2987 7.29203 18.1087 7.41903 18.0837C7.54503 18.0587 7.41903 18.2097 7.31803 18.2987C7.21703 18.3867 7.26803 18.6157 7.26803 18.7287C7.26803 18.8417 7.06503 18.6267 7.06503 18.6267C7.06503 18.6267 6.87503 18.9687 6.83703 19.1707C6.79903 19.3737 6.68503 19.0447 6.68503 19.0447C6.68503 19.0447 6.48303 19.2467 6.43203 19.3237C6.38103 19.4007 6.36903 18.7417 6.43203 18.6527C6.49503 18.5637 6.28003 18.5897 6.20403 18.5517C6.12803 18.5137 6.36803 18.2727 6.36803 18.2727C6.36803 18.2727 6.04003 18.1207 6.15303 18.0837Z" fill="#63B0E2"/>
<path d="M7.84741 18.917L6.49341 19.815H6.65741V20.6H6.48041V20.891H6.64441V21.626H6.44141V21.993H10.2384V21.626H10.0364V20.891H10.2004V20.6H10.0234V19.815H10.1874L8.83341 18.917V18.55H9.03641L8.34041 18.082L7.64441 18.55H7.84741V18.917ZM7.36641 21.498H6.91141V20.904H7.36641V21.498ZM7.36641 20.498H6.91141V19.904H7.36641V20.498ZM9.35341 19.904H9.80841V20.498H9.35341V19.904ZM9.35341 20.904H9.80841V21.498H9.35341V20.904ZM9.12541 20.258V20.688H7.63141V20.258H9.12541ZM8.69541 18.651V18.968H8.01141V18.651H8.69541Z" fill="white"/>
<path d="M10.5495 19.0091H9.51953C9.51953 18.8891 9.68953 18.7891 9.91953 18.7691C9.90953 18.7091 9.89953 18.6491 9.89953 18.5691C9.89953 18.2791 10.0395 18.0391 10.0395 18.0391C10.0395 18.0391 10.1695 18.2791 10.1695 18.5691C10.1695 18.6491 10.1695 18.7091 10.1595 18.7691C10.3795 18.7891 10.5495 18.8891 10.5495 19.0091Z" fill="white"/>
<path d="M6.20354 18.5529C6.27854 18.5909 6.49454 18.5659 6.43154 18.6539C6.36854 18.7419 6.38154 19.4009 6.43154 19.3249C6.48154 19.2489 6.68454 19.0459 6.68454 19.0459C6.68454 19.0459 6.79854 19.3749 6.83654 19.1719C6.87454 18.9699 7.06454 18.6279 7.06454 18.6279C7.06454 18.6279 7.26754 18.8429 7.26754 18.7299C7.26754 18.6169 7.21653 18.3879 7.31753 18.2999C7.41853 18.2109 7.54554 18.0599 7.41854 18.0849C7.29254 18.1099 6.96354 18.2999 6.82354 18.1859C6.68454 18.0719 6.26754 18.0469 6.15253 18.0849C6.03954 18.1219 6.36854 18.2739 6.36854 18.2739C6.36854 18.2739 6.12654 18.5139 6.20354 18.5529Z" fill="#018830"/>
<path d="M8.69767 18.6523H8.01367V18.9693H8.69767V18.6523Z" fill="#B6B6B6"/>
<path d="M9.12681 20.2598H7.63281V20.6898H9.12681V20.2598Z" fill="#B6B6B6"/>
<path d="M7.36711 20.9062H6.91211V21.5002H7.36711V20.9062Z" fill="#B6B6B6"/>
<path d="M9.80852 19.9062H9.35352V20.5002H9.80852V19.9062Z" fill="#B6B6B6"/>
<path d="M9.80852 20.9062H9.35352V21.5002H9.80852V20.9062Z" fill="#B6B6B6"/>
<path d="M7.36711 19.9062H6.91211V20.5002H7.36711V19.9062Z" fill="#B6B6B6"/>
<path d="M8.35986 16.7713C7.90586 16.1603 8.53186 16.4503 9.02086 16.4503C9.50986 16.4503 9.64586 16.6013 9.32486 16.6353C9.00386 16.6703 8.73386 16.6193 8.81886 16.7203C8.89786 16.8153 9.33286 16.7443 9.74886 16.6533C9.43086 16.3273 8.93086 16.1133 8.36186 16.1133C7.81086 16.1133 7.32486 16.3153 7.00586 16.6233C7.51786 16.5663 8.11186 16.6273 8.35986 16.7713Z" fill="#FADA10"/>
<path d="M8.34209 17.6258C8.34209 17.3988 8.96209 17.3088 9.81009 17.5118C9.90309 17.5338 9.99709 17.5478 10.0881 17.5548C10.0911 17.5208 10.1011 17.4878 10.1011 17.4528C10.1011 17.2718 10.0531 17.0998 9.96909 16.9428C9.88309 16.9458 9.80309 16.9528 9.74709 16.9728C9.46009 17.0738 9.00409 17.0568 9.03809 17.1578C9.07209 17.2588 8.56109 17.3268 8.36109 17.2758C8.16109 17.2258 7.33309 17.2418 7.46809 17.1578C7.60309 17.0738 7.77209 16.9728 7.83909 16.9388C7.88909 16.9138 7.32709 16.8898 6.79009 16.8848C6.68409 17.0578 6.62109 17.2488 6.62109 17.4528C6.62109 17.4858 6.63109 17.5168 6.63409 17.5488C6.71409 17.5408 6.79409 17.5308 6.87409 17.5118C7.72109 17.3098 8.34209 17.3988 8.34209 17.6258Z" fill="#FADA10"/>
<path d="M12.4306 20.7161L12.3046 19.9941L11.6336 20.2091L11.8366 21.1831L11.9886 21.2211C11.9886 21.2211 12.0016 22.0061 11.4066 22.6141C10.8116 23.2211 9.76162 23.2211 9.76162 23.2211C9.76162 23.2211 9.21763 23.6131 8.34363 23.6131C7.46963 23.6131 6.92663 23.2211 6.92663 23.2211C6.92663 23.2211 5.87563 23.2211 5.28163 22.6141C4.68663 22.0061 4.69962 21.2211 4.69962 21.2211L4.85162 21.1831L5.05362 20.2091L4.38262 19.9941L4.25662 20.7161L4.01562 20.7411C4.01562 20.7411 4.02862 22.1581 4.52162 22.9051C5.01462 23.6521 6.11663 23.8791 6.11663 23.8791C6.11663 23.8791 6.12962 23.9671 6.15462 24.0561C6.87662 24.4741 8.34363 24.4991 8.34363 24.4991C8.34363 24.4991 9.81162 24.4741 10.5326 24.0561C10.5576 23.9681 10.5706 23.8791 10.5706 23.8791C10.5706 23.8791 11.6716 23.6511 12.1656 22.9051C12.6586 22.1581 12.6716 20.7411 12.6716 20.7411L12.4296 20.7161H12.4306Z" fill="#FADA10"/>
</svg>
