<svg width="41" height="41" viewBox="0 0 41 41" fill="none" xmlns="http://www.w3.org/2000/svg">
<path d="M34.5 8.5H6.5C4.29086 8.5 2.5 10.2909 2.5 12.5V28.5C2.5 30.7091 4.29086 32.5 6.5 32.5H34.5C36.7091 32.5 38.5 30.7091 38.5 28.5V12.5C38.5 10.2909 36.7091 8.5 34.5 8.5Z" fill="#E3E7EA"/>
<path d="M2.5 12.496V16.5H38.5V12.496C38.5 10.289 36.711 8.5 34.505 8.5H6.495C4.288 8.5 2.5 10.289 2.5 12.496Z" fill="#CF002E"/>
<path d="M38.5 28.504V24.5H2.5V28.504C2.5 30.711 4.289 32.5 6.495 32.5H34.504C36.711 32.5 38.5 30.711 38.5 28.504Z" fill="black"/>
<path d="M27.733 17.916L28.319 19.702L30.217 19.701L28.682 20.805L29.269 22.591L27.733 21.487L26.198 22.591L26.784 20.805L25.248 19.701H27.146L27.733 17.916Z" fill="#00A05B"/>
<path d="M13.2653 17.916L13.8523 19.702L15.7493 19.701L14.2143 20.805L14.8003 22.591L13.2653 21.487L11.7292 22.591L12.3163 20.805L10.7812 19.701H12.6783L13.2653 17.916Z" fill="#00A05B"/>
</svg>
