<svg width="41" height="41" viewBox="0 0 41 41" fill="none" xmlns="http://www.w3.org/2000/svg">
<path d="M2.5 28.4998C2.5 30.7088 4.291 32.4998 6.5 32.4998H34.5C36.709 32.4998 38.5 30.7088 38.5 28.4998V28.2148H2.5V28.4998Z" fill="#4A5BAD"/>
<path d="M34.5 8.5H6.5C4.291 8.5 2.5 10.291 2.5 12.5V12.785H38.5V12.5C38.5 10.291 36.709 8.5 34.5 8.5Z" fill="#4A5BAD"/>
<path d="M38.5 26.5H2.5V28.215H38.5V26.5Z" fill="#FBD800"/>
<path d="M38.5 12.7852H2.5V14.5002H38.5V12.7852Z" fill="#FBD800"/>
<path d="M2.5 26.5H38.5V14.5H2.5V26.5ZM5.427 20.039H11.751C11.867 19.9 12.011 19.736 12.178 19.55H8.059C7.904 19.55 7.778 19.424 7.778 19.269C7.778 19.114 7.904 18.988 8.059 18.988H12.708C12.847 18.846 12.995 18.701 13.152 18.55H9.059C8.904 18.55 8.778 18.424 8.778 18.269C8.778 18.114 8.904 17.988 9.059 17.988H13.769C15.425 16.543 17.797 15.011 20.441 15.011C23.085 15.011 25.457 16.542 27.113 17.988H31.52C31.533 17.988 31.541 18 31.553 18.002L32.345 17.749L33.875 18.249L32.345 18.843L31.548 18.54C31.538 18.541 31.531 18.551 31.52 18.551H27.729C27.887 18.702 28.034 18.847 28.173 18.989H30.52C30.533 18.989 30.541 19.001 30.553 19.003L31.345 18.749L32.875 19.249L31.345 19.843L30.548 19.54C30.537 19.541 30.532 19.552 30.52 19.552H28.703C28.87 19.737 29.014 19.902 29.13 20.041H35.573C35.807 20.041 35.996 20.23 35.996 20.463C35.996 20.696 35.808 20.885 35.574 20.885H35.26C35.671 21.272 35.598 21.711 35.598 21.711L35.489 21.518C35.41 21.659 35.598 21.893 35.598 22.221C35.504 22.158 35.379 21.924 35.379 21.924V22.674C35.379 22.674 35.166 22.511 35.145 22.45C35.286 22.789 35.145 23.096 35.145 23.096L34.989 22.83L34.77 23.377L34.692 23.174C34.692 23.174 34.333 23.471 34.208 23.83C33.677 23.455 33.302 22.784 33.302 22.784C33.302 22.784 33.114 23.144 32.911 23.175C32.989 22.691 32.473 22.409 32.739 21.8C32.629 21.832 32.348 22.066 32.348 22.066C32.348 22.066 32.491 21.36 32.926 20.886H29.194C28.331 21.932 25.667 24.867 22.31 25.742C22.308 25.742 22.306 25.742 22.305 25.743C22.047 25.81 21.783 25.859 21.518 25.9C21.474 25.907 21.431 25.92 21.386 25.926C21.093 25.966 20.795 25.985 20.495 25.988C20.478 25.988 20.461 25.992 20.444 25.992C16.237 25.992 12.707 22.121 11.689 20.887H8.593C8.701 21.176 8.593 21.628 8.593 21.628C8.593 21.628 8.515 21.456 8.421 21.378C8.484 21.659 8.453 22.55 8.312 22.628C8.328 22.456 8.312 22.347 8.312 22.347C8.312 22.347 8.171 22.534 8.171 22.769C8.171 23.004 8.046 23.238 8.046 23.238C8.046 23.238 8.03 23.082 7.968 23.004C7.796 23.301 7.39 23.254 7.452 23.676C7.156 23.551 6.968 23.395 6.968 23.395C6.968 23.395 6.921 23.52 6.827 23.567C6.609 23.442 6.561 23.239 6.468 22.973C6.375 22.707 6.187 22.645 6.187 22.645C6.187 22.645 6.203 22.817 6.078 22.973C6.015 22.676 5.984 22.285 5.984 22.285C5.984 22.285 5.827 22.269 5.718 22.535C5.593 22.269 5.671 21.863 5.671 21.863L5.405 21.988C5.394 21.545 5.618 21.103 5.94 20.887H5.429C5.196 20.887 5.007 20.698 5.007 20.465C5.007 20.232 5.196 20.043 5.429 20.043L5.427 20.039Z" fill="#B00019"/>
<path d="M30.5208 19.5503C30.5318 19.5503 30.5388 19.5403 30.5498 19.5383C30.6188 19.5303 30.6808 19.4993 30.7258 19.4533C30.7698 19.4033 30.8018 19.3413 30.8018 19.2693C30.8018 19.1983 30.7698 19.1373 30.7268 19.0873C30.6818 19.0423 30.6218 19.0103 30.5538 19.0013C30.5418 18.9993 30.5338 18.9873 30.5208 18.9873H28.1738C28.3698 19.1873 28.5488 19.3763 28.7038 19.5493L30.5208 19.5503Z" fill="#FFD900"/>
<path d="M8.05834 18.9893C7.90334 18.9893 7.77734 19.1153 7.77734 19.2703C7.77734 19.4253 7.90334 19.5513 8.05834 19.5513H12.1773C12.3323 19.3793 12.5113 19.1903 12.7073 18.9893H8.05834Z" fill="#FFD900"/>
<path d="M31.5183 18.5513C31.5293 18.5513 31.5353 18.5413 31.5463 18.5403C31.6153 18.5323 31.6773 18.5013 31.7233 18.4543C31.7673 18.4043 31.7993 18.3423 31.7993 18.2703C31.7993 18.1993 31.7673 18.1383 31.7243 18.0883C31.6793 18.0433 31.6193 18.0123 31.5513 18.0023C31.5393 18.0003 31.5313 17.9883 31.5183 17.9883H27.1113C27.3303 18.1793 27.5353 18.3663 27.7273 18.5503H31.5183V18.5513Z" fill="#FFD900"/>
<path d="M9.05834 17.9893C8.90334 17.9893 8.77734 18.1153 8.77734 18.2703C8.77734 18.4253 8.90334 18.5513 9.05834 18.5513H13.1513C13.3433 18.3673 13.5493 18.1803 13.7683 17.9893H9.05834Z" fill="#FFD900"/>
<path d="M5.42686 20.8831H5.93786C6.04686 20.8101 6.16686 20.7621 6.29386 20.7501C6.79386 20.7031 6.43486 20.3751 6.43486 20.3751C6.76286 20.4531 6.65386 20.6551 6.77886 20.5771C6.90386 20.4991 6.80986 20.2651 6.80986 20.2651C6.80986 20.2651 7.38786 20.6401 7.77886 20.4991C8.16886 20.3581 8.48186 20.5931 8.59086 20.8821H11.6869C11.4939 20.6491 11.3819 20.4991 11.3819 20.4991C11.3819 20.4991 11.5149 20.3211 11.7519 20.0381H5.42786C5.19486 20.0381 5.00586 20.2271 5.00586 20.4601C5.00586 20.6931 5.19486 20.8821 5.42786 20.8821L5.42686 20.8831Z" fill="#FFD900"/>
<path d="M29.1929 20.8831H32.9249C32.9509 20.8541 32.9749 20.8241 33.0029 20.7971C33.5029 20.3281 33.8149 20.2191 33.8149 20.2191C33.8149 20.2191 33.8619 20.5161 33.9749 20.4611C34.0869 20.4061 34.5969 20.3751 35.1439 20.7811C35.1879 20.8141 35.2219 20.8491 35.2589 20.8831H35.5729C35.8069 20.8831 35.9949 20.6941 35.9949 20.4611C35.9949 20.2281 35.8059 20.0391 35.5719 20.0391H29.1289C29.3659 20.3221 29.4989 20.5001 29.4989 20.5001C29.4989 20.5001 29.3849 20.6501 29.1929 20.8831Z" fill="#FFD900"/>
<path d="M30.7268 19.088C30.7728 19.135 30.8018 19.197 30.8018 19.27C30.8018 19.343 30.7728 19.406 30.7258 19.454C30.6808 19.5 30.6188 19.531 30.5498 19.539L31.3458 19.842L32.8758 19.248L31.3458 18.748L30.5538 19.002C30.6218 19.011 30.6818 19.042 30.7268 19.088Z" fill="white"/>
<path d="M31.7268 18.088C31.7728 18.135 31.8018 18.197 31.8018 18.27C31.8018 18.343 31.7728 18.406 31.7258 18.454C31.6798 18.501 31.6178 18.532 31.5488 18.54L32.3458 18.843L33.8758 18.249L32.3458 17.749L31.5538 18.002C31.6218 18.011 31.6818 18.042 31.7268 18.088Z" fill="white"/>
<path d="M21.3851 25.9229C21.0921 25.9629 20.7941 25.9819 20.4941 25.9849C20.7951 25.9829 21.0921 25.9629 21.3851 25.9229Z" fill="white"/>
<path d="M22.3046 25.7393C22.0466 25.8063 21.7826 25.8553 21.5176 25.8963C21.7836 25.8553 22.0466 25.8063 22.3046 25.7393Z" fill="white"/>
<path d="M11.6869 20.8827C12.7059 22.1167 16.2339 25.9877 20.4409 25.9877C15.4379 25.9877 11.3819 20.4997 11.3819 20.4997C11.3819 20.4997 15.4239 15.0327 20.4149 15.0137C19.7359 15.6697 19.4819 16.2347 19.5869 16.5327C19.7119 16.8867 19.9829 17.1787 20.0659 17.3657C20.1489 17.5527 20.1289 17.6577 20.4409 17.6987C20.7529 17.7397 20.6699 17.9477 20.7529 18.0627C20.8359 18.1777 20.9189 18.3027 21.0649 18.3237C21.2109 18.3447 21.2319 18.5737 21.1689 18.9907C21.1059 19.4077 21.0859 19.9697 21.4189 20.1367C21.7519 20.3037 22.1479 20.3447 21.7309 20.6157C21.3139 20.8867 21.0639 21.3237 21.0639 21.5327C21.0639 21.7417 21.0539 22.0327 20.7359 22.2827C20.4179 22.5327 20.0849 22.7207 20.4389 22.9287C20.7929 23.1367 21.3969 23.3027 21.5429 23.4287C21.6889 23.5547 21.7099 23.8047 21.1889 23.8667C20.6679 23.9287 20.1059 23.9907 20.0849 24.1787C20.0639 24.3667 20.8139 24.6167 21.2519 24.8247C21.6049 24.9927 22.1659 25.1557 22.3089 25.7417C25.6659 24.8677 28.3299 21.9317 29.1929 20.8857C29.3849 20.6527 29.4979 20.5027 29.4979 20.5027C29.4979 20.5027 29.3649 20.3247 29.1279 20.0417C29.0119 19.9027 28.8679 19.7387 28.7009 19.5527C28.5459 19.3807 28.3669 19.1917 28.1709 18.9907C28.0319 18.8487 27.8849 18.7037 27.7269 18.5527C27.5349 18.3687 27.3289 18.1817 27.1109 17.9907C25.4549 16.5457 23.0829 15.0137 20.4389 15.0137C17.7949 15.0137 15.4229 16.5447 13.7669 17.9907C13.5479 18.1817 13.3429 18.3687 13.1499 18.5527C12.9919 18.7037 12.8449 18.8487 12.7059 18.9907C12.5099 19.1907 12.3309 19.3797 12.1759 19.5527C12.0089 19.7377 11.8649 19.9027 11.7489 20.0417C11.5119 20.3247 11.3789 20.5027 11.3789 20.5027C11.3789 20.5027 11.4919 20.6527 11.6839 20.8857L11.6869 20.8827ZM21.9409 22.4467H21.5029V20.9677H21.9409V22.4467ZM22.7959 22.4467H22.3579V20.9677H22.7959V22.4467ZM23.6499 22.4467H23.2119V20.9677H23.6499V22.4467ZM24.5029 22.4467H24.0649V20.9677H24.5029V22.4467ZM25.3579 22.4467H24.9199V20.9677H25.3579V22.4467ZM26.2119 22.4467H25.7739V20.9677H26.2119V22.4467ZM25.3579 19.9897H24.9199V18.5107H25.3579V19.9897ZM22.3589 18.5107H22.7969V19.9897H22.3589V18.5107ZM23.2129 18.5107H23.6509V19.9897H23.2129V18.5107ZM24.0659 18.5107H24.5039V19.9897H24.0659V18.5107ZM21.5049 18.5107H21.9429V19.9897H21.5049V18.5107ZM26.2119 19.9897H25.7739V18.5107H26.2119V19.9897Z" fill="white"/>
<path d="M15.1939 18.5117H14.7559V19.9907H15.1939V18.5117Z" fill="white"/>
<path d="M16.0474 18.5117H15.6094V19.9907H16.0474V18.5117Z" fill="white"/>
<path d="M17.6354 19.1559C17.4824 19.0389 17.3834 18.9069 17.3184 18.7979V19.9899H17.7564V18.9859C17.7564 18.9859 17.7554 19.1249 17.6354 19.1559Z" fill="white"/>
<path d="M19.1664 18.7967C19.1664 18.7967 19.1054 18.7117 19.0254 18.6297V19.9907H19.4634V18.5117H19.1744C19.2244 18.6937 19.1664 18.7967 19.1664 18.7967Z" fill="white"/>
<path d="M15.1939 20.9688H14.7559V22.4478H15.1939V20.9688Z" fill="white"/>
<path d="M18.6099 20.9688H18.1719V22.4478H18.6099V20.9688Z" fill="white"/>
<path d="M17.7564 20.9688H17.3184V22.4478H17.7564V20.9688Z" fill="white"/>
<path d="M16.0474 20.9688H15.6094V22.4478H16.0474V20.9688Z" fill="white"/>
<path d="M19.4634 20.9688H19.0254V22.4478H19.4634V20.9688Z" fill="white"/>
<path d="M16.9028 20.9688H16.4648V22.4478H16.9028V20.9688Z" fill="white"/>
<path d="M18.1719 19.9897H18.6099V19.5167C18.4319 19.4667 18.2849 19.4107 18.1719 19.3467V19.9897Z" fill="white"/>
<path d="M16.8038 18.5117H16.4648V19.9907H16.9028V18.6677C16.8678 18.6137 16.8308 18.5617 16.8038 18.5117Z" fill="white"/>
<path d="M21.2528 24.8208C20.8148 24.6128 20.0648 24.3628 20.0858 24.1748C20.1068 23.9868 20.6688 23.9248 21.1898 23.8628C21.7108 23.8008 21.6898 23.5508 21.5438 23.4248C21.3978 23.2988 20.7938 23.1328 20.4398 22.9248C20.0858 22.7168 20.4188 22.5288 20.7368 22.2788C21.0548 22.0288 21.0648 21.7378 21.0648 21.5288C21.0648 21.3198 21.3148 20.8828 21.7318 20.6118C22.1488 20.3408 21.7528 20.2998 21.4198 20.1328C21.0868 19.9658 21.1068 19.4038 21.1698 18.9868C21.2328 18.5698 21.2118 18.3408 21.0658 18.3198C20.9198 18.2988 20.8368 18.1738 20.7538 18.0588C20.6708 17.9438 20.7538 17.7358 20.4418 17.6948C20.1298 17.6538 20.1498 17.5488 20.0668 17.3618C19.9838 17.1748 19.7128 16.8828 19.5878 16.5288C19.4828 16.2308 19.7368 15.6658 20.4158 15.0098C15.4248 15.0288 11.3828 20.4958 11.3828 20.4958C11.3828 20.4958 15.4388 25.9828 20.4418 25.9838C20.4588 25.9838 20.4768 25.9808 20.4938 25.9798C20.7948 25.9778 21.0928 25.9578 21.3848 25.9178C21.4298 25.9118 21.4728 25.8988 21.5168 25.8918C21.7828 25.8508 22.0468 25.8018 22.3038 25.7348C22.3058 25.7348 22.3078 25.7348 22.3088 25.7338C22.1658 25.1478 21.6038 24.9848 21.2518 24.8168L21.2528 24.8208ZM15.6088 18.5108H16.0468V19.9898H15.6088V18.5108ZM16.1658 17.7348C16.2128 17.1408 17.0318 16.3288 17.4318 16.0638C17.4318 16.3918 18.0878 16.0638 18.8378 16.5148C19.4238 16.8688 19.4628 17.6558 19.4628 17.6558C19.4628 17.6558 19.2598 17.5468 19.0248 17.4528C19.3988 17.8598 19.2908 18.5108 19.2908 18.5108C19.2908 18.5108 19.1968 18.3748 19.0248 18.2188C19.1118 18.3358 19.1508 18.4288 19.1738 18.5118H19.4628V19.9908H19.0248V18.6298C18.9818 18.5848 18.9338 18.5408 18.8848 18.5118C19.0558 18.9288 18.6028 19.2978 18.7438 19.5638C18.6888 19.5518 18.6578 19.5328 18.6088 19.5188V19.9918H18.1708V19.3498C17.8638 19.1768 17.7568 18.9918 17.7548 18.9878V19.9918H17.3168V18.7998C17.2428 18.6748 17.2118 18.5798 17.2118 18.5798C17.2118 18.5798 17.1648 18.7358 17.0088 18.8298C16.9648 18.7748 16.9358 18.7228 16.9008 18.6688V19.9918H16.4628V18.5128H16.8018C16.6638 18.2598 16.6178 18.0638 16.6178 18.0638C16.6178 18.0638 16.4778 18.1268 16.3368 18.2828C16.3058 17.8768 16.5398 17.5488 16.5398 17.5488C16.5398 17.5488 16.3368 17.5808 16.1648 17.7368L16.1658 17.7348ZM14.7548 18.5108H15.1928V19.9898H14.7548V18.5108ZM15.1928 22.4468H14.7548V20.9678H15.1928V22.4468ZM16.0468 22.4468H15.6088V20.9678H16.0468V22.4468ZM16.9018 22.4468H16.4638V20.9678H16.9018V22.4468ZM17.7558 22.4468H17.3178V20.9678H17.7558V22.4468ZM18.6098 22.4468H18.1718V20.9678H18.6098V22.4468ZM19.4638 22.4468H19.0258V20.9678H19.4638V22.4468Z" fill="black"/>
<path d="M23.6489 18.5117H23.2109V19.9907H23.6489V18.5117Z" fill="black"/>
<path d="M22.7954 20.9688H22.3574V22.4478H22.7954V20.9688Z" fill="black"/>
<path d="M21.94 18.5117H21.502V19.9907H21.94V18.5117Z" fill="black"/>
<path d="M26.2114 20.9688H25.7734V22.4478H26.2114V20.9688Z" fill="black"/>
<path d="M24.5025 18.5117H24.0645V19.9907H24.5025V18.5117Z" fill="black"/>
<path d="M23.6489 20.9688H23.2109V22.4478H23.6489V20.9688Z" fill="black"/>
<path d="M24.5025 20.9688H24.0645V22.4478H24.5025V20.9688Z" fill="black"/>
<path d="M21.94 20.9688H21.502V22.4478H21.94V20.9688Z" fill="black"/>
<path d="M22.7954 18.5117H22.3574V19.9907H22.7954V18.5117Z" fill="black"/>
<path d="M25.356 20.9688H24.918V22.4478H25.356V20.9688Z" fill="black"/>
<path d="M25.356 18.5117H24.918V19.9907H25.356V18.5117Z" fill="black"/>
<path d="M26.2114 18.5117H25.7734V19.9907H26.2114V18.5117Z" fill="black"/>
<path d="M33.9776 20.4617C33.8646 20.5167 33.8176 20.2197 33.8176 20.2197C33.8176 20.2197 33.5056 20.3287 33.0056 20.7977C32.9776 20.8247 32.9536 20.8547 32.9276 20.8837C32.4926 21.3577 32.3496 22.0637 32.3496 22.0637C32.3496 22.0637 32.6306 21.8297 32.7406 21.7977C32.4746 22.4067 32.9906 22.6887 32.9126 23.1727C33.1156 23.1417 33.3036 22.7817 33.3036 22.7817C33.3036 22.7817 33.6786 23.4537 34.2096 23.8277C34.3346 23.4687 34.6936 23.1717 34.6936 23.1717L34.7716 23.3747L34.9906 22.8277L35.1466 23.0937C35.1466 23.0937 35.2876 22.7867 35.1466 22.4477C35.1676 22.5087 35.3806 22.6717 35.3806 22.6717V21.9217C35.3806 21.9217 35.5056 22.1557 35.5996 22.2187C35.5996 21.8907 35.4116 21.6567 35.4906 21.5157L35.5996 21.7087C35.5996 21.7087 35.6726 21.2697 35.2616 20.8827C35.2256 20.8487 35.1916 20.8137 35.1466 20.7807C34.5996 20.3747 34.0896 20.4057 33.9776 20.4607V20.4617ZM32.9266 22.5157C33.2396 22.0467 33.1926 21.7147 33.4266 21.7087C33.6426 21.7027 33.2546 22.3437 32.9266 22.5157ZM33.6456 23.0307C33.7886 22.7287 33.4266 22.6147 33.6456 22.4477C33.8106 22.3217 33.8796 22.7337 33.6456 23.0307ZM34.1736 23.4687C34.3356 22.9477 33.8146 22.7187 34.0826 22.5157C34.2246 22.4087 34.5146 23.1097 34.1736 23.4687ZM34.3176 22.0247C34.5676 21.9227 34.4506 22.4427 34.7236 22.6107C34.4736 22.5797 34.1466 22.0937 34.3176 22.0247ZM34.2086 21.3757C34.4116 21.2357 34.4536 21.7137 34.7246 21.7977C34.5056 21.7977 34.0476 21.4867 34.2086 21.3757Z" fill="#3D5DA7"/>
<path d="M7.77873 20.4996C7.38773 20.6406 6.80973 20.2656 6.80973 20.2656C6.80973 20.2656 6.90373 20.4996 6.77873 20.5776C6.65373 20.6556 6.76273 20.4536 6.43473 20.3756C6.43473 20.3756 6.79373 20.7036 6.29373 20.7506C6.16673 20.7626 6.04673 20.8106 5.93773 20.8836C5.61573 21.0996 5.39173 21.5416 5.40273 21.9846L5.66873 21.8596C5.66873 21.8596 5.59073 22.2656 5.71573 22.5316C5.82473 22.2656 5.98173 22.2816 5.98173 22.2816C5.98173 22.2816 6.01273 22.6726 6.07573 22.9696C6.20073 22.8136 6.18473 22.6416 6.18473 22.6416C6.18473 22.6416 6.37273 22.7036 6.46573 22.9696C6.55873 23.2356 6.60673 23.4386 6.82473 23.5636C6.91873 23.5166 6.96573 23.3916 6.96573 23.3916C6.96573 23.3916 7.15373 23.5476 7.44973 23.6726C7.38773 23.2506 7.79373 23.2976 7.96573 23.0006C8.02773 23.0786 8.04373 23.2346 8.04373 23.2346C8.04373 23.2346 8.16873 23.0006 8.16873 22.7656C8.16873 22.5306 8.30973 22.3436 8.30973 22.3436C8.30973 22.3436 8.32573 22.4526 8.30973 22.6246C8.45073 22.5466 8.48173 21.6556 8.41873 21.3746C8.51273 21.4526 8.59073 21.6246 8.59073 21.6246C8.59073 21.6246 8.69973 21.1726 8.59073 20.8836C8.48173 20.5946 8.16873 20.3586 7.77873 20.4996ZM6.01373 22.0616C6.24873 21.7186 6.21773 21.0776 6.51373 21.0776C6.71973 21.0776 6.45173 21.7806 6.01373 22.0616ZM6.48273 22.7026C6.67073 22.2656 6.49873 21.9066 6.68573 21.8746C6.80973 21.8536 6.83373 22.5276 6.48273 22.7026ZM7.02273 23.2496C7.13873 22.7656 6.84273 22.4526 7.02273 22.3746C7.22973 22.2836 7.34173 23.0336 7.02273 23.2496ZM7.27973 21.8746C7.48673 21.7476 7.58973 22.2766 7.88873 22.4476C7.38873 22.3276 7.07673 21.9996 7.27973 21.8746ZM7.18573 20.9686C7.38873 20.8136 7.67073 21.4686 8.01373 21.7086C7.48273 21.6676 7.01873 21.0966 7.18573 20.9686Z" fill="#3D5DA7"/>
<path d="M16.337 18.2825C16.478 18.1265 16.618 18.0635 16.618 18.0635C16.618 18.0635 16.664 18.2595 16.802 18.5125C16.829 18.5625 16.866 18.6145 16.901 18.6685C16.936 18.7215 16.965 18.7745 17.009 18.8295C17.165 18.7355 17.212 18.5795 17.212 18.5795C17.212 18.5795 17.243 18.6745 17.317 18.7995C17.382 18.9085 17.481 19.0405 17.634 19.1575C17.754 19.1265 17.754 18.9855 17.754 18.9855C17.754 18.9855 17.863 19.1755 18.171 19.3485C18.284 19.4125 18.431 19.4685 18.609 19.5185C18.658 19.5325 18.689 19.5515 18.744 19.5635C18.603 19.2975 19.056 18.9285 18.885 18.5115C18.934 18.5405 18.982 18.5845 19.025 18.6295C19.105 18.7125 19.166 18.7965 19.166 18.7965C19.166 18.7965 19.225 18.6935 19.174 18.5115C19.151 18.4285 19.112 18.3355 19.025 18.2185C19.197 18.3745 19.291 18.5105 19.291 18.5105C19.291 18.5105 19.399 17.8595 19.025 17.4525C19.26 17.5465 19.463 17.6555 19.463 17.6555C19.463 17.6555 19.424 16.8685 18.838 16.5145C18.087 16.0635 17.432 16.3915 17.432 16.0635C17.032 16.3285 16.213 17.1415 16.166 17.7345C16.338 17.5785 16.541 17.5465 16.541 17.5465C16.541 17.5465 16.307 17.8745 16.338 18.2805L16.337 18.2825ZM18.118 18.5125C18.482 18.5125 18.383 19.0325 18.524 19.2515C18.118 19.1115 17.892 18.5125 18.118 18.5125ZM19.024 18.0645C18.664 18.0955 18.026 17.5765 18.243 17.5175C18.586 17.4235 18.686 18.0005 19.024 18.0645ZM19.023 17.2045C18.462 17.2985 17.728 17.0795 17.813 16.7825C17.882 16.5425 18.382 17.1735 19.023 17.2045ZM17.619 17.7515C17.789 17.6725 17.838 18.6105 17.619 18.8765C17.65 18.4085 17.384 17.8615 17.619 17.7515ZM17.134 17.0485C17.424 16.9605 17.322 17.8925 16.978 18.2675C17.166 17.6265 16.775 17.1585 17.134 17.0485Z" fill="#3D5DA7"/>
<path d="M7.02253 22.3738C6.84253 22.4518 7.13853 22.7648 7.02253 23.2488C7.34153 23.0328 7.22953 22.2828 7.02253 22.3738Z" fill="#A70000"/>
<path d="M7.18498 20.9688C7.01798 21.0968 7.48198 21.6678 8.01298 21.7088C7.66998 21.4688 7.38798 20.8138 7.18498 20.9688Z" fill="#A70000"/>
<path d="M7.27958 21.875C7.07658 22 7.38858 22.328 7.88858 22.448C7.58958 22.277 7.48658 21.748 7.27958 21.875Z" fill="#A70000"/>
<path d="M6.51367 21.0781C6.21767 21.0781 6.24867 21.7191 6.01367 22.0621C6.45167 21.7811 6.71967 21.0781 6.51367 21.0781Z" fill="#A70000"/>
<path d="M6.68542 21.8745C6.49842 21.9065 6.67042 22.2655 6.48242 22.7025C6.83342 22.5275 6.80942 21.8535 6.68542 21.8745Z" fill="#A70000"/>
<path d="M34.2074 21.3751C34.0464 21.4861 34.5044 21.7971 34.7234 21.7971C34.4524 21.7131 34.4104 21.2351 34.2074 21.3751Z" fill="#A70000"/>
<path d="M16.9789 18.2668C17.3229 17.8918 17.4249 16.9598 17.1349 17.0478C16.7759 17.1578 17.1669 17.6258 16.9789 18.2668Z" fill="#A70000"/>
<path d="M33.4258 21.708C33.1918 21.714 33.2388 22.046 32.9258 22.515C33.2538 22.343 33.6418 21.703 33.4258 21.708Z" fill="#A70000"/>
<path d="M33.6446 22.4471C33.4256 22.6141 33.7876 22.7281 33.6446 23.0301C33.8786 22.7331 33.8096 22.3211 33.6446 22.4471Z" fill="#A70000"/>
<path d="M34.082 22.5149C33.814 22.7179 34.335 22.9469 34.173 23.4679C34.514 23.1089 34.224 22.4079 34.082 22.5149Z" fill="#A70000"/>
<path d="M34.3151 22.0229C34.1441 22.0919 34.4711 22.5779 34.7211 22.6089C34.4481 22.4409 34.5651 21.9209 34.3151 22.0229Z" fill="#A70000"/>
<path d="M18.1189 18.5117C17.8929 18.5117 18.1189 19.1107 18.5249 19.2507C18.3839 19.0317 18.4829 18.5117 18.1189 18.5117Z" fill="#A70000"/>
<path d="M18.2432 17.5172C18.0262 17.5762 18.6642 18.0952 19.0242 18.0642C18.6862 18.0002 18.5862 17.4232 18.2432 17.5172Z" fill="#A70000"/>
<path d="M19.0235 17.2039C18.3825 17.1729 17.8825 16.5419 17.8135 16.7819C17.7275 17.0789 18.4625 17.2979 19.0235 17.2039Z" fill="#A70000"/>
<path d="M17.6194 18.8748C17.8384 18.6088 17.7894 17.6708 17.6194 17.7498C17.3844 17.8598 17.6504 18.4068 17.6194 18.8748Z" fill="#A70000"/>
</svg>
