<svg width="41" height="41" viewBox="0 0 41 41" fill="none" xmlns="http://www.w3.org/2000/svg">
<path d="M20.71 8.5H14.459V11.668L20.71 8.5Z" fill="#261B64"/>
<path d="M34.501 8.5H23.003V9.662L18.46 11.964H23.003V15.429H18.461L23.003 17.731V18.893H20.711L14.461 15.724V18.893H11.043V15.725L4.79295 18.893H2.50195V28.499C2.50195 30.708 4.29295 32.499 6.50195 32.499H34.502C36.711 32.499 38.502 30.708 38.502 28.499V12.5C38.502 10.291 36.71 8.5 34.501 8.5ZM30.956 25.315L30.802 25.375L30.647 25.315C26.74 23.789 26.889 20.245 27.048 16.494L27.057 16.281L27.232 16.161C27.554 15.94 29.105 15.512 30.802 15.512C32.499 15.512 34.05 15.941 34.372 16.161L34.547 16.282L34.556 16.494C34.715 20.245 34.863 23.789 30.956 25.315Z" fill="#261B64"/>
<path d="M2.5 15.4287V17.7307L7.041 15.4287H2.5Z" fill="#261B64"/>
<path d="M11.0424 8.5H6.50037C6.05537 8.5 5.63438 8.59 5.23438 8.724L11.0424 11.668V8.5Z" fill="#261B64"/>
<path d="M3.33269 10.083C2.92169 10.621 2.64969 11.261 2.55469 11.964H7.04269L3.33269 10.083Z" fill="#261B64"/>
<path d="M13.7754 12.657H17.0934H23.0024V11.965H18.4604L23.0024 9.662V8.5L16.1684 11.965H14.6404L21.4744 8.5H20.7104L14.4594 11.668V8.5H13.7754V12.015V12.657Z" fill="#E3E7EA"/>
<path d="M11.726 12.657V8.5H11.042V11.668L5.234 8.724H5.233C5.233 8.724 5.226 8.726 5.223 8.728C5.034 8.792 4.853 8.87 4.678 8.959C4.649 8.974 4.622 8.99 4.593 9.005C4.427 9.094 4.267 9.193 4.116 9.306C4.112 9.309 4.108 9.311 4.104 9.314L9.334 11.966H7.806L3.556 9.811C3.476 9.898 3.402 9.99 3.331 10.084H3.333L7.043 11.966H2.5V12.659H11.726V12.657Z" fill="#E3E7EA"/>
<path d="M10.862 15.4293L4.027 18.8943H4.791L11.042 15.7253V18.8943H11.726V15.3783V14.7363H8.408H2.5V15.4293H7.041L2.5 17.7313V18.8943L9.333 15.4293H10.862Z" fill="#E3E7EA"/>
<path d="M13.7754 14.7363V15.3783V18.8943H14.4594V15.7253L20.7104 18.8943H23.0024L16.1684 15.4293H17.6964L23.0024 18.1193V17.7313L18.4614 15.4293H23.0024V14.7363H17.0934H13.7754Z" fill="#E3E7EA"/>
<path d="M11.726 14.736V15.378V18.894H13.775V15.378V14.736H17.093H23.002V12.657H17.093H13.775V12.015V8.5H11.726V12.015V12.657H8.408H2.5V14.736H8.408H11.726Z" fill="#CC001C"/>
<path d="M7.80469 11.9655H9.33269L4.10269 9.31348C4.09269 9.32148 4.08469 9.33148 4.07369 9.33948C3.89069 9.47948 3.71969 9.63148 3.56469 9.80048C3.56169 9.80348 3.55769 9.80648 3.55469 9.80948L7.80469 11.9645V11.9655Z" fill="#CC001C"/>
<path d="M16.1686 11.965L23.0026 8.5H21.4746L14.6406 11.965H16.1686Z" fill="#CC001C"/>
<path d="M10.862 15.4287H9.333L2.5 18.8937H4.027L10.862 15.4287Z" fill="#CC001C"/>
<path d="M16.168 15.4287L23.002 18.8937V18.1187L17.696 15.4287H16.168Z" fill="#CC001C"/>
<path d="M27.418 18.9355C27.423 19.2605 27.436 19.5775 27.459 19.8875C27.607 19.6295 27.802 19.3415 27.877 19.3415C27.911 19.3415 28.111 19.6715 28.369 20.1265C28.514 19.8555 28.679 19.6115 28.761 19.5995C28.865 19.5845 29.828 21.4365 30.08 22.1195C30.098 22.1255 30.12 22.1365 30.137 22.1405C30.196 22.1585 30.266 22.1665 30.331 22.1805V21.5595H30.044C29.951 21.5595 29.876 21.4835 29.876 21.3915C29.876 21.2995 29.952 21.2235 30.044 21.2235H30.331V20.9435H30.044C29.951 20.9435 29.876 20.8675 29.876 20.7755C29.876 20.6835 29.952 20.6075 30.044 20.6075H30.331V20.2975H30.044C29.951 20.2975 29.876 20.2215 29.876 20.1295C29.876 20.0365 29.952 19.9615 30.044 19.9615H30.331V19.6785H30.044C29.951 19.6785 29.876 19.6025 29.876 19.5105C29.876 19.4185 29.952 19.3425 30.044 19.3425H30.331V19.1655H30.442V19.3425H30.631C30.724 19.3425 30.799 19.4175 30.799 19.5105C30.799 19.6035 30.723 19.6785 30.631 19.6785H30.442V19.9615H30.631C30.724 19.9615 30.799 20.0365 30.799 20.1295C30.799 20.2215 30.723 20.2975 30.631 20.2975H30.442V20.6075H30.631C30.724 20.6075 30.799 20.6825 30.799 20.7755C30.799 20.8685 30.723 20.9435 30.631 20.9435H30.442V21.2235H30.631C30.724 21.2235 30.799 21.2985 30.799 21.3915C30.799 21.4845 30.723 21.5595 30.631 21.5595H30.442V22.2035C30.814 22.2675 31.209 22.2795 31.463 22.2795V21.3905H31.169C31.076 21.3905 31.001 21.3145 31.001 21.2225C31.001 21.1305 31.077 21.0545 31.169 21.0545H31.463V20.7755H31.169C31.076 20.7755 31.001 20.7005 31.001 20.6075C31.001 20.5145 31.077 20.4395 31.169 20.4395H31.463V20.1295H31.169C31.076 20.1295 31.001 20.0535 31.001 19.9615C31.001 19.8695 31.077 19.7935 31.169 19.7935H31.463V19.5105H31.169C31.076 19.5105 31.001 19.4345 31.001 19.3425C31.001 19.2495 31.077 19.1745 31.169 19.1745H31.463V19.0765H31.574V19.1745H31.757C31.85 19.1745 31.925 19.2495 31.925 19.3425C31.925 19.4345 31.849 19.5105 31.757 19.5105H31.574V19.7935H31.757C31.85 19.7935 31.925 19.8695 31.925 19.9615C31.925 20.0535 31.849 20.1295 31.757 20.1295H31.574V20.4395H31.757C31.85 20.4395 31.925 20.5145 31.925 20.6075C31.925 20.7005 31.849 20.7755 31.757 20.7755H31.574V21.0545H31.757C31.85 21.0545 31.925 21.1305 31.925 21.2225C31.925 21.3145 31.849 21.3905 31.757 21.3905H31.574V22.2785C31.601 22.2785 31.644 22.2785 31.662 22.2785C31.874 22.2785 32.28 21.6595 32.458 21.6595H32.506V21.3905H32.324C32.231 21.3905 32.156 21.3145 32.156 21.2225C32.156 21.1305 32.232 21.0545 32.324 21.0545H32.506V20.7755H32.324C32.231 20.7755 32.156 20.7005 32.156 20.6075C32.156 20.5145 32.232 20.4395 32.324 20.4395H32.506V19.8465H32.324C32.231 19.8465 32.156 19.7715 32.156 19.6785C32.156 19.5855 32.232 19.5105 32.324 19.5105H32.506V19.1655H32.617V19.5105H32.912C33.005 19.5105 33.08 19.5865 33.08 19.6785C33.08 19.7705 33.004 19.8465 32.912 19.8465H32.617V20.4395H32.912C33.005 20.4395 33.08 20.5145 33.08 20.6075C33.08 20.7005 33.004 20.7755 32.912 20.7755H32.617V21.0545H32.912C33.005 21.0545 33.08 21.1305 33.08 21.2225C33.08 21.3145 33.004 21.3905 32.912 21.3905H32.617V21.6595H33.52C33.618 21.6595 33.634 22.0575 33.54 22.3665H33.584C33.669 22.1735 33.749 21.9785 33.813 21.7725C33.819 21.7525 33.827 21.7325 33.833 21.7125C33.912 21.4465 33.974 21.1705 34.023 20.8845C34.027 20.8635 34.03 20.8415 34.033 20.8195C34.13 20.2275 34.173 19.5975 34.182 18.9355H27.418Z" fill="#8FC5FF"/>
<path d="M33.5387 22.3672C33.4787 22.5622 33.3757 22.7222 33.2187 22.7222H30.3527C30.2517 22.7222 30.0587 22.6022 29.8497 22.4482C29.7817 22.4582 29.7027 22.4682 29.6187 22.4772C29.6967 22.6372 29.7527 22.7582 29.7687 22.8092C29.8427 23.0472 29.0767 23.1912 28.5117 23.2392C28.5367 23.2742 28.5637 23.3072 28.5897 23.3412C28.6937 23.4752 28.8057 23.6032 28.9267 23.7272C28.9747 23.7762 29.0207 23.8252 29.0717 23.8722C29.1047 23.9022 29.1417 23.9312 29.1757 23.9602C29.2117 23.9922 29.2487 24.0232 29.2867 24.0542C29.3597 24.1132 29.4347 24.1712 29.5127 24.2272C29.5797 24.2762 29.6487 24.3232 29.7207 24.3702C29.7607 24.3962 29.7987 24.4232 29.8397 24.4482C29.8617 24.4612 29.8867 24.4732 29.9087 24.4862C29.9507 24.5112 29.9947 24.5342 30.0387 24.5582C30.0997 24.5922 30.1587 24.6272 30.2237 24.6602C30.4047 24.7522 30.5947 24.8392 30.7987 24.9192C31.0037 24.8392 31.1937 24.7522 31.3757 24.6592C31.4387 24.6272 31.4957 24.5932 31.5557 24.5602C31.5647 24.5552 31.5747 24.5502 31.5847 24.5442H30.2557C30.1727 24.5442 30.1057 24.4772 30.1057 24.3942C30.1057 24.3112 30.1727 24.2442 30.2557 24.2442H32.0627C31.9147 24.3492 31.7567 24.4482 31.5887 24.5432C31.6227 24.5242 31.6577 24.5062 31.6907 24.4872C31.7127 24.4742 31.7377 24.4622 31.7587 24.4492C31.8007 24.4232 31.8397 24.3962 31.8807 24.3692C31.9497 24.3242 32.0167 24.2782 32.0817 24.2312C32.1627 24.1732 32.2407 24.1132 32.3157 24.0522C32.3517 24.0222 32.3867 23.9922 32.4217 23.9622C32.4567 23.9322 32.4937 23.9032 32.5277 23.8722C32.5797 23.8242 32.6277 23.7732 32.6767 23.7232C32.7067 23.6922 32.7357 23.6622 32.7647 23.6312C32.6707 23.7322 32.5717 23.8312 32.4647 23.9262H30.6447C30.5617 23.9262 30.4947 23.8592 30.4947 23.7762C30.4947 23.6942 30.5617 23.6272 30.6437 23.6272H32.7687C32.8527 23.5362 32.9317 23.4432 33.0057 23.3472C33.0157 23.3342 33.0257 23.3212 33.0357 23.3082H30.7677C30.6847 23.3082 30.6177 23.2412 30.6177 23.1582C30.6177 23.0752 30.6847 23.0082 30.7677 23.0082H33.2447C33.3207 22.8892 33.3907 22.7672 33.4557 22.6412C33.4907 22.5732 33.5257 22.5052 33.5567 22.4352C33.5657 22.4152 33.5767 22.3972 33.5857 22.3772C33.5867 22.3742 33.5887 22.3712 33.5897 22.3682L33.5387 22.3672Z" fill="#366CC9"/>
<path d="M32.7701 23.625H30.6451C30.5631 23.625 30.4961 23.692 30.4961 23.774C30.4961 23.857 30.5631 23.924 30.6461 23.924H32.4661C32.5731 23.829 32.6721 23.73 32.7661 23.629C32.7681 23.627 32.7691 23.626 32.7711 23.624L32.7701 23.625Z" fill="#00D860"/>
<path d="M33.0402 23.3009C33.1122 23.2059 33.1812 23.1079 33.2432 23.0089C33.2432 23.0089 33.2442 23.0069 33.2452 23.0059H30.7672C30.6842 23.0059 30.6172 23.0719 30.6172 23.1559C30.6172 23.2399 30.6842 23.3059 30.7672 23.3059H33.0362C33.0362 23.3059 33.0382 23.3029 33.0402 23.3009Z" fill="#00D860"/>
<path d="M32.0625 24.2442H30.2555C30.1725 24.2442 30.1055 24.3112 30.1055 24.3942C30.1055 24.4772 30.1725 24.5442 30.2555 24.5442H31.5855C31.5855 24.5442 31.5875 24.5432 31.5885 24.5422C31.7565 24.4482 31.9145 24.3502 32.0625 24.2442Z" fill="#00D860"/>
<path d="M30.0801 22.1187C29.8281 21.4357 28.8641 19.5837 28.7611 19.5987C28.6781 19.6097 28.5131 19.8537 28.3691 20.1257C28.6431 20.6107 28.9811 21.2357 29.2581 21.7657C29.5201 21.8917 29.8291 22.0357 30.0801 22.1187Z" fill="#5D3100"/>
<path d="M29.4492 22.1377C29.5142 22.2657 29.5702 22.3777 29.6182 22.4767C29.7012 22.4677 29.7802 22.4577 29.8492 22.4477C29.7162 22.3507 29.5772 22.2397 29.4492 22.1377Z" fill="#5D3100"/>
<path d="M28.512 23.2398C29.078 23.1918 29.844 23.0468 29.769 22.8098C29.753 22.7588 29.697 22.6378 29.619 22.4778C29.571 22.3788 29.515 22.2668 29.45 22.1388C29.248 21.9768 29.076 21.8358 29.009 21.8028C28.832 21.7148 28.663 21.5248 28.813 21.5668C28.883 21.5868 29.057 21.6708 29.258 21.7668C28.981 21.2358 28.643 20.6108 28.369 20.1268C28.112 19.6718 27.912 19.3418 27.877 19.3418C27.802 19.3418 27.607 19.6298 27.459 19.8878C27.459 19.8898 27.459 19.8918 27.459 19.8948C27.476 20.1228 27.507 20.3408 27.536 20.5598C27.547 20.6388 27.551 20.7218 27.564 20.7988C27.566 20.8108 27.567 20.8238 27.569 20.8358C27.604 21.0468 27.656 21.2458 27.707 21.4458C27.728 21.5298 27.741 21.6198 27.765 21.7028C27.765 21.7058 27.767 21.7078 27.768 21.7108C27.829 21.9158 27.91 22.1088 27.992 22.3008C28.001 22.3218 28.008 22.3448 28.017 22.3668C28.027 22.3888 28.033 22.4138 28.043 22.4358C28.047 22.4448 28.05 22.4548 28.054 22.4638C28.062 22.4808 28.067 22.4988 28.075 22.5158C28.088 22.5438 28.108 22.5678 28.122 22.5948C28.226 22.8028 28.342 23.0038 28.477 23.1938C28.481 23.1998 28.484 23.2058 28.488 23.2118C28.495 23.2208 28.498 23.2318 28.505 23.2408H28.506C28.506 23.2408 28.51 23.2398 28.512 23.2398Z" fill="#CF6200"/>
<path d="M27.7656 21.7021L27.7686 21.7132V21.7101L27.7656 21.7021Z" fill="#FFFF00"/>
<path d="M32.3164 24.0509C32.3694 24.0079 32.4264 23.9659 32.4764 23.9209C32.4604 23.9349 32.4384 23.9469 32.4224 23.9609C32.3874 23.9909 32.3524 24.0209 32.3164 24.0509Z" fill="#FFFF00"/>
<path d="M27.5781 20.8838C27.5841 20.9158 27.5881 20.9488 27.5941 20.9808C27.6061 21.0438 27.6191 21.1058 27.6321 21.1678C27.6701 21.3508 27.7151 21.5288 27.7661 21.7028C27.7421 21.6198 27.7291 21.5298 27.7081 21.4458C27.6611 21.2608 27.6111 21.0778 27.5781 20.8838Z" fill="#FFFF00"/>
<path d="M32.7688 23.6242C32.7688 23.6242 32.7658 23.6272 32.7638 23.6292C32.7348 23.6602 32.7058 23.6912 32.6758 23.7212C32.8008 23.5952 32.9158 23.4632 33.0218 23.3262C33.0168 23.3322 33.0108 23.3372 33.0058 23.3442C32.9308 23.4402 32.8528 23.5332 32.7688 23.6242Z" fill="#FFFF00"/>
<path d="M27.9921 22.3006C27.9181 22.1266 27.8441 21.9536 27.7871 21.7686C27.8261 21.8966 27.8651 22.0266 27.9131 22.1496C27.9421 22.2236 27.9781 22.2936 28.0101 22.3666H28.0171C28.0081 22.3456 28.0011 22.3226 27.9921 22.3006Z" fill="#FFFF00"/>
<path d="M28.5742 23.3232C28.6822 23.4632 28.8002 23.5972 28.9272 23.7272C28.8052 23.6032 28.6932 23.4752 28.5902 23.3412C28.5852 23.3352 28.5792 23.3302 28.5742 23.3232Z" fill="#FFFF00"/>
<path d="M28.0215 22.3916C28.0325 22.4156 28.0425 22.4396 28.0535 22.4636C28.0495 22.4546 28.0465 22.4446 28.0425 22.4356C28.0355 22.4206 28.0275 22.4056 28.0215 22.3916Z" fill="#FFFF00"/>
<path d="M29.123 23.9199C29.175 23.9669 29.234 24.0099 29.289 24.0549C29.251 24.0239 29.214 23.9929 29.178 23.9609C29.161 23.9459 29.139 23.9349 29.123 23.9199Z" fill="#FFFF00"/>
<path d="M28.0967 22.5596C28.1107 22.5886 28.1217 22.6206 28.1367 22.6496C28.1577 22.6896 28.1837 22.7266 28.2057 22.7666C28.1817 22.7226 28.1617 22.6756 28.1387 22.6306C28.1257 22.6066 28.1087 22.5846 28.0957 22.5596H28.0967Z" fill="#FFFF00"/>
<path d="M28.2129 22.7764C28.2959 22.9264 28.3879 23.0714 28.4879 23.2114C28.4839 23.2054 28.4809 23.1994 28.4769 23.1934C28.3819 23.0584 28.2919 22.9204 28.2129 22.7764Z" fill="#FFFF00"/>
<path d="M33.591 22.3665C33.675 22.1745 33.75 21.9775 33.813 21.7725C33.75 21.9785 33.669 22.1735 33.584 22.3665H33.591Z" fill="#FFFF00"/>
<path d="M30.2241 24.6596C30.1601 24.6276 30.1011 24.5916 30.0391 24.5576C30.1011 24.5916 30.1591 24.6266 30.2241 24.6596Z" fill="#FFFF00"/>
<path d="M33.541 22.475C33.556 22.442 33.571 22.409 33.586 22.375C33.577 22.395 33.566 22.414 33.557 22.433C33.551 22.446 33.547 22.461 33.541 22.475Z" fill="#FFFF00"/>
<path d="M30.7992 15.9365C29.1532 15.9365 27.7022 16.3515 27.4702 16.5115C27.4592 16.7695 27.4492 17.0245 27.4402 17.2765C27.3952 18.5465 27.3922 19.7345 27.5642 20.7975C27.5522 20.7205 27.5472 20.6375 27.5362 20.5585C27.5062 20.3395 27.4762 20.1215 27.4592 19.8935C27.4592 19.8915 27.4592 19.8885 27.4592 19.8865C27.4362 19.5775 27.4232 19.2605 27.4182 18.9345H34.1822C34.1732 19.5965 34.1302 20.2265 34.0332 20.8185C34.0522 20.7045 34.0732 20.5915 34.0882 20.4745C34.1382 20.0765 34.1662 19.6615 34.1792 19.2325C34.1852 19.0185 34.1882 18.8005 34.1882 18.5795C34.1882 17.9165 34.1602 17.2235 34.1302 16.5105C33.8972 16.3505 32.4472 15.9355 30.8012 15.9355L30.7992 15.9365ZM32.0792 18.0865C32.0842 18.1775 32.0152 18.1135 31.8912 18.0265C31.7582 17.9965 31.6092 17.9905 31.4482 18.0325C31.3162 18.0675 31.1762 18.1535 31.0022 18.2145C31.0142 18.2255 31.0342 18.2285 31.0342 18.2465V18.6455C31.0342 18.6805 31.0062 18.7085 30.9712 18.7085C30.9362 18.7085 30.9072 18.6805 30.9072 18.6455V18.2465C30.9072 18.2385 30.9192 18.2395 30.9222 18.2315C30.8182 18.2615 30.6972 18.2705 30.5632 18.2615V18.6455C30.5632 18.6805 30.5352 18.7085 30.5002 18.7085C30.4652 18.7085 30.4362 18.6805 30.4362 18.6455V18.2505C30.4102 18.2455 30.3902 18.2505 30.3632 18.2435C29.8322 18.1125 29.8182 17.3155 29.8042 16.9805C29.8002 16.8595 29.2692 16.6845 29.2822 16.5905C29.2942 16.5055 29.4302 16.5115 29.5662 16.5035C29.5942 16.4685 29.6572 16.4625 29.7362 16.4665C29.7582 16.4575 29.7852 16.4545 29.8012 16.4395C29.9422 16.3155 30.3252 16.0165 30.6362 16.4035C30.8102 16.6205 30.7662 16.7685 30.9602 16.9455C31.1542 17.1225 32.1882 17.5705 32.5242 17.4645C32.5062 17.6765 32.2062 17.7825 32.2062 17.7825C32.2062 17.7825 32.4902 17.9935 32.5262 18.2415C32.5482 18.3975 32.3722 18.2045 32.0762 18.0835L32.0792 18.0865Z" fill="#FFFF00"/>
<path d="M29.7217 24.3696C29.6497 24.3236 29.5807 24.2756 29.5137 24.2266C29.5817 24.2746 29.6497 24.3226 29.7217 24.3696Z" fill="#FFFF00"/>
<path d="M34.022 20.8848C33.973 21.1708 33.91 21.4468 33.832 21.7128C33.911 21.4468 33.973 21.1708 34.022 20.8848Z" fill="#FFFF00"/>
<path d="M33.2444 23.0055L33.2424 23.0085C33.2024 23.0715 33.1624 23.1345 33.1194 23.1965C33.1154 23.2025 33.1124 23.2095 33.1074 23.2155C33.2564 23.0085 33.3884 22.7905 33.5004 22.5625C33.4874 22.5895 33.4674 22.6125 33.4544 22.6395C33.3904 22.7655 33.3194 22.8875 33.2434 23.0065L33.2444 23.0055Z" fill="#FFFF00"/>
<path d="M32.6169 21.3906H32.5059V21.6596H32.6169V21.3906Z" fill="#FFFF00"/>
<path d="M30.443 20.2969H30.332V20.6069H30.443V20.2969Z" fill="#FFFF00"/>
<path d="M32.6169 20.7744H32.5059V21.0534H32.6169V20.7744Z" fill="#FFFF00"/>
<path d="M31.5739 19.5098H31.4629V19.7928H31.5739V19.5098Z" fill="#FFFF00"/>
<path d="M31.5739 21.3906H31.4629V22.2796C31.5069 22.2796 31.5409 22.2796 31.5739 22.2796V21.3906Z" fill="#FFFF00"/>
<path d="M31.5739 20.7744H31.4629V21.0534H31.5739V20.7744Z" fill="#FFFF00"/>
<path d="M31.5739 19.0752H31.4629V19.1732H31.5739V19.0752Z" fill="#FFFF00"/>
<path d="M31.5739 20.1289H31.4629V20.4389H31.5739V20.1289Z" fill="#FFFF00"/>
<path d="M30.443 19.6777H30.332V19.9607H30.443V19.6777Z" fill="#FFFF00"/>
<path d="M30.443 20.9434H30.332V21.2234H30.443V20.9434Z" fill="#FFFF00"/>
<path d="M30.443 21.5596H30.332V22.1806C30.369 22.1886 30.405 22.1966 30.443 22.2036V21.5596Z" fill="#FFFF00"/>
<path d="M30.443 19.166H30.332V19.343H30.443V19.166Z" fill="#FFFF00"/>
<path d="M32.6169 19.8457H32.5059V20.4387H32.6169V19.8457Z" fill="#FFFF00"/>
<path d="M32.6169 19.166H32.5059V19.511H32.6169V19.166Z" fill="#FFFF00"/>
<path d="M31.2154 17.8399C30.9984 17.8789 30.7414 18.0809 30.3194 17.9379C29.8954 17.7959 29.9384 17.1459 29.9494 16.8719C29.9524 16.7739 29.5324 16.5939 29.5504 16.5199C29.5524 16.5109 29.5644 16.5109 29.5694 16.5049C29.4324 16.5129 29.2964 16.5069 29.2854 16.5919C29.2724 16.6859 29.8034 16.8599 29.8074 16.9819C29.8214 17.3169 29.8354 18.1139 30.3664 18.2449C30.3934 18.2519 30.4134 18.2469 30.4394 18.2519V18.2479C30.4394 18.2129 30.4684 18.1849 30.5034 18.1849C30.5384 18.1849 30.5664 18.2129 30.5664 18.2479V18.2629C30.7004 18.2719 30.8204 18.2629 30.9254 18.2329C30.9344 18.2099 30.9474 18.1849 30.9744 18.1849C30.9914 18.1849 30.9934 18.2049 31.0054 18.2159C31.1794 18.1549 31.3194 18.0689 31.4514 18.0339C31.6124 17.9919 31.7614 17.9979 31.8944 18.0279C31.7454 17.9239 31.5144 17.7879 31.2184 17.8399H31.2154Z" fill="#AC5F1A"/>
<path d="M32.2102 17.7863C32.2102 17.7863 32.5112 17.6803 32.5282 17.4683C32.1922 17.5743 31.1582 17.1273 30.9642 16.9493C30.7702 16.7723 30.8142 16.6233 30.6402 16.4073C30.3282 16.0203 29.9452 16.3193 29.8052 16.4433C29.7882 16.4583 29.7622 16.4613 29.7402 16.4703C29.8272 16.4743 29.9242 16.4783 29.9842 16.4343C30.1062 16.3443 30.4402 16.1263 30.6682 16.4623C30.7942 16.6503 30.7492 16.7683 30.8962 16.9253C31.0412 17.0823 31.8522 17.5173 32.1332 17.4543C32.1052 17.6253 31.8522 17.6913 31.8522 17.6913C31.8522 17.6913 32.0692 17.8833 32.0812 18.0873C32.3782 18.2083 32.5542 18.4013 32.5312 18.2453C32.4952 17.9973 32.2112 17.7863 32.2112 17.7863H32.2102Z" fill="#AC5F1A"/>
<path d="M34.5452 16.2817L34.3702 16.1607C34.0482 15.9397 32.4982 15.5117 30.8002 15.5117C29.1022 15.5117 27.5522 15.9407 27.2302 16.1607L27.0552 16.2807L27.0462 16.4937C26.8872 20.2447 26.7392 23.7887 30.6452 25.3147L30.8002 25.3747L30.9542 25.3147C34.8622 23.7887 34.7122 20.2447 34.5532 16.4937L34.5452 16.2817ZM34.1872 18.5807C34.1872 18.8017 34.1852 19.0197 34.1782 19.2337C34.1652 19.6627 34.1372 20.0777 34.0872 20.4757C34.0722 20.5927 34.0512 20.7047 34.0322 20.8197C34.0282 20.8417 34.0252 20.8637 34.0222 20.8847C33.9732 21.1707 33.9112 21.4467 33.8322 21.7127C33.8262 21.7327 33.8182 21.7527 33.8122 21.7727C33.7492 21.9777 33.6742 22.1747 33.5902 22.3667C33.5902 22.3667 33.5872 22.3727 33.5862 22.3757C33.5712 22.4087 33.5572 22.4427 33.5412 22.4757C33.5282 22.5047 33.5162 22.5347 33.5022 22.5627C33.3902 22.7917 33.2582 23.0087 33.1092 23.2157C33.0822 23.2537 33.0512 23.2907 33.0222 23.3277C32.9162 23.4647 32.8012 23.5957 32.6762 23.7227C32.6272 23.7727 32.5792 23.8237 32.5272 23.8717C32.5092 23.8877 32.4942 23.9057 32.4762 23.9217C32.4262 23.9667 32.3692 24.0077 32.3162 24.0517C32.2412 24.1127 32.1632 24.1727 32.0822 24.2307C32.0172 24.2777 31.9502 24.3237 31.8812 24.3687C31.8402 24.3957 31.8012 24.4227 31.7592 24.4487C31.7372 24.4617 31.7132 24.4737 31.6912 24.4867C31.6582 24.5057 31.6232 24.5237 31.5892 24.5427C31.5882 24.5427 31.5872 24.5437 31.5862 24.5447C31.5772 24.5497 31.5672 24.5547 31.5572 24.5607C31.4972 24.5937 31.4402 24.6277 31.3772 24.6597C31.1952 24.7517 31.0052 24.8387 30.8002 24.9197C30.5952 24.8397 30.4062 24.7527 30.2252 24.6607C30.1612 24.6287 30.1022 24.5927 30.0402 24.5587C29.9972 24.5347 29.9522 24.5117 29.9102 24.4867C29.8882 24.4737 29.8632 24.4617 29.8412 24.4487C29.8002 24.4237 29.7622 24.3967 29.7222 24.3707C29.6502 24.3247 29.5822 24.2767 29.5142 24.2277C29.4362 24.1717 29.3612 24.1137 29.2882 24.0547C29.2332 24.0097 29.1742 23.9667 29.1222 23.9197C29.1052 23.9047 29.0902 23.8877 29.0732 23.8717C29.0222 23.8247 28.9762 23.7757 28.9282 23.7267C28.8002 23.5977 28.6822 23.4637 28.5752 23.3227C28.5532 23.2947 28.5272 23.2677 28.5062 23.2397H28.5052C28.4982 23.2307 28.4942 23.2197 28.4882 23.2107C28.3872 23.0707 28.2962 22.9257 28.2132 22.7757C28.2112 22.7727 28.2092 22.7687 28.2072 22.7657C28.1852 22.7257 28.1582 22.6887 28.1382 22.6487C28.1232 22.6197 28.1122 22.5887 28.0982 22.5587C28.0912 22.5437 28.0832 22.5287 28.0762 22.5137C28.0682 22.4967 28.0632 22.4787 28.0552 22.4617C28.0442 22.4377 28.0342 22.4137 28.0232 22.3897C28.0192 22.3807 28.0142 22.3727 28.0102 22.3637C27.9782 22.2907 27.9432 22.2207 27.9142 22.1467C27.8662 22.0237 27.8282 21.8947 27.7882 21.7657C27.7822 21.7477 27.7752 21.7297 27.7702 21.7117C27.7692 21.7077 27.7672 21.7047 27.7662 21.7007C27.7152 21.5267 27.6702 21.3477 27.6322 21.1657C27.6192 21.1037 27.6062 21.0417 27.5942 20.9787C27.5882 20.9467 27.5842 20.9137 27.5782 20.8817C27.5752 20.8657 27.5722 20.8497 27.5702 20.8337C27.5682 20.8217 27.5672 20.8087 27.5652 20.7967C27.3932 19.7337 27.3962 18.5457 27.4412 17.2757C27.4502 17.0237 27.4602 16.7687 27.4712 16.5107C27.7042 16.3517 29.1542 15.9357 30.8002 15.9357C32.4462 15.9357 33.8972 16.3507 34.1292 16.5107C34.1592 17.2237 34.1872 17.9177 34.1872 18.5807Z" fill="#EEEEEE"/>
<path d="M30.631 19.6778C30.724 19.6778 30.799 19.6018 30.799 19.5098C30.799 19.4168 30.723 19.3418 30.631 19.3418H30.043C29.95 19.3418 29.875 19.4168 29.875 19.5098C29.875 19.6028 29.951 19.6778 30.043 19.6778H30.631Z" fill="#EEEEEE"/>
<path d="M30.631 20.2969C30.724 20.2969 30.799 20.2209 30.799 20.1289C30.799 20.0359 30.723 19.9609 30.631 19.9609H30.043C29.95 19.9609 29.875 20.0359 29.875 20.1289C29.875 20.2209 29.951 20.2969 30.043 20.2969H30.631Z" fill="#EEEEEE"/>
<path d="M30.631 20.9434C30.724 20.9434 30.799 20.8674 30.799 20.7754C30.799 20.6834 30.723 20.6074 30.631 20.6074H30.043C29.95 20.6074 29.875 20.6824 29.875 20.7754C29.875 20.8684 29.951 20.9434 30.043 20.9434H30.631Z" fill="#EEEEEE"/>
<path d="M31.756 21.3907C31.849 21.3907 31.924 21.3147 31.924 21.2227C31.924 21.1307 31.848 21.0547 31.756 21.0547H31.168C31.075 21.0547 31 21.1307 31 21.2227C31 21.3147 31.076 21.3907 31.168 21.3907H31.756Z" fill="#EEEEEE"/>
<path d="M31.756 19.5098C31.849 19.5098 31.924 19.4338 31.924 19.3418C31.924 19.2478 31.848 19.1728 31.756 19.1738H31.168C31.075 19.1738 31 19.2488 31 19.3418C31 19.4338 31.076 19.5098 31.168 19.5098H31.756Z" fill="#EEEEEE"/>
<path d="M30.631 21.5596C30.724 21.5596 30.799 21.4836 30.799 21.3916C30.799 21.2976 30.723 21.2226 30.631 21.2236H30.043C29.95 21.2236 29.875 21.2996 29.875 21.3916C29.875 21.4836 29.951 21.5596 30.043 21.5596H30.631Z" fill="#EEEEEE"/>
<path d="M31.756 20.129C31.849 20.129 31.924 20.053 31.924 19.961C31.924 19.869 31.848 19.793 31.756 19.793H31.168C31.075 19.793 31 19.869 31 19.961C31 20.053 31.076 20.129 31.168 20.129H31.756Z" fill="#EEEEEE"/>
<path d="M31.756 20.7745C31.849 20.7745 31.924 20.6995 31.924 20.6065C31.924 20.5125 31.848 20.4385 31.756 20.4385H31.168C31.075 20.4385 31 20.5135 31 20.6065C31 20.6995 31.076 20.7745 31.168 20.7745H31.756Z" fill="#EEEEEE"/>
<path d="M32.9122 21.3907C33.0052 21.3907 33.0803 21.3147 33.0803 21.2227C33.0803 21.1307 33.0042 21.0547 32.9122 21.0547H32.3242C32.2312 21.0547 32.1562 21.1307 32.1562 21.2227C32.1562 21.3147 32.2322 21.3907 32.3242 21.3907H32.9122Z" fill="#EEEEEE"/>
<path d="M32.9122 20.7745C33.0052 20.7745 33.0803 20.6995 33.0803 20.6065C33.0803 20.5125 33.0042 20.4385 32.9122 20.4385H32.3242C32.2312 20.4385 32.1562 20.5135 32.1562 20.6065C32.1562 20.6995 32.2322 20.7745 32.3242 20.7745H32.9122Z" fill="#EEEEEE"/>
<path d="M32.9122 19.8458C33.0052 19.8458 33.0803 19.7708 33.0803 19.6778C33.0803 19.5848 33.0042 19.5098 32.9122 19.5098H32.3242C32.2312 19.5098 32.1562 19.5858 32.1562 19.6778C32.1562 19.7698 32.2322 19.8458 32.3242 19.8458H32.9122Z" fill="#EEEEEE"/>
<path d="M31.8504 17.6892C31.8504 17.6892 32.1034 17.6232 32.1314 17.4522C31.8504 17.5152 31.0394 17.0802 30.8944 16.9232C30.7474 16.7652 30.7924 16.6472 30.6664 16.4602C30.4384 16.1242 30.1054 16.3422 29.9824 16.4322C29.9224 16.4762 29.8254 16.4722 29.7384 16.4682C29.6594 16.4652 29.5964 16.4702 29.5684 16.5052C29.5634 16.5112 29.5514 16.5112 29.5494 16.5202C29.5314 16.5942 29.9514 16.7732 29.9484 16.8722C29.9374 17.1452 29.8954 17.7962 30.3184 17.9382C30.7404 18.0822 30.9964 17.8792 31.2144 17.8402C31.5104 17.7872 31.7414 17.9242 31.8904 18.0282C32.0144 18.1142 32.0834 18.1782 32.0784 18.0882C32.0654 17.8832 31.8494 17.6922 31.8494 17.6922L31.8504 17.6892ZM30.3564 16.7332C30.2904 16.7332 30.2364 16.6802 30.2364 16.6132C30.2364 16.5472 30.2894 16.4932 30.3564 16.4932C30.4214 16.4932 30.4764 16.5462 30.4764 16.6132C30.4764 16.6802 30.4224 16.7332 30.3564 16.7332Z" fill="#EEEEEE"/>
<path d="M28.8131 21.5665C28.6641 21.5245 28.8331 21.7145 29.0091 21.8025C29.0761 21.8355 29.2481 21.9775 29.4501 22.1385C29.5781 22.2405 29.7171 22.3515 29.8501 22.4485C30.0601 22.6025 30.2521 22.7225 30.3531 22.7225H33.2191C33.3761 22.7225 33.4791 22.5625 33.5391 22.3675C33.6331 22.0585 33.6171 21.6605 33.5191 21.6605H32.4571C32.2801 21.6605 31.8741 22.2795 31.6611 22.2795C31.6431 22.2795 31.5991 22.2795 31.5731 22.2795C31.5391 22.2795 31.5061 22.2795 31.4621 22.2795C31.2081 22.2795 30.8131 22.2675 30.4411 22.2035C30.4031 22.1965 30.3671 22.1885 30.3301 22.1805C30.2651 22.1665 30.1961 22.1585 30.1361 22.1405C30.1191 22.1355 30.0971 22.1245 30.0791 22.1195C29.8281 22.0365 29.5191 21.8925 29.2571 21.7665C29.0571 21.6705 28.8831 21.5855 28.8131 21.5665Z" fill="black"/>
<path d="M30.5015 18.1855C30.4665 18.1855 30.4375 18.2135 30.4375 18.2485V18.6475C30.4375 18.6825 30.4665 18.7105 30.5015 18.7105C30.5365 18.7105 30.5645 18.6825 30.5645 18.6475V18.2485C30.5645 18.2135 30.5365 18.1855 30.5015 18.1855Z" fill="black"/>
<path d="M30.9232 18.2335C30.9202 18.2405 30.9082 18.2405 30.9082 18.2485V18.6475C30.9082 18.6825 30.9372 18.7105 30.9722 18.7105C31.0072 18.7105 31.0352 18.6825 31.0352 18.6475V18.2485C31.0352 18.2305 31.0152 18.2275 31.0032 18.2165C30.9922 18.2055 30.9892 18.1855 30.9722 18.1855C30.9452 18.1855 30.9332 18.2105 30.9232 18.2335Z" fill="black"/>
<path d="M30.3563 16.4941C30.2893 16.4941 30.2363 16.5471 30.2363 16.6141C30.2363 16.6811 30.2903 16.7341 30.3563 16.7341C30.4223 16.7341 30.4763 16.6801 30.4763 16.6141C30.4763 16.5481 30.4223 16.4941 30.3563 16.4941Z" fill="black"/>
</svg>
