<svg width="41" height="41" viewBox="0 0 41 41" fill="none" xmlns="http://www.w3.org/2000/svg">
<path d="M20.71 8.5H14.459V11.668L20.71 8.5Z" fill="#261B64"/>
<path d="M34.501 8.5H23.003V9.662L18.46 11.964H23.003V15.429H18.461L23.003 17.731V18.893H20.711L14.461 15.724V18.893H11.043V15.725L4.79295 18.893H2.50195V28.499C2.50195 30.708 4.29295 32.499 6.50195 32.499H34.502C36.711 32.499 38.502 30.708 38.502 28.499V12.5C38.502 10.291 36.71 8.5 34.501 8.5ZM34.179 19.343C34.179 23.143 32.321 24.531 30.656 25.436C28.991 24.531 26.873 23.143 26.873 19.343V16.609H34.179V19.343Z" fill="#261B64"/>
<path d="M11.0424 8.5H6.50037C6.05537 8.5 5.63438 8.59 5.23438 8.724L11.0424 11.668V8.5Z" fill="#261B64"/>
<path d="M3.33269 10.083C2.92169 10.621 2.64969 11.261 2.55469 11.964H7.04269L3.33269 10.083Z" fill="#261B64"/>
<path d="M2.5 15.4287V17.7307L7.041 15.4287H2.5Z" fill="#261B64"/>
<path d="M13.7754 12.657H17.0934H23.0024V11.965H18.4604L23.0024 9.662V8.5L16.1684 11.965H14.6404L21.4744 8.5H20.7104L14.4594 11.668V8.5H13.7754V12.015V12.657Z" fill="#E3E7EA"/>
<path d="M11.726 12.657V8.5H11.042V11.668L5.234 8.724H5.233C5.233 8.724 5.226 8.726 5.223 8.728C5.034 8.792 4.853 8.87 4.678 8.959C4.649 8.974 4.622 8.99 4.593 9.005C4.427 9.094 4.267 9.193 4.116 9.306C4.112 9.309 4.108 9.311 4.104 9.314L9.334 11.966H7.806L3.556 9.811C3.476 9.898 3.402 9.99 3.331 10.084H3.333L7.043 11.966H2.5V12.659H11.726V12.657Z" fill="#E3E7EA"/>
<path d="M10.862 15.4293L4.027 18.8943H4.791L11.042 15.7253V18.8943H11.726V15.3783V14.7363H8.408H2.5V15.4293H7.041L2.5 17.7313V18.8943L9.333 15.4293H10.862Z" fill="#E3E7EA"/>
<path d="M13.7754 14.7363V15.3783V18.8943H14.4594V15.7253L20.7104 18.8943H23.0024L16.1684 15.4293H17.6964L23.0024 18.1193V17.7313L18.4614 15.4293H23.0024V14.7363H17.0934H13.7754Z" fill="#E3E7EA"/>
<path d="M11.726 14.736V15.378V18.894H13.775V15.378V14.736H17.093H23.002V12.657H17.093H13.775V12.015V8.5H11.726V12.015V12.657H8.408H2.5V14.736H8.408H11.726Z" fill="#CC001C"/>
<path d="M7.80469 11.9655H9.33269L4.10269 9.31348C4.09269 9.32148 4.08469 9.33148 4.07369 9.33948C3.89069 9.47948 3.71969 9.63148 3.56469 9.80048C3.56169 9.80348 3.55769 9.80648 3.55469 9.80948L7.80469 11.9645V11.9655Z" fill="#CC001C"/>
<path d="M16.1686 11.965L23.0026 8.5H21.4746L14.6406 11.965H16.1686Z" fill="#CC001C"/>
<path d="M10.862 15.4287H9.333L2.5 18.8937H4.027L10.862 15.4287Z" fill="#CC001C"/>
<path d="M16.168 15.4287L23.002 18.8937V18.1187L17.696 15.4287H16.168Z" fill="#CC001C"/>
<path d="M26.8711 19.3434C26.8711 23.1434 28.9891 24.5314 30.6541 25.4364C32.3191 24.5314 34.1771 23.1434 34.1771 19.3434V16.6094H26.8711V19.3434ZM27.1771 17.0994H33.9241V19.3434C33.9241 22.7884 32.2701 24.0924 30.6541 24.9954C29.0391 24.0924 27.1771 22.7884 27.1771 19.3434V17.0994Z" fill="white"/>
<path d="M32.6545 18.4754C32.7545 18.4204 32.8765 18.3744 33.0115 18.3394C32.9975 18.2984 32.9775 18.2684 32.9595 18.2344C32.8355 18.3234 32.7225 18.4044 32.6445 18.4644C32.6475 18.4694 32.6515 18.4714 32.6545 18.4754Z" fill="#FEC400"/>
<path d="M32.459 18.2532C32.504 18.1972 32.536 18.1562 32.572 18.0762C32.499 18.1182 32.466 18.1782 32.459 18.2532Z" fill="#FEC400"/>
<path d="M30.6547 24.9937C32.2697 24.0907 33.9247 22.7867 33.9247 19.3417V17.0977H27.1777V19.3417C27.1777 22.7867 29.0387 24.0907 30.6547 24.9937ZM30.7357 18.2467C30.7607 18.2157 31.1207 18.2357 31.4717 18.3137C31.4847 18.2547 31.4997 18.1987 31.5177 18.1517C31.2447 17.9547 30.9787 17.7567 31.0337 17.7327C31.0857 17.7097 31.3357 17.8387 31.5887 18.0127C31.6457 17.9337 31.7167 17.8867 31.8077 17.8797C31.8477 17.7517 31.9637 17.5777 31.9847 17.6177C32.0037 17.6547 31.9497 17.7587 31.9657 17.8977C32.0907 17.9277 32.1517 18.0067 32.1837 18.1187C32.1817 17.9317 32.1607 17.7487 32.1107 17.6637C32.0307 17.5257 31.9047 17.4457 31.9847 17.4237C32.0447 17.4067 32.2727 17.6277 32.2957 18.0827C32.3187 17.6277 32.5467 17.4067 32.6067 17.4237C32.6867 17.4467 32.5607 17.5267 32.4807 17.6637C32.4307 17.7497 32.4097 17.9337 32.4077 18.1207C32.4397 18.0077 32.4997 17.9277 32.6257 17.8977C32.6417 17.7587 32.5887 17.6547 32.6067 17.6177C32.6277 17.5767 32.7437 17.7517 32.7837 17.8797C32.7837 17.8797 32.7837 17.8797 32.7857 17.8797C32.8757 17.8867 32.9467 17.9337 33.0037 18.0127C33.2567 17.8397 33.5067 17.7097 33.5587 17.7327C33.6137 17.7567 33.3487 17.9547 33.0757 18.1517C33.0937 18.1997 33.1087 18.2547 33.1217 18.3137C33.4717 18.2367 33.8317 18.2167 33.8567 18.2477C33.8867 18.2847 33.5147 18.3257 33.1457 18.4487C33.1537 18.5067 33.1617 18.5647 33.1667 18.6307C33.5637 18.5927 33.9047 18.6917 33.8587 18.6827C33.8157 18.6757 33.5017 18.6917 33.1707 18.7607C33.1727 18.8227 33.1747 18.8837 33.1737 18.9497C33.4827 18.9297 33.9117 19.2427 33.7997 19.1757C33.7297 19.1337 33.4627 19.1037 33.1687 19.1237C33.1627 19.2737 33.1537 19.4307 33.1377 19.5987C33.0437 20.5847 33.1587 20.9077 33.1757 20.9637C33.1937 21.0197 32.9647 20.7677 32.9817 20.3317C32.9927 20.0467 33.0347 19.5477 33.0557 19.1317C32.9547 19.1437 32.8597 19.1687 32.7637 19.1977C32.7577 19.2537 32.7657 19.2957 32.7537 19.3567C32.6047 20.1357 32.4907 20.2007 32.4907 20.2007C32.4907 20.2007 32.8417 20.5347 32.7927 20.6967C32.7427 20.8587 32.2957 20.8627 32.2957 20.8627C32.2957 20.8627 31.8477 20.8587 31.7987 20.6967C31.7487 20.5347 32.1007 20.2007 32.1007 20.2007C32.1007 20.2007 31.9867 20.1367 31.8377 19.3567C31.8257 19.2947 31.8337 19.2527 31.8277 19.1957C31.7327 19.1677 31.6397 19.1437 31.5407 19.1317C31.5617 19.5477 31.6047 20.0467 31.6147 20.3307C31.6307 20.7667 31.4037 21.0187 31.4207 20.9627C31.4387 20.9057 31.5527 20.5837 31.4587 19.5977C31.4427 19.4297 31.4327 19.2727 31.4277 19.1227C31.1337 19.1017 30.8657 19.1327 30.7957 19.1747C30.6827 19.2427 31.1127 18.9287 31.4217 18.9487C31.4217 18.8817 31.4227 18.8207 31.4247 18.7597C31.0937 18.6907 30.7797 18.6747 30.7367 18.6817C30.6907 18.6897 31.0317 18.5907 31.4287 18.6297C31.4327 18.5637 31.4417 18.5067 31.4497 18.4477C31.0807 18.3247 30.7087 18.2827 30.7387 18.2457L30.7357 18.2467ZM30.6667 20.0667C30.9837 20.0667 31.2397 20.3497 31.2397 20.6987C31.2397 20.8767 31.2627 21.0377 31.1977 21.1517C31.2007 21.1547 31.2027 21.1557 31.2057 21.1587C31.5957 21.5367 31.9287 22.7977 31.9737 23.1987C32.0197 23.5997 31.9287 23.6917 31.7217 23.6917C31.6297 23.8867 31.2747 23.9207 31.2747 23.9207C31.2747 23.9207 30.8737 24.1837 30.6557 23.9207C30.4377 24.1837 30.0367 23.9207 30.0367 23.9207C30.0367 23.9207 29.6817 23.8867 29.5897 23.6917C29.3827 23.6917 29.2907 23.5997 29.3377 23.1987C29.3837 22.7977 29.7167 21.5367 30.1057 21.1587C30.1147 21.1507 30.1217 21.1467 30.1297 21.1387C30.0737 21.0247 30.0947 20.8697 30.0947 20.6987C30.0947 20.3497 30.3507 20.0667 30.6667 20.0667ZM28.0187 19.3937C27.8357 19.2907 27.7897 19.1187 28.0187 18.9927C28.2477 18.8667 28.1107 18.7057 28.2707 18.6607C28.0647 18.6157 27.8797 18.7297 27.8627 18.6607C27.8467 18.5917 28.0067 18.4007 28.2707 18.3697C28.0527 18.0987 28.1787 17.5257 28.2707 17.5137C28.3627 17.5017 28.5497 17.6747 28.6457 17.8467C28.7407 18.0177 29.0157 17.9847 28.9937 18.2247C29.0197 18.2497 29.0747 18.2597 29.1417 18.2867C29.1757 17.9407 29.2877 17.6637 29.3937 17.6637C29.5087 17.6637 29.6567 18.0187 29.7147 18.1687C29.7727 18.3187 29.9927 18.2827 30.0887 18.7987C30.1847 19.3147 30.0707 19.6927 29.9437 19.8077C29.8177 19.9227 29.7607 19.9387 29.7377 20.0677C29.7147 20.1957 29.6797 20.1827 29.5097 20.1957C29.5047 20.1957 29.5007 20.1927 29.4957 20.1937C29.4847 20.1947 29.4737 20.1987 29.4677 20.1887C29.4557 20.1887 29.4457 20.1847 29.4347 20.1827C29.4307 20.2187 29.4277 20.2417 29.4277 20.2417C29.2447 20.5517 28.9577 20.3337 28.8317 19.9667C28.7057 19.5997 28.2027 19.4967 28.0187 19.3937Z" fill="#FEC400"/>
<path d="M32.7734 19.0081C32.8614 18.9901 32.9594 18.9751 33.0624 18.9611C33.0644 18.8911 33.0624 18.8461 33.0624 18.7861C32.9654 18.8091 32.8704 18.8371 32.7824 18.8711C32.7854 18.9101 32.7734 18.9661 32.7734 19.0081Z" fill="#FEC400"/>
<path d="M32.7486 18.7333C32.8516 18.6903 32.9566 18.6593 33.0616 18.6423C33.0616 18.6273 33.0616 18.6013 33.0616 18.5883C33.0586 18.5513 33.0476 18.5213 33.0416 18.4873C32.9266 18.5313 32.8186 18.5853 32.7246 18.6493C32.7336 18.6763 32.7416 18.7033 32.7486 18.7333Z" fill="#FEC400"/>
<path d="M32.5215 18.3289C32.5375 18.3399 32.5495 18.3629 32.5645 18.3769C32.6455 18.2899 32.7505 18.1999 32.8665 18.1119C32.8365 18.0839 32.8055 18.0589 32.7695 18.0479C32.7205 18.1479 32.6205 18.2559 32.5215 18.3289Z" fill="#FEC400"/>
<path d="M31.8637 18.6463C31.7707 18.5833 31.6647 18.5303 31.5517 18.4873C31.5457 18.5213 31.5347 18.5523 31.5317 18.5883C31.5307 18.6013 31.5317 18.6273 31.5317 18.6423C31.6347 18.6593 31.7387 18.6893 31.8407 18.7313C31.8477 18.7013 31.8547 18.6733 31.8637 18.6463Z" fill="#FEC400"/>
<path d="M31.9441 18.4624C31.8661 18.4024 31.7551 18.3224 31.6321 18.2344C31.6141 18.2684 31.5941 18.2984 31.5801 18.3394C31.7141 18.3744 31.8341 18.4194 31.9331 18.4734C31.9361 18.4684 31.9411 18.4664 31.9441 18.4624Z" fill="#FEC400"/>
<path d="M31.8037 18.8701C31.7167 18.8371 31.6237 18.8101 31.5287 18.7871C31.5287 18.8461 31.5257 18.8921 31.5287 18.9621C31.6297 18.9751 31.7257 18.9901 31.8127 19.0081C31.8127 18.9651 31.8007 18.9091 31.8037 18.8701Z" fill="#FEC400"/>
<path d="M32.0195 18.0752C32.0555 18.1562 32.0885 18.1972 32.1335 18.2532C32.1265 18.1772 32.0935 18.1172 32.0195 18.0752Z" fill="#FEC400"/>
<path d="M32.0236 18.3739C32.0386 18.3599 32.0496 18.3379 32.0656 18.3269C31.9676 18.2539 31.8686 18.1469 31.8206 18.0479C31.7856 18.0589 31.7546 18.0849 31.7246 18.1129C31.8396 18.1989 31.9426 18.2879 32.0236 18.3739Z" fill="#FEC400"/>
<path d="M32.3153 18.254C32.3123 18.2 32.2943 18.132 32.2963 18.083C32.2983 18.131 32.2803 18.199 32.2773 18.252C32.2833 18.252 32.2883 18.247 32.2943 18.247C32.3013 18.247 32.3083 18.254 32.3153 18.254Z" fill="#FEC400"/>
<path d="M30.6659 21.3306C30.3279 21.3306 30.1859 21.2566 30.1279 21.1396C30.1199 21.1476 30.1129 21.1506 30.1039 21.1596C29.7139 21.5376 29.3819 22.7986 29.3359 23.1996C29.2899 23.6006 29.3809 23.6926 29.5879 23.6926C29.6799 23.8876 30.0349 23.9216 30.0349 23.9216C30.0349 23.9216 30.4359 24.1846 30.6539 23.9216C30.8719 24.1846 31.2729 23.9216 31.2729 23.9216C31.2729 23.9216 31.6279 23.8876 31.7199 23.6926C31.9269 23.6926 32.0189 23.6006 31.9719 23.1996C31.9269 22.7986 31.5929 21.5376 31.2039 21.1596C31.2009 21.1566 31.1989 21.1556 31.1959 21.1526C31.1339 21.2626 30.9919 21.3306 30.6659 21.3306Z" fill="#00A728"/>
<path d="M30.1287 21.1404C30.1867 21.2584 30.3287 21.3314 30.6667 21.3314C30.9927 21.3314 31.1347 21.2634 31.1977 21.1534C31.2627 21.0384 31.2397 20.8784 31.2397 20.7004C31.2397 20.3514 30.9837 20.0684 30.6667 20.0684C30.3497 20.0684 30.0937 20.3514 30.0937 20.7004C30.0937 20.8714 30.0727 21.0264 30.1287 21.1404Z" fill="#F0082D"/>
<path d="M29.4284 20.2432C29.4284 20.2432 29.4314 20.2212 29.4354 20.1842C29.2364 20.1542 29.1484 19.9532 29.1074 19.6592C29.0614 19.3262 28.5914 19.4512 28.8094 18.9532C29.0274 18.4552 29.1084 18.7572 29.1304 18.3712C29.1324 18.3412 29.1384 18.3162 29.1414 18.2872C29.0744 18.2602 29.0194 18.2502 28.9934 18.2252C29.0164 17.9842 28.7414 18.0182 28.6454 17.8472C28.5504 17.6752 28.3624 17.5032 28.2704 17.5142C28.1784 17.5262 28.0524 18.0992 28.2704 18.3702C28.0064 18.4012 27.8464 18.5912 27.8624 18.6612C27.8794 18.7302 28.0644 18.6162 28.2704 18.6612C28.1094 18.7062 28.2474 18.8672 28.0184 18.9932C27.7894 19.1192 27.8354 19.2922 28.0184 19.3942C28.2014 19.4962 28.7064 19.6002 28.8324 19.9672C28.9584 20.3342 29.2444 20.5532 29.4284 20.2432Z" fill="#FF9F3E"/>
<path d="M28.8093 18.953C28.5913 19.45 29.0613 19.326 29.1073 19.659C29.1483 19.954 29.2363 20.154 29.4353 20.184C29.4463 20.186 29.4563 20.189 29.4683 20.19C29.4453 20.148 29.4683 20.015 29.4803 19.887C29.4973 19.715 29.3823 19.52 29.3253 19.349C29.2683 19.177 29.4023 19.051 29.4383 18.879C29.4743 18.707 29.3823 18.55 29.3703 18.371C29.3593 18.192 29.5093 18.009 29.5093 18.009C29.5873 18.066 29.5903 18.147 29.5093 18.284C29.4283 18.422 29.5623 18.559 29.5693 18.789C29.5763 19.018 29.4573 19.099 29.4823 19.213C29.5073 19.327 29.6903 19.545 29.6683 19.809C29.6463 20.073 29.5913 20.153 29.5093 20.198C29.5023 20.202 29.5003 20.196 29.4953 20.197C29.5003 20.197 29.5033 20.199 29.5093 20.198C29.6793 20.185 29.7143 20.199 29.7373 20.071C29.7603 19.942 29.8173 19.925 29.9433 19.811C30.0693 19.696 30.1843 19.318 30.0883 18.802C29.9923 18.286 29.7723 18.322 29.7143 18.172C29.6563 18.022 29.5073 17.667 29.3933 17.667C29.2873 17.667 29.1753 17.944 29.1413 18.29C29.1383 18.319 29.1323 18.344 29.1303 18.374C29.1083 18.76 29.0273 18.458 28.8093 18.956V18.953Z" fill="#FF927F"/>
<path d="M29.6694 19.8068C29.6924 19.5438 29.5084 19.3258 29.4834 19.2108C29.4584 19.0958 29.5774 19.0158 29.5704 18.7868C29.5634 18.5568 29.4284 18.4198 29.5104 18.2818C29.5914 18.1448 29.5884 18.0638 29.5104 18.0068C29.5104 18.0068 29.3604 18.1898 29.3714 18.3688C29.3834 18.5488 29.4744 18.7058 29.4394 18.8768C29.4034 19.0498 29.2694 19.1758 29.3264 19.3468C29.3834 19.5188 29.4984 19.7138 29.4814 19.8848C29.4684 20.0128 29.4464 20.1468 29.4694 20.1878C29.4744 20.1978 29.4864 20.1938 29.4974 20.1928C29.5024 20.1928 29.5044 20.1978 29.5114 20.1938C29.5934 20.1488 29.6474 20.0678 29.6704 19.8048L29.6694 19.8068Z" fill="#FE9DE0"/>
<path d="M33.8598 18.6799C33.8998 18.6899 33.5598 18.5899 33.1698 18.6299C33.1598 18.5699 33.1498 18.5099 33.1498 18.4499C33.4998 18.3299 33.8598 18.2799 33.8598 18.2499C33.8298 18.2199 33.4698 18.2399 33.1198 18.3099C33.1098 18.2599 33.0898 18.1999 33.0798 18.1499C33.3498 17.9599 33.6098 17.7599 33.5598 17.7299C33.5098 17.7099 33.2598 17.8399 32.9998 18.0099C32.9498 17.9299 32.8798 17.8899 32.7898 17.8799H32.7798C32.7398 17.7499 32.6298 17.5799 32.6098 17.6199C32.5898 17.6499 32.6398 17.7599 32.6298 17.8999C32.4998 17.9299 32.4398 18.0099 32.4098 18.1199C32.4098 17.9299 32.4298 17.7499 32.4798 17.6599C32.5598 17.5299 32.6898 17.4499 32.6098 17.4199C32.5398 17.4199 32.3198 17.6399 32.2998 18.0799C32.2698 17.6399 32.0498 17.4199 31.9798 17.4199C31.8998 17.4499 32.0298 17.5299 32.1098 17.6599C32.1598 17.7499 32.1798 17.9299 32.1798 18.1199C32.1498 18.0099 32.0898 17.9299 31.9698 17.8999C31.9498 17.7599 31.9998 17.6499 31.9798 17.6199C31.9598 17.5799 31.8498 17.7499 31.8098 17.8799C31.7198 17.8899 31.6498 17.9299 31.5898 18.0099C31.3398 17.8399 31.0898 17.7099 31.0298 17.7299C30.9798 17.7599 31.2398 17.9599 31.5198 18.1499C31.4998 18.1999 31.4798 18.2599 31.4698 18.3099C31.1198 18.2399 30.7598 18.2199 30.7398 18.2499C30.7398 18.2799 31.0898 18.3299 31.4498 18.4499C31.4398 18.5099 31.4298 18.5699 31.4298 18.6299C31.0298 18.5899 30.6898 18.6899 30.7298 18.6799C30.7798 18.6799 31.0898 18.6899 31.4198 18.7599V18.9499C31.1798 18.9299 30.8598 19.1199 30.7898 19.1799C30.8598 19.1299 31.1298 19.0999 31.4198 19.1299C31.4298 19.2799 31.4398 19.4299 31.4598 19.5999C31.5498 20.5899 31.4398 20.9099 31.4198 20.9699C31.3998 21.0199 31.6298 20.7699 31.6098 20.3299C31.5998 20.0499 31.5598 19.5499 31.5398 19.1399C31.6398 19.1499 31.7298 19.1699 31.8298 19.1999C31.8298 19.2599 31.8198 19.2999 31.8398 19.3599C31.9798 20.1399 32.0998 20.1999 32.0998 20.1999C32.0998 20.1999 31.7498 20.5399 31.7998 20.6999C31.8498 20.8599 32.2898 20.8699 32.2898 20.8699C32.2898 20.8699 32.7398 20.8599 32.7898 20.6999C32.8398 20.5399 32.4898 20.1999 32.4898 20.1999C32.4898 20.1999 32.5998 20.1399 32.7498 19.3599C32.7598 19.2999 32.7598 19.2599 32.7598 19.1999C32.8598 19.1699 32.9498 19.1499 33.0498 19.1299C33.0298 19.5499 32.9898 20.0499 32.9798 20.3299C32.9598 20.7699 33.1898 21.0199 33.1698 20.9699C33.1598 20.9099 33.0398 20.5899 33.1398 19.5999C33.1498 19.4299 33.1598 19.2799 33.1698 19.1299C33.4298 19.0999 33.6698 19.1199 33.7698 19.1599C33.6598 19.0899 33.3898 18.9299 33.1698 18.9499V18.7599C33.4998 18.6899 33.8198 18.6799 33.8598 18.6799ZM31.5298 18.9599V18.7899C31.6198 18.8099 31.7198 18.8399 31.7998 18.8699C31.7998 18.9099 31.8098 18.9599 31.8098 19.0099C31.7298 18.9899 31.6298 18.9699 31.5298 18.9599ZM31.8398 18.7299C31.7398 18.6899 31.6298 18.6599 31.5298 18.6399V18.5899C31.5298 18.5499 31.5398 18.5199 31.5498 18.4899C31.6598 18.5299 31.7698 18.5799 31.8598 18.6499C31.8498 18.6699 31.8498 18.6999 31.8398 18.7299ZM31.9298 18.4699C31.8298 18.4199 31.7098 18.3799 31.5798 18.3399C31.5898 18.2999 31.6198 18.2699 31.6298 18.2399C31.7598 18.3199 31.8698 18.3999 31.9398 18.4599C31.9398 18.4666 31.9364 18.4699 31.9298 18.4699ZM32.0198 18.3699C31.9398 18.2899 31.8398 18.1999 31.7298 18.1099C31.7598 18.0799 31.7898 18.0599 31.8198 18.0499C31.8698 18.1499 31.9698 18.2499 32.0698 18.3299C32.0498 18.3399 32.0398 18.3599 32.0198 18.3699ZM32.0198 18.0799C32.0898 18.1199 32.1298 18.1799 32.1298 18.2499C32.0898 18.1999 32.0598 18.1599 32.0198 18.0799ZM32.2898 18.2499H32.2798C32.2798 18.2099 32.2898 18.1599 32.2998 18.1099C32.2998 18.1599 32.3098 18.2099 32.3098 18.2499H32.2898ZM32.4598 18.2499C32.4698 18.1799 32.4998 18.1199 32.5698 18.0799C32.5398 18.1599 32.4998 18.1999 32.4598 18.2499ZM32.5198 18.3299C32.6198 18.2599 32.7198 18.1499 32.7698 18.0499C32.8098 18.0599 32.8398 18.0799 32.8698 18.1099C32.7498 18.1999 32.6498 18.2899 32.5598 18.3799C32.5498 18.3599 32.5398 18.3399 32.5198 18.3299ZM32.5898 18.5099C32.5998 18.4999 32.6198 18.4899 32.6398 18.4599C32.7198 18.3999 32.8398 18.3199 32.9598 18.2399C32.9798 18.2699 32.9998 18.2999 33.0098 18.3399C32.8798 18.3799 32.7498 18.4199 32.6498 18.4799C32.6298 18.4899 32.6098 18.4999 32.5898 18.5099ZM33.0598 18.9599C32.9598 18.9699 32.8598 18.9899 32.7698 19.0099C32.7698 18.9699 32.7898 18.9099 32.7798 18.8699C32.8698 18.8399 32.9698 18.8099 33.0598 18.7899C33.0598 18.8499 33.0698 18.8899 33.0598 18.9599ZM33.0598 18.6399C32.9598 18.6599 32.8498 18.6899 32.7498 18.7299C32.7398 18.6999 32.7298 18.6799 32.7298 18.6499C32.8198 18.5899 32.9298 18.5299 33.0398 18.4899C33.0498 18.5199 33.0598 18.5499 33.0598 18.5899V18.6399Z" fill="#BA5B1F"/>
<path d="M32.6498 18.48C32.6298 18.49 32.6098 18.5 32.5898 18.51C32.5998 18.5 32.6198 18.49 32.6398 18.46C32.6465 18.4666 32.6498 18.4733 32.6498 18.48Z" fill="#BA5B1F"/>
</svg>
