<svg width="41" height="41" viewBox="0 0 41 41" fill="none" xmlns="http://www.w3.org/2000/svg">
<path d="M29.8516 23.2011L30.7126 23.2061L30.2876 22.4541L29.8516 23.2011Z" fill="#142957"/>
<path d="M25.2988 23.2111L26.2438 23.2061L25.7138 22.3691L25.2988 23.2111Z" fill="#142957"/>
<path d="M34.5 8.5H16.532V18.219H2.5V28.5C2.5 30.709 4.291 32.5 6.5 32.5H34.5C36.709 32.5 38.5 30.709 38.5 28.5V12.5C38.5 10.291 36.709 8.5 34.5 8.5ZM22.427 21.61L22.717 20.723L21.968 20.178L22.891 20.183L23.171 19.292L23.451 20.183L24.373 20.178L23.624 20.723L23.914 21.61L23.172 21.057L22.429 21.61H22.427ZM26.129 27.697L25.386 27.144L24.643 27.697L24.933 26.81L24.184 26.265L25.107 26.27L25.387 25.379L25.667 26.27L26.589 26.265L25.84 26.81L26.131 27.697H26.129ZM28.726 29.76L27.983 29.207L27.24 29.76L27.53 28.873L26.781 28.328L27.704 28.333L27.984 27.442L28.264 28.333L29.187 28.328L28.438 28.873L28.728 29.76H28.726ZM31.396 27.693L30.653 27.14L29.91 27.693L30.2 26.806L29.451 26.26L30.374 26.265L30.654 25.374L30.934 26.265L31.857 26.26L31.108 26.806L31.398 27.693H31.396ZM31.149 24.426L30.945 24.036H29.582L28.011 26.586L26.44 24.036H25.077L24.873 24.426H23.512L25.702 20.886L27.33 23.466V19.176H25.162L24.4 17.946H31.622L30.86 19.176H28.692V19.926H30.394L29.669 21.096H28.692V23.466L30.32 20.886L32.51 24.426H31.149ZM33.639 21.628L32.896 21.074L32.154 21.628L32.444 20.74L31.695 20.195L32.617 20.2L32.897 19.309L33.178 20.2L34.1 20.195L33.351 20.74L33.641 21.628H33.639Z" fill="#142957"/>
<path d="M6.94 8.5H6.495C4.288 8.5 2.5 10.289 2.5 12.496V17.966H6.94V8.5Z" fill="#142957"/>
<path d="M14.5198 17.966H16.2818V8.5H14.5198H11.6758V17.966H14.5198Z" fill="#CF002E"/>
<path d="M16.532 18.219V8.5H16.411H16.282V17.966H14.52H11.676V8.5H6.94V17.966H2.5V18.219H14.52H16.532Z" fill="#E3E7EA"/>
<path d="M28.6917 23.4673V21.0973H29.6687L30.3937 19.9273H28.6917V19.1773H30.8597L31.6217 17.9473H24.3997L25.1617 19.1773H27.3297V23.4673L25.7017 20.8873L23.5117 24.4273H24.8727L25.0767 24.0373H26.4397L28.0107 26.5873L29.5817 24.0373H30.9447L31.1487 24.4273H32.5097L30.3197 20.8873L28.6917 23.4673ZM25.2987 23.2123L25.7137 22.3693L26.2447 23.2063L25.2997 23.2113L25.2987 23.2123ZM29.8517 23.2023L30.2877 22.4553L30.7127 23.2073L29.8517 23.2023Z" fill="#E3E7EA"/>
<path d="M30.9312 26.266L30.6512 25.375L30.3712 26.266L29.4492 26.26L30.1982 26.806L29.9082 27.693L30.6512 27.14L31.3952 27.693L31.1052 26.806L31.8542 26.26L30.9312 26.266Z" fill="#E3E7EA"/>
<path d="M28.2623 28.3334L27.9823 27.4424L27.7023 28.3334L26.7793 28.3284L27.5283 28.8734L27.2383 29.7604L27.9823 29.2074L28.7253 29.7604L28.4353 28.8734L29.1853 28.3284L28.2623 28.3334Z" fill="#E3E7EA"/>
<path d="M25.6646 26.2689L25.3846 25.3779L25.1046 26.2689L24.1816 26.2639L24.9306 26.8099L24.6406 27.6969L25.3846 27.1429L26.1276 27.6969L25.8366 26.8099L26.5866 26.2639L25.6646 26.2689Z" fill="#E3E7EA"/>
<path d="M33.1764 20.1996L32.8954 19.3086L32.6154 20.1996L31.6934 20.1946L32.4424 20.7396L32.1524 21.6276L32.8954 21.0736L33.6384 21.6276L33.3484 20.7396L34.0974 20.1946L33.1764 20.1996Z" fill="#E3E7EA"/>
<path d="M23.6228 20.723L24.3718 20.177L23.4498 20.182L23.1698 19.292L22.8898 20.182L21.9668 20.177L22.7158 20.723L22.4268 21.61L23.1698 21.056L23.9118 21.61L23.6228 20.723Z" fill="#E3E7EA"/>
</svg>
