<svg width="41" height="41" viewBox="0 0 41 41" fill="none" xmlns="http://www.w3.org/2000/svg">
<path d="M34.5 8.5H6.5C4.29086 8.5 2.5 10.2909 2.5 12.5V28.5C2.5 30.7091 4.29086 32.5 6.5 32.5H34.5C36.7091 32.5 38.5 30.7091 38.5 28.5V12.5C38.5 10.2909 36.7091 8.5 34.5 8.5Z" fill="#006E4E"/>
<path d="M38.5004 13.2998H16.3574V18.0988H38.5004V13.2998Z" fill="#FBCB00"/>
<path d="M2.5 22.8994V27.6994H38.5V22.8994H16.357H2.5Z" fill="#FBCB00"/>
<path d="M6.495 8.5C4.288 8.5 2.5 10.289 2.5 12.496V22.9H16.357V8.5H6.495Z" fill="#D3003B"/>
<path d="M10.839 16.2376L13.506 14.2896H10.209L9.19005 11.1396L8.17105 14.2896H4.87305L7.54105 16.2376L6.52205 19.3886L9.19005 17.4406L11.857 19.3886L10.839 16.2376Z" fill="#E3E7EA"/>
</svg>
