<svg width="41" height="41" viewBox="0 0 41 41" fill="none" xmlns="http://www.w3.org/2000/svg">
<path d="M34.5 8.5H6.5C4.29086 8.5 2.5 10.2909 2.5 12.5V28.5C2.5 30.7091 4.29086 32.5 6.5 32.5H34.5C36.7091 32.5 38.5 30.7091 38.5 28.5V12.5C38.5 10.2909 36.7091 8.5 34.5 8.5Z" fill="#E3E7EA"/>
<path d="M38.5 28.5035V25.6465H2.5V28.5035C2.5 30.7105 4.289 32.4995 6.495 32.4995H34.504C36.711 32.4995 38.5 30.7105 38.5 28.5035Z" fill="#06B539"/>
<path d="M2.5 12.496V15.353H38.5V12.496C38.5 10.289 36.711 8.5 34.505 8.5H6.495C4.288 8.5 2.5 10.289 2.5 12.496Z" fill="#FF003E"/>
<path d="M22.2568 24.6025C21.9558 24.2655 21.3778 23.9445 20.4688 23.9445C19.5598 23.9445 18.9818 24.2655 18.6808 24.6025L18.4238 24.3275C18.6538 24.0435 18.9638 23.9445 19.0438 23.5895C19.1238 23.3415 18.9468 23.1455 18.9468 23.1455C18.9468 23.1455 19.2028 23.5005 19.8408 23.5005C20.2308 23.5005 20.4698 23.0645 20.4698 23.0645C20.4698 23.0645 20.7088 23.5005 21.0988 23.5005C21.7358 23.5005 21.9928 23.1455 21.9928 23.1455C21.9928 23.1455 21.8158 23.3415 21.8958 23.5895C21.9748 23.9445 22.2858 24.0435 22.5158 24.3275L22.2588 24.6025H22.2568Z" fill="#E3E7EA"/>
<path d="M25.589 21.3006L25.137 21.6296L25.31 22.1636L24.858 21.8336L24.406 22.1636L24.579 21.6296L24.127 21.3006H24.686L24.858 20.7676L25.031 21.3006H25.589Z" fill="#E3E7EA"/>
<path d="M24.101 19.115L24.274 18.582L24.447 19.115H25.005L24.553 19.444L24.726 19.978L24.274 19.648L23.822 19.978L23.995 19.444L23.543 19.115H24.101Z" fill="#E3E7EA"/>
<path d="M22.5063 17.5135L22.6783 16.9805L22.8513 17.5135H23.4103L22.9573 17.8445L23.1303 18.3775L22.6783 18.0465L22.2273 18.3775L22.3993 17.8445L21.9473 17.5135H22.5063Z" fill="#E3E7EA"/>
<path d="M20.3285 16.9275L20.5005 16.3945L20.6725 16.9275H21.2315L20.7795 17.2565L20.9525 17.7895L20.5005 17.4605L20.0485 17.7895L20.2215 17.2565L19.7695 16.9275H20.3285Z" fill="#E3E7EA"/>
<path d="M20.4701 18.6035C21.1071 18.6035 21.7441 19.2015 21.7441 19.4115L20.7531 20.3895L20.7441 22.3365C20.8941 22.4965 21.5761 22.7985 21.9921 22.4615C22.4081 23.0215 22.8161 23.2705 23.5681 23.3775C22.8771 23.8835 22.1061 23.4085 22.0101 23.1195C21.3901 23.4305 20.6681 23.1795 20.4701 22.9385H20.4681C20.2701 23.1785 19.5491 23.4305 18.9291 23.1195C18.8331 23.4085 18.0611 23.8835 17.3711 23.3775C18.1231 23.2705 18.5311 23.0215 18.9471 22.4615C19.3631 22.7985 20.0451 22.4975 20.1951 22.3365L20.1871 20.3895L19.1951 19.4115C19.1951 19.2015 19.8331 18.6035 20.4711 18.6035H20.4701Z" fill="#E3E7EA"/>
<path d="M18.1488 17.5135L18.3218 16.9805L18.4938 17.5135H19.0518L18.6008 17.8445L18.7728 18.3775L18.3218 18.0465L17.8698 18.3775L18.0418 17.8445L17.5898 17.5135H18.1488Z" fill="#E3E7EA"/>
<path d="M16.5541 19.115L16.7271 18.582L16.9001 19.115H17.4581L17.0061 19.444L17.1791 19.978L16.7271 19.648L16.2751 19.978L16.4481 19.444L15.9961 19.115H16.5541Z" fill="#E3E7EA"/>
<path d="M16.1431 20.7676L16.3161 21.3006H16.8741L16.4221 21.6296L16.5951 22.1636L16.1431 21.8336L15.6911 22.1636L15.8641 21.6296L15.4121 21.3006H15.9711L16.1431 20.7676Z" fill="#E3E7EA"/>
<path d="M20.4678 20.0519C20.7168 19.6249 21.2218 19.4649 21.2218 19.4649C21.2218 19.4649 20.9658 19.0469 20.4708 19.0469C19.9758 19.0469 19.7168 19.4649 19.7168 19.4649C19.7168 19.4649 20.2188 19.6249 20.4678 20.0519Z" fill="#E3E7EA"/>
<path d="M20.1931 22.3346C20.0421 22.4946 19.3611 22.7966 18.9451 22.4596C18.5291 23.0196 18.1221 23.2686 17.3691 23.3756C18.0591 23.8816 18.8311 23.4066 18.9271 23.1176C19.5471 23.4286 20.2681 23.1776 20.4661 22.9366H20.4681C20.6661 23.1766 21.3881 23.4286 22.0081 23.1176C22.1041 23.4066 22.8751 23.8816 23.5661 23.3756C22.8141 23.2686 22.4061 23.0196 21.9901 22.4596C21.5741 22.7966 20.8921 22.4956 20.7421 22.3346L20.7511 20.3876L21.7421 19.4096C21.7421 19.1996 21.1061 18.6016 20.4681 18.6016C19.8301 18.6016 19.1921 19.1996 19.1921 19.4096L20.1841 20.3876L20.1931 22.3346ZM20.4691 19.0456C20.9641 19.0456 21.2201 19.4636 21.2201 19.4636C21.2201 19.4636 20.7151 19.6236 20.4661 20.0506C20.2171 19.6236 19.7151 19.4636 19.7151 19.4636C19.7151 19.4636 19.9741 19.0456 20.4691 19.0456Z" fill="#D3B400"/>
<path d="M21.8939 23.5895C21.8139 23.3415 21.9909 23.1455 21.9909 23.1455C21.9909 23.1455 21.7349 23.5005 21.0969 23.5005C20.7069 23.5005 20.4679 23.0645 20.4679 23.0645C20.4679 23.0645 20.2289 23.5005 19.8389 23.5005C19.2019 23.5005 18.9449 23.1455 18.9449 23.1455C18.9449 23.1455 19.1219 23.3415 19.0419 23.5895C18.9629 23.9445 18.6519 24.0435 18.4219 24.3275L18.6789 24.6025C18.9799 24.2655 19.5579 23.9445 20.4669 23.9445C21.3759 23.9445 21.9539 24.2655 22.2549 24.6025L22.5119 24.3275C22.2819 24.0435 21.9719 23.9445 21.8919 23.5895H21.8939Z" fill="#D3B400"/>
<path d="M24.686 21.3006H24.127L24.579 21.6296L24.406 22.1636L24.858 21.8336L25.31 22.1636L25.137 21.6296L25.589 21.3006H25.031L24.858 20.7676L24.686 21.3006Z" fill="#D3B400"/>
<path d="M23.822 19.978L24.274 19.648L24.726 19.978L24.553 19.444L25.005 19.115H24.447L24.274 18.582L24.101 19.115H23.543L23.995 19.444L23.822 19.978Z" fill="#D3B400"/>
<path d="M22.2273 18.3775L22.6783 18.0465L23.1303 18.3775L22.9573 17.8445L23.4103 17.5135H22.8513L22.6783 16.9805L22.5063 17.5135H21.9473L22.3993 17.8445L22.2273 18.3775Z" fill="#D3B400"/>
<path d="M20.0485 17.7895L20.5005 17.4605L20.9525 17.7895L20.7795 17.2565L21.2315 16.9275H20.6725L20.5005 16.3945L20.3285 16.9275H19.7695L20.2215 17.2565L20.0485 17.7895Z" fill="#D3B400"/>
<path d="M17.8698 18.3775L18.3218 18.0465L18.7728 18.3775L18.6008 17.8445L19.0518 17.5135H18.4938L18.3218 16.9805L18.1488 17.5135H17.5898L18.0418 17.8445L17.8698 18.3775Z" fill="#D3B400"/>
<path d="M16.2751 19.978L16.7271 19.648L17.1791 19.978L17.0061 19.444L17.4581 19.115H16.9001L16.7271 18.582L16.5541 19.115H15.9961L16.4481 19.444L16.2751 19.978Z" fill="#D3B400"/>
<path d="M15.8641 21.6296L15.6911 22.1636L16.1431 21.8336L16.5951 22.1636L16.4221 21.6296L16.8741 21.3006H16.3161L16.1431 20.7676L15.9711 21.3006H15.4121L15.8641 21.6296Z" fill="#D3B400"/>
</svg>
