<svg width="41" height="41" viewBox="0 0 41 41" fill="none" xmlns="http://www.w3.org/2000/svg">
<path d="M34.5 8.5H6.5C4.29086 8.5 2.5 10.2909 2.5 12.5V28.5C2.5 30.7091 4.29086 32.5 6.5 32.5H34.5C36.7091 32.5 38.5 30.7091 38.5 28.5V12.5C38.5 10.2909 36.7091 8.5 34.5 8.5Z" fill="#261B64"/>
<path d="M37.5141 30.1C29.7911 23.98 29.6011 13.485 33.0141 8.5C20.1051 14.603 14.2671 22.904 3.53906 30.1H37.5141Z" fill="#FCC800"/>
<path d="M37.9767 30.4466C38.0407 30.3326 38.1117 30.2216 38.1637 30.1016H37.5137C37.6627 30.2196 37.8217 30.3316 37.9767 30.4466Z" fill="#261B64"/>
<path d="M3.64648 31.3008C4.34448 32.0128 5.30748 32.4558 6.37648 32.4888C6.41748 32.4898 6.45548 32.5008 6.49648 32.5008H34.5055C34.7235 32.5008 34.9345 32.4698 35.1435 32.4368C36.0025 32.2978 36.7725 31.8958 37.3555 31.3018H3.64648V31.3008Z" fill="#FCC800"/>
<path d="M2.83594 30.0996C2.88794 30.2196 2.95894 30.3286 3.02194 30.4426C3.19494 30.3286 3.36794 30.2146 3.53894 30.0996H2.83594Z" fill="#261B64"/>
<path d="M7.63672 10.719H8.48772L8.75072 9.91797L9.01372 10.719H9.86472L9.17672 11.214L9.43972 12.013L8.75072 11.519L8.06272 12.013L8.32572 11.214L7.63672 10.719Z" fill="#E3E7EA"/>
<path d="M4.23438 14.1057H5.08538L5.34838 13.3047L5.61038 14.1057H6.46137L5.77438 14.5997L6.03638 15.3997L5.34838 14.9057L4.66037 15.3997L4.92237 14.5997L4.23438 14.1057Z" fill="#E3E7EA"/>
<path d="M10.6758 13.2647H11.4328L11.6668 12.5527L11.9008 13.2647H12.6578L12.0458 13.7057L12.2798 14.4177L11.6668 13.9767L11.0548 14.4177L11.2888 13.7057L10.6758 13.2647Z" fill="#E3E7EA"/>
<path d="M7.51367 19.4222H8.45867L8.75067 18.5312L9.04167 19.4222H9.98667L9.22267 19.9722L9.51467 20.8622L8.75067 20.3132L7.98667 20.8622L8.27767 19.9722L7.51367 19.4222Z" fill="#E3E7EA"/>
</svg>
