<svg width="41" height="41" viewBox="0 0 41 41" fill="none" xmlns="http://www.w3.org/2000/svg">
<path d="M34.5 8.5H6.5C4.29086 8.5 2.5 10.2909 2.5 12.5V28.5C2.5 30.7091 4.29086 32.5 6.5 32.5H34.5C36.7091 32.5 38.5 30.7091 38.5 28.5V12.5C38.5 10.2909 36.7091 8.5 34.5 8.5Z" fill="#DC0024"/>
<path d="M18.6463 20.4998L3.86233 31.4878C3.94533 31.5608 4.02933 31.6328 4.11833 31.6988L26.7203 20.4998L4.11733 9.30078C4.02833 9.36678 3.94433 9.43878 3.86133 9.51178L18.6463 20.4998Z" fill="#FBC300"/>
<path d="M3.862 31.4877L18.646 20.4997L3.862 9.51172C3.033 10.2437 2.5 11.3027 2.5 12.4947V28.5037C2.5 29.6967 3.033 30.7547 3.862 31.4867V31.4877Z" fill="black"/>
<path d="M11.5017 17.4251L10.1567 20.1131L12.4097 22.1191L9.31673 21.7821L7.96073 24.4661L7.39473 21.5701L4.30273 21.2221L7.04673 19.7691L6.49173 16.8711L8.75373 18.8681L11.5017 17.4251Z" fill="#E3E7EA"/>
</svg>
