<svg width="41" height="41" viewBox="0 0 41 41" fill="none" xmlns="http://www.w3.org/2000/svg">
<path d="M6.488 27.294V8.50195C4.284 8.50795 2.5 10.296 2.5 12.501V28.501C2.5 30.706 4.285 32.493 6.488 32.5V27.294Z" fill="#007758"/>
<path d="M34.4992 8.5H12.9492V32.5H34.4992C36.7092 32.5 38.4992 30.71 38.4992 28.5V12.5C38.4992 10.29 36.7092 8.5 34.4992 8.5ZM18.0692 11.56L18.4192 11.79L18.7692 11.56L18.6592 11.96L18.9892 12.21H18.5592L18.4492 12.63L18.2992 12.21H17.8792L18.2092 11.96L18.0692 11.56ZM16.5392 13.83L16.8992 14.09L17.2192 13.83L17.1292 14.25L17.4592 14.51H17.0392L16.9192 14.9L16.7792 14.51H16.3592L16.6892 14.25L16.5392 13.83ZM17.0392 12.98L16.9192 13.37L16.7792 12.98H16.3592L16.6892 12.72L16.5392 12.3L16.8992 12.56L17.2192 12.3L17.1292 12.72L17.4592 12.98H17.0392ZM17.0392 11.47L16.9192 11.86L16.7792 11.47L16.3592 11.44L16.6892 11.19L16.5392 10.8L16.8992 11.03L17.2192 10.8L17.1292 11.19L17.4592 11.44L17.0392 11.47ZM14.8292 13.72L14.8592 13.7L15.1592 13.46L15.0192 13.07L15.3692 13.3L15.7192 13.07L15.6092 13.46L15.9292 13.72H15.5092L15.3892 14.13L15.2492 13.72H14.8292ZM18.5892 16.87C17.8292 16.87 17.1492 16.59 16.6192 16.14C16.9892 16.29 17.3892 16.38 17.8092 16.38C19.4592 16.38 20.7892 15.06 20.7892 13.42C20.7892 12.46 20.3192 11.61 19.5992 11.07C20.7692 11.49 21.6192 12.59 21.6192 13.88C21.6192 15.55 20.2492 16.87 18.5892 16.87Z" fill="#007758"/>
<path d="M19.597 11.0723C20.318 11.6103 20.792 12.4563 20.792 13.4153C20.792 15.0613 19.454 16.3833 17.811 16.3833C17.389 16.3833 16.988 16.2933 16.623 16.1353C17.15 16.5883 17.83 16.8703 18.586 16.8703C20.253 16.8703 21.614 15.5483 21.614 13.8793C21.614 12.5843 20.767 11.4873 19.597 11.0723Z" fill="#F8FCFF"/>
<path d="M18.3048 12.2095L18.4458 12.6275L18.5628 12.2095H18.9858L18.6568 11.9545L18.7738 11.5605L18.4218 11.7925L18.0698 11.5605L18.2108 11.9545L17.8828 12.2095H18.3048Z" fill="#F8FCFF"/>
<path d="M16.7775 11.4679L16.9185 11.8619L17.0365 11.4679L17.4585 11.4449L17.1295 11.1889L17.2235 10.7949L16.8945 11.0269L16.5425 10.7949L16.6845 11.1889L16.3555 11.4449L16.7775 11.4679Z" fill="#F8FCFF"/>
<path d="M16.9185 13.3697L17.0365 12.9757H17.4585L17.1295 12.7197L17.2235 12.3027L16.8945 12.5577L16.5425 12.3027L16.6845 12.7197L16.3555 12.9757H16.7775L16.9185 13.3697Z" fill="#F8FCFF"/>
<path d="M16.9185 14.899L17.0365 14.505H17.4585L17.1295 14.25L17.2235 13.832L16.8945 14.087L16.5425 13.832L16.6845 14.25L16.3555 14.505H16.7775L16.9185 14.899Z" fill="#F8FCFF"/>
<path d="M15.7221 13.0684L15.3701 13.3004L15.0171 13.0684L15.1581 13.4624L14.8581 13.6964L14.8301 13.7184H14.8601H15.2521L15.3931 14.1354L15.5101 13.7184H15.9331L15.6051 13.4624L15.7221 13.0684Z" fill="#F8FCFF"/>
<path d="M8.93359 27.6678V28.5718L9.71759 29.0238L10.5006 28.5718V27.6678L9.71759 27.2148L8.93359 27.6678Z" fill="#D10034"/>
<path d="M10.1595 24.3496H9.31445V24.9176H10.1595V24.3496Z" fill="#D10034"/>
<path d="M10.1595 23.0566H9.31445V23.6246H10.1595V23.0566Z" fill="#D10034"/>
<path d="M12.7162 12.5353L12.1252 13.1263L11.8972 12.8993L11.5742 13.2233L11.8762 13.5263L12.2002 13.2453L12.7622 13.8063L12.5422 13.9823L12.9492 14.3683V11.9023L12.4952 12.3133L12.7162 12.5353Z" fill="#D10034"/>
<path d="M8.29688 24.941H8.97587L8.29688 24.5V24.941Z" fill="#D10034"/>
<path d="M12.7162 25.4592L12.1252 26.0502L11.8972 25.8232L11.5742 26.1472L11.8762 26.4502L12.2002 26.1692L12.7622 26.7302L12.5422 26.9062L12.9492 27.2922V24.8262L12.4952 25.2372L12.7162 25.4592Z" fill="#D10034"/>
<path d="M11.5972 8.5L11.5742 8.523L11.8762 8.827L12.2002 8.545L12.7622 9.105L12.5422 9.283L12.9492 9.668V8.5H11.5972Z" fill="#D10034"/>
<path d="M8.29688 23.0176V23.4206L8.97488 23.0176H8.29688Z" fill="#D10034"/>
<path d="M9.12672 18.6426L8.26172 19.2516V20.1136L9.12672 20.7226H10.3487L11.2137 20.1136V19.2516L10.3487 18.6426H9.12672Z" fill="#D10034"/>
<path d="M12.7162 21.1603L12.1252 21.7513L11.8972 21.5233L11.5742 21.8493L11.8762 22.1513L12.2002 21.8703L12.7622 22.4313L12.5422 22.6073L12.9492 22.9933V20.5273L12.4952 20.9383L12.7162 21.1603Z" fill="#D10034"/>
<path d="M12.7162 16.8049L12.1252 17.3959L11.8972 17.1689L11.5742 17.4929L11.8762 17.7959L12.2002 17.5159L12.7622 18.0759L12.5422 18.2519L12.9492 18.6379V16.1719L12.4952 16.5829L12.7162 16.8049Z" fill="#D10034"/>
<path d="M11.1747 23.0176H10.4707L11.1747 23.4316V23.0176Z" fill="#D10034"/>
<path d="M6.67628 9.105L7.23728 8.545L7.56128 8.827L7.86428 8.523L7.84128 8.5H6.50028H6.48828V8.501V9.668L6.89528 9.283L6.67628 9.105Z" fill="#D10034"/>
<path d="M11.1751 24.9405V24.5195L10.4961 24.9405H11.1751Z" fill="#D10034"/>
<path d="M12.4304 9.13405L12.1624 8.86605L11.9104 9.11905L11.3044 8.51305L11.3184 8.49805H8.11742L8.13142 8.51305L7.52542 9.11905L7.27342 8.86605L7.00542 9.13405L7.22942 9.35705L6.48642 10.013V11.555L7.22942 12.298L7.02742 12.5L7.32242 12.795L7.51742 12.6L8.13042 13.213L7.52442 13.819L7.27242 13.566L7.00442 13.833L7.22842 14.056L6.48542 14.712V15.823L7.22842 16.565L7.02642 16.767L7.32142 17.062L7.51642 16.867L8.12942 17.48L7.52342 18.086L7.27142 17.833L7.00342 18.1L7.22742 18.323L6.48442 18.979V20.176L7.22742 20.919L7.02542 21.121L7.32042 21.416L7.51542 21.221L8.12842 21.834L7.52242 22.439L7.27042 22.187L7.00242 22.454L7.22642 22.678L6.48342 23.334V24.473L7.22642 25.216L7.02442 25.418L7.31942 25.713L7.51442 25.518L8.12742 26.131L7.52142 26.737L7.26942 26.484L7.00142 26.751L7.22542 26.974L6.48242 27.63V32.49L6.49442 32.491H12.9444V27.63L12.2014 26.974L12.4254 26.751L12.1574 26.484L11.9054 26.737L11.2994 26.131L11.9124 25.518L12.1074 25.713L12.4024 25.418L12.2004 25.216L12.9434 24.473V23.334L12.2004 22.678L12.4244 22.454L12.1564 22.187L11.9044 22.439L11.2984 21.834L11.9114 21.221L12.1064 21.416L12.4014 21.121L12.1994 20.919L12.9424 20.176V18.979L12.1994 18.323L12.4234 18.1L12.1554 17.833L11.9034 18.086L11.2974 17.48L11.9104 16.867L12.1054 17.062L12.4004 16.767L12.1984 16.565L12.9414 15.823V14.712L12.1984 14.056L12.4224 13.833L12.1544 13.566L11.9024 13.819L11.2964 13.213L11.9094 12.6L12.1044 12.795L12.3994 12.5L12.1974 12.298L12.9404 11.555V10.013L12.1974 9.35705L12.4214 9.13405H12.4304ZM7.34442 14.556H7.96842V14.46H8.59242V15.133H7.96842V15.229H7.34442V14.556ZM7.96842 16.176V16.08H7.34442V15.407H7.96842V15.503H8.59242V16.176H7.96842ZM12.2184 29.022C12.9274 30.601 11.5644 31.633 11.1224 31.604C10.7704 31.581 10.5104 31.447 10.1584 31.411C10.3704 31.532 10.5004 31.653 10.5004 31.653L10.2754 31.806C10.2754 31.806 10.1114 31.532 9.71742 31.439C9.32342 31.532 9.15942 31.806 9.15942 31.806L8.93442 31.653C8.93442 31.653 9.06542 31.532 9.27642 31.411C8.92542 31.447 8.66542 31.581 8.31342 31.604C7.87142 31.633 6.50842 30.602 7.21642 29.022C7.85142 29.479 7.52242 30.036 7.81142 30.306C8.10142 30.576 8.40642 30.758 8.52442 31.076C8.64242 31.393 9.19442 31.13 9.56242 31.191C9.61942 31.201 9.66342 31.221 9.71642 31.235C9.76842 31.221 9.81342 31.2 9.87042 31.191C10.2384 31.13 10.7904 31.393 10.9094 31.076C11.0264 30.758 11.3324 30.576 11.6224 30.306C11.9124 30.036 11.5844 29.479 12.2184 29.022ZM12.1274 27.433V28.699L10.7274 29.594H8.74742L7.34742 28.699V27.433L8.74742 26.537H10.7284L12.1274 27.433ZM11.3914 22.808V23.263H11.7994V23.672H12.2764V24.268H11.7994V24.71H11.3924V25.191H10.0914L9.71942 25.422L9.36342 25.191H8.07542V24.71H7.61942V24.268H7.21942V23.672H7.61942V23.263H8.07542V22.808H9.32742L9.71942 22.575L10.1154 22.808H11.3914ZM11.6614 19.119V20.242L10.5344 21.036H8.94042L7.81342 20.242V19.119L8.94042 18.325H10.5334L11.6614 19.119ZM9.21742 15.743V16.416H8.59342V15.743H9.21742ZM8.59342 14.892V14.219H9.21742V14.892H8.59342ZM10.8614 14.219V14.892H10.2374V14.714H9.21842V13.882H10.2384V14.219H10.8614ZM10.2374 15.921V15.743H10.8614V16.416H10.2384V16.753H9.21842V15.921H10.2374ZM11.4864 16.175H10.8624V15.502H11.4864V16.175ZM11.4864 14.555H12.1104V15.228H11.4864V14.555ZM11.4864 15.406H12.1104V16.079H11.4864V15.406ZM11.4864 14.459V15.132H10.8624V14.459H11.4864ZM12.5454 10.594V11.441L12.0464 11.748V12.114L11.5084 12.441H11.1044L10.4504 12.781H8.98842L8.33442 12.441H7.93042L7.39242 12.114V11.748L6.89342 11.441V10.594L7.39242 10.287V9.92205L7.93042 9.59505H8.33442L8.98842 9.25505H10.4504L11.1044 9.59505H11.5084L12.0464 9.92205V10.287L12.5454 10.594Z" fill="#D10034"/>
<path d="M6.67628 26.7302L7.23728 26.1692L7.56128 26.4502L7.86428 26.1472L7.54028 25.8232L7.31328 26.0502L6.72128 25.4592L6.94328 25.2372L6.48828 24.8262V27.2922L6.89528 26.9062L6.67628 26.7302Z" fill="#D10034"/>
<path d="M6.67628 13.8063L7.23728 13.2453L7.56128 13.5263L7.86428 13.2233L7.54028 12.8993L7.31328 13.1263L6.72128 12.5353L6.94328 12.3133L6.48828 11.9023V14.3683L6.89528 13.9823L6.67628 13.8063Z" fill="#D10034"/>
<path d="M6.67628 22.4313L7.23728 21.8703L7.56128 22.1513L7.86428 21.8493L7.54028 21.5233L7.31328 21.7513L6.72128 21.1603L6.94328 20.9383L6.48828 20.5273V22.9933L6.89528 22.6073L6.67628 22.4313Z" fill="#D10034"/>
<path d="M6.67628 18.0759L7.23728 17.5159L7.56128 17.7959L7.86428 17.4929L7.54028 17.1689L7.31328 17.3959L6.72128 16.8049L6.94328 16.5829L6.48828 16.1719V18.6379L6.89528 18.2519L6.67628 18.0759Z" fill="#D10034"/>
<path d="M12.1307 10.6576L11.7048 10.3956V10.0836L11.2448 9.80463H10.9008L10.3418 9.51562H9.75775H9.71875V11.0176V11.0186H12.1307V10.6576Z" fill="white"/>
<path d="M9.09564 12.5235H9.71864V11.0195H7.30664V11.3815L7.73364 11.6435V11.9555L8.19264 12.2345H8.53764L9.09564 12.5235Z" fill="white"/>
<path d="M10.5516 29.3256L11.7056 28.5876V27.5446L10.5516 26.8066H8.92158L7.76758 27.5446V28.5876L8.92158 29.3256H10.5506H10.5516ZM8.93558 27.6676L9.71958 27.2146L10.5026 27.6676V28.5716L9.71958 29.0226L8.93558 28.5716V27.6676Z" fill="white"/>
<path d="M8.98758 12.7819H10.4496L11.1036 12.4419H11.5076L12.0456 12.1149V11.7489L12.5446 11.4419V10.5949L12.0456 10.2879V9.92286L11.5076 9.59586H11.1036L10.4496 9.25586H8.98758L8.33358 9.59586H7.92958L7.39158 9.92286V10.2879L6.89258 10.5949V11.4419L7.39158 11.7489V12.1149L7.92958 12.4419H8.33358L8.98758 12.7819ZM7.73358 11.9549V11.6429L7.30758 11.3809V11.0189H9.71958H7.34558V10.6579L7.77158 10.3949V10.0839L8.23158 9.80386H8.57658L9.13458 9.51486H9.75858V9.51686H10.3426L10.9006 9.80586H11.2446L11.7046 10.0849V10.3969L12.1306 10.6589V11.3819L11.7046 11.6439V11.9559L11.2446 12.2349H10.9006L10.3426 12.5239H9.09658L8.53858 12.2349H8.19458L7.73458 11.9559L7.73358 11.9549Z" fill="#29AE66"/>
<path d="M10.7257 29.5961L12.1257 28.7011V27.4351L10.7267 26.5391H8.7457L7.3457 27.4351V28.7011L8.7457 29.5961H10.7257ZM7.7677 27.5461L8.9217 26.8081H10.5517L11.7057 27.5461V28.5891L10.5517 29.3271H8.9227L7.7687 28.5891L7.7677 27.5461Z" fill="#29AE66"/>
<path d="M11.1738 23.0185V23.4325L11.4868 23.6155V23.7165V24.2845V24.3275L11.1738 24.5215V24.9425H10.4948L10.0898 25.1935H11.3918V24.7125H11.7988V24.2705H12.2758V23.6745H11.7988V23.2655H11.3908V22.8105H10.1138L10.4698 23.0185H11.1738Z" fill="#29AE66"/>
<path d="M10.5355 21.0372L11.6625 20.2432V19.1202L10.5345 18.3262H8.94145L7.81445 19.1202V20.2432L8.94145 21.0372H10.5355ZM8.26245 19.2512L9.12745 18.6422H10.3495L11.2145 19.2512V20.1132L10.3495 20.7222H9.12745L8.26245 20.1132V19.2512Z" fill="#29AE66"/>
<path d="M8.97575 24.9425H8.29675V24.5015L7.96875 24.2885V24.2845V23.7165V23.6155L8.29675 23.4215V23.0185H8.97475L9.32675 22.8105H8.07475V23.2655H7.61875V23.6745H7.21875V24.2705H7.61875V24.7125H8.07475V25.1935H9.36275L8.97575 24.9425Z" fill="#29AE66"/>
<path d="M8.29675 23.4202L7.96875 23.6142V23.7152H9.12575V24.2832H7.96875V24.2882L8.29675 24.5012L8.97675 24.9422L9.36375 25.1932L9.71975 25.4242L10.0918 25.1932L10.4967 24.9422L11.1757 24.5212L11.4888 24.3272V24.2842H10.3547V23.7162H11.4888V23.6152L11.1757 23.4312L10.4718 23.0172L10.1167 22.8092L9.72075 22.5762L9.32875 22.8092L8.97675 23.0172L8.29675 23.4202ZM9.31475 23.6252V23.0572H10.1597V23.6252H9.31475ZM10.1597 24.3512V24.9192H9.31475V24.3512H10.1597Z" fill="#29AE66"/>
<path d="M7.56128 8.827L7.23728 8.545L6.67628 9.105L6.89528 9.283L6.48828 9.668V10.015L7.23128 9.358L7.00728 9.135L7.27528 8.867L7.52728 9.12L8.13228 8.515L8.11828 8.5H7.84128L7.86428 8.523L7.56128 8.827Z" fill="#FAAE29"/>
<path d="M6.94328 12.3146L6.72128 12.5366L7.31328 13.1276L7.54028 12.9006L7.86428 13.2246L7.56128 13.5276L7.23728 13.2466L6.67628 13.8076L6.89528 13.9836L6.48828 14.3696V14.7156L7.23128 14.0596L7.00728 13.8356L7.27528 13.5696L7.52728 13.8226L8.13228 13.2156L7.51928 12.6026L7.32528 12.7976L7.02928 12.5016L7.23128 12.2996L6.48828 11.5566V11.9036L6.94328 12.3146Z" fill="#FAAE29"/>
<path d="M11.9116 9.12L12.1636 8.867L12.4316 9.135L12.2076 9.358L12.9506 10.015V9.668L12.5436 9.283L12.7636 9.105L12.2016 8.545L11.8776 8.827L11.5756 8.523L11.5986 8.5H11.3206L11.3066 8.515L11.9116 9.12Z" fill="#FAAE29"/>
<path d="M12.4096 16.7712L12.1146 17.0662L11.9196 16.8712L11.3066 17.4842L11.9116 18.0912L12.1636 17.8382L12.4316 18.1042L12.2076 18.3282L12.9506 18.9842V18.6382L12.5436 18.2522L12.7636 18.0762L12.2016 17.5162L11.8776 17.7962L11.5756 17.4932L11.8986 17.1692L12.1266 17.3962L12.7176 16.8052L12.4966 16.5832L12.9506 16.1722V15.8262L12.2076 16.5692L12.4096 16.7712Z" fill="#FAAE29"/>
<path d="M12.4096 21.1276L12.1146 21.4226L11.9196 21.2276L11.3066 21.8406L11.9116 22.4466L12.1636 22.1946L12.4316 22.4606L12.2076 22.6846L12.9506 23.3406V22.9946L12.5436 22.6086L12.7636 22.4326L12.2016 21.8716L11.8776 22.1526L11.5756 21.8506L11.8986 21.5246L12.1266 21.7526L12.7176 21.1616L12.4966 20.9396L12.9506 20.5286V20.1816L12.2076 20.9256L12.4096 21.1276Z" fill="#FAAE29"/>
<path d="M6.94328 16.5832L6.72128 16.8052L7.31328 17.3962L7.54028 17.1692L7.86428 17.4932L7.56128 17.7962L7.23728 17.5162L6.67628 18.0762L6.89528 18.2522L6.48828 18.6382V18.9842L7.23128 18.3282L7.00728 18.1042L7.27528 17.8382L7.52728 18.0912L8.13228 17.4842L7.51928 16.8712L7.32528 17.0662L7.02928 16.7712L7.23128 16.5692L6.48828 15.8262V16.1722L6.94328 16.5832Z" fill="#FAAE29"/>
<path d="M6.94328 25.2385L6.72128 25.4605L7.31328 26.0515L7.54028 25.8245L7.86428 26.1485L7.56128 26.4515L7.23728 26.1705L6.67628 26.7315L6.89528 26.9075L6.48828 27.2935V27.6395L7.23128 26.9835L7.00728 26.7595L7.27528 26.4935L7.52728 26.7465L8.13228 26.1395L7.51928 25.5265L7.32528 25.7215L7.02928 25.4265L7.23128 25.2235L6.48828 24.4805V24.8275L6.94328 25.2385Z" fill="#FAAE29"/>
<path d="M12.4096 12.5016L12.1146 12.7976L11.9196 12.6026L11.3066 13.2156L11.9116 13.8226L12.1636 13.5696L12.4316 13.8356L12.2076 14.0596L12.9506 14.7156V14.3696L12.5436 13.9836L12.7636 13.8076L12.2016 13.2466L11.8776 13.5276L11.5756 13.2246L11.8986 12.9006L12.1266 13.1276L12.7176 12.5366L12.4966 12.3146L12.9506 11.9036V11.5566L12.2076 12.2996L12.4096 12.5016Z" fill="#FAAE29"/>
<path d="M6.94328 20.9396L6.72128 21.1616L7.31328 21.7526L7.54028 21.5246L7.86428 21.8506L7.56128 22.1526L7.23728 21.8716L6.67628 22.4326L6.89528 22.6086L6.48828 22.9946V23.3406L7.23128 22.6846L7.00728 22.4606L7.27528 22.1946L7.52728 22.4466L8.13228 21.8406L7.51928 21.2276L7.32528 21.4226L7.02928 21.1276L7.23128 20.9256L6.48828 20.1816V20.5286L6.94328 20.9396Z" fill="#FAAE29"/>
<path d="M12.4096 25.4265L12.1146 25.7215L11.9196 25.5265L11.3066 26.1395L11.9116 26.7465L12.1636 26.4935L12.4316 26.7595L12.2076 26.9835L12.9506 27.6395V27.2935L12.5436 26.9075L12.7636 26.7315L12.2016 26.1705L11.8776 26.4515L11.5756 26.1485L11.8986 25.8245L12.1266 26.0515L12.7176 25.4605L12.4966 25.2385L12.9506 24.8275V24.4805L12.2076 25.2235L12.4096 25.4265Z" fill="#FAAE29"/>
<path d="M9.7587 9.51567V9.51367H9.1347L8.5767 9.80267H8.2317L7.7717 10.0827V10.3937L7.3457 10.6567V11.0177H9.7197V9.51567H9.7587Z" fill="#FAAE29"/>
<path d="M11.4873 14.4609H10.8633V15.1339H11.4873V14.4609Z" fill="#FAAE29"/>
<path d="M10.8623 14.2207H10.2393V14.7157H10.2383V14.8937H10.8623V14.2207Z" fill="#FAAE29"/>
<path d="M9.21775 14.2207H8.59375V14.8937H9.21775V14.2207Z" fill="#FAAE29"/>
<path d="M12.1123 14.5566H11.4883V15.2296H12.1123V14.5566Z" fill="#FAAE29"/>
<path d="M7.9697 15.1339H8.5937V14.4609H7.9697V14.5569H7.3457V15.2299H7.9697V15.1339Z" fill="#FAAE29"/>
<path d="M10.3418 12.5235L10.9008 12.2345H11.2448L11.7048 11.9555V11.6435L12.1307 11.3815V11.0195H9.71875V12.5235H10.3418Z" fill="#FAAE29"/>
<path d="M11.4873 15.5039H10.8633V16.1769H11.4873V15.5039Z" fill="#FAAE29"/>
<path d="M12.1123 15.4082H11.4883V16.0812H12.1123V15.4082Z" fill="#FAAE29"/>
<path d="M9.21775 15.7441H8.59375V16.4171H9.21775V15.7441Z" fill="#FAAE29"/>
<path d="M8.5937 15.5042H7.9697V15.4082H7.3457V16.0812H7.9697V16.1772H8.5937V15.5042Z" fill="#FAAE29"/>
<path d="M10.2383 15.9221H10.2393V16.4171H10.8623V15.7441H10.2383V15.9221Z" fill="#FAAE29"/>
<path d="M10.2388 14.2218V13.8848H9.21875V14.7168H10.2378H10.2388V14.2218Z" fill="#FAAE29"/>
<path d="M10.2378 15.9238H9.21875V16.7558H10.2388V16.4188V15.9238H10.2378Z" fill="#FAAE29"/>
<path d="M9.71875 31.4407C10.1127 31.5337 10.2768 31.8077 10.2768 31.8077L10.5017 31.6547C10.5017 31.6547 10.3717 31.5337 10.1597 31.4127C10.0697 31.4037 9.97875 31.3957 9.87275 31.4037C9.81275 31.4087 9.77075 31.4287 9.71875 31.4407Z" fill="#FAAE29"/>
<path d="M9.56584 31.1924C9.19784 31.1314 8.64584 31.3944 8.52784 31.0774C8.41084 30.7594 8.10484 30.5774 7.81484 30.3074C7.52484 30.0374 7.85484 29.4804 7.21984 29.0234C6.51184 30.6024 7.87384 31.6344 8.31684 31.6054C8.66884 31.5824 8.92784 31.4484 9.27984 31.4124C9.39884 31.3444 9.54784 31.2834 9.72084 31.2374C9.66884 31.2234 9.62384 31.2024 9.56684 31.1934L9.56584 31.1924Z" fill="#FAAE29"/>
<path d="M11.6226 30.3084C11.3326 30.5784 11.0276 30.7604 10.9096 31.0784C10.7916 31.3954 10.2396 31.1324 9.87059 31.1934C9.81359 31.2034 9.76959 31.2234 9.71659 31.2374C9.54359 31.2834 9.39559 31.3444 9.27559 31.4124C9.06359 31.5334 8.93359 31.6544 8.93359 31.6544L9.15859 31.8074C9.15859 31.8074 9.32259 31.5334 9.71659 31.4404C9.76859 31.4284 9.80959 31.4084 9.87059 31.4034C9.97659 31.3954 10.0676 31.4034 10.1576 31.4124C10.5096 31.4484 10.7696 31.5824 11.1216 31.6054C11.5636 31.6344 12.9266 30.6034 12.2176 29.0234C11.5836 29.4804 11.9116 30.0374 11.6226 30.3074V30.3084Z" fill="#FAAE29"/>
<path d="M9.12575 23.7168H7.96875V24.2848H9.12575V23.7168Z" fill="#FAAE29"/>
<path d="M11.4875 23.7168H10.3535V24.2848H11.4875V23.7168Z" fill="#FAAE29"/>
</svg>
