<svg width="41" height="41" viewBox="0 0 41 41" fill="none" xmlns="http://www.w3.org/2000/svg">
<path d="M20.5007 14.5C17.1707 14.5 14.4707 17.19 14.4707 20.5C14.4707 23.81 17.1707 26.5 20.5007 26.5C23.8307 26.5 26.5207 23.81 26.5207 20.5C26.5207 17.19 23.8307 14.5 20.5007 14.5ZM20.5007 25C18.0007 25 15.9807 22.99 15.9807 20.5C15.9807 18.01 18.0007 16 20.5007 16C22.0007 16 23.3207 16.74 24.1407 17.85C23.5007 17.27 22.6507 16.9 21.7107 16.9C19.7107 16.9 18.0907 18.51 18.0907 20.5C18.0907 22.49 19.7107 24.1 21.7107 24.1C22.6507 24.1 23.5007 23.73 24.1407 23.15C23.3207 24.26 22.0007 25 20.5007 25ZM23.9007 22.09L22.0307 21.48L20.8707 23.07V21.11L18.9907 20.5L20.8707 19.89V17.93L22.0307 19.52L23.9007 18.91L22.7407 20.5L23.9007 22.09Z" fill="#E3E7EA"/>
<path d="M34.5 8.5H6.5C4.29 8.5 2.5 10.29 2.5 12.5V28.5C2.5 30.71 4.29 32.5 6.5 32.5H34.5C36.71 32.5 38.5 30.71 38.5 28.5V12.5C38.5 10.29 36.71 8.5 34.5 8.5ZM20.5 26.5C17.17 26.5 14.47 23.81 14.47 20.5C14.47 17.19 17.17 14.5 20.5 14.5C23.83 14.5 26.52 17.19 26.52 20.5C26.52 23.81 23.83 26.5 20.5 26.5Z" fill="#E7001D"/>
<path d="M18.0895 20.499C18.0895 18.511 19.7085 16.898 21.7045 16.898C22.6465 16.898 23.4965 17.266 24.1395 17.853C23.3175 16.734 21.9985 15.998 20.4995 15.998C18.0035 15.998 15.9805 18.012 15.9805 20.498C15.9805 22.984 18.0045 24.998 20.4995 24.998C21.9985 24.998 23.3175 24.263 24.1395 23.144C23.4965 23.732 22.6465 24.099 21.7045 24.099C19.7085 24.099 18.0895 22.488 18.0895 20.499Z" fill="#E7001D"/>
<path d="M22.7402 20.4997L23.9002 22.0897L22.0302 21.4797L20.8702 23.0697V21.1097L18.9902 20.4997L20.8702 19.8897V17.9297L22.0302 19.5197L23.9002 18.9097L22.7402 20.4997Z" fill="#E7001D"/>
</svg>
