<svg width="41" height="41" viewBox="0 0 41 41" fill="none" xmlns="http://www.w3.org/2000/svg">
<path d="M21.938 8.5H6.495C4.288 8.5 2.5 10.289 2.5 12.496V20.5H21.938V8.5ZM16.532 16H13.583V19H10.634V16H7.685V13H10.634V10H13.583V13H16.532V16Z" fill="#E3E7EA"/>
<path d="M34.5 8.5H21.938V20.5H2.5V28.5C2.5 30.709 4.291 32.5 6.5 32.5H34.5C36.709 32.5 38.5 30.709 38.5 28.5V12.5C38.5 10.291 36.709 8.5 34.5 8.5Z" fill="#C1001B"/>
<path d="M13.5835 10H10.6345V13H7.68555V16H10.6345V19H13.5835V16H16.5325V13H13.5835V10Z" fill="#C1001B"/>
</svg>
