<svg width="41" height="41" viewBox="0 0 41 41" fill="none" xmlns="http://www.w3.org/2000/svg">
<path d="M34.5 8.5H6.5C4.29 8.5 2.5 10.29 2.5 12.5V28.5C2.5 30.71 4.29 32.5 6.5 32.5H34.5C36.71 32.5 38.5 30.71 38.5 28.5V12.5C38.5 10.29 36.71 8.5 34.5 8.5ZM13.88 26.5C10.54 26.5 7.84 23.81 7.84 20.5C7.84 17.19 10.54 14.5 13.88 14.5C16.05 14.5 17.96 15.65 19.02 17.37C18.13 16.35 16.84 15.7 15.38 15.7C12.72 15.7 10.56 17.85 10.56 20.5C10.56 23.15 12.72 25.3 15.38 25.3C16.84 25.3 18.13 24.65 19.02 23.63C17.96 25.35 16.05 26.5 13.88 26.5ZM24.44 22.26L22.35 21.59L21.06 23.35V21.17L20.18 20.89L18.98 20.5L20.18 20.11L21.06 19.83V17.65L22.35 19.41L24.44 18.74L23.15 20.5L24.44 22.26Z" fill="#E5001E"/>
<path d="M15.3858 25.3C12.7188 25.3 10.5568 23.151 10.5568 20.5C10.5568 17.849 12.7188 15.7 15.3858 15.7C16.8438 15.7 18.1348 16.355 19.0198 17.37C17.9578 15.651 16.0548 14.5 13.8768 14.5C10.5418 14.5 7.83984 17.187 7.83984 20.5C7.83984 23.813 10.5418 26.5 13.8768 26.5C16.0548 26.5 17.9578 25.349 19.0198 23.63C18.1348 24.645 16.8438 25.3 15.3858 25.3Z" fill="#E3E7EA"/>
<path d="M22.3535 19.4095L21.0645 17.6465V19.8255L20.1765 20.1125L18.9785 20.4995L20.1765 20.8865L21.0645 21.1735V23.3535L22.3535 21.5895L24.4385 22.2625L23.1505 20.4995L24.4385 18.7365L22.3535 19.4095Z" fill="#E3E7EA"/>
</svg>
