<svg width="41" height="41" viewBox="0 0 41 41" fill="none" xmlns="http://www.w3.org/2000/svg">
<path d="M34.5 8.5H6.5C4.29086 8.5 2.5 10.2909 2.5 12.5V28.5C2.5 30.7091 4.29086 32.5 6.5 32.5H34.5C36.7091 32.5 38.5 30.7091 38.5 28.5V12.5C38.5 10.2909 36.7091 8.5 34.5 8.5Z" fill="#CF002E"/>
<path d="M38.1549 30.117L12.5489 8.5H10.4609L37.4009 31.244C37.7119 30.915 37.9689 30.536 38.1549 30.117Z" fill="#E3E7EA"/>
<path d="M2.8457 10.8819L28.4517 32.4999H30.5397L3.5997 9.75586C3.2887 10.0849 3.0317 10.4629 2.8457 10.8819Z" fill="#E3E7EA"/>
<path d="M37.4016 31.244L10.4616 8.5H6.49561C5.35161 8.5 4.32761 8.986 3.59961 9.756L30.5396 32.5H34.5056C35.6496 32.5 36.6736 32.014 37.4016 31.244Z" fill="black"/>
</svg>
