<svg width="41" height="41" viewBox="0 0 41 41" fill="none" xmlns="http://www.w3.org/2000/svg">
<path d="M34.5 8.5H6.5C4.29086 8.5 2.5 10.2909 2.5 12.5V28.5C2.5 30.7091 4.29086 32.5 6.5 32.5H34.5C36.7091 32.5 38.5 30.7091 38.5 28.5V12.5C38.5 10.2909 36.7091 8.5 34.5 8.5Z" fill="#72A4DA"/>
<path d="M23.0019 17.7317V15.4297H18.4609L23.0019 17.7317Z" fill="#2E2D7C"/>
<path d="M14.459 18.8936H20.71L14.459 15.7246V18.8936Z" fill="#2E2D7C"/>
<path d="M18.4609 11.9651H23.0029V9.66211L18.4609 11.9651Z" fill="#2E2D7C"/>
<path d="M11.042 18.8936V15.7246L4.79102 18.8936H11.042Z" fill="#2E2D7C"/>
<path d="M5.23242 8.723L11.0424 11.668V8.5H6.49642C6.05242 8.5 5.63142 8.59 5.23242 8.723Z" fill="#2E2D7C"/>
<path d="M14.459 8.5V11.668L20.71 8.5H14.459Z" fill="#2E2D7C"/>
<path d="M3.33069 10.082C2.91969 10.62 2.64869 11.261 2.55469 11.964H7.04269L3.33069 10.082Z" fill="#2E2D7C"/>
<path d="M2.5 15.4297V17.7317L7.041 15.4297H2.5Z" fill="#2E2D7C"/>
<path d="M23.0024 8.5L16.1684 11.965H14.6404L21.4744 8.5H20.7104L14.4594 11.668V8.5H13.7754V12.015V12.657H17.0934H23.0024V11.965H18.4604L23.0024 9.662V8.5Z" fill="#E3E7EA"/>
<path d="M11.042 11.669L5.232 8.72395C4.821 8.86195 4.442 9.05795 4.103 9.31395L9.333 11.966H7.805L3.555 9.81095C3.475 9.89795 3.401 9.98995 3.33 10.084L7.042 11.966H2.5V12.659H11.726V8.50195H11.042V11.669Z" fill="#E3E7EA"/>
<path d="M2.5 14.7363V15.4293H7.041L2.5 17.7313V18.8943L9.333 15.4293H10.862L4.027 18.8943H4.791L11.042 15.7253V18.8943H11.726V15.3783V14.7363H8.408H2.5Z" fill="#E3E7EA"/>
<path d="M13.7754 14.7363V15.3783V18.8943H14.4594V15.7253L20.7104 18.8943H23.0024L16.1684 15.4293H17.6964L23.0024 18.1193V17.7313L18.4614 15.4293H23.0024V14.7363H17.0934H13.7754Z" fill="#E3E7EA"/>
<path d="M13.775 12.657V12.015V8.5H11.726V12.015V12.657H8.408H2.5V14.736H8.408H11.726V15.378V18.894H13.775V15.378V14.736H17.093H23.002V12.657H17.093H13.775Z" fill="#CC001C"/>
<path d="M9.33269 11.9645L4.10269 9.3125C3.90469 9.4615 3.72169 9.6265 3.55469 9.8095L7.80469 11.9645H9.33269Z" fill="#CC001C"/>
<path d="M23.0026 8.5H21.4746L14.6406 11.965H16.1686L23.0026 8.5Z" fill="#CC001C"/>
<path d="M2.5 18.8947H4.027L10.862 15.4297H9.333L2.5 18.8947Z" fill="#CC001C"/>
<path d="M16.168 15.4297L23.002 18.8947V18.1197L17.696 15.4297H16.168Z" fill="#CC001C"/>
<path fill-rule="evenodd" clip-rule="evenodd" d="M37.2615 14.4541L36.0875 13.6461L34.9125 14.4541L35.3625 13.1481L34.1875 12.3421L35.6395 12.3431L36.0875 11.0371L36.5345 12.3431L37.9875 12.3421L36.8115 13.1491L37.2615 14.4541Z" fill="#F9CF00"/>
<path fill-rule="evenodd" clip-rule="evenodd" d="M33.617 24.8662L32.443 24.0582L31.268 24.8662L31.718 23.5602L30.543 22.7542L31.995 22.7552L32.443 21.4492L32.89 22.7552L34.343 22.7542L33.167 23.5602L33.617 24.8662Z" fill="#F9CF00"/>
<path fill-rule="evenodd" clip-rule="evenodd" d="M37.2615 22.5107L36.0875 21.7027L34.9125 22.5107L35.3625 21.2048L34.1875 20.3988L35.6395 20.3997L36.0875 19.0938L36.5345 20.3997L37.9875 20.3988L36.8115 21.2048L37.2615 22.5107Z" fill="#F9CF00"/>
<path fill-rule="evenodd" clip-rule="evenodd" d="M21.5887 30.0615L20.4137 29.2535L19.2387 30.0615L19.6887 28.7565L18.5137 27.9505L19.9657 27.9515L20.4137 26.6445L20.8617 27.9515L22.3137 27.9505L21.1377 28.7565L21.5887 30.0615Z" fill="#F9CF00"/>
<path fill-rule="evenodd" clip-rule="evenodd" d="M23.4311 21.793L24.6051 22.601L25.7791 21.794L25.3291 23.099L26.5051 23.905L25.0521 23.904L24.6051 25.21L24.1571 23.904L22.7051 23.905L23.8811 23.099L23.4311 21.793Z" fill="#F9CF00"/>
<path fill-rule="evenodd" clip-rule="evenodd" d="M27.7143 15.8438L28.8883 16.6517L30.0623 15.8438L29.6123 17.1497L30.7883 17.9557L29.3353 17.9548L28.8883 19.2607L28.4403 17.9548L26.9883 17.9557L28.1643 17.1497L27.7143 15.8438Z" fill="#F9CF00"/>
<path fill-rule="evenodd" clip-rule="evenodd" d="M31.3139 14.6074L32.4889 15.4154L33.6629 14.6074L33.2129 15.9134L34.3879 16.7194L32.9359 16.7184L32.4879 18.0244L32.0409 16.7184L30.5879 16.7194L31.7639 15.9134L31.3139 14.6074Z" fill="#F9CF00"/>
<path fill-rule="evenodd" clip-rule="evenodd" d="M27.7143 24.9062L28.8883 25.7143L30.0623 24.9062L29.6123 26.2122L30.7883 27.0182L29.3353 27.0173L28.8883 28.3232L28.4403 27.0163L26.9883 27.0182L28.1643 26.2122L27.7143 24.9062Z" fill="#F9CF00"/>
<path fill-rule="evenodd" clip-rule="evenodd" d="M23.4311 25.959L24.6051 26.767L25.7791 25.959L25.3291 27.265L26.5051 28.071L25.0521 28.07L24.6051 29.375L24.1571 28.069L22.7051 28.07L23.8811 27.265L23.4311 25.959Z" fill="#F9CF00"/>
</svg>
