<svg width="41" height="41" viewBox="0 0 41 41" fill="none" xmlns="http://www.w3.org/2000/svg">
<path d="M34.5 8.5H19.972V20.5H2.5V28.5C2.5 30.709 4.291 32.5 6.5 32.5H34.5C36.709 32.5 38.5 30.709 38.5 28.5V12.5C38.5 10.291 36.709 8.5 34.5 8.5Z" fill="#E60028"/>
<path d="M6.5 8.5C5.4 8.5 4.4 8.95 3.67 9.67C2.95 10.4 2.5 11.4 2.5 12.5V20.5H19.97V8.5H6.5ZM12.98 12.79L14.96 12.25L13.5 13.73C13.39 13.38 13.21 13.06 12.98 12.79ZM13.34 14.5C13.34 15.74 12.35 16.75 11.13 16.75C9.9 16.75 8.91 15.74 8.91 14.5C8.91 13.26 9.9 12.25 11.13 12.25C12.35 12.25 13.34 13.26 13.34 14.5ZM13.34 10.6L12.8 12.62C12.54 12.38 12.23 12.19 11.89 12.08L13.34 10.6ZM11.13 10L11.65 12.01C11.48 11.97 11.31 11.95 11.13 11.95C10.94 11.95 10.77 11.97 10.6 12.01L11.13 10ZM10.36 12.08C10.02 12.19 9.71 12.38 9.45 12.62L8.91 10.6L10.36 12.08ZM9.28 12.79C9.04 13.06 8.86 13.38 8.75 13.73L7.29 12.25L9.28 12.79ZM8.68 13.96C8.64 14.14 8.62 14.32 8.62 14.5C8.62 14.68 8.64 14.86 8.68 15.04L6.7 14.5L8.68 13.96ZM8.75 15.27C8.86 15.62 9.04 15.94 9.28 16.21L7.29 16.75L8.75 15.27ZM8.91 18.4L9.45 16.38C9.71 16.62 10.02 16.81 10.36 16.92L8.91 18.4ZM11.13 19L10.6 16.99C10.77 17.03 10.94 17.05 11.13 17.05C11.31 17.05 11.48 17.03 11.65 16.99L11.13 19ZM11.89 16.92C12.23 16.81 12.54 16.62 12.8 16.38L13.34 18.4L11.89 16.92ZM12.98 16.21C13.21 15.94 13.39 15.62 13.5 15.27L14.96 16.75L12.98 16.21ZM13.57 15.04C13.61 14.86 13.63 14.68 13.63 14.5C13.63 14.32 13.61 14.14 13.57 13.96L15.55 14.5L13.57 15.04Z" fill="#282868"/>
<path d="M11.6516 12.008L11.1256 10L10.5996 12.008C10.7696 11.971 10.9456 11.949 11.1256 11.949C11.3056 11.949 11.4816 11.97 11.6516 12.008Z" fill="#E3E7EA"/>
<path d="M13.5723 15.0358L15.5463 14.5008L13.5723 13.9648C13.6083 14.1378 13.6293 14.3168 13.6293 14.5008C13.6293 14.6848 13.6083 14.8638 13.5723 15.0358Z" fill="#E3E7EA"/>
<path d="M10.5977 16.9922L11.1237 19.0002L11.6497 16.9922C11.4797 17.0292 11.3037 17.0512 11.1237 17.0512C10.9437 17.0512 10.7677 17.0302 10.5977 16.9922Z" fill="#E3E7EA"/>
<path d="M8.67517 13.9648L6.70117 14.5008L8.67517 15.0358C8.63917 14.8628 8.61717 14.6838 8.61717 14.5008C8.61717 14.3178 8.63917 14.1378 8.67517 13.9648Z" fill="#E3E7EA"/>
<path d="M8.91211 18.3968L10.3631 16.9178C10.0181 16.8058 9.70711 16.6238 9.44611 16.3828L8.91311 18.3978L8.91211 18.3968Z" fill="#E3E7EA"/>
<path d="M13.3377 10.6035L11.8867 12.0825C12.2307 12.1955 12.5427 12.3765 12.8037 12.6185L13.3377 10.6035Z" fill="#E3E7EA"/>
<path d="M14.9546 16.7494L13.5006 15.2734C13.3906 15.6244 13.2116 15.9404 12.9746 16.2074L14.9546 16.7494Z" fill="#E3E7EA"/>
<path d="M7.29397 12.25L8.74797 13.726C8.85797 13.375 9.03697 13.059 9.27397 12.792L7.29397 12.25Z" fill="#E3E7EA"/>
<path d="M8.91311 10.6035L9.44611 12.6185C9.70811 12.3775 10.0191 12.1955 10.3631 12.0835L8.91211 10.6045L8.91311 10.6035Z" fill="#E3E7EA"/>
<path d="M7.29297 16.7494L9.27397 16.2074C9.03597 15.9414 8.85797 15.6244 8.74797 15.2734L7.29297 16.7494Z" fill="#E3E7EA"/>
<path d="M13.3377 18.3978L12.8037 16.3828C12.5417 16.6238 12.2307 16.8058 11.8867 16.9178L13.3377 18.3978Z" fill="#E3E7EA"/>
<path d="M14.9556 12.25L12.9746 12.792C13.2126 13.058 13.3906 13.375 13.5006 13.726L14.9546 12.25H14.9556Z" fill="#E3E7EA"/>
<path d="M11.1241 16.75C12.3458 16.75 13.3361 15.7426 13.3361 14.5C13.3361 13.2574 12.3458 12.25 11.1241 12.25C9.90246 12.25 8.91211 13.2574 8.91211 14.5C8.91211 15.7426 9.90246 16.75 11.1241 16.75Z" fill="#E3E7EA"/>
</svg>
