<svg width="41" height="41" viewBox="0 0 41 41" fill="none" xmlns="http://www.w3.org/2000/svg">
<path d="M2.5 28.5C2.5 30.709 4.291 32.5 6.5 32.5H34.5C36.709 32.5 38.5 30.709 38.5 28.5H2.5Z" fill="#DE1518"/>
<path d="M2.5 20.5H16.763C16.763 18.436 18.436 16.763 20.5 16.763C22.564 16.763 24.237 18.436 24.237 20.5H38.5V16.5H2.5V20.5Z" fill="#DE1518"/>
<path d="M34.505 8.49905H6.495C4.288 8.49905 2.5 10.288 2.5 12.495V12.499H38.5V12.494C38.5 10.287 36.711 8.49905 34.505 8.49905Z" fill="black"/>
<path d="M20.5 24.237C18.436 24.237 16.763 22.564 16.763 20.5H2.5V24.5H38.5V20.5H24.237C24.237 22.564 22.564 24.237 20.5 24.237Z" fill="black"/>
<path d="M20.5007 24.2377C22.5647 24.2377 24.2377 22.5647 24.2377 20.5007C24.2377 18.4367 22.5647 16.7637 20.5007 16.7637C18.4367 16.7637 16.7637 18.4367 16.7637 20.5007C16.7637 22.5647 18.4367 24.2377 20.5007 24.2377ZM19.3477 19.2377C19.5757 18.9717 19.7317 18.7907 19.8197 18.6577C19.7227 18.6517 19.6287 18.5717 19.6387 18.4577C19.6447 18.3897 19.6907 18.3497 19.7457 18.3227C19.5427 18.3057 19.1947 18.4077 19.1327 18.2837C19.0527 18.1227 19.6967 17.9337 19.6967 17.9337C19.6967 17.9337 19.7307 17.7627 19.8467 17.6217L19.6377 17.0717C19.6377 17.0717 19.8457 17.0097 20.1207 16.9967V16.9877C20.1207 16.9877 20.2247 16.9477 20.5157 16.9877C20.8067 17.0277 20.9387 17.2327 20.9387 17.2327C21.1207 17.4387 21.1427 17.7287 21.1427 17.7287L20.8157 17.8277C20.8717 18.1107 20.6357 18.4397 20.4857 18.4787C20.2627 18.5367 20.1847 19.3347 20.2627 19.4707C20.2847 19.5097 20.4537 19.6087 20.6747 19.7367C21.0877 19.8987 21.6887 20.1717 21.9027 20.2687C21.9447 20.2877 21.9657 20.3287 21.9957 20.3607C22.3967 20.4977 22.8697 20.7637 22.9247 21.3927C22.9977 22.2387 22.1317 22.7367 22.1317 22.7367L22.2767 22.4747L22.0197 22.5627L22.1317 22.3717L21.7277 22.4597C21.7277 22.4597 22.4047 21.9197 22.1687 21.4377C22.1867 21.8397 21.9177 21.9487 21.9177 21.9487C21.9177 21.9487 21.9517 21.8567 21.9317 21.7097C21.9067 21.7307 21.8887 21.7437 21.8887 21.7437C21.8887 21.7437 21.8377 21.6307 21.7347 21.4907C21.6757 21.4907 21.6147 21.4897 21.5477 21.4777C21.2167 21.4187 21.0427 21.4977 21.2367 21.7687C21.4307 22.0407 21.5087 22.3137 21.1977 22.2937C20.8857 22.2737 20.6327 22.2937 20.6327 22.2937C20.6327 22.2937 20.7497 23.1887 20.8087 23.2857C20.8677 23.3827 21.4317 23.5197 21.3927 23.6167C21.3537 23.7137 21.0227 23.5777 20.8087 23.6167C20.5947 23.6557 20.0497 24.0057 19.9717 23.9867C19.8937 23.9667 20.0687 23.6367 20.0687 23.6367C20.0687 23.6367 19.4657 23.6577 19.5437 23.5397C19.6217 23.4217 20.4867 23.3637 20.4867 23.3637V22.3327C20.4867 22.3327 20.0687 22.2557 19.9127 22.2947C19.7567 22.3327 19.5817 22.3917 19.5627 22.5087C19.5437 22.6257 19.4067 22.7617 19.3867 22.6647C19.3667 22.5677 19.2897 22.4897 19.2897 22.6847C19.2897 22.8797 19.1507 22.9377 19.1327 22.7817C19.1147 22.6257 19.0377 22.5097 19.0377 22.7047C19.0377 22.8997 18.8427 22.7617 18.9207 22.5097C18.9987 22.2577 19.2127 22.0437 19.5247 22.0817C19.8357 22.1207 20.4877 22.0617 20.4877 22.0617V21.4977C20.4877 21.4977 20.2637 21.3997 20.0687 21.2247C19.8747 21.0497 19.6217 20.9047 19.4077 20.7147C19.1937 20.5237 18.8827 19.7857 19.3497 19.2397L19.3477 19.2377Z" fill="white"/>
<path d="M20.8065 21.6094L20.7285 21.9984H20.9425C21.0785 21.9984 20.8065 21.6094 20.8065 21.6094Z" fill="white"/>
<path d="M38.5 12.5H2.5V16.5H38.5V12.5Z" fill="#F8E700"/>
<path d="M38.5 24.5H2.5V28.5H38.5V24.5Z" fill="#F8E700"/>
<path d="M20.4851 17.4855C20.5551 17.5105 20.6071 17.5435 20.6541 17.5775L20.9391 17.2315C20.9391 17.2315 20.8071 17.0265 20.5161 16.9865C20.2251 16.9465 20.1211 16.9865 20.1211 16.9865V17.4525C20.2201 17.4305 20.3381 17.4315 20.4851 17.4845V17.4855Z" fill="#FCDC02"/>
<path d="M20.0668 21.22C20.2608 21.395 20.4858 21.493 20.4858 21.493V22.057C20.4858 22.057 19.8338 22.115 19.5228 22.077C19.2118 22.039 18.9978 22.253 18.9188 22.505C18.8408 22.757 19.0358 22.894 19.0358 22.7C19.0358 22.506 19.1138 22.621 19.1308 22.777C19.1478 22.933 19.2878 22.874 19.2878 22.68C19.2878 22.486 19.3658 22.563 19.3848 22.66C19.4048 22.757 19.5408 22.621 19.5608 22.504C19.5808 22.387 19.7548 22.328 19.9108 22.29C20.0668 22.252 20.4848 22.328 20.4848 22.328V23.359C20.4848 23.359 19.6188 23.417 19.5418 23.535C19.4638 23.653 20.0668 23.632 20.0668 23.632C20.0668 23.632 19.8908 23.963 19.9698 23.982C20.0478 24.002 20.5928 23.651 20.8068 23.612C21.0208 23.573 21.3518 23.709 21.3908 23.612C21.4298 23.515 20.8658 23.378 20.8068 23.281C20.7478 23.184 20.6308 22.289 20.6308 22.289C20.6308 22.289 20.8838 22.268 21.1958 22.289C21.5068 22.309 21.4298 22.036 21.2348 21.764C21.0408 21.492 21.2148 21.414 21.5458 21.473C21.6128 21.485 21.6738 21.487 21.7328 21.486C21.6028 21.308 21.3828 21.082 21.0108 20.936C20.1168 20.586 19.8578 19.753 20.2668 19.608C20.3028 19.595 20.4668 19.651 20.6738 19.733C20.4528 19.605 20.2838 19.506 20.2618 19.467C20.1838 19.331 20.2618 18.533 20.4848 18.475C20.6348 18.436 20.8708 18.107 20.8148 17.824C20.7968 17.732 20.7488 17.646 20.6538 17.575C20.6068 17.54 20.5548 17.508 20.4848 17.483C20.3378 17.43 20.2198 17.429 20.1208 17.451C20.0008 17.478 19.9098 17.542 19.8468 17.619C19.7308 17.76 19.6968 17.931 19.6968 17.931C19.6968 17.931 19.0518 18.12 19.1328 18.281C19.1948 18.405 19.5428 18.302 19.7458 18.32C19.8618 18.263 20.0278 18.297 20.0088 18.455C19.9908 18.61 19.9048 18.66 19.8198 18.655C19.7308 18.788 19.5748 18.969 19.3478 19.235C18.8808 19.781 19.1918 20.519 19.4058 20.71C19.6198 20.9 19.8728 21.045 20.0668 21.22ZM20.8068 21.608C20.8068 21.608 21.0798 21.997 20.9428 21.997H20.7288L20.8068 21.608ZM19.9308 18.011C19.9308 17.959 19.9728 17.916 20.0258 17.916C20.0778 17.916 20.1208 17.959 20.1208 18.011C20.1208 18.063 20.0788 18.106 20.0258 18.106C19.9738 18.106 19.9308 18.064 19.9308 18.011Z" fill="#141414"/>
<path d="M20.8163 17.8235L21.1433 17.7245C21.1433 17.7245 21.1213 17.4345 20.9393 17.2285L20.6543 17.5745C20.7493 17.6445 20.7973 17.7305 20.8153 17.8235H20.8163Z" fill="#D90000"/>
<path d="M20.1217 16.9941C19.8477 17.0061 19.6387 17.0691 19.6387 17.0691L19.8477 17.6191C19.9107 17.5421 20.0017 17.4781 20.1217 17.4511V16.9941Z" fill="#D90000"/>
<path d="M20.0094 18.4558C20.0274 18.2978 19.8624 18.2638 19.7464 18.3208C19.6924 18.3478 19.6464 18.3878 19.6394 18.4558C19.6294 18.5698 19.7234 18.6498 19.8204 18.6558C19.9054 18.6608 19.9914 18.6108 20.0094 18.4558Z" fill="#D90000"/>
<path d="M21.9596 20.588L21.4346 20.383L21.6976 20.71L21.1426 20.5L21.4046 20.71L21.1426 20.777C21.7446 21.143 21.8996 21.487 21.9306 21.706C21.9506 21.852 21.9166 21.945 21.9166 21.945C21.9166 21.945 22.1856 21.836 22.1676 21.434C22.4036 21.916 21.7266 22.456 21.7266 22.456L22.1306 22.368L22.0186 22.559L22.2756 22.471L22.1306 22.733C22.1306 22.733 22.9966 22.236 22.9236 21.389C22.8686 20.76 22.3956 20.494 21.9946 20.357C21.8556 20.309 21.7246 20.276 21.6236 20.25L21.9586 20.586L21.9596 20.588Z" fill="#D90000"/>
<path d="M21.0109 20.938C21.3829 21.084 21.6029 21.31 21.7329 21.488C21.8359 21.628 21.8869 21.741 21.8869 21.741C21.8869 21.741 21.9049 21.728 21.9299 21.707C21.8999 21.488 21.7449 21.144 21.1419 20.778L21.4039 20.711L21.1419 20.501L21.6969 20.711L21.4339 20.384L21.9589 20.589L21.6239 20.253C21.7249 20.279 21.8559 20.312 21.9949 20.36C21.9649 20.329 21.9439 20.287 21.9019 20.268C21.6879 20.171 21.0869 19.898 20.6739 19.736C20.4659 19.654 20.3029 19.599 20.2669 19.611C19.8579 19.757 20.1169 20.588 21.0109 20.938Z" fill="#9CA69C"/>
<path d="M20.1216 18.011C20.1216 17.959 20.0786 17.916 20.0266 17.916C19.9736 17.916 19.9316 17.959 19.9316 18.011C19.9316 18.064 19.9746 18.106 20.0266 18.106C20.0796 18.106 20.1216 18.063 20.1216 18.011Z" fill="#9CA69C"/>
</svg>
