<svg width="41" height="41" viewBox="0 0 41 41" fill="none" xmlns="http://www.w3.org/2000/svg">
<path d="M3.13672 30.6523C3.13672 30.6523 3.14172 30.6583 3.14372 30.6613C3.19272 30.7373 3.24972 30.8083 3.30372 30.8803C3.38472 30.9893 3.47072 31.0933 3.56172 31.1933C3.61972 31.2563 3.67472 31.3213 3.73672 31.3803C3.88072 31.5193 4.03672 31.6463 4.19972 31.7623C4.25572 31.8023 4.31472 31.8373 4.37272 31.8743C4.52972 31.9743 4.69272 32.0633 4.86372 32.1413C4.89972 32.1573 4.93372 32.1773 4.96972 32.1923C5.17772 32.2793 5.39672 32.3443 5.62172 32.3943C5.67272 32.4063 5.72472 32.4153 5.77672 32.4253C6.01072 32.4683 6.24872 32.4983 6.49472 32.4983H34.5037C34.7497 32.4983 34.9887 32.4683 35.2217 32.4253C35.2737 32.4153 35.3257 32.4063 35.3767 32.3943C35.6017 32.3433 35.8207 32.2793 36.0287 32.1923C36.0647 32.1773 36.0987 32.1573 36.1347 32.1413C36.3057 32.0643 36.4687 31.9743 36.6257 31.8743C36.6837 31.8373 36.7427 31.8023 36.7987 31.7623C36.9627 31.6463 37.1177 31.5193 37.2617 31.3803C37.3227 31.3213 37.3787 31.2563 37.4367 31.1933C37.5277 31.0933 37.6137 30.9893 37.6947 30.8803C37.7487 30.8073 37.8057 30.7373 37.8547 30.6613C37.8567 30.6583 37.8597 30.6553 37.8617 30.6523H3.13672Z" fill="#DE001B"/>
<path d="M2.5 28.4999V28.5039C2.5 28.6079 2.523 28.7059 2.531 28.8069H38.47C38.478 28.7049 38.501 28.6079 38.501 28.5039V26.9609H2.5V28.4999Z" fill="#DE001B"/>
<path d="M38.5 23.2695H2.5V25.1155H38.5V23.2695Z" fill="#DE001B"/>
<path d="M38.4992 19.5762H20.7422V21.4222H38.4992V19.5762Z" fill="#DE001B"/>
<path d="M38.4992 15.8828H20.7422V17.7288H38.4992V15.8828Z" fill="#DE001B"/>
<path d="M38.4682 12.1914H20.7422V14.0374H38.4992V12.4954C38.4992 12.3914 38.4762 12.2924 38.4682 12.1914Z" fill="#DE001B"/>
<path d="M37.8621 10.345H37.8641C37.8641 10.345 37.8591 10.339 37.8571 10.335C37.8081 10.259 37.7511 10.189 37.6981 10.117C37.6171 10.008 37.5301 9.90305 37.4381 9.80205C37.3811 9.74005 37.3261 9.67605 37.2651 9.61705C37.1201 9.47805 36.9651 9.35005 36.8011 9.23405C36.7451 9.19505 36.6871 9.16005 36.6291 9.12305C36.4711 9.02305 36.3071 8.93305 36.1351 8.85505C36.1001 8.83905 36.0671 8.82005 36.0311 8.80505C35.8221 8.71805 35.6031 8.65305 35.3781 8.60205C35.3271 8.59005 35.2751 8.58105 35.2231 8.57105C34.9891 8.52805 34.7511 8.49805 34.5051 8.49805H20.7441V10.344L37.8621 10.345Z" fill="#DE001B"/>
<path d="M20.742 19.577V8.5H6.49405C6.24805 8.5 6.00905 8.53 5.77605 8.573C5.72405 8.583 5.67205 8.592 5.62105 8.604C5.39605 8.655 5.17705 8.719 4.96805 8.807C4.93205 8.822 4.89905 8.841 4.86405 8.857C4.69205 8.935 4.52805 9.025 4.37005 9.125C4.31205 9.162 4.25405 9.197 4.19805 9.236C4.03405 9.353 3.87805 9.48 3.73405 9.619C3.67305 9.678 3.61805 9.742 3.56105 9.804C3.46905 9.905 3.38305 10.009 3.30105 10.119C3.24705 10.192 3.19105 10.261 3.14205 10.337C3.14005 10.34 3.13705 10.343 3.13505 10.347C3.03905 10.496 2.95705 10.653 2.88305 10.815C2.83305 10.925 2.78805 11.038 2.74805 11.153C2.72705 11.215 2.70805 11.278 2.69005 11.341C2.61105 11.611 2.55405 11.891 2.53105 12.181C2.53105 12.185 2.53005 12.189 2.52905 12.193C2.52105 12.295 2.49805 12.392 2.49805 12.496V19.577V21.424H20.741V19.578L20.742 19.577ZM4.35005 19.831L3.94205 19.529L3.53405 19.831L3.69005 19.343L3.28205 19.041H3.78605L3.94205 18.553L4.09805 19.041H4.60205L4.19405 19.343L4.35005 19.831ZM4.19405 17.186L4.35005 17.674L3.94205 17.373L3.53405 17.674L3.69005 17.186L3.28205 16.884H3.78605L3.94205 16.396L4.09805 16.884H4.60205L4.19405 17.186ZM4.19405 15.028L4.35005 15.517L3.94205 15.215L3.53405 15.517L3.69005 15.028L3.28205 14.727H3.78605L3.94205 14.238L4.09805 14.727H4.60205L4.19405 15.028ZM4.19405 12.871L4.35005 13.36L3.94205 13.058L3.53405 13.36L3.69005 12.871L3.28205 12.569H3.78605L3.94205 12.08L4.09805 12.569H4.60205L4.19405 12.871ZM4.19405 10.714L4.35005 11.203L3.94205 10.901L3.53405 11.203L3.69005 10.714L3.28205 10.412H3.78605L3.94205 9.923L4.09805 10.412H4.60205L4.19405 10.714ZM5.82705 18.81L5.41805 18.509L5.01005 18.81L5.16605 18.322L4.75805 18.02H5.26305L5.41905 17.532L5.57505 18.02H6.08005L5.67205 18.322L5.82705 18.81ZM5.67105 16.165L5.82705 16.653L5.41805 16.351L5.01005 16.653L5.16605 16.165L4.75805 15.863H5.26305L5.41905 15.375L5.57505 15.863H6.08005L5.67105 16.165ZM5.67105 14.008L5.82705 14.496L5.41805 14.195L5.01005 14.496L5.16605 14.008L4.75805 13.706H5.26305L5.41905 13.218L5.57505 13.706H6.08005L5.67105 14.008ZM5.67105 11.851L5.82705 12.339L5.41805 12.038L5.01005 12.339L5.16605 11.851L4.75805 11.549H5.26305L5.41905 11.061L5.57505 11.549H6.08005L5.67105 11.851ZM7.32305 19.831L6.91505 19.529L6.50605 19.831L6.66205 19.343L6.25405 19.041H6.75905L6.91505 18.553L7.07105 19.041H7.57605L7.16805 19.343L7.32305 19.831ZM7.16705 17.186L7.32305 17.674L6.91505 17.373L6.50605 17.674L6.66205 17.186L6.25405 16.884H6.75905L6.91505 16.396L7.07105 16.884H7.57605L7.16705 17.186ZM7.16705 15.028L7.32305 15.517L6.91505 15.215L6.50605 15.517L6.66205 15.028L6.25405 14.727H6.75905L6.91505 14.238L7.07105 14.727H7.57605L7.16705 15.028ZM7.16705 12.871L7.32305 13.36L6.91505 13.058L6.50605 13.36L6.66205 12.871L6.25405 12.569H6.75905L6.91505 12.08L7.07105 12.569H7.57605L7.16705 12.871ZM7.16705 10.714L7.32305 11.203L6.91505 10.901L6.50605 11.203L6.66205 10.714L6.25405 10.412H6.75905L6.91505 9.923L7.07105 10.412H7.57605L7.16705 10.714ZM8.80005 18.81L8.39205 18.509L7.98405 18.81L8.14005 18.322L7.73205 18.02H8.23705L8.39305 17.532L8.54905 18.02H9.05405L8.64605 18.322L8.80205 18.81H8.80005ZM8.64405 16.165L8.80005 16.653L8.39205 16.351L7.98405 16.653L8.14005 16.165L7.73205 15.863H8.23705L8.39305 15.375L8.54905 15.863H9.05405L8.64605 16.165H8.64405ZM8.64405 14.008L8.80005 14.496L8.39205 14.195L7.98405 14.496L8.14005 14.008L7.73205 13.706H8.23705L8.39305 13.218L8.54905 13.706H9.05405L8.64605 14.008H8.64405ZM8.64405 11.851L8.80005 12.339L8.39205 12.038L7.98405 12.339L8.14005 11.851L7.73205 11.549H8.23705L8.39305 11.061L8.54905 11.549H9.05405L8.64605 11.851H8.64405ZM10.295 19.831L9.88705 19.529L9.47905 19.831L9.63505 19.343L9.22705 19.041H9.73205L9.88805 18.553L10.044 19.041H10.549L10.141 19.343L10.297 19.831H10.295ZM10.139 17.186L10.295 17.674L9.88705 17.373L9.47905 17.674L9.63505 17.186L9.22705 16.884H9.73205L9.88805 16.396L10.044 16.884H10.549L10.141 17.186H10.139ZM10.139 15.028L10.295 15.517L9.88705 15.215L9.47905 15.517L9.63505 15.028L9.22705 14.727H9.73205L9.88805 14.238L10.044 14.727H10.549L10.141 15.028H10.139ZM10.139 12.871L10.295 13.36L9.88705 13.058L9.47905 13.36L9.63505 12.871L9.22705 12.569H9.73205L9.88805 12.08L10.044 12.569H10.549L10.141 12.871H10.139ZM10.139 10.714L10.295 11.203L9.88705 10.901L9.47905 11.203L9.63505 10.714L9.22705 10.412H9.73205L9.88805 9.923L10.044 10.412H10.549L10.141 10.714H10.139ZM11.772 18.81L11.364 18.509L10.956 18.81L11.112 18.322L10.704 18.02H11.208L11.364 17.532L11.52 18.02H12.024L11.616 18.322L11.772 18.81ZM11.616 16.165L11.772 16.653L11.364 16.351L10.956 16.653L11.112 16.165L10.704 15.863H11.208L11.364 15.375L11.52 15.863H12.024L11.616 16.165ZM11.616 14.008L11.772 14.496L11.364 14.195L10.956 14.496L11.112 14.008L10.704 13.706H11.208L11.364 13.218L11.52 13.706H12.024L11.616 14.008ZM11.616 11.851L11.772 12.339L11.364 12.038L10.956 12.339L11.112 11.851L10.704 11.549H11.208L11.364 11.061L11.52 11.549H12.024L11.616 11.851ZM13.268 19.831L12.86 19.529L12.452 19.831L12.608 19.343L12.2 19.041H12.705L12.861 18.553L13.017 19.041H13.522L13.114 19.343L13.27 19.831H13.268ZM13.112 17.186L13.268 17.674L12.86 17.373L12.452 17.674L12.608 17.186L12.2 16.884H12.705L12.861 16.396L13.017 16.884H13.522L13.114 17.186H13.112ZM13.112 15.028L13.268 15.517L12.86 15.215L12.452 15.517L12.608 15.028L12.2 14.727H12.705L12.861 14.238L13.017 14.727H13.522L13.114 15.028H13.112ZM13.112 12.871L13.268 13.36L12.86 13.058L12.452 13.36L12.608 12.871L12.2 12.569H12.705L12.861 12.08L13.017 12.569H13.522L13.114 12.871H13.112ZM13.112 10.714L13.268 11.203L12.86 10.901L12.452 11.203L12.608 10.714L12.2 10.412H12.705L12.861 9.923L13.017 10.412H13.522L13.114 10.714H13.112ZM14.745 18.81L14.337 18.509L13.928 18.81L14.084 18.322L13.676 18.02H14.181L14.337 17.532L14.493 18.02H14.998L14.59 18.322L14.745 18.81ZM14.589 16.165L14.745 16.653L14.337 16.351L13.928 16.653L14.084 16.165L13.676 15.863H14.181L14.337 15.375L14.493 15.863H14.998L14.589 16.165ZM14.589 14.008L14.745 14.496L14.337 14.195L13.928 14.496L14.084 14.008L13.676 13.706H14.181L14.337 13.218L14.493 13.706H14.998L14.589 14.008ZM14.589 11.851L14.745 12.339L14.337 12.038L13.928 12.339L14.084 11.851L13.676 11.549H14.181L14.337 11.061L14.493 11.549H14.998L14.589 11.851ZM16.241 19.831L15.833 19.529L15.425 19.831L15.581 19.343L15.173 19.041H15.678L15.834 18.553L15.99 19.041H16.495L16.087 19.343L16.243 19.831H16.241ZM16.085 17.186L16.241 17.674L15.833 17.373L15.425 17.674L15.581 17.186L15.173 16.884H15.678L15.834 16.396L15.99 16.884H16.495L16.087 17.186H16.085ZM16.085 15.028L16.241 15.517L15.833 15.215L15.425 15.517L15.581 15.028L15.173 14.727H15.678L15.834 14.238L15.99 14.727H16.495L16.087 15.028H16.085ZM16.085 12.871L16.241 13.36L15.833 13.058L15.425 13.36L15.581 12.871L15.173 12.569H15.678L15.834 12.08L15.99 12.569H16.495L16.087 12.871H16.085ZM16.085 10.714L16.241 11.203L15.833 10.901L15.425 11.203L15.581 10.714L15.173 10.412H15.678L15.834 9.923L15.99 10.412H16.495L16.087 10.714H16.085ZM17.717 18.81L17.309 18.509L16.901 18.81L17.057 18.322L16.649 18.02H17.154L17.31 17.532L17.466 18.02H17.971L17.563 18.322L17.719 18.81H17.717ZM17.561 16.165L17.717 16.653L17.309 16.351L16.901 16.653L17.057 16.165L16.649 15.863H17.154L17.31 15.375L17.466 15.863H17.971L17.563 16.165H17.561ZM17.561 14.008L17.717 14.496L17.309 14.195L16.901 14.496L17.057 14.008L16.649 13.706H17.154L17.31 13.218L17.466 13.706H17.971L17.563 14.008H17.561ZM17.561 11.851L17.717 12.339L17.309 12.038L16.901 12.339L17.057 11.851L16.649 11.549H17.154L17.31 11.061L17.466 11.549H17.971L17.563 11.851H17.561ZM19.213 19.831L18.804 19.529L18.396 19.831L18.552 19.343L18.144 19.041H18.649L18.805 18.553L18.961 19.041H19.466L19.058 19.343L19.213 19.831ZM19.057 17.186L19.213 17.674L18.804 17.373L18.396 17.674L18.552 17.186L18.144 16.884H18.649L18.805 16.396L18.961 16.884H19.466L19.057 17.186ZM19.057 15.028L19.213 15.517L18.804 15.215L18.396 15.517L18.552 15.028L18.144 14.727H18.649L18.805 14.238L18.961 14.727H19.466L19.057 15.028ZM19.057 12.871L19.213 13.36L18.804 13.058L18.396 13.36L18.552 12.871L18.144 12.569H18.649L18.805 12.08L18.961 12.569H19.466L19.057 12.871ZM19.057 10.714L19.213 11.203L18.804 10.901L18.396 11.203L18.552 10.714L18.144 10.412H18.649L18.805 9.923L18.961 10.412H19.466L19.057 10.714Z" fill="#293464"/>
<path d="M3.14258 10.3371C3.19158 10.2611 3.24858 10.1911 3.30158 10.1191C3.24758 10.1921 3.19158 10.2611 3.14258 10.3371Z" fill="#E3E7EA"/>
<path d="M2.75 11.1505C2.79 11.0355 2.835 10.9225 2.885 10.8125C2.834 10.9225 2.791 11.0355 2.75 11.1505Z" fill="#E3E7EA"/>
<path d="M3.13825 30.6526H37.8623C38.2093 30.1126 38.4173 29.4826 38.4693 28.8066H2.53125C2.58325 29.4826 2.79225 30.1126 3.13825 30.6526Z" fill="#E3E7EA"/>
<path d="M2.53125 12.1798C2.55425 11.8888 2.61125 11.6088 2.69025 11.3398C2.60825 11.6098 2.55525 11.8898 2.53125 12.1798Z" fill="#E3E7EA"/>
<path d="M38.5 25.1152H2.5V26.9612H38.5V25.1152Z" fill="#E3E7EA"/>
<path d="M5.62109 8.60327C5.67209 8.59127 5.72409 8.58227 5.77609 8.57227C5.72409 8.58227 5.67309 8.59127 5.62109 8.60327Z" fill="#E3E7EA"/>
<path d="M37.6973 10.1172C37.7513 10.1902 37.8073 10.2592 37.8563 10.3352C37.8073 10.2592 37.7513 10.1892 37.6973 10.1172Z" fill="#E3E7EA"/>
<path d="M20.7422 12.1917H38.4682C38.4162 11.5157 38.2072 10.8857 37.8612 10.3457H20.7432L20.7422 12.1917Z" fill="#E3E7EA"/>
<path d="M38.4992 14.0371H20.7422V15.8831H38.4992V14.0371Z" fill="#E3E7EA"/>
<path d="M37.8573 30.6621C37.8083 30.7381 37.7513 30.8091 37.6973 30.8811C37.7513 30.8081 37.8083 30.7381 37.8573 30.6621Z" fill="#E3E7EA"/>
<path d="M2.5 21.4238V23.2698H38.5V21.4238H20.743H2.5Z" fill="#E3E7EA"/>
<path d="M20.7422 19.5745V19.5755H38.4992V17.7285H20.7422V19.5745Z" fill="#E3E7EA"/>
<path d="M36.1353 32.1426C36.0993 32.1586 36.0653 32.1786 36.0293 32.1936C36.0663 32.1786 36.0993 32.1586 36.1353 32.1426Z" fill="#E3E7EA"/>
<path d="M35.3777 32.3945C35.3267 32.4065 35.2747 32.4155 35.2227 32.4255C35.2747 32.4155 35.3257 32.4065 35.3777 32.3945Z" fill="#E3E7EA"/>
<path d="M3.9442 9.92383L3.7872 10.4128H3.2832L3.6912 10.7138L3.5352 11.2028L3.9442 10.8998L4.3522 11.2028L4.1962 10.7138L4.6042 10.4128H4.1002L3.9442 9.92383Z" fill="#E3E7EA"/>
<path d="M3.9442 12.0801L3.7872 12.5691H3.2832L3.6912 12.8701L3.5352 13.3591L3.9442 13.0571L4.3522 13.3591L4.1962 12.8701L4.6042 12.5691H4.1002L3.9442 12.0801Z" fill="#E3E7EA"/>
<path d="M3.9442 14.2363L3.7872 14.7253H3.2832L3.6912 15.0263L3.5352 15.5153L3.9442 15.2133L4.3522 15.5153L4.1962 15.0263L4.6042 14.7253H4.1002L3.9442 14.2363Z" fill="#E3E7EA"/>
<path d="M3.9442 16.3945L3.7872 16.8825H3.2832L3.6912 17.1855L3.5352 17.6725L3.9442 17.3715L4.3522 17.6725L4.1962 17.1855L4.6042 16.8825H4.1002L3.9442 16.3945Z" fill="#E3E7EA"/>
<path d="M4.1002 19.0407L3.9442 18.5527L3.7872 19.0407H3.2832L3.6912 19.3437L3.5352 19.8317L3.9442 19.5297L4.3522 19.8317L4.1962 19.3437L4.6042 19.0407H4.1002Z" fill="#E3E7EA"/>
<path d="M5.41977 11.0605L5.26477 11.5485H4.75977L5.16777 11.8505L5.01177 12.3385L5.41977 12.0375L5.82877 12.3385L5.67277 11.8505L6.08077 11.5485H5.57577L5.41977 11.0605Z" fill="#E3E7EA"/>
<path d="M5.41977 13.2168L5.26477 13.7048H4.75977L5.16777 14.0068L5.01177 14.4948L5.41977 14.1938L5.82877 14.4948L5.67277 14.0068L6.08077 13.7048H5.57577L5.41977 13.2168Z" fill="#E3E7EA"/>
<path d="M5.41977 15.375L5.26477 15.863H4.75977L5.16777 16.166L5.01177 16.653L5.41977 16.352L5.82877 16.653L5.67277 16.166L6.08077 15.863H5.57577L5.41977 15.375Z" fill="#E3E7EA"/>
<path d="M5.57577 18.0193L5.41977 17.5312L5.26477 18.0193H4.75977L5.16777 18.3223L5.01177 18.8092L5.41977 18.5083L5.82877 18.8092L5.67277 18.3223L6.08077 18.0193H5.57577Z" fill="#E3E7EA"/>
<path d="M6.91686 9.92383L6.76086 10.4128H6.25586L6.66486 10.7138L6.50886 11.2028L6.91686 10.8998L7.32586 11.2028L7.16886 10.7138L7.57786 10.4128H7.07286L6.91686 9.92383Z" fill="#E3E7EA"/>
<path d="M6.91686 12.0801L6.76086 12.5691H6.25586L6.66486 12.8701L6.50886 13.3591L6.91686 13.0571L7.32586 13.3591L7.16886 12.8701L7.57786 12.5691H7.07286L6.91686 12.0801Z" fill="#E3E7EA"/>
<path d="M6.91686 14.2363L6.76086 14.7253H6.25586L6.66486 15.0263L6.50886 15.5153L6.91686 15.2133L7.32586 15.5153L7.16886 15.0263L7.57786 14.7253H7.07286L6.91686 14.2363Z" fill="#E3E7EA"/>
<path d="M6.91686 16.3945L6.76086 16.8825H6.25586L6.66486 17.1855L6.50886 17.6725L6.91686 17.3715L7.32586 17.6725L7.16886 17.1855L7.57786 16.8825H7.07286L6.91686 16.3945Z" fill="#E3E7EA"/>
<path d="M7.07286 19.0407L6.91686 18.5527L6.76086 19.0407H6.25586L6.66486 19.3437L6.50886 19.8317L6.91686 19.5297L7.32586 19.8317L7.16886 19.3437L7.57786 19.0407H7.07286Z" fill="#E3E7EA"/>
<path d="M8.39342 11.0605L8.23742 11.5485H7.73242L8.14042 11.8505L7.98542 12.3385L8.39342 12.0375L8.80142 12.3385L8.64642 11.8505L9.05442 11.5485H8.54942L8.39342 11.0605Z" fill="#E3E7EA"/>
<path d="M8.39342 13.2168L8.23742 13.7048H7.73242L8.14042 14.0068L7.98542 14.4948L8.39342 14.1938L8.80142 14.4948L8.64642 14.0068L9.05442 13.7048H8.54942L8.39342 13.2168Z" fill="#E3E7EA"/>
<path d="M8.39342 15.375L8.23742 15.863H7.73242L8.14042 16.166L7.98542 16.653L8.39342 16.352L8.80142 16.653L8.64642 16.166L9.05442 15.863H8.54942L8.39342 15.375Z" fill="#E3E7EA"/>
<path d="M8.54942 18.0193L8.39342 17.5312L8.23742 18.0193H7.73242L8.14042 18.3223L7.98542 18.8092L8.39342 18.5083L8.80142 18.8092L8.64642 18.3223L9.05442 18.0193H8.54942Z" fill="#E3E7EA"/>
<path d="M9.88952 9.92383L9.73352 10.4128H9.22852L9.63652 10.7138L9.48052 11.2028L9.88952 10.8998L10.2975 11.2028L10.1415 10.7138L10.5495 10.4128H10.0455L9.88952 9.92383Z" fill="#E3E7EA"/>
<path d="M9.88952 12.0801L9.73352 12.5691H9.22852L9.63652 12.8701L9.48052 13.3591L9.88952 13.0571L10.2975 13.3591L10.1415 12.8701L10.5495 12.5691H10.0455L9.88952 12.0801Z" fill="#E3E7EA"/>
<path d="M9.88952 14.2363L9.73352 14.7253H9.22852L9.63652 15.0263L9.48052 15.5153L9.88952 15.2133L10.2975 15.5153L10.1415 15.0263L10.5495 14.7253H10.0455L9.88952 14.2363Z" fill="#E3E7EA"/>
<path d="M9.88952 16.3945L9.73352 16.8825H9.22852L9.63652 17.1855L9.48052 17.6725L9.88952 17.3715L10.2975 17.6725L10.1415 17.1855L10.5495 16.8825H10.0455L9.88952 16.3945Z" fill="#E3E7EA"/>
<path d="M10.0455 19.0407L9.88952 18.5527L9.73352 19.0407H9.22852L9.63652 19.3437L9.48052 19.8317L9.88952 19.5297L10.2975 19.8317L10.1415 19.3437L10.5495 19.0407H10.0455Z" fill="#E3E7EA"/>
<path d="M11.3661 11.0605L11.2091 11.5485H10.7051L11.1131 11.8505L10.9571 12.3385L11.3661 12.0375L11.7741 12.3385L11.6181 11.8505L12.0261 11.5485H11.5221L11.3661 11.0605Z" fill="#E3E7EA"/>
<path d="M11.3661 13.2168L11.2091 13.7048H10.7051L11.1131 14.0068L10.9571 14.4948L11.3661 14.1938L11.7741 14.4948L11.6181 14.0068L12.0261 13.7048H11.5221L11.3661 13.2168Z" fill="#E3E7EA"/>
<path d="M11.3661 15.375L11.2091 15.863H10.7051L11.1131 16.166L10.9571 16.653L11.3661 16.352L11.7741 16.653L11.6181 16.166L12.0261 15.863H11.5221L11.3661 15.375Z" fill="#E3E7EA"/>
<path d="M11.5221 18.0193L11.3661 17.5312L11.2091 18.0193H10.7051L11.1131 18.3223L10.9571 18.8092L11.3661 18.5083L11.7741 18.8092L11.6181 18.3223L12.0261 18.0193H11.5221Z" fill="#E3E7EA"/>
<path d="M12.8612 9.92383L12.7062 10.4128H12.2012L12.6092 10.7138L12.4532 11.2028L12.8612 10.8998L13.2702 11.2028L13.1142 10.7138L13.5222 10.4128H13.0182L12.8612 9.92383Z" fill="#E3E7EA"/>
<path d="M12.8612 12.0801L12.7062 12.5691H12.2012L12.6092 12.8701L12.4532 13.3591L12.8612 13.0571L13.2702 13.3591L13.1142 12.8701L13.5222 12.5691H13.0182L12.8612 12.0801Z" fill="#E3E7EA"/>
<path d="M12.8612 14.2363L12.7062 14.7253H12.2012L12.6092 15.0263L12.4532 15.5153L12.8612 15.2133L13.2702 15.5153L13.1142 15.0263L13.5222 14.7253H13.0182L12.8612 14.2363Z" fill="#E3E7EA"/>
<path d="M12.8612 16.3945L12.7062 16.8825H12.2012L12.6092 17.1855L12.4532 17.6725L12.8612 17.3715L13.2702 17.6725L13.1142 17.1855L13.5222 16.8825H13.0182L12.8612 16.3945Z" fill="#E3E7EA"/>
<path d="M13.0182 19.0407L12.8612 18.5527L12.7062 19.0407H12.2012L12.6092 19.3437L12.4532 19.8317L12.8612 19.5297L13.2702 19.8317L13.1142 19.3437L13.5222 19.0407H13.0182Z" fill="#E3E7EA"/>
<path d="M14.3387 11.0605L14.1827 11.5485H13.6777L14.0867 11.8505L13.9307 12.3385L14.3387 12.0375L14.7477 12.3385L14.5917 11.8505L14.9997 11.5485H14.4947L14.3387 11.0605Z" fill="#E3E7EA"/>
<path d="M14.3387 13.2168L14.1827 13.7048H13.6777L14.0867 14.0068L13.9307 14.4948L14.3387 14.1938L14.7477 14.4948L14.5917 14.0068L14.9997 13.7048H14.4947L14.3387 13.2168Z" fill="#E3E7EA"/>
<path d="M14.3387 15.375L14.1827 15.863H13.6777L14.0867 16.166L13.9307 16.653L14.3387 16.352L14.7477 16.653L14.5917 16.166L14.9997 15.863H14.4947L14.3387 15.375Z" fill="#E3E7EA"/>
<path d="M14.4947 18.0193L14.3387 17.5312L14.1827 18.0193H13.6777L14.0867 18.3223L13.9307 18.8092L14.3387 18.5083L14.7477 18.8092L14.5917 18.3223L14.9997 18.0193H14.4947Z" fill="#E3E7EA"/>
<path d="M15.8348 9.92383L15.6788 10.4128H15.1738L15.5818 10.7138L15.4268 11.2028L15.8348 10.8998L16.2428 11.2028L16.0878 10.7138L16.4958 10.4128H15.9908L15.8348 9.92383Z" fill="#E3E7EA"/>
<path d="M15.8348 12.0801L15.6788 12.5691H15.1738L15.5818 12.8701L15.4268 13.3591L15.8348 13.0571L16.2428 13.3591L16.0878 12.8701L16.4958 12.5691H15.9908L15.8348 12.0801Z" fill="#E3E7EA"/>
<path d="M15.8348 14.2363L15.6788 14.7253H15.1738L15.5818 15.0263L15.4268 15.5153L15.8348 15.2133L16.2428 15.5153L16.0878 15.0263L16.4958 14.7253H15.9908L15.8348 14.2363Z" fill="#E3E7EA"/>
<path d="M15.8348 16.3945L15.6788 16.8825H15.1738L15.5818 17.1855L15.4268 17.6725L15.8348 17.3715L16.2428 17.6725L16.0878 17.1855L16.4958 16.8825H15.9908L15.8348 16.3945Z" fill="#E3E7EA"/>
<path d="M15.9908 19.0407L15.8348 18.5527L15.6788 19.0407H15.1738L15.5818 19.3437L15.4268 19.8317L15.8348 19.5297L16.2428 19.8317L16.0878 19.3437L16.4958 19.0407H15.9908Z" fill="#E3E7EA"/>
<path d="M17.3114 11.0605L17.1554 11.5485H16.6504L17.0594 11.8505L16.9024 12.3385L17.3114 12.0375L17.7194 12.3385L17.5634 11.8505L17.9724 11.5485H17.4674L17.3114 11.0605Z" fill="#E3E7EA"/>
<path d="M17.3114 13.2168L17.1554 13.7048H16.6504L17.0594 14.0068L16.9024 14.4948L17.3114 14.1938L17.7194 14.4948L17.5634 14.0068L17.9724 13.7048H17.4674L17.3114 13.2168Z" fill="#E3E7EA"/>
<path d="M17.3114 15.375L17.1554 15.863H16.6504L17.0594 16.166L16.9024 16.653L17.3114 16.352L17.7194 16.653L17.5634 16.166L17.9724 15.863H17.4674L17.3114 15.375Z" fill="#E3E7EA"/>
<path d="M17.4674 18.0193L17.3114 17.5312L17.1554 18.0193H16.6504L17.0594 18.3223L16.9024 18.8092L17.3114 18.5083L17.7194 18.8092L17.5634 18.3223L17.9724 18.0193H17.4674Z" fill="#E3E7EA"/>
<path d="M18.8065 9.92383L18.6515 10.4128H18.1465L18.5545 10.7138L18.3985 11.2028L18.8065 10.8998L19.2155 11.2028L19.0595 10.7138L19.4675 10.4128H18.9635L18.8065 9.92383Z" fill="#E3E7EA"/>
<path d="M18.8065 12.0801L18.6515 12.5691H18.1465L18.5545 12.8701L18.3985 13.3591L18.8065 13.0571L19.2155 13.3591L19.0595 12.8701L19.4675 12.5691H18.9635L18.8065 12.0801Z" fill="#E3E7EA"/>
<path d="M18.8065 14.2363L18.6515 14.7253H18.1465L18.5545 15.0263L18.3985 15.5153L18.8065 15.2133L19.2155 15.5153L19.0595 15.0263L19.4675 14.7253H18.9635L18.8065 14.2363Z" fill="#E3E7EA"/>
<path d="M18.8065 16.3945L18.6515 16.8825H18.1465L18.5545 17.1855L18.3985 17.6725L18.8065 17.3715L19.2155 17.6725L19.0595 17.1855L19.4675 16.8825H18.9635L18.8065 16.3945Z" fill="#E3E7EA"/>
<path d="M18.9635 19.0407L18.8065 18.5527L18.6515 19.0407H18.1465L18.5545 19.3437L18.3985 19.8317L18.8065 19.5297L19.2155 19.8317L19.0595 19.3437L19.4675 19.0407H18.9635Z" fill="#E3E7EA"/>
</svg>
