<svg width="41" height="41" viewBox="0 0 41 41" fill="none" xmlns="http://www.w3.org/2000/svg">
<path d="M6.495 8.5H34.504C36.709 8.5 38.5 10.29 38.5 12.496V28.505C38.5 30.71 36.71 32.5 34.505 32.5H6.496C4.291 32.5 2.5 30.71 2.5 28.504V12.495C2.5 10.29 4.29 8.5 6.495 8.5Z" fill="#3090D1"/>
<path d="M28.7931 19.9437C28.7181 19.9437 28.6041 19.6827 28.5671 19.4227C28.5671 19.1987 28.2281 18.7887 27.9641 18.3797C27.8131 18.0437 27.6621 17.8947 27.6621 17.8947C27.6621 17.8947 27.7001 19.0867 27.8511 19.3857C28.0401 19.7587 28.2281 20.0937 28.4541 20.6157C28.6011 20.9547 28.6181 21.0347 28.6131 21.0537C28.6271 21.0397 28.7591 20.9077 28.8311 20.8017C28.9061 20.6897 29.3971 20.2797 29.6231 19.4597C29.8491 18.6397 29.6611 17.5957 29.6611 17.5957C29.6611 17.5957 29.5481 17.9307 29.5101 18.1917C29.4351 18.4897 29.0951 18.8997 28.9821 19.2727C28.8691 19.6827 28.8691 19.9437 28.7931 19.9437Z" fill="white"/>
<path d="M28.6125 21.0527L28.6035 21.0617C28.6035 21.0617 28.6095 21.0627 28.6125 21.0527Z" fill="white"/>
<path d="M26.0797 25.718C25.7407 25.68 25.4767 25.792 25.2507 25.904C25.0247 26.016 24.8357 25.904 24.8357 25.904C24.8357 25.904 25.2127 25.68 25.5147 25.047C25.7407 24.6 25.9667 23.668 25.9667 23.668C25.9667 23.668 25.2127 24.339 24.8737 24.786C24.5717 25.196 24.4967 25.606 24.1577 25.904C23.7807 26.239 23.5547 26.314 23.5547 26.314C23.5547 26.314 23.9697 26.389 24.1577 26.277C24.3837 26.203 24.6857 26.277 24.9497 26.426C25.2137 26.575 26.0427 26.575 26.7597 26.277C27.8907 25.83 28.1547 24.973 28.1547 24.973C28.1547 24.973 27.7777 25.234 27.3257 25.494C26.8737 25.755 26.4207 25.755 26.0817 25.718H26.0797Z" fill="white"/>
<path d="M23.3281 26.6491C22.8381 26.5001 22.3851 26.3881 22.0461 26.4251C21.3671 26.4621 20.5001 26.6121 20.5001 26.6121C20.5001 26.6121 19.8211 26.5371 19.4441 26.4631C19.0671 26.3881 18.4261 26.4261 17.5591 26.6491C16.7301 26.8721 16.2391 27.0221 15.7491 27.0591C15.2591 27.0971 14.5801 26.7611 14.5801 26.7611C14.5801 26.7611 14.6931 27.0591 15.2961 27.2821C15.8621 27.5431 16.8421 27.6171 17.3321 27.5431C17.8221 27.5051 18.0481 27.3941 18.6141 27.0581C19.1801 26.7221 19.4431 26.6851 19.7831 26.6481C20.1221 26.6111 20.1221 26.6851 20.1221 26.6851C20.1221 26.6851 19.5561 26.9831 18.9911 27.3191C18.4631 27.6921 18.0481 28.0641 18.0481 28.0641L18.2741 28.2871C18.2741 28.2871 18.3491 28.1751 18.8771 27.6541C19.4431 27.1321 20.3101 26.7601 20.5741 26.7601C20.8381 26.7601 21.5541 27.1331 22.0821 27.5051C22.6101 27.8771 22.9111 28.3251 22.9111 28.3251L23.1001 28.1021C23.1001 28.1021 22.3081 27.4311 21.9691 27.2081C21.6671 26.9471 21.0261 26.7231 21.0261 26.7231C21.0261 26.7231 21.3651 26.6861 21.5921 26.7231C21.8181 26.7231 22.3081 26.9841 22.7611 27.2821C23.2141 27.5801 23.6281 27.6551 24.6841 27.5431C26.4181 27.3941 26.4941 26.8351 26.4941 26.8351C26.4941 26.8351 25.9281 27.1331 25.2121 27.0961C24.7221 27.0961 23.8181 26.7981 23.3281 26.6491Z" fill="white"/>
<path d="M14.9573 25.197C14.9573 25.197 14.7683 24.974 14.6553 24.564C14.5423 24.191 14.5803 23.297 14.3533 22.812C14.0893 22.253 13.9013 21.918 13.9013 21.918C13.9013 21.918 13.9393 22.216 13.8633 22.402C13.7883 22.775 13.8633 23.669 13.9383 24.042C14.0133 24.377 14.2403 24.601 14.0893 24.676C13.9383 24.751 13.8633 24.527 13.5993 24.266C13.3733 24.005 12.6563 23.782 12.2043 23.409C11.8273 22.999 11.4883 22.589 11.4883 22.589C11.4883 22.589 11.8273 23.372 12.2043 23.968C12.5813 24.564 13.5613 24.937 13.9013 25.049C14.2403 25.161 14.9573 25.198 14.9573 25.198V25.197Z" fill="white"/>
<path d="M16.8037 26.315C17.1057 26.278 17.5577 26.315 17.5577 26.315C17.5577 26.315 17.2187 26.166 16.8787 25.868C16.5397 25.607 16.6147 25.272 16.1247 24.676C15.6347 24.042 15.1447 23.707 15.1447 23.707C15.1447 23.707 15.3337 24.713 15.7107 25.309C15.9367 25.719 16.2767 25.868 16.2387 25.905C16.2007 25.942 15.8997 25.942 15.7867 25.868C15.6737 25.831 15.3717 25.719 15.0327 25.682C14.6937 25.645 14.2037 25.794 13.6377 25.459C13.3737 25.347 12.8457 24.937 12.8457 24.937C12.8457 24.937 12.9207 25.123 13.4117 25.682C14.1657 26.502 15.0327 26.539 15.4857 26.539C15.9757 26.539 16.5037 26.353 16.8057 26.315H16.8037Z" fill="white"/>
<path d="M29.6232 20.7255C29.3972 21.0605 29.0572 21.1725 28.7942 21.5825C28.4552 22.1045 28.1152 22.4025 28.1152 22.4025C28.1152 22.4025 28.1902 21.5455 28.1532 21.2845C28.1152 20.9865 27.7012 19.9805 27.7012 19.9805C27.7012 19.9805 27.5502 20.9125 27.5882 21.2845C27.6262 21.6575 27.7392 22.2535 27.7012 22.7375C27.6632 23.2595 27.5882 23.4825 27.5882 23.4825C27.5882 23.4825 29.0962 22.5515 29.4732 21.6935C29.6992 21.1715 29.9252 20.2775 29.9252 20.2775C29.9252 20.2775 29.8502 20.4265 29.6232 20.7245V20.7255Z" fill="white"/>
<path d="M28.568 23.4087C28.266 23.5947 27.701 23.8937 27.362 24.1167C27.06 24.3397 26.985 24.6377 26.834 24.5637C26.683 24.4887 26.872 24.1167 27.023 23.8177C27.136 23.5567 27.212 23.1837 27.136 22.9237V21.8047C27.136 21.8047 26.684 22.7367 26.533 23.1837C26.382 23.6307 26.344 24.3387 26.269 24.6747C26.194 25.0097 26.043 25.1587 26.043 25.1587C26.043 25.1587 27.476 25.0467 28.154 24.5627C29.247 23.8167 29.436 22.5507 29.436 22.5507C29.436 22.5507 29.059 23.1097 28.569 23.4077L28.568 23.4087Z" fill="white"/>
<path d="M27.8507 15.0615C28.0017 15.4345 28.1147 15.6205 28.0017 15.6575C27.9267 15.6945 27.6627 15.5085 27.5117 15.3225C27.3227 15.1365 26.9837 15.0245 26.7197 14.8375C26.4557 14.6885 26.3047 14.5395 26.3047 14.5395C26.3047 14.5395 26.4557 15.0985 26.8707 15.3595C27.0967 15.5085 27.6997 15.9555 27.9637 16.1425C28.2277 16.3295 28.3407 16.5155 28.3407 16.5155C28.3407 16.5155 28.3407 15.0995 28.2277 14.6525C28.0767 14.2055 27.3607 13.6465 27.3607 13.6465C27.3607 13.6465 27.4737 13.9815 27.5867 14.1305C27.6997 14.3165 27.6997 14.6885 27.8507 15.0615Z" fill="white"/>
<path d="M27.1719 16.1797C27.1719 16.1797 27.4359 16.6647 27.5869 17.0737C27.7759 17.4837 28.2279 17.9677 28.4539 18.2287C28.6799 18.4897 28.7559 18.7127 28.7559 18.7127C28.7559 18.7127 28.8689 18.3397 29.0199 18.0417C29.3219 17.5197 29.2839 17.3707 29.3219 16.6997C29.3219 16.0287 28.6809 15.0977 28.6809 15.0977C28.6809 15.0977 28.7559 15.4327 28.7939 15.6567C28.8319 15.8797 28.7559 16.7747 28.7189 16.9607C28.6809 17.1467 28.7939 17.6317 28.6809 17.6687C28.5679 17.7067 28.2289 17.1097 27.9649 16.8117C27.7389 16.5137 27.1729 16.1777 27.1729 16.1777L27.1719 16.1797Z" fill="white"/>
<path d="M27.3232 14.6137C27.3232 14.6137 27.0212 13.7937 26.6442 13.4957C26.2672 13.1977 25.7012 13.0117 25.7012 13.0117C25.7012 13.0117 26.2292 13.8687 26.4552 14.0927C26.7192 14.3167 27.3232 14.6137 27.3232 14.6137Z" fill="white"/>
<path d="M13.3732 23.5577C13.3732 23.5577 13.3352 23.1847 13.2602 22.8867C13.1852 22.5887 13.3732 21.9927 13.4112 21.4707C13.4492 20.9497 13.3362 20.0547 13.3362 20.0547C13.3362 20.0547 12.8842 20.9117 12.8082 21.6197C12.7702 22.0297 12.9212 22.4767 12.8082 22.4767C12.6572 22.5147 12.2422 21.6567 12.0542 21.4337C11.8282 21.1727 11.6772 21.0607 11.4512 20.8377C11.2252 20.6517 11.0742 20.2797 11.0742 20.2797C11.0742 20.2797 11.1122 20.6527 11.1872 20.9507C11.2622 21.2487 11.7152 22.2177 12.2052 22.6647C12.6952 23.1117 13.3742 23.5587 13.3742 23.5587L13.3732 23.5577Z" fill="white"/>
<path d="M12.9966 16.1786C13.2606 15.9176 13.6376 15.7686 13.9016 15.5826C14.5046 15.1726 14.7686 14.5396 14.7686 14.5396C14.7686 14.5396 14.4296 14.8376 14.2406 14.9496C14.0896 15.0246 13.7506 15.2106 13.5246 15.3596C13.3356 15.4716 13.2226 15.8436 13.2226 15.8436C13.2226 15.8436 12.9966 15.6576 13.0716 15.4336C13.1466 15.2096 13.2606 15.0236 13.2976 14.7996C13.3356 14.5756 13.4106 14.2406 13.5236 14.0916C13.5986 13.9426 13.7126 13.6816 13.7126 13.6816C13.7126 13.6816 12.9966 14.0916 12.8076 14.6126C12.6566 15.0226 12.7326 15.4326 12.6566 15.8426C12.5816 16.2526 12.6946 16.5506 12.6946 16.5506C12.6946 16.5506 12.7326 16.4386 12.9966 16.1776V16.1786Z" fill="white"/>
<path d="M14.6187 14.016C14.9957 13.643 15.3347 13.084 15.3347 13.084C15.3347 13.084 14.5057 13.382 14.2417 13.643C13.7517 14.127 13.6387 14.724 13.6387 14.724C13.6387 14.724 14.1667 14.463 14.6187 14.016Z" fill="white"/>
<path d="M12.3559 21.135C12.3559 21.135 12.4309 20.8 12.5819 20.464C12.7329 20.129 12.9969 19.793 13.1099 19.532C13.2989 19.011 13.3739 18.041 13.3739 18.041C13.3739 18.041 13.1849 18.302 13.0349 18.525C12.8839 18.749 12.6959 19.01 12.5069 19.345C12.3559 19.718 12.3179 20.016 12.1679 20.053C11.9419 20.09 12.1299 19.718 11.9419 19.27C11.7529 18.823 11.4519 18.338 11.4139 18.115C11.3759 17.891 11.2629 17.668 11.2629 17.668C11.2629 17.668 11.1879 18.972 11.3379 19.569C11.6019 20.538 12.3559 21.134 12.3559 21.134V21.135Z" fill="white"/>
<path d="M12.1298 18.7858C12.1298 18.7858 12.2048 18.5618 12.4318 18.3388C12.6578 18.1148 13.0348 17.7798 13.2988 17.3328C13.5628 16.8858 13.7888 16.2898 13.7888 16.2898C13.7888 16.2898 13.3738 16.5138 13.1098 16.7368C12.5068 17.2588 12.2048 17.7798 12.2048 17.7798C12.2048 17.7798 12.0538 17.6308 12.0918 17.4068C12.2048 17.2208 12.2428 16.8858 12.2048 16.6238C12.1668 16.4008 12.0918 16.2508 12.1668 15.9528C12.2048 15.6548 12.2798 15.1328 12.2798 15.1328C12.2798 15.1328 11.7518 15.8408 11.6768 16.4748C11.6018 17.1078 11.6388 17.6298 11.9028 18.0768C12.0918 18.3748 12.1288 18.7848 12.1288 18.7848L12.1298 18.7858Z" fill="white"/>
<path d="M20.4988 25.5778C23.9638 25.5778 26.7828 22.7588 26.7828 19.2938C26.7828 15.8288 23.9638 13.0098 20.4988 13.0098C17.0338 13.0098 14.2148 15.8278 14.2148 19.2938C14.2148 22.7598 17.0338 25.5778 20.4988 25.5778ZM20.3708 18.4648L20.4008 18.4948L20.4648 18.5018L20.4758 18.5768L20.6268 18.5808L20.6458 18.6108L20.7358 18.6178L20.9128 18.7968L20.9018 18.8488L20.8718 18.8668C20.8828 18.9118 20.7928 18.8848 20.7928 18.8848V18.9218L20.8348 18.9298L20.8768 18.9518L20.9368 18.8478C21.0048 18.8068 21.0348 18.8658 21.0428 18.9038C21.0468 18.9408 21.0128 18.9338 21.0128 18.9338V19.0188L21.0468 19.0298C21.1108 19.1048 21.0238 19.1488 21.0238 19.1488L21.0048 19.2088C20.9858 19.2648 20.9218 19.2498 20.9218 19.2498L20.8958 19.2868L20.8248 19.3048L20.9678 19.3238C20.9828 19.2758 21.0168 19.2638 21.0358 19.2858C21.0548 19.3118 21.0548 19.3528 21.0548 19.3528L21.0928 19.3598L21.0858 19.4268L21.1238 19.4378V19.6348L21.1658 19.6828C21.2368 19.6498 21.2408 19.7008 21.2038 19.7238C21.1658 19.7498 21.1928 19.8578 21.1928 19.8578L21.1628 19.8878V19.9358L21.1248 19.9618V20.0288C21.0648 19.9988 20.9888 20.0108 20.9698 20.0288C20.9168 19.9918 20.7998 20.0028 20.7998 20.0358C20.8378 20.0838 20.7578 20.0958 20.7578 20.0958L20.7158 20.1438C20.7458 20.2068 20.6858 20.2108 20.6858 20.2108V20.3258L20.6108 20.3928L20.6148 20.5008C20.5778 20.5048 20.5398 20.5088 20.5018 20.5088C20.2188 20.5088 19.9478 20.4078 19.7368 20.2218C19.7408 20.2218 19.7438 20.2178 19.7478 20.2108C19.7778 20.1628 19.8268 20.1548 19.8268 20.1548L19.8458 20.1138L20.0078 20.1208C20.0228 20.0538 20.1018 20.0758 20.1018 20.1058C20.1018 20.1388 20.1618 20.1128 20.1618 20.1128L20.2038 20.0458H20.2718L20.2758 19.9708L20.3098 19.9518V19.8438C20.4038 19.8138 20.3928 19.7208 20.3928 19.7208L20.4188 19.6908L20.4038 19.6498C20.3548 19.6318 20.3808 19.5868 20.4108 19.5978C20.4408 19.6128 20.3688 19.5458 20.3688 19.5458C20.3308 19.5758 20.3008 19.5078 20.3008 19.5078H20.2108V19.4228L20.1958 19.3448L20.1058 19.2998L20.0418 19.3628L20.0268 19.4448V19.5008L19.9668 19.5118L19.9558 19.6798L19.9068 19.6978L19.9138 19.7578L19.7778 19.7948L19.7668 19.8728L19.7178 19.9028L19.6948 19.9778L19.6648 20.1498C19.5778 20.0638 19.5068 19.9628 19.4538 19.8548C19.4648 19.8098 19.4688 19.7688 19.4688 19.7688C19.4118 19.7468 19.4428 19.6608 19.5068 19.7318C19.5678 19.8068 19.4688 19.5868 19.4688 19.5868L19.4198 19.5458L19.3558 19.5378C19.3488 19.4778 19.3408 19.4188 19.3408 19.3588C19.3408 19.3328 19.3448 19.3068 19.3448 19.2838C19.3638 19.2658 19.3828 19.2758 19.3828 19.2758L19.4208 19.3058L19.4778 19.3468L19.4818 19.3838L19.4438 19.4018L19.4398 19.4498L19.4588 19.5168H19.5078C19.5228 19.4198 19.6508 19.4198 19.6888 19.4788L19.7268 19.3938C19.6398 19.3528 19.7228 19.2858 19.7498 19.3158C19.7728 19.3458 19.8288 19.2378 19.8288 19.2378C19.8288 19.2378 19.8708 19.2898 19.8288 19.2198C19.7868 19.1448 19.8588 19.1078 19.8588 19.1078C19.8478 19.0368 19.9378 19.0478 19.9378 19.0478L19.9448 18.9508L19.8578 18.9428C19.8388 19.0288 19.7678 18.9538 19.8048 18.9358C19.8388 18.9208 19.8758 18.8838 19.8758 18.8838V18.8208L19.9138 18.8098L19.9178 18.7498H20.0118L20.0908 18.7128L20.1058 18.6828L20.1928 18.6748L20.3138 18.5668L20.3028 18.5148C20.2318 18.5148 20.3028 18.4628 20.3028 18.4628L20.3138 18.3698H20.2458L20.2348 18.2398C20.3178 18.2218 20.4048 18.2098 20.4908 18.2098L20.5018 18.3548L20.4338 18.3328H20.3918L20.3728 18.2998L20.3388 18.2928V18.4268L20.3728 18.4568L20.3708 18.4648ZM20.6388 15.0658C20.6128 15.0698 20.5858 15.0618 20.5708 15.0438V14.7678C21.1548 14.7758 21.7208 14.8908 22.2488 15.1028C22.3508 15.1438 22.4518 15.1888 22.5508 15.2368C22.5438 15.2548 22.5318 15.2738 22.5208 15.2738C22.4908 15.2738 22.5018 15.3518 22.5018 15.3518C22.5018 15.3518 22.5808 15.3518 22.6038 15.3558C22.6298 15.3638 22.6298 15.4228 22.6298 15.4228C22.7198 15.4188 22.7578 15.5418 22.7428 15.5718C22.7318 15.6018 22.7808 15.6018 22.7808 15.6018C22.7808 15.6018 22.7808 15.6988 22.7698 15.7248C22.7588 15.7468 22.8488 15.7658 22.8718 15.8028C22.8978 15.8398 22.8608 15.9628 22.8418 15.9668C22.8228 15.9748 22.8908 15.9928 22.8868 16.0228C22.8798 16.0528 22.9018 16.0228 22.9098 16.0708C22.9168 16.1188 22.9288 16.2238 22.9288 16.2238L23.0118 16.2318C23.0268 16.1498 23.1818 16.1498 23.2078 16.1568C23.3138 16.1938 23.3928 16.3498 23.3928 16.3878C23.3928 16.4258 23.3248 16.4328 23.3248 16.4328L23.3288 16.4698L23.1138 16.6818C23.0908 16.6668 23.0688 16.6638 23.0568 16.6708C23.0268 16.6858 23.0378 16.5408 23.0378 16.5408C23.0378 16.5408 23.0948 16.5028 23.1168 16.5228C23.1398 16.5408 22.9098 16.2168 22.8608 16.2508C22.8118 16.2808 22.7028 16.2178 22.7098 16.1648C22.7098 16.1048 22.4908 15.9268 22.4908 15.9268C22.4908 15.9268 22.4158 15.8788 22.4038 15.9158C22.3928 15.9488 22.3658 15.9758 22.4038 15.9938C22.4418 16.0118 22.4338 15.9638 22.4788 16.0048C22.5208 16.0498 22.5998 16.1018 22.5688 16.1388C22.5388 16.1758 22.5008 16.1868 22.5008 16.1868L22.5428 16.2348H22.6108L22.6218 16.3388C22.6218 16.3388 22.6968 16.3768 22.7118 16.4168C22.7268 16.4468 22.7308 16.4648 22.7268 16.4838C22.5908 16.3798 22.4478 16.2868 22.3008 16.2038V16.1738C22.2858 16.1288 22.3498 16.1138 22.3798 16.1628L22.4398 16.1558L22.4508 16.0998L22.3648 16.0328H22.3008C22.3008 16.0328 22.2938 16.0808 22.2518 16.0628C22.2068 16.0478 22.2328 16.0518 22.1948 16.0478C22.1648 16.0408 22.1688 16.1078 22.1758 16.1408C22.0818 16.0928 21.9868 16.0478 21.8888 16.0068C21.4738 15.8388 21.0288 15.7498 20.5688 15.7388V15.2028C20.6108 15.2068 20.6258 15.1918 20.6288 15.1728C20.6358 15.1508 20.6438 15.1428 20.6778 15.1358C20.7158 15.1318 20.6738 15.0578 20.6358 15.0648L20.6388 15.0658ZM20.0318 18.0508L19.9938 18.0988L19.9828 18.1548L19.9218 18.1658V18.1958H19.8768V18.2338C19.7898 18.2818 19.7068 18.3378 19.6278 18.4058L18.9298 17.7158C19.1108 17.5478 19.3138 17.4138 19.5328 17.3128C19.8118 17.1858 20.1128 17.1118 20.4258 17.1048V18.0818C20.2938 18.0858 20.1738 18.1118 20.0558 18.1568H20.0518L20.0478 18.0898L20.0778 18.0718L20.0298 18.0528L20.0318 18.0508ZM20.3938 20.7158C20.4238 20.7268 20.4128 20.7308 20.4278 20.7458L20.4128 20.7758C20.3898 20.7468 20.3788 20.8018 20.3898 20.8138C20.4048 20.8288 20.3598 20.8208 20.3598 20.8358C20.3598 20.8538 20.3448 20.8658 20.3598 20.8728C20.3708 20.8838 20.3528 20.8878 20.3368 20.9028C20.3178 20.9138 20.4118 20.9208 20.4118 20.9208C20.4118 20.9208 20.3928 20.8838 20.4158 20.8838H20.4268V20.9438C20.4198 20.9438 20.4118 20.9398 20.4008 20.9368V20.9818L20.3518 20.9888L20.3968 21.0368L20.4268 21.0408V21.1448C20.4268 21.2228 20.2268 21.1708 20.2078 21.1518L20.2008 21.2598L20.1628 21.2678L20.1698 21.3428L20.1628 21.4438L20.2308 21.4328V21.4778L20.3968 21.4818L20.4268 21.4488V21.5678L20.3178 21.5788L20.2688 21.6048L20.2498 21.5678H20.2008L20.1708 21.6088C20.0278 21.5898 19.8838 21.5568 19.7488 21.5078C19.4468 21.4038 19.1718 21.2398 18.9338 21.0198L19.6318 20.3298C19.8428 20.5168 20.1068 20.6278 20.3898 20.6548C20.3898 20.6548 20.3828 20.6768 20.3828 20.6958C20.3828 20.7068 20.3828 20.7138 20.3938 20.7178V20.7158ZM17.5618 19.4868C17.5728 19.4568 17.5878 19.4418 17.6068 19.4388H17.6368C17.6518 19.4428 17.6628 19.4498 17.6628 19.4498L17.7498 19.4538L17.7568 19.4388H18.0468L18.0698 19.5958L17.9908 19.6628C17.9268 19.6998 17.9268 19.7858 17.9978 19.8048C18.0468 19.8088 18.0278 19.9278 17.9558 19.8458C17.8768 19.8458 17.9408 19.8938 17.9668 19.9208C17.9708 19.9248 17.9738 19.9248 17.9738 19.9248C18.0758 19.9728 18.0488 19.8728 18.0488 19.8728L18.1058 19.8278C18.1288 19.9468 18.1628 20.0658 18.2038 20.1778C18.3128 20.4868 18.4908 20.7738 18.7238 21.0198L17.9548 21.7798C17.9058 21.7278 17.8568 21.6758 17.8118 21.6198C17.8188 21.5828 17.8458 21.5448 17.8458 21.5448C17.9258 21.4918 17.8278 21.4138 17.8278 21.4138C17.8388 21.3428 17.7828 21.2568 17.7828 21.2568C17.6738 21.1818 17.7038 21.0408 17.7038 21.0408V20.9438C17.6138 20.8588 17.7418 20.8468 17.7418 20.8468C17.7838 20.7718 17.7118 20.7158 17.7118 20.7158L17.7048 20.6378L17.6108 20.6268L17.5958 20.3398L17.3768 20.0268C17.3348 20.0158 17.3658 19.9408 17.3658 19.9408C17.4228 19.9108 17.3548 19.8398 17.3548 19.8398L17.3478 19.7058L17.4758 19.6908L17.5058 19.6428H17.5658L17.5618 19.4868ZM17.7428 19.2848C17.6718 19.2398 17.7048 19.0838 17.7048 19.0838C17.7578 19.0058 17.8108 18.9828 17.8558 18.9798C17.9128 18.9798 17.9578 19.0098 17.9578 19.0098L18.0408 19.0028C18.0638 19.0178 18.0748 19.0328 18.0858 19.0508C18.0788 19.1068 18.0748 19.1628 18.0708 19.2228C18.0598 19.2378 18.0518 19.2488 18.0518 19.2488C18.0478 19.2598 18.0448 19.2748 18.0408 19.2968H17.8108V19.2898L17.7428 19.2848ZM17.4038 22.5278C17.4108 22.5428 17.4188 22.5578 17.4188 22.5798C17.4338 22.6728 17.4758 22.6548 17.4758 22.6548L17.8228 22.6468L17.9438 22.5428L18.2568 22.5388C18.4118 22.5318 18.3168 22.3188 18.2868 22.3188C18.2678 22.3038 18.2638 22.2738 18.2678 22.2438C18.5128 22.4308 18.7808 22.5868 19.0668 22.7058C19.4928 22.8848 19.9528 22.9818 20.4278 22.9928V23.9658C19.7798 23.9548 19.1538 23.8168 18.5808 23.5558C18.0978 23.3398 17.6528 23.0408 17.2608 22.6688L17.4038 22.5268V22.5278ZM19.1378 22.5798C18.8098 22.4458 18.5048 22.2598 18.2258 22.0278L18.0638 21.8788L18.8288 21.1188C19.0778 21.3498 19.3638 21.5248 19.6768 21.6328C19.7598 21.6628 19.8468 21.6888 19.9328 21.7108C19.9178 21.7218 19.9098 21.7328 19.9138 21.7438C19.9248 21.7738 19.8648 21.8038 19.8648 21.8038L19.8118 21.8218L19.7738 21.8778L19.7028 21.8998L19.6878 22.0298L19.6538 22.0518V22.1078L19.6088 22.1188V22.1488L19.5488 22.1558L19.5868 22.2488L19.6358 22.2718C19.7188 22.2828 19.6848 22.3868 19.6848 22.3868L19.7338 22.3948L19.7568 22.4618L19.8058 22.5588C19.8248 22.6338 19.8768 22.6148 19.9038 22.6068C19.9268 22.6068 19.9528 22.6818 19.9528 22.6818L20.1938 22.6888C20.1938 22.6888 20.1828 22.7108 20.2238 22.7218C20.2498 22.7288 20.3448 22.7368 20.4268 22.7368V22.8458C19.9788 22.8388 19.5398 22.7458 19.1368 22.5778L19.1378 22.5798ZM18.8288 20.9168C18.6128 20.6898 18.4508 20.4248 18.3458 20.1418C18.3008 20.0148 18.2668 19.8808 18.2398 19.7468C18.2928 19.7658 18.3528 19.8468 18.3528 19.8618C18.3528 19.8808 18.5938 19.8688 18.5938 19.8688C18.6618 19.9098 18.6838 20.0218 18.6838 20.0218C18.7518 19.9358 18.8908 20.0148 18.7898 20.0628C18.8878 20.1258 18.8878 20.1788 18.8878 20.1788C18.9668 20.1558 18.9668 20.2158 18.9668 20.2338C18.9738 20.2118 18.9898 20.1408 18.9898 20.1408C18.8998 20.0738 19.1108 20.0518 19.0498 20.1738L19.0118 20.2258L19.0758 20.2778L19.0798 20.4158C19.2158 20.4048 19.1778 20.2408 19.1778 20.2408L19.2378 20.2258C19.2378 20.1738 19.2798 20.2038 19.2798 20.2038C19.2538 20.0578 19.3098 19.9988 19.3478 19.9728C19.3968 20.0618 19.4568 20.1478 19.5248 20.2228L18.8268 20.9158L18.8288 20.9168ZM19.0278 19.5458L19.0918 19.5278L19.1178 19.4908L19.1248 19.4388H19.1958C19.1958 19.4838 19.2028 19.5248 19.2068 19.5658L19.1688 19.5768L19.1578 19.5548L19.1388 19.6218H19.0298L19.0258 19.5468L19.0278 19.5458ZM19.2808 18.3978C19.2698 18.3608 19.1828 18.3978 19.1828 18.3978C19.1828 18.4648 19.0698 18.3678 19.0698 18.3678L18.8548 18.2148C18.7338 18.1028 18.5528 18.2448 18.5458 18.2748C18.5498 18.3228 18.5078 18.3228 18.4708 18.3158C18.5648 18.1368 18.6858 17.9688 18.8288 17.8158L19.4248 18.4048H19.3678C19.3418 18.4568 19.2808 18.3978 19.2808 18.3978ZM19.4658 17.1868C19.2318 17.2948 19.0178 17.4398 18.8288 17.6148L18.0598 16.8548C18.3308 16.5978 18.6328 16.3888 18.9608 16.2328C19.4128 16.0168 19.9108 15.8978 20.4268 15.8858V16.9588C20.0838 16.9708 19.7588 17.0488 19.4658 17.1868ZM18.7258 17.7158C18.5678 17.8838 18.4318 18.0738 18.3258 18.2828C18.2958 18.2828 18.2728 18.2868 18.2658 18.3088C18.2468 18.3568 18.1678 18.3418 18.1678 18.3418L18.1568 18.3678L18.0928 18.3788L18.0818 18.4158L18.0108 18.4268L18.1928 18.4238C18.2418 18.4158 18.1778 18.5278 18.1438 18.5208L18.0608 18.5288L18.0308 18.5588H17.9518L17.9138 18.6068L17.8008 18.5988C17.8008 18.5988 17.7368 18.6508 17.7368 18.6738C17.7438 18.6918 17.7258 18.7488 17.7068 18.7488C17.6878 18.7488 17.6538 18.8008 17.6648 18.8198C17.6758 18.8378 17.6268 18.9018 17.6268 18.9018L17.6158 18.9618L17.5778 18.9728V19.1368L17.5068 19.1888V19.2598L17.4728 19.2968H16.9788C16.9858 18.8118 17.0998 18.3428 17.2958 17.9178C17.4578 17.5678 17.6798 17.2428 17.9598 16.9558L18.7288 17.7158H18.7258ZM17.4028 19.4378L17.4068 19.4708L17.3168 19.5718L17.3278 19.6688L17.2748 19.6868L17.2638 19.7278L17.2378 19.8588L17.2978 19.8618C17.3278 19.8508 17.3238 19.9398 17.2978 19.9548C17.2748 19.9668 17.2068 19.9928 17.2448 20.0148C17.2788 20.0408 17.1468 20.0328 17.1468 19.9968C17.1468 19.9588 17.0758 19.9298 17.0568 19.9408C17.0458 19.9488 17.0308 19.9298 17.0188 19.9108C16.9958 19.7578 16.9808 19.5978 16.9768 19.4378H17.4028ZM17.0188 22.3898C17.0298 22.3568 17.0488 22.3448 17.0758 22.3448C17.1288 22.3488 17.2008 22.4078 17.2078 22.4338C17.2148 22.4448 17.2308 22.4638 17.2498 22.4788L17.1588 22.5678C17.1018 22.5078 17.0498 22.4488 16.9968 22.3888H17.0198L17.0188 22.3898ZM18.5068 23.6838C19.1028 23.9518 19.7508 24.1018 20.4258 24.1118V24.7958C18.9688 24.7768 17.6498 24.1908 16.6738 23.2488L17.1578 22.7708C17.5578 23.1548 18.0138 23.4598 18.5078 23.6838H18.5068ZM20.8718 20.6308L20.8758 20.6008C20.9018 20.5928 20.9328 20.5858 20.9588 20.5748C20.9588 20.5898 20.9698 20.6078 20.9698 20.6078L20.9998 20.6188L20.9428 20.6638L20.8938 20.7158L20.8338 20.6978L20.7628 20.6938L20.7368 20.6488L20.6948 20.6448L20.6878 20.7298L20.6578 20.7628L20.5868 20.8378C20.6618 20.8378 20.6128 20.8788 20.5758 20.8978V20.6518C20.6548 20.6478 20.7308 20.6368 20.8058 20.6188C20.8128 20.6268 20.8168 20.6298 20.8168 20.6298H20.8728L20.8718 20.6308ZM20.8458 20.4628V20.3288L20.9068 20.2618C20.9138 20.2578 20.9178 20.2578 20.9218 20.2578C20.9708 20.2578 20.9598 20.3808 20.9598 20.4218C20.9218 20.4368 20.8838 20.4478 20.8458 20.4628ZM21.0048 17.9688C20.9978 18.0018 20.9368 18.0208 20.9368 18.0208C20.9368 18.0208 20.8878 18.0388 20.9068 18.0618C20.9258 18.0878 20.8688 18.0998 20.8688 18.0998C20.8688 18.0998 20.8728 18.1148 20.8728 18.1328C20.7748 18.1028 20.6768 18.0848 20.5708 18.0808V17.1048C20.8528 17.1118 21.1278 17.1718 21.3848 17.2798C21.6338 17.3808 21.8638 17.5298 22.0678 17.7158L22.0258 17.7568C22.0068 17.7348 21.9388 17.7238 21.9388 17.7008C21.9388 17.6778 21.8778 17.6488 21.8858 17.6828C21.8898 17.7198 21.8438 17.7388 21.8288 17.7278C21.8178 17.7168 21.7798 17.7648 21.7798 17.7648C21.7798 17.7828 21.7688 17.8058 21.8058 17.8128C21.8438 17.8198 21.9078 17.7868 21.9148 17.8238C21.9148 17.8348 21.9188 17.8458 21.9218 17.8568L21.6808 18.0958C21.6468 18.0958 21.6168 18.0918 21.6168 18.0918C21.5978 18.1478 21.5108 18.0878 21.5378 18.0508C21.5608 18.0138 21.5608 17.9878 21.5608 17.9878L21.5308 17.9838L21.4968 18.0508C21.4098 18.0508 21.3878 18.0988 21.4028 18.1288C21.4218 18.1588 21.3798 18.1218 21.3688 18.1658C21.3538 18.2068 21.3728 18.2068 21.4108 18.2258C21.4488 18.2438 21.3918 18.2438 21.4178 18.2738C21.4328 18.2968 21.4668 18.2888 21.4778 18.2918L21.4328 18.3398C21.3908 18.3508 21.3428 18.3398 21.3428 18.3398C21.3428 18.3548 21.3358 18.3618 21.3238 18.3698C21.2258 18.2878 21.1208 18.2248 21.0038 18.1768C21.0228 18.1618 21.0568 18.1658 21.0718 18.1208C21.0948 18.0538 21.1058 17.9458 21.1058 17.9458C21.1058 17.9458 21.0078 17.9378 21.0038 17.9678L21.0048 17.9688ZM23.2288 17.1678C23.2398 17.1788 23.2518 17.1898 23.2588 17.2008C23.2628 17.2418 23.2628 17.3008 23.3268 17.2938H23.3308C23.4098 17.3978 23.4818 17.5058 23.5458 17.6138L23.5498 17.6218C23.5608 17.6398 23.5728 17.6588 23.5798 17.6778C23.5688 17.6888 23.5608 17.6998 23.5608 17.6998L23.4628 17.7148V17.8118L23.4138 17.8308L23.4208 17.8908L23.4848 17.8868C23.4848 17.8868 23.4848 17.9578 23.5038 17.9278C23.5228 17.8978 23.6738 17.9358 23.6618 18.0058C23.6578 18.0358 23.8168 18.1178 23.7978 18.2148C23.8088 18.2148 23.8208 18.2188 23.8278 18.2258C23.8578 18.3078 23.8808 18.3938 23.9068 18.4798L23.8918 18.5018C23.8918 18.5018 23.9028 18.5088 23.9148 18.5198C23.9338 18.5948 23.9528 18.6728 23.9638 18.7468C23.9598 18.8138 23.9448 18.8768 23.9108 18.8958C23.8398 18.9408 23.9178 18.9138 23.9178 18.9138L23.9068 19.0478C23.9258 19.1108 23.9558 19.0808 23.9708 19.0478C23.9818 19.0328 23.9938 19.0218 24.0008 19.0148C24.0118 19.1078 24.0198 19.1978 24.0198 19.2908H23.2848L23.2958 19.2758L23.3258 19.1898L23.4318 19.1598L23.4428 19.0818L23.3898 19.0738C23.3898 19.0738 23.4508 18.9618 23.4798 18.9618C23.5098 18.9618 23.7098 18.9618 23.7288 18.9508C23.7478 18.9398 23.7818 18.8428 23.7818 18.8238C23.7818 18.8048 23.8308 18.7978 23.8498 18.7938C23.8688 18.7858 23.9098 18.7378 23.9248 18.7118C23.9358 18.6888 23.8908 18.5368 23.8678 18.5588C23.8448 18.5848 23.7888 18.5958 23.7888 18.5958L23.7698 18.6628L23.7398 18.6888C23.7398 18.6888 23.7468 18.7068 23.7398 18.7488C23.7358 18.7938 23.6788 18.8158 23.6788 18.8158L23.6558 18.8458C23.6558 18.8458 23.5088 18.8528 23.4898 18.8458C23.4328 18.8228 23.4708 18.7488 23.5088 18.7568C23.5428 18.7608 23.5018 18.6528 23.5018 18.6528L23.5508 18.6448C23.5508 18.6448 23.5578 18.5368 23.5768 18.5368C23.5918 18.5368 23.5698 18.4998 23.5428 18.4808C23.5198 18.4618 23.4898 18.4028 23.4638 18.4058C23.4408 18.4128 23.3428 18.4058 23.3428 18.4058L23.3228 18.4438L23.2588 18.4548C23.2588 18.4548 23.2628 18.5028 23.2518 18.5178C23.2138 18.5588 23.0748 18.6518 23.1348 18.4998L23.1538 18.4628V18.4068L23.0448 18.4028C23.0448 18.4028 22.9918 18.3848 22.9918 18.3578C22.9918 18.3348 22.9848 18.3058 22.9848 18.3058L22.8568 18.1638L22.7058 18.1458L22.6948 18.1158L22.6008 18.1008C22.5898 18.0968 22.5748 18.0898 22.5628 18.0858C22.5178 18.0188 22.4728 17.9558 22.4238 17.8918C22.4238 17.8838 22.4198 17.8808 22.4198 17.8768C22.4128 17.8538 22.3488 17.7608 22.3108 17.7578C22.2958 17.7428 22.2848 17.7278 22.2688 17.7128L23.0268 16.9638C23.0528 16.9898 23.0498 16.9968 23.0838 17.0238C23.0948 17.0318 23.1068 17.0348 23.1178 17.0348L23.1748 17.1018L23.1638 17.1198C23.1638 17.1918 23.1978 17.1688 23.2278 17.1648L23.2288 17.1678ZM23.2748 22.3518C23.2898 22.3778 23.3238 22.3778 23.3348 22.3518C23.3458 22.3368 23.3458 22.3068 23.3458 22.2808L23.4698 22.4038C23.4548 22.4338 23.4398 22.4668 23.4468 22.4858L23.4998 22.5118L23.5068 22.6158C23.5488 22.6568 23.6388 22.6528 23.7098 22.6418L23.7358 22.6678C23.5098 22.8808 23.2648 23.0748 23.0008 23.2418V23.1818C23.1098 23.1038 23.1138 22.9618 23.0118 22.9508C22.9328 22.9398 22.9698 22.8578 23.0418 22.8468L23.0838 22.8288V22.7728L23.2228 22.6458V22.5488L22.9208 22.2988C22.8568 22.2768 22.8528 22.1988 22.8758 22.1268C22.9328 22.0788 22.9848 22.0298 23.0418 21.9778L23.3098 22.2428C23.2988 22.2878 23.2528 22.3138 23.2308 22.2988C23.2418 22.3098 23.2648 22.3358 23.2728 22.3508L23.2748 22.3518ZM23.0078 21.5098L22.9588 21.4878L22.9698 21.3428H22.9058L22.7968 21.4808L22.7798 21.5218L22.7198 21.4588L22.7498 21.4288L22.7458 21.3538L22.7878 21.3158V21.2558L22.8258 21.2408L22.8298 21.1068L22.8598 21.1028V20.8078L22.7698 20.7218C22.7658 20.7518 22.6678 20.7518 22.6678 20.7518C22.6678 20.7518 22.6418 20.7968 22.6228 20.7968C22.6078 20.7968 22.6488 20.8528 22.6378 20.8858C22.6228 20.9228 22.5738 20.9228 22.5738 20.9228L22.4838 20.9488L22.4608 20.9788H22.3628L22.3558 20.9268C22.3628 20.9158 22.3748 20.9008 22.3858 20.8898L22.4608 20.8678L22.5218 20.8378L22.5518 20.7778C22.5588 20.7178 22.6308 20.7218 22.6308 20.7218C22.6308 20.7218 22.7698 20.6068 22.7778 20.5508C22.7818 20.4988 22.8308 20.3458 22.9168 20.3458H23.0748C23.1358 20.3198 23.1168 20.2418 23.1168 20.2418L23.1958 20.2308L23.2068 20.2718C23.2068 20.2718 23.3158 20.2828 23.3318 20.2638C23.3428 20.2458 23.3658 20.2038 23.3958 20.2228C23.4258 20.2418 23.5238 20.1778 23.5238 20.1778C23.5308 20.1368 23.6818 20.1548 23.6818 20.1548L23.7008 20.0988C23.7008 20.0988 23.5988 19.9568 23.5798 19.9568C23.5608 19.9568 23.4628 19.8708 23.4518 19.9048C23.3538 19.8788 23.3618 19.7448 23.3618 19.7448L23.3238 19.6588C23.3238 19.6108 23.2338 19.5058 23.2148 19.5208C23.1768 19.4908 23.1658 19.4608 23.1698 19.4358H24.0218C24.0148 19.9088 23.9048 20.3598 23.7198 20.7738C23.5538 21.1428 23.3278 21.4788 23.0488 21.7688C23.0378 21.6458 23.0068 21.5078 23.0068 21.5078L23.0078 21.5098ZM22.0268 20.5408C22.0228 20.5588 22.0718 20.5778 22.1018 20.5588C22.1318 20.5408 22.1658 20.6148 22.1548 20.6478C22.1438 20.6858 22.0338 20.6808 22.0268 20.6438C22.0228 20.6068 22.0038 20.6178 21.9928 20.6358C21.9818 20.6508 21.9398 20.6618 21.9098 20.6538L21.8838 20.6278C21.8878 20.6208 21.8908 20.6168 21.8838 20.6058C21.8718 20.5948 21.8608 20.5948 21.8498 20.5948L21.7968 20.5428C21.7968 20.5048 21.8078 20.4568 21.8038 20.4418C21.7998 20.4268 21.8418 20.4048 21.8678 20.4048C21.8828 20.4048 21.8938 20.4118 21.8868 20.4348C21.8678 20.4908 21.8868 20.5128 21.8868 20.5128C21.9658 20.4418 22.0338 20.5198 22.0258 20.5388L22.0268 20.5408ZM21.8688 21.3608C21.8688 21.3608 21.8758 21.3568 21.8758 21.3538L22.0228 21.4248C22.0418 21.4508 22.1208 21.4428 22.1208 21.4428L22.1438 21.4758C22.1438 21.4758 22.1928 21.4688 22.2228 21.5058C22.2528 21.5428 22.4118 21.5098 22.4118 21.5098L22.4538 21.5478L22.5218 21.5738L22.6348 21.5778L22.7058 21.6448C22.5928 21.6968 22.3698 21.6788 22.3588 21.6638C22.3398 21.6458 22.2118 21.5928 22.2118 21.5928C22.2118 21.5928 22.1138 21.5108 22.0948 21.5368C22.0758 21.5598 21.9928 21.5068 21.9928 21.5258C21.9928 21.5448 21.9138 21.4808 21.9138 21.4808L21.7888 21.4398L21.8828 21.4218L21.8678 21.3618L21.8688 21.3608ZM22.2278 18.0878L22.2768 18.0618H22.3258L22.3558 18.0398C22.3788 18.0698 22.4008 18.1028 22.4238 18.1328C22.4168 18.1508 22.4128 18.1698 22.4168 18.1888C22.4358 18.2818 22.4658 18.3188 22.4058 18.3188C22.3458 18.3188 22.3348 18.2708 22.3348 18.2708C22.3348 18.2708 22.2858 18.2528 22.2858 18.2748C22.2858 18.3008 22.2658 18.3488 22.2858 18.3758C22.3048 18.3978 22.2598 18.4358 22.2408 18.4168C22.2258 18.3988 22.1768 18.3418 22.1878 18.3238C22.1988 18.3088 22.1008 18.1898 22.1988 18.1748C22.2968 18.1568 22.1948 18.0998 22.2288 18.0888L22.2278 18.0878ZM22.3558 18.0358L22.2768 18.0248L22.2278 18.0208L22.1378 18.0138C22.0478 18.0738 22.0288 18.1478 22.0288 18.1478C21.9868 18.2258 21.8968 18.1438 21.8968 18.0878L22.0588 17.9278H22.0888C22.1268 17.9278 22.2058 17.9168 22.2058 17.9168C22.2058 17.9168 22.2438 17.9208 22.2738 17.9318C22.2998 17.9648 22.3298 18.0028 22.3558 18.0358ZM21.2848 21.3348H21.3418L21.3608 21.3718H21.4698L21.4768 21.3158L21.3708 21.2978L21.3638 21.2378L21.2928 21.2198C21.2698 21.1158 21.3118 21.0858 21.3418 21.1338L21.3798 21.1378L21.3648 21.0488L21.4098 21.0378L21.3948 20.9078L21.3608 20.8968V20.8518L21.5118 20.8588C21.5008 20.7808 21.5188 20.7438 21.5188 20.7438H21.5608L21.5678 20.7738L21.7528 20.7918H21.7598C21.8348 20.8328 21.7978 20.8888 21.7748 20.8998C21.7488 20.9148 21.7068 20.9148 21.7068 20.9148L21.6958 20.9378L21.5378 20.9528L21.5228 21.0128C21.4438 21.0018 21.4138 21.0878 21.4328 21.1278C21.4518 21.1728 21.4328 21.2058 21.4328 21.2058L21.5008 21.2388L21.5878 21.2128C21.5988 21.1528 21.6518 21.1378 21.7008 21.1048C21.7498 21.0678 21.8288 21.1718 21.8068 21.2198C21.8028 21.2238 21.7998 21.2278 21.7998 21.2348C21.7058 21.2978 21.6078 21.3538 21.5058 21.4028C21.3468 21.4798 21.1738 21.5398 20.9968 21.5768C20.9928 21.5728 20.9898 21.5728 20.9898 21.5728L20.9258 21.5548L20.9188 21.4618C20.9078 21.4018 20.7908 21.4018 20.7978 21.4438C20.8018 21.4888 20.5788 21.4618 20.5788 21.4618V21.2938L20.6398 21.2308L20.7788 21.2008C20.7898 21.1378 20.8498 21.2118 20.8498 21.2118C20.9098 21.2038 20.9248 21.2488 20.9248 21.2488L21.0038 21.2598C21.0678 21.2788 21.0298 21.2858 21.0338 21.3078C21.0378 21.3448 21.0678 21.3338 21.0678 21.3338L21.0828 21.2558L21.1168 21.2598L21.0828 21.2188L21.0148 21.1858L20.9398 21.1558C20.8948 21.0888 20.9548 21.1038 21.0038 21.1078H21.0828C21.0828 21.1078 21.1728 21.2308 21.1728 21.2608C21.1728 21.2908 21.2148 21.2978 21.2148 21.2978L21.2718 21.2898L21.2868 21.3348H21.2848ZM20.6818 22.6838C20.7198 22.6838 20.7568 22.6948 20.7838 22.7138C20.8478 22.7618 20.9418 22.7318 20.9418 22.7318L21.0058 22.8138C20.8668 22.8318 20.7228 22.8438 20.5758 22.8468V22.7018C20.5948 22.6868 20.6358 22.6798 20.6818 22.6838ZM21.0808 22.9488L21.0918 22.9748L21.1938 23.0078L21.2688 23.0258L21.2918 23.1268L21.3488 23.1338L21.3678 23.2008C21.4318 23.2488 21.3488 23.3538 21.3488 23.3538V23.4878L21.3978 23.5138L21.3908 23.5618L21.4698 23.6398L21.5598 23.6468L21.7108 23.8038C21.3488 23.9048 20.9678 23.9578 20.5758 23.9648V22.9918C20.7458 22.9878 20.9148 22.9738 21.0808 22.9468V22.9488ZM21.8678 23.9138L21.9738 23.9468L22.0038 24.0438L22.0528 24.0368L22.0908 24.0068L22.2338 24.0028L22.3088 23.9358L22.3878 23.9208L22.9608 23.4398C23.2768 23.2538 23.5718 23.0298 23.8428 22.7688L24.3238 23.2468C23.3478 24.1888 22.0298 24.7738 20.5738 24.7938V24.1068C21.0188 24.1028 21.4528 24.0358 21.8668 23.9128L21.8678 23.9138ZM23.8408 22.5648L23.8148 22.5388C23.8108 22.4718 23.8078 22.3858 23.8078 22.3858L23.7738 22.3528L23.7698 22.1998C23.7928 22.1218 23.6528 22.0058 23.6418 22.0318C23.6308 22.0548 23.5518 22.0358 23.5518 22.0618C23.5518 22.0838 23.5028 22.2068 23.5258 22.2518L23.1488 21.8788C23.4468 21.5738 23.6838 21.2228 23.8538 20.8428C24.0498 20.4068 24.1598 19.9298 24.1708 19.4378H25.1548C25.1428 20.1048 24.9878 20.7388 24.7168 21.3118C24.4978 21.7738 24.2008 22.1988 23.8418 22.5638L23.8408 22.5648ZM24.1688 19.2908V19.2928C24.1648 19.1208 24.1458 18.9498 24.1198 18.7818C24.1268 18.7588 24.1308 18.7368 24.1198 18.7298C24.1008 18.7118 24.1388 18.6248 24.1388 18.6248C24.1388 18.6248 24.1648 18.5768 24.1388 18.5278C24.1158 18.4758 24.1458 18.4238 24.1648 18.3978L24.1158 18.3748L24.0668 18.3678L24.0288 18.3748C24.0178 18.3338 24.0058 18.2968 23.9908 18.2598V18.2558L24.0208 18.2628V18.2258L23.9788 18.2148C23.9678 18.1888 23.9598 18.1628 23.9528 18.1398L23.9418 18.0128L23.8998 17.9828L23.9108 17.9348L23.8618 17.9168L23.8878 17.8348L23.8458 17.7488H23.7818C23.7558 17.6928 23.7218 17.6368 23.6918 17.5768C23.6958 17.5728 23.7028 17.5698 23.7178 17.5658C23.7478 17.5578 23.7598 17.5578 23.7668 17.5578L23.7598 17.4948L23.7068 17.4578L23.6878 17.3828C23.6878 17.3828 23.6198 17.3978 23.6268 17.4308C23.6268 17.4418 23.6228 17.4458 23.6158 17.4528C23.5708 17.3858 23.5288 17.3188 23.4798 17.2518C23.4838 17.2478 23.4838 17.2438 23.4838 17.2438C23.5098 17.1988 23.4988 17.1768 23.4538 17.1618C23.4258 17.1544 23.4082 17.1344 23.4008 17.1018C23.3898 17.0538 23.3408 17.0418 23.3408 17.0418L23.3218 16.9668L23.2768 16.9928C23.2508 16.9668 23.2278 16.9408 23.2018 16.9108L23.2248 16.8438C23.2018 16.8398 23.1868 16.8258 23.1828 16.8108L23.3718 16.6238C23.4588 16.6718 23.5228 16.7878 23.5108 16.8068C23.4998 16.8328 23.5818 16.8248 23.5818 16.8248C23.5928 16.7168 23.6988 16.7498 23.7028 16.7878C23.7098 16.8248 23.7288 16.9028 23.7288 16.9028L23.7588 16.9588L23.8008 17.0038L23.8688 16.9958L23.8878 17.0328L23.9668 17.0438C23.9668 17.0438 24.0348 17.1188 24.0378 17.1368C24.0448 17.1548 24.1358 17.1478 24.1588 17.1548C24.1848 17.1588 24.2228 17.1768 24.2268 17.2068C24.2338 17.2398 24.2718 17.2888 24.2718 17.2888C24.2718 17.2888 24.3428 17.3068 24.3508 17.3298C24.3548 17.3558 24.3848 17.4078 24.3848 17.4078L24.4458 17.4598L24.4528 17.5118L24.5208 17.5188L24.5398 17.5938L24.6488 17.5858L24.7088 17.5408C24.7278 17.5338 24.7428 17.5228 24.7578 17.5108C24.7808 17.5588 24.8028 17.6108 24.8218 17.6598C25.0288 18.1738 25.1418 18.7218 25.1498 19.2848H24.1668L24.1688 19.2908ZM21.8348 16.1428C21.9438 16.1878 22.0538 16.2358 22.1558 16.2918C22.1598 16.2958 22.1668 16.2988 22.1748 16.3028C22.3488 16.3918 22.5098 16.4998 22.6688 16.6198C22.6728 16.6648 22.7218 16.6828 22.7218 16.6828L22.7478 16.6868C22.7708 16.7018 22.7898 16.7168 22.8078 16.7348V16.7868C22.8498 16.7758 22.9138 16.8238 22.9288 16.8648L22.1708 17.6138C21.9558 17.4128 21.7068 17.2518 21.4398 17.1438C21.1688 17.0318 20.8738 16.9688 20.5728 16.9578V15.8848C21.0138 15.8928 21.4398 15.9818 21.8358 16.1418L21.8348 16.1428ZM20.4288 15.7398C19.8778 15.7508 19.3618 15.8818 18.8978 16.1048C18.5508 16.2728 18.2338 16.4928 17.9588 16.7528L17.2608 16.0628C17.6148 15.7238 18.0068 15.4478 18.4368 15.2398H18.4408C19.0558 14.9418 19.7268 14.7778 20.4278 14.7668L20.4288 15.7398ZM17.8578 16.8548C17.5748 17.1458 17.3448 17.4808 17.1718 17.8458C16.9648 18.2888 16.8438 18.7778 16.8328 19.2958H15.8488C15.8598 18.6208 16.0148 17.9728 16.3008 17.3838C16.5158 16.9408 16.8028 16.5268 17.1608 16.1648L17.8588 16.8548H17.8578ZM16.8328 19.4378C16.8368 19.5828 16.8478 19.7248 16.8668 19.8628C16.7988 19.8698 16.7348 19.8928 16.7348 19.8928L16.7048 19.9928C16.6368 20.0038 16.5958 20.1118 16.5958 20.1118C16.5388 20.1298 16.4978 20.1978 16.5168 20.2158C16.5358 20.2338 16.4868 20.2418 16.4868 20.2418V20.3758L16.4568 20.4168L16.4608 20.5658C16.4988 20.5658 16.4908 20.6328 16.4908 20.6328C16.4308 20.6368 16.4458 20.7188 16.4458 20.7188L16.3178 20.7598L16.2918 20.7968L16.1338 20.7898L16.0918 20.8348C16.0768 20.7938 16.0658 20.7528 16.0538 20.7118H16.0498C15.9248 20.3058 15.8578 19.8768 15.8498 19.4368H16.8338L16.8328 19.4378ZM15.9088 20.7498C15.9128 20.7648 15.9198 20.7758 15.9238 20.7908H15.7428L15.7318 20.7608L15.6708 20.7498L15.6638 20.6828L15.5738 20.6868L15.5548 20.7248L15.4568 20.7318C15.4638 20.7918 15.3588 20.8848 15.3478 20.8588C15.3368 20.8368 15.2688 20.7698 15.2988 20.7548C15.3288 20.7438 15.4078 20.7328 15.4078 20.7328V20.6878L15.1858 20.6838C15.0808 20.2828 15.0118 19.8698 15.0008 19.4388H15.7068C15.7108 19.8898 15.7818 20.3298 15.9098 20.7508L15.9088 20.7498ZM15.4108 21.4078L15.4148 21.4098C15.4258 21.4998 15.5278 21.5548 15.5618 21.4618C15.5918 21.3728 15.6148 21.4248 15.6328 21.4698C15.6518 21.5108 15.7648 21.6148 15.7648 21.6148H15.8588L15.8698 21.6998C15.9718 21.6958 16.0018 21.7078 16.0468 21.8458C16.0888 21.9878 16.2048 22.0248 16.2048 22.0248L16.2878 22.0178C16.2878 21.9468 16.3748 22.0328 16.3748 22.0658C16.3748 22.1028 16.5368 22.2448 16.5368 22.2448L16.7028 22.2818L16.7328 22.3038C16.8348 22.4308 16.9398 22.5538 17.0568 22.6688L16.5708 23.1498C16.0798 22.6508 15.6828 22.0618 15.4098 21.4068L15.4108 21.4078ZM24.4308 23.1478L23.9458 22.6688C24.3188 22.2848 24.6248 21.8528 24.8468 21.3788C25.1338 20.7788 25.2878 20.1188 25.2988 19.4368H26.0008C25.9628 20.8788 25.3768 22.1858 24.4308 23.1478ZM26.0158 19.2918H25.3008C25.2898 18.7068 25.1728 18.1398 24.9618 17.6108C24.9318 17.5358 24.8978 17.4578 24.8638 17.3838C24.8708 17.3538 24.8898 17.3168 24.9318 17.3278C24.9918 17.3458 24.9508 17.1938 24.9508 17.1938C24.9508 17.1938 24.8638 17.1338 24.8718 17.1038C24.8758 17.0738 24.7848 17.0108 24.7928 16.9888C24.7928 16.9628 24.7178 16.9138 24.7178 16.8918C24.7248 16.8658 24.6758 16.7988 24.6758 16.7988L24.5858 16.7128L24.5748 16.6578L24.4998 16.6538L24.3568 16.4748L24.3608 16.4268L24.3188 16.4198V16.3528L24.2778 16.3298L24.2098 16.3228L24.0738 16.1778L24.0628 16.1108H23.9948L24.0058 16.0068L24.4978 15.5208C25.4338 16.5078 26.0168 17.8318 26.0178 19.2948L26.0158 19.2918ZM24.4028 15.4048L23.9588 15.8438C23.9358 15.8508 23.9138 15.8508 23.8988 15.8438C23.8538 15.8288 23.9138 15.7838 23.9138 15.7838V15.7358L23.8798 15.6988C23.8798 15.6988 23.7738 15.7098 23.7708 15.6948C23.7638 15.6768 23.7448 15.5948 23.7448 15.5948L23.7408 15.4898L23.6958 15.4748L23.6918 15.4368L23.6238 15.4408V15.3698L23.5858 15.3548L23.5518 15.3398L23.5448 15.2648L23.4088 15.2578L23.3668 15.1978L23.3178 15.1228L23.1668 15.1118L23.1288 15.0738L23.0688 15.0628L23.0268 15.0448L23.0078 15.0748L22.8908 15.0818L22.8868 15.1188C22.8488 15.1338 22.7508 15.1338 22.6758 15.1338C22.5508 15.0738 22.4308 15.0188 22.3028 14.9658C21.7598 14.7498 21.1758 14.6308 20.5728 14.6228V13.7898C22.0668 13.8098 23.4208 14.4188 24.4028 15.4028V15.4048ZM20.4288 13.7918V14.6248C19.6898 14.6318 18.9958 14.8118 18.3738 15.1168C17.9258 15.3368 17.5178 15.6198 17.1598 15.9628L16.5968 15.4058C17.5798 14.4208 18.9338 13.8108 20.4288 13.7918ZM16.5058 15.5168L17.0588 16.0628C16.7008 16.4278 16.3988 16.8498 16.1768 17.3158C15.8828 17.9158 15.7128 18.5868 15.7058 19.2948H14.9858C14.9858 19.2948 14.9858 19.2938 14.9858 19.2928C14.9858 17.8288 15.5688 16.5038 16.5058 15.5168Z" fill="white"/>
<path d="M21.5707 17.9215C21.5707 17.9395 21.6127 17.9585 21.6387 17.9585C21.6617 17.9585 21.7287 17.9105 21.7287 17.9105C21.7287 17.9105 21.7587 17.8255 21.7357 17.8325C21.7097 17.8365 21.6607 17.8735 21.6567 17.8365C21.6527 17.8215 21.6307 17.8145 21.6117 17.8145C21.5927 17.8145 21.5777 17.8215 21.5777 17.8215L21.4797 17.8325L21.4727 17.8735L21.5407 17.8805C21.5407 17.8805 21.5707 17.9035 21.5707 17.9215Z" fill="white"/>
<path d="M23.3835 15.088C23.3835 15.088 23.4965 15.222 23.4925 15.155C23.4815 14.973 23.3945 14.969 23.3645 14.931C23.3575 14.92 23.3455 14.916 23.3265 14.916C23.2775 14.916 23.2055 14.949 23.2135 14.987C23.2175 15.017 23.2435 15.047 23.2925 15.058L23.3835 15.088Z" fill="white"/>
<path d="M20.0439 19.1447L20.0419 19.1227L20.0409 19.0997L19.9729 19.0957H19.9719L19.9609 19.1257H19.9309L19.9239 19.1737H19.9609L19.9649 19.2117L19.9429 19.2337L19.9309 19.2667L19.8819 19.2777L19.7729 19.3827L19.7649 19.4307L19.7349 19.4717L19.6969 19.5647L19.5689 19.5717L19.5469 19.6807L19.5659 19.7737L19.6749 19.8137L19.6859 19.7547L19.7239 19.7357L19.7279 19.6727L19.7539 19.6317L19.7879 19.5877L19.8029 19.5387L19.8629 19.5057L19.9349 19.4907L19.9649 19.4537L19.9799 19.3827L19.9839 19.3267L20.0099 19.2897L20.0819 19.2597V19.1447H20.0439Z" fill="white"/>
<path d="M20.1646 20.2459L20.1526 20.2129L20.0996 20.2169L20.1036 20.3029L20.1416 20.3329L20.2096 20.3509C20.2096 20.3509 20.2996 20.3289 20.3076 20.2539L20.1646 20.2459Z" fill="white"/>
<path d="M24.1499 18.0924C24.1499 18.0924 24.1799 17.9764 24.1309 17.9764C24.0859 17.9764 24.1199 17.9164 24.0889 17.8984C24.0589 17.8804 24.0779 17.7944 24.0659 17.7674C24.0509 17.7454 24.0509 17.7154 24.0209 17.6964C24.0209 17.6964 24.0186 17.6954 24.0139 17.6934C24.0029 17.6964 24.0249 17.7634 24.0099 17.7754C23.9909 17.7864 23.9799 17.8124 23.9609 17.8314C23.9419 17.8504 23.9989 17.8724 23.9989 17.8914C23.9989 17.9104 24.0099 18.0034 24.0099 18.0034C24.0099 18.0034 24.0519 18.0224 24.0589 18.0444C24.0659 18.0704 24.0589 18.1194 24.0779 18.1224C24.0969 18.1304 24.1309 18.1554 24.1199 18.1784C24.1089 18.2044 24.1089 18.2534 24.1089 18.2534L24.1319 18.3094L24.1809 18.3394C24.1809 18.3394 24.1999 18.1904 24.1699 18.1864C24.1399 18.1784 24.1509 18.0934 24.1509 18.0934L24.1499 18.0924Z" fill="white"/>
<path d="M21.423 17.8418L21.291 17.8488V17.8868L21.423 17.8788V17.8418Z" fill="white"/>
<path d="M23.1084 17.4675C23.1084 17.4675 23.0974 17.5825 23.0594 17.6055H22.9764C22.9764 17.6055 22.9954 17.6355 23.0104 17.6535C23.0294 17.6715 23.0744 17.7095 23.0294 17.7355C22.9874 17.7575 23.0364 17.7535 23.0364 17.7535C23.0364 17.7535 23.0344 17.7855 23.0264 17.8145C23.0174 17.8435 23.0034 17.8705 22.9764 17.8615C22.9484 17.8525 22.9294 17.8695 22.9174 17.8915C22.9054 17.9135 22.9004 17.9415 22.9004 17.9545C22.9004 17.9715 23.0244 17.9815 23.0704 17.9715C23.0864 17.9685 23.0934 17.9625 23.0844 17.9545C23.0654 17.9365 23.1064 17.8915 23.1064 17.8915C23.1064 17.8915 23.2534 17.9025 23.2834 17.9025C23.2984 17.9025 23.3124 17.9015 23.3204 17.8965C23.3284 17.8915 23.3304 17.8835 23.3204 17.8685C23.3014 17.8355 23.2454 17.8425 23.2454 17.8425C23.2454 17.8425 23.1744 17.8615 23.1064 17.8245C23.0424 17.7875 23.1214 17.7765 23.1324 17.7765C23.1434 17.7765 23.1964 17.7355 23.1744 17.7015C23.1514 17.6715 23.1744 17.6175 23.1744 17.6415C23.1744 17.6545 23.1914 17.6635 23.2094 17.6675C23.2274 17.6715 23.2474 17.6695 23.2534 17.6595C23.2644 17.6415 23.2534 17.5845 23.2234 17.5665C23.1934 17.5485 23.2804 17.5365 23.2534 17.5065C23.2304 17.4765 23.2154 17.4395 23.2154 17.4395C23.2154 17.4395 23.2064 17.4515 23.1894 17.4605C23.1714 17.4695 23.1444 17.4765 23.1064 17.4655L23.1084 17.4675Z" fill="white"/>
<path d="M24.0063 17.5815C23.9723 17.5555 23.9493 17.4995 23.9493 17.4995C23.9493 17.4995 23.9193 17.4135 23.9193 17.4025C23.9193 17.3915 23.8773 17.3805 23.8583 17.3725C23.8393 17.3655 23.8093 17.3125 23.8093 17.3125L23.7383 17.3165C23.7533 17.3425 23.7913 17.3615 23.7913 17.3835C23.7913 17.4095 23.7803 17.4285 23.8173 17.4315C23.8513 17.4395 23.8783 17.4275 23.8883 17.4575C23.8993 17.4875 23.8993 17.5355 23.8953 17.5615C23.8883 17.5835 23.8993 17.6215 23.9293 17.6215C23.9603 17.6215 23.9673 17.6295 23.9673 17.6485C23.9823 17.6335 24.0063 17.5815 24.0063 17.5815Z" fill="white"/>
<path d="M17.8034 20.0461C17.8054 20.0631 17.8094 20.0691 17.8154 20.0681C17.8324 20.0671 17.8604 20.0061 17.8604 20.0061V19.5891L17.7514 19.5781L17.7554 19.6231H17.7854C17.8344 19.7091 17.7924 19.9141 17.7924 19.9141C17.7924 19.9141 17.7204 19.9211 17.7054 19.8841C17.6944 19.8471 17.6634 19.9621 17.6904 19.9811C17.7124 19.9991 17.7994 19.9811 17.8034 20.0481V20.0461Z" fill="white"/>
<path d="M17.752 20.0825V20.2285L17.85 20.3585L17.884 20.2725L17.899 20.2175V20.2165L17.854 20.1985L17.861 20.1085L17.899 20.1015L17.903 20.0605L17.813 20.1205L17.752 20.0825Z" fill="white"/>
<path d="M23.7983 17.261L23.8583 17.246C23.8583 17.246 23.8583 17.233 23.8573 17.221C23.8563 17.205 23.8523 17.191 23.8393 17.201C23.8163 17.219 23.7973 17.16 23.7713 17.164C23.7483 17.171 23.7373 17.142 23.7113 17.112C23.6883 17.079 23.6923 17.075 23.6623 17.056C23.6473 17.045 23.6363 17.041 23.6283 17.041C23.6173 17.045 23.6133 17.049 23.6133 17.059C23.6133 17.085 23.6433 17.096 23.6323 17.126C23.6213 17.159 23.6433 17.182 23.6703 17.182C23.6933 17.182 23.7123 17.193 23.7383 17.208C23.7603 17.219 23.7793 17.239 23.7983 17.261Z" fill="white"/>
<path d="M20.3412 20.7015C20.3412 20.7015 20.3352 20.7095 20.3252 20.7145C20.3152 20.7185 20.2992 20.7185 20.2812 20.7015C20.2772 20.6935 20.2742 20.6935 20.2702 20.6935C20.2362 20.6895 20.2132 20.7865 20.1992 20.8095C20.1992 20.8095 20.2142 20.8615 20.2412 20.8545C20.2672 20.8505 20.2862 20.8365 20.3092 20.8325C20.3322 20.8285 20.3432 20.7915 20.3512 20.7545C20.3622 20.7165 20.3442 20.7025 20.3442 20.7025L20.3412 20.7015Z" fill="white"/>
<path d="M21.2507 14.2526L21.2657 14.2156L21.5717 14.2236C21.5977 14.1976 21.6097 14.1606 21.6097 14.1606C21.6097 14.1606 21.6167 14.1566 21.6327 14.1536V14.0826H21.4897C21.4857 14.0606 21.4597 14.0566 21.4327 14.0566C21.4067 14.0606 21.3797 14.0716 21.3757 14.0826C21.3717 14.1086 21.3337 14.1126 21.3337 14.1126L21.1947 14.1276C21.1837 14.1606 21.1077 14.1876 21.1047 14.1606C21.1007 14.1536 21.0977 14.1456 21.0937 14.1456C21.0677 14.1456 21.0297 14.2316 21.0937 14.2536C21.1727 14.2796 21.2517 14.2536 21.2517 14.2536L21.2507 14.2526Z" fill="white"/>
<path d="M20.7966 14.3507L20.8346 14.4137L20.9746 14.4247L21.0646 14.5147C21.1436 14.5407 21.1626 14.5037 21.1136 14.4627L21.0346 14.3807V14.3137L21.0116 14.2917L20.9856 14.2057L20.9066 14.1797L20.8276 14.2127L20.7446 14.2647L20.6506 14.2797L20.6016 14.3317L20.7976 14.3497L20.7966 14.3507Z" fill="white"/>
<path d="M21.7275 15.6499C21.7385 15.6869 21.7345 15.7469 21.7875 15.7619C21.8445 15.7729 21.8555 15.7849 21.8625 15.8099C21.8665 15.8319 21.9335 15.8399 21.9335 15.8399L21.9825 15.8619L22.1295 15.9849V15.9369C22.1295 15.9369 22.1225 15.8889 22.0915 15.8889C22.0605 15.8889 22.0045 15.8509 22.0205 15.8289C22.0315 15.8029 21.9145 15.7769 21.9145 15.7769C21.9145 15.7769 21.8125 15.6799 21.8465 15.6949C21.8645 15.6999 21.8695 15.6899 21.8695 15.6769C21.8695 15.6639 21.8655 15.6499 21.8655 15.6499C21.8655 15.6499 21.7945 15.6609 21.7755 15.6569C21.7565 15.6499 21.7645 15.5939 21.7645 15.5939C21.7645 15.5939 21.7225 15.5859 21.7005 15.5859C21.6965 15.5859 21.6895 15.5899 21.6895 15.5939C21.6895 15.6119 21.7155 15.6119 21.7275 15.6499Z" fill="white"/>
</svg>
