<svg width="41" height="41" viewBox="0 0 41 41" fill="none" xmlns="http://www.w3.org/2000/svg">
<path d="M6.49914 32.5H34.4991C36.2381 32.5 37.7031 31.384 38.2541 29.834H2.74414C3.29514 31.384 4.76014 32.5 6.49914 32.5Z" fill="#E3E7EA"/>
<path d="M38.2656 11.1992C38.3326 11.3922 38.3886 11.5902 38.4286 11.7942C38.3916 11.5882 38.3326 11.3932 38.2656 11.1992Z" fill="#E3E7EA"/>
<path d="M2.73527 29.7991C2.66827 29.6061 2.61227 29.4081 2.57227 29.2051C2.60927 29.4111 2.66927 29.6061 2.73527 29.7991Z" fill="#E3E7EA"/>
<path d="M38.4286 29.2051C38.3886 29.4091 38.3326 29.6061 38.2656 29.7991C38.3326 29.6061 38.3926 29.4101 38.4286 29.2051Z" fill="#E3E7EA"/>
<path d="M38.5 24.5H2.5V27.166H38.5V24.5Z" fill="#E3E7EA"/>
<path d="M15.3 16.5V19.17H38.5V21.83H2.5V12.5C2.5 10.29 4.29 8.5 6.5 8.5H34.5C36.24 8.5 37.7 9.62 38.26 11.17H15.3V13.83H38.5V16.5H15.3Z" fill="#E3E7EA"/>
<path d="M2.5 28.5V28.504C2.5 28.745 2.527 28.978 2.571 29.205C2.611 29.409 2.667 29.606 2.734 29.799C2.738 29.81 2.739 29.822 2.743 29.833H38.255C38.259 29.822 38.26 29.81 38.264 29.799C38.331 29.606 38.387 29.408 38.427 29.205C38.472 28.978 38.498 28.745 38.498 28.504V27.166H2.5V28.5Z" fill="#2973BA"/>
<path d="M38.5009 16.5H15.2969V19.167H38.5009V16.5Z" fill="#2973BA"/>
<path d="M38.5 21.834H2.5V24.501H38.5V21.834Z" fill="#2973BA"/>
<path d="M38.4299 11.796C38.3899 11.592 38.3339 11.394 38.2669 11.201C38.2629 11.19 38.2619 11.179 38.2579 11.168H15.2969V13.834H38.5009V12.496C38.5009 12.256 38.4749 12.022 38.4299 11.796Z" fill="#2973BA"/>
<path d="M10.5742 17.7068L10.8672 18.4648C11.3522 18.1538 11.7632 17.7438 12.0742 17.2578L11.3162 16.9648C11.1112 17.2518 10.8612 17.5018 10.5752 17.7068H10.5742Z" fill="#FFD983"/>
<path d="M9.04006 18.2718L8.91406 19.0778C9.50706 19.0508 10.0601 18.8928 10.5571 18.6348L10.0521 18.0098C9.73906 18.1528 9.39806 18.2378 9.04006 18.2718Z" fill="#FFD983"/>
<path d="M10.0521 12.2457L10.5571 11.6207C10.0601 11.3617 9.50706 11.2037 8.91406 11.1777L9.04006 11.9837C9.39806 12.0177 9.73906 12.1027 10.0521 12.2457Z" fill="#FFD983"/>
<path d="M8.43302 11.9837L8.55902 11.1777C7.96602 11.2047 7.41302 11.3627 6.91602 11.6207L7.42102 12.2457C7.73402 12.1027 8.07502 12.0177 8.43302 11.9837Z" fill="#FFD983"/>
<path d="M11.3143 13.2891L12.0723 12.9961C11.7613 12.5111 11.3513 12.1001 10.8653 11.7891L10.5723 12.5471C10.8593 12.7521 11.1093 13.0021 11.3143 13.2891Z" fill="#FFD983"/>
<path d="M11.6172 16.4446L12.2422 16.9496C12.5012 16.4526 12.6592 15.8996 12.6852 15.3066L11.8792 15.4326C11.8452 15.7906 11.7602 16.1316 11.6172 16.4446Z" fill="#FFD983"/>
<path d="M6.15644 16.9668L5.39844 17.2598C5.70944 17.7448 6.11944 18.1558 6.60544 18.4668L6.89844 17.7088C6.61144 17.5038 6.36144 17.2538 6.15744 16.9678L6.15644 16.9668Z" fill="#FFD983"/>
<path d="M5.85511 13.8136L5.23011 13.3086C4.97111 13.8056 4.81311 14.3586 4.78711 14.9516L5.59311 14.8256C5.62711 14.4676 5.71211 14.1266 5.85511 13.8136Z" fill="#FFD983"/>
<path d="M6.89648 12.5471L6.60348 11.7891C6.11748 12.1001 5.70748 12.5101 5.39648 12.9961L6.15448 13.2891C6.35948 13.0031 6.60948 12.7521 6.89648 12.5481V12.5471Z" fill="#FFD983"/>
<path d="M5.59116 15.4326L4.78516 15.3066C4.81216 15.8996 4.97016 16.4526 5.22816 16.9496L5.85316 16.4446C5.71016 16.1316 5.62516 15.7906 5.59116 15.4326Z" fill="#FFD983"/>
<path d="M11.8792 14.8256L12.6852 14.9516C12.6582 14.3586 12.5002 13.8056 12.2422 13.3086L11.6172 13.8136C11.7602 14.1266 11.8452 14.4676 11.8792 14.8256Z" fill="#FFD983"/>
<path d="M7.42102 18.0098L6.91602 18.6348C7.41302 18.8938 7.96602 19.0518 8.55902 19.0788L8.43302 18.2728C8.07502 18.2388 7.73402 18.1528 7.42102 18.0098Z" fill="#FFD983"/>
<path d="M8.43192 11.9834C8.07392 12.0174 7.73292 12.1024 7.41992 12.2454L7.94192 12.8914C8.05992 12.8494 8.17992 12.8124 8.30592 12.7884L8.43192 11.9834Z" fill="#FFCC4D"/>
<path d="M7.41992 18.0103C7.73292 18.1533 8.07392 18.2383 8.43192 18.2723L8.30592 17.4663C8.17992 17.4433 8.06092 17.4053 7.94192 17.3633L7.41992 18.0103Z" fill="#FFCC4D"/>
<path d="M5.85575 13.8125C5.71275 14.1255 5.62775 14.4665 5.59375 14.8245L6.39975 14.6985C6.42275 14.5725 6.45975 14.4535 6.50175 14.3345L5.85575 13.8125Z" fill="#FFCC4D"/>
<path d="M10.0511 12.2464C9.73806 12.1034 9.39706 12.0184 9.03906 11.9844L9.16506 12.7904C9.29106 12.8134 9.41106 12.8514 9.52906 12.8934L10.0511 12.2464Z" fill="#FFCC4D"/>
<path d="M10.5404 13.5889L11.3174 13.2889C11.1124 13.0019 10.8624 12.7519 10.5754 12.5469L10.2754 13.3239C10.3704 13.4059 10.4584 13.4929 10.5404 13.5889Z" fill="#FFCC4D"/>
<path d="M5.5918 15.4316C5.6258 15.7896 5.7108 16.1306 5.8538 16.4436L6.4998 15.9216C6.4578 15.8036 6.4208 15.6836 6.3978 15.5576L5.5918 15.4316Z" fill="#FFCC4D"/>
<path d="M7.19825 13.3239L6.89825 12.5469C6.61125 12.7519 6.36125 13.0019 6.15625 13.2879L6.93325 13.5879C7.01425 13.4929 7.10225 13.4049 7.19825 13.3229V13.3239Z" fill="#FFCC4D"/>
<path d="M10.2744 16.931L10.5744 17.708C10.8614 17.503 11.1114 17.253 11.3154 16.966L10.5384 16.666C10.4574 16.761 10.3694 16.849 10.2734 16.93L10.2744 16.931Z" fill="#FFCC4D"/>
<path d="M11.6187 16.4436C11.7617 16.1306 11.8467 15.7896 11.8807 15.4316L11.0747 15.5576C11.0517 15.6836 11.0147 15.8036 10.9727 15.9216L11.6197 16.4436H11.6187Z" fill="#FFCC4D"/>
<path d="M10.9717 14.3345C11.0137 14.4525 11.0507 14.5725 11.0737 14.6985L11.8797 14.8245C11.8457 14.4665 11.7607 14.1255 11.6177 13.8125L10.9707 14.3345H10.9717Z" fill="#FFCC4D"/>
<path d="M9.03906 18.2723C9.39706 18.2383 9.73806 18.1533 10.0511 18.0103L9.52906 17.3633C9.41106 17.4053 9.29106 17.4433 9.16506 17.4663L9.03906 18.2723Z" fill="#FFCC4D"/>
<path d="M6.93325 16.666L6.15625 16.966C6.36125 17.252 6.61125 17.503 6.89725 17.707L7.19725 16.93C7.10225 16.849 7.01525 16.761 6.93325 16.666Z" fill="#FFCC4D"/>
<path d="M10.5405 13.5891C10.4595 13.4941 10.3715 13.4061 10.2755 13.3241C10.0565 13.1371 9.80647 12.9901 9.53047 12.8921C9.41247 12.8501 9.29247 12.8131 9.16647 12.7891C9.02647 12.7641 8.88347 12.7461 8.73647 12.7461C8.58947 12.7461 8.44647 12.7641 8.30647 12.7891C8.18047 12.8121 8.06047 12.8501 7.94247 12.8921C7.66647 12.9901 7.41647 13.1371 7.19747 13.3241C7.10247 13.4061 7.01447 13.4931 6.93247 13.5891C6.74547 13.8081 6.59847 14.0581 6.50047 14.3341C6.45847 14.4521 6.42147 14.5721 6.39847 14.6981C6.37247 14.8381 6.35547 14.9811 6.35547 15.1281C6.35547 15.2751 6.37347 15.4181 6.39847 15.5581C6.42147 15.6841 6.45847 15.8041 6.50047 15.9221C6.59847 16.1981 6.74547 16.4481 6.93247 16.6671C7.01347 16.7621 7.10147 16.8501 7.19747 16.9311C7.41647 17.1181 7.66647 17.2651 7.94247 17.3631C8.06047 17.4051 8.18047 17.4431 8.30647 17.4661C8.44647 17.4921 8.58947 17.5091 8.73647 17.5091C8.88347 17.5091 9.02647 17.4911 9.16647 17.4661C9.29247 17.4431 9.41147 17.4051 9.53047 17.3631C9.80647 17.2651 10.0565 17.1181 10.2755 16.9311C10.3705 16.8501 10.4585 16.7621 10.5405 16.6671C10.7275 16.4481 10.8745 16.1981 10.9725 15.9221C11.0145 15.8041 11.0515 15.6841 11.0745 15.5581C11.1005 15.4181 11.1175 15.2751 11.1175 15.1281C11.1175 14.9811 11.0995 14.8381 11.0745 14.6981C11.0515 14.5721 11.0145 14.4531 10.9725 14.3341C10.8745 14.0581 10.7275 13.8081 10.5405 13.5891ZM8.72647 16.8391C7.78247 16.8391 7.01747 16.0741 7.01747 15.1311C7.01747 14.1881 7.78247 13.4221 8.72647 13.4221C9.67047 13.4221 10.4355 14.1871 10.4355 15.1311C10.4355 16.0751 9.67047 16.8391 8.72647 16.8391Z" fill="#C1694F"/>
<path d="M12.6882 14.9493L11.8822 14.8233L11.0762 14.6973C11.1022 14.8373 11.1192 14.9803 11.1192 15.1273C11.1192 15.2743 11.1012 15.4173 11.0762 15.5573L11.8822 15.4313L12.6882 15.3053L13.5262 15.1743L13.6072 15.1613L13.8202 15.1283L12.6892 14.9513L12.6882 14.9493Z" fill="#FFAC33"/>
<path d="M9.16664 17.4648C9.02664 17.4908 8.88364 17.5078 8.73664 17.5078C8.58964 17.5078 8.44664 17.4898 8.30664 17.4648L8.43264 18.2708L8.55864 19.0768L8.73564 20.2078L8.91264 19.0768L9.03864 18.2708L9.16464 17.4648H9.16664Z" fill="#FFAC33"/>
<path d="M8.30664 12.7899C8.44664 12.7649 8.58964 12.7469 8.73664 12.7469C8.88364 12.7469 9.02664 12.7649 9.16664 12.7899L9.04064 11.9839L8.91464 11.1779L8.73764 10.0469L8.56064 11.1779L8.43464 11.9839L8.30864 12.7899H8.30664Z" fill="#FFAC33"/>
<path d="M10.2743 16.9297C10.0553 17.1167 9.8053 17.2637 9.5293 17.3617L10.0513 18.0087L10.5563 18.6337L11.2773 19.5277L10.8673 18.4647L10.5743 17.7067L10.2743 16.9297Z" fill="#FFAC33"/>
<path d="M10.541 13.5889C10.728 13.8079 10.875 14.0579 10.973 14.3339L11.62 13.8119L12.245 13.3069L13.139 12.5859L12.076 12.9959L11.318 13.2889L10.541 13.5889Z" fill="#FFAC33"/>
<path d="M10.973 15.9199C10.875 16.1959 10.728 16.4459 10.541 16.6649L11.318 16.9649L12.076 17.2579L13.139 17.6679L12.245 16.9469L11.62 16.4419L10.973 15.9199Z" fill="#FFAC33"/>
<path d="M9.5293 12.8916C9.8053 12.9896 10.0553 13.1366 10.2743 13.3236L10.5743 12.5466L10.8673 11.7886L11.2773 10.7266L10.5563 11.6206L10.0513 12.2456L9.5293 12.8916Z" fill="#FFAC33"/>
<path d="M6.39925 15.5573C6.37325 15.4173 6.35625 15.2743 6.35625 15.1273C6.35625 14.9803 6.37425 14.8373 6.39925 14.6973L5.59325 14.8233L4.78725 14.9493L3.65625 15.1263L3.78425 15.1463L4.78725 15.3033L5.59325 15.4293L6.39925 15.5553V15.5573Z" fill="#FFAC33"/>
<path d="M7.94331 17.3617C7.66731 17.2637 7.41731 17.1167 7.19831 16.9297L6.89831 17.7067L6.60531 18.4647L6.19531 19.5277L6.91631 18.6337L7.42131 18.0087L7.94331 17.3617Z" fill="#FFAC33"/>
<path d="M7.19831 13.3236C7.41731 13.1366 7.66731 12.9896 7.94331 12.8916L7.42131 12.2456L6.91631 11.6206L6.19531 10.7266L6.60531 11.7896L6.89831 12.5476L7.19831 13.3236Z" fill="#FFAC33"/>
<path d="M6.93294 16.6649C6.74594 16.4459 6.59894 16.1959 6.50094 15.9199L5.85494 16.4419L5.22994 16.9469L4.33594 17.6679L5.39894 17.2579L6.15694 16.9649L6.93294 16.6649Z" fill="#FFAC33"/>
<path d="M6.50194 14.3339C6.59994 14.0579 6.74694 13.8079 6.93394 13.5889L6.15694 13.2889L5.39894 12.9959L4.33594 12.5859L5.22994 13.3069L5.85494 13.8119L6.50194 14.3339Z" fill="#FFAC33"/>
<path d="M8.72658 13.4199C7.78258 13.4199 7.01758 14.1849 7.01758 15.1289C7.01758 16.0729 7.78258 16.8369 8.72658 16.8369C9.67058 16.8369 10.4356 16.0729 10.4356 15.1289C10.4356 14.1849 9.67058 13.4199 8.72658 13.4199Z" fill="#FFAC33"/>
</svg>
