<svg width="41" height="41" viewBox="0 0 41 41" fill="none" xmlns="http://www.w3.org/2000/svg">
<path d="M38.5 16.1797H2.5V16.6597H38.5V16.1797Z" fill="#CF002E"/>
<path d="M38.5 24.3398H2.5V24.8198H38.5V24.3398Z" fill="#CF002E"/>
<path d="M2.5 28.5003V28.5043C2.5 30.7113 4.289 32.5003 6.495 32.5003H34.504C36.711 32.5003 38.499 30.7113 38.499 28.5043V24.8203H2.5V28.5003Z" fill="#00B933"/>
<path d="M38.5 16.6602H2.5V24.3402H38.5V16.6602Z" fill="#E3E7EA"/>
<path d="M15.9747 9.46094L15.8457 9.85894H15.9147L15.9747 9.46094Z" fill="#E3E7EA"/>
<path d="M15.9461 9.85894H16.0021H16.1021L15.9741 9.46094L15.9141 9.85894H15.9461Z" fill="#E3E7EA"/>
<path d="M16.0039 9.85938V9.94538H16.0079L16.0169 9.93237L16.0219 9.94238L16.5209 9.85938H16.1039H16.0039Z" fill="#E3E7EA"/>
<path d="M16.0215 9.94238L16.0305 9.95938L16.0615 9.96537L16.0485 9.98338L16.1345 9.95538L16.1835 10.1054L16.5205 9.85938L16.0215 9.94238Z" fill="#E3E7EA"/>
<path d="M16.0079 9.94531H16.0039V9.95031L16.0079 9.94531Z" fill="#E3E7EA"/>
<path d="M15.4297 9.85938L15.7667 10.1054L15.7887 10.0394L15.4297 9.85938Z" fill="#E3E7EA"/>
<path d="M16.0473 9.98298L16.0603 9.96498L16.0293 9.95898L16.0423 9.98398L16.0473 9.98298Z" fill="#E3E7EA"/>
<path d="M15.8157 9.95538L15.9067 9.98438L15.9337 9.93237L15.9757 9.98938L16.0037 9.95038V9.94538V9.85938H15.9477H15.9157H15.8467H15.4297L15.7887 10.0394L15.8157 9.95538Z" fill="#E3E7EA"/>
<path d="M16.134 9.95508L16.048 9.98308L16.043 9.98408L16.071 10.0391L16.087 10.0441L16.079 10.0531L16.311 10.5031L16.183 10.1051L16.134 9.95508Z" fill="#E3E7EA"/>
<path d="M15.9746 9.98864L15.9916 10.0126L16.0706 10.0386L16.0426 9.98364L16.0296 9.95864L16.0206 9.94164L16.0156 9.93164L16.0066 9.94464L16.0026 9.94964L15.9746 9.98864Z" fill="#E3E7EA"/>
<path d="M16.0786 10.0527L16.0446 10.0857L16.1016 10.1647L15.9746 10.2567L16.3106 10.5027L16.0786 10.0527Z" fill="#E3E7EA"/>
<path d="M15.9753 9.98864L15.9332 9.93164L15.9062 9.98364L15.9922 10.0126L15.9753 9.98864Z" fill="#E3E7EA"/>
<path d="M16.1017 10.1649L16.0447 10.0859L15.6367 10.5029L15.9747 10.2569L16.1017 10.1649Z" fill="#E3E7EA"/>
<path d="M16.0447 10.0861L16.0787 10.0531L16.0867 10.0441L16.0707 10.0391L15.9917 10.0131L15.9057 9.98408L15.8147 9.95508L15.7877 10.0391L15.7657 10.1051L15.6367 10.5031L16.0447 10.0861Z" fill="#E3E7EA"/>
<path d="M18.2677 9.46094L18.1387 9.85894H18.2087L18.2677 9.46094Z" fill="#E3E7EA"/>
<path d="M18.24 9.85894H18.296H18.397L18.268 9.46094L18.209 9.85894H18.24Z" fill="#E3E7EA"/>
<path d="M18.2969 9.85938V9.94538H18.3009L18.3099 9.93237L18.3159 9.94238L18.8139 9.85938H18.3979H18.2969Z" fill="#E3E7EA"/>
<path d="M18.3145 9.94238L18.3235 9.95938L18.3555 9.96537L18.3415 9.98338L18.4275 9.95538L18.4755 10.1054L18.8125 9.85938L18.3145 9.94238Z" fill="#E3E7EA"/>
<path d="M18.3009 9.94531H18.2969V9.95031L18.3009 9.94531Z" fill="#E3E7EA"/>
<path d="M17.7227 9.85938L18.0597 10.1054L18.0807 10.0394L17.7227 9.85938Z" fill="#E3E7EA"/>
<path d="M18.3422 9.98298L18.3562 9.96498L18.3242 9.95898L18.3372 9.98498L18.3422 9.98298Z" fill="#E3E7EA"/>
<path d="M18.1077 9.95538L18.1987 9.98438L18.2267 9.93237L18.2677 9.98938L18.2957 9.95038V9.94538V9.85938H18.2397H18.2087H18.1387H17.7227L18.0807 10.0394L18.1077 9.95538Z" fill="#E3E7EA"/>
<path d="M18.4289 9.95508L18.3429 9.98308L18.3379 9.98508L18.3659 10.0391L18.3819 10.0441L18.3729 10.0531L18.6059 10.5031L18.4769 10.1051L18.4289 9.95508Z" fill="#E3E7EA"/>
<path d="M18.2676 9.98864L18.2846 10.0116L18.3646 10.0386L18.3366 9.98464L18.3236 9.95864L18.3146 9.94164L18.3086 9.93164L18.2996 9.94464L18.2956 9.94964L18.2676 9.98864Z" fill="#E3E7EA"/>
<path d="M18.3716 10.0527L18.3386 10.0857L18.3946 10.1647L18.2676 10.2567L18.6046 10.5027L18.3716 10.0527Z" fill="#E3E7EA"/>
<path d="M18.2682 9.98864L18.2272 9.93164L18.1992 9.98364L18.2852 10.0116L18.2682 9.98864Z" fill="#E3E7EA"/>
<path d="M18.3956 10.1649L18.3396 10.0859L17.9316 10.5029L18.2686 10.2569L18.3956 10.1649Z" fill="#E3E7EA"/>
<path d="M18.3396 10.0861L18.3726 10.0531L18.3816 10.0441L18.3656 10.0391L18.2856 10.0121L18.1996 9.98408L18.1086 9.95508L18.0816 10.0391L18.0606 10.1051L17.9316 10.5031L18.3396 10.0861Z" fill="#E3E7EA"/>
<path d="M20.5616 9.46094L20.4336 9.85894H20.5026L20.5616 9.46094Z" fill="#E3E7EA"/>
<path d="M20.534 9.85894H20.589H20.69L20.561 9.46094L20.502 9.85894H20.534Z" fill="#E3E7EA"/>
<path d="M20.5898 9.85938V9.94538H20.5938L20.6038 9.93237L20.6088 9.94238L21.1078 9.85938H20.6908H20.5898Z" fill="#E3E7EA"/>
<path d="M20.6074 9.94238L20.6164 9.95938L20.6484 9.96537L20.6354 9.98338L20.7204 9.95538L20.7694 10.1054L21.1064 9.85938L20.6074 9.94238Z" fill="#E3E7EA"/>
<path d="M20.5938 9.94531H20.5898V9.95031L20.5938 9.94531Z" fill="#E3E7EA"/>
<path d="M20.0156 9.85938L20.3526 10.1054L20.3746 10.0394L20.0156 9.85938Z" fill="#E3E7EA"/>
<path d="M20.6362 9.98298L20.6492 9.96498L20.6172 9.95898L20.6302 9.98498L20.6362 9.98298Z" fill="#E3E7EA"/>
<path d="M20.4016 9.95538L20.4926 9.98538L20.5196 9.93237L20.5606 9.98938L20.5886 9.95038V9.94538V9.85938H20.5336H20.5016H20.4326H20.0156L20.3746 10.0394L20.4016 9.95538Z" fill="#E3E7EA"/>
<path d="M20.7219 9.95508L20.6369 9.98308L20.6309 9.98508L20.6589 10.0391L20.6749 10.0441L20.6659 10.0531L20.8989 10.5031L20.7709 10.1051L20.7219 9.95508Z" fill="#E3E7EA"/>
<path d="M20.5605 9.98864L20.5785 10.0126L20.6575 10.0386L20.6295 9.98464L20.6165 9.95864L20.6075 9.94164L20.6025 9.93164L20.5925 9.94464L20.5885 9.94964L20.5605 9.98864Z" fill="#E3E7EA"/>
<path d="M20.6645 10.0527L20.6315 10.0857L20.6875 10.1647L20.5605 10.2567L20.8975 10.5027L20.6645 10.0527Z" fill="#E3E7EA"/>
<path d="M20.5602 9.98864L20.5192 9.93164L20.4922 9.98464L20.5782 10.0126L20.5602 9.98864Z" fill="#E3E7EA"/>
<path d="M20.6876 10.1649L20.6316 10.0859L20.2246 10.5029L20.5606 10.2569L20.6876 10.1649Z" fill="#E3E7EA"/>
<path d="M20.6316 10.0861L20.6646 10.0531L20.6736 10.0441L20.6576 10.0391L20.5786 10.0131L20.4926 9.98508L20.4016 9.95508L20.3746 10.0391L20.3526 10.1051L20.2246 10.5031L20.6316 10.0861Z" fill="#E3E7EA"/>
<path d="M13.6807 11.7656L13.5527 12.1636H13.6217L13.6807 11.7656Z" fill="#E3E7EA"/>
<path d="M13.6521 12.1636H13.7081H13.8091L13.6801 11.7656L13.6211 12.1636H13.6521Z" fill="#E3E7EA"/>
<path d="M13.709 12.1621V12.2481H13.713L13.723 12.2351L13.728 12.2451L14.227 12.1621H13.81H13.709Z" fill="#E3E7EA"/>
<path d="M13.7285 12.2451L13.7375 12.2621L13.7685 12.2681L13.7545 12.2871L13.8415 12.2581L13.8895 12.4081L14.2275 12.1621L13.7285 12.2451Z" fill="#E3E7EA"/>
<path d="M13.713 12.248H13.709V12.253L13.713 12.248Z" fill="#E3E7EA"/>
<path d="M13.1367 12.1621L13.4737 12.4081L13.4947 12.3421L13.1367 12.1621Z" fill="#E3E7EA"/>
<path d="M13.7533 12.2887L13.7673 12.2697L13.7363 12.2637L13.7493 12.2897L13.7533 12.2887Z" fill="#E3E7EA"/>
<path d="M13.5227 12.2581L13.6127 12.2881L13.6407 12.2351L13.6817 12.2921L13.7097 12.2531V12.2481V12.1621H13.6537H13.6227H13.5537H13.1367L13.4947 12.3421L13.5227 12.2581Z" fill="#E3E7EA"/>
<path d="M13.841 12.2598L13.754 12.2888L13.75 12.2898L13.778 12.3448L13.794 12.3498L13.785 12.3578L14.018 12.8078L13.889 12.4098L13.841 12.2598Z" fill="#E3E7EA"/>
<path d="M13.6816 12.2933L13.6996 12.3173L13.7786 12.3443L13.7506 12.2893L13.7376 12.2633L13.7286 12.2463L13.7236 12.2363L13.7136 12.2493L13.7096 12.2543L13.6816 12.2933Z" fill="#E3E7EA"/>
<path d="M13.7856 12.3574L13.7526 12.3914L13.8086 12.4694L13.6816 12.5614L14.0186 12.8074L13.7856 12.3574Z" fill="#E3E7EA"/>
<path d="M13.6803 12.2933L13.6393 12.2363L13.6113 12.2893L13.6983 12.3173L13.6803 12.2933Z" fill="#E3E7EA"/>
<path d="M13.8077 12.4686L13.7517 12.3906L13.3438 12.8066L13.6807 12.5606L13.8077 12.4686Z" fill="#E3E7EA"/>
<path d="M13.7517 12.3918L13.7847 12.3578L13.7937 12.3498L13.7778 12.3448L13.6988 12.3178L13.6118 12.2898L13.5218 12.2598L13.4938 12.3438L13.4727 12.4098L13.3438 12.8078L13.7517 12.3918Z" fill="#E3E7EA"/>
<path d="M15.9747 11.7656L15.8457 12.1636H15.9147L15.9747 11.7656Z" fill="#E3E7EA"/>
<path d="M15.9461 12.1636H16.0021H16.1021L15.9741 11.7656L15.9141 12.1636H15.9461Z" fill="#E3E7EA"/>
<path d="M16.0039 12.1621V12.2481H16.0079L16.0169 12.2351L16.0219 12.2451L16.5209 12.1621H16.1039H16.0039Z" fill="#E3E7EA"/>
<path d="M16.0215 12.2451L16.0305 12.2621L16.0615 12.2681L16.0475 12.2871L16.1345 12.2581L16.1835 12.4081L16.5205 12.1621L16.0215 12.2451Z" fill="#E3E7EA"/>
<path d="M16.0079 12.248H16.0039V12.253L16.0079 12.248Z" fill="#E3E7EA"/>
<path d="M15.4297 12.1621L15.7667 12.4081L15.7887 12.3421L15.4297 12.1621Z" fill="#E3E7EA"/>
<path d="M16.0463 12.2887L16.0603 12.2697L16.0293 12.2637L16.0433 12.2897L16.0463 12.2887Z" fill="#E3E7EA"/>
<path d="M15.8157 12.2581L15.9067 12.2881L15.9337 12.2351L15.9757 12.2921L16.0037 12.2531V12.2481V12.1621H15.9477H15.9157H15.8467H15.4297L15.7887 12.3421L15.8157 12.2581Z" fill="#E3E7EA"/>
<path d="M16.1349 12.2598L16.0479 12.2888L16.0449 12.2898L16.0729 12.3448L16.0879 12.3498L16.0799 12.3578L16.3119 12.8078L16.1839 12.4098L16.1349 12.2598Z" fill="#E3E7EA"/>
<path d="M15.9746 12.2933L15.9916 12.3173L16.0716 12.3443L16.0436 12.2893L16.0296 12.2633L16.0206 12.2463L16.0156 12.2363L16.0066 12.2493L16.0026 12.2543L15.9746 12.2933Z" fill="#E3E7EA"/>
<path d="M16.0786 12.3574L16.0456 12.3914L16.1016 12.4694L15.9746 12.5614L16.3106 12.8074L16.0786 12.3574Z" fill="#E3E7EA"/>
<path d="M15.9753 12.2933L15.9332 12.2363L15.9062 12.2893L15.9922 12.3173L15.9753 12.2933Z" fill="#E3E7EA"/>
<path d="M16.1017 12.4686L16.0457 12.3906L15.6367 12.8066L15.9747 12.5606L16.1017 12.4686Z" fill="#E3E7EA"/>
<path d="M16.0457 12.3918L16.0787 12.3578L16.0867 12.3498L16.0717 12.3448L15.9917 12.3178L15.9057 12.2898L15.8147 12.2598L15.7877 12.3438L15.7657 12.4098L15.6367 12.8078L16.0457 12.3918Z" fill="#E3E7EA"/>
<path d="M18.2677 11.7656L18.1387 12.1636H18.2087L18.2677 11.7656Z" fill="#E3E7EA"/>
<path d="M18.24 12.1636H18.296H18.397L18.268 11.7656L18.209 12.1636H18.24Z" fill="#E3E7EA"/>
<path d="M18.2969 12.1621V12.2481H18.3009L18.3099 12.2351L18.3159 12.2451L18.8139 12.1621H18.3979H18.2969Z" fill="#E3E7EA"/>
<path d="M18.3145 12.2451L18.3235 12.2621L18.3555 12.2681L18.3415 12.2861L18.4275 12.2581L18.4755 12.4081L18.8125 12.1621L18.3145 12.2451Z" fill="#E3E7EA"/>
<path d="M18.3009 12.248H18.2969V12.253L18.3009 12.248Z" fill="#E3E7EA"/>
<path d="M17.7227 12.1621L18.0597 12.4081L18.0807 12.3421L17.7227 12.1621Z" fill="#E3E7EA"/>
<path d="M18.3422 12.2877L18.3562 12.2697L18.3242 12.2637L18.3372 12.2897L18.3422 12.2877Z" fill="#E3E7EA"/>
<path d="M18.1077 12.2581L18.1987 12.2881L18.2267 12.2351L18.2677 12.2921L18.2957 12.2531V12.2481V12.1621H18.2397H18.2087H18.1387H17.7227L18.0807 12.3421L18.1077 12.2581Z" fill="#E3E7EA"/>
<path d="M18.4289 12.2598L18.3429 12.2878L18.3379 12.2898L18.3659 12.3448L18.3819 12.3498L18.3729 12.3578L18.6059 12.8078L18.4769 12.4098L18.4289 12.2598Z" fill="#E3E7EA"/>
<path d="M18.2676 12.2933L18.2856 12.3173L18.3646 12.3443L18.3366 12.2893L18.3236 12.2633L18.3146 12.2463L18.3086 12.2363L18.2996 12.2493L18.2956 12.2543L18.2676 12.2933Z" fill="#E3E7EA"/>
<path d="M18.3716 12.3574L18.3386 12.3914L18.3946 12.4694L18.2676 12.5614L18.6046 12.8074L18.3716 12.3574Z" fill="#E3E7EA"/>
<path d="M18.2682 12.2933L18.2272 12.2363L18.1992 12.2893L18.2862 12.3173L18.2682 12.2933Z" fill="#E3E7EA"/>
<path d="M18.3956 12.4686L18.3396 12.3906L17.9316 12.8066L18.2686 12.5606L18.3956 12.4686Z" fill="#E3E7EA"/>
<path d="M18.3396 12.3918L18.3726 12.3578L18.3816 12.3498L18.3656 12.3448L18.2866 12.3178L18.1996 12.2898L18.1086 12.2598L18.0816 12.3438L18.0606 12.4098L17.9316 12.8078L18.3396 12.3918Z" fill="#E3E7EA"/>
<path d="M20.5616 11.7656L20.4336 12.1636H20.5026L20.5616 11.7656Z" fill="#E3E7EA"/>
<path d="M20.534 12.1636H20.589H20.69L20.561 11.7656L20.502 12.1636H20.534Z" fill="#E3E7EA"/>
<path d="M20.5898 12.1621V12.2481H20.5938L20.6038 12.2351L20.6088 12.2451L21.1078 12.1621H20.6908H20.5898Z" fill="#E3E7EA"/>
<path d="M20.6074 12.2451L20.6164 12.2621L20.6484 12.2681L20.6344 12.2861L20.7204 12.2581L20.7694 12.4081L21.1064 12.1621L20.6074 12.2451Z" fill="#E3E7EA"/>
<path d="M20.5938 12.248H20.5898V12.253L20.5938 12.248Z" fill="#E3E7EA"/>
<path d="M20.0156 12.1621L20.3526 12.4081L20.3746 12.3421L20.0156 12.1621Z" fill="#E3E7EA"/>
<path d="M20.6352 12.2877L20.6492 12.2697L20.6172 12.2637L20.6302 12.2897L20.6352 12.2877Z" fill="#E3E7EA"/>
<path d="M20.4016 12.2581L20.4926 12.2881L20.5196 12.2351L20.5606 12.2921L20.5886 12.2531V12.2481V12.1621H20.5336H20.5016H20.4326H20.0156L20.3746 12.3421L20.4016 12.2581Z" fill="#E3E7EA"/>
<path d="M20.7219 12.2598L20.6359 12.2878L20.6309 12.2898L20.6599 12.3448L20.6749 12.3498L20.6669 12.3578L20.8989 12.8078L20.7709 12.4098L20.7219 12.2598Z" fill="#E3E7EA"/>
<path d="M20.5605 12.2933L20.5785 12.3173L20.6585 12.3443L20.6295 12.2893L20.6165 12.2633L20.6075 12.2463L20.6025 12.2363L20.5925 12.2493L20.5885 12.2543L20.5605 12.2933Z" fill="#E3E7EA"/>
<path d="M20.6655 12.3574L20.6315 12.3914L20.6875 12.4694L20.5605 12.5614L20.8975 12.8074L20.6655 12.3574Z" fill="#E3E7EA"/>
<path d="M20.5602 12.2933L20.5192 12.2363L20.4922 12.2893L20.5782 12.3173L20.5602 12.2933Z" fill="#E3E7EA"/>
<path d="M20.6876 12.4686L20.6316 12.3906L20.2246 12.8066L20.5606 12.5606L20.6876 12.4686Z" fill="#E3E7EA"/>
<path d="M20.6316 12.3918L20.6656 12.3578L20.6736 12.3498L20.6586 12.3448L20.5786 12.3178L20.4926 12.2898L20.4016 12.2598L20.3746 12.3438L20.3526 12.4098L20.2246 12.8078L20.6316 12.3918Z" fill="#E3E7EA"/>
<path d="M11.2598 14.4673H11.3288L11.3508 14.3203C11.3338 14.3323 11.3148 14.3413 11.2968 14.3533L11.2598 14.4673Z" fill="#E3E7EA"/>
<path d="M11.3501 14.3202L11.3281 14.4672H11.5161L11.4431 14.2422C11.4111 14.2672 11.3831 14.2962 11.3501 14.3202Z" fill="#E3E7EA"/>
<path d="M11.416 14.4668V14.5528H11.42L11.429 14.5398L11.435 14.5498L11.933 14.4668H11.517H11.416Z" fill="#E3E7EA"/>
<path d="M11.4355 14.5498L11.4445 14.5668L11.4745 14.5728L11.4615 14.5908L11.5485 14.5628L11.5965 14.7128L11.9335 14.4668L11.4355 14.5498Z" fill="#E3E7EA"/>
<path d="M11.42 14.5527H11.416V14.5577L11.42 14.5527Z" fill="#E3E7EA"/>
<path d="M10.9703 14.5303C10.9623 14.5343 10.9553 14.5393 10.9473 14.5423L11.1793 14.7113L11.2003 14.6453L10.9693 14.5293L10.9703 14.5303Z" fill="#E3E7EA"/>
<path d="M11.4604 14.5904L11.4734 14.5724L11.4434 14.5664L11.4564 14.5924L11.4604 14.5904Z" fill="#E3E7EA"/>
<path d="M11.0877 14.4668C11.0477 14.4868 11.0117 14.5118 10.9707 14.5308L11.2017 14.6468L11.2287 14.5628L11.3197 14.5928L11.3477 14.5398L11.3887 14.5968L11.4167 14.5578V14.4668H11.0877Z" fill="#E3E7EA"/>
<path d="M11.548 14.5625L11.461 14.5905L11.457 14.5925L11.485 14.6465L11.5 14.6525L11.492 14.6605L11.724 15.1105L11.596 14.7125L11.548 14.5625Z" fill="#E3E7EA"/>
<path d="M11.3887 14.5961L11.4067 14.6201L11.4857 14.6461L11.4577 14.5921L11.4447 14.5661L11.4357 14.5491L11.4297 14.5391L11.4207 14.5521L11.4167 14.5571L11.3887 14.5961Z" fill="#E3E7EA"/>
<path d="M11.4927 14.6602L11.4597 14.6942L11.5157 14.7712L11.3887 14.8642L11.7247 15.1102L11.4927 14.6602Z" fill="#E3E7EA"/>
<path d="M11.3874 14.5961L11.3464 14.5391L11.3184 14.5921L11.4054 14.6201L11.3874 14.5961Z" fill="#E3E7EA"/>
<path d="M11.5158 14.7723L11.4598 14.6953L11.0508 15.1113L11.3888 14.8653L11.5158 14.7723Z" fill="#E3E7EA"/>
<path d="M11.4598 14.6945L11.4928 14.6605L11.5008 14.6525L11.4858 14.6465L11.4068 14.6205L11.3198 14.5925L11.2288 14.5625L11.2018 14.6465L11.1808 14.7125L11.0508 15.1105L11.4598 14.6945Z" fill="#E3E7EA"/>
<path d="M13.6807 14.0684L13.5527 14.4664H13.6217L13.6807 14.0684Z" fill="#E3E7EA"/>
<path d="M13.6521 14.4664H13.7081H13.8091L13.6801 14.0684L13.6211 14.4664H13.6521Z" fill="#E3E7EA"/>
<path d="M13.709 14.4668V14.5528H13.713L13.723 14.5398L13.728 14.5498L14.227 14.4668H13.81H13.709Z" fill="#E3E7EA"/>
<path d="M13.7285 14.5498L13.7375 14.5668L13.7685 14.5728L13.7545 14.5908L13.8415 14.5628L13.8895 14.7128L14.2275 14.4668L13.7285 14.5498Z" fill="#E3E7EA"/>
<path d="M13.709 14.5527V14.5577L13.713 14.5527H13.709Z" fill="#E3E7EA"/>
<path d="M13.1367 14.4668L13.4737 14.7128L13.4947 14.6468L13.1367 14.4668Z" fill="#E3E7EA"/>
<path d="M13.7533 14.5904L13.7673 14.5724L13.7363 14.5664L13.7493 14.5924L13.7533 14.5904Z" fill="#E3E7EA"/>
<path d="M13.5227 14.5628L13.6127 14.5928L13.6407 14.5398L13.6817 14.5968L13.7097 14.5578V14.5528V14.4668H13.6537H13.6227H13.5537H13.1367L13.4947 14.6468L13.5227 14.5628Z" fill="#E3E7EA"/>
<path d="M13.841 14.5625L13.754 14.5905L13.75 14.5925L13.778 14.6465L13.794 14.6525L13.785 14.6605L14.018 15.1105L13.889 14.7125L13.841 14.5625Z" fill="#E3E7EA"/>
<path d="M13.7136 14.5521L13.7096 14.5571L13.6816 14.5961L13.6996 14.6201L13.7786 14.6461L13.7506 14.5921L13.7376 14.5661L13.7286 14.5491L13.7236 14.5391L13.7136 14.5521Z" fill="#E3E7EA"/>
<path d="M13.7856 14.6602L13.7526 14.6942L13.8086 14.7712L13.6816 14.8642L14.0186 15.1102L13.7856 14.6602Z" fill="#E3E7EA"/>
<path d="M13.6803 14.5961L13.6393 14.5391L13.6113 14.5921L13.6983 14.6201L13.6803 14.5961Z" fill="#E3E7EA"/>
<path d="M13.8077 14.7723L13.7517 14.6953L13.3438 15.1113L13.6807 14.8653L13.8077 14.7723Z" fill="#E3E7EA"/>
<path d="M13.7517 14.6945L13.7847 14.6605L13.7937 14.6525L13.7778 14.6465L13.6988 14.6205L13.6118 14.5925L13.5218 14.5625L13.4938 14.6465L13.4727 14.7125L13.3438 15.1105L13.7517 14.6945Z" fill="#E3E7EA"/>
<path d="M15.9747 14.0684L15.8457 14.4664H15.9147L15.9747 14.0684Z" fill="#E3E7EA"/>
<path d="M15.9461 14.4664H16.0021H16.1021L15.9741 14.0684L15.9141 14.4664H15.9461Z" fill="#E3E7EA"/>
<path d="M16.0039 14.4668V14.5528H16.0079L16.0169 14.5398L16.0219 14.5498L16.5209 14.4668H16.1039H16.0039Z" fill="#E3E7EA"/>
<path d="M16.0215 14.5498L16.0305 14.5668L16.0615 14.5728L16.0475 14.5908L16.1345 14.5628L16.1835 14.7128L16.5205 14.4668L16.0215 14.5498Z" fill="#E3E7EA"/>
<path d="M16.0039 14.5527V14.5577L16.0079 14.5527H16.0039Z" fill="#E3E7EA"/>
<path d="M15.4297 14.4668L15.7667 14.7128L15.7887 14.6468L15.4297 14.4668Z" fill="#E3E7EA"/>
<path d="M16.0463 14.5904L16.0603 14.5724L16.0293 14.5664L16.0433 14.5924L16.0463 14.5904Z" fill="#E3E7EA"/>
<path d="M15.8157 14.5628L15.9067 14.5928L15.9337 14.5398L15.9757 14.5968L16.0037 14.5578V14.5528V14.4668H15.9477H15.9157H15.8467H15.4297L15.7887 14.6468L15.8157 14.5628Z" fill="#E3E7EA"/>
<path d="M16.1349 14.5625L16.0479 14.5905L16.0449 14.5925L16.0729 14.6465L16.0879 14.6525L16.0799 14.6605L16.3119 15.1105L16.1839 14.7125L16.1349 14.5625Z" fill="#E3E7EA"/>
<path d="M16.0066 14.5521L16.0026 14.5571L15.9746 14.5961L15.9916 14.6201L16.0716 14.6461L16.0436 14.5921L16.0296 14.5661L16.0206 14.5491L16.0156 14.5391L16.0066 14.5521Z" fill="#E3E7EA"/>
<path d="M16.0786 14.6602L16.0456 14.6942L16.1016 14.7712L15.9746 14.8642L16.3106 15.1102L16.0786 14.6602Z" fill="#E3E7EA"/>
<path d="M15.9753 14.5961L15.9332 14.5391L15.9062 14.5921L15.9922 14.6201L15.9753 14.5961Z" fill="#E3E7EA"/>
<path d="M16.1017 14.7723L16.0457 14.6953L15.6367 15.1113L15.9747 14.8653L16.1017 14.7723Z" fill="#E3E7EA"/>
<path d="M16.0457 14.6945L16.0787 14.6605L16.0867 14.6525L16.0717 14.6465L15.9917 14.6205L15.9057 14.5925L15.8147 14.5625L15.7877 14.6465L15.7657 14.7125L15.6367 15.1105L16.0457 14.6945Z" fill="#E3E7EA"/>
<path d="M18.2677 14.0684L18.1387 14.4664H18.2087L18.2677 14.0684Z" fill="#E3E7EA"/>
<path d="M18.24 14.4664H18.296H18.397L18.268 14.0684L18.209 14.4664H18.24Z" fill="#E3E7EA"/>
<path d="M18.2969 14.4668V14.5528H18.3009L18.3099 14.5398L18.3159 14.5498L18.8139 14.4668H18.3979H18.2969Z" fill="#E3E7EA"/>
<path d="M18.3145 14.5498L18.3235 14.5668L18.3555 14.5728L18.3415 14.5908L18.4275 14.5628L18.4755 14.7128L18.8125 14.4668L18.3145 14.5498Z" fill="#E3E7EA"/>
<path d="M18.2969 14.5527V14.5577L18.3009 14.5527H18.2969Z" fill="#E3E7EA"/>
<path d="M17.7227 14.4668L18.0597 14.7128L18.0807 14.6468L17.7227 14.4668Z" fill="#E3E7EA"/>
<path d="M18.3422 14.5904L18.3562 14.5724L18.3242 14.5664L18.3372 14.5924L18.3422 14.5904Z" fill="#E3E7EA"/>
<path d="M18.1077 14.5628L18.1987 14.5928L18.2267 14.5398L18.2677 14.5968L18.2957 14.5578V14.5528V14.4668H18.2397H18.2087H18.1387H17.7227L18.0807 14.6468L18.1077 14.5628Z" fill="#E3E7EA"/>
<path d="M18.4289 14.5625L18.3429 14.5905L18.3379 14.5925L18.3659 14.6465L18.3819 14.6525L18.3729 14.6605L18.6059 15.1105L18.4769 14.7125L18.4289 14.5625Z" fill="#E3E7EA"/>
<path d="M18.2996 14.5521L18.2956 14.5571L18.2676 14.5961L18.2856 14.6201L18.3646 14.6461L18.3366 14.5921L18.3236 14.5661L18.3146 14.5491L18.3086 14.5391L18.2996 14.5521Z" fill="#E3E7EA"/>
<path d="M18.3716 14.6602L18.3386 14.6942L18.3946 14.7712L18.2676 14.8642L18.6046 15.1102L18.3716 14.6602Z" fill="#E3E7EA"/>
<path d="M18.2682 14.5961L18.2272 14.5391L18.1992 14.5921L18.2862 14.6201L18.2682 14.5961Z" fill="#E3E7EA"/>
<path d="M18.3956 14.7723L18.3396 14.6953L17.9316 15.1113L18.2686 14.8653L18.3956 14.7723Z" fill="#E3E7EA"/>
<path d="M18.3396 14.6945L18.3726 14.6605L18.3816 14.6525L18.3656 14.6465L18.2866 14.6205L18.1996 14.5925L18.1086 14.5625L18.0816 14.6465L18.0606 14.7125L17.9316 15.1105L18.3396 14.6945Z" fill="#E3E7EA"/>
<path d="M20.5616 14.0684L20.4336 14.4664H20.5026L20.5616 14.0684Z" fill="#E3E7EA"/>
<path d="M20.534 14.4664H20.589H20.69L20.561 14.0684L20.502 14.4664H20.534Z" fill="#E3E7EA"/>
<path d="M20.5898 14.4668V14.5528H20.5938L20.6038 14.5398L20.6088 14.5498L21.1078 14.4668H20.6908H20.5898Z" fill="#E3E7EA"/>
<path d="M20.6074 14.5498L20.6164 14.5668L20.6484 14.5728L20.6344 14.5908L20.7204 14.5628L20.7694 14.7128L21.1064 14.4668L20.6074 14.5498Z" fill="#E3E7EA"/>
<path d="M20.5898 14.5527V14.5577L20.5938 14.5527H20.5898Z" fill="#E3E7EA"/>
<path d="M20.0156 14.4668L20.3526 14.7128L20.3746 14.6468L20.0156 14.4668Z" fill="#E3E7EA"/>
<path d="M20.6352 14.5904L20.6492 14.5724L20.6172 14.5664L20.6302 14.5924L20.6352 14.5904Z" fill="#E3E7EA"/>
<path d="M20.4016 14.5628L20.4926 14.5928L20.5196 14.5398L20.5606 14.5968L20.5886 14.5578V14.5528V14.4668H20.5336H20.5016H20.4326H20.0156L20.3746 14.6468L20.4016 14.5628Z" fill="#E3E7EA"/>
<path d="M20.7219 14.5625L20.6359 14.5905L20.6309 14.5925L20.6599 14.6465L20.6749 14.6525L20.6669 14.6605L20.8989 15.1105L20.7709 14.7125L20.7219 14.5625Z" fill="#E3E7EA"/>
<path d="M20.5925 14.5521L20.5885 14.5571L20.5605 14.5961L20.5785 14.6201L20.6585 14.6461L20.6295 14.5921L20.6165 14.5661L20.6075 14.5491L20.6025 14.5391L20.5925 14.5521Z" fill="#E3E7EA"/>
<path d="M20.6655 14.6602L20.6315 14.6942L20.6875 14.7712L20.5605 14.8642L20.8975 15.1102L20.6655 14.6602Z" fill="#E3E7EA"/>
<path d="M20.5602 14.5961L20.5192 14.5391L20.4922 14.5921L20.5782 14.6201L20.5602 14.5961Z" fill="#E3E7EA"/>
<path d="M20.6876 14.7723L20.6316 14.6953L20.2246 15.1113L20.5606 14.8653L20.6876 14.7723Z" fill="#E3E7EA"/>
<path d="M20.6316 14.6945L20.6656 14.6605L20.6736 14.6525L20.6586 14.6465L20.5786 14.6205L20.4926 14.5925L20.4016 14.5625L20.3746 14.6465L20.3526 14.7125L20.2246 15.1105L20.6316 14.6945Z" fill="#E3E7EA"/>
<path d="M7.61466 12.3419C7.61466 11.0179 8.68466 9.94289 10.0037 9.94289C10.1197 9.94289 10.2317 9.96089 10.3437 9.97689C9.88066 9.65389 9.31966 9.46289 8.71366 9.46289C7.13166 9.46289 5.84766 10.7529 5.84766 12.3429C5.84766 13.9329 7.13266 15.2229 8.71366 15.2229C9.31966 15.2229 9.88066 15.0309 10.3437 14.7079C10.2317 14.7239 10.1207 14.7419 10.0037 14.7419C8.68566 14.7419 7.61466 13.6669 7.61466 12.3419Z" fill="#E3E7EA"/>
<path d="M37.33 9.67C36.6 8.95 35.6 8.5 34.5 8.5H6.5C5.4 8.5 4.4 8.95 3.67 9.67C2.95 10.4 2.5 11.4 2.5 12.5V16.18H38.5V12.5C38.5 11.4 38.05 10.4 37.33 9.67ZM8.71 15.22C7.13 15.22 5.85 13.93 5.85 12.34C5.85 10.75 7.13 9.46 8.71 9.46C9.32 9.46 9.88 9.65 10.34 9.97C10.23 9.96 10.12 9.94 10 9.94C8.68 9.94 7.61 11.02 7.61 12.34C7.61 13.66 8.68 14.74 10 14.74C10.12 14.74 10.23 14.72 10.34 14.71C9.88 15.03 9.32 15.22 8.71 15.22ZM11.72 15.11L11.39 14.86L11.05 15.11L11.18 14.71L10.95 14.54C10.96 14.54 10.96 14.53 10.97 14.53C11.01 14.51 11.05 14.49 11.09 14.47C11.16 14.43 11.23 14.4 11.3 14.35C11.31 14.34 11.33 14.33 11.35 14.32C11.38 14.3 11.41 14.27 11.44 14.24L11.52 14.47H11.93L11.6 14.71L11.72 15.11ZM14.02 15.11L13.68 14.86L13.34 15.11L13.47 14.71L13.14 14.47H13.55L13.68 14.07L13.81 14.47H14.23L13.89 14.71L14.02 15.11ZM13.89 12.41L14.02 12.81L13.68 12.56L13.34 12.81L13.47 12.41L13.14 12.16H13.55L13.68 11.76L13.81 12.16H14.23L13.89 12.41ZM16.31 15.11L15.97 14.86L15.64 15.11L15.77 14.71L15.43 14.47H15.85L15.97 14.07L16.1 14.47H16.52L16.18 14.71L16.31 15.11ZM16.18 12.41L16.31 12.81L15.97 12.56L15.64 12.81L15.77 12.41L15.43 12.16H15.85L15.97 11.76L16.1 12.16H16.52L16.18 12.41ZM16.18 10.1L16.31 10.5L15.97 10.26L15.64 10.5L15.77 10.1L15.43 9.86H15.85L15.97 9.46L16.1 9.86H16.52L16.18 10.1ZM18.6 15.11L18.27 14.86L17.93 15.11L18.06 14.71L17.72 14.47H18.14L18.27 14.07L18.4 14.47H18.81L18.48 14.71L18.6 15.11ZM18.48 12.41L18.6 12.81L18.27 12.56L17.93 12.81L18.06 12.41L17.72 12.16H18.14L18.27 11.76L18.4 12.16H18.81L18.48 12.41ZM18.48 10.1L18.6 10.5L18.27 10.26L17.93 10.5L18.06 10.1L17.72 9.86H18.14L18.27 9.46L18.4 9.86H18.81L18.48 10.1ZM20.9 15.11L20.56 14.86L20.22 15.11L20.35 14.71L20.02 14.47H20.43L20.56 14.07L20.69 14.47H21.11L20.77 14.71L20.9 15.11ZM20.77 12.41L20.9 12.81L20.56 12.56L20.22 12.81L20.35 12.41L20.02 12.16H20.43L20.56 11.76L20.69 12.16H21.11L20.77 12.41ZM20.77 10.1L20.9 10.5L20.56 10.26L20.22 10.5L20.35 10.1L20.02 9.86H20.43L20.56 9.46L20.69 9.86H21.11L20.77 10.1Z" fill="#0098B3"/>
<path d="M11.2998 14.3496L11.2598 14.4696H11.0898C11.1598 14.4296 11.2298 14.3996 11.2998 14.3496Z" fill="#0098B3"/>
</svg>
