<svg width="41" height="41" viewBox="0 0 41 41" fill="none" xmlns="http://www.w3.org/2000/svg">
<path d="M6.5 8.5C4.291 8.5 2.5 10.291 2.5 12.5V28.5C2.5 30.709 4.291 32.5 6.5 32.5H20.5V8.5H6.5Z" fill="#FBDF00"/>
<path d="M34.505 8.5H20.5V32.5H34.505C36.712 32.5 38.5 30.711 38.5 28.504V12.496C38.5 10.289 36.711 8.5 34.505 8.5ZM27.463 13.351C27.463 13.351 27.652 13.497 28.012 13.472C28.27 12.973 28.592 12.635 28.949 12.564C28.905 12.507 28.875 12.429 28.875 12.335C28.875 12.281 28.897 12.241 28.913 12.197C28.709 12.168 28.56 12.09 28.56 11.996C28.56 11.901 28.712 11.823 28.92 11.794C28.898 11.76 28.875 11.725 28.875 11.681C28.875 11.562 28.969 11.466 29.082 11.466C29.196 11.466 29.289 11.561 29.289 11.681C29.289 11.725 29.266 11.759 29.244 11.793C29.452 11.822 29.604 11.9 29.604 11.996C29.604 12.09 29.455 12.168 29.251 12.197C29.267 12.241 29.289 12.281 29.289 12.335C29.289 12.429 29.259 12.507 29.215 12.564C29.572 12.635 29.895 12.974 30.153 13.472C30.514 13.496 30.703 13.35 30.704 13.35L30.471 14.256C30.544 14.497 30.599 14.753 30.644 15.015C30.876 14.973 31.006 14.88 31.006 14.879L30.735 15.939C30.736 15.986 30.742 16.033 30.742 16.079C30.742 16.206 30.73 16.306 30.722 16.414C30.778 16.384 30.817 16.357 30.817 16.358L30.546 17.472C30.546 17.472 30.498 17.437 30.421 17.39C30.119 17.748 29.634 17.738 29.082 17.738C28.53 17.738 28.046 17.748 27.744 17.39C27.667 17.437 27.618 17.472 27.618 17.472L27.347 16.358C27.347 16.358 27.386 16.385 27.443 16.416C27.435 16.307 27.423 16.207 27.423 16.079C27.423 16.034 27.429 15.988 27.43 15.943L27.158 14.88C27.158 14.88 27.288 14.974 27.521 15.015C27.566 14.752 27.621 14.496 27.694 14.254L27.463 13.351ZM34.424 25.787C34.26 25.787 34.127 25.654 34.127 25.491C34.127 25.465 34.148 25.449 34.154 25.425C33.846 25.707 33.44 25.883 32.99 25.883C32.643 25.883 32.322 25.779 32.051 25.603C32.042 25.759 31.919 25.884 31.76 25.884C31.602 25.884 31.478 25.758 31.47 25.602C30.908 25.842 30.023 26.124 29.369 26.196V27.551C29.447 27.592 29.509 27.659 29.509 27.753C29.509 27.847 29.447 27.913 29.369 27.954V27.96C29.369 27.96 29.726 28.051 29.617 28.996C29.601 29.137 29.449 29.187 29.295 29.175C29.284 29.234 29.271 29.284 29.254 29.306C29.156 29.431 28.527 29.433 28.455 29.181C28.383 28.929 28.274 28.416 28.658 28.107V28.049C28.631 28.01 28.603 27.969 28.603 27.917C28.603 27.865 28.631 27.824 28.658 27.785V26.173C28.005 26.087 27.316 25.842 26.719 25.605C26.709 25.76 26.587 25.885 26.429 25.885C26.27 25.885 26.147 25.76 26.138 25.604C25.867 25.78 25.546 25.884 25.199 25.884C24.749 25.884 24.343 25.708 24.035 25.426C24.041 25.45 24.062 25.466 24.062 25.492C24.062 25.656 23.929 25.788 23.765 25.788C23.6 25.788 23.467 25.655 23.467 25.492C23.467 25.329 23.6 25.195 23.765 25.194C23.8 25.194 23.824 25.22 23.855 25.231C23.616 24.934 23.467 24.562 23.467 24.152C23.467 23.703 23.642 23.298 23.923 22.99C23.895 22.999 23.875 23.023 23.844 23.023C23.679 23.023 23.546 22.89 23.546 22.727C23.546 22.562 23.679 22.429 23.844 22.429C24.008 22.429 24.141 22.562 24.141 22.727C24.141 22.765 24.114 22.791 24.1 22.825C24.4 22.577 24.779 22.421 25.199 22.421C25.61 22.421 25.983 22.57 26.28 22.81C26.248 22.689 26.261 22.578 26.331 22.508C26.403 22.435 26.52 22.426 26.647 22.463C26.677 22.217 26.975 22.014 27.228 21.784C27.31 21.709 27.618 21.447 28.043 21.086C28.035 21.079 28.021 21.065 28.015 21.059C27.93 20.987 28.023 20.781 28.112 20.768C28.155 20.762 28.231 20.799 28.319 20.852C28.339 20.835 28.362 20.816 28.382 20.799C27.766 20.231 27.052 19.57 26.401 18.968L26.283 19.08C26.229 19.422 26.262 19.721 26.435 19.991C26.273 19.885 26.15 19.741 26.068 19.561C26.037 19.494 26.02 19.421 26.001 19.348L25.233 20.076L24.605 19.568L24.622 19.15L24.786 18.969L24.967 18.951V18.641H24.622V18.969L24.205 19.242L23.497 18.641V18.242L23.86 17.842L24.115 18.06L24.37 17.842L24.115 17.623L24.49 17.204C24.42 17.136 24.378 17.065 24.352 16.994C24.185 17.081 24.016 17.091 23.922 16.996C23.812 16.887 23.842 16.678 23.974 16.485L23.863 16.28C23.827 16.296 23.798 16.324 23.756 16.324C23.597 16.324 23.469 16.195 23.469 16.036C23.469 15.878 23.597 15.749 23.756 15.749C23.915 15.749 24.043 15.878 24.043 16.036C24.043 16.066 24.02 16.086 24.011 16.113L24.248 16.221C24.426 16.117 24.611 16.103 24.711 16.205C24.791 16.284 24.792 16.418 24.74 16.559C24.822 16.584 24.91 16.627 25.003 16.714C25.139 16.84 25.578 17.218 26.158 17.711C26.242 17.467 26.335 17.253 26.414 17.112C26.675 16.644 26.594 16.315 26.471 16.108C26.428 16.102 26.393 16.079 26.347 16.079C26.092 16.079 25.83 16.174 25.609 16.342L25.283 15.852C25.427 15.732 25.775 15.483 26.168 15.483C26.271 15.483 26.371 15.501 26.468 15.534C26.912 15.693 27.062 16.104 27.083 16.456C27.078 16.448 27.068 16.446 27.062 16.438C27.136 16.777 26.957 17.253 26.604 18.073C26.602 18.078 26.601 18.082 26.599 18.087C27.303 18.683 28.129 19.38 28.877 20.012C28.906 19.901 29.002 19.832 29.083 19.895C29.135 19.935 29.176 20.009 29.211 20.097C29.979 19.449 30.842 18.721 31.573 18.101C31.569 18.091 31.567 18.083 31.562 18.073C31.209 17.254 31.03 16.778 31.104 16.438C31.098 16.446 31.089 16.448 31.083 16.456C31.103 16.104 31.253 15.693 31.698 15.534C31.794 15.5 31.894 15.483 31.998 15.483C32.391 15.483 32.739 15.732 32.883 15.852L32.557 16.342C32.336 16.175 32.073 16.079 31.819 16.079C31.773 16.079 31.739 16.102 31.695 16.108C31.573 16.315 31.492 16.644 31.752 17.112C31.833 17.257 31.928 17.476 32.013 17.726C32.601 17.226 33.048 16.842 33.185 16.714C33.278 16.628 33.365 16.585 33.447 16.559C33.395 16.418 33.396 16.284 33.476 16.205C33.577 16.103 33.762 16.117 33.94 16.221L34.177 16.113C34.169 16.086 34.145 16.066 34.145 16.036C34.145 15.878 34.273 15.749 34.432 15.749C34.591 15.749 34.719 15.878 34.719 16.036C34.719 16.195 34.591 16.324 34.432 16.324C34.39 16.324 34.361 16.296 34.325 16.28L34.214 16.486C34.346 16.678 34.376 16.887 34.266 16.996C34.173 17.09 34.005 17.08 33.837 16.994C33.811 17.065 33.768 17.136 33.699 17.204L34.074 17.623L33.819 17.842L34.074 18.06L34.329 17.842L34.692 18.242V18.641L33.984 19.242L33.567 18.969V18.641H33.222V18.951L33.403 18.969L33.567 19.15L33.584 19.568L32.956 20.076L32.171 19.332C32.151 19.411 32.132 19.49 32.099 19.561C32.016 19.741 31.893 19.885 31.732 19.991C31.909 19.715 31.939 19.406 31.878 19.053L31.788 18.968C31.235 19.479 30.64 20.03 30.094 20.534C30.305 20.335 30.286 20.836 30.092 21.04C30.546 21.424 30.875 21.705 30.96 21.783C31.213 22.014 31.51 22.217 31.541 22.462C31.667 22.425 31.785 22.434 31.857 22.507C31.927 22.577 31.94 22.688 31.908 22.809C32.205 22.569 32.578 22.42 32.989 22.42C33.408 22.42 33.788 22.576 34.088 22.824C34.075 22.79 34.048 22.764 34.048 22.726C34.048 22.561 34.181 22.428 34.344 22.428C34.509 22.428 34.642 22.561 34.642 22.726C34.642 22.89 34.509 23.022 34.344 23.022C34.313 23.022 34.293 22.998 34.265 22.989C34.545 23.297 34.721 23.702 34.721 24.151C34.721 24.561 34.572 24.933 34.333 25.23C34.364 25.219 34.388 25.193 34.423 25.193C34.588 25.193 34.721 25.327 34.721 25.491C34.721 25.655 34.589 25.787 34.424 25.787Z" fill="#E3E7EA"/>
<path d="M26.2523 24.99C26.2803 24.941 26.2963 24.888 26.3083 24.832C26.2603 24.873 26.2433 24.93 26.2523 24.99Z" fill="#E3E7EA"/>
<path d="M32.1325 25.1935C32.2185 25.2465 32.3145 25.2845 32.4225 25.2845C32.7355 25.2845 32.9885 25.0305 32.9895 24.7185C33.0065 24.7185 33.0205 24.7095 33.0385 24.7085L33.0365 24.7175C33.0365 25.0305 33.2895 25.2845 33.6035 25.2845C33.9175 25.2845 34.1705 25.0305 34.1705 24.7175C34.1705 24.4085 33.9205 24.1575 33.6115 24.1515C33.9205 24.1465 34.1705 23.8965 34.1705 23.5865C34.1705 23.2735 33.9175 23.0195 33.6035 23.0195C33.2895 23.0195 33.0365 23.2725 33.0365 23.5865V23.5945C33.0215 23.5935 33.0075 23.5845 32.9895 23.5845C32.9885 23.2725 32.7345 23.0195 32.4225 23.0195C32.1105 23.0195 31.8555 23.2725 31.8555 23.5865C31.8555 23.8955 32.1045 24.1465 32.4145 24.1515C32.1395 24.1565 31.9225 24.3585 31.8745 24.6195C32.3355 24.7585 32.3335 24.9785 32.1325 25.1935Z" fill="#E3E7EA"/>
<path d="M29.0176 22.1293V25.7863C29.0416 25.7863 29.0606 25.7813 29.0836 25.7813V22.0273C29.0626 22.0583 29.0396 22.0963 29.0176 22.1293Z" fill="#E3E7EA"/>
<path d="M28.0101 23.7092C27.4941 24.4552 27.0831 24.7202 26.7951 24.8162C26.7311 24.9692 26.6401 25.1062 26.5371 25.2332C26.8571 25.3602 27.7071 25.6932 28.6571 25.7672V22.7012C28.4761 22.9982 28.2731 23.3262 28.0111 23.7082L28.0101 23.7092Z" fill="#E3E7EA"/>
<path d="M30.1541 23.5642C29.7971 23.0442 29.6441 22.6392 29.3691 22.2832V25.7572C30.4231 25.6832 31.2391 25.3282 31.6091 25.1922C31.6111 25.1922 31.6111 25.1902 31.6141 25.1892C31.5121 25.0552 31.4311 24.9072 31.3721 24.7472C31.3721 24.7492 31.3721 24.7522 31.3741 24.7552C31.0151 24.6932 30.6161 24.2352 30.1541 23.5642Z" fill="#E3E7EA"/>
<path d="M27.6543 23.6724C27.9813 23.3024 28.3403 22.5824 28.6573 22.0974V21.8574C28.5303 21.9734 28.4223 22.0714 28.3583 22.1274C27.8373 22.5884 27.4973 23.0014 27.1773 23.0174C27.2023 23.1304 27.1863 23.2324 27.1203 23.2974C27.0273 23.3914 26.8613 23.3804 26.6953 23.2974C26.8403 23.5504 26.9293 23.8394 26.9293 24.1514C26.9293 24.2254 26.9163 24.2954 26.9073 24.3664C27.1193 24.2124 27.3963 23.9644 27.6533 23.6734L27.6543 23.6724Z" fill="#E3E7EA"/>
<path d="M31.0691 23.298C31.0031 23.233 30.9871 23.131 31.0121 23.018C30.6921 23.002 30.3511 22.59 29.8311 22.128C29.7421 22.049 29.5781 21.9 29.3691 21.709V21.779C29.4731 21.888 29.5681 21.992 29.6381 22.076C29.9981 22.512 30.0901 22.858 30.4531 23.368C30.7271 23.752 31.0471 24.153 31.2751 24.312C31.2751 24.315 31.2771 24.318 31.2771 24.321C31.2711 24.264 31.2601 24.21 31.2601 24.152C31.2601 23.84 31.3491 23.551 31.4941 23.298C31.3281 23.382 31.1621 23.392 31.0691 23.298Z" fill="#E3E7EA"/>
<path d="M30.0836 20.5449C29.9906 20.6309 29.8976 20.7169 29.8086 20.7989C29.8116 20.8009 29.8136 20.8029 29.8166 20.8059C29.9276 20.6959 30.0226 20.6029 30.0836 20.5449Z" fill="#E3E7EA"/>
<path d="M29.0723 21.4796C29.0723 21.4796 29.0763 21.4836 29.0783 21.4856C29.0783 21.4816 29.0783 21.4786 29.0783 21.4746C29.0763 21.4766 29.0743 21.4786 29.0723 21.4796Z" fill="#E3E7EA"/>
<path d="M25.7736 24.1515C26.0826 24.1465 26.3326 23.8965 26.3326 23.5865C26.3326 23.2735 26.0796 23.0195 25.7656 23.0195C25.4536 23.0195 25.1996 23.2725 25.1986 23.5845C25.1816 23.5845 25.1676 23.5935 25.1506 23.5945V23.5865C25.1516 23.2735 24.8986 23.0195 24.5846 23.0195C24.2706 23.0195 24.0176 23.2725 24.0176 23.5865C24.0176 23.8955 24.2676 24.1465 24.5776 24.1515C24.2686 24.1575 24.0186 24.4085 24.0176 24.7175C24.0176 25.0305 24.2706 25.2845 24.5846 25.2845C24.8986 25.2845 25.1516 25.0305 25.1516 24.7175L25.1496 24.7085C25.1666 24.7095 25.1806 24.7185 25.1986 24.7185C25.1996 25.0305 25.4536 25.2845 25.7656 25.2845C25.8586 25.2845 25.9426 25.2565 26.0206 25.2165C25.8296 24.9665 26.0456 24.7015 26.2946 24.5265C26.2166 24.3115 26.0166 24.1555 25.7736 24.1505V24.1515Z" fill="#E3E7EA"/>
<path d="M29.0225 27.742C29.0255 27.683 29.0485 27.631 29.0855 27.59V26.216C29.0645 26.216 29.0405 26.21 29.0195 26.209V27.74C29.0195 27.74 29.0225 27.74 29.0235 27.742H29.0225Z" fill="#E3E7EA"/>
<path d="M29.0371 28.0564C29.0531 28.0314 29.0641 27.9904 29.0841 27.9794V27.9414C29.0791 27.9844 29.0611 28.0234 29.0371 28.0564Z" fill="#E3E7EA"/>
<path d="M34.7204 16.04C34.7204 16.2 34.5904 16.32 34.4304 16.32C34.3904 16.32 34.3604 16.3 34.3304 16.28L34.2204 16.49C34.3504 16.68 34.3804 16.89 34.2704 17C34.1804 17.09 34.0104 17.08 33.8404 16.99C33.9404 16.72 33.7504 16.47 33.4504 16.56C33.4004 16.42 33.4004 16.28 33.4804 16.21C33.5804 16.1 33.7604 16.12 33.9404 16.22L34.1804 16.11C34.1704 16.09 34.1504 16.07 34.1504 16.04C34.1504 15.88 34.2804 15.75 34.4304 15.75C34.5904 15.75 34.7204 15.88 34.7204 16.04Z" fill="#A1A1A1"/>
<path d="M26.2149 25.3828C26.1639 25.4358 26.1309 25.5068 26.1309 25.5868C26.1309 25.5928 26.1369 25.5958 26.1369 25.6018C26.1459 25.7578 26.2689 25.8828 26.4279 25.8828C26.5859 25.8828 26.7079 25.7578 26.7179 25.6028C26.6219 25.5648 26.5189 25.5248 26.4279 25.4888C26.3429 25.4548 26.2749 25.4188 26.2149 25.3828Z" fill="#A1A1A1"/>
<path d="M26.6953 23.2977C26.8613 23.3817 27.0273 23.3917 27.1203 23.2977C27.1863 23.2327 27.2023 23.1307 27.1773 23.0177C27.1513 22.8997 27.0803 22.7707 26.9683 22.6597C26.8683 22.5587 26.7533 22.4947 26.6453 22.4627C26.5193 22.4257 26.4013 22.4347 26.3293 22.5077C26.2593 22.5777 26.2463 22.6887 26.2783 22.8097C26.3083 22.9217 26.3763 23.0417 26.4813 23.1467C26.5483 23.2137 26.6213 23.2607 26.6953 23.2977Z" fill="#A1A1A1"/>
<path d="M23.8548 25.2304C23.8238 25.2194 23.7998 25.1934 23.7648 25.1934C23.5998 25.1934 23.4668 25.3274 23.4668 25.4914C23.4668 25.6554 23.5998 25.7874 23.7648 25.7874C23.9288 25.7874 24.0618 25.6544 24.0618 25.4914C24.0618 25.4654 24.0408 25.4494 24.0348 25.4254C24.0098 25.3294 23.9468 25.2634 23.8558 25.2314L23.8548 25.2304Z" fill="#A1A1A1"/>
<path d="M24.0989 22.8237C24.1119 22.7897 24.1399 22.7637 24.1399 22.7257C24.1399 22.5607 24.0069 22.4277 23.8429 22.4277C23.6779 22.4277 23.5449 22.5607 23.5449 22.7257C23.5449 22.8897 23.6779 23.0217 23.8429 23.0217C23.8739 23.0217 23.8939 22.9977 23.9219 22.9887C24.0079 22.9617 24.0659 22.9067 24.0989 22.8237Z" fill="#A1A1A1"/>
<path d="M29.4161 21.621C29.4011 21.634 29.3851 21.66 29.3691 21.674V21.709C29.5771 21.9 29.7411 22.049 29.8311 22.128C30.3521 22.589 30.6921 23.002 31.0121 23.018C31.0381 22.9 31.1091 22.771 31.2211 22.66C31.3211 22.559 31.4361 22.495 31.5441 22.463C31.5141 22.217 31.2161 22.014 30.9631 21.784C30.8781 21.706 30.5481 21.426 30.0951 21.041C30.0951 21.041 30.0951 21.042 30.0941 21.043C29.9001 21.245 29.7611 21.33 29.4161 21.621Z" fill="#A1A1A1"/>
<path d="M29.8173 20.8046C29.8173 20.8046 29.8123 20.8006 29.8093 20.7976C29.6433 20.6566 29.4653 20.5066 29.2793 20.3496C29.3293 20.5936 29.3553 20.9066 29.3623 21.2646C29.5233 21.0986 29.6803 20.9396 29.8173 20.8046Z" fill="#A1A1A1"/>
<path d="M28.8762 20.1499C28.8622 20.1009 28.8652 20.0549 28.8762 20.0129C28.1282 19.3809 27.3012 18.6839 26.5982 18.0879C26.5012 18.3129 26.4262 18.5179 26.3672 18.7119L26.5192 18.8559L26.3992 18.9699C27.0502 19.5719 27.7642 20.2319 28.3802 20.8009C28.6342 21.0349 28.8682 21.2509 29.0762 21.4419C29.0542 20.6599 28.9222 20.3159 28.8772 20.1509L28.8762 20.1499Z" fill="#A1A1A1"/>
<path d="M26 19.3497L25.23 20.0797L24.6 19.5697L24.62 19.1497L24.78 18.9697L24.97 18.9497V18.6397H24.62V18.9697L24.2 19.2397L23.5 18.6397V18.2397L23.86 17.8397L24.11 18.0597L24.37 17.8397L24.11 17.6197L24.49 17.1997C24.42 17.1397 24.38 17.0697 24.35 16.9897C24.25 16.7197 24.44 16.4697 24.74 16.5597C24.82 16.5797 24.91 16.6297 25 16.7097C25.14 16.8397 25.58 17.2197 26.16 17.7097C26.09 17.9097 26.03 18.1297 25.99 18.3497C25.93 18.6897 25.92 19.0397 26 19.3497Z" fill="#A1A1A1"/>
<path d="M34.3338 25.2309C34.5728 24.9339 34.7218 24.5619 34.7218 24.1519C34.7218 23.7029 34.5468 23.2979 34.2658 22.9899C34.1798 22.9629 34.1218 22.9069 34.0888 22.8239C33.7888 22.5759 33.4098 22.4199 32.9898 22.4199C32.5788 22.4199 32.2058 22.5689 31.9088 22.8089C31.8788 22.9209 31.8108 23.0409 31.7058 23.1459C31.6388 23.2129 31.5658 23.2609 31.4918 23.2979C31.3468 23.5509 31.2578 23.8399 31.2578 24.1519C31.2578 24.2099 31.2698 24.2649 31.2748 24.3209C31.2898 24.4689 31.3208 24.6129 31.3698 24.7479C31.4288 24.9079 31.5108 25.0559 31.6118 25.1899C32.0168 25.0389 31.8298 24.8709 31.6668 24.8169C31.5028 24.7629 31.5508 24.5239 31.8658 24.6169C31.8688 24.6169 31.8708 24.6189 31.8738 24.6199C31.9218 24.3589 32.1388 24.1569 32.4138 24.1519C32.1038 24.1469 31.8548 23.8959 31.8548 23.5869C31.8548 23.2729 32.1098 23.0199 32.4218 23.0199C32.7338 23.0199 32.9878 23.2729 32.9888 23.5849C33.0058 23.5849 33.0198 23.5939 33.0368 23.5949V23.5869C33.0358 23.2729 33.2898 23.0199 33.6028 23.0199C33.9158 23.0199 34.1698 23.2749 34.1698 23.5869C34.1698 23.8969 33.9198 24.1469 33.6108 24.1519C33.9198 24.1579 34.1698 24.4089 34.1698 24.7179C34.1698 25.0309 33.9148 25.2849 33.6028 25.2849C33.2908 25.2849 33.0358 25.0309 33.0358 24.7179L33.0378 24.7089C33.0208 24.7099 33.0068 24.7189 32.9888 24.7189C32.9878 25.0309 32.7338 25.2849 32.4218 25.2849C32.3138 25.2849 32.2178 25.2459 32.1318 25.1939C32.0778 25.2509 32.0128 25.3069 31.9358 25.3619C32.0058 25.4159 32.0568 25.4909 32.0568 25.5869C32.0568 25.5929 32.0508 25.5959 32.0508 25.6019C32.3218 25.7779 32.6428 25.8819 32.9898 25.8819C33.4398 25.8819 33.8458 25.7059 34.1538 25.4239C34.1788 25.3279 34.2418 25.2629 34.3328 25.2299L34.3338 25.2309Z" fill="#A1A1A1"/>
<path d="M26.3682 18.7109C26.3292 18.8409 26.3002 18.9629 26.2812 19.0809L26.3993 18.9689L26.5192 18.8549L26.3682 18.7109Z" fill="#A1A1A1"/>
<path d="M27.6384 15.0319C27.6824 14.7749 27.7374 14.5259 27.8084 14.2939C27.7494 14.3199 27.7184 14.3379 27.7184 14.3379L27.6964 14.2539C27.6234 14.4959 27.5684 14.7519 27.5234 15.0149C27.5604 15.0219 27.5954 15.0289 27.6384 15.0319Z" fill="black"/>
<path d="M29.0837 12.6475C29.4147 12.6475 29.7397 12.9655 30.0077 13.4515C30.0597 13.4615 30.1087 13.4695 30.1547 13.4725C29.8967 12.9735 29.5747 12.6355 29.2167 12.5645C29.1807 12.6125 29.1357 12.6475 29.0837 12.6475C29.0317 12.6475 28.9877 12.6115 28.9507 12.5645C28.5937 12.6355 28.2707 12.9745 28.0137 13.4725C28.0597 13.4695 28.1087 13.4615 28.1597 13.4515C28.4277 12.9655 28.7527 12.6475 29.0837 12.6475Z" fill="black"/>
<path d="M30.6234 15.9955C30.6234 16.0235 30.6284 16.0515 30.6284 16.0795C30.6284 16.2265 30.6174 16.3475 30.6074 16.4675C30.6594 16.4505 30.6924 16.4325 30.7254 16.4145C30.7334 16.3055 30.7454 16.2065 30.7454 16.0795C30.7454 16.0335 30.7394 15.9865 30.7384 15.9395L30.7094 16.0515C30.7094 16.0515 30.6714 16.0245 30.6244 15.9945L30.6234 15.9955Z" fill="black"/>
<path d="M27.5398 16.0813C27.5398 16.0523 27.5438 16.0243 27.5448 15.9963C27.4968 16.0273 27.4588 16.0533 27.4588 16.0533L27.4308 15.9453C27.4298 15.9903 27.4238 16.0363 27.4238 16.0813C27.4238 16.2093 27.4358 16.3093 27.4438 16.4183C27.4758 16.4353 27.5088 16.4543 27.5598 16.4703C27.5488 16.3493 27.5398 16.2253 27.5398 16.0813Z" fill="black"/>
<path d="M29.2221 17.623H29.0091C28.5161 17.623 28.1721 17.608 27.9361 17.425C27.9051 17.401 27.8821 17.363 27.8551 17.333C27.8171 17.353 27.7721 17.373 27.7441 17.39C28.0461 17.748 28.5311 17.738 29.0821 17.738C29.6331 17.738 30.1191 17.748 30.4211 17.39C30.3931 17.373 30.3471 17.352 30.3081 17.332C30.0521 17.612 29.6661 17.623 29.2221 17.623Z" fill="black"/>
<path d="M30.3604 14.2938C30.4314 14.5268 30.4864 14.7758 30.5304 15.0328C30.5734 15.0298 30.6084 15.0228 30.6454 15.0168C30.6004 14.7548 30.5454 14.4988 30.4724 14.2578L30.4514 14.3398C30.4514 14.3398 30.4194 14.3218 30.3594 14.2948L30.3604 14.2938Z" fill="black"/>
<path d="M29.0822 12.6465C28.7512 12.6465 28.4262 12.9645 28.1582 13.4505C28.1982 13.4435 28.2282 13.4465 28.2712 13.4345C28.8142 13.2845 28.7262 12.7905 29.0812 12.7905C29.4362 12.7905 29.3482 13.2845 29.8912 13.4345C29.9342 13.4465 29.9652 13.4435 30.0052 13.4505C29.7372 12.9645 29.4132 12.6465 29.0822 12.6465Z" fill="white"/>
<path d="M27.5601 16.4681C27.7041 16.5151 27.9221 16.5411 28.2161 16.4551C28.7971 16.2851 28.7031 15.7281 29.0831 15.7281C29.4631 15.7281 29.3691 16.2851 29.9501 16.4551C30.2441 16.5401 30.4611 16.5141 30.6051 16.4681C30.6161 16.3481 30.6261 16.2271 30.6261 16.0801C30.6261 16.0521 30.6221 16.0241 30.6211 15.9961C30.4421 15.8821 29.9391 15.6191 29.0821 15.6191C28.2251 15.6191 27.7241 15.8811 27.5441 15.9951C27.5441 16.0241 27.5391 16.0521 27.5391 16.0801C27.5391 16.2241 27.5481 16.3481 27.5591 16.4691L27.5601 16.4681Z" fill="white"/>
<path d="M28.1207 14.9815C28.7647 14.8035 28.6617 14.2165 29.0837 14.2165C29.5057 14.2165 29.4007 14.8035 30.0467 14.9815C30.2407 15.0355 30.3957 15.0415 30.5307 15.0325C30.4867 14.7755 30.4317 14.5255 30.3607 14.2935C30.1867 14.2155 29.7637 14.0645 29.0857 14.0645C28.4077 14.0645 27.9817 14.2165 27.8087 14.2945C27.7377 14.5265 27.6837 14.7755 27.6387 15.0325C27.7737 15.0415 27.9267 15.0355 28.1207 14.9815Z" fill="white"/>
<path d="M29.0095 17.6225H29.2225C29.6665 17.6225 30.0535 17.6125 30.3085 17.3325C30.0775 17.2125 29.6845 17.0605 29.0825 17.0605C28.4805 17.0605 28.0855 17.2125 27.8555 17.3325C27.8825 17.3625 27.9055 17.3995 27.9365 17.4245C28.1725 17.6075 28.5165 17.6225 29.0095 17.6225Z" fill="white"/>
<path d="M31.7001 16.1105C31.5701 16.3105 31.4901 16.6405 31.7501 17.1105C31.8301 17.2605 31.9301 17.4805 32.0101 17.7305C32.0801 17.9305 32.1401 18.1405 32.1801 18.3705C32.2401 18.7005 32.2501 19.0405 32.1701 19.3305C32.1501 19.4105 32.1301 19.4905 32.1001 19.5605C32.0201 19.7405 31.9001 19.8905 31.7301 19.9905C31.9101 19.7105 31.9401 19.4105 31.8801 19.0505C31.8601 18.9505 31.8401 18.8405 31.8001 18.7305C31.7501 18.5305 31.6701 18.3305 31.5701 18.1005C31.5701 18.0905 31.5701 18.0805 31.5601 18.0705C31.2101 17.2505 31.0301 16.7805 31.1001 16.4405C31.1001 16.4505 31.0901 16.4505 31.0801 16.4605C31.1001 16.1005 31.2501 15.6905 31.7001 15.5305C31.8001 15.5005 31.9001 15.4805 32.0001 15.4805C32.3901 15.4805 32.7401 15.7305 32.8801 15.8505L32.5601 16.3405C32.3401 16.1805 32.0701 16.0805 31.8201 16.0805C31.7701 16.0805 31.7401 16.1005 31.7001 16.1105Z" fill="#B4B4B5"/>
<path d="M27.0593 16.4405C27.1393 16.7805 26.9593 17.2505 26.5993 18.0705V18.0905C26.4993 18.3105 26.4293 18.5205 26.3693 18.7105C26.3293 18.8405 26.2993 18.9605 26.2793 19.0805C26.2293 19.4205 26.2593 19.7205 26.4293 19.9905C26.2693 19.8905 26.1493 19.7405 26.0693 19.5605C26.0393 19.4905 26.0193 19.4205 25.9993 19.3505C25.9193 19.0405 25.9293 18.6905 25.9893 18.3505C26.0293 18.1305 26.0893 17.9105 26.1593 17.7105C26.2393 17.4705 26.3293 17.2505 26.4093 17.1105C26.6693 16.6405 26.5893 16.3105 26.4693 16.1105C26.4293 16.1005 26.3893 16.0805 26.3493 16.0805C26.0893 16.0805 25.8293 16.1805 25.6093 16.3405L25.2793 15.8505C25.4293 15.7305 25.7793 15.4805 26.1693 15.4805C26.2693 15.4805 26.3693 15.5005 26.4693 15.5305C26.9093 15.6905 27.0593 16.1005 27.0793 16.4605C27.0793 16.4505 27.0693 16.4505 27.0593 16.4405Z" fill="#B4B4B5"/>
<path d="M29.3703 21.6699V21.7799C29.3503 21.7599 29.3403 21.7499 29.3203 21.7299C29.3403 21.7099 29.3503 21.6899 29.3703 21.6699Z" fill="#EC1C24"/>
<path d="M29.6205 28.9997C29.6005 29.1397 29.4505 29.1897 29.2905 29.1697C29.2805 29.2297 29.2705 29.2797 29.2505 29.3097C29.1605 29.4297 28.5305 29.4297 28.4505 29.1797C28.3805 28.9297 28.2705 28.4097 28.6605 28.1097V28.0497C28.7005 28.1097 28.7605 28.1597 28.8505 28.1597C28.9305 28.1597 28.9905 28.1197 29.0405 28.0597V28.0497C29.0505 28.0197 29.0705 27.9897 29.0805 27.9797V27.9397L29.0905 27.9297C29.1305 27.9697 29.2005 27.9997 29.2605 27.9997C29.3005 27.9997 29.3305 27.9697 29.3705 27.9497V27.9597C29.3705 27.9597 29.7305 28.0497 29.6205 28.9997Z" fill="#EC1C24"/>
<path d="M31.8808 24.6192H31.8708C31.5508 24.5192 31.5008 24.7592 31.6708 24.8192C31.8308 24.8692 32.0208 25.0392 31.6108 25.1892C31.2408 25.3292 30.4208 25.6792 29.3708 25.7592V22.2792C29.6408 22.6392 29.8008 23.0492 30.1508 23.5592C30.6208 24.2392 31.0108 24.6892 31.3708 24.7592V24.7492C31.3208 24.6092 31.2908 24.4692 31.2808 24.3192C31.2808 24.3192 31.2808 24.3092 31.2708 24.3092C31.0508 24.1492 30.7308 23.7492 30.4508 23.3692C30.0908 22.8592 30.0008 22.5092 29.6408 22.0792C29.5708 21.9892 29.4708 21.8892 29.3708 21.7792C29.3508 21.7592 29.3408 21.7492 29.3208 21.7292C29.3408 21.7092 29.3508 21.6892 29.3708 21.6692C29.3808 21.6592 29.4008 21.6292 29.4208 21.6192C29.7608 21.3292 29.9008 21.2392 30.0908 21.0392C30.1908 20.9392 30.2508 20.7492 30.2508 20.6192C30.2508 20.4992 30.2008 20.4292 30.1008 20.5292L30.0908 20.5392H30.0808C30.0208 20.5992 29.9308 20.6992 29.8208 20.8092C29.6808 20.9392 29.5208 21.0992 29.3608 21.2692C29.3508 20.9092 29.3308 20.5892 29.2808 20.3492C29.2608 20.2592 29.2408 20.1692 29.2108 20.0992C29.1808 20.0092 29.1408 19.9292 29.0808 19.8892C29.0008 19.8292 28.9108 19.8992 28.8808 20.0092C28.8708 20.0492 28.8608 20.0992 28.8808 20.1492C28.9208 20.3092 29.0508 20.6592 29.0808 21.4392V21.4792H29.0708C28.8008 21.2192 28.5208 20.9692 28.3208 20.8492C28.2308 20.7992 28.1508 20.7592 28.1108 20.7692C28.0208 20.7792 27.9308 20.9892 28.0108 21.0592C28.0208 21.0592 28.0308 21.0792 28.0408 21.0792C28.1208 21.1592 28.3108 21.3492 28.6608 21.6292V22.0992C28.3408 22.5792 27.9808 23.2992 27.6508 23.6692C27.4008 23.9592 27.1208 24.2092 26.9108 24.3692C26.8908 24.5192 26.8508 24.6792 26.7908 24.8192H26.8008C27.0808 24.7192 27.5008 24.4592 28.0108 23.7092C28.2708 23.3292 28.4808 22.9992 28.6608 22.6992V25.7692C27.7108 25.6992 26.8608 25.3592 26.5408 25.2392C26.4908 25.2192 26.4508 25.1992 26.4308 25.1892C26.3208 25.1592 26.2708 25.0692 26.2508 24.9892C26.2408 24.9292 26.2608 24.8692 26.3108 24.8292C26.3108 24.8292 26.3108 24.8192 26.3208 24.8192C26.4608 24.7292 26.4508 24.4192 26.3008 24.5192C26.3008 24.5259 26.2974 24.5292 26.2908 24.5292C26.0408 24.6992 25.8308 24.9692 26.0208 25.2192C26.0608 25.2692 26.1308 25.3292 26.2208 25.3792C26.2808 25.4192 26.3408 25.4592 26.4308 25.4892C26.5208 25.5292 26.6208 25.5692 26.7208 25.5992C27.3208 25.8392 28.0008 26.0792 28.6608 26.1692V27.7792C28.7008 27.7192 28.7608 27.6692 28.8508 27.6692C28.9108 27.6692 28.9708 27.6992 29.0208 27.7392V26.2092C29.0408 26.2092 29.0608 26.2192 29.0808 26.2192V27.5892C29.1308 27.5392 29.1908 27.5092 29.2608 27.5092C29.3008 27.5092 29.3308 27.5292 29.3708 27.5492V26.1992C30.0208 26.1192 30.9108 25.8392 31.4708 25.5992C31.6708 25.5092 31.8408 25.4292 31.9308 25.3692C31.9308 25.3692 31.9308 25.3592 31.9408 25.3592C32.0108 25.3092 32.0808 25.2492 32.1308 25.1892C32.3408 24.9792 32.3408 24.7592 31.8808 24.6192ZM29.0808 25.7792C29.0608 25.7792 29.0408 25.7892 29.0208 25.7892V22.1292C29.0408 22.0992 29.0608 22.0592 29.0808 22.0292V25.7792Z" fill="#EC1C24"/>
<path d="M29.8099 20.8006C29.8989 20.7186 29.9919 20.6326 30.0849 20.5466C30.0869 20.5446 30.0929 20.5386 30.0949 20.5366L30.0969 20.5356C30.6429 20.0316 31.2379 19.4806 31.7909 18.9696L31.6709 18.8556L31.8049 18.7286C31.7469 18.5346 31.6719 18.3286 31.5749 18.1016C30.8429 18.7216 29.9809 19.4496 29.2129 20.0976C29.2409 20.1666 29.2609 20.2576 29.2809 20.3516C29.4679 20.5096 29.6449 20.6596 29.8109 20.7996L29.8099 20.8006Z" fill="#CB9C2B"/>
<path d="M29.0784 21.4748C29.0784 21.4628 29.0774 21.4538 29.0774 21.4418C28.8694 21.2508 28.6354 21.0348 28.3814 20.8008C28.3604 20.8178 28.3384 20.8368 28.3184 20.8538C28.5184 20.9768 28.8034 21.2198 29.0734 21.4798C29.0754 21.4778 29.0764 21.4758 29.0784 21.4748Z" fill="#CB9C2B"/>
<path d="M27.1785 23.0189C27.4985 23.0029 27.8395 22.5909 28.3595 22.1289C28.4235 22.0719 28.5305 21.9749 28.6585 21.8589V21.6339C28.3115 21.3499 28.1245 21.1619 28.0425 21.0859C27.6165 21.4469 27.3085 21.7089 27.2275 21.7839C26.9745 22.0149 26.6775 22.2179 26.6465 22.4629C26.7545 22.4949 26.8685 22.5589 26.9695 22.6599C27.0815 22.7719 27.1525 22.9019 27.1785 23.0189Z" fill="#CB9C2B"/>
<path d="M34.6917 18.2417V18.6417L33.9917 19.2417L33.5717 18.9717V18.6417H33.2217V18.9517L33.4017 18.9717L33.5717 19.1517L33.5917 19.5717L32.9617 20.0817L32.1717 19.3317C32.2517 19.0417 32.2417 18.7017 32.1817 18.3717C32.1417 18.1417 32.0817 17.9317 32.0117 17.7317C32.6017 17.2317 33.0517 16.8417 33.1917 16.7117C33.2817 16.6317 33.3717 16.5917 33.4517 16.5617C33.7517 16.4717 33.9417 16.7217 33.8417 16.9917C33.8117 17.0717 33.7717 17.1417 33.7017 17.2017L34.0817 17.6217L33.8217 17.8417L34.0817 18.0617L34.3317 17.8417L34.6917 18.2417Z" fill="#CB9C2B"/>
<path d="M26.2157 25.3839C26.1267 25.3309 26.0638 25.2749 26.0208 25.2189C25.9428 25.2589 25.8587 25.2869 25.7657 25.2869C25.4527 25.2869 25.1997 25.0329 25.1987 24.7209C25.1817 24.7209 25.1677 24.7119 25.1497 24.7109L25.1517 24.7199C25.1517 25.0329 24.8967 25.2869 24.5847 25.2869C24.2727 25.2869 24.0177 25.0329 24.0177 24.7199C24.0187 24.4109 24.2687 24.1599 24.5777 24.1539C24.2677 24.1489 24.0177 23.8979 24.0177 23.5889C24.0177 23.2749 24.2727 23.0219 24.5847 23.0219C24.8967 23.0219 25.1517 23.2769 25.1517 23.5889V23.5969C25.1667 23.5959 25.1807 23.5869 25.1987 23.5869C25.1997 23.2749 25.4547 23.0219 25.7657 23.0219C26.0797 23.0219 26.3328 23.2769 26.3328 23.5889C26.3328 23.8989 26.0828 24.1489 25.7738 24.1539C26.0168 24.1589 26.2168 24.3149 26.2948 24.5299C26.2968 24.5289 26.2977 24.5279 26.2997 24.5259C26.4547 24.4189 26.4567 24.7279 26.3217 24.8189C26.3157 24.8229 26.3157 24.8299 26.3107 24.8339C26.2987 24.8909 26.2817 24.9429 26.2547 24.9919C26.2677 25.0739 26.3247 25.1569 26.4307 25.1939C26.4537 25.2019 26.4917 25.2169 26.5397 25.2359C26.6427 25.1089 26.7338 24.9719 26.7978 24.8189C26.8568 24.6769 26.8907 24.5249 26.9107 24.3669C26.9197 24.2959 26.9327 24.2259 26.9327 24.1519C26.9327 23.8399 26.8437 23.5509 26.6987 23.2979C26.6257 23.2609 26.5517 23.2139 26.4847 23.1459C26.3797 23.0419 26.3117 22.9209 26.2817 22.8089C25.9847 22.5689 25.6118 22.4199 25.2008 22.4199C24.7818 22.4199 24.4017 22.5759 24.1017 22.8239C24.0687 22.9069 24.0107 22.9629 23.9247 22.9899C23.6447 23.2979 23.4688 23.7029 23.4688 24.1519C23.4688 24.5619 23.6178 24.9339 23.8568 25.2309C23.9488 25.2639 24.0117 25.3289 24.0357 25.4249C24.3437 25.7069 24.7497 25.8829 25.1997 25.8829C25.5467 25.8829 25.8678 25.7789 26.1388 25.6029C26.1388 25.5969 26.1327 25.5939 26.1327 25.5879C26.1327 25.5079 26.1647 25.4369 26.2157 25.3839Z" fill="#CB9C2B"/>
<path d="M31.8039 18.7285L31.6699 18.8555L31.7899 18.9695L31.8799 19.0545C31.8619 18.9505 31.8379 18.8425 31.8039 18.7285Z" fill="#CB9C2B"/>
<path d="M24.7407 16.56C24.4407 16.47 24.2507 16.72 24.3507 16.99C24.1807 17.08 24.0107 17.09 23.9207 17C23.8107 16.89 23.8407 16.68 23.9707 16.49L23.8607 16.28C23.8307 16.3 23.8007 16.32 23.7507 16.32C23.6007 16.32 23.4707 16.2 23.4707 16.04C23.4707 15.88 23.6007 15.75 23.7507 15.75C23.9107 15.75 24.0407 15.88 24.0407 16.04C24.0407 16.07 24.0207 16.09 24.0107 16.11L24.2507 16.22C24.4307 16.12 24.6107 16.1 24.7107 16.21C24.7907 16.28 24.7907 16.42 24.7407 16.56Z" fill="#CB9C2B"/>
<path d="M34.7229 25.4914C34.7229 25.3274 34.5899 25.1944 34.4249 25.1934C34.3899 25.1934 34.3659 25.2194 34.3349 25.2304C34.2429 25.2634 34.1799 25.3284 34.1559 25.4244C34.1499 25.4484 34.1289 25.4644 34.1289 25.4904C34.1289 25.6544 34.2619 25.7864 34.4259 25.7864C34.5909 25.7864 34.7239 25.6534 34.7239 25.4904L34.7229 25.4914Z" fill="#CB9C2B"/>
<path d="M31.0131 23.0187C30.9881 23.1317 31.0041 23.2337 31.0701 23.2987C31.1631 23.3927 31.3291 23.3817 31.4951 23.2987C31.5681 23.2617 31.6421 23.2147 31.7091 23.1467C31.8141 23.0427 31.8821 22.9217 31.9121 22.8097C31.9441 22.6887 31.9321 22.5777 31.8611 22.5077C31.7891 22.4347 31.6721 22.4257 31.5451 22.4627C31.4371 22.4947 31.3231 22.5587 31.2221 22.6597C31.1101 22.7717 31.0391 22.9017 31.0131 23.0187Z" fill="#CB9C2B"/>
<path d="M31.9397 25.3633C31.9397 25.3633 31.9337 25.3683 31.9307 25.3703C31.8407 25.4333 31.6767 25.5153 31.4727 25.6023C31.4817 25.7583 31.6047 25.8843 31.7627 25.8843C31.9217 25.8843 32.0447 25.7593 32.0537 25.6033C32.0537 25.5973 32.0597 25.5943 32.0597 25.5883C32.0597 25.4923 32.0097 25.4183 31.9397 25.3633Z" fill="#CB9C2B"/>
<path d="M34.2658 22.9907C34.2938 22.9997 34.3138 23.0237 34.3448 23.0237C34.5098 23.0237 34.6428 22.8907 34.6428 22.7277C34.6428 22.5627 34.5098 22.4297 34.3448 22.4297C34.1808 22.4297 34.0488 22.5627 34.0488 22.7277C34.0488 22.7657 34.0758 22.7917 34.0888 22.8257C34.1218 22.9087 34.1798 22.9637 34.2658 22.9907Z" fill="#CB9C2B"/>
<path d="M29.9516 16.4555C29.3706 16.2855 29.4646 15.7285 29.0846 15.7285C28.7046 15.7285 28.7986 16.2855 28.2176 16.4555C27.9236 16.5415 27.7056 16.5155 27.5616 16.4685C27.5106 16.4525 27.4786 16.4335 27.4456 16.4165C27.3886 16.3855 27.3496 16.3585 27.3496 16.3585L27.6206 17.4725C27.6206 17.4725 27.6696 17.4375 27.7466 17.3905C27.7746 17.3735 27.8196 17.3535 27.8576 17.3335C28.0876 17.2135 28.4816 17.0615 29.0846 17.0615C29.6876 17.0615 30.0796 17.2135 30.3106 17.3335C30.3486 17.3535 30.3956 17.3745 30.4236 17.3915C30.5006 17.4385 30.5486 17.4735 30.5486 17.4735L30.8196 16.3595C30.8196 16.3595 30.7816 16.3855 30.7246 16.4155C30.6916 16.4335 30.6586 16.4515 30.6066 16.4685C30.4626 16.5145 30.2446 16.5415 29.9516 16.4555Z" fill="#CB9C2B"/>
<path d="M30.0472 14.9818C29.4022 14.8038 29.5062 14.2168 29.0842 14.2168C28.6622 14.2168 28.7652 14.8038 28.1212 14.9818C27.9272 15.0348 27.7732 15.0418 27.6382 15.0328C27.5952 15.0298 27.5602 15.0228 27.5232 15.0158C27.2902 14.9738 27.1602 14.8808 27.1602 14.8808L27.4322 15.9438L27.4602 16.0518C27.4602 16.0518 27.4972 16.0248 27.5462 15.9948C27.7272 15.8808 28.2312 15.6188 29.0842 15.6188C29.9372 15.6188 30.4452 15.8818 30.6232 15.9958C30.6702 16.0258 30.7082 16.0528 30.7082 16.0528L30.7372 15.9408L31.0082 14.8808C31.0082 14.8808 30.8782 14.9748 30.6462 15.0168C30.6092 15.0238 30.5742 15.0298 30.5312 15.0328C30.3962 15.0418 30.2412 15.0358 30.0472 14.9818Z" fill="#CB9C2B"/>
<path d="M27.8068 14.294C27.9798 14.216 28.4048 14.064 29.0838 14.064C29.7628 14.064 30.1858 14.215 30.3588 14.293C30.4188 14.32 30.4508 14.338 30.4508 14.338L30.4718 14.256L30.7048 13.35C30.7048 13.35 30.5148 13.496 30.1538 13.472C30.1078 13.469 30.0588 13.461 30.0068 13.451C29.9668 13.444 29.9368 13.447 29.8928 13.435C29.3498 13.285 29.4368 12.791 29.0828 12.791C28.7288 12.791 28.8158 13.285 28.2728 13.435C28.2298 13.447 28.1988 13.444 28.1598 13.451C28.1088 13.461 28.0588 13.469 28.0138 13.472C27.6528 13.496 27.4648 13.351 27.4648 13.351L27.6968 14.254L27.7188 14.338C27.7188 14.338 27.7498 14.32 27.8088 14.294H27.8068Z" fill="#CB9C2B"/>
<path d="M29.2505 12.2009C29.2705 12.2409 29.2905 12.2809 29.2905 12.3309C29.2905 12.4309 29.2605 12.5109 29.2205 12.5609C29.1805 12.6109 29.1405 12.6509 29.0805 12.6509C29.0305 12.6509 28.9905 12.6109 28.9505 12.5609C28.9105 12.5109 28.8805 12.4309 28.8805 12.3309C28.8805 12.2809 28.9005 12.2409 28.9105 12.2009C28.7105 12.1709 28.5605 12.0909 28.5605 12.0009C28.5605 11.9009 28.7105 11.8209 28.9205 11.7909C28.9005 11.7609 28.8805 11.7209 28.8805 11.6809C28.8805 11.5609 28.9705 11.4609 29.0805 11.4609C29.2005 11.4609 29.2905 11.5609 29.2905 11.6809C29.2905 11.7209 29.2705 11.7609 29.2505 11.7909C29.4505 11.8209 29.6105 11.9009 29.6105 12.0009C29.6105 12.0909 29.4605 12.1709 29.2505 12.2009Z" fill="#CB9C2B"/>
<path d="M29.5116 27.7517C29.5116 27.8517 29.4516 27.9117 29.3716 27.9517C29.3316 27.9717 29.3016 28.0017 29.2616 28.0017C29.2016 28.0017 29.1316 27.9717 29.0916 27.9317L29.0816 27.9417C29.0816 27.9817 29.0616 28.0217 29.0416 28.0517C28.9916 28.1217 28.9316 28.1617 28.8516 28.1617C28.7616 28.1617 28.7016 28.1117 28.6616 28.0517C28.6316 28.0117 28.6016 27.9717 28.6016 27.9217C28.6016 27.8617 28.6316 27.8217 28.6616 27.7817C28.7016 27.7217 28.7616 27.6717 28.8516 27.6717C28.9116 27.6717 28.9716 27.7017 29.0216 27.7417C29.0216 27.6817 29.0516 27.6317 29.0816 27.5917C29.1316 27.5417 29.1916 27.5117 29.2616 27.5117C29.3016 27.5117 29.3316 27.5317 29.3716 27.5517C29.4516 27.5917 29.5116 27.6617 29.5116 27.7517Z" fill="#CB9C2B"/>
</svg>
