<svg width="41" height="41" viewBox="0 0 41 41" fill="none" xmlns="http://www.w3.org/2000/svg">
<path d="M34.5 8.5H6.5C4.29086 8.5 2.5 10.2909 2.5 12.5V28.5C2.5 30.7091 4.29086 32.5 6.5 32.5H34.5C36.7091 32.5 38.5 30.7091 38.5 28.5V12.5C38.5 10.2909 36.7091 8.5 34.5 8.5Z" fill="#F9CF00"/>
<path d="M6.495 8.5C4.288 8.5 2.5 10.289 2.5 12.496V28.505C2.5 30.712 4.289 32.501 6.495 32.501H10.255V8.5H6.495Z" fill="#2C6FB9"/>
<path d="M38.5001 28.504V12.496C38.5001 10.289 36.7111 8.5 34.5051 8.5H30.7441V32.5H34.5051C36.7121 32.5 38.5001 30.711 38.5001 28.504Z" fill="#00A05B"/>
<path d="M18.2676 26.1051L20.5006 30.5891L22.7336 26.1051L20.5006 21.6211L18.2676 26.1051Z" fill="#00A05B"/>
<path d="M21.0586 20.4996L23.2916 24.9836L25.5246 20.4996L23.2916 16.0156L21.0586 20.4996Z" fill="#00A05B"/>
<path d="M15.4766 20.4996L17.7096 24.9836L19.9426 20.4996L17.7096 16.0156L15.4766 20.4996Z" fill="#00A05B"/>
</svg>
