<svg width="41" height="41" viewBox="0 0 41 41" fill="none" xmlns="http://www.w3.org/2000/svg">
<path d="M11.0424 8.50195H11.7264H6.50037C6.05537 8.50195 5.63438 8.59195 5.23438 8.72595L11.0424 11.67V8.50195Z" fill="#261B64"/>
<path d="M3.33073 10.084C2.91973 10.622 2.64773 11.262 2.55273 11.965H7.04073L3.32973 10.084H3.33073Z" fill="#261B64"/>
<path d="M2.5 15.4297V17.7317L7.041 15.4297H2.5Z" fill="#261B64"/>
<path d="M20.71 8.5H14.459V11.668L20.71 8.5Z" fill="#261B64"/>
<path d="M34.5 8.5H23.002V9.662L18.46 11.965H23.002V15.429H18.461L23.002 17.731V18.894H20.71L14.459 15.725V18.894H11.042V15.725L4.791 18.894H2.5V28.5C2.5 30.709 4.291 32.5 6.5 32.5H34.5C36.709 32.5 38.5 30.709 38.5 28.5V12.5C38.5 10.291 36.709 8.5 34.5 8.5ZM36.094 25.523C35.954 25.64 35.787 25.7 35.613 25.7C35.379 25.7 35.178 25.593 35.021 25.464C33.523 26.701 31.997 27.304 30.371 27.304C28.745 27.304 27.219 26.702 25.721 25.464C25.563 25.593 25.363 25.7 25.128 25.7C24.954 25.7 24.787 25.64 24.647 25.523C24.304 25.237 24.098 24.82 24.118 24.461C24.133 24.206 24.256 23.989 24.464 23.855C24.718 23.69 25.091 23.334 25.155 23.23C25.409 22.808 25.701 22.72 25.901 22.72C25.925 22.72 25.953 22.724 25.981 22.727C25.885 22.566 25.823 22.409 25.823 22.261V13.938H34.917V22.261C34.917 22.41 34.855 22.568 34.759 22.727C34.787 22.724 34.815 22.72 34.839 22.72C35.039 22.72 35.331 22.808 35.585 23.23C35.65 23.334 36.022 23.689 36.276 23.855C36.483 23.989 36.607 24.205 36.62 24.461C36.641 24.822 36.434 25.238 36.092 25.523H36.094Z" fill="#261B64"/>
<path d="M13.7754 12.657H17.0934H23.0024V11.965H18.4604L23.0024 9.662V8.5L16.1684 11.965H14.6404L21.4744 8.5H20.7104L14.4594 11.668V8.5H13.7754V12.015V12.657Z" fill="#E3E7EA"/>
<path d="M11.726 12.658V8.50195H11.042V11.669L5.234 8.72495H5.232C5.227 8.72495 5.223 8.72795 5.217 8.72995C5.031 8.79295 4.852 8.86995 4.68 8.95795C4.648 8.97395 4.618 8.99195 4.586 9.00895C4.423 9.09695 4.264 9.19495 4.116 9.30595C4.112 9.30895 4.107 9.31095 4.103 9.31395L9.333 11.966H7.805L3.555 9.81095C3.475 9.89795 3.401 9.98995 3.33 10.084H3.331L7.042 11.966H2.5V12.658H11.726Z" fill="#E3E7EA"/>
<path d="M10.862 15.4293L4.027 18.8943H4.791L11.042 15.7253V18.8943H11.726V15.3783V14.7363H8.408H2.5V15.4293H7.041L2.5 17.7313V18.8943L9.333 15.4293H10.862Z" fill="#E3E7EA"/>
<path d="M13.7754 14.7363V15.3783V18.8943H14.4594V15.7253L20.7104 18.8943H23.0024L16.1684 15.4293H17.6964L23.0024 18.1193V17.7313L18.4614 15.4293H23.0024V14.7363H17.0934H13.7754Z" fill="#E3E7EA"/>
<path d="M11.726 14.736V15.378V18.894H13.775V15.378V14.736H17.093H23.002V12.657H17.093H13.775V12.015V8.5H11.726V8.501V12.015V12.657H8.408H2.5V12.658V14.736H8.408H11.726Z" fill="#CC001C"/>
<path d="M7.80564 11.9645H9.33364L4.10364 9.3125C4.09264 9.3215 4.08364 9.3325 4.07264 9.3415C3.89064 9.4805 3.72064 9.6325 3.56564 9.8015C3.56264 9.8045 3.55964 9.8065 3.55664 9.8105L7.80664 11.9655L7.80564 11.9645Z" fill="#CC001C"/>
<path d="M16.1686 11.965L23.0026 8.5H21.4746L14.6406 11.965H16.1686Z" fill="#CC001C"/>
<path d="M10.862 15.4297H9.333L2.5 18.8947H4.027L10.862 15.4297Z" fill="#CC001C"/>
<path d="M16.168 15.4297L23.002 18.8947V18.1197L17.696 15.4297H16.168Z" fill="#CC001C"/>
<path d="M35.5876 23.2295C35.3336 22.8065 35.0416 22.7195 34.8416 22.7195C34.8176 22.7195 34.7896 22.7245 34.7616 22.7265C34.8576 22.5665 34.9196 22.4085 34.9196 22.2605V13.9375H25.8256V22.2605C25.8256 22.4095 25.8876 22.5665 25.9836 22.7265C25.9556 22.7225 25.9276 22.7195 25.9036 22.7195C25.7036 22.7195 25.4116 22.8075 25.1576 23.2295C25.0936 23.3335 24.7216 23.6895 24.4666 23.8545C24.2586 23.9885 24.1356 24.2055 24.1206 24.4605C24.0996 24.8205 24.3066 25.2375 24.6496 25.5225C24.7896 25.6395 24.9566 25.6995 25.1306 25.6995C25.3646 25.6995 25.5656 25.5925 25.7236 25.4635C27.2216 26.7005 28.7476 27.3035 30.3736 27.3035C31.9996 27.3035 33.5256 26.7015 35.0236 25.4635C35.1816 25.5925 35.3826 25.6995 35.6156 25.6995C35.7896 25.6995 35.9566 25.6395 36.0966 25.5225C36.4396 25.2375 36.6456 24.8205 36.6246 24.4605C36.6116 24.2045 36.4876 23.9885 36.2806 23.8545C36.0276 23.6885 35.6546 23.3335 35.5896 23.2295H35.5876ZM26.2766 14.3865H34.4686V22.2585C34.4686 22.8835 32.3836 24.2135 30.3726 25.1105C28.3616 24.2135 26.2766 22.8825 26.2766 22.2585V14.3865ZM35.8056 25.1755C35.4676 25.4575 35.0586 24.8375 35.0586 24.8375C33.8886 25.8795 32.3676 26.8525 30.3706 26.8525C28.3736 26.8525 26.8526 25.8805 25.6826 24.8375C25.6826 24.8375 25.2736 25.4585 24.9356 25.1755C24.5976 24.8935 24.4276 24.4145 24.7106 24.2315C24.9926 24.0485 25.4296 23.6485 25.5426 23.4615C25.6556 23.2735 25.8806 23.0115 26.1206 23.2915C26.3606 23.5715 28.2676 25.4305 30.3716 25.4305C32.4756 25.4305 34.3826 23.5705 34.6226 23.2915C34.8626 23.0115 35.0876 23.2745 35.2006 23.4615C35.3136 23.6495 35.7506 24.0485 36.0316 24.2315C36.3136 24.4155 36.1436 24.8935 35.8056 25.1755Z" fill="white"/>
<path d="M30.3714 25.1107C32.3824 24.2147 34.4674 22.8837 34.4674 22.2587V14.3867H26.2754V22.2587C26.2754 22.8827 28.3604 24.2127 30.3714 25.1107ZM32.1244 15.0737C32.0674 14.8897 32.2114 14.6277 32.2684 14.6917L32.3354 14.9027C32.2644 15.0157 32.4894 14.9877 32.4334 15.0857C32.3794 15.1807 32.3654 15.2767 32.3234 15.3397H32.7844C32.7844 15.3397 32.8824 15.0017 33.0374 14.9867C33.1924 14.9727 33.2354 15.3247 33.2354 15.3247C33.2354 15.3247 33.5884 15.4097 33.7424 15.3107C33.8974 15.2127 34.2784 15.3247 33.9824 15.4937C33.6864 15.6627 33.8554 15.3107 33.6864 15.4937C33.5174 15.6767 33.3624 15.7467 33.3904 15.8177C33.4184 15.8877 33.3024 15.9437 33.0644 15.9437C32.8264 15.9437 32.6714 15.8887 32.7004 15.7767C32.7284 15.6637 32.5454 15.6217 32.3344 15.5787C32.1214 15.5367 32.0374 15.3397 32.0374 15.3397H32.1894C32.1664 15.2777 32.1554 15.1797 32.1224 15.0737H32.1244ZM32.1914 16.8637C32.1684 16.8017 32.1574 16.7047 32.1244 16.5977C32.0674 16.4137 32.2114 16.1517 32.2684 16.2147L32.3354 16.4257C32.2644 16.5387 32.4894 16.5107 32.4334 16.6087C32.3794 16.7037 32.3654 16.7997 32.3234 16.8627H32.7844C32.7844 16.8627 32.8824 16.5247 33.0374 16.5097C33.1924 16.4957 33.2354 16.8477 33.2354 16.8477C33.2354 16.8477 33.5884 16.9327 33.7424 16.8337C33.8974 16.7357 34.2784 16.8477 33.9824 17.0167C33.6864 17.1857 33.8554 16.8337 33.6864 17.0167C33.5164 17.1997 33.3624 17.2697 33.3904 17.3407C33.4184 17.4117 33.3024 17.4667 33.0644 17.4667C32.8264 17.4667 32.6714 17.4107 32.7004 17.2977C32.7284 17.1847 32.5454 17.1427 32.3344 17.1007C32.1214 17.0587 32.0374 16.8627 32.0374 16.8627H32.1894L32.1914 16.8637ZM32.1914 18.3647C32.1684 18.3027 32.1574 18.2047 32.1244 18.0987C32.0674 17.9147 32.2114 17.6527 32.2684 17.7167L32.3354 17.9277C32.2644 18.0407 32.4894 18.0127 32.4334 18.1107C32.3794 18.2057 32.3654 18.3017 32.3234 18.3647H32.7844C32.7844 18.3647 32.8824 18.0267 33.0374 18.0117C33.1924 17.9977 33.2354 18.3497 33.2354 18.3497C33.2354 18.3497 33.5884 18.4347 33.7424 18.3357C33.8974 18.2377 34.2784 18.3497 33.9824 18.5187C33.6864 18.6877 33.8554 18.3357 33.6864 18.5187C33.5174 18.7017 33.3624 18.7717 33.3904 18.8427C33.4184 18.9137 33.3024 18.9687 33.0644 18.9687C32.8264 18.9687 32.6714 18.9127 32.7004 18.7997C32.7284 18.6867 32.5454 18.6447 32.3344 18.6017C32.1214 18.5597 32.0374 18.3637 32.0374 18.3637H32.1894L32.1914 18.3647ZM32.1914 19.8197C32.1684 19.7577 32.1574 19.6607 32.1254 19.5547C32.0684 19.3707 32.2124 19.1087 32.2694 19.1727L32.3364 19.3837C32.2654 19.4967 32.4904 19.4687 32.4344 19.5667C32.3804 19.6617 32.3664 19.7567 32.3254 19.8197H32.7864C32.7864 19.8197 32.8844 19.4817 33.0394 19.4667C33.1944 19.4527 33.2374 19.8047 33.2374 19.8047C33.2374 19.8047 33.5904 19.8897 33.7444 19.7907C33.8994 19.6927 34.2804 19.8047 33.9844 19.9737C33.6884 20.1427 33.8574 19.7907 33.6884 19.9737C33.5194 20.1567 33.3644 20.2267 33.3924 20.2977C33.4204 20.3687 33.3044 20.4237 33.0664 20.4237C32.8284 20.4237 32.6734 20.3687 32.7024 20.2557C32.7304 20.1427 32.5474 20.1007 32.3364 20.0577C32.1234 20.0157 32.0394 19.8187 32.0394 19.8187L32.1914 19.8197ZM32.1914 21.2687C32.1684 21.2067 32.1574 21.1087 32.1254 21.0037C32.0684 20.8197 32.2124 20.5577 32.2694 20.6207L32.3364 20.8317C32.2654 20.9447 32.4904 20.9167 32.4344 21.0147C32.3804 21.1097 32.3664 21.2047 32.3254 21.2677H32.7864C32.7864 21.2677 32.8844 20.9297 33.0394 20.9147C33.1944 20.9007 33.2374 21.2527 33.2374 21.2527C33.2374 21.2527 33.5904 21.3377 33.7444 21.2387C33.8994 21.1407 34.2804 21.2527 33.9844 21.4217C33.6884 21.5907 33.8574 21.2387 33.6884 21.4217C33.5194 21.6047 33.3644 21.6747 33.3924 21.7457C33.4204 21.8167 33.3044 21.8717 33.0664 21.8717C32.8284 21.8717 32.6734 21.8157 32.7024 21.7037C32.7304 21.5907 32.5474 21.5487 32.3364 21.5057C32.1234 21.4647 32.0394 21.2677 32.0394 21.2677L32.1914 21.2687ZM32.1914 22.6857C32.1684 22.6237 32.1574 22.5257 32.1244 22.4197C32.0674 22.2357 32.2114 21.9737 32.2684 22.0377L32.3354 22.2487C32.2644 22.3617 32.4894 22.3337 32.4334 22.4317C32.3794 22.5267 32.3654 22.6227 32.3234 22.6857H32.7844C32.7844 22.6857 32.8824 22.3477 33.0374 22.3327C33.1924 22.3187 33.2354 22.6707 33.2354 22.6707C33.2354 22.6707 33.5884 22.7557 33.7424 22.6557C33.8974 22.5577 34.2784 22.6707 33.9824 22.8387C33.6864 23.0077 33.8554 22.6557 33.6864 22.8387C33.5164 23.0217 33.3624 23.0917 33.3904 23.1627C33.4184 23.2337 33.3024 23.2887 33.0644 23.2887C32.8264 23.2887 32.6714 23.2327 32.7004 23.1197C32.7284 23.0067 32.5454 22.9647 32.3344 22.9217C32.1214 22.8797 32.0374 22.6837 32.0374 22.6837H32.1894L32.1914 22.6857ZM29.6294 17.0607C29.7424 16.7797 29.8274 16.7227 29.9104 16.5117C29.9954 16.3007 30.1684 16.1337 30.2914 16.1877C30.3274 16.2037 30.3664 16.2287 30.4044 16.2537C30.4994 16.0867 30.5054 15.9147 30.3714 15.8777C30.2204 15.8357 30.0094 15.7797 30.1504 15.2297C30.1784 15.1207 30.2274 15.0417 30.2844 14.9777C30.1784 15.0017 30.0924 15.0017 30.1594 14.8227C30.2414 14.6057 30.6434 14.4247 30.9814 14.6927C31.3194 14.9607 31.4604 15.4537 31.2214 15.7497C31.0464 15.9657 30.9264 15.9827 30.8374 15.8917C30.8434 15.9747 30.8594 16.0547 30.8964 16.1317C30.8974 16.1347 30.8994 16.1357 30.9014 16.1387C30.9334 16.1237 30.9704 16.1137 31.0234 16.1177C31.2064 16.1317 31.5984 16.4997 31.5164 16.5827C31.4954 16.6037 31.4704 16.6377 31.4444 16.6827C31.4854 16.7477 31.5244 16.8217 31.5584 16.9207C31.7554 17.4837 31.8264 18.0337 31.6994 18.2737C31.5724 18.5137 31.5014 19.4287 31.3334 19.6687C31.2734 19.7537 31.2104 19.7807 31.1504 19.7807C31.2194 19.9877 31.2904 20.2027 31.3484 20.4167C31.5184 21.0477 32.0394 23.1617 32.0394 23.1617C31.7154 23.2327 30.9974 23.4997 30.6014 23.4017C30.2064 23.3037 29.5024 23.5567 29.4034 23.4227C29.3054 23.2887 29.5014 22.5567 29.5304 22.2177C29.5584 21.8797 29.6004 21.5407 29.5444 21.5407C29.4884 21.5407 29.2504 21.5407 29.3754 20.9347C29.4254 20.6927 29.4894 20.3717 29.5484 20.0707C29.2704 20.2227 29.4274 19.8877 29.2614 20.0677C29.0914 20.2507 28.9374 20.3207 28.9654 20.3917C28.9934 20.4627 28.8774 20.5177 28.6394 20.5177C28.4014 20.5177 28.2474 20.4617 28.2754 20.3487C28.3034 20.2357 28.1204 20.1937 27.9094 20.1507C27.6984 20.1087 27.6124 19.9127 27.6124 19.9127H27.7644C27.7414 19.8507 27.7304 19.7527 27.6974 19.6467C27.6404 19.4637 27.7844 19.2017 27.8414 19.2647L27.9084 19.4757C27.8374 19.5887 28.0624 19.5597 28.0064 19.6587C27.9524 19.7537 27.9384 19.8487 27.8974 19.9117H28.3584C28.3584 19.9117 28.4564 19.5737 28.6114 19.5587C28.7664 19.5447 28.8094 19.8967 28.8094 19.8967C28.8094 19.8967 29.1624 19.9817 29.3164 19.8827C29.3884 19.8367 29.5074 19.8387 29.5864 19.8687C29.6574 19.5047 29.7124 19.2137 29.7124 19.2137C29.7124 19.2137 29.5014 19.1287 29.6274 18.7907C29.7004 18.5957 29.7814 18.2487 29.8304 17.9527C29.8284 17.9547 29.8254 17.9577 29.8244 17.9607C29.5714 18.2567 29.0204 18.4817 28.9934 18.7217C28.9654 18.9597 28.8954 19.4947 28.7124 19.5657C28.5284 19.6367 28.4724 19.1427 28.7124 18.7907C28.9224 18.4827 29.4664 17.8947 29.7094 17.3097C29.6314 17.2637 29.5674 17.2097 29.6294 17.0577V17.0607ZM26.7974 15.0737C26.7404 14.8907 26.8844 14.6287 26.9414 14.6927L27.0084 14.9037C26.9374 15.0167 27.1624 14.9877 27.1064 15.0867C27.0524 15.1817 27.0384 15.2777 26.9964 15.3407H27.4574C27.4574 15.3407 27.5554 15.0027 27.7104 14.9877C27.8654 14.9737 27.9074 15.3257 27.9074 15.3257C27.9074 15.3257 28.2604 15.4107 28.4144 15.3117C28.5684 15.2127 28.9504 15.3257 28.6544 15.4947C28.3584 15.6647 28.5274 15.3117 28.3584 15.4947C28.1894 15.6777 28.0344 15.7477 28.0624 15.8187C28.0904 15.8887 27.9744 15.9447 27.7364 15.9447C27.4984 15.9447 27.3444 15.8897 27.3724 15.7777C27.4004 15.6647 27.2174 15.6227 27.0064 15.5797C26.7944 15.5377 26.7094 15.3407 26.7094 15.3407H26.8624C26.8394 15.2787 26.8284 15.1807 26.7954 15.0737H26.7974ZM26.8644 16.7727C26.8414 16.7107 26.8304 16.6117 26.7974 16.5057C26.7404 16.3227 26.8844 16.0607 26.9414 16.1247L27.0084 16.3367C26.9374 16.4497 27.1624 16.4207 27.1064 16.5197C27.0524 16.6137 27.0384 16.7097 26.9974 16.7727H27.4584C27.4584 16.7727 27.5564 16.4347 27.7114 16.4197C27.8664 16.4057 27.9084 16.7577 27.9084 16.7577C27.9084 16.7577 28.2614 16.8427 28.4154 16.7437C28.5704 16.6457 28.9514 16.7577 28.6554 16.9267C28.3594 17.0967 28.5284 16.7437 28.3594 16.9267C28.1904 17.1097 28.0354 17.1797 28.0634 17.2507C28.0914 17.3217 27.9754 17.3767 27.7374 17.3767C27.4994 17.3767 27.3454 17.3217 27.3734 17.2097C27.4014 17.0967 27.2184 17.0547 27.0074 17.0117C26.7954 16.9697 26.7104 16.7727 26.7104 16.7727H26.8644ZM26.8644 18.3657C26.8414 18.3037 26.8304 18.2057 26.7974 18.0987C26.7404 17.9157 26.8844 17.6537 26.9414 17.7167L27.0084 17.9277C26.9374 18.0407 27.1624 18.0117 27.1064 18.1107C27.0524 18.2057 27.0384 18.3017 26.9964 18.3647H27.4574C27.4574 18.3647 27.5554 18.0267 27.7104 18.0117C27.8654 17.9977 27.9074 18.3497 27.9074 18.3497C27.9074 18.3497 28.2604 18.4347 28.4144 18.3357C28.5684 18.2367 28.9504 18.3497 28.6544 18.5187C28.3584 18.6877 28.5274 18.3357 28.3584 18.5187C28.1894 18.7017 28.0344 18.7717 28.0624 18.8427C28.0904 18.9137 27.9744 18.9687 27.7364 18.9687C27.4984 18.9687 27.3444 18.9127 27.3724 18.7997C27.4004 18.6867 27.2174 18.6447 27.0064 18.6017C26.7944 18.5597 26.7094 18.3637 26.7094 18.3637H26.8624L26.8644 18.3657ZM26.8114 21.1787C26.7884 21.1167 26.7774 21.0187 26.7444 20.9127C26.6874 20.7287 26.8314 20.4667 26.8884 20.5297L26.9554 20.7407C26.8844 20.8537 27.1094 20.8257 27.0534 20.9237C26.9994 21.0187 26.9854 21.1147 26.9434 21.1777H27.4044C27.4044 21.1777 27.5024 20.8397 27.6574 20.8247C27.8124 20.8107 27.8544 21.1627 27.8544 21.1627C27.8544 21.1627 28.2074 21.2477 28.3614 21.1487C28.5164 21.0507 28.8974 21.1627 28.6014 21.3317C28.3054 21.5007 28.4744 21.1487 28.3054 21.3317C28.1364 21.5147 27.9814 21.5847 28.0094 21.6557C28.0374 21.7267 27.9214 21.7817 27.6834 21.7817C27.4454 21.7817 27.2904 21.7257 27.3194 21.6127C27.3474 21.4997 27.1644 21.4577 26.9534 21.4157C26.7424 21.3737 26.6564 21.1777 26.6564 21.1777H26.8084L26.8114 21.1787ZM26.8114 22.6867C26.7884 22.6247 26.7774 22.5267 26.7444 22.4207C26.6874 22.2367 26.8314 21.9747 26.8884 22.0387L26.9554 22.2497C26.8844 22.3627 27.1094 22.3347 27.0534 22.4327C26.9994 22.5277 26.9854 22.6237 26.9434 22.6867H27.4044C27.4044 22.6867 27.5024 22.3487 27.6574 22.3337C27.8124 22.3197 27.8544 22.6717 27.8544 22.6717C27.8544 22.6717 28.2074 22.7567 28.3614 22.6567C28.5154 22.5577 28.8974 22.6717 28.6014 22.8397C28.3054 23.0097 28.4744 22.6567 28.3054 22.8397C28.1364 23.0227 27.9814 23.0927 28.0094 23.1637C28.0374 23.2347 27.9214 23.2897 27.6834 23.2897C27.4454 23.2897 27.2904 23.2337 27.3194 23.1207C27.3474 23.0077 27.1644 22.9657 26.9534 22.9227C26.7424 22.8807 26.6564 22.6847 26.6564 22.6847H26.8084L26.8114 22.6867Z" fill="#006129"/>
<path d="M31.2566 17.3281C31.2266 17.6941 31.0076 18.5441 30.9386 18.8231C30.9126 18.9271 30.9466 19.0941 30.9976 19.2821C31.0646 18.8561 31.3086 18.3231 31.3886 18.0331C31.4396 17.8471 31.3756 17.5561 31.2566 17.3281Z" fill="#006129"/>
<path d="M29.8684 17.4705C29.8494 17.3865 29.7744 17.3535 29.7094 17.3145C29.4674 17.8995 28.9224 18.4875 28.7124 18.7955C28.4724 19.1475 28.5284 19.6415 28.7124 19.5705C28.8954 19.4995 28.9654 18.9645 28.9934 18.7265C29.0214 18.4865 29.5714 18.2615 29.8244 17.9655C29.8264 17.9635 29.8284 17.9605 29.8304 17.9575C29.8664 17.7395 29.8864 17.5485 29.8684 17.4705Z" fill="#FFC6B5"/>
<path d="M30.689 16.315C30.787 16.255 30.824 16.175 30.902 16.138C30.901 16.135 30.899 16.134 30.897 16.131C30.86 16.054 30.844 15.974 30.838 15.891C30.805 15.857 30.776 15.81 30.751 15.749C30.658 15.524 30.757 15.322 30.63 15.254C30.503 15.185 30.616 14.989 30.503 14.947C30.455 14.929 30.364 14.959 30.284 14.977C30.228 15.04 30.178 15.12 30.15 15.229C30.009 15.779 30.22 15.836 30.371 15.877C30.505 15.914 30.499 16.086 30.404 16.253C30.496 16.313 30.592 16.373 30.688 16.314L30.689 16.315Z" fill="#FFC6B5"/>
<path d="M31.257 17.3306C31.376 17.5576 31.439 17.8496 31.389 18.0356C31.31 18.3256 31.065 18.8586 30.998 19.2846C31.039 19.4356 31.089 19.6006 31.15 19.7816C31.21 19.7816 31.274 19.7546 31.333 19.6696C31.502 19.4296 31.572 18.5146 31.699 18.2746C31.826 18.0346 31.756 17.4856 31.558 16.9216C31.524 16.8226 31.485 16.7486 31.444 16.6836C31.366 16.8166 31.278 17.0436 31.259 17.3116C31.259 17.3166 31.258 17.3256 31.257 17.3306Z" fill="#FFC6B5"/>
<path d="M29.7097 17.3111C29.7747 17.3501 29.8507 17.3831 29.8687 17.4671C29.8867 17.5451 29.8677 17.7361 29.8317 17.9541C29.7827 18.2501 29.7017 18.5971 29.6287 18.7921C29.5027 19.1301 29.7137 19.2151 29.7137 19.2151C29.7137 19.2151 29.6587 19.5061 29.5877 19.8701C29.6787 19.9041 29.7157 19.9771 29.5577 20.0681C29.5537 20.0701 29.5537 20.0681 29.5487 20.0711C29.4897 20.3721 29.4267 20.6931 29.3757 20.9351C29.2507 21.5411 29.4887 21.5411 29.5447 21.5411C29.6007 21.5411 29.5577 21.8791 29.5307 22.2181C29.5017 22.5561 29.3057 23.2881 29.4037 23.4231C29.5017 23.5571 30.2067 23.3031 30.6017 23.4021C30.9967 23.5001 31.7157 23.2331 32.0397 23.1621C32.0397 23.1621 31.5187 21.0481 31.3487 20.4171C31.2917 20.2021 31.2207 19.9881 31.1507 19.7811C31.0907 19.6001 31.0397 19.4351 30.9987 19.2841C30.9477 19.0961 30.9137 18.9291 30.9397 18.8251C31.0087 18.5461 31.2277 17.6961 31.2577 17.3301C31.2577 17.3251 31.2597 17.3161 31.2607 17.3111C31.2797 17.0431 31.3677 16.8151 31.4457 16.6831C31.4717 16.6381 31.4967 16.6041 31.5177 16.5831C31.5997 16.5001 31.2077 16.1321 31.0247 16.1181C30.9717 16.1141 30.9347 16.1241 30.9027 16.1391C30.8247 16.1761 30.7877 16.2551 30.6897 16.3161C30.5937 16.3751 30.4967 16.3151 30.4057 16.2551C30.3667 16.2301 30.3287 16.2051 30.2927 16.1891C30.1697 16.1351 29.9967 16.3021 29.9117 16.5131C29.8277 16.7241 29.7427 16.7811 29.6307 17.0621C29.5697 17.2151 29.6337 17.2681 29.7107 17.3141L29.7097 17.3111Z" fill="white"/>
<path d="M30.6304 15.2547C30.7574 15.3227 30.6584 15.5247 30.7514 15.7497C30.7764 15.8107 30.8054 15.8567 30.8384 15.8917C30.9274 15.9837 31.0474 15.9657 31.2224 15.7497C31.4614 15.4537 31.3204 14.9607 30.9824 14.6927C30.6444 14.4247 30.2424 14.6057 30.1604 14.8227C30.0934 15.0017 30.1794 15.0017 30.2854 14.9777C30.3654 14.9597 30.4554 14.9287 30.5044 14.9477C30.6174 14.9897 30.5044 15.1867 30.6314 15.2547H30.6304Z" fill="#9C5100"/>
<path d="M27.1073 15.0852C27.1633 14.9862 26.9373 15.0152 27.0093 14.9022L26.9423 14.6912C26.8853 14.6282 26.7413 14.8892 26.7983 15.0722C26.8313 15.1792 26.8413 15.2772 26.8653 15.3392H26.9983C27.0403 15.2762 27.0523 15.1802 27.1073 15.0852Z" fill="#FF0000"/>
<path d="M27.1073 16.5179C27.1633 16.4189 26.9373 16.4479 27.0093 16.3349L26.9423 16.1229C26.8853 16.0599 26.7413 16.3209 26.7983 16.5039C26.8313 16.6099 26.8423 16.7089 26.8653 16.7709H26.9983C27.0393 16.7079 27.0533 16.6119 27.1073 16.5179Z" fill="#FF0000"/>
<path d="M27.1073 18.1106C27.1633 18.0116 26.9373 18.0406 27.0093 17.9276L26.9423 17.7166C26.8853 17.6536 26.7413 17.9146 26.7983 18.0986C26.8313 18.2056 26.8423 18.3036 26.8653 18.3656H26.9983C27.0403 18.3026 27.0533 18.2066 27.1083 18.1116L27.1073 18.1106Z" fill="#FF0000"/>
<path d="M28.0076 19.6595C28.0636 19.5605 27.8376 19.5895 27.9096 19.4765L27.8426 19.2655C27.7856 19.2025 27.6416 19.4635 27.6986 19.6475C27.7316 19.7535 27.7426 19.8515 27.7656 19.9135H27.8996C27.9406 19.8505 27.9546 19.7555 28.0086 19.6605L28.0076 19.6595Z" fill="#FF0000"/>
<path d="M27.0545 20.9231C27.1105 20.8251 26.8845 20.8521 26.9565 20.7401L26.8895 20.5291C26.8325 20.4661 26.6885 20.7271 26.7455 20.9121C26.7775 21.0181 26.7885 21.1161 26.8125 21.1781H26.9455C26.9875 21.1151 27.0005 21.0191 27.0555 20.9241L27.0545 20.9231Z" fill="#FF0000"/>
<path d="M27.0545 22.4309C27.1105 22.3329 26.8845 22.3609 26.9565 22.2479L26.8895 22.0369C26.8325 21.9739 26.6885 22.2349 26.7455 22.4189C26.7775 22.5249 26.7885 22.6229 26.8125 22.6849H26.9455C26.9875 22.6219 26.9995 22.5259 27.0545 22.4309Z" fill="#FF0000"/>
<path d="M32.4334 22.4309C32.4894 22.3329 32.2634 22.3609 32.3354 22.2479L32.2684 22.0369C32.2114 21.9739 32.0674 22.2349 32.1244 22.4189C32.1564 22.5249 32.1674 22.6229 32.1914 22.6849H32.3244C32.3664 22.6219 32.3784 22.5259 32.4334 22.4309Z" fill="#FF0000"/>
<path d="M32.4334 21.0149C32.4894 20.9169 32.2634 20.9439 32.3354 20.8319L32.2684 20.6209C32.2114 20.5579 32.0674 20.8189 32.1244 21.0039C32.1564 21.1089 32.1674 21.2069 32.1904 21.2689H32.3244C32.3654 21.2059 32.3794 21.1089 32.4334 21.0149Z" fill="#FF0000"/>
<path d="M32.4334 19.5657C32.4894 19.4677 32.2634 19.4957 32.3354 19.3827L32.2684 19.1717C32.2114 19.1087 32.0674 19.3697 32.1244 19.5537C32.1564 19.6597 32.1674 19.7567 32.1904 19.8187H32.3244C32.3654 19.7557 32.3794 19.6607 32.4334 19.5657Z" fill="#FF0000"/>
<path d="M32.4334 18.1106C32.4894 18.0126 32.2634 18.0406 32.3354 17.9276L32.2684 17.7166C32.2114 17.6536 32.0674 17.9146 32.1244 18.0986C32.1564 18.2046 32.1674 18.3026 32.1914 18.3646H32.3244C32.3664 18.3016 32.3784 18.2056 32.4334 18.1106Z" fill="#FF0000"/>
<path d="M32.4334 16.6087C32.4894 16.5107 32.2634 16.5377 32.3354 16.4257L32.2684 16.2147C32.2114 16.1517 32.0674 16.4127 32.1244 16.5977C32.1574 16.7037 32.1674 16.8017 32.1914 16.8637H32.3244C32.3664 16.8007 32.3794 16.7047 32.4344 16.6097L32.4334 16.6087Z" fill="#FF0000"/>
<path d="M32.4334 15.0852C32.4894 14.9872 32.2634 15.0152 32.3354 14.9022L32.2684 14.6912C32.2114 14.6282 32.0674 14.8892 32.1244 15.0732C32.1574 15.1792 32.1674 15.2772 32.1914 15.3392H32.3244C32.3664 15.2762 32.3784 15.1802 32.4334 15.0852Z" fill="#FF0000"/>
<path d="M27.0089 15.5788C27.2199 15.6208 27.4029 15.6638 27.3749 15.7768C27.3469 15.8898 27.5009 15.9438 27.7389 15.9438C27.9769 15.9438 28.0929 15.8878 28.0649 15.8178C28.0369 15.7468 28.1919 15.6768 28.3609 15.4938C28.5299 15.3108 28.3609 15.6638 28.6569 15.4938C28.9529 15.3248 28.5709 15.2118 28.4169 15.3108C28.2629 15.4098 27.9099 15.3248 27.9099 15.3248C27.9099 15.3248 27.8679 14.9718 27.7129 14.9868C27.5579 15.0008 27.4599 15.3398 27.4599 15.3398H26.7129C26.7129 15.3398 26.7969 15.5368 27.0089 15.5788Z" fill="#F8C600"/>
<path d="M27.0089 17.0104C27.2199 17.0524 27.4029 17.0954 27.3749 17.2084C27.3469 17.3214 27.5009 17.3754 27.7389 17.3754C27.9769 17.3754 28.0929 17.3194 28.0649 17.2494C28.0369 17.1794 28.1919 17.1084 28.3609 16.9254C28.5299 16.7424 28.3609 17.0954 28.6569 16.9254C28.9529 16.7564 28.5719 16.6444 28.4169 16.7424C28.2629 16.8414 27.9099 16.7564 27.9099 16.7564C27.9099 16.7564 27.8679 16.4034 27.7129 16.4184C27.5579 16.4324 27.4599 16.7714 27.4599 16.7714H26.7129C26.7129 16.7714 26.7969 16.9684 27.0089 17.0104Z" fill="#F8C600"/>
<path d="M27.0089 18.6022C27.2199 18.6442 27.4029 18.6872 27.3749 18.8002C27.3469 18.9132 27.5009 18.9692 27.7389 18.9692C27.9769 18.9692 28.0929 18.9132 28.0649 18.8432C28.0369 18.7732 28.1919 18.7022 28.3609 18.5192C28.5299 18.3362 28.3609 18.6882 28.6569 18.5192C28.9529 18.3502 28.5709 18.2372 28.4169 18.3362C28.2629 18.4352 27.9099 18.3502 27.9099 18.3502C27.9099 18.3502 27.8679 17.9972 27.7129 18.0122C27.5579 18.0262 27.4599 18.3652 27.4599 18.3652H26.7129C26.7129 18.3652 26.7979 18.5622 27.0099 18.6032L27.0089 18.6022Z" fill="#F8C600"/>
<path d="M29.5902 19.871C29.5112 19.841 29.3922 19.84 29.3202 19.885C29.1662 19.984 28.8132 19.899 28.8132 19.899C28.8132 19.899 28.7712 19.546 28.6152 19.561C28.4602 19.575 28.3622 19.914 28.3622 19.914H27.6152C27.6152 19.914 27.7012 20.11 27.9122 20.152C28.1232 20.194 28.3062 20.237 28.2782 20.35C28.2502 20.463 28.4042 20.519 28.6422 20.519C28.8802 20.519 28.9962 20.463 28.9682 20.393C28.9402 20.323 29.0942 20.252 29.2642 20.069C29.4302 19.889 29.2732 20.224 29.5512 20.072C29.5552 20.07 29.5552 20.072 29.5602 20.069C29.7182 19.979 29.6812 19.906 29.5902 19.871Z" fill="#F8C600"/>
<path d="M26.9562 21.4157C27.1672 21.4577 27.3502 21.5007 27.3222 21.6127C27.2932 21.7257 27.4482 21.7817 27.6862 21.7817C27.9242 21.7817 28.0402 21.7257 28.0122 21.6557C27.9842 21.5857 28.1382 21.5147 28.3082 21.3317C28.4772 21.1487 28.3082 21.5007 28.6042 21.3317C28.9002 21.1627 28.5192 21.0507 28.3642 21.1487C28.2102 21.2477 27.8572 21.1627 27.8572 21.1627C27.8572 21.1627 27.8152 20.8097 27.6602 20.8247C27.5052 20.8387 27.4072 21.1777 27.4072 21.1777H26.6602C26.6602 21.1777 26.7462 21.3737 26.9572 21.4157H26.9562Z" fill="#F8C600"/>
<path d="M26.9562 22.9234C27.1672 22.9654 27.3502 23.0084 27.3222 23.1214C27.2932 23.2344 27.4482 23.2905 27.6862 23.2905C27.9242 23.2905 28.0402 23.2345 28.0122 23.1645C27.9842 23.0945 28.1382 23.0234 28.3082 22.8404C28.4772 22.6574 28.3082 23.0104 28.6042 22.8404C28.9002 22.6724 28.5182 22.5585 28.3642 22.6575C28.2102 22.7565 27.8572 22.6725 27.8572 22.6725C27.8572 22.6725 27.8152 22.3194 27.6602 22.3344C27.5052 22.3484 27.4072 22.6874 27.4072 22.6874H26.6602C26.6602 22.6874 26.7462 22.8835 26.9572 22.9255L26.9562 22.9234Z" fill="#F8C600"/>
<path d="M32.3361 22.9234C32.5471 22.9654 32.7301 23.0084 32.7021 23.1214C32.6731 23.2344 32.8281 23.2905 33.0661 23.2905C33.3041 23.2905 33.4201 23.2345 33.3921 23.1645C33.3641 23.0945 33.5181 23.0234 33.6881 22.8404C33.8571 22.6574 33.6881 23.0094 33.9841 22.8404C34.2801 22.6724 33.8991 22.5595 33.7441 22.6575C33.5901 22.7565 33.2371 22.6725 33.2371 22.6725C33.2371 22.6725 33.1951 22.3194 33.0391 22.3344C32.8841 22.3484 32.7861 22.6874 32.7861 22.6874H32.0391C32.0391 22.6874 32.1231 22.8845 32.3361 22.9255V22.9234Z" fill="#F8C600"/>
<path d="M32.3361 21.5075C32.5471 21.5495 32.7301 21.5925 32.7021 21.7055C32.6731 21.8185 32.8281 21.8735 33.0661 21.8735C33.3041 21.8735 33.4201 21.8175 33.3921 21.7475C33.3641 21.6775 33.5191 21.6065 33.6881 21.4235C33.8571 21.2405 33.6881 21.5925 33.9841 21.4235C34.2801 21.2545 33.8991 21.1425 33.7441 21.2405C33.5901 21.3395 33.2371 21.2545 33.2371 21.2545C33.2371 21.2545 33.1951 20.9015 33.0391 20.9165C32.8841 20.9305 32.7861 21.2695 32.7861 21.2695H32.0391C32.0391 21.2695 32.1231 21.4665 32.3361 21.5075Z" fill="#F8C600"/>
<path d="M32.3361 20.0583C32.5471 20.1003 32.7301 20.1433 32.7021 20.2563C32.6731 20.3693 32.8281 20.4243 33.0661 20.4243C33.3041 20.4243 33.4201 20.3683 33.3921 20.2983C33.3641 20.2283 33.5191 20.1573 33.6881 19.9743C33.8571 19.7913 33.6881 20.1433 33.9841 19.9743C34.2801 19.8053 33.8991 19.6933 33.7441 19.7913C33.5901 19.8903 33.2371 19.8053 33.2371 19.8053C33.2371 19.8053 33.1951 19.4523 33.0391 19.4673C32.8841 19.4813 32.7861 19.8203 32.7861 19.8203H32.0391C32.0391 19.8203 32.1231 20.0173 32.3361 20.0583Z" fill="#F8C600"/>
<path d="M32.3361 18.6022C32.5471 18.6442 32.7301 18.6872 32.7021 18.8002C32.6731 18.9132 32.8281 18.9692 33.0661 18.9692C33.3041 18.9692 33.4201 18.9132 33.3921 18.8432C33.3641 18.7732 33.5191 18.7022 33.6881 18.5192C33.8571 18.3362 33.6881 18.6882 33.9841 18.5192C34.2801 18.3502 33.8991 18.2382 33.7441 18.3362C33.5901 18.4352 33.2371 18.3502 33.2371 18.3502C33.2371 18.3502 33.1951 17.9972 33.0391 18.0122C32.8841 18.0262 32.7861 18.3652 32.7861 18.3652H32.0391C32.0391 18.3652 32.1231 18.5612 32.3361 18.6022Z" fill="#F8C600"/>
<path d="M32.3361 17.1032C32.5471 17.1452 32.7301 17.1882 32.7021 17.3002C32.6731 17.4132 32.8281 17.4692 33.0661 17.4692C33.3041 17.4692 33.4201 17.4132 33.3921 17.3432C33.3641 17.2732 33.5181 17.2022 33.6881 17.0192C33.8571 16.8362 33.6881 17.1882 33.9841 17.0192C34.2801 16.8502 33.8991 16.7382 33.7441 16.8362C33.5901 16.9352 33.2371 16.8502 33.2371 16.8502C33.2371 16.8502 33.1951 16.4972 33.0391 16.5122C32.8841 16.5262 32.7861 16.8652 32.7861 16.8652H32.0391C32.0391 16.8652 32.1231 17.0622 32.3361 17.1032Z" fill="#F8C600"/>
<path d="M35.2008 23.4605C35.0878 23.2725 34.8628 23.0105 34.6228 23.2905C34.3828 23.5695 32.4758 25.4295 30.3718 25.4295C28.2678 25.4295 26.3608 23.5695 26.1208 23.2905C25.8808 23.0105 25.6558 23.2735 25.5428 23.4605C25.4298 23.6485 24.9938 24.0475 24.7108 24.2305C24.4288 24.4135 24.5978 24.8925 24.9358 25.1745C25.2738 25.4565 25.6828 24.8365 25.6828 24.8365C26.8528 25.8785 28.3738 26.8515 30.3708 26.8515C32.3678 26.8515 33.8888 25.8795 35.0588 24.8365C35.0588 24.8365 35.4678 25.4575 35.8058 25.1745C36.1438 24.8925 36.3158 24.4145 36.0328 24.2305C35.7518 24.0475 35.3128 23.6475 35.2008 23.4605Z" fill="#F8C600"/>
<path d="M32.3361 15.5788C32.5471 15.6208 32.7301 15.6638 32.7021 15.7768C32.6731 15.8898 32.8281 15.9438 33.0661 15.9438C33.3041 15.9438 33.4201 15.8878 33.3921 15.8178C33.3641 15.7468 33.5191 15.6768 33.6881 15.4938C33.8571 15.3108 33.6881 15.6628 33.9841 15.4938C34.2801 15.3248 33.8991 15.2128 33.7441 15.3108C33.5901 15.4098 33.2371 15.3248 33.2371 15.3248C33.2371 15.3248 33.1951 14.9718 33.0391 14.9868C32.8841 15.0008 32.7861 15.3398 32.7861 15.3398H32.0391C32.0391 15.3398 32.1231 15.5368 32.3361 15.5788Z" fill="#F8C600"/>
</svg>
