<svg width="41" height="41" viewBox="0 0 41 41" fill="none" xmlns="http://www.w3.org/2000/svg">
<path d="M35.133 8.563C34.927 8.53 34.72 8.5 34.505 8.5H6.495C6.28 8.5 6.073 8.531 5.867 8.563C3.961 8.866 2.5 10.504 2.5 12.495V28.504C2.5 30.495 3.961 32.133 5.867 32.436H35.133C37.039 32.133 38.5 30.495 38.5 28.504V12.496C38.5 10.505 37.039 8.867 35.133 8.564V8.563ZM9.365 18.578C9.243 18.964 8.167 22.11 8.005 22.744C7.842 23.377 8.37 23.47 8.37 23.47H6.523C6.523 23.47 6.969 23.348 6.827 22.744C6.733 22.341 5.589 18.985 5.406 18.558C5.224 18.131 4.817 18.05 4.817 18.05H6.685C6.685 18.05 6.198 18.192 6.36 18.699C6.522 19.206 7.436 21.927 7.436 21.927C7.436 21.927 8.248 19.206 8.431 18.699C8.614 18.19 7.985 18.05 7.985 18.05H9.833C9.833 18.05 9.488 18.192 9.366 18.578H9.365ZM32.031 15.794C32.173 16.2 31.726 16.626 30.731 16.748C30.913 17.032 30.568 17.479 29.614 17.58C29.919 18.048 29.106 18.372 28.071 18.352C28.416 18.555 28.274 19.124 27.787 19.225C27.95 19.549 27.502 20.097 26.975 20.016C26.935 20.28 26.569 20.483 26.224 20.239C26.224 20.584 25.473 20.97 25.25 20.523C25.11 20.664 24.758 20.747 24.452 20.591C24.404 20.717 24.354 20.841 24.3 20.961C24.459 21.287 24.714 21.617 25.091 21.904C25.599 22.29 25.861 22.918 25.842 23.325C25.822 23.731 25.984 24.035 26.228 24.137L26.005 24.219C26.005 24.219 26.37 24.705 26.574 24.746C26.689 24.769 27.055 24.741 27.382 24.746L28.164 21.542H27.696L28.975 19.207V21.967L28.569 21.602L28.061 23.732L29.663 20.723L29.207 20.622L30.964 18.621L30.362 21.316L30.046 20.872L27.945 24.863C27.945 24.863 27.953 24.873 27.957 24.877L30.202 22.218L29.783 22.013L31.955 20.472L30.745 22.954L30.541 22.449L28.19 25.261C28.31 25.524 28.384 25.819 28.238 25.904C27.994 26.046 27.892 26.29 27.751 26.432C27.7 26.483 27.567 26.486 27.411 26.463L27.341 26.758L27.349 26.783L27.636 27.327L27.007 29.845L26.459 29.131L25.646 29.52L25.921 28.631L25.159 29.54L24.98 28.655L24.08 28.649L25.867 26.744L26.022 26.723L26.243 26.335L26.654 26.176C26.517 25.99 26.525 25.35 26.392 25.273C26.25 25.192 24.91 24.583 24.91 24.583L24.889 24.887C24.889 24.887 24.665 24.623 24.483 24.542C24.301 24.461 24.26 24.075 24.159 23.892C24.077 23.746 23.555 23.295 22.836 23.05C22.797 23.089 22.758 23.123 22.719 23.161C23.231 23.294 23.133 23.71 23.133 23.71C23.133 23.71 23.925 24.299 24.433 25.111C24.756 25.627 24.575 26.044 24.311 25.943C24.371 26.268 24.107 26.552 23.824 26.456C23.844 26.767 23.661 27.06 23.397 26.918C23.397 27.324 23.193 27.567 22.95 27.466C22.929 27.832 22.585 28.076 22.341 27.893C22.341 28.543 21.792 28.746 21.367 28.36C21.245 29.539 20.088 29.233 20.007 28.298C19.52 28.806 19.175 28.36 19.154 27.893C18.808 27.994 18.545 27.811 18.504 27.466C18.26 27.526 18.058 27.324 18.017 26.979C17.793 27 17.611 26.796 17.59 26.476C17.326 26.563 17.082 26.309 17.103 26.005C16.92 26.026 16.799 25.843 16.94 25.416C17.081 24.989 17.975 23.752 18.361 23.711C18.344 23.555 18.46 23.214 18.713 23.16C18.674 23.122 18.635 23.089 18.596 23.05C17.873 23.293 17.346 23.748 17.264 23.894C17.163 24.077 17.123 24.463 16.94 24.544C16.757 24.625 16.534 24.889 16.534 24.889L16.514 24.585C16.514 24.585 15.174 25.194 15.032 25.275C14.917 25.34 14.907 25.812 14.822 26.068C15.167 26.676 15.587 27.29 15.803 27.55C15.803 27.55 15.62 27.673 15.438 27.632C15.256 27.591 14.992 27.641 14.992 27.641L14.275 26.407C14.021 26.477 13.75 26.511 13.671 26.433C13.529 26.291 13.427 26.047 13.184 25.905C12.971 25.78 13.223 25.207 13.412 24.942C13.369 24.981 12.556 25.706 11.804 25.035C12.21 25.157 12.697 24.344 13.286 24.69C12.737 24.181 11.682 25.075 11.154 23.836C11.885 24.283 12.312 23.572 12.981 24.019C12.331 23.288 11.377 24.086 10.991 23.099C11.58 23.309 12.067 22.666 12.595 23.099C12.149 22.192 10.788 23.451 10.524 21.929C11.113 22.233 11.762 21.848 12.128 22.152C11.438 20.833 10.809 22.354 10.22 20.426C10.626 20.994 11.194 20.447 11.783 21.34C11.356 19.716 10.2 21.076 9.834 19.168C10.565 18.925 10.869 20 11.458 20.223C11.093 18.963 10.321 19.328 10.788 17.846C11.843 18.374 11.377 19.267 11.721 20.303C11.985 19.938 11.64 19.471 11.823 19.147C12.006 18.823 12.107 18.66 12.046 18.497C13 19.593 11.842 20.527 11.945 20.913C12.046 21.299 12.209 21.441 12.209 21.441C12.209 21.441 12.108 20.852 12.31 20.507C12.513 20.162 12.838 20.04 12.818 19.736C13.041 20 12.96 20.609 12.696 20.913C12.432 21.217 12.391 21.969 12.554 22.232C12.492 21.409 13.224 21.46 13.103 20.628C13.509 20.709 13.653 21.643 13.204 21.988C12.757 22.333 13.103 23.287 13.103 23.287C13.103 23.287 13.124 22.679 13.367 22.394C13.611 22.11 13.753 21.805 13.691 21.521C14.015 21.785 14.056 22.536 13.833 22.902C13.61 23.268 13.265 23.47 13.61 24.059C13.569 22.983 14.3 23.186 14.28 22.496C14.707 22.822 14.463 23.512 14.22 23.735C13.977 23.958 14.017 24.466 14.017 24.466C14.017 24.466 14.281 24.1 14.484 23.958C14.687 23.817 14.827 23.408 14.827 23.408C14.827 23.408 15.078 24.674 14.279 24.727C14.279 24.732 14.282 24.741 14.282 24.747C14.529 24.752 14.759 24.764 14.846 24.747C15.049 24.706 15.414 24.22 15.414 24.22L15.191 24.138C15.435 24.036 15.596 23.732 15.577 23.326C15.558 22.92 15.821 22.291 16.328 21.905C16.711 21.614 16.969 21.278 17.128 20.947C17.076 20.832 17.028 20.714 16.983 20.593C16.678 20.747 16.328 20.664 16.187 20.524C15.964 20.97 15.213 20.585 15.213 20.24C14.868 20.484 14.503 20.281 14.462 20.017C13.935 20.099 13.488 19.55 13.65 19.226C13.163 19.125 13.02 18.556 13.365 18.353C12.33 18.373 11.519 18.048 11.823 17.581C10.869 17.48 10.523 17.033 10.706 16.749C9.711 16.627 9.265 16.201 9.407 15.795C8.088 15.572 7.783 14.902 7.925 14.618C6.828 14.374 6.524 13.827 6.767 13.563C6.158 13.522 6.036 12.913 6.239 12.69C5.529 12.366 5.672 11.573 6.148 11.635C6.624 11.697 8.168 12.529 10.989 13.076C11.152 12.954 11.458 13.016 11.945 13.24C12.432 13.463 14.766 14.113 15.416 14.357C16.066 14.601 16.409 15.103 16.33 15.534C16.188 16.306 15.62 16.427 15.822 16.651C15.956 16.799 16.268 16.621 16.582 16.552V15.595C16.582 15.595 17.481 16.105 18.591 16.105C18.61 16.105 18.628 16.102 18.646 16.102C18.773 15.902 18.846 15.718 18.846 15.718C18.846 15.718 18.562 15.758 18.379 15.535C18.684 15.495 19.11 15.19 19.252 14.967C18.988 14.988 18.815 14.804 18.815 14.804C18.815 14.804 19.414 14.642 19.495 14.296C19.576 13.95 19.617 13.767 19.759 13.626C19.901 13.485 19.637 13.039 19.272 13.079C18.907 13.119 18.459 13.16 18.379 13.383C18.238 12.997 18.461 12.57 18.806 12.51C19.151 12.449 19.366 12.429 19.366 12.429C19.366 12.429 19.415 12.144 19.658 12.165C19.984 11.739 20.195 11.698 20.739 11.719C21.283 11.74 21.547 12.065 21.77 12.491C21.993 12.917 21.953 13.891 22.42 14.318C22.298 14.481 21.933 14.318 21.933 14.318C21.933 14.318 22.297 14.948 22.866 15.272C22.784 15.414 22.439 15.475 22.439 15.475C22.439 15.475 22.743 15.752 22.904 16.103C23.984 16.084 24.852 15.597 24.852 15.597V16.553C25.166 16.622 25.478 16.8 25.612 16.652C25.815 16.429 25.247 16.307 25.104 15.535C25.026 15.104 25.369 14.602 26.018 14.358C26.667 14.114 29.002 13.464 29.489 13.241C29.976 13.018 30.28 12.957 30.443 13.078C33.266 12.53 34.807 11.697 35.285 11.637C35.76 11.577 35.904 12.368 35.197 12.69C35.401 12.913 35.278 13.522 34.669 13.563C34.913 13.827 34.608 14.375 33.511 14.618C33.652 14.901 33.348 15.572 32.029 15.795L32.031 15.794ZM34.336 23.471C34.336 23.471 34.726 23.304 34.726 22.877C34.726 22.553 34.738 19.169 34.738 18.72C34.738 18.278 34.407 18.05 34.407 18.05H36.112C36.112 18.05 35.686 18.233 35.687 18.621V22.846C35.687 23.211 36.183 23.471 36.183 23.471H34.337H34.336Z" fill="#E3E7EA"/>
<path d="M14.28 24.7487C14.28 24.7427 14.277 24.7347 14.277 24.7287C15.076 24.6757 14.825 23.4097 14.825 23.4097C14.825 23.4097 14.685 23.8177 14.482 23.9597C14.279 24.1007 14.015 24.4677 14.015 24.4677C14.015 24.4677 13.974 23.9587 14.218 23.7367C14.462 23.5147 14.705 22.8237 14.278 22.4977C14.297 23.1877 13.567 22.9847 13.608 24.0607C13.263 23.4717 13.608 23.2687 13.831 22.9037C14.054 22.5387 14.013 21.7867 13.689 21.5227C13.75 21.8067 13.608 22.1117 13.365 22.3957C13.121 22.6807 13.101 23.2887 13.101 23.2887C13.101 23.2887 12.755 22.3347 13.202 21.9897C13.65 21.6447 13.507 20.7097 13.101 20.6297C13.223 21.4617 12.49 21.4107 12.552 22.2337C12.389 21.9707 12.43 21.2187 12.694 20.9147C12.958 20.6107 13.039 20.0017 12.816 19.7377C12.836 20.0427 12.511 20.1647 12.308 20.5087C12.105 20.8537 12.207 21.4427 12.207 21.4427C12.207 21.4427 12.044 21.3007 11.943 20.9147C11.841 20.5287 12.998 19.5957 12.044 18.4987C12.105 18.6617 12.004 18.8247 11.821 19.1487C11.638 19.4727 11.983 19.9397 11.719 20.3047C11.374 19.2687 11.841 18.3767 10.786 17.8477C10.319 19.3297 11.091 18.9647 11.456 20.2247C10.866 20.0017 10.562 18.9257 9.83203 19.1697C10.197 21.0777 11.354 19.7177 11.781 21.3417C11.192 20.4477 10.624 20.9957 10.218 20.4277C10.807 22.3547 11.436 20.8337 12.126 22.1537C11.761 21.8497 11.111 22.2347 10.522 21.9307C10.786 23.4527 12.146 22.1937 12.593 23.1007C12.065 22.6677 11.578 23.3107 10.989 23.1007C11.375 24.0877 12.329 23.2897 12.979 24.0207C12.31 23.5737 11.883 24.2847 11.152 23.8377C11.68 25.0767 12.735 24.1827 13.284 24.6917C12.694 24.3457 12.208 25.1587 11.802 25.0367C12.553 25.7077 13.367 24.9837 13.41 24.9437C13.437 24.9057 13.463 24.8737 13.486 24.8507C13.591 24.7467 13.953 24.7427 14.282 24.7497L14.28 24.7487Z" fill="#379543"/>
<path d="M14.2715 26.4074L14.9885 27.6414C14.9885 27.6414 15.2525 27.5914 15.4345 27.6324C15.6165 27.6734 15.7995 27.5504 15.7995 27.5504C15.5835 27.2914 15.1635 26.6764 14.8185 26.0684C14.7985 26.1294 14.7755 26.1824 14.7435 26.2094C14.6705 26.2724 14.4765 26.3504 14.2715 26.4074Z" fill="#379543"/>
<path d="M7.98441 18.0527C7.98441 18.0527 8.61441 18.1927 8.43041 18.7017C8.24741 19.2097 7.43541 21.9297 7.43541 21.9297C7.43541 21.9297 6.52141 19.2077 6.35941 18.7017C6.19741 18.1947 6.68441 18.0527 6.68441 18.0527H4.81641C4.81641 18.0527 5.22241 18.1337 5.40541 18.5607C5.58741 18.9877 6.73141 22.3437 6.82641 22.7467C6.96841 23.3507 6.52241 23.4727 6.52241 23.4727H8.36941C8.36941 23.4727 7.84141 23.3797 8.00441 22.7467C8.16741 22.1137 9.24241 18.9667 9.36441 18.5807C9.48641 18.1947 9.83141 18.0527 9.83141 18.0527H7.98441Z" fill="#0AC9D7"/>
<path d="M30.541 22.4516L30.745 22.9566L31.955 20.4746L29.783 22.0156L30.202 22.2206L27.957 24.8796C28.028 24.9606 28.116 25.1046 28.19 25.2636L30.541 22.4516Z" fill="#0AC9D7"/>
<path d="M35.685 22.8468V18.6218C35.685 18.2338 36.11 18.0508 36.11 18.0508H34.405C34.405 18.0508 34.736 18.2788 34.736 18.7208C34.736 19.1698 34.724 22.5538 34.724 22.8778C34.724 23.3048 34.334 23.4718 34.334 23.4718H36.18C36.18 23.4718 35.685 23.2128 35.685 22.8468Z" fill="#0AC9D7"/>
<path d="M26.6541 26.1797L26.2431 26.3387L26.0221 26.7267L25.8671 26.7477L24.0801 28.6527L24.9801 28.6587L25.1591 29.5437L25.9211 28.6347L25.6461 29.5237L26.4591 29.1347L27.0071 29.8487L27.6361 27.3307L27.3491 26.7867L27.3411 26.7617L27.4111 26.4667C27.1331 26.4267 26.7801 26.3027 26.6751 26.2117C26.6671 26.2047 26.6611 26.1907 26.6541 26.1807V26.1797Z" fill="#0AC9D7"/>
<path d="M27.9458 24.8631L30.0468 20.8721L30.3628 21.3161L30.9648 18.6211L29.2078 20.6221L29.6638 20.7231L28.0618 23.7321L28.5698 21.6021L28.9758 21.9671V19.2071L27.6968 21.5421H28.1648L27.3828 24.7461C27.6298 24.7491 27.8568 24.7701 27.9348 24.8481C27.9388 24.8521 27.9428 24.8581 27.9468 24.8621L27.9458 24.8631Z" fill="#0AC9D7"/>
<path d="M22.8429 16.1042C22.8639 16.1042 22.8829 16.1012 22.9039 16.1012C22.7429 15.7492 22.4389 15.4732 22.4389 15.4732C22.4389 15.4732 22.7839 15.4122 22.8659 15.2702C22.2969 14.9462 21.9329 14.3162 21.9329 14.3162C21.9329 14.3162 22.2979 14.4792 22.4199 14.3162C21.9529 13.8892 21.9929 12.9152 21.7699 12.4892C21.5469 12.0632 21.2829 11.7382 20.7389 11.7172C20.1949 11.6962 19.9839 11.7382 19.6579 12.1632C19.4139 12.1422 19.3659 12.4272 19.3659 12.4272C19.3659 12.4272 19.1509 12.4472 18.8059 12.5082C18.4609 12.5682 18.2379 12.9952 18.3789 13.3812C18.4599 13.1582 18.9069 13.1172 19.2719 13.0772C19.6369 13.0372 19.9019 13.4832 19.7589 13.6242C19.6169 13.7652 19.5759 13.9492 19.4949 14.2942C19.4139 14.6402 18.8149 14.8022 18.8149 14.8022C18.8149 14.8022 18.9869 14.9852 19.2519 14.9652C19.1099 15.1882 18.6839 15.4932 18.3789 15.5332C18.5619 15.7562 18.8459 15.7162 18.8459 15.7162C18.8459 15.7162 18.7729 15.9002 18.6459 16.1002C19.7339 16.0832 20.7169 15.5732 20.7169 15.5732C20.7169 15.5732 21.7329 16.1032 22.8439 16.1032L22.8429 16.1042Z" fill="#F4C63D"/>
<path d="M34.6702 13.5622C35.2792 13.5212 35.4022 12.9122 35.1982 12.6892C35.9042 12.3662 35.7612 11.5752 35.2862 11.6362C34.8092 11.6972 33.2672 12.5302 30.4442 13.0772C30.2812 12.9552 29.9772 13.0162 29.4902 13.2402C29.0032 13.4642 26.6682 14.1132 26.0192 14.3572C25.3702 14.6012 25.0272 15.1032 25.1052 15.5342C25.2472 16.3062 25.8152 16.4282 25.6132 16.6512C25.4792 16.7992 25.1672 16.6202 24.8532 16.5522V18.4182C24.8532 18.5152 24.8432 18.6072 24.8382 18.7022H24.8332C24.8022 19.3952 24.6662 20.0252 24.4512 20.5942C24.7572 20.7492 25.1092 20.6662 25.2492 20.5262C25.4722 20.9722 26.2232 20.5872 26.2232 20.2422C26.5682 20.4862 26.9342 20.2832 26.9742 20.0192C27.5012 20.1002 27.9482 19.5522 27.7862 19.2282C28.2732 19.1272 28.4152 18.5582 28.0702 18.3552C29.1052 18.3762 29.9182 18.0512 29.6132 17.5832C30.5672 17.4822 30.9122 17.0342 30.7302 16.7512C31.7252 16.6292 32.1722 16.2032 32.0302 15.7972C33.3492 15.5742 33.6532 14.9032 33.5122 14.6202C34.6082 14.3762 34.9132 13.8292 34.6702 13.5652V13.5622Z" fill="#F4C63D"/>
<path d="M16.5953 18.7002C16.5923 18.6272 16.5873 18.5552 16.5853 18.4822V18.4782V18.4762C16.5853 18.4562 16.5823 18.4372 16.5823 18.4162V16.5512C16.2683 16.6202 15.9563 16.7982 15.8223 16.6502C15.6193 16.4262 16.1873 16.3052 16.3303 15.5332C16.4093 15.1022 16.0663 14.6002 15.4163 14.3562C14.7663 14.1122 12.4323 13.4622 11.9453 13.2392C11.4583 13.0162 11.1523 12.9542 10.9893 13.0752C8.16826 12.5272 6.62526 11.6952 6.14826 11.6342C5.67126 11.5732 5.52826 12.3652 6.23926 12.6892C6.03626 12.9122 6.15826 13.5212 6.76726 13.5622C6.52326 13.8262 6.82726 14.3742 7.92526 14.6172C7.78326 14.9012 8.08826 15.5712 9.40726 15.7942C9.26526 16.2002 9.71126 16.6262 10.7063 16.7482C10.5233 17.0332 10.8693 17.4792 11.8233 17.5802C11.5193 18.0472 12.3313 18.3712 13.3653 18.3522C13.0203 18.5552 13.1623 19.1242 13.6503 19.2252C13.4873 19.5492 13.9343 20.0982 14.4623 20.0162C14.5033 20.2802 14.8683 20.4832 15.2133 20.2392C15.2133 20.5842 15.9643 20.9702 16.1873 20.5232C16.3283 20.6632 16.6783 20.7462 16.9833 20.5922C16.7683 20.0222 16.6313 19.3912 16.6003 18.6972H16.5963L16.5953 18.7002Z" fill="#F4C63D"/>
<path d="M17.8788 22.2352C17.6128 21.8792 17.3718 21.4862 17.1708 21.0562C17.1548 21.0212 17.1428 20.9832 17.1268 20.9492C16.9678 21.2802 16.7098 21.6162 16.3268 21.9072C15.8188 22.2932 15.5558 22.9212 15.5758 23.3282C15.5958 23.7352 15.4338 24.0382 15.1898 24.1402L15.4128 24.2222C15.4128 24.2222 15.0478 24.7082 14.8448 24.7492C14.7578 24.7672 14.5278 24.7552 14.2808 24.7492C13.9508 24.7422 13.5888 24.7462 13.4848 24.8502C13.4618 24.8732 13.4358 24.9052 13.4088 24.9432C13.2198 25.2072 12.9678 25.7812 13.1808 25.9062C13.4248 26.0482 13.5258 26.2922 13.6678 26.4342C13.7468 26.5132 14.0168 26.4782 14.2718 26.4082C14.4768 26.3522 14.6718 26.2732 14.7438 26.2102C14.7748 26.1832 14.7988 26.1302 14.8188 26.0692C14.9038 25.8132 14.9138 25.3412 15.0288 25.2762C15.1708 25.1952 16.5108 24.5862 16.5108 24.5862L16.5308 24.8902C16.5308 24.8902 16.7538 24.6262 16.9368 24.5452C17.1198 24.4642 17.1598 24.0782 17.2608 23.8952C17.3418 23.7482 17.8688 23.2942 18.5928 23.0512C18.5518 23.0092 18.5098 22.9762 18.4688 22.9332L17.8798 22.2352H17.8788Z" fill="#F4C63D"/>
<path d="M23.556 22.2318L22.966 22.9298C22.923 22.9758 22.878 23.0098 22.834 23.0538C23.553 23.2978 24.076 23.7498 24.157 23.8958C24.258 24.0788 24.299 24.4648 24.481 24.5458C24.663 24.6268 24.887 24.8908 24.887 24.8908L24.908 24.5868C24.908 24.5868 26.248 25.1958 26.39 25.2768C26.523 25.3538 26.515 25.9928 26.652 26.1798C26.659 26.1898 26.665 26.2038 26.673 26.2108C26.778 26.3018 27.131 26.4248 27.409 26.4658C27.565 26.4878 27.698 26.4858 27.749 26.4348C27.89 26.2928 27.993 26.0488 28.236 25.9068C28.382 25.8218 28.308 25.5268 28.188 25.2638C28.115 25.1038 28.026 24.9608 27.955 24.8798C27.951 24.8758 27.947 24.8698 27.943 24.8658C27.939 24.8618 27.935 24.8548 27.931 24.8518C27.853 24.7738 27.626 24.7528 27.379 24.7498C27.051 24.7458 26.686 24.7738 26.571 24.7498C26.367 24.7088 26.002 24.2228 26.002 24.2228L26.225 24.1408C25.981 24.0388 25.819 23.7348 25.839 23.3288C25.857 22.9228 25.595 22.2938 25.088 21.9078C24.712 21.6208 24.457 21.2908 24.297 20.9648C24.284 20.9948 24.273 21.0268 24.259 21.0568C24.057 21.4858 23.819 21.8778 23.553 22.2328L23.556 22.2318Z" fill="#F4C63D"/>
<path d="M21.663 24.0621C21.431 24.2321 21.21 24.3801 21.01 24.5061C20.906 24.5711 20.806 24.6331 20.715 24.6871C20.623 24.6321 20.524 24.5711 20.42 24.5061C20.204 24.3711 19.963 24.2081 19.712 24.0221L19.123 23.5531C18.985 23.4341 18.848 23.2951 18.71 23.1621C18.457 23.2161 18.34 23.5571 18.358 23.7131C17.972 23.7541 17.079 24.9911 16.937 25.4181C16.795 25.8451 16.917 26.0281 17.1 26.0071C17.08 26.3111 17.323 26.5651 17.587 26.4781C17.608 26.7981 17.79 27.0011 18.014 26.9811C18.055 27.3261 18.258 27.5291 18.501 27.4681C18.542 27.8131 18.805 27.9961 19.151 27.8951C19.171 28.3621 19.516 28.8081 20.004 28.3001C20.085 29.2351 21.242 29.5401 21.364 28.3621C21.79 28.7481 22.338 28.5451 22.338 27.8951C22.582 28.0781 22.927 27.8341 22.947 27.4681C23.191 27.5691 23.394 27.3261 23.394 26.9201C23.658 27.0621 23.841 26.7691 23.821 26.4581C24.105 26.5541 24.369 26.2711 24.308 25.9451C24.572 26.0461 24.753 25.6291 24.43 25.1131C23.922 24.3011 23.13 23.7121 23.13 23.7121C23.13 23.7121 23.228 23.2961 22.716 23.1631C22.562 23.3121 22.408 23.4681 22.254 23.5991L21.663 24.0621Z" fill="#F4C63D"/>
<path d="M24.2619 18.6992V21.0522C24.0599 21.4812 23.8219 21.8732 23.5559 22.2282V18.6992H22.9659V22.9272C22.7329 23.1732 22.4919 23.3962 22.2549 23.5972V18.6992H21.6639V24.0592C21.4319 24.2292 21.2109 24.3772 21.0109 24.5032V18.6992H20.4209V24.5032C20.2049 24.3682 19.9639 24.2052 19.7129 24.0192V18.6992H19.1239V23.5512C18.9049 23.3632 18.6849 23.1582 18.4699 22.9322V18.6992H17.8809V22.2342L18.4699 22.9322C18.5109 22.9752 18.5529 23.0082 18.5939 23.0502C18.6329 23.0892 18.6719 23.1232 18.7109 23.1602C18.8479 23.2932 18.9849 23.4322 19.1239 23.5512L19.7129 24.0192C19.9639 24.2052 20.2049 24.3682 20.4209 24.5032C20.5249 24.5682 20.6249 24.6312 20.7159 24.6852C20.8079 24.6302 20.9069 24.5682 21.0109 24.5032C21.2109 24.3772 21.4319 24.2292 21.6639 24.0602L22.2549 23.5982C22.4099 23.4672 22.5629 23.3122 22.7169 23.1622C22.7559 23.1242 22.7949 23.0902 22.8339 23.0512C22.8779 23.0072 22.9229 22.9722 22.9659 22.9272L23.5559 22.2282C23.8219 21.8732 24.0609 21.4822 24.2619 21.0532C24.2759 21.0232 24.2859 20.9912 24.2999 20.9612C24.3539 20.8412 24.4049 20.7172 24.4519 20.5912C24.6669 20.0222 24.8029 19.3922 24.8339 18.6992H24.2619Z" fill="white"/>
<path d="M17.1716 18.6992H16.5996C16.6306 19.3932 16.7676 20.0242 16.9826 20.5942C17.0276 20.7142 17.0766 20.8332 17.1276 20.9482C17.1436 20.9832 17.1556 21.0212 17.1716 21.0552V18.6992Z" fill="white"/>
<path d="M19.7148 24.0212C19.9658 24.2072 20.2068 24.3702 20.4228 24.5052V18.7012H19.7148V24.0212Z" fill="#A70033"/>
<path d="M21.0117 24.5052C21.2117 24.3792 21.4327 24.2302 21.6647 24.0612V18.7012H21.0117V24.5052Z" fill="#A70033"/>
<path d="M23.5566 22.2302C23.8226 21.8752 24.0616 21.4832 24.2626 21.0542V18.7012H23.5566V22.2302Z" fill="#A70033"/>
<path d="M22.2539 23.5992C22.4919 23.3972 22.7319 23.1742 22.9649 22.9292V18.7012H22.2539V23.5992Z" fill="#A70033"/>
<path d="M18.4707 22.9322C18.6847 23.1582 18.9057 23.3632 19.1247 23.5512V18.6992H18.4707V22.9322Z" fill="#A70033"/>
<path d="M17.1719 21.0572C17.3739 21.4872 17.6139 21.8802 17.8799 22.2362V18.7012H17.1719V21.0572Z" fill="#A70033"/>
<path d="M16.584 18.4772C16.584 18.4772 16.584 18.4812 16.584 18.4832C16.587 18.5562 16.591 18.6282 16.594 18.7012H24.838C24.843 18.6072 24.853 18.5152 24.853 18.4172V15.5952C24.853 15.5952 23.985 16.0832 22.905 16.1012C22.884 16.1012 22.865 16.1042 22.844 16.1042C21.733 16.1042 20.717 15.5742 20.717 15.5742C20.717 15.5742 19.734 16.0842 18.646 16.1012C18.627 16.1012 18.609 16.1042 18.591 16.1042C17.481 16.1042 16.582 15.5942 16.582 15.5942V18.4162C16.582 18.4372 16.584 18.4562 16.585 18.4762L16.584 18.4772Z" fill="#2B317D"/>
</svg>
