<svg width="41" height="41" viewBox="0 0 41 41" fill="none" xmlns="http://www.w3.org/2000/svg">
<path d="M7.57031 19.5409C7.57031 19.5519 7.57131 19.5589 7.57131 19.5679C7.59131 19.5629 7.60931 19.5579 7.63031 19.5529C7.62731 19.5359 7.62331 19.5219 7.62131 19.5039H7.61431C7.60031 19.5159 7.58431 19.5289 7.57031 19.5409Z" fill="black"/>
<path d="M7.65653 19.6791C7.65653 19.6791 7.65453 19.6701 7.65353 19.6641C7.65053 19.6641 7.64753 19.6661 7.64453 19.6671C7.64853 19.6711 7.65253 19.6751 7.65653 19.6791Z" fill="black"/>
<path d="M7.76081 19.774C7.78481 19.798 7.81481 19.821 7.83781 19.845C7.82581 19.789 7.80281 19.663 7.80881 19.582C7.80081 19.596 7.77981 19.608 7.75781 19.62C7.76281 19.695 7.76081 19.751 7.75981 19.773L7.76081 19.774Z" fill="black"/>
<path d="M7.41056 19.5679C7.41056 19.5589 7.41056 19.5519 7.41156 19.5409C7.39756 19.5289 7.38156 19.5169 7.36756 19.5039H7.36056C7.35856 19.5209 7.35456 19.5349 7.35156 19.5529C7.37256 19.5579 7.39156 19.5629 7.41156 19.5679H7.41056Z" fill="black"/>
<path d="M21.5323 21.1319L18.5243 22.6479L3.0293 30.4549C3.2903 30.9169 3.6363 31.3199 4.0533 31.6439L21.9093 22.6469H38.4993V21.1309L21.5323 21.1319Z" fill="black"/>
<path d="M7.34022 19.6671C7.34022 19.6671 7.33222 19.6651 7.32822 19.6641C7.32622 19.6711 7.32422 19.6791 7.32422 19.6831C7.32922 19.6781 7.33522 19.6731 7.34022 19.6681V19.6671Z" fill="black"/>
<path d="M4.0533 9.35547C3.6363 9.68047 3.2903 10.0825 3.0293 10.5445L18.5243 18.3515L21.5323 19.8675H38.4993V18.3515H21.9093L4.0533 9.35547Z" fill="black"/>
<path d="M7.14453 19.849C7.16853 19.824 7.19753 19.802 7.22253 19.777C7.22153 19.758 7.21853 19.698 7.22453 19.62C7.20353 19.608 7.18253 19.596 7.17453 19.582C7.18153 19.665 7.15553 19.797 7.14453 19.849Z" fill="black"/>
<path d="M18.713 21.1313L19.967 20.4993L18.713 19.8673L15.704 18.3513L2.577 11.7383C2.529 11.9853 2.5 12.2393 2.5 12.4993V28.4993C2.5 28.7603 2.529 29.0143 2.577 29.2613L15.705 22.6463L18.713 21.1313ZM7.33 24.1623V22.7953C8.798 22.7953 9.719 21.3383 9.719 20.1943C9.719 19.0503 8.763 17.9143 7.455 17.9143C6.147 17.9143 5.396 19.1043 5.396 19.9933C5.396 20.8823 6.169 21.7833 7.409 21.7833C8.649 21.7833 9.24 20.7053 9.24 20.1943C9.434 21.9953 7.728 22.3953 7.272 22.3953C6.816 22.3953 4.508 22.1733 4.508 19.7713C4.508 17.3693 6.862 16.8363 7.625 16.8363C8.388 16.8363 10.935 17.3813 10.935 20.3153C10.935 23.2493 8.547 24.1623 7.33 24.1623ZM7.969 20.4733C7.937 20.3633 8.226 20.5163 8.333 20.5753C8.317 20.5513 8.295 20.5233 8.277 20.4983C8.191 20.4693 7.899 20.3643 7.866 20.2603C7.837 20.1703 8.043 20.2673 8.15 20.3223C8.131 20.2973 8.107 20.2703 8.086 20.2443C7.994 20.2213 7.699 20.1383 7.648 20.0173C7.601 19.9063 7.849 20.0343 7.959 20.0953C7.924 20.0553 7.896 20.0173 7.858 19.9763C7.791 19.9663 7.608 19.9303 7.491 19.8433C7.374 19.9303 7.191 19.9663 7.124 19.9763C7.086 20.0173 7.058 20.0553 7.023 20.0953C7.133 20.0343 7.381 19.9063 7.334 20.0173C7.284 20.1373 6.989 20.2203 6.897 20.2443C6.876 20.2703 6.852 20.2973 6.833 20.3223C6.94 20.2673 7.146 20.1693 7.117 20.2593C7.084 20.3633 6.793 20.4673 6.706 20.4973C6.688 20.5223 6.666 20.5503 6.65 20.5743C6.757 20.5143 7.046 20.3623 7.015 20.4723C6.98 20.5933 6.638 20.6793 6.571 20.6953C6.555 20.7193 6.541 20.7433 6.527 20.7653C6.614 20.7193 6.909 20.5673 6.912 20.6643C6.916 20.7643 6.544 20.8593 6.456 20.8803C6.392 20.9923 6.357 21.0653 6.355 21.0683L6.345 21.0913L6.252 21.0323C6.255 21.0273 6.26 21.0203 6.264 21.0143C6.267 21.0083 6.271 21.0043 6.274 20.9993C6.314 20.9333 6.367 20.8593 6.412 20.7903C6.408 20.7813 6.236 20.4333 6.392 20.2763C6.543 20.1243 6.483 20.6463 6.478 20.6893C6.5 20.6563 6.519 20.6243 6.543 20.5903C6.535 20.5583 6.443 20.1593 6.558 20.0713C6.671 19.9853 6.625 20.4253 6.619 20.4753C6.64 20.4463 6.667 20.4183 6.689 20.3893C6.683 20.3563 6.618 19.9723 6.728 19.8963C6.84 19.8193 6.776 20.2613 6.773 20.2873C6.799 20.2543 6.828 20.2213 6.855 20.1873C6.85 20.1513 6.799 19.7913 6.934 19.6993C7.067 19.6083 6.966 20.0223 6.954 20.0673C6.985 20.0313 7.011 19.9953 7.043 19.9603C7.037 19.9013 7.014 19.6043 7.122 19.5283C7.154 19.5053 7.169 19.5243 7.175 19.5593C7.181 19.5413 7.201 19.5323 7.239 19.5353C7.241 19.5213 7.243 19.5073 7.246 19.4943C7.119 19.4843 6.968 19.4593 6.936 19.3943C6.894 19.3103 7.098 19.3433 7.202 19.3643C7.176 19.3433 7.153 19.3223 7.127 19.3023C7.039 19.3023 6.779 19.2963 6.737 19.2233C6.697 19.1563 6.916 19.1953 7.019 19.2163C6.996 19.1993 6.968 19.1833 6.944 19.1663C6.855 19.1693 6.592 19.1703 6.553 19.0903C6.52 19.0223 6.703 19.0553 6.814 19.0803C6.789 19.0633 6.763 19.0463 6.737 19.0293C6.59 19.0113 6.23 18.9603 6.268 18.8873C6.298 18.8283 6.462 18.8803 6.58 18.9253C6.556 18.9113 6.537 18.8943 6.512 18.8803L6.52 18.8763C6.43 18.8263 6.295 18.7393 6.339 18.6703C6.392 18.5873 6.522 18.7893 6.566 18.8623C6.603 18.8823 6.633 18.9093 6.669 18.9293C6.616 18.8653 6.469 18.6823 6.565 18.7003C6.676 18.7203 6.809 19.0083 6.818 19.0273C6.845 19.0443 6.871 19.0623 6.898 19.0793C6.873 19.0443 6.653 18.7313 6.774 18.7673C6.899 18.8033 6.994 19.1293 6.999 19.1453C7.025 19.1633 7.053 19.1793 7.079 19.1973C7.047 19.1453 6.88 18.8623 7.005 18.9003C7.128 18.9373 7.177 19.2123 7.185 19.2663C7.209 19.2843 7.237 19.2973 7.261 19.3153C7.222 19.2233 7.12 18.9683 7.223 18.9993C7.334 19.0333 7.368 19.3493 7.374 19.4163C7.39 19.4293 7.403 19.4443 7.418 19.4573C7.42 19.4373 7.424 19.4203 7.428 19.3993C7.391 19.2903 7.359 19.1583 7.449 19.2003C7.469 19.2093 7.478 19.2323 7.492 19.2503C7.506 19.2323 7.516 19.2093 7.535 19.2003C7.625 19.1583 7.593 19.2913 7.556 19.3993C7.56 19.4203 7.564 19.4383 7.566 19.4583C7.581 19.4453 7.594 19.4313 7.61 19.4183C7.616 19.3553 7.65 19.0343 7.762 19.0003C7.864 18.9693 7.764 19.2243 7.725 19.3163C7.748 19.2983 7.776 19.2853 7.8 19.2673C7.808 19.2143 7.857 18.9383 7.98 18.9003C8.104 18.8623 7.938 19.1453 7.907 19.1973C7.932 19.1793 7.96 19.1633 7.986 19.1453C7.99 19.1313 8.086 18.8023 8.211 18.7663C8.332 18.7303 8.108 19.0483 8.086 19.0803C8.113 19.0633 8.139 19.0453 8.166 19.0283C8.173 19.0133 8.308 18.7203 8.42 18.7003C8.518 18.6823 8.366 18.8713 8.315 18.9313C8.351 18.9103 8.381 18.8833 8.419 18.8633C8.462 18.7923 8.593 18.5863 8.647 18.6693C8.691 18.7383 8.557 18.8253 8.467 18.8753L8.475 18.8793C8.451 18.8933 8.432 18.9093 8.408 18.9243C8.526 18.8793 8.69 18.8283 8.72 18.8873C8.757 18.9603 8.397 19.0123 8.25 19.0293C8.224 19.0463 8.198 19.0633 8.173 19.0803C8.284 19.0553 8.467 19.0223 8.433 19.0903C8.394 19.1713 8.132 19.1693 8.042 19.1663C8.018 19.1833 7.99 19.1993 7.967 19.2163C8.07 19.1953 8.29 19.1563 8.25 19.2233C8.207 19.2963 7.948 19.3023 7.859 19.3023C7.833 19.3233 7.81 19.3443 7.784 19.3643C7.888 19.3423 8.091 19.3103 8.05 19.3943C8.018 19.4593 7.867 19.4833 7.741 19.4943C7.744 19.5073 7.746 19.5213 7.748 19.5353C7.787 19.5333 7.807 19.5423 7.812 19.5603C7.818 19.5253 7.832 19.5053 7.865 19.5283C7.971 19.6023 7.951 19.8873 7.944 19.9553C7.975 19.9883 7.999 20.0223 8.028 20.0553C8.01 19.9843 7.924 19.6123 8.052 19.6993C8.181 19.7873 8.139 20.1203 8.131 20.1783C8.158 20.2103 8.186 20.2423 8.212 20.2743C8.203 20.2143 8.15 19.8223 8.258 19.8963C8.363 19.9693 8.309 20.3183 8.299 20.3783C8.319 20.4043 8.345 20.4303 8.364 20.4563C8.355 20.3643 8.322 19.9913 8.427 20.0713C8.535 20.1543 8.462 20.5033 8.446 20.5743C8.468 20.6043 8.485 20.6313 8.505 20.6613C8.492 20.5393 8.459 20.1413 8.594 20.2763C8.737 20.4203 8.607 20.7183 8.581 20.7723C8.633 20.8483 8.695 20.9313 8.739 21.0033L8.639 21.0913L8.629 21.0693C8.629 21.0693 8.592 20.9923 8.528 20.8813C8.439 20.8603 8.069 20.7653 8.072 20.6653C8.076 20.5693 8.369 20.7183 8.457 20.7663C8.443 20.7443 8.429 20.7213 8.413 20.6973C8.347 20.6813 8.005 20.5953 7.97 20.4743L7.969 20.4733Z" fill="black"/>
<path d="M7.28711 19.8121C7.33311 19.7981 7.39111 19.7841 7.44711 19.7741C7.45611 19.7691 7.47111 19.7681 7.49211 19.7701C7.51311 19.7691 7.52811 19.7701 7.53711 19.7741C7.59311 19.7841 7.65111 19.7981 7.69711 19.8121C7.66811 19.7831 7.64011 19.7541 7.60911 19.7241C7.58111 19.7201 7.54411 19.7131 7.49211 19.7031C7.44011 19.7131 7.40311 19.7201 7.37511 19.7241C7.34511 19.7531 7.31611 19.7831 7.28711 19.8121Z" fill="black"/>
<path d="M34.5048 8.5H6.49478C6.24278 8.5 5.99978 8.528 5.76178 8.574C5.64778 8.596 5.53978 8.631 5.42978 8.663C5.32078 8.694 5.21078 8.723 5.10478 8.764C4.95578 8.821 4.81278 8.887 4.67278 8.961C4.62378 8.987 4.57578 9.012 4.52778 9.04C4.36778 9.133 4.21178 9.233 4.06578 9.346C4.06078 9.35 4.05578 9.352 4.05078 9.356H4.05278L21.9088 18.354H38.4988V12.497C38.4988 10.29 36.7098 8.501 34.5038 8.501L34.5048 8.5Z" fill="#D3003B"/>
<path d="M4.05473 31.6444H4.05273C4.05273 31.6444 4.06273 31.6514 4.06773 31.6554C4.21373 31.7684 4.36873 31.8684 4.52873 31.9614C4.57673 31.9894 4.62573 32.0144 4.67473 32.0404C4.81373 32.1144 4.95773 32.1804 5.10673 32.2374C5.21273 32.2784 5.32273 32.3064 5.43173 32.3384C5.54173 32.3694 5.64973 32.4054 5.76373 32.4274C6.00073 32.4734 6.24473 32.5014 6.49673 32.5014H34.5057C36.7127 32.5014 38.5007 30.7124 38.5007 28.5054V22.6484H21.9107L4.05473 31.6444Z" fill="#00973A"/>
<path d="M21.5322 19.8679L18.5242 18.3519L3.02917 10.5449C3.02417 10.5529 3.02017 10.5619 3.01517 10.5709C2.92117 10.7389 2.83817 10.9129 2.76717 11.0919C2.73817 11.1649 2.72117 11.2429 2.69717 11.3179C2.65217 11.4549 2.60417 11.5909 2.57617 11.7359C2.57617 11.7359 2.57617 11.7369 2.57617 11.7379L15.7042 18.3519L18.7132 19.8679L19.9672 20.4999L18.7132 21.1319L15.7052 22.6479L2.57717 29.2629C2.57717 29.2629 2.57717 29.2649 2.57717 29.2659C2.60517 29.4089 2.65217 29.5419 2.69617 29.6779C2.72117 29.7549 2.73817 29.8339 2.76817 29.9089C2.83917 30.0889 2.92317 30.2619 3.01617 30.4299C3.02117 30.4389 3.02417 30.4479 3.02917 30.4569L18.5252 22.6489L21.5332 21.1329H38.5002V19.8689H21.5332L21.5322 19.8679Z" fill="#FBCB00"/>
<path d="M7.62677 16.8379C6.86477 16.8379 4.50977 17.3709 4.50977 19.7729C4.50977 22.1749 6.81877 22.3969 7.27377 22.3969C7.72877 22.3969 9.43577 21.9969 9.24177 20.1959C9.24177 20.7069 8.65077 21.7849 7.41077 21.7849C6.17077 21.7849 5.39777 20.8849 5.39777 19.9949C5.39777 19.1049 6.14777 17.9159 7.45677 17.9159C8.76577 17.9159 9.72077 19.0499 9.72077 20.1959C9.72077 21.3419 8.79977 22.7969 7.33177 22.7969V24.1639C8.54877 24.1639 10.9378 23.2519 10.9378 20.3169C10.9378 17.3819 8.38877 16.8379 7.62677 16.8379Z" fill="#FBCC00"/>
<path d="M8.58 20.7709C8.6 20.7209 8.73 20.4209 8.59 20.2809C8.46 20.1409 8.49 20.5409 8.5 20.6609C8.48 20.6309 8.46 20.6109 8.44 20.5809C8.46 20.5109 8.53 20.1609 8.42 20.0709C8.32 19.9909 8.35 20.3709 8.36 20.4609C8.34 20.4309 8.32 20.4109 8.3 20.3809C8.31 20.3209 8.36 19.9709 8.26 19.9009C8.15 19.8209 8.2 20.2209 8.21 20.2809C8.18 20.2409 8.16 20.2109 8.13 20.1809C8.14 20.1209 8.18 19.7909 8.05 19.7009C7.92 19.6209 8.01 19.9909 8.03 20.0609C8 20.0309 7.97 19.9909 7.94 19.9609C7.95 19.8909 7.97 19.6109 7.86 19.5309C7.83 19.5109 7.82 19.5309 7.81 19.5609C7.8 19.5409 7.78 19.5409 7.74 19.5409V19.5009C7.86 19.4909 8.02 19.4609 8.05 19.4009C8.09 19.3109 7.89 19.3509 7.78 19.3709C7.81 19.3509 7.83 19.3309 7.86 19.3109C7.95 19.3109 8.2 19.3009 8.25 19.2309C8.29 19.1609 8.07 19.2009 7.96 19.2209C7.99 19.2009 8.02 19.1909 8.04 19.1709C8.13 19.1709 8.39 19.1709 8.43 19.0909C8.46 19.0309 8.28 19.0609 8.17 19.0809C8.2 19.0709 8.22 19.0509 8.25 19.0309C8.39 19.0109 8.75 18.9609 8.72 18.8909C8.69 18.8309 8.52 18.8809 8.41 18.9309L8.46 18.8809C8.55 18.8309 8.69 18.7409 8.64 18.6709C8.59 18.5909 8.46 18.7909 8.42 18.8709C8.38 18.8909 8.35 18.9109 8.31 18.9309C8.36 18.8709 8.52 18.6809 8.42 18.7009C8.31 18.7209 8.17 19.0109 8.16 19.0309C8.14 19.0509 8.11 19.0709 8.08 19.0809C8.11 19.0509 8.33 18.7309 8.21 18.7709C8.08 18.8009 7.99 19.1309 7.98 19.1509L7.91 19.2009C7.94 19.1509 8.1 18.8609 7.98 18.9009C7.86 18.9409 7.81 19.2209 7.8 19.2709C7.78 19.2909 7.75 19.3009 7.72 19.3209C7.76 19.2309 7.86 18.9709 7.76 19.0009C7.65 19.0409 7.62 19.3609 7.61 19.4209C7.59 19.4309 7.58 19.4509 7.57 19.4609C7.56 19.4409 7.56 19.4209 7.56 19.4009C7.59 19.2909 7.63 19.1609 7.53 19.2009C7.52 19.2109 7.51 19.2309 7.49 19.2509C7.48 19.2309 7.47 19.2109 7.45 19.2009C7.36 19.1609 7.39 19.2909 7.43 19.4009C7.42 19.4209 7.42 19.4409 7.42 19.4609C7.4 19.4509 7.39 19.4309 7.37 19.4209C7.37 19.3509 7.33 19.0409 7.22 19.0009C7.12 18.9709 7.22 19.2309 7.26 19.3209C7.24 19.3009 7.21 19.2909 7.18 19.2709C7.18 19.2109 7.13 18.9409 7 18.9009C6.88 18.8609 7.05 19.1509 7.08 19.2009C7.05 19.1809 7.02 19.1709 7 19.1509C6.99 19.1309 6.9 18.8009 6.77 18.7709C6.65 18.7309 6.87 19.0509 6.9 19.0809C6.87 19.0609 6.85 19.0509 6.82 19.0309C6.81 19.0109 6.68 18.7209 6.57 18.7009C6.47 18.6809 6.62 18.8709 6.67 18.9309C6.63 18.9109 6.6 18.8809 6.57 18.8609C6.52 18.7909 6.39 18.5909 6.34 18.6709C6.29 18.7409 6.43 18.8309 6.52 18.8809C6.53 18.8909 6.54 18.8909 6.55 18.9009L6.58 18.9309C6.46 18.8809 6.3 18.8309 6.27 18.8909C6.23 18.9609 6.59 19.0109 6.74 19.0309C6.76 19.0509 6.79 19.0709 6.81 19.0809C6.7 19.0609 6.52 19.0309 6.55 19.0909C6.59 19.1709 6.85 19.1709 6.94 19.1709C6.97 19.1909 7 19.2009 7.02 19.2209C6.92 19.2009 6.7 19.1609 6.74 19.2309C6.78 19.3009 7.04 19.3109 7.13 19.3109C7.15 19.3309 7.18 19.3509 7.2 19.3709C7.1 19.3509 6.89 19.3109 6.94 19.4009C6.97 19.4609 7.12 19.4909 7.25 19.5009C7.24 19.5109 7.24 19.5209 7.24 19.5409C7.2 19.5409 7.18 19.5409 7.17 19.5609C7.17 19.5309 7.15 19.5109 7.12 19.5309C7.01 19.6109 7.04 19.9009 7.04 19.9609C7.01 20.0009 6.99 20.0309 6.95 20.0709C6.97 20.0309 7.07 19.6109 6.93 19.7009C6.8 19.7909 6.85 20.1509 6.86 20.1909V20.2009L6.77 20.2909C6.78 20.2609 6.84 19.8209 6.73 19.9009C6.62 19.9709 6.68 20.3609 6.69 20.3909V20.4009L6.62 20.4809C6.62 20.4309 6.67 19.9909 6.56 20.0709C6.44 20.1609 6.54 20.5609 6.54 20.5909C6.52 20.6309 6.5 20.6609 6.48 20.6909C6.48 20.6509 6.54 20.1309 6.39 20.2809C6.24 20.4309 6.41 20.7809 6.41 20.7909C6.37 20.8609 6.31 20.9309 6.27 21.0009C6.27 21.0076 6.26667 21.0143 6.26 21.0209C6.26 21.0209 6.26 21.0309 6.25 21.0309L6.35 21.0909L6.36 21.0709C6.36 21.0709 6.39 20.9909 6.46 20.8809C6.54 20.8609 6.91 20.7709 6.91 20.6709C6.91 20.5709 6.61 20.7209 6.53 20.7709C6.54 20.7409 6.56 20.7209 6.57 20.7009C6.64 20.6809 6.98 20.5909 7.02 20.4709C7.05 20.3609 6.76 20.5209 6.65 20.5809C6.67 20.5509 6.69 20.5209 6.71 20.5009C6.79 20.4709 7.08 20.3609 7.12 20.2609C7.15 20.1709 6.94 20.2709 6.83 20.3209C6.85 20.3009 6.88 20.2709 6.9 20.2509C6.99 20.2209 7.28 20.1409 7.33 20.0209C7.38 19.9109 7.13 20.0409 7.02 20.1009C7.06 20.0609 7.09 20.0209 7.12 19.9809C7.19 19.9709 7.38 19.9309 7.49 19.8409C7.61 19.9309 7.79 19.9709 7.86 19.9809C7.9 20.0209 7.93 20.0609 7.96 20.1009C7.85 20.0409 7.6 19.9109 7.65 20.0209C7.7 20.1409 7.99 20.2209 8.09 20.2509C8.11 20.2709 8.13 20.3009 8.15 20.3209C8.04 20.2709 7.84 20.1709 7.87 20.2609C7.9 20.3609 8.19 20.4709 8.28 20.5009C8.3 20.5209 8.32 20.5509 8.33 20.5809C8.23 20.5209 7.94 20.3609 7.97 20.4709C8 20.5909 8.35 20.6809 8.41 20.7009C8.43 20.7209 8.44 20.7409 8.46 20.7709C8.37 20.7209 8.07 20.5709 8.07 20.6709C8.07 20.7709 8.44 20.8609 8.53 20.8809C8.59 20.9909 8.63 21.0709 8.63 21.0709L8.64 21.0909L8.74 21.0009C8.69 20.9309 8.63 20.8509 8.58 20.7709ZM7.22 19.7909C7.2 19.8009 7.17 19.8209 7.15 19.8509C7.16 19.8009 7.18 19.6709 7.17 19.5809C7.18 19.6009 7.2 19.6109 7.22 19.6209V19.7909ZM7.65 19.6609C7.65 19.6709 7.66 19.6809 7.66 19.6809C7.65 19.6809 7.65 19.6709 7.64 19.6709C7.64667 19.6709 7.65 19.6676 7.65 19.6609ZM7.57 19.5409C7.59 19.5309 7.6 19.5209 7.62 19.5109C7.63 19.5209 7.63 19.5409 7.63 19.5509C7.61 19.5609 7.59 19.5609 7.57 19.5709V19.5409ZM7.36 19.5109H7.37C7.38 19.5209 7.4 19.5309 7.41 19.5409V19.5709C7.39 19.5609 7.37 19.5609 7.35 19.5509C7.35 19.5409 7.36 19.5209 7.36 19.5109ZM7.33 19.6609C7.33 19.6709 7.34 19.6709 7.34 19.6709L7.33 19.6809V19.6609ZM7.54 19.7709H7.45C7.39 19.7809 7.33 19.8009 7.29 19.8109C7.32 19.7809 7.34 19.7509 7.37 19.7309C7.4 19.7209 7.44 19.7109 7.49 19.7109C7.54 19.7109 7.58 19.7209 7.61 19.7309C7.64 19.7609 7.67 19.7809 7.7 19.8109C7.65 19.8009 7.59 19.7909 7.54 19.7709ZM7.76 19.7709V19.6209C7.78 19.6109 7.8 19.6009 7.81 19.5809C7.8 19.6609 7.83 19.7909 7.84 19.8509C7.81 19.8209 7.78 19.8009 7.76 19.7709Z" fill="#FBCC00"/>
</svg>
