<svg width="41" height="41" viewBox="0 0 41 41" fill="none" xmlns="http://www.w3.org/2000/svg">
<path d="M8.78 8.5V19.5H2.5V12.52C2.5 10.3 4.37 8.5 6.69 8.5H8.78Z" fill="#1D3385"/>
<path d="M34.5 8.5H22.388V20.5H2.5V28.5C2.5 30.709 4.291 32.5 6.5 32.5H34.5C36.709 32.5 38.5 30.709 38.5 28.5V12.5C38.5 10.291 36.709 8.5 34.5 8.5ZM34.917 16.482L31.651 19.616L28.385 16.482H34.917ZM27.297 17.527L30.563 20.661L27.297 23.795V17.527ZM28.386 24.841L31.652 21.706L34.918 24.841H28.386ZM36.006 23.795L32.74 20.661L36.006 17.527V23.795Z" fill="#FD0003"/>
<path d="M15.0605 19.496H20.2935H21.3405V18.491V8.5H20.2935H15.0605V18.491V19.496Z" fill="#FD0003"/>
<path d="M22.388 20.5V18.491V8.5H21.341V18.491V19.496H20.294H15.061V18.491V8.5H8.78V18.491V19.496H2.5V20.5H20.294H22.388Z" fill="#E3E7EA"/>
<path d="M28.3867 24.8401H34.9177L31.6527 21.7051L28.3867 24.8401Z" fill="#E3E7EA"/>
<path d="M36.0062 23.7934V17.5254L32.7402 20.6594L36.0062 23.7934Z" fill="#E3E7EA"/>
<path d="M27.2988 17.5254V23.7934L30.5638 20.6594L27.2988 17.5254Z" fill="#E3E7EA"/>
<path d="M34.9177 16.4824H28.3867L31.6527 19.6164L34.9177 16.4824Z" fill="#E3E7EA"/>
</svg>
