<svg width="41" height="41" viewBox="0 0 41 41" fill="none" xmlns="http://www.w3.org/2000/svg">
<path d="M34.5 8.5H6.5C4.29086 8.5 2.5 10.2909 2.5 12.5V28.5C2.5 30.7091 4.29086 32.5 6.5 32.5H34.5C36.7091 32.5 38.5 30.7091 38.5 28.5V12.5C38.5 10.2909 36.7091 8.5 34.5 8.5Z" fill="#CF002E"/>
<path d="M2.5 12.496V19.491H22.943V8.5H6.495C4.288 8.5 2.5 10.289 2.5 12.496Z" fill="#2B317D"/>
<path d="M11.6968 16.1289L12.6628 19.0319L10.1348 17.2379H13.2588L10.7308 19.0319L11.6968 16.1289Z" fill="#E3E7EA"/>
<path d="M8.26172 11.7051L9.03372 14.0281L7.01172 12.5921H9.51072L7.48872 14.0281L8.26172 11.7051Z" fill="#E3E7EA"/>
<path d="M15.212 11.2461L15.936 13.4241L14.041 12.0781H16.384L14.488 13.4241L15.212 11.2461Z" fill="#E3E7EA"/>
<path d="M11.6982 8.95703L12.4702 11.28L10.4492 9.84403H12.9472L10.9262 11.28L11.6982 8.95703Z" fill="#E3E7EA"/>
<path d="M13.4158 14.0684L13.8988 15.5204L12.6348 14.6234H14.1968L12.9338 15.5204L13.4158 14.0684Z" fill="#E3E7EA"/>
</svg>
