<svg width="41" height="41" viewBox="0 0 41 41" fill="none" xmlns="http://www.w3.org/2000/svg">
<path d="M34.5 8.5H6.5C4.29086 8.5 2.5 10.2909 2.5 12.5V28.5C2.5 30.7091 4.29086 32.5 6.5 32.5H34.5C36.7091 32.5 38.5 30.7091 38.5 28.5V12.5C38.5 10.2909 36.7091 8.5 34.5 8.5Z" fill="#204CA0"/>
<path d="M27.0123 21.1558C26.8713 21.3078 26.5413 21.1668 26.4243 21.3778L26.4003 21.3319C26.3773 21.1909 26.2363 21.1668 26.0713 21.1668C25.9533 21.0858 26.1413 20.9098 26.0003 20.8048C25.8113 20.7928 25.6473 20.8048 25.5063 20.8858L25.1993 20.7698C25.0343 20.6638 24.7983 20.7218 24.6103 20.6868L24.6813 20.6518C24.7053 20.5128 24.7523 20.3008 24.6343 20.1838C24.7053 19.9608 24.9633 19.7848 24.8453 19.5388C24.7043 19.5388 24.5393 19.5148 24.4223 19.5618C24.3743 19.4918 24.2333 19.5968 24.2573 19.4798C24.2573 19.1518 23.8333 19.3158 23.6443 19.2338V19.1518C23.3623 19.0108 23.4333 18.7768 23.4803 18.5078C23.4573 18.3668 23.3623 18.2498 23.2443 18.1218C23.0793 18.0858 23.0333 18.2038 22.9623 18.2848C22.8923 18.1448 22.8213 18.0038 22.8213 17.8408C22.7273 17.6988 22.8213 17.4998 22.6793 17.3828C22.3963 17.4648 22.4673 17.0438 22.2083 17.1138L22.1373 17.3008C22.0203 17.3368 21.9263 17.2548 21.9013 17.1598C21.2423 17.4178 21.1253 16.7378 20.5363 16.8198C20.6303 16.7148 20.7943 16.6908 20.9123 16.6318C20.9123 16.4328 20.8183 16.2688 20.6773 16.1048C20.6773 15.9638 20.4533 16.0228 20.4303 15.8708C20.3483 15.7998 20.2533 15.8828 20.1713 15.8708C19.9833 16.1288 19.6533 16.1288 19.4063 16.2688C19.3123 16.4088 19.1473 16.3508 19.0543 16.4328C18.8073 16.3738 18.9123 16.6319 18.8073 16.7379C18.7833 16.8199 18.8193 16.8788 18.8883 16.9138C18.9123 17.0428 18.9953 17.1368 18.9953 17.2768C19.0543 17.2538 19.1473 17.3008 19.1833 17.2418C19.2893 17.3248 19.3603 17.3939 19.3603 17.5229C19.3123 17.5819 19.2533 17.6058 19.1833 17.6168C19.0413 17.7458 19.1473 17.9448 19.1003 18.1088C18.9943 18.1668 18.9713 18.3428 18.8183 18.3428C18.7823 18.3318 18.8063 18.2608 18.8063 18.2028C18.3703 18.0028 18.5823 18.5538 18.3113 18.6468C18.2053 18.6238 18.1113 18.6709 18.0293 18.7069C17.9583 18.8349 17.8173 18.9288 17.8763 19.1168C17.8533 19.2808 18.2063 19.3518 18.1123 19.5388C18.0303 19.8198 17.6173 19.6208 17.6073 19.8548C17.5123 19.7958 17.4063 19.7608 17.2773 19.7838C17.1713 19.7838 17.0893 19.9018 16.9953 19.8428C16.8533 19.9828 16.6183 19.9828 16.4183 19.9368C16.3123 19.9828 16.1833 20.0418 16.1603 20.1248C16.0173 20.2648 15.9243 20.3818 15.9243 20.5808C15.7943 20.5228 15.6653 20.5808 15.5593 20.6048C15.4523 20.4878 15.2643 20.5458 15.1583 20.4068C15.0293 20.3718 14.9233 20.3238 14.7933 20.3478C14.6643 20.4308 14.4873 20.4658 14.4053 20.5708C14.0873 20.5238 14.3823 20.8868 14.1233 20.9698C14.1233 21.0278 14.0993 21.1108 14.1463 21.1568C14.3343 21.2508 14.4873 21.4148 14.6993 21.4488C14.8173 21.4138 14.9463 21.5188 15.0523 21.5898C15.0043 21.6728 14.9583 21.7778 14.8753 21.8018C14.8523 21.9538 14.8753 22.1058 14.9573 22.2458C14.9223 22.3168 14.9223 22.3999 14.8273 22.4809C14.9453 22.8449 15.4743 22.8099 15.6513 23.1719C15.6043 23.2889 15.6863 23.3128 15.7573 23.3718C15.6273 23.5708 15.9453 23.5938 15.9223 23.7698C15.9093 23.7938 15.8863 23.8398 15.8393 23.8168V23.9798C16.2513 24.1328 15.9693 24.4848 16.1223 24.7418C16.3573 24.6848 16.5933 24.8468 16.7813 24.7198C16.8283 24.7658 16.8873 24.8008 16.9113 24.8468C17.1703 24.8248 17.2173 25.1518 17.4763 25.1518C17.8413 25.1868 17.8523 25.5859 18.1113 25.7379C18.1113 25.9139 18.2053 26.0539 18.2403 26.2069C18.3223 26.3939 18.4763 26.6049 18.3223 26.7799C18.2643 27.0039 18.4403 27.1438 18.5463 27.2368C18.7103 27.4718 18.6523 27.7658 18.8173 27.9628C18.8873 28.2098 18.6293 28.2918 18.4763 28.4088C18.4173 28.5968 18.6053 28.6898 18.5473 28.9008C18.6883 28.9718 18.6533 29.1358 18.8413 29.1358C18.9703 29.1358 19.0763 29.0658 19.1003 28.9368C19.1833 29.0198 19.2773 29.1128 19.4063 29.0778C19.5363 28.9958 19.7243 28.9368 19.7833 28.8198C19.8303 28.7738 19.8533 28.7388 19.9123 28.7388C19.8893 28.6678 19.9123 28.6328 19.9833 28.5978C20.0183 28.5738 20.0423 28.4918 20.0183 28.4338C19.9123 28.2698 20.1713 28.2698 20.0893 28.0938C19.8893 27.9528 19.8533 27.7538 19.8893 27.5188C19.9833 27.4258 19.9123 27.2268 20.0663 27.1668C20.0893 26.8638 20.4773 27.0738 20.6073 26.8638C20.9363 27.0398 21.0543 26.6168 21.2663 26.5108C21.7373 26.4988 22.1373 26.1948 22.4663 25.8778C22.5603 25.9948 22.6783 26.0309 22.8203 26.0889C22.8203 26.2529 23.0313 26.3348 23.1023 26.4528C23.1733 26.5808 23.0533 26.8158 23.2433 26.8638C23.4793 26.9338 23.8543 27.0048 24.0673 26.8158C24.0673 26.7458 24.0903 26.6518 24.0443 26.6048C23.6923 26.3588 24.2083 26.1718 24.1613 25.8898C24.4683 25.9248 24.3033 25.6088 24.5143 25.5268C24.6793 25.4448 24.6553 25.6668 24.8443 25.6088C24.9373 25.6088 24.8913 25.5028 24.8913 25.4678C24.7973 25.3408 25.0083 25.3048 24.9863 25.1988C25.1033 25.2218 25.2443 25.2218 25.3153 25.3048C25.3863 25.3398 25.3153 25.4328 25.3863 25.4678C25.6683 25.3628 25.9743 25.5738 26.2103 25.3868L25.9743 25.1518C25.8803 25.0108 25.8093 24.7768 25.5753 24.7998C25.5973 24.6358 25.4563 24.5778 25.5043 24.4138C25.5973 24.2738 25.7383 24.4378 25.8793 24.4028C25.8793 24.1558 26.1153 24.4028 26.2333 24.2738C26.2333 24.0508 26.5153 23.8988 26.3263 23.6528C26.2333 23.4888 26.5153 23.5478 26.5373 23.3948C26.7263 23.3718 26.6083 23.1258 26.7493 23.0428C26.7493 23.0078 26.7723 22.9498 26.7263 22.9268C26.8683 22.7618 27.0553 22.6218 27.1503 22.4458C27.0083 22.0828 27.4563 21.9178 27.4083 21.5548C27.2913 21.4138 27.2443 21.1568 27.0083 21.1568L27.0123 21.1558Z" fill="#F8A92C"/>
<path d="M12.8592 14.4323L12.5282 13.4453L12.1962 14.4323L11.1152 14.4303L11.9912 15.0383L11.6562 16.0233L12.5282 15.4123L13.4012 16.0233L13.0642 15.0383L13.9402 14.4303L12.8592 14.4323Z" fill="#E3E7EA"/>
<path d="M14.5966 15.0858L15.4696 14.4738L16.3426 15.0858L16.0056 14.0998L16.8806 13.4918L15.8016 13.4948L15.4696 12.5078L15.1376 13.4948L14.0566 13.4928L14.9326 14.1008L14.5966 15.0858Z" fill="#E3E7EA"/>
<path d="M21.1758 14.4413L22.0478 13.8303L22.9208 14.4413L22.5838 13.4563L23.4598 12.8483L22.3788 12.8503L22.0478 11.8633L21.7158 12.8503L20.6348 12.8483L21.5108 13.4563L21.1758 14.4413Z" fill="#E3E7EA"/>
<path d="M24.3535 15.0858L25.2255 14.4738L26.0985 15.0858L25.7615 14.0998L26.6375 13.4918L25.5565 13.4948L25.2255 12.5078L24.8935 13.4948L23.8125 13.4928L24.6885 14.1008L24.3535 15.0858Z" fill="#E3E7EA"/>
<path d="M17.7265 14.4413L18.5985 13.8303L19.4715 14.4413L19.1355 13.4563L20.0115 12.8483L18.9305 12.8503L18.5985 11.8633L18.2665 12.8503L17.1875 12.8483L18.0625 13.4563L17.7265 14.4413Z" fill="#E3E7EA"/>
<path d="M28.8045 14.4323L28.4725 13.4453L28.1415 14.4323L27.0605 14.4303L27.9365 15.0383L27.6005 16.0233L28.4725 15.4123L29.3455 16.0233L29.0095 15.0383L29.8855 14.4303L28.8045 14.4323Z" fill="#E3E7EA"/>
</svg>
