<svg width="41" height="41" viewBox="0 0 41 41" fill="none" xmlns="http://www.w3.org/2000/svg">
<path d="M15.6081 10.9746L15.1641 12.1676H16.0541L15.6081 10.9746Z" fill="#E3E7EA"/>
<path d="M34.5 8.5H6.5C4.291 8.5 2.5 10.291 2.5 12.5V28.5C2.5 30.709 4.291 32.5 6.5 32.5H34.5C36.709 32.5 38.5 30.709 38.5 28.5V12.5C38.5 10.291 36.709 8.5 34.5 8.5ZM29.06 10.412H31.387V10.899H29.711V11.497H31.243V11.977H29.711V12.698H31.465V13.216H29.06V10.412ZM26.126 10.412H28.681V10.913H27.736V13.216H27.077V10.913H26.126V10.412ZM23.479 10.412H26.034V10.913H25.089V13.216H24.429V10.913H23.478L23.479 10.412ZM19.582 25.664H17.69C16.644 25.664 15.942 24.856 15.942 23.653V15.659C15.942 15.594 15.995 15.541 16.06 15.541H24.976C25.041 15.541 25.094 15.594 25.094 15.659V23.653C25.094 24.856 24.4 25.664 23.366 25.664H21.474C20.66 25.664 20.646 26.459 20.646 26.492C20.646 26.557 20.593 26.61 20.528 26.61C20.463 26.61 20.41 26.557 20.41 26.493C20.41 26.459 20.396 25.664 19.582 25.664ZM20.531 10.739C20.814 10.473 21.195 10.339 21.674 10.339C22.153 10.339 22.534 10.472 22.817 10.739C23.101 11.006 23.244 11.365 23.244 11.816C23.244 12.267 23.102 12.627 22.817 12.893C22.534 13.16 22.153 13.293 21.674 13.293C21.195 13.293 20.814 13.16 20.531 12.893C20.25 12.627 20.109 12.268 20.109 11.816C20.109 11.364 20.25 11.004 20.531 10.739ZM17.888 10.412L18.574 11.621L19.207 10.412H19.96L18.904 12.171V13.216H18.244V12.171L17.079 10.412H17.887H17.888ZM15.224 10.412H15.986L17.142 13.216H16.45L16.232 12.639H14.989L14.778 13.216H14.084L15.225 10.412H15.224ZM10.522 10.412H11.497L12.135 12.546L12.764 10.412H13.743V13.216H13.125V10.955L12.474 13.216H11.799L11.139 10.955V13.216H10.521V10.412H10.522ZM9.022 25.603C9.022 24.518 9.997 23.857 10.617 23.857C11.356 23.857 11.593 24.567 11.505 24.745C11.208 25.339 10.923 24.929 11.15 24.656C11.298 24.478 11.001 24.198 10.648 24.212C10.437 24.221 10.259 24.293 10.107 24.4C10.13 24.392 10.146 24.388 10.146 24.388C10.146 24.388 9.984 24.49 9.825 24.684C9.648 24.942 9.555 25.273 9.555 25.601C9.555 26.253 10.274 27.222 11.183 27.276C11.21 27.277 11.233 27.285 11.261 27.285C11.389 27.285 11.512 27.266 11.633 27.242C11.968 27.165 12.297 26.986 12.572 26.726C12.599 26.699 12.627 26.674 12.653 26.646C12.703 26.593 12.748 26.534 12.794 26.476C12.846 26.407 12.897 26.338 12.941 26.263C12.963 26.227 12.982 26.189 13.002 26.152C13.047 26.066 13.088 25.976 13.123 25.884C13.155 25.798 13.184 25.711 13.205 25.619C13.212 25.593 13.219 25.567 13.225 25.54C13.254 25.394 13.271 25.24 13.271 25.08C13.271 24.454 13.14 23.939 12.92 23.483C12.635 22.954 12.225 22.49 11.799 22.148L11.359 23C11.359 23 9.625 22.753 8.639 21.728C7.653 20.703 7.749 19.397 7.929 19.54C8.343 19.865 9.328 19.915 9.328 19.915C9.328 19.915 9.239 19.73 9.118 19.52C9.116 19.517 9.113 19.513 9.111 19.51L9.11 19.505C8.975 19.272 8.801 19.011 8.658 18.929C8.382 18.771 7.82 17.923 8.254 16.938C8.687 15.952 9.329 15.657 9.486 15.972C9.643 16.287 10.057 16.07 9.939 15.755C9.821 15.44 9.613 15.222 9.613 15.222L10.55 15.458L11.338 14.827C11.338 14.827 12.284 14.472 12.797 14.749C13.309 15.025 12.876 14.985 12.402 15.104C11.929 15.222 11.829 15.693 11.949 15.872C12.127 16.138 12.667 16.16 12.6 15.754C12.571 15.576 13.349 15.971 13.27 16.405L13.192 16.838C13.192 16.838 13.152 17.824 13.783 18.021C14.414 18.218 14.345 18.809 13.754 18.77C13.163 18.731 12.167 17.982 12.167 17.982C12.167 17.982 11.654 18.337 11.536 18.1C11.536 18.1 10.314 17.824 10.472 16.72C10.472 16.72 10.088 17.943 10.856 18.356C11.963 18.952 12.101 18.542 13.034 19.283C14.138 20.16 15.005 21.786 14.73 24.034C14.455 26.282 13.824 27.789 11.3 27.789C9.822 27.789 9.023 26.685 9.023 25.601L9.022 25.603ZM28.649 31.303C28.649 31.303 28.003 30.969 27.566 30.782C27.16 30.607 26.119 30.136 25.553 30.117C25.538 30.165 25.527 30.205 25.508 30.262C25.361 30.721 24.965 30.699 24.508 30.471C24.05 30.241 23.384 30.096 22.758 30.096H18.617C17.992 30.096 17.325 30.241 16.867 30.471C16.409 30.699 16.013 30.72 15.868 30.262C15.85 30.205 15.838 30.165 15.823 30.117C15.259 30.135 14.213 30.607 13.807 30.782C13.37 30.969 12.724 31.303 12.724 31.303L12.184 30.157C12.184 30.157 14.452 28.929 15.181 28.763C15.714 28.641 16.296 28.6 16.444 28.779C16.447 28.774 16.452 28.764 16.452 28.764C16.452 28.764 16.534 28.921 16.626 29.122C16.777 29.041 16.932 28.964 17.096 28.909C17.659 28.721 19.198 28.617 19.698 28.617H21.675C22.176 28.617 23.715 28.722 24.278 28.909C24.441 28.964 24.596 29.041 24.746 29.122C24.838 28.922 24.92 28.765 24.92 28.765C24.92 28.765 24.926 28.775 24.928 28.78C25.077 28.601 25.659 28.642 26.191 28.764C26.92 28.93 29.189 30.158 29.189 30.158L28.649 31.304V31.303ZM32.362 21.729C31.376 22.754 29.642 23.001 29.642 23.001L29.202 22.15C28.772 22.496 28.359 22.966 28.074 23.502C27.859 23.953 27.73 24.462 27.73 25.081C27.73 25.237 27.747 25.385 27.774 25.528C27.785 25.573 27.796 25.618 27.809 25.662C27.827 25.733 27.849 25.802 27.873 25.87C27.914 25.977 27.96 26.081 28.013 26.18C28.025 26.203 28.037 26.226 28.05 26.248C28.102 26.337 28.161 26.418 28.223 26.498C28.26 26.544 28.295 26.591 28.335 26.633C28.371 26.673 28.41 26.708 28.449 26.745C28.524 26.814 28.599 26.881 28.68 26.937C28.688 26.943 28.698 26.948 28.706 26.954C28.808 27.022 28.914 27.082 29.023 27.13C29.031 27.133 29.04 27.136 29.048 27.139C29.151 27.183 29.256 27.217 29.362 27.242C29.485 27.268 29.611 27.286 29.742 27.286C29.785 27.286 29.822 27.275 29.864 27.272C30.75 27.187 31.444 26.243 31.444 25.603C31.444 25.265 31.346 24.922 31.158 24.662C31.006 24.483 30.855 24.389 30.855 24.389C30.855 24.389 30.866 24.392 30.886 24.398C30.735 24.293 30.558 24.222 30.35 24.214C29.996 24.2 29.7 24.48 29.848 24.658C30.075 24.931 29.789 25.341 29.493 24.747C29.405 24.569 29.642 23.859 30.381 23.859C31.003 23.859 31.978 24.52 31.978 25.604C31.978 26.688 31.179 27.792 29.701 27.792C27.178 27.792 26.547 26.284 26.271 24.037C25.995 21.79 26.862 20.163 27.967 19.286C28.901 18.545 29.037 18.956 30.145 18.359C30.913 17.946 30.529 16.723 30.529 16.723C30.687 17.826 29.465 18.103 29.465 18.103C29.347 18.34 28.834 17.985 28.834 17.985C28.834 17.985 27.839 18.735 27.247 18.773C26.655 18.811 26.587 18.221 27.218 18.024C27.849 17.827 27.809 16.841 27.809 16.841L27.73 16.408C27.651 15.974 28.429 15.579 28.4 15.757C28.333 16.163 28.873 16.141 29.051 15.875C29.172 15.695 29.071 15.225 28.598 15.107C28.125 14.989 27.692 15.028 28.204 14.752C28.716 14.476 29.662 14.83 29.662 14.83L30.451 15.461L31.387 15.225C31.387 15.225 31.178 15.444 31.06 15.758C30.942 16.073 31.355 16.29 31.513 15.975C31.67 15.66 32.312 15.956 32.745 16.941C33.178 17.926 32.616 18.774 32.341 18.932C32.199 19.013 32.028 19.268 31.893 19.499C31.893 19.502 31.89 19.512 31.89 19.512C31.885 19.519 31.878 19.528 31.873 19.536C31.756 19.741 31.671 19.918 31.671 19.918C31.671 19.918 32.656 19.869 33.07 19.543C33.25 19.4 33.346 20.706 32.36 21.731L32.362 21.729Z" fill="#E3E7EA"/>
<path d="M21.6733 12.7927C21.9573 12.7927 22.1792 12.7077 22.3372 12.5377C22.4952 12.3667 22.5743 12.1267 22.5743 11.8187C22.5743 11.5107 22.4952 11.2707 22.3372 11.1007C22.1792 10.9297 21.9583 10.8438 21.6733 10.8438C21.3923 10.8438 21.1723 10.9287 21.0163 11.0987C20.8603 11.2687 20.7812 11.5087 20.7812 11.8177C20.7812 12.1267 20.8593 12.3657 21.0163 12.5367C21.1733 12.7067 21.3923 12.7927 21.6733 12.7927Z" fill="#E3E7EA"/>
<path d="M20.5294 26.61C20.5944 26.61 20.6474 26.557 20.6474 26.493C20.6474 26.459 20.6614 25.664 21.4754 25.664H23.3674C24.4014 25.664 25.0954 24.856 25.0954 23.653V15.659C25.0954 15.594 25.0424 15.541 24.9774 15.541H16.0614C15.9964 15.541 15.9434 15.594 15.9434 15.659V23.653C15.9434 24.856 16.6454 25.664 17.6914 25.664H19.5834C20.3974 25.664 20.4114 26.459 20.4114 26.492C20.4114 26.557 20.4644 26.61 20.5294 26.61ZM19.5834 25.427H17.6914C16.6474 25.427 16.1804 24.537 16.1804 23.653V15.777H24.8594V23.653C24.8594 24.731 24.2734 25.427 23.3684 25.427H21.4764C20.9544 25.427 20.6704 25.695 20.5304 25.986C20.3904 25.695 20.1054 25.427 19.5834 25.427Z" fill="#231F20"/>
<path d="M21.4757 25.4273H23.3677C24.2737 25.4273 24.8587 24.7313 24.8587 23.6533V15.7773H16.1797V23.6533C16.1797 24.5373 16.6467 25.4273 17.6907 25.4273H19.5827C20.1047 25.4273 20.3887 25.6953 20.5287 25.9863C20.6687 25.6953 20.9537 25.4273 21.4757 25.4273ZM19.8197 24.4853C19.6457 24.6783 19.3937 24.8033 19.1097 24.8033C18.8257 24.8033 18.5737 24.6783 18.3997 24.4853C18.2257 24.6783 17.9737 24.8033 17.6897 24.8033C17.1667 24.8033 16.7427 24.3893 16.7427 23.8803C16.7427 23.5923 16.8797 23.3403 17.0917 23.1703C16.8807 23.0013 16.7427 22.7483 16.7427 22.4613C16.7427 22.1743 16.8797 21.9213 17.0917 21.7513C16.8807 21.5823 16.7427 21.3293 16.7427 21.0413C16.7427 20.8773 16.7927 20.7283 16.8697 20.5953C16.7917 20.4243 16.7437 20.2413 16.7437 20.0713C16.7437 19.7833 16.8787 19.5353 17.0807 19.3613C16.8787 19.1873 16.7437 18.9393 16.7437 18.6513C16.7437 18.3633 16.8787 18.1163 17.0807 17.9423C16.8787 17.7683 16.7437 17.5203 16.7437 17.2323C16.7437 16.7103 17.1667 16.2863 17.6897 16.2863C17.9777 16.2863 18.2257 16.4213 18.3997 16.6243C18.5727 16.4223 18.8217 16.2863 19.1097 16.2863C19.3977 16.2863 19.6457 16.4213 19.8197 16.6243C19.9927 16.4223 20.2417 16.2863 20.5297 16.2863C20.8177 16.2863 21.0647 16.4203 21.2377 16.6213C21.4117 16.4203 21.6607 16.2863 21.9497 16.2863C22.2467 16.2863 22.5007 16.4303 22.6737 16.6413C22.8467 16.4543 23.0907 16.3333 23.3687 16.3333C23.8907 16.3333 24.3147 16.7473 24.3147 17.2563C24.3147 17.5483 24.1667 17.7973 23.9497 17.9663C24.1677 18.1353 24.3147 18.3843 24.3147 18.6763C24.3147 18.9683 24.1667 19.2763 23.9497 19.4453C24.1677 19.6133 24.3147 19.9223 24.3147 20.2133C24.3147 20.3603 24.2717 20.5043 24.2097 20.6413C24.2717 20.7633 24.3147 20.8963 24.3147 21.0413C24.3147 21.3293 24.1767 21.5823 23.9657 21.7513C24.1767 21.9203 24.3147 22.1733 24.3147 22.4613C24.3147 22.7493 24.1767 23.0023 23.9657 23.1703C24.1767 23.3393 24.3147 23.5923 24.3147 23.8803C24.3147 24.3893 23.8907 24.8033 23.3687 24.8033C23.0837 24.8033 22.8327 24.6783 22.6587 24.4853C22.4847 24.6783 22.2327 24.8033 21.9487 24.8033C21.6647 24.8033 21.4127 24.6783 21.2387 24.4853C21.0647 24.6783 20.8127 24.8033 20.5287 24.8033C20.2447 24.8033 19.9937 24.6783 19.8197 24.4853Z" fill="#EEEEEE"/>
<path d="M24.1622 20.5451C24.1822 20.5751 24.1922 20.6101 24.2082 20.6421C24.2702 20.5051 24.3132 20.3611 24.3132 20.2141C24.3132 19.9231 24.1652 19.6141 23.9482 19.4461C24.1662 19.2771 24.3132 18.9691 24.3132 18.6771C24.3132 18.3851 24.1652 18.1361 23.9482 17.9671C24.1662 17.7991 24.3132 17.5501 24.3132 17.2571C24.3132 16.7481 23.8892 16.3341 23.3672 16.3341C23.0892 16.3341 22.8452 16.4551 22.6722 16.6421C22.4992 16.4311 22.2452 16.2871 21.9482 16.2871C21.6592 16.2871 21.4112 16.4211 21.2362 16.6221C21.0632 16.4211 20.8152 16.2871 20.5282 16.2871C20.2412 16.2871 19.9922 16.4221 19.8182 16.6251C19.6442 16.4231 19.3952 16.2871 19.1082 16.2871C18.8212 16.2871 18.5722 16.4221 18.3982 16.6251C18.2242 16.4231 17.9762 16.2871 17.6882 16.2871C17.1652 16.2871 16.7422 16.7111 16.7422 17.2331C16.7422 17.5211 16.8772 17.7691 17.0792 17.9431C16.8772 18.1171 16.7422 18.3651 16.7422 18.6521C16.7422 18.9391 16.8772 19.1881 17.0792 19.3621C16.8772 19.5361 16.7422 19.7841 16.7422 20.0721C16.7422 20.2411 16.7902 20.4251 16.8682 20.5961C16.8772 20.5801 16.8822 20.5611 16.8922 20.5451H24.1602H24.1622ZM20.5292 19.1261C21.4102 19.1261 22.1432 18.5221 22.3542 17.7071C22.3942 17.8591 22.4212 18.0151 22.4212 18.1801C22.4212 19.2251 21.5732 20.0721 20.5292 20.0721C19.4852 20.0721 18.6372 19.2241 18.6372 18.1801C18.6372 18.0151 18.6642 17.8591 18.7032 17.7071C18.9152 18.5221 19.6482 19.1261 20.5292 19.1261Z" fill="#171796"/>
<path d="M21.6744 13.2938C22.1534 13.2938 22.5344 13.1608 22.8174 12.8938C23.1014 12.6278 23.2444 12.2688 23.2444 11.8168C23.2444 11.3648 23.1024 11.0058 22.8174 10.7398C22.5344 10.4738 22.1534 10.3398 21.6744 10.3398C21.1954 10.3398 20.8144 10.4728 20.5314 10.7398C20.2504 11.0048 20.1094 11.3638 20.1094 11.8168C20.1094 12.2698 20.2504 12.6278 20.5314 12.8938C20.8144 13.1608 21.1954 13.2938 21.6744 13.2938ZM21.0174 11.0968C21.1744 10.9268 21.3934 10.8418 21.6744 10.8418C21.9584 10.8418 22.1804 10.9278 22.3384 11.0988C22.4964 11.2688 22.5754 11.5078 22.5754 11.8168C22.5754 12.1258 22.4964 12.3648 22.3384 12.5358C22.1804 12.7058 21.9594 12.7908 21.6744 12.7908C21.3934 12.7908 21.1734 12.7058 21.0174 12.5358C20.8604 12.3648 20.7824 12.1248 20.7824 11.8168C20.7824 11.5088 20.8604 11.2668 21.0174 11.0968Z" fill="#E40000"/>
<path d="M18.246 13.2161H18.906V12.1711L19.961 10.4121H19.208L18.575 11.6211L17.889 10.4121H17.082L18.246 12.1711V13.2161Z" fill="#E40000"/>
<path d="M14.99 12.6391H16.233L16.451 13.2161H17.143L15.987 10.4121H15.225L14.084 13.2161H14.778L14.99 12.6391ZM15.608 10.9731L16.054 12.1661H15.164L15.608 10.9731Z" fill="#E40000"/>
<path d="M27.078 13.2161H27.738V10.9131H28.682V10.4121H26.127V10.9131H27.078V13.2161Z" fill="#E40000"/>
<path d="M11.1414 10.9551L11.8014 13.2161H12.4764L13.1274 10.9551V13.2161H13.7454V10.4121H12.7654L12.1364 12.5461L11.4984 10.4121H10.5234V13.2161H11.1414V10.9551Z" fill="#E40000"/>
<path d="M31.4655 12.6981H29.7115V11.9771H31.2435V11.4971H29.7115V10.8991H31.3875V10.4121H29.0605V13.2161H31.4655V12.6981Z" fill="#E40000"/>
<path d="M24.4295 13.2161H25.0895V10.9131H26.0335V10.4121H23.4785V10.9131H24.4295V13.2161Z" fill="#E40000"/>
<path d="M21.2381 24.484C21.4111 24.677 21.6631 24.802 21.9481 24.802C22.2331 24.802 22.4841 24.677 22.6581 24.484C22.8311 24.677 23.0831 24.802 23.3681 24.802C23.8901 24.802 24.3141 24.388 24.3141 23.879C24.3141 23.591 24.1761 23.339 23.9651 23.169C24.1761 23.001 24.3141 22.747 24.3141 22.46C24.3141 22.173 24.1761 21.92 23.9651 21.75C24.1761 21.582 24.3141 21.328 24.3141 21.04C24.3141 20.895 24.2711 20.762 24.2091 20.64C24.1931 20.608 24.1821 20.573 24.1631 20.543H16.8951C16.8851 20.559 16.8801 20.577 16.8711 20.594C16.7941 20.727 16.7441 20.876 16.7441 21.04C16.7441 21.328 16.8821 21.581 17.0931 21.75C16.8811 21.919 16.7441 22.172 16.7441 22.46C16.7441 22.748 16.8821 23 17.0931 23.169C16.8811 23.338 16.7441 23.591 16.7441 23.879C16.7441 24.388 17.1681 24.802 17.6911 24.802C17.9751 24.802 18.2271 24.677 18.4011 24.484C18.5741 24.677 18.8261 24.802 19.1111 24.802C19.3961 24.802 19.6471 24.677 19.8211 24.484C19.9941 24.677 20.2461 24.802 20.5311 24.802C20.8161 24.802 21.0671 24.677 21.2411 24.484H21.2381ZM22.7701 22.557C23.0421 22.713 23.2201 22.914 23.1671 23.005C23.1151 23.096 22.8521 23.042 22.5801 22.886C22.4841 22.831 22.4081 22.771 22.3421 22.712C22.3601 22.799 22.3731 22.896 22.3731 23.005C22.3731 23.319 22.2881 23.574 22.1841 23.574C22.0801 23.574 21.9951 23.319 21.9951 23.005C21.9951 22.894 22.0081 22.798 22.0261 22.711C21.9601 22.771 21.8821 22.83 21.7871 22.885C21.5151 23.042 21.2531 23.096 21.2001 23.005C21.1481 22.915 21.3261 22.714 21.5971 22.557C21.6931 22.502 21.7831 22.464 21.8681 22.437C21.7841 22.409 21.6931 22.372 21.5971 22.317C21.3251 22.16 21.1481 21.96 21.2001 21.869C21.2531 21.778 21.5151 21.832 21.7871 21.989C21.8831 22.044 21.9601 22.104 22.0261 22.163C22.0081 22.076 21.9951 21.978 21.9951 21.869C21.9951 21.555 22.0801 21.3 22.1841 21.3C22.2881 21.3 22.3731 21.555 22.3731 21.869C22.3731 21.979 22.3601 22.075 22.3421 22.162C22.4081 22.103 22.4861 22.044 22.5801 21.989C22.8521 21.832 23.1141 21.778 23.1671 21.869C23.2191 21.96 23.0411 22.16 22.7701 22.317C22.6751 22.372 22.5851 22.41 22.5001 22.437C22.5841 22.464 22.6741 22.502 22.7701 22.557ZM19.2701 22.885C19.1741 22.83 19.0971 22.77 19.0311 22.711C19.0491 22.797 19.0621 22.895 19.0621 23.004C19.0621 23.318 18.9771 23.573 18.8731 23.573C18.7681 23.573 18.6841 23.318 18.6841 23.004C18.6841 22.893 18.6971 22.797 18.7151 22.71C18.6491 22.77 18.5711 22.829 18.4761 22.884C18.2041 23.041 17.9411 23.095 17.8891 23.004C17.8361 22.914 18.0141 22.713 18.2861 22.556C18.3811 22.501 18.4711 22.463 18.5561 22.436C18.4721 22.408 18.3821 22.371 18.2861 22.316C18.0131 22.159 17.8371 21.959 17.8891 21.868C17.9421 21.777 18.2041 21.831 18.4761 21.988C18.5721 22.043 18.6491 22.103 18.7151 22.162C18.6971 22.075 18.6841 21.977 18.6841 21.868C18.6841 21.554 18.7681 21.299 18.8731 21.299C18.9781 21.299 19.0621 21.554 19.0621 21.868C19.0621 21.979 19.0491 22.075 19.0311 22.162C19.0971 22.102 19.1741 22.043 19.2691 21.988C19.5411 21.831 19.8031 21.777 19.8561 21.868C19.9081 21.959 19.7301 22.159 19.4591 22.316C19.3631 22.371 19.2731 22.409 19.1881 22.436C19.2731 22.463 19.3631 22.501 19.4591 22.556C19.7311 22.712 19.9081 22.913 19.8571 23.004C19.8041 23.095 19.5421 23.041 19.2701 22.885Z" fill="#E40000"/>
<path d="M18.6367 18.18C18.6367 19.225 19.4847 20.072 20.5287 20.072C21.5727 20.072 22.4207 19.224 22.4207 18.18C22.4207 18.015 22.3937 17.859 22.3537 17.707C22.1427 18.522 21.4097 19.126 20.5287 19.126C19.6477 19.126 18.9147 18.522 18.7027 17.707C18.6637 17.859 18.6367 18.015 18.6367 18.18Z" fill="#EEEEEE"/>
<path d="M19.4583 22.5578C19.3623 22.5028 19.2733 22.4648 19.1873 22.4378C19.2713 22.4098 19.3623 22.3728 19.4583 22.3178C19.7303 22.1618 19.9073 21.9608 19.8553 21.8698C19.8023 21.7788 19.5403 21.8328 19.2683 21.9898C19.1723 22.0448 19.0963 22.1048 19.0303 22.1638C19.0483 22.0768 19.0613 21.9798 19.0613 21.8698C19.0613 21.5558 18.9773 21.3008 18.8723 21.3008C18.7673 21.3008 18.6833 21.5558 18.6833 21.8698C18.6833 21.9798 18.6963 22.0768 18.7143 22.1638C18.6483 22.1048 18.5703 22.0448 18.4753 21.9898C18.2033 21.8328 17.9413 21.7788 17.8883 21.8698C17.8363 21.9608 18.0133 22.1608 18.2853 22.3178C18.3813 22.3728 18.4703 22.4108 18.5553 22.4378C18.4713 22.4648 18.3803 22.5028 18.2853 22.5578C18.0123 22.7148 17.8353 22.9158 17.8883 23.0058C17.9403 23.0968 18.2033 23.0428 18.4753 22.8858C18.5713 22.8308 18.6483 22.7708 18.7143 22.7118C18.6963 22.7988 18.6833 22.8958 18.6833 23.0058C18.6833 23.3198 18.7673 23.5748 18.8723 23.5748C18.9763 23.5748 19.0613 23.3198 19.0613 23.0058C19.0613 22.8958 19.0483 22.7988 19.0303 22.7128C19.0963 22.7728 19.1743 22.8318 19.2693 22.8868C19.5413 23.0428 19.8033 23.0968 19.8563 23.0058C19.9073 22.9148 19.7293 22.7148 19.4583 22.5578Z" fill="#FFAC33"/>
<path d="M23.1675 21.8698C23.1145 21.7788 22.8525 21.8328 22.5805 21.9898C22.4855 22.0448 22.4085 22.1048 22.3425 22.1628C22.3605 22.0758 22.3735 21.9788 22.3735 21.8698C22.3735 21.5558 22.2885 21.3008 22.1845 21.3008C22.0805 21.3008 21.9955 21.5558 21.9955 21.8698C21.9955 21.9798 22.0085 22.0768 22.0265 22.1638C21.9605 22.1038 21.8825 22.0448 21.7875 21.9898C21.5155 21.8328 21.2535 21.7788 21.2005 21.8698C21.1485 21.9608 21.3265 22.1608 21.5975 22.3178C21.6935 22.3728 21.7835 22.4108 21.8685 22.4378C21.7845 22.4648 21.6935 22.5028 21.5975 22.5578C21.3255 22.7148 21.1485 22.9158 21.2005 23.0058C21.2535 23.0968 21.5155 23.0428 21.7875 22.8858C21.8835 22.8308 21.9605 22.7708 22.0265 22.7118C22.0085 22.7988 21.9955 22.8958 21.9955 23.0058C21.9955 23.3198 22.0805 23.5748 22.1845 23.5748C22.2885 23.5748 22.3735 23.3198 22.3735 23.0058C22.3735 22.8958 22.3605 22.7998 22.3425 22.7128C22.4085 22.7718 22.4855 22.8318 22.5805 22.8868C22.8525 23.0428 23.1155 23.0968 23.1675 23.0058C23.2205 22.9148 23.0415 22.7148 22.7705 22.5578C22.6745 22.5028 22.5855 22.4648 22.5005 22.4378C22.5845 22.4098 22.6755 22.3728 22.7705 22.3178C23.0425 22.1618 23.2195 21.9608 23.1675 21.8698Z" fill="#FFAC33"/>
<path d="M16.0863 29.0837C15.8383 29.1967 15.5933 29.3957 15.6593 29.5347C15.6593 29.5347 15.6603 29.5337 15.6603 29.5327C15.9353 29.5407 16.2613 29.3187 16.6263 29.1217C16.5343 28.9217 16.4523 28.7637 16.4523 28.7637C16.4523 28.7637 16.4463 28.7737 16.4443 28.7787C16.4253 28.8157 16.3383 28.9697 16.0863 29.0837Z" fill="#66757F"/>
<path d="M25.715 29.5346C25.78 29.3956 25.536 29.1966 25.289 29.0846C25.037 28.9706 24.949 28.8176 24.93 28.7806C24.927 28.7756 24.922 28.7656 24.922 28.7656C24.922 28.7656 24.84 28.9226 24.748 29.1226C25.113 29.3196 25.438 29.5416 25.715 29.5336V29.5346Z" fill="#66757F"/>
<path d="M15.6586 29.5343C15.5926 29.3953 15.8376 29.1953 16.0856 29.0833C16.3376 28.9693 16.4246 28.8163 16.4436 28.7793C16.2946 28.6003 15.7126 28.6413 15.1806 28.7633C14.4516 28.9293 12.1836 30.1573 12.1836 30.1573L12.7236 31.3033C12.7236 31.3033 13.3696 30.9693 13.8066 30.7823C14.2126 30.6073 15.2576 30.1353 15.8226 30.1173C15.7176 29.7803 15.6846 29.6383 15.6596 29.5353L15.6586 29.5343Z" fill="#CCD6DD"/>
<path d="M24.9287 28.7793C24.9477 28.8163 25.0357 28.9693 25.2877 29.0833C25.5347 29.1953 25.7787 29.3943 25.7137 29.5333H25.7157C25.6897 29.6373 25.6567 29.7793 25.5527 30.1173C26.1187 30.1363 27.1597 30.6083 27.5657 30.7823C28.0027 30.9693 28.6487 31.3033 28.6487 31.3033L29.1887 30.1573C29.1887 30.1573 26.9197 28.9293 26.1907 28.7633C25.6597 28.6413 25.0777 28.6003 24.9277 28.7793H24.9287Z" fill="#CCD6DD"/>
<path d="M25.7132 29.5332C25.4362 29.5402 25.1102 29.3182 24.7462 29.1222C24.5962 29.0412 24.4412 28.9642 24.2782 28.9092C23.7152 28.7222 22.1762 28.6172 21.6752 28.6172H19.6982C19.1982 28.6172 17.6592 28.7212 17.0962 28.9092C16.9322 28.9642 16.7772 29.0412 16.6262 29.1222C16.2612 29.3192 15.9342 29.5412 15.6602 29.5332C15.6602 29.5332 15.6602 29.5342 15.6602 29.5352C15.6852 29.6382 15.7182 29.7802 15.8232 30.1172C15.8382 30.1652 15.8502 30.2052 15.8682 30.2622C16.0132 30.7202 16.4092 30.6992 16.8672 30.4712C17.3252 30.2412 17.9922 30.0962 18.6172 30.0962H22.7582C23.3832 30.0962 24.0502 30.2412 24.5082 30.4712C24.9652 30.6992 25.3612 30.7212 25.5082 30.2622C25.5262 30.2052 25.5382 30.1652 25.5532 30.1172C25.6572 29.7792 25.6902 29.6372 25.7162 29.5332C25.7162 29.5332 25.7142 29.5332 25.7132 29.5332ZM19.8802 29.8362H18.2432V29.0612H19.8802V29.8362ZM23.4872 29.8362H20.6972V29.0612H23.4872V29.8362Z" fill="#CCD6DD"/>
<path d="M13.1211 25.8841C13.1541 25.7981 13.1791 25.7091 13.2031 25.6191C13.1821 25.7111 13.1521 25.7991 13.1211 25.8841Z" fill="#CCD6DD"/>
<path d="M12.9395 26.2633C12.9605 26.2273 12.9805 26.1903 13.0005 26.1523C12.9805 26.1893 12.9615 26.2273 12.9395 26.2633Z" fill="#CCD6DD"/>
<path d="M11.6309 27.2426C11.9909 27.1676 12.3069 26.9836 12.5699 26.7266C12.2939 26.9866 11.9659 27.1656 11.6309 27.2426Z" fill="#CCD6DD"/>
<path d="M14.7288 24.0348C15.0038 21.7878 14.1378 20.1608 13.0328 19.2838C12.0998 18.5428 11.9618 18.9538 10.8548 18.3568C10.0868 17.9438 10.4708 16.7208 10.4708 16.7208C10.3128 17.8238 11.5348 18.1008 11.5348 18.1008C11.6528 18.3378 12.1658 17.9828 12.1658 17.9828C12.1658 17.9828 13.1608 18.7328 13.7528 18.7708C14.3448 18.8088 14.4128 18.2188 13.7818 18.0218C13.1508 17.8248 13.1908 16.8388 13.1908 16.8388L13.2688 16.4058C13.3488 15.9718 12.5698 15.5768 12.5988 15.7548C12.6658 16.1608 12.1258 16.1388 11.9478 15.8728C11.8278 15.6928 11.9278 15.2228 12.4008 15.1048C12.8738 14.9868 13.3068 15.0258 12.7958 14.7498C12.2828 14.4738 11.3368 14.8278 11.3368 14.8278L10.5488 15.4588L9.61182 15.2228C9.61182 15.2228 9.81882 15.4408 9.93782 15.7558C10.0558 16.0708 9.64182 16.2878 9.48482 15.9728C9.32782 15.6578 8.68582 15.9528 8.25282 16.9388C7.81882 17.9238 8.38082 18.7718 8.65682 18.9298C8.79982 19.0118 8.97382 19.2728 9.10882 19.5058C9.09982 19.4748 8.82282 18.4848 9.31782 19.0088C9.81982 19.5418 10.9138 20.4578 11.7128 21.2558C12.5118 22.0548 13.6938 23.5328 13.6938 24.8928C13.6938 26.2528 13.0138 27.4948 11.1808 27.4948C9.93882 27.4948 9.18582 26.2118 9.31782 25.4248C9.44482 24.6618 9.96382 24.4468 10.1068 24.4018C10.2588 24.2938 10.4368 24.2218 10.6478 24.2138C11.0018 24.1998 11.2978 24.4798 11.1498 24.6578C10.9228 24.9298 11.2078 25.3408 11.5048 24.7468C11.5928 24.5688 11.3558 23.8588 10.6168 23.8588C9.99582 23.8588 9.02082 24.5198 9.02182 25.6048C9.02182 26.6878 9.82082 27.7928 11.2988 27.7928C13.8218 27.7928 14.4538 26.2848 14.7288 24.0378V24.0348Z" fill="#CCD6DD"/>
<path d="M12.7914 26.4766C12.7454 26.5346 12.7004 26.5936 12.6504 26.6466C12.7004 26.5926 12.7464 26.5356 12.7914 26.4766Z" fill="#CCD6DD"/>
<path d="M11.1814 27.2775C10.2724 27.2235 9.55344 26.2545 9.55344 25.6025C9.55344 25.2745 9.64644 24.9425 9.82344 24.6855C9.67244 24.8695 9.52344 25.1375 9.52344 25.4835C9.52344 26.1765 10.0624 27.2285 11.1804 27.2775H11.1814Z" fill="#CCD6DD"/>
<path d="M9.11729 19.5205C9.23829 19.7305 9.32729 19.9155 9.32729 19.9155C9.32729 19.9155 8.34229 19.8665 7.92829 19.5405C7.74729 19.3975 7.65229 20.7035 8.63829 21.7285C9.62429 22.7535 11.3583 23.0005 11.3583 23.0005L11.7983 22.1485C11.6213 22.0065 11.4433 21.8795 11.2693 21.7865C10.3273 21.2865 9.67829 20.2865 9.11829 19.5195L9.11729 19.5205Z" fill="#CCD6DD"/>
<path d="M12.918 23.4824C13.139 23.9384 13.269 24.4534 13.269 25.0794C13.269 25.2404 13.252 25.3934 13.223 25.5394C13.273 25.3314 13.308 25.1164 13.308 24.8904C13.308 24.4074 13.156 23.9244 12.918 23.4824Z" fill="#CCD6DD"/>
<path d="M31.4792 25.4831C31.4792 25.1221 31.3192 24.8471 31.1612 24.6621C31.3492 24.9231 31.4472 25.2651 31.4472 25.6031C31.4472 26.2431 30.7532 27.1871 29.8672 27.2721C30.9522 27.1961 31.4792 26.1661 31.4792 25.4831Z" fill="#CCD6DD"/>
<path d="M27.7744 25.528C27.7474 25.385 27.7304 25.237 27.7304 25.081C27.7304 24.463 27.8594 23.954 28.0744 23.502C27.8424 23.939 27.6934 24.415 27.6934 24.891C27.6934 25.112 27.7274 25.324 27.7744 25.528Z" fill="#CCD6DD"/>
<path d="M27.8086 25.6621C27.8286 25.7321 27.8476 25.8021 27.8726 25.8701C27.8486 25.8031 27.8266 25.7341 27.8086 25.6621Z" fill="#CCD6DD"/>
<path d="M31.6844 25.4232C31.8164 26.2102 31.0634 27.4932 29.8214 27.4932C27.9874 27.4932 27.3084 26.2522 27.3084 24.8912C27.3084 23.5302 28.4914 22.0532 29.2894 21.2542C30.0884 20.4562 31.1814 19.5402 31.6844 19.0072C32.1674 18.4942 31.9134 19.4262 31.8944 19.4972C32.0284 19.2662 32.2004 19.0112 32.3424 18.9302C32.6174 18.7722 33.1794 17.9242 32.7464 16.9392C32.3134 15.9542 31.6714 15.6582 31.5144 15.9732C31.3564 16.2882 30.9424 16.0712 31.0614 15.7562C31.1794 15.4412 31.3884 15.2232 31.3884 15.2232L30.4524 15.4592L29.6634 14.8282C29.6634 14.8282 28.7174 14.4732 28.2054 14.7502C27.6924 15.0262 28.1264 14.9862 28.5994 15.1052C29.0724 15.2242 29.1734 15.6942 29.0524 15.8732C28.8744 16.1392 28.3344 16.1612 28.4014 15.7552C28.4304 15.5772 27.6524 15.9722 27.7314 16.4062L27.8104 16.8392C27.8104 16.8392 27.8504 17.8252 27.2194 18.0222C26.5884 18.2192 26.6574 18.8102 27.2484 18.7712C27.8394 18.7322 28.8354 17.9832 28.8354 17.9832C28.8354 17.9832 29.3484 18.3382 29.4664 18.1012C29.4664 18.1012 30.6884 17.8252 30.5304 16.7212C30.5304 16.7212 30.9144 17.9442 30.1464 18.3572C29.0384 18.9532 28.9024 18.5432 27.9684 19.2842C26.8644 20.1612 25.9964 21.7872 26.2724 24.0352C26.5484 26.2822 27.1784 27.7902 29.7024 27.7902C31.1804 27.7902 31.9794 26.6862 31.9794 25.6022C31.9794 24.5182 31.0034 23.8572 30.3824 23.8572C29.6434 23.8572 29.4064 24.5672 29.4944 24.7452C29.7904 25.3392 30.0764 24.9292 29.8494 24.6562C29.7014 24.4782 29.9974 24.1982 30.3514 24.2122C30.5594 24.2212 30.7364 24.2912 30.8874 24.3962C31.0214 24.4372 31.5554 24.6482 31.6844 25.4232Z" fill="#CCD6DD"/>
<path d="M33.0721 19.5411C32.6581 19.8661 31.6731 19.9161 31.6731 19.9161C31.6731 19.9161 31.7581 19.7391 31.8751 19.5341C31.3171 20.2991 30.6711 21.2891 29.7341 21.7871C29.5591 21.8801 29.3801 22.0081 29.2031 22.1511L29.6431 23.0021C29.6431 23.0021 31.3771 22.7551 32.3631 21.7301C33.3491 20.7051 33.2521 19.3991 33.0731 19.5421L33.0721 19.5411Z" fill="#CCD6DD"/>
<path d="M23.4873 29.0605H20.6973V29.8355H23.4873V29.0605Z" fill="#99AAB5"/>
<path d="M19.8811 29.0605H18.2441V29.8355H19.8811V29.0605Z" fill="#99AAB5"/>
<path d="M9.31741 25.4242C9.18541 26.2112 9.93841 27.4942 11.1804 27.4942C13.0134 27.4942 13.6934 26.2532 13.6934 24.8922C13.6934 23.5312 12.5104 22.0542 11.7124 21.2552C10.9134 20.4572 9.82041 19.5412 9.31741 19.0082C8.82241 18.4842 9.10041 19.4742 9.10841 19.5052L9.10941 19.5102C9.11141 19.5132 9.11441 19.5172 9.11641 19.5202C9.67641 20.2872 10.3254 21.2862 11.2674 21.7872C11.4414 21.8802 11.6194 22.0072 11.7964 22.1492C12.2224 22.4912 12.6324 22.9542 12.9174 23.4842C13.1554 23.9262 13.3074 24.4092 13.3074 24.8922C13.3074 25.1182 13.2724 25.3322 13.2224 25.5412C13.2164 25.5682 13.2094 25.5942 13.2024 25.6202C13.1784 25.7112 13.1534 25.8002 13.1204 25.8852C13.0844 25.9782 13.0444 26.0672 12.9994 26.1532C12.9794 26.1912 12.9604 26.2282 12.9384 26.2642C12.8934 26.3392 12.8424 26.4092 12.7914 26.4772C12.7464 26.5372 12.7004 26.5932 12.6504 26.6472C12.6244 26.6752 12.5964 26.7002 12.5694 26.7272C12.3064 26.9842 11.9904 27.1682 11.6304 27.2432C11.5104 27.2682 11.3864 27.2862 11.2584 27.2862C11.2304 27.2862 11.2074 27.2782 11.1804 27.2772C10.0634 27.2272 9.52341 26.1762 9.52341 25.4832C9.52341 25.1372 9.67141 24.8692 9.82341 24.6852C9.98241 24.4912 10.1444 24.3892 10.1444 24.3892C10.1444 24.3892 10.1284 24.3932 10.1054 24.4012C9.96241 24.4462 9.44441 24.6612 9.31741 25.4242Z" fill="#99AAB5"/>
<path d="M31.8746 19.5338C31.8796 19.5258 31.8866 19.5178 31.8916 19.5098C31.8916 19.5098 31.8946 19.4998 31.8946 19.4968C31.9146 19.4268 32.1676 18.4938 31.6846 19.0068C31.1826 19.5398 30.0886 20.4558 29.2896 21.2538C28.4906 22.0528 27.3086 23.5308 27.3086 24.8908C27.3086 26.2508 27.9876 27.4928 29.8216 27.4928C31.0636 27.4928 31.8166 26.2098 31.6846 25.4228C31.5556 24.6478 31.0216 24.4368 30.8876 24.3958C30.8686 24.3898 30.8566 24.3868 30.8566 24.3868C30.8566 24.3868 31.0066 24.4808 31.1596 24.6598C31.3176 24.8448 31.4776 25.1198 31.4776 25.4808C31.4776 26.1638 30.9506 27.1938 29.8656 27.2698C29.8236 27.2728 29.7876 27.2838 29.7436 27.2838C29.6126 27.2838 29.4866 27.2658 29.3636 27.2398C29.2546 27.2168 29.1506 27.1788 29.0496 27.1368C29.0416 27.1338 29.0326 27.1308 29.0246 27.1278C28.9126 27.0798 28.8086 27.0198 28.7076 26.9518C28.6996 26.9458 28.6896 26.9408 28.6816 26.9348C28.5996 26.8768 28.5236 26.8128 28.4506 26.7428C28.4126 26.7058 28.3726 26.6708 28.3366 26.6308C28.2976 26.5878 28.2606 26.5418 28.2246 26.4958C28.1636 26.4158 28.1036 26.3348 28.0516 26.2458C28.0386 26.2238 28.0266 26.2008 28.0146 26.1778C27.9616 26.0788 27.9146 25.9748 27.8746 25.8678C27.8486 25.8008 27.8306 25.7308 27.8106 25.6598C27.7976 25.6158 27.7866 25.5708 27.7756 25.5258C27.7276 25.3208 27.6946 25.1098 27.6946 24.8898C27.6946 24.4138 27.8436 23.9378 28.0756 23.5008C28.3606 22.9648 28.7726 22.4948 29.2036 22.1488C29.3806 22.0058 29.5596 21.8778 29.7346 21.7848C30.6716 21.2868 31.3176 20.2978 31.8756 19.5318L31.8746 19.5338Z" fill="#99AAB5"/>
</svg>
