<svg width="41" height="41" viewBox="0 0 41 41" fill="none" xmlns="http://www.w3.org/2000/svg">
<path d="M34.5 8.5H6.5C4.29086 8.5 2.5 10.2909 2.5 12.5V28.5C2.5 30.7091 4.29086 32.5 6.5 32.5H34.5C36.7091 32.5 38.5 30.7091 38.5 28.5V12.5C38.5 10.2909 36.7091 8.5 34.5 8.5Z" fill="#E3E7EA"/>
<path d="M38.5 16.5V12.496C38.5 10.289 36.711 8.5 34.505 8.5H9.08398L21.134 16.5H38.5Z" fill="#E3002A"/>
<path d="M38.5 28.504V24.5H21.134L9.08398 32.5H34.505C36.712 32.5 38.5 30.711 38.5 28.504Z" fill="#2F2D91"/>
<path d="M6.652 16.4992L2.5 13.7422V16.4992V24.4992V27.2562L6.652 24.4992L12.677 20.4992L6.652 16.4992Z" fill="black"/>
<path d="M2.5 13.7413L6.652 16.4983L12.677 20.4983L2.5 27.2553V28.5023C2.5 28.7193 2.531 28.9273 2.564 29.1353L15.574 20.4983L2.564 11.8613C2.531 12.0693 2.5 12.2773 2.5 12.4943V13.7413Z" fill="#FCAD00"/>
<path d="M12.6773 20.5L6.65234 16.5L12.6773 20.5Z" fill="#FCAD00"/>
<path d="M23.5445 18.0984H20.6475L6.22845 8.52539C4.36245 8.65139 2.85545 10.0454 2.56445 11.8614L15.5745 20.4984L2.56445 29.1354C2.85545 30.9514 4.36245 32.3454 6.22845 32.4714L20.6485 22.8984H38.5005V18.0994L23.5445 18.0984Z" fill="#007B47"/>
</svg>
