<svg width="41" height="41" viewBox="0 0 41 41" fill="none" xmlns="http://www.w3.org/2000/svg">
<path d="M34.5 8.49905H6.5C4.291 8.49905 2.5 10.29 2.5 12.499V28.499C2.5 30.708 4.291 32.499 6.5 32.499H23.865V18.355H28.809V18.344H33.652V18.352H38.5V12.498C38.5 10.289 36.709 8.49905 34.5 8.49905ZM37.214 12.37C37.214 12.37 37.509 12.212 37.577 12.28C37.646 12.348 37.101 12.779 37.101 12.779C37.101 12.779 37.349 12.779 37.259 12.938C37.168 13.097 36.171 13.822 35.264 13.799C35.082 14.117 34.176 14.139 34.176 14.139C34.176 14.139 34.402 14.252 34.334 14.343C34.265 14.434 33.716 14.343 33.716 14.343C33.716 14.343 34.13 14.433 34.04 14.547C33.949 14.66 33.45 14.547 33.45 14.547C33.45 14.547 33.893 14.841 33.717 14.887C33.542 14.932 32.748 14.66 32.748 14.66C32.748 14.66 33.268 14.978 33.042 15.068C32.816 15.159 32.454 14.887 32.454 14.887C32.454 14.887 32.34 15.151 32.204 15.087C32.068 15.023 32.114 15.317 32.204 15.431C32.294 15.545 31.977 15.431 31.977 15.431C31.977 15.431 32.228 15.657 32.25 15.771C32.273 15.884 31.955 15.635 32 15.771C32.045 15.907 32.114 16.316 31.977 16.361C31.841 16.406 31.886 15.795 31.75 15.885C31.614 15.975 31.593 16.274 31.501 16.363C31.41 16.451 31.342 15.998 31.342 15.998C31.342 15.998 31.094 16.043 31.094 16.157C31.094 16.271 31.049 16.474 30.958 16.52C30.866 16.565 30.73 16.202 30.73 16.202C30.73 16.202 30.503 16.481 30.367 16.523C30.232 16.565 30.254 16.066 30.254 16.066C30.254 16.066 29.892 16.225 29.801 16.134C29.709 16.043 29.982 15.68 30.254 15.703C30.526 15.725 30.572 15.317 30.572 15.317C30.572 15.317 30.233 15.521 30.278 15.249C30.324 14.978 30.255 14.501 30.255 14.501C30.255 14.501 29.961 14.751 29.757 14.66C29.553 14.569 29.621 14.32 29.621 14.32C29.621 14.32 29.326 14.478 29.076 14.478C28.826 14.478 29.076 14.161 29.076 14.161C29.076 14.161 28.668 14.388 28.487 14.365C28.306 14.342 28.487 14.048 28.487 14.048C28.487 14.048 28.192 14.274 28.011 14.229C27.83 14.183 28.011 13.877 28.011 13.877C28.011 13.877 27.694 14.115 27.49 14.002C27.286 13.889 27.49 13.753 27.49 13.753C27.49 13.753 27.059 13.98 26.786 13.877C26.515 13.776 26.628 13.549 26.628 13.549C26.628 13.549 26.288 13.64 26.016 13.549C25.744 13.458 26.016 13.232 26.016 13.232C26.016 13.232 25.675 13.3 25.471 13.209C25.267 13.118 25.585 12.892 25.585 12.892C25.585 12.892 24.882 12.778 24.497 12.506C24.111 12.234 24.497 12.121 24.497 12.121C24.497 12.121 24.157 11.622 24.633 11.758C24.269 11.214 24.655 11.372 24.927 11.622C25.198 11.872 25.516 11.962 25.516 11.962C25.516 11.962 24.926 11.566 25.085 11.231C25.245 10.897 25.833 11.667 26.967 12.053C26.197 11.237 26.606 11.372 27.24 11.758C27.874 12.144 28.509 12.098 28.872 12.189C29.234 12.28 29.62 12.416 29.62 12.416C29.62 12.416 29.689 11.396 30.641 11.396C31.002 11.396 31.23 11.69 31.23 11.69C31.23 11.69 31.775 11.713 31.775 11.905C31.775 12.097 31.457 12.234 31.457 12.234C31.457 12.234 31.319 12.007 31.139 12.098C30.958 12.189 31.184 12.529 31.184 12.529C31.184 12.529 31.955 12.461 32.34 12.529C32.726 12.597 33.609 12.098 34.199 11.962C34.788 11.825 35.175 11.576 35.242 11.576C35.31 11.576 35.334 11.809 35.242 11.965C35.899 11.69 36.761 11.305 36.92 11.237C37.079 11.169 36.603 11.758 36.603 11.758C36.603 11.758 37.373 11.396 37.509 11.396C37.645 11.396 37.055 12.076 37.055 12.076C37.055 12.076 37.69 11.714 37.804 11.736C37.917 11.758 37.214 12.37 37.214 12.37Z" fill="#008E37"/>
<path d="M31.0692 14.3652C31.0692 14.3652 31.0452 15.0222 31.0692 15.1582C31.0922 15.2952 30.8872 15.1582 30.9332 15.3172C30.9792 15.4762 30.7782 15.6342 31.0712 15.6342C31.3642 15.6342 31.5912 15.5902 31.5452 15.4762C31.5002 15.3622 31.3652 15.3402 31.3872 15.1132C31.4092 14.8872 31.2962 14.5922 31.0692 14.3652Z" fill="#008E37"/>
<path d="M28.8106 32.4937H33.6516V18.3537V18.3457H28.8086V18.3557H28.8106V32.4937Z" fill="black"/>
<path d="M28.8092 32.4935V18.3555H23.8652V32.4995H28.8112V32.4935H28.8092Z" fill="#DE001B"/>
<path d="M33.6523 32.4945V32.4985H34.5243C34.5583 32.4985 34.5893 32.4895 34.6233 32.4885C34.8613 32.4815 35.0963 32.4615 35.3223 32.4145C35.3993 32.3985 35.4703 32.3655 35.5463 32.3455C35.7233 32.2975 35.9013 32.2525 36.0673 32.1815C36.2143 32.1195 36.3463 32.0345 36.4833 31.9555C36.5683 31.9065 36.6603 31.8695 36.7413 31.8145C37.8033 31.0965 38.5013 29.8835 38.5013 28.5045V18.3535H33.6533L33.6523 32.4945Z" fill="#F17400"/>
<path d="M37.0557 12.0773C37.0557 12.0773 37.6457 11.3973 37.5097 11.3973C37.3737 11.3973 36.6037 11.7593 36.6037 11.7593C36.6037 11.7593 37.0797 11.1703 36.9207 11.2383C36.7617 11.3063 35.8997 11.6913 35.2427 11.9663C35.3347 11.8103 35.3107 11.5773 35.2427 11.5773C35.1757 11.5773 34.7887 11.8263 34.1997 11.9633C33.6097 12.0993 32.7267 12.5983 32.3407 12.5303C31.9557 12.4623 31.1847 12.5303 31.1847 12.5303C31.1847 12.5303 30.9587 12.1903 31.1397 12.0993C31.3197 12.0083 31.4577 12.2353 31.4577 12.2353C31.4577 12.2353 31.7757 12.0993 31.7757 11.9063C31.7757 11.7133 31.2307 11.6913 31.2307 11.6913C31.2307 11.6913 31.0027 11.3973 30.6417 11.3973C29.6897 11.3973 29.6207 12.4173 29.6207 12.4173C29.6207 12.4173 29.2347 12.2813 28.8727 12.1903C28.5097 12.0993 27.8747 12.1453 27.2407 11.7593C26.6067 11.3733 26.1977 11.2383 26.9677 12.0543C25.8337 11.6683 25.2457 10.8983 25.0857 11.2323C24.9267 11.5673 25.5167 11.9633 25.5167 11.9633C25.5167 11.9633 25.1987 11.8733 24.9277 11.6233C24.6557 11.3733 24.2697 11.2153 24.6337 11.7593C24.1577 11.6233 24.4977 12.1223 24.4977 12.1223C24.4977 12.1223 24.1117 12.2353 24.4977 12.5073C24.8827 12.7793 25.5857 12.8933 25.5857 12.8933C25.5857 12.8933 25.2677 13.1193 25.4717 13.2103C25.6757 13.3013 26.0167 13.2333 26.0167 13.2333C26.0167 13.2333 25.7447 13.4593 26.0167 13.5503C26.2887 13.6413 26.6287 13.5503 26.6287 13.5503C26.6287 13.5503 26.5157 13.7773 26.7867 13.8783C27.0597 13.9813 27.4907 13.7543 27.4907 13.7543C27.4907 13.7543 27.2867 13.8903 27.4907 14.0033C27.6947 14.1163 28.0117 13.8783 28.0117 13.8783C28.0117 13.8783 27.8307 14.1843 28.0117 14.2303C28.1927 14.2753 28.4877 14.0493 28.4877 14.0493C28.4877 14.0493 28.3067 14.3433 28.4877 14.3663C28.6687 14.3893 29.0767 14.1623 29.0767 14.1623C29.0767 14.1623 28.8277 14.4793 29.0767 14.4793C29.3257 14.4793 29.6217 14.3213 29.6217 14.3213C29.6217 14.3213 29.5537 14.5703 29.7577 14.6613C29.9617 14.7523 30.2557 14.5023 30.2557 14.5023C30.2557 14.5023 30.3247 14.9793 30.2787 15.2503C30.2337 15.5223 30.5727 15.3183 30.5727 15.3183C30.5727 15.3183 30.5267 15.7263 30.2547 15.7043C29.9827 15.6813 29.7097 16.0443 29.8017 16.1353C29.8927 16.2263 30.2547 16.0673 30.2547 16.0673C30.2547 16.0673 30.2327 16.5663 30.3677 16.5243C30.5037 16.4823 30.7307 16.2033 30.7307 16.2033C30.7307 16.2033 30.8667 16.5663 30.9587 16.5213C31.0497 16.4753 31.0947 16.2723 31.0947 16.1583C31.0947 16.0443 31.3427 15.9993 31.3427 15.9993C31.3427 15.9993 31.4107 16.4523 31.5017 16.3643C31.5937 16.2753 31.6147 15.9763 31.7507 15.8863C31.8867 15.7963 31.8417 16.4073 31.9777 16.3623C32.1147 16.3173 32.0457 15.9083 32.0007 15.7723C31.9557 15.6363 32.2737 15.8853 32.2507 15.7723C32.2287 15.6583 31.9777 15.4323 31.9777 15.4323C31.9777 15.4323 32.2947 15.5463 32.2047 15.4323C32.1147 15.3183 32.0687 15.0243 32.2047 15.0883C32.3407 15.1523 32.4547 14.8883 32.4547 14.8883C32.4547 14.8883 32.8167 15.1603 33.0427 15.0693C33.2687 14.9793 32.7487 14.6613 32.7487 14.6613C32.7487 14.6613 33.5427 14.9333 33.7177 14.8883C33.8937 14.8423 33.4507 14.5483 33.4507 14.5483C33.4507 14.5483 33.9497 14.6613 34.0407 14.5483C34.1307 14.4343 33.7167 14.3443 33.7167 14.3443C33.7167 14.3443 34.2657 14.4353 34.3347 14.3443C34.4027 14.2533 34.1767 14.1403 34.1767 14.1403C34.1767 14.1403 35.0827 14.1183 35.2647 13.8003C36.1717 13.8233 37.1687 13.0983 37.2597 12.9393C37.3497 12.7803 37.1017 12.7803 37.1017 12.7803C37.1017 12.7803 37.6467 12.3493 37.5777 12.2813C37.5097 12.2133 37.2147 12.3713 37.2147 12.3713C37.2147 12.3713 37.9177 11.7593 37.8047 11.7373C37.6907 11.7153 37.0557 12.0773 37.0557 12.0773ZM31.0727 15.6363C30.7797 15.6363 30.9807 15.4783 30.9347 15.3193C30.8887 15.1603 31.0937 15.2973 31.0707 15.1603C31.0467 15.0243 31.0707 14.3673 31.0707 14.3673C31.2977 14.5943 31.4107 14.8893 31.3887 15.1153C31.3667 15.3423 31.5017 15.3643 31.5467 15.4783C31.5927 15.5923 31.3667 15.6363 31.0727 15.6363Z" fill="#F17400"/>
</svg>
