<svg width="41" height="41" viewBox="0 0 41 41" fill="none" xmlns="http://www.w3.org/2000/svg">
<path d="M11.514 25.6424L16.021 22.2144L18.275 20.4994L16.022 18.7854L11.514 15.3564L7.00795 11.9284L3.84995 9.52539C3.02895 10.2574 2.50195 11.3124 2.50195 12.4994V28.4994C2.50195 29.6864 3.02895 30.7414 3.84995 31.4734L7.00795 29.0704L11.514 25.6424ZM5.94595 20.7784L3.39695 18.2934L6.70995 17.8114C6.57095 16.7644 6.02295 16.2814 5.20595 16.5304C5.20595 16.5304 5.35995 15.9554 5.89595 15.8404C6.24095 14.9964 7.04795 14.8824 7.66095 15.8404C7.73495 15.9554 7.79595 16.0464 7.86295 16.1494L8.70995 14.4344L10.351 17.7604L14.023 18.2944L12.244 20.0274C12.744 20.3814 13.107 20.6344 13.107 20.6344H12.647L11.888 23.9184L11.995 24.5394L10.815 23.9184H6.60795L5.42795 24.5394L5.87995 21.9034C5.75495 21.7344 5.65895 21.3944 5.94595 20.7784Z" fill="#E3E7EA"/>
<path d="M7.86777 11.928H38.4438C38.4438 11.928 38.4438 11.926 38.4438 11.925C38.4108 11.699 38.3568 11.479 38.2878 11.267C38.2808 11.245 38.2748 11.222 38.2668 11.2C38.1998 11.005 38.1168 10.819 38.0228 10.639C38.0018 10.599 37.9808 10.559 37.9578 10.52C37.8678 10.361 37.7658 10.21 37.6558 10.066C37.6128 10.009 37.5658 9.955 37.5198 9.901C37.4168 9.78 37.3088 9.665 37.1918 9.557C37.1178 9.489 37.0388 9.428 36.9598 9.366C36.8548 9.283 36.7488 9.2 36.6358 9.127C36.5248 9.056 36.4068 8.999 36.2898 8.939C36.1918 8.889 36.0968 8.835 35.9948 8.794C35.8388 8.731 35.6748 8.686 35.5088 8.643C35.4318 8.623 35.3578 8.593 35.2788 8.578C35.0288 8.529 34.7718 8.5 34.5068 8.5H6.49577C6.24577 8.5 6.00377 8.53 5.76677 8.574C5.70177 8.586 5.63977 8.603 5.57677 8.618C5.39677 8.661 5.22177 8.715 5.05177 8.781C4.99477 8.803 4.93777 8.823 4.88177 8.848C4.66477 8.944 4.45477 9.053 4.25977 9.184L7.86777 11.928Z" fill="#0F9636"/>
<path d="M7.86872 29.0723L4.26172 31.8163C4.45672 31.9483 4.66672 32.0563 4.88372 32.1523C4.93872 32.1763 4.99672 32.1973 5.05372 32.2193C5.22372 32.2853 5.39772 32.3393 5.57872 32.3823C5.64172 32.3973 5.70472 32.4143 5.76872 32.4263C6.00572 32.4703 6.24772 32.5003 6.49772 32.5003H34.5067C34.7717 32.5003 35.0287 32.4713 35.2787 32.4223C35.3577 32.4063 35.4317 32.3773 35.5087 32.3573C35.6737 32.3143 35.8387 32.2703 35.9947 32.2063C36.0967 32.1653 36.1917 32.1113 36.2897 32.0613C36.4077 32.0013 36.5257 31.9443 36.6367 31.8733C36.7497 31.8003 36.8557 31.7183 36.9607 31.6343C37.0397 31.5723 37.1187 31.5113 37.1927 31.4433C37.3087 31.3353 37.4177 31.2203 37.5207 31.0993C37.5667 31.0453 37.6127 30.9913 37.6567 30.9343C37.7667 30.7903 37.8687 30.6393 37.9587 30.4803C37.9807 30.4403 38.0027 30.4013 38.0237 30.3603C38.1177 30.1803 38.2017 29.9943 38.2677 29.8003C38.2757 29.7783 38.2817 29.7553 38.2887 29.7333C38.3577 29.5213 38.4117 29.3013 38.4447 29.0753V29.0723H7.86872Z" fill="#0F9636"/>
<path d="M38.4432 11.9277H7.86719L12.3732 15.3557H38.5002V12.4947C38.5002 12.3007 38.4702 12.1147 38.4432 11.9277Z" fill="#FBD000"/>
<path d="M7.86719 29.0725H38.4432C38.4702 28.8855 38.5002 28.6995 38.5002 28.5055V25.6445H12.3732L7.86719 29.0725Z" fill="#FBD000"/>
<path d="M12.3737 15.3575L7.86766 11.9295L4.26066 9.18555C4.11266 9.28555 3.98166 9.40755 3.84766 9.52655H3.84866L7.00666 11.9305L11.5127 15.3585L16.0207 18.7875L18.2737 20.5015L16.0197 22.2165L11.5127 25.6445L7.00666 29.0725L3.84866 31.4755H3.84766C3.98066 31.5955 4.11166 31.7165 4.26066 31.8175L7.86766 29.0735L12.3737 25.6455L16.8807 22.2175H38.5007V18.7895H16.8817L12.3737 15.3605V15.3575Z" fill="black"/>
<path d="M12.373 25.6428H38.5V22.2148H16.88L12.373 25.6428Z" fill="#DE001B"/>
<path d="M16.881 18.7864H38.5V15.3574H12.373L16.881 18.7864Z" fill="#DE001B"/>
<path d="M10.8125 23.9199L11.9915 24.5409L11.8855 23.9199H11.8845H10.8125Z" fill="#DE001B"/>
<path d="M6.73853 18.0675C6.73253 17.9775 6.71853 17.8975 6.70753 17.8145L3.39453 18.2965L5.94353 20.7815C5.95453 20.7575 5.95853 20.7395 5.97053 20.7145C6.50753 19.6405 6.81453 19.2965 6.73753 18.0685L6.73853 18.0675Z" fill="#DE001B"/>
<path d="M6.60478 23.9203H6.40178L6.04878 22.0553C6.04878 22.0553 5.95878 22.0143 5.87778 21.9043L5.42578 24.5403L6.60578 23.9193L6.60478 23.9203Z" fill="#DE001B"/>
<path d="M9.46133 17.9895C10.0033 18.4325 11.3463 19.3945 12.2423 20.0285L14.0213 18.2955L10.3493 17.7615L8.70833 14.4355L7.86133 16.1505C8.35433 16.9045 8.71833 17.3815 9.46133 17.9895Z" fill="#DE001B"/>
<path d="M6.04812 22.0554L6.40112 23.9204H7.96513L7.82113 22.9764C7.82113 22.9764 10.1431 22.8204 12.0521 23.1984L11.8851 23.9204L12.6441 20.6364H13.1041C13.1041 20.6364 12.7411 20.3834 12.2411 20.0294C11.3451 19.3954 10.0011 18.4334 9.46013 17.9904C8.71713 17.3834 8.35313 16.9064 7.86013 16.1514C7.79313 16.0484 7.73112 15.9574 7.65812 15.8424C7.04512 14.8844 6.23913 14.9984 5.89313 15.8424C5.35613 15.9574 5.20312 16.5324 5.20312 16.5324C6.02012 16.2834 6.56813 16.7664 6.70713 17.8134C6.71813 17.8964 6.73212 17.9764 6.73812 18.0664C6.81512 19.2944 6.50813 19.6384 5.97113 20.7124C5.95913 20.7364 5.95513 20.7554 5.94413 20.7794C5.65613 21.3944 5.75212 21.7344 5.87712 21.9044C5.95812 22.0144 6.04812 22.0554 6.04812 22.0554ZM12.2541 22.3254C11.9401 22.3084 9.56512 22.1764 9.00112 22.0854C8.39612 21.9874 7.21712 22.0854 7.21712 22.0854C7.33312 21.6994 8.08013 21.3374 8.82813 21.3814C9.52813 21.4234 12.0371 21.8234 12.3581 21.8744L12.2541 22.3254ZM9.15313 20.1854C9.85413 20.3004 12.6441 20.6364 12.6441 20.6364L12.5331 21.1174C12.5331 21.1174 9.83512 20.8174 9.00112 20.6364C8.16712 20.4554 7.59212 19.1944 7.59212 19.1944L7.90912 18.9774C7.90912 18.9774 8.45313 20.0704 9.15313 20.1854Z" fill="#FBCB00"/>
<path d="M8.8278 21.3806C8.0808 21.3366 7.3328 21.6986 7.2168 22.0846C7.2168 22.0846 8.3958 21.9866 9.0008 22.0846C9.5648 22.1756 11.9398 22.3076 12.2538 22.3246L12.3578 21.8736C12.0368 21.8216 9.5268 21.4216 8.8278 21.3806Z" fill="#FFAC33"/>
<path d="M12.0533 23.1969C10.1453 22.8199 7.82227 22.9749 7.82227 22.9749L7.96627 23.9189H11.8853L12.0523 23.1969H12.0533Z" fill="#FFAC33"/>
<path d="M8.99984 20.6356C9.83384 20.8166 12.5318 21.1166 12.5318 21.1166L12.6428 20.6356C12.6428 20.6356 9.85284 20.2996 9.15184 20.1846C8.45084 20.0696 7.90684 18.9766 7.90684 18.9766L7.58984 19.1936C7.58984 19.1936 8.16484 20.4536 8.99884 20.6356H8.99984Z" fill="#FFAC33"/>
</svg>
