<svg width="41" height="41" viewBox="0 0 41 41" fill="none" xmlns="http://www.w3.org/2000/svg">
<path d="M34.5 8.5H6.5C4.29086 8.5 2.5 10.2909 2.5 12.5V28.5C2.5 30.7091 4.29086 32.5 6.5 32.5H34.5C36.7091 32.5 38.5 30.7091 38.5 28.5V12.5C38.5 10.2909 36.7091 8.5 34.5 8.5Z" fill="#3090D1"/>
<path d="M2.5303 12.2012L2.5293 12.2022L16.6303 20.4992L2.5303 12.2012Z" fill="#3090D1"/>
<path d="M36.2833 8.93555L20.5003 18.2225L4.7173 8.93555C3.4923 9.54955 2.6363 10.7655 2.5303 12.2025L16.6303 20.4995L2.5293 28.7975C2.6353 30.2345 3.4913 31.4515 4.7163 32.0655L20.4993 22.7775L36.2823 32.0655C37.5073 31.4515 38.3633 30.2345 38.4693 28.7975L24.3693 20.5005L38.4693 12.2045C38.3633 10.7675 37.5073 9.55055 36.2823 8.93655L36.2833 8.93555Z" fill="#E3E7EA"/>
<path d="M38.4701 28.797V28.796L24.3691 20.5L38.4701 28.797Z" fill="#E3E7EA"/>
</svg>
