<svg width="41" height="41" viewBox="0 0 41 41" fill="none" xmlns="http://www.w3.org/2000/svg">
<path d="M34.5 8.5H6.5C4.291 8.5 2.5 10.291 2.5 12.5V20.5H6.17C6.212 20.228 6.335 18.724 6.335 18.724C6.335 18.724 5.922 18.535 5.802 18.363C5.682 18.191 5.664 17.778 5.664 17.778C5.664 17.778 5.285 17.399 5.56 17.21C5.56 17.21 5.56 16.711 5.113 16.591C5.113 16.591 5.337 16.419 5.646 16.591C5.956 16.763 6.163 16.987 6.163 16.987C6.163 16.987 6.369 16.987 6.696 17.486C6.696 17.486 6.73 16.9 6.937 16.694C7.144 16.488 6.921 15.85 6.438 15.73C6.438 15.73 7.23 15.523 7.488 16.125C7.746 16.728 7.935 16.71 7.832 17.123L7.746 17.484C7.746 17.484 7.815 17.26 7.953 17.328C7.953 17.328 8.142 17.191 8.228 16.967C8.314 16.743 8.228 16.45 8.228 16.45C8.228 16.45 8.623 16.657 8.572 17.001C8.52 17.346 8.554 17.466 8.554 17.466C8.554 17.466 8.554 17.711 8.486 17.969C8.417 18.227 8.28 18.24 8.073 18.395C7.832 18.567 7.608 18.756 7.712 18.98C7.816 19.204 8.097 19.525 8.149 19.938C8.172 20.123 8.175 20.326 8.173 20.499H10.749C10.807 20.026 11.091 19.996 11.091 19.996C11.091 19.996 10.976 19.531 11.091 19.152C11.206 18.773 11.549 18.584 11.549 18.584C11.549 18.584 11.36 18.344 11.549 17.965C11.738 17.586 12.014 17.483 12.014 17.483C12.014 17.483 11.928 16.812 12.496 16.485C12.496 16.485 12.271 15.667 12.995 15.401C12.995 15.401 12.877 15.149 12.786 14.934C12.287 15.068 11.798 15.42 11.669 16.038L11.353 15.603C11.353 15.603 11.148 16.108 11.09 16.297C11.033 16.485 10.929 16.641 10.929 16.641C10.929 16.641 10.585 16.228 10.809 15.867C10.809 15.867 10.424 15.335 10.436 14.914C10.321 14.918 10.218 14.921 10.138 14.921C9.587 14.921 7.66 14.749 7.66 14.749L7.935 15.368C7.935 15.368 6.971 14.955 6.524 14.438C6.077 13.921 5.56 12.682 5.56 12.682C5.56 12.682 7.444 13.797 8.407 13.763L7.625 14.129C7.625 14.129 11.239 14.301 12.857 13.854C12.857 13.854 12.766 13.405 11.698 13.422L11.673 13.755L11.362 13.53L11.396 13.858L11.112 13.665L11.145 13.969L10.912 13.814L10.826 14.073L10.635 13.891C10.635 13.891 10.41 13.943 10.376 13.882C10.341 13.821 10.286 13.82 10.3 13.65C10.276 13.455 9.862 13.148 9.382 13.174C8.762 13.208 7.939 13.38 7.809 13.294C7.723 13.237 8.415 12.439 9.379 12.302C10.343 12.164 11.136 12.137 11.136 12.137C11.136 12.137 11.066 11.648 11.72 11.476C12.374 11.304 14.153 11.593 14.636 11.489C14.636 11.489 14.957 11.063 15.438 11.029C15.919 10.995 16.781 10.617 16.953 10.41L16.883 11.455L17.281 11.49C17.281 11.49 16.666 11.966 16.357 12.069C16.047 12.172 16.098 12.873 16.236 13.045C16.374 13.217 16.411 13.271 16.411 13.271C16.411 13.271 17.265 13.435 17.368 14.16C17.368 14.16 16.452 14.021 16.452 14.297C16.452 14.573 17.567 14.609 17.454 15.576C17.454 15.576 16.477 15.163 16.305 15.472C16.133 15.783 16.537 16.169 16.849 16.267C17.316 16.414 17.264 17.224 17.264 17.224C17.264 17.224 16.494 16.777 16.219 16.811C15.944 16.846 15.96 17.519 16.129 17.535C16.411 17.56 16.921 17.776 16.989 18.465C16.989 18.465 16.364 18.196 16.193 18.575C16.021 18.954 16.267 19.326 16.267 19.326C16.267 19.326 17.678 19.187 18.125 18.946C18.572 18.705 19.055 18.292 19.055 17.707C19.055 17.122 18.882 15.883 19.674 15.125C20.466 14.368 24.771 11.209 26.905 10.315C26.905 10.315 26.232 11.378 26.543 12.579C26.797 13.564 32.538 10.817 32.538 10.817C32.538 10.817 30.138 12.784 30.07 13.474C30.002 14.164 31.103 14.507 31.103 14.507C31.103 14.507 29.525 15.194 28.799 16.122C27.961 17.194 29.004 18.776 28.866 18.776C28.728 18.776 27.223 18.565 26.259 19.804C26.259 19.804 27.455 19.74 28.557 19.81C29.659 19.879 31.826 20.981 32.859 19.397C32.859 19.397 32.067 19.672 31.344 19.638C30.621 19.604 29.657 18.708 29.864 17.986C30.07 17.264 30.793 16.609 31.826 16.609C32.859 16.609 33.444 17.022 33.444 17.022L33.891 16.058C33.891 16.058 32.945 16.287 32.159 16.105C32.159 16.105 33.443 14.852 34.132 14.129C34.82 13.407 35.873 12.106 35.873 12.209C35.873 12.312 35.818 13.269 35.784 14.508C35.75 15.748 36.303 17.263 36.303 17.263C36.303 17.263 35.102 16.96 34.793 16.409L34.34 17.814C34.34 17.814 34.803 18.513 34.527 19.545C34.452 19.826 34.305 20.161 34.075 20.503H38.501V12.503C38.501 10.294 36.71 8.503 34.501 8.503L34.5 8.5Z" fill="#E3E7EA"/>
<path d="M8.1582 20.881C8.1582 20.881 8.4532 20.926 8.6052 21.064C8.7932 21.233 8.8802 21.493 8.7942 21.649C8.7942 21.649 8.9832 21.633 9.2412 21.753C9.4992 21.873 9.6192 22.219 9.6192 22.219C9.6192 22.219 9.9262 22.094 10.0642 22.179C10.2022 22.264 10.3672 22.455 10.3672 22.455C10.3672 22.455 10.4462 22.356 10.5842 22.304C10.7232 22.252 10.7912 22.338 10.7912 22.338C10.7912 22.338 10.7912 21.873 11.2222 21.821C11.2222 21.821 10.7912 21.58 10.7402 20.805C10.7322 20.684 10.7382 20.587 10.7482 20.499H8.1722C8.1692 20.713 8.1582 20.88 8.1582 20.88V20.881Z" fill="#00AE37"/>
<path d="M29.7249 22.4921C29.7249 22.4921 31.4969 23.4731 32.2549 23.9211C33.0129 24.3691 33.6119 24.9951 33.3709 25.0981C33.1299 25.2011 32.6179 24.9701 32.3759 24.7631C32.1349 24.5571 31.8189 24.4151 31.8189 24.4151C31.8189 24.4151 32.3079 25.1771 32.2039 26.0711C32.0999 26.9661 31.9299 28.2861 31.8039 28.3701C31.6309 28.4871 31.7959 29.1901 31.9969 29.2381C32.3459 29.3221 32.8539 29.5161 33.1289 29.7571C33.4039 29.9971 33.5109 30.5121 33.4769 30.4081C33.4429 30.3051 33.0289 29.9611 32.6849 30.0641C32.3399 30.1681 32.2369 30.1321 31.9269 29.9601C31.6169 29.7881 31.2489 29.6321 30.8699 29.7691C30.4909 29.9071 30.2399 30.0361 30.0679 30.0291C29.6549 30.0131 29.5489 29.7571 29.1589 29.8041C28.8039 29.8481 28.5099 30.0211 28.2689 30.2621C28.0279 30.5031 27.6929 30.2931 27.4179 30.4191C27.1429 30.5461 26.8329 30.6831 26.8329 30.6831C26.8329 30.6831 26.7979 30.0811 27.5559 29.8741C27.5559 29.8741 27.5889 29.5881 27.9509 29.5471C28.1829 29.5211 28.3969 29.4371 28.3549 29.4061C28.1859 29.2771 27.6749 29.2461 27.4999 29.3371C27.1629 29.5101 26.8369 29.4031 26.8319 29.3401C26.8319 29.3401 26.4189 29.1331 26.0399 29.6501C26.0399 29.6501 25.8849 29.1331 26.6769 28.8581C26.7379 28.8371 26.7739 28.8401 26.8269 28.8261C26.8579 28.7211 26.9229 28.6091 27.0729 28.5991C27.3479 28.5811 27.7269 28.5991 27.7269 28.5991C27.7269 28.5991 27.4689 28.4271 27.2619 28.4101C27.0549 28.3921 27.1579 28.1691 27.1579 28.1691C27.1579 28.1691 27.0489 28.0321 26.8079 28.0661C26.5669 28.1001 26.3659 28.2201 26.3659 28.2201C26.3659 28.2201 26.5139 27.7721 26.8669 27.6801C27.1179 27.6151 27.2779 27.6851 27.2779 27.6851C27.2779 27.6851 27.2779 27.4791 27.5019 27.5451C27.7259 27.6141 28.1829 28.2091 28.5439 28.3651C28.9049 28.5211 29.2889 28.8651 29.8049 28.5381C30.3219 28.2111 30.3929 28.0101 30.3929 28.0101C30.3929 28.0101 30.2209 27.7581 30.2729 27.5311C30.3249 27.3041 30.6339 27.1841 30.6339 27.1841C30.6339 27.1841 30.4959 26.7021 30.7199 26.4261C30.7199 26.4261 30.4249 25.8361 30.5309 25.3761C30.5309 25.3761 30.0999 25.1011 30.0999 24.8771C30.0999 24.8771 29.4629 25.0151 29.3259 24.7051C29.3259 24.7051 28.5039 25.0221 28.1089 24.5401C28.1089 24.5401 26.9949 24.9151 26.6519 24.3641C26.6519 24.3641 25.6159 24.3681 25.3919 23.8001C25.3919 23.8001 24.9029 23.7921 24.6789 23.4491C24.6789 23.4491 24.4549 23.7941 24.1799 23.9661C23.9049 24.1391 23.7149 24.4831 23.7669 24.8101C23.8189 25.1371 23.9839 25.4551 24.3969 25.5241C24.8099 25.5921 25.1859 25.9221 25.4599 25.8951C26.0789 25.8361 26.6349 26.3731 26.5839 27.1131C26.5839 27.1131 25.5419 26.8411 25.2489 26.6001C25.2489 26.6001 24.9229 27.4941 23.7609 28.2861C22.5999 29.0771 21.7479 29.2721 21.7479 29.2721C21.7479 29.2721 21.9319 29.3891 22.1199 29.3711C22.3589 29.3481 22.6549 29.2421 22.8619 29.5691C22.8619 29.5691 23.3549 29.6101 23.5109 29.7991C23.6649 29.9881 23.7689 30.4021 23.7689 30.4021C23.7689 30.4021 23.3899 30.0411 23.1149 30.0411C22.8399 30.0411 22.9109 30.2911 22.4639 30.2051C22.0159 30.1191 21.5459 29.6521 21.2889 29.6341C21.0309 29.6161 20.7229 29.7651 20.5849 29.7481C20.4469 29.7301 20.1769 29.6431 19.7759 29.6771C19.2939 29.7181 18.7209 29.8411 18.4969 29.9971C18.2729 30.1521 18.0189 30.2811 17.9509 30.1091C17.9509 30.1091 17.7789 30.0051 17.5719 30.0911C17.3659 30.1771 17.2109 30.4011 17.2109 30.4011C17.2109 30.4011 16.7799 29.8321 17.5379 29.6611C17.5379 29.6611 17.2259 29.4021 17.0899 29.3681C16.9529 29.3341 16.9709 29.1441 16.9709 29.1441C16.9709 29.1441 16.7989 29.0581 16.6439 29.1261C16.4899 29.1951 16.2999 29.4191 16.2999 29.4191C16.2999 29.4191 16.2659 29.0581 16.6099 28.8161C16.9539 28.5751 17.2289 28.7121 17.2289 28.7121C17.2289 28.7121 17.4869 28.5401 17.6939 28.5921C17.9009 28.6441 18.2109 28.8671 18.4519 28.8671C18.6929 28.8671 19.0549 28.8851 19.0549 28.8851C19.0549 28.8851 18.9349 28.6611 18.7279 28.4901C18.5219 28.3181 18.1249 28.3181 17.9539 28.2661C17.7809 28.2141 17.6949 28.0771 17.7129 27.9561C17.7129 27.9561 17.5759 27.7321 17.3689 27.7671C17.1619 27.8021 16.9379 27.9741 16.9379 27.9741C16.9379 27.9741 16.9719 27.5091 17.3509 27.4411C17.7289 27.3721 17.9699 27.5091 17.9699 27.5091C17.9699 27.5091 17.9909 27.2921 18.2659 27.3781C18.5409 27.4641 18.9489 28.0091 19.0869 28.0951C19.2249 28.1811 20.0699 28.3691 20.2929 28.3181C20.5169 28.2661 20.8959 28.1801 21.2229 28.2321C21.2229 28.2321 21.3269 27.7161 21.8599 27.7851C21.8599 27.7851 21.7739 27.3041 22.2389 27.2001C22.2389 27.2001 21.8079 27.1141 21.8259 26.8041C21.8259 26.8041 21.3959 26.8901 20.9319 26.7521C20.4669 26.6141 20.3989 26.2191 20.3989 26.2191C20.3989 26.2191 19.7619 25.9611 19.5209 25.5481C19.2799 25.1351 19.4689 24.7741 19.4689 24.7741C19.4689 24.7741 18.9699 24.9811 18.6609 24.8261C18.6609 24.8261 18.1439 25.3431 17.6799 25.4801C17.2149 25.6181 16.8199 25.4981 16.8199 25.4981C16.8199 25.4981 16.3899 25.8771 16.0969 25.9631C16.0969 25.9631 15.9589 26.3941 15.8389 26.6511C15.7189 26.9091 15.5809 27.3221 15.5809 27.3221C15.5809 27.3221 15.0299 26.4441 15.0129 26.1691C15.0059 26.0671 14.9709 25.8561 14.9379 25.6161C14.8749 25.6791 14.8119 25.7471 14.7539 25.8251C14.4949 26.1691 13.9959 26.8231 13.5489 27.1501C13.1019 27.4771 12.5329 28.3171 12.3779 29.0741C12.3779 29.0741 12.7149 29.3061 13.0589 29.2551C13.4029 29.2031 13.6869 29.3371 13.6689 29.4571C13.6689 29.4571 14.5289 29.4751 14.4089 30.2151C14.4089 30.2151 14.0989 29.9051 13.8579 29.9401C13.6179 29.9741 13.5999 30.2841 13.1349 30.2151C12.6699 30.1451 12.4119 29.9401 12.1709 29.7321C11.9299 29.5251 11.6399 29.5931 11.4509 29.7651C11.2619 29.9371 10.9319 29.9901 10.7249 29.9211C10.5179 29.8531 10.2729 29.7581 9.87791 30.0681C9.48291 30.3771 8.76291 30.6471 8.38391 30.2241C8.38391 30.2241 8.03591 30.1901 7.84691 30.3101C7.65791 30.4301 7.48991 30.6791 7.48991 30.6791C7.48991 30.6791 7.47991 29.8181 8.15091 29.8181L8.21291 29.5781L7.93791 29.4061C7.93791 29.4061 7.54591 29.3171 7.30491 29.3691C7.06391 29.4211 6.90491 29.5101 6.90491 29.5101C6.90491 29.5101 6.94791 29.0731 7.35391 28.9761C7.84191 28.8591 8.05991 28.9761 8.05991 28.9761L8.23191 28.7181C8.23191 28.7181 8.07691 28.5451 8.21391 28.4251C8.21391 28.4251 8.11191 28.2361 7.90391 28.2181C7.69591 28.2001 7.47291 28.4421 7.47291 28.4421C7.47291 28.4421 7.50691 27.8231 7.93791 27.8231C8.36891 27.8231 8.33291 28.0121 8.52291 28.1331C8.52291 28.1331 8.57491 28.0291 8.88391 28.0811C9.19291 28.1331 9.53491 28.6391 10.4129 28.5361C11.2909 28.4321 11.7709 27.4961 11.7709 27.4961C11.7709 27.4961 11.5509 26.7901 12.3089 26.5321C12.3089 26.5321 12.0849 26.1201 12.2229 25.9131C12.3609 25.7061 12.7399 25.6721 12.7399 25.6721C12.7399 25.6721 12.3789 25.5521 12.7219 25.0691C12.7219 25.0691 12.1879 25.0171 11.7409 25.0691C11.2939 25.1211 10.7949 25.2071 10.7949 25.2071C10.7949 25.2071 10.8809 26.1191 10.0889 26.7041C10.0889 26.7041 9.91691 25.4131 9.45191 24.6901C8.98691 23.9671 8.60791 23.5201 8.19491 23.2451C7.78191 22.9701 6.69691 21.4211 6.71491 20.7341C6.71491 20.7341 6.66291 20.9751 6.52591 21.1811C6.38891 21.3871 6.25091 21.5081 6.25091 21.7141C6.25091 21.9201 6.11291 22.2291 5.87191 22.2471C5.87191 22.2471 5.66591 22.4881 5.33891 22.5571C5.01191 22.6261 4.70191 22.4371 4.70191 22.4371C4.70191 22.4371 5.01191 22.3851 5.23491 22.2651C5.45891 22.1441 5.45891 21.8341 5.45891 21.8341C5.45891 21.8341 5.20091 21.6971 5.42491 21.5071C5.64891 21.3171 5.73591 20.9691 5.85591 20.8771C5.97591 20.7851 6.13191 20.6821 6.16691 20.5441C6.16891 20.5371 6.17191 20.5111 6.17391 20.4961H2.50391V28.5001C2.50391 30.7071 4.29291 32.4961 6.49891 32.4961H34.5079C36.7149 32.4961 38.5029 30.7071 38.5029 28.5001V20.4961H34.0769C33.4639 21.4061 32.2069 22.3631 29.7279 22.4881L29.7249 22.4921Z" fill="#00AE37"/>
<path d="M5.85127 20.8814C5.73127 20.9744 5.64427 21.3224 5.42027 21.5114C5.19627 21.7004 5.45427 21.8384 5.45427 21.8384C5.45427 21.8384 5.45427 22.1484 5.23027 22.2694C5.00627 22.3894 4.69727 22.4414 4.69727 22.4414C4.69727 22.4414 5.00727 22.6304 5.33427 22.5614C5.66127 22.4934 5.86727 22.2514 5.86727 22.2514C6.10827 22.2334 6.24627 21.9244 6.24627 21.7184C6.24627 21.5124 6.38427 21.3914 6.52127 21.1854C6.65827 20.9794 6.71027 20.7384 6.71027 20.7384C6.69227 21.4264 7.77727 22.9744 8.19027 23.2494C8.60327 23.5244 8.98227 23.9714 9.44727 24.6944C9.91227 25.4174 10.0843 26.7084 10.0843 26.7084C10.8763 26.1234 10.7903 25.2114 10.7903 25.2114C10.7903 25.2114 11.2893 25.1254 11.7363 25.0734C12.1833 25.0214 12.7173 25.0734 12.7173 25.0734C12.3733 25.5554 12.7353 25.6764 12.7353 25.6764C12.7353 25.6764 12.3563 25.7104 12.2183 25.9174C12.0803 26.1244 12.3043 26.5364 12.3043 26.5364C11.5463 26.7944 11.7663 27.5004 11.7663 27.5004C11.7663 27.5004 11.2863 28.4364 10.4083 28.5404C9.53027 28.6444 9.18927 28.1374 8.87927 28.0854C8.56927 28.0334 8.51827 28.1374 8.51827 28.1374C8.32927 28.0174 8.36327 27.8274 7.93327 27.8274C7.50327 27.8274 7.46827 28.4464 7.46827 28.4464C7.46827 28.4464 7.69227 28.2054 7.89927 28.2224C8.10627 28.2394 8.20927 28.4294 8.20927 28.4294C8.07127 28.5494 8.22727 28.7224 8.22727 28.7224L8.05527 28.9804C8.05527 28.9804 7.83727 28.8634 7.34927 28.9804C6.94327 29.0774 6.90027 29.5144 6.90027 29.5144C6.90027 29.5144 7.05927 29.4254 7.30027 29.3734C7.54127 29.3214 7.93327 29.4104 7.93327 29.4104L8.20827 29.5824L8.14627 29.8224C7.47527 29.8224 7.48527 30.6834 7.48527 30.6834C7.48527 30.6834 7.65227 30.4344 7.84227 30.3144C8.03127 30.1944 8.37927 30.2284 8.37927 30.2284C8.75827 30.6514 9.47727 30.3814 9.87327 30.0724C10.2683 29.7624 10.5133 29.8574 10.7203 29.9254C10.9273 29.9934 11.2563 29.9414 11.4463 29.7694C11.6363 29.5974 11.9253 29.5294 12.1663 29.7364C12.4073 29.9434 12.6653 30.1494 13.1303 30.2194C13.5953 30.2874 13.6123 29.9784 13.8533 29.9444C14.0943 29.9104 14.4043 30.2194 14.4043 30.2194C14.5243 29.4794 13.6643 29.4614 13.6643 29.4614C13.6823 29.3414 13.3973 29.2084 13.0543 29.2594C12.7103 29.3114 12.3733 29.0784 12.3733 29.0784C12.5283 28.3204 13.0973 27.4814 13.5443 27.1544C13.9913 26.8274 14.4903 26.1734 14.7493 25.8294C14.8073 25.7514 14.8703 25.6834 14.9333 25.6204C14.9663 25.8604 15.0013 26.0714 15.0083 26.1734C15.0263 26.4484 15.5763 27.3264 15.5763 27.3264C15.5763 27.3264 15.7143 26.9134 15.8343 26.6554C15.9543 26.3974 16.0923 25.9674 16.0923 25.9674C16.3853 25.8814 16.8153 25.5024 16.8153 25.5024C16.8153 25.5024 17.2103 25.6224 17.6753 25.4844C18.1403 25.3464 18.6563 24.8304 18.6563 24.8304C18.9663 24.9854 19.4643 24.7784 19.4643 24.7784C19.4643 24.7784 19.2753 25.1394 19.5163 25.5524C19.7573 25.9654 20.3943 26.2234 20.3943 26.2234C20.3943 26.2234 20.4623 26.6184 20.9273 26.7564C21.3923 26.8944 21.8213 26.8084 21.8213 26.8084C21.8033 27.1184 22.2343 27.2044 22.2343 27.2044C21.7693 27.3084 21.8553 27.7894 21.8553 27.7894C21.3223 27.7214 21.2183 28.2364 21.2183 28.2364C20.8913 28.1844 20.5123 28.2704 20.2883 28.3224C20.0643 28.3744 19.2203 28.1854 19.0823 28.0994C18.9443 28.0134 18.5373 27.4684 18.2613 27.3824C17.9863 27.2964 17.9653 27.5134 17.9653 27.5134C17.9653 27.5134 17.7243 27.3754 17.3463 27.4454C16.9673 27.5134 16.9333 27.9784 16.9333 27.9784C16.9333 27.9784 17.1573 27.8064 17.3643 27.7714C17.5713 27.7374 17.7083 27.9604 17.7083 27.9604C17.6903 28.0804 17.7763 28.2184 17.9493 28.2704C18.1213 28.3224 18.5173 28.3224 18.7233 28.4944C18.9303 28.6664 19.0503 28.8894 19.0503 28.8894C19.0503 28.8894 18.6893 28.8714 18.4473 28.8714C18.2053 28.8714 17.8963 28.6474 17.6893 28.5964C17.4823 28.5454 17.2243 28.7164 17.2243 28.7164C17.2243 28.7164 16.9493 28.5784 16.6053 28.8204C16.2613 29.0614 16.2953 29.4234 16.2953 29.4234C16.2953 29.4234 16.4843 29.1994 16.6393 29.1304C16.7943 29.0624 16.9663 29.1484 16.9663 29.1484C16.9663 29.1484 16.9483 29.3374 17.0853 29.3724C17.2223 29.4064 17.5333 29.6654 17.5333 29.6654C16.7753 29.8374 17.2063 30.4054 17.2063 30.4054C17.2063 30.4054 17.3613 30.1814 17.5673 30.0954C17.7743 30.0094 17.9463 30.1134 17.9463 30.1134C18.0143 30.2854 18.2693 30.1564 18.4923 30.0014C18.7163 29.8464 19.2883 29.7224 19.7713 29.6814C20.1723 29.6474 20.4423 29.7344 20.5803 29.7524C20.7183 29.7704 21.0263 29.6214 21.2843 29.6384C21.5423 29.6564 22.0113 30.1234 22.4593 30.2094C22.9063 30.2954 22.8353 30.0454 23.1103 30.0454C23.3853 30.0454 23.7643 30.4064 23.7643 30.4064C23.7643 30.4064 23.6603 29.9934 23.5063 29.8034C23.3513 29.6144 22.8573 29.5734 22.8573 29.5734C22.6503 29.2464 22.3543 29.3524 22.1153 29.3754C21.9273 29.3934 21.7433 29.2764 21.7433 29.2764C21.7433 29.2764 22.5963 29.0814 23.7563 28.2904C24.9183 27.4984 25.2443 26.6044 25.2443 26.6044C25.5373 26.8454 26.5793 27.1174 26.5793 27.1174C26.6313 26.3774 26.0743 25.8394 25.4553 25.8994C25.1813 25.9264 24.8053 25.5964 24.3923 25.5284C23.9793 25.4604 23.8143 25.1414 23.7623 24.8144C23.7103 24.4874 23.9003 24.1434 24.1753 23.9704C24.4503 23.7984 24.6743 23.4534 24.6743 23.4534C24.8983 23.7974 25.3873 23.8044 25.3873 23.8044C25.6113 24.3724 26.6473 24.3684 26.6473 24.3684C26.9913 24.9194 28.1043 24.5444 28.1043 24.5444C28.4993 25.0274 29.3213 24.7094 29.3213 24.7094C29.4593 25.0194 30.0953 24.8814 30.0953 24.8814C30.0953 25.1054 30.5263 25.3804 30.5263 25.3804C30.4203 25.8394 30.7153 26.4304 30.7153 26.4304C30.4913 26.7054 30.6293 27.1884 30.6293 27.1884C30.6293 27.1884 30.3193 27.3084 30.2683 27.5354C30.2163 27.7624 30.3883 28.0144 30.3883 28.0144C30.3883 28.0144 30.3163 28.2154 29.8003 28.5424C29.2833 28.8694 28.9003 28.5244 28.5393 28.3694C28.1783 28.2144 27.7213 27.6194 27.4973 27.5494C27.2733 27.4834 27.2733 27.6894 27.2733 27.6894C27.2733 27.6894 27.1133 27.6184 26.8623 27.6844C26.5083 27.7754 26.3613 28.2244 26.3613 28.2244C26.3613 28.2244 26.5613 28.1044 26.8033 28.0704C27.0443 28.0364 27.1533 28.1734 27.1533 28.1734C27.1533 28.1734 27.0493 28.3964 27.2573 28.4144C27.4643 28.4324 27.7223 28.6034 27.7223 28.6034C27.7223 28.6034 27.3433 28.5854 27.0683 28.6034C26.9183 28.6134 26.8533 28.7254 26.8223 28.8304C26.7693 28.8444 26.7333 28.8414 26.6723 28.8624C25.8803 29.1374 26.0353 29.6544 26.0353 29.6544C26.4143 29.1374 26.8273 29.3444 26.8273 29.3444C26.8313 29.4074 27.1573 29.5144 27.4953 29.3414C27.6703 29.2514 28.1813 29.2824 28.3503 29.4104C28.3923 29.4414 28.1783 29.5254 27.9463 29.5514C27.5843 29.5924 27.5513 29.8784 27.5513 29.8784C26.7933 30.0854 26.8283 30.6874 26.8283 30.6874C26.8283 30.6874 27.1383 30.5494 27.4133 30.4234C27.6883 30.2964 28.0233 30.5074 28.2643 30.2664C28.5053 30.0254 28.7993 29.8524 29.1543 29.8084C29.5443 29.7614 29.6503 30.0164 30.0633 30.0334C30.2353 30.0404 30.4863 29.9114 30.8653 29.7734C31.2443 29.6354 31.6133 29.7924 31.9223 29.9644C32.2313 30.1364 32.3353 30.1714 32.6803 30.0684C33.0243 29.9644 33.4383 30.3094 33.4723 30.4124C33.5063 30.5164 33.3993 30.0014 33.1243 29.7614C32.8493 29.5204 32.3413 29.3264 31.9923 29.2424C31.7923 29.1944 31.6263 28.4914 31.7993 28.3744C31.9253 28.2904 32.0953 26.9704 32.1993 26.0754C32.3033 25.1814 31.8143 24.4194 31.8143 24.4194C31.8143 24.4194 32.1303 24.5614 32.3713 24.7674C32.6123 24.9744 33.1243 25.2054 33.3663 25.1024C33.6073 24.9984 33.0083 24.3724 32.2503 23.9254C31.4923 23.4784 29.7203 22.4964 29.7203 22.4964C32.1983 22.3714 33.4563 21.4144 34.0693 20.5044C34.2993 20.1634 34.4453 19.8284 34.5213 19.5464C34.7963 18.5144 34.3343 17.8154 34.3343 17.8154L34.7873 16.4104C35.0973 16.9614 36.2973 17.2644 36.2973 17.2644C36.2973 17.2644 35.7443 15.7494 35.7783 14.5094C35.8123 13.2704 35.8673 12.3144 35.8673 12.2104C35.8673 12.1064 34.8143 13.4084 34.1263 14.1304C33.4383 14.8534 32.1533 16.1064 32.1533 16.1064C32.9383 16.2884 33.8853 16.0594 33.8853 16.0594L33.4383 17.0234C33.4383 17.0234 32.8533 16.6104 31.8203 16.6104C30.7873 16.6104 30.0643 17.2644 29.8583 17.9874C29.6513 18.7104 30.6163 19.6054 31.3383 19.6394C32.0613 19.6734 32.8533 19.3984 32.8533 19.3984C31.8203 20.9824 29.6523 19.8804 28.5513 19.8114C27.4503 19.7424 26.2533 19.8054 26.2533 19.8054C27.2173 18.5664 28.7233 18.7774 28.8603 18.7774C28.9973 18.7774 27.9553 17.1954 28.7933 16.1234C29.5193 15.1964 31.0973 14.5084 31.0973 14.5084C31.0973 14.5084 29.9953 14.1644 30.0643 13.4754C30.1323 12.7864 32.5323 10.8184 32.5323 10.8184C32.5323 10.8184 26.7913 13.5654 26.5373 12.5804C26.2263 11.3794 26.8993 10.3164 26.8993 10.3164C24.7643 11.2114 20.4603 14.3694 19.6683 15.1264C18.8763 15.8844 19.0493 17.1224 19.0493 17.7084C19.0493 18.2944 18.5673 18.7064 18.1193 18.9474C17.6713 19.1884 16.2613 19.3274 16.2613 19.3274C16.2613 19.3274 16.0153 18.9554 16.1873 18.5764C16.3593 18.1974 16.9833 18.4664 16.9833 18.4664C16.9153 17.7784 16.4053 17.5624 16.1233 17.5364C15.9543 17.5214 15.9383 16.8484 16.2133 16.8124C16.4883 16.7784 17.2583 17.2254 17.2583 17.2254C17.2583 17.2254 17.3103 16.4144 16.8433 16.2684C16.5313 16.1704 16.1273 15.7834 16.2993 15.4734C16.4713 15.1634 17.4483 15.5774 17.4483 15.5774C17.5603 14.6104 16.4463 14.5744 16.4463 14.2984C16.4463 14.0224 17.3623 14.1614 17.3623 14.1614C17.2583 13.4364 16.4053 13.2724 16.4053 13.2724C16.4053 13.2724 16.3683 13.2184 16.2303 13.0464C16.0923 12.8744 16.0423 12.1724 16.3513 12.0704C16.6613 11.9664 17.2753 11.4914 17.2753 11.4914L16.8773 11.4564L16.9473 10.4114C16.7753 10.6184 15.9143 10.9964 15.4323 11.0304C14.9513 11.0644 14.6303 11.4904 14.6303 11.4904C14.1483 11.5944 12.3693 11.3054 11.7143 11.4774C11.0593 11.6494 11.1303 12.1384 11.1303 12.1384C11.1303 12.1384 10.3373 12.1664 9.37327 12.3034C8.40927 12.4414 7.71727 13.2384 7.80327 13.2954C7.93327 13.3814 8.75627 13.2094 9.37627 13.1754C9.85527 13.1494 10.2693 13.4564 10.2943 13.6514C10.2803 13.8224 10.3353 13.8234 10.3703 13.8834C10.4043 13.9444 10.6293 13.8924 10.6293 13.8924L10.8203 14.0744L10.9063 13.8154L11.1393 13.9704L11.1063 13.6664L11.3903 13.8594L11.3563 13.5314L11.6673 13.7564L11.6923 13.4234C12.7593 13.4054 12.8513 13.8554 12.8513 13.8554C11.2333 14.3024 7.61927 14.1304 7.61927 14.1304L8.40127 13.7644C7.43727 13.7984 5.55427 12.6834 5.55427 12.6834C5.55427 12.6834 6.07127 13.9224 6.51827 14.4394C6.96527 14.9564 7.92927 15.3694 7.92927 15.3694L7.65427 14.7504C7.65427 14.7504 9.58227 14.9224 10.1323 14.9224C10.2123 14.9224 10.3163 14.9204 10.4303 14.9154C10.4183 15.3364 10.8033 15.8684 10.8033 15.8684C10.5793 16.2294 10.9233 16.6424 10.9233 16.6424C10.9233 16.6424 11.0273 16.4874 11.0843 16.2984C11.1423 16.1094 11.3473 15.6044 11.3473 15.6044L11.6633 16.0394C11.7923 15.4214 12.2813 15.0704 12.7803 14.9354C12.8713 15.1504 12.9893 15.4024 12.9893 15.4024C12.2653 15.6674 12.4903 16.4864 12.4903 16.4864C11.9223 16.8134 12.0083 17.4844 12.0083 17.4844C12.0083 17.4844 11.7333 17.5884 11.5433 17.9664C11.3533 18.3444 11.5433 18.5854 11.5433 18.5854C11.5433 18.5854 11.1993 18.7744 11.0853 19.1534C10.9713 19.5324 11.0853 19.9974 11.0853 19.9974C11.0853 19.9974 10.8013 20.0274 10.7433 20.5004C10.7323 20.5874 10.7273 20.6854 10.7353 20.8064C10.7873 21.5804 11.2173 21.8224 11.2173 21.8224C10.7863 21.8744 10.7863 22.3394 10.7863 22.3394C10.7863 22.3394 10.7183 22.2534 10.5793 22.3054C10.4413 22.3574 10.3623 22.4564 10.3623 22.4564C10.3623 22.4564 10.1973 22.2664 10.0593 22.1804C9.92127 22.0944 9.61427 22.2204 9.61427 22.2204C9.61427 22.2204 9.49427 21.8744 9.23627 21.7544C8.97827 21.6344 8.78927 21.6504 8.78927 21.6504C8.87527 21.4954 8.78827 21.2354 8.60027 21.0654C8.44827 20.9274 8.15327 20.8824 8.15327 20.8824C8.15327 20.8824 8.16527 20.7164 8.16727 20.5014C8.16927 20.3284 8.16627 20.1254 8.14327 19.9404C8.09127 19.5274 7.80927 19.2054 7.70627 18.9824C7.60327 18.7594 7.82627 18.5694 8.06727 18.3974C8.27427 18.2424 8.41127 18.2294 8.48027 17.9714C8.54827 17.7124 8.54827 17.4684 8.54827 17.4684C8.54827 17.4684 8.51427 17.3484 8.56627 17.0034C8.61827 16.6594 8.22227 16.4524 8.22227 16.4524C8.22227 16.4524 8.30827 16.7454 8.22227 16.9694C8.13627 17.1934 7.94727 17.3304 7.94727 17.3304C7.80927 17.2624 7.74027 17.4864 7.74027 17.4864L7.82627 17.1254C7.93027 16.7124 7.74027 16.7294 7.48227 16.1274C7.22427 15.5254 6.43227 15.7324 6.43227 15.7324C6.91427 15.8524 7.13827 16.4904 6.93127 16.6964C6.72427 16.9024 6.69027 17.4884 6.69027 17.4884C6.36327 16.9894 6.15727 16.9894 6.15727 16.9894C6.15727 16.9894 5.95027 16.7654 5.64027 16.5934C5.33027 16.4214 5.10727 16.5934 5.10727 16.5934C5.55427 16.7134 5.55427 17.2124 5.55427 17.2124C5.27927 17.4014 5.65827 17.7804 5.65827 17.7804C5.65827 17.7804 5.67627 18.1934 5.79627 18.3654C5.91627 18.5374 6.32927 18.7264 6.32927 18.7264C6.32927 18.7264 6.20627 20.2304 6.16427 20.5024C6.16227 20.5174 6.15927 20.5434 6.15727 20.5504C6.12327 20.6884 5.96627 20.7904 5.84627 20.8834L5.85127 20.8814ZM12.3503 12.8354C11.9233 12.7824 11.9093 12.3034 11.9093 12.3034C11.9093 12.3034 12.0073 12.2874 12.1373 12.2834C12.1393 12.2834 12.1423 12.2834 12.1443 12.2834C12.2343 12.2804 12.3363 12.2834 12.4403 12.3034C12.5483 12.3254 12.6503 12.3504 12.7363 12.3744C12.7393 12.3744 12.7433 12.3754 12.7463 12.3764C12.8623 12.4074 12.9453 12.4334 12.9453 12.4334C12.9453 12.4334 12.7773 12.8874 12.3503 12.8354Z" fill="#D3003B"/>
<path d="M12.9502 12.4303C12.9502 12.4303 12.7802 12.8903 12.3502 12.8303C11.9202 12.7803 11.9102 12.3003 11.9102 12.3003C11.9102 12.3003 12.0102 12.2903 12.1402 12.2803H12.1502C12.2402 12.2803 12.3402 12.2803 12.4402 12.3003C12.5502 12.3203 12.6502 12.3503 12.7402 12.3703L12.7502 12.3803C12.8602 12.4103 12.9502 12.4303 12.9502 12.4303Z" fill="black"/>
</svg>
